<?xml version="1.0" encoding="utf-8"?>
<svg version="1.1"
	 xmlns="http://www.w3.org/2000/svg" xmlns:xlink="http://www.w3.org/1999/xlink"
	 x="0px" y="0px" width="128px" height="24px" viewBox="0 29.695 128 24">
<defs>
</defs>
<path fill="#E6E7E8" d="M128,49.695c0,2.209-1.791,4-4,4H4c-2.209,0-4-1.791-4-4v-16c0-2.209,1.791-4,4-4h120c2.209,0,4,1.791,4,4
	V49.695z"/>
<path fill="#206981" d="M22.995,29.695c0,0,7.611,0,15.222,7.242c8.777,8.353,18.079,16.758,26.778,16.758H1v-24H22.995z"/>
<linearGradient id="SVGID_1_" gradientUnits="userSpaceOnUse" x1="31.9976" y1="30.29" x2="31.9976" y2="50.5708">
	<stop  offset="0" style="stop-color:#B1C2C1"/>
	<stop  offset="0.9212" style="stop-color:#3B94B4"/>
	<stop  offset="1" style="stop-color:#236981"/>
</linearGradient>
<path fill="url(#SVGID_1_)" d="M21.995,29.695c0,0,7.611,0,15.222,7.242c8.777,8.353,18.079,16.758,26.778,16.758H0v-24H21.995z"/>
<path fill="#C8691C" d="M21.586,43.843c0.026,0.08,0.046,0.164,0.046,0.249c0,1.207-2.88,2.186-6.428,2.186
	c-3.553,0-6.43-0.979-6.43-2.186c0-0.085,0.017-0.169,0.046-0.249c-2.784,1.813-4.754,4.777-5.228,8.222h23.22
	C26.339,48.62,24.37,45.656,21.586,43.843z"/>
<path fill="#C8691C" d="M20.781,37.94c0,3.242-2.497,5.867-5.578,5.867c-3.085,0-5.581-2.625-5.581-5.867
	c0-3.241,2.495-5.867,5.581-5.867C18.284,32.073,20.781,34.699,20.781,37.94z"/>
<path fill="#F79523" d="M13.503,46.197c-2.725-0.252-4.729-1.101-4.729-2.105c0-0.085,0.017-0.169,0.046-0.249
	c-2.784,1.813-4.754,4.777-5.228,8.222h13.438L13.503,46.197z"/>
<circle fill="#F79523" cx="30.401" cy="43.908" r="8.219"/>
<path fill="#FFFFFF" d="M36.614,41.816c-0.439,0-0.794,0.355-0.794,0.794c0,0.056,0.021,0.105,0.032,0.16l-2.595,1.218l-1.847-2.876
	c0.106-0.136,0.181-0.298,0.181-0.485c0-0.439-0.354-0.794-0.793-0.794s-0.792,0.355-0.792,0.794c0,0.196,0.079,0.37,0.196,0.506
	l-2.265,2.988l-3.027-1.452c0.045-0.099,0.073-0.208,0.073-0.324c0-0.437-0.354-0.792-0.793-0.792c-0.438,0-0.793,0.354-0.793,0.792
	c0,0.439,0.355,0.793,0.793,0.793c0.09,0,0.174-0.023,0.255-0.05l1.095,4.693c0,0,1.397-1.399,5.259-1.47
	c3.594-0.067,4.804,1.267,4.804,1.267l0.9-4.198c0.038,0.005,0.073,0.024,0.113,0.024c0.438,0,0.793-0.355,0.793-0.794
	C37.407,42.171,37.052,41.816,36.614,41.816z"/>
<path fill="#E6E7E8" d="M26.041,43.209l-1.132-0.541c0.045-0.099,0.073-0.208,0.073-0.324c0-0.437-0.354-0.792-0.793-0.792
	c-0.438,0-0.793,0.354-0.793,0.792c0,0.439,0.355,0.793,0.793,0.793c0.09,0,0.174-0.023,0.255-0.05l1.095,4.693
	c0,0,0.616-0.597,2.111-1.03L26.041,43.209z"/>
<path fill="#D1D3D4" d="M79.745,53.695c-8.699,0-17.429-9.051-26.778-16.758c-7.155-5.898-13.222-7.242-13.222-7.242h-8
	c0,0,7.611,0,15.222,7.242c8.777,8.353,18.079,16.758,26.778,16.758H79.745z"/>
<path fill="#D1D3D4" d="M92.454,53.695c-8.699,0-17.429-9.051-26.778-16.758c-7.154-5.898-13.222-7.242-13.222-7.242h-8
	c0,0,7.611,0,15.222,7.242c8.777,8.353,18.079,16.758,26.778,16.758H92.454z"/>
<path fill="#D1D3D4" d="M105.163,53.695c-8.699,0-17.429-9.051-26.778-16.758c-7.154-5.898-13.222-7.242-13.222-7.242h-8
	c0,0,7.611,0,15.222,7.242c8.777,8.353,18.079,16.758,26.778,16.758H105.163z"/>
<path fill="#D1D3D4" d="M117.873,53.695c-8.699,0-17.43-9.051-26.779-16.758c-7.154-5.898-13.221-7.242-13.221-7.242h-8
	c0,0,7.611,0,15.221,7.242c8.777,8.353,18.08,16.758,26.779,16.758H117.873z"/>
<path fill="#D1D3D4" d="M103.291,29.695h-8c0,0,7.611,0,15.222,7.242c5.649,5.376,11.514,10.75,17.297,13.914
	c0.112-0.368,0.19-0.751,0.19-1.156v-3.119c-3.749-2.939-7.563-6.404-11.487-9.639C109.358,31.039,103.291,29.695,103.291,29.695z"
	/>
<path fill="#D1D3D4" d="M124.215,53.674c0.761-0.041,1.467-0.282,2.057-0.69c-7.286-2.258-14.66-9.61-22.468-16.046
	c-7.154-5.898-13.222-7.242-13.222-7.242h-8c0,0,7.611,0,15.222,7.242C106.458,45.173,115.621,53.443,124.215,53.674z"/>
<path fill="#D1D3D4" d="M128,41.396v-5.428c-6.609-5.076-12-6.273-12-6.273h-8c0,0,7.611,0,15.222,7.242
	C124.8,38.439,126.395,39.94,128,41.396z"/>
<text transform="matrix(1 0 0 1 61.25 45.9453)" font-family="'MyriadPro-Regular'" font-size="14">admin</text>
<linearGradient id="SVGID_2_" gradientUnits="userSpaceOnUse" x1="31.9976" y1="30.29" x2="31.9976" y2="50.5708">
	<stop  offset="0" style="stop-color:#FDD178"/>
	<stop  offset="0.9394" style="stop-color:#F79523"/>
	<stop  offset="1" style="stop-color:#C8691C"/>
</linearGradient>
<text transform="matrix(1 0 0 1 61.25 45.9453)" display="none" font-family="'MyriadPro-Regular'" font-size="14">moderator</text>
</svg>
