<?xml version="1.0" encoding="utf-8"?>
<!-- Generator: Adobe Illustrator 15.0.0, SVG Export Plug-In  -->
<!DOCTYPE svg PUBLIC "-//W3C//DTD SVG 1.1//EN" "http://www.w3.org/Graphics/SVG/1.1/DTD/svg11.dtd" [
	<!ENTITY ns_flows "http://ns.adobe.com/Flows/1.0/">
]>
<svg version="1.1"
	 xmlns="http://www.w3.org/2000/svg" xmlns:xlink="http://www.w3.org/1999/xlink" xmlns:a="http://ns.adobe.com/AdobeSVGViewerExtensions/3.0/"
	 x="0px" y="0px" width="128px" height="24px" viewBox="0 0 128 24" enable-background="new 0 0 128 24" xml:space="preserve">
<defs>
</defs>
<path fill="#E6E7E8" d="M128,20c0,2.209-1.791,4-4,4H4c-2.209,0-4-1.791-4-4V4c0-2.209,1.791-4,4-4h120c2.209,0,4,1.791,4,4V20z"/>
<path display="none" fill="#F79523" d="M17.375,18.433l0.003,0.305c0,1.28-0.444,2.318-1.724,2.318L8.157,20.99
	c-1.281,0-1.726-1.039-1.726-2.318L6.42,18.374l-0.403-0.386l-0.93-0.93v2.466c0,1.64,1.329,2.969,2.968,2.969h7.504
	c1.64,0,2.969-1.329,2.969-2.969v-2.174l-0.638,0.638L17.375,18.433z"/>
<path display="none" fill="#F79523" d="M15.56,1.528H8.056c-1.639,0-2.968,1.329-2.968,2.968v2.467l0.93-0.93L6.42,5.611
	l0.011-0.458c0-1.281,0.444-2.319,1.726-2.319l7.498,0.065c1.28,0,1.724,1.039,1.724,2.319l-0.003,0.335l0.516,0.48l0.638,0.638
	V4.497C18.529,2.857,17.2,1.528,15.56,1.528z"/>
<polygon display="none" fill="#52CAF5" points="17.432,7.827 16.498,8.76 19.749,12.011 16.498,15.261 17.432,16.195 21.616,12.011 
	"/>
<polygon display="none" fill="#52CAF5" points="6.434,7.827 7.368,8.76 4.118,12.011 7.368,15.261 6.434,16.195 2.25,12.011 "/>
<path fill="#206981" d="M22.995,0c0,0,7.611,0,15.222,7.242C46.995,15.595,56.296,24,64.995,24H1V0H22.995z"/>
<linearGradient id="SVGID_1_" gradientUnits="userSpaceOnUse" x1="31.9976" y1="0.5947" x2="31.9976" y2="20.8755">
	<stop  offset="0" style="stop-color:#B1C2C1"/>
	<stop  offset="0.9212" style="stop-color:#3B94B4"/>
	<stop  offset="1" style="stop-color:#236981"/>
</linearGradient>
<path fill="url(#SVGID_1_)" d="M21.995,0c0,0,7.611,0,15.222,7.242C45.995,15.595,55.296,24,63.995,24H0V0H21.995z"/>
<path fill="#C8691C" d="M21.586,14.147c0.026,0.08,0.046,0.164,0.046,0.249c0,1.207-2.88,2.186-6.428,2.186
	c-3.553,0-6.43-0.979-6.43-2.186c0-0.085,0.017-0.169,0.046-0.249c-2.784,1.813-4.754,4.777-5.228,8.222h23.22
	C26.339,18.925,24.37,15.961,21.586,14.147z"/>
<path fill="#C8691C" d="M20.781,8.245c0,3.242-2.497,5.867-5.578,5.867c-3.085,0-5.581-2.625-5.581-5.867
	c0-3.241,2.495-5.867,5.581-5.867C18.284,2.378,20.781,5.004,20.781,8.245z"/>
<path fill="#F79523" d="M13.503,16.502c-2.725-0.252-4.729-1.101-4.729-2.105c0-0.085,0.017-0.169,0.046-0.249
	c-2.784,1.813-4.754,4.777-5.228,8.222h13.438L13.503,16.502z"/>
<circle fill="#F79523" cx="30.401" cy="14.213" r="8.219"/>
<path fill="#FFFFFF" d="M36.614,12.121c-0.439,0-0.794,0.355-0.794,0.794c0,0.056,0.021,0.105,0.032,0.16l-2.595,1.218l-1.847-2.876
	c0.106-0.136,0.181-0.298,0.181-0.485c0-0.439-0.354-0.794-0.793-0.794s-0.792,0.355-0.792,0.794c0,0.196,0.079,0.37,0.196,0.506
	l-2.265,2.988l-3.027-1.452c0.045-0.099,0.073-0.208,0.073-0.324c0-0.437-0.354-0.792-0.793-0.792c-0.438,0-0.793,0.354-0.793,0.792
	c0,0.439,0.355,0.793,0.793,0.793c0.09,0,0.174-0.023,0.255-0.05l1.095,4.693c0,0,1.397-1.399,5.259-1.47
	c3.594-0.067,4.804,1.267,4.804,1.267l0.9-4.198c0.038,0.005,0.073,0.024,0.113,0.024c0.438,0,0.793-0.355,0.793-0.794
	C37.407,12.476,37.052,12.121,36.614,12.121z"/>
<path fill="#E6E7E8" d="M26.041,13.514l-1.132-0.541c0.045-0.099,0.073-0.208,0.073-0.324c0-0.437-0.354-0.792-0.793-0.792
	c-0.438,0-0.793,0.354-0.793,0.792c0,0.439,0.355,0.793,0.793,0.793c0.09,0,0.174-0.023,0.255-0.05l1.095,4.693
	c0,0,0.616-0.597,2.111-1.03L26.041,13.514z"/>
<path fill="#A2BED2" d="M79.745,24c-8.699,0-17.429-9.051-26.778-16.758C45.813,1.344,39.745,0,39.745,0h-8
	c0,0,7.611,0,15.222,7.242C55.745,15.595,65.046,24,73.745,24H79.745z"/>
<path fill="#A2BED2" d="M92.454,24c-8.699,0-17.429-9.051-26.778-16.758C58.521,1.344,52.454,0,52.454,0h-8
	c0,0,7.611,0,15.222,7.242C68.453,15.595,77.755,24,86.454,24H92.454z"/>
<path fill="#A2BED2" d="M105.163,24c-8.699,0-17.429-9.051-26.778-16.758C71.23,1.344,65.163,0,65.163,0h-8
	c0,0,7.611,0,15.222,7.242C81.162,15.595,90.464,24,99.163,24H105.163z"/>
<path fill="#A2BED2" d="M117.873,24c-8.699,0-17.43-9.051-26.779-16.758C83.939,1.344,77.873,0,77.873,0h-8
	c0,0,7.611,0,15.221,7.242C93.871,15.595,103.174,24,111.873,24H117.873z"/>
<path fill="#A2BED2" d="M130.582,24c-8.699,0-17.429-9.051-26.778-16.758C96.649,1.344,90.582,0,90.582,0h-8
	c0,0,7.611,0,15.222,7.242C106.581,15.595,115.883,24,124.582,24H130.582z"/>
<path fill="#A2BED2" d="M128,11.701V6.273C121.391,1.197,116,0,116,0h-8c0,0,7.611,0,15.222,7.242
	C124.8,8.744,126.395,10.245,128,11.701z"/>
<path fill="#A2BED2" d="M128,21.268v-4.387c-3.749-2.939-7.563-6.404-11.487-9.639C109.358,1.344,103.291,0,103.291,0h-8
	c0,0,7.611,0,15.222,7.242C116.224,12.677,122.155,18.118,128,21.268z"/>
<text transform="matrix(1 0 0 1 61.25 16.25)" fill="#206981" font-family="'MyriadPro-Regular'" font-size="14">admin</text>
<path display="none" fill="#E6E7E8" d="M128,20c0,2.209-1.791,4-4,4H4c-2.209,0-4-1.791-4-4V4c0-2.209,1.791-4,4-4h120
	c2.209,0,4,1.791,4,4V20z"/>
<path display="none" fill="#C8691C" d="M22.995,0c0,0,7.611,0,15.222,7.242C46.995,15.595,56.296,24,64.995,24H1V0H22.995z"/>
<linearGradient id="SVGID_2_" gradientUnits="userSpaceOnUse" x1="31.9976" y1="0.5947" x2="31.9976" y2="20.8755">
	<stop  offset="0" style="stop-color:#FDD178"/>
	<stop  offset="0.9394" style="stop-color:#F79523"/>
	<stop  offset="1" style="stop-color:#C8691C"/>
</linearGradient>
<path display="none" fill="url(#SVGID_2_)" d="M21.995,0c0,0,7.611,0,15.222,7.242C45.995,15.595,55.296,24,63.995,24H0V0H21.995z"
	/>
<path display="none" fill="#3588A6" d="M21.586,14.147c0.026,0.08,0.046,0.164,0.046,0.249c0,1.207-2.88,2.186-6.428,2.186
	c-3.553,0-6.43-0.979-6.43-2.186c0-0.085,0.017-0.169,0.046-0.249c-2.784,1.813-4.754,4.777-5.228,8.222h23.22
	C26.339,18.925,24.37,15.961,21.586,14.147z"/>
<path display="none" fill="#3588A6" d="M20.781,8.245c0,3.242-2.497,5.867-5.578,5.867c-3.085,0-5.581-2.625-5.581-5.867
	c0-3.241,2.495-5.867,5.581-5.867C18.284,2.378,20.781,5.004,20.781,8.245z"/>
<path display="none" fill="#52CAF5" d="M13.503,16.502c-2.725-0.252-4.729-1.101-4.729-2.105c0-0.085,0.017-0.169,0.046-0.249
	c-2.784,1.813-4.754,4.777-5.228,8.222h13.438L13.503,16.502z"/>
<circle display="none" fill="#52CAF5" cx="30.401" cy="14.213" r="8.219"/>
<path display="none" fill="#FFFFFF" d="M30.479,9.225c-2.868,0-5.193,2.322-5.193,5.191s2.325,5.194,5.193,5.194
	c2.868,0,5.193-2.325,5.193-5.194S33.346,9.225,30.479,9.225z M30.479,18.106c-2.039,0-3.689-1.651-3.689-3.69
	c0-2.036,1.651-3.688,3.689-3.688c2.037,0,3.687,1.652,3.687,3.688C34.166,16.455,32.515,18.106,30.479,18.106z"/>
<path display="none" fill="#FFFFFF" d="M30.479,13.244c-0.624,0-1.129,0.505-1.129,1.127c0,0.625,0.505,1.13,1.129,1.13
	c0.623,0,1.129-0.505,1.129-1.13C31.608,13.749,31.102,13.244,30.479,13.244z M30.479,14.774c-0.221,0-0.401-0.18-0.401-0.403
	c0-0.221,0.18-0.398,0.401-0.398c0.222,0,0.4,0.178,0.4,0.398C30.879,14.595,30.701,14.774,30.479,14.774z"/>
<path display="none" fill="#FFFFFF" d="M30.886,11.697c-0.055-0.719-0.222-2.795-0.222-3.06c0-0.179,0.023-0.438,0.042-0.59
	c0.092-0.083,0.151-0.202,0.151-0.334c0-0.252-0.203-0.456-0.455-0.456s-0.455,0.203-0.455,0.456c0,0.146,0.074,0.271,0.182,0.354
	c0.006,0.088,0.01,0.251,0.01,0.575c0,0.76-0.192,1.673-0.248,3.083c-0.055,1.41,0.469,1.905,0.469,1.905h0.167
	C30.528,13.629,30.996,13.146,30.886,11.697z"/>
<path display="none" fill="#FFFFFF" d="M30.886,17.014c-0.055,0.718-0.222,2.796-0.222,3.062c0,0.177,0.023,0.437,0.042,0.588
	c0.092,0.084,0.151,0.203,0.151,0.336c0,0.251-0.203,0.454-0.455,0.454s-0.455-0.203-0.455-0.454c0-0.146,0.074-0.271,0.182-0.355
	c0.006-0.087,0.01-0.252,0.01-0.574c0-0.762-0.192-1.674-0.248-3.084c-0.055-1.409,0.469-1.901,0.469-1.901h0.167
	C30.528,15.084,30.996,15.566,30.886,17.014z"/>
<path display="none" fill="#FFFFFF" d="M28.863,12.129c-0.547-0.469-2.133-1.82-2.322-2.009c-0.125-0.125-0.292-0.326-0.387-0.445
	c0.006-0.124-0.034-0.249-0.128-0.344c-0.177-0.178-0.467-0.178-0.646,0c-0.178,0.176-0.178,0.466,0.001,0.643
	c0.104,0.104,0.244,0.14,0.379,0.122c0.066,0.06,0.186,0.169,0.414,0.398c0.538,0.539,1.048,1.322,2.006,2.357
	c0.958,1.037,1.676,1.012,1.676,1.012l0.12-0.115C29.977,13.749,29.963,13.076,28.863,12.129z"/>
<path display="none" fill="#FFFFFF" d="M32.621,15.89c0.47,0.545,1.821,2.132,2.009,2.321c0.125,0.126,0.326,0.289,0.447,0.387
	c0.124-0.006,0.247,0.032,0.342,0.127c0.179,0.178,0.179,0.468,0,0.646c-0.176,0.178-0.466,0.178-0.644,0
	c-0.101-0.104-0.138-0.244-0.119-0.38c-0.058-0.067-0.171-0.187-0.399-0.416c-0.539-0.537-1.322-1.044-2.356-2.001
	c-1.036-0.959-1.016-1.679-1.016-1.679l0.118-0.119C31.003,14.775,31.676,14.786,32.621,15.89z"/>
<path display="none" fill="#FFFFFF" d="M27.743,13.867c-0.719,0.056-2.794,0.222-3.061,0.222c-0.179,0-0.437-0.025-0.591-0.043
	c-0.082-0.091-0.201-0.151-0.333-0.151c-0.251,0-0.456,0.205-0.456,0.455c0,0.252,0.205,0.458,0.456,0.458
	c0.147,0,0.271-0.076,0.354-0.187c0.089-0.002,0.252-0.009,0.575-0.009c0.761,0,1.676,0.192,3.085,0.249
	c1.409,0.054,1.902-0.468,1.902-0.468v-0.165C29.674,14.229,29.19,13.758,27.743,13.867z"/>
<path display="none" fill="#FFFFFF" d="M33.058,13.867c0.72,0.056,2.795,0.222,3.063,0.222c0.179,0,0.436-0.025,0.588-0.043
	c0.084-0.091,0.202-0.151,0.335-0.151c0.251,0.003,0.456,0.205,0.456,0.458c0,0.249-0.205,0.452-0.456,0.455
	c-0.147,0-0.272-0.076-0.355-0.187c-0.087-0.002-0.251-0.009-0.575-0.009c-0.759,0-1.674,0.195-3.083,0.249
	s-1.903-0.468-1.903-0.468v-0.165C31.127,14.229,31.613,13.758,33.058,13.867z"/>
<path display="none" fill="#FFFFFF" d="M28.176,15.89c-0.468,0.546-1.822,2.133-2.009,2.322c-0.126,0.125-0.327,0.291-0.446,0.388
	c-0.125-0.007-0.25,0.033-0.343,0.127c-0.177,0.178-0.177,0.467,0,0.644c0.177,0.179,0.465,0.179,0.644,0
	c0.103-0.101,0.139-0.242,0.121-0.38c0.059-0.062,0.171-0.184,0.398-0.412c0.538-0.538,1.321-1.048,2.356-2.005
	c1.035-0.959,1.016-1.677,1.016-1.677l-0.118-0.116C29.794,14.78,29.121,14.789,28.176,15.89z"/>
<path display="none" fill="#FFFFFF" d="M31.934,12.133c0.546-0.47,2.132-1.822,2.32-2.008c0.127-0.126,0.292-0.326,0.389-0.447
	c-0.006-0.124,0.033-0.25,0.128-0.345c0.178-0.177,0.465-0.177,0.644,0.002c0.177,0.177,0.177,0.465,0,0.641
	c-0.104,0.104-0.245,0.143-0.381,0.123c-0.065,0.058-0.186,0.17-0.414,0.4c-0.539,0.537-1.047,1.319-2.005,2.354
	c-0.957,1.036-1.676,1.015-1.676,1.015l-0.117-0.116C30.822,13.752,30.832,13.077,31.934,12.133z"/>
<path display="none" fill="#FFFFFF" d="M36.614,12.121c-0.439,0-0.794,0.355-0.794,0.794c0,0.056,0.021,0.105,0.032,0.16
	l-2.595,1.218l-1.847-2.876c0.106-0.136,0.181-0.298,0.181-0.485c0-0.439-0.354-0.794-0.793-0.794s-0.792,0.355-0.792,0.794
	c0,0.196,0.079,0.37,0.196,0.506l-2.265,2.988l-3.027-1.452c0.045-0.099,0.073-0.208,0.073-0.324c0-0.437-0.354-0.792-0.793-0.792
	c-0.438,0-0.793,0.354-0.793,0.792c0,0.439,0.355,0.793,0.793,0.793c0.09,0,0.174-0.023,0.255-0.05l1.095,4.693
	c0,0,1.397-1.399,5.259-1.47c3.594-0.067,4.804,1.267,4.804,1.267l0.9-4.198c0.038,0.005,0.073,0.024,0.113,0.024
	c0.438,0,0.793-0.355,0.793-0.794C37.407,12.476,37.052,12.121,36.614,12.121z"/>
<path display="none" fill="#E6E7E8" d="M26.041,13.514l-1.132-0.541c0.045-0.099,0.073-0.208,0.073-0.324
	c0-0.437-0.354-0.792-0.793-0.792c-0.438,0-0.793,0.354-0.793,0.792c0,0.439,0.355,0.793,0.793,0.793c0.09,0,0.174-0.023,0.255-0.05
	l1.095,4.693c0,0,0.616-0.597,2.111-1.03L26.041,13.514z"/>
<path display="none" fill="#FDD178" d="M79.745,24c-8.699,0-17.429-9.051-26.778-16.758C45.813,1.344,39.745,0,39.745,0h-8
	c0,0,7.611,0,15.222,7.242C55.745,15.595,65.046,24,73.745,24H79.745z"/>
<path display="none" fill="#FDD178" d="M92.454,24c-8.699,0-17.429-9.051-26.778-16.758C58.521,1.344,52.454,0,52.454,0h-8
	c0,0,7.611,0,15.222,7.242C68.453,15.595,77.755,24,86.454,24H92.454z"/>
<path display="none" fill="#FDD178" d="M105.163,24c-8.699,0-17.429-9.051-26.778-16.758C71.23,1.344,65.163,0,65.163,0h-8
	c0,0,7.611,0,15.222,7.242C81.162,15.595,90.464,24,99.163,24H105.163z"/>
<path display="none" fill="#FDD178" d="M117.873,24c-8.699,0-17.43-9.051-26.779-16.758C83.939,1.344,77.873,0,77.873,0h-8
	c0,0,7.611,0,15.221,7.242C93.871,15.595,103.174,24,111.873,24H117.873z"/>
<path display="none" fill="#FDD178" d="M130.582,24c-8.699,0-17.429-9.051-26.778-16.758C96.649,1.344,90.582,0,90.582,0h-8
	c0,0,7.611,0,15.222,7.242C106.581,15.595,115.883,24,124.582,24H130.582z"/>
<path display="none" fill="#FDD178" d="M128,11.701V6.273C121.391,1.197,116,0,116,0h-8c0,0,7.611,0,15.222,7.242
	C124.8,8.744,126.395,10.245,128,11.701z"/>
<path display="none" fill="#FDD178" d="M128,21.268v-4.387c-3.749-2.939-7.563-6.404-11.487-9.639
	C109.358,1.344,103.291,0,103.291,0h-8c0,0,7.611,0,15.222,7.242C116.224,12.677,122.155,18.118,128,21.268z"/>
<text transform="matrix(1 0 0 1 61.25 16.25)" display="none" fill="#D26F2B" font-family="'MyriadPro-Regular'" font-size="12">moderator</text>
</svg>
