<?xml version="1.0" encoding="utf-8"?>
<svg version="1.1"
	 xmlns="http://www.w3.org/2000/svg" xmlns:xlink="http://www.w3.org/1999/xlink"
	 x="0px" y="0px" width="128px" height="24px" viewBox="0 29.695 128 24">
<defs>
</defs>
<linearGradient id="SVGID_1_" gradientUnits="userSpaceOnUse" x1="31.9976" y1="30.29" x2="31.9976" y2="50.5708">
	<stop  offset="0" style="stop-color:#B1C2C1"/>
	<stop  offset="0.9212" style="stop-color:#3B94B4"/>
	<stop  offset="1" style="stop-color:#236981"/>
</linearGradient>
<text transform="matrix(1 0 0 1 61.25 45.9453)" display="none" fill="#206981" font-family="'MyriadPro-Regular'" font-size="14">admin</text>
<path fill="#E6E7E8" d="M128,49.695c0,2.209-1.791,4-4,4H4c-2.209,0-4-1.791-4-4v-16c0-2.209,1.791-4,4-4h120c2.209,0,4,1.791,4,4
	V49.695z"/>
<path fill="#C8691C" d="M22.995,29.695c0,0,7.611,0,15.222,7.242c8.777,8.353,18.079,16.758,26.778,16.758H1v-24H22.995z"/>
<linearGradient id="SVGID_2_" gradientUnits="userSpaceOnUse" x1="31.9976" y1="30.29" x2="31.9976" y2="50.5708">
	<stop  offset="0" style="stop-color:#FDD178"/>
	<stop  offset="0.9394" style="stop-color:#F79523"/>
	<stop  offset="1" style="stop-color:#C8691C"/>
</linearGradient>
<path fill="url(#SVGID_2_)" d="M21.995,29.695c0,0,7.611,0,15.222,7.242c8.777,8.353,18.079,16.758,26.778,16.758H0v-24H21.995z"/>
<path fill="#3588A6" d="M21.586,43.843c0.026,0.08,0.046,0.164,0.046,0.249c0,1.207-2.88,2.186-6.428,2.186
	c-3.553,0-6.43-0.979-6.43-2.186c0-0.085,0.017-0.169,0.046-0.249c-2.784,1.813-4.754,4.777-5.228,8.222h23.22
	C26.339,48.62,24.37,45.656,21.586,43.843z"/>
<path fill="#3588A6" d="M20.781,37.94c0,3.242-2.497,5.867-5.578,5.867c-3.085,0-5.581-2.625-5.581-5.867
	c0-3.241,2.495-5.867,5.581-5.867C18.284,32.073,20.781,34.699,20.781,37.94z"/>
<path fill="#52CAF5" d="M13.503,46.197c-2.725-0.252-4.729-1.101-4.729-2.105c0-0.085,0.017-0.169,0.046-0.249
	c-2.784,1.813-4.754,4.777-5.228,8.222h13.438L13.503,46.197z"/>
<circle fill="#52CAF5" cx="30.401" cy="43.908" r="8.219"/>
<path fill="#FFFFFF" d="M30.479,38.92c-2.868,0-5.193,2.322-5.193,5.191s2.325,5.194,5.193,5.194c2.868,0,5.193-2.325,5.193-5.194
	S33.346,38.92,30.479,38.92z M30.479,47.802c-2.039,0-3.689-1.651-3.689-3.69c0-2.036,1.651-3.688,3.689-3.688
	c2.037,0,3.687,1.652,3.687,3.688C34.166,46.15,32.515,47.802,30.479,47.802z"/>
<path fill="#FFFFFF" d="M30.479,42.939c-0.624,0-1.129,0.505-1.129,1.127c0,0.625,0.505,1.13,1.129,1.13
	c0.623,0,1.129-0.505,1.129-1.13C31.608,43.444,31.102,42.939,30.479,42.939z M30.479,44.47c-0.221,0-0.401-0.18-0.401-0.403
	c0-0.221,0.18-0.398,0.401-0.398c0.222,0,0.4,0.178,0.4,0.398C30.879,44.29,30.701,44.47,30.479,44.47z"/>
<path fill="#FFFFFF" d="M30.886,41.393c-0.055-0.719-0.222-2.795-0.222-3.06c0-0.179,0.023-0.438,0.042-0.59
	c0.092-0.083,0.151-0.202,0.151-0.334c0-0.252-0.203-0.456-0.455-0.456s-0.455,0.203-0.455,0.456c0,0.146,0.074,0.271,0.182,0.354
	c0.006,0.088,0.01,0.251,0.01,0.575c0,0.76-0.192,1.673-0.248,3.083c-0.055,1.41,0.469,1.905,0.469,1.905h0.167
	C30.528,43.324,30.996,42.842,30.886,41.393z"/>
<path fill="#FFFFFF" d="M30.886,46.709c-0.055,0.718-0.222,2.796-0.222,3.062c0,0.177,0.023,0.437,0.042,0.588
	c0.092,0.084,0.151,0.203,0.151,0.336c0,0.251-0.203,0.454-0.455,0.454s-0.455-0.203-0.455-0.454c0-0.146,0.074-0.271,0.182-0.355
	c0.006-0.087,0.01-0.252,0.01-0.574c0-0.762-0.192-1.674-0.248-3.084c-0.055-1.409,0.469-1.901,0.469-1.901h0.167
	C30.528,44.779,30.996,45.262,30.886,46.709z"/>
<path fill="#FFFFFF" d="M28.863,41.825c-0.547-0.469-2.133-1.82-2.322-2.009c-0.125-0.125-0.292-0.326-0.387-0.445
	c0.006-0.124-0.034-0.249-0.128-0.344c-0.177-0.178-0.467-0.178-0.646,0c-0.178,0.176-0.178,0.466,0.001,0.643
	c0.104,0.104,0.244,0.14,0.379,0.122c0.066,0.06,0.186,0.169,0.414,0.398c0.538,0.539,1.048,1.322,2.006,2.357
	c0.958,1.037,1.676,1.012,1.676,1.012l0.12-0.115C29.977,43.444,29.963,42.771,28.863,41.825z"/>
<path fill="#FFFFFF" d="M32.621,45.585c0.47,0.545,1.821,2.132,2.009,2.321c0.125,0.126,0.326,0.289,0.447,0.387
	c0.124-0.006,0.247,0.032,0.342,0.127c0.179,0.178,0.179,0.468,0,0.646c-0.176,0.178-0.466,0.178-0.644,0
	c-0.101-0.104-0.138-0.244-0.119-0.38c-0.058-0.067-0.171-0.187-0.399-0.416c-0.539-0.537-1.322-1.044-2.356-2.001
	c-1.036-0.959-1.016-1.679-1.016-1.679l0.118-0.119C31.003,44.471,31.676,44.481,32.621,45.585z"/>
<path fill="#FFFFFF" d="M27.743,43.563c-0.719,0.056-2.794,0.222-3.061,0.222c-0.179,0-0.437-0.025-0.591-0.043
	c-0.082-0.091-0.201-0.151-0.333-0.151c-0.251,0-0.456,0.205-0.456,0.455c0,0.252,0.205,0.458,0.456,0.458
	c0.147,0,0.271-0.076,0.354-0.187c0.089-0.002,0.252-0.009,0.575-0.009c0.761,0,1.676,0.192,3.085,0.249
	c1.409,0.054,1.902-0.468,1.902-0.468v-0.165C29.674,43.924,29.19,43.453,27.743,43.563z"/>
<path fill="#FFFFFF" d="M33.058,43.563c0.72,0.056,2.795,0.222,3.063,0.222c0.179,0,0.436-0.025,0.588-0.043
	c0.084-0.091,0.202-0.151,0.335-0.151c0.251,0.003,0.456,0.205,0.456,0.458c0,0.249-0.205,0.452-0.456,0.455
	c-0.147,0-0.272-0.076-0.355-0.187c-0.087-0.002-0.251-0.009-0.575-0.009c-0.759,0-1.674,0.195-3.083,0.249
	s-1.903-0.468-1.903-0.468v-0.165C31.127,43.924,31.613,43.453,33.058,43.563z"/>
<path fill="#FFFFFF" d="M28.176,45.585c-0.468,0.546-1.822,2.133-2.009,2.322c-0.126,0.125-0.327,0.291-0.446,0.388
	c-0.125-0.007-0.25,0.033-0.343,0.127c-0.177,0.178-0.177,0.467,0,0.644c0.177,0.179,0.465,0.179,0.644,0
	c0.103-0.101,0.139-0.242,0.121-0.38c0.059-0.062,0.171-0.184,0.398-0.412c0.538-0.538,1.321-1.048,2.356-2.005
	c1.035-0.959,1.016-1.677,1.016-1.677l-0.118-0.116C29.794,44.476,29.121,44.484,28.176,45.585z"/>
<path fill="#FFFFFF" d="M31.934,41.828c0.546-0.47,2.132-1.822,2.32-2.008c0.127-0.126,0.292-0.326,0.389-0.447
	c-0.006-0.124,0.033-0.25,0.128-0.345c0.178-0.177,0.465-0.177,0.644,0.002c0.177,0.177,0.177,0.465,0,0.641
	c-0.104,0.104-0.245,0.143-0.381,0.123c-0.065,0.058-0.186,0.17-0.414,0.4c-0.539,0.537-1.047,1.319-2.005,2.354
	c-0.957,1.036-1.676,1.015-1.676,1.015l-0.117-0.116C30.822,43.447,30.832,42.772,31.934,41.828z"/>
<path fill="#D1D3D4" d="M79.745,53.695c-8.699,0-17.429-9.051-26.778-16.758c-7.155-5.898-13.222-7.242-13.222-7.242h-8
	c0,0,7.611,0,15.222,7.242c8.777,8.353,18.079,16.758,26.778,16.758H79.745z"/>
<path fill="#D1D3D4" d="M92.454,53.695c-8.699,0-17.429-9.051-26.778-16.758c-7.154-5.898-13.222-7.242-13.222-7.242h-8
	c0,0,7.611,0,15.222,7.242c8.777,8.353,18.079,16.758,26.778,16.758H92.454z"/>
<path fill="#D1D3D4" d="M105.163,53.695c-8.699,0-17.429-9.051-26.778-16.758c-7.154-5.898-13.222-7.242-13.222-7.242h-8
	c0,0,7.611,0,15.222,7.242c8.777,8.353,18.079,16.758,26.778,16.758H105.163z"/>
<path fill="#D1D3D4" d="M117.873,53.695c-8.699,0-17.43-9.051-26.779-16.758c-7.154-5.898-13.221-7.242-13.221-7.242h-8
	c0,0,7.611,0,15.221,7.242c8.777,8.353,18.08,16.758,26.779,16.758H117.873z"/>
<path fill="#D1D3D4" d="M128,41.396v-5.428c-6.609-5.076-12-6.273-12-6.273h-8c0,0,7.611,0,15.222,7.242
	C124.8,38.439,126.395,39.94,128,41.396z"/>
<path fill="#D1D3D4" d="M103.291,29.695h-8c0,0,7.611,0,15.222,7.242c5.649,5.376,11.514,10.75,17.297,13.914
	c0.112-0.368,0.19-0.751,0.19-1.156v-3.119c-3.749-2.939-7.563-6.404-11.487-9.639C109.358,31.039,103.291,29.695,103.291,29.695z"
	/>
<path fill="#D1D3D4" d="M124.215,53.674c0.761-0.041,1.467-0.282,2.057-0.69c-7.286-2.258-14.66-9.61-22.468-16.046
	c-7.154-5.898-13.222-7.242-13.222-7.242h-8c0,0,7.611,0,15.222,7.242C106.458,45.173,115.621,53.443,124.215,53.674z"/>
<text transform="matrix(1 0 0 1 61.25 45.9453)" font-family="'MyriadPro-Regular'" font-size="14">moderator</text>
</svg>
