<?xml version="1.0" encoding="utf-8"?>
<!-- Generator: Adobe Illustrator 15.0.0, SVG Export Plug-In  -->
<!DOCTYPE svg PUBLIC "-//W3C//DTD SVG 1.1//EN" "http://www.w3.org/Graphics/SVG/1.1/DTD/svg11.dtd" [
	<!ENTITY ns_flows "http://ns.adobe.com/Flows/1.0/">
]>
<svg version="1.1"
	 xmlns="http://www.w3.org/2000/svg" xmlns:xlink="http://www.w3.org/1999/xlink" xmlns:a="http://ns.adobe.com/AdobeSVGViewerExtensions/3.0/"
	 x="0px" y="0px" width="48px" height="48px" viewBox="-3.813 -4.605 48 48" enable-background="new -3.813 -4.605 48 48"
	 xml:space="preserve">
<defs>
</defs>
<path fill="none" stroke="#000000" stroke-miterlimit="10" d="M30.738,24.202c0.044,0.135,0.074,0.273,0.074,0.414
	c0,1.992-4.758,3.611-10.623,3.611c-5.872,0-10.63-1.619-10.63-3.611c0-0.141,0.03-0.279,0.077-0.414
	C5.036,27.202,1.781,32.1,1,37.79h38.375C38.592,32.1,35.338,27.202,30.738,24.202z"/>
<path fill="none" stroke="#000000" stroke-width="2" stroke-linejoin="round" d="M31.961,25.069
	c-0.396-0.305-0.804-0.594-1.225-0.867c0.045,0.135,0.074,0.273,0.074,0.414c0,0.34-0.139,0.668-0.396,0.98"/>
<path fill="none" stroke="#000000" stroke-width="2" stroke-linejoin="round" stroke-dasharray="3.081,3.081" d="M27.786,27.139
	c-1.929,0.67-4.619,1.088-7.595,1.088c-3.799,0-7.132-0.68-9.012-1.695"/>
<path fill="none" stroke="#000000" stroke-width="2" stroke-linejoin="round" d="M9.958,25.596c-0.259-0.313-0.397-0.643-0.397-0.98
	c0-0.141,0.03-0.279,0.077-0.414c-0.419,0.273-0.828,0.564-1.224,0.867"/>
<path fill="none" stroke="#000000" stroke-width="2" stroke-linejoin="round" stroke-dasharray="2.7192,2.7192" d="M6.377,26.87
	c-2.206,2.244-3.87,5.021-4.779,8.123"/>
<path fill="none" stroke="#000000" stroke-width="2" stroke-linejoin="round" d="M1.262,36.313C1.156,36.797,1.068,37.292,1,37.79
	h1.5"/>
<line fill="none" stroke="#000000" stroke-width="2" stroke-linejoin="round" stroke-dasharray="3.2159,3.2159" x1="5.716" y1="37.79" x2="36.266" y2="37.79"/>
<path fill="none" stroke="#000000" stroke-width="2" stroke-linejoin="round" d="M37.875,37.79h1.5
	c-0.068-0.498-0.156-0.99-0.262-1.477"/>
<path fill="none" stroke="#000000" stroke-width="2" stroke-linejoin="round" stroke-dasharray="2.719,2.719" d="M38.348,33.704
	c-1.123-3.02-2.976-5.682-5.342-7.773"/>
<path fill="none" stroke="#000000" stroke-miterlimit="10" d="M29.889,11.202c0,5.636-4.343,10.202-9.699,10.202
	c-5.365,0-9.706-4.566-9.706-10.202C10.485,5.566,14.826,1,20.19,1C25.546,1,29.889,5.566,29.889,11.202z"/>
<path fill="none" stroke="#000000" stroke-width="2" stroke-miterlimit="10" stroke-dasharray="3.1263,3.1263" d="M29.889,11.202
	c0,5.636-4.343,10.202-9.699,10.202c-5.365,0-9.706-4.566-9.706-10.202C10.485,5.566,14.826,1,20.19,1
	C25.546,1,29.889,5.566,29.889,11.202z"/>
</svg>
