<?xml version="1.0" encoding="utf-8"?>
<svg version="1.1"
	 xmlns="http://www.w3.org/2000/svg" xmlns:xlink="http://www.w3.org/1999/xlink"
	 x="0px" y="0px" width="48px" height="48px" viewBox="-3.505 -3.574 48 48">
<defs>
</defs>
<circle fill="#F79523" cx="20.495" cy="20.496" r="20.495"/>
<path fill="#C8691C" d="M29.432,2.072C26.728,0.758,23.703,0,20.495,0C9.176,0,0,9.176,0,20.496c0,9.758,6.826,17.908,15.96,19.974
	L29.432,2.072z"/>
<path fill="#FFFFFF" d="M13.729,17.405l0.292-1.56c0,0,6.142-3.772,9.981-0.926c3.391,2.512-0.18,11.243-0.816,13.698
	c-0.658,2.531-0.594,3.478,1.071,3.997c1.82,0.567,3.375-0.27,3.375-0.27l-0.157,1.604c0,0-3.681,1.563-6.024,1.705
	c-2.632,0.159-4.825-0.956-5.384-2.95c-0.652-2.328,1.476-8.773,2.353-11.485c1.051-3.248-0.363-4.516-1.874-4.427
	C14.915,16.888,13.729,17.405,13.729,17.405z"/>
<circle fill="#D1D3D4" cx="20.321" cy="8.417" r="3.719"/>
<path fill="#D1D3D4" d="M24.003,14.918c-3.84-2.846-9.981,0.926-9.981,0.926l-0.292,1.56c0,0,1.186-0.517,2.818-0.613
	c1.511-0.089,2.925,1.179,1.874,4.427c-0.877,2.711-3.005,9.157-2.353,11.485c0.271,0.967,0.931,1.722,1.834,2.23l6.769-19.292
	C24.484,15.369,24.272,15.118,24.003,14.918z"/>
</svg>
