<?xml version="1.0" encoding="utf-8"?>
<svg version="1.1"
	 xmlns="http://www.w3.org/2000/svg" xmlns:xlink="http://www.w3.org/1999/xlink"
	 x="0px" y="0px" width="48px" height="48px" viewBox="-4.5 -5.3 48 48">
<defs>
</defs>
<path fill="#F79523" d="M19.5,29.7c0,2.6-2.1,4.8-4.7,4.8l-1.8,0c-2.6,0-4.8-2-4.8-4.6l-1.8,0c0.1,3.4,2.9,6.2,6.4,6.1l2.4,0
	c3.5-0.1,6.2-2.9,6.2-6.3L19.5,29.7z"/>
<polygon fill="#C8691C" points="13.5,22.8 13.6,30.6 28,36.3 27.7,15.5 "/>
<path fill="#C8691C" d="M11.6,22.8l-7.7,0.1c-2.1,0-3.8,1.7-3.7,3.8c0,2.1,1.7,3.8,3.8,3.7l7.8-0.1L11.6,22.8z"/>
<path fill="#F79523" d="M2,30.3c0,0.5-0.4,0.9-0.9,0.9l0,0c-0.5,0-0.9-0.4-0.9-0.9L0,22.9c0-0.5,0.4-0.9,0.9-0.9l0,0
	c0.5,0,0.9,0.4,0.9,0.9L2,30.3z"/>
<path fill="#F79523" d="M14.2,30.3c0,0.5-0.5,0.9-1.2,0.9l0,0c-0.7,0-1.2-0.4-1.2-0.9l-0.1-7.4c0-0.5,0.5-0.9,1.2-0.9l0,0
	c0.7,0,1.2,0.4,1.2,0.9L14.2,30.3z"/>
<path fill="#52CAF5" d="M36.8,0H24.5c-1.3,0-2.4,1.1-2.4,2.4v8.5c0,1.3,1.1,2.4,2.4,2.4h5l-1.7,6.3l7.5-6.3h1.4
	c1.3,0,2.4-1.1,2.4-2.4V2.4C39.2,1.1,38.1,0,36.8,0z"/>
<path fill="#3588A6" d="M36.8,0l-7.3,13.3l-1.7,6.3l7.5-6.3h1.4c1.3,0,2.4-1.1,2.4-2.4V2.4C39.2,1.1,38.1,0,36.8,0z"/>
</svg>
