<?xml version="1.0" encoding="utf-8"?>
<svg version="1.1"
	 xmlns="http://www.w3.org/2000/svg" xmlns:xlink="http://www.w3.org/1999/xlink"
	 x="0px" y="0px" width="48px" height="48px" viewBox="-2.831 -4.52 48 48">
<defs>
</defs>
<path fill="#F79523" d="M21.207,38.961c-8.7-9.906-14.208-13.189-19.113-21.111C-4.154,7.758,4.534-3.589,15.567,1.209
	c3.603,1.567,5.64,5.458,5.64,5.458s3.839-4.412,5.644-5.458c7.609-4.413,21.948,3.652,12.21,17.773
	C30.019,32.093,21.207,38.961,21.207,38.961z"/>
<path fill="#C8691C" d="M26.851,1.209c-1.805,1.046-5.644,5.458-5.644,5.458s0,32.272,0,32.294c0,0,8.812-6.868,17.854-19.979
	C48.799,4.861,34.46-3.204,26.851,1.209z"/>
<g>
	<path fill="#84D5F7" d="M19.552,31.39v-2.561c-1.554-0.134-3.186-0.578-4.269-1.176l-0.339-0.187l1.056-4.114l0.564,0.309
		c0.759,0.414,2.312,1.109,4.183,1.109c1.006,0,2.081-0.302,2.081-1.15c0-0.604-0.426-1.149-2.506-1.842
		c-2.392-0.806-5.136-2.141-5.136-5.348c0-2.539,1.713-4.481,4.501-5.146V8.66h3.608v2.368c1.709,0.119,2.86,0.563,3.597,0.9
		l0.384,0.175l-1.062,4.002l-0.545-0.262c-0.656-0.316-1.836-0.883-3.62-0.883c-0.668,0-1.79,0.132-1.79,1.018
		c0,0.533,0.838,1.053,2.893,1.793c3.329,1.173,4.751,2.812,4.751,5.477c0,2.636-1.836,4.684-4.714,5.312v2.83H19.552z"/>
	<path fill="#FFFFFF" d="M22.794,9.16v2.343c1.76,0.054,2.957,0.453,3.889,0.879l-0.798,3.01c-0.665-0.32-1.917-0.933-3.836-0.933
		c-1.729,0-2.29,0.772-2.29,1.518c0,0.852,0.932,1.438,3.223,2.264c3.171,1.118,4.421,2.58,4.421,5.007
		c0,2.371-1.651,4.394-4.714,4.898v2.743h-2.637V28.36c-1.785-0.078-3.515-0.586-4.528-1.145l0.8-3.116
		c1.12,0.611,2.69,1.171,4.422,1.171c1.544,0,2.581-0.612,2.581-1.65c0-1.013-0.852-1.651-2.848-2.316
		c-2.849-0.959-4.794-2.291-4.794-4.873c0-2.372,1.652-4.208,4.501-4.741V9.16H22.794 M23.794,8.16h-1h-2.608h-1v1v1.739
		c-2.798,0.803-4.501,2.865-4.501,5.532c0,3.565,3.125,5.029,5.476,5.82c2.167,0.723,2.167,1.192,2.167,1.369
		c0,0.447-0.819,0.65-1.581,0.65c-1.76,0-3.226-0.657-3.943-1.049l-1.128-0.616l-0.32,1.245l-0.8,3.116l-0.192,0.751l0.678,0.374
		c1.051,0.579,2.525,1.011,4.011,1.188v1.609v1h1h2.637h1v-1v-1.937c2.892-0.775,4.714-2.943,4.714-5.705
		c0-2.875-1.569-4.709-5.089-5.95c-2.432-0.876-2.555-1.253-2.555-1.32c0-0.48,0.987-0.518,1.29-0.518
		c1.669,0,2.741,0.515,3.38,0.823l1.09,0.524l0.333-1.158l0.798-3.01l0.216-0.815l-0.767-0.351
		c-0.704-0.322-1.769-0.738-3.305-0.904V9.16V8.16L23.794,8.16z"/>
</g>
<path fill="#52CAF5" d="M21.11,9.16v5.402c0.268-0.062,0.572-0.103,0.938-0.103c1.919,0,3.171,0.613,3.836,0.933l0.798-3.01
	c-0.932-0.426-2.129-0.826-3.889-0.879V9.16H21.11z"/>
<path fill="#52CAF5" d="M22.981,18.241c-0.779-0.281-1.39-0.533-1.872-0.779v4.065c1.543,0.592,2.217,1.194,2.217,2.093
	c0,0.954-0.879,1.541-2.217,1.631v5.639h1.579v-2.743c3.063-0.505,4.714-2.527,4.714-4.898
	C27.402,20.821,26.152,19.359,22.981,18.241z"/>
</svg>
