<?xml version="1.0" encoding="utf-8"?>
<svg version="1.1"
	 xmlns="http://www.w3.org/2000/svg" xmlns:xlink="http://www.w3.org/1999/xlink"
	 x="0px" y="0px" width="48px" height="48px" viewBox="-6.547 -3.551 48 48">
<defs>
</defs>
<polygon fill="#3588A6" points="10.407,33.832 10.407,41.199 13.136,39.017 15.864,41.199 15.864,33.832 "/>
<path fill="#F79523" d="M6.042,0C3.5,0,2.919,1.741,2.799,4.093h2.152c1.205,0,2.183,0.977,2.183,2.183S6.156,8.458,4.951,8.458
	H2.768v2.91h2.183c1.205,0,2.183,0.977,2.183,2.182c0,1.206-0.978,2.183-2.183,2.183H2.768v2.911h2.183
	c1.205,0,2.183,0.977,2.183,2.182c0,1.205-0.978,2.184-2.183,2.184H2.768v2.91h2.183c1.205,0,2.183,0.978,2.183,2.184
	c0,1.205-0.978,2.182-2.183,2.182H2.837c0.186,2.071,0.864,3.547,3.205,3.547h29.194V0H6.042z"/>
<path fill="#C8691C" d="M6.042,0C3.5,0,2.919,1.741,2.799,4.093h2.152c1.205,0,2.183,0.977,2.183,2.183S6.156,8.458,4.951,8.458
	H2.768v2.91h2.183c1.205,0,2.183,0.977,2.183,2.182c0,1.206-0.978,2.183-2.183,2.183H2.768v2.911h2.183
	c1.205,0,2.183,0.977,2.183,2.182c0,1.205-0.978,2.184-2.183,2.184H2.768v2.91h2.183c1.205,0,2.183,0.978,2.183,2.184
	c0,1.205-0.978,2.182-2.183,2.182H2.837c0.186,2.071,0.864,3.547,3.205,3.547h29.194L6.042,0z"/>
<path fill="#C8691C" d="M6.003,6.275c0,0.603-0.384,1.091-0.857,1.091H0.857C0.384,7.367,0,6.878,0,6.275l0,0
	c0-0.603,0.384-1.091,0.857-1.091h4.288C5.619,5.185,6.003,5.673,6.003,6.275L6.003,6.275z"/>
<path fill="#C8691C" d="M6.003,13.543c0,0.603-0.384,1.091-0.857,1.091H0.857C0.384,14.635,0,14.146,0,13.543l0,0
	c0-0.603,0.384-1.091,0.857-1.091h4.288C5.619,12.452,6.003,12.941,6.003,13.543L6.003,13.543z"/>
<path fill="#C8691C" d="M6.003,20.813c0,0.603-0.384,1.091-0.857,1.091H0.857C0.384,21.904,0,21.416,0,20.813l0,0
	c0-0.604,0.384-1.091,0.857-1.091h4.288C5.619,19.722,6.003,20.209,6.003,20.813L6.003,20.813z"/>
<path fill="#C8691C" d="M6.003,28.044c0,0.603-0.384,1.091-0.857,1.091H0.857C0.384,29.135,0,28.646,0,28.044l0,0
	c0-0.604,0.384-1.092,0.857-1.092h4.288C5.619,26.952,6.003,27.439,6.003,28.044L6.003,28.044z"/>
<path fill="#3588A6" d="M19.652,26.896c-4.153-4.729-6.782-6.296-9.124-10.077c-2.982-4.817,1.165-10.234,6.431-7.943
	c1.72,0.749,2.692,2.605,2.692,2.605s1.832-2.105,2.694-2.605c3.633-2.106,10.477,1.744,5.827,8.483
	C23.857,23.618,19.652,26.896,19.652,26.896z"/>
<path fill="#FFFFFF" d="M24.607,8.299c3.517,0,7.353,3.572,3.566,9.061c-4.316,6.259-8.521,9.537-8.521,9.537
	c-4.153-4.729-6.782-6.296-9.124-10.077c-2.497-4.033,0.003-8.485,3.973-8.485c0.772,0,1.601,0.168,2.458,0.542
	c1.72,0.749,2.692,2.605,2.692,2.605s1.832-2.105,2.694-2.605C23.021,8.485,23.807,8.299,24.607,8.299 M24.607,7.208L24.607,7.208
	c-1.021,0-1.991,0.25-2.809,0.724c-0.573,0.332-1.391,1.129-2.032,1.804c-0.545-0.655-1.341-1.412-2.372-1.861
	c-0.964-0.419-1.938-0.632-2.894-0.632c-2.215,0-4.18,1.154-5.258,3.088c-1.191,2.138-1.058,4.778,0.357,7.063
	c1.472,2.377,3.082,3.951,4.946,5.772c1.24,1.212,2.646,2.586,4.284,4.451l0.68,0.771l0.813-0.631
	c0.176-0.139,4.387-3.455,8.748-9.778c2.509-3.638,1.781-6.284,1.123-7.536C29.163,8.478,26.97,7.208,24.607,7.208L24.607,7.208z"/>
<path fill="#52CAF5" d="M24.805,21.742c1.063-1.245,2.211-2.702,3.369-4.383c4.649-6.74-2.194-10.59-5.827-8.483
	c-0.862,0.5-2.694,2.605-2.694,2.605S18.68,9.625,16.96,8.876c-1.303-0.566-2.536-0.659-3.611-0.408L24.805,21.742z"/>
</svg>
