<?xml version="1.0" encoding="utf-8"?>
<svg version="1.1"
	 xmlns="http://www.w3.org/2000/svg" xmlns:xlink="http://www.w3.org/1999/xlink"
	 x="0px" y="0px" width="48px" height="48px" viewBox="-3.334 -4.052 48 48">
<defs>
</defs>
<path fill="#F79523" d="M41.665,36.322c0,1.771-1.436,3.206-3.205,3.206H3.205C1.435,39.528,0,38.093,0,36.322V25.639
	c0-1.769,1.435-3.205,3.205-3.205h35.255c1.77,0,3.205,1.437,3.205,3.205V36.322z"/>
<path fill="#C8691C" d="M38.459,39.528H3.205C1.435,39.528,0,38.093,0,36.322V25.639c0-1.769,1.435-3.205,3.205-3.205
	C3.205,22.434,40.229,39.528,38.459,39.528z"/>
<path fill="#F79523" d="M20.298,13.888c0,1.771-1.436,3.205-3.205,3.205H3.205C1.435,17.093,0,15.659,0,13.888V3.205
	C0,1.435,1.435,0,3.205,0h13.889c1.77,0,3.205,1.435,3.205,3.205V13.888z"/>
<path fill="#C8691C" d="M17.093,17.093H3.205C1.435,17.093,0,15.659,0,13.888V3.205C0,1.435,1.435,0,3.205,0
	C3.205,0,18.863,17.093,17.093,17.093z"/>
<path fill="#52CAF5" d="M28.566,3.446L23.402,8.5l5.164,4.974v-2.583c0,0,9.564-2.583,8.227,8.705c0,0,4.782-13.774-8.227-13.774
	V3.446z"/>
<path fill="#3588A6" d="M28.566,13.474v-2.583c0,0,9.564-2.583,8.227,8.705c0,0,4.16-14.789-13.112-11.049L28.566,13.474z"/>
<text transform="matrix(1 0 0 1 6.8521 34.7095)" fill="#FFFFFF" font-family="'MyriadPro-Regular'" font-size="12.8197">Shift</text>
<path fill="#FFFFFF" d="M15.126,8.181h-3.111l2.199-2.199c0.317-0.317,0.353-0.793,0.082-1.065
	c-0.271-0.271-0.749-0.235-1.065,0.082l-2.198,2.199v-3.11c0-0.447-0.311-0.811-0.695-0.811c-0.384,0-0.696,0.363-0.696,0.811v3.11
	L7.443,4.998C7.126,4.681,6.65,4.645,6.378,4.916C6.107,5.188,6.144,5.665,6.46,5.98l2.2,2.2H5.55c-0.448,0-0.811,0.311-0.811,0.694
	c0,0.385,0.363,0.696,0.811,0.696h3.109L6.46,11.77c-0.316,0.316-0.353,0.793-0.082,1.064c0.272,0.272,0.749,0.236,1.064-0.081
	l2.199-2.199v3.109c0,0.448,0.312,0.812,0.696,0.812c0.384,0,0.695-0.363,0.695-0.812v-3.109l2.199,2.199
	c0.316,0.317,0.793,0.354,1.064,0.082c0.271-0.271,0.235-0.749-0.082-1.065l-2.199-2.198h3.11c0.448,0,0.811-0.311,0.811-0.696
	C15.937,8.492,15.574,8.181,15.126,8.181z"/>
</svg>
