<?xml version="1.0" encoding="utf-8"?>
<svg version="1.1"
	 xmlns="http://www.w3.org/2000/svg" xmlns:xlink="http://www.w3.org/1999/xlink"
	 x="0px" y="0px" width="48px" height="48px" viewBox="-6.538 -3.01 48 48">
<defs>
</defs>
<path fill="#F79523" d="M8.67,0.007v40.803h27.201V0.007H8.67z M32.409,37.303H12.134V3.513h20.275V37.303z"/>
<polygon fill="#C8691C" points="22.832,0 22.832,3.506 32.409,3.513 32.409,37.303 22.722,37.303 22.722,40.811 35.871,40.811 
	35.871,0.007 "/>
<rect x="15.583" y="10.955" fill="#F79523" width="12.84" height="2.875"/>
<polygon fill="#C8691C" points="22.832,10.944 22.832,13.82 28.424,13.83 28.424,10.955 "/>
<rect x="15.583" y="19.115" fill="#F79523" width="12.84" height="2.876"/>
<polygon fill="#C8691C" points="22.832,19.104 22.832,21.981 28.424,21.991 28.424,19.115 "/>
<rect x="15.583" y="27.275" fill="#F37029" width="12.84" height="2.877"/>
<path fill="#52CAF5" d="M19.875,21.932l-9.947-4.931L0,21.932v9.873c0,5.106,4.139,9.245,9.244,9.245h1.387
	c5.104,0,9.244-4.139,9.244-9.245V21.932z M10.437,38.146H9.438c-3.676,0-6.655-2.979-6.655-6.654V23.51l7.146-3.211l7.163,3.229
	v7.964C17.091,35.167,14.112,38.146,10.437,38.146"/>
<path fill="#3588A6" d="M9.928,17.001l0,3.298l7.163,3.228v7.963c0,3.677-2.979,6.655-6.654,6.655H9.708v2.904h0.924
	c5.104,0,9.244-4.139,9.244-9.245v-9.871L9.928,17.001z"/>
<path fill="#A7A9AC" d="M9.438,38.146c-3.676,0-6.655-2.979-6.655-6.654V23.51l7.146-3.211l7.163,3.229v7.964
	c0,3.676-2.979,6.654-6.654,6.654"/>
<path fill="#E6E7E8" d="M9.694,38.158c-3.889,0.036-6.911-2.991-6.911-6.667V23.51l7.146-3.211L9.694,38.158z"/>
<polygon fill="#3588A6" points="7.035,32.611 7.035,28.998 9.697,31.659 14.452,24.053 14.452,27.665 9.697,35.083 "/>
</svg>
