<?xml version="1.0" encoding="utf-8"?>
<svg version="1.1"
	 xmlns="http://www.w3.org/2000/svg" xmlns:xlink="http://www.w3.org/1999/xlink"
	 x="0px" y="0px" width="48px" height="48px" viewBox="-1.682 -3.162 48 48">
<defs>
</defs>
<path fill="#F79523" d="M41.588,16.127h-2.77c-0.219-0.993-0.531-1.947-0.929-2.857l2.291-1.606
	c0.774-0.542,0.964-1.609,0.421-2.383l-1.662-2.375c-0.542-0.775-1.61-0.962-2.384-0.421L34.207,8.13
	c-0.726-0.667-1.51-1.262-2.352-1.783l0.986-2.711c0.325-0.889-0.135-1.87-1.021-2.195l-2.725-0.991
	c-0.889-0.325-1.869,0.135-2.194,1.022l-0.994,2.736c-0.696-0.098-1.403-0.166-2.126-0.166c-0.272,0-0.534,0.028-0.801,0.041
	L22.228,1.27c-0.245-0.914-1.185-1.456-2.098-1.211l-2.798,0.752c-0.913,0.242-1.456,1.183-1.211,2.095l0.75,2.79
	c-0.887,0.446-1.718,0.971-2.494,1.572L12.172,5.42c-0.725-0.609-1.801-0.513-2.41,0.211L7.899,7.853
	c-0.608,0.722-0.513,1.801,0.21,2.41l2.151,1.804c-0.688,1.256-1.199,2.622-1.516,4.061h-2.77c-0.946,0-1.712,0.766-1.712,1.711
	v2.898c0,0.947,0.766,1.712,1.712,1.712h2.696c0.2,1.019,0.5,2.001,0.891,2.937l-2.179,1.527c-0.774,0.542-0.962,1.61-0.421,2.382
	l1.663,2.376c0.542,0.773,1.609,0.962,2.384,0.421l2.146-1.504c0.751,0.717,1.573,1.354,2.457,1.908l-0.891,2.443
	c-0.323,0.889,0.137,1.871,1.023,2.194l2.723,0.991c0.889,0.323,1.873-0.135,2.196-1.021l0.882-2.427
	c0.731,0.107,1.475,0.183,2.237,0.183c0.3,0,0.594-0.028,0.888-0.047l0.668,2.493c0.245,0.914,1.183,1.454,2.098,1.211l2.799-0.75
	c0.913-0.245,1.454-1.184,1.209-2.096l-0.67-2.503c0.934-0.478,1.812-1.04,2.62-1.688l2,1.675c0.723,0.606,1.804,0.513,2.41-0.212
	l1.862-2.219c0.608-0.725,0.513-1.804-0.21-2.412l-2.034-1.707c0.676-1.289,1.178-2.684,1.47-4.156h2.696
	c0.946,0,1.714-0.765,1.714-1.712v-2.898C43.302,16.893,42.534,16.127,41.588,16.127"/>
<path fill="#C8691C" d="M41.588,16.127h-2.77c-0.219-0.993-0.531-1.947-0.929-2.857l2.291-1.606
	c0.774-0.542,0.964-1.609,0.421-2.383l-1.662-2.375c-0.542-0.775-1.61-0.962-2.384-0.421L34.207,8.13
	c-0.726-0.667-1.51-1.262-2.352-1.783l0.986-2.711c0.325-0.889-0.135-1.87-1.021-2.195l-2.725-0.991
	c-0.889-0.325-1.869,0.135-2.194,1.022l-0.994,2.736c-0.525-0.075-1.056-0.119-1.596-0.142v30.765
	c0.121-0.008,0.239-0.012,0.357-0.02l0.668,2.493c0.245,0.914,1.183,1.454,2.098,1.211l2.799-0.75
	c0.913-0.245,1.454-1.184,1.209-2.096l-0.67-2.503c0.934-0.478,1.812-1.04,2.62-1.688l2,1.675c0.723,0.606,1.804,0.513,2.41-0.212
	l1.862-2.219c0.608-0.725,0.513-1.804-0.21-2.412l-2.034-1.707c0.676-1.289,1.178-2.684,1.47-4.156h2.696
	c0.946,0,1.714-0.765,1.714-1.712v-2.898C43.302,16.893,42.534,16.127,41.588,16.127"/>
<path fill="#FFFFFF" d="M27.299,19.287c0,1.942-1.574,3.518-3.517,3.518c-1.943,0-3.518-1.575-3.518-3.518s1.575-3.517,3.518-3.517
	C25.725,15.77,27.299,17.344,27.299,19.287"/>
<rect x="0.597" y="20.517" transform="matrix(0.6428 0.766 -0.766 0.6428 24.4529 -3.519)" fill="#52CAF5" width="30.806" height="7.887"/>
<rect x="25.131" y="33.849" transform="matrix(0.6426 0.7662 -0.7662 0.6426 38.6712 -7.324)" fill="#6D6E71" width="4.111" height="7.888"/>
<polygon fill="#FCB51E" points="9.157,10.17 4.474,8.308 1.969,10.41 3.115,15.24 "/>
<polygon points="4.285,8.401 1.375,7.218 2.091,10.242 "/>
<rect x="23.564" y="37.209" transform="matrix(-0.643 -0.7659 0.7659 -0.643 12.1421 83.8737)" fill="#A7A9AC" width="4.11" height="3.796"/>
<polygon fill="#58595B" points="3.146,9.356 2.091,10.242 1.384,7.257 "/>
<polygon fill="#FFD65A" points="3.171,9.401 6.023,12.8 3.115,15.24 1.969,10.41 "/>
<rect x="-0.97" y="23.878" transform="matrix(-0.6428 -0.7661 0.7661 -0.6428 3.9641 53.4008)" fill="#84D5F7" width="30.807" height="3.796"/>
<g>
	<path fill="#FFFFFF" d="M1.356,7.245l7.801,2.871l22.372,26.715l-6.042,5.069L3.056,15.222L1.356,7.245 M0,5.681l0.378,1.773
		l1.7,7.977l0.052,0.244l0.16,0.191l22.43,26.679l0.644,0.765l0.765-0.643l6.042-5.069l0.766-0.642l-0.642-0.766L9.923,9.474
		L9.752,9.27l-0.25-0.092L1.701,6.307L0,5.681L0,5.681z"/>
</g>
</svg>
