<?xml version="1.0" encoding="utf-8"?>
<svg version="1.1"
	 xmlns="http://www.w3.org/2000/svg" xmlns:xlink="http://www.w3.org/1999/xlink"
	 x="0px" y="0px" width="28px" height="28px" viewBox="-1.98 -2.335 28 28">
<defs>
</defs>
<path fill="#C8691C" d="M21.895,8.296c0.444,1.023-0.026,2.211-1.05,2.654l-1.602,0.693c-1.024,0.443-2.212-0.027-2.655-1.053l0,0
	c-0.442-1.022,0.026-2.209,1.053-2.654l1.599-0.692C20.266,6.801,21.452,7.272,21.895,8.296L21.895,8.296z"/>
<polygon fill="#F79523" points="1.915,13.638 14.042,1.854 21.803,17.852 4.616,19.397 "/>
<path fill="#C8691C" d="M23.355,18.386c-0.633,0.302-1.428-0.039-1.773-0.77L14.119,1.974c-0.345-0.728-0.113-1.562,0.522-1.864l0,0
	c0.634-0.303,1.429,0.042,1.777,0.769l7.459,15.643C24.226,17.25,23.99,18.083,23.355,18.386L23.355,18.386z"/>
<path fill="#F79523" d="M14.645,17.863c0.477,0.357,0.82,0.892,0.922,1.526c0.207,1.3-0.679,2.523-1.98,2.732l-1.267,0.201
	c-1.302,0.209-2.525-0.678-2.733-1.979c-0.102-0.634,0.06-1.248,0.4-1.736l-1.477,0.235c-0.205,0.527-0.288,1.106-0.191,1.702
	c0.288,1.803,1.98,3.03,3.783,2.742l1.993-0.317c1.802-0.289,3.029-1.981,2.742-3.783c-0.097-0.598-0.356-1.124-0.715-1.561
	L14.645,17.863z"/>
<polygon fill="#F79523" points="1.915,13.638 0,13.57 3.391,20.725 4.616,19.397 "/>
</svg>
