<?xml version="1.0" encoding="utf-8"?>
<svg version="1.1"
	 xmlns="http://www.w3.org/2000/svg" xmlns:xlink="http://www.w3.org/1999/xlink"
	 x="0px" y="0px" width="28px" height="28px" viewBox="-4.014 -1.752 28 28">
<defs>
</defs>
<path fill="#F79523" d="M18.089,9.702V7.933C18.089,3.551,14.538,0,10.155,0C5.773,0,2.221,3.551,2.221,7.933v1.769
	C0.977,9.841,0,11.036,0,12.507v8.967c0,1.563,1.1,2.832,2.458,2.832h15.395c1.355,0,2.457-1.269,2.457-2.832v-8.967
	C20.309,11.036,19.333,9.841,18.089,9.702z M10.156,2.499c2.779,0,5.032,2.548,5.032,5.69l0.187,1.486H5.072l0.049-1.486
	C5.122,5.046,7.375,2.499,10.156,2.499z M11.59,17.139v2.439c0,0.792-0.643,1.436-1.436,1.436c-0.792,0-1.435-0.644-1.435-1.436
	v-2.439c0-0.219,0.057-0.42,0.145-0.605c-0.444-0.37-0.732-0.921-0.732-1.544c0-1.117,0.906-2.023,2.023-2.023
	c1.117,0,2.022,0.906,2.022,2.023c0,0.623-0.288,1.174-0.732,1.544C11.533,16.719,11.59,16.92,11.59,17.139z"/>
<path fill="#C8691C" d="M5.66,5.676C6.484,3.8,8.177,2.499,10.156,2.499c2.779,0,5.032,2.548,5.032,5.69l0.187,1.486H8.307
	l2.203,3.328c0.947,0.168,1.668,0.991,1.668,1.987c0,0.157-0.019,0.308-0.053,0.454l5.855,8.848
	c1.294-0.078,2.329-1.303,2.329-2.817v-8.967c0-1.471-0.977-2.666-2.22-2.805V7.933C18.089,3.551,14.538,0,10.155,0
	C7.621,0,5.37,1.193,3.917,3.042L5.66,5.676z"/>
</svg>
