<?xml version="1.0" encoding="utf-8"?>
<svg version="1.1"
	 xmlns="http://www.w3.org/2000/svg" xmlns:xlink="http://www.w3.org/1999/xlink"
	 x="0px" y="0px" width="28px" height="28px" viewBox="-4.815 -1.933 28 28">
<defs>
</defs>
<path fill="#FCB51E" d="M8.368,23.652c0,0-6.324,0.242-8.119-6.764c-1.183-4.941,2.23-8.519,2.23-8.519s-0.563,2.345-0.322,3.411
	c0.586,2.621,1.523,2.445,1.523,2.445s-0.23-4.51,0.608-6.979c1.048-3.09,2.775-4.126,2.775-4.126s-1.029,1.843-1.21,2.903
	c-0.344,2.005,0.788,5.077,0.788,5.077s1.903-2.039,2.585-5.077C10.157,1.889,8.368,0,8.368,0s2.178,1.058,2.815,3.677
	c0.84,3.449-0.098,6.602-0.098,6.602s1.32-0.537,2.103-2.641c0.404-1.086,0.09-2.499,0.09-2.499s4.012,3.307,3.385,10.687
	C15.947,24.267,8.368,23.652,8.368,23.652z"/>
<path fill="#F79523" d="M15.588,8.515C15.319,14.563,9.965,19.393,3.38,19.393c-0.775,0-1.531-0.074-2.267-0.202
	c2.413,4.646,7.255,4.461,7.255,4.461s7.579,0.615,8.295-7.826C16.933,12.656,16.345,10.242,15.588,8.515z"/>
</svg>
