<?xml version="1.0" encoding="utf-8"?>
<svg version="1.1"
	 xmlns="http://www.w3.org/2000/svg" xmlns:xlink="http://www.w3.org/1999/xlink"
	 x="0px" y="0px" width="28px" height="28px" viewBox="-7.017 -1.137 28 28">
<defs>
</defs>
<polygon fill="#F79523" points="4.02,18.268 0.876,13.867 3.203,10.912 3.455,8.019 10.823,8.664 12.382,10.094 12.219,15.818 
	11.376,17.199 11.439,18.205 "/>
<path fill="#F79523" d="M2.708,11.144l-1.763,2.835L0,7.642c0,0,1.95-0.314,2.201,1.132C2.402,9.931,2.708,11.144,2.708,11.144z"/>
<path fill="#F79523" d="M3.383,8.409l1.916-0.153L5.178,2.083c0,0,0.122-0.963-0.88-1.068C3.103,0.889,3.459,2.508,3.459,2.508
	L3.383,8.409z"/>
<path fill="#F79523" d="M5.911,8.869l1.772-0.033l0.01-7.632c0,0,0.121-1.089-0.881-1.195C5.618-0.118,5.869,1.203,5.869,1.203
	L5.911,8.869z"/>
<path fill="#F79523" d="M8.492,9.203l1.462-0.104l0.128-6.387c0,0,0.104-1.018-0.755-1.133C8.316,1.444,8.385,2.671,8.385,2.671
	L8.492,9.203z"/>
<path fill="#F79523" d="M10.646,8.938l1.624,2.077l-0.051-6.73c0,0,0.122-1.083-0.881-1.196c-0.565-0.062-0.692,1.007-0.692,1.007
	V8.938z"/>
<path fill="#52CAF5" d="M4.234,19.061c0,0-0.468,0.767-0.942,6.384h8.928c0,0-0.253-5.254-0.881-6.447L4.234,19.061z"/>
<path fill="#3588A6" d="M7.717,19.143c0,0,0,3.333,0,6.397l4.503-0.096c0,0-0.253-5.254-0.881-6.447L7.717,19.143z"/>
<path fill="#C8691C" d="M12.22,4.284c0,0,0.122-1.083-0.881-1.196c-0.565-0.062-0.692,1.007-0.692,1.007v4.452L10.59,8.63H9.923
	l0.159-5.918c0,0,0.073-1.067-0.755-1.133C8.317,1.5,8.385,2.671,8.385,2.671l0.107,5.687H7.684l0.01-7.154
	c0,0,0.03-0.337-0.109-0.655l0.091,17.658l3.765-0.05L11.275,17.3l1.019-1.517l0.134-3.743l-0.033-1.672L12.22,4.284z"/>
</svg>
