<?xml version="1.0" encoding="utf-8"?>
<!DOCTYPE svg PUBLIC "-//W3C//DTD SVG 1.1//EN" "http://www.w3.org/Graphics/SVG/1.1/DTD/svg11.dtd" [
	<!ENTITY ns_flows "http://ns.adobe.com/Flows/1.0/">
]>
<svg version="1.1"
	 xmlns="http://www.w3.org/2000/svg" xmlns:xlink="http://www.w3.org/1999/xlink"
	 x="0px" y="0px" width="28px" height="28px" viewBox="-1.5 -3.6 28 28">
<defs>
</defs>
<path fill="#52CAF5" d="M22.6,10.4c-3,0.1-4.3-3.8-5.9-3.8c-1.6,0-1.8,2.5-4.6,2.5c-2.7,0-2.8-2.6-5.2-2.6c-2.4,0-2.4,2.2-5.1,2.3
	C1.2,8.9,0.6,8.7,0,8.4v14h25.2v-14C24.6,9.4,23.9,10.4,22.6,10.4z"/>
<path fill="#F79523" d="M11.9,3l-0.5-1.9c0.2-0.2,0.3-0.4,0.2-0.7c-0.1-0.4-0.5-0.6-0.8-0.5L9.1,0.5C8.8,0.5,8.5,0.9,8.6,1.3
	c0.1,0.2,0.3,0.4,0.5,0.5l0.5,1.9c-1,0.7-1.5,2-1.2,3.3l2.4,9c0.4,1.7,2.1,2.7,3.8,2.2c1.7-0.4,2.7-2.1,2.2-3.8l-2.4-9
	C14.2,4,13.1,3.2,11.9,3z"/>
<path fill="#C8691C" d="M14.9,19.1c1.7-0.4,2.7-2.1,2.2-3.8l-2-7.8C15,7.7,13.8,9.2,12,9.1c-1.8,0-2.6-1.6-3.5-2.1l2.6,9.9
	C11.5,18.6,13.2,19.6,14.9,19.1z"/>
</svg>
