<?xml version="1.0" encoding="utf-8"?>
<svg version="1.1"
	 xmlns="http://www.w3.org/2000/svg" xmlns:xlink="http://www.w3.org/1999/xlink"
	 x="0px" y="0px" width="28px" height="28px" viewBox="-1.79 -1.866 28 28">
<defs>
</defs>
<path fill="#52CAF5" d="M24.828,21.751c0,1.347-1.092,2.438-2.438,2.438H2.438C1.091,24.189,0,23.098,0,21.751V2.438
	C0,1.091,1.091,0,2.438,0H22.39c1.346,0,2.438,1.091,2.438,2.438V21.751z"/>
<path fill="#3588A6" d="M22.39,0H2.438C1.091,0,0,1.091,0,2.438v1.572c10.936,1.818,19.822,9.693,23.087,20.065
	c1.004-0.301,1.74-1.223,1.74-2.325V2.438C24.828,1.091,23.736,0,22.39,0z"/>
<polygon fill="#FFFFFF" points="12.413,16.296 4.279,8.162 2.36,10.081 12.413,20.135 22.468,10.081 20.548,8.161 "/>
</svg>
