<?xml version="1.0" encoding="utf-8"?>
<!-- Generator: Adobe Illustrator 15.0.0, SVG Export Plug-In  -->
<!DOCTYPE svg PUBLIC "-//W3C//DTD SVG 1.1//EN" "http://www.w3.org/Graphics/SVG/1.1/DTD/svg11.dtd" [
	<!ENTITY ns_flows "http://ns.adobe.com/Flows/1.0/">
]>
<svg version="1.1"
	 xmlns="http://www.w3.org/2000/svg" xmlns:xlink="http://www.w3.org/1999/xlink" xmlns:a="http://ns.adobe.com/AdobeSVGViewerExtensions/3.0/"
	 x="0px" y="0px" width="28px" height="28px" viewBox="-1.4 -1.8 28 28" enable-background="new -1.4 -1.8 28 28"
	 xml:space="preserve">
<defs>
</defs>
<polygon fill="#F79523" points="0,14.9 3.8,11.3 7,17 20.6,0 23.5,2.4 6.5,24.3 "/>
<polygon fill="#C8691C" points="18.2,3 20.6,0 23.5,2.4 18,9.5 "/>
<circle fill="#3588A6" cx="18" cy="16" r="7.4"/>
<path fill="#52CAF5" d="M17.9,8.6c-4,0-7.3,3.3-7.3,7.4c0,4.1,3.3,7.3,7.3,7.4V8.6z"/>
<path fill="#FFFFFF" d="M17.8,11c3.3-0.1,0.3,6.8,0,7.4C17.8,18.3,14.8,11.1,17.8,11z"/>
<circle fill="#FFFFFF" cx="17.9" cy="20.5" r="1.4"/>
<path fill="#A7A9AC" d="M17.9,18.1c0.6-1.3,2.9-7.1,0-7.1V18.1z"/>
<path fill="#A7A9AC" d="M17.9,19.1v2.8c0.8,0,1.4-0.6,1.4-1.4S18.7,19.1,17.9,19.1z"/>
</svg>
