<?xml version="1.0" encoding="utf-8"?>
<svg version="1.1"
	 xmlns="http://www.w3.org/2000/svg" x="0px" y="0px" width="48px" height="48px" viewBox="-6.65 -4.9 48 48">
<defs>
</defs>
<polygon points="0,6.2 5.6,21.2 9.5,17 16,32.2 19.9,28 23.6,36.799 20.4,20.9 18,24 12.1,8.6 9.3,11.2 4.8,0 "/>
<polygon points="20.319,34.299 7.9,34.299 7.9,23.098 4,27.5 4,38.2 22.67,38.2 "/>
<polygon points="8.208,0.3 9.501,3.518 30.991,3.588 19.799,11.7 13.947,7.7 16.186,13.149 19.799,15.7 30.799,7.3 30.799,34.299 
	24.418,34.299 24.967,38.2 34.7,38.2 34.7,3.6 34.7,0.9 34.7,0.3 "/>
<polygon points="23.333,26.6 23.784,29.799 26.299,29.799 26.299,26.6 "/>
<polygon points="22.319,19.4 22.77,22.6 26.299,22.6 26.299,19.4 "/>
</svg>
