<?xml version="1.0" encoding="utf-8"?>
<!-- Generator: Adobe Illustrator 15.0.0, SVG Export Plug-In  -->
<!DOCTYPE svg PUBLIC "-//W3C//DTD SVG 1.1//EN" "http://www.w3.org/Graphics/SVG/1.1/DTD/svg11.dtd" [
	<!ENTITY ns_flows "http://ns.adobe.com/Flows/1.0/">
]>
<svg version="1.1"
	 xmlns="http://www.w3.org/2000/svg" xmlns:xlink="http://www.w3.org/1999/xlink" xmlns:a="http://ns.adobe.com/AdobeSVGViewerExtensions/3.0/"
	 x="0px" y="0px" width="48px" height="48px" viewBox="-5.917 -3.829 48 48"
	 xml:space="preserve">
<defs>
</defs>
<polygon points="22.293,3.996 16.28,0 10.462,3.996 "/>
<polygon points="29.206,13.902 33.104,11.181 29.232,8.608 "/>
<polygon points="3.732,8.618 0,11.181 3.732,13.917 "/>
<path d="M16.264,23.073l10.756-7.568l0.058-9.639H5.808v9.513l2.034,1.492v-1.813h5.918v5.283h-1.139L16.264,23.073z M25.256,15.741
	H17.23v-0.569h8.025V15.741z M25.256,13.119H17.23V12.55h8.025V13.119z M25.256,9.648H7.728V8.965h17.528V9.648z"/>
<path d="M22.807,23.28c1.641-2.273,4.284-2.244,5.875,0.064l4.422,7.228V13.181L6.555,32.191l8.056-8.273L0,13.181v23.271h14.299
	L22.807,23.28z"/>
<path d="M35.536,36.845L28.14,24.758c-1.325-1.924-3.528-1.948-4.896-0.054l-7.877,12.194c-1.368,1.894-0.576,3.443,1.76,3.443
	h16.57C36.032,40.342,36.858,38.77,35.536,36.845z M25.321,38.752c-0.576,0-1.044-0.468-1.044-1.044s0.468-1.044,1.044-1.044
	c0.577,0,1.044,0.468,1.044,1.044S25.898,38.752,25.321,38.752z M27.063,30.357l-0.864,3.662c-0.455,1.933-1.219,1.937-1.693,0.011
	l-0.911-3.682c-0.477-1.928,0.296-3.503,1.716-3.503C26.73,26.846,27.518,28.426,27.063,30.357z"/>
</svg>
