<?xml version="1.0" encoding="utf-8"?>
<!-- Generator: Adobe Illustrator 15.0.0, SVG Export Plug-In  -->
<!DOCTYPE svg PUBLIC "-//W3C//DTD SVG 1.1//EN" "http://www.w3.org/Graphics/SVG/1.1/DTD/svg11.dtd" [
	<!ENTITY ns_flows "http://ns.adobe.com/Flows/1.0/">
]>
<svg version="1.1"
	 xmlns="http://www.w3.org/2000/svg" x="0px" y="0px" width="48px" height="48px" viewBox="-4.1 -4.1 48 48"
	 xml:space="preserve">
<defs>
</defs>
<path d="M29.9,26.599c-0.027,1.133-0.17,2.236-0.418,3.301H31.3v-3.301H29.9z"/>
<path d="M13.6,12.6C6.089,12.6,0,18.689,0,26.201c0,7.51,6.089,13.6,13.6,13.6c7.511,0,13.601-6.09,13.601-13.6
	C27.201,18.689,21.111,12.6,13.6,12.6z M13.427,16.821c2.548,0,4.614,2.174,4.614,4.854c0,2.682-2.066,4.854-4.614,4.854
	c-2.553,0-4.617-2.172-4.617-4.854C8.81,18.995,10.874,16.821,13.427,16.821z M3.821,33.359c0.391-2.848,2.021-5.301,4.324-6.801
	c-0.023,0.066-0.038,0.137-0.038,0.207c0,0.996,2.381,1.809,5.32,1.809c2.936,0,5.317-0.813,5.317-1.809
	c0-0.07-0.016-0.141-0.037-0.207c2.302,1.5,3.932,3.953,4.324,6.801H3.821z"/>
<path d="M8.8,0v0.7v2.6v7.3c1.242-0.382,2.552-0.601,3.9-0.675V7.1l4.509,3.193c3.218,0.728,6.068,2.404,8.253,4.722L35.8,7.1v27.3
	h-8.105c-0.879,1.504-1.986,2.852-3.282,4H39.8V3.3V0.7V0H8.8z M24.701,11.5L12.627,3.3h23.539L24.701,11.5z"/>
<path d="M28.421,19.399c0.477,1.038,0.854,2.132,1.105,3.273l1.773,0.028v-3.302H28.421z"/>
</svg>
