<?xml version="1.0" encoding="utf-8"?>
<svg version="1.1"
	 xmlns="http://www.w3.org/2000/svg" x="0px" y="0px" width="32px" height="32px" viewBox="0 0 32 32">
<path d="M10.953,9.374c1.153,0,1.318-0.645,1.336-1.222c0-0.462-0.066-0.924-0.133-1.368c-0.065-0.479-0.132-0.94-0.132-1.387
	c0-1.517,1.006-2.161,2.408-2.161h0.33v0.907h-0.28c-0.974,0.018-1.319,0.528-1.319,1.418c0,0.379,0.065,0.775,0.114,1.171
	c0.066,0.412,0.133,0.809,0.133,1.253c0.017,1.057-0.463,1.583-1.204,1.781V9.8c0.741,0.198,1.204,0.742,1.204,1.798
	c0,0.445-0.065,0.858-0.133,1.271c-0.049,0.396-0.114,0.792-0.114,1.188c0,0.924,0.396,1.42,1.319,1.437h0.28v0.905h-0.347
	c-1.354,0-2.393-0.594-2.393-2.26c0-0.445,0.065-0.907,0.148-1.353c0.049-0.462,0.115-0.907,0.115-1.337
	c0-0.527-0.165-1.236-1.336-1.236V9.374H10.953z"/>
<path d="M21.048,10.215c-1.154,0-1.318,0.709-1.336,1.237c0,0.429,0.064,0.875,0.132,1.336c0.066,0.444,0.132,0.906,0.132,1.353
	c0,1.667-1.039,2.261-2.392,2.261h-0.347v-0.906h0.279c0.924-0.018,1.32-0.512,1.32-1.437c0-0.396-0.066-0.792-0.115-1.188
	c-0.066-0.412-0.133-0.825-0.133-1.271c-0.018-1.056,0.462-1.6,1.204-1.798V9.77c-0.742-0.198-1.204-0.726-1.204-1.781
	c0-0.444,0.066-0.841,0.133-1.253c0.049-0.396,0.115-0.792,0.115-1.171c0-0.891-0.348-1.401-1.32-1.418h-0.279v-0.91h0.33
	c1.401,0,2.408,0.645,2.408,2.161c0,0.445-0.065,0.907-0.133,1.387c-0.066,0.444-0.132,0.906-0.132,1.368
	c0,0.577,0.165,1.222,1.336,1.222L21.048,10.215L21.048,10.215z"/>
<path d="M25.957,18.708h-1.896H7.939H6.044c-2.082,0-3.771,1.688-3.771,3.771v2.514c0,2.083,1.688,3.771,3.771,3.771h1.896h16.122
	h1.896c2.082,0,3.771-1.688,3.771-3.771v-2.514C29.728,20.396,28.039,18.708,25.957,18.708z M14.511,24.983
	c0,1.969-0.969,2.574-2.244,2.574c-0.363,0-0.793-0.078-1.022-0.178l0.132-0.779c0.198,0.075,0.483,0.143,0.813,0.143
	c0.857,0,1.354-0.385,1.354-1.838v-4.885h0.968V24.983z M18.175,27.555c-0.716,0-1.496-0.221-1.894-0.483l0.253-0.801
	c0.429,0.273,1.045,0.482,1.705,0.482c0.979,0,1.552-0.518,1.552-1.266c0-0.683-0.396-1.09-1.397-1.463
	c-1.209-0.44-1.958-1.078-1.958-2.112c0-1.154,0.958-2.015,2.398-2.015c0.748,0,1.31,0.178,1.627,0.363l-0.265,0.781
	c-0.229-0.143-0.727-0.352-1.396-0.352c-1.013,0-1.397,0.604-1.397,1.11c0,0.692,0.451,1.033,1.475,1.431
	c1.254,0.483,1.882,1.09,1.882,2.178C20.76,26.554,19.923,27.555,18.175,27.555z"/>
</svg>
