<?xml version="1.0" encoding="utf-8"?>
<svg version="1.1"
	 xmlns="http://www.w3.org/2000/svg" x="0px" y="0px" width="48px" height="48px" viewBox="-2.817 -4.292 48 48">
<defs>
</defs>
<path d="M36.546,23.9h-2.925H8.744H5.818C2.605,23.9,0,26.505,0,29.718v3.879c0,3.215,2.605,5.82,5.818,5.82h2.926h24.877h2.925
	c3.213,0,5.819-2.605,5.819-5.82v-3.879C42.365,26.505,39.759,23.9,36.546,23.9z M14.43,36.728l-1.341-2.299
	c-0.54-0.877-0.864-1.447-1.188-2.051h-0.032c-0.292,0.604-0.602,1.156-1.126,2.066l-1.249,2.283H7.952l3.177-5.262l-3.053-5.135
	h1.557l1.373,2.438c0.386,0.68,0.68,1.203,0.957,1.76h0.047c0.292-0.619,0.555-1.098,0.94-1.76l1.402-2.438h1.559l-3.162,5.059
	l3.239,5.338H14.43z M26.173,36.73l-0.248-4.566c-0.077-1.449-0.169-3.207-0.169-4.488h-0.031c-0.371,1.203-0.787,2.516-1.311,3.947
	l-1.836,5.045h-1.017l-1.697-4.951c-0.494-1.48-0.895-2.807-1.188-4.041h-0.032c-0.03,1.295-0.106,3.023-0.2,4.596l-0.277,4.459
	h-1.279l0.725-10.396h1.713l1.772,5.027c0.432,1.281,0.771,2.422,1.049,3.504h0.029c0.278-1.051,0.648-2.193,1.111-3.504
	l1.851-5.027h1.713l0.647,10.396H26.173z M34.969,36.728H29.17V26.333h0.001h1.356v9.268h4.441V36.728z"/>
<polygon points="32.415,11.037 27.18,5.801 27.18,3.222 34.995,11.037 27.18,18.852 27.18,16.274 "/>
<polygon points="9.525,10.585 14.76,5.349 14.76,2.771 6.946,10.585 14.76,18.401 14.76,15.822 "/>
<polygon points="18.375,21.5 19.936,21.908 25.202,0.409 23.644,0 "/>
</svg>
