<?xml version="1.0" encoding="utf-8"?>
<!-- Generator: Adobe Illustrator 15.0.0, SVG Export Plug-In  -->
<!DOCTYPE svg PUBLIC "-//W3C//DTD SVG 1.1//EN" "http://www.w3.org/Graphics/SVG/1.1/DTD/svg11.dtd" [
	<!ENTITY ns_flows "http://ns.adobe.com/Flows/1.0/">
]>
<svg version="1.1"
	 xmlns="http://www.w3.org/2000/svg" x="0px" y="0px" width="48px" height="48px" viewBox="-7.664 -3.453 48 48"
	 xml:space="preserve">
<defs>
</defs>
<path d="M29.852,0H2.819C1.263,0,0,0.415,0,2.426v3.895h32.672V2.426C32.672,0.415,31.41,0,29.852,0z M19.407,4.544H3.321
	c-0.675,0-1.224-0.619-1.224-1.385c0-0.762,0.549-1.381,1.224-1.381h16.086c0.672,0,1.224,0.619,1.224,1.381
	C20.631,3.925,20.079,4.544,19.407,4.544z M29.551,4.04c-0.533,0-0.972-0.436-0.972-0.974s0.438-0.974,0.972-0.974
	c0.54,0.001,0.977,0.436,0.977,0.974C30.527,3.605,30.09,4.04,29.551,4.04z"/>
<path d="M32.671,38.668v-31.3H0v31.3c0,2.008,1.263,2.426,2.819,2.426h27.033C31.41,41.094,32.672,40.676,32.671,38.668
	L32.671,38.668z M11.364,37.352h-9.79V22.9h9.79V37.352z M31.098,37.352h-18.16v-5.418h18.16V37.352z M31.098,29.898h-18.16v-6.773
	h18.16V29.898z M31.271,21.094H1.574V9.354h29.697V21.094z"/>
</svg>
