<?xml version="1.0" encoding="utf-8"?>
<svg version="1.1"
	 xmlns="http://www.w3.org/2000/svg" x="0px" y="0px" width="48px" height="48px" viewBox="-2.668 -4.476 48 48">
<defs>
</defs>
<path d="M18.068,14.86c-3.498,2.082-5.008,6.683-3.291,10.399c1.754,3.787,5.443,5.33,9.315,6.18
	c2.887,0.633,5.857,0.881,8.809,0.801c3.277-0.094,6.508-0.523,9.764-0.896c-1.166,1.607-2.625,3.559-4.629,4.105
	c-1.768,0.48-3.738,0.59-5.557,0.529c-3.527-0.113-6.986-0.324-10.42-1.256c-3.643-0.984-8.04-3.152-9.818-6.688
	c-1.242-2.469-2.081-5.027-1.663-7.813c0.727-4.853,4.238-8.671,9.035-9.741c2.08-0.463,4.342-0.414,6.375,0.246
	c2.727,0.882,4.854,2.912,6.49,5.205c-1.016,0.576-2.043,1.155-3.135,1.566C27.123,14.627,22.055,12.487,18.068,14.86z M30.52,7.186
	c-0.537,0.948-1.072,1.896-1.609,2.846c-0.174,0.306-0.42,0.001-0.697-0.118c-0.604-0.262-1.219-0.497-1.846-0.698
	c-1.27-0.405-2.588-0.685-3.92-0.722c-4.086-0.114-8.109,1.663-10.688,4.849c-2.484,3.075-3.445,7.211-2.639,11.074
	c0.795,3.816,3.266,7.063,6.472,9.209c1.921,1.285,4.083,2.188,6.326,2.727c2.014,0.486,4.234,0.848,6.301,1
	c2.139,0.152,4.336,0,6.479,0c-2.945,0.84-6.217,1.697-9.311,1.697c-2.287,0-4.573,0-6.86,0c-0.783,0-1.952-0.748-2.646-1.092
	c-1.046-0.521-2.048-1.125-2.99-1.814c-1.689-1.23-3.186-2.732-4.397-4.439c-2.204-3.1-3.464-6.859-3.292-10.678
	c0.246-5.55,3.273-10.671,8.02-13.563C18.422,4.297,25.217,4.115,30.52,7.186c-0.363-0.213-0.727-0.422-1.092-0.633
	C29.727,6.726,30.18,6.988,30.52,7.186C30.52,7.186,28.037,5.748,30.52,7.186z M21.771,0c0,1.116,0,3.343,0,3.343
	s-3.136,0.249-5.543,1.015c-3.752,1.192-7.049,3.552-9.293,6.781c-4.34,6.247-4.347,14.695-0.156,21.014
	c1.877,2.842,4.52,5.1,7.547,6.637c-2.301-0.219-4.637-0.559-6.788-1.441c-1.837-0.754-3.065-2.031-4.121-3.709
	c-2.478-3.926-3.132-7.059-3.349-9.949c-0.363-4.812,0.727-10.176,3.426-14.234c2.32-3.485,5.787-6.261,9.669-7.823
	C15.867,0.542,18.866,0.107,21.771,0L21.771,0z"/>
</svg>
