<?xml version="1.0" encoding="utf-8"?>
<!-- Generator: Adobe Illustrator 15.0.0, SVG Export Plug-In  -->
<!DOCTYPE svg PUBLIC "-//W3C//DTD SVG 1.1//EN" "http://www.w3.org/Graphics/SVG/1.1/DTD/svg11.dtd" [
	<!ENTITY ns_flows "http://ns.adobe.com/Flows/1.0/">
]>
<svg version="1.1"
	 xmlns="http://www.w3.org/2000/svg" xmlns:xlink="http://www.w3.org/1999/xlink" xmlns:a="http://ns.adobe.com/AdobeSVGViewerExtensions/3.0/"
	 x="0px" y="0px" width="48px" height="48px" viewBox="-6.521 -4.342 48 48"
	 xml:space="preserve">
<defs>
</defs>
<path d="M15.95,12.231L15.95,12.231C16.168,12.231,16.168,12.231,15.95,12.231c0.218-0.873,0.436-1.31,0.436-1.965V9.83
	c0.218-1.092,0.218-1.967,0-2.185c0,0,0,0,0-0.219l-0.218-0.218l0,0l0,0c0,0,0,0.218-0.218,0.218
	C15.513,8.737,15.513,10.266,15.95,12.231L15.95,12.231z M9.371,27.264c-0.438,0.217-0.848,0.477-1.065,0.695
	c-1.528,1.309-2.621,2.839-2.841,3.492l0,0l0,0l0,0c1.313-0.217,2.647-1.459,3.958-4.082C9.566,27.083,9.371,27.264,9.371,27.264z
	 M29.492,24.025c-0.219-0.221-1.092-0.873-4.15-0.873c-0.218,0-0.218,0-0.435,0l0,0c0,0,0,0,0,0.219
	c1.53,0.654,3.055,1.093,4.146,1.093c0.221,0,0.221,0,0.438,0l0,0h0.218c0,0,0,0,0-0.217l0,0
	C29.71,24.247,29.492,24.247,29.492,24.025z M30.589,0H4.368C1.967,0,0,1.967,0,4.368v30.581c0,2.404,1.967,4.367,4.368,4.367
	h26.221c2.403,0,4.37-1.963,4.37-4.367V4.368C34.959,1.967,32.992,0,30.589,0z M30.363,25.773c-0.432,0.217-1.09,0.438-1.963,0.438
	c-1.748,0-4.368-0.438-6.554-1.529c-3.713,0.438-6.553,0.875-8.736,1.748c-0.13,0.053-0.324,0.12-0.438,0.219
	c-2.62,4.586-4.807,6.771-6.552,6.771c-0.437,0-0.818,0.01-1.164-0.174c0,0-1.384-0.661-1.021-2.012
	c0.219-1.09,1.529-3.06,4.151-4.586c0.437-0.219,1.092-0.657,1.966-1.092c0.654-1.093,1.31-2.404,2.184-3.935
	c1.093-2.183,1.747-4.366,2.403-6.332l0,0c-0.875-2.621-1.311-4.151-0.438-7.208c0.22-0.873,0.876-1.748,1.749-1.748h0.436
	c0.438,0,0.875,0.219,1.312,0.437c1.53,1.531,0.874,5.024,0,7.864c0,0.22,0,0.22,0,0.22c0.874,2.402,2.187,4.369,3.495,5.678
	c0.654,0.436,1.092,0.875,1.965,1.313c1.096,0,1.967-0.223,2.838-0.223c2.625,0,4.369,0.439,5.024,1.529
	c0.22,0.438,0.22,0.875,0.22,1.313C31.02,24.682,30.805,25.337,30.363,25.773z M16.168,17.256c-0.437,1.528-1.311,3.276-2.185,5.24
	c-0.437,0.875-0.872,1.529-1.311,2.404h0.218h0.221l0,0c2.839-1.096,5.46-1.748,7.207-1.965c-0.435-0.221-0.654-0.439-0.873-0.655
	C18.351,20.968,17.042,19.222,16.168,17.256z"/>
</svg>
