<?xml version="1.0" encoding="utf-8"?>
<!DOCTYPE svg PUBLIC "-//W3C//DTD SVG 1.1//EN" "http://www.w3.org/Graphics/SVG/1.1/DTD/svg11.dtd" [
	<!ENTITY ns_flows "http://ns.adobe.com/Flows/1.0/">
]>
<svg version="1.1"
	 xmlns="http://www.w3.org/2000/svg" x="0px" y="0px" width="32px" height="32px" viewBox="-3.309 -2.567 32 32">
<defs>
</defs>
<path d="M20.734,26.439l4.633-0.232c0.218-6.215-1.78-12.332-5.455-16.931C15.941,4.31,9.37,0.707,2.198,0L1.432,4.424
	C7.25,4.962,12.814,7.699,16.35,12.122C19.493,16.057,20.979,21.261,20.734,26.439z"/>
<path d="M12.313,26.867l4.539-0.23c0.323-4.184-0.855-8.477-3.665-11.992C10.036,10.7,5.478,8.54,0.766,8.268L0,12.686
	c3.658,0.084,7.233,1.711,9.676,4.769C11.877,20.208,12.694,23.599,12.313,26.867z"/>
<circle cx="4.512" cy="21.804" r="3.047"/>
</svg>
