<?xml version="1.0" encoding="utf-8"?>
<svg version="1.1"
	 xmlns="http://www.w3.org/2000/svg" x="0px" y="0px" width="48px" height="48px" viewBox="-2.851 -3.338 48 48">
<defs>
</defs>
<path d="M12.999,18.311c0,1.144-0.53,2.139-1.864,2.139c-0.043,0-0.594-0.042-0.889-0.063v-4.043
	c0.295-0.043,0.846-0.085,0.889-0.085C12.531,16.257,12.999,17.211,12.999,18.311z"/>
<path d="M41.069,4.488H24.153V0L0,4.297v32.729l24.153,4.299v-5.442H41.09c0.467,0,1.184-0.677,1.207-1.313V5.78
	C42.297,5.25,41.745,4.573,41.069,4.488z M12.278,22.947c-0.318,0.042-0.657,0.087-0.974,0.105l-0.741,0.02
	c-0.126,0.021-0.276,0.021-0.423,0.066v4.569H7.728V13.803l5.419,0.021c0.402-0.001,0.762,0.084,1.207,0.443
	c1.333,1.122,1.566,2.371,1.566,3.536C15.92,19.75,15.285,22.523,12.278,22.947z M40.92,34.486H24.176v-3.602h13.061v-1.672H24.176
	v-2.814h13.061v-1.672H24.176v-4.639c1.33,1.546,2.984,2.074,4.381,2.074c2.666,0,5.332-1.926,5.715-5.439v-0.444h-5.734v-5.907
	h-0.174c-1.373,0.063-2.857,0.55-4.188,2.075V5.885H40.92V34.486z"/>
<path d="M29.762,9.568c0.32,0.043,0.617,0.085,0.91,0.128c0.15,0.021,0.299,0.106,0.467,0.127c1.145,0.275,2.963,1.799,3.449,3.111
	c0.043,0.148,0.129,0.318,0.193,0.465l0.189,0.636c0.063,0.317,0.17,0.89,0.17,0.953v0.423h-5.695V9.568H29.762z"/>
</svg>
