<?xml version="1.0" encoding="utf-8"?>
<!DOCTYPE svg PUBLIC "-//W3C//DTD SVG 1.1//EN" "http://www.w3.org/Graphics/SVG/1.1/DTD/svg11.dtd" [
	<!ENTITY ns_flows "http://ns.adobe.com/Flows/1.0/">
]>
<svg version="1.1"
	 xmlns="http://www.w3.org/2000/svg" x="0px" y="0px" width="48px" height="48px" viewBox="-7.553 -3.52 48 48">
<defs>
</defs>
<path d="M7.563,28.583c-2.278-0.002-3.407,2.104-3.407,4.412c0,2.275,1.224,4.303,3.391,4.303s3.394-1.994,3.394-4.398
	C10.941,30.781,9.841,28.583,7.563,28.583z"/>
<path d="M16.739,28.662c-0.705,0-1.237,0.063-1.603,0.141v8.373h0.001c0.347,0.043,0.851,0.063,1.385,0.063
	c2.937,0,4.503-1.633,4.503-4.492C21.045,30.248,19.63,28.662,16.739,28.662z"/>
<rect x="6.97" y="14.161" width="4.917" height="1.227"/>
<rect x="6.97" y="10.521" width="10.125" height="1.226"/>
<rect x="6.97" y="6.785" width="13.754" height="1.227"/>
<rect x="6.97" y="17.904" width="4.917" height="1.228"/>
<rect x="6.97" y="21.519" width="4.917" height="1.227"/>
<path d="M19.326,12.594c-3.1,0-5.612,2.513-5.612,5.611c0,3.097,2.512,5.609,5.612,5.609c3.098,0,5.607-2.512,5.607-5.609h-5.607
	V12.594z"/>
<path d="M20.085,17.318v0.003h5.61c0-1.579-0.651-3.001-1.702-4.022L20.085,17.318z"/>
<path d="M20.027,16.335l3.967-3.969c-1.115-1.115-2.51-1.662-3.971-1.64l0.004,5.605V16.335z"/>
<path d="M26.439,28.722c-0.597,0-1.056,0.049-1.291,0.111v4.127c0.301,0.078,0.678,0.109,1.135,0.109
	c1.654,0,2.664-0.814,2.664-2.252C28.947,29.4,27.938,28.722,26.439,28.722z"/>
<path d="M32.838,7.519L26.512,0H3.947C1.765,0,0,1.767,0,3.947v33.066c0,2.178,1.765,3.947,3.947,3.947h25
	c2.18,0,3.947-1.77,3.947-3.947V9.895V7.586V7.519H32.838z M4.156,3.134h20.017V6.33c0,1.969,1.597,3.566,3.565,3.566l2.347,0v16.04
	H2.807V6.478C2.807,4.629,2.347,3.134,4.156,3.134z M7.469,38.414c-2.813,0-4.76-2.184-4.76-5.387c0-3.363,2.074-5.561,4.9-5.561
	c2.906,0,4.776,2.217,4.776,5.371C12.385,36.466,10.17,38.414,7.469,38.414z M20.951,36.812c-1.008,0.988-2.639,1.521-4.697,1.521
	c-0.99,0-1.79-0.043-2.48-0.123V27.812h-0.001c0.83-0.141,1.82-0.234,2.904-0.234c1.962,0,3.363,0.469,4.287,1.318
	c0.959,0.861,1.509,2.09,1.509,3.801C22.473,34.425,21.923,35.841,20.951,36.812z M29.499,33.011
	c-0.74,0.77-1.906,1.164-3.246,1.164c-0.407,0-0.785-0.018-1.104-0.094v4.254h-1.369V27.841l0,0
	c0.662-0.111,1.529-0.205,2.631-0.205c1.355,0,2.348,0.314,2.979,0.883c0.564,0.504,0.928,1.277,0.928,2.221
	C30.316,31.701,30.036,32.458,29.499,33.011z"/>
</svg>
