<?xml version="1.0" encoding="utf-8"?>
<!-- Generator: Adobe Illustrator 15.0.0, SVG Export Plug-In  -->
<!DOCTYPE svg PUBLIC "-//W3C//DTD SVG 1.1//EN" "http://www.w3.org/Graphics/SVG/1.1/DTD/svg11.dtd" [
	<!ENTITY ns_flows "http://ns.adobe.com/Flows/1.0/">
]>
<svg version="1.1"
	 xmlns="http://www.w3.org/2000/svg" xmlns:xlink="http://www.w3.org/1999/xlink" xmlns:a="http://ns.adobe.com/AdobeSVGViewerExtensions/3.0/"
	 x="0px" y="0px" width="48px" height="48px" viewBox="-8.212 -4.341 48 48"
	 xml:space="preserve">
<defs>
</defs>
<path d="M6.058,10.205v12.749h5.265h1.662h4.989h1.665h5.264V10.205H6.058z M23.239,14.085h-3.6v-2.217h3.6V14.085z M12.985,14.085
	v-2.217h4.989v2.217H12.985z M11.323,17.412H7.72v-1.663h3.603V17.412z M19.639,15.749h3.6v1.663h-3.6V15.749z M11.323,11.868v2.217
	H7.72v-2.217H11.323z M7.72,21.292v-2.218h3.603v2.218H7.72z M12.985,21.292v-2.218h4.989v2.218H12.985z M19.639,21.292v-2.218h3.6
	v2.218H19.639z"/>
<path d="M7.239,27.625c-2.252,0-3.371,2.002-3.371,4.198c0,2.167,1.211,4.095,3.355,4.095c2.143,0,3.356-1.896,3.356-4.184
	C10.579,29.717,9.491,27.625,7.239,27.625z"/>
<path d="M16.315,27.7c-0.699,0-1.227,0.061-1.584,0.136v7.965c0.341,0.042,0.838,0.059,1.366,0.059c2.905,0,4.458-1.553,4.458-4.273
	C20.57,29.21,19.172,27.7,16.315,27.7z"/>
<path d="M31.575,7.28V7.216H31.52L25.45,0H3.789C1.694,0,0,1.695,0,3.788v31.741c0,2.091,1.694,3.789,3.789,3.789h23.997
	c2.094,0,3.789-1.698,3.789-3.789V7.28L31.575,7.28z M3.989,3.008h19.215v3.065c0,1.892,1.529,3.424,3.422,3.424l2.254,0v15.398
	H2.695V6.217C2.695,4.444,2.253,3.008,3.989,3.008z M7.144,36.98c-2.78,0-4.705-2.078-4.705-5.127c0-3.198,2.05-5.289,4.846-5.289
	c2.875-0.002,4.722,2.106,4.722,5.109C12.007,35.126,9.817,36.98,7.144,36.98z M20.478,35.454c-0.993,0.942-2.61,1.452-4.645,1.452
	c-0.98,0-1.771-0.045-2.454-0.121v-9.893h0.001c0.823-0.133,1.8-0.225,2.873-0.225c1.941,0,3.324,0.45,4.24,1.255
	c0.948,0.823,1.491,1.987,1.491,3.618C21.984,33.186,21.441,34.53,20.478,35.454z M25.483,36.98c-1.01,0-2.113-0.299-2.672-0.657
	l0.359-1.095c0.604,0.377,1.477,0.66,2.406,0.66c1.383,0,2.191-0.701,2.191-1.718c0-0.929-0.561-1.479-1.973-1.989
	c-1.709-0.598-2.768-1.465-2.768-2.867c0-1.571,1.352-2.734,3.389-2.734c1.057,0,1.848,0.236,2.297,0.492l-0.371,1.062
	c-0.326-0.196-1.025-0.479-1.973-0.479c-1.43,0-1.975,0.821-1.975,1.51c0,0.938,0.639,1.403,2.082,1.942
	c1.771,0.656,2.656,1.479,2.656,2.959C29.133,35.621,27.952,36.98,25.483,36.98z"/>
</svg>
