<?xml version="1.0" encoding="utf-8"?>
<!-- Generator: Adobe Illustrator 15.0.0, SVG Export Plug-In  -->
<!DOCTYPE svg PUBLIC "-//W3C//DTD SVG 1.1//EN" "http://www.w3.org/Graphics/SVG/1.1/DTD/svg11.dtd" [
	<!ENTITY ns_flows "http://ns.adobe.com/Flows/1.0/">
]>
<svg version="1.1"
	 xmlns="http://www.w3.org/2000/svg" x="0px" y="0px" width="48px" height="48px" viewBox="-8.214 -4.343 48 48"
	 xml:space="preserve">
<defs>
</defs>
<path d="M7.257,27.432c-2.184,0-3.27,2.022-3.27,4.235c0,2.188,1.175,4.133,3.255,4.133c2.081,0,3.257-1.916,3.257-4.224
	C10.499,29.541,9.444,27.432,7.257,27.432z"/>
<path d="M16.067,27.508c-0.677,0-1.188,0.061-1.538,0.135v8.037h-0.001c0.333,0.043,0.816,0.06,1.328,0.06
	c2.82,0,4.325-1.566,4.325-4.313C20.199,29.031,18.842,27.508,16.067,27.508z"/>
<path d="M31.57,7.281V7.217h-0.055l-6.068-7.214V0H3.789C1.694,0,0,1.695,0,3.789v31.736c0,2.091,1.694,3.789,3.789,3.789h23.995
	c2.092,0,3.788-1.698,3.788-3.789V7.281H31.57z M7.169,36.869c-2.7,0-4.568-2.096-4.568-5.169c0-3.228,1.99-5.337,4.702-5.337
	c2.789,0,4.584,2.125,4.584,5.154C11.887,35.001,9.761,36.869,7.169,36.869z M20.108,35.331c-0.969,0.949-2.533,1.461-4.508,1.461
	c-0.95,0-1.718-0.042-2.381-0.117v-9.981c0.797-0.137,1.747-0.226,2.787-0.226c1.884,0,3.229,0.45,4.116,1.265
	c0.92,0.83,1.447,2.009,1.447,3.649C21.569,33.039,21.042,34.398,20.108,35.331z M28.872,27.659h-3.106v9.045h-1.327v-9.045h-3.088
	v-1.113h7.521V27.659z M28.875,24.893H2.694V6.217c0-1.774-0.441-3.21,1.295-3.21H23.2v3.068c0,1.89,1.53,3.423,3.423,3.423l2.252,0
	V24.893z"/>
<path d="M5.365,11.233c0,0,4.594-1.674,6.827,1.673c0,0,2.576-2.989,6.935-1.959c0,0-4.715-0.476-6.935,4.162
	C12.191,15.108,10.923,10.432,5.365,11.233z"/>
<path d="M12.815,15.75c0,0,4.595-1.675,6.827,1.675c0,0,2.576-2.992,6.936-1.961c0,0-4.715-0.477-6.936,4.16
	C19.644,19.625,18.374,14.949,12.815,15.75z"/>
</svg>
