<?xml version="1.0" encoding="utf-8"?>
<!-- Generator: Adobe Illustrator 15.0.0, SVG Export Plug-In  -->
<!DOCTYPE svg PUBLIC "-//W3C//DTD SVG 1.1//EN" "http://www.w3.org/Graphics/SVG/1.1/DTD/svg11.dtd" [
	<!ENTITY ns_flows "http://ns.adobe.com/Flows/1.0/">
]>
<svg version="1.1"
	 xmlns="http://www.w3.org/2000/svg" xmlns:xlink="http://www.w3.org/1999/xlink" xmlns:a="http://ns.adobe.com/AdobeSVGViewerExtensions/3.0/"
	 x="0px" y="0px" width="48px" height="48px" viewBox="-2.08 -2.614 48 48" enable-background="new -2.08 -2.614 48 48"
	 xml:space="preserve">
<defs>
</defs>
<path d="M30.976,14.042c0,5.844-4.5,10.573-10.051,10.573c-5.558,0-10.056-4.729-10.056-10.573c0-5.838,4.498-10.569,10.056-10.569
	C26.476,3.47,30.976,8.204,30.976,14.042z"/>
<path d="M32.606,24.803c-0.06-0.039-0.118-0.084-0.18-0.123c0.019,0.057,0.019,0.118,0.03,0.18
	C32.509,24.84,32.557,24.821,32.606,24.803z"/>
<path d="M25.834,34.251c0-2.239,0.746-4.3,1.992-5.965c-1.931,0.487-4.313,0.78-6.901,0.78c-6.402,0-11.59-1.768-11.59-3.937
	c0-0.153,0.033-0.305,0.083-0.452C4.402,27.946,0.853,33.289,0,39.496h27.334C26.39,37.971,25.834,36.177,25.834,34.251z"/>
<circle cx="35.447" cy="34.38" r="8.392"/>
<path d="M34.432,10.375c-0.286,0-0.552,0.08-0.785,0.21C33.147,5.049,29.227,0.064,20.956,0C13.337-0.056,8.821,5.07,8.266,10.644
	c-0.257-0.169-0.564-0.27-0.895-0.27c-0.903,0-1.635,0.733-1.635,1.636v4.902c0,0.904,0.731,1.636,1.635,1.636
	c0.779,0,1.429-0.546,1.593-1.275l0.508,0.148v-4.577c0-5.254,3.187-11.374,11.478-11.295C30.101,1.636,32.44,7.59,32.44,12.844
	v4.577l0.409-0.12c0.002,0.008,0.005,0.015,0.006,0.021l-0.566,2.539c-0.279,1.255-0.866,2.382-1.678,3.281
	c-0.271-0.326-0.644-0.578-1.089-0.682c-1.092-0.254-2.178,0.423-2.432,1.512c-0.252,1.088,0.423,2.172,1.512,2.426
	s2.175-0.422,2.429-1.51c0.006-0.021,0.004-0.039,0.008-0.06c1.158-1.042,2.019-2.433,2.382-4.069l0.512-2.298
	c0.158,0.052,0.323,0.086,0.499,0.086c0.906,0,1.637-0.731,1.637-1.636V12.01C36.068,11.107,35.336,10.375,34.432,10.375z"/>
<path fill="#FFFFFF" d="M35.449,40.581c-0.961,0-1.742-0.781-1.744-1.743v-2.714h-2.717c-0.959-0.002-1.74-0.783-1.74-1.744
	c0-0.962,0.781-1.743,1.742-1.743l2.715,0.002V29.92c0-0.96,0.781-1.741,1.744-1.741c0.959,0,1.74,0.781,1.742,1.741v2.718
	l2.715-0.002c0.959,0.002,1.74,0.783,1.742,1.741c0,0.963-0.781,1.746-1.742,1.746h-2.715v2.714
	C37.191,39.799,36.408,40.581,35.449,40.581z"/>
</svg>
