<?xml version="1.0" encoding="utf-8"?>
<!-- Generator: Adobe Illustrator 15.0.0, SVG Export Plug-In  -->
<!DOCTYPE svg PUBLIC "-//W3C//DTD SVG 1.1//EN" "http://www.w3.org/Graphics/SVG/1.1/DTD/svg11.dtd" [
	<!ENTITY ns_flows "http://ns.adobe.com/Flows/1.0/">
]>
<svg version="1.1"
	 xmlns="http://www.w3.org/2000/svg" xmlns:xlink="http://www.w3.org/1999/xlink" xmlns:a="http://ns.adobe.com/AdobeSVGViewerExtensions/3.0/"
	 x="0px" y="0px" width="48px" height="48px" viewBox="-2.874 -3.833 48 48" enable-background="new -2.874 -3.833 48 48"
	 xml:space="preserve">
<defs>
</defs>
<path d="M40.149,17.346H37.17c-0.234-1.068-0.573-2.094-0.999-3.075l2.465-1.728c0.075-0.052,0.139-0.114,0.203-0.175l2.578,3.205
	l1.16-10.701l-10.701-1.16l2.709,3.368l-2.377,1.664c-0.776-0.718-1.619-1.359-2.527-1.918l1.061-2.916
	c0.352-0.955-0.146-2.013-1.098-2.36l-2.931-1.066c-0.957-0.349-2.012,0.146-2.359,1.1l-1.07,2.941
	c-0.75-0.104-1.509-0.177-2.287-0.177c-0.293,0-0.573,0.03-0.862,0.044l-0.81-3.026c-0.264-0.984-1.274-1.566-2.257-1.304
	l-3.01,0.806c-0.981,0.261-1.566,1.274-1.302,2.255l0.805,3.002c-0.954,0.48-1.848,1.044-2.683,1.69L8.507,5.83
	C7.728,5.175,6.57,5.28,5.915,6.058L3.911,8.447C3.256,9.223,3.36,10.383,4.137,11.04l2.315,1.939
	c-0.74,1.351-1.291,2.82-1.631,4.367H1.841C0.824,17.346,0,18.17,0,19.186v3.118c0,1.019,0.824,1.842,1.841,1.842h2.901
	c0.215,1.098,0.539,2.154,0.958,3.158l-2.346,1.644c-0.832,0.585-1.033,1.734-0.451,2.564l1.788,2.554
	c0.583,0.834,1.732,1.037,2.564,0.454l2.31-1.618c0.808,0.772,1.692,1.456,2.643,2.053l-0.957,2.627
	c-0.349,0.957,0.146,2.016,1.1,2.36l2.93,1.065c0.955,0.35,2.014-0.143,2.361-1.099l0.949-2.608
	c0.787,0.114,1.586,0.196,2.406,0.196c0.322,0,0.639-0.031,0.956-0.051l0.718,2.682c0.264,0.982,1.272,1.563,2.257,1.304l3.01-0.808
	c0.98-0.263,1.565-1.272,1.299-2.255l-0.72-2.691c1.006-0.514,1.95-1.119,2.821-1.815l2.15,1.803
	c0.775,0.651,1.939,0.552,2.592-0.23l2.004-2.385c0.656-0.78,0.552-1.94-0.228-2.597l-2.188-1.836
	c0.729-1.387,1.27-2.888,1.582-4.472h2.901c1.017,0,1.842-0.824,1.842-1.843v-3.117C41.992,18.17,41.167,17.346,40.149,17.346z"/>
<path fill="#FFFFFF" d="M28.947,18.279h-5.484v-5.484c0-1.362-1.104-2.464-2.467-2.464c-1.363,0-2.466,1.104-2.466,2.464v5.484
	h-5.485c-1.361,0-2.464,1.104-2.464,2.465c0,1.362,1.104,2.466,2.464,2.466h5.485v5.485c0,1.36,1.103,2.466,2.466,2.466
	c1.36,0,2.467-1.105,2.467-2.466V23.21h5.484c1.361,0,2.464-1.104,2.464-2.466S30.309,18.279,28.947,18.279"/>
</svg>
