<?xml version="1.0" encoding="utf-8"?>
<!-- Generator: Adobe Illustrator 15.0.0, SVG Export Plug-In  -->
<!DOCTYPE svg PUBLIC "-//W3C//DTD SVG 1.1//EN" "http://www.w3.org/Graphics/SVG/1.1/DTD/svg11.dtd" [
	<!ENTITY ns_flows "http://ns.adobe.com/Flows/1.0/">
]>
<svg version="1.1"
	 xmlns="http://www.w3.org/2000/svg" xmlns:xlink="http://www.w3.org/1999/xlink" xmlns:a="http://ns.adobe.com/AdobeSVGViewerExtensions/3.0/"
	 x="0px" y="0px" width="48px" height="48px" viewBox="0 -4.102 48 48" enable-background="new 0 -4.102 48 48"
	 xml:space="preserve">
<defs>
</defs>
<path display="none" fill="#C8691C" d="M44.868,26.35c0,1.614-1.31,2.926-2.929,2.926H4.854c-1.616,0-2.928-1.312-2.928-2.926V2.927
	C1.926,1.31,3.238,0,4.854,0h37.085c1.619,0,2.929,1.31,2.929,2.927V26.35z"/>
<path display="none" fill="#F79523" d="M14.64,10.754c-1.617,0-2.928-1.311-2.928-2.928V1.971H2.928C1.311,1.971,0,3.281,0,4.898
	v23.425c0,1.613,1.311,2.927,2.928,2.927h39.039c1.615,0,2.928-1.313,2.928-2.927V10.754H14.64z"/>
<path d="M4.637,6.354h10.75v6.424c0,1.605,1.3,2.289,2.903,2.289h27.952v-9.8c0-1.604-1.299-2.903-2.904-2.903H6.548
	c-1.604,0-2.905,1.299-2.905,2.903v1.272C3.953,6.427,4.285,6.354,4.637,6.354z"/>
<path d="M9.906,24.097h6.547v-6.997h-0.197c-1.604,0-2.904-1.299-2.904-2.904V8.389H4.637c-1.604,0-2.904,1.3-2.904,2.903v23.236
	c0,1.604,1.3,2.902,2.904,2.902h19.183L9.906,24.097z"/>
<path d="M31.332,17.101v6.997h7.146L24.561,37.432h18.803c1.604,0,2.904-1.301,2.904-2.903V17.101H31.332z"/>
</svg>
