<?xml version="1.0" encoding="utf-8"?>
<!-- Generator: Adobe Illustrator 15.0.0, SVG Export Plug-In  -->
<!DOCTYPE svg PUBLIC "-//W3C//DTD SVG 1.1//EN" "http://www.w3.org/Graphics/SVG/1.1/DTD/svg11.dtd" [
	<!ENTITY ns_flows "http://ns.adobe.com/Flows/1.0/">
]>
<svg version="1.1"
	 xmlns="http://www.w3.org/2000/svg" xmlns:xlink="http://www.w3.org/1999/xlink" xmlns:a="http://ns.adobe.com/AdobeSVGViewerExtensions/3.0/"
	 x="0px" y="0px" width="48px" height="48px" viewBox="-3.36 -10.79 48 48" enable-background="new -3.36 -10.79 48 48"
	 xml:space="preserve">
<defs>
</defs>
<path d="M0,6.67v19.75h40V6.67H0z M16.574,20.791v1.649h-1.001v-0.002v-1.586c-0.92-0.016-1.856-0.302-2.411-0.699l0.381-1.062
	c0.555,0.363,1.38,0.683,2.268,0.683c1.127,0,1.889-0.65,1.889-1.556c0-0.872-0.619-1.411-1.793-1.887
	c-1.618-0.638-2.617-1.382-2.617-2.761c0-1.317,0.936-2.316,2.379-2.555V9.431h1v1.54c0.936,0.031,1.586,0.285,2.063,0.554
	l-0.397,1.048c-0.333-0.19-0.983-0.556-1.999-0.556c-1.222,0-1.681,0.73-1.681,1.381c0,0.809,0.587,1.221,1.967,1.809
	c1.634,0.665,2.459,1.476,2.459,2.887C19.081,19.362,18.208,20.536,16.574,20.791z"/>
<path fill="#FFFFFF" d="M23.51,22.438v-1.586c-0.921-0.016-1.856-0.302-2.412-0.699l0.381-1.062c0.556,0.363,1.381,0.683,2.27,0.683
	c1.126,0,1.888-0.65,1.888-1.556c0-0.872-0.619-1.411-1.794-1.887c-1.617-0.638-2.617-1.382-2.617-2.761
	c0-1.317,0.938-2.316,2.381-2.555V9.431h0.997v1.54c0.938,0.031,1.588,0.285,2.064,0.554l-0.396,1.048
	c-0.334-0.19-0.983-0.556-1.999-0.556c-1.222,0-1.683,0.73-1.683,1.381c0,0.809,0.589,1.221,1.969,1.809
	c1.633,0.665,2.459,1.476,2.459,2.887c0,1.269-0.873,2.442-2.509,2.697v1.649H23.51V22.438z"/>
<rect y="4.767" width="21" height="0.891"/>
<polygon points="21,4.779 34.044,0 35.83,0.901 20.984,5.639 "/>
<polygon points="36.859,1.877 38.34,2.728 29.219,5.238 26,5.271 "/>
<polygon points="33.393,5.398 39.325,3.854 41.279,4.479 37.32,5.293 "/>
</svg>
