<?xml version="1.0" encoding="utf-8"?>
<svg version="1.1"
	 xmlns="http://www.w3.org/2000/svg" xmlns:xlink="http://www.w3.org/1999/xlink"
	 x="0px" y="0px" width="48px" height="48px" viewBox="-6.52 -3.129 48 48">
<defs>
</defs>
<path fill="#FCB51E" d="M27.855,19.39c-4.226,0.121-9.261,0.393-12.443,0.58c-1.353,0.191-2.461,0.276-3.153,0.193
	c1.471-0.154,2.92-0.278,4.338-0.378c5.081-0.657,12.528-3.253,16.215-4.601V3.656C32.813,1.636,31.546,0,29.98,0H2.831
	C1.268,0,0,1.636,0,3.656v35.177c0,2.017,1.268,2.438,2.831,2.438h27.15c1.565,0,2.832-0.422,2.832-2.438V19.463
	C31.566,19.424,29.883,19.388,27.855,19.39z"/>
<path fill="#D1D3D4" d="M13.717,20.051c0.268-0.016,0.547-0.031,0.855-0.05c0.2-0.028,0.407-0.06,0.619-0.094
	C14.646,19.968,14.154,20.015,13.717,20.051z"/>
<path fill="#F79523" d="M32.801,2.534C32.801,0.513,31.546,0,29.98,0H2.831C1.268,0,0,1.636,0,3.656v2.919l29.664,34.696h0.316
	c1.565,0,2.832-0.422,2.832-2.438L32.801,2.534z"/>
<path fill="#C8691C" d="M32.813,6.348v-3.91C32.813,0.417,31.546,0,29.98,0H2.831C1.268,0,0,0.417,0,2.438v3.91H32.813z"/>
<path fill="#FFFFFF" d="M20.719,3.173c0,0.77-0.554,1.391-1.228,1.391H3.335c-0.679,0-1.229-0.621-1.229-1.391l0,0
	c0-0.766,0.55-1.387,1.229-1.387h16.156C20.165,1.786,20.719,2.407,20.719,3.173L20.719,3.173z"/>
<path fill="#FFFFFF" d="M30.66,3.08c0,0.541-0.44,0.978-0.979,0.978c-0.537,0-0.978-0.437-0.978-0.978
	c0-0.542,0.44-0.979,0.978-0.979C30.22,2.101,30.66,2.538,30.66,3.08z"/>
<polygon fill="#52CAF5" points="31.407,15.696 11.667,20.181 1.58,20.181 1.58,8.39 31.407,8.39 "/>
<rect x="1.58" y="21.997" fill="#52CAF5" width="9.832" height="14.511"/>
<rect x="12.994" y="22.22" fill="#52CAF5" width="18.238" height="6.803"/>
<rect x="12.994" y="30.897" fill="#52CAF5" width="18.238" height="5.438"/>
<rect x="1.58" y="21.997" fill="#52CAF5" width="9.832" height="14.511"/>
<polygon fill="#3588A6" points="20.792,30.897 25.446,36.335 31.232,36.335 31.232,30.897 "/>
<polygon fill="#3588A6" points="13.377,22.22 19.198,29.023 31.232,29.023 31.232,22.22 "/>
<polygon fill="#3588A6" points="1.58,8.39 1.58,8.425 11.633,20.181 31.407,20.181 31.407,8.39 "/>
<path fill="#414042" d="M33.602,40.019L19.863,16.341c-0.564-1.016-1.843-1.39-2.859-0.824c-1.02,0.562-1.391,1.845-0.829,2.862
	L29.911,42.05L33.602,40.019z"/>
<path fill="#BABABA" d="M17.479,20.824c0,0,0.377-1.104,1.395-1.585c1.017-0.476,2.563-0.271,2.563-0.271l-2.377-4.447
	c0,0-1.435-0.245-2.375,0.264c-0.94,0.505-1.481,1.995-1.481,1.995L17.479,20.824z"/>
<path fill="#F37029" d="M15.203,16.781c0,0-2.993-2.315-3.357-4.46c-0.36-2.146,1.241-4.735-0.471-6.558c0,0,3.835,2.35,5.957,3.968
	c2.123,1.625,1.728,4.791,1.728,4.791s-1.51-0.279-2.375,0.264C15.949,15.245,15.203,16.781,15.203,16.781z"/>
<path fill="none" stroke="#FFFFFF" stroke-linecap="square" stroke-miterlimit="10" d="M14.943,16.871c0,0-2.733-2.405-3.097-4.55
	c-0.36-2.146,1.241-4.735-0.471-6.558c0,0,3.835,2.35,5.957,3.968c2.123,1.625,2.184,4.853,2.184,4.853"/>
<polyline fill="none" stroke="#FFFFFF" stroke-miterlimit="10" points="19.451,14.648 34.085,39.8 29.642,42.284 15.009,17.132 "/>
</svg>
