<?xml version="1.0" encoding="utf-8"?>
	<svg version="1.1"
	 xmlns="http://www.w3.org/2000/svg" xmlns:xlink="http://www.w3.org/1999/xlink"
	 x="0px" y="0px" width="48px" height="48px" viewBox="0 0 48 48">
<defs>
</defs>
<path fill="#F79523" d="M8.835,33.874c-1.662-1.662-1.662-4.356,0-6.02l14.577-20.25c1.662-1.662,4.355-1.662,6.018,0l14.579,20.25
	c1.662,1.663,1.661,4.357,0,6.02H8.835z"/>
<path fill="#C8691C" d="M26.421,6.358c0,0,2.179,0.415,3.009,1.246l14.579,20.25c1.662,1.663,1.661,4.357,0,6.02H26.421V6.358z"/>
<polygon fill="#52CAF5" points="31.934,16.758 29.509,11.908 20.028,16.758 24.404,23.831 27.138,22.007 24.481,17.72 28.202,15.93 
	29.568,18.209 "/>
<polygon fill="#52CAF5" points="21.365,22.766 23.276,26.102 30.937,21.855 35.19,28.692 28.506,32.035 27.29,29.908 31.394,27.629 
	30.025,25.35 22.429,29.756 18.934,23.983 "/>
<path fill="#414042" d="M39.761,38.754l-4.236-3.339c-0.436-0.346-1.003-0.428-1.499-0.268L13.062,18.62
	c-0.391-0.307-0.955-0.241-1.262,0.15c-0.309,0.39-0.241,0.955,0.147,1.263l20.965,16.525c-0.041,0.521,0.17,1.05,0.609,1.396
	l4.236,3.341c0.7,0.554,1.72,0.431,2.271-0.271C40.583,40.323,40.461,39.306,39.761,38.754"/>
<polygon fill="#F9ED32" points="15.326,10.561 15.747,16.294 20.709,19.197 15.388,21.371 14.16,26.989 10.449,22.597 4.728,23.166 
	7.756,18.28 5.446,13.014 11.031,14.384 "/>
<polygon fill="#DDD32F" points="15.326,10.561 15.747,16.294 20.709,19.197 15.388,21.371 14.16,26.989 11.031,14.384 "/>
<polygon fill="#C8691C" points="10.888,24.944 9.993,23.843 2.745,24.512 6.466,18.25 3.662,11.441 10.787,13.223 16.279,8.438 
	16.82,15.598 17.434,15.96 16.777,16.888 15.769,16.282 15.31,10.802 11.089,14.479 5.559,13.096 7.754,18.268 4.82,23.17 
	10.509,22.597 11.655,23.993 "/>
</svg>
