<?xml version="1.0" encoding="utf-8"?>
<svg version="1.1"
	 xmlns="http://www.w3.org/2000/svg" xmlns:xlink="http://www.w3.org/1999/xlink"
	 x="0px" y="0px" width="48px" height="48px" viewBox="-2.194 -3.114 48 48">
<defs>
</defs>
<path fill="#FCB51E" d="M28.191,19.624c-4.275,0.123-9.371,0.398-12.592,0.587c-1.37,0.194-2.491,0.279-3.191,0.195
	c1.487-0.154,2.956-0.28,4.391-0.383c5.142-0.664,12.679-3.292,16.411-4.656V3.7c0-2.045-1.283-3.7-2.867-3.7H2.865
	C1.284,0,0,1.655,0,3.7v35.603c0,2.041,1.284,2.469,2.865,2.469h27.478c1.584,0,2.867-0.428,2.867-2.469V19.698
	C31.948,19.658,30.243,19.623,28.191,19.624z"/>
<path fill="#D1D3D4" d="M13.883,20.293c0.271-0.016,0.555-0.033,0.865-0.051c0.203-0.029,0.412-0.061,0.626-0.095
	C14.824,20.209,14.325,20.257,13.883,20.293z"/>
<path fill="#F79523" d="M26.486,19.696c-3.986,0.114-8.735,0.371-11.738,0.547c-1.277,0.181-2.323,0.26-2.975,0.182
	c1.387-0.145,2.755-0.262,4.092-0.357c6.45-0.833,16.923-4.483,17.362-4.607L33.197,2.564C33.197,0.52,31.927,0,30.343,0H2.865
	C1.284,0,0,1.655,0,3.7v2.954l30.022,35.117h0.32c1.584,0,2.867-0.428,2.867-2.469l-0.007-19.458
	C32.559,19.811,30.065,19.693,26.486,19.696z"/>
<path fill="#C8691C" d="M33.21,6.424V2.466C33.21,0.422,31.927,0,30.343,0H2.865C1.284,0,0,0.422,0,2.466v3.958H33.21z"/>
<path fill="#FFFFFF" d="M20.97,3.211c0,0.778-0.561,1.407-1.243,1.407H3.375c-0.686,0-1.244-0.629-1.244-1.407l0,0
	c0-0.775,0.558-1.403,1.244-1.403h16.352C20.409,1.808,20.97,2.436,20.97,3.211L20.97,3.211z"/>
<path fill="#FFFFFF" d="M31.03,3.117c0,0.548-0.445,0.99-0.991,0.99c-0.543,0-0.989-0.442-0.989-0.99s0.446-0.99,0.989-0.99
	C30.585,2.126,31.03,2.569,31.03,3.117z"/>
<polygon fill="#52CAF5" points="31.787,15.885 11.809,20.425 1.6,20.425 1.6,8.492 31.787,8.492 "/>
<rect x="1.6" y="22.262" fill="#52CAF5" width="9.952" height="14.688"/>
<rect x="13.151" y="22.489" fill="#52CAF5" width="18.459" height="6.886"/>
<rect x="13.151" y="31.271" fill="#52CAF5" width="18.459" height="5.504"/>
<rect x="1.6" y="22.262" fill="#52CAF5" width="9.952" height="14.688"/>
<polygon fill="#3588A6" points="21.043,31.271 25.753,36.775 31.61,36.775 31.61,31.271 "/>
<polygon fill="#3588A6" points="13.539,22.489 19.431,29.375 31.61,29.375 31.61,22.489 "/>
<path d="M34.852,11.649c-0.01,0-0.018,0-0.018,0s0.018,0.023,0.043,0.059c0.05,0.115,0.112,0.227,0.177,0.335
	c0.131,0.326,0.214,0.81-0.119,1.293c-0.578,0.839-1.976,0.982-3.031,2.014C31.385,15.857,19.45,25.413,19.45,25.413
	s1.68,1.01,3.555,0.146c1.874-0.86,9.287-7.127,9.287-7.127s0.771-0.905,1.321-1.985c0.55-1.081,1.377-1.733,2.546-2.182
	c0.662-0.254,1.48-0.562,2.107-0.795c0.33-0.064,0.646-0.182,0.938-0.35c0.016-0.005,0.022-0.008,0.022-0.008s-0.004,0-0.006-0.001
	c0.492-0.287,0.912-0.711,1.189-1.257c0.766-1.508,0.165-3.354-1.344-4.122c-1.506-0.767-3.354-0.167-4.122,1.342
	C34.52,9.91,34.517,10.847,34.852,11.649z M38.51,8.826c0.906,0.46,1.267,1.567,0.806,2.473c-0.46,0.906-1.566,1.266-2.473,0.805
	c-0.904-0.46-1.266-1.567-0.806-2.473C36.498,8.724,37.605,8.365,38.51,8.826z"/>
<path d="M16.952,18.016c0,0,15.283,0.495,16.002,0.59c1.463,0.192,2.667-0.53,3.633-0.205c0.968,0.325,0.834,1.351,0.834,1.351
	s0.031-0.011,0.084-0.034c0.125,0.972,0.712,1.868,1.651,2.347c1.508,0.767,3.354,0.166,4.121-1.342
	c0.768-1.509,0.169-3.354-1.342-4.122c-0.574-0.292-1.195-0.386-1.789-0.307c0.003,0,0.004-0.003,0.004-0.003
	s-1.854,0.267-3.141,0.633c-1.204,0.342-2.257,0.315-3.346-0.221c-1.087-0.534-2.248-0.796-2.248-0.796s-9.691-0.573-11.707-0.138
	C17.695,16.203,16.952,18.016,16.952,18.016z M41.381,17.693c0.905,0.46,1.266,1.568,0.805,2.472
	c-0.462,0.906-1.569,1.267-2.473,0.806c-0.906-0.461-1.267-1.568-0.806-2.474C39.368,17.593,40.474,17.232,41.381,17.693z"/>
<path fill="#3588A6" d="M34.852,11.649c-0.01,0-0.018,0-0.018,0s0.018,0.023,0.043,0.059c0.05,0.115,0.112,0.227,0.177,0.335
	c0.131,0.326,0.214,0.81-0.119,1.293c-0.352,0.511-1.009,0.766-1.705,1.117c0.09,0.239,0.216,0.474,0.396,0.661
	c0.206,0.216,0.422,0.338,0.622,0.406c0.497-0.555,1.126-0.953,1.911-1.254c0.662-0.254,1.48-0.562,2.107-0.795
	c0.33-0.064,0.646-0.182,0.938-0.35c0.016-0.005,0.022-0.008,0.022-0.008s-0.004,0-0.006-0.001c0.492-0.287,0.912-0.711,1.189-1.257
	c0.766-1.508,0.165-3.354-1.344-4.122c-1.506-0.767-3.354-0.167-4.122,1.342C34.52,9.91,34.517,10.847,34.852,11.649z M38.51,8.826
	c0.906,0.46,1.267,1.567,0.806,2.473c-0.46,0.906-1.566,1.266-2.473,0.805c-0.904-0.46-1.266-1.567-0.806-2.473
	C36.498,8.724,37.605,8.365,38.51,8.826z"/>
<path fill="#3588A6" d="M38.962,21.96c1.46,0.857,3.338,0.37,4.194-1.089c0.858-1.46,0.371-3.339-1.088-4.196
	c-0.527-0.31-1.11-0.442-1.679-0.418c0.002-0.001,0.006-0.005,0.006-0.005s-0.008,0.003-0.023,0.005
	c-0.336,0.016-0.692,0.032-1.004,0.154c-0.654,0.14-1.483,0.312-2.177,0.454c-0.827,0.17-1.687,0.403-2.402,0.203
	c-0.133,0.164-0.222,0.316-0.279,0.608c-0.051,0.257,0.051,0.571,0.105,0.82c0.777-0.079,1.467-0.306,2.039-0.065
	c0.541,0.229,0.692,0.607,0.758,0.951c0.002,0.127,0.057,0.271,0.074,0.394c-0.002,0.046-0.004,0.074-0.004,0.074
	s0.006-0.003,0.016-0.009C37.646,20.697,38.153,21.484,38.962,21.96z M39.582,20.902c-0.875-0.515-1.167-1.642-0.653-2.516
	c0.516-0.876,1.643-1.17,2.518-0.654c0.877,0.515,1.169,1.641,0.654,2.517C41.585,21.124,40.457,21.417,39.582,20.902z"/>
<circle fill="#A7A9AC" cx="31.435" cy="17.48" r="0.768"/>
<path fill="#3588A6" d="M1.6,8.492v0.035l10.174,11.898c0,0,5.148-0.401,8.129-1.04c4.702-1.008,11.884-3.5,11.884-3.5V8.492H1.6z"
	/>
</svg>
