<?xml version="1.0" encoding="utf-8"?>
<svg version="1.1"
	 xmlns="http://www.w3.org/2000/svg" xmlns:xlink="http://www.w3.org/1999/xlink"
	 x="0px" y="0px" width="48px" height="48px" viewBox="-2.904 -2.747 48 48">
<defs>
</defs>
<path fill="#FCB51E" d="M28.479,19.824c-4.32,0.124-9.468,0.401-12.722,0.593c-1.383,0.195-2.517,0.282-3.223,0.197
	c1.503-0.157,2.985-0.284,4.436-0.387c5.194-0.671,12.809-3.326,16.578-4.704V3.738C33.548,1.672,32.252,0,30.652,0H2.894
	C1.297,0,0,1.672,0,3.738v35.965c0,2.063,1.297,2.494,2.894,2.494h27.758c1.6,0,2.896-0.432,2.896-2.494V19.899
	C32.273,19.859,30.552,19.822,28.479,19.824z"/>
<path fill="#D1D3D4" d="M14.024,20.5c0.273-0.016,0.56-0.032,0.874-0.051c0.205-0.029,0.417-0.062,0.633-0.096
	C14.974,20.416,14.471,20.464,14.024,20.5z"/>
<path fill="#F79523" d="M33.535,2.59c0-2.065-1.283-2.59-2.883-2.59H2.894C1.297,0,0,1.672,0,3.738v2.984l30.328,35.475h0.324
	c1.6,0,2.896-0.432,2.896-2.494L33.535,2.59z"/>
<path fill="#C8691C" d="M33.548,6.49V2.492C33.548,0.426,32.252,0,30.652,0H2.894C1.297,0,0,0.426,0,2.492V6.49H33.548z"/>
<path fill="#FFFFFF" d="M21.183,3.244c0,0.787-0.566,1.422-1.255,1.422H3.41c-0.694,0-1.256-0.635-1.256-1.422l0,0
	c0-0.783,0.563-1.417,1.256-1.417h16.518C20.617,1.826,21.183,2.461,21.183,3.244L21.183,3.244z"/>
<circle fill="#FFFFFF" cx="30.347" cy="3.148" r="1"/>
<polygon fill="#52CAF5" points="32.111,16.047 11.928,20.633 1.615,20.633 1.615,8.578 32.111,8.578 "/>
<rect x="1.615" y="22.49" fill="#52CAF5" width="10.053" height="14.836"/>
<rect x="13.285" y="22.718" fill="#52CAF5" width="18.647" height="6.955"/>
<rect x="13.285" y="31.589" fill="#52CAF5" width="18.647" height="5.56"/>
<rect x="1.615" y="22.49" fill="#52CAF5" width="10.053" height="14.836"/>
<polygon fill="#3588A6" points="21.258,31.589 26.016,37.149 31.933,37.149 31.933,31.589 "/>
<polygon fill="#3588A6" points="13.676,22.718 19.628,29.673 31.933,29.673 31.933,22.718 "/>
<polygon fill="#3588A6" points="1.615,8.578 1.615,8.613 11.894,20.633 32.111,20.633 32.111,8.578 "/>
<path fill="#E6E7E8" d="M42.603,40.27c0,1.14-0.924,2.065-2.065,2.065H23.846c-1.141,0-2.064-0.926-2.064-2.065V25.126
	c0-1.14,0.924-2.065,2.064-2.065h16.691c1.142,0,2.065,0.926,2.065,2.065V40.27z"/>
<path fill="#84D5F7" d="M41.478,39.779c0,0.809-0.675,1.464-1.506,1.464H24.41c-0.83,0-1.504-0.655-1.504-1.464v-14.16
	c0-0.81,0.674-1.465,1.504-1.465h15.562c0.831,0,1.506,0.655,1.506,1.465V39.779z"/>
<path fill="#3588A6" d="M24.41,41.243h15.562c0.831,0,1.506-0.655,1.506-1.464v-8.393l-2.129-1.632l-6.897,3.49l-4.599-3.662
	l-4.938,3.321l-0.008,0.063v6.812C22.906,40.587,23.58,41.243,24.41,41.243"/>
<path fill="#F79523" d="M35.261,28.732c0,0.987-0.799,1.788-1.789,1.788c-0.986,0-1.787-0.801-1.787-1.788s0.801-1.788,1.787-1.788
	C34.462,26.944,35.261,27.745,35.261,28.732"/>
</svg>
