<?xml version="1.0" encoding="utf-8"?>
	<svg version="1.1"
	 xmlns="http://www.w3.org/2000/svg" xmlns:xlink="http://www.w3.org/1999/xlink"
	 x="0px" y="0px" width="48px" height="48px" viewBox="0 0 48 48">
<defs>
</defs>
<path fill="#F89624" d="M31.521,7.65c-9.377-2.062-18.317,2.093-19.915,9.367c-0.61,2.774,3.546,3.488,7.511,4.159
	c3.488,0.565,4.431,3.582,3.205,6.422c-0.805,1.829-5.505,0.395-3.639,3.313c2.011,1.346,4.49,2.393,7.075,2.96
	c9.377,2.063,18.316-2.093,19.915-9.367C47.367,17.253,40.994,9.732,31.521,7.65z M29.644,32.619
	c-2.009-0.441-3.384-1.947-3.089-3.289c0.294-1.339,2.175-2.13,4.183-1.688c2.01,0.443,3.384,1.949,3.09,3.288
	C33.531,32.27,31.653,33.061,29.644,32.619z"/>
<path fill="#C86B28" d="M45.463,25.463c0.062-0.287,0.222-0.554,0.306-0.937c1.599-7.273-4.774-14.794-14.152-16.856
	c-9.473-2.082-18.413,2.072-20.011,9.347c-0.084,0.382-0.053,0.691-0.02,0.999L45.463,25.463z"/>
<circle fill="#56CAF5" cx="17.828" cy="15.174" r="2.547"/>
<circle fill="#F3712A" cx="25.919" cy="12.137" r="2.548"/>
<circle fill="#3DB54A" cx="33.864" cy="13.883" r="2.548"/>
<circle fill="#F8ED34" cx="39.37" cy="19.408" r="2.547"/>
<path fill="#414042" d="M36.674,38.172l-4.003-3.017c-0.412-0.311-0.942-0.377-1.4-0.218L11.454,20.003
	c-0.369-0.278-0.893-0.205-1.17,0.166c-0.278,0.368-0.204,0.892,0.163,1.17l19.819,14.932c-0.027,0.486,0.179,0.972,0.596,1.285
	l4.004,3.021c0.662,0.499,1.605,0.365,2.105-0.3C37.472,39.615,37.336,38.671,36.674,38.172"/>
<polygon fill="#F9ED32" points="13.394,12.467 13.903,17.786 18.573,20.384 13.672,22.512 12.644,27.758 9.107,23.751 3.801,24.397 
	6.516,19.795 4.263,14.948 9.48,16.107 "/>
<polygon fill="#DDD32F" points="13.394,12.467 13.903,17.786 18.573,20.384 13.672,22.512 12.644,27.758 9.48,16.107 "/>
<polygon fill="#C8691C" points="13.116,29.794 8.708,24.919 1.985,25.688 5.317,19.793 2.572,13.522 9.231,15.033 14.237,10.476 
	14.885,17.118 15.462,17.441 14.871,18.317 13.922,17.775 13.385,12.691 9.536,16.194 4.37,15.021 6.514,19.784 3.887,24.399 
	9.162,23.752 12.631,27.747 13.663,22.528 18.538,20.388 15.913,18.872 16.303,18.028 20.819,20.466 14.694,23.216 "/>
</svg>
