<?xml version="1.0" encoding="utf-8"?>
<!-- Generator: Adobe Illustrator 15.0.0, SVG Export Plug-In  -->
<!DOCTYPE svg PUBLIC "-//W3C//DTD SVG 1.1//EN" "http://www.w3.org/Graphics/SVG/1.1/DTD/svg11.dtd" [
	<!ENTITY ns_flows "http://ns.adobe.com/Flows/1.0/">
]>
<svg version="1.1"
	 xmlns="http://www.w3.org/2000/svg" xmlns:xlink="http://www.w3.org/1999/xlink" xmlns:a="http://ns.adobe.com/AdobeSVGViewerExtensions/3.0/"
	 x="0px" y="0px" width="48px" height="48px" viewBox="-2.6 -9.5 48 48" enable-background="new -2.6 -9.5 48 48"
	 xml:space="preserve">
<defs>
</defs>
<path fill="#F79523" d="M24.7,0C14.8,0,6.8,6.2,6.8,13.8c0,2.9,4.3,2.7,8.4,2.5c3.6-0.2,5.2,2.6,4.6,5.8c-0.4,2-5.4,1.6-2.9,4.1
	c2.4,0.9,5,1.4,7.8,1.4c9.9,0,17.9-6.2,17.9-13.8S34.6,0,24.7,0z M28.3,25.4c-2.1,0-3.8-1.2-3.8-2.6c0-1.5,1.7-2.6,3.8-2.6
	s3.8,1.2,3.8,2.6C32.1,24.2,30.4,25.4,28.3,25.4z"/>
<path fill="#C8691C" d="M42.5,14.7c0-0.3,0.1-0.6,0.1-1c0-7.6-8-13.8-17.9-13.8C14.8,0,6.8,6.2,6.8,13.8c0,0.4,0.1,0.7,0.2,1H42.5z"
	/>
<circle fill="#52CAF5" cx="12.6" cy="10.6" r="2.6"/>
<circle fill="#F37029" cx="20" cy="5.8" r="2.6"/>
<circle fill="#39B54A" cx="28.4" cy="5.8" r="2.6"/>
<circle fill="#F9ED32" cx="35.1" cy="10.1" r="2.6"/>
<path fill="#414042" d="M39.6,28.8L35,27c-0.5-0.2-1-0.1-1.4,0.2L11,18.5c-0.4-0.2-0.9,0-1.1,0.5c-0.2,0.4,0,0.9,0.5,1.1l22.7,8.7
	c0.1,0.5,0.4,0.9,0.9,1l4.6,1.8c0.8,0.3,1.6-0.1,1.9-0.8C40.7,29.9,40.3,29.1,39.6,28.8"/>
<polygon fill="#F9ED32" points="7.9,9.6 9.8,14.5 14.9,15.6 10.9,19 11.3,24.2 6.9,21.4 2.1,23.4 3.4,18.3 0,14.4 5.2,14.1 "/>
<polygon fill="#DDD32F" points="7.9,9.6 9.8,14.5 14.9,15.6 10.9,19 11.3,24.2 5.2,14.1 "/>
</svg>
