<?xml version="1.0" encoding="utf-8"?>
<svg version="1.1"
	 xmlns="http://www.w3.org/2000/svg" xmlns:xlink="http://www.w3.org/1999/xlink"
	 x="0px" y="0px" width="48px" height="48px" viewBox="-3.295 -3.562 48 48">
<defs>
</defs>
<path fill="#F89624" d="M20.723,0.861C9.318,0.861,0.007,7.96,0.007,16.807c0,3.373,5.004,3.142,9.775,2.908
	c4.191-0.232,6.052,3.026,5.354,6.635c-0.466,2.328-6.285,1.862-3.375,4.771c2.676,1.048,5.819,1.63,8.962,1.63
	c11.404,0,20.715-7.1,20.715-15.943C41.554,7.96,32.244,0.861,20.723,0.861z M24.912,30.306c-2.443,0-4.421-1.396-4.421-3.026
	c0-1.629,1.978-3.025,4.421-3.025c2.445,0,4.422,1.396,4.422,3.025C29.333,28.909,27.357,30.306,24.912,30.306z"/>
<path fill="#C86B28" d="M41.438,17.97c0-0.349,0.116-0.698,0.116-1.163c0-8.846-9.311-15.945-20.716-15.945
	C9.318,0.861,0.007,7.96,0.007,16.807c0,0.465,0.116,0.814,0.232,1.163H41.438z"/>
<circle fill="#56CAF5" cx="6.757" cy="13.082" r="3.026"/>
<circle fill="#F3712A" cx="15.369" cy="7.495" r="3.026"/>
<circle fill="#3DB54A" cx="25.029" cy="7.495" r="3.026"/>
<circle fill="#F8ED34" cx="32.827" cy="12.499" r="3.025"/>
<path fill="#414042" d="M30.165,37.642L13.22,12.97c-0.7-1.06-2.126-1.362-3.186-0.66c-1.065,0.697-1.363,2.126-0.667,3.188
	l16.941,24.663L30.165,37.642z"/>
<path fill="#BABABA" d="M10.994,18.057c0,0,0.319-1.236,1.388-1.846c1.069-0.602,2.772-0.509,2.772-0.509l-2.962-4.649
	c0,0-1.584-0.147-2.567,0.486c-0.983,0.629-1.449,2.298-1.449,2.298L10.994,18.057z"/>
<path fill="#F37029" d="M8.176,13.836c0,0-3.456-2.274-4.031-4.583c-0.571-2.31,0.959-5.265-1.059-7.109c0,0,4.376,2.243,6.823,3.83
	c2.448,1.596,2.282,5.079,2.282,5.079s-1.669-0.178-2.567,0.486C8.862,12.101,8.176,13.836,8.176,13.836z"/>
<path fill="none" stroke="#FFFFFF" stroke-linecap="square" stroke-miterlimit="10" d="M7.9,13.956c0,0-3.179-2.394-3.754-4.703
	c-0.571-2.31,0.959-5.265-1.059-7.109c0,0,4.376,2.243,6.823,3.83c2.448,1.596,2.784,5.109,2.784,5.109"/>
<polyline fill="none" stroke="#FFFFFF" stroke-miterlimit="10" points="12.629,11.159 30.673,37.362 26.036,40.438 7.994,14.236 "/>
</svg>
