<?xml version="1.0" encoding="utf-8"?>
<svg version="1.1"
	 xmlns="http://www.w3.org/2000/svg" x="0px" y="0px" width="28px" height="28px" viewBox="0 0 28 28">
<defs>
</defs>
<rect fill-opacity="0" width="28" height="28"/>
<path d="M23.895,10.933h-6.827V4.105c0-1.695-1.373-3.067-3.068-3.067c-1.696,0-3.068,1.373-3.068,3.067v6.828H4.105
	c-1.695,0-3.068,1.373-3.068,3.067s1.374,3.067,3.068,3.067h6.827v6.827c0,1.694,1.373,3.067,3.068,3.067s3.067-1.373,3.067-3.067
	v-6.827h6.827c1.694,0,3.067-1.373,3.067-3.067S25.589,10.933,23.895,10.933z"/>
<path d="M14,1.167c1.678,0,3.037,1.359,3.037,3.037v6.76h6.76c1.678,0,3.037,1.359,3.037,3.037c0,1.679-1.359,3.037-3.037,3.037
	h-6.76v6.76c0,1.679-1.357,3.037-3.037,3.037c-1.679,0-3.038-1.358-3.038-3.037v-6.76H4.203c-1.678,0-3.038-1.358-3.038-3.037
	c0-1.678,1.36-3.037,3.038-3.037h6.759v-6.76C10.962,2.526,12.322,1.167,14,1.167 M14,0.167c-2.227,0-4.038,1.811-4.038,4.037v5.76
	H4.203c-2.227,0-4.038,1.811-4.038,4.037c0,2.226,1.811,4.037,4.038,4.037h5.759v5.76c0,2.226,1.811,4.037,4.038,4.037
	c2.227,0,4.037-1.812,4.037-4.037v-5.76h5.76c2.227,0,4.037-1.812,4.037-4.037c0-2.227-1.813-4.037-4.037-4.037h-5.76v-5.76
	C18.037,1.977,16.227,0.167,14,0.167L14,0.167z"/>
</svg>
