<?xml version="1.0" encoding="utf-8"?>
<!-- Generator: Adobe Illustrator 15.0.0, SVG Export Plug-In  -->
<!DOCTYPE svg PUBLIC "-//W3C//DTD SVG 1.1//EN" "http://www.w3.org/Graphics/SVG/1.1/DTD/svg11.dtd" [
	<!ENTITY ns_flows "http://ns.adobe.com/Flows/1.0/">
]>
<svg version="1.1"
	 xmlns="http://www.w3.org/2000/svg" xmlns:xlink="http://www.w3.org/1999/xlink" xmlns:a="http://ns.adobe.com/AdobeSVGViewerExtensions/3.0/"
	 x="0px" y="0px" width="48px" height="48px" viewBox="-1.553 -6.466 48 48"
	 xml:space="preserve">
<defs>
</defs>
<path d="M3.084,3.99h10.75v6.424c0,1.605,1.3,2.289,2.904,2.289h27.952v-9.8C44.689,1.299,43.391,0,41.785,0H4.995
	C3.391,0,2.09,1.299,2.09,2.903v1.272C2.401,4.063,2.733,3.99,3.084,3.99z"/>
<path d="M8.354,21.734h6.547v-6.997h-0.198c-1.604,0-2.904-1.299-2.904-2.904V6.025H3.084c-1.604,0-2.904,1.3-2.904,2.903v23.236
	c0,1.604,1.3,2.903,2.904,2.903h19.183L8.354,21.734z"/>
<path d="M29.779,14.737v6.997h7.146L23.008,35.068h18.803c1.604,0,2.904-1.3,2.904-2.903V14.737H29.779z"/>
<path d="M27.443,21.928h-3.451v-3.452c0-0.856-0.695-1.551-1.553-1.551c-0.856,0-1.549,0.694-1.549,1.551v3.452h-3.453
	c-0.857,0-1.551,0.694-1.551,1.553c0,0.856,0.693,1.551,1.551,1.551h3.453v3.452c0,0.856,0.693,1.552,1.549,1.552
	c0.858,0,1.553-0.695,1.553-1.552v-3.452h3.451c0.857,0,1.551-0.693,1.551-1.551C28.994,22.622,28.301,21.928,27.443,21.928"/>
</svg>
