<?xml version="1.0" encoding="utf-8"?>
<!-- Generator: Adobe Illustrator 15.0.0, SVG Export Plug-In  -->
<!DOCTYPE svg PUBLIC "-//W3C//DTD SVG 1.1//EN" "http://www.w3.org/Graphics/SVG/1.1/DTD/svg11.dtd" [
	<!ENTITY ns_flows "http://ns.adobe.com/Flows/1.0/">
]>
<svg version="1.1"
	 xmlns="http://www.w3.org/2000/svg" xmlns:xlink="http://www.w3.org/1999/xlink" xmlns:a="http://ns.adobe.com/AdobeSVGViewerExtensions/3.0/"
	 x="0px" y="0px" width="48px" height="48px" viewBox="-2.115 -6.37 48 48"
	 xml:space="preserve">
<defs>
</defs>
<path d="M14.273,14.485c-1.576,0-2.854-1.277-2.854-2.855V5.922H2.854C1.278,5.922,0,7.199,0,8.776v22.837
	c0,1.576,1.278,2.854,2.854,2.854h15.179c-0.011-0.117-0.036-0.23-0.036-0.352v-3.605h-2.755c-2.144,0-3.887-1.789-3.887-3.934
	s1.744-3.891,3.887-3.891h2.755l0.005-2.859c0-2.144,1.744-3.889,3.887-3.889c2.145,0,3.89,1.745,3.89,3.889v2.906h2.813
	c2.144,0,3.887,1.744,3.887,3.889s-1.743,3.889-3.887,3.889h-2.818v3.605c0,0.121-0.024,0.234-0.035,0.352h15.178
	c1.576,0,2.854-1.277,2.854-2.854V14.485H14.273z"/>
<path d="M2.854,3.922h10.565v6.313c0,1.578,1.278,2.25,2.854,2.25h27.472V2.854C43.745,1.277,42.469,0,40.891,0H4.732
	C3.156,0,1.877,1.277,1.877,2.854v1.25C2.183,3.993,2.509,3.922,2.854,3.922z"/>
<path d="M28.28,24.023h-3.899v-3.897c0-1.351-1.095-2.447-2.446-2.447c-1.348,0-2.445,1.096-2.445,2.447v3.897H15.59
	c-1.349,0-2.445,1.098-2.445,2.447s1.096,2.445,2.445,2.445h3.899v3.9c0,1.348,1.097,2.445,2.445,2.445
	c1.352,0,2.446-1.098,2.446-2.445v-3.9h3.899c1.348,0,2.445-1.096,2.445-2.445S29.628,24.023,28.28,24.023z"/>
</svg>
