<?xml version="1.0" encoding="utf-8"?>
<!-- Generator: Adobe Illustrator 15.0.0, SVG Export Plug-In  -->
<!DOCTYPE svg PUBLIC "-//W3C//DTD SVG 1.1//EN" "http://www.w3.org/Graphics/SVG/1.1/DTD/svg11.dtd" [
	<!ENTITY ns_flows "http://ns.adobe.com/Flows/1.0/">
]>
<svg version="1.1"
	 xmlns="http://www.w3.org/2000/svg" x="0px" y="0px" width="48px" height="48px" viewBox="-4.313 -5.75 48 48">
<defs>
</defs>
<path d="M36.724,11.925h-4.301v4.5h4.301c1.199,0,2.3-1,2.3-2.3C39.023,12.925,37.923,11.925,36.724,11.925z"/>
<path d="M36.724,24.725h-4.301v4.5h4.301c1.199,0,2.3-1,2.3-2.299C39.023,25.625,37.923,24.725,36.724,24.725z"/>
<path d="M9.089,15.521c-2.215,0.62-3.901,2.431-4.315,4.695c-1.164-0.316-2.603-1.148-3.002-3.316c-0.6-3.8,5.6-8.7,2.8-16.9
	l-1.9,0.2c2.8,8.2-3.4,12.5-2.6,17.1c0.474,2.913,3.057,4.309,4.675,4.908c0.373,2.467,2.229,4.48,4.658,4.974
	c2.13,4.725,6.625,8.119,12.018,8.725V5.994C15.757,6.635,11.071,10.394,9.089,15.521z"/>
<path d="M31.142,16.475v-4.6h-5.918V6.1c0-0.8-0.7-1.5-1.5-1.5c-0.363,0-0.703,0.129-0.969,0.349v31.168
	c0.266,0.233,0.605,0.383,0.969,0.383c0.8,0,1.5-0.6,1.5-1.5v-5.725h5.918v-4.6h-5.918v-8.201H31.142z"/>
</svg>
