<?xml version="1.0" encoding="utf-8"?>
<!DOCTYPE svg PUBLIC "-//W3C//DTD SVG 1.1//EN" "http://www.w3.org/Graphics/SVG/1.1/DTD/svg11.dtd" [
	<!ENTITY ns_flows "http://ns.adobe.com/Flows/1.0/">
]>
<svg version="1.1"
	 xmlns="http://www.w3.org/2000/svg" x="0px" y="0px" width="48px" height="48px" viewBox="-11.45 -4.75 48 48">
<defs>
</defs>
<path d="M22.7,4.4h-3.1V2.8C19.601,1.2,18.3,0,16.8,0H8.3C6.7,0,5.5,1.3,5.5,2.8v1.6H2.4C1.1,4.4,0,5.7,0,7.3
	c0,1,0.4,1.9,1.1,2.4v24.5c0,1.5,1.2,2.7,2.6,2.8v1.5h17.4V37c1.5-0.1,2.6-1.3,2.6-2.8V9.8C24.6,9.3,25.1,8.4,25.1,7.3
	C25.1,5.7,24,4.4,22.7,4.4z M6.9,4c0-1.2,0.1-2.3,1.3-2.3h8.699c1.201,0,1.301,1,1.301,2.3v0.4H6.9V4z M7.8,31.3
	c0,1-0.8,1.8-1.9,1.8c-1,0-1.9-0.8-1.9-1.8V15.1c0-1,0.8-1.8,1.9-1.8c1,0,1.9,0.8,1.9,1.8V31.3z M14.399,31.3
	c0,1-0.799,1.8-1.899,1.8c-1,0-1.9-0.8-1.9-1.8V15.1c0-1,0.8-1.8,1.9-1.8c1,0,1.899,0.8,1.899,1.8V31.3z M21,31.3
	c0,1-0.8,1.8-1.899,1.8c-1,0-1.9-0.8-1.9-1.8V15.1c0-1,0.8-1.8,1.9-1.8c1,0,1.899,0.8,1.899,1.8V31.3z"/>
</svg>
