<?xml version="1.0" encoding="utf-8"?>
<!DOCTYPE svg PUBLIC "-//W3C//DTD SVG 1.1//EN" "http://www.w3.org/Graphics/SVG/1.1/DTD/svg11.dtd" [
	<!ENTITY ns_flows "http://ns.adobe.com/Flows/1.0/">
]>
<svg version="1.1"
	 xmlns="http://www.w3.org/2000/svg" x="0px" y="0px" width="28px" height="28px" viewBox="-2.15 -2.113 28 28">
<defs>
</defs>
<path d="M17.549,1.125l-5.699,5.7l-5.7-5.7c-1.4-1.4-3.7-1.4-5.1,0s-1.4,3.7,0,5.1l5.7,5.7l-5.7,5.7
	c-1.4,1.4-1.4,3.7,0,5.101c1.4,1.399,3.7,1.399,5.1,0l5.7-5.7l5.699,5.7c1.4,1.399,3.7,1.399,5.101,0c1.399-1.4,1.399-3.7,0-5.101
	l-5.7-5.7l5.7-5.7c1.399-1.4,1.399-3.7,0-5.1C21.249-0.375,18.949-0.375,17.549,1.125z"/>
</svg>
