<?xml version="1.0" encoding="utf-8"?>
<svg version="1.1"
	 xmlns="http://www.w3.org/2000/svg" x="0px" y="0px" width="48px" height="48px" viewBox="-4.5 -1.3 48 48">
<defs>
</defs>
<polygon points="29.874,37.923 38.815,27.813 34.953,24.397 25.721,34.841 25.941,30.803 21.391,31.086 21.245,43.531 
	33.582,41.862 33.3,37.314 "/>
<polygon points="2.296,37.034 3.601,32.204 12.328,39.512 8.005,41.543 "/>
<polygon points="0,45.525 1.883,38.772 6.248,42.423 "/>
<path d="M29.379,10.067c-1.653-1.563-3.495-2.81-4.622-3.517L5.046,30.688l9.214,7.09l19.295-23.212
	C32.779,13.624,31.236,11.823,29.379,10.067z"/>
<path d="M36.866,1.327c-2.461-1.987-6.207-1.741-8.376,0.733l-1.635,1.965c0.836,0.385,2.574,1.312,4.665,3.211
	c1.927,1.444,3.548,3.569,4.287,4.62L37.6,9.703C39.764,7.228,39.338,3.493,36.866,1.327z"/>
</svg>
