<?xml version="1.0" encoding="utf-8"?>
<!-- Generator: Adobe Illustrator 15.0.0, SVG Export Plug-In  -->
<!DOCTYPE svg PUBLIC "-//W3C//DTD SVG 1.1//EN" "http://www.w3.org/Graphics/SVG/1.1/DTD/svg11.dtd" [
	<!ENTITY ns_flows "http://ns.adobe.com/Flows/1.0/">
]>
<svg version="1.1"
	 xmlns="http://www.w3.org/2000/svg" x="0px" y="0px" width="28px" height="28px" viewBox="-2.387 -1.906 28 28">
<defs>
</defs>
<polygon points="1.594,19.534 2.5,16.888 7.1,21.288 4.613,22.261 "/>
<polygon points="0,24.188 1.3,20.488 3.6,22.688 "/>
<path d="M17.7,5.488c-0.864-0.933-1.846-1.696-2.449-2.132L3.363,16.094l4.879,4.297L19.865,8.152
	C19.467,7.598,18.672,6.537,17.7,5.488z"/>
<path d="M22.2,0.888c-1.3-1.2-3.4-1.2-4.7,0.1l-0.984,1.036C16.969,2.269,17.902,2.851,19,3.988
	c1.021,0.875,1.847,2.122,2.221,2.736L22.3,5.588C23.6,4.288,23.5,2.188,22.2,0.888z"/>
</svg>
