<?xml version="1.0" encoding="utf-8"?>
<!-- Generator: Adobe Illustrator 15.0.0, SVG Export Plug-In  -->
<!DOCTYPE svg PUBLIC "-//W3C//DTD SVG 1.1//EN" "http://www.w3.org/Graphics/SVG/1.1/DTD/svg11.dtd" [
	<!ENTITY ns_flows "http://ns.adobe.com/Flows/1.0/">
]>
<svg version="1.1"
	 xmlns="http://www.w3.org/2000/svg" x="0px" y="0px" width="48px" height="48px" viewBox="0 0 48 48">
<path d="M18.439,19.296h1.944L30.484,6.925H7.004c-1.561,0-2.828,1.266-2.828,2.827v1.239c0.303-0.11,0.626-0.181,0.968-0.181
	h10.468v6.256C15.611,18.631,16.878,19.296,18.439,19.296z"/>
<path d="M43.673,7.067L33.472,19.296h12.19V9.752C45.662,8.485,44.822,7.426,43.673,7.067z"/>
<path d="M43.335,21.278l1.397,1.237l-7.677,8.682l2.941-0.524l0.243,3.905L29.646,36.01l0.124-10.684l3.907-0.244l-0.188,3.468
	l6.427-7.272h-8.097l-8.171,9.793l-7.91-6.085l3.027-3.708h-2.308c-1.562,0-2.828-1.266-2.828-2.828v-5.656H5.144
	c-1.562,0-2.828,1.266-2.828,2.828V38.25c0,1.561,1.267,2.826,2.828,2.826h37.714c1.562,0,2.827-1.266,2.827-2.826V21.278H43.335z
	 M11.405,37.722l1.617-5.797l3.747,3.135L11.405,37.722z M18.278,34.305l-4.902-3.871l1.12-4.148l7.493,6.276L18.278,34.305z"/>
</svg>
