<?xml version="1.0" encoding="utf-8"?>
<!DOCTYPE svg PUBLIC "-//W3C//DTD SVG 1.1//EN" "http://www.w3.org/Graphics/SVG/1.1/DTD/svg11.dtd" [
	<!ENTITY ns_flows "http://ns.adobe.com/Flows/1.0/">
]>
<svg version="1.1"
	 xmlns="http://www.w3.org/2000/svg" x="0px" y="0px" width="48px" height="48px" viewBox="-3.744 -4.136 48 48">
<defs>
</defs>
<path d="M33.023,10.623l-7.303-7.304V5.5h-6.226V0H0v39.729h19.495v-3.116h-4.359v3l-8.803-8.87l8.803-8.88v3.084h4.359v-9.201
	h6.226v2.181L33.023,10.623z M14.934,15.527H3.813v-2.224h11.121V15.527z M14.934,6.671H3.813V4.446h11.121V6.671z"/>
<path d="M21.018,0v4.128l3.565,0.026V0.696l10.084,9.916l-10.084,9.917v-3.5h-3.565v9.089h-6.881v-1.472l-6.095,6.096l6.095,6.097
	v-1.475h6.881v4.364h19.494V0H21.018z M35.746,35.69H24.624v-2.225h11.122V35.69z M35.746,27.527H24.624v-2.224h11.122V27.527z"/>
</svg>
