<?xml version="1.0" encoding="utf-8"?>
<!DOCTYPE svg PUBLIC "-//W3C//DTD SVG 1.1//EN" "http://www.w3.org/Graphics/SVG/1.1/DTD/svg11.dtd" [
	<!ENTITY ns_flows "http://ns.adobe.com/Flows/1.0/">
]>
<svg version="1.1"
	 xmlns="http://www.w3.org/2000/svg" x="0px" y="0px" width="48px" height="48px" viewBox="-5.874 -3.354 48 48">
<defs>
</defs>
<circle cx="16.793" cy="13.687" r="7.117"/>
<path d="M0,0v28.028l14.748,13.265h21.504V0H0z M29.362,38.188c-1.01,0.513-2.247,0.114-2.761-0.896l-3.613-7.071
	c-0.227-0.445-0.267-0.933-0.166-1.384l-2.139-4.229c-0.081-0.147-0.12-0.306-0.146-0.465C15.466,25.966,9.681,23.883,7.025,19
	C4.09,13.604,6.084,6.85,11.479,3.917c5.396-2.935,12.148-0.939,15.083,4.457c2.79,5.129,1.117,11.479-3.689,14.613
	c0.089,0.093,0.184,0.181,0.25,0.299l2.011,3.977c0.627,0.1,1.201,0.482,1.513,1.09l3.61,7.071
	C30.773,36.433,30.374,37.67,29.362,38.188z"/>
</svg>
