<?xml version="1.0" encoding="utf-8"?>
<svg version="1.1"
	 xmlns="http://www.w3.org/2000/svg" x="0px" y="0px" width="48px" height="48px" viewBox="-3.501 -2.326 48 48">
<defs>
</defs>
<path d="M40.998,40.066l-2.428-9.313l-9.413,1.816l4.886,3.093l-0.465-0.17c-5.293,4.543-12.961,5.833-19.671,2.647
	c-9.084-4.31-12.953-15.168-8.642-24.252c4.311-9.083,15.169-12.951,24.252-8.64c0.752,0.356,1.467,0.759,2.146,1.201l1.489-3.142
	c-0.698-0.435-1.42-0.847-2.18-1.208C20.156-3.034,7.231,1.572,2.098,12.385C-3.033,23.2,1.571,36.125,12.386,41.258
	c8.355,3.966,17.952,2.086,24.257-3.948L40.998,40.066z"/>
<path d="M28.418,25.113c-1.354,2.379-3.902,3.984-6.836,3.988c-4.35,0.006-7.882-3.516-7.887-7.867
	c-0.002-2.071,0.805-3.946,2.11-5.354l3.822,3.836l-0.21-9.362l-9.386-0.271l3.188,3.2c-1.962,2.078-3.176,4.869-3.172,7.954
	c0.009,6.399,5.203,11.581,11.601,11.573c4.771-0.01,8.856-2.896,10.63-7.016L28.418,25.113z"/>
</svg>
