<?xml version="1.0" encoding="utf-8"?>
<!DOCTYPE svg PUBLIC "-//W3C//DTD SVG 1.1//EN" "http://www.w3.org/Graphics/SVG/1.1/DTD/svg11.dtd" [
	<!ENTITY ns_flows "http://ns.adobe.com/Flows/1.0/">
]>
<svg version="1.1"
	 xmlns="http://www.w3.org/2000/svg" x="0px" y="0px" width="48px" height="48px" viewBox="-3.949 -7.469 48 48">
<defs>
</defs>
<path d="M15.865,32.022l14.2-16.7c0.2-0.2,0.3-0.399,0.4-0.6c2.699,0.899,5.899,0.1,7.899-2.2c1.9-2.2,2.2-5.2,1.101-7.7l-3.801,4.4
	c-1.199,1.399-3.199,1.5-4.6,0.399c-1.4-1.199-1.5-3.199-0.4-4.6l3.801-4.4c-2.601-0.699-5.5,0.2-7.4,2.4c-2,2.3-2.3,5.5-1,8.1
	c-0.2,0.101-0.4,0.301-0.6,0.5l-14,16.601c-1.1,1.199-0.9,3.1,0.3,4.199C12.965,33.422,14.865,33.223,15.865,32.022z M12.865,28.422
	c0.6-0.699,1.7-0.8,2.4-0.199c0.7,0.6,0.8,1.699,0.2,2.399s-1.7,0.8-2.4,0.2C12.265,30.223,12.265,29.122,12.865,28.422z"/>
<path d="M18.956,16.401l-5.314-4.557l3.905-4.478c1.636-1.858,1.379-4.646-0.479-6.282c-1.858-1.636-4.646-1.379-6.283,0.479
	L6.517,6.478C6.228,6.604,5.938,6.731,5.658,6.959C5.486,7.275,5.415,7.583,5.343,7.892l-4.258,5.013
	c-1.636,1.857-1.378,4.646,0.479,6.282c1.858,1.636,4.646,1.379,6.283-0.479l3.905-4.479l5.293,4.538L18.956,16.401z"/>
<path d="M32.847,27.345l-6.033-5.172l-2.062,2.306l-1.001,1.12l6.213,5.326c0.979,0.814,2.373,0.686,3.195-0.193
	C33.963,29.652,33.825,28.159,32.847,27.345z"/>
</svg>
