<?xml version="1.0" encoding="utf-8"?>
<!-- Generator: Adobe Illustrator 15.0.0, SVG Export Plug-In  -->
<!DOCTYPE svg PUBLIC "-//W3C//DTD SVG 1.1//EN" "http://www.w3.org/Graphics/SVG/1.1/DTD/svg11.dtd" [
	<!ENTITY ns_flows "http://ns.adobe.com/Flows/1.0/">
]>
<svg version="1.1"
	 xmlns="http://www.w3.org/2000/svg" x="0px" y="0px" width="28px" height="28px" viewBox="-3.204 -2.693 28 28">
<defs>
</defs>
<path d="M5.965,6.328l1.241-0.977l2.066-1.629c0.021-0.017,0.028-0.04,0.045-0.055c0.015-0.012,0.026-0.015,0.04-0.025
	c1.544-1.219,1.471-1.248,1.886-1.182c0.276,0.044,1.671,1.6,1.671,1.6L12.67,2.977c0,0-0.816-0.667-1.816-2.304
	C9.896-0.894,7.777,0.715,7.309,1.099C7.285,1.114,7.256,1.118,7.235,1.136l-5.455,4.3C1.75,5.457,1.738,5.492,1.711,5.518
	L1.503,5.255L0,6.438l2.446,3.106l1.503-1.186L3.722,8.071c0.03-0.022,0.066-0.026,0.096-0.05L5.965,6.328z"/>
<path d="M20.418,19.583l-5.946-7.144c-0.822-1.043-1.578-1.496-2.211-1.359L7.868,5.507L6.986,6.186l4.435,5.629
	c-0.19,0.578,0.101,1.376,0.865,2.347l5.553,7.455c1.031,1.308,2.445,1.916,3.158,1.352C21.711,22.409,21.452,20.894,20.418,19.583z
	"/>
<polygon points="17.921,0.78 16.418,2.172 15.971,3.373 12.084,8.541 12.602,9.182 16.609,3.854 17.669,3.057 18.559,1.259 "/>
<path d="M10.459,12.028l-0.517-0.64l-1.449,1.926c-0.687-0.3-1.399,0.004-2.074,0.902l-4.631,5.699
	c-0.79,1.051-0.793,2.39-0.003,2.981c0.789,0.592,2.071,0.223,2.863-0.829l4.189-6.03c0.677-0.9,0.77-1.669,0.293-2.244
	L10.459,12.028z"/>
</svg>
