<?xml version="1.0" encoding="utf-8"?>
<!DOCTYPE svg PUBLIC "-//W3C//DTD SVG 1.1//EN" "http://www.w3.org/Graphics/SVG/1.1/DTD/svg11.dtd">
<svg version="1.1" xmlns="http://www.w3.org/2000/svg" xmlns:xlink="http://www.w3.org/1999/xlink" x="0px" y="0px"
	 width="28px" height="28px" viewBox="0 0 28 28">
<path d="M8.83,7.951H8.807C8.695,8.39,8.581,8.867,8.423,9.33l-0.746,2.203h2.307L9.226,9.34C9.057,8.843,8.944,8.39,8.83,7.951z"/>
<path d="M22.917,1.529H5.081c-1.855,0-3.359,1.455-3.359,3.251v18.438c0,1.797,1.504,3.252,3.359,3.252h17.838
	c1.854,0,3.359-1.455,3.359-3.252V4.78C26.278,2.984,24.772,1.529,22.917,1.529z M10.989,14.699l-0.813-2.396H7.474v-0.001
	l-0.792,2.397H5.665L8.264,7.08h1.178l2.6,7.619H10.989z M18.325,23.92l-0.813-2.396H14.81l-0.792,2.396H13l2.6-7.619h1.178
	l2.602,7.619H18.325z M14.81,15.838c-0.011-0.688,0.282-1.151,0.769-1.151c0.248,0,0.441,0.103,0.681,0.227
	c0.182,0.104,0.359,0.203,0.543,0.203c0.17,0,0.271-0.079,0.307-0.438h0.52c0.012,0.711-0.237,1.097-0.758,1.097
	c-0.236,0-0.451-0.091-0.688-0.216c-0.227-0.113-0.373-0.215-0.543-0.215c-0.182,0-0.26,0.191-0.295,0.498h-0.532v-0.004H14.81z
	 M19.975,14.541l-0.87-3.265l1.294,0.657c0.691-1.889,0.021-4.067-1.745-5.195c-1.81-1.159-4.146-0.819-5.563,0.698L11.49,6.414
	c1.993-2.385,5.491-2.979,8.177-1.262c2.588,1.655,3.521,4.887,2.402,7.631l1.061,0.539L19.975,14.541z"/>
<path d="M16.166,17.172h-0.021c-0.112,0.441-0.228,0.916-0.384,1.379l-0.746,2.205h2.304l-0.757-2.191
	C16.392,18.066,16.28,17.615,16.166,17.172z"/>
</svg>
