<?xml version="1.0" encoding="utf-8"?>
<!-- Generator: Adobe Illustrator 15.0.0, SVG Export Plug-In  -->
<!DOCTYPE svg PUBLIC "-//W3C//DTD SVG 1.1//EN" "http://www.w3.org/Graphics/SVG/1.1/DTD/svg11.dtd" [
	<!ENTITY ns_flows "http://ns.adobe.com/Flows/1.0/">
]>
<svg version="1.1"
	 xmlns="http://www.w3.org/2000/svg" x="0px" y="0px" width="28px" height="28px" viewBox="-1.491 -4.149 28 28">
<defs>
</defs>
<path d="M1.631,2.242H7.67v3.608c0,0.902,0.73,1.286,1.631,1.286h15.703V1.632C25.004,0.73,24.274,0,23.372,0H2.705
	C1.803,0,1.072,0.73,1.072,1.632v0.715C1.248,2.282,1.434,2.242,1.631,2.242z"/>
<path d="M8.158,8.28c-0.901,0-1.632-0.73-1.632-1.633V3.385H1.631C0.73,3.385,0,4.115,0,5.016V18.07c0,0.9,0.73,1.631,1.631,1.631
	h21.755c0.902,0,1.632-0.73,1.632-1.631V8.28H8.158z M4.378,18.121l8.131-8.132l8.131,8.132H4.378z"/>
<path d="M11.921,14.074v-1.785c0-0.155,0.058-0.29,0.174-0.4c0.114-0.112,0.257-0.167,0.421-0.167c0.157,0,0.291,0.055,0.401,0.167
	c0.111,0.11,0.167,0.245,0.167,0.4v1.785h1.785c0.159,0,0.299,0.057,0.416,0.167c0.117,0.115,0.174,0.253,0.174,0.413
	s-0.059,0.298-0.174,0.412c-0.119,0.112-0.259,0.168-0.416,0.168h-1.772v1.785c0,0.165-0.059,0.307-0.176,0.421
	c-0.118,0.116-0.258,0.175-0.419,0.175s-0.3-0.059-0.412-0.175c-0.113-0.114-0.168-0.256-0.168-0.421v-1.785h-1.783
	c-0.158,0-0.293-0.057-0.409-0.168c-0.116-0.115-0.171-0.252-0.171-0.412c0-0.158,0.057-0.294,0.171-0.408
	c0.117-0.115,0.252-0.172,0.409-0.172H11.921z"/>
</svg>
