<?xml version="1.0" encoding="utf-8"?>
<!DOCTYPE svg PUBLIC "-//W3C//DTD SVG 1.1//EN" "http://www.w3.org/Graphics/SVG/1.1/DTD/svg11.dtd" [
	<!ENTITY ns_flows "http://ns.adobe.com/Flows/1.0/">
]>
<svg version="1.1"
	 xmlns="http://www.w3.org/2000/svg" x="0px" y="0px" width="48px" height="48px" viewBox="-2.387 -6.979 48 48">
<defs>
</defs>
<path d="M2.817,3.874h10.435v6.235c0,1.559,1.263,2.223,2.818,2.223h27.133V2.819C43.203,1.262,41.942,0,40.384,0H4.674
	c-1.56,0-2.821,1.262-2.821,2.819v1.235C2.156,3.943,2.477,3.874,2.817,3.874z"/>
<path d="M14.096,14.307c-1.558,0-2.819-1.261-2.819-2.821V5.848H2.817C1.262,5.848,0,7.11,0,8.667v22.556
	c0,1.557,1.262,2.818,2.817,2.818h37.589c1.56,0,2.82-1.262,2.82-2.818V14.307H14.096z M22.371,31.795
	c-11.282-0.113-16.179-7.703-16.179-7.703s5.838-7.253,16.179-7.265c11.101-0.013,15.448,7.265,15.448,7.265
	S33.325,31.302,22.371,31.795z"/>
<path d="M22.77,17.142c-4.007,0-7.256,3.249-7.256,7.257s3.249,7.258,7.256,7.258c4.009,0,7.257-3.25,7.257-7.258
	S26.778,17.142,22.77,17.142z M27.754,23.408c-0.391,0.42-1.495,0.031-2.469-0.869c-0.975-0.899-1.445-1.973-1.055-2.395
	c0.391-0.42,1.493-0.031,2.467,0.869C27.67,21.912,28.144,22.984,27.754,23.408z"/>
</svg>
