<?xml version="1.0" encoding="utf-8"?>
<!DOCTYPE svg PUBLIC "-//W3C//DTD SVG 1.1//EN" "http://www.w3.org/Graphics/SVG/1.1/DTD/svg11.dtd" [
	<!ENTITY ns_flows "http://ns.adobe.com/Flows/1.0/">
]>
<svg version="1.1"
	 xmlns="http://www.w3.org/2000/svg" x="0px" y="0px" width="48px" height="48px" viewBox="-10.659 -4.387 48 48">
<defs>
</defs>
<path d="M23.482,0H3.202C1.433,0,0,1.435,0,3.202v32.821c0,1.77,1.433,3.203,3.202,3.203h20.28c1.769,0,3.2-1.434,3.2-3.203V3.202
	C26.682,1.435,25.25,0,23.482,0z M4.722,6.938h17.238v1.334H4.722V6.938z M4.722,12.81h17.238v1.334H4.722V12.81z M13.913,35.702
	c-7.73-0.046-12.28-5.507-12.28-5.507s4.889-5.184,12.28-5.193c7.934-0.009,11.041,5.193,11.041,5.193S21.742,35.35,13.913,35.702z"
	/>
<path d="M14.198,25.228c-2.865,0-5.188,2.322-5.188,5.188c0,2.864,2.323,5.188,5.188,5.188c2.864,0,5.187-2.323,5.187-5.188
	C19.384,27.55,17.062,25.228,14.198,25.228z M17.76,29.706c-0.279,0.302-0.459-0.314-1.152-0.959
	c-0.697-0.643-1.646-1.07-1.366-1.372c0.279-0.301,1.068-0.021,1.765,0.62C17.7,28.639,18.039,29.404,17.76,29.706z"/>
</svg>
