<?xml version="1.0" encoding="utf-8"?>
<svg version="1.1"
	 xmlns="http://www.w3.org/2000/svg" x="0px" y="0px" width="48px" height="48px" viewBox="-2.658 -4.379 48 48">
<defs>
</defs>
<path d="M40.898,28.184L26.88,3.834c-4.061-5.206-7.234-5.019-10.961,0L1.902,28.184c-2.935,4.686-2.768,10.719,2.584,10.962
	c3.334,0.152,30.628,0.102,33.826,0C40.645,39.074,45.213,35.765,40.898,28.184z M21.341,33.886c-1.265,0-2.289-1.025-2.289-2.289
	c0-1.266,1.024-2.291,2.289-2.291c1.264,0,2.29,1.025,2.29,2.291C23.631,32.86,22.605,33.886,21.341,33.886z M21.542,27.783
	c0,0-6.949-18.648-0.168-18.648C27.813,9.135,21.542,27.783,21.542,27.783z"/>
</svg>
