<?xml version="1.0" encoding="utf-8"?>
<!-- Generator: Adobe Illustrator 15.0.0, SVG Export Plug-In  -->
<!DOCTYPE svg PUBLIC "-//W3C//DTD SVG 1.1//EN" "http://www.w3.org/Graphics/SVG/1.1/DTD/svg11.dtd" [
	<!ENTITY ns_flows "http://ns.adobe.com/Flows/1.0/">
]>
<svg version="1.1"
	 xmlns="http://www.w3.org/2000/svg" xmlns:xlink="http://www.w3.org/1999/xlink" xmlns:a="http://ns.adobe.com/AdobeSVGViewerExtensions/3.0/"
	 x="0px" y="0px" width="48px" height="48px" viewBox="-7.698 -3.33 48 48"
	 xml:space="preserve">
<defs>
</defs>
<path d="M0.17,27.261H1.9l1.697,2.596L5.3,27.261h1.729l-2.563,3.918l2.725,4.162h-1.73L3.6,32.501l-1.858,2.84H0l2.732-4.166
	L0.17,27.261z"/>
<path d="M9.13,27.261h1.498l1.873,5.637l1.89-5.637h1.498l1.355,8.08h-1.487L14.89,30.24l-1.716,5.102h-1.355l-1.701-5.102
	L9.23,35.341h-1.5L9.13,27.261z"/>
<path d="M18.469,27.261h1.538v6.613h2.241v1.467h-3.779V27.261z"/>
<path d="M32.495,38.012V3.329C32.495,1.503,30.993,0,29.167,0H4.471C2.645,0,1.142,1.503,1.249,3.329V25.34h23.086
	c1.826,0,3.328,1.504,3.328,3.33v5.047c0,1.824-1.502,3.328-3.328,3.328H1.249v0.967c0,1.824,1.503,3.328,3.328,3.328h24.697
	c1.825,0,3.329-1.504,3.329-3.328H32.495z M11.476,7.731L6.32,12.885l5.155,5.154v2.471l-7.731-7.625l7.731-7.624V7.731z
	 M15.208,23.946l-1.61-0.43L18.752,2.47l1.61,0.43L15.208,23.946z M22.295,20.938v-2.469l5.047-5.154l-5.047-5.154v-2.47
	l7.624,7.624L22.295,20.938z"/>
</svg>
