<?xml version="1.0" encoding="utf-8"?>
<svg version="1.1"
	 xmlns="http://www.w3.org/2000/svg" xmlns:xlink="http://www.w3.org/1999/xlink"
	 x="0px" y="0px" width="48px" height="48px" viewBox="-8.205 -4.487 48 48">
<defs>
</defs>
<rect x="1.623" y="24.892" fill="#3588A6" width="28.327" height="11.7"/>
<path fill="#3588A6" d="M25.426,2.699v3.277c0,1.57,1.814,1.241,3.415,1.241h2.73v2.28l-4.948,0.001
	c-1.892,0-3.423-1.533-3.423-3.423V1.477L25.426,2.699z"/>
<path fill="#3588A6" d="M28.875,7.281v27.663c0,1.771-1.401,1.362-3.143,1.362H5.836c-1.736,0-3.142,0.408-3.142-1.362V6.217
	c0-1.774-0.441-3.21,1.295-3.21h21.458V0H3.789C1.694,0,0,1.695,0,3.789v31.737c0,2.09,1.694,3.788,3.789,3.788h23.995
	c2.092,0,3.788-1.698,3.788-3.788V7.281H28.875z"/>
<polygon fill="#3588A6" points="25.446,0 31.571,7.281 25.068,7.281 "/>
<path fill="#FFFFFF" d="M11.887,31.517c0,3.484-2.126,5.352-4.718,5.352c-2.7,0-4.568-2.096-4.568-5.169
	c0-3.228,1.99-5.337,4.702-5.337C10.092,26.363,11.887,28.488,11.887,31.517z M3.987,31.667c0,2.188,1.175,4.133,3.255,4.133
	c2.081,0,3.257-1.916,3.257-4.224c0-2.035-1.055-4.145-3.242-4.145C5.073,27.432,3.987,29.454,3.987,31.667z"/>
<path fill="#FFFFFF" d="M13.219,26.693c0.797-0.136,1.747-0.225,2.787-0.225c1.883,0,3.229,0.45,4.116,1.265
	c0.92,0.829,1.448,2.008,1.448,3.649c0,1.657-0.528,3.016-1.462,3.949c-0.968,0.949-2.533,1.461-4.508,1.461
	c-0.95,0-1.718-0.042-2.381-0.117V26.693z M14.528,35.679c0.333,0.043,0.816,0.06,1.328,0.06c2.82,0,4.325-1.566,4.325-4.312
	c0.018-2.396-1.339-3.919-4.114-3.919c-0.677,0-1.188,0.06-1.538,0.135V35.679z"/>
<path fill="#FFFFFF" d="M24.438,27.659H21.35v-1.113h7.522v1.113h-3.106v9.045h-1.328V27.659z"/>
<path fill="#3588A6" d="M5.365,11.233c0,0,4.594-1.674,6.827,1.673c0,0,2.576-2.989,6.935-1.959c0,0-4.715-0.476-6.935,4.162
	C12.191,15.108,10.923,10.432,5.365,11.233z"/>
<path fill="#3588A6" d="M12.815,15.75c0,0,4.595-1.675,6.827,1.675c0,0,2.576-2.992,6.935-1.961c0,0-4.715-0.477-6.935,4.16
	C19.643,19.625,18.374,14.949,12.815,15.75z"/>
</svg>
