<?xml version="1.0" encoding="utf-8"?>
<svg version="1.1"
	 xmlns="http://www.w3.org/2000/svg" xmlns:xlink="http://www.w3.org/1999/xlink"
	 x="0px" y="0px" width="48px" height="48px" viewBox="-2.851 -3.338 48 48">
<defs>
</defs>
<path fill-rule="evenodd" clip-rule="evenodd" fill="#C8691C" d="M12.999,18.311c0,1.144-0.53,2.139-1.864,2.139
	c-0.043,0-0.594-0.042-0.889-0.063v-4.043c0.295-0.043,0.846-0.085,0.889-0.085C12.531,16.257,12.999,17.211,12.999,18.311z
	 M14.354,14.267c1.333,1.122,1.566,2.371,1.566,3.536c0,1.947-0.635,4.72-3.642,5.144c-0.318,0.042-0.657,0.087-0.974,0.106
	l-0.741,0.019c-0.126,0.022-0.276,0.022-0.423,0.066v4.57H7.728V13.803l5.419,0.021C13.549,13.823,13.909,13.908,14.354,14.267z
	 M29.762,9.568c0.32,0.043,0.617,0.085,0.91,0.128c0.15,0.021,0.299,0.106,0.467,0.127c1.145,0.275,2.963,1.799,3.449,3.111
	c0.043,0.148,0.129,0.318,0.193,0.465l0.189,0.636c0.064,0.317,0.17,0.89,0.17,0.953v0.423h-5.695V9.568H29.762z M40.92,5.885
	v28.601H24.176v-3.601h13.061v-1.672H24.176v-2.815h13.061v-1.672H24.176v-4.638c1.33,1.546,2.984,2.074,4.381,2.074
	c2.666,0,5.332-1.926,5.715-5.439v-0.444h-5.734v-5.907h-0.174c-1.373,0.063-2.857,0.55-4.188,2.075V5.885H40.92z M24.153,4.488
	h16.916c0.676,0.085,1.229,0.762,1.229,1.292v28.789c-0.025,0.636-0.742,1.313-1.207,1.313H24.153v5.442L0,37.025V4.297L24.153,0
	V4.488z"/>
</svg>
