<?xml version="1.0" encoding="utf-8"?>
<svg version="1.1"
	 xmlns="http://www.w3.org/2000/svg" xmlns:xlink="http://www.w3.org/1999/xlink"
	 x="0px" y="0px" width="48px" height="48px" viewBox="-8.213 -4.341 48 48">
<defs>
</defs>
<rect x="1.623" y="24.895" fill="#3588A6" width="28.33" height="11.7"/>
<path fill="#3588A6" d="M24.902,22.954H6.058V10.205h18.844V22.954z M7.72,21.292h15.519v-9.424H7.72V21.292z"/>
<rect x="11.323" y="10.206" fill="#3588A6" width="1.662" height="12.748"/>
<rect x="6.333" y="14.085" fill="#3588A6" width="17.738" height="1.664"/>
<rect x="6.333" y="17.412" fill="#3588A6" width="17.738" height="1.662"/>
<rect x="17.974" y="10.206" fill="#3588A6" width="1.665" height="12.748"/>
<rect x="12.587" y="14.64" fill="#3588A6" width="5.867" height="3.411"/>
<path fill="#3588A6" d="M25.43,2.698v3.277c0,1.57,1.813,1.241,3.414,1.241h2.73v2.28l-4.949,0.001
	c-1.892,0-3.422-1.532-3.422-3.424V1.478L25.43,2.698z"/>
<path fill="#3588A6" d="M28.879,7.28v27.668c0,1.77-1.403,1.363-3.143,1.363H5.837c-1.737,0-3.142,0.406-3.142-1.363V6.217
	c0-1.773-0.442-3.209,1.294-3.209h21.46V0H3.789C1.694,0,0,1.695,0,3.788v31.741c0,2.091,1.694,3.789,3.789,3.789h23.997
	c2.093,0,3.789-1.698,3.789-3.789V7.28H28.879z"/>
<polygon fill="#3588A6" points="25.449,0 31.574,7.28 25.072,7.28 "/>
<path fill="#FFFFFF" d="M12.007,31.674c0,3.452-2.19,5.306-4.863,5.306c-2.78,0-4.705-2.078-4.705-5.126
	c0-3.199,2.05-5.29,4.846-5.29C10.16,26.563,12.007,28.671,12.007,31.674z M3.868,31.823c0,2.167,1.211,4.095,3.355,4.095
	c2.143,0,3.356-1.897,3.356-4.183c0-2.018-1.088-4.11-3.34-4.11C4.987,27.625,3.868,29.627,3.868,31.823z"/>
<path fill="#FFFFFF" d="M13.38,26.893c0.823-0.133,1.8-0.225,2.873-0.225c1.941,0,3.323,0.45,4.24,1.255
	c0.948,0.823,1.491,1.987,1.491,3.618c0,1.644-0.543,2.989-1.506,3.913c-0.993,0.943-2.611,1.452-4.645,1.452
	c-0.98,0-1.771-0.045-2.454-0.121V26.893z M14.731,35.801c0.341,0.042,0.838,0.059,1.366,0.059c2.905,0,4.458-1.553,4.458-4.274
	c0.015-2.376-1.382-3.886-4.24-3.886c-0.699,0-1.227,0.061-1.584,0.136V35.801z"/>
<path fill="#FFFFFF" d="M23.171,35.229c0.604,0.376,1.475,0.659,2.406,0.659c1.382,0,2.19-0.701,2.19-1.717
	c0-0.929-0.559-1.479-1.972-1.989c-1.709-0.598-2.767-1.465-2.767-2.868c0-1.571,1.352-2.734,3.388-2.734
	c1.056,0,1.847,0.236,2.298,0.492l-0.372,1.062c-0.327-0.196-1.026-0.479-1.973-0.479c-1.429,0-1.974,0.822-1.974,1.51
	c0,0.939,0.639,1.403,2.081,1.943c1.772,0.656,2.658,1.479,2.658,2.959c0,1.554-1.182,2.913-3.651,2.913
	c-1.01,0-2.113-0.298-2.672-0.657L23.171,35.229z"/>
</svg>
