<?xml version="1.0" encoding="utf-8"?>
<svg version="1.1"
	 xmlns="http://www.w3.org/2000/svg" xmlns:xlink="http://www.w3.org/1999/xlink"
	 x="0px" y="0px" width="48px" height="48px" viewBox="-2.817 -4.445 48 48">
<defs>
</defs>
<path fill="#3588A6" d="M33.621,23.9H5.818C2.605,23.9,0,26.505,0,29.719v3.879c0,3.215,2.605,5.819,5.818,5.819h27.803V23.9z"/>
<path fill="#3588A6" d="M8.744,23.9h27.802c3.213,0,5.819,2.605,5.819,5.819v3.879c0,3.215-2.606,5.819-5.819,5.819H8.744V23.9z"/>
<path fill="#FFFFFF" d="M14.43,36.729l-1.341-2.299c-0.54-0.878-0.864-1.448-1.188-2.051h-0.032
	c-0.292,0.603-0.602,1.156-1.126,2.066l-1.249,2.283H7.952l3.177-5.261l-3.053-5.135h1.557l1.373,2.437
	c0.386,0.679,0.68,1.203,0.957,1.76h0.047c0.292-0.619,0.555-1.098,0.94-1.76l1.402-2.437h1.559l-3.162,5.058l3.239,5.338H14.43z"/>
<path fill="#FFFFFF" d="M25.925,32.164c-0.077-1.45-0.169-3.208-0.169-4.489h-0.031c-0.371,1.204-0.787,2.516-1.311,3.948
	l-1.836,5.044h-1.017l-1.697-4.95c-0.494-1.48-0.895-2.807-1.188-4.042h-0.032c-0.03,1.296-0.106,3.023-0.2,4.597l-0.277,4.458
	h-1.279l0.725-10.396h1.713l1.772,5.028c0.432,1.28,0.771,2.421,1.049,3.502h0.03c0.278-1.049,0.648-2.192,1.111-3.502l1.85-5.028
	h1.713l0.648,10.396h-1.326L25.925,32.164z"/>
<path fill="#FFFFFF" d="M29.171,26.333h1.357v9.269h4.441v1.127h-5.799V26.333z"/>
<polygon fill="#3588A6" points="32.415,11.037 27.18,5.801 27.18,3.222 34.995,11.037 27.18,18.852 27.18,16.274 "/>
<polygon fill="#3588A6" points="9.525,10.585 14.76,5.349 14.76,2.771 6.946,10.585 14.76,18.401 14.76,15.822 "/>
<polygon fill="#3588A6" points="18.375,21.499 19.936,21.908 25.202,0.409 23.644,0 "/>
</svg>
