<?xml version="1.0" encoding="utf-8"?>
<svg version="1.1"
	 xmlns="http://www.w3.org/2000/svg" xmlns:xlink="http://www.w3.org/1999/xlink"
	 x="0px" y="0px" width="48px" height="48px" viewBox="-2.878 -4.243 48 48">
<defs>
</defs>
<path fill-rule="evenodd" clip-rule="evenodd" fill="#52CAF5" d="M18.068,14.86c-3.498,2.082-5.008,6.683-3.291,10.399
	c1.754,3.788,5.442,5.331,9.314,6.181c2.888,0.632,5.858,0.88,8.809,0.799c3.277-0.093,6.507-0.522,9.764-0.895
	c-1.166,1.606-2.626,3.558-4.629,4.104c-1.767,0.481-3.739,0.59-5.556,0.531c-3.528-0.114-6.988-0.325-10.422-1.257
	c-3.642-0.984-8.038-3.152-9.817-6.687c-1.242-2.468-2.081-5.027-1.663-7.813c0.727-4.852,4.238-8.67,9.036-9.741
	c2.08-0.463,4.342-0.414,6.375,0.246c2.727,0.882,4.853,2.912,6.491,5.205c-1.016,0.577-2.043,1.156-3.136,1.567
	C27.123,14.627,22.054,12.487,18.068,14.86z M30.519,7.185c-0.537,0.949-1.072,1.897-1.61,2.846
	c-0.172,0.306-0.419,0.001-0.696-0.118c-0.604-0.262-1.22-0.497-1.846-0.698c-1.27-0.406-2.589-0.685-3.92-0.722
	c-4.086-0.114-8.109,1.663-10.688,4.849c-2.484,3.075-3.445,7.211-2.639,11.074c0.795,3.816,3.266,7.062,6.472,9.208
	c1.92,1.286,4.083,2.188,6.326,2.728c2.012,0.485,4.234,0.846,6.301,0.999c2.138,0.153,4.335,0,6.479,0
	c-2.946,0.84-6.218,1.698-9.312,1.698c-2.288,0-4.572,0-6.859,0c-0.784,0-1.953-0.749-2.647-1.093
	c-1.046-0.521-2.048-1.125-2.99-1.814c-1.69-1.231-3.186-2.733-4.398-4.439C6.288,28.604,5.029,24.843,5.2,21.025
	c0.246-5.55,3.274-10.671,8.02-13.562C18.422,4.297,25.216,4.115,30.519,7.185c-0.363-0.213-0.727-0.422-1.091-0.632
	C29.726,6.725,30.179,6.988,30.519,7.185C30.519,7.185,28.037,5.748,30.519,7.185z M21.771,0c0,1.116,0,3.343,0,3.343
	s-3.136,0.249-5.544,1.014c-3.752,1.193-7.049,3.552-9.293,6.781c-4.34,6.248-4.346,14.695-0.156,21.015
	c1.877,2.841,4.52,5.098,7.547,6.635c-2.3-0.218-4.637-0.557-6.788-1.441c-1.837-0.754-3.065-2.03-4.121-3.708
	c-2.478-3.926-3.132-7.06-3.349-9.951c-0.363-4.81,0.727-10.175,3.426-14.233c2.32-3.485,5.788-6.261,9.669-7.823
	C15.866,0.542,18.865,0.107,21.771,0L21.771,0z"/>
<path fill-rule="evenodd" clip-rule="evenodd" fill="#3588A6" d="M29.507,6.6c0.012,0.006,0.031,0.017,0.045,0.026
	C29.538,6.617,29.524,6.608,29.507,6.6L29.507,6.6z"/>
<path fill-rule="evenodd" clip-rule="evenodd" fill="#3588A6" d="M30.282,7.046c0.005,0.005,0.014,0.008,0.02,0.012
	c0.074,0.043,0.146,0.084,0.218,0.127C30.416,7.124,30.369,7.096,30.282,7.046z"/>
<path fill-rule="evenodd" clip-rule="evenodd" fill="#3588A6" d="M29.428,6.553c0.022,0.012,0.057,0.032,0.079,0.046
	c-0.011-0.007-0.01-0.006-0.018-0.01C29.469,6.577,29.448,6.565,29.428,6.553z"/>
<path fill-rule="evenodd" clip-rule="evenodd" fill="#3588A6" d="M29.527,6.61c-0.108-0.064-0.099-0.057-0.037-0.021
	c0.007,0.003,0.013,0.007,0.019,0.011S29.522,6.606,29.527,6.61z"/>
<path fill-rule="evenodd" clip-rule="evenodd" fill="#3588A6" d="M29.527,6.61c0.038,0.021,0.104,0.06,0.169,0.097
	c-0.06-0.036-0.103-0.058-0.144-0.082c0.213,0.123,0.426,0.245,0.637,0.369C29.959,6.86,29.725,6.724,29.527,6.61z"/>
<path fill-rule="evenodd" clip-rule="evenodd" fill="#3588A6" d="M21.178,5.04v3.491c0.422-0.028,0.843-0.048,1.269-0.037
	c1.331,0.037,2.65,0.315,3.92,0.722c0.626,0.201,1.241,0.436,1.846,0.698c0.277,0.119,0.524,0.424,0.696,0.118
	c0.538-0.949,1.073-1.897,1.61-2.846C27.675,5.538,24.404,4.857,21.178,5.04z"/>
<path fill-rule="evenodd" clip-rule="evenodd" fill="#3588A6" d="M28.218,37.351c-2.066-0.153-4.289-0.514-6.301-0.999
	c-0.249-0.059-0.493-0.141-0.74-0.21v2.907c1.401,0,2.806,0,4.208,0c3.094,0,6.365-0.858,9.312-1.698
	C32.553,37.351,30.356,37.504,28.218,37.351z"/>
<path fill-rule="evenodd" clip-rule="evenodd" fill="#3588A6" d="M24.091,31.44c-0.995-0.218-1.974-0.484-2.914-0.82v3.836
	c0.294,0.091,0.593,0.192,0.879,0.268c3.434,0.932,6.894,1.143,10.422,1.257c1.816,0.059,3.789-0.05,5.556-0.531
	c2.003-0.547,3.463-2.498,4.629-4.104c-3.257,0.372-6.486,0.802-9.764,0.895C29.95,32.32,26.979,32.072,24.091,31.44z"/>
<path fill-rule="evenodd" clip-rule="evenodd" fill="#3588A6" d="M21.178,3.402c0.365-0.04,0.593-0.059,0.593-0.059s0-2.228,0-3.343
	c-0.199,0.008-0.397,0.03-0.593,0.04V3.402z"/>
<path fill-rule="evenodd" clip-rule="evenodd" fill="#3588A6" d="M30.519,7.185c-0.043-0.024-0.091-0.053-0.134-0.079
	C30.461,7.149,30.519,7.185,30.519,7.185z"/>
<path fill-rule="evenodd" clip-rule="evenodd" fill="#3588A6" d="M30.301,7.058c-0.037-0.021-0.074-0.042-0.112-0.063
	c0.067,0.038,0.132,0.076,0.196,0.112C30.356,7.09,30.333,7.077,30.301,7.058z"/>
<path fill-rule="evenodd" clip-rule="evenodd" fill="#3588A6" d="M29.343,17.502c1.093-0.412,2.12-0.991,3.136-1.567
	c-1.639-2.293-3.765-4.323-6.491-5.205c-1.533-0.497-3.194-0.646-4.81-0.492v3.635C24.397,13.597,27.674,15.34,29.343,17.502z"/>
</svg>
