<?xml version="1.0" encoding="utf-8"?>
<svg version="1.1"
	 xmlns="http://www.w3.org/2000/svg" xmlns:xlink="http://www.w3.org/1999/xlink"
	 x="0px" y="0px" width="48px" height="48px" viewBox="-7.553 -3.52 48 48">
<defs>
</defs>
<rect x="1.691" y="25.935" fill="#3588A6" width="29.514" height="12.189"/>
<path fill="#3588A6" d="M26.492,2.812v3.414c0,1.637,1.889,1.293,3.557,1.293h2.846v2.376l-5.156,0.001
	c-1.969,0-3.566-1.597-3.566-3.566V1.54L26.492,2.812z"/>
<path fill="#3588A6" d="M30.085,7.586v28.823c0,1.843-1.463,1.418-3.275,1.418H6.08c-1.809,0-3.273,0.425-3.273-1.418V6.478
	c0-1.849-0.46-3.344,1.349-3.344h22.355V0H3.947C1.765,0,0,1.767,0,3.947v33.067c0,2.178,1.765,3.946,3.947,3.946h25
	c2.18,0,3.947-1.769,3.947-3.946V7.586H30.085z"/>
<polygon fill="#3588A6" points="26.511,0 32.894,7.586 26.119,7.586 "/>
<path fill="#FFFFFF" d="M12.385,32.837c0,3.63-2.215,5.576-4.916,5.576c-2.813,0-4.76-2.183-4.76-5.386
	c0-3.363,2.074-5.561,4.9-5.561C10.515,27.467,12.385,29.683,12.385,32.837z M4.156,32.995c0,2.277,1.224,4.304,3.391,4.304
	s3.394-1.994,3.394-4.399c0-2.12-1.1-4.317-3.378-4.317C5.285,28.582,4.156,30.687,4.156,32.995z"/>
<path fill="#FFFFFF" d="M13.773,27.812c0.83-0.141,1.82-0.235,2.904-0.235c1.961,0,3.363,0.469,4.287,1.319
	c0.959,0.862,1.508,2.091,1.508,3.801c0,1.728-0.549,3.144-1.521,4.116c-1.008,0.988-2.639,1.521-4.697,1.521
	c-0.99,0-1.79-0.044-2.48-0.123V27.812z M15.137,37.175c0.347,0.044,0.851,0.063,1.385,0.063c2.937,0,4.503-1.633,4.503-4.493
	c0.02-2.498-1.395-4.084-4.286-4.084c-0.705,0-1.237,0.063-1.603,0.142V37.175z"/>
<rect x="6.97" y="14.161" fill="#3588A6" width="4.917" height="1.227"/>
<rect x="6.97" y="10.521" fill="#3588A6" width="10.125" height="1.226"/>
<rect x="6.97" y="6.785" fill="#3588A6" width="13.754" height="1.227"/>
<rect x="6.97" y="17.904" fill="#3588A6" width="4.917" height="1.228"/>
<rect x="6.97" y="21.519" fill="#3588A6" width="4.917" height="1.226"/>
<path fill="#3588A6" d="M19.326,12.594c-3.1,0-5.612,2.513-5.612,5.611s2.512,5.609,5.612,5.609c3.098,0,5.607-2.511,5.607-5.609
	h-5.607V12.594z"/>
<path fill="#3588A6" d="M20.085,17.318v0.003h5.611c0-1.579-0.652-3.001-1.703-4.022L20.085,17.318z"/>
<path fill="#3588A6" d="M20.027,16.335l3.967-3.969c-1.115-1.115-2.51-1.662-3.971-1.64l0.004,5.605V16.335z"/>
<path fill="#FFFFFF" d="M23.779,27.841c0.662-0.11,1.529-0.204,2.631-0.204c1.355,0,2.348,0.314,2.979,0.883
	c0.564,0.504,0.928,1.276,0.928,2.22c0,0.96-0.281,1.719-0.818,2.271c-0.74,0.77-1.906,1.164-3.246,1.164
	c-0.408,0-0.785-0.017-1.104-0.094v4.254h-1.369V27.841z M25.148,32.961c0.301,0.078,0.678,0.11,1.135,0.11
	c1.654,0,2.664-0.816,2.664-2.253c0-1.418-1.01-2.096-2.508-2.096c-0.596,0-1.055,0.049-1.291,0.112V32.961z"/>
</svg>
