<?xml version="1.0" encoding="utf-8"?>
<svg version="1.1"
	 xmlns="http://www.w3.org/2000/svg" xmlns:xlink="http://www.w3.org/1999/xlink"
	 x="0px" y="0px" width="32px" height="32px" viewBox="0 0 32 32">
<defs>
</defs>
<rect opacity="0" fill="#FFFFFF" width="32" height="32"/>
<path fill="#3588A6" d="M25.956,19.455H24.06H7.939H6.043c-2.082,0-3.771,1.688-3.771,3.771v2.514c0,2.083,1.688,3.771,3.771,3.771
	h1.896H24.06h1.896c2.082,0,3.771-1.688,3.771-3.771v-2.514C29.726,21.142,28.038,19.455,25.956,19.455z"/>
<path fill="#FFFFFF" d="M12.887,27.988c-0.341,0.177-1.056,0.353-1.958,0.353c-2.09,0-3.652-1.32-3.652-3.763
	c0-2.332,1.573-3.895,3.872-3.895c0.913,0,1.508,0.198,1.761,0.33l-0.242,0.781c-0.353-0.176-0.869-0.309-1.485-0.309
	c-1.738,0-2.894,1.111-2.894,3.059c0,1.826,1.045,2.981,2.839,2.981c0.594,0,1.188-0.121,1.573-0.308L12.887,27.988z"/>
<path fill="#FFFFFF" d="M14.526,27.053c0.429,0.274,1.045,0.484,1.705,0.484c0.979,0,1.551-0.518,1.551-1.266
	c0-0.682-0.396-1.089-1.397-1.463c-1.21-0.44-1.958-1.078-1.958-2.112c0-1.155,0.957-2.014,2.398-2.014
	c0.748,0,1.309,0.176,1.628,0.363l-0.264,0.781c-0.231-0.144-0.727-0.353-1.397-0.353c-1.012,0-1.397,0.605-1.397,1.111
	c0,0.693,0.451,1.034,1.475,1.431c1.254,0.483,1.881,1.089,1.881,2.178c0,1.145-0.836,2.146-2.585,2.146
	c-0.715,0-1.496-0.22-1.893-0.484L14.526,27.053z"/>
<path fill="#FFFFFF" d="M20.498,27.053c0.43,0.274,1.046,0.484,1.705,0.484c0.979,0,1.552-0.518,1.552-1.266
	c0-0.682-0.396-1.089-1.397-1.463c-1.21-0.44-1.958-1.078-1.958-2.112c0-1.155,0.957-2.014,2.398-2.014
	c0.748,0,1.309,0.176,1.628,0.363l-0.264,0.781c-0.231-0.144-0.727-0.353-1.397-0.353c-1.012,0-1.397,0.605-1.397,1.111
	c0,0.693,0.451,1.034,1.475,1.431c1.254,0.483,1.881,1.089,1.881,2.178c0,1.145-0.836,2.146-2.585,2.146
	c-0.715,0-1.496-0.22-1.893-0.484L20.498,27.053z"/>
<path fill="#3588A6" d="M10.952,11.121c1.154,0,1.319-0.644,1.336-1.221c0-0.462-0.066-0.924-0.132-1.369
	c-0.066-0.479-0.132-0.94-0.132-1.386c0-1.517,1.006-2.161,2.408-2.161h0.33v0.907h-0.28c-0.974,0.017-1.32,0.528-1.32,1.418
	c0,0.379,0.066,0.775,0.115,1.171c0.066,0.412,0.132,0.808,0.132,1.253c0.017,1.056-0.462,1.583-1.204,1.781v0.033
	c0.742,0.198,1.204,0.742,1.204,1.798c0,0.445-0.065,0.858-0.132,1.27c-0.049,0.396-0.115,0.792-0.115,1.188
	c0,0.923,0.396,1.419,1.32,1.436h0.28v0.906h-0.347c-1.353,0-2.392-0.594-2.392-2.26c0-0.445,0.065-0.907,0.148-1.353
	c0.049-0.461,0.115-0.907,0.115-1.336c0-0.528-0.165-1.237-1.336-1.237V11.121z"/>
<path fill="#3588A6" d="M21.047,11.962c-1.154,0-1.319,0.709-1.336,1.237c0,0.429,0.065,0.875,0.132,1.336
	c0.066,0.445,0.132,0.907,0.132,1.353c0,1.666-1.039,2.26-2.392,2.26h-0.347v-0.906h0.28c0.924-0.017,1.32-0.512,1.32-1.436
	c0-0.396-0.066-0.792-0.116-1.188c-0.065-0.412-0.132-0.825-0.132-1.27c-0.017-1.056,0.462-1.6,1.204-1.798v-0.033
	c-0.742-0.198-1.204-0.726-1.204-1.781c0-0.445,0.066-0.841,0.132-1.253c0.05-0.396,0.116-0.792,0.116-1.171
	c0-0.891-0.347-1.402-1.32-1.418h-0.28V4.984h0.33c1.402,0,2.408,0.644,2.408,2.161c0,0.445-0.065,0.907-0.132,1.386
	c-0.066,0.445-0.132,0.907-0.132,1.369c0,0.577,0.165,1.221,1.336,1.221V11.962z"/>
</svg>
