<?xml version="1.0" encoding="utf-8"?>
<svg version="1.1"
	 xmlns="http://www.w3.org/2000/svg" xmlns:xlink="http://www.w3.org/1999/xlink"
	 x="0px" y="0px" width="48px" height="48px" viewBox="-6.83 -2.62 48 48">
<defs>
</defs>
<path fill="#3588A6" d="M34.34,38.64c0,2.273-1.844,4.12-4.121,4.12H4.121C1.844,42.76,0,40.913,0,38.64V4.121
	C0,1.844,1.844,0,4.121,0h26.098c2.277,0,4.121,1.844,4.121,4.121V38.64z"/>
<path fill="#52CAF5" d="M17.826,0H4.121C1.844,0,0,1.844,0,4.121V38.64c0,2.273,1.844,4.12,4.121,4.12h13.706V0z"/>
<rect x="6.077" y="8.928" fill="#FFFFFF" width="22.188" height="1.717"/>
<rect x="6.077" y="16.484" fill="#FFFFFF" width="22.188" height="1.716"/>
<rect x="6.077" y="24.039" fill="#FFFFFF" width="22.188" height="1.717"/>
<rect x="6.077" y="31.596" fill="#FFFFFF" width="22.188" height="1.714"/>
<rect x="17.939" y="8.928" fill="#D1D3D4" width="10.326" height="1.717"/>
<rect x="17.939" y="16.484" fill="#D1D3D4" width="10.326" height="1.716"/>
<rect x="17.939" y="24.039" fill="#D1D3D4" width="10.326" height="1.717"/>
<rect x="17.939" y="31.596" fill="#D1D3D4" width="10.326" height="1.714"/>
</svg>
