<?xml version="1.0" encoding="utf-8"?>
<svg version="1.1"
	 xmlns="http://www.w3.org/2000/svg" xmlns:xlink="http://www.w3.org/1999/xlink"
	 x="0px" y="0px" width="48px" height="48px" viewBox="-1.814 -5.771 48 48">
<defs>
</defs>
<path fill="#E6E7E8" d="M44.747,34.655c0,1.729-1.399,3.126-3.126,3.126H3.125C1.4,37.781,0,36.384,0,34.655V3.125
	C0,1.399,1.4,0,3.125,0h38.496c1.727,0,3.126,1.399,3.126,3.125V34.655z"/>
<path fill="#F79523" d="M21.963,9.183c-0.455,0-0.876,0.125-1.25,0.327V6.964c0-1.47-1.192-2.663-2.662-2.663H5.647
	c-1.47,0-2.663,1.192-2.663,2.663v23.065c0,1.47,1.193,2.66,2.663,2.66h12.404c1.47,0,2.662-1.19,2.662-2.66v-0.678
	c-0.074,0.005-0.145,0.022-0.22,0.022c-1.889,0-3.421-1.531-3.421-3.422c0-1.89,1.533-3.422,3.421-3.422
	c0.075,0,0.146,0.019,0.22,0.023v-8.385c0.374,0.202,0.795,0.327,1.25,0.327c1.466,0,2.655-1.189,2.655-2.656
	C24.618,10.373,23.43,9.183,21.963,9.183z"/>
<path fill="#52CAF5" d="M39.1,5.089H26.695c-1.471,0-2.663,1.191-2.663,2.663v0.678c0.075-0.005,0.146-0.023,0.221-0.023
	c1.89,0,3.42,1.532,3.42,3.421c0,1.89-1.53,3.421-3.42,3.421c-0.075,0-0.146-0.017-0.221-0.021v8.471
	c-0.376-0.204-0.802-0.332-1.26-0.332c-1.465,0-2.654,1.189-2.654,2.655c0,1.468,1.189,2.657,2.654,2.657
	c0.458,0,0.884-0.127,1.26-0.332v2.471c0,1.471,1.192,2.663,2.663,2.663H39.1c1.469,0,2.662-1.192,2.662-2.663V7.751
	C41.762,6.28,40.568,5.089,39.1,5.089z"/>
<path fill="#D1D3D4" d="M1.58,0.424C0.64,0.963,0,1.964,0,3.125v31.53c0,1.729,1.4,3.126,3.125,3.126h38.496
	c1.727,0,3.126-1.397,3.126-3.126v-6.458L1.58,0.424z"/>
<path fill="#C8691C" d="M7.605,4.301H5.647c-1.47,0-2.663,1.192-2.663,2.663v23.065c0,1.47,1.193,2.66,2.663,2.66h12.404
	c1.47,0,2.662-1.19,2.662-2.66v-0.678c-0.074,0.005-0.145,0.022-0.22,0.022c-1.889,0-3.421-1.531-3.421-3.422
	c0-1.89,1.533-3.422,3.421-3.422c0.075,0,0.146,0.019,0.22,0.023v-8.385c0.374,0.202,0.795,0.327,1.25,0.327
	c0.395,0,0.767-0.092,1.104-0.247L7.605,4.301z"/>
<path fill="#3588A6" d="M24.571,15.216c-0.106,0.011-0.209,0.032-0.318,0.032c-0.075,0-0.146-0.017-0.221-0.021v8.471
	c-0.376-0.204-0.802-0.332-1.26-0.332c-1.465,0-2.654,1.189-2.654,2.655c0,1.468,1.189,2.657,2.654,2.657
	c0.458,0,0.884-0.127,1.26-0.332v2.471c0,1.471,1.192,2.663,2.663,2.663H39.1c1.469,0,2.662-1.192,2.662-2.663v-4.542L24.571,15.216
	z"/>
</svg>
