<?xml version="1.0" encoding="utf-8"?>
<svg version="1.1"
	 xmlns="http://www.w3.org/2000/svg" xmlns:xlink="http://www.w3.org/1999/xlink"
	 x="0px" y="0px" width="48px" height="48px" viewBox="-1.979 -12.841 48 48">
<defs>
</defs>
<polygon fill="#52CAF5" points="32.431,21.774 0,21.743 0,0.076 32.478,0.024 43.337,10.899 "/>
<polygon fill="#3588A6" points="32.431,21.774 0,21.743 0,10.899 43.337,10.899 "/>
<polygon fill="#C8691C" points="39.96,10.894 30.767,1.701 32.456,0.012 43.338,10.894 32.456,21.777 28.94,21.727 "/>
<polygon fill="#C8691C" points="20.49,10.894 11.297,1.701 12.987,0.012 23.869,10.894 12.987,21.727 9.522,21.727 "/>
<polygon fill="#F79523" points="23.869,10.882 12.987,0 9.425,0.076 20.49,10.882 "/>
<polygon fill="#F79523" points="43.354,10.897 32.471,0.016 29.037,0.016 39.976,10.897 "/>
<polygon fill="#FFFFFF" points="23.618,10.894 12.951,0.076 16.115,0.012 26.997,10.894 16.115,21.777 12.65,21.777 "/>
</svg>
