<?xml version="1.0" encoding="utf-8"?>
<svg version="1.1"
	 xmlns="http://www.w3.org/2000/svg" xmlns:xlink="http://www.w3.org/1999/xlink"
	 x="0px" y="0px" width="48px" height="48px" viewBox="-1.508 -6.903 48 48">
<defs>
</defs>
<path fill="#F79523" d="M33.891,2.883c0,1.591-1.29,2.882-2.882,2.882H2.883C1.291,5.765,0,4.474,0,2.883C0,1.291,1.291,0,2.883,0
	h28.126C32.601,0,33.891,1.291,33.891,2.883"/>
<path fill="#F79523" d="M24.668,15.563c0,1.592-1.29,2.881-2.882,2.881H2.882C1.29,18.445,0,17.155,0,15.563s1.29-2.882,2.882-2.882
	h18.904C23.378,12.682,24.668,13.972,24.668,15.563"/>
<path fill="#F79523" d="M16.14,28.246c0,1.592-1.29,2.881-2.882,2.881H2.882C1.291,31.126,0,29.837,0,28.246
	c0-1.594,1.291-2.883,2.882-2.883h10.376C14.85,25.363,16.14,26.652,16.14,28.246"/>
<path fill="#C8691C" d="M31.009,0H24.38v5.765h6.629c1.592,0,2.882-1.291,2.882-2.882C33.891,1.291,32.601,0,31.009,0"/>
<path fill="#C8691C" d="M21.786,12.682h-6.935v5.763h6.935c1.592,0,2.882-1.29,2.882-2.881S23.378,12.682,21.786,12.682"/>
<rect x="15.88" y="13.399" transform="matrix(0.6124 -0.7906 0.7906 0.6124 -1.7095 30.8548)" fill="#52CAF5" width="29.458" height="7.543"/>
<rect x="38.835" y="0.243" transform="matrix(0.6121 -0.7908 0.7908 0.6121 12.6509 33.82)" fill="#6D6E71" width="3.931" height="7.543"/>
<polygon fill="#FCB51E" points="24.604,31.082 20.2,33.037 17.729,31.123 18.642,26.464 "/>
<polygon points="20.016,32.957 17.279,34.195 17.851,31.277 "/>
<rect x="37.288" y="1.001" transform="matrix(-0.6127 0.7903 -0.7903 -0.6127 65.5288 -26.4799)" fill="#A7A9AC" width="3.931" height="3.631"/>
<polygon fill="#58595B" points="18.893,32.085 17.851,31.277 17.287,34.158 "/>
<polygon fill="#FFD65A" points="18.914,32.041 21.513,28.687 18.642,26.464 17.729,31.123 "/>
<rect x="14.333" y="14.158" transform="matrix(-0.6123 0.7906 -0.7906 -0.6123 59.4874 2.7766)" fill="#84D5F7" width="29.459" height="3.631"/>
</svg>
