<?xml version="1.0" encoding="utf-8"?>
<svg version="1.1"
	 xmlns="http://www.w3.org/2000/svg" xmlns:xlink="http://www.w3.org/1999/xlink"
	 x="0px" y="0px" width="48px" height="48px" viewBox="-2.75 -4.708 48 48">
<defs>
</defs>
<path fill="#F1F2F2" d="M40.605,29.093c0,1.656-1.344,3-3,3H9.55c-1.657,0-3-1.344-3-3V3.453c0-1.657,1.343-3,3-3h28.056
	c1.656,0,3,1.343,3,3V29.093z"/>
<path fill="#F1F2F2" d="M37.607,31.841c0,1.656-1.344,3-3,3H6.552c-1.657,0-3-1.344-3-3V6.201c0-1.657,1.343-3,3-3h28.056
	c1.656,0,3,1.343,3,3V31.841z"/>
<path fill="#F1F2F2" d="M34.609,34.672c0,1.656-1.344,3-3,3H3.554c-1.657,0-3-1.344-3-3V9.031c0-1.657,1.343-3,3-3h28.056
	c1.656,0,3,1.343,3,3V34.672z"/>
<path fill="#C8691C" d="M34.842,2.741H6.232c-1.889,0-3.426,1.537-3.426,3.427v0.15c0.2-0.045,0.418-0.07,0.658-0.07h0.277v-0.08
	c0-1.375,1.118-2.492,2.491-2.492h28.61c1.374,0,2.491,1.117,2.491,2.492v25.65c0,1.373-1.117,2.49-2.491,2.49h-0.026
	c-0.019,0.328-0.053,0.643-0.117,0.936h0.144c1.89,0,3.427-1.536,3.427-3.426V6.168C38.269,4.278,36.731,2.741,34.842,2.741z"/>
<path fill="#C8691C" d="M37.954,0H9.344c-1.89,0-3.427,1.538-3.427,3.427v0.15c0.2-0.046,0.419-0.071,0.658-0.071h0.277v-0.08
	c0-1.374,1.118-2.492,2.491-2.492h28.61c1.373,0,2.491,1.118,2.491,2.492v25.649c0,1.374-1.118,2.491-2.491,2.491h-0.026
	c-0.019,0.328-0.053,0.644-0.117,0.935h0.144c1.89,0,3.427-1.536,3.427-3.426V3.427C41.381,1.538,39.844,0,37.954,0z"/>
<path fill="#F79523" d="M32.036,38.049H3.427C1.537,38.049,0,36.513,0,34.624V8.974c0-1.89,1.537-3.428,3.427-3.428h28.609
	c1.89,0,3.427,1.538,3.427,3.428v25.65C35.463,36.513,33.926,38.049,32.036,38.049z M3.427,6.481c-1.374,0-2.492,1.118-2.492,2.492
	v25.65c0,1.373,1.118,2.49,2.492,2.49h28.609c1.374,0,2.491-1.117,2.491-2.49V8.974c0-1.375-1.117-2.492-2.491-2.492H3.427z"/>
<rect x="4.208" y="20.509" fill="#3588A6" width="4.675" height="13.56"/>
<rect x="26.651" y="20.509" fill="#3588A6" width="4.677" height="13.56"/>
<rect x="10.754" y="20.509" fill="#52CAF5" width="14.027" height="13.56"/>
<rect x="4.208" y="9.287" fill="#3588A6" width="27.151" height="9.118"/>
</svg>
