<?xml version="1.0" encoding="utf-8"?>
<svg version="1.1"
	 xmlns="http://www.w3.org/2000/svg" xmlns:xlink="http://www.w3.org/1999/xlink"
	 x="0px" y="0px" width="48px" height="48px" viewBox="-10.2 -2.3 48 48">
<defs>
</defs>
<circle fill="#F79523" cx="20" cy="22.9" r="4.2"/>
<path fill="#F79523" d="M26,40.2c0,1.8-1.5,3.3-3.3,3.3h-5.2c-1.8,0-3.3-1.5-3.3-3.3v-9.8c0-1.8,1.5-3.3,3.3-3.3h5.2
	c1.8,0,3.3,1.5,3.3,3.3V40.2z"/>
<rect x="8.2" y="25.5" transform="matrix(0.8364 -0.5481 0.5481 0.8364 -14.6142 10.1248)" fill="#F79523" width="3" height="8.1"/>
<rect x="9.7" y="28.8" transform="matrix(0.9013 -0.4332 0.4332 0.9013 -11.8221 8.9393)" fill="#F79523" width="8.1" height="3.3"/>
<polygon fill="#3588A6" points="8.3,19.1 0,14.3 0,4.8 8.3,0 16.5,4.8 16.5,14.3 "/>
<rect x="7" y="15.4" fill="#3588A6" width="2.1" height="10.6"/>
<path fill="#F79523" d="M10,26.6c-0.3,0.9-1.5,1.4-2.6,1.1l-0.7-0.2c-1.2-0.4-1.9-1.4-1.6-2.3l0,0c0.3-0.9,1.5-1.4,2.6-1.1l0.7,0.2
	C9.6,24.7,10.3,25.7,10,26.6L10,26.6z"/>
<path fill="#FFFFFF" d="M14.1,7.1l-2.5-2.5c-0.4-0.4-1.1-0.4-1.6,0v1.9H7.1c-1.6,0-3,1.3-3,3v3.8h2.3v-2c0-1.6,0.6-2.2,2.2-2.2H10
	v2.3c0.4,0.4,1.1,0.4,1.6,0L13.8,9C13.9,9,14,9,14,9c0-0.1,0-0.1-0.1-0.2l0.1-0.1C14.5,8.2,14.5,7.5,14.1,7.1z"/>
<path fill="#F79523" d="M27.5,35.6c0.2,1-0.4,1.9-1.4,2.1l0,0c-1,0.2-1.9-0.4-2.1-1.4l-1.3-6.4c-0.2-1,0.4-1.9,1.4-2.1l0,0
	c1-0.2,1.9,0.4,2.1,1.4L27.5,35.6z"/>
</svg>
