<?xml version="1.0" encoding="utf-8"?>
<svg version="1.1"
	 xmlns="http://www.w3.org/2000/svg" xmlns:xlink="http://www.w3.org/1999/xlink"
	 x="0px" y="0px" width="101px" height="33px" viewBox="0 0 101 33">
<defs>
</defs>
<rect x="50.911" fill="#FFF200" width="2" height="33"/>
<rect x="2.016" fill="#C8691C" width="97.404" height="33"/>
<rect x="2.016" fill="#F79523" width="97.404" height="16.7"/>
<path fill="#56CAF5" d="M93.061,10.935c0-2.635,0.25-4.771-2.385-4.771H80.647c0.097,0.487,0.149,0.991,0.149,1.507
	c0,4.236-3.435,7.671-7.671,7.671c-0.25,0-0.496-0.014-0.739-0.037v6.761c0,2.635-0.25,4.771,2.385,4.771h15.904
	c2.635,0,2.385-2.136,2.385-4.771V10.935z"/>
<polygon fill="#FFFFFF" points="79.474,9.126 76.775,9.126 76.775,6.427 74.83,6.427 74.83,9.126 72.132,9.126 72.132,11.07 
	74.83,11.07 74.83,13.769 76.775,13.769 76.775,11.07 79.474,11.07 "/>
<path fill="#F5F5F5" d="M85.711,18.909c0.75-0.75,1.215-1.788,1.215-2.933c0-2.297-1.865-4.161-4.16-4.161
	c-2.296,0-4.155,1.864-4.155,4.161c0,1.145,0.461,2.181,1.213,2.933c-2.661,1.101-4.565,3.638-4.778,6.647h15.44
	C90.274,22.547,88.369,20.01,85.711,18.909z"/>
<path fill="#FFFFFF" d="M7.799,8.211v-1.27h1.372v1.27H7.799z M7.799,14.1V8.914h1.372V14.1H7.799z"/>
<path fill="#FFFFFF" d="M15.294,14.1h-1.372v-2.646c0-0.559-0.029-0.922-0.088-1.086s-0.154-0.293-0.286-0.383
	c-0.132-0.092-0.291-0.137-0.476-0.137c-0.238,0-0.451,0.064-0.64,0.195c-0.189,0.129-0.318,0.303-0.388,0.518
	s-0.105,0.611-0.105,1.191V14.1h-1.372V8.914h1.274v0.762c0.453-0.586,1.022-0.879,1.709-0.879c0.303,0,0.58,0.055,0.83,0.164
	s0.44,0.248,0.569,0.418c0.128,0.168,0.218,0.361,0.269,0.576s0.076,0.521,0.076,0.922V14.1z"/>
<path fill="#FFFFFF" d="M18.112,14.1l-2.09-5.186h1.44l0.977,2.646l0.283,0.885c0.075-0.225,0.122-0.373,0.142-0.445
	c0.045-0.146,0.094-0.293,0.146-0.439l0.986-2.646h1.411L19.347,14.1H18.112z"/>
<path fill="#FFFFFF" d="M22.248,8.211v-1.27h1.372v1.27H22.248z M22.248,14.1V8.914h1.372V14.1H22.248z"/>
<path fill="#FFFFFF" d="M27.404,8.914v1.094h-0.938v2.09c0,0.424,0.009,0.67,0.027,0.74s0.059,0.127,0.122,0.174
	c0.063,0.045,0.141,0.068,0.232,0.068c0.127,0,0.311-0.045,0.552-0.133l0.117,1.064c-0.319,0.137-0.68,0.205-1.084,0.205
	c-0.248,0-0.47-0.041-0.669-0.125c-0.199-0.082-0.344-0.189-0.437-0.322c-0.093-0.131-0.157-0.309-0.193-0.533
	c-0.029-0.16-0.044-0.482-0.044-0.967v-2.262h-0.63V8.914h0.63V7.885l1.377-0.801v1.83H27.404z"/>
<path fill="#FFFFFF" d="M31.359,12.449l1.367,0.23c-0.176,0.5-0.453,0.883-0.833,1.145s-0.854,0.393-1.423,0.393
	c-0.902,0-1.569-0.295-2.002-0.883c-0.342-0.473-0.513-1.068-0.513-1.787c0-0.859,0.225-1.533,0.674-2.02s1.017-0.73,1.704-0.73
	c0.771,0,1.38,0.256,1.826,0.764c0.446,0.51,0.659,1.291,0.64,2.342h-3.438c0.01,0.408,0.121,0.725,0.332,0.949
	c0.211,0.227,0.475,0.34,0.791,0.34c0.215,0,0.396-0.059,0.542-0.176S31.284,12.711,31.359,12.449z M31.437,11.063
	c-0.01-0.396-0.112-0.699-0.308-0.906c-0.195-0.205-0.433-0.309-0.713-0.309c-0.299,0-0.547,0.109-0.742,0.326
	c-0.195,0.219-0.292,0.516-0.288,0.889H31.437z"/>
<path fill="#FFFFFF" d="M8.825,19.496L7.58,19.271c0.14-0.5,0.381-0.871,0.723-1.113c0.342-0.24,0.85-0.361,1.523-0.361
	c0.612,0,1.068,0.072,1.367,0.217c0.299,0.146,0.51,0.33,0.632,0.553s0.183,0.633,0.183,1.229l-0.015,1.602
	c0,0.455,0.022,0.791,0.066,1.008s0.126,0.449,0.247,0.695h-1.357c-0.036-0.09-0.08-0.227-0.132-0.404
	c-0.023-0.082-0.039-0.135-0.049-0.162c-0.234,0.229-0.485,0.398-0.752,0.514c-0.267,0.113-0.552,0.17-0.854,0.17
	c-0.534,0-0.955-0.145-1.262-0.434c-0.308-0.291-0.461-0.656-0.461-1.1c0-0.293,0.07-0.555,0.21-0.783
	c0.14-0.23,0.336-0.406,0.588-0.527c0.252-0.123,0.616-0.229,1.091-0.32c0.641-0.119,1.085-0.232,1.333-0.336V19.58
	c0-0.264-0.065-0.453-0.195-0.564c-0.13-0.113-0.376-0.168-0.737-0.168c-0.244,0-0.435,0.047-0.571,0.143
	C9.02,19.088,8.909,19.256,8.825,19.496z M10.661,20.609c-0.176,0.059-0.454,0.129-0.835,0.211c-0.381,0.08-0.63,0.16-0.747,0.238
	c-0.179,0.127-0.269,0.289-0.269,0.484c0,0.191,0.072,0.357,0.215,0.498c0.143,0.139,0.326,0.209,0.547,0.209
	c0.248,0,0.483-0.08,0.708-0.244c0.166-0.123,0.275-0.275,0.327-0.453c0.036-0.117,0.054-0.34,0.054-0.67V20.609z"/>
<path fill="#FFFFFF" d="M18.078,23.1h-1.372v-2.646c0-0.559-0.029-0.922-0.088-1.086s-0.154-0.293-0.286-0.383
	c-0.132-0.092-0.291-0.137-0.476-0.137c-0.238,0-0.451,0.064-0.64,0.195c-0.189,0.129-0.318,0.303-0.388,0.518
	s-0.105,0.611-0.105,1.191V23.1h-1.372v-5.186h1.274v0.762c0.453-0.586,1.022-0.879,1.709-0.879c0.303,0,0.58,0.055,0.83,0.164
	s0.44,0.248,0.569,0.418c0.128,0.168,0.218,0.361,0.269,0.576s0.076,0.521,0.076,0.922V23.1z"/>
<path fill="#FFFFFF" d="M19.152,20.434c0-0.455,0.112-0.896,0.337-1.322c0.225-0.428,0.543-0.752,0.955-0.977
	s0.872-0.338,1.379-0.338c0.785,0,1.427,0.256,1.929,0.764c0.501,0.51,0.752,1.154,0.752,1.932c0,0.785-0.253,1.436-0.759,1.951
	s-1.144,0.773-1.912,0.773c-0.475,0-0.929-0.107-1.36-0.322s-0.759-0.529-0.984-0.945C19.264,21.535,19.152,21.029,19.152,20.434z
	 M20.558,20.508c0,0.514,0.122,0.908,0.366,1.182s0.545,0.41,0.903,0.41s0.658-0.137,0.901-0.41s0.364-0.672,0.364-1.191
	c0-0.508-0.121-0.898-0.364-1.172s-0.543-0.41-0.901-0.41s-0.659,0.137-0.903,0.41S20.558,19.992,20.558,20.508z"/>
<path fill="#FFFFFF" d="M27.956,17.914v1.094h-0.938v2.09c0,0.424,0.009,0.67,0.027,0.74s0.059,0.127,0.122,0.174
	c0.063,0.045,0.141,0.068,0.232,0.068c0.127,0,0.311-0.045,0.552-0.133l0.117,1.064c-0.319,0.137-0.68,0.205-1.084,0.205
	c-0.248,0-0.47-0.041-0.669-0.125c-0.199-0.082-0.344-0.189-0.437-0.322c-0.093-0.131-0.157-0.309-0.193-0.533
	c-0.029-0.16-0.044-0.482-0.044-0.967v-2.262h-0.63v-1.094h0.63v-1.029l1.377-0.801v1.83H27.956z"/>
<path fill="#FFFFFF" d="M30.275,15.941v2.633c0.443-0.518,0.972-0.777,1.587-0.777c0.316,0,0.601,0.059,0.854,0.176
	s0.445,0.268,0.574,0.449c0.128,0.184,0.216,0.385,0.264,0.605c0.047,0.223,0.071,0.564,0.071,1.031V23.1h-1.372v-2.738
	c0-0.545-0.026-0.889-0.078-1.035s-0.144-0.264-0.276-0.35s-0.297-0.129-0.496-0.129c-0.228,0-0.431,0.055-0.61,0.166
	c-0.179,0.109-0.31,0.277-0.393,0.5s-0.125,0.553-0.125,0.988V23.1h-1.372v-7.158H30.275z"/>
<path fill="#FFFFFF" d="M38.019,21.449l1.367,0.23c-0.176,0.5-0.453,0.883-0.833,1.145s-0.854,0.393-1.423,0.393
	c-0.902,0-1.569-0.295-2.002-0.883c-0.342-0.473-0.513-1.068-0.513-1.787c0-0.859,0.225-1.533,0.674-2.02s1.017-0.73,1.704-0.73
	c0.771,0,1.38,0.256,1.826,0.764c0.446,0.51,0.659,1.291,0.64,2.342h-3.438c0.01,0.408,0.121,0.725,0.332,0.949
	c0.211,0.227,0.475,0.34,0.791,0.34c0.215,0,0.396-0.059,0.542-0.176S37.944,21.711,38.019,21.449z M38.097,20.063
	c-0.01-0.396-0.112-0.699-0.308-0.906c-0.195-0.205-0.433-0.309-0.713-0.309c-0.299,0-0.547,0.109-0.742,0.326
	c-0.195,0.219-0.292,0.516-0.288,0.889H38.097z"/>
<path fill="#FFFFFF" d="M41.891,23.1h-1.372v-5.186h1.274v0.738c0.218-0.35,0.414-0.578,0.588-0.689
	c0.174-0.109,0.372-0.166,0.593-0.166c0.313,0,0.614,0.086,0.903,0.26l-0.425,1.195c-0.231-0.148-0.446-0.225-0.645-0.225
	c-0.192,0-0.355,0.053-0.488,0.158c-0.133,0.107-0.238,0.299-0.315,0.574c-0.077,0.277-0.115,0.857-0.115,1.738V23.1z"/>
</svg>
