<?xml version="1.0" encoding="utf-8"?>
<!-- Generator: Adobe Illustrator 15.0.0, SVG Export Plug-In  -->
<!DOCTYPE svg PUBLIC "-//W3C//DTD SVG 1.1//EN" "http://www.w3.org/Graphics/SVG/1.1/DTD/svg11.dtd" [
	<!ENTITY ns_flows "http://ns.adobe.com/Flows/1.0/">
]>
<svg version="1.1"
	 xmlns="http://www.w3.org/2000/svg" xmlns:xlink="http://www.w3.org/1999/xlink" xmlns:a="http://ns.adobe.com/AdobeSVGViewerExtensions/3.0/"
	 x="0px" y="0px" width="82px" height="35px" viewBox="0 -4 82 35" enable-background="new 0 -4 82 35" xml:space="preserve">
<defs>
</defs>
<rect fill="#C8691C" width="82" height="27.78"/>
<rect fill="#F79523" width="82" height="14.059"/>
<path fill="#52CAF5" d="M78.728,19.771c0,2.709,0.256,4.903-2.452,4.903H59.932c-2.708,0-2.452-2.194-2.452-4.903V8.331
	c0-2.708-0.256-4.902,2.452-4.902h16.346c2.708,0,2.45,2.194,2.45,4.902V19.771L78.728,19.771z"/>
<path fill="#FFFFFF" d="M71.565,14.803c0.816-0.815,1.32-1.941,1.32-3.186c0-2.49-2.021-4.512-4.515-4.512
	c-2.49,0-4.512,2.022-4.512,4.512c0,1.245,0.502,2.368,1.316,3.186c-2.887,1.191-4.951,3.946-5.183,7.212h16.753
	C76.518,18.748,74.449,15.994,71.565,14.803z"/>
<circle fill="#F79523" cx="58.602" cy="6.748" r="5.367"/>
<path fill="#FFFFFF" d="M5.815,4.84V3.627H6.87V4.84H5.815z M5.815,12.217V5.995H6.87v6.223H5.815z"/>
<path fill="#FFFFFF" d="M8.475,12.217V5.995h0.949v0.885c0.457-0.684,1.117-1.025,1.98-1.025c0.375,0,0.72,0.067,1.034,0.202
	s0.55,0.312,0.706,0.53s0.266,0.479,0.328,0.779c0.039,0.195,0.059,0.537,0.059,1.025v3.826h-1.055V8.432
	c0-0.43-0.041-0.751-0.123-0.964s-0.228-0.383-0.437-0.51s-0.454-0.19-0.735-0.19c-0.449,0-0.837,0.143-1.163,0.428
	S9.53,8.022,9.53,8.819v3.398H8.475z"/>
<path fill="#FFFFFF" d="M16.877,12.217L14.51,5.995h1.113l1.336,3.727c0.145,0.402,0.277,0.82,0.398,1.254
	c0.094-0.328,0.225-0.723,0.393-1.184l1.383-3.797h1.084l-2.355,6.223H16.877z"/>
<path fill="#FFFFFF" d="M21.155,4.84V3.627h1.055V4.84H21.155z M21.155,12.217V5.995h1.055v6.223H21.155z"/>
<path fill="#FFFFFF" d="M26.118,11.274l0.152,0.932c-0.297,0.063-0.563,0.094-0.797,0.094c-0.383,0-0.68-0.061-0.891-0.182
	s-0.359-0.28-0.445-0.478s-0.129-0.612-0.129-1.245v-3.58h-0.773v-0.82h0.773V4.454l1.049-0.633v2.174h1.061v0.82h-1.061v3.639
	c0,0.301,0.019,0.494,0.056,0.58s0.098,0.154,0.182,0.205s0.204,0.076,0.36,0.076C25.772,11.315,25.926,11.301,26.118,11.274z"/>
<path fill="#FFFFFF" d="M31.409,10.213l1.09,0.135c-0.172,0.637-0.49,1.131-0.955,1.482s-1.059,0.527-1.781,0.527
	c-0.91,0-1.632-0.28-2.165-0.841s-0.8-1.347-0.8-2.358c0-1.047,0.27-1.859,0.809-2.438s1.238-0.867,2.098-0.867
	c0.832,0,1.512,0.283,2.039,0.85s0.791,1.363,0.791,2.391c0,0.063-0.002,0.156-0.006,0.281h-4.641
	c0.039,0.684,0.232,1.207,0.58,1.57s0.781,0.545,1.301,0.545c0.387,0,0.717-0.102,0.99-0.305S31.249,10.659,31.409,10.213z
	 M27.946,8.508h3.475c-0.047-0.523-0.18-0.916-0.398-1.178c-0.336-0.406-0.771-0.609-1.307-0.609c-0.484,0-0.892,0.162-1.222,0.486
	S27.981,7.965,27.946,8.508z"/>
<path fill="#FFFFFF" d="M9.87,20.482c-0.391,0.332-0.767,0.566-1.128,0.703s-0.749,0.205-1.163,0.205
	c-0.684,0-1.209-0.167-1.576-0.501s-0.551-0.761-0.551-1.28c0-0.305,0.069-0.583,0.208-0.835s0.32-0.454,0.545-0.606
	s0.478-0.268,0.759-0.346c0.207-0.055,0.52-0.107,0.938-0.158c0.852-0.102,1.479-0.223,1.881-0.363
	c0.004-0.145,0.006-0.236,0.006-0.275c0-0.43-0.1-0.732-0.299-0.908c-0.27-0.238-0.67-0.357-1.201-0.357
	c-0.496,0-0.862,0.087-1.099,0.261s-0.411,0.481-0.524,0.923l-1.031-0.141c0.094-0.441,0.248-0.798,0.463-1.069
	s0.525-0.48,0.932-0.627s0.877-0.22,1.412-0.22c0.531,0,0.963,0.063,1.295,0.188s0.576,0.282,0.732,0.472s0.266,0.429,0.328,0.718
	c0.035,0.18,0.053,0.504,0.053,0.973v1.406c0,0.98,0.022,1.601,0.067,1.86s0.134,0.509,0.267,0.747h-1.102
	C9.971,21.031,9.901,20.775,9.87,20.482z M9.782,18.127c-0.383,0.156-0.957,0.289-1.723,0.398c-0.434,0.063-0.74,0.133-0.92,0.211
	s-0.318,0.192-0.416,0.343s-0.146,0.317-0.146,0.501c0,0.281,0.106,0.516,0.319,0.703s0.524,0.281,0.935,0.281
	c0.406,0,0.768-0.089,1.084-0.267s0.549-0.421,0.697-0.729c0.113-0.238,0.17-0.59,0.17-1.055V18.127z"/>
<path fill="#FFFFFF" d="M12.483,21.25v-6.223h0.949v0.885c0.457-0.684,1.117-1.025,1.98-1.025c0.375,0,0.72,0.067,1.034,0.202
	s0.55,0.312,0.706,0.53s0.266,0.479,0.328,0.779c0.039,0.195,0.059,0.537,0.059,1.025v3.826h-1.055v-3.785
	c0-0.43-0.041-0.751-0.123-0.964s-0.228-0.383-0.437-0.51s-0.454-0.19-0.735-0.19c-0.449,0-0.837,0.143-1.163,0.428
	s-0.489,0.826-0.489,1.623v3.398H12.483z"/>
<path fill="#FFFFFF" d="M18.764,18.139c0-1.152,0.32-2.006,0.961-2.561c0.535-0.461,1.188-0.691,1.957-0.691
	c0.855,0,1.555,0.28,2.098,0.841s0.814,1.335,0.814,2.323c0,0.801-0.12,1.431-0.36,1.89s-0.59,0.815-1.049,1.069
	s-0.96,0.381-1.503,0.381c-0.871,0-1.575-0.279-2.112-0.838S18.764,19.189,18.764,18.139z M19.848,18.139
	c0,0.797,0.174,1.394,0.521,1.79s0.785,0.595,1.313,0.595c0.523,0,0.959-0.199,1.307-0.598s0.521-1.006,0.521-1.822
	c0-0.77-0.175-1.353-0.524-1.749s-0.784-0.595-1.304-0.595c-0.527,0-0.965,0.197-1.313,0.592S19.848,17.342,19.848,18.139z"/>
<path fill="#FFFFFF" d="M28.133,20.307l0.152,0.932c-0.297,0.063-0.563,0.094-0.797,0.094c-0.383,0-0.68-0.061-0.891-0.182
	s-0.359-0.28-0.445-0.478s-0.129-0.612-0.129-1.245v-3.58H25.25v-0.82h0.773v-1.541l1.049-0.633v2.174h1.061v0.82h-1.061v3.639
	c0,0.301,0.019,0.494,0.056,0.58s0.098,0.154,0.182,0.205s0.204,0.076,0.36,0.076C27.788,20.348,27.942,20.334,28.133,20.307z"/>
<path fill="#FFFFFF" d="M29.165,21.25v-8.59h1.055v3.082c0.492-0.57,1.113-0.855,1.863-0.855c0.461,0,0.861,0.091,1.201,0.272
	s0.583,0.433,0.729,0.753s0.22,0.785,0.22,1.395v3.943h-1.055v-3.943c0-0.527-0.114-0.911-0.343-1.151s-0.552-0.36-0.97-0.36
	c-0.313,0-0.606,0.081-0.882,0.243s-0.472,0.382-0.589,0.659s-0.176,0.66-0.176,1.148v3.404H29.165z"/>
<path fill="#FFFFFF" d="M40.098,19.246l1.09,0.135c-0.172,0.637-0.49,1.131-0.955,1.482s-1.059,0.527-1.781,0.527
	c-0.91,0-1.632-0.28-2.165-0.841s-0.8-1.347-0.8-2.358c0-1.047,0.27-1.859,0.809-2.438s1.238-0.867,2.098-0.867
	c0.832,0,1.512,0.283,2.039,0.85s0.791,1.363,0.791,2.391c0,0.063-0.002,0.156-0.006,0.281h-4.641
	c0.039,0.684,0.232,1.207,0.58,1.57s0.781,0.545,1.301,0.545c0.387,0,0.717-0.102,0.99-0.305S39.938,19.691,40.098,19.246z
	 M36.635,17.541h3.475c-0.047-0.523-0.18-0.916-0.398-1.178c-0.336-0.406-0.771-0.609-1.307-0.609c-0.484,0-0.892,0.162-1.222,0.486
	S36.67,16.998,36.635,17.541z"/>
<path fill="#FFFFFF" d="M42.5,21.25v-6.223h0.949v0.943c0.242-0.441,0.466-0.732,0.671-0.873s0.431-0.211,0.677-0.211
	c0.355,0,0.717,0.113,1.084,0.34l-0.363,0.979c-0.258-0.152-0.516-0.229-0.773-0.229c-0.23,0-0.438,0.069-0.621,0.208
	s-0.314,0.331-0.393,0.577c-0.117,0.375-0.176,0.785-0.176,1.23v3.258H42.5z"/>
<polygon fill="#FFFFFF" points="62.153,6.348 59.483,6.348 59.483,3.679 57.561,3.679 57.561,6.348 54.893,6.348 54.893,8.27 
	57.561,8.27 57.561,10.938 59.483,10.938 59.483,8.27 62.153,8.27 "/>
</svg>
