<?xml version="1.0" encoding="utf-8"?>
<!-- Generator: Adobe Illustrator 15.0.0, SVG Export Plug-In  -->
<!DOCTYPE svg PUBLIC "-//W3C//DTD SVG 1.1//EN" "http://www.w3.org/Graphics/SVG/1.1/DTD/svg11.dtd" [
	<!ENTITY ns_flows "http://ns.adobe.com/Flows/1.0/">
]>
<svg version="1.1"
	 xmlns="http://www.w3.org/2000/svg" xmlns:xlink="http://www.w3.org/1999/xlink" xmlns:a="http://ns.adobe.com/AdobeSVGViewerExtensions/3.0/"
	 x="0px" y="0px" width="101px" height="33px" viewBox="0 0 101 33" enable-background="new 0 0 101 33" xml:space="preserve">
<defs>
</defs>
<rect x="99.4" display="none" fill="#FFF200" width="2" height="33"/>
<rect display="none" fill="#FFF200" width="2" height="33"/>
<rect x="50.911" fill="#FFF200" width="2" height="33"/>
<rect x="2.016" fill="#C8691C" width="97.404" height="33"/>
<rect x="2.016" fill="#F79523" width="97.404" height="16.7"/>
<path fill="#56CAF5" d="M93.061,10.935c0-2.635,0.25-4.771-2.385-4.771H80.647c0.097,0.487,0.149,0.991,0.149,1.507
	c0,4.236-3.435,7.671-7.671,7.671c-0.25,0-0.496-0.014-0.739-0.037v6.761c0,2.635-0.25,4.771,2.385,4.771h15.904
	c2.635,0,2.385-2.136,2.385-4.771V10.935z"/>
<polygon fill="#FFFFFF" points="79.474,9.126 76.775,9.126 76.775,6.427 74.83,6.427 74.83,9.126 72.132,9.126 72.132,11.07 
	74.83,11.07 74.83,13.769 76.775,13.769 76.775,11.07 79.474,11.07 "/>
<path fill="#FFFFFF" d="M8.769,7.181V5.975h1.048v1.206H8.769z M8.769,14.513V8.328h1.048v6.185H8.769z"/>
<path fill="#FFFFFF" d="M11.413,14.513V8.328h0.943v0.879c0.455-0.68,1.11-1.019,1.969-1.019c0.373,0,0.715,0.066,1.028,0.2
	s0.546,0.31,0.702,0.527s0.264,0.476,0.326,0.774c0.039,0.194,0.058,0.534,0.058,1.02v3.803H15.39v-3.762
	c0-0.428-0.041-0.747-0.122-0.958c-0.082-0.212-0.226-0.381-0.434-0.507c-0.208-0.126-0.451-0.189-0.73-0.189
	c-0.447,0-0.832,0.142-1.156,0.425s-0.486,0.821-0.486,1.613v3.378H11.413z"/>
<path fill="#FFFFFF" d="M19.764,14.513l-2.353-6.185h1.106l1.328,3.704c0.144,0.399,0.275,0.814,0.396,1.246
	c0.093-0.326,0.223-0.719,0.39-1.177l1.375-3.773h1.077l-2.341,6.185H19.764z"/>
<path fill="#FFFFFF" d="M24.015,7.181V5.975h1.048v1.206H24.015z M24.015,14.513V8.328h1.048v6.185H24.015z"/>
<path fill="#FFFFFF" d="M28.948,13.575l0.151,0.926c-0.295,0.063-0.559,0.093-0.792,0.093c-0.381,0-0.676-0.06-0.885-0.18
	c-0.21-0.121-0.357-0.279-0.443-0.475c-0.085-0.196-0.128-0.609-0.128-1.238V9.144h-0.769V8.328h0.769V6.796l1.042-0.629v2.161
	h1.054v0.815h-1.054v3.616c0,0.299,0.018,0.491,0.055,0.576c0.037,0.086,0.097,0.153,0.181,0.204s0.203,0.076,0.358,0.076
	C28.604,13.616,28.758,13.603,28.948,13.575z"/>
<path fill="#FFFFFF" d="M34.207,12.521l1.083,0.135c-0.171,0.633-0.487,1.124-0.949,1.473c-0.462,0.35-1.052,0.524-1.771,0.524
	c-0.905,0-1.622-0.278-2.152-0.836c-0.53-0.557-0.795-1.338-0.795-2.344c0-1.04,0.268-1.848,0.803-2.423
	c0.536-0.574,1.231-0.861,2.085-0.861c0.827,0,1.503,0.281,2.027,0.844c0.524,0.563,0.786,1.355,0.786,2.376
	c0,0.063-0.002,0.155-0.006,0.28h-4.612c0.039,0.679,0.231,1.199,0.577,1.561c0.345,0.361,0.776,0.542,1.293,0.542
	c0.384,0,0.712-0.102,0.984-0.304C33.833,13.286,34.048,12.964,34.207,12.521z M30.765,10.826h3.454
	c-0.046-0.521-0.179-0.91-0.396-1.171c-0.334-0.403-0.767-0.605-1.299-0.605c-0.481,0-0.886,0.161-1.214,0.483
	S30.8,10.286,30.765,10.826z"/>
<path fill="#FFFFFF" d="M12.799,23.292c-0.389,0.33-0.762,0.563-1.121,0.698c-0.359,0.137-0.745,0.204-1.156,0.204
	c-0.679,0-1.202-0.166-1.566-0.498c-0.365-0.332-0.547-0.756-0.547-1.272c0-0.303,0.069-0.579,0.207-0.83
	c0.138-0.25,0.318-0.451,0.542-0.603s0.475-0.266,0.754-0.344c0.206-0.054,0.516-0.106,0.932-0.157
	c0.847-0.101,1.47-0.221,1.87-0.36c0.004-0.144,0.006-0.235,0.006-0.274c0-0.427-0.099-0.728-0.297-0.902
	c-0.268-0.237-0.666-0.355-1.194-0.355c-0.493,0-0.857,0.087-1.092,0.26c-0.235,0.172-0.409,0.479-0.521,0.917l-1.025-0.14
	c0.093-0.439,0.247-0.793,0.46-1.063c0.213-0.27,0.522-0.478,0.926-0.623s0.872-0.218,1.403-0.218c0.528,0,0.957,0.062,1.287,0.186
	c0.33,0.125,0.573,0.281,0.728,0.469c0.155,0.188,0.264,0.427,0.326,0.714c0.035,0.179,0.053,0.501,0.053,0.967v1.397
	c0,0.975,0.022,1.591,0.067,1.85c0.044,0.258,0.133,0.506,0.265,0.742h-1.095C12.899,23.837,12.83,23.583,12.799,23.292z
	 M12.711,20.95c-0.381,0.155-0.951,0.288-1.712,0.396c-0.431,0.063-0.736,0.132-0.914,0.21c-0.179,0.077-0.317,0.19-0.414,0.34
	c-0.097,0.15-0.146,0.316-0.146,0.498c0,0.28,0.105,0.513,0.317,0.699c0.211,0.187,0.521,0.279,0.929,0.279
	c0.404,0,0.763-0.088,1.078-0.265c0.314-0.177,0.545-0.418,0.693-0.726c0.112-0.236,0.169-0.586,0.169-1.048V20.95z"/>
<path fill="#FFFFFF" d="M15.396,24.055V17.87h0.943v0.879c0.455-0.68,1.11-1.019,1.969-1.019c0.373,0,0.715,0.066,1.028,0.2
	s0.546,0.31,0.702,0.527s0.264,0.476,0.326,0.774c0.039,0.194,0.058,0.534,0.058,1.02v3.803h-1.048v-3.762
	c0-0.428-0.041-0.747-0.122-0.958c-0.082-0.212-0.226-0.381-0.434-0.507c-0.208-0.126-0.451-0.189-0.73-0.189
	c-0.447,0-0.832,0.142-1.156,0.425s-0.486,0.821-0.486,1.613v3.378H15.396z"/>
<path fill="#FFFFFF" d="M21.639,20.962c0-1.145,0.318-1.993,0.955-2.545c0.532-0.458,1.18-0.687,1.945-0.687
	c0.85,0,1.545,0.278,2.085,0.835c0.54,0.558,0.81,1.327,0.81,2.31c0,0.796-0.12,1.422-0.358,1.878s-0.586,0.811-1.042,1.063
	c-0.456,0.253-0.954,0.379-1.494,0.379c-0.866,0-1.566-0.277-2.1-0.833C21.906,22.807,21.639,22.007,21.639,20.962z M22.717,20.962
	c0,0.792,0.172,1.386,0.518,1.779c0.346,0.395,0.78,0.592,1.305,0.592c0.52,0,0.953-0.198,1.299-0.595
	c0.345-0.396,0.518-0.999,0.518-1.811c0-0.766-0.174-1.345-0.521-1.739c-0.348-0.394-0.78-0.591-1.296-0.591
	c-0.524,0-0.959,0.196-1.305,0.588C22.889,19.578,22.717,20.17,22.717,20.962z"/>
<path fill="#FFFFFF" d="M30.952,23.117l0.151,0.926c-0.295,0.063-0.559,0.093-0.792,0.093c-0.381,0-0.676-0.06-0.885-0.18
	c-0.21-0.121-0.357-0.279-0.443-0.475c-0.085-0.196-0.128-0.609-0.128-1.238v-3.558h-0.769V17.87h0.769v-1.532l1.042-0.629v2.161
	h1.054v0.815h-1.054v3.616c0,0.299,0.018,0.491,0.055,0.576c0.037,0.086,0.097,0.153,0.181,0.204s0.203,0.076,0.358,0.076
	C30.608,23.158,30.761,23.145,30.952,23.117z"/>
<path fill="#FFFFFF" d="M31.977,24.055v-8.538h1.048v3.063c0.489-0.566,1.106-0.85,1.852-0.85c0.458,0,0.856,0.09,1.194,0.271
	s0.58,0.43,0.725,0.748s0.218,0.78,0.218,1.387v3.919h-1.048v-3.919c0-0.524-0.113-0.906-0.34-1.145
	c-0.228-0.239-0.549-0.358-0.964-0.358c-0.311,0-0.603,0.08-0.876,0.241c-0.274,0.161-0.469,0.38-0.585,0.655
	c-0.117,0.276-0.175,0.656-0.175,1.142v3.384H31.977z"/>
<path fill="#FFFFFF" d="M42.844,22.063l1.083,0.135c-0.171,0.633-0.487,1.124-0.949,1.473c-0.462,0.35-1.052,0.524-1.771,0.524
	c-0.905,0-1.622-0.278-2.152-0.836c-0.53-0.557-0.795-1.338-0.795-2.344c0-1.04,0.268-1.848,0.803-2.423
	c0.536-0.574,1.231-0.861,2.085-0.861c0.827,0,1.503,0.281,2.027,0.844c0.524,0.563,0.786,1.355,0.786,2.376
	c0,0.063-0.002,0.155-0.006,0.28h-4.612c0.039,0.679,0.231,1.199,0.577,1.561c0.345,0.361,0.776,0.542,1.293,0.542
	c0.384,0,0.712-0.102,0.984-0.304C42.469,22.828,42.685,22.506,42.844,22.063z M39.402,20.368h3.454
	c-0.046-0.521-0.179-0.91-0.396-1.171c-0.334-0.403-0.767-0.605-1.299-0.605c-0.481,0-0.886,0.161-1.214,0.483
	S39.437,19.828,39.402,20.368z"/>
<path fill="#FFFFFF" d="M45.231,24.055V17.87h0.944v0.938c0.24-0.438,0.463-0.729,0.667-0.868c0.204-0.14,0.428-0.209,0.673-0.209
	c0.353,0,0.712,0.112,1.077,0.337l-0.361,0.973c-0.256-0.151-0.513-0.227-0.769-0.227c-0.229,0-0.435,0.068-0.617,0.206
	c-0.183,0.139-0.313,0.329-0.39,0.574c-0.117,0.373-0.175,0.78-0.175,1.223v3.238H45.231z"/>
<path fill="#F5F5F5" d="M85.711,18.909c0.75-0.75,1.215-1.788,1.215-2.933c0-2.297-1.865-4.161-4.16-4.161
	c-2.296,0-4.155,1.864-4.155,4.161c0,1.145,0.461,2.181,1.213,2.933c-2.661,1.101-4.565,3.638-4.778,6.647h15.44
	C90.274,22.547,88.369,20.01,85.711,18.909z"/>
</svg>
