<?xml version="1.0" encoding="utf-8"?>
<!-- Generator: Adobe Illustrator 15.0.0, SVG Export Plug-In  -->
<!DOCTYPE svg PUBLIC "-//W3C//DTD SVG 1.1//EN" "http://www.w3.org/Graphics/SVG/1.1/DTD/svg11.dtd" [
	<!ENTITY ns_flows "http://ns.adobe.com/Flows/1.0/">
]>
<svg version="1.1"
	 xmlns="http://www.w3.org/2000/svg" xmlns:xlink="http://www.w3.org/1999/xlink" xmlns:a="http://ns.adobe.com/AdobeSVGViewerExtensions/3.0/"
	 x="0px" y="0px" width="101px" height="33px" viewBox="0 0 101 33" enable-background="new 0 0 101 33" xml:space="preserve">
<defs>
</defs>
<rect x="1.998" fill="#C8691C" width="97.404" height="33"/>
<rect x="1.998" fill="#F79523" width="97.404" height="16.7"/>
<path fill="#56CAF5" d="M93.043,22.065c0,2.635,0.249,4.771-2.386,4.771H74.754c-2.635,0-2.386-2.136-2.386-4.771V10.935
	c0-2.635-0.249-4.771,2.386-4.771h15.903c2.635,0,2.386,2.136,2.386,4.771V22.065z"/>
<path fill="#FFFFFF" d="M12.782,12.246l1.031,0.134c-0.113,0.711-0.401,1.267-0.865,1.669c-0.464,0.401-1.034,0.603-1.709,0.603
	c-0.847,0-1.527-0.276-2.041-0.83c-0.515-0.553-0.772-1.346-0.772-2.379c0-0.668,0.111-1.252,0.332-1.753s0.558-0.876,1.01-1.127
	c0.453-0.25,0.944-0.375,1.477-0.375c0.671,0,1.221,0.17,1.648,0.509c0.427,0.34,0.701,0.822,0.821,1.447l-1.019,0.157
	c-0.097-0.415-0.269-0.728-0.516-0.938c-0.247-0.209-0.544-0.314-0.894-0.314c-0.528,0-0.957,0.189-1.287,0.568
	c-0.33,0.378-0.495,0.978-0.495,1.796c0,0.831,0.159,1.435,0.478,1.812s0.734,0.565,1.246,0.565c0.412,0,0.755-0.127,1.031-0.379
	C12.533,13.158,12.708,12.771,12.782,12.246z"/>
<path fill="#FFFFFF" d="M14.697,14.512V8.327h0.944v0.938c0.24-0.438,0.463-0.729,0.667-0.868c0.204-0.14,0.428-0.209,0.673-0.209
	c0.353,0,0.712,0.112,1.077,0.337l-0.361,0.973c-0.256-0.151-0.513-0.227-0.769-0.227c-0.229,0-0.435,0.068-0.617,0.206
	c-0.183,0.139-0.313,0.329-0.39,0.574c-0.117,0.373-0.175,0.78-0.175,1.223v3.238H14.697z"/>
<path fill="#FFFFFF" d="M22.915,12.52l1.083,0.135c-0.171,0.633-0.487,1.124-0.949,1.473c-0.462,0.35-1.052,0.524-1.771,0.524
	c-0.905,0-1.622-0.278-2.152-0.836c-0.53-0.557-0.795-1.338-0.795-2.344c0-1.04,0.268-1.848,0.803-2.423
	c0.536-0.574,1.231-0.861,2.085-0.861c0.827,0,1.503,0.281,2.027,0.844c0.524,0.563,0.786,1.355,0.786,2.376
	c0,0.063-0.002,0.155-0.006,0.28h-4.612c0.039,0.679,0.231,1.199,0.577,1.561c0.345,0.361,0.776,0.542,1.293,0.542
	c0.384,0,0.712-0.102,0.984-0.304C22.541,13.285,22.756,12.963,22.915,12.52z M19.473,10.825h3.454
	c-0.046-0.521-0.179-0.91-0.396-1.171c-0.334-0.403-0.767-0.605-1.299-0.605c-0.481,0-0.886,0.161-1.214,0.483
	S19.508,10.285,19.473,10.825z"/>
<path fill="#FFFFFF" d="M29.351,13.749c-0.389,0.33-0.762,0.563-1.121,0.698c-0.359,0.137-0.745,0.204-1.156,0.204
	c-0.679,0-1.202-0.166-1.566-0.498c-0.365-0.332-0.547-0.756-0.547-1.272c0-0.303,0.069-0.579,0.207-0.83
	c0.138-0.25,0.318-0.451,0.542-0.603s0.475-0.266,0.754-0.344c0.206-0.054,0.516-0.106,0.932-0.157
	c0.847-0.101,1.47-0.221,1.87-0.36c0.004-0.144,0.006-0.235,0.006-0.274c0-0.427-0.099-0.728-0.297-0.902
	c-0.268-0.237-0.666-0.355-1.194-0.355c-0.493,0-0.857,0.087-1.092,0.26c-0.235,0.172-0.409,0.479-0.521,0.917l-1.025-0.14
	c0.093-0.439,0.247-0.793,0.46-1.063c0.213-0.27,0.522-0.478,0.926-0.623s0.872-0.218,1.403-0.218c0.528,0,0.957,0.062,1.287,0.186
	c0.33,0.125,0.573,0.281,0.728,0.469c0.155,0.188,0.264,0.427,0.326,0.714c0.035,0.179,0.053,0.501,0.053,0.967v1.397
	c0,0.975,0.022,1.591,0.067,1.85c0.044,0.258,0.133,0.506,0.265,0.742H29.56C29.451,14.294,29.381,14.04,29.351,13.749z
	 M29.263,11.407c-0.381,0.155-0.951,0.288-1.712,0.396c-0.431,0.063-0.736,0.132-0.914,0.21c-0.179,0.077-0.317,0.19-0.414,0.34
	c-0.097,0.15-0.146,0.316-0.146,0.498c0,0.28,0.105,0.513,0.317,0.699c0.211,0.187,0.521,0.279,0.929,0.279
	c0.404,0,0.763-0.088,1.078-0.265c0.314-0.177,0.545-0.418,0.693-0.726c0.112-0.236,0.169-0.586,0.169-1.048V11.407z"/>
<path fill="#FFFFFF" d="M34.237,13.574l0.151,0.926c-0.295,0.063-0.559,0.093-0.792,0.093c-0.381,0-0.676-0.06-0.885-0.18
	c-0.21-0.121-0.357-0.279-0.443-0.475c-0.085-0.196-0.128-0.609-0.128-1.238V9.143h-0.769V8.327h0.769V6.795l1.042-0.629v2.161
	h1.054v0.815h-1.054v3.616c0,0.299,0.018,0.491,0.055,0.576c0.037,0.086,0.097,0.153,0.181,0.204s0.203,0.076,0.358,0.076
	C33.893,13.615,34.046,13.602,34.237,13.574z"/>
<path fill="#FFFFFF" d="M39.495,12.52l1.083,0.135c-0.171,0.633-0.487,1.124-0.949,1.473c-0.462,0.35-1.052,0.524-1.771,0.524
	c-0.905,0-1.622-0.278-2.152-0.836c-0.53-0.557-0.795-1.338-0.795-2.344c0-1.04,0.268-1.848,0.803-2.423
	c0.536-0.574,1.231-0.861,2.085-0.861c0.827,0,1.503,0.281,2.027,0.844c0.524,0.563,0.786,1.355,0.786,2.376
	c0,0.063-0.002,0.155-0.006,0.28h-4.612c0.039,0.679,0.231,1.199,0.577,1.561c0.345,0.361,0.776,0.542,1.293,0.542
	c0.384,0,0.712-0.102,0.984-0.304C39.121,13.285,39.336,12.963,39.495,12.52z M36.053,10.825h3.454
	c-0.046-0.521-0.179-0.91-0.396-1.171c-0.334-0.403-0.767-0.605-1.299-0.605c-0.481,0-0.886,0.161-1.214,0.483
	S36.088,10.285,36.053,10.825z"/>
<path fill="#FFFFFF" d="M8.746,24.054v-6.185h0.943v0.879c0.455-0.68,1.11-1.019,1.969-1.019c0.373,0,0.715,0.066,1.028,0.2
	s0.546,0.31,0.702,0.527s0.264,0.476,0.326,0.774c0.039,0.194,0.058,0.534,0.058,1.02v3.803h-1.048v-3.762
	c0-0.428-0.041-0.747-0.122-0.958c-0.082-0.212-0.226-0.381-0.434-0.507c-0.208-0.126-0.451-0.189-0.73-0.189
	c-0.447,0-0.832,0.142-1.156,0.425s-0.486,0.821-0.486,1.613v3.378H8.746z"/>
<path fill="#FFFFFF" d="M19.613,22.062l1.083,0.135c-0.171,0.633-0.487,1.124-0.949,1.473c-0.462,0.35-1.052,0.524-1.771,0.524
	c-0.905,0-1.622-0.278-2.152-0.836c-0.53-0.557-0.795-1.338-0.795-2.344c0-1.04,0.268-1.848,0.803-2.423
	c0.536-0.574,1.231-0.861,2.085-0.861c0.827,0,1.503,0.281,2.027,0.844c0.524,0.563,0.786,1.355,0.786,2.376
	c0,0.063-0.002,0.155-0.006,0.28h-4.612c0.039,0.679,0.231,1.199,0.577,1.561c0.345,0.361,0.776,0.542,1.293,0.542
	c0.384,0,0.712-0.102,0.984-0.304C19.238,22.827,19.454,22.505,19.613,22.062z M16.171,20.367h3.454
	c-0.046-0.521-0.179-0.91-0.396-1.171c-0.334-0.403-0.767-0.605-1.299-0.605c-0.481,0-0.886,0.161-1.214,0.483
	S16.206,19.827,16.171,20.367z"/>
<path fill="#FFFFFF" d="M23.154,24.054l-1.893-6.185h1.083l0.984,3.569l0.367,1.328c0.016-0.066,0.123-0.491,0.32-1.275L25,17.869
	h1.077l0.926,3.587l0.309,1.183l0.355-1.194l1.06-3.575h1.019l-1.933,6.185h-1.089L25.74,20.35l-0.239-1.054l-1.252,4.758H23.154z"
	/>
<path fill="#FFFFFF" d="M33.928,24.054v-6.185h0.944v0.938c0.24-0.438,0.463-0.729,0.667-0.868c0.204-0.14,0.428-0.209,0.673-0.209
	c0.353,0,0.712,0.112,1.077,0.337l-0.361,0.973c-0.256-0.151-0.513-0.227-0.769-0.227c-0.229,0-0.435,0.068-0.617,0.206
	c-0.183,0.139-0.313,0.329-0.39,0.574c-0.117,0.373-0.175,0.78-0.175,1.223v3.238H33.928z"/>
<path fill="#FFFFFF" d="M37.521,20.961c0-1.145,0.318-1.993,0.955-2.545c0.532-0.458,1.18-0.687,1.945-0.687
	c0.85,0,1.545,0.278,2.085,0.835c0.54,0.558,0.81,1.327,0.81,2.31c0,0.796-0.12,1.422-0.358,1.878s-0.586,0.811-1.042,1.063
	c-0.456,0.253-0.954,0.379-1.494,0.379c-0.866,0-1.566-0.277-2.1-0.833C37.788,22.806,37.521,22.006,37.521,20.961z M38.599,20.961
	c0,0.792,0.172,1.386,0.518,1.779c0.346,0.395,0.78,0.592,1.305,0.592c0.52,0,0.953-0.198,1.299-0.595
	c0.345-0.396,0.518-0.999,0.518-1.811c0-0.766-0.174-1.345-0.521-1.739c-0.348-0.394-0.78-0.591-1.296-0.591
	c-0.524,0-0.959,0.196-1.305,0.588C38.771,19.577,38.599,20.169,38.599,20.961z"/>
<path fill="#FFFFFF" d="M44.154,20.961c0-1.145,0.318-1.993,0.955-2.545c0.532-0.458,1.18-0.687,1.945-0.687
	c0.85,0,1.545,0.278,2.085,0.835c0.54,0.558,0.81,1.327,0.81,2.31c0,0.796-0.12,1.422-0.358,1.878s-0.586,0.811-1.042,1.063
	c-0.456,0.253-0.954,0.379-1.494,0.379c-0.866,0-1.566-0.277-2.1-0.833C44.421,22.806,44.154,22.006,44.154,20.961z M45.232,20.961
	c0,0.792,0.172,1.386,0.518,1.779c0.346,0.395,0.78,0.592,1.305,0.592c0.52,0,0.953-0.198,1.299-0.595
	c0.345-0.396,0.518-0.999,0.518-1.811c0-0.766-0.174-1.345-0.521-1.739c-0.348-0.394-0.78-0.591-1.296-0.591
	c-0.524,0-0.959,0.196-1.305,0.588C45.404,19.577,45.232,20.169,45.232,20.961z"/>
<path fill="#FFFFFF" d="M51.178,24.054v-6.185h0.938v0.867c0.194-0.303,0.453-0.546,0.775-0.73s0.689-0.276,1.101-0.276
	c0.458,0,0.833,0.095,1.127,0.285c0.293,0.19,0.5,0.456,0.62,0.798c0.489-0.723,1.126-1.083,1.91-1.083
	c0.613,0,1.085,0.17,1.416,0.509c0.329,0.34,0.494,0.863,0.494,1.57v4.245h-1.042v-3.896c0-0.419-0.034-0.721-0.102-0.905
	c-0.068-0.185-0.191-0.333-0.37-0.445s-0.388-0.169-0.629-0.169c-0.435,0-0.796,0.145-1.083,0.434
	c-0.288,0.289-0.431,0.752-0.431,1.389v3.594h-1.048v-4.019c0-0.466-0.085-0.815-0.256-1.048c-0.171-0.233-0.45-0.35-0.838-0.35
	c-0.295,0-0.568,0.077-0.818,0.232s-0.432,0.383-0.544,0.682c-0.113,0.299-0.169,0.73-0.169,1.293v3.209H51.178z"/>
<path fill="#FFFFFF" d="M85.934,8.878h-6.362c-2.635,0-4.771,2.136-4.771,4.771l-0.003,3.376c0,2.635,2.136,4.771,4.771,4.771h1.533
	l0.853,3.975l2.071-3.975h1.905c2.635,0,4.771-2.136,4.771-4.771l0.003-3.376C90.704,11.014,88.568,8.878,85.934,8.878z"/>
<polygon fill="#52CAF5" points="87.501,14.187 83.93,14.187 83.93,10.615 81.357,10.615 81.357,14.187 77.789,14.187 77.789,16.759 
	81.357,16.759 81.357,20.327 83.93,20.327 83.93,16.759 87.501,16.759 "/>
<rect x="99.4" display="none" fill="#FFF200" width="2" height="33"/>
<rect display="none" fill="#FFF200" width="2" height="33"/>
</svg>
