<?xml version="1.0" encoding="utf-8"?>
<svg version="1.1"
	 xmlns="http://www.w3.org/2000/svg" xmlns:xlink="http://www.w3.org/1999/xlink"
	 x="0px" y="0px" width="101px" height="33px" viewBox="0 0 101 33">
<defs>
</defs>
<rect x="1.998" fill="#C8691C" width="97.404" height="33"/>
<rect x="1.998" fill="#F79523" width="97.404" height="16.7"/>
<path fill="#56CAF5" d="M93.043,22.065c0,2.635,0.249,4.771-2.386,4.771H74.754c-2.635,0-2.386-2.136-2.386-4.771V10.935
	c0-2.635-0.249-4.771,2.386-4.771h15.903c2.635,0,2.386,2.136,2.386,4.771V22.065z"/>
<path fill="#FFFFFF" d="M85.934,8.878h-6.362c-2.635,0-4.771,2.136-4.771,4.771l-0.003,3.376c0,2.635,2.136,4.771,4.771,4.771h1.533
	l0.853,3.975l2.071-3.975h1.905c2.635,0,4.771-2.136,4.771-4.771l0.003-3.376C90.704,11.014,88.568,8.878,85.934,8.878z"/>
<polygon fill="#52CAF5" points="87.501,14.187 83.93,14.187 83.93,10.615 81.357,10.615 81.357,14.187 77.789,14.187 77.789,16.759 
	81.357,16.759 81.357,20.327 83.93,20.327 83.93,16.759 87.501,16.759 "/>
<path fill="#FFFFFF" d="M12.096,10.813l-1.353,0.244c-0.045-0.27-0.149-0.473-0.31-0.609s-0.37-0.205-0.627-0.205
	c-0.342,0-0.614,0.117-0.818,0.354s-0.305,0.631-0.305,1.184c0,0.615,0.104,1.051,0.31,1.305s0.484,0.381,0.833,0.381
	c0.26,0,0.474-0.074,0.64-0.223s0.283-0.402,0.352-0.764l1.348,0.229c-0.14,0.619-0.409,1.086-0.806,1.402
	c-0.397,0.314-0.929,0.473-1.597,0.473c-0.758,0-1.363-0.238-1.814-0.717s-0.676-1.141-0.676-1.988c0-0.855,0.226-1.521,0.679-2
	C8.403,9.4,9.015,9.162,9.787,9.162c0.631,0,1.134,0.137,1.506,0.408S11.934,10.256,12.096,10.813z"/>
<path fill="#FFFFFF" d="M14.45,14.465h-1.372V9.279h1.274v0.738c0.218-0.35,0.414-0.578,0.588-0.689
	c0.174-0.109,0.372-0.166,0.593-0.166c0.313,0,0.614,0.086,0.903,0.26l-0.425,1.195c-0.231-0.148-0.446-0.225-0.645-0.225
	c-0.192,0-0.355,0.053-0.488,0.158c-0.133,0.107-0.238,0.299-0.315,0.574c-0.077,0.277-0.115,0.857-0.115,1.738V14.465z"/>
<path fill="#FFFFFF" d="M20.031,12.814l1.367,0.23c-0.176,0.5-0.453,0.883-0.833,1.145s-0.854,0.393-1.423,0.393
	c-0.902,0-1.569-0.295-2.002-0.883c-0.342-0.473-0.513-1.068-0.513-1.787c0-0.859,0.225-1.533,0.674-2.02s1.017-0.73,1.704-0.73
	c0.771,0,1.38,0.256,1.826,0.764c0.446,0.51,0.659,1.291,0.64,2.342h-3.438c0.01,0.408,0.121,0.725,0.332,0.949
	c0.211,0.227,0.475,0.34,0.791,0.34c0.215,0,0.396-0.059,0.542-0.176S19.956,13.076,20.031,12.814z M20.109,11.428
	c-0.01-0.396-0.112-0.699-0.308-0.906c-0.195-0.205-0.433-0.309-0.713-0.309c-0.299,0-0.547,0.109-0.742,0.326
	c-0.195,0.219-0.292,0.516-0.288,0.889H20.109z"/>
<path fill="#FFFFFF" d="M23.615,10.861l-1.245-0.225c0.14-0.5,0.381-0.871,0.723-1.113c0.342-0.24,0.85-0.361,1.523-0.361
	c0.612,0,1.068,0.072,1.367,0.217c0.299,0.146,0.51,0.33,0.632,0.553s0.183,0.633,0.183,1.229l-0.015,1.602
	c0,0.455,0.022,0.791,0.066,1.008s0.126,0.449,0.247,0.695h-1.357c-0.036-0.09-0.08-0.227-0.132-0.404
	c-0.023-0.082-0.039-0.135-0.049-0.162c-0.234,0.229-0.485,0.398-0.752,0.514c-0.267,0.113-0.552,0.17-0.854,0.17
	c-0.534,0-0.955-0.145-1.262-0.434c-0.308-0.291-0.461-0.656-0.461-1.1c0-0.293,0.07-0.555,0.21-0.783
	c0.14-0.23,0.336-0.406,0.588-0.527c0.252-0.123,0.616-0.229,1.091-0.32c0.641-0.119,1.085-0.232,1.333-0.336v-0.137
	c0-0.264-0.065-0.453-0.195-0.564c-0.13-0.113-0.376-0.168-0.737-0.168c-0.244,0-0.435,0.047-0.571,0.143
	C23.81,10.453,23.699,10.621,23.615,10.861z M25.451,11.975c-0.176,0.059-0.454,0.129-0.835,0.211
	c-0.381,0.08-0.63,0.16-0.747,0.238c-0.179,0.127-0.269,0.289-0.269,0.484c0,0.191,0.072,0.357,0.215,0.498
	c0.143,0.139,0.326,0.209,0.547,0.209c0.248,0,0.483-0.08,0.708-0.244c0.166-0.123,0.275-0.275,0.327-0.453
	c0.036-0.117,0.054-0.34,0.054-0.67V11.975z"/>
<path fill="#FFFFFF" d="M30.529,9.279v1.094h-0.938v2.09c0,0.424,0.009,0.67,0.027,0.74s0.059,0.127,0.122,0.174
	c0.063,0.045,0.141,0.068,0.232,0.068c0.127,0,0.311-0.045,0.552-0.133l0.117,1.064c-0.319,0.137-0.68,0.205-1.084,0.205
	c-0.248,0-0.47-0.041-0.669-0.125c-0.199-0.082-0.344-0.189-0.437-0.322c-0.093-0.131-0.157-0.309-0.193-0.533
	c-0.029-0.16-0.044-0.482-0.044-0.967v-2.262h-0.63V9.279h0.63V8.25l1.377-0.801v1.83H30.529z"/>
<path fill="#FFFFFF" d="M34.484,12.814l1.367,0.23c-0.176,0.5-0.453,0.883-0.833,1.145s-0.854,0.393-1.423,0.393
	c-0.902,0-1.569-0.295-2.002-0.883c-0.342-0.473-0.513-1.068-0.513-1.787c0-0.859,0.225-1.533,0.674-2.02s1.017-0.73,1.704-0.73
	c0.771,0,1.38,0.256,1.826,0.764c0.446,0.51,0.659,1.291,0.64,2.342h-3.438c0.01,0.408,0.121,0.725,0.332,0.949
	c0.211,0.227,0.475,0.34,0.791,0.34c0.215,0,0.396-0.059,0.542-0.176S34.409,13.076,34.484,12.814z M34.562,11.428
	c-0.01-0.396-0.112-0.699-0.308-0.906c-0.195-0.205-0.433-0.309-0.713-0.309c-0.299,0-0.547,0.109-0.742,0.326
	c-0.195,0.219-0.292,0.516-0.288,0.889H34.562z"/>
<path fill="#FFFFFF" d="M12.292,23.465h-1.372v-2.646c0-0.559-0.029-0.922-0.088-1.086s-0.154-0.293-0.286-0.383
	c-0.132-0.092-0.291-0.137-0.476-0.137c-0.238,0-0.451,0.064-0.64,0.195c-0.189,0.129-0.318,0.303-0.388,0.518
	s-0.105,0.611-0.105,1.191v2.348H7.565v-5.186h1.274v0.762c0.453-0.586,1.022-0.879,1.709-0.879c0.303,0,0.58,0.055,0.83,0.164
	s0.44,0.248,0.569,0.418c0.128,0.168,0.218,0.361,0.269,0.576s0.076,0.521,0.076,0.922V23.465z"/>
<path fill="#FFFFFF" d="M16.686,21.814l1.367,0.23c-0.176,0.5-0.453,0.883-0.833,1.145s-0.854,0.393-1.423,0.393
	c-0.902,0-1.569-0.295-2.002-0.883c-0.342-0.473-0.513-1.068-0.513-1.787c0-0.859,0.225-1.533,0.674-2.02s1.017-0.73,1.704-0.73
	c0.771,0,1.38,0.256,1.826,0.764c0.446,0.51,0.659,1.291,0.64,2.342h-3.438c0.01,0.408,0.121,0.725,0.332,0.949
	c0.211,0.227,0.475,0.34,0.791,0.34c0.215,0,0.396-0.059,0.542-0.176S16.611,22.076,16.686,21.814z M16.764,20.428
	c-0.01-0.396-0.112-0.699-0.308-0.906c-0.195-0.205-0.433-0.309-0.713-0.309c-0.299,0-0.547,0.109-0.742,0.326
	c-0.195,0.219-0.292,0.516-0.288,0.889H16.764z"/>
<path fill="#FFFFFF" d="M20.211,23.465l-1.641-5.186h1.333l0.972,3.398l0.894-3.398h1.323l0.864,3.398l0.991-3.398H26.3
	l-1.665,5.186h-1.318l-0.894-3.334l-0.879,3.334H20.211z"/>
<path fill="#FFFFFF" d="M31.115,23.465h-1.372v-5.186h1.274v0.738c0.218-0.35,0.414-0.578,0.588-0.689
	c0.174-0.109,0.372-0.166,0.593-0.166c0.313,0,0.614,0.086,0.903,0.26l-0.425,1.195c-0.231-0.148-0.446-0.225-0.645-0.225
	c-0.192,0-0.355,0.053-0.488,0.158c-0.133,0.107-0.238,0.299-0.315,0.574c-0.077,0.277-0.115,0.857-0.115,1.738V23.465z"/>
<path fill="#FFFFFF" d="M33.375,20.799c0-0.455,0.112-0.896,0.337-1.322c0.225-0.428,0.543-0.752,0.955-0.977
	s0.872-0.338,1.379-0.338c0.785,0,1.427,0.256,1.929,0.764c0.501,0.51,0.752,1.154,0.752,1.932c0,0.785-0.253,1.436-0.759,1.951
	s-1.144,0.773-1.912,0.773c-0.475,0-0.929-0.107-1.36-0.322s-0.759-0.529-0.984-0.945C33.488,21.9,33.375,21.395,33.375,20.799z
	 M34.782,20.873c0,0.514,0.122,0.908,0.366,1.182s0.545,0.41,0.903,0.41s0.658-0.137,0.901-0.41s0.364-0.672,0.364-1.191
	c0-0.508-0.121-0.898-0.364-1.172s-0.543-0.41-0.901-0.41s-0.659,0.137-0.903,0.41S34.782,20.357,34.782,20.873z"/>
<path fill="#FFFFFF" d="M39.484,20.799c0-0.455,0.112-0.896,0.337-1.322c0.225-0.428,0.543-0.752,0.955-0.977
	s0.872-0.338,1.379-0.338c0.785,0,1.427,0.256,1.929,0.764c0.501,0.51,0.752,1.154,0.752,1.932c0,0.785-0.253,1.436-0.759,1.951
	s-1.144,0.773-1.912,0.773c-0.475,0-0.929-0.107-1.36-0.322s-0.759-0.529-0.984-0.945C39.596,21.9,39.484,21.395,39.484,20.799z
	 M40.89,20.873c0,0.514,0.122,0.908,0.366,1.182s0.545,0.41,0.903,0.41s0.658-0.137,0.901-0.41s0.364-0.672,0.364-1.191
	c0-0.508-0.121-0.898-0.364-1.172s-0.543-0.41-0.901-0.41s-0.659,0.137-0.903,0.41S40.89,20.357,40.89,20.873z"/>
<path fill="#FFFFFF" d="M45.807,18.279h1.265v0.709c0.453-0.551,0.991-0.826,1.616-0.826c0.332,0,0.62,0.068,0.864,0.205
	s0.444,0.344,0.601,0.621c0.228-0.277,0.474-0.484,0.737-0.621s0.545-0.205,0.845-0.205c0.381,0,0.703,0.078,0.967,0.232
	s0.46,0.381,0.591,0.682c0.094,0.221,0.142,0.578,0.142,1.074v3.314h-1.372v-2.963c0-0.516-0.047-0.848-0.142-0.996
	c-0.127-0.195-0.322-0.293-0.586-0.293c-0.192,0-0.373,0.059-0.542,0.176s-0.292,0.289-0.366,0.514
	c-0.075,0.227-0.112,0.584-0.112,1.072v2.49h-1.372v-2.842c0-0.504-0.024-0.83-0.073-0.977s-0.125-0.256-0.227-0.326
	c-0.103-0.072-0.242-0.107-0.417-0.107c-0.211,0-0.402,0.057-0.571,0.17c-0.169,0.115-0.291,0.279-0.364,0.494
	s-0.11,0.57-0.11,1.068v2.52h-1.372V18.279z"/>
</svg>
