<?xml version="1.0" encoding="utf-8"?>
<!-- Generator: Adobe Illustrator 15.0.0, SVG Export Plug-In  -->
<!DOCTYPE svg PUBLIC "-//W3C//DTD SVG 1.1//EN" "http://www.w3.org/Graphics/SVG/1.1/DTD/svg11.dtd" [
	<!ENTITY ns_flows "http://ns.adobe.com/Flows/1.0/">
]>
<svg version="1.1"
	 xmlns="http://www.w3.org/2000/svg" xmlns:xlink="http://www.w3.org/1999/xlink" xmlns:a="http://ns.adobe.com/AdobeSVGViewerExtensions/3.0/"
	 x="0px" y="0px" width="82px" height="35px" viewBox="0 -3 82 35" enable-background="new 0 -3 82 35" xml:space="preserve">
<defs>
</defs>
<rect fill="#C8691C" width="82" height="27.781"/>
<rect fill="#F79523" width="82" height="14.06"/>
<path fill="#52CAF5" d="M79.146,19.817c0,2.729,0.259,4.939-2.469,4.939H60.211c-2.726,0-2.47-2.211-2.47-4.939V8.296
	c0-2.729-0.256-4.938,2.47-4.938h16.468c2.728,0,2.469,2.21,2.469,4.938L79.146,19.817L79.146,19.817z"/>
<path fill="#FFFFFF" d="M7.873,9.938l1.037,0.135c-0.113,0.715-0.403,1.274-0.87,1.679S7,12.358,6.32,12.358
	c-0.852,0-1.536-0.278-2.054-0.835S3.49,10.169,3.49,9.13c0-0.672,0.111-1.26,0.334-1.764s0.562-0.882,1.017-1.134
	s0.95-0.378,1.485-0.378c0.676,0,1.229,0.171,1.658,0.513s0.705,0.827,0.826,1.456L7.785,7.981C7.688,7.563,7.515,7.249,7.267,7.038
	S6.719,6.722,6.367,6.722c-0.531,0-0.963,0.19-1.295,0.571S4.574,8.276,4.574,9.101c0,0.836,0.16,1.443,0.48,1.822
	s0.738,0.568,1.254,0.568c0.414,0,0.76-0.127,1.037-0.381S7.799,10.466,7.873,9.938z"/>
<path fill="#FFFFFF" d="M9.801,12.218V5.995h0.949v0.943c0.242-0.441,0.466-0.732,0.671-0.873s0.431-0.211,0.677-0.211
	c0.355,0,0.717,0.113,1.084,0.34l-0.363,0.979c-0.258-0.152-0.516-0.229-0.773-0.229c-0.23,0-0.438,0.069-0.621,0.208
	s-0.314,0.331-0.393,0.577c-0.117,0.375-0.176,0.785-0.176,1.23v3.258H9.801z"/>
<path fill="#FFFFFF" d="M18.068,10.214l1.09,0.135c-0.172,0.637-0.49,1.131-0.955,1.482s-1.059,0.527-1.781,0.527
	c-0.91,0-1.632-0.28-2.165-0.841s-0.8-1.347-0.8-2.358c0-1.047,0.27-1.859,0.809-2.438s1.238-0.867,2.098-0.867
	c0.832,0,1.512,0.283,2.039,0.85s0.791,1.363,0.791,2.391c0,0.063-0.002,0.156-0.006,0.281h-4.641
	c0.039,0.684,0.232,1.207,0.58,1.57s0.781,0.545,1.301,0.545c0.387,0,0.717-0.102,0.99-0.305S17.908,10.659,18.068,10.214z
	 M14.605,8.509h3.475c-0.047-0.523-0.18-0.916-0.398-1.178c-0.336-0.406-0.771-0.609-1.307-0.609c-0.484,0-0.892,0.162-1.222,0.486
	S14.641,7.966,14.605,8.509z"/>
<path fill="#FFFFFF" d="M24.543,11.45c-0.391,0.332-0.767,0.566-1.128,0.703s-0.749,0.205-1.163,0.205
	c-0.684,0-1.209-0.167-1.576-0.501s-0.551-0.761-0.551-1.28c0-0.305,0.069-0.583,0.208-0.835s0.32-0.454,0.545-0.606
	s0.478-0.268,0.759-0.346c0.207-0.055,0.52-0.107,0.938-0.158c0.852-0.102,1.479-0.223,1.881-0.363
	c0.004-0.145,0.006-0.236,0.006-0.275c0-0.43-0.1-0.732-0.299-0.908c-0.27-0.238-0.67-0.357-1.201-0.357
	c-0.496,0-0.862,0.087-1.099,0.261s-0.411,0.481-0.524,0.923l-1.031-0.141c0.094-0.441,0.248-0.798,0.463-1.069
	s0.525-0.48,0.932-0.627s0.877-0.22,1.412-0.22c0.531,0,0.963,0.063,1.295,0.188s0.576,0.282,0.732,0.472s0.266,0.429,0.328,0.718
	c0.035,0.18,0.053,0.504,0.053,0.973V9.61c0,0.98,0.022,1.601,0.067,1.86s0.134,0.509,0.267,0.747h-1.102
	C24.645,11.999,24.574,11.743,24.543,11.45z M24.455,9.095c-0.383,0.156-0.957,0.289-1.723,0.398
	c-0.434,0.063-0.74,0.133-0.92,0.211s-0.318,0.192-0.416,0.343s-0.146,0.317-0.146,0.501c0,0.281,0.106,0.516,0.319,0.703
	s0.524,0.281,0.935,0.281c0.406,0,0.768-0.089,1.084-0.267s0.549-0.421,0.697-0.729c0.113-0.238,0.17-0.59,0.17-1.055V9.095z"/>
<path fill="#FFFFFF" d="M29.459,11.274l0.152,0.932c-0.297,0.063-0.563,0.094-0.797,0.094c-0.383,0-0.68-0.061-0.891-0.182
	s-0.359-0.28-0.445-0.478s-0.129-0.612-0.129-1.245v-3.58h-0.773v-0.82h0.773V4.454l1.049-0.633v2.174h1.061v0.82h-1.061v3.639
	c0,0.301,0.019,0.494,0.056,0.58s0.098,0.154,0.182,0.205s0.204,0.076,0.36,0.076C29.113,11.315,29.268,11.302,29.459,11.274z"/>
<path fill="#FFFFFF" d="M34.75,10.214l1.09,0.135c-0.172,0.637-0.49,1.131-0.955,1.482s-1.059,0.527-1.781,0.527
	c-0.91,0-1.632-0.28-2.165-0.841s-0.8-1.347-0.8-2.358c0-1.047,0.27-1.859,0.809-2.438s1.238-0.867,2.098-0.867
	c0.832,0,1.512,0.283,2.039,0.85s0.791,1.363,0.791,2.391c0,0.063-0.002,0.156-0.006,0.281h-4.641
	c0.039,0.684,0.232,1.207,0.58,1.57s0.781,0.545,1.301,0.545c0.387,0,0.717-0.102,0.99-0.305S34.59,10.659,34.75,10.214z
	 M31.287,8.509h3.475c-0.047-0.523-0.18-0.916-0.398-1.178c-0.336-0.406-0.771-0.609-1.307-0.609c-0.484,0-0.892,0.162-1.222,0.486
	S31.322,7.966,31.287,8.509z"/>
<path fill="#FFFFFF" d="M3.813,20.249v-6.223h0.949v0.885c0.457-0.684,1.117-1.025,1.98-1.025c0.375,0,0.72,0.067,1.034,0.202
	s0.55,0.312,0.706,0.53s0.266,0.479,0.328,0.779c0.039,0.195,0.059,0.537,0.059,1.025v3.826H7.814v-3.785
	c0-0.43-0.041-0.751-0.123-0.964s-0.228-0.383-0.437-0.51S6.801,14.8,6.52,14.8c-0.449,0-0.837,0.143-1.163,0.428
	s-0.489,0.826-0.489,1.623v3.398H3.813z"/>
<path fill="#FFFFFF" d="M14.746,18.245l1.09,0.135c-0.172,0.637-0.49,1.131-0.955,1.482S13.822,20.39,13.1,20.39
	c-0.91,0-1.632-0.28-2.165-0.841s-0.8-1.347-0.8-2.358c0-1.047,0.27-1.859,0.809-2.438s1.238-0.867,2.098-0.867
	c0.832,0,1.512,0.283,2.039,0.85s0.791,1.363,0.791,2.391c0,0.063-0.002,0.156-0.006,0.281h-4.641
	c0.039,0.684,0.232,1.207,0.58,1.57s0.781,0.545,1.301,0.545c0.387,0,0.717-0.102,0.99-0.305S14.586,18.69,14.746,18.245z
	 M11.283,16.54h3.475c-0.047-0.523-0.18-0.916-0.398-1.178c-0.336-0.406-0.771-0.609-1.307-0.609c-0.484,0-0.892,0.162-1.222,0.486
	S11.318,15.997,11.283,16.54z"/>
<path fill="#FFFFFF" d="M18.309,20.249l-1.904-6.223h1.09l0.99,3.592l0.369,1.336c0.016-0.066,0.123-0.494,0.322-1.283l0.99-3.645
	h1.084l0.932,3.609l0.311,1.189l0.357-1.201l1.066-3.598h1.025l-1.945,6.223H21.9l-0.99-3.727l-0.24-1.061l-1.26,4.787H18.309z"/>
<path fill="#FFFFFF" d="M29.148,20.249v-6.223h0.949v0.943c0.242-0.441,0.466-0.732,0.671-0.873s0.431-0.211,0.677-0.211
	c0.355,0,0.717,0.113,1.084,0.34l-0.363,0.979c-0.258-0.152-0.516-0.229-0.773-0.229c-0.23,0-0.438,0.069-0.621,0.208
	s-0.314,0.331-0.393,0.577c-0.117,0.375-0.176,0.785-0.176,1.23v3.258H29.148z"/>
<path fill="#FFFFFF" d="M32.764,17.138c0-1.152,0.32-2.006,0.961-2.561c0.535-0.461,1.188-0.691,1.957-0.691
	c0.855,0,1.555,0.28,2.098,0.841s0.814,1.335,0.814,2.323c0,0.801-0.12,1.431-0.36,1.89s-0.59,0.815-1.049,1.069
	s-0.96,0.381-1.503,0.381c-0.871,0-1.575-0.279-2.112-0.838S32.764,18.188,32.764,17.138z M33.848,17.138
	c0,0.797,0.174,1.394,0.521,1.79s0.785,0.595,1.313,0.595c0.523,0,0.959-0.199,1.307-0.598s0.521-1.006,0.521-1.822
	c0-0.77-0.175-1.353-0.524-1.749s-0.784-0.595-1.304-0.595c-0.527,0-0.965,0.197-1.313,0.592S33.848,16.341,33.848,17.138z"/>
<path fill="#FFFFFF" d="M39.438,17.138c0-1.152,0.32-2.006,0.961-2.561c0.535-0.461,1.188-0.691,1.957-0.691
	c0.855,0,1.555,0.28,2.098,0.841s0.814,1.335,0.814,2.323c0,0.801-0.12,1.431-0.36,1.89s-0.59,0.815-1.049,1.069
	s-0.96,0.381-1.503,0.381c-0.871,0-1.575-0.279-2.112-0.838S39.438,18.188,39.438,17.138z M40.521,17.138
	c0,0.797,0.174,1.394,0.521,1.79s0.785,0.595,1.313,0.595c0.523,0,0.959-0.199,1.307-0.598s0.521-1.006,0.521-1.822
	c0-0.77-0.175-1.353-0.524-1.749s-0.784-0.595-1.304-0.595c-0.527,0-0.965,0.197-1.313,0.592S40.521,16.341,40.521,17.138z"/>
<path fill="#FFFFFF" d="M46.504,20.249v-6.223h0.943v0.873c0.195-0.305,0.455-0.55,0.779-0.735s0.693-0.278,1.107-0.278
	c0.461,0,0.839,0.096,1.134,0.287s0.503,0.459,0.624,0.803c0.492-0.727,1.133-1.09,1.922-1.09c0.617,0,1.092,0.171,1.424,0.513
	s0.498,0.868,0.498,1.579v4.271h-1.049v-3.92c0-0.422-0.034-0.726-0.103-0.911s-0.192-0.335-0.372-0.448s-0.391-0.17-0.633-0.17
	c-0.438,0-0.801,0.146-1.09,0.437s-0.434,0.757-0.434,1.397v3.615h-1.055v-4.043c0-0.469-0.086-0.82-0.258-1.055
	S49.49,14.8,49.1,14.8c-0.297,0-0.571,0.078-0.823,0.234s-0.435,0.385-0.548,0.686s-0.17,0.734-0.17,1.301v3.229H46.504z"/>
<path fill="#FFFFFF" d="M71.785,6.166h-6.587c-2.728,0-4.939,2.211-4.939,4.939V14.6c0,2.727,2.209,4.938,4.938,4.938h1.588
	l0.881,4.114l2.145-4.114h1.975c2.726,0,4.937-2.211,4.937-4.938l0.005-3.496C76.726,8.377,74.514,6.166,71.785,6.166z"/>
<polygon fill="#52CAF5" points="73.41,11.662 69.712,11.662 69.712,7.965 67.048,7.965 67.048,11.662 63.355,11.662 63.355,14.325 
	67.048,14.325 67.048,18.019 69.712,18.019 69.712,14.325 73.41,14.325 "/>
</svg>
