<?xml version="1.0" encoding="utf-8"?>
<!-- Generator: Adobe Illustrator 15.0.0, SVG Export Plug-In  -->
<!DOCTYPE svg PUBLIC "-//W3C//DTD SVG 1.1//EN" "http://www.w3.org/Graphics/SVG/1.1/DTD/svg11.dtd" [
	<!ENTITY ns_flows "http://ns.adobe.com/Flows/1.0/">
]>
<svg version="1.1"
	 xmlns="http://www.w3.org/2000/svg" xmlns:xlink="http://www.w3.org/1999/xlink" xmlns:a="http://ns.adobe.com/AdobeSVGViewerExtensions/3.0/"
	 x="0px" y="0px" width="101px" height="33px" viewBox="0 0 101 33" enable-background="new 0 0 101 33" xml:space="preserve">
<defs>
</defs>
<rect x="99.401" display="none" fill="#FFF200" width="2" height="33"/>
<rect display="none" fill="#FFF200" width="2" height="33"/>
<rect x="1.999" fill="#C8691C" width="97.404" height="33"/>
<rect x="1.999" fill="#F79523" width="97.404" height="16.698"/>
<path display="none" fill="#F1F2F2" d="M93.043,22.065c0,2.635,0.249,4.771-2.386,4.771H74.754c-2.635,0-2.386-2.136-2.386-4.771
	V10.935c0-2.635-0.249-4.771,2.386-4.771h15.903c2.635,0,2.386,2.136,2.386,4.771V22.065z"/>
<path fill="#FFFFFF" d="M9.889,19.282l-1.893-6.185h1.083l0.984,3.569l0.367,1.328c0.016-0.066,0.123-0.491,0.32-1.275l0.984-3.622
	h1.077l0.926,3.587l0.309,1.183l0.355-1.194l1.06-3.575h1.019l-1.933,6.185h-1.089l-0.984-3.704l-0.239-1.054l-1.252,4.758H9.889z"
	/>
<path fill="#FFFFFF" d="M17.36,19.282v-8.538h1.048v3.063c0.489-0.566,1.106-0.85,1.852-0.85c0.458,0,0.856,0.09,1.194,0.271
	s0.58,0.43,0.725,0.748s0.218,0.78,0.218,1.387v3.919H21.35v-3.919c0-0.524-0.113-0.906-0.34-1.145
	c-0.228-0.239-0.549-0.358-0.964-0.358c-0.311,0-0.603,0.08-0.876,0.241c-0.274,0.161-0.469,0.38-0.585,0.655
	c-0.117,0.276-0.175,0.656-0.175,1.142v3.384H17.36z"/>
<path fill="#FFFFFF" d="M24,11.95v-1.206h1.048v1.206H24z M24,19.282v-6.185h1.048v6.185H24z"/>
<path fill="#FFFFFF" d="M26.224,17.437l1.037-0.163c0.059,0.415,0.221,0.733,0.486,0.955c0.266,0.221,0.638,0.332,1.115,0.332
	c0.481,0,0.839-0.099,1.072-0.295c0.233-0.195,0.35-0.426,0.35-0.689c0-0.237-0.103-0.424-0.309-0.56
	c-0.144-0.093-0.5-0.211-1.071-0.355c-0.769-0.193-1.302-0.361-1.599-0.503c-0.297-0.143-0.522-0.338-0.676-0.589
	c-0.153-0.25-0.23-0.526-0.23-0.83c0-0.275,0.063-0.53,0.189-0.766c0.126-0.234,0.298-0.43,0.515-0.585
	c0.163-0.12,0.385-0.223,0.667-0.306c0.281-0.084,0.583-0.125,0.906-0.125c0.485,0,0.911,0.069,1.278,0.209
	c0.367,0.14,0.638,0.329,0.813,0.568c0.174,0.238,0.295,0.558,0.361,0.958l-1.025,0.14c-0.047-0.318-0.182-0.567-0.405-0.746
	c-0.223-0.178-0.539-0.268-0.946-0.268c-0.481,0-0.825,0.08-1.031,0.239c-0.206,0.159-0.309,0.346-0.309,0.559
	c0,0.136,0.042,0.259,0.128,0.367c0.085,0.112,0.219,0.206,0.402,0.279c0.105,0.039,0.414,0.128,0.926,0.268
	c0.742,0.198,1.259,0.36,1.552,0.486c0.293,0.127,0.523,0.311,0.69,0.551c0.167,0.241,0.25,0.54,0.25,0.896
	c0,0.35-0.102,0.679-0.306,0.987S30.557,19,30.173,19.169s-0.819,0.253-1.305,0.253c-0.804,0-1.416-0.167-1.837-0.501
	S26.341,18.092,26.224,17.437z"/>
<path fill="#FFFFFF" d="M32.607,21.652v-8.555h0.955v0.804c0.225-0.314,0.479-0.551,0.763-0.708
	c0.283-0.157,0.627-0.235,1.031-0.235c0.528,0,0.994,0.136,1.397,0.407s0.708,0.655,0.915,1.15c0.206,0.495,0.309,1.037,0.309,1.628
	c0,0.633-0.114,1.202-0.341,1.709s-0.557,0.895-0.99,1.165c-0.433,0.27-0.888,0.404-1.366,0.404c-0.35,0-0.663-0.073-0.941-0.221
	c-0.277-0.148-0.505-0.334-0.684-0.56v3.011H32.607z M33.557,16.225c0,0.796,0.161,1.384,0.483,1.765s0.712,0.571,1.171,0.571
	c0.466,0,0.865-0.197,1.197-0.592c0.332-0.394,0.498-1.005,0.498-1.831c0-0.788-0.162-1.379-0.486-1.771
	c-0.324-0.393-0.711-0.589-1.162-0.589c-0.446,0-0.841,0.209-1.185,0.627C33.729,14.822,33.557,15.429,33.557,16.225z"/>
<path fill="#FFFFFF" d="M43.474,17.29l1.083,0.135c-0.171,0.633-0.487,1.124-0.949,1.473c-0.462,0.35-1.052,0.524-1.771,0.524
	c-0.905,0-1.622-0.278-2.152-0.836c-0.53-0.557-0.795-1.338-0.795-2.344c0-1.04,0.268-1.848,0.803-2.423
	c0.536-0.574,1.231-0.861,2.085-0.861c0.827,0,1.503,0.281,2.027,0.844c0.524,0.563,0.786,1.355,0.786,2.376
	c0,0.063-0.002,0.155-0.006,0.28h-4.612c0.039,0.679,0.231,1.199,0.577,1.561c0.345,0.361,0.776,0.542,1.293,0.542
	c0.384,0,0.712-0.102,0.984-0.304C43.1,18.056,43.315,17.733,43.474,17.29z M40.032,15.596h3.454
	c-0.046-0.521-0.179-0.91-0.396-1.171c-0.334-0.403-0.767-0.605-1.299-0.605c-0.481,0-0.886,0.161-1.214,0.483
	S40.067,15.056,40.032,15.596z"/>
<path fill="#FFFFFF" d="M45.862,19.282v-6.185h0.944v0.938c0.24-0.438,0.463-0.729,0.667-0.868c0.204-0.14,0.428-0.209,0.673-0.209
	c0.353,0,0.712,0.112,1.077,0.337l-0.361,0.973c-0.256-0.151-0.513-0.227-0.769-0.227c-0.229,0-0.435,0.068-0.617,0.206
	c-0.183,0.139-0.313,0.329-0.39,0.574c-0.117,0.373-0.175,0.78-0.175,1.223v3.238H45.862z"/>
<path fill="#56CAF5" d="M92.877,22.023c0,2.642,0.25,4.784-2.392,4.784H74.543c-2.64,0-2.391-2.143-2.391-4.784V10.866
	c0-2.641-0.25-4.781,2.391-4.781h15.942c2.64,0,2.392,2.141,2.392,4.781V22.023z"/>
<g>
	<polyline fill="none" stroke="#FFFFFF" stroke-miterlimit="10" points="74.757,12.017 74.757,11.168 75.606,11.168 	"/>
</g>
<g>
	<g>
		<line fill="none" stroke="#FFFFFF" stroke-miterlimit="10" x1="77.171" y1="11.168" x2="78.671" y2="11.168"/>
		
			<line fill="none" stroke="#FFFFFF" stroke-miterlimit="10" stroke-dasharray="2.915,0.9717" x1="79.643" y1="11.168" x2="86.93" y2="11.168"/>
		<line fill="none" stroke="#FFFFFF" stroke-miterlimit="10" x1="87.417" y1="11.168" x2="88.917" y2="11.168"/>
	</g>
</g>
<g>
	<polyline fill="none" stroke="#FFFFFF" stroke-miterlimit="10" points="89.699,11.168 90.547,11.168 90.547,12.017 	"/>
</g>
<g>
	<g>
		<line fill="none" stroke="#FFFFFF" stroke-miterlimit="10" x1="90.547" y1="14.011" x2="90.547" y2="15.511"/>
		
			<line fill="none" stroke="#FFFFFF" stroke-miterlimit="10" stroke-dasharray="2.3871,0.7957" x1="90.547" y1="16.307" x2="90.547" y2="19.092"/>
		<line fill="none" stroke="#FFFFFF" stroke-miterlimit="10" x1="90.547" y1="19.489" x2="90.547" y2="20.989"/>
	</g>
</g>
<g>
	<polyline fill="none" stroke="#FFFFFF" stroke-miterlimit="10" points="90.547,21.983 90.547,22.832 89.699,22.832 	"/>
</g>
<g>
	<g>
		<line fill="none" stroke="#FFFFFF" stroke-miterlimit="10" x1="88.133" y1="22.832" x2="86.633" y2="22.832"/>
		
			<line fill="none" stroke="#FFFFFF" stroke-miterlimit="10" stroke-dasharray="2.9147,0.9716" x1="85.662" y1="22.832" x2="78.375" y2="22.832"/>
		<line fill="none" stroke="#FFFFFF" stroke-miterlimit="10" x1="77.889" y1="22.832" x2="76.389" y2="22.832"/>
	</g>
</g>
<g>
	<polyline fill="none" stroke="#FFFFFF" stroke-miterlimit="10" points="75.606,22.832 74.757,22.832 74.757,21.983 	"/>
</g>
<g>
	<g>
		<line fill="none" stroke="#FFFFFF" stroke-miterlimit="10" x1="74.757" y1="19.99" x2="74.757" y2="18.49"/>
		
			<line fill="none" stroke="#FFFFFF" stroke-miterlimit="10" stroke-dasharray="2.3859,0.7953" x1="74.757" y1="17.695" x2="74.757" y2="14.911"/>
		<line fill="none" stroke="#FFFFFF" stroke-miterlimit="10" x1="74.757" y1="14.514" x2="74.757" y2="13.014"/>
	</g>
</g>
<g>
	
		<line fill="none" stroke="#FFFFFF" stroke-miterlimit="10" stroke-dasharray="0.8492" x1="74.717" y1="11.829" x2="75.45" y2="12.259"/>
</g>
<g>
	<g>
		<line fill="none" stroke="#FFFFFF" stroke-miterlimit="10" x1="76.767" y1="13.029" x2="78.062" y2="13.787"/>
		<line fill="none" stroke="#FFFFFF" stroke-miterlimit="10" x1="80.09" y1="14.975" x2="81.385" y2="15.732"/>
	</g>
</g>
<g>
	<polyline fill="none" stroke="#FFFFFF" stroke-miterlimit="10" points="82.044,16.118 82.778,16.547 83.475,16.063 	"/>
</g>
<g>
	<g>
		<line fill="none" stroke="#FFFFFF" stroke-miterlimit="10" x1="84.75" y1="15.181" x2="85.983" y2="14.327"/>
		<line fill="none" stroke="#FFFFFF" stroke-miterlimit="10" x1="87.98" y1="12.946" x2="89.213" y2="12.093"/>
	</g>
</g>
<g>
	
		<line fill="none" stroke="#FFFFFF" stroke-miterlimit="10" stroke-dasharray="0.8492" x1="89.849" y1="11.651" x2="90.547" y2="11.168"/>
</g>
</svg>
