<?xml version="1.0" encoding="utf-8"?>
<svg version="1.1"
	 xmlns="http://www.w3.org/2000/svg" xmlns:xlink="http://www.w3.org/1999/xlink"
	 x="0px" y="0px" width="101px" height="33px" viewBox="0 0 101 33">
<defs>
</defs>
<rect x="1.999" fill="#C8691C" width="97.404" height="33"/>
<rect x="1.999" fill="#F79523" width="97.404" height="16.698"/>
<path fill="#56CAF5" d="M92.877,22.023c0,2.642,0.25,4.784-2.392,4.784H74.543c-2.64,0-2.391-2.143-2.391-4.784V10.866
	c0-2.641-0.25-4.781,2.391-4.781h15.942c2.64,0,2.392,2.141,2.392,4.781V22.023z"/>
<g>
	<polyline fill="none" stroke="#FFFFFF" stroke-miterlimit="10" points="74.757,12.017 74.757,11.168 75.606,11.168 	"/>
</g>
<g>
	<g>
		<line fill="none" stroke="#FFFFFF" stroke-miterlimit="10" x1="77.171" y1="11.168" x2="78.671" y2="11.168"/>
		
			<line fill="none" stroke="#FFFFFF" stroke-miterlimit="10" stroke-dasharray="2.915,0.9717" x1="79.643" y1="11.168" x2="86.93" y2="11.168"/>
		<line fill="none" stroke="#FFFFFF" stroke-miterlimit="10" x1="87.417" y1="11.168" x2="88.917" y2="11.168"/>
	</g>
</g>
<g>
	<polyline fill="none" stroke="#FFFFFF" stroke-miterlimit="10" points="89.699,11.168 90.547,11.168 90.547,12.017 	"/>
</g>
<g>
	<g>
		<line fill="none" stroke="#FFFFFF" stroke-miterlimit="10" x1="90.547" y1="14.011" x2="90.547" y2="15.511"/>
		
			<line fill="none" stroke="#FFFFFF" stroke-miterlimit="10" stroke-dasharray="2.3871,0.7957" x1="90.547" y1="16.307" x2="90.547" y2="19.092"/>
		<line fill="none" stroke="#FFFFFF" stroke-miterlimit="10" x1="90.547" y1="19.489" x2="90.547" y2="20.989"/>
	</g>
</g>
<g>
	<polyline fill="none" stroke="#FFFFFF" stroke-miterlimit="10" points="90.547,21.983 90.547,22.832 89.699,22.832 	"/>
</g>
<g>
	<g>
		<line fill="none" stroke="#FFFFFF" stroke-miterlimit="10" x1="88.133" y1="22.832" x2="86.633" y2="22.832"/>
		
			<line fill="none" stroke="#FFFFFF" stroke-miterlimit="10" stroke-dasharray="2.9147,0.9716" x1="85.662" y1="22.832" x2="78.375" y2="22.832"/>
		<line fill="none" stroke="#FFFFFF" stroke-miterlimit="10" x1="77.889" y1="22.832" x2="76.389" y2="22.832"/>
	</g>
</g>
<g>
	<polyline fill="none" stroke="#FFFFFF" stroke-miterlimit="10" points="75.606,22.832 74.757,22.832 74.757,21.983 	"/>
</g>
<g>
	<g>
		<line fill="none" stroke="#FFFFFF" stroke-miterlimit="10" x1="74.757" y1="19.99" x2="74.757" y2="18.49"/>
		
			<line fill="none" stroke="#FFFFFF" stroke-miterlimit="10" stroke-dasharray="2.3859,0.7953" x1="74.757" y1="17.695" x2="74.757" y2="14.911"/>
		<line fill="none" stroke="#FFFFFF" stroke-miterlimit="10" x1="74.757" y1="14.514" x2="74.757" y2="13.014"/>
	</g>
</g>
<g>
	
		<line fill="none" stroke="#FFFFFF" stroke-miterlimit="10" stroke-dasharray="0.8492" x1="74.717" y1="11.829" x2="75.45" y2="12.259"/>
</g>
<g>
	<g>
		<line fill="none" stroke="#FFFFFF" stroke-miterlimit="10" x1="76.767" y1="13.029" x2="78.062" y2="13.787"/>
		<line fill="none" stroke="#FFFFFF" stroke-miterlimit="10" x1="80.09" y1="14.975" x2="81.385" y2="15.732"/>
	</g>
</g>
<g>
	<polyline fill="none" stroke="#FFFFFF" stroke-miterlimit="10" points="82.044,16.118 82.778,16.547 83.475,16.063 	"/>
</g>
<g>
	<g>
		<line fill="none" stroke="#FFFFFF" stroke-miterlimit="10" x1="84.75" y1="15.181" x2="85.983" y2="14.327"/>
		<line fill="none" stroke="#FFFFFF" stroke-miterlimit="10" x1="87.98" y1="12.946" x2="89.213" y2="12.093"/>
	</g>
</g>
<g>
	
		<line fill="none" stroke="#FFFFFF" stroke-miterlimit="10" stroke-dasharray="0.8492" x1="89.849" y1="11.651" x2="90.547" y2="11.168"/>
</g>
<path fill="#FFFFFF" d="M8.298,19.214l-1.641-5.186H7.99l0.972,3.398l0.894-3.398h1.323l0.864,3.398l0.991-3.398h1.353l-1.665,5.186
	h-1.318L10.51,15.88l-0.879,3.334H8.298z"/>
<path fill="#FFFFFF" d="M16.477,12.056v2.633c0.443-0.518,0.972-0.777,1.587-0.777c0.316,0,0.601,0.059,0.854,0.176
	s0.445,0.268,0.574,0.449c0.128,0.184,0.216,0.385,0.264,0.605c0.047,0.223,0.071,0.564,0.071,1.031v3.041h-1.372v-2.738
	c0-0.545-0.026-0.889-0.078-1.035s-0.144-0.264-0.276-0.35s-0.297-0.129-0.496-0.129c-0.228,0-0.431,0.055-0.61,0.166
	c-0.179,0.109-0.31,0.277-0.393,0.5s-0.125,0.553-0.125,0.988v2.598h-1.372v-7.158H16.477z"/>
<path fill="#FFFFFF" d="M21.218,13.325v-1.27h1.372v1.27H21.218z M21.218,19.214v-5.186h1.372v5.186H21.218z"/>
<path fill="#FFFFFF" d="M23.513,17.735l1.377-0.211c0.059,0.268,0.177,0.471,0.356,0.607c0.179,0.139,0.43,0.209,0.752,0.209
	c0.355,0,0.622-0.066,0.801-0.195c0.121-0.092,0.181-0.213,0.181-0.367c0-0.104-0.033-0.189-0.098-0.258
	c-0.068-0.066-0.221-0.125-0.459-0.182c-1.107-0.244-1.808-0.467-2.104-0.668c-0.41-0.281-0.615-0.67-0.615-1.168
	c0-0.449,0.177-0.826,0.532-1.133c0.355-0.305,0.905-0.459,1.65-0.459c0.709,0,1.237,0.115,1.582,0.348
	c0.345,0.23,0.583,0.572,0.713,1.025l-1.294,0.238c-0.055-0.201-0.16-0.355-0.315-0.463s-0.375-0.162-0.662-0.162
	c-0.361,0-0.62,0.051-0.776,0.152c-0.104,0.07-0.156,0.164-0.156,0.277c0,0.098,0.045,0.182,0.137,0.25
	c0.124,0.09,0.551,0.219,1.282,0.385s1.241,0.369,1.531,0.611c0.287,0.244,0.43,0.584,0.43,1.02c0,0.477-0.199,0.885-0.596,1.227
	s-0.985,0.512-1.763,0.512c-0.707,0-1.266-0.143-1.677-0.43C23.909,18.616,23.64,18.226,23.513,17.735z"/>
<path fill="#FFFFFF" d="M29.519,14.028h1.279v0.762c0.166-0.26,0.391-0.471,0.674-0.635c0.283-0.162,0.597-0.244,0.942-0.244
	c0.602,0,1.113,0.236,1.533,0.709c0.42,0.471,0.63,1.129,0.63,1.973c0,0.865-0.211,1.539-0.635,2.018
	c-0.423,0.48-0.936,0.721-1.538,0.721c-0.287,0-0.546-0.057-0.779-0.17c-0.233-0.115-0.478-0.311-0.735-0.586v2.611h-1.372V14.028z
	 M30.876,16.534c0,0.582,0.116,1.012,0.347,1.291c0.231,0.277,0.513,0.418,0.845,0.418c0.319,0,0.584-0.129,0.796-0.385
	c0.211-0.254,0.317-0.674,0.317-1.256c0-0.545-0.109-0.947-0.327-1.211s-0.488-0.396-0.811-0.396c-0.335,0-0.614,0.129-0.835,0.389
	C30.987,15.642,30.876,16.026,30.876,16.534z"/>
<path fill="#FFFFFF" d="M38.669,17.563l1.367,0.23c-0.176,0.5-0.453,0.883-0.833,1.145s-0.854,0.393-1.423,0.393
	c-0.902,0-1.569-0.295-2.002-0.883c-0.342-0.473-0.513-1.068-0.513-1.787c0-0.859,0.225-1.533,0.674-2.02s1.017-0.73,1.704-0.73
	c0.771,0,1.38,0.256,1.826,0.764c0.446,0.51,0.659,1.291,0.64,2.342h-3.438c0.01,0.408,0.121,0.725,0.332,0.949
	c0.211,0.227,0.475,0.34,0.791,0.34c0.215,0,0.396-0.059,0.542-0.176S38.594,17.825,38.669,17.563z M38.747,16.177
	c-0.01-0.396-0.112-0.699-0.308-0.906c-0.195-0.205-0.433-0.309-0.713-0.309c-0.299,0-0.547,0.109-0.742,0.326
	c-0.195,0.219-0.292,0.516-0.288,0.889H38.747z"/>
<path fill="#FFFFFF" d="M42.541,19.214h-1.372v-5.186h1.274v0.738c0.218-0.35,0.414-0.578,0.588-0.689
	c0.174-0.109,0.372-0.166,0.593-0.166c0.313,0,0.614,0.086,0.903,0.26l-0.425,1.195c-0.231-0.148-0.446-0.225-0.645-0.225
	c-0.192,0-0.355,0.053-0.488,0.158c-0.133,0.107-0.238,0.299-0.315,0.574c-0.077,0.277-0.115,0.857-0.115,1.738V19.214z"/>
</svg>
