<?xml version="1.0" encoding="utf-8"?>
<!-- Generator: Adobe Illustrator 16.0.0, SVG Export Plug-In . SVG Version: 6.00 Build 0)  -->
<!DOCTYPE svg PUBLIC "-//W3C//DTD SVG 1.1//EN" "http://www.w3.org/Graphics/SVG/1.1/DTD/svg11.dtd">
<svg version="1.1" xmlns="http://www.w3.org/2000/svg" xmlns:xlink="http://www.w3.org/1999/xlink" x="0px" y="0px"
	 width="48px" height="48px" viewBox="0 0 48 48" xml:space="preserve">
<polygon points="29.396,22.284 29.396,25.914 34.023,25.925 34.023,22.292 	"/>
<polygon points="43.431,4.993 9.104,4.954 9.104,1.599 43.431,1.635 	"/>
<path d="M13.73,34.952c0,1.03,0.462,1.684,1.357,1.684c1.004,0,2.063-1.275,2.307-2.852l0.38-2.578
    c-0.217-0.056-0.516-0.108-0.841-0.108C15.141,31.098,13.73,32.862,13.73,34.952z"/>
<path d="M24.778,21.681H6.93c-1.303,0-2.361,0.976-2.361,2.177v20.368c0,1.2,1.058,2.176,2.361,2.176h17.848
    c1.304,0,2.36-0.976,2.36-2.176V23.857C27.139,22.657,26.084,21.681,24.778,21.681z M19.946,38.833
    c-1.275,0-2.199-0.678-2.335-2.09h-0.054c-0.868,1.356-2.063,2.09-3.528,2.09c-1.737,0-3.04-1.328-3.04-3.555
    c0-3.341,2.47-6.324,6.379-6.324c1.193,0,2.551,0.299,3.229,0.649l-0.814,5.05c-0.271,1.603-0.081,2.336,0.679,2.36
    c1.167,0.056,2.633-1.438,2.633-4.587c0-3.557-2.279-6.27-6.487-6.27c-4.18,0-7.789,3.229-7.789,8.439
    c0,4.561,2.876,7.109,6.921,7.109c1.385,0,2.877-0.297,3.963-0.84l0.487,1.549c-1.629,0.733-3.04,0.979-4.994,0.979
    c-4.506,0-8.469-3.229-8.469-8.549c0-5.538,4.045-10.343,10.151-10.343c4.805,0,8.225,3.284,8.225,7.845
    C25.104,36.337,22.877,38.833,19.946,38.833z"/>
<polygon points="26.76,13.631 9.084,1.599 9.084,19.208 13.456,19.208 13.456,8.7 26.723,18.057 39.052,8.7 39.052,38.925 
    39.05,38.925 29.396,38.925 29.396,43.351 43.427,43.351 43.427,1.599 	"/>
<polygon points="29.396,30.303 29.396,33.935 34.023,33.944 34.023,30.313 	"/>
</svg>
