<?xml version="1.0" encoding="utf-8"?>
<!DOCTYPE svg PUBLIC "-//W3C//DTD SVG 1.1//EN" "http://www.w3.org/Graphics/SVG/1.1/DTD/svg11.dtd" [
	<!ENTITY ns_flows "http://ns.adobe.com/Flows/1.0/">
]>
<svg version="1.1"
	 xmlns="http://www.w3.org/2000/svg" x="0px" y="0px" width="48px" height="48px" viewBox="-2.473 -3.238 48 48">
<defs>
</defs>
<path d="M30.164,13.672c0,5.691-4.381,10.295-9.787,10.295c-5.412,0-9.792-4.604-9.792-10.295c0-5.685,4.38-10.293,9.792-10.293
	C25.783,3.379,30.164,7.988,30.164,13.672z"/>
<path d="M25.158,33.352c0-2.181,0.727-4.187,1.939-5.809c-1.88,0.477-4.199,0.762-6.721,0.762c-6.234,0-11.286-1.722-11.286-3.833
	c0-0.149,0.032-0.298,0.08-0.44C4.287,27.213,0.83,32.417,0,38.459h26.619C25.699,36.975,25.158,35.229,25.158,33.352z"/>
<path d="M34.882,25.18c-4.513,0-8.172,3.659-8.172,8.172c0,4.514,3.659,8.172,8.172,8.172c4.514,0,8.173-3.658,8.173-8.172
	C43.055,28.839,39.396,25.18,34.882,25.18z M35.262,40.11h-1.648v-2.074h1.648V40.11z M39.268,31.813
	c-0.131,0.338-0.306,0.641-0.521,0.903c-0.217,0.269-0.461,0.509-0.725,0.726c-0.269,0.217-0.537,0.431-0.81,0.644
	c-0.231,0.185-0.463,0.376-0.688,0.575c-0.225,0.197-0.42,0.416-0.59,0.648c-0.172,0.233-0.309,0.498-0.412,0.793
	c-0.103,0.295-0.153,0.618-0.153,0.973v0.172H33.91c-0.014-0.205-0.021-0.363-0.021-0.469c0-0.482,0.07-0.918,0.213-1.31
	c0.144-0.391,0.336-0.733,0.582-1.032c0.244-0.297,0.51-0.562,0.797-0.787c0.287-0.228,0.568-0.447,0.847-0.66
	c0.19-0.148,0.373-0.303,0.543-0.459c0.17-0.154,0.319-0.32,0.453-0.497c0.131-0.179,0.231-0.37,0.309-0.581
	c0.074-0.209,0.111-0.445,0.111-0.707c0-0.313-0.066-0.594-0.197-0.842s-0.315-0.457-0.553-0.627
	c-0.238-0.172-0.521-0.303-0.853-0.395c-0.33-0.093-0.697-0.14-1.102-0.14c-0.533,0-1.057,0.067-1.57,0.202
	c-0.513,0.136-0.973,0.295-1.379,0.479V28.02c0.383-0.205,0.846-0.373,1.391-0.502c0.541-0.127,1.086-0.189,1.633-0.189
	c0.675,0,1.279,0.078,1.814,0.238s0.99,0.387,1.365,0.681c0.373,0.295,0.664,0.646,0.867,1.055c0.203,0.406,0.304,0.864,0.304,1.366
	C39.464,31.095,39.398,31.475,39.268,31.813z"/>
<path d="M33.531,10.103c-0.281,0-0.541,0.079-0.77,0.206C32.277,4.918,28.459,0.062,20.405,0C12.988-0.055,8.59,4.936,8.05,10.364
	c-0.25-0.164-0.549-0.261-0.871-0.261c-0.879,0-1.592,0.713-1.592,1.593v4.773c0,0.881,0.713,1.594,1.592,1.594
	c0.759,0,1.391-0.532,1.55-1.243l0.494,0.145v-4.457c0-5.115,3.103-11.075,11.176-10.999c8.914,0.085,11.19,5.883,11.19,10.999
	v4.457l0.4-0.117c0.002,0.008,0.005,0.015,0.007,0.022l-0.551,2.472c-0.271,1.224-0.844,2.319-1.633,3.194
	c-0.267-0.318-0.627-0.563-1.062-0.663c-1.063-0.247-2.121,0.411-2.367,1.471c-0.245,1.061,0.41,2.116,1.472,2.363
	c1.061,0.247,2.117-0.411,2.365-1.471c0.006-0.021,0.004-0.037,0.008-0.059c1.125-1.014,1.963-2.368,2.317-3.961l0.498-2.237
	c0.154,0.05,0.316,0.084,0.487,0.084c0.881,0,1.594-0.713,1.594-1.594v-4.773C35.125,10.816,34.412,10.103,33.531,10.103z"/>
</svg>
