<?xml version="1.0" encoding="utf-8"?>
<!-- Generator: Adobe Illustrator 15.0.0, SVG Export Plug-In  -->
<!DOCTYPE svg PUBLIC "-//W3C//DTD SVG 1.1//EN" "http://www.w3.org/Graphics/SVG/1.1/DTD/svg11.dtd" [
	<!ENTITY ns_flows "http://ns.adobe.com/Flows/1.0/">
]>
<svg version="1.1"
	 xmlns="http://www.w3.org/2000/svg" x="0px" y="0px" width="48px" height="48px" viewBox="-3.062 -2.905 48 48">
<defs>
</defs>
<path d="M33.657,19.634l-6.297-3.463c0.709-1.116,1.126-2.436,1.126-3.856c0-3.978-3.227-7.204-7.206-7.204
	c-3.981,0-7.203,3.226-7.203,7.204c0,1.301,0.349,2.519,0.952,3.572l-6.473,3.747v12.23l12.229,6.006l12.872-6.006L33.657,19.634
	L33.657,19.634z M21.281,7.474c2.672,0,4.842,2.167,4.842,4.841c0,2.677-2.17,4.846-4.842,4.846c-2.673,0-4.842-2.169-4.842-4.846
	C16.439,9.641,18.608,7.474,21.281,7.474z M31.15,29.917l-10.365,4.735l-9.406-4.601l-0.141-8.809l5.593-3.267
	c1.225,0.965,2.768,1.546,4.45,1.546c1.609,0,3.089-0.534,4.289-1.425l5.581,2.835V29.917z"/>
<polygon points="13.856,38.639 3.317,38.639 3.317,3.554 13.856,3.554 13.856,0 0,0 0,42.189 13.856,42.189 "/>
<polygon points="28.02,38.639 38.561,38.639 38.561,3.554 28.02,3.554 28.02,0 41.877,0 41.877,42.189 28.02,42.189 "/>
</svg>
