<?xml version="1.0" encoding="utf-8"?>
<!DOCTYPE svg PUBLIC "-//W3C//DTD SVG 1.1//EN" "http://www.w3.org/Graphics/SVG/1.1/DTD/svg11.dtd" [
	<!ENTITY ns_flows "http://ns.adobe.com/Flows/1.0/">
]>
<svg version="1.1"
	 xmlns="http://www.w3.org/2000/svg" x="0px" y="0px" width="48px" height="48px" viewBox="-4.707 -4.726 48 48">
<defs>
</defs>
<path d="M19.254,4.792c-7.991,0-14.479,6.488-14.479,14.479c0,7.992,6.488,14.561,14.56,14.48c7.991,0,14.479-6.488,14.479-14.48
	C33.813,11.28,27.247,4.792,19.254,4.792z M14.494,29.573c0.192-2.311,2.15-4.141,4.526-4.275l-1.526-12.125l1.8-4.2l1.8,4.2
	l-1.527,12.125c2.376,0.135,4.333,1.965,4.527,4.275H14.494z"/>
<path d="M3.338,17.862c0.003-0.012,0.002-0.028,0.005-0.04H3.312C4.015,10.136,10.19,3.994,17.884,3.296V0
	C8.29,0.706,0.694,8.266,0,17.862H3.338z"/>
<path d="M3.313,20.682H0.014c0.71,9.563,8.299,17.186,17.87,17.855v-3.283C10.114,34.604,4,28.446,3.313,20.682z"/>
<path d="M35.278,17.822h-0.035c0,0.014,0.004,0.026,0.004,0.04h3.34C37.893,8.266,30.297,0.706,20.704,0v3.296
	C28.399,3.994,34.573,10.136,35.278,17.822z"/>
<path d="M35.276,20.682c-0.695,7.73-6.84,13.873-14.572,14.568v3.297c9.535-0.715,17.154-8.332,17.869-17.865H35.276z"/>
</svg>
