<?xml version="1.0" encoding="utf-8"?>
<!-- Generator: Adobe Illustrator 15.0.0, SVG Export Plug-In  -->
<!DOCTYPE svg PUBLIC "-//W3C//DTD SVG 1.1//EN" "http://www.w3.org/Graphics/SVG/1.1/DTD/svg11.dtd" [
	<!ENTITY ns_flows "http://ns.adobe.com/Flows/1.0/">
]>
<svg version="1.1"
	 xmlns="http://www.w3.org/2000/svg" x="0px" y="0px" width="32px" height="32px" viewBox="-2.979 -0.663 32 32">
<defs>
</defs>
<path d="M13.022,7.421c0-0.001,0-0.001-0.002-0.002v0.002C9.605,10.517,0,8.659,0,8.659c0,19.434,12.877,21.987,13.021,22.014v0.002
	l0.002-0.002c0.143-0.027,13.021-2.58,13.021-22.014C26.043,8.659,16.438,10.517,13.022,7.421z M13.019,10.015
	c0,0,0.003,0.008,0.003,0.009c2.618,2.375,10.418,0.968,10.418,0.968c-0.098,4.274-1.098,7.523-2.441,9.982L2.805,12.4
	c-0.031-0.478-0.055-0.965-0.062-1.47C2.743,10.93,10.401,12.389,13.019,10.015z M8.107,24.927l5.963,2.725
	c-0.627,0.293-1.026,0.414-1.048,0.418C12.969,28.06,10.572,27.308,8.107,24.927z M17.176,25.658L4.493,19.681
	c-0.441-1.004-0.819-2.123-1.111-3.363l15.87,7.246C18.568,24.396,17.859,25.089,17.176,25.658z"/>
<path d="M13.021,4.763h0.002c2.246,2.036,7.155,1.928,10.263,1.617c-0.561-0.671-1.352-1.102-2.244-1.102
	c-0.492,0-0.955,0.14-1.367,0.368c-0.695-1.117-1.855-1.851-3.174-1.851c-0.092,0-0.182,0.023-0.273,0.031
	C15.752,1.635,13.981,0,11.857,0C9.717,0,7.934,1.657,7.476,3.873C7.25,3.827,7.021,3.795,6.785,3.795
	c-1.604,0-2.977,1.087-3.555,2.631C6.345,6.697,10.889,6.695,13.021,4.763z"/>
</svg>
