<?xml version="1.0" encoding="utf-8"?>
<!-- Generator: Adobe Illustrator 15.0.0, SVG Export Plug-In  -->
<!DOCTYPE svg PUBLIC "-//W3C//DTD SVG 1.1//EN" "http://www.w3.org/Graphics/SVG/1.1/DTD/svg11.dtd" [
	<!ENTITY ns_flows "http://ns.adobe.com/Flows/1.0/">
]>
<svg version="1.1"
	 xmlns="http://www.w3.org/2000/svg" x="0px" y="0px" width="48px" height="48px" viewBox="-4.4 -4.522 48 48">
<defs>
</defs>
<polygon points="26,19.578 16.9,25.677 16.9,13.478 "/>
<path d="M37.5,16.278H34.7c-0.199-1-0.5-2-0.9-2.9l2.301-1.6c0.801-0.5,1-1.6,0.4-2.4l-1.701-2.4c-0.5-0.8-1.6-1-2.398-0.4l-2.4,1.7
	c-0.701-0.7-1.5-1.3-2.4-1.8l1-2.7c0.301-0.9-0.1-1.9-1-2.2l-2.699-1c-0.9-0.3-1.9,0.1-2.201,1l-1,2.7c-0.699-0.1-1.4-0.2-2.1-0.2
	c-0.3,0-0.5,0-0.8,0l-0.8-2.8c-0.2-0.9-1.2-1.5-2.1-1.2l-2.8,0.8c-0.9,0.2-1.5,1.2-1.2,2.1l0.8,2.8c-0.9,0.4-1.7,1-2.5,1.6l-2.3-1.9
	c-0.7-0.6-1.8-0.5-2.4,0.3l-1.8,2.2c-0.7,0.7-0.6,1.8,0.2,2.4l2.1,1.8c-0.7,1.3-1.2,2.6-1.5,4.1H1.7c-0.9,0-1.7,0.8-1.7,1.7v2.9
	c0,0.9,0.8,1.699,1.7,1.699h2.7c0.2,1,0.5,2,0.9,3l-2.2,1.5c-0.8,0.5-1,1.6-0.4,2.4l1.7,2.4c0.5,0.799,1.6,1,2.4,0.4l2.2-1.5
	c0.8,0.699,1.6,1.398,2.5,1.898l-0.9,2.5c-0.3,0.9,0.1,1.9,1,2.201l2.7,1c0.9,0.299,1.9-0.1,2.2-1l0.9-2.4
	c0.7,0.1,1.5,0.199,2.2,0.199c0.3,0,0.6,0,0.9,0l0.699,2.5c0.2,0.9,1.2,1.5,2.1,1.201l2.801-0.801c0.9-0.199,1.5-1.199,1.199-2.1
	l-0.699-2.5c0.9-0.5,1.801-1,2.6-1.699l2,1.699c0.701,0.6,1.801,0.5,2.4-0.199l1.9-2.201c0.6-0.699,0.5-1.799-0.201-2.4l-2-1.699
	c0.701-1.301,1.201-2.699,1.5-4.199H37.5c1,0,1.699-0.801,1.699-1.701v-2.899C39.2,17.078,38.5,16.278,37.5,16.278 M19.6,29.078
	c-5.3,0-9.6-4.299-9.6-9.6c0-5.3,4.3-9.6,9.6-9.6c5.301,0,9.6,4.3,9.6,9.6C29.2,24.779,24.901,29.078,19.6,29.078"/>
</svg>
