<?xml version="1.0" encoding="utf-8"?>
<!-- Generator: Adobe Illustrator 15.0.0, SVG Export Plug-In  -->
<!DOCTYPE svg PUBLIC "-//W3C//DTD SVG 1.1//EN" "http://www.w3.org/Graphics/SVG/1.1/DTD/svg11.dtd" [
	<!ENTITY ns_flows "http://ns.adobe.com/Flows/1.0/">
]>
<svg version="1.1"
	 xmlns="http://www.w3.org/2000/svg" x="0px" y="0px" width="48px" height="48px" viewBox="-4.5 -4.5 48 48"
	 xml:space="preserve">
<defs>
</defs>
<path d="M19.5,0L19.5,0v3.3l0,0c8.7,0,15.8,6.8,16.2,15.4H39C38.6,8.3,30,0,19.5,0"/>
<path d="M19.5,35.7c-8.9,0-16.2-7.3-16.2-16.2c0-0.5,0-1,0.1-1.4H0.1C0,18.5,0,19,0,19.5C0,30.3,8.7,39,19.5,39V35.7z"/>
<path d="M25.7,20v6.5h8.1V20H25.7z M32.7,25.5h-5.9V21h5.9V25.5z"/>
<path d="M20.7,17.7h8v2.2h1.1v-2.2v-1v-0.1h-9.1v-2.1h3.5V7.9h-8.1v6.6h3.5v2.1H9.9v0.1v1v2.2H6.4v6.6h8.1v-6.6H11v-2.2h8.6V20H16
	v6.5h8.1V20H20.7V17.7z M13.4,21v4.5H7.5V21H13.4z M17.2,13.5V9H23.1v4.5H17.2z M23,21v4.5h-5.9V21H23z"/>
</svg>
