<?xml version="1.0" encoding="utf-8"?>
<!-- Generator: Adobe Illustrator 15.0.0, SVG Export Plug-In  -->
<!DOCTYPE svg PUBLIC "-//W3C//DTD SVG 1.1//EN" "http://www.w3.org/Graphics/SVG/1.1/DTD/svg11.dtd" [
	<!ENTITY ns_flows "http://ns.adobe.com/Flows/1.0/">
]>
<svg version="1.1"
	 xmlns="http://www.w3.org/2000/svg" xmlns:xlink="http://www.w3.org/1999/xlink" xmlns:a="http://ns.adobe.com/AdobeSVGViewerExtensions/3.0/"
	 x="0px" y="0px" width="48px" height="48px" viewBox="-3.27 -2.242 48 48"
	 xml:space="preserve">
<defs>
</defs>
<path d="M38.166,0H3.293C1.475,0,0,1.476,0,3.293v2.426h41.46V3.293C41.46,1.476,39.983,0,38.166,0z M22.671,4.111H3.879
	C3.09,4.111,2.45,3.552,2.45,2.86c0-0.69,0.64-1.251,1.429-1.251h18.792c0.787,0,1.428,0.56,1.428,1.251
	C24.099,3.552,23.458,4.111,22.671,4.111z M38.396,3.881c-0.564,0-1.021-0.458-1.021-1.021c0-0.564,0.457-1.021,1.021-1.021
	s1.02,0.456,1.02,1.021C39.416,3.423,38.96,3.881,38.396,3.881z"/>
<path d="M0,7.523v31.702c0,1.818,1.475,3.291,3.293,3.291h34.873c1.817,0,3.295-1.473,3.295-3.291V7.523H0z M13.275,35.32H1.838
	V22.25h11.437V35.32z M39.621,35.164H15.113v-4.9h24.508V35.164z M39.621,28.58H15.113v-6.127h24.508V28.58z M39.823,20.615H1.838
	V9.994h37.985V20.615z"/>
</svg>
