<?xml version="1.0" encoding="utf-8"?>
<!-- Generator: Adobe Illustrator 15.0.0, SVG Export Plug-In  -->
<!DOCTYPE svg PUBLIC "-//W3C//DTD SVG 1.1//EN" "http://www.w3.org/Graphics/SVG/1.1/DTD/svg11.dtd" [
	<!ENTITY ns_flows "http://ns.adobe.com/Flows/1.0/">
]>
<svg version="1.1"
	 xmlns="http://www.w3.org/2000/svg" x="0px" y="0px" width="48px" height="48px" viewBox="-4.05 -8.1 48 48">
<defs>
</defs>
<path d="M39.9,16.2v-2H36.3V5.7H26.064v4.51c1.178,0.363,1.315,1.853,1.315,4.19l-0.039,14.126c0,1.391-0.254,2.471-0.66,3.273H36.3
	v-8.5H39.9v-2H36.3v-5.1H39.9z"/>
<path d="M4.4,5.7v8.5H0v2h4.4v5.1H0v2h4.4v8.5h9.808c-0.658-0.773-1.101-1.84-1.101-3.016l0.47-9.178
	c0-1.964,0.798-3.055,1.161-3.327V5.7H4.4z"/>
<path d="M18.091,5.7v10.489c1.325,0.279,1.18,1.398,1.18,3.449l0.47,9.178c0,1.168-0.349,2.221-0.911,2.984h3.264
	c-0.406-0.803-0.659-1.883-0.659-3.273l0.281-14.148c0-2.829,0.453-3.896,1.268-4.259V5.7H18.091z"/>
<path d="M18.2,20.1c0-1.307-0.456-2.081-1.3-2.259V3.7l0.4-1.4L16.9,0H16l-0.4,2.2L16,3.7v14.173c-0.777,0.219-1.2,0.976-1.2,2.227
	L14.5,28.5c0,1.5,0.9,2.701,2,2.701s2-1.201,2-2.701L18.2,20.1z"/>
<path d="M27.491,1.003c-0.082-0.012-0.168-0.014-0.259-0.004C27.212,1,27.2,1,27.2,1h-5.301c-0.033,0-0.065,0.02-0.1,0.023V0.7h-1.4
	v3h1.4V3.378c0.035,0.003,0.064,0.021,0.1,0.021H24v8.388c-0.845,0.267-1.3,1.196-1.3,3.112l-0.301,12.301c0,2.199,0.9,4,2,4
	c1.101,0,2.001-1.801,2.001-4l0.026-12.279c0-1.583-0.271-2.809-1.227-3.134V3.4h1.667c0.115,0.052,0.252,0.09,0.433,0.1
	c1.5,0,1.5,0,1.7,0.2c0.1,0.1,0.2,1.7,0.2,1.7L29.6,4.6c0,0-0.199-0.8,0-2.2C29.758,1.211,28.162,1.028,27.491,1.003z"/>
<path d="M13.198,22.226c0,0,1.502-0.525,3.102-0.525c1.9,0,3.513,0.879,3.513,0.879v2c0,0-1.813-0.879-3.513-0.879
	c-1.7,0-3.102,0.426-3.102,0.426V22.226z"/>
<path d="M20.99,22.265c0,0,1.61-0.564,3.21-0.564c1.899,0,3.857,0.916,3.857,0.916v2c0,0-2.157-0.916-3.857-0.916
	s-3.21,0.464-3.21,0.464V22.265z"/>
</svg>
