<?xml version="1.0" encoding="utf-8"?>
<!-- Generator: Adobe Illustrator 15.0.0, SVG Export Plug-In  -->
<!DOCTYPE svg PUBLIC "-//W3C//DTD SVG 1.1//EN" "http://www.w3.org/Graphics/SVG/1.1/DTD/svg11.dtd" [
	<!ENTITY ns_flows "http://ns.adobe.com/Flows/1.0/">
]>
<svg version="1.1"
	 xmlns="http://www.w3.org/2000/svg" xmlns:xlink="http://www.w3.org/1999/xlink" xmlns:a="http://ns.adobe.com/AdobeSVGViewerExtensions/3.0/"
	 x="0px" y="0px" width="48px" height="48px" viewBox="-3.55 -3.09 48 48"
	 xml:space="preserve">
<defs>
</defs>
<path d="M18.3,15c1.9,2,2.3,2.3,4.301,0.3c0,0,8.999-9.5,14.8-15.3H3.5C3.469,0,3.44,0.009,3.409,0.009C9.21,5.81,18.3,15,18.3,15z"
	/>
<path d="M38.14,0.086c-0.026-0.006-0.052-0.012-0.077-0.018C38.088,0.074,38.113,0.081,38.14,0.086z"/>
<path d="M38.754,0.283c-0.005-0.002-0.01-0.004-0.015-0.006C38.744,0.279,38.749,0.28,38.754,0.283z"/>
<polygon points="23.5,34.62 23.5,23.221 17.4,23.221 17.4,34.62 13.301,34.62 20.4,41.82 27.6,34.62 "/>
<path d="M39.111,0.479c0.064,0.037,0.124,0.083,0.187,0.124c0-0.001,0.001-0.002,0.002-0.003C39.242,0.554,39.174,0.52,39.111,0.479
	z"/>
<path d="M39.298,0.603c-5.036,6.425-12.854,15.18-14.83,17.377L25.6,17.1l13.9,10.7l-15.584-9.231
	c-1.935,1.858-4.832,1.886-6.806,0.104L1.8,27.8l13.859-10.668C12.882,14.055,6.056,6.408,1.526,0.633C0.612,1.271,0,2.327,0,3.5
	v22.9c0,1.899,1.6,3.5,3.5,3.5h11.771v-9.03h10.357v9.03H37.3c1.9,0,3.5-1.601,3.5-3.5H40.9V3.5
	C40.9,2.299,40.249,1.234,39.298,0.603z"/>
</svg>
