<?xml version="1.0" encoding="utf-8"?>
<svg version="1.1"
	 xmlns="http://www.w3.org/2000/svg" x="0px" y="0px" width="48px" height="48px" viewBox="-10.15 -3.15 48 48">
<defs>
</defs>
<path d="M13.8,27.1h12.8c0,0-3.2-2.5-4.5-5.3c-1.5-3.4-0.9-5.7-0.9-10c0-3-3.699-5.7-5.9-7.1c0.601-0.5,1-1.2,1-2.101
	C16.299,1.2,15.1,0,13.7,0c-1.4,0-2.6,1.2-2.6,2.6c0,0.8,0.4,1.601,1,2.101C10,6.2,6.3,8.899,6.3,11.899c0,4.2,0.7,6.5-0.9,10
	C4.2,24.6,1,27.1,1,27.1H13.8L13.8,27.1z M12.4,2.7c0-0.7,0.6-1.301,1.3-1.301C14.4,1.399,15,2,15,2.7c0,0.6-0.5,1.1-1,1.199
	c-0.1,0-0.1-0.1-0.1-0.1l0,0c0,0-0.1,0-0.2,0.1C13,3.899,12.4,3.399,12.4,2.7z"/>
<path d="M27.1,28.3H0.5c-0.3,0-0.5,0.2-0.5,0.5s0.2,0.5,0.5,0.5h26.7c0.301,0,0.5-0.2,0.5-0.5C27.6,28.6,27.401,28.3,27.1,28.3z"/>
<path d="M14.3,34.6c2.1,0,3.8-1.7,3.8-3.8h-7.6C10.5,32.899,12.2,34.6,14.3,34.6z"/>
<path d="M14.6,41c0,0.399-0.3,0.699-0.7,0.699l0,0c-0.4,0-0.7-0.3-0.7-0.699v-4.601c0-0.399,0.3-0.7,0.7-0.7l0,0
	c0.4,0,0.7,0.301,0.7,0.7V41z"/>
<path d="M20.7,38.6c0.2,0.3,0.1,0.7-0.199,1l0,0c-0.301,0.2-0.701,0.1-1-0.2l-2.701-3.8c-0.199-0.3-0.1-0.7,0.201-1l0,0
	c0.299-0.2,0.699-0.1,1,0.2L20.7,38.6z"/>
<path d="M24.5,33.3c0.4,0.1,0.5,0.5,0.4,0.899l0,0c-0.102,0.4-0.501,0.5-0.9,0.4l-4.4-1.5c-0.4-0.1-0.5-0.5-0.4-0.9l0,0
	c0.1-0.399,0.5-0.5,0.9-0.399L24.5,33.3z"/>
<path d="M7.1,38.6c-0.2,0.3-0.1,0.7,0.2,1l0,0c0.3,0.2,0.7,0.1,1-0.2l2.7-3.8c0.2-0.3,0.1-0.7-0.2-1l0,0c-0.3-0.2-0.7-0.1-1,0.2
	L7.1,38.6z"/>
<path d="M3.4,33.3c-0.4,0.2-0.6,0.6-0.4,0.899l0,0c0.1,0.4,0.5,0.5,0.9,0.4l4.3-1.5c0.4-0.1,0.5-0.5,0.4-0.9l0,0
	c-0.1-0.399-0.5-0.5-0.9-0.399L3.4,33.3z"/>
</svg>
