<?xml version="1.0" encoding="utf-8"?>
<!-- Generator: Adobe Illustrator 15.0.0, SVG Export Plug-In  -->
<!DOCTYPE svg PUBLIC "-//W3C//DTD SVG 1.1//EN" "http://www.w3.org/Graphics/SVG/1.1/DTD/svg11.dtd" [
	<!ENTITY ns_flows "http://ns.adobe.com/Flows/1.0/">
]>
<svg version="1.1"
	 xmlns="http://www.w3.org/2000/svg" x="0px" y="0px" width="48px" height="48px" viewBox="-1.525 -4.927 48 48">
<defs>
</defs>
<path d="M12.358,23.601c0,0-5.42,4.706-6.417,8.558c-0.822,3.174,2.425,5.988,6.132,5.988c3.707,0,6.728-3.674,5.99-5.988
	C16.921,28.591,12.358,23.601,12.358,23.601z"/>
<path d="M21.181,24.061c-0.207,0.024-0.4,0.037-0.596,0.037c-2.645,0-4.607-2.066-4.798-4.59c-0.164-2.164,0.638-3.89,2.204-4.689
	L17.04,3.403l0.585-1.399c-4.198,0.795-7.447,4.265-7.911,8.571C4.342,10.625,0,14.991,0,20.377c0,3.571,1.915,6.688,4.769,8.401
	c2.102-4.195,6.835-8.344,7.067-8.545l0.747-0.649l0.667,0.73c0.216,0.234,5.081,5.594,6.713,9.868c1.55,0,3.084,0,4.52,0
	L21.181,24.061z"/>
<path d="M38.463,14.795c-0.408,0-0.807,0.05-1.197,0.12c-1.746-2.596-4.701-4.312-8.063-4.34c-0.385-3.591-2.713-6.594-5.91-7.955
	l0.555,1.771l-1.049,10.69c1.742,0.731,2.584,2.596,2.584,4.426c0,0.587-0.121,1.165-0.352,1.708
	c-0.055,0.132,5.865,4.963,9.094,7.584c0.707-0.422,1.361-0.921,1.939-1.501c0.744,0.295,1.551,0.469,2.398,0.469
	c3.582,0,6.486-2.902,6.486-6.483C44.952,17.699,42.047,14.795,38.463,14.795z"/>
<path d="M34.143,35.177l-1.725-5.484l-9.285-8.763c0.398-0.535,0.646-1.194,0.646-1.914c0-1.441-0.958-2.647-2.27-3.053l1.066-11.02
	L20.673,0l-2.096,4.814l0.789,11.23c-1.173,0.478-2.003,1.627-2.003,2.97c0,1.773,1.438,3.212,3.208,3.212
	c0.251,0,0.491-0.037,0.727-0.089l7.044,11.003L34.143,35.177z"/>
</svg>
