<?xml version="1.0" encoding="utf-8"?>
<svg version="1.1"
	 xmlns="http://www.w3.org/2000/svg" xmlns:xlink="http://www.w3.org/1999/xlink"
	 x="0px" y="0px" width="48px" height="48px" viewBox="-3.72 -4.562 48 48">
<defs>
</defs>
<polygon fill="#C8691C" points="20.279,5.516 37.803,23.038 40.561,20.28 20.279,0 0,20.28 2.758,23.038 "/>
<polygon fill="#C8691C" points="20.224,8.747 6.721,22.66 6.721,38.877 15.851,38.877 15.851,24.147 24.712,24.147 24.712,38.877 
	33.841,38.877 33.841,22.66 "/>
<polygon fill="#F79523" points="30.164,9.885 28.025,13.263 37.803,23.038 40.561,20.28 "/>
<polygon fill="#F79523" points="21.136,24.147 24.712,24.147 24.712,38.877 33.841,38.877 33.841,22.66 26.698,15.362 "/>
<polygon fill="#F79523" points="11.815,38.877 15.851,38.877 15.851,32.501 "/>
</svg>
