<?xml version="1.0" encoding="utf-8"?>
<svg version="1.1"
	 xmlns="http://www.w3.org/2000/svg" xmlns:xlink="http://www.w3.org/1999/xlink"
	 x="0px" y="0px" width="48px" height="48px" viewBox="-9.5 -4.8 48 48">
<defs>
</defs>
<path fill="#D4801D" d="M5,38.5h10.6l11.3-2.6c1.6-0.4,2.6-2,2.3-3.6l-6.9-30c-0.4-1.6-2-2.6-3.6-2.3L0.8,4.2v16.3l4,17.5
	C4.8,38.1,4.9,38.3,5,38.5z"/>
<path fill="#F79523" d="M25,35.5c0,1.7-1.3,3-3,3H3c-1.7,0-3-1.3-3-3V4.7c0-1.7,1.3-3,3-3h19c1.7,0,3,1.3,3,3V35.5z"/>
<rect x="4.5" y="8.2" fill="#FFFFFF" width="14.5" height="1.3"/>
<rect x="4.5" y="13.7" fill="#FFFFFF" width="14.5" height="1.3"/>
<rect x="4.5" y="19.2" fill="#FFFFFF" width="14.5" height="1.3"/>
<rect x="4.5" y="24.7" fill="#FFFFFF" width="14.5" height="1.3"/>
<rect x="4.5" y="30.2" fill="#FFFFFF" width="9.8" height="1.3"/>
<path fill="#D4801D" d="M5,38.5h10.6l11.3-2.6c1.6-0.4,2.6-2,2.3-3.6l-6.9-30c-0.4-1.6-2-2.6-3.6-2.3L0.8,4.2v16.3l4,17.5
	C4.8,38.1,4.9,38.3,5,38.5z"/>
<path fill="#F79523" d="M25,35.5c0,1.7-1.3,3-3,3H3c-1.7,0-3-1.3-3-3V4.7c0-1.7,1.3-3,3-3h19c1.7,0,3,1.3,3,3V35.5z"/>
<rect x="4.5" y="8.2" fill="#FFFFFF" width="14.5" height="1.3"/>
<rect x="4.5" y="13.7" fill="#FFFFFF" width="14.5" height="1.3"/>
<rect x="4.5" y="19.2" fill="#FFFFFF" width="14.5" height="1.3"/>
<rect x="4.5" y="24.7" fill="#FFFFFF" width="14.5" height="1.3"/>
<rect x="4.5" y="30.2" fill="#FFFFFF" width="9.8" height="1.3"/>
<path fill="#D4801D" d="M5,38.5h10.6l11.3-2.6c1.6-0.4,2.6-2,2.3-3.6l-6.9-30c-0.4-1.6-2-2.6-3.6-2.3L0.8,4.2v16.3l4,17.5
	C4.8,38.1,4.9,38.3,5,38.5z"/>
<path fill="#F79523" d="M25,35.5c0,1.7-1.3,3-3,3H3c-1.7,0-3-1.3-3-3V4.7c0-1.7,1.3-3,3-3h19c1.7,0,3,1.3,3,3V35.5z"/>
<rect x="4.5" y="8.2" fill="#FFFFFF" width="14.5" height="1.3"/>
<rect x="4.5" y="13.7" fill="#FFFFFF" width="14.5" height="1.3"/>
<rect x="4.5" y="19.2" fill="#FFFFFF" width="14.5" height="1.3"/>
<rect x="4.5" y="24.7" fill="#FFFFFF" width="14.5" height="1.3"/>
<rect x="4.5" y="30.2" fill="#FFFFFF" width="9.8" height="1.3"/>
<path fill="#D4801D" d="M5,38.5h10.6l11.3-2.6c1.6-0.4,2.6-2,2.3-3.6l-6.9-30c-0.4-1.6-2-2.6-3.6-2.3L0.8,4.2v16.3l4,17.5
	C4.8,38.1,4.9,38.3,5,38.5z"/>
<path fill="#F79523" d="M25,35.5c0,1.7-1.3,3-3,3H3c-1.7,0-3-1.3-3-3V4.7c0-1.7,1.3-3,3-3h19c1.7,0,3,1.3,3,3V35.5z"/>
<rect x="4.5" y="8.2" fill="#FFFFFF" width="14.5" height="1.3"/>
<rect x="4.5" y="13.7" fill="#FFFFFF" width="14.5" height="1.3"/>
<rect x="4.5" y="19.2" fill="#FFFFFF" width="14.5" height="1.3"/>
<rect x="4.5" y="24.7" fill="#FFFFFF" width="14.5" height="1.3"/>
<rect x="4.5" y="30.2" fill="#FFFFFF" width="9.8" height="1.3"/>
</svg>
