<?xml version="1.0" encoding="utf-8"?>
<svg version="1.1"
	 xmlns="http://www.w3.org/2000/svg" xmlns:xlink="http://www.w3.org/1999/xlink"
	 x="0px" y="0px" width="48px" height="48px" viewBox="-4.959 -4.26 48 48">
<defs>
</defs>
<path fill="#F79523" d="M38.082,35.951c0,1.949-1.579,3.529-3.529,3.529H3.53C1.58,39.48,0,37.9,0,35.951V3.53
	C0,1.581,1.58,0,3.53,0h31.023c1.95,0,3.529,1.581,3.529,3.53V35.951z"/>
<path fill="#FCB51E" d="M19.317,36.885c0.517,0.971,0.389,2.293-0.711,2.293L3.302,39.155c-1.639,0.092-3.024-1.925-3.024-3.024
	L0.209,3.263c0-1.1,0.984-2.102,1.5-1.131L19.317,36.885z"/>
<g>
	<path fill="#52CAF5" d="M34.7,12.707c0,1.1-0.9,2-2,2H5.521c-1.1,0-2-0.9-2-2V5.824c0-1.1,0.9-2,2-2H32.7c1.1,0,2,0.9,2,2V12.707z"
		/>
</g>
<rect x="20.581" y="19.119" fill="#FFFFFF" width="14.119" height="1.176"/>
<rect x="20.581" y="23.041" fill="#FFFFFF" width="14.119" height="1.177"/>
<rect x="20.581" y="26.964" fill="#FFFFFF" width="14.119" height="1.177"/>
<rect x="20.581" y="30.885" fill="#FFFFFF" width="14.119" height="1.177"/>
<rect x="3.521" y="19.119" fill="#FFFFFF" width="14.119" height="1.176"/>
<rect x="3.521" y="23.041" fill="#FFFFFF" width="14.119" height="1.177"/>
<rect x="3.521" y="26.964" fill="#FFFFFF" width="14.119" height="1.177"/>
<rect x="3.521" y="30.885" fill="#FFFFFF" width="14.119" height="1.177"/>
<path fill="#84D5F7" d="M3.564,5.749c-0.026,0.14-0.043,0.282-0.043,0.428v6.177c0,1.294,1.059,2.353,2.354,2.353h2.097L3.564,5.749
	z"/>
</svg>
