<?xml version="1.0" encoding="utf-8"?>
<svg version="1.1"
	 xmlns="http://www.w3.org/2000/svg" xmlns:xlink="http://www.w3.org/1999/xlink"
	 x="0px" y="0px" width="48px" height="48px" viewBox="-3.788 -4.386 48 48">
<defs>
</defs>
<path fill="#F79523" d="M24.409,24.547h-1.811c-0.144-0.648-0.348-1.273-0.608-1.87l1.499-1.05c0.506-0.354,0.63-1.052,0.276-1.559
	l-1.089-1.553c-0.354-0.507-1.051-0.629-1.559-0.275l-1.535,1.076c-0.474-0.436-0.988-0.825-1.539-1.165l0.645-1.774
	c0.214-0.581-0.086-1.223-0.668-1.436l-1.779-0.648c-0.581-0.211-1.223,0.089-1.437,0.669l-0.649,1.788
	c-0.456-0.063-0.917-0.107-1.391-0.107c-0.178,0-0.349,0.018-0.522,0.027l-0.494-1.841c-0.16-0.597-0.774-0.952-1.371-0.792
	L8.546,14.53c-0.598,0.159-0.951,0.773-0.792,1.371l0.489,1.825c-0.578,0.292-1.123,0.635-1.63,1.028l-1.44-1.208
	c-0.475-0.398-1.18-0.335-1.578,0.138l-1.218,1.452c-0.398,0.473-0.335,1.179,0.139,1.577l1.406,1.18
	c-0.45,0.821-0.785,1.714-0.99,2.655H1.119C0.501,24.547,0,25.048,0,25.667v1.896c0,0.618,0.501,1.119,1.119,1.119h1.763
	c0.132,0.666,0.328,1.309,0.584,1.921L2.039,31.6c-0.506,0.355-0.629,1.053-0.274,1.56l1.088,1.552
	c0.354,0.508,1.052,0.63,1.559,0.274l1.403-0.981c0.49,0.469,1.029,0.884,1.606,1.247L6.84,36.85
	c-0.212,0.581,0.088,1.223,0.669,1.436l1.779,0.647c0.582,0.211,1.226-0.088,1.437-0.669l0.576-1.585
	c0.479,0.069,0.965,0.119,1.464,0.119c0.196,0,0.388-0.019,0.582-0.03l0.436,1.63c0.16,0.598,0.774,0.95,1.372,0.792l1.83-0.491
	c0.598-0.16,0.952-0.774,0.792-1.371l-0.438-1.637c0.606-0.312,1.184-0.68,1.712-1.103l1.307,1.095
	c0.474,0.397,1.179,0.336,1.577-0.139l1.218-1.451c0.397-0.474,0.336-1.179-0.138-1.578l-1.329-1.117
	c0.441-0.841,0.77-1.753,0.961-2.717h1.763c0.619,0,1.121-0.501,1.121-1.119v-1.896C25.53,25.048,25.028,24.547,24.409,24.547
	 M12.765,32.851c-3.444,0-6.237-2.793-6.237-6.237s2.793-6.237,6.237-6.237c3.446,0,6.238,2.793,6.238,6.237
	S16.211,32.851,12.765,32.851"/>
<path fill="#C8691C" d="M24.41,24.547h-1.812c-0.144-0.648-0.348-1.273-0.608-1.87l1.499-1.05c0.507-0.354,0.63-1.052,0.276-1.559
	l-1.088-1.553c-0.354-0.507-1.053-0.629-1.559-0.275l-1.535,1.076c-0.475-0.436-0.989-0.825-1.539-1.165l0.644-1.774
	c0.213-0.581-0.086-1.223-0.668-1.436l-1.78-0.648c-0.581-0.211-1.222,0.089-1.436,0.669l-0.649,1.788
	c-0.455-0.063-0.917-0.107-1.391-0.107c-0.021,0-0.039,0.003-0.059,0.004v3.731c0.02-0.001,0.038-0.003,0.059-0.003
	c3.445,0,6.239,2.793,6.239,6.237s-2.794,6.237-6.239,6.237c-0.021,0-0.039-0.003-0.059-0.004v3.947c0.02,0,0.038,0.004,0.059,0.004
	c0.195,0,0.388-0.019,0.581-0.029l0.437,1.629c0.161,0.598,0.773,0.95,1.372,0.792l1.83-0.491c0.598-0.16,0.952-0.774,0.79-1.371
	l-0.438-1.637c0.609-0.312,1.185-0.68,1.715-1.103l1.305,1.095c0.475,0.397,1.18,0.336,1.578-0.139l1.218-1.451
	c0.396-0.474,0.337-1.179-0.138-1.578l-1.33-1.117c0.443-0.841,0.771-1.753,0.962-2.717h1.764c0.619,0,1.118-0.501,1.118-1.119
	v-1.896C25.528,25.048,25.029,24.547,24.41,24.547"/>
<path fill="#BCBEC0" d="M39.751,28.374h-1.086c-0.086-0.389-0.209-0.764-0.364-1.122l0.898-0.63
	c0.304-0.212,0.379-0.631,0.165-0.935l-0.652-0.932c-0.212-0.305-0.631-0.378-0.936-0.165l-0.921,0.646
	c-0.284-0.262-0.593-0.495-0.923-0.698l0.387-1.065c0.127-0.349-0.052-0.733-0.401-0.861l-1.067-0.39
	c-0.35-0.126-0.733,0.055-0.862,0.402l-0.39,1.073c-0.273-0.038-0.551-0.064-0.834-0.064c-0.106,0-0.209,0.011-0.314,0.017
	l-0.295-1.105c-0.096-0.358-0.465-0.57-0.822-0.475l-1.1,0.295c-0.358,0.095-0.57,0.464-0.476,0.822l0.294,1.095
	c-0.347,0.175-0.674,0.381-0.979,0.617l-0.863-0.726c-0.285-0.238-0.708-0.201-0.947,0.084l-0.73,0.87
	c-0.238,0.284-0.201,0.707,0.082,0.946l0.844,0.707c-0.27,0.494-0.471,1.029-0.594,1.594h-1.086c-0.372,0-0.673,0.301-0.673,0.672
	v1.138c0,0.37,0.301,0.671,0.673,0.671h1.057c0.08,0.4,0.197,0.785,0.351,1.152l-0.856,0.6c-0.304,0.213-0.378,0.631-0.164,0.936
	l0.652,0.931c0.212,0.305,0.632,0.378,0.936,0.164l0.842-0.588c0.293,0.281,0.617,0.529,0.964,0.747l-0.35,0.96
	c-0.126,0.349,0.054,0.733,0.402,0.861l1.067,0.39c0.35,0.126,0.734-0.055,0.861-0.402l0.346-0.95
	c0.288,0.041,0.579,0.07,0.879,0.07c0.117,0,0.232-0.011,0.35-0.018l0.261,0.979c0.097,0.358,0.464,0.569,0.824,0.475l1.097-0.294
	c0.358-0.097,0.572-0.466,0.476-0.823l-0.263-0.981c0.363-0.188,0.711-0.408,1.027-0.662l0.785,0.657
	c0.283,0.237,0.706,0.201,0.945-0.085l0.73-0.869c0.238-0.285,0.201-0.708-0.082-0.947l-0.797-0.67
	c0.265-0.505,0.461-1.053,0.576-1.631h1.057c0.372,0,0.673-0.301,0.673-0.671v-1.138C40.424,28.674,40.123,28.374,39.751,28.374
	 M32.765,33.357c-2.067,0-3.743-1.676-3.743-3.743s1.676-3.743,3.743-3.743s3.743,1.676,3.743,3.743S34.832,33.357,32.765,33.357"/>
<path fill="#808285" d="M39.751,28.374h-1.086c-0.086-0.389-0.209-0.764-0.364-1.122l0.898-0.63
	c0.304-0.212,0.379-0.631,0.165-0.935l-0.651-0.932c-0.213-0.305-0.633-0.378-0.935-0.165l-0.923,0.646
	c-0.284-0.262-0.593-0.495-0.922-0.698l0.386-1.065c0.127-0.349-0.052-0.733-0.401-0.861l-1.067-0.39
	c-0.35-0.126-0.733,0.055-0.862,0.402l-0.39,1.073c-0.272-0.038-0.551-0.064-0.834-0.064c-0.013,0-0.023,0.001-0.035,0.003v2.238
	c0.012,0,0.022-0.003,0.035-0.003c2.067,0,3.743,1.676,3.743,3.743s-1.676,3.743-3.743,3.743c-0.013,0-0.023-0.003-0.035-0.003
	v2.367c0.012,0,0.022,0.003,0.035,0.003c0.117,0,0.232-0.011,0.35-0.017l0.261,0.978c0.098,0.358,0.464,0.569,0.824,0.475
	l1.097-0.294c0.358-0.097,0.572-0.466,0.475-0.823l-0.263-0.981c0.366-0.188,0.71-0.408,1.029-0.662l0.782,0.657
	c0.285,0.237,0.708,0.201,0.947-0.085l0.73-0.869c0.237-0.285,0.202-0.708-0.082-0.947l-0.799-0.67
	c0.267-0.505,0.463-1.053,0.578-1.631h1.057c0.373,0,0.672-0.301,0.672-0.671v-1.138C40.423,28.674,40.124,28.374,39.751,28.374"/>
<path fill="#52CAF5" d="M38.797,8.771h-1.506c-0.119-0.539-0.289-1.059-0.506-1.555l1.247-0.873
	c0.421-0.294,0.523-0.875,0.229-1.296l-0.905-1.292c-0.295-0.421-0.874-0.523-1.296-0.229l-1.276,0.895
	c-0.395-0.362-0.822-0.687-1.28-0.969l0.536-1.475c0.177-0.483-0.071-1.017-0.556-1.194l-1.479-0.539
	c-0.483-0.176-1.017,0.075-1.194,0.557l-0.54,1.487c-0.379-0.053-0.764-0.089-1.156-0.089c-0.147,0-0.29,0.015-0.436,0.022
	l-0.41-1.531c-0.133-0.497-0.644-0.792-1.14-0.658L25.606,0.44c-0.497,0.132-0.791,0.643-0.659,1.14l0.407,1.518
	c-0.48,0.242-0.934,0.528-1.356,0.854l-1.196-1.005c-0.396-0.331-0.981-0.279-1.313,0.115L20.477,4.27
	c-0.331,0.393-0.278,0.98,0.114,1.312l1.17,0.981c-0.374,0.683-0.652,1.425-0.823,2.208h-1.507c-0.514,0-0.931,0.417-0.931,0.931
	v1.576c0,0.514,0.417,0.931,0.931,0.931h1.466c0.109,0.554,0.272,1.088,0.485,1.597l-1.187,0.83
	c-0.421,0.295-0.522,0.875-0.228,1.297l0.904,1.29c0.294,0.422,0.875,0.524,1.295,0.229l1.168-0.816
	c0.407,0.39,0.854,0.735,1.336,1.037L24.187,19c-0.175,0.483,0.074,1.017,0.558,1.194l1.479,0.538
	c0.483,0.175,1.018-0.073,1.193-0.557l0.479-1.317c0.399,0.058,0.803,0.099,1.218,0.099c0.163,0,0.322-0.016,0.483-0.025
	l0.362,1.355c0.134,0.497,0.644,0.79,1.142,0.659l1.521-0.409c0.496-0.133,0.792-0.644,0.658-1.14l-0.363-1.361
	c0.504-0.259,0.984-0.565,1.423-0.917l1.087,0.91c0.394,0.331,0.98,0.279,1.312-0.115l1.013-1.207
	c0.33-0.394,0.279-0.98-0.114-1.312l-1.105-0.929c0.367-0.699,0.64-1.458,0.799-2.259h1.466c0.515,0,0.933-0.417,0.933-0.931V9.701
	C39.729,9.187,39.312,8.771,38.797,8.771 M29.114,15.675c-2.865,0-5.188-2.322-5.188-5.187s2.322-5.187,5.188-5.187
	s5.188,2.322,5.188,5.187S31.979,15.675,29.114,15.675"/>
<path fill="#3588A6" d="M38.798,8.771h-1.507c-0.119-0.539-0.289-1.059-0.506-1.555l1.247-0.873
	c0.421-0.294,0.523-0.875,0.229-1.296l-0.904-1.292c-0.295-0.421-0.876-0.523-1.296-0.229l-1.277,0.895
	c-0.395-0.362-0.822-0.687-1.279-0.969l0.535-1.475c0.177-0.483-0.071-1.017-0.556-1.194l-1.48-0.539
	c-0.482-0.176-1.016,0.075-1.193,0.557l-0.54,1.487c-0.378-0.053-0.764-0.089-1.156-0.089c-0.018,0-0.032,0.002-0.049,0.003v3.103
	c0.017-0.001,0.031-0.002,0.049-0.002c2.865,0,5.188,2.322,5.188,5.187s-2.322,5.187-5.188,5.187c-0.018,0-0.032-0.002-0.049-0.003
	v3.283c0.017,0,0.031,0.003,0.049,0.003c0.162,0,0.322-0.016,0.483-0.024l0.362,1.354c0.135,0.497,0.644,0.79,1.142,0.659
	l1.521-0.409c0.496-0.133,0.792-0.644,0.657-1.14l-0.364-1.361c0.507-0.259,0.984-0.565,1.426-0.917l1.085,0.91
	c0.395,0.331,0.981,0.279,1.313-0.115l1.013-1.207c0.329-0.394,0.28-0.98-0.114-1.312l-1.106-0.929
	c0.369-0.699,0.641-1.458,0.8-2.259h1.467c0.515,0,0.93-0.417,0.93-0.931V9.701C39.728,9.187,39.313,8.771,38.798,8.771"/>
</svg>
