<?xml version="1.0" encoding="utf-8"?>
<svg version="1.1"
	 xmlns="http://www.w3.org/2000/svg" xmlns:xlink="http://www.w3.org/1999/xlink"
	 x="0px" y="0px" width="48px" height="48px" viewBox="-5.9 -4.2 48 48">
<defs>
</defs>
<rect x="4.1" y="24.6" transform="matrix(0.8296 0.5584 -0.5584 0.8296 18.3932 -5.6634)" fill="#52CAF5" width="28.8" height="5.3"/>
<rect x="4.1" y="10.8" transform="matrix(0.8296 -0.5584 0.5584 0.8296 -4.3559 12.6063)" fill="#52CAF5" width="28.8" height="5.3"/>
<rect x="26.5" y="8.4" fill="#52CAF5" width="5.3" height="24.5"/>
<circle fill="#F79523" cx="28.6" cy="7.3" r="7.3"/>
<circle fill="#F79523" cx="28.6" cy="32.9" r="7.3"/>
<circle fill="#F79523" cx="7.3" cy="21.2" r="7.3"/>
<path fill="#C8691C" d="M6.2,14C2.7,14.5,0,17.5,0,21.2s2.7,6.7,6.2,7.2V14z"/>
<path fill="#C8691C" d="M27.8,0c-3.5,0.5-6.2,3.5-6.2,7.2s2.7,6.7,6.2,7.2V0z"/>
<path fill="#C8691C" d="M27.5,25.8c-3.5,0.5-6.2,3.5-6.2,7.2s2.7,6.7,6.2,7.2V25.8z"/>
</svg>
