<?xml version="1.0" encoding="utf-8"?>
<!-- Generator: Adobe Illustrator 15.0.0, SVG Export Plug-In  -->
<!DOCTYPE svg PUBLIC "-//W3C//DTD SVG 1.1//EN" "http://www.w3.org/Graphics/SVG/1.1/DTD/svg11.dtd" [
	<!ENTITY ns_flows "http://ns.adobe.com/Flows/1.0/">
]>
<svg version="1.1"
	 xmlns="http://www.w3.org/2000/svg" xmlns:xlink="http://www.w3.org/1999/xlink" xmlns:a="http://ns.adobe.com/AdobeSVGViewerExtensions/3.0/"
	 x="0px" y="0px" width="48px" height="48px" viewBox="-3.4 -6.3 48 48" enable-background="new -3.4 -6.3 48 48"
	 xml:space="preserve">
<defs>
</defs>
<path fill="#F79523" d="M17.2,14.1c0,0.6-0.5,1.1-1.1,1.1H5.7c-0.6,0-1.1-0.5-1.1-1.1l0,0c0-0.6,0.5-1.1,1.1-1.1h10.4
	C16.7,13,17.2,13.5,17.2,14.1L17.2,14.1z"/>
<path fill="#F79523" d="M17.2,19.1c0,0.6-0.5,1.1-1.1,1.1H5.7c-0.6,0-1.1-0.5-1.1-1.1l0,0c0-0.6,0.5-1.1,1.1-1.1h10.4
	C16.7,18.1,17.2,18.5,17.2,19.1L17.2,19.1z"/>
<path fill="#F79523" d="M20.2,6.8H1.6C0.7,6.8,0,7.6,0,8.7v17.9c0,1.1,0.7,1.9,1.6,1.9h3.7l1.5,6.7l6.1-6.7h7.4
	c0.9,0,1.6-0.9,1.6-1.9V8.7C21.8,7.6,21.1,6.8,20.2,6.8z M19.7,25.1c0,0.9-0.6,1.6-1.3,1.6h-6.9l-3.8,4.5L7,26.6l-3.6,0
	c-0.7,0-1.3-0.7-1.3-1.6V10.6c0-0.9,0.6-1.5,1.3-1.5h15.1c0.7,0,1.3,0.7,1.3,1.5V25.1z"/>
<path fill="#C8691C" d="M19.7,10.5C19.7,10.6,19.7,10.6,19.7,10.5l0,14.6c0,0.9-0.6,1.6-1.3,1.6h-6.9l-3.8,4.5L7,26.7l-1.7,2.2
	l1.4,6.4l6.1-6.7h7.4c0.9,0,1.6-0.9,1.6-1.9V8.7c0-0.3,0-0.5-0.1-0.7L19.7,10.5z"/>
<path fill="#3588A6" d="M19.6,1.9v17.9c0,1.1,0.7,1.9,1.6,1.9h7.4l6.1,6.7l1.5-6.7h3.7c0.9,0,1.6-0.9,1.6-1.9V1.9
	c0-1.1-0.7-1.9-1.6-1.9H21.1C20.3,0,19.6,0.9,19.6,1.9z M21.7,3.8c0-0.9,0.6-1.6,1.3-1.6H38c0.7,0,1.3,0.7,1.3,1.6v14.5
	c0,0.9-0.6,1.5-1.3,1.5l-3.6,0l-0.8,4.6l-3.8-4.5h-6.9c-0.7,0-1.3-0.7-1.3-1.5V3.8z"/>
<path fill="#52CAF5" d="M21.7,3.7C21.7,3.8,21.7,3.8,21.7,3.7l0,14.6c0,0.9,0.6,1.5,1.3,1.5h6.9l3.8,4.5l0.8-4.5l1.7,2.2l-1.4,6.4
	l-6.1-6.7h-7.4c-0.9,0-1.6-0.9-1.6-1.9V1.9c0-0.3,0-0.5,0.1-0.7L21.7,3.7z"/>
<circle fill="#52CAF5" cx="25.2" cy="10.6" r="1.5"/>
<circle fill="#52CAF5" cx="30.2" cy="10.6" r="1.5"/>
<circle fill="#52CAF5" cx="35.2" cy="10.6" r="1.5"/>
</svg>
