<?xml version="1.0" encoding="utf-8"?>
<svg version="1.1"
	 xmlns="http://www.w3.org/2000/svg" xmlns:xlink="http://www.w3.org/1999/xlink"
	 x="0px" y="0px" width="48px" height="48px" viewBox="-3.107 -5.204 48 48">
<defs>
</defs>
<path fill="#D1D3D4" d="M42.273,11.91c0,1.657-1.357,3-3.033,3H3.033c-1.675,0-3.033-1.343-3.033-3V3c0-1.657,1.358-3,3.033-3H39.24
	c1.676,0,3.033,1.343,3.033,3V11.91z"/>
<path fill="#3588A6" d="M2.306,1.916h2.13v3.922h0.027C4.688,5.53,4.968,5.292,5.304,5.124c0.323-0.168,0.715-0.266,1.107-0.266
	c1.359,0,2.396,0.938,2.396,3.012v3.993h-2.13v-3.77c0-0.896-0.308-1.513-1.106-1.513c-0.562,0-0.912,0.364-1.066,0.757
	C4.45,7.463,4.436,7.646,4.436,7.801v4.063h-2.13V1.916z"/>
<path fill="#3588A6" d="M12.818,3.163v1.85h1.528v1.569h-1.528v2.479c0,0.827,0.21,1.205,0.841,1.205
	c0.294,0,0.435-0.014,0.631-0.056l0.014,1.61c-0.267,0.098-0.785,0.183-1.374,0.183c-0.687,0-1.26-0.238-1.61-0.589
	c-0.393-0.406-0.589-1.064-0.589-2.031V6.581H9.82V5.012h0.911V3.737L12.818,3.163z"/>
<path fill="#3588A6" d="M17.963,3.163v1.85h1.527v1.569h-1.527v2.479c0,0.827,0.209,1.205,0.84,1.205
	c0.294,0,0.435-0.014,0.631-0.056l0.014,1.61c-0.267,0.098-0.785,0.183-1.374,0.183c-0.687,0-1.261-0.238-1.611-0.589
	c-0.392-0.406-0.588-1.064-0.588-2.031V6.581h-0.91V5.012h0.91V3.737L17.963,3.163z"/>
<path fill="#3588A6" d="M20.724,7.309c0-0.896-0.027-1.652-0.056-2.296h1.849l0.098,0.952h0.028c0.504-0.715,1.29-1.106,2.284-1.106
	c1.499,0,2.844,1.303,2.844,3.488c0,2.494-1.583,3.671-3.11,3.671c-0.825,0-1.471-0.336-1.779-0.784h-0.028v3.404h-2.129V7.309z
	 M22.854,8.92c0,0.169,0.014,0.309,0.043,0.449c0.14,0.574,0.63,1.008,1.246,1.008c0.924,0,1.471-0.771,1.471-1.933
	c0-1.093-0.49-1.919-1.442-1.919c-0.603,0-1.135,0.448-1.274,1.078c-0.029,0.113-0.043,0.252-0.043,0.378V8.92z"/>
<path fill="#3588A6" d="M28.967,6.216c0-0.756,0.519-1.288,1.246-1.288c0.742,0,1.233,0.518,1.247,1.288
	c0,0.729-0.49,1.275-1.262,1.275C29.471,7.491,28.967,6.945,28.967,6.216z M28.967,10.742c0-0.757,0.519-1.289,1.246-1.289
	c0.742,0,1.233,0.518,1.247,1.289c0,0.729-0.49,1.274-1.262,1.274C29.471,12.017,28.967,11.471,28.967,10.742z"/>
<path fill="#3588A6" d="M32.121,12.409l2.998-10.157h1.415l-2.999,10.157H32.121z"/>
<path fill="#3588A6" d="M36.76,12.409l2.998-10.157h1.415l-2.997,10.157H36.76z"/>
<path fill="#DE2027" d="M36.489,36.105l-14.056-9.29c2.536-4.43,1.206-9.997-2.982-12.837c-4.493-3.083-10.534-1.826-13.515,2.635
	c-2.98,4.46-1.723,10.5,2.705,13.377c3.75,2.53,8.659,1.975,11.825-0.848l14.221,9.463c0.576,0.378,1.532,0.187,1.983-0.523
	C37.121,37.374,37.063,36.487,36.489,36.105 M10.166,27.694c-3.176-2.15-4.112-6.486-1.964-9.66c2.148-3.175,6.485-4.111,9.66-1.962
	c3.175,2.148,4.112,6.481,1.961,9.659C17.709,29.009,13.342,29.842,10.166,27.694"/>
<path fill="#D85139" d="M16.388,28.412c-2.019,0.762-4.332,0.598-6.325-0.686C6.886,25.578,5.95,21.242,8.1,18.068
	c1.001-1.452,2.378-2.458,4.051-2.881l-0.821-2.563c-2.187,0.587-4.142,1.893-5.425,3.886c-2.981,4.459-1.723,10.502,2.703,13.377
	c2.703,1.735,5.867,2.078,8.704,1.058L16.49,28.38L16.388,28.412z"/>
</svg>
