<?xml version="1.0" encoding="utf-8"?>
<svg version="1.1"
	 xmlns="http://www.w3.org/2000/svg" xmlns:xlink="http://www.w3.org/1999/xlink"
	 x="0px" y="0px" width="48px" height="48px" viewBox="-2.095 -4.73 48 48">
<defs>
</defs>
<rect x="21.322" y="16.096" fill="#C8691C" width="1.787" height="4.738"/>
<rect x="6.126" y="19.6" fill="#C8691C" width="31.968" height="1.785"/>
<rect x="6.126" y="19.778" fill="#C8691C" width="1.783" height="7.268"/>
<rect x="36.311" y="19.778" fill="#C8691C" width="1.784" height="7.268"/>
<path fill="#F89624" d="M11.704,16.16h19.994V0H11.704V16.16z M29.972,14.208H13.593V1.784h16.378V14.208z"/>
<path fill="#F89624" d="M0,37.737h13.705V26.661H0V37.737z M11.875,35.909H1.941v-7.536h9.935V35.909z"/>
<path fill="#F89624" d="M30.369,37.737h13.703V26.661H30.369V37.737z M42.243,35.909h-9.935v-7.536h9.935V35.909z"/>
<path fill="#3588A6" d="M27.891,10.799c0.227-0.502,0.001-1.087-0.496-1.311l-4.982-2.23c-0.092-0.041-0.187-0.049-0.282-0.062
	c0.222-1.547-0.533-3.112-2.031-3.782c-1.813-0.812-3.941,0-4.753,1.813c-0.812,1.812,0,3.941,1.813,4.753
	c1.524,0.682,3.221,0.17,4.221-1.068c0.068,0.058,0.132,0.117,0.219,0.156l1.494,0.668c0.038,0.208,0.139,0.397,0.342,0.489
	c0.013,0.004,0.021-0.002,0.034,0.001c-0.029,0.276,0.072,0.557,0.339,0.676c0.334,0.149,0.723,0.001,0.872-0.332
	c0.019-0.041-0.005-0.079,0.005-0.122l0.887,0.397c-0.018,0.027-0.053,0.032-0.065,0.063c-0.149,0.334,0,0.723,0.332,0.872
	c0.335,0.149,0.723,0.001,0.872-0.332c0.019-0.041-0.003-0.079,0.006-0.118C27.184,11.463,27.688,11.253,27.891,10.799z
	 M17.381,7.36c-0.582-0.261-0.843-0.946-0.582-1.528c0.262-0.584,0.947-0.847,1.53-0.585c0.583,0.261,0.843,0.946,0.582,1.531
	C18.65,7.36,17.966,7.622,17.381,7.36z"/>
</svg>
