<?xml version="1.0" encoding="utf-8"?>
<svg version="1.1"
	 xmlns="http://www.w3.org/2000/svg" xmlns:xlink="http://www.w3.org/1999/xlink"
	 x="0px" y="0px" width="48px" height="48px" viewBox="-1.957 -3.31 48 48">
<defs>
</defs>
<rect y="1.386" fill="#F79523" width="44.086" height="20.045"/>
<rect y="22.372" fill="#F79523" width="44.086" height="19.008"/>
<polygon fill="#C8691C" points="44.086,21.432 33.632,21.432 31.183,1.386 44.086,1.386 "/>
<polygon fill="#C8691C" points="44.086,41.379 36.082,41.379 33.632,22.372 44.086,22.372 "/>
<path fill="#FFFFFF" d="M23.243,14.571c0-0.776-0.629-1.405-1.405-1.405s-1.405,0.628-1.405,1.405c0,0.554,0.327,1.022,0.79,1.251
	v3.142h1.23v-3.143C22.918,15.592,23.243,15.125,23.243,14.571z"/>
<path fill="#FFFFFF" d="M23.243,34.438c0-0.779-0.629-1.404-1.405-1.404s-1.405,0.625-1.405,1.404c0,0.551,0.327,1.02,0.79,1.248
	v3.145h1.23v-3.145C22.918,35.456,23.243,34.989,23.243,34.438z"/>
<circle fill="#52CAF5" cx="9.545" cy="9.26" r="9.262"/>
<path fill="#FFFFFF" d="M16.97,9.077c0-0.598-0.483-1.081-1.079-1.081H9.956c-0.109,0-0.207,0.033-0.305,0.063
	c-0.47-1.634-1.913-2.853-3.697-2.853c-2.161,0-3.911,1.753-3.911,3.912c0,2.162,1.75,3.913,3.911,3.913
	c1.814,0,3.272-1.26,3.715-2.934c0.093,0.026,0.186,0.056,0.287,0.056h1.78c0.129,0.188,0.313,0.332,0.557,0.332
	c0.013,0,0.021-0.013,0.034-0.014c0.093,0.287,0.316,0.521,0.636,0.521c0.398,0,0.721-0.322,0.721-0.719
	c0-0.046-0.043-0.073-0.051-0.12h1.055c-0.005,0.035-0.037,0.054-0.037,0.09c0,0.398,0.323,0.719,0.719,0.719
	c0.397,0,0.718-0.321,0.718-0.719c0-0.045-0.039-0.076-0.047-0.12C16.562,10.049,16.97,9.619,16.97,9.077z"/>
<path fill="#52CAF5" d="M6.269,9.077c0,0.693-0.563,1.256-1.259,1.256c-0.693,0-1.257-0.563-1.257-1.256
	c0-0.697,0.563-1.26,1.257-1.26C5.705,7.817,6.269,8.379,6.269,9.077z"/>
</svg>
