<?xml version="1.0" encoding="utf-8"?>
<!-- Generator: Adobe Illustrator 15.0.0, SVG Export Plug-In  -->
<!DOCTYPE svg PUBLIC "-//W3C//DTD SVG 1.1//EN" "http://www.w3.org/Graphics/SVG/1.1/DTD/svg11.dtd" [
	<!ENTITY ns_flows "http://ns.adobe.com/Flows/1.0/">
]>
<svg version="1.1"
	 xmlns="http://www.w3.org/2000/svg" x="0px" y="0px" width="48px" height="48px" viewBox="-3.807 -2.759 48 48"
	 xml:space="preserve">
<defs>
</defs>
<polygon points="18.666,0 18.666,8.229 21.221,8.229 21.221,2.648 37.833,2.648 37.833,39.73 21.221,39.73 21.221,32.636 
	18.666,32.636 18.666,42.379 40.387,42.379 40.387,0 "/>
<path d="M4.028,20.17c0,1.15,1.102,2.081,2.46,2.081h0.27v2.671c0,1.045,0.847,1.893,1.891,1.893c1.045,0,1.892-0.848,1.892-1.893
	v-2.671h2.5c-0.025,0.109-0.039,0.225-0.039,0.342v1.775c0,0.92,0.794,1.666,1.774,1.666c0.979,0,1.774-0.746,1.774-1.666v-1.775
	c0-0.117-0.014-0.23-0.038-0.342h6.452c0.886,2.851,3.543,4.919,6.685,4.919c3.865,0,7-3.134,7-7c0-3.867-3.135-7-7-7
	c-3.142,0-5.799,2.069-6.686,4.919H6.488C5.13,18.089,4.028,19.021,4.028,20.17z M27.38,19.776c0-1.58,1.28-2.859,2.86-2.859
	c1.578,0,2.857,1.28,2.857,2.859c0,1.579-1.279,2.859-2.857,2.859C28.661,22.635,27.38,21.356,27.38,19.776z"/>
<rect x="15.134" width="2.124" height="3.187"/>
<rect x="7.522" width="3.806" height="3.187"/>
<polygon points="3.187,3.717 0,3.717 0,0 3.717,0 3.717,3.187 3.187,3.187 "/>
<path d="M3.187,34.871H0v-3.896h3.187V34.871z M3.187,27.083H0v-3.896h3.187V27.083z M3.187,19.293H0v-3.894h3.187V19.293z
	 M3.187,11.505H0V7.611h3.187V11.505z"/>
<polygon points="3.717,42.482 0,42.482 0,38.766 3.187,38.766 3.187,39.296 3.717,39.296 "/>
<rect x="7.169" y="39.296" width="3.451" height="3.187"/>
<rect x="14.072" y="39.296" width="2.125" height="3.187"/>
</svg>
