<?xml version="1.0" encoding="utf-8"?>
<!DOCTYPE svg PUBLIC "-//W3C//DTD SVG 1.1//EN" "http://www.w3.org/Graphics/SVG/1.1/DTD/svg11.dtd">
<svg version="1.1" xmlns="http://www.w3.org/2000/svg" xmlns:xlink="http://www.w3.org/1999/xlink" x="0px" y="0px"
	 width="48px" height="48px" viewBox="0 0 48 48">
<path d="M43.761,42.895H4.239l0.078-0.568c0.782-5.696,4.01-10.776,8.858-13.938l1.232-0.804l-0.488,1.389
	c-0.033,0.094-0.049,0.175-0.049,0.248c0,1.472,4.16,3.111,10.13,3.111c5.966,0,10.124-1.64,10.124-3.111
	c0-0.072-0.017-0.156-0.05-0.259l-0.439-1.35l1.188,0.775c4.846,3.16,8.074,8.241,8.858,13.938L43.761,42.895z M5.395,41.895h37.211
	c-0.824-4.875-3.54-9.23-7.56-12.141c-0.707,2.328-6.022,3.578-11.044,3.578c-5.024,0-10.341-1.249-11.05-3.577
	C8.932,32.666,6.216,37.021,5.395,41.895z"/>
<path d="M34.999,30.836l-1.545-1.27c0.077-0.094,0.169-0.23,0.169-0.346c0-0.001,0-0.03-0.022-0.098
	c-0.135-0.403,0-0.848,0.337-1.107c0.334-0.26,0.801-0.278,1.156-0.048c0.443,0.288,0.872,0.593,1.289,0.913l-0.934,1.215
	C35.346,30.351,35.195,30.598,34.999,30.836z"/>
<path d="M24.06,33.832c-0.559,0-1.105-0.012-1.642-0.039l0.097-1.998c0.504,0.025,1.014,0.037,1.543,0.037
	c0.489,0,0.968-0.012,1.438-0.037l0.1,1.998C25.094,33.818,24.58,33.832,24.06,33.832z M19.242,33.463
	c-1.168-0.191-2.229-0.451-3.155-0.77l0.652-1.891c0.819,0.281,1.77,0.514,2.826,0.686L19.242,33.463z M28.771,33.461l-0.324-1.975
	c1.061-0.172,2.011-0.404,2.824-0.688l0.656,1.889C31.005,33.008,29.943,33.27,28.771,33.461z"/>
<path d="M13,30.839c-0.195-0.235-0.346-0.485-0.451-0.743l-0.93-1.217c0.416-0.317,0.845-0.623,1.285-0.91
	c0.358-0.233,0.826-0.214,1.164,0.051c0.337,0.265,0.468,0.715,0.326,1.119c-0.021,0.198,0.07,0.333,0.146,0.425L13,30.839z"/>
<path d="M6.777,38.654l-1.875-0.697c0.331-0.889,0.728-1.766,1.183-2.602l1.758,0.953C7.434,37.063,7.075,37.852,6.777,38.654z
	 M9.227,34.135l-1.606-1.191c0.566-0.764,1.191-1.494,1.856-2.17l1.426,1.402C10.302,32.787,9.738,33.445,9.227,34.135z"/>
<path d="M6.313,43.395h-1.5c-0.289,0-0.563-0.125-0.753-0.343c-0.19-0.217-0.276-0.506-0.237-0.792
	c0.071-0.525,0.164-1.046,0.276-1.557l1.953,0.43c-0.019,0.087-0.038,0.174-0.055,0.262h0.316V43.395z"/>
<path d="M38.472,43.395h-3.216v-2h3.216V43.395z M32.04,43.395h-3.217v-2h3.217V43.395z M25.607,43.395h-3.215v-2h3.215V43.395z
	 M19.176,43.395H15.96v-2h3.216V43.395z M12.744,43.395H9.528v-2h3.216V43.395z"/>
<path d="M43.188,43.395h-1.5v-2h0.316c-0.018-0.089-0.036-0.177-0.056-0.265l1.955-0.424c0.11,0.512,0.203,1.029,0.274,1.553
	c0.04,0.286-0.047,0.575-0.236,0.793C43.751,43.27,43.477,43.395,43.188,43.395z"/>
<path d="M41.223,38.658c-0.298-0.803-0.656-1.592-1.064-2.346l1.758-0.953c0.453,0.836,0.851,1.711,1.182,2.602L41.223,38.658z
	 M38.774,34.139c-0.51-0.689-1.073-1.35-1.675-1.961l1.428-1.4c0.666,0.678,1.29,1.408,1.854,2.172L38.774,34.139z"/>
<path d="M24.002,26.509c-5.627,0-10.206-4.801-10.206-10.702c0.001-5.901,4.58-10.702,10.206-10.702
	c5.624,0,10.199,4.801,10.199,10.702C34.201,21.708,29.626,26.509,24.002,26.509z M24.002,6.105c-5.075,0-9.205,4.353-9.206,9.702
	c0,5.35,4.13,9.702,9.206,9.702c5.072,0,9.199-4.352,9.199-9.702S29.074,6.105,24.002,6.105z"/>
<path d="M24.011,27.009l-0.002-2c0.936-0.001,1.856-0.157,2.735-0.466l0.663,1.887C26.315,26.813,25.173,27.008,24.011,27.009z
	 M20.613,26.437c-1.083-0.378-2.098-0.933-3.016-1.651l1.231-1.575c0.745,0.582,1.566,1.032,2.442,1.337L20.613,26.437z
	 M30.418,24.772l-1.234-1.573c0.733-0.576,1.375-1.268,1.905-2.055l1.658,1.118C32.1,23.223,31.316,24.067,30.418,24.772z
	 M15.263,22.282c-0.64-0.945-1.134-1.982-1.467-3.083l1.914-0.58c0.275,0.908,0.682,1.763,1.208,2.541L15.263,22.282z
	 M34.209,19.176l-1.916-0.575c0.271-0.901,0.408-1.841,0.408-2.793l1.765-0.038l0.234,0.001
	C34.701,16.955,34.535,18.088,34.209,19.176z M13.296,15.829v-0.021c0-1.141,0.164-2.268,0.486-3.348l1.916,0.572
	c-0.267,0.895-0.402,1.828-0.402,2.775L13.296,15.829z M32.284,12.977c-0.278-0.908-0.687-1.762-1.216-2.539l1.654-1.125
	c0.642,0.943,1.137,1.979,1.474,3.078L32.284,12.977z M16.898,10.485l-1.66-1.115c0.645-0.961,1.427-1.807,2.324-2.514l1.238,1.57
	C18.067,9.005,17.427,9.697,16.898,10.485z M29.152,8.392c-0.744-0.581-1.566-1.029-2.443-1.333l0.654-1.89
	c1.085,0.375,2.101,0.929,3.02,1.645L29.152,8.392z M21.236,7.079L20.57,5.193c1.09-0.385,2.232-0.583,3.394-0.588l0.008,2
	C23.035,6.609,22.115,6.768,21.236,7.079z"/>
</svg>
