<?xml version="1.0" encoding="utf-8"?>
<!-- Generator: Adobe Illustrator 15.0.0, SVG Export Plug-In  -->
<!DOCTYPE svg PUBLIC "-//W3C//DTD SVG 1.1//EN" "http://www.w3.org/Graphics/SVG/1.1/DTD/svg11.dtd" [
	<!ENTITY ns_flows "http://ns.adobe.com/Flows/1.0/">
]>
<svg version="1.1"
	 xmlns="http://www.w3.org/2000/svg" xmlns:xlink="http://www.w3.org/1999/xlink" xmlns:a="http://ns.adobe.com/AdobeSVGViewerExtensions/3.0/"
	 x="0px" y="0px" width="48px" height="48px" viewBox="-2.29 -4.426 48 48"
	 xml:space="preserve">
<defs>
</defs>
<path d="M30.164,10.293c0,5.691-4.381,10.296-9.787,10.296c-5.412,0-9.792-4.604-9.792-10.296C10.585,4.608,14.965,0,20.377,0
	C25.783,0,30.164,4.608,30.164,10.293z"/>
<path d="M20.681,28.961c0-1.424,0.261-2.784,0.716-4.054c-0.337,0.011-0.676,0.018-1.021,0.018c-6.234,0-11.286-1.721-11.286-3.833
	c0-0.148,0.032-0.297,0.08-0.439C4.288,23.835,0.83,29.037,0,35.081h22.367C21.302,33.281,20.681,31.194,20.681,28.961z"/>
<path d="M33.242,19.115c-5.621,0-10.178,4.485-10.178,10.017s4.557,10.017,10.178,10.017c5.623,0,10.18-4.484,10.18-10.017
	S38.865,19.115,33.242,19.115z M39.542,30.281c0,0.629-0.516,1.146-1.146,1.146h-1.709c-0.631,0-1.148,0.518-1.148,1.146v1.709
	c0,0.631-0.516,1.148-1.146,1.148h-2.297c-0.629,0-1.146-0.516-1.146-1.148v-1.709c0-0.629-0.516-1.146-1.146-1.146h-1.709
	c-0.631,0-1.148-0.516-1.148-1.146v-2.297c0-0.63,0.518-1.146,1.148-1.146h1.709c0.629,0,1.146-0.516,1.146-1.147v-1.71
	c0-0.63,0.516-1.146,1.146-1.146h2.297c0.631,0,1.146,0.516,1.146,1.146v1.71c0,0.632,0.518,1.147,1.148,1.147h1.709
	c0.629,0,1.146,0.516,1.146,1.146V30.281z"/>
</svg>
