<?xml version="1.0" encoding="utf-8"?>
<!-- Generator: Adobe Illustrator 15.0.0, SVG Export Plug-In  -->
<!DOCTYPE svg PUBLIC "-//W3C//DTD SVG 1.1//EN" "http://www.w3.org/Graphics/SVG/1.1/DTD/svg11.dtd" [
	<!ENTITY ns_flows "http://ns.adobe.com/Flows/1.0/">
]>
<svg version="1.1"
	 xmlns="http://www.w3.org/2000/svg" xmlns:xlink="http://www.w3.org/1999/xlink" xmlns:a="http://ns.adobe.com/AdobeSVGViewerExtensions/3.0/"
	 x="0px" y="0px" width="48px" height="48px" viewBox="-2.803 -3.191 48 48"
	 xml:space="preserve">
<defs>
</defs>
<polygon points="16.256,0 16.256,8.082 18.763,8.082 18.763,2.601 39.886,2.601 39.886,39.018 18.763,39.018 18.763,32.049 
	16.256,32.049 16.256,41.618 42.394,41.618 42.394,0 "/>
<path d="M29.62,17.765H13.44c-0.871-2.799-3.481-4.831-6.565-4.831C3.077,12.934,0,16.012,0,19.809s3.077,6.874,6.875,6.874
	c3.084,0,5.694-2.031,6.565-4.83h6.335c-0.023,0.108-0.037,0.222-0.037,0.336v1.744c0,0.901,0.78,1.637,1.742,1.637
	c0.962,0,1.742-0.733,1.742-1.637v-1.744c0-0.114-0.014-0.228-0.039-0.336h2.455v2.623c0,1.024,0.832,1.856,1.858,1.856
	c1.025,0,1.857-0.832,1.857-1.856v-2.623h0.265c1.334,0,2.415-0.916,2.415-2.043C32.035,18.68,30.954,17.765,29.62,17.765z
	 M6.294,22.229c-1.551,0-2.808-1.257-2.808-2.808c0-1.551,1.257-2.809,2.808-2.809c1.551,0,2.808,1.257,2.808,2.809
	C9.101,20.972,7.844,22.229,6.294,22.229z"/>
</svg>
