<?xml version="1.0" encoding="utf-8"?>
<!-- Generator: Adobe Illustrator 15.0.0, SVG Export Plug-In  -->
<!DOCTYPE svg PUBLIC "-//W3C//DTD SVG 1.1//EN" "http://www.w3.org/Graphics/SVG/1.1/DTD/svg11.dtd" [
	<!ENTITY ns_flows "http://ns.adobe.com/Flows/1.0/">
]>
<svg version="1.1"
	 xmlns="http://www.w3.org/2000/svg" x="0px" y="0px" width="48px" height="48px" viewBox="-5.915 -3.697 48 48">
<defs>
</defs>
<polygon points="0,0 0,7.885 2.447,7.885 2.447,2.538 33.724,2.538 33.724,38.066 2.447,38.066 2.447,31.27 0,31.27 0,40.605 
	36.171,40.605 36.171,0 "/>
<path d="M0.311,19.326c0,1.101,1.055,1.994,2.356,1.994h0.259v2.56c0,1.001,0.811,1.812,1.811,1.812
	c1.002,0,1.814-0.811,1.814-1.812v-2.56h2.395c-0.024,0.105-0.037,0.215-0.037,0.328v1.701c0,0.881,0.761,1.596,1.7,1.596
	c0.938,0,1.7-0.715,1.7-1.596v-1.701c0-0.113-0.014-0.223-0.036-0.328h6.181c0.848,2.729,3.395,4.713,6.405,4.713
	c3.703,0,6.707-3.003,6.707-6.707c0-3.705-3.004-6.707-6.707-6.707c-3.011,0-5.559,1.982-6.406,4.713H2.667
	C1.366,17.332,0.311,18.225,0.311,19.326z M22.687,18.949c0-1.514,1.227-2.74,2.738-2.74c1.514,0,2.74,1.226,2.74,2.74
	c0,1.513-1.227,2.738-2.74,2.738C23.914,21.688,22.687,20.462,22.687,18.949z"/>
</svg>
