<?xml version="1.0" encoding="utf-8"?>
<!-- Generator: Adobe Illustrator 15.0.0, SVG Export Plug-In  -->
<!DOCTYPE svg PUBLIC "-//W3C//DTD SVG 1.1//EN" "http://www.w3.org/Graphics/SVG/1.1/DTD/svg11.dtd" [
	<!ENTITY ns_flows "http://ns.adobe.com/Flows/1.0/">
]>
<svg version="1.1"
	 xmlns="http://www.w3.org/2000/svg" xmlns:xlink="http://www.w3.org/1999/xlink" xmlns:a="http://ns.adobe.com/AdobeSVGViewerExtensions/3.0/"
	 x="0px" y="0px" width="48px" height="48px" viewBox="-1.543 -2.33 48 48"
	 xml:space="preserve">
<defs>
</defs>
<path d="M38.914,13.615h-1.387V2.399C37.529,1.074,36.455,0,35.13,0H10.892C9.567,0,8.493,1.074,8.493,2.399v11.216H6
	c-3.309,0-6,2.691-6,6v2.522c0,3.309,2.691,6,6,6h2.493v11.736c0,1.326,1.074,2.4,2.398,2.4h11.236l7.629,1.066c0,0,0-0.395,0-1.066
	h5.373c1.324,0,2.397-1.074,2.397-2.4V28.137h1.387c3.309,0,6-2.691,6-6v-2.522C44.914,16.307,42.223,13.615,38.914,13.615z
	 M33.32,2.113c1.82,0.045,2.193,0.682,2.16,2.159v9.343h-5.724c0-1.732,0-2.896,0-3.154c0-1.494-0.212-2.561-1.065-2.988
	c-0.854-0.427-14.946-5.338-14.946-5.338s-0.035-0.013-0.06-0.023C17.645,2.107,32.409,2.09,33.32,2.113z M35.48,38
	c0,1.191-0.967,2.16-2.16,2.16h-3.563c0-2.885,0-7.382,0-12.023h5.724V38z M43.914,22.137c0,2.756-2.243,5-5,5H6
	c-2.757,0-5-2.244-5-5v-2.522c0-2.757,2.243-5,5-5h32.914c2.757,0,5,2.243,5,5V22.137z"/>
<path d="M12.062,20.323h-2.32l1.641-1.639c0.236-0.236,0.264-0.592,0.062-0.793c-0.202-0.203-0.559-0.177-0.796,0.061l-1.64,1.638
	v-2.32c0-0.333-0.232-0.604-0.519-0.604c-0.287,0-0.519,0.271-0.519,0.604v2.32L6.33,17.951c-0.236-0.237-0.591-0.264-0.794-0.061
	c-0.202,0.201-0.175,0.557,0.062,0.793l1.641,1.639h-2.32c-0.334,0-0.604,0.232-0.604,0.52c0,0.286,0.271,0.518,0.604,0.518h2.32
	l-1.641,1.643c-0.236,0.235-0.263,0.592-0.061,0.795c0.202,0.201,0.557,0.176,0.793-0.062l1.641-1.642v2.321
	c0,0.332,0.231,0.604,0.519,0.604c0.286,0,0.519-0.271,0.519-0.604v-2.321l1.639,1.64c0.237,0.235,0.594,0.265,0.795,0.063
	c0.203-0.205,0.176-0.56-0.061-0.795l-1.64-1.643h2.319c0.334,0,0.605-0.231,0.605-0.518C12.667,20.555,12.396,20.323,12.062,20.323
	z"/>
<path d="M28.67,17.063c-0.229-0.169-0.496-0.294-0.805-0.372s-0.641-0.118-0.998-0.118c-0.373,0-0.734,0.044-1.084,0.133
	c-0.35,0.087-0.672,0.22-0.969,0.397v1.736c0.287-0.254,0.594-0.443,0.918-0.568c0.322-0.125,0.635-0.188,0.934-0.188
	c0.139,0,0.264,0.021,0.377,0.063s0.209,0.101,0.289,0.173c0.078,0.075,0.139,0.161,0.182,0.264c0.043,0.101,0.064,0.211,0.064,0.33
	c0,0.139-0.021,0.266-0.059,0.378c-0.039,0.114-0.097,0.224-0.172,0.329c-0.078,0.105-0.173,0.211-0.281,0.316
	c-0.11,0.108-0.237,0.221-0.383,0.344c-0.139,0.116-0.26,0.233-0.363,0.349c-0.104,0.118-0.192,0.241-0.26,0.369
	c-0.07,0.13-0.121,0.267-0.156,0.413c-0.033,0.145-0.053,0.306-0.053,0.484c0,0.111,0.012,0.23,0.032,0.355
	c0.021,0.125,0.052,0.235,0.091,0.336h1.517c-0.043-0.064-0.077-0.145-0.103-0.242c-0.022-0.096-0.037-0.19-0.037-0.282
	c0-0.133,0.019-0.254,0.053-0.36c0.035-0.106,0.087-0.205,0.152-0.301c0.066-0.094,0.152-0.187,0.254-0.285
	c0.102-0.096,0.221-0.2,0.355-0.311c0.199-0.166,0.377-0.326,0.529-0.481c0.154-0.156,0.283-0.319,0.387-0.487
	c0.104-0.17,0.184-0.35,0.236-0.539c0.055-0.192,0.082-0.403,0.082-0.638c0-0.369-0.064-0.685-0.193-0.949
	C29.076,17.449,28.898,17.232,28.67,17.063z"/>
<path d="M26.816,23.209c-0.31,0-0.565,0.09-0.769,0.271c-0.202,0.183-0.305,0.405-0.305,0.677c0,0.26,0.103,0.488,0.305,0.68
	c0.204,0.186,0.459,0.277,0.769,0.277c0.307,0,0.56-0.092,0.762-0.271c0.195-0.18,0.293-0.411,0.293-0.686
	c0-0.275-0.1-0.498-0.301-0.677C27.371,23.301,27.119,23.209,26.816,23.209z"/>
<path d="M17.508,23.209c-0.308,0-0.564,0.09-0.768,0.271c-0.203,0.183-0.305,0.405-0.305,0.677c0,0.26,0.102,0.488,0.305,0.68
	c0.205,0.186,0.46,0.277,0.768,0.277c0.307,0,0.561-0.092,0.762-0.271c0.196-0.18,0.293-0.411,0.293-0.686
	c0-0.275-0.1-0.498-0.3-0.677C18.064,23.301,17.812,23.209,17.508,23.209z"/>
<path d="M19.362,17.063c-0.229-0.169-0.496-0.294-0.804-0.372c-0.309-0.078-0.641-0.118-0.999-0.118
	c-0.372,0-0.733,0.044-1.084,0.133c-0.349,0.087-0.672,0.22-0.969,0.397v1.736c0.288-0.254,0.594-0.443,0.918-0.568
	c0.324-0.125,0.635-0.188,0.935-0.188c0.138,0,0.264,0.021,0.377,0.063c0.113,0.042,0.209,0.101,0.288,0.173
	c0.079,0.075,0.14,0.161,0.182,0.264c0.043,0.101,0.064,0.211,0.064,0.33c0,0.139-0.021,0.266-0.058,0.378
	c-0.039,0.114-0.097,0.224-0.173,0.329c-0.078,0.105-0.171,0.211-0.28,0.316c-0.111,0.108-0.238,0.221-0.384,0.344
	c-0.138,0.116-0.259,0.233-0.363,0.349c-0.104,0.118-0.191,0.241-0.26,0.369c-0.069,0.13-0.12,0.267-0.155,0.413
	c-0.034,0.145-0.053,0.306-0.053,0.484c0,0.111,0.011,0.23,0.032,0.355c0.021,0.125,0.051,0.235,0.09,0.336h1.517
	c-0.042-0.064-0.076-0.145-0.101-0.242c-0.024-0.096-0.037-0.19-0.037-0.282c0-0.133,0.018-0.255,0.053-0.36
	c0.034-0.106,0.085-0.205,0.152-0.301c0.066-0.094,0.152-0.187,0.253-0.285c0.101-0.096,0.22-0.2,0.355-0.311
	c0.199-0.166,0.377-0.326,0.53-0.481c0.154-0.156,0.282-0.319,0.386-0.487c0.104-0.17,0.183-0.35,0.237-0.539
	c0.054-0.192,0.081-0.403,0.081-0.638c0-0.369-0.064-0.685-0.193-0.949C19.769,17.449,19.591,17.232,19.362,17.063z"/>
<path d="M37.979,17.063c-0.229-0.169-0.496-0.294-0.805-0.372s-0.641-0.118-0.998-0.118c-0.373,0-0.734,0.044-1.084,0.133
	c-0.35,0.087-0.672,0.22-0.969,0.397v1.736c0.287-0.254,0.594-0.443,0.918-0.568c0.322-0.125,0.635-0.188,0.934-0.188
	c0.139,0,0.264,0.021,0.377,0.063s0.209,0.101,0.289,0.173c0.078,0.075,0.139,0.161,0.182,0.264c0.044,0.101,0.064,0.211,0.064,0.33
	c0,0.139-0.021,0.266-0.059,0.378c-0.039,0.114-0.096,0.224-0.172,0.329c-0.078,0.105-0.172,0.211-0.281,0.316
	c-0.109,0.108-0.236,0.221-0.383,0.344c-0.139,0.116-0.26,0.233-0.363,0.349c-0.104,0.118-0.191,0.241-0.26,0.369
	c-0.07,0.13-0.121,0.267-0.156,0.413c-0.033,0.145-0.053,0.306-0.053,0.484c0,0.111,0.012,0.23,0.033,0.355
	c0.02,0.125,0.051,0.235,0.09,0.336H36.8c-0.043-0.064-0.077-0.145-0.103-0.242c-0.022-0.096-0.036-0.19-0.036-0.282
	c0-0.133,0.019-0.254,0.053-0.36c0.035-0.106,0.086-0.205,0.152-0.301c0.065-0.094,0.151-0.187,0.254-0.285
	c0.101-0.096,0.22-0.2,0.354-0.311c0.199-0.166,0.377-0.326,0.529-0.481c0.155-0.156,0.283-0.319,0.387-0.487
	c0.104-0.17,0.184-0.35,0.236-0.539c0.055-0.192,0.082-0.403,0.082-0.638c0-0.369-0.064-0.685-0.193-0.949
	C38.385,17.449,38.208,17.232,37.979,17.063z"/>
<path d="M36.125,23.209c-0.309,0-0.564,0.09-0.768,0.271c-0.203,0.183-0.306,0.405-0.306,0.677c0,0.26,0.103,0.488,0.306,0.68
	c0.203,0.186,0.459,0.277,0.768,0.277c0.307,0,0.561-0.092,0.762-0.271c0.195-0.18,0.293-0.411,0.293-0.686
	c0-0.275-0.1-0.498-0.301-0.677C36.68,23.301,36.428,23.209,36.125,23.209z"/>
</svg>
