<?xml version="1.0" encoding="utf-8"?>
<svg version="1.1"
	 xmlns="http://www.w3.org/2000/svg" xmlns:xlink="http://www.w3.org/1999/xlink"
	 x="0px" y="0px" width="12px" height="12px" viewBox="-0.413 -0.413 12 12">
<defs>
</defs>
<path fill="#F79523" d="M5.081,7.069L5.064,6.832C5.008,6.351,5.172,5.804,5.628,5.257c0.41-0.483,0.638-0.838,0.638-1.248
	c0-0.464-0.291-0.774-0.865-0.783c-0.327,0-0.692,0.109-0.921,0.282L4.262,2.935C4.571,2.716,5.081,2.57,5.564,2.57
	c1.046,0,1.521,0.646,1.521,1.339c0,0.618-0.347,1.065-0.783,1.584c-0.401,0.475-0.547,0.884-0.52,1.35l0.019,0.227H5.081z
	 M4.89,8.353c0-0.336,0.228-0.572,0.538-0.572c0.328,0,0.537,0.236,0.537,0.572c0,0.321-0.209,0.566-0.546,0.566
	C5.109,8.919,4.89,8.674,4.89,8.353z"/>
<path fill="#F79523" d="M0,0v11.174h11.174V0H0z M10.346,10.348H0.828v-9.52h9.518V10.348z"/>
</svg>
