<?xml version="1.0" encoding="utf-8"?>
<svg version="1.1"
	 xmlns="http://www.w3.org/2000/svg" xmlns:xlink="http://www.w3.org/1999/xlink"
	 x="0px" y="0px" width="48px" height="48px" viewBox="-1.064 -1.949 48 48">
<defs>
</defs>
<path fill="#F79523" d="M31.878,14.041c0,5.844-4.5,10.573-10.051,10.573c-5.558,0-10.056-4.729-10.056-10.573
	c0-5.838,4.498-10.57,10.056-10.57C27.378,3.47,31.878,8.203,31.878,14.041z"/>
<path fill="#F79523" d="M33.509,24.803c-0.06-0.04-0.119-0.084-0.18-0.124c0.019,0.058,0.019,0.119,0.031,0.18
	C33.411,24.84,33.459,24.82,33.509,24.803z"/>
<path fill="#F79523" d="M26.737,34.251c0-2.239,0.746-4.3,1.991-5.965c-1.93,0.488-4.313,0.781-6.901,0.781
	c-6.402,0-11.59-1.768-11.59-3.937c0-0.153,0.033-0.305,0.083-0.452c-5.016,3.268-8.565,8.61-9.418,14.817h27.335
	C27.292,37.971,26.737,36.177,26.737,34.251z"/>
<path fill="#C8691C" d="M18.764,28.924c-4.914-0.456-8.527-1.98-8.527-3.793c0-0.153,0.033-0.305,0.083-0.452
	c-5.016,3.268-8.565,8.61-9.418,14.817h24.216L18.764,28.924z"/>
<circle fill="#52CAF5" cx="36.723" cy="34.251" r="8.392"/>
<path fill="#FFFFFF" d="M41.429,31.495c0,0.438-0.068,0.828-0.203,1.174c-0.134,0.348-0.313,0.658-0.536,0.929
	c-0.223,0.275-0.472,0.521-0.744,0.744c-0.274,0.223-0.551,0.442-0.83,0.661c-0.238,0.189-0.475,0.386-0.705,0.591
	c-0.23,0.203-0.433,0.427-0.606,0.666c-0.177,0.24-0.317,0.511-0.424,0.813c-0.105,0.304-0.158,0.637-0.158,0.999v0.177h-1.498
	c-0.013-0.211-0.022-0.373-0.022-0.481c0-0.495,0.072-0.942,0.22-1.344c0.146-0.401,0.345-0.754,0.597-1.061
	c0.251-0.306,0.523-0.576,0.818-0.808c0.296-0.233,0.585-0.46,0.87-0.679c0.195-0.152,0.382-0.311,0.556-0.471
	c0.176-0.159,0.33-0.33,0.466-0.512c0.135-0.184,0.239-0.38,0.316-0.597c0.078-0.214,0.115-0.457,0.115-0.726
	c0-0.321-0.067-0.609-0.203-0.863c-0.135-0.256-0.324-0.471-0.567-0.646c-0.244-0.175-0.536-0.31-0.875-0.404
	s-0.716-0.143-1.13-0.143c-0.549,0-1.085,0.069-1.612,0.208c-0.528,0.139-1,0.302-1.416,0.491v-1.441
	c0.393-0.211,0.868-0.384,1.427-0.515c0.556-0.132,1.115-0.195,1.678-0.195c0.691,0,1.313,0.08,1.862,0.245s1.018,0.396,1.403,0.698
	c0.383,0.303,0.682,0.664,0.89,1.083C41.323,30.509,41.429,30.979,41.429,31.495z M35.419,41.189v-2.13h1.692v2.13H35.419z"/>
<path fill="#C8691C" d="M10.374,17.421v-4.577c0-5.254,3.186-11.374,11.477-11.295c9.152,0.087,11.492,6.041,11.492,11.295v4.577
	l1.264-0.371v-5.24c0-6.003-3.871-11.742-12.749-11.81C13.709-0.061,9.108,5.807,9.108,11.81v5.24L10.374,17.421z"/>
<path fill="#C8691C" d="M9.908,16.912c0,0.904-0.731,1.636-1.635,1.636l0,0c-0.903,0-1.635-0.732-1.635-1.636V12.01
	c0-0.903,0.732-1.636,1.635-1.636l0,0c0.903,0,1.635,0.732,1.635,1.636V16.912z"/>
<path fill="#C8691C" d="M36.971,16.912c0,0.904-0.731,1.636-1.637,1.636l0,0c-0.902,0-1.634-0.732-1.634-1.636V12.01
	c0-0.903,0.731-1.636,1.634-1.636l0,0c0.905,0,1.637,0.732,1.637,1.636V16.912z"/>
<path fill="#C8691C" d="M34.323,20.76l0.816-3.665l-1.267-0.283l-0.681,3.049c-0.279,1.255-0.866,2.382-1.677,3.281
	c-0.272-0.326-0.644-0.578-1.089-0.681c-1.092-0.254-2.178,0.423-2.432,1.511c-0.252,1.088,0.423,2.173,1.512,2.427
	s2.174-0.422,2.428-1.511c0.006-0.02,0.004-0.038,0.008-0.059C33.099,23.787,33.96,22.396,34.323,20.76z"/>
<g>
	<path fill="#52CAF5" d="M9.118,42.871c-1.334,0-2.42-1.086-2.422-2.421l0.001-3.774H2.921C1.586,36.675,0.5,35.588,0.5,34.253
		c0.001-1.335,1.088-2.421,2.423-2.421l3.774,0.001l-0.001-3.776c0-1.335,1.086-2.421,2.421-2.421
		c1.335,0.001,2.421,1.087,2.423,2.421v3.776l3.774-0.001c1.333,0.001,2.419,1.087,2.422,2.42c0,1.337-1.086,2.424-2.422,2.424
		H11.54v3.774C11.539,41.785,10.452,42.871,9.118,42.871z"/>
	<path fill="#FFFFFF" d="M9.117,26.136c0.001,0,0.001,0,0.002,0c1.061,0.001,1.92,0.86,1.921,1.921v4.276l4.274-0.001
		c1.061,0.001,1.92,0.86,1.922,1.921c0,1.063-0.861,1.923-1.922,1.923H11.04v4.274c-0.001,1.061-0.859,1.921-1.922,1.921
		c-1.062,0-1.921-0.86-1.922-1.921l0.001-4.274H2.921C1.86,36.175,1,35.315,1,34.253c0.001-1.061,0.859-1.921,1.923-1.921
		l4.274,0.001l-0.001-4.276C7.196,26.996,8.056,26.136,9.117,26.136 M9.12,25.136L9.12,25.136H9.117
		c-1.61,0-2.921,1.311-2.921,2.921l0.001,3.276l-3.274-0.001c-1.61,0-2.921,1.31-2.923,2.92c0,1.611,1.31,2.922,2.92,2.924h3.277
		L6.196,40.45c0.001,1.611,1.312,2.921,2.922,2.921s2.92-1.31,2.922-2.92v-3.275h3.274c1.611,0,2.922-1.312,2.922-2.923
		c-0.003-1.61-1.313-2.919-2.921-2.921l-3.275,0.001v-3.276C12.039,26.447,10.729,25.138,9.12,25.136L9.12,25.136z"/>
</g>
<g>
	<path fill="#3588A6" d="M15.314,32.332l-4.274,0.001v-4.276c-0.001-1.027-0.809-1.857-1.822-1.911v16.217
		c1.014-0.054,1.821-0.885,1.822-1.912v-4.274h4.274c1.061,0,1.922-0.86,1.922-1.923C17.234,33.192,16.375,32.333,15.314,32.332z"/>
</g>
</svg>
