<?xml version="1.0" encoding="utf-8"?>
<svg version="1.1"
	 xmlns="http://www.w3.org/2000/svg" xmlns:xlink="http://www.w3.org/1999/xlink"
	 x="0px" y="0px" width="48px" height="48px" viewBox="-3.066 -3.884 48 48">
<defs>
</defs>
<polygon fill="#3588A6" points="20.532,14.085 33.157,2.913 39.473,9.229 27.815,21.37 "/>
<path fill="#F79523" d="M36.774,18.172h-2.729c-0.215-0.978-0.523-1.918-0.915-2.816l2.258-1.582
	c0.762-0.534,0.949-1.586,0.414-2.347l-1.639-2.34c-0.532-0.763-1.585-0.948-2.347-0.414L29.5,10.294
	c-0.712-0.658-1.484-1.245-2.315-1.757l0.972-2.671c0.321-0.875-0.133-1.843-1.005-2.162l-2.685-0.976
	c-0.876-0.32-1.842,0.133-2.161,1.007l-0.98,2.694c-0.687-0.095-1.382-0.162-2.095-0.162c-0.268,0-0.525,0.028-0.79,0.041
	l-0.742-2.772c-0.242-0.901-1.167-1.434-2.067-1.194L12.875,3.08c-0.899,0.24-1.435,1.167-1.193,2.066l0.738,2.75
	c-0.874,0.439-1.692,0.956-2.457,1.548l-2.171-1.82c-0.714-0.6-1.775-0.504-2.375,0.209l-1.835,2.188
	c-0.6,0.711-0.505,1.774,0.207,2.375l2.12,1.776c-0.678,1.237-1.182,2.583-1.494,4H1.686C0.755,18.172,0,18.927,0,19.858v2.855
	C0,23.646,0.755,24.4,1.686,24.4h2.657c0.197,1.005,0.493,1.973,0.877,2.893l-2.148,1.506c-0.762,0.534-0.947,1.587-0.414,2.347
	l1.638,2.34c0.533,0.764,1.586,0.949,2.348,0.417L8.76,32.42c0.74,0.707,1.55,1.333,2.42,1.88l-0.876,2.406
	c-0.319,0.876,0.134,1.846,1.008,2.162l2.683,0.977c0.875,0.319,1.845-0.132,2.163-1.007l0.869-2.39
	c0.721,0.105,1.453,0.18,2.204,0.18c0.295,0,0.585-0.028,0.876-0.046l0.657,2.456c0.242,0.9,1.166,1.433,2.067,1.194l2.757-0.74
	c0.899-0.24,1.433-1.166,1.19-2.065l-0.659-2.465c0.921-0.471,1.785-1.025,2.582-1.662l1.972,1.65
	c0.711,0.597,1.775,0.505,2.374-0.211l1.834-2.185c0.601-0.714,0.506-1.777-0.208-2.377l-2.004-1.683
	c0.668-1.27,1.162-2.644,1.449-4.095h2.657c0.931,0,1.688-0.755,1.688-1.688v-2.855C38.463,18.927,37.705,18.172,36.774,18.172z"/>
<path fill="#C8691C" d="M36.774,18.172h-2.729c-0.215-0.978-0.523-1.918-0.915-2.816l2.258-1.582
	c0.762-0.534,0.949-1.586,0.414-2.347l-1.639-2.34c-0.532-0.763-1.585-0.948-2.347-0.414L29.5,10.294
	c-0.712-0.658-1.484-1.245-2.315-1.757l0.972-2.671c0.321-0.875-0.133-1.843-1.005-2.162l-2.685-0.976
	c-0.876-0.32-1.842,0.133-2.161,1.007l-0.98,2.694c-0.517-0.072-1.042-0.115-1.571-0.138v30.312c0.117-0.01,0.235-0.014,0.352-0.021
	l0.657,2.456c0.242,0.9,1.166,1.433,2.067,1.194l2.757-0.74c0.899-0.24,1.433-1.166,1.19-2.065l-0.659-2.465
	c0.921-0.471,1.785-1.025,2.582-1.662l1.972,1.65c0.711,0.597,1.775,0.505,2.374-0.211l1.834-2.185
	c0.601-0.714,0.506-1.777-0.208-2.377l-2.004-1.683c0.668-1.27,1.162-2.644,1.449-4.095h2.657c0.931,0,1.688-0.755,1.688-1.688
	v-2.855C38.463,18.927,37.705,18.172,36.774,18.172z"/>
<path fill="#FFFFFF" d="M26.58,19.007h-5.069v-5.069c0-1.259-1.021-2.278-2.28-2.278c-1.26,0-2.279,1.02-2.279,2.278v5.069h-5.07
	c-1.258,0-2.278,1.021-2.278,2.279c0,1.259,1.02,2.278,2.278,2.278h5.07v5.071c0,1.258,1.019,2.279,2.279,2.279
	c1.258,0,2.28-1.021,2.28-2.279v-5.071h5.069c1.259,0,2.277-1.02,2.277-2.278C28.857,20.028,27.839,19.007,26.58,19.007"/>
<polygon fill="#3588A6" points="29.271,0.485 41.414,13.599 41.9,0 "/>
</svg>
