<?xml version="1.0" encoding="utf-8"?>
<!DOCTYPE svg PUBLIC "-//W3C//DTD SVG 1.1//EN" "http://www.w3.org/Graphics/SVG/1.1/DTD/svg11.dtd" [
	<!ENTITY ns_flows "http://ns.adobe.com/Flows/1.0/">
]>
<svg version="1.1"
	 xmlns="http://www.w3.org/2000/svg" xmlns:xlink="http://www.w3.org/1999/xlink"
	 x="0px" y="0px" width="48px" height="48px" viewBox="-3.195 -3.196 48 48">
<defs>
</defs>
<circle fill="#F79523" cx="20.805" cy="20.804" r="20.805"/>
<path fill="#3588A6" d="M26.775,12.771c0,1.719-0.996,4.12-2.21,5.334l-0.489,0.488c-1.215,1.215-1.215,3.205,0,4.419l0.489,0.488
	c1.214,1.217,2.21,3.617,2.21,5.336v4.947c0,1.719-0.996,2.131-2.21,0.914L12.879,23.013c-1.216-1.214-1.216-3.204,0-4.419
	L24.565,6.909c1.214-1.215,2.21-0.803,2.21,0.916V12.771z"/>
<path fill="#FFFFFF" d="M25.836,35.919c-0.522,0-1.074-0.287-1.639-0.852L12.511,23.382c-0.687-0.686-1.064-1.602-1.064-2.578
	s0.378-1.892,1.064-2.578L24.197,6.54c0.564-0.564,1.116-0.851,1.638-0.851c0.706,0,1.461,0.561,1.461,2.135v4.947
	c0,1.842-1.061,4.4-2.362,5.703l-0.489,0.489c-1.016,1.015-1.016,2.667,0,3.683l0.489,0.488c1.302,1.303,2.362,3.861,2.362,5.703
	v4.947C27.296,35.359,26.541,35.919,25.836,35.919z M25.835,6.731c-0.083,0-0.396,0.04-0.901,0.546L13.248,18.962
	c-0.489,0.49-0.759,1.144-0.759,1.842s0.27,1.352,0.759,1.842l11.686,11.686c0.506,0.506,0.818,0.547,0.902,0.547
	c0.289,0,0.418-0.549,0.418-1.094v-4.947c0-1.576-0.942-3.852-2.057-4.967l-0.489-0.488c-1.422-1.422-1.422-3.734,0-5.156
	l0.489-0.489c1.114-1.115,2.057-3.389,2.057-4.966V7.824C26.254,7.28,26.125,6.731,25.835,6.731z"/>
</svg>
