<?xml version="1.0" encoding="utf-8"?>
<svg version="1.1"
	 xmlns="http://www.w3.org/2000/svg" xmlns:xlink="http://www.w3.org/1999/xlink"
	 x="0px" y="0px" width="14px" height="14px" viewBox="-0.452 -0.445 14 14">
<defs>
</defs>
<path fill="#F79523" d="M13.097,10.896c0,1.224-0.99,2.214-2.215,2.214H2.214C0.991,13.109,0,12.119,0,10.896V2.214
	C0,0.991,0.991,0,2.214,0h8.668c1.225,0,2.215,0.991,2.215,2.214V10.896z"/>
<path fill="#C8691C" d="M10.882,0h-8.41l7.568,13.109h0.842c1.225,0,2.215-0.99,2.215-2.214V2.214C13.097,0.991,12.107,0,10.882,0z"
	/>
<path fill="#FFFFFF" d="M10.59,9.34L7.804,6.554l2.785-2.785c0.348-0.347,0.348-0.909,0.001-1.256c-0.348-0.347-0.909-0.347-1.257,0
	L6.548,5.298L3.763,2.513c-0.348-0.348-0.909-0.348-1.257,0C2.16,2.86,2.16,3.422,2.507,3.769l2.785,2.785L2.506,9.34
	c-0.347,0.348-0.347,0.909,0,1.257c0.347,0.347,0.909,0.347,1.256,0l2.786-2.786l2.786,2.786c0.347,0.347,0.908,0.347,1.256,0
	C10.937,10.249,10.937,9.688,10.59,9.34z"/>
<path fill="#E6E7E8" d="M7.804,6.554l2.785-2.785c0.348-0.347,0.348-0.909,0.001-1.256c-0.348-0.347-0.909-0.347-1.257,0
	L6.548,5.298L4.142,2.892l3.431,5.943l1.762,1.762c0.347,0.347,0.908,0.347,1.256,0c0.347-0.348,0.347-0.909,0-1.257L7.804,6.554z"
	/>
</svg>
