<?xml version="1.0" encoding="utf-8"?>
<svg version="1.1"
	 xmlns="http://www.w3.org/2000/svg" xmlns:xlink="http://www.w3.org/1999/xlink"
	 x="0px" y="0px" width="48px" height="48px" viewBox="-3.304 -6.341 48 48">
<defs>
</defs>
<path fill="#F89624" d="M38.033,0.332H27.468l-1.308,3.32h9.257c1.812,0.302,1.309,1.61,1.309,2.314l-1.609,14.892
	c0,0.703-0.604,1.308-1.31,1.308H16.199c-0.703,0-1.308-0.604-1.308-1.308l-1.006-7.647c0,0-0.201-1.711-1.106-2.516
	C11.873,9.99,9.357,9.99,9.357,9.99H0l0.202,3.421h7.546c0,0,1.308-0.1,1.811,0.302c0.604,0.503,0.503,1.208,0.503,1.208
	l1.107,7.647c0,1.107,1.811,2.918,2.918,2.918h21.934c1.107,0,2.617-2.214,2.617-3.22l1.911-18.313
	c0.402-1.911-1.408-3.522-2.214-3.522"/>
<path fill="#3689A6" d="M19.217,26.19c-2.314,0-4.225,1.911-4.225,4.125s1.911,4.126,4.225,4.126c2.315,0,4.226-1.912,4.226-4.126
	S21.431,26.19,19.217,26.19"/>
<path fill="#86D4F7" d="M19.217,27.398c-1.609,0-2.917,1.308-2.917,2.917c0,1.61,1.308,2.919,2.917,2.919
	c1.611,0,2.918-1.309,2.918-2.919C22.136,28.706,20.828,27.398,19.217,27.398"/>
<path fill="#3689A6" d="M30.285,26.291c-2.313,0-4.225,1.912-4.225,4.227c0,2.313,1.911,4.226,4.225,4.226
	c2.315,0,4.227-1.912,4.227-4.226C34.512,28.203,32.601,26.291,30.285,26.291"/>
<path fill="#86D4F7" d="M30.285,27.499c-1.609,0-2.917,1.308-2.917,2.918c0,1.609,1.308,2.917,2.917,2.917
	c1.61,0,2.919-1.308,2.919-2.917C33.204,28.806,31.896,27.499,30.285,27.499"/>
<path fill="#C86B28" d="M36.726,5.966l-1.609,14.892c0,0.703-0.604,1.308-1.31,1.308h-4.728l3.319,3.32h3.622
	c1.107,0,2.617-2.214,2.617-3.22l1.911-18.313c0.402-1.911-1.408-3.522-2.214-3.522l-0.302-0.1H27.468l-1.308,3.32h9.257
	C37.229,4.055,36.726,5.262,36.726,5.966z"/>
<polygon fill="#52CAF5" points="14.984,0 22.787,0.226 22.962,8.01 "/>
<path fill="#52CAF5" d="M24.643,18.897c3.967-0.006,7.365-2.408,8.838-5.833l-3.208-0.567c-1.126,1.977-3.245,3.313-5.685,3.317
	c-3.617,0.004-6.553-2.923-6.559-6.542c-0.001-1.891,0.804-3.592,2.084-4.791l-2.241-2.078c-1.776,1.75-2.879,4.182-2.875,6.872
	C15.004,14.596,19.324,18.903,24.643,18.897z"/>
</svg>
