<?xml version="1.0" encoding="utf-8"?>
<svg version="1.1"
	 xmlns="http://www.w3.org/2000/svg" xmlns:xlink="http://www.w3.org/1999/xlink"
	 x="0px" y="0px" width="48px" height="48px" viewBox="-3.304 -3.653 48 48">
<defs>
</defs>
<path fill="#F89624" d="M38.507,5.793H27.811l-1.324,3.362h9.372c1.833,0.305,1.324,1.63,1.324,2.343l-1.629,15.078
	c0,0.712-0.612,1.324-1.325,1.324H16.401c-0.712,0-1.324-0.612-1.324-1.324l-1.019-7.743c0,0-0.204-1.732-1.12-2.546
	c-0.917-0.713-3.464-0.713-3.464-0.713H0l0.204,3.464h7.641c0,0,1.324-0.102,1.833,0.306c0.612,0.509,0.51,1.222,0.51,1.222
	l1.121,7.742c0,1.122,1.833,2.955,2.954,2.955h22.207c1.122,0,2.649-2.241,2.649-3.26L41.054,9.46
	c0.408-1.935-1.426-3.566-2.241-3.566"/>
<path fill="#3689A6" d="M19.457,31.974c-2.343,0-4.278,1.936-4.278,4.177s1.935,4.177,4.278,4.177c2.344,0,4.278-1.936,4.278-4.177
	S21.698,31.974,19.457,31.974"/>
<path fill="#86D4F7" d="M19.457,33.197c-1.63,0-2.954,1.324-2.954,2.954s1.324,2.954,2.954,2.954c1.63,0,2.954-1.324,2.954-2.954
	S21.087,33.197,19.457,33.197"/>
<path fill="#3689A6" d="M30.663,32.076c-2.344,0-4.278,1.937-4.278,4.278c0,2.344,1.935,4.279,4.278,4.279
	c2.343,0,4.278-1.936,4.278-4.279C34.941,34.012,33.006,32.076,30.663,32.076"/>
<path fill="#86D4F7" d="M30.663,33.298c-1.63,0-2.954,1.324-2.954,2.954s1.324,2.954,2.954,2.954s2.954-1.324,2.954-2.954
	S32.293,33.298,30.663,33.298"/>
<path fill="#C86B28" d="M37.183,11.498l-1.629,15.078c0,0.712-0.612,1.324-1.325,1.324h-4.787l3.361,3.361h3.666
	c1.122,0,2.649-2.241,2.649-3.26L41.054,9.46c0.408-1.935-1.426-3.566-2.241-3.566l-0.306-0.101H27.811l-1.324,3.362h9.372
	C37.691,9.563,37.183,10.786,37.183,11.498z"/>
<path fill="#52CAF5" d="M28.15,4.65c-1.781-1.46-4.27-1.953-6.577-1.07c-3.418,1.309-5.132,5.142-3.822,8.564
	c0.625,1.628,1.826,2.857,3.276,3.569l1.844-4.167l2.661,7.419l-7.292,3.047l1.538-3.478c-2.17-1.04-3.966-2.868-4.896-5.293
	C12.96,8.211,15.477,2.573,20.506,0.647c3.75-1.436,7.833-0.401,10.47,2.302L28.15,4.65z"/>
</svg>
