<?xml version="1.0" encoding="utf-8"?>
<svg version="1.1"
	 xmlns="http://www.w3.org/2000/svg" xmlns:xlink="http://www.w3.org/1999/xlink"
	 x="0px" y="0px" width="48px" height="48px" viewBox="-3.304 -6.671 48 48">
<defs>
</defs>
<path fill="#F89624" d="M37.8,0H27.3L26,3.3h9.2C37,3.6,36.5,4.9,36.5,5.6L34.9,20.4c0,0.699-0.601,1.3-1.301,1.3H16.1
	c-0.699,0-1.3-0.601-1.3-1.3l-1-7.601c0,0-0.2-1.7-1.1-2.5c-0.9-0.7-3.4-0.7-3.4-0.7H0L0.2,13h7.5c0,0,1.3-0.1,1.8,0.3
	c0.6,0.5,0.5,1.2,0.5,1.2l1.1,7.6c0,1.101,1.8,2.9,2.9,2.9h21.8c1.101,0,2.601-2.2,2.601-3.2L40.3,3.6C40.7,1.7,38.9,0.1,38.1,0.1"
	/>
<path fill="#3689A6" d="M19.1,25.7c-2.3,0-4.199,1.899-4.199,4.1S16.8,33.9,19.1,33.9c2.301,0,4.2-1.9,4.2-4.101
	S21.3,25.7,19.1,25.7"/>
<path fill="#86D4F7" d="M19.1,26.9c-1.6,0-2.899,1.3-2.899,2.899c0,1.601,1.3,2.9,2.899,2.9c1.601,0,2.9-1.3,2.9-2.9
	C22,28.2,20.7,26.9,19.1,26.9"/>
<path fill="#3689A6" d="M30.1,25.8c-2.3,0-4.199,1.9-4.199,4.2s1.899,4.2,4.199,4.2c2.301,0,4.2-1.9,4.2-4.2S32.4,25.8,30.1,25.8"/>
<path fill="#86D4F7" d="M30.1,27c-1.6,0-2.899,1.3-2.899,2.9c0,1.6,1.3,2.899,2.899,2.899c1.601,0,2.9-1.3,2.9-2.899
	C33,28.3,31.7,27,30.1,27"/>
<path fill="#C86B28" d="M36.5,5.6L34.9,20.4c0,0.699-0.601,1.3-1.301,1.3H28.9l3.3,3.3h3.6c1.101,0,2.601-2.2,2.601-3.2L40.3,3.6
	C40.7,1.7,38.9,0.1,38.1,0.1L37.8,0H27.3L26,3.3h9.2C37,3.7,36.5,4.9,36.5,5.6z"/>
<g>
	<path fill="#52CAF5" d="M24.812,21.193c-1.334,0-2.421-1.086-2.422-2.421l0.001-3.774h-3.776c-1.335-0.001-2.421-1.088-2.421-2.423
		c0-1.335,1.087-2.421,2.422-2.421l3.775,0.001L22.39,6.379c0-1.335,1.087-2.421,2.422-2.421c1.334,0,2.421,1.086,2.422,2.42v3.777
		l3.774-0.001c1.333,0.001,2.419,1.087,2.422,2.42c0,1.337-1.087,2.424-2.422,2.424h-3.774v3.774
		C27.232,20.107,26.146,21.193,24.812,21.193z"/>
	<path fill="#FFFFFF" d="M24.812,4.458L24.812,4.458c1.062,0,1.921,0.86,1.922,1.921v4.276l4.274-0.001
		c1.061,0.001,1.92,0.86,1.922,1.921c0,1.063-0.861,1.923-1.922,1.923h-4.274v4.274c-0.001,1.061-0.859,1.921-1.922,1.921
		c-1.062,0-1.921-0.86-1.922-1.921l0.001-4.274h-4.276c-1.062-0.001-1.921-0.861-1.921-1.923c0-1.061,0.859-1.921,1.922-1.921
		l4.275,0.001L22.89,6.379C22.89,5.318,23.749,4.458,24.812,4.458 M24.813,3.458L24.813,3.458c-1.611,0-2.923,1.311-2.923,2.921
		l0.001,3.276l-3.275-0.001c-1.611,0-2.921,1.31-2.922,2.92c0,1.611,1.31,2.922,2.92,2.923h3.277l-0.001,3.274
		c0.002,1.611,1.313,2.921,2.922,2.921s2.92-1.31,2.922-2.92v-3.275h3.274c1.611,0,2.922-1.311,2.922-2.923
		c-0.003-1.61-1.313-2.919-2.921-2.921l-3.275,0.001V6.379C27.731,4.769,26.422,3.459,24.813,3.458L24.813,3.458z"/>
</g>
<g>
	<path fill="#3588A6" d="M31.008,10.654l-4.274,0.001V6.379c-0.001-1.027-0.809-1.858-1.822-1.911v16.217
		c1.014-0.054,1.821-0.885,1.822-1.912v-4.274h4.274c1.061,0,1.922-0.86,1.922-1.923C32.928,11.515,32.068,10.655,31.008,10.654z"/>
</g>
</svg>
