<?xml version="1.0" encoding="utf-8"?>
<svg version="1.1"
	 xmlns="http://www.w3.org/2000/svg" xmlns:xlink="http://www.w3.org/1999/xlink"
	 x="0px" y="0px" width="48px" height="48px" viewBox="-3.304 -6.671 48 48">
<defs>
</defs>
<path fill="#F89624" d="M38.258,0H27.63l-1.315,3.34h9.312c1.822,0.303,1.316,1.62,1.316,2.328l-1.619,14.98
	c0,0.708-0.608,1.315-1.316,1.315H16.294c-0.708,0-1.315-0.607-1.315-1.315l-1.012-7.693c0,0-0.202-1.721-1.113-2.53
	c-0.911-0.708-3.441-0.708-3.441-0.708H0l0.203,3.441h7.591c0,0,1.315-0.101,1.822,0.304c0.607,0.506,0.506,1.215,0.506,1.215
	l1.113,7.691c0,1.114,1.822,2.936,2.935,2.936h22.064c1.113,0,2.632-2.227,2.632-3.239l1.923-18.42
	c0.405-1.922-1.417-3.542-2.228-3.542"/>
<path fill="#3689A6" d="M19.331,26.012c-2.328,0-4.25,1.922-4.25,4.148c0,2.228,1.923,4.15,4.25,4.15
	c2.329,0,4.251-1.923,4.251-4.15C23.582,27.934,21.558,26.012,19.331,26.012"/>
<path fill="#86D4F7" d="M19.331,27.226c-1.619,0-2.935,1.316-2.935,2.935c0,1.62,1.315,2.936,2.935,2.936
	c1.62,0,2.936-1.315,2.936-2.936C22.267,28.542,20.951,27.226,19.331,27.226"/>
<path fill="#3689A6" d="M30.464,26.112c-2.327,0-4.25,1.923-4.25,4.251c0,2.327,1.923,4.251,4.25,4.251
	c2.329,0,4.251-1.924,4.251-4.251C34.715,28.035,32.793,26.112,30.464,26.112"/>
<path fill="#86D4F7" d="M30.464,27.327c-1.619,0-2.935,1.315-2.935,2.936c0,1.619,1.315,2.935,2.935,2.935
	c1.62,0,2.936-1.315,2.936-2.935C33.399,28.643,32.084,27.327,30.464,27.327"/>
<path fill="#C86B28" d="M36.942,5.667l-1.619,14.98c0,0.708-0.608,1.315-1.316,1.315H29.25l3.34,3.34h3.644
	c1.113,0,2.632-2.227,2.632-3.239l1.923-18.42c0.405-1.922-1.417-3.542-2.228-3.542L38.258,0H27.63l-1.315,3.34h9.312
	C37.448,3.745,36.942,4.96,36.942,5.667z"/>
<g>
	<path fill="#52CAF5" d="M29.546,19.607c-0.653,0-1.267-0.254-1.729-0.716l-2.705-2.706l-2.706,2.706
		c-0.463,0.462-1.077,0.716-1.729,0.716c-0.653,0-1.267-0.255-1.729-0.717c-0.462-0.461-0.716-1.075-0.716-1.729
		c0-0.653,0.254-1.267,0.715-1.728l2.706-2.705l-2.707-2.707c-0.953-0.954-0.952-2.506,0.001-3.458
		c0.462-0.461,1.076-0.716,1.729-0.716s1.267,0.255,1.729,0.717l2.706,2.707l2.705-2.708c0.462-0.461,1.075-0.716,1.729-0.716
		s1.269,0.255,1.73,0.718c0.951,0.952,0.951,2.502,0.001,3.456l-2.709,2.708l2.707,2.705c0.951,0.952,0.951,2.502,0.002,3.456
		C30.813,19.353,30.199,19.607,29.546,19.607L29.546,19.607z"/>
	<path fill="#FFFFFF" d="M29.546,6.348c0.498,0,0.996,0.19,1.377,0.571c0.758,0.759,0.758,1.989,0,2.749l-3.062,3.061l3.061,3.059
		c0.758,0.759,0.758,1.99,0.001,2.75c-0.381,0.381-0.879,0.57-1.377,0.57s-0.996-0.19-1.375-0.569l-3.059-3.059l-3.06,3.059
		c-0.38,0.379-0.877,0.569-1.375,0.569c-0.497,0-0.995-0.19-1.375-0.57c-0.76-0.759-0.759-1.991,0-2.75l3.06-3.059l-3.06-3.06
		c-0.759-0.761-0.759-1.991,0.001-2.751c0.38-0.379,0.877-0.569,1.375-0.569s0.995,0.19,1.375,0.57l3.06,3.06l3.059-3.061
		C28.551,6.538,29.048,6.348,29.546,6.348 M29.546,5.348c-0.786,0-1.525,0.306-2.082,0.862l-2.352,2.354L22.76,6.211
		c-0.557-0.557-1.296-0.863-2.083-0.863c-0.786,0-1.525,0.306-2.082,0.862c-1.148,1.148-1.149,3.017-0.002,4.166l2.354,2.354
		l-2.352,2.352c-0.556,0.556-0.862,1.295-0.862,2.082c0,0.787,0.306,1.526,0.863,2.083c0.556,0.556,1.295,0.862,2.082,0.862
		c0.786,0,1.525-0.306,2.082-0.861l2.354-2.353l2.352,2.352c0.556,0.556,1.295,0.862,2.082,0.862c0.786,0,1.526-0.307,2.084-0.862
		c1.146-1.151,1.145-3.018,0-4.164l-2.354-2.352l2.354-2.354c1.146-1.149,1.146-3.016,0.001-4.163
		C31.073,5.655,30.333,5.348,29.546,5.348L29.546,5.348z"/>
</g>
<g>
	<path fill="#3588A6" d="M28.125,6.956l-3.059,3.06l-3.06-3.061c-0.736-0.733-1.909-0.75-2.672-0.063l11.605,11.606
		c0.688-0.764,0.67-1.938-0.063-2.673l-3.06-3.06l3.06-3.059c0.76-0.759,0.76-1.991-0.002-2.752
		C30.115,6.198,28.884,6.198,28.125,6.956z"/>
</g>
</svg>
