<?xml version="1.0" encoding="utf-8"?>
<svg version="1.1"
	 xmlns="http://www.w3.org/2000/svg" xmlns:xlink="http://www.w3.org/1999/xlink"
	 x="0px" y="0px" width="48px" height="48px" viewBox="-0.995 -3.893 48 48">
<defs>
</defs>
<path fill="#C8691C" d="M35.852,0H20.163v4.021h13.966c1.903,0,2.011,1.544,2.011,3.448v25.277c0,1.904-0.107,3.447-2.011,3.447
	H20.163v4.021h15.688c2.38,0,4.31-1.93,4.31-4.309V4.309C40.161,1.929,38.231,0,35.852,0z"/>
<path fill="#F79523" d="M4.436,0h15.688v4.021H6.158c-1.903,0-2.011,1.544-2.011,3.448v25.277c0,1.904,0.107,3.447,2.011,3.447
	h13.965v4.021H4.436c-2.38,0-4.31-1.93-4.31-4.309V4.309C0.126,1.929,2.056,0,4.436,0z"/>
<polygon fill="#3588A6" points="1.433,21.625 15.537,37.879 44.533,6.704 38.349,1.895 16.763,27.143 7.895,16.375 "/>
<path fill="#FFFFFF" d="M38.349,1.895l6.185,4.81L15.537,37.879L1.433,21.625l6.462-5.25l8.868,10.768L38.349,1.895 M38.209,0.519
	l-0.62,0.726L16.777,25.587l-8.111-9.848l-0.632-0.767l-0.771,0.626l-6.462,5.25L0,21.5l0.677,0.78l14.105,16.254l0.729,0.841
	l0.758-0.815L45.266,7.385l0.744-0.8l-0.862-0.671l-6.185-4.81L38.209,0.519L38.209,0.519z"/>
</svg>
