<?xml version="1.0" encoding="utf-8"?>
<svg version="1.1"
	 xmlns="http://www.w3.org/2000/svg" xmlns:xlink="http://www.w3.org/1999/xlink"
	 x="0px" y="0px" width="48px" height="48px" viewBox="-3.896 -4.441 48 48">
<defs>
</defs>
<path fill="#52CAF5" d="M28.164,32.096c0.334,0.334,0.334,0.874,0,1.209l-6.187,6.186c-0.333,0.334-0.875,0.334-1.209,0L0.251,18.97
	c-0.335-0.332-0.335-0.874,0-1.208l6.185-6.185c0.335-0.334,0.876-0.334,1.211,0L28.164,32.096z"/>
<path fill="#3588A6" d="M28.466,32.399c0.167,0.167,0.032,0.571-0.302,0.906l-6.187,6.186c-0.333,0.334-0.739,0.469-0.905,0.303
	L10.824,29.545c-0.166-0.166-0.032-0.572,0.303-0.906l6.187-6.184c0.332-0.335,0.737-0.47,0.905-0.307L28.466,32.399z"/>
<rect x="16.066" y="6.891" transform="matrix(0.7073 -0.7069 0.7069 0.7073 -10.6118 18.8785)" fill="#F79523" width="2.848" height="30.724"/>
<rect x="21.443" y="19.874" transform="matrix(0.7073 -0.7069 0.7069 0.7073 -12.8399 24.2539)" fill="#C8691C" width="2.848" height="15.514"/>
<path fill="#F79523" d="M14.726,17.751c0,0,2.188,0.294,6.682-3.015c5.834-4.3,9.965-9.687,10.935-10.938
	c0.382-0.492,6.124-4.751,7.272-3.604c1.015,1.016-2.937,6.827-3.607,7.27c-2.196,1.448-8.688,7.979-10.877,10.875
	c-1.511,2.004-3.132,6.681-3.132,6.681L14.726,17.751z"/>
<path fill="#C8691C" d="M18.313,21.336l3.686,3.685c0,0,1.621-4.677,3.132-6.681c2.188-2.896,8.681-9.427,10.877-10.875
	c0.671-0.443,4.622-6.254,3.607-7.27c-0.027-0.029-0.06-0.049-0.092-0.07L18.313,21.336z"/>
</svg>
