<?xml version="1.0" encoding="utf-8"?>
<svg version="1.1"
	 xmlns="http://www.w3.org/2000/svg" xmlns:xlink="http://www.w3.org/1999/xlink"
	 x="0px" y="0px" width="48px" height="48px" viewBox="-7.342 -3.777 48 48">
<defs>
</defs>
<polygon fill="#3588A6" points="18.108,15.752 10.685,4.889 16.298,2.173 25.351,15.39 "/>
<path fill="#F79523" d="M33.706,35.526c0,2.099-1.701,3.802-3.801,3.802H4.122c-2.102,0-3.803-1.703-3.803-3.802V18.494
	c0-2.1,1.701-3.802,3.803-3.802h25.783c2.1,0,3.801,1.702,3.801,3.802V35.526z"/>
<path fill="#F79523" d="M29.073,11.971c-0.16-6.709-5.729-12.017-12.438-11.856C9.926,0.276,4.617,5.846,4.779,12.555l0.172,7.16
	c0.162,6.709,5.73,12.018,12.439,11.856s12.017-5.731,11.856-12.44L29.073,11.971z M17.316,28.435
	c-5.156,0.123-9.439-4.127-9.568-9.494l-0.139-5.729C7.48,7.845,11.555,3.394,16.711,3.27c5.154-0.124,9.438,4.127,9.567,9.494
	l0.137,5.728C26.544,23.859,22.471,28.31,17.316,28.435z"/>
<path fill="#C8691C" d="M18.589,34.47c0,1.061-0.859,1.92-1.92,1.92l0,0c-1.059,0-1.918-0.859-1.918-1.92V22.705
	c0-1.061,0.859-1.92,1.918-1.92l0,0c1.061,0,1.92,0.859,1.92,1.92V34.47z"/>
<path fill="#C8691C" d="M19.995,22.32c0,1.836-1.488,3.324-3.326,3.324l0,0c-1.836,0-3.324-1.488-3.324-3.324l0,0
	c0-1.837,1.488-3.326,3.324-3.326l0,0C18.507,18.994,19.995,20.483,19.995,22.32L19.995,22.32z"/>
<path fill="#C8691C" d="M31.043,39.134c1.54-0.485,2.663-1.908,2.663-3.608V18.494c0-2.1-1.701-3.802-3.801-3.802h-10.59
	L31.043,39.134z"/>
<path fill="#C8691C" d="M14.676,3.559c0.653-0.168,1.333-0.272,2.035-0.289c5.154-0.124,9.438,4.127,9.567,9.494l0.137,5.728
	c0.058,2.389-0.721,4.592-2.053,6.316l1.417,3.107c2.212-2.26,3.549-5.373,3.468-8.785l-0.174-7.16
	c-0.16-6.709-5.729-12.017-12.438-11.856c-1.143,0.027-2.24,0.223-3.281,0.543L14.676,3.559z"/>
<polygon fill="#3588A6" points="10.865,24.263 5.071,17.925 4.528,21.728 1.27,21.728 6.339,28.427 "/>
<polygon fill="#52CAF5" points="0,23.902 33.768,28.761 33.706,35.526 0,30.552 "/>
<polygon fill="#52CAF5" points="15.211,0 12.272,39.653 6.66,39.653 9.779,2.173 "/>
</svg>
