<?xml version="1.0" encoding="utf-8"?>
<svg version="1.1"
	 xmlns="http://www.w3.org/2000/svg" xmlns:xlink="http://www.w3.org/1999/xlink"
	 x="0px" y="0px" width="48px" height="48px" viewBox="-1.578 -4.685 48 48">
<defs>
</defs>
<path fill="#C8691C" d="M14.153,33.174c-5.209-5.956-4.764-14.913,0.885-20.337l3.997,4.598L18.598,2.562L3.878,0l3.526,4.056
	C6.248,4.99-6.202,18.218,3.97,32.284C8.26,38.216,16.145,39.77,22.769,38C19.542,37.45,16.477,35.829,14.153,33.174z"/>
<path fill="#F79523" d="M18.598,2.562L3.878,0l3.526,4.056C6.248,4.99-6.202,18.218,3.97,32.284C8.26,38.216,16.145,39.77,22.769,38
	C6.774,38.425,3.359,21.87,7.902,13.127C11.154,6.868,18.598,2.562,18.598,2.562z"/>
<path fill="#52CAF5" d="M30.368,6.642c5.209,5.956,4.764,14.914-0.885,20.337l-3.997-4.598l0.438,14.872l14.72,2.563l-3.526-4.057
	c1.156-0.934,13.606-14.16,3.435-28.227C36.262,1.6,28.377,0.046,21.753,1.815C24.979,2.366,28.045,3.986,30.368,6.642z"/>
<path fill="#3588A6" d="M25.924,37.253l14.72,2.563l-3.526-4.057c1.156-0.934,13.606-14.16,3.435-28.227
	C36.262,1.6,28.377,0.046,21.753,1.815c15.994-0.425,19.409,16.13,14.866,24.873C33.367,32.947,25.924,37.253,25.924,37.253z"/>
</svg>
