<?xml version="1.0" encoding="utf-8"?>
<svg version="1.1"
	 xmlns="http://www.w3.org/2000/svg" xmlns:xlink="http://www.w3.org/1999/xlink"
	 x="0px" y="0px" width="48px" height="48px" viewBox="-2.056 -4.187 48 48">
<defs>
</defs>
<polygon fill="#F79523" points="24.565,39.92 9.995,39.92 0,30.931 0,11.937 24.565,11.937 "/>
<polygon fill="#C8691C" points="10.208,31.521 0,30.931 10.208,39.994 "/>
<polygon fill="#F79523" points="43.444,27.983 28.873,27.983 18.878,18.994 18.878,0 43.444,0 "/>
<polygon fill="#C8691C" points="29.086,19.584 18.878,18.994 29.086,28.058 "/>
<rect x="12.483" y="17.054" transform="matrix(0.6849 -0.7287 0.7287 0.6849 -6.6566 22.1885)" fill="#52CAF5" width="19.684" height="3.473"/>
<rect x="22.296" y="15.611" transform="matrix(-0.0309 -0.9995 0.9995 -0.0309 12.8079 47.1135)" fill="#52CAF5" width="13.895" height="3.474"/>
<rect x="16.811" y="10.456" transform="matrix(0.9995 -0.031 0.031 0.9995 -0.3661 0.7414)" fill="#52CAF5" width="13.894" height="3.474"/>
</svg>
