<?xml version="1.0" encoding="utf-8"?>
<svg version="1.1"
	 xmlns="http://www.w3.org/2000/svg" xmlns:xlink="http://www.w3.org/1999/xlink"
	 x="0px" y="0px" width="48px" height="48px" viewBox="0 0 48 48">
<defs>
</defs>
<path fill="#F79523" d="M2.275,6.77v18.202c0,1.691,1.372,3.063,3.064,3.063h1.467l1.892,8.518l6.084-8.518H28.52
	c1.691,0,3.063-1.371,3.063-3.063V6.77c0-1.692-1.371-3.063-3.063-3.063H5.34C3.647,3.706,2.275,5.078,2.275,6.77z M5.135,9.017
	c0-1.354,0.076-2.451,1.431-2.451h20.728c1.354,0,1.43,1.097,1.43,2.451v13.708c0,1.354-0.076,2.452-1.43,2.452H6.565
	c-1.354,0-1.431-1.098-1.431-2.452V9.017z"/>
<path fill="#F79523" d="M11.003,14.636c0,0.225-0.061,0.418-0.182,0.58l-1.01,1.364v1.301H8.807v-1.177
	c0-0.233,0.061-0.432,0.181-0.598l0.997-1.35v-1.324H8.815v1.262H7.802v-1.488c0-0.425,0.211-0.638,0.633-0.638h1.931
	c0.425,0,0.638,0.213,0.638,0.638V14.636z M9.829,19.499h-1.04v-1.063h1.04V19.499z"/>
<path fill="#F79523" d="M16.083,14.531c0,0.225-0.061,0.418-0.182,0.58l-1.009,1.364v1.301h-1.005v-1.177
	c0-0.233,0.061-0.433,0.182-0.598l0.996-1.35v-1.324h-1.17v1.262h-1.014v-1.488c0-0.425,0.211-0.638,0.633-0.638h1.932
	c0.425,0,0.637,0.212,0.637,0.638V14.531z M14.91,19.393h-1.04V18.33h1.04V19.393z"/>
<path fill="#F79523" d="M21.059,14.425c0,0.225-0.061,0.418-0.181,0.58l-1.01,1.364v1.302h-1.006v-1.178
	c0-0.233,0.061-0.432,0.182-0.598l0.996-1.35v-1.324h-1.169v1.262h-1.014v-1.488c0-0.425,0.211-0.638,0.634-0.638h1.93
	c0.426,0,0.638,0.213,0.638,0.638V14.425z M19.885,19.287h-1.04v-1.063h1.04V19.287z"/>
<path fill="#F79523" d="M26.457,14.425c0,0.225-0.059,0.418-0.18,0.58l-1.01,1.364v1.302h-1.006v-1.178
	c0-0.233,0.061-0.432,0.182-0.598l0.996-1.35v-1.324h-1.169v1.262h-1.014v-1.488c0-0.425,0.211-0.638,0.633-0.638h1.931
	c0.426,0,0.637,0.213,0.637,0.638V14.425z M25.285,19.287h-1.041v-1.063h1.041V19.287z"/>
<path fill="#52CAF5" d="M42.66,11.447H31.547v2.859h9.889c1.354,0,1.43,1.097,1.43,2.451v13.708c0,1.354-0.076,2.451-1.43,2.451
	H20.707c-1.354,0-1.431-1.098-1.431-2.451v-2.563h-2.859v4.809c0,1.691,1.372,3.064,3.064,3.064h13.737l6.084,8.518l1.891-8.518
	h1.467c1.693,0,3.064-1.373,3.064-3.064V14.511C45.725,12.819,44.354,11.447,42.66,11.447z"/>
<path fill="#52CAF5" d="M39.102,19.548l-0.16,5.824h-0.893l-0.16-5.824H39.102z M39.053,27.142h-1.125v-1.164h1.125V27.142z"/>
<g>
	<g>
		<path fill="#52CAF5" d="M34.338,19.548l-0.16,5.824h-0.893l-0.16-5.824H34.338z M34.289,27.142h-1.125v-1.164h1.125V27.142z"/>
	</g>
</g>
</svg>
