<?xml version="1.0" encoding="utf-8"?>
<!-- Generator: Adobe Illustrator 15.0.0, SVG Export Plug-In  -->
<!DOCTYPE svg PUBLIC "-//W3C//DTD SVG 1.1//EN" "http://www.w3.org/Graphics/SVG/1.1/DTD/svg11.dtd" [
	<!ENTITY ns_flows "http://ns.adobe.com/Flows/1.0/">
]>
<svg version="1.1"
	 xmlns="http://www.w3.org/2000/svg" xmlns:xlink="http://www.w3.org/1999/xlink" xmlns:a="http://ns.adobe.com/AdobeSVGViewerExtensions/3.0/"
	 x="0px" y="0px" width="48px" height="48px" viewBox="-2.212 -3.832 48 48" enable-background="new -2.212 -3.832 48 48"
	 xml:space="preserve">
<defs>
</defs>
<path fill="#C8691C" d="M0,3.063v18.202c0,1.691,1.372,3.063,3.064,3.063h1.467l1.892,8.518l6.084-8.518h13.736
	c1.692,0,3.063-1.371,3.063-3.063V3.063C29.307,1.372,27.936,0,26.243,0H3.064C1.372,0,0,1.372,0,3.063z M2.859,5.311
	c0-1.354,0.076-2.451,1.431-2.451h20.728c1.354,0,1.43,1.097,1.43,2.451v13.708c0,1.354-0.076,2.452-1.43,2.452H4.29
	c-1.354,0-1.431-1.098-1.431-2.452V5.311z"/>
<path fill="#3588A6" d="M8.728,10.93c0,0.225-0.061,0.418-0.182,0.58l-1.01,1.364v1.302H6.531v-1.178
	c0-0.233,0.061-0.432,0.181-0.598l0.997-1.35V9.726H6.54v1.262H5.526V9.5c0-0.425,0.21-0.638,0.633-0.638H8.09
	c0.425,0,0.638,0.213,0.638,0.638V10.93z M7.554,15.792h-1.04v-1.063h1.04V15.792z"/>
<path fill="#3588A6" d="M13.808,10.825c0,0.225-0.061,0.418-0.182,0.58l-1.009,1.364v1.302h-1.005v-1.178
	c0-0.233,0.061-0.433,0.182-0.598l0.996-1.35V9.621h-1.17v1.262h-1.014V9.395c0-0.425,0.211-0.638,0.633-0.638h1.932
	c0.425,0,0.637,0.212,0.637,0.638V10.825z M12.635,15.687h-1.04v-1.063h1.04V15.687z"/>
<path fill="#3588A6" d="M18.783,10.719c0,0.225-0.061,0.418-0.181,0.58l-1.01,1.364v1.302h-1.006v-1.178
	c0-0.233,0.061-0.432,0.182-0.598l0.996-1.35V9.515h-1.169v1.262h-1.014V9.289c0-0.425,0.211-0.638,0.634-0.638h1.93
	c0.426,0,0.638,0.213,0.638,0.638V10.719z M17.609,15.581h-1.04v-1.063h1.04V15.581z"/>
<path fill="#3588A6" d="M24.182,10.719c0,0.225-0.06,0.418-0.181,0.58l-1.01,1.364v1.302h-1.005v-1.178
	c0-0.233,0.061-0.432,0.182-0.598l0.996-1.35V9.515h-1.169v1.262h-1.014V9.289c0-0.425,0.211-0.638,0.633-0.638h1.931
	c0.425,0,0.637,0.213,0.637,0.638V10.719z M23.009,15.581h-1.04v-1.063h1.04V15.581z"/>
<path fill="#52CAF5" d="M40.385,7.741H29.271v2.859h9.889c1.354,0,1.431,1.097,1.431,2.451V26.76c0,1.354-0.076,2.451-1.431,2.451
	H18.432c-1.354,0-1.431-1.098-1.431-2.451v-2.563h-2.859v4.809c0,1.691,1.372,3.064,3.064,3.064h13.736l6.084,8.518l1.892-8.518
	h1.467c1.692,0,3.064-1.373,3.064-3.064V10.805C43.449,9.113,42.077,7.741,40.385,7.741z"/>
<path fill="#3588A6" d="M40.385,7.742H29.492v2.859h9.667c1.354,0,1.431,1.098,1.431,2.452V26.76c0,1.354-0.076,2.451-1.431,2.451
	h-9.667v2.859h1.45l6.084,8.518l1.892-8.518h1.467c1.692,0,3.064-1.373,3.064-3.064V10.805C43.449,9.113,42.077,7.742,40.385,7.742z
	"/>
<text transform="matrix(1 0 0 1 35.1572 23.4355)" fill="#3588A6" font-family="'AgencyFB-Bold'" font-size="9.9368">!</text>
<text transform="matrix(1 0 0 1 30.3936 23.4355)" fill="#3588A6" font-family="'AgencyFB-Bold'" font-size="9.9368">!</text>
<path fill="#F79523" d="M3.064,0h10.893v2.859H4.29c-1.354,0-1.431,1.098-1.431,2.452v13.708c0,1.354,0.076,2.452,1.431,2.452h9.667
	v2.857h-1.45l-6.084,8.518l-1.892-8.518H3.064C1.372,24.328,0,22.957,0,21.266V3.064C0,1.372,1.372,0,3.064,0z"/>
</svg>
