<?xml version="1.0" encoding="utf-8"?>
<svg version="1.1"
	 xmlns="http://www.w3.org/2000/svg" xmlns:xlink="http://www.w3.org/1999/xlink"
	 x="0px" y="0px" width="48px" height="48px" viewBox="0 0 48 48">
<defs>
</defs>
<path fill="#52CAF5" d="M17.532,14.173L9.254,5.895l6.493,0V1.201l-14.546,0L1.2,15.748h4.694V9.253l8.279,8.278
	C15.054,16.197,16.197,15.054,17.532,14.173z"/>
<path fill="#52CAF5" d="M46.8,15.748L46.799,1.2l-14.546,0v4.694l6.493,0l-8.278,8.279c1.335,0.88,2.479,2.024,3.358,3.358
	l8.279-8.278v6.495H46.8z"/>
<path fill="#52CAF5" d="M17.532,33.826c-1.335-0.88-2.479-2.023-3.358-3.358l-8.279,8.279v-6.495H1.2L1.201,46.8h14.546v-4.694
	H9.254L17.532,33.826z"/>
<path fill="#52CAF5" d="M42.105,32.252v6.495l-8.279-8.279c-0.88,1.335-2.023,2.479-3.358,3.358l8.278,8.279h-6.493V46.8h14.546
	L46.8,32.252H42.105z"/>
<circle fill="#F79523" cx="24" cy="24" r="5.985"/>
</svg>
