<?xml version="1.0" encoding="utf-8"?>
<svg version="1.1"
	 xmlns="http://www.w3.org/2000/svg" xmlns:xlink="http://www.w3.org/1999/xlink"
	 x="0px" y="0px" width="48px" height="48px" viewBox="-1.351 -3.451 48 48">
<defs>
</defs>
<path fill="#C8691C" d="M32.589,21.314c0.048,0.148,0.082,0.301,0.082,0.454c0,2.184-5.212,3.958-11.642,3.958
	c-6.434,0-11.646-1.774-11.646-3.958c0-0.152,0.032-0.306,0.083-0.454C4.425,24.601,0.856,29.97,0,36.205h42.055
	C41.198,29.97,37.632,24.601,32.589,21.314z"/>
<path fill="#C8691C" d="M31.132,10.625c0,5.871-4.522,10.624-10.103,10.624c-5.587,0-10.106-4.753-10.106-10.624
	C10.923,4.756,15.442,0,21.029,0C26.609,0,31.132,4.756,31.132,10.625z"/>
<path fill="#F79523" d="M17.95,25.58c-4.936-0.459-8.567-1.99-8.567-3.813c0-0.152,0.032-0.306,0.083-0.454
	C4.425,24.601,0.856,29.97,0,36.205h24.336L17.95,25.58z"/>
<circle fill="#E6E7E8" cx="32.814" cy="28.936" r="12.333"/>
<path fill="#52CAF5" d="M32.813,19.308c-5.315,0-9.625,4.311-9.625,9.627s4.309,9.628,9.625,9.628c5.318,0,9.627-4.312,9.627-9.628
	S38.131,19.308,32.813,19.308z M40.516,28.936c0,1.738-0.582,3.334-1.553,4.625L28.19,22.787c1.287-0.973,2.885-1.554,4.622-1.554
	C37.068,21.233,40.516,24.684,40.516,28.936z M25.112,28.936c0-1.854,0.657-3.556,1.749-4.885L37.7,34.889
	c-1.329,1.093-3.031,1.75-4.888,1.75C28.56,36.639,25.112,33.188,25.112,28.936z"/>
<path fill="#3588A6" d="M32.845,19.311v1.924c4.238,0.018,7.671,3.458,7.671,7.701c0,1.738-0.582,3.334-1.553,4.625l-6.118-6.12
	v2.595l4.855,4.854c-1.323,1.087-3.013,1.741-4.855,1.748v1.925c5.302-0.017,9.595-4.32,9.595-9.626S38.146,19.328,32.845,19.311z"
	/>
</svg>
