<?xml version="1.0" encoding="utf-8"?>
<svg version="1.1"
	 xmlns="http://www.w3.org/2000/svg" xmlns:xlink="http://www.w3.org/1999/xlink"
	 x="0px" y="0px" width="48px" height="48px" viewBox="-9.293 -2.225 48 48">
<defs>
</defs>
<polygon fill="#F79523" points="15.801,33.101 23.01,43.192 25.309,32.845 "/>
<path fill="#F79523" d="M26.603,9.896h-1.74v2.899h0.497c1.373,0,1.449,1.113,1.449,2.485v13.896c0,1.373-0.076,2.485-1.449,2.485
	H4.349c-1.373,0-1.45-1.112-1.45-2.485V15.28c0-1.372,0.077-2.485,1.45-2.485h0.719V9.896H3.105C1.39,9.896,0,11.287,0,13.001
	v18.453c0,1.714,1.39,3.104,3.105,3.104h23.498c1.715,0,3.105-1.391,3.105-3.104V13.001C29.708,11.287,28.317,9.896,26.603,9.896z"
	/>
<path fill="#3588A6" d="M17.904,10.461l1.436,5.466c0,0,0.181,0.827,0.662,0.829c0.635,0.003,1.586-3.065,1.586-3.065l-2.028-4.72
	L17.904,10.461z"/>
<path fill="#52CAF5" d="M16.482,0.149c0.311-0.367,0.785,0.061,0.785,0.061l7.738,4.956l-3.61,9.04c0,0-0.137,0.92-0.618,0.934
	c-0.48,0.015-0.605-0.907-0.605-0.907l-0.875-3.218c0,0-11.198-1.602-14.873,7.948c0,0,0.233-11.92,12.882-15.022l-0.804-2.866
	C16.503,1.075,16.232,0.444,16.482,0.149z"/>
<polygon fill="#C8691C" points="20.625,20.971 16.056,20.971 16.056,16.4 13.549,16.4 13.549,20.971 8.979,20.971 8.979,23.477 
	13.549,23.477 13.549,28.047 16.056,28.047 16.056,23.477 20.625,23.477 "/>
</svg>
