<?xml version="1.0" encoding="utf-8"?>
<svg version="1.1"
	 xmlns="http://www.w3.org/2000/svg" xmlns:xlink="http://www.w3.org/1999/xlink"
	 x="0px" y="0px" width="48px" height="48px" viewBox="-9.687 -3.045 48 48">
<defs>
</defs>
<polygon fill="#F79523" points="15.194,31.831 22.127,41.535 24.337,31.583 "/>
<path fill="#F79523" d="M25.581,9.516h-1.673v2.788h0.478c1.32,0,1.394,1.07,1.394,2.39v13.361c0,1.32-0.073,2.39-1.394,2.39H4.182
	c-1.32,0-1.394-1.069-1.394-2.39V14.694c0-1.32,0.074-2.39,1.394-2.39h0.692V9.516H2.986C1.337,9.516,0,10.853,0,12.502v17.743
	c0,1.649,1.337,2.986,2.986,2.986h22.595c1.649,0,2.986-1.337,2.986-2.986V12.502C28.567,10.853,27.23,9.516,25.581,9.516z"/>
<path fill="#3588A6" d="M17.218,10.06l1.38,5.256c0,0,0.173,0.795,0.636,0.797c0.611,0.003,1.526-2.947,1.526-2.947l-1.95-4.539
	L17.218,10.06z"/>
<path fill="#52CAF5" d="M15.85,0.143c0.299-0.353,0.755,0.058,0.755,0.058l7.441,4.766l-3.472,8.693c0,0-0.132,0.885-0.594,0.898
	c-0.463,0.014-0.583-0.872-0.583-0.872l-0.841-3.095c0,0-10.769-1.541-14.302,7.643c0,0,0.224-11.463,12.388-14.446l-0.773-2.755
	C15.869,1.033,15.61,0.427,15.85,0.143z"/>
<path fill="#F79523" d="M21.24,21.07h-0.999c-0.079-0.358-0.191-0.703-0.335-1.032l0.826-0.579c0.279-0.196,0.348-0.582,0.152-0.86
	l-0.6-0.858c-0.194-0.279-0.583-0.347-0.861-0.15l-0.847,0.594c-0.261-0.242-0.543-0.458-0.848-0.644l0.356-0.979
	c0.116-0.321-0.05-0.674-0.368-0.792l-0.984-0.357c-0.321-0.116-0.676,0.05-0.79,0.37l-0.362,0.986
	c-0.248-0.035-0.504-0.059-0.763-0.059c-0.101,0-0.195,0.009-0.29,0.015l-0.273-1.016c-0.088-0.331-0.427-0.525-0.755-0.437
	l-1.01,0.27c-0.33,0.088-0.525,0.428-0.438,0.757l0.27,1.006c-0.317,0.163-0.619,0.35-0.9,0.567l-0.792-0.666
	c-0.263-0.22-0.651-0.185-0.871,0.077l-0.673,0.801c-0.218,0.259-0.185,0.649,0.076,0.869l0.776,0.65
	c-0.247,0.453-0.432,0.945-0.547,1.466H8.392c-0.341,0-0.618,0.277-0.618,0.617v1.046c0,0.34,0.277,0.617,0.618,0.617h0.974
	c0.072,0.367,0.18,0.723,0.322,1.06L8.9,24.959c-0.281,0.195-0.349,0.583-0.152,0.862l0.599,0.854
	c0.197,0.281,0.58,0.347,0.862,0.152l0.773-0.54c0.271,0.256,0.566,0.485,0.886,0.687l-0.321,0.879
	c-0.119,0.322,0.049,0.677,0.369,0.792l0.982,0.358c0.322,0.117,0.674-0.049,0.791-0.369l0.319-0.873
	c0.263,0.04,0.531,0.065,0.809,0.065c0.107,0,0.213-0.01,0.319-0.018l0.239,0.9c0.089,0.327,0.429,0.526,0.756,0.438l1.011-0.271
	c0.328-0.09,0.524-0.428,0.437-0.757l-0.24-0.902c0.335-0.173,0.653-0.376,0.946-0.609l0.719,0.603
	c0.26,0.219,0.649,0.186,0.871-0.078l0.671-0.797c0.22-0.261,0.186-0.65-0.077-0.869l-0.733-0.619
	c0.245-0.465,0.426-0.967,0.529-1.498h0.975c0.34,0,0.619-0.277,0.619-0.617v-1.046C21.859,21.347,21.58,21.07,21.24,21.07z
	 M14.818,25.651c-1.903,0-3.443-1.542-3.443-3.441c0-1.901,1.54-3.441,3.443-3.441c1.899,0,3.439,1.541,3.439,3.441
	C18.258,24.109,16.718,25.651,14.818,25.651z"/>
<path fill="#C8691C" d="M21.24,21.07h-0.999c-0.079-0.358-0.191-0.703-0.335-1.032l0.826-0.579c0.279-0.196,0.348-0.582,0.152-0.86
	l-0.6-0.858c-0.194-0.279-0.583-0.347-0.861-0.15l-0.847,0.594c-0.261-0.242-0.543-0.458-0.848-0.644l0.356-0.979
	c0.116-0.321-0.05-0.674-0.368-0.792l-0.984-0.357c-0.321-0.116-0.676,0.05-0.79,0.37l-0.362,0.986
	c-0.248-0.035-0.504-0.059-0.763-0.059c-0.013,0-0.023,0.001-0.034,0.001v2.059c0.011-0.001,0.021-0.001,0.034-0.001
	c1.899,0,3.439,1.541,3.439,3.441c0,1.899-1.54,3.441-3.439,3.441c-0.013,0-0.023-0.003-0.034-0.003v2.177
	c0.011,0,0.021,0.003,0.034,0.003c0.107,0,0.213-0.01,0.319-0.018l0.239,0.9c0.089,0.327,0.429,0.526,0.756,0.438l1.011-0.271
	c0.328-0.09,0.524-0.428,0.437-0.757l-0.24-0.902c0.335-0.173,0.653-0.376,0.946-0.609l0.719,0.603
	c0.26,0.219,0.649,0.186,0.871-0.078l0.671-0.797c0.22-0.261,0.186-0.65-0.077-0.869l-0.733-0.619
	c0.245-0.465,0.426-0.967,0.529-1.498h0.975c0.34,0,0.619-0.277,0.619-0.617v-1.046C21.859,21.347,21.58,21.07,21.24,21.07z"/>
</svg>
