<?xml version="1.0" encoding="utf-8"?>
	<svg version="1.1"
	 xmlns="http://www.w3.org/2000/svg" xmlns:xlink="http://www.w3.org/1999/xlink"
	 x="0px" y="0px" width="48px" height="48px" viewBox="0 0 48 48">
<defs>
</defs>
<polygon fill="#F79523" points="25.285,33.9 35.058,45.58 38.173,33.551 "/>
<path fill="#F79523" d="M39.927,2.443h-2.359v3.93h0.676c1.861,0,1.964,1.51,1.964,3.37v18.836c0,1.861-0.103,3.367-1.964,3.367
	H9.759c-1.86,0-1.965-1.506-1.965-3.367V9.742c0-1.86,0.104-3.37,1.965-3.37h0.976v-3.93H8.073c-2.324,0-4.209,1.885-4.209,4.209
	v25.016c0,2.322,1.885,4.207,4.209,4.207h31.854c2.325,0,4.209-1.885,4.209-4.207V6.652C44.136,4.328,42.252,2.443,39.927,2.443z"/>
<path fill="#52CAF5" d="M20.773,9.029c0,1.339-1.084,2.423-2.422,2.423l-3.924-0.222l0.001,4.614c-1.337,0-2.421-2.084-2.421-3.423
	V4.843c0-1.338,1.084-2.424,2.421-2.424h3.923c1.338,0,2.422,1.086,2.422,2.424V9.029z"/>
<path fill="#52CAF5" d="M32.569,9.029c0,1.339-1.084,2.423-2.422,2.423l-3.925-0.222l0.004,4.614c-1.34,0-2.424-2.084-2.424-3.423
	V4.843c0-1.338,1.084-2.424,2.424-2.424h3.921c1.338,0,2.422,1.086,2.422,2.424V9.029z"/>
<path fill="#52CAF5" d="M30.412,23.95c0-1.296,1.05-2.346,2.347-2.346l3.8,0.216l-0.001-4.501c1.296,0,2.346,2.05,2.346,3.346v7.341
	c0,1.295-1.05,2.348-2.346,2.348h-3.799c-1.297,0-2.347-1.053-2.347-2.348V23.95z"/>
<path fill="#52CAF5" d="M18.987,23.95c0-1.296,1.051-2.346,2.347-2.346l3.799,0.216l-0.001-4.501c1.297,0,2.346,1.05,2.346,2.346
	v8.341c0,1.295-1.049,2.348-2.346,2.348h-3.798c-1.296,0-2.347-1.053-2.347-2.348V23.95z"/>
</svg>
