<?xml version="1.0" encoding="utf-8"?>
<svg version="1.1"
	 xmlns="http://www.w3.org/2000/svg" xmlns:xlink="http://www.w3.org/1999/xlink"
	 x="0px" y="0px" width="48px" height="48px" viewBox="-9.521 -2.5 48 48">
<defs>
</defs>
<polygon fill="#F79523" points="15.648,32.781 22.788,42.775 25.064,32.527 "/>
<path fill="#F79523" d="M26.346,9.801h-1.724v2.871h0.492c1.36,0,1.436,1.102,1.436,2.461v13.761c0,1.359-0.075,2.461-1.436,2.461
	H4.307c-1.359,0-1.436-1.102-1.436-2.461V15.133c0-1.359,0.076-2.461,1.436-2.461h0.712V9.801H3.075C1.377,9.801,0,11.178,0,12.876
	V31.15c0,1.697,1.377,3.074,3.075,3.074h23.271c1.698,0,3.075-1.377,3.075-3.074V12.876C29.421,11.178,28.044,9.801,26.346,9.801z"
	/>
<path fill="#3588A6" d="M17.731,10.36l1.422,5.413c0,0,0.179,0.819,0.655,0.821c0.629,0.003,1.571-3.036,1.571-3.036l-2.009-4.674
	L17.731,10.36z"/>
<path fill="#52CAF5" d="M16.323,0.147c0.308-0.364,0.777,0.061,0.777,0.061l7.664,4.908l-3.576,8.952c0,0-0.135,0.912-0.611,0.925
	c-0.477,0.015-0.6-0.898-0.6-0.898l-0.867-3.188c0,0-11.089-1.586-14.729,7.871c0,0,0.23-11.805,12.758-14.877l-0.796-2.838
	C16.344,1.064,16.076,0.439,16.323,0.147z"/>
</svg>
