<?xml version="1.0" encoding="utf-8"?>
<svg version="1.1"
	 xmlns="http://www.w3.org/2000/svg" xmlns:xlink="http://www.w3.org/1999/xlink"
	 x="0px" y="0px" width="48px" height="48px" viewBox="0 0 48 48">
<defs>
</defs>
<path fill="#FCB51E" d="M24,2.799C12.29,2.799,2.799,12.291,2.799,24S12.29,45.201,24,45.201c11.709,0,21.201-9.492,21.201-21.201
	S35.709,2.799,24,2.799z M40.961,24c0,3.91-1.336,7.5-3.559,10.368L13.632,10.598C16.501,8.375,20.09,7.039,24,7.039
	C33.366,7.039,40.961,14.633,40.961,24z M7.038,24c0-3.909,1.336-7.499,3.559-10.367l23.77,23.77
	C31.499,39.624,27.909,40.96,24,40.96C14.633,40.96,7.038,33.367,7.038,24z"/>
<path fill="#FFFFFF" d="M24,2.799c11.709,0,21.201,9.492,21.201,21.201S35.709,45.201,24,45.201C12.29,45.201,2.799,35.709,2.799,24
	S12.29,2.799,24,2.799 M37.402,34.368C39.625,31.5,40.961,27.91,40.961,24c0-9.367-7.595-16.961-16.961-16.961
	c-3.91,0-7.499,1.336-10.368,3.559L37.402,34.368 M24,40.96c3.909,0,7.499-1.336,10.366-3.558l-23.77-23.77
	C8.374,16.501,7.038,20.091,7.038,24C7.038,33.367,14.633,40.96,24,40.96 M24,1.756C11.733,1.756,1.756,11.734,1.756,24
	S11.733,46.244,24,46.244c12.265,0,22.244-9.979,22.244-22.244S36.265,1.756,24,1.756L24,1.756z M15.236,10.728
	C17.846,8.992,20.852,8.082,24,8.082c8.777,0,15.918,7.141,15.918,15.918c0,3.149-0.911,6.155-2.646,8.763L15.236,10.728
	L15.236,10.728z M24,39.918c-8.777,0-15.919-7.14-15.919-15.918c0-3.148,0.911-6.153,2.646-8.763l22.035,22.035
	C30.153,39.008,27.146,39.918,24,39.918L24,39.918z"/>
</svg>
