<?xml version="1.0" encoding="utf-8"?>
<!DOCTYPE svg PUBLIC "-//W3C//DTD SVG 1.1//EN" "http://www.w3.org/Graphics/SVG/1.1/DTD/svg11.dtd" [
	<!ENTITY ns_flows "http://ns.adobe.com/Flows/1.0/">
]>
<svg version="1.1"
	 xmlns="http://www.w3.org/2000/svg" xmlns:xlink="http://www.w3.org/1999/xlink"
	 x="0px" y="0px" width="48px" height="48px" viewBox="-1.353 -1.082 48 48">
<defs>
</defs>
<path fill="#F79523" d="M32.458,39.142c0,0-1.636-1.733-2.211-5.903c-0.576-4.161,8.407-23.707-1.4-28.052V5.186
	c-0.01-0.004-0.019-0.007-0.028-0.012C28.81,5.169,28.8,5.165,28.79,5.161l-0.001,0.001C18.916,0.97,10.779,20.881,7.348,23.304
	c-3.439,2.428-5.822,2.418-5.822,2.418s-1.856,1.921-1.475,3.791l15.15,6.573l0,0l15.494,6.723
	C32.324,41.81,32.458,39.142,32.458,39.142z"/>
<path fill="#C8691C" d="M28.847,5.187V5.186c-0.01-0.004-0.019-0.007-0.028-0.012C28.81,5.169,28.8,5.165,28.79,5.161l-0.001,0.001
	C28.405,5,28.026,4.885,27.647,4.792c8.852,6.406-0.058,26.065,0.673,30.491c0.772,4.684,2.721,6.664,2.721,6.664
	s-0.01,0.267-0.07,0.665c1.368-1.112,1.487-3.471,1.487-3.471s-1.636-1.733-2.211-5.903C29.671,29.078,38.654,9.532,28.847,5.187z"
	/>
<path fill="#F79523" d="M18.008,40.074c-0.012,0.023-0.025,0.044-0.036,0.069c-0.774,1.783,0.046,3.855,1.828,4.628
	c1.782,0.773,3.854-0.045,4.629-1.827c0.011-0.024,0.018-0.049,0.027-0.074L18.008,40.074z"/>
<path fill="#F79523" d="M30.266,0c-1.9,0-3.441,1.541-3.441,3.44s1.541,3.44,3.441,3.44c1.899,0,3.439-1.541,3.439-3.44
	S32.165,0,30.266,0z M30.266,5.642c-1.217,0-2.203-0.986-2.203-2.202s0.986-2.202,2.203-2.202c1.215,0,2.201,0.986,2.201,2.202
	S31.48,5.642,30.266,5.642z"/>
<circle fill="#3588A6" cx="32.642" cy="22.12" r="14.006"/>
<polygon fill="#FFFFFF" points="20.935,23.238 28.198,31.608 43.131,15.554 39.946,13.077 28.83,26.079 24.263,20.534 "/>
</svg>
