<?xml version="1.0" encoding="utf-8"?>
<!-- Generator: Adobe Illustrator 15.0.0, SVG Export Plug-In  -->
<!DOCTYPE svg PUBLIC "-//W3C//DTD SVG 1.1//EN" "http://www.w3.org/Graphics/SVG/1.1/DTD/svg11.dtd" [
	<!ENTITY ns_flows "http://ns.adobe.com/Flows/1.0/">
]>
<svg version="1.1"
	 xmlns="http://www.w3.org/2000/svg" xmlns:xlink="http://www.w3.org/1999/xlink" xmlns:a="http://ns.adobe.com/AdobeSVGViewerExtensions/3.0/"
	 x="0px" y="0px" width="48px" height="48px" viewBox="-0.676 -1.469 48 48" enable-background="new -0.676 -1.469 48 48"
	 xml:space="preserve">
<defs>
</defs>
<path fill="#F89624" d="M32.458,39.143c0,0-1.636-1.733-2.211-5.903c-0.576-4.161,8.407-23.707-1.399-28.052V5.186
	c-0.011-0.004-0.02-0.007-0.029-0.012C28.811,5.169,28.8,5.165,28.79,5.161l-0.001,0.001c-9.873-4.192-18.01,15.719-21.44,18.143
	c-3.439,2.428-5.822,2.418-5.822,2.418s-1.856,1.92-1.475,3.791l15.15,6.572l0,0l15.494,6.723
	C32.324,41.811,32.458,39.143,32.458,39.143z"/>
<path fill="#C86B28" d="M28.848,5.187L28.848,5.187c-0.011-0.005-0.02-0.008-0.029-0.013C28.811,5.169,28.8,5.165,28.79,5.161
	l-0.001,0.001C28.404,5,28.025,4.885,27.646,4.792c8.853,6.406-0.058,26.065,0.674,30.491c0.771,4.684,2.721,6.664,2.721,6.664
	s-0.01,0.267-0.07,0.664c1.368-1.111,1.487-3.471,1.487-3.471s-1.636-1.732-2.211-5.902C29.671,29.078,38.654,9.532,28.848,5.187z"
	/>
<path fill="#F89624" d="M18.008,40.074c-0.012,0.023-0.025,0.044-0.035,0.068c-0.774,1.783,0.045,3.855,1.827,4.629
	c1.782,0.772,3.854-0.045,4.629-1.828c0.01-0.023,0.018-0.049,0.026-0.073L18.008,40.074z"/>
<path fill="#F89624" d="M30.266,0c-1.899,0-3.44,1.541-3.44,3.44s1.541,3.44,3.44,3.44s3.439-1.541,3.439-3.44S32.165,0,30.266,0z
	 M30.266,5.642c-1.217,0-2.203-0.986-2.203-2.202c0-1.216,0.986-2.202,2.203-2.202c1.215,0,2.201,0.986,2.201,2.202
	C32.467,4.656,31.48,5.642,30.266,5.642z"/>
<circle fill="#3689A6" cx="32.643" cy="22.12" r="14.006"/>
<path fill="#FFFFFF" d="M32.55,10.189c-6.566,0-11.89,5.324-11.89,11.891c0,6.564,5.323,11.89,11.89,11.89s11.89-5.325,11.89-11.89
	C44.439,15.514,39.116,10.189,32.55,10.189z M42.062,22.08c0,2.146-0.719,4.116-1.916,5.711L26.84,14.485
	c1.591-1.2,3.563-1.919,5.71-1.919C37.804,12.566,42.062,16.826,42.062,22.08z M23.038,22.08c0-2.291,0.811-4.393,2.158-6.034
	l13.39,13.387c-1.644,1.349-3.745,2.159-6.036,2.159C27.296,31.592,23.038,27.333,23.038,22.08z"/>
</svg>
