<?xml version="1.0" encoding="utf-8"?>
	<svg version="1.1"
	 xmlns="http://www.w3.org/2000/svg" xmlns:xlink="http://www.w3.org/1999/xlink"
	 x="0px" y="0px" width="48px" height="48px" viewBox="0 0 48 48">
<defs>
</defs>
<path fill="#F79523" d="M33.492,40.23c0,0-1.594-1.688-2.154-5.752c-0.562-4.055,8.191-23.099-1.365-27.333V7.144
	c-0.009-0.004-0.018-0.007-0.027-0.011c-0.009-0.004-0.018-0.009-0.027-0.013l-0.001,0.001c-9.62-4.085-17.548,15.316-20.891,17.677
	c-3.352,2.365-5.673,2.355-5.673,2.355s-1.809,1.872-1.437,3.694l14.763,6.405l0,0l15.097,6.55
	C33.361,42.83,33.492,40.23,33.492,40.23z"/>
<path fill="#C8691C" d="M29.973,7.146V7.144c-0.009-0.004-0.018-0.007-0.027-0.011c-0.009-0.004-0.018-0.009-0.027-0.013
	l-0.001,0.001c-0.374-0.159-0.743-0.27-1.112-0.36c8.625,6.242-0.057,25.398,0.655,29.71c0.753,4.563,2.651,6.493,2.651,6.493
	s-0.01,0.26-0.068,0.647c1.333-1.083,1.449-3.382,1.449-3.382s-1.594-1.688-2.154-5.752C30.776,30.424,39.529,11.379,29.973,7.146z"
	/>
<path fill="#F79523" d="M19.412,41.139c-0.012,0.022-0.024,0.043-0.035,0.067c-0.754,1.737,0.045,3.757,1.781,4.51
	s3.756-0.044,4.51-1.78c0.011-0.024,0.018-0.048,0.027-0.072L19.412,41.139z"/>
<path fill="#F79523" d="M31.355,2.091c-1.852,0-3.354,1.501-3.354,3.353c0,1.851,1.502,3.352,3.354,3.352
	c1.851,0,3.352-1.501,3.352-3.352C34.707,3.592,33.206,2.091,31.355,2.091z M31.355,7.589c-1.186,0-2.146-0.96-2.146-2.145
	c0-1.185,0.961-2.146,2.146-2.146c1.184,0,2.145,0.96,2.145,2.146C33.5,6.628,32.539,7.589,31.355,7.589z"/>
<circle fill="#52CAF5" cx="32.353" cy="23.495" r="13.647"/>
<path fill="#FFFFFF" d="M32.269,14.091c-5.253,0-9.512,4.26-9.512,9.512c0,5.252,4.259,9.512,9.512,9.512s9.512-4.26,9.512-9.512
	C41.78,18.351,37.521,14.091,32.269,14.091z M39.878,23.604c0,1.717-0.575,3.293-1.533,4.568L27.7,17.528
	c1.273-0.96,2.852-1.535,4.568-1.535C36.472,15.993,39.878,19.401,39.878,23.604z M24.659,23.604c0-1.833,0.648-3.514,1.727-4.827
	l10.712,10.709c-1.315,1.078-2.996,1.727-4.829,1.727C28.065,31.213,24.659,27.807,24.659,23.604z"/>
</svg>
