<?xml version="1.0" encoding="utf-8"?>
<svg version="1.1"
	 xmlns="http://www.w3.org/2000/svg" xmlns:xlink="http://www.w3.org/1999/xlink"
	 x="0px" y="0px" width="48px" height="48px" viewBox="-3.25 -10.58 48 48">
<defs>
</defs>
<rect y="6.67" fill="#F79523" width="40" height="19.75"/>
<rect x="21" y="6.67" fill="#C8691C" width="19" height="19.75"/>
<path fill="#FFFFFF" d="M15.573,22.439v-1.587c-0.92-0.015-1.856-0.301-2.411-0.698l0.381-1.062c0.555,0.363,1.38,0.682,2.268,0.682
	c1.127,0,1.889-0.65,1.889-1.555c0-0.872-0.619-1.412-1.793-1.887c-1.618-0.637-2.617-1.382-2.617-2.761
	c0-1.317,0.936-2.316,2.379-2.555V9.431h1v1.54c0.936,0.031,1.586,0.285,2.063,0.554l-0.397,1.048
	c-0.333-0.19-0.983-0.556-1.999-0.556c-1.222,0-1.681,0.73-1.681,1.381c0,0.809,0.587,1.221,1.967,1.809
	c1.634,0.665,2.459,1.475,2.459,2.887c0,1.269-0.873,2.442-2.507,2.697v1.649H15.573z"/>
<path fill="#FFFFFF" d="M23.51,22.439v-1.587c-0.921-0.015-1.856-0.301-2.412-0.698l0.381-1.062c0.556,0.363,1.381,0.682,2.27,0.682
	c1.126,0,1.887-0.65,1.887-1.555c0-0.872-0.619-1.412-1.793-1.887c-1.618-0.637-2.617-1.382-2.617-2.761
	c0-1.317,0.938-2.316,2.38-2.555V9.431h0.998v1.54c0.938,0.031,1.588,0.285,2.064,0.554l-0.397,1.048
	c-0.334-0.19-0.983-0.556-1.999-0.556c-1.221,0-1.682,0.73-1.682,1.381c0,0.809,0.588,1.221,1.968,1.809
	c1.634,0.665,2.459,1.475,2.459,2.887c0,1.269-0.873,2.442-2.508,2.697v1.649H23.51z"/>
<rect y="4.767" fill="#F79523" width="21" height="0.891"/>
<polygon fill="#F79523" points="21,4.779 34.044,0 35.83,0.901 20.984,5.639 "/>
<polygon fill="#F79523" points="36.86,1.877 38.34,2.728 29.219,5.238 26,5.271 "/>
<polygon fill="#F79523" points="33.393,5.398 39.325,3.854 41.279,4.479 37.321,5.293 "/>
</svg>
