<?xml version="1.0" encoding="utf-8"?>

<svg version="1.1"
	 xmlns="http://www.w3.org/2000/svg" xmlns:xlink="http://www.w3.org/1999/xlink"
	 x="0px" y="0px" width="48px" height="48px" viewBox="0 0 48 48">
<defs>
</defs>
<path fill="#FFFFFF" d="M23.637,3.184c11.604,0,21.009,9.407,21.009,21.009c0,11.604-9.405,21.01-21.009,21.01
	s-21.01-9.406-21.01-21.01C2.627,12.591,12.033,3.184,23.637,3.184 M23.637,2.184c-12.136,0-22.01,9.874-22.01,22.009
	s9.874,22.01,22.01,22.01c12.136,0,22.009-9.874,22.009-22.01S35.772,2.184,23.637,2.184L23.637,2.184z"/>
<circle fill="#D1D3D4" cx="23.636" cy="24.193" r="20.193"/>
<path fill="#F79523" d="M23.637,4c11.153,0,20.192,9.042,20.192,20.193c0,11.153-9.039,20.193-20.192,20.193
	c-11.153,0-20.194-9.04-20.194-20.193C3.443,13.042,12.484,4,23.637,4 M23.637,3C11.95,3,2.443,12.507,2.443,24.193
	c0,11.687,9.507,21.193,21.194,21.193c11.686,0,21.192-9.507,21.192-21.193C44.829,12.507,35.322,3,23.637,3L23.637,3z"/>
<path fill="#F1F2F2" d="M23.637,4C14.624,4,6.996,9.908,4.398,18.059c1.556-0.309,3.163-0.474,4.81-0.474
	c13.398,0,24.282,10.734,24.54,24.07c6.021-3.494,10.081-9.996,10.081-17.461C43.829,13.042,34.79,4,23.637,4z"/>
<polygon fill="#C8691C" points="19.058,15.385 30.985,24.673 19.058,34.217 "/>
<path fill="#FFFFFF" d="M19.058,15.385l11.928,9.288l-11.928,9.544V15.385 M18.058,13.339v2.046v18.832v2.081l1.625-1.3
	l11.928-9.544l0.989-0.792l-1-0.778l-11.928-9.288L18.058,13.339L18.058,13.339z"/>
<path fill="#F79523" d="M28.356,26.776l2.629-2.104l-11.928-9.288v4.262C22.708,21.247,25.892,23.709,28.356,26.776z"/>
</svg>
