<?xml version="1.0" encoding="utf-8"?>
<svg version="1.1"
	 xmlns="http://www.w3.org/2000/svg" xmlns:xlink="http://www.w3.org/1999/xlink"
	 x="0px" y="0px" width="48px" height="48px" viewBox="-3.627 -3.451 48 48">
<defs>
</defs>
<circle fill="#F79523" cx="20.483" cy="20.483" r="20.483"/>
<path fill="#C8691C" d="M20.162,40.966c4.756,0.076,9.557-1.478,13.485-4.773c8.667-7.273,9.801-20.189,2.527-28.857
	c-2.983-3.555-6.925-5.82-11.128-6.778L20.162,40.966z"/>
<path fill="#FFFFFF" d="M6.393,12.154c0,0,3.438-3.247,7.259-3.438c3.822-0.191,8.03,3.86,10.699,3.438
	c3.629-0.572,6.877-4.584,6.877-4.584l-3.846,8.788l8.239,3.248c0,0-4.776,3.249-9.741,3.249c-2.677,0-6.688-2.867-10.509-2.294
	C12.512,20.989,10.214,24,10.214,24L6.393,12.154z"/>
<path fill="#E8E6E6" d="M23.638,12.172c0.294,0.039,0.447,0.024,0.713-0.018c3.629-0.572,6.877-4.584,6.877-4.584l-3.537,8.633
	l7.931,3.402c0,0-4.3,3.123-9.741,3.249c-1.088,0.025-3.445-0.768-3.445-0.864C22.432,21.752,23.605,12.22,23.638,12.172z"/>
<polygon fill="#52CAF5" points="4.865,13.11 6.01,12.346 12.888,34.124 11.36,34.314 "/>
</svg>
