<?xml version="1.0" encoding="utf-8"?>
	<svg version="1.1"
	 xmlns="http://www.w3.org/2000/svg" xmlns:xlink="http://www.w3.org/1999/xlink"
	 x="0px" y="0px" width="48px" height="48px" viewBox="0 0 48 48">
<defs>
</defs>
<path fill="#C8691C" d="M43.138,42.752c0,1.311-1.062,2.372-2.372,2.372H7.269c-1.31,0-2.372-1.062-2.372-2.372V34.58
	c0-1.311,1.062-2.372,2.372-2.372h33.497c1.311,0,2.372,1.062,2.372,2.372V42.752z"/>
<path fill="#F79523" d="M38.396,19.166H9.64c-1.31,0-2.371,1.062-2.371,2.371L4.896,29.71c-0.092,0.41-0.198,0.41-0.068,1.151
	c0.419-0.671,1.59-1.024,2.44-1.024h33.497c0.851,0,1.895,0.446,2.313,1.117c0.223-0.556,0.167-0.778,0.06-1.244l-2.372-8.173
	C40.766,20.228,39.704,19.166,38.396,19.166z"/>
<polygon fill="#D26F1E" points="23.987,25.376 28.702,22.814 19.493,22.814 "/>
<polygon fill="#52CAF5" points="28.85,14.967 28.85,2.876 19.125,2.876 19.125,14.967 13.58,14.967 23.987,25.376 34.396,14.967 "/>
<circle fill="#FFFFFF" cx="36.685" cy="38.653" r="2.515"/>
<circle fill="#C8691C" cx="36.685" cy="38.653" r="1.609"/>
</svg>
