<?xml version="1.0" encoding="utf-8"?>
<svg version="1.1"
	 xmlns="http://www.w3.org/2000/svg" xmlns:xlink="http://www.w3.org/1999/xlink"
	 x="0px" y="0px" width="48px" height="48px" viewBox="-8.463 -2.52 48 48">
<defs>
</defs>
<path fill="#52CAF5" d="M28.765,40.168L21.15,25.115c-0.081-0.145-0.194-0.252-0.304-0.363c5.826-3.8,7.854-11.495,4.472-17.71
	C21.761,0.502,13.579-1.917,7.04,1.642c-6.539,3.555-8.957,11.74-5.398,18.278c3.219,5.92,10.23,8.442,16.376,6.232
	c0.032,0.193,0.079,0.386,0.179,0.565l7.615,15.057c0.446,0.819,1.463,1.118,2.279,0.676C28.908,42.006,29.209,40.984,28.765,40.168
	z M5.901,17.602C3.626,13.418,5.174,8.18,9.357,5.905c4.185-2.279,9.423-0.73,11.699,3.456c2.273,4.183,0.729,9.421-3.455,11.696
	C13.418,23.334,8.179,21.787,5.901,17.602z"/>
<path fill="#F79523" d="M28.712,43.171c-1.225,0.623-2.724,0.138-3.349-1.085l-4.377-8.569c-0.625-1.226-0.14-2.724,1.084-3.35l0,0
	c1.223-0.625,2.723-0.139,3.349,1.084l4.376,8.571C30.421,41.045,29.935,42.545,28.712,43.171L28.712,43.171z"/>
<path fill="#C8691C" d="M29.795,39.823l-4.376-8.571c-0.626-1.223-2.126-1.709-3.349-1.084c-0.097,0.05-0.182,0.112-0.269,0.173
	l6.761,12.889c0.049-0.021,0.101-0.032,0.149-0.058C29.935,42.545,30.421,41.045,29.795,39.823z"/>
<path fill="#3588A6" d="M9.075,6.077C9.17,6.021,9.259,5.958,9.357,5.905c4.185-2.279,9.423-0.73,11.699,3.456
	c2.273,4.183,0.729,9.421-3.455,11.696c-0.176,0.096-0.355,0.175-0.535,0.257l4.735,9.026c0.087-0.061,0.172-0.123,0.269-0.173
	c0.486-0.249,1.016-0.315,1.517-0.235l-2.437-4.817c-0.081-0.145-0.194-0.252-0.304-0.363c5.826-3.8,7.854-11.495,4.472-17.71
	C21.761,0.502,13.579-1.917,7.04,1.642C6.963,1.684,6.895,1.734,6.819,1.776L9.075,6.077z"/>
<circle fill="#D1D3D4" cx="13.363" cy="13.404" r="9.46"/>
<ellipse transform="matrix(0.4683 -0.8836 0.8836 0.4683 -4.608 12.4533)" fill="#F1F2F2" cx="8.043" cy="10.055" rx="2.464" ry="1.478"/>
</svg>
