<?xml version="1.0" encoding="utf-8"?>
<svg version="1.1"
	 xmlns="http://www.w3.org/2000/svg" xmlns:xlink="http://www.w3.org/1999/xlink"
	 x="0px" y="0px" width="48px" height="48px" viewBox="33.535 23.107 48 48">
<defs>
</defs>
<path fill="#C8691C" d="M78.535,61.044c0,2.797-2.267,5.063-5.063,5.063H41.064c-2.797,0-5.064-2.267-5.064-5.063V37.75
	c0-2.797,2.267-5.064,5.064-5.064h32.408c2.797,0,5.063,2.267,5.063,5.064V61.044z"/>
<path fill="#F79523" d="M62.602,56.924c-2.387,2.385-6.256,2.385-8.643,0L36.074,37.013C36.039,37.256,36,37.497,36,37.75v23.293
	c0,2.797,2.267,5.063,5.064,5.063h32.408c2.797,0,5.063-2.267,5.063-5.063V37.75c0-0.253-0.038-0.495-0.074-0.738L62.602,56.924z"/>
<polygon fill="#52CAF5" points="41.167,43.803 49.848,35.206 44.741,31.337 67.646,26.384 63.777,46.35 58.824,41.707 48.61,51.147 
	"/>
</svg>
