<?xml version="1.0" encoding="utf-8"?>
<svg version="1.1"
	 xmlns="http://www.w3.org/2000/svg" xmlns:xlink="http://www.w3.org/1999/xlink"
	 x="0px" y="0px" width="48px" height="48px" viewBox="-4.2 -4 48 48">
<defs>
</defs>
<path fill="#F79523" d="M38.3,16.5h-2.8c-0.2-1-0.5-2-1-2.9l2.3-1.6c0.8-0.6,1-1.7,0.4-2.4l-1.7-2.4c-0.6-0.8-1.7-1-2.4-0.4
	l-2.4,1.7C30,7.7,29.2,7,28.3,6.5l1-2.8c0.3-0.9-0.1-1.9-1-2.3l-2.8-1c-0.9-0.3-1.9,0.1-2.3,1l-1,2.8c-0.7-0.1-1.4-0.2-2.2-0.2
	c-0.3,0-0.5,0-0.8,0l-0.8-2.9c-0.3-0.9-1.2-1.5-2.2-1.2l-2.9,0.8C12.5,1.1,11.9,2,12.2,3l0.8,2.9c-0.9,0.5-1.8,1-2.6,1.6L8.1,5.6
	C7.4,4.9,6.3,5,5.6,5.8L3.7,8.1c-0.6,0.7-0.5,1.8,0.2,2.5l2.2,1.9c-0.7,1.3-1.2,2.7-1.6,4.2H1.8c-1,0-1.8,0.8-1.8,1.8v3
	c0,1,0.8,1.8,1.8,1.8h2.8c0.2,1,0.5,2.1,0.9,3l-2.2,1.6c-0.8,0.6-1,1.7-0.4,2.4l1.7,2.4c0.6,0.8,1.7,1,2.4,0.4l2.2-1.5
	c0.8,0.7,1.6,1.4,2.5,2l-0.9,2.5c-0.3,0.9,0.1,1.9,1,2.3l2.8,1c0.9,0.3,1.9-0.1,2.3-1l0.9-2.5c0.8,0.1,1.5,0.2,2.3,0.2
	c0.3,0,0.6,0,0.9,0l0.7,2.6c0.3,0.9,1.2,1.5,2.2,1.2l2.9-0.8c0.9-0.3,1.5-1.2,1.2-2.1L27.2,34c1-0.5,1.9-1.1,2.7-1.7l2.1,1.7
	c0.7,0.6,1.8,0.5,2.5-0.2l1.9-2.3c0.6-0.7,0.5-1.9-0.2-2.5L34,27.3c0.7-1.3,1.2-2.8,1.5-4.3h2.8c1,0,1.8-0.8,1.8-1.8v-3
	C40,17.3,39.2,16.5,38.3,16.5z"/>
<path fill="#C8691C" d="M38.3,16.5h-2.8c-0.2-1-0.5-2-1-2.9l2.3-1.6c0.8-0.6,1-1.7,0.4-2.4l-1.7-2.4c-0.6-0.8-1.7-1-2.4-0.4
	l-2.4,1.7C30,7.7,29.2,7,28.3,6.5l1-2.8c0.3-0.9-0.1-1.9-1-2.3l-2.8-1c-0.9-0.3-1.9,0.1-2.3,1l-1,2.8c-0.5-0.1-1.1-0.1-1.6-0.1v31.5
	c0.1,0,0.2,0,0.4,0l0.7,2.6c0.3,0.9,1.2,1.5,2.2,1.2l2.9-0.8c0.9-0.3,1.5-1.2,1.2-2.1L27.2,34c1-0.5,1.9-1.1,2.7-1.7l2.1,1.7
	c0.7,0.6,1.8,0.5,2.5-0.2l1.9-2.3c0.6-0.7,0.5-1.9-0.2-2.5L34,27.3c0.7-1.3,1.2-2.8,1.5-4.3h2.8c1,0,1.8-0.8,1.8-1.8v-3
	C40,17.3,39.2,16.5,38.3,16.5z"/>
<path fill="#52CAF5" d="M20,8.8c-6.1,0-11,4.9-11,11s4.9,11,11,11c6.1,0,11-4.9,11-11S26.1,8.8,20,8.8z M20,28.5
	c-4.8,0-8.8-3.9-8.8-8.8c0-4.8,3.9-8.8,8.8-8.8c4.8,0,8.8,3.9,8.8,8.8C28.8,24.6,24.9,28.5,20,28.5z"/>
<circle fill="#52CAF5" cx="20" cy="19.8" r="3.6"/>
</svg>
