<?xml version="1.0" encoding="utf-8"?>
<svg version="1.1" xmlns="http://www.w3.org/2000/svg" x="0px" y="0px" width="48px" height="48px" viewBox="0 0 48 48">
<path fill="#52CAF5" d="M1.2,4.56l8.278,8.278H2.985v4.694h14.546l0.001-14.547h-4.694v6.495L4.56,1.201
	C3.678,2.535,2.536,3.678,1.2,4.56z"/>
<path fill="#52CAF5" d="M30.468,2.983l0.001,14.548h14.546v-4.694h-6.493L46.8,4.559c-1.335-0.88-2.479-2.024-3.358-3.358
	l-8.279,8.278V2.983H30.468z"/>
<path fill="#52CAF5" d="M1.2,43.441c1.335,0.881,2.479,2.023,3.358,3.358l8.279-8.279v6.495h4.695l-0.001-14.548H2.985v4.694h6.493
	L1.2,43.441z"/>
<path fill="#52CAF5" d="M35.162,45.016v-6.495l8.279,8.279c0.881-1.335,2.023-2.479,3.358-3.358l-8.278-8.279h6.493v-4.694H30.469
	l-0.001,14.548H35.162z"/>
<circle fill="#F79523" cx="24" cy="24" r="5.985"/>
</svg>
