<?xml version="1.0" encoding="utf-8"?>
<svg version="1.1"
	 xmlns="http://www.w3.org/2000/svg" xmlns:xlink="http://www.w3.org/1999/xlink"
	 x="0px" y="0px" width="48px" height="48px" viewBox="-2.449 -8 48 48">
<defs>
</defs>
<path fill="#F79523" d="M42.516,28c0,2.762-2.238,5-5,5h-32c-2.761,0-5-2.238-5-5V5c0-2.762,2.239-5,5-5h32c2.762,0,5,2.238,5,5V28z
	"/>
<path fill="#C8691C" d="M39.315,25.7c0,2.209-0.79,4-3,4h-29.6c-2.209,0-3-1.791-3-4V7.3c0-2.209,0.791-4,3-4h29.6
	c2.21,0,3,1.791,3,4V25.7z"/>
<polygon fill="#52CAF5" points="7.617,9.928 8.728,11.041 3.638,16.132 8.728,21.222 7.617,22.333 1.414,16.132 "/>
<path fill="#FFFFFF" d="M7.617,9.928l1.111,1.113l-5.09,5.091l5.09,5.09l-1.111,1.111l-6.203-6.201L7.617,9.928 M7.617,8.514
	L6.91,9.221l-6.203,6.204L0,16.132l0.707,0.707L6.91,23.04l0.707,0.707l0.707-0.707l1.111-1.111l0.707-0.707l-0.707-0.707
	l-4.383-4.383l4.383-4.384l0.707-0.707l-0.706-0.707L8.324,9.222L7.617,8.514L7.617,8.514z"/>
<polygon fill="#52CAF5" points="35.086,9.928 33.974,11.041 39.064,16.132 33.974,21.222 35.086,22.333 41.288,16.132 "/>
<path fill="#FFFFFF" d="M35.086,9.928l6.202,6.204l-6.202,6.201l-1.112-1.111l5.091-5.09l-5.091-5.091L35.086,9.928 M35.086,8.514
	l-0.707,0.707l-1.112,1.113l-0.707,0.707l0.707,0.707l4.384,4.384l-4.384,4.383l-0.708,0.707l0.708,0.707l1.112,1.111l0.707,0.707
	l0.707-0.707l6.202-6.201l0.707-0.707l-0.707-0.707l-6.202-6.204L35.086,8.514L35.086,8.514z"/>
</svg>
