<?xml version="1.0" encoding="utf-8"?>
<svg version="1.1"
	 xmlns="http://www.w3.org/2000/svg" xmlns:xlink="http://www.w3.org/1999/xlink"
	 x="0px" y="0px" width="28px" height="28px" viewBox="0 0 28 28">
<defs>
</defs>
<rect opacity="0" fill="#FFFFFF" width="28" height="28"/>
<polygon fill="#F79523" points="15.337,4.253 15.337,23.796 7.053,17.695 1.743,17.695 1.743,10.566 7.053,10.566 "/>
<path fill="#F79523" d="M26.257,13.398c0,0.625-0.455,1.131-1.018,1.131h-6.146c-0.563,0-1.018-0.506-1.018-1.131v-0.11
	c0-0.625,0.454-1.131,1.018-1.131h6.146c0.563,0,1.018,0.506,1.018,1.131V13.398z"/>
<path fill="#F79523" d="M25.861,5.051c0.192,0.588-0.082,1.237-0.61,1.451l-5.775,2.336c-0.528,0.213-1.111-0.089-1.305-0.676
	L18.138,8.06c-0.193-0.587,0.079-1.236,0.607-1.451l5.775-2.336c0.529-0.213,1.111,0.089,1.305,0.675L25.861,5.051z"/>
<path fill="#F79523" d="M25.861,21.635c0.192-0.588-0.082-1.237-0.61-1.452l-5.775-2.334c-0.528-0.215-1.111,0.088-1.305,0.676
	l-0.033,0.104c-0.193,0.586,0.079,1.233,0.607,1.448l5.775,2.337c0.529,0.215,1.111-0.089,1.305-0.676L25.861,21.635z"/>
</svg>
