<?xml version="1.0" encoding="utf-8"?>
<svg version="1.1"
	 xmlns="http://www.w3.org/2000/svg" xmlns:xlink="http://www.w3.org/1999/xlink"
	 x="0px" y="0px" width="48px" height="48px" viewBox="-4.607 -6.75 48 48">
<defs>
</defs>
<rect fill="#F79523" width="17.73" height="14.683"/>
<rect x="21.72" fill="#F79523" width="17.73" height="14.683"/>
<rect y="18.948" fill="#F79523" width="17.73" height="14.683"/>
<path fill="#52CAF5" d="M36.051,29.258c0.455,1.804-1.194,3.776-3.687,4.407l-4.427,1.658c-2.49,0.63-4.878-0.323-5.334-2.126
	l-3.915-7.154c2.208-0.558,4.13-2.249,3.159-5.755l7.215-1.824c2.492-0.629,4.881,0.322,5.336,2.126L36.051,29.258z"/>
<path fill="#52CAF5" d="M13.677,24.605c-0.397,1.044,0.008,2.166,0.908,2.509l9.22,3.511c0.897,0.343,1.95-0.227,2.347-1.27l0,0
	c0.398-1.044-0.009-2.165-0.908-2.508l-9.22-3.511C15.125,22.993,14.075,23.562,13.677,24.605L13.677,24.605z"/>
<path fill="#52CAF5" d="M18.284,10.595c-1.083,0.274-1.738,1.372-1.465,2.454l3.301,13.066c0.275,1.083,1.375,1.737,2.457,1.466l0,0
	c1.083-0.273,1.738-1.373,1.464-2.457L20.737,12.06C20.465,10.978,19.367,10.322,18.284,10.595L18.284,10.595z"/>
<path fill="#52CAF5" d="M23.918,17.571c-1.082,0.273-1.737,1.372-1.465,2.455l1.156,4.573c0.273,1.082,1.372,1.736,2.456,1.465l0,0
	c1.082-0.275,1.738-1.374,1.465-2.456l-1.156-4.573C26.1,17.952,25.001,17.298,23.918,17.571L23.918,17.571z"/>
<path fill="#52CAF5" d="M28.053,17.097c-1.082,0.274-1.738,1.373-1.465,2.454l1.155,4.574c0.274,1.082,1.374,1.738,2.456,1.464l0,0
	c1.083-0.272,1.739-1.37,1.465-2.455l-1.155-4.571C30.234,17.479,29.135,16.824,28.053,17.097L28.053,17.097z"/>
<path fill="#52CAF5" d="M32.024,16.984c-1.082,0.273-1.738,1.371-1.465,2.455l1.155,4.572c0.273,1.082,1.373,1.738,2.456,1.465l0,0
	c1.083-0.274,1.738-1.373,1.464-2.455l-1.155-4.572C34.207,17.365,33.106,16.709,32.024,16.984L32.024,16.984z"/>
</svg>
