<?xml version="1.0" encoding="utf-8"?>
<svg version="1.1"
	 xmlns="http://www.w3.org/2000/svg" xmlns:xlink="http://www.w3.org/1999/xlink"
	 x="0px" y="0px" width="48px" height="48px" viewBox="0 0 48 48">
<defs>
</defs>
<polygon fill="#FCB51E" points="2.907,25.246 16.674,41.113 44.98,10.679 39.42,6.715 17.226,30.582 9.307,19.429 "/>
<path fill="#FFFFFF" d="M39.42,6.715l5.561,3.964L16.674,41.113L2.907,25.246l6.399-5.817l7.919,11.153L39.42,6.715 M39.285,5.391
	l-0.598,0.643L17.33,29.002L10.122,18.85l-0.653-0.92l-0.835,0.759l-6.399,5.817l-0.723,0.656l0.64,0.738l13.767,15.867l0.729,0.842
	l0.758-0.816L45.713,11.36l0.775-0.834l-0.928-0.662L40,5.9L39.285,5.391L39.285,5.391z"/>
</svg>
