<?xml version="1.0" encoding="utf-8"?>
<svg version="1.1"
	 xmlns="http://www.w3.org/2000/svg" xmlns:xlink="http://www.w3.org/1999/xlink"
	 x="0px" y="0px" width="48px" height="48px" viewBox="-4.4 -5.1 48 48">
<defs>
</defs>
<path fill="#3588A6" d="M32.8,1.6l-0.4,2C33.8,3.8,35,4.1,36,4.5c0.9,0.4,1.7,1.1,2.3,1.9c0.5,0.7,0.8,1.3,1,2
	c0.2,0.7,0.3,1.3,0.2,1.9c-0.1,0.6-0.4,1.2-1,1.6c-0.6,0.4-1.2,0.7-1.9,0.7c-1.3,0-2-0.7-2.2-2c-0.2-1.6-1-2.6-2.6-3.2l-1.4,7.8
	c1.6,0.5,2.8,0.9,3.7,1.2c0.9,0.4,1.7,0.9,2.4,1.6c0.7,0.7,1.2,1.5,1.5,2.5c0.3,1,0.3,2,0.1,3.2c-0.3,1.4-0.8,2.8-1.8,4
	c-0.9,1.2-2.2,2.2-3.7,3c-1.5,0.8-3.2,1.2-5.2,1.3l-0.8,4.7c-0.1,0.7-0.3,1.3-0.5,1.6c-0.2,0.3-0.6,0.5-1.1,0.5
	c-0.5,0-0.8-0.2-0.9-0.4c-0.1-0.3-0.2-0.7-0.1-1.3l0.9-5.1c-1.5-0.2-2.8-0.6-3.9-1.1c-1.1-0.5-1.9-1.2-2.6-2
	c-0.6-0.8-1.1-1.6-1.3-2.5c-0.2-0.9-0.3-1.7-0.1-2.5c0.1-0.6,0.5-1.1,1-1.6c0.6-0.5,1.3-0.7,2-0.7c0.6,0,1.1,0.1,1.4,0.4
	c0.4,0.3,0.6,0.6,0.7,1.1c0.2,1,0.4,1.8,0.5,2.4c0.2,0.5,0.5,1.1,0.9,1.5c0.5,0.5,1.1,0.8,2,1.1l1.5-8.8c-1.7-0.5-3.1-1-4.2-1.6
	c-1.1-0.6-1.9-1.4-2.5-2.5c-0.6-1.1-0.7-2.4-0.4-4.1c0.4-2.2,1.4-3.9,3.1-5.3s3.9-2.1,6.7-2.3l0.4-2C30.4,0.5,31,0,31.8,0
	C32.6,0,33,0.5,32.8,1.6 M28,14.5l1.3-7.2c-1.2,0.3-2.1,0.7-2.8,1.2c-0.7,0.5-1.2,1.3-1.3,2.3c-0.2,1,0,1.7,0.5,2.3
	C26.1,13.5,26.9,14,28,14.5 M29.5,20.1l-1.5,8.3c1.4-0.2,2.5-0.7,3.4-1.5c0.9-0.8,1.4-1.6,1.6-2.7c0.2-1.1,0-1.9-0.6-2.5
	C31.8,21.1,30.9,20.5,29.5,20.1"/>
<path fill="#43A4C7" d="M22.4,17.4h13.4c-0.5-0.4-1-0.7-1.7-1c-0.9-0.4-2.2-0.8-3.7-1.2l1.4-7.8c1.6,0.5,2.5,1.6,2.6,3.2
	c0.2,1.3,0.9,2,2.2,2c0.7,0,1.3-0.2,1.9-0.7c0.6-0.5,0.9-1,1-1.6c0.1-0.6,0-1.2-0.2-1.9c-0.2-0.7-0.6-1.3-1-2
	c-0.6-0.9-1.4-1.5-2.3-1.9c-0.9-0.4-2.1-0.7-3.5-0.9l0.4-2c0.2-1-0.2-1.6-1-1.6c-0.8,0-1.3,0.5-1.5,1.6l-0.4,2c-2.8,0.2-5,1-6.7,2.3
	s-2.7,3.1-3.1,5.3c-0.3,1.7-0.2,3,0.4,4.1C20.9,16.1,21.6,16.9,22.4,17.4z M25.1,10.8c0.2-1,0.6-1.8,1.3-2.3
	c0.7-0.5,1.7-0.9,2.8-1.2L28,14.5c-1.1-0.4-1.9-0.9-2.4-1.4C25.1,12.5,24.9,11.8,25.1,10.8z"/>
<path fill="#FFFFFF" d="M12.8,3.4c3.6,0,6.6,1.3,8.9,3.8c2.1,2.3,3.2,5,3.2,8.2c0,3-1,5.6-3,7.6c-2.3,2.3-5.4,3.4-9.4,3.4
	c-3.9,0-7-1.2-9.3-3.6C1,20.7,0,18.1,0,14.9c0-3.1,1.1-5.8,3.2-8C5.5,4.6,8.7,3.4,12.8,3.4 M12.5,7.5c-1.6,0-2.7,0.6-3.5,1.8
	c-0.8,1.2-1.2,3-1.2,5.3c0,0.9,0.1,1.9,0.3,3.1c0.2,1.2,0.5,2,0.8,2.5c0.8,1.2,1.9,1.8,3.5,1.8c1.4,0,2.4-0.6,3.2-1.9
	c0.3-0.6,0.7-1.5,0.9-2.7c0.3-1.2,0.4-2.2,0.4-3.1c0-0.8-0.1-1.7-0.4-2.7c-0.3-1-0.6-1.8-0.9-2.4C15,8.1,13.9,7.5,12.5,7.5"/>
<path fill="#C8691C" d="M18.7,15.3c0,4.4-2.7,8-6.1,8c-3.4,0-6.1-3.6-6.1-8c0-4.4,2.7-8,6.1-8C15.9,7.2,18.7,10.8,18.7,15.3"/>
<path fill="#F79523" d="M12.7,4.9c3.2,0,5.7,1.1,7.7,3.3c1.8,2,2.7,4.3,2.7,7.1c0,2.6-0.9,4.8-2.6,6.6c-2,2-4.7,3-8.1,3
	c-3.4,0-6.1-1-8.1-3.1c-1.8-1.8-2.7-4.1-2.7-6.8c0-2.7,0.9-5,2.7-6.9C6.5,6,9.2,4.9,12.7,4.9 M12.5,8.5c-1.4,0-2.4,0.5-3,1.6
	c-0.7,1.1-1,2.6-1,4.6c0,0.7,0.1,1.6,0.3,2.6c0.2,1,0.4,1.7,0.7,2.2c0.7,1,1.7,1.6,3,1.6c1.2,0,2.1-0.5,2.7-1.6
	c0.3-0.5,0.6-1.3,0.8-2.3c0.2-1,0.3-1.9,0.3-2.6c0-0.7-0.1-1.5-0.3-2.4c-0.2-0.9-0.5-1.6-0.8-2.1C14.6,9,13.7,8.5,12.5,8.5"/>
<path fill="#FFFFFF" d="M17.3,15.2l-3.4-4.1c0,0-0.7-1.2-1.5-1.2c-0.7,0-1.4,1.1-1.4,1.1l-3.2,4.2c0,0-0.5,0.5-0.3,1
	c0.3,0.5,0.7,0.3,0.7,0.3l1.9,0c0,0,0.4,1.5,1.4,2.8c1.5,1.9,3.5,0.7,3.5,0.7s0.7-0.4-0.3-1.3c-1-1,0.3-2.2,0.3-2.2h1.6
	c0,0,0.5,0,0.7-0.4C17.7,15.6,17.3,15.2,17.3,15.2"/>
</svg>
