<?xml version="1.0" encoding="utf-8"?>
<svg version="1.1"
	 xmlns="http://www.w3.org/2000/svg" xmlns:xlink="http://www.w3.org/1999/xlink"
	 x="0px" y="0px" width="48px" height="48px" viewBox="-7.185 -4.5 48 48">
<defs>
</defs>
<polygon fill="#F79523" points="33.607,0 0.602,0 0.602,38.307 0.651,38.307 0.635,38.291 3.722,35.205 6.746,38.227 9.767,35.205 
	12.854,38.291 12.839,38.307 13.028,38.307 13.012,38.291 16.099,35.205 19.188,38.291 19.172,38.307 19.216,38.307 19.2,38.291 
	22.288,35.205 25.377,38.291 25.36,38.307 25.404,38.307 25.39,38.291 28.477,35.205 31.564,38.291 31.55,38.307 31.593,38.307 
	31.576,38.291 33.607,36.262 "/>
<polygon fill="#C8691C" points="33.607,0 0.602,0 28.477,35.205 31.564,38.291 31.55,38.307 31.593,38.307 31.576,38.291 
	33.607,36.262 "/>
<rect x="7.847" y="5.408" fill="#3588A6" width="18.515" height="1.903"/>
<rect x="5.251" y="11.306" fill="#BCBEC0" width="12.604" height="1.904"/>
<rect x="21.755" y="11.306" fill="#BCBEC0" width="7.411" height="1.904"/>
<rect x="5.251" y="16.462" fill="#BCBEC0" width="12.604" height="1.904"/>
<polygon fill="#FFFFFF" points="11.104,13.21 5.251,13.21 5.251,11.306 9.623,11.306 "/>
<polygon fill="#FFFFFF" points="15.096,18.347 5.251,18.366 5.251,16.462 13.728,16.499 "/>
<rect x="21.755" y="16.462" fill="#BCBEC0" width="7.411" height="1.904"/>
<rect x="5.251" y="22.652" fill="#FFFFFF" width="12.604" height="1.903"/>
<rect x="21.755" y="22.652" fill="#BCBEC0" width="7.411" height="1.903"/>
<circle fill="#3588A6" cx="9.389" cy="29.464" r="9.389"/>
<polygon fill="#FFFFFF" points="15.085,27.883 10.971,27.883 10.971,23.769 7.807,23.769 7.807,27.883 3.692,27.883 3.692,31.048 
	7.807,31.048 7.807,35.162 10.971,35.162 10.971,31.048 15.085,31.048 "/>
</svg>
