<?xml version="1.0" encoding="utf-8"?>
<svg version="1.1"
	 xmlns="http://www.w3.org/2000/svg" xmlns:xlink="http://www.w3.org/1999/xlink"
	 x="0px" y="0px" width="48px" height="48px" viewBox="-4 -7.7 48 48">
<defs>
</defs>
<path fill="#F79523" d="M37.8,0H27.3L26,3.3h9.2c1.8,0.3,1.3,1.6,1.3,2.3l-1.6,14.8c0,0.7-0.6,1.3-1.3,1.3H16.1
	c-0.7,0-1.3-0.6-1.3-1.3l-1-7.6c0,0-0.2-1.7-1.1-2.5c-0.9-0.7-3.4-0.7-3.4-0.7L0,9.6L0.2,13h7.5c0,0,1.3-0.1,1.8,0.3
	c0.6,0.5,0.5,1.2,0.5,1.2l1.1,7.6c0,1.1,1.8,2.9,2.9,2.9h21.8c1.1,0,2.6-2.2,2.6-3.2l1.9-18.2c0.4-1.9-1.4-3.5-2.2-3.5"/>
<path fill="#3588A6" d="M19.1,25.7c-2.3,0-4.2,1.9-4.2,4.1s1.9,4.1,4.2,4.1c2.3,0,4.2-1.9,4.2-4.1S21.3,25.7,19.1,25.7"/>
<path fill="#84D5F7" d="M19.1,26.9c-1.6,0-2.9,1.3-2.9,2.9c0,1.6,1.3,2.9,2.9,2.9c1.6,0,2.9-1.3,2.9-2.9
	C22,28.2,20.7,26.9,19.1,26.9"/>
<path fill="#3588A6" d="M30.1,25.8c-2.3,0-4.2,1.9-4.2,4.2s1.9,4.2,4.2,4.2c2.3,0,4.2-1.9,4.2-4.2S32.4,25.8,30.1,25.8"/>
<path fill="#84D5F7" d="M30.1,27c-1.6,0-2.9,1.3-2.9,2.9c0,1.6,1.3,2.9,2.9,2.9c1.6,0,2.9-1.3,2.9-2.9C33,28.3,31.7,27,30.1,27"/>
<rect x="18.4" y="16.9" fill="#3588A6" width="13.2" height="2.6"/>
<rect x="16.8" y="11.4" fill="#52CAF5" width="12.1" height="5.3"/>
<path fill="#C8691C" d="M36.5,5.6l-1.6,14.8c0,0.7-0.6,1.3-1.3,1.3h-4.7l3.3,3.3h3.6c1.1,0,2.6-2.2,2.6-3.2l1.9-18.2
	c0.4-1.9-1.4-3.5-2.2-3.5L37.8,0H27.3L26,3.3h9.2C37,3.7,36.5,4.9,36.5,5.6z"/>
<polygon fill="#18596E" points="24.8,16.9 27.1,19.5 31.6,19.5 31.6,16.9 "/>
<polygon fill="#3588A6" points="16.9,11.4 16.8,11.4 16.8,12.8 "/>
<polygon fill="#3588A6" points="19.8,11.4 24.6,16.7 28.8,16.7 28.8,11.4 "/>
</svg>
