<?xml version="1.0" encoding="utf-8"?>
<svg version="1.1"
	 xmlns="http://www.w3.org/2000/svg" xmlns:xlink="http://www.w3.org/1999/xlink"
	 x="0px" y="0px" width="48px" height="48px" viewBox="-7 -4.7 48 48">
<defs>
</defs>
<polygon fill="#F79523" points="33.5,0 0,0 0,38.8 0,38.8 0,38.8 3.2,35.7 6.2,38.7 9.3,35.7 12.4,38.8 12.4,38.8 12.6,38.8 
	12.6,38.8 15.7,35.7 18.8,38.8 18.8,38.8 18.9,38.8 18.9,38.8 22,35.7 25.1,38.8 25.1,38.8 25.1,38.8 25.1,38.8 28.3,35.7 
	31.4,38.8 31.4,38.8 31.4,38.8 31.4,38.8 33.5,36.8 "/>
<polygon fill="#C8691C" points="33.5,0 0,0 28.3,35.7 31.4,38.8 31.4,38.8 31.4,38.8 31.4,38.8 33.5,36.8 "/>
<rect x="7.3" y="5.5" fill="#52CAF5" width="18.8" height="1.9"/>
<rect x="4.7" y="11.5" fill="#FCB51E" width="12.8" height="1.9"/>
<rect x="21.4" y="11.5" fill="#FCB51E" width="7.5" height="1.9"/>
<rect x="4.7" y="16.7" fill="#FCB51E" width="12.8" height="1.9"/>
<polygon fill="#FFD40F" points="10.6,13.4 4.7,13.4 4.7,11.5 9.1,11.5 "/>
<polygon fill="#FFD40F" points="14.7,18.6 4.7,18.6 4.7,16.7 13.3,16.7 "/>
<rect x="21.4" y="16.7" fill="#FCB51E" width="7.5" height="1.9"/>
<rect x="4.7" y="23" fill="#FCB51E" width="12.8" height="1.9"/>
<rect x="21.4" y="23" fill="#FCB51E" width="7.5" height="1.9"/>
</svg>
