<?xml version="1.0" encoding="utf-8"?>
	<svg version="1.1"
	 xmlns="http://www.w3.org/2000/svg" xmlns:xlink="http://www.w3.org/1999/xlink"
	 x="0px" y="0px" width="48px" height="48px" viewBox="0 0 48 48">
<defs>
</defs>
<path fill="#F79523" d="M27.809,34.463l0.728,3.404l-2.292,0.49l-0.708-3.313c-2.126,0.443-4.204,0.387-6.24-0.174l-0.929-4.348
	c0.711,0.367,1.714,0.623,3.009,0.786c1.292,0.161,2.415,0.175,3.37,0.035l-1.223-5.714c-2.64-0.386-4.525-1.018-5.643-1.885
	c-1.125-0.871-1.847-2.072-2.175-3.6c-0.352-1.642-0.07-3.166,0.844-4.57c0.917-1.404,2.309-2.406,4.183-3.002l-0.625-2.92
	l2.293-0.489l0.61,2.857c2.233-0.367,3.956-0.365,5.173,0.009l0.906,4.237c-1.653-0.577-3.417-0.769-5.294-0.575l1.272,5.949
	c2.471,0.336,4.312,0.928,5.534,1.778c1.221,0.846,1.992,2.026,2.314,3.532c0.372,1.734,0.115,3.256-0.767,4.557
	S29.82,33.792,27.809,34.463z M22.579,21.22l-1.063-4.976c-1.397,0.572-1.963,1.485-1.694,2.742
	C20.053,20.065,20.973,20.808,22.579,21.22z M26.006,26.033l1.019,4.758c1.446-0.553,2.032-1.46,1.763-2.729
	C28.57,27.04,27.643,26.365,26.006,26.033z"/>
<path fill="#52CAF5" d="M38.917,11.575C34.694,4.205,25.71,0.651,17.415,3.581C8.802,6.62,3.982,15.567,5.86,24.269l5.128-1.812
	c-0.93-5.869,2.417-11.748,8.22-13.797c5.66-2,11.778,0.314,14.823,5.204l-3.779,1.771l8.908,3.781l2.802-9.267L38.917,11.575z"/>
<path fill="#52CAF5" d="M9.084,36.425c4.223,7.371,13.208,10.925,21.502,7.994C39.2,41.381,44.018,32.435,42.14,23.732l-5.126,1.812
	c0.929,5.869-2.417,11.748-8.221,13.796c-5.661,2.001-11.777-0.313-14.822-5.205l3.778-1.77l-8.906-3.783l-2.805,9.271L9.084,36.425
	z"/>
</svg>
