<?xml version="1.0" encoding="utf-8"?>
<!DOCTYPE svg PUBLIC "-//W3C//DTD SVG 1.1//EN" "http://www.w3.org/Graphics/SVG/1.1/DTD/svg11.dtd" [
	<!ENTITY ns_flows "http://ns.adobe.com/Flows/1.0/">
]>
<svg version="1.1"
	 xmlns="http://www.w3.org/2000/svg" xmlns:xlink="http://www.w3.org/1999/xlink"
	 x="0px" y="0px" width="48px" height="48px" viewBox="-3.933 -4 48 48">
<defs>
</defs>
<polygon fill="#FFFFFF" points="33.118,29.859 31.595,32.411 29.063,28.74 27.546,32.284 31.595,35.703 33.949,31.984 "/>
<path fill="#3588A6" d="M30.151,19.718c0.044,0.14,0.076,0.279,0.076,0.422c0,2.021-4.822,3.66-10.772,3.66
	c-5.952,0-10.775-1.639-10.775-3.66c0-0.143,0.029-0.282,0.077-0.422C4.094,22.762,0.792,27.726,0,33.497h38.91
	C38.115,27.726,34.815,22.762,30.151,19.718z"/>
<path fill="#3588A6" d="M28.802,9.83c0,5.432-4.182,9.83-9.346,9.83c-5.167,0-9.349-4.398-9.349-9.83c0-5.429,4.182-9.83,9.349-9.83
	C24.62,0,28.802,4.401,28.802,9.83z"/>
<path fill="#52CAF5" d="M16.607,23.668c-4.567-0.425-7.926-1.844-7.926-3.528c0-0.143,0.029-0.282,0.077-0.422
	C4.094,22.762,0.792,27.726,0,33.497h22.515L16.607,23.668z"/>
<path fill="#F79523" d="M40.821,36.181c0,2.182-1.767,3.948-3.948,3.948h-7.399c-2.179,0-3.944-1.767-3.944-3.948V25.144
	c0-2.18,1.766-3.946,3.944-3.946h7.399c2.182,0,3.948,1.767,3.948,3.946V36.181z"/>
<path fill="#C8691C" d="M40.821,36.181c0,2.182-1.767,3.948-3.948,3.948l-7.399-18.932h7.399c2.182,0,3.948,1.767,3.948,3.946
	V36.181z"/>
<path fill="#FFFFFF" d="M33.72,36.213v1.663h-1.119v-1.617c-1.037-0.005-2.002-0.24-2.896-0.705v-2.122
	c0.296,0.24,0.738,0.462,1.326,0.666c0.587,0.205,1.111,0.322,1.57,0.353v-2.789c-1.195-0.444-2.012-0.926-2.448-1.444
	s-0.655-1.151-0.655-1.897c0-0.802,0.284-1.485,0.851-2.05c0.567-0.564,1.318-0.893,2.253-0.984v-1.426h1.119v1.396
	c1.078,0.051,1.883,0.225,2.414,0.521v2.069c-0.715-0.435-1.52-0.7-2.414-0.797v2.904c1.119,0.403,1.921,0.864,2.406,1.383
	s0.729,1.146,0.729,1.882c0,0.848-0.271,1.531-0.813,2.05C35.5,35.785,34.727,36.101,33.72,36.213z M32.601,29.508v-2.43
	c-0.71,0.128-1.064,0.498-1.064,1.111C31.536,28.716,31.891,29.155,32.601,29.508z M33.72,32.098v2.322
	c0.73-0.112,1.096-0.478,1.096-1.096C34.815,32.823,34.45,32.415,33.72,32.098z"/>
</svg>
