<?xml version="1.0" encoding="utf-8"?>
<svg version="1.1"
	 xmlns="http://www.w3.org/2000/svg" xmlns:xlink="http://www.w3.org/1999/xlink"
	 x="0px" y="0px" width="48px" height="48px" viewBox="-5.509 -4.43 48 48">
<defs>
</defs>
<path fill="#F79523" d="M36.237,19.505c1.018,2.282,1.3,4.497,0.853,6.649c-0.451,2.148-1.636,4.157-3.559,6.016
	c-1.921,1.861-4.526,3.525-7.814,4.991c-3.14,1.398-6.031,2.143-8.678,2.235c-2.648,0.091-4.809-0.308-6.484-1.194
	c-1.677-0.889-2.819-2.018-3.432-3.389c-0.406-0.911-0.412-1.843-0.016-2.792c0.395-0.95,1.116-1.66,2.162-2.125
	c0.917-0.41,1.717-0.513,2.398-0.308c0.68,0.205,1.416,0.592,2.206,1.16c1.554,1.072,3.118,1.696,4.691,1.866
	c1.573,0.17,3.439-0.228,5.594-1.188c1.748-0.778,3.023-1.787,3.815-3.026c0.791-1.236,0.977-2.33,0.553-3.278
	c-0.648-1.454-1.7-2.257-3.163-2.405c-1.461-0.146-3.661,0.071-6.601,0.655c-3.325,0.637-6.106,0.986-8.344,1.051
	c-2.235,0.064-4.204-0.288-5.903-1.054c-1.698-0.768-2.962-2.079-3.791-3.939c-0.739-1.656-0.913-3.453-0.524-5.396
	c0.389-1.939,1.408-3.804,3.054-5.59c1.647-1.789,3.912-3.326,6.794-4.611c2.264-1.009,4.397-1.691,6.399-2.054
	c2.002-0.361,3.772-0.436,5.313-0.227c1.537,0.21,2.827,0.629,3.861,1.256c1.033,0.629,1.747,1.377,2.132,2.243
	c0.428,0.951,0.436,1.878,0.032,2.785c-0.4,0.907-1.222,1.635-2.46,2.187c-0.896,0.399-1.77,0.499-2.613,0.294
	c-0.847-0.205-1.892-0.609-3.139-1.219c-1.02-0.511-2.086-0.809-3.199-0.896C15.263,8.121,13.938,8.42,12.4,9.106
	c-1.579,0.705-2.751,1.608-3.512,2.71c-0.765,1.103-0.933,2.128-0.509,3.078c0.387,0.868,1.087,1.41,2.104,1.621
	c1.017,0.212,2.258,0.212,3.722-0.007c1.465-0.217,3.456-0.572,5.976-1.066c2.991-0.583,5.539-0.822,7.646-0.72
	c2.105,0.102,3.864,0.546,5.277,1.333C34.517,16.84,35.561,17.991,36.237,19.505"/>
<path fill="#C8691C" d="M18.763,23.374c0.094-0.019,0.18-0.033,0.272-0.051l-3.082-7.099c-0.639,0.11-1.238,0.208-1.75,0.284
	c-1.464,0.219-2.705,0.219-3.722,0.007c-1.017-0.211-1.717-0.753-2.104-1.621c-0.424-0.95-0.256-1.976,0.509-3.078
	c0.761-1.102,1.933-2.005,3.512-2.71c0.137-0.061,0.263-0.102,0.396-0.158l-2.301-5.3c-0.15,0.064-0.295,0.118-0.445,0.186
	C7.167,5.119,4.903,6.656,3.255,8.445c-1.646,1.787-2.666,3.651-3.054,5.59c-0.389,1.943-0.214,3.74,0.524,5.396
	c0.829,1.86,2.092,3.172,3.791,3.939c1.699,0.766,3.668,1.118,5.903,1.054C12.657,24.36,15.438,24.01,18.763,23.374z"/>
<path fill="#C8691C" d="M22.789,31.967c-1.584,0.557-2.997,0.78-4.224,0.648c-1.574-0.17-3.138-0.794-4.691-1.866
	c-0.79-0.568-1.526-0.955-2.206-1.16c-0.681-0.205-1.48-0.103-2.398,0.308c-1.046,0.465-1.767,1.175-2.162,2.125
	c-0.396,0.949-0.391,1.881,0.016,2.792c0.613,1.371,1.755,2.5,3.432,3.389c1.675,0.887,3.835,1.285,6.484,1.194
	c2.481-0.087,5.188-0.77,8.104-2.005L22.789,31.967z"/>
<path fill="#52CAF5" d="M29.916,36.723c0.463,1.033-0.493,2.463-2.13,3.193l-1.041,0.461c-1.637,0.731-3.338,0.486-3.797-0.544
	L7.004,4.075c-0.461-1.031,0.493-2.46,2.131-3.19l1.039-0.464c1.637-0.729,3.339-0.486,3.798,0.547L29.916,36.723z"/>
<path fill="#3588A6" d="M26.745,40.377c-1.637,0.731-3.338,0.486-3.797-0.544L7.004,4.075c-0.461-1.031,0.493-2.46,2.131-3.19
	L26.745,40.377z"/>
<path fill="#FFFFFF" d="M23.827,19.66l1.373,3.086c0,0-0.006,0.003-0.011,0.005c-1.462-0.122-3.612,0.101-6.465,0.668
	c-1.007,0.191-1.965,0.357-2.874,0.499c-0.929,0.145-1.807,0.257-2.63,0.347c0,0-2.108,4.416,0.613,6.526
	c1.733,1.345,3.118,1.698,4.691,1.87c1.575,0.168,3.437-0.228,5.594-1.191c0.136-0.057,0.261-0.119,0.39-0.183
	c1.968-1.008,3.092-2.354,3.092-2.354l1.5,3.527l2.532-8.716L23.827,19.66z"/>
<path fill="#FFFFFF" d="M19.354,9.08c-1.022-0.51-2.09-0.809-3.203-0.894s-2.438,0.216-3.976,0.9c-1.226,0.546-2.203,1.214-2.935,2
	L7.898,8.084L5.72,16.618l8.177,3.941l-1.624-3.473l-0.22-0.433c0.593-0.007,1.233-0.062,1.925-0.163
	c1.465-0.216,3.457-0.573,5.974-1.066c2.993-0.583,2.534-5.123,2.534-5.123C21.64,10.095,20.597,9.69,19.354,9.08"/>
<path fill="#BCBEC0" d="M19.163,23.341c-0.152,0.028-0.283,0.047-0.438,0.078c-1.007,0.191-1.965,0.357-2.874,0.499
	c-0.929,0.145-1.807,0.257-2.63,0.347c0,0-2.108,4.416,0.613,6.526c1.733,1.345,3.118,1.698,4.691,1.87
	c1.292,0.137,2.79-0.126,4.473-0.749L19.163,23.341z"/>
<path fill="#BCBEC0" d="M15.953,16.167l-3.26-7.286c-0.173,0.069-0.339,0.126-0.518,0.205c-1.226,0.546-2.203,1.214-2.935,2
	L7.898,8.084L5.72,16.618l8.177,3.941l-1.624-3.473l-0.22-0.433c0.593-0.007,1.233-0.062,1.925-0.163
	C14.549,16.406,15.224,16.294,15.953,16.167z"/>
</svg>
