<?xml version="1.0" encoding="utf-8"?>
<svg version="1.1"
	 xmlns="http://www.w3.org/2000/svg" xmlns:xlink="http://www.w3.org/1999/xlink"
	 x="0px" y="0px" width="48px" height="48px" viewBox="-4.815 -5.639 48 48">
<defs>
</defs>
<polygon fill="#F79523" points="0,37.327 8,10.326 31,10.326 39,37.327 "/>
<polygon fill="#C8691C" points="8,10.326 31,10.326 39,37.327 "/>
<path fill="#52CAF5" d="M14.1,13.607V6.679c0-2.872,2.328-5.2,5.2-5.2s5.2,2.328,5.2,5.2v6.929h1.3V6.5c0-3.59-2.91-6.5-6.5-6.5
	s-6.5,2.91-6.5,6.5v7.107H14.1z"/>
<circle fill="#52CAF5" cx="13.335" cy="14.522" r="1.36"/>
<circle fill="#52CAF5" cx="25.335" cy="14.522" r="1.36"/>
<path fill="#FFFFFF" d="M19.818,35.959v-1.461c-1.283,0-2.736-0.313-4.36-0.938v-2.008c1.687,0.816,3.141,1.225,4.36,1.225v-6.38
	l-0.867-0.57c-2.1-1.41-3.147-2.934-3.147-4.573c0-1.179,0.383-2.171,1.151-2.975c0.768-0.805,1.77-1.258,3.006-1.36v-1.474h1.461
	v1.474c1.172,0.071,2.371,0.326,3.599,0.769v1.916c-1.147-0.57-2.349-0.922-3.599-1.057v6.295l0.795,0.476
	c2.17,1.274,3.256,2.783,3.256,4.525c0,1.243-0.381,2.286-1.141,3.13c-0.761,0.844-1.778,1.353-3.053,1.526v1.461H19.818z
	 M19.961,23.915v-5.237c-0.586,0.07-1.066,0.342-1.438,0.811c-0.373,0.47-0.559,1.033-0.559,1.695c0,0.854,0.498,1.646,1.496,2.375
	L19.961,23.915z M21.279,32.741c1.369-0.302,2.055-1.18,2.055-2.637c0-0.943-0.508-1.763-1.521-2.459l-0.533-0.381V32.741z"/>
<path fill="#BCBEC0" d="M25.021,19.603v-1.916c-1.228-0.442-2.427-0.697-3.599-0.769v-1.474h-1.461v1.474
	c-1.07,0.089-1.953,0.456-2.672,1.071l1.454,1.267c0.336-0.323,0.739-0.522,1.218-0.579v1.64l1.461,1.272v-3.043
	C22.672,18.681,23.873,19.033,25.021,19.603z"/>
<polygon fill="#52CAF5" points="36.673,28.766 2.498,28.909 5.346,18.229 33.824,18.371 "/>
<polygon fill="#ED1C24" points="15.081,20.416 18.204,23.539 15.081,26.664 16.646,28.228 19.77,25.104 22.893,28.228 
	24.458,26.665 21.335,23.539 24.456,20.416 22.893,18.85 19.77,21.974 16.646,18.85 "/>
</svg>
