<?xml version="1.0" encoding="utf-8"?>
<svg version="1.1"
	 xmlns="http://www.w3.org/2000/svg" xmlns:xlink="http://www.w3.org/1999/xlink"
	 x="0px" y="0px" width="48px" height="48px" viewBox="-7.595 -5 48 48">
<defs>
</defs>
<polygon fill="#F79523" points="33.445,0 0,0 0,38.817 0.049,38.817 0.034,38.801 3.162,35.674 6.225,38.736 9.288,35.674 
	12.416,38.801 12.4,38.817 12.591,38.817 12.576,38.801 15.704,35.674 18.834,38.801 18.817,38.817 18.861,38.817 18.847,38.801 
	21.975,35.674 25.105,38.801 25.088,38.817 25.133,38.817 25.118,38.801 28.246,35.674 31.375,38.801 31.359,38.817 31.404,38.817 
	31.388,38.801 33.445,36.745 "/>
<polygon fill="#C8691C" points="33.445,0 0,0 28.246,35.674 31.375,38.801 31.359,38.817 31.404,38.817 31.388,38.801 
	33.445,36.745 "/>
<rect x="7.342" y="5.48" fill="#52CAF5" width="18.762" height="1.929"/>
<rect x="4.711" y="11.457" fill="#FCB51E" width="12.771" height="1.93"/>
<rect x="21.436" y="11.457" fill="#FCB51E" width="7.509" height="1.93"/>
<rect x="4.711" y="16.682" fill="#FCB51E" width="12.771" height="1.93"/>
<polygon fill="#FFD40F" points="10.643,13.386 4.711,13.386 4.711,11.457 9.141,11.457 "/>
<polygon fill="#FFD40F" points="14.687,18.592 4.711,18.611 4.711,16.682 13.301,16.719 "/>
<rect x="21.436" y="16.682" fill="#FCB51E" width="7.509" height="1.93"/>
<rect x="4.711" y="22.954" fill="#FCB51E" width="12.771" height="1.929"/>
<rect x="21.436" y="22.954" fill="#FCB51E" width="7.509" height="1.929"/>
<polygon fill="#84D5F7" points="18.98,16.774 12.983,22.771 6.988,16.774 1.535,22.227 7.532,28.223 1.534,34.221 6.986,39.672 
	12.983,33.676 18.98,39.672 24.434,34.221 18.438,28.223 24.434,22.227 "/>
<polygon fill="#3588A6" points="20.719,26.042 24.434,22.227 18.98,16.774 15.827,19.951 "/>
</svg>
