<?xml version="1.0" encoding="utf-8"?>
<!-- Generator: Adobe Illustrator 15.0.0, SVG Export Plug-In  -->
<!DOCTYPE svg PUBLIC "-//W3C//DTD SVG 1.1//EN" "http://www.w3.org/Graphics/SVG/1.1/DTD/svg11.dtd" [
	<!ENTITY ns_flows "http://ns.adobe.com/Flows/1.0/">
]>
<svg version="1.1"
	 xmlns="http://www.w3.org/2000/svg" xmlns:xlink="http://www.w3.org/1999/xlink" xmlns:a="http://ns.adobe.com/AdobeSVGViewerExtensions/3.0/"
	 x="0px" y="0px" width="48px" height="48px" viewBox="-4.569 -1.599 48 48" enable-background="new -4.569 -1.599 48 48"
	 xml:space="preserve">
<defs>
</defs>
<polygon points="24.827,20.685 24.827,24.315 29.454,24.326 29.454,20.694 "/>
<polygon points="38.861,3.394 4.535,3.355 4.535,0 38.861,0.036 "/>
<path d="M22.569,42.627c0,1.2-1.057,2.176-2.36,2.176H2.361C1.058,44.803,0,43.827,0,42.627V22.259c0-1.201,1.058-2.177,2.361-2.177
	h17.848c1.306,0,2.36,0.976,2.36,2.177V42.627z"/>
<path fill="#FFFFFF" d="M15.621,40.817c-1.629,0.733-3.04,0.978-4.994,0.978c-4.506,0-8.469-3.229-8.469-8.549
	c0-5.538,4.045-10.342,10.151-10.342c4.805,0,8.225,3.284,8.225,7.844c0,3.99-2.226,6.487-5.157,6.487
	c-1.275,0-2.199-0.679-2.335-2.091h-0.054c-0.868,1.357-2.063,2.091-3.528,2.091c-1.737,0-3.04-1.329-3.04-3.556
	c0-3.34,2.47-6.324,6.379-6.324c1.193,0,2.551,0.299,3.229,0.65l-0.814,5.049c-0.271,1.603-0.081,2.336,0.679,2.361
	c1.167,0.055,2.633-1.438,2.633-4.587c0-3.556-2.279-6.27-6.487-6.27c-4.18,0-7.789,3.229-7.789,8.44c0,4.561,2.876,7.11,6.921,7.11
	c1.385,0,2.877-0.298,3.963-0.841L15.621,40.817z M13.205,29.608c-0.217-0.056-0.516-0.109-0.841-0.109
	c-1.792,0-3.203,1.765-3.203,3.854c0,1.031,0.462,1.684,1.357,1.684c1.004,0,2.063-1.275,2.307-2.851L13.205,29.608z"/>
<polygon points="22.19,12.032 4.515,0 4.515,17.61 8.886,17.61 8.886,7.101 22.153,16.458 34.482,7.101 34.482,37.326 34.48,37.326 
	24.827,37.326 24.827,41.752 38.857,41.752 38.857,0 "/>
<polygon points="24.827,28.704 24.827,32.336 29.454,32.346 29.454,28.714 "/>
</svg>
