<?xml version="1.0" encoding="utf-8"?>
<svg version="1.1"
	 xmlns="http://www.w3.org/2000/svg" xmlns:xlink="http://www.w3.org/1999/xlink"
	 x="0px" y="0px" width="48px" height="48px" viewBox="-5.284 -4.577 48 48">
<defs>
</defs>
<path fill="#F79523" d="M9.25,34.798c0,2.555-2.071,4.625-4.625,4.625l0,0C2.071,39.423,0,37.353,0,34.798v-10.5
	c0-2.555,2.071-4.625,4.625-4.625l0,0c2.554,0,4.625,2.07,4.625,4.625V34.798z"/>
<path fill="#52CAF5" d="M23.269,34.798c0,2.555-2.07,4.625-4.624,4.625l0,0c-2.555,0-4.625-2.07-4.625-4.625v-15.5
	c0-2.555,2.07-4.625,4.625-4.625l0,0c2.554,0,4.624,2.07,4.624,4.625V34.798z"/>
<path fill="#F79523" d="M37.29,34.798c0,2.555-2.07,4.625-4.625,4.625l0,0c-2.555,0-4.625-2.07-4.625-4.625V15.421
	c0-2.555,2.07-4.625,4.625-4.625l0,0c2.555,0,4.625,2.07,4.625,4.625V34.798z"/>
<path fill="#FFFFFF" d="M4.377,29.996H4.354l-1.487,0.708l-0.3-1.367l2.075-0.96H6.14v7.796H4.377V29.996z"/>
<path fill="#FFFFFF" d="M15.983,36.173v-1.104l0.996-0.899c1.715-1.535,2.542-2.411,2.555-3.322c0-0.636-0.372-1.14-1.271-1.14
	c-0.671,0-1.259,0.336-1.667,0.636l-0.516-1.295c0.576-0.443,1.499-0.804,2.542-0.804c1.774,0,2.734,1.031,2.734,2.435
	c0,1.319-0.936,2.363-2.075,3.37l-0.72,0.6v0.024h2.951v1.499H15.983z"/>
<path fill="#FFFFFF" d="M30.294,34.386c0.324,0.18,1.068,0.479,1.812,0.479c0.947,0,1.427-0.455,1.427-1.031
	c0-0.779-0.768-1.127-1.57-1.127h-0.744v-1.308h0.72c0.612,0,1.38-0.24,1.38-0.899c0-0.468-0.373-0.815-1.152-0.815
	c-0.635,0-1.307,0.275-1.619,0.468l-0.371-1.319c0.467-0.3,1.391-0.588,2.41-0.588c1.655,0,2.579,0.876,2.579,1.943
	c0,0.827-0.468,1.487-1.428,1.811v0.024c0.936,0.168,1.691,0.875,1.691,1.906c0,1.367-1.212,2.375-3.19,2.375
	c-1.008,0-1.859-0.264-2.314-0.54L30.294,34.386z"/>
<path fill="#52CAF5" d="M22.24,5.737c0.477,0,0.594-0.277,0.254-0.615l-2.933-2.934c-0.338-0.338-0.893-0.338-1.231,0l-2.933,2.934
	c-0.339,0.338-0.224,0.615,0.255,0.615h0.817c0.479,0,0.871,0.392,0.871,0.871v5.35c0,0.479,0.392,0.87,0.871,0.87h1.471
	c0.479,0,0.872-0.392,0.872-0.87v-5.35c0-0.479,0.393-0.871,0.869-0.871H22.24z"/>
<path fill="#F79523" d="M11.787,5.409c0.448,0.163,0.652-0.06,0.448-0.493l-1.764-3.754C10.267,0.728,9.746,0.54,9.313,0.744
	L5.557,2.507C5.125,2.71,5.138,3.011,5.589,3.173L6.357,3.45c0.45,0.163,0.686,0.664,0.523,1.114l-4.204,11.81
	C2.514,16.825,2.75,17.327,3.2,17.489l1.384,0.5c0.451,0.162,0.952-0.074,1.114-0.524l4.205-11.81
	c0.162-0.45,0.665-0.686,1.115-0.524L11.787,5.409z"/>
<path fill="#F79523" d="M26.476,4.911c-0.433,0.2-0.654-0.004-0.487-0.453l1.44-3.89c0.166-0.45,0.67-0.681,1.119-0.514l3.891,1.441
	c0.449,0.166,0.46,0.466,0.025,0.666l-0.743,0.341c-0.436,0.2-0.628,0.719-0.428,1.154l1.879,4.13
	c0.199,0.436,0.007,0.956-0.428,1.156l-1.337,0.613c-0.437,0.2-0.955,0.007-1.154-0.427l-1.88-4.131
	c-0.198-0.435-0.719-0.627-1.154-0.428L26.476,4.911z"/>
</svg>
