<?xml version="1.0" encoding="utf-8"?>
<svg version="1.1"
	 xmlns="http://www.w3.org/2000/svg" x="0px" y="0px" width="48px" height="48px" viewBox="-4.125 -4.125 48 48">
<defs>
</defs>
<path d="M10.603,22.299c-1.099,0.525-2.429,1.245-2.429,3.174c0,1.502,0.854,2.197,2.002,2.197c1.001,0,1.978-0.525,2.82-1.893
	v-4.906C12.727,21.273,12.178,21.529,10.603,22.299z"/>
<path d="M19.875,0C8.898,0,0,8.898,0,19.875S8.898,39.75,19.875,39.75S39.75,30.852,39.75,19.875S30.852,0,19.875,0z M26.447,9.56
	l1.136-1.242l0.558,4.314l-5.011,0.556l1.301-1.422c-4.491-2.438-9.899-1.69-13.554,1.545C14.301,8.247,21.049,6.587,26.447,9.56z
	 M15.144,28.672c-1.746,0-2.148-1.05-2.148-2.222c-1.074,1.77-2.649,2.222-3.845,2.222c-1.672,0-3.174-0.843-3.174-2.796
	c0-1.978,1.526-2.854,4.028-3.906c1.672-0.694,2.991-1.122,2.991-2.124v-1.55c0-2.1-1.025-2.515-2.319-2.515
	c-0.854,0-1.904,0.171-2.478,0.891c0.623,0.159,1.172,0.708,1.172,1.526c0,0.854-0.574,1.354-1.465,1.354
	c-0.854,0-1.355-0.646-1.355-1.55c0-0.732,0.476-1.306,1.172-1.782c0.708-0.464,1.904-0.94,3.503-0.94
	c1.403-0.001,2.453,0.365,3.027,0.938c0.793,0.806,1.001,1.733,1.001,3.503v6.946c0,0.806,0.195,1.185,0.769,1.185
	c0.452,0,0.781-0.231,1.123-0.524l0.281,0.428C16.731,28.281,16.206,28.672,15.144,28.672z M17.524,23.242v-1.941h6.992v1.941
	H17.524z M29.494,27.871c1.979,0,3.26-1.123,3.479-4.016h0.574c0,2.147,0.023,3.563,0.098,4.492
	c-1.465-0.074-3.063-0.099-4.639-0.099c-1.686,0-3.455,0.049-5.054,0.122l7.228-12.622h-2.76c-2.222,0-3.247,1.123-3.467,4.028
	h-0.574c0-2.148-0.023-3.577-0.109-4.504c1.478,0.073,3.076,0.098,4.65,0.098c1.686,0,3.455-0.049,5.055-0.122l-7.227,12.622H29.494
	z"/>
</svg>
