<?xml version="1.0" encoding="utf-8"?>
<!-- Generator: Adobe Illustrator 15.0.0, SVG Export Plug-In  -->
<!DOCTYPE svg PUBLIC "-//W3C//DTD SVG 1.1//EN" "http://www.w3.org/Graphics/SVG/1.1/DTD/svg11.dtd" [
	<!ENTITY ns_flows "http://ns.adobe.com/Flows/1.0/">
]>
<svg version="1.1"
	 xmlns="http://www.w3.org/2000/svg" x="0px" y="0px" width="48px" height="48px" viewBox="-7.762 -3.623 48 48">
<defs>
</defs>
<path d="M27.35,0.54c0,0.298-0.132,0.54-0.293,0.54H5.512c-0.161,0-0.291-0.241-0.291-0.54l0,0C5.221,0.241,5.351,0,5.512,0h21.545
	C27.218,0,27.35,0.241,27.35,0.54L27.35,0.54z"/>
<path d="M32.24,7.294c0,0,0.305-3.43-0.805-5.146c-1.504-2.329-4.361-2.118-4.361-2.118v1.038c0,0,2.646-0.085,3.867,1.521
	C32.4,4.502,32.24,7.294,32.24,7.294z"/>
<path d="M5.493,0.045c0,0-5.194-0.303-5.127,3.458C0.433,7.331,5.068,6.46,5.068,6.46S1.569,6.432,1.563,3.898
	c-0.01-2.976,3.998-2.791,3.998-2.791L5.493,0.045z"/>
<path d="M0.379,3.846L0.007,38.038c0,0-0.15,1.354,0.901,2.104c1.051,0.752,4.056,0.602,4.056,0.602L5.077,6.46
	C5.077,6.46,0.901,7.229,0.379,3.846z"/>
<path d="M16.886,3.766c0,0,11.273-0.929,12.814,0.144c1.604,0.864,1.742,2.279,1.742,2.279s-0.679-1.19-2.01-1.676
	C27.328,3.654,16.886,3.766,16.886,3.766z"/>
<path d="M32.475,37.511V9.445c0-1.788-2.316-2.985-4.104-2.985H5.163c-1.788,0-1.292,1.196-1.292,2.985v28.066
	c0,1.789-0.709,3.239,1.08,3.239h24.288c1.789,0,3.238-1.45,3.238-3.239H32.475z M16.768,29.849c-5.215,0-9.443-4.229-9.443-9.444
	s4.228-9.443,9.443-9.443c5.215,0,9.443,4.228,9.443,9.443S21.982,29.849,16.768,29.849z"/>
<path d="M20.367,20.933c0.015,0.047,0.026,0.092,0.026,0.138c0,0.653-1.563,1.187-3.492,1.187c-1.927,0-3.49-0.533-3.49-1.187
	c0-0.046,0.01-0.091,0.025-0.138c-1.511,0.986-2.582,2.593-2.837,4.466h12.607C22.948,23.526,21.879,21.919,20.367,20.933z"/>
<ellipse cx="16.902" cy="17.73" rx="3.029" ry="3.186"/>
</svg>
