<?xml version="1.0" encoding="utf-8"?>
<!-- Generator: Adobe Illustrator 15.0.0, SVG Export Plug-In  -->
<!DOCTYPE svg PUBLIC "-//W3C//DTD SVG 1.1//EN" "http://www.w3.org/Graphics/SVG/1.1/DTD/svg11.dtd" [
	<!ENTITY ns_flows "http://ns.adobe.com/Flows/1.0/">
]>
<svg version="1.1"
	 xmlns="http://www.w3.org/2000/svg" x="0px" y="0px" width="48px" height="48px" viewBox="-0.607 -8.379 48 48">
<defs>
</defs>
<path d="M40.124,23.131c-0.069-0.087-0.133-0.18-0.215-0.262l-4.709-4.71c-1.441-1.44-3.777-1.44-5.218,0l-2.245,2.246l-5.183-5.187
	c-2.274-2.273-5.961-2.273-8.235,0l-7.435,7.435c-0.148,0.151-0.261,0.317-0.391,0.478H40.124z"/>
<circle cx="26.335" cy="11.022" r="2.469"/>
<path d="M30.172,23.131h9.951c-0.071-0.087-0.133-0.18-0.217-0.262l-4.707-4.71c-1.441-1.44-3.777-1.44-5.218,0l-1.96,1.962
	L30.172,23.131z"/>
<path d="M7.983,3.357c0-1.109-0.123-2.008,0.985-2.008h29.915c1.107,0,0.986,0.899,0.986,2.008v0.902h1.26V2.264
	c0-1.25-1.014-2.264-2.264-2.264H8.985C7.736,0,6.722,1.014,6.722,2.264v1.995h1.261V3.357z"/>
<path d="M46.786,16.124l-3.102-3.102V6.607c0-1.249-1.012-2.264-2.264-2.264H5.407c-1.25,0-2.263,1.015-2.263,2.264v6.396L0,16.146
	l3.144,3.142v9.056c0,1.252,1.013,2.264,2.263,2.264H41.42c1.252,0,2.264-1.012,2.264-2.264v-9.119L46.786,16.124z M42.425,7.7
	l-0.013,19.709c0,1.108-0.752,1.864-1.861,1.864H6.327c-1.108,0-1.917-0.627-1.917-1.737L4.405,7.7c0-1.109-0.122-2.007,0.986-2.007
	h36.047C42.549,5.693,42.425,6.59,42.425,7.7z"/>
</svg>
