<?xml version="1.0" encoding="utf-8"?>
<!DOCTYPE svg PUBLIC "-//W3C//DTD SVG 1.1//EN" "http://www.w3.org/Graphics/SVG/1.1/DTD/svg11.dtd" [
	<!ENTITY ns_flows "http://ns.adobe.com/Flows/1.0/">
]>
<svg version="1.1"
	 xmlns="http://www.w3.org/2000/svg" x="0px" y="0px" width="48px" height="48px" viewBox="-6.672 -5.19 48 48">
<defs>
</defs>
<path d="M4.796,36.618c1.318-0.229,3.359-1.953,3.22-5.474L8.003,18.119H3.466C0.998,18.119,0,20.118,0,22.585v9.567
	c0,2.467,1.998,4.466,4.466,4.466C4.563,36.618,4.683,36.618,4.796,36.618z"/>
<path d="M34.656,30.866V0H9.932v33.152c0,1.986-1.307,3.887-3.102,4.466h20.627c0,0,4.154,0.106,5.729-2.025
	C34.653,33.604,34.656,30.866,34.656,30.866z M21.137,23.353h-8.666v-1.5h8.666V23.353z M21.137,19.353h-8.666v-1.5h8.666V19.353z
	 M21.137,15.353h-8.666v-1.5h8.666V15.353z M32.137,17.853v1.5h-8.666v-1.5H32.137z M23.471,15.353v-1.5h8.666v1.5H23.471z
	 M32.137,21.853v1.5h-8.666v-1.5H32.137z M32.457,10.354H12.109V2.913h20.348V10.354z"/>
</svg>
