<?xml version="1.0" encoding="utf-8"?>
<!-- Generator: Adobe Illustrator 15.0.0, SVG Export Plug-In  -->
<!DOCTYPE svg PUBLIC "-//W3C//DTD SVG 1.1//EN" "http://www.w3.org/Graphics/SVG/1.1/DTD/svg11.dtd" [
	<!ENTITY ns_flows "http://ns.adobe.com/Flows/1.0/">
]>
<svg version="1.1"
	 xmlns="http://www.w3.org/2000/svg" xmlns:xlink="http://www.w3.org/1999/xlink" xmlns:a="http://ns.adobe.com/AdobeSVGViewerExtensions/3.0/"
	 x="0px" y="0px" width="48px" height="48px" viewBox="-2.538 -2.751 48 48"
	 xml:space="preserve">
<defs>
</defs>
<path d="M16.25,13.014c0-1.66,1.346-3.005,3.005-3.005h3.176C21.813,4.38,17.046,0,11.252,0C5.038,0,0,5.038,0,11.252
	s5.038,11.252,11.252,11.252c1.798,0,3.491-0.433,4.998-1.183V13.014z M12.577,18.298H9.935v-2.641h2.642V18.298z M13.555,12.114
	c-0.558,0.464-0.904,0.836-1.039,1.119c-0.135,0.283-0.196,0.786-0.184,1.512H9.935c-0.006-0.344-0.009-0.554-0.009-0.629
	c0-0.777,0.128-1.417,0.385-1.918s0.771-1.065,1.542-1.692c0.771-0.626,1.231-1.037,1.382-1.231
	c0.232-0.307,0.348-0.646,0.348-1.015c0-0.514-0.206-0.954-0.616-1.321c-0.411-0.366-0.964-0.55-1.659-0.55
	c-0.67,0-1.231,0.191-1.683,0.574C9.174,7.344,8.864,7.927,8.694,8.71l-2.425-0.3c0.069-1.122,0.547-2.074,1.434-2.857
	C8.59,4.77,9.754,4.378,11.195,4.378c1.517,0,2.723,0.396,3.619,1.189c0.896,0.792,1.344,1.715,1.344,2.768
	c0,0.583-0.164,1.134-0.493,1.654S14.632,11.218,13.555,12.114z"/>
<path d="M40.925,12.086h-2.309c-0.051,1.749-1.422,3.498-3.184,3.498h-8.809c-1.758,0-3.232-1.749-3.283-3.498H20.54
	c-1.104,0-2,0.896-2,2v26.411c0,1.105,0.896,2,2,2h20.385c1.104,0,2-0.895,2-2V14.086C42.925,12.982,42.029,12.086,40.925,12.086z
	 M25.837,38.364h-3.381v-3.916h3.381V38.364z M25.837,31.364h-3.381v-3.916h3.381V31.364z M25.837,24.363h-3.381v-3.916h3.381
	V24.363z M40.078,37.118H28.33v-1.426h11.748V37.118z M40.078,30.118H28.33v-1.426h11.748V30.118z M40.078,23.118H28.33v-1.425
	h11.748V23.118z"/>
<path d="M32.841,12.086c-0.176-0.813-0.896-1.424-1.762-1.424c-0.867,0-1.588,0.61-1.762,1.424h-4.707
	c0.031,1.465,1.225,2.646,2.697,2.646h7.34c1.475,0,2.666-1.181,2.697-2.646H32.841z"/>
</svg>
