<?xml version="1.0" encoding="utf-8"?>
<!-- Generator: Adobe Illustrator 15.0.0, SVG Export Plug-In  -->
<!DOCTYPE svg PUBLIC "-//W3C//DTD SVG 1.1//EN" "http://www.w3.org/Graphics/SVG/1.1/DTD/svg11.dtd" [
	<!ENTITY ns_flows "http://ns.adobe.com/Flows/1.0/">
]>
<svg version="1.1"
	 xmlns="http://www.w3.org/2000/svg" x="0px" y="0px" width="48px" height="48px" viewBox="-4.253 -3.577 48 48"
	 xml:space="preserve">
<defs>
</defs>
<path d="M18.822,8.952c1.027-0.465,2.16-0.365,3.068,0.157c0.186-0.078,0.362-0.174,0.531-0.276l-1.796-3.964
	c-0.916-2.025-1.956-2.417-3.98-1.5l-3.89,1.762c-0.032-0.106-0.067-0.215-0.091-0.312c0.414-0.867,0.47-1.895,0.043-2.837
	c-0.768-1.696-2.764-2.449-4.461-1.681C6.551,1.07,5.799,3.067,6.567,4.763c0.465,1.027,1.383,1.7,2.41,1.907
	C9,6.716,9.019,6.766,9.039,6.814L4.991,8.647c-2.025,0.917-2.416,1.958-1.5,3.982l1.306,2.882
	c-0.862-0.407-1.879-0.471-2.816-0.047c-1.695,0.768-2.448,2.766-1.68,4.461c0.768,1.695,2.765,2.447,4.461,1.68
	c0.933-0.422,1.563-1.223,1.828-2.134l2.014,4.447c0.917,2.024,1.957,2.417,3.982,1.5l4.162-1.885
	c-0.036-0.091-0.072-0.182-0.115-0.27c-1.027-0.205-1.946-0.879-2.412-1.906c-0.768-1.696-0.016-3.692,1.68-4.46
	c1.697-0.768,3.693-0.016,4.46,1.68c0.427,0.943,0.371,1.972-0.043,2.838c0.034,0.137,0.08,0.286,0.131,0.441l3.792-1.717
	c2.024-0.917,2.416-1.956,1.499-3.982l-1.637-3.613c-0.242,0.123-0.474,0.257-0.661,0.387c-0.26,0.923-0.896,1.735-1.839,2.162
	c-1.695,0.768-3.692,0.015-4.46-1.681C16.375,11.718,17.126,9.72,18.822,8.952z"/>
<path d="M36.164,28.42c1.128,0,2.119,0.559,2.73,1.409c0.201,0.006,0.402-0.009,0.599-0.032v-4.352c0-2.223-0.785-3.009-3.009-3.009
	h-4.271c0.015-0.11,0.027-0.225,0.045-0.321c0.734-0.619,1.21-1.533,1.21-2.567c0-1.862-1.508-3.371-3.369-3.371
	s-3.369,1.509-3.369,3.371c0,1.127,0.559,2.12,1.408,2.731c0.002,0.053-0.002,0.104-0.004,0.157H23.69
	c-2.224,0-3.008,0.786-3.008,3.009v3.164c-0.617-0.728-1.518-1.205-2.545-1.205c-1.861,0-3.371,1.51-3.371,3.371
	c0,1.86,1.509,3.369,3.371,3.369c1.024,0,1.928-0.469,2.545-1.189v4.882c0,2.224,0.785,3.009,3.008,3.009h4.568
	c0.005-0.098,0.009-0.195,0.007-0.293c-0.852-0.609-1.41-1.603-1.41-2.73c0-1.861,1.508-3.37,3.369-3.37
	c1.862,0,3.371,1.509,3.371,3.37c0,1.035-0.477,1.949-1.211,2.568c-0.025,0.139-0.046,0.293-0.063,0.455h4.162
	c2.224,0,3.009-0.785,3.009-3.009v-3.967c-0.271,0.012-0.537,0.039-0.763,0.08c-0.617,0.733-1.533,1.211-2.566,1.211
	c-1.861,0-3.37-1.511-3.37-3.371S34.302,28.42,36.164,28.42z"/>
</svg>
