<?xml version="1.0" encoding="utf-8"?>
<!-- Generator: Adobe Illustrator 15.0.0, SVG Export Plug-In  -->
<!DOCTYPE svg PUBLIC "-//W3C//DTD SVG 1.1//EN" "http://www.w3.org/Graphics/SVG/1.1/DTD/svg11.dtd" [
	<!ENTITY ns_flows "http://ns.adobe.com/Flows/1.0/">
]>
<svg version="1.1"
	 xmlns="http://www.w3.org/2000/svg" xmlns:xlink="http://www.w3.org/1999/xlink" xmlns:a="http://ns.adobe.com/AdobeSVGViewerExtensions/3.0/"
	 x="0px" y="0px" width="48px" height="48px" viewBox="-2.297 -4.598 48 48"
	 xml:space="preserve">
<defs>
</defs>
<rect x="27.423" y="24.159" width="11.074" height="1.478"/>
<rect x="27.423" y="27.587" width="11.073" height="1.476"/>
<rect x="27.779" y="4.902" width="5.773" height="6.335"/>
<path d="M20.543,29.416c0.03,0.095,0.052,0.189,0.052,0.287c0,1.377-3.286,2.492-7.34,2.492c-4.055,0-7.341-1.115-7.341-2.492
	c0-0.098,0.02-0.192,0.053-0.287C2.789,31.489,0.54,34.872,0,38.803h26.512C25.971,34.872,23.723,31.489,20.543,29.416z"/>
<path d="M27.423,31.016v0.63c0.199,0.279,0.387,0.563,0.567,0.847h5.129v-1.477H27.423z"/>
<path d="M22.712,12.957v14.309c1.184,0.684,2.212,1.519,3.104,2.443V9.98L22.712,12.957z"/>
<path d="M22.712,0v6.008l3.104,3.072V3.099h14.485v32.606H29.666c0.475,1.113,0.833,2.176,1.098,3.1h12.643V0H22.712z"/>
<path d="M15.376,16.369l7.231-7.122l-8.468-8.37l0.036,4.132C7.318,6.893,2.092,12.95,1.633,20.443
	c-0.154,2.512,0.262,4.918,1.108,7.122c0.683-0.475,1.315-0.81,1.853-1.045c-0.189-6.578,3.053-11.145,9.654-13.26l0.025,2.813
	c-0.332-0.056-0.67-0.093-1.018-0.093c-3.518,0-6.369,2.999-6.369,6.698c0,3.699,2.851,6.698,6.369,6.698s6.369-2.999,6.369-6.698
	C19.624,19.763,17.85,17.289,15.376,16.369z"/>
</svg>
