<?xml version="1.0" encoding="utf-8"?>
<!-- Generator: Adobe Illustrator 15.0.0, SVG Export Plug-In  -->
<!DOCTYPE svg PUBLIC "-//W3C//DTD SVG 1.1//EN" "http://www.w3.org/Graphics/SVG/1.1/DTD/svg11.dtd" [
	<!ENTITY ns_flows "http://ns.adobe.com/Flows/1.0/">
]>
<svg version="1.1"
	 xmlns="http://www.w3.org/2000/svg" xmlns:xlink="http://www.w3.org/1999/xlink" xmlns:a="http://ns.adobe.com/AdobeSVGViewerExtensions/3.0/"
	 x="0px" y="0px" width="48px" height="48px" viewBox="-3.809 -5.257 48 48"
	 xml:space="preserve">
<defs>
</defs>
<path d="M38.441,0H1.942C0.87,0,0,0.87,0,1.943v27.239c0,1.072,0.87,1.942,1.942,1.942h13.854v4.382h-0.335
	c-1.093,0-1.979,0.887-1.979,1.98h13.42c0-1.094-0.887-1.98-1.98-1.98h-0.334v-4.382h13.854c1.072,0,1.941-0.87,1.941-1.942V1.943
	C40.385,0.87,39.516,0,38.441,0z M38.131,27.288c0,1.021-0.438,1.459-1.459,1.459H3.712c-1.021,0-1.458-0.438-1.458-1.459V3.637
	c0-1.02,0.438-1.459,1.458-1.459h32.96c1.021,0,1.459,0.439,1.459,1.459V27.288z"/>
<rect x="6.233" y="6.159" width="27.916" height="7.236"/>
<path d="M18.98,19.331c0,0.414,0.242,0.797,0.724,1.15l0.243,0.172v-2.535c-0.284,0.034-0.516,0.166-0.695,0.392
	C19.071,18.738,18.98,19.01,18.98,19.331z"/>
<path d="M20.844,22.459l-0.257-0.185v2.65c0.662-0.146,0.993-0.57,0.993-1.275C21.58,23.192,21.334,22.796,20.844,22.459z"/>
<path d="M29.523,18.159c-1.081,0-1.958-0.877-1.958-1.958h-14.67c0,0.014,0.004,0.027,0.004,0.042c0,1.082-0.877,1.958-1.958,1.958
	c-0.042,0-0.083-0.01-0.125-0.013v6.942c0.042-0.003,0.082-0.013,0.125-0.013c1.067,0,1.932,0.854,1.954,1.917h14.651
	c0-0.007-0.002-0.015-0.002-0.021c0-1.082,0.877-1.959,1.959-1.959c0.021,0,0.041,0.006,0.063,0.008v-6.909
	C29.551,18.155,29.538,18.159,29.523,18.159z M22.063,25.036c-0.367,0.407-0.86,0.655-1.477,0.739v0.707h-0.707v-0.707
	c-0.621,0-1.325-0.151-2.11-0.452v-0.973c0.816,0.395,1.52,0.591,2.11,0.591v-3.087l-0.42-0.275
	c-1.017-0.684-1.524-1.42-1.524-2.215c0-0.57,0.186-1.05,0.558-1.439c0.372-0.389,0.856-0.609,1.455-0.659v-0.713h0.707v0.713
	c0.566,0.035,1.146,0.158,1.742,0.372v0.927c-0.557-0.276-1.137-0.446-1.742-0.511v3.048l0.385,0.229
	c1.051,0.617,1.576,1.348,1.576,2.191C22.615,24.124,22.432,24.629,22.063,25.036z"/>
<polygon points="36.277,15.148 34.277,15.148 34.277,14.148 35.277,14.148 35.277,13.148 36.277,13.148 "/>
<path d="M31.147,15.148h-3.13v-1h3.13V15.148z M24.887,15.148h-3.13v-1h3.13V15.148z M18.627,15.148h-3.13v-1h3.13V15.148z
	 M12.366,15.148h-3.13v-1h3.13V15.148z"/>
<polygon points="6.105,15.148 4.105,15.148 4.105,13.148 5.105,13.148 5.105,14.148 6.105,14.148 "/>
<rect x="4.105" y="8.561" width="1" height="2.293"/>
<polygon points="5.105,6.268 4.105,6.268 4.105,4.268 6.105,4.268 6.105,5.268 5.105,5.268 "/>
<path d="M31.147,5.268h-3.13v-1h3.13V5.268z M24.888,5.268h-3.13v-1h3.13V5.268z M18.627,5.268h-3.13v-1h3.13V5.268z M12.367,5.268
	H9.236v-1h3.131V5.268z"/>
<polygon points="36.277,6.268 35.277,6.268 35.277,5.268 34.277,5.268 34.277,4.268 36.277,4.268 "/>
<rect x="35.277" y="8.561" width="1" height="2.293"/>
</svg>
