<?xml version="1.0" encoding="utf-8"?>
<!-- Generator: Adobe Illustrator 15.0.0, SVG Export Plug-In  -->
<!DOCTYPE svg PUBLIC "-//W3C//DTD SVG 1.1//EN" "http://www.w3.org/Graphics/SVG/1.1/DTD/svg11.dtd" [
	<!ENTITY ns_flows "http://ns.adobe.com/Flows/1.0/">
]>
<svg version="1.1"
	 xmlns="http://www.w3.org/2000/svg" x="0px" y="0px" width="48px" height="48px" viewBox="-8 -3.1 48 48">
<defs>
</defs>
<polygon points="18.09,8.5 7.5,8.5 7.5,10.6 16.478,10.6 "/>
<path d="M20.1,8.4L10.2,21.3l3.9,3L24,11.4c0.8-1.1,0.6-2.6-0.4-3.4C22.5,7.1,21,7.3,20.1,8.4z"/>
<polygon points="8.4,27.701 9.6,22.4 13.2,25.201 "/>
<polygon points="13.868,14 7.5,14 7.5,16.1 12.256,16.1 "/>
<polygon points="22.092,16.1 25.1,16.1 25.1,14 23.703,14 "/>
<polygon points="9.647,19.5 7.5,19.5 7.5,21.6 8.035,21.6 "/>
<path d="M29.7,0H2.3C1,0,0,1.3,0,2.8v26.299C0,30.701,1,32,2.3,32h2.887l0.668-2.799H4.9c-1,0-1.8-1-1.8-2.301V5.6
	c0-1.3,0.8-2.3,1.8-2.3H27c1,0,1.8,1,1.8,2.3v21.3H28.9c0,1.301-0.801,2.301-1.801,2.301H17L11.4,35.9l-1.2-6.699H9.995L5.308,32
	H7.7L9.8,41.8l9-9.801h10.9c1.3,0,2.3-1.299,2.3-2.799V2.8C32,1.3,31,0,29.7,0z"/>
</svg>
