<?xml version="1.0" encoding="utf-8"?>
<!DOCTYPE svg PUBLIC "-//W3C//DTD SVG 1.1//EN" "http://www.w3.org/Graphics/SVG/1.1/DTD/svg11.dtd" [
	<!ENTITY ns_flows "http://ns.adobe.com/Flows/1.0/">
]>
<svg version="1.1"
	 xmlns="http://www.w3.org/2000/svg" x="0px" y="0px" width="48px" height="48px" viewBox="-3.706 -1.922 48 48">
<defs>
</defs>
<path d="M13.233,24.753c-0.651-1.092-1.085-2.51-1.085-4.371c0-7.199,7.179-7.803,7.179-7.803h6.789l-0.205,4.732h-6.583
	c0,0-2.62,0.148-2.62,3.159c0,3.144,2.414,3.423,2.414,3.423h7.201v0.656l6.83-2.033l1.931-3.27
	c1.329-2.249,0.804-5.022-1.175-6.191L21.024,5.45c-1.976-1.167-4.658-0.29-5.987,1.959L7.085,20.875L13.233,24.753z"/>
<path d="M39.13,29.117c0,0-3.934-1.109-4.527-2.605l-15.941,6.004l-3.654-1.963c-0.049-0.609-0.397-1.182-0.98-1.48l-4.265-2.201
	c-0.25-0.129-0.516-0.189-0.779-0.197c-0.202-1.912-1.622-3.549-3.611-3.906c-2.414-0.434-4.722,1.174-5.154,3.584
	c-0.433,2.416,1.172,4.725,3.585,5.158c1.396,0.248,2.743-0.197,3.726-1.072c0.091,0.07,0.188,0.137,0.295,0.191l4.265,2.201
	c0.437,0.225,0.921,0.256,1.357,0.125l1.601,0.92l-0.746,0.281c-0.449-0.467-1.125-0.688-1.793-0.504l-4.63,1.262
	c-0.024,0.006-0.044,0.018-0.067,0.025c-0.834-0.982-2.072-1.609-3.461-1.582c-2.452,0.051-4.398,2.082-4.349,4.529
	c0.05,2.455,2.078,4.402,4.529,4.352c1.984-0.039,3.617-1.383,4.15-3.191c0.103-0.01,0.206-0.023,0.309-0.051l4.631-1.264
	c0.43-0.117,0.775-0.383,1.012-0.721l3.762-1.213l14.543,8.357c0.818-1.387,4.082-1.781,4.082-1.781l-14.637-7.861L39.13,29.117z
	 M7.299,27.66l-0.262,0.508c-0.135,0.262-0.193,0.541-0.196,0.816c-0.65,0.791-1.689,1.227-2.77,1.033
	c-1.59-0.285-2.648-1.805-2.363-3.395c0.286-1.592,1.805-2.649,3.397-2.363c1.491,0.268,2.5,1.625,2.384,3.107
	C7.418,27.457,7.354,27.554,7.299,27.66z M4.5,40.722c-1.616,0.033-2.952-1.25-2.984-2.865c-0.033-1.617,1.25-2.951,2.866-2.984
	c0.932-0.02,1.761,0.408,2.311,1.074c-0.162,0.369-0.211,0.791-0.097,1.211l0.15,0.553c0.091,0.336,0.274,0.619,0.51,0.842
	C6.927,39.777,5.833,40.697,4.5,40.722z M18.235,35.273c-0.64,0.014-1.169-0.494-1.182-1.133c-0.013-0.641,0.495-1.168,1.134-1.182
	c0.639-0.012,1.168,0.494,1.181,1.135C19.382,34.732,18.874,35.261,18.235,35.273z"/>
<path d="M5.467,19.854l9.007-15.25C15.424,2.998,17.044,2,18.704,2c0.682,0,1.315,0.17,1.885,0.507l16.103,9.51
	c0.945,0.559,1.589,1.513,1.813,2.688c0.231,1.222-0.015,2.53-0.695,3.682l-1.967,3.33l2.819-0.839l0.87-1.474
	c0.927-1.57,1.26-3.372,0.938-5.072c-0.332-1.748-1.313-3.182-2.76-4.036l-16.104-9.51C20.737,0.271,19.733,0,18.704,0
	c-2.363,0-4.643,1.374-5.951,3.586l-8.978,15.2L5.467,19.854z"/>
</svg>
