<?xml version="1.0" encoding="utf-8"?>
<!-- Generator: Adobe Illustrator 15.0.0, SVG Export Plug-In  -->
<!DOCTYPE svg PUBLIC "-//W3C//DTD SVG 1.1//EN" "http://www.w3.org/Graphics/SVG/1.1/DTD/svg11.dtd" [
	<!ENTITY ns_flows "http://ns.adobe.com/Flows/1.0/">
]>
<svg version="1.1"
	 xmlns="http://www.w3.org/2000/svg" x="0px" y="0px" width="48px" height="48px" viewBox="-2.146 -3.464 48 48"
	 xml:space="preserve">
<defs>
</defs>
<path d="M10.638,6.717l5.687,4.529l4.628-2.343c0-0.012,0-0.028,0-0.039c0-1.563,1.372-2.838,3.047-2.838l2,0.001h1.49V1.812
	C27.49,0.811,26.658,0,25.629,0H6.38C5.352,0,4.517,0.811,4.517,1.812v9.09l0.011-0.077L10.638,6.717z M17.349,3.694
	c1.222-0.001,2.213,0.989,2.213,2.211c0,1.221-0.991,2.212-2.213,2.212c-1.221,0-2.211-0.991-2.211-2.212
	C15.138,4.683,16.128,3.694,17.349,3.694z"/>
<path d="M26,9.026c-1.676,0-3.047,1.276-3.047,2.838c0,1.56,0.105,8.25-4.574,7.41H3.048C1.372,19.274,0,20.646,0,22.322v15.701
	c0,1.678,1.372,3.049,3.048,3.049H40.66c1.676,0,3.047-1.371,3.047-3.049V23.306c0-1.676,0-4.298,0-5.826s0-4.056,0-5.615
	c0-1.563-1.371-2.838-3.047-2.838L26,9.026L26,9.026z"/>
<path d="M16.379,17.274c4.312,0.164,4.603-4.099,4.589-6.377l-4.643,2.35l-5.687-4.529l-6.11,4.108l-0.011,0.077v4.372H16.379z"/>
</svg>
