<?xml version="1.0" encoding="utf-8"?>
<svg version="1.1"
	 xmlns="http://www.w3.org/2000/svg" xmlns:xlink="http://www.w3.org/1999/xlink"
	 x="0px" y="0px" width="48px" height="48px" viewBox="-3.425 -3.425 48 48">
<defs>
</defs>
<circle fill="#B9722A" cx="20.575" cy="20.575" r="20.575"/>
<path fill="#CD8430" d="M32.178,37.563c5.416-3.706,8.973-9.931,8.973-16.988C41.15,9.211,31.94,0,20.576,0
	c-3.506,0-6.805,0.881-9.693,2.428L32.178,37.563z"/>
<circle fill="#C17A2C" cx="20.575" cy="20.575" r="18.518"/>
<path fill="#EFA344" d="M20.576,2.058c-3.115,0-6.047,0.777-8.623,2.136l19.154,31.605c4.822-3.345,7.985-8.912,7.985-15.224
	C39.093,10.348,30.804,2.058,20.576,2.058z"/>
<path fill="none" stroke="#F3AE79" stroke-miterlimit="10" d="M31.107,35.799c4.822-3.345,7.985-8.912,7.985-15.224
	c0-10.228-8.289-18.518-18.517-18.518c-3.115,0-6.047,0.777-8.623,2.136"/>
<path fill="none" stroke="#ECA144" stroke-miterlimit="10" d="M30.931,35.932c-2.956,1.996-6.519,3.161-10.354,3.161
	c-10.229,0-18.519-8.29-18.519-18.518c0-6.991,3.876-13.08,9.595-16.229"/>
<polygon fill="#FDFEFF" points="31.216,4.625 35.081,6.649 30.848,5.913 28.271,11.251 28.823,5.544 23.669,5.728 28.456,4.072 
	26.062,1.311 29.744,3.52 32.688,2.047 "/>
<path fill="#FFFFFF" d="M19.795,36.402V32.5c-2.23,0-4.574-0.78-5.912-1.672l0.893-2.565c1.338,0.892,3.346,1.672,5.576,1.672
	c2.789,0,4.572-1.561,4.572-3.791c0-2.118-1.562-3.457-4.35-4.571c-3.904-1.563-6.355-3.346-6.355-6.691
	c0-3.233,2.341-5.688,5.798-6.246V4.621h2.454v3.792c2.341,0.111,3.902,0.669,5.019,1.338l-1.004,2.566
	c-0.781-0.447-2.453-1.338-4.907-1.338c-3.011,0-4.127,1.784-4.127,3.344c0,2.008,1.45,3.012,4.796,4.461
	c4.015,1.674,6.022,3.569,6.022,7.026c0,3.122-2.12,6.021-6.134,6.579v4.014H19.795z"/>
</svg>
