<?xml version="1.0" encoding="utf-8"?>
<svg version="1.1"
	 xmlns="http://www.w3.org/2000/svg" xmlns:xlink="http://www.w3.org/1999/xlink"
	 x="0px" y="0px" width="48px" height="48px" viewBox="-3.5 -3.8 48 48">
<defs>
</defs>
<circle fill="#FAA621" cx="20.6" cy="20.6" r="20.6"/>
<path fill="#FFC916" d="M32.2,37.6c5.4-3.7,9-9.9,9-17C41.1,9.2,31.9,0,20.6,0c-3.5,0-6.8,0.9-9.7,2.4L32.2,37.6z"/>
<circle fill="#DB9316" cx="20.6" cy="20.6" r="18.5"/>
<path fill="#FBAB20" d="M20.6,2.1c-3.1,0-6,0.8-8.6,2.1l19.2,31.6c4.8-3.3,8-8.9,8-15.2C39.1,10.3,30.8,2.1,20.6,2.1z"/>
<path fill="#FFFFFF" d="M19.4,34.8v-3.5c-2,0-4.1-0.7-5.3-1.5l0.8-2.3c1.2,0.8,3,1.5,5,1.5c2.5,0,4.1-1.4,4.1-3.4
	c0-1.9-1.4-3.1-3.9-4.1c-3.5-1.4-5.7-3-5.7-6c0-2.9,2.1-5.1,5.2-5.6V6.3h2.2v3.4c2.1,0.1,3.5,0.6,4.5,1.2l-0.9,2.3
	c-0.7-0.4-2.2-1.2-4.4-1.2c-2.7,0-3.7,1.6-3.7,3c0,1.8,1.3,2.7,4.3,4c3.6,1.5,5.4,3.2,5.4,6.3c0,2.8-1.9,5.4-5.5,5.9v3.6H19.4z"/>
<path fill="none" stroke="#FEE960" stroke-miterlimit="10" d="M31.1,35.8c4.8-3.3,8-8.9,8-15.2c0-10.2-8.3-18.5-18.5-18.5
	c-3.1,0-6,0.8-8.6,2.1"/>
<path fill="none" stroke="#FABD1A" stroke-miterlimit="10" d="M30.9,35.9c-3,2-6.5,3.2-10.4,3.2c-10.2,0-18.5-8.3-18.5-18.5
	c0-7,3.9-13.1,9.6-16.2"/>
<polygon fill="#FDFDFE" points="31.2,4.6 35.1,6.6 30.8,5.9 28.3,11.3 28.8,5.5 23.7,5.7 28.5,4.1 26.1,1.3 29.7,3.5 32.7,2 "/>
</svg>
