<?xml version="1.0" encoding="utf-8"?>
<svg version="1.1"
	 xmlns="http://www.w3.org/2000/svg" xmlns:xlink="http://www.w3.org/1999/xlink"
	 x="0px" y="0px" width="48px" height="48px" viewBox="-3.2 -2.9 48 48">
<defs>
</defs>
<circle fill="#939598" cx="21" cy="21" r="21"/>
<path fill="#ABADB0" d="M32.9,38.4C38.4,34.6,42,28.2,42,21C42,9.4,32.6,0,21,0c-3.6,0-6.9,0.9-9.9,2.5L32.9,38.4z"/>
<circle fill="#9D9FA2" cx="21" cy="21" r="18.9"/>
<path fill="#BABCBE" d="M21,2.1c-3.2,0-6.2,0.8-8.8,2.2l19.6,32.3c4.9-3.4,8.2-9.1,8.2-15.5C39.9,10.6,31.5,2.1,21,2.1z"/>
<path fill="#FFFFFF" d="M19.8,35.6V32c-2.1,0-4.2-0.7-5.4-1.6l0.9-2.4c1.2,0.8,3.1,1.5,5.1,1.5c2.5,0,4.2-1.5,4.2-3.5
	c0-2-1.4-3.2-4-4.2c-3.6-1.4-5.9-3.1-5.9-6.2c0-2.9,2.1-5.2,5.3-5.7V6.5h2.2v3.4c2.1,0.1,3.5,0.6,4.6,1.2L26,13.5
	c-0.7-0.4-2.2-1.2-4.5-1.2c-2.7,0-3.8,1.6-3.8,3.1c0,1.8,1.3,2.7,4.4,4c3.7,1.5,5.5,3.3,5.5,6.5c0,2.8-2,5.5-5.6,6v3.7H19.8z"/>
<path fill="none" stroke="#D3D5D6" stroke-miterlimit="10" d="M31.8,36.6c4.9-3.4,8.2-9.1,8.2-15.5c0-10.4-8.5-18.9-18.9-18.9
	c-3.2,0-6.2,0.8-8.8,2.2"/>
<path fill="none" stroke="#B3B5B8" stroke-miterlimit="10" d="M31.6,36.7c-3,2-6.7,3.2-10.6,3.2C10.6,39.9,2.1,31.5,2.1,21
	c0-7.1,4-13.4,9.8-16.6"/>
<polygon fill="#FDFDFE" points="31.9,4.7 35.8,6.8 31.5,6 28.9,11.5 29.4,5.7 24.2,5.9 29.1,4.2 26.6,1.3 30.4,3.6 33.4,2.1 "/>
</svg>
