<?xml version="1.0" encoding="utf-8"?>
<!-- Generator: Adobe Illustrator 15.0.0, SVG Export Plug-In  -->
<!DOCTYPE svg PUBLIC "-//W3C//DTD SVG 1.1//EN" "http://www.w3.org/Graphics/SVG/1.1/DTD/svg11.dtd" [
	<!ENTITY ns_flows "http://ns.adobe.com/Flows/1.0/">
]>
<svg version="1.1"
	 xmlns="http://www.w3.org/2000/svg" xmlns:xlink="http://www.w3.org/1999/xlink" xmlns:a="http://ns.adobe.com/AdobeSVGViewerExtensions/3.0/"
	 x="0px" y="0px" width="172px" height="64px" viewBox="0 0 172 64" enable-background="new 0 0 172 64" xml:space="preserve">
<defs>
</defs>
<path fill="#F79523" d="M167.721,29.903c0,14.365-11.641,26.005-26.003,26.005H26.003C11.64,55.908,0,44.268,0,29.903v-3.899
	C0,11.643,11.64,0,26.003,0h115.715c14.362,0,26.003,11.643,26.003,26.004V29.903L167.721,29.903z"/>
<path fill="#E6E7E8" d="M161.354,29.514c0,11.492-9.316,20.8-20.805,20.8H27.171c-11.488,0-20.802-9.309-20.802-20.8v-3.12
	c0-11.487,9.314-20.803,20.802-20.803h113.378c11.487,0,20.805,9.315,20.805,20.803V29.514z"/>
<path fill="#3588A6" d="M83.353,29.514c0,11.492-9.316,20.8-20.804,20.8H27.182c-11.489,0-20.804-9.309-20.804-20.8v-3.12
	c0-11.487,9.314-20.803,20.804-20.803h35.367c11.487,0,20.804,9.315,20.804,20.803V29.514z"/>
<path fill="#C86A28" d="M88.293,28.702c0-4.158,1.117-7.414,3.35-9.767c2.233-2.353,5.115-3.529,8.648-3.529
	c2.313,0,4.396,0.553,6.254,1.658c1.857,1.104,3.273,2.646,4.247,4.622c0.975,1.978,1.462,4.219,1.462,6.726
	c0,2.54-0.514,4.813-1.539,6.818c-1.025,2.006-2.478,3.523-4.357,4.555s-3.908,1.547-6.084,1.547c-2.358,0-4.467-0.57-6.323-1.709
	c-1.857-1.14-3.265-2.694-4.222-4.666C88.771,32.986,88.293,30.901,88.293,28.702z M91.711,28.754c0,3.019,0.813,5.397,2.436,7.135
	c1.624,1.737,3.66,2.605,6.109,2.605c2.496,0,4.549-0.877,6.161-2.631c1.612-1.755,2.419-4.244,2.419-7.469
	c0-2.039-0.346-3.819-1.034-5.341c-0.69-1.521-1.698-2.7-3.025-3.537c-1.327-0.838-2.817-1.257-4.469-1.257
	c-2.347,0-4.366,0.807-6.059,2.419C92.558,22.291,91.711,24.982,91.711,28.754z"/>
<path fill="#C86A28" d="M116.697,40.904V15.851H133.6v2.956h-13.587v7.76h11.758v2.956h-11.758v11.382H116.697z"/>
<path fill="#C86A28" d="M138.076,40.904V15.851h16.902v2.956h-13.587v7.76h11.758v2.956h-11.758v11.382H138.076z"/>
<path fill="#52CAF5" d="M83.353,28.604v-2.21c0-11.487-9.316-20.803-20.804-20.803H27.182c-11.489,0-20.804,9.315-20.804,20.803
	v2.21H83.353z"/>
<circle fill="#84D5F7" cx="63.723" cy="28.472" r="14.953"/>
<path fill="#52CAF5" d="M78.675,28.472c0,8.26-6.694,14.953-14.952,14.953c-8.259,0-14.953-6.692-14.953-14.953
	C48.847,28.4,79.042,28.732,78.675,28.472z"/>
</svg>
