<?xml version="1.0" encoding="utf-8"?>
<svg version="1.1"
	 xmlns="http://www.w3.org/2000/svg" xmlns:xlink="http://www.w3.org/1999/xlink"
	 x="0px" y="0px" width="172px" height="64px" viewBox="0 0 172 64">
<defs>
</defs>
<path fill="#F79523" d="M172.09,34.257c0,16.443-13.625,29.759-30.078,29.759H29.791C13.339,64.016,0,50.684,0,34.24v-4.467
	C0,13.332,13.339,0,29.791,0h112.221c16.453,0,30.078,13.349,30.078,29.791V34.257z"/>
<path fill="#E6E7E8" d="M164.508,33.793c0,13.16-10.666,23.82-23.82,23.82H31.204c-13.154,0-24.866-9.734-24.866-22.896v-3.57
	c0-13.154,11.712-24.744,24.866-24.744h109.484c13.154,0,23.82,10.666,23.82,23.82V33.793z"/>
<path fill="#3588A6" d="M84.678,33.754c0,13.16-10.809,23.859-23.963,23.859H30.602c-13.154,0-23.822-10.66-23.822-23.82v-3.57
	c0-13.154,10.668-23.82,23.822-23.82h30.113c13.154,0,23.963,10.627,23.963,23.781V33.754z"/>
<path fill="#52CAF5" d="M84.65,32.761v-2.528c0-13.155-10.809-23.83-23.963-23.83H30.574c-13.154,0-23.822,10.666-23.822,23.82
	v2.529L84.65,32.761z"/>
<path fill="#91D9F8" d="M79.154,32.601c0,9.456-7.668,17.12-17.123,17.12c-9.457,0-16.121-7.664-16.121-17.12
	c0-9.455,6.664-17.12,16.121-17.12C71.486,15.48,79.154,23.146,79.154,32.601z"/>
<path fill="#52CAF5" d="M79.154,32.601c0,9.456-7.668,17.12-17.123,17.12c-9.457,0-16.121-7.664-16.121-17.12
	C45.998,32.52,79.57,32.896,79.154,32.601z"/>
<path fill="#C8691C" d="M95.209,32.235c0-4.023,1.08-7.173,3.241-9.449c2.16-2.276,4.949-3.415,8.367-3.415
	c2.237,0,4.255,0.535,6.052,1.604s3.166,2.561,4.108,4.473c0.943,1.912,1.414,4.081,1.414,6.507c0,2.458-0.496,4.657-1.488,6.598
	c-0.992,1.939-2.397,3.408-4.216,4.406c-1.819,0.998-3.781,1.496-5.887,1.496c-2.282,0-4.321-0.551-6.118-1.653
	s-3.158-2.606-4.084-4.514C95.672,36.381,95.209,34.363,95.209,32.235z M98.517,32.285c0,2.922,0.785,5.223,2.356,6.903
	c1.57,1.682,3.541,2.522,5.911,2.522c2.414,0,4.4-0.85,5.961-2.547c1.56-1.697,2.34-4.106,2.34-7.226
	c0-1.974-0.334-3.696-1.001-5.168s-1.643-2.612-2.927-3.423c-1.284-0.81-2.726-1.215-4.323-1.215c-2.271,0-4.226,0.78-5.862,2.34
	S98.517,28.637,98.517,32.285z"/>
<path fill="#C8691C" d="M121.845,44.042v-24.24h16.353v2.86h-13.146v7.507h11.377v2.86h-11.377v11.013H121.845z"/>
<path fill="#C8691C" d="M141.684,44.042v-24.24h16.353v2.86h-13.146v7.507h11.377v2.86h-11.377v11.013H141.684z"/>
</svg>
