<?xml version="1.0" encoding="utf-8"?>
<svg version="1.1"
	 xmlns="http://www.w3.org/2000/svg" xmlns:xlink="http://www.w3.org/1999/xlink"
	 x="0px" y="0px" width="172px" height="64px" viewBox="0.089 0 172 64">
<defs>
</defs>
<path fill="#F79523" d="M172.089,34.257c0,16.443-13.624,29.759-30.078,29.759H29.791C13.339,64.016,0,50.684,0,34.24v-4.466
	C0,13.332,13.339,0,29.791,0h112.22c16.454,0,30.078,13.349,30.078,29.791V34.257z"/>
<path fill="#E6E7E8" d="M164.507,33.793c0,13.16-10.666,23.82-23.82,23.82H31.204c-13.154,0-24.866-9.734-24.866-22.896v-3.57
	c0-13.155,11.712-24.744,24.866-24.744h109.483c13.154,0,23.82,10.665,23.82,23.82V33.793z"/>
<path fill="#3588A6" d="M164.677,33.754c0,13.16-10.809,23.859-23.963,23.859h-30.113c-13.154,0-23.821-10.66-23.821-23.82v-3.57
	c0-13.155,10.667-23.82,23.821-23.82h30.113c13.154,0,23.963,10.626,23.963,23.781V33.754z"/>
<path fill="#C8691C" d="M19.209,32.384c0-3.961,1.064-7.063,3.191-9.305c2.128-2.242,4.875-3.363,8.239-3.363
	c2.204,0,4.19,0.527,5.959,1.58c1.771,1.053,3.119,2.521,4.047,4.405c0.928,1.883,1.392,4.019,1.392,6.407
	c0,2.421-0.488,4.587-1.465,6.497c-0.977,1.911-2.362,3.356-4.153,4.339c-1.792,0.983-3.724,1.475-5.796,1.475
	c-2.248,0-4.256-0.543-6.025-1.629c-1.77-1.085-3.11-2.566-4.022-4.444C19.665,36.465,19.209,34.479,19.209,32.384z M22.465,32.433
	c0,2.878,0.773,5.144,2.321,6.798c1.546,1.657,3.487,2.482,5.821,2.482c2.377,0,4.334-0.835,5.87-2.506
	c1.536-1.672,2.304-4.044,2.304-7.116c0-1.943-0.329-3.64-0.985-5.088c-0.657-1.45-1.618-2.573-2.882-3.371
	c-1.265-0.798-2.684-1.197-4.258-1.197c-2.236,0-4.16,0.768-5.772,2.304S22.465,28.84,22.465,32.433z"/>
<path fill="#C8691C" d="M46.076,44.01V20.139h3.241l12.538,18.742V20.139h3.029V44.01h-3.241L49.105,25.252V44.01H46.076z"/>
<path fill="#52CAF5" d="M164.649,32.761v-2.528c0-13.155-10.809-23.83-23.963-23.83h-30.113c-13.154,0-23.821,10.665-23.821,23.82
	v2.528L164.649,32.761z"/>
<path fill="#91D9F8" d="M159.153,32.601c0,9.456-7.668,17.12-17.123,17.12c-9.457,0-16.121-7.664-16.121-17.12
	c0-9.455,6.664-17.121,16.121-17.121C151.485,15.48,159.153,23.146,159.153,32.601z"/>
<path fill="#52CAF5" d="M159.153,32.601c0,9.456-7.668,17.12-17.123,17.12c-9.457,0-16.121-7.664-16.121-17.12
	C125.997,32.519,159.569,32.897,159.153,32.601z"/>
</svg>
