<?xml version="1.0" encoding="utf-8"?>
<!-- Generator: Adobe Illustrator 15.0.0, SVG Export Plug-In  -->
<!DOCTYPE svg PUBLIC "-//W3C//DTD SVG 1.1//EN" "http://www.w3.org/Graphics/SVG/1.1/DTD/svg11.dtd" [
	<!ENTITY ns_flows "http://ns.adobe.com/Flows/1.0/">
]>
<svg version="1.1"
	 xmlns="http://www.w3.org/2000/svg" x="0px" y="0px" width="48px" height="48px" viewBox="-3.476 -4.321 48 48">
<defs>
</defs>
<path d="M2.131,38.549c0,0,0.252,0.202,1.961-0.243c2.017-0.525,3.239-2.592,3.239-4.668V19.977h-3.71
	C1.042,19.977,0,22.065,0,24.642v9.996C0,36.28,0.851,37.717,2.131,38.549z"/>
<path d="M29.249,38.382c-1.987,0-3.601-1.61-3.601-3.601v-0.124H15.276v-1.094h10.373v-4.595H15.276v-1.095h10.373v-2.692
	c0-0.7,0.209-1.349,0.556-1.902H15.276v-1.096h11.986c0.57-0.379,1.252-0.602,1.987-0.602h5.917V0H9.332v34.638
	c0,2.076-1.364,4.062-3.239,4.668h21.552c0,0,2.983,0.382,4.972-0.924H29.249z M15.276,5.114H29.92v1.095H15.276V5.114z
	 M15.276,10.804H29.92v1.095H15.276V10.804z M15.276,16.495H29.92v1.095H15.276V16.495z"/>
<path d="M38.049,22.983h-8c-1.656,0-3,1.343-3,2.999v8c0,1.658,1.344,3,3,3h8c1.657,0,3-1.342,3-3v-8
	C41.049,24.326,39.706,22.983,38.049,22.983z M37.549,31.482h-2.5v2.5c0,0.69-0.561,1.25-1.25,1.25s-1.25-0.56-1.25-1.25v-2.5h-2.5
	c-0.689,0-1.25-0.56-1.25-1.25c0-0.689,0.561-1.25,1.25-1.25h2.5v-2.5c0-0.689,0.561-1.25,1.25-1.25s1.25,0.561,1.25,1.25v2.5h2.5
	c0.691,0,1.25,0.561,1.25,1.25C38.799,30.922,38.238,31.482,37.549,31.482z"/>
</svg>
