<?xml version="1.0" encoding="utf-8"?>
<!-- Generator: Adobe Illustrator 15.0.0, SVG Export Plug-In  -->
<!DOCTYPE svg PUBLIC "-//W3C//DTD SVG 1.1//EN" "http://www.w3.org/Graphics/SVG/1.1/DTD/svg11.dtd" [
	<!ENTITY ns_flows "http://ns.adobe.com/Flows/1.0/">
]>
<svg version="1.1"
	 xmlns="http://www.w3.org/2000/svg" x="0px" y="0px" width="48px" height="48px" viewBox="-2.118 -3.56 48 48">
<defs>
</defs>
<path d="M12.216,30.632l0.057-0.27l0.177-0.21l5.024-5.976h-1.607V23.04h2.564l4.011-4.771h-6.575v-1.137h7.532l4.014-4.774H15.866
	v-1.137h12.5l8.158-9.703V0H9.692v35.974c0,2.156-1.417,4.219-3.364,4.85h2.945L12.216,30.632z M15.866,5.311h15.209v1.137H15.866
	V5.311z"/>
<path d="M36.525,19.582l-7.846,9.369h2.396v1.138h-3.35l-3.996,4.772h7.346v1.135h-8.297l-1.381,1.65l-0.189,0.226l-0.274,0.102
	l-6.412,2.851h14.191c0,0,4.361,0.566,6.184-1.903c1.766-2.396,1.629-5.426,1.629-5.426V19.582z"/>
<path d="M2.132,39.884c0,0,0.252,0.202,1.961-0.243c2.017-0.525,3.239-2.592,3.239-4.668V21.312h-3.71C1.042,21.312,0,23.4,0,25.977
	v9.996C0,37.615,0.851,39.052,2.132,39.884z"/>
<polygon points="41.017,11.295 43.765,8.02 37.48,2.749 34.732,6.024 34.732,6.024 14.214,30.474 14.214,30.474 14.214,30.474 
	14.175,30.521 14.198,30.541 13.021,35.498 15.628,37.681 20.433,35.773 20.456,35.792 20.495,35.748 20.495,35.748 20.495,35.748 
	41.015,11.294 "/>
<polygon points="15.038,38.24 12.013,39.468 12.757,36.324 "/>
</svg>
