<?xml version="1.0" encoding="utf-8"?>
<svg version="1.1" xmlns="http://www.w3.org/2000/svg" x="0px" y="0px" width="48px" height="48px" viewBox="0 0 48 48">
<path d="M26.557,12.118c-9.189,0-16.64,7.32-16.64,16.349c0,9.029,7.45,16.35,16.64,16.35s16.639-7.319,16.639-16.35
	C43.195,19.438,35.746,12.118,26.557,12.118z M37.555,30.379c0,2.574-2.121,4.658-4.736,4.658h-0.856L24.75,40.1l0.625-5.063h-6.044
	c-2.617,0-4.738-2.084-4.738-4.658V23.35c0-2.571,2.121-4.655,4.738-4.655h13.487c2.617,0,4.738,2.084,4.736,4.655V30.379
	L37.555,30.379z"/>
<path d="M38.43,9.351c-8.176-8.361-21.508-8.2-29.783,0.36c-0.278,0.287-0.526,0.595-0.784,0.894L5.149,7.813l-0.633,9.474
	l9.585-0.265l-2.282-2.348c0.262-0.305,0.512-0.615,0.794-0.908c7.678-7.944,20.051-8.092,27.637-0.334
	c1.314,1.341,2.377,2.838,3.232,4.426C42.504,14.739,40.834,11.81,38.43,9.351z"/>
<g>
	<path d="M17.261,29.926v-5.727h1.125l2.344,3.825v-3.825h1.074v5.727h-1.16l-2.309-3.734v3.734H17.261z"/>
	<path d="M23.027,29.926v-5.727h4.246v0.969h-3.09v1.27h2.875v0.965h-2.875v1.559h3.199v0.965H23.027z"/>
	<path d="M29.176,29.926l-1.367-5.727h1.184l0.863,3.934l1.047-3.934h1.375l1.004,4l0.879-4h1.164l-1.391,5.727h-1.227l-1.141-4.281
		l-1.137,4.281H29.176z"/>
</g>
</svg>
