<?xml version="1.0" encoding="utf-8"?>
<svg version="1.1" xmlns="http://www.w3.org/2000/svg" x="0px" y="0px" width="32px" height="32px" viewBox="0 0 32 32">
<path d="M16,1.95C8.241,1.95,1.95,8.241,1.95,16c0,7.76,6.291,14.05,14.05,14.05c7.76,0,14.05-6.29,14.05-14.05
	C30.05,8.241,23.76,1.95,16,1.95z M22.264,22.13h-0.796l-6.699,4.785l1.729-4.785H9.736c-2.43,0-4.401-1.97-4.401-4.401v-6.646
	c0-2.43,1.97-4.4,4.401-4.4h12.526c2.434,0,4.402,1.97,4.401,4.401v6.646C26.664,20.159,24.695,22.13,22.264,22.13z"/>
<g>
	<path d="M7.261,17.926v-5.727h1.125l2.344,3.824v-3.824h1.074v5.727h-1.16l-2.309-3.735v3.735H7.261z"/>
	<path d="M13.027,17.926v-5.727h4.246v0.969h-3.09v1.27h2.875v0.965h-2.875v1.559h3.199v0.965H13.027z"/>
	<path d="M19.176,17.926l-1.367-5.727h1.184l0.863,3.934l1.047-3.934h1.375l1.004,4l0.879-4h1.164l-1.391,5.727h-1.227l-1.141-4.282
		l-1.137,4.282H19.176z"/>
</g>
</svg>
