<?xml version="1.0" encoding="utf-8"?>
<!DOCTYPE svg PUBLIC "-//W3C//DTD SVG 1.1//EN" "http://www.w3.org/Graphics/SVG/1.1/DTD/svg11.dtd" [
	<!ENTITY ns_flows "http://ns.adobe.com/Flows/1.0/">
]>
<svg version="1.1"
	 xmlns="http://www.w3.org/2000/svg" x="0px" y="0px" width="48px" height="48px" viewBox="-2.116 -2.116 48 48">
<defs>
</defs>
<path d="M32.242,19.044c-5.865-6.001-15.437-5.887-21.376,0.258c-0.199,0.206-0.378,0.427-0.563,0.641L8.354,17.94L7.9,24.738
	l6.88-0.19l-1.639-1.684c0.189-0.219,0.368-0.442,0.571-0.652c5.511-5.702,14.393-5.808,19.838-0.239
	c0.943,0.963,1.707,2.039,2.318,3.178C35.167,22.91,33.97,20.809,32.242,19.044z"/>
<path d="M21.884,0C9.798,0,0,9.798,0,21.884c0,12.087,9.798,21.884,21.884,21.884c12.086,0,21.885-9.797,21.885-21.884
	C43.769,9.798,33.97,0,21.884,0z M31.64,31.747H30.4L19.967,39.2l2.692-7.453H12.127c-3.784,0-6.855-3.067-6.855-6.857V14.537
	c0-3.785,3.069-6.854,6.855-6.854H31.64c3.789,0,6.855,3.069,6.855,6.855V24.89C38.496,28.679,35.429,31.747,31.64,31.747z"/>
</svg>
