<?xml version="1.0" encoding="utf-8"?>
<svg version="1.1" xmlns="http://www.w3.org/2000/svg" x="0px" y="0px" width="32px" height="32px" viewBox="0 0 32 32">
<path d="M16,1.95C8.241,1.95,1.95,8.241,1.95,16c0,7.76,6.291,14.05,14.05,14.05c7.76,0,14.05-6.29,14.05-14.05
	C30.05,8.241,23.76,1.95,16,1.95z M22.263,22.13h-0.795l-6.699,4.785l1.729-4.785H9.736c-2.43,0-4.401-1.97-4.401-4.401v-6.647
	c0-2.43,1.97-4.4,4.401-4.4h12.526c2.433,0,4.402,1.97,4.401,4.401v6.646C26.664,20.159,24.695,22.13,22.263,22.13z"/>
<polygon points="10.096,16.584 13.132,20.492 21.904,10.56 20.783,9.508 13.386,17.619 11.337,15.26 "/>
</svg>
