<?xml version="1.0" encoding="utf-8"?>
<!DOCTYPE svg PUBLIC "-//W3C//DTD SVG 1.1//EN" "http://www.w3.org/Graphics/SVG/1.1/DTD/svg11.dtd" [
	<!ENTITY ns_flows "http://ns.adobe.com/Flows/1.0/">
]>
<svg version="1.1"
	 xmlns="http://www.w3.org/2000/svg" x="0px" y="0px" width="32px" height="32px" viewBox="-1.95 -1.95 32 32">
<defs>
</defs>
<path d="M14.05,0C6.291,0,0,6.291,0,14.05C0,21.81,6.291,28.1,14.05,28.1c7.76,0,14.05-6.29,14.05-14.05C28.1,6.291,21.81,0,14.05,0
	z M20.313,20.382h-0.796l-6.698,4.785l1.729-4.785H7.786c-2.43,0-4.401-1.97-4.401-4.402V9.333c0-2.43,1.971-4.4,4.401-4.4h12.527
	c2.432,0,4.401,1.971,4.401,4.401v6.646C24.715,18.411,22.745,20.382,20.313,20.382z"/>
<path d="M14.05,5.824c-3.56,0-6.446,2.886-6.446,6.446s2.886,6.446,6.446,6.446c3.561,0,6.445-2.886,6.445-6.446
	S17.61,5.824,14.05,5.824z M19.206,12.27c0,1.189-0.406,2.28-1.082,3.153l-7.227-7.228c0.873-0.676,1.963-1.082,3.152-1.082
	C16.897,7.113,19.206,9.422,19.206,12.27z M8.893,12.27c0-1.188,0.406-2.28,1.082-3.152l7.227,7.227
	c-0.873,0.676-1.964,1.082-3.152,1.082C11.202,17.427,8.893,15.118,8.893,12.27z"/>
</svg>
