<?xml version="1.0" encoding="utf-8"?>
<!-- Generator: Adobe Illustrator 15.0.0, SVG Export Plug-In  -->
<!DOCTYPE svg PUBLIC "-//W3C//DTD SVG 1.1//EN" "http://www.w3.org/Graphics/SVG/1.1/DTD/svg11.dtd" [
	<!ENTITY ns_flows "http://ns.adobe.com/Flows/1.0/">
]>
<svg version="1.1"
	 xmlns="http://www.w3.org/2000/svg" x="0px" y="0px" width="48px" height="48px" viewBox="-2.116 -2.116 48 48">
<defs>
</defs>
<path d="M32.914,15.687C27.048,9.686,17.476,9.8,11.537,15.944c-0.199,0.206-0.378,0.427-0.563,0.641l-1.948-2.002l-0.454,6.798
	l6.88-0.19l-1.639-1.684c0.189-0.219,0.368-0.442,0.571-0.652c5.511-5.702,14.393-5.808,19.838-0.239
	c0.943,0.963,1.707,2.039,2.318,3.178C35.839,19.553,34.642,17.451,32.914,15.687z"/>
<path d="M21.884,0C9.798,0,0,9.798,0,21.884c0,12.087,9.798,21.884,21.884,21.884c12.086,0,21.885-9.797,21.885-21.884
	C43.769,9.798,33.97,0,21.884,0z M31.64,31.747H30.4L19.967,39.2l2.692-7.453H12.127c-3.784,0-6.855-3.067-6.855-6.857V14.537
	c0-3.785,3.069-6.854,6.855-6.854H31.64c3.789,0,6.855,3.069,6.855,6.855V24.89C38.496,28.679,35.429,31.747,31.64,31.747z"/>
<path d="M24.154,16.391c-3.56,0-6.445,2.886-6.445,6.446c0,3.56,2.885,6.445,6.445,6.445c3.561,0,6.445-2.886,6.445-6.445
	C30.599,19.276,27.714,16.391,24.154,16.391z M29.31,22.837c0,1.188-0.406,2.279-1.082,3.152l-7.226-7.228
	c0.873-0.676,1.962-1.082,3.152-1.082C27.001,17.68,29.31,19.988,29.31,22.837z M18.998,22.837c0-1.189,0.405-2.28,1.082-3.152
	l7.226,7.227c-0.873,0.676-1.963,1.082-3.152,1.082C21.307,27.993,18.998,25.685,18.998,22.837z"/>
</svg>
