<?xml version="1.0" encoding="utf-8"?>
<svg version="1.1"
	 xmlns="http://www.w3.org/2000/svg" x="0px" y="0px" width="32px" height="32px" viewBox="-0.953 -4.31 32 32">
<defs>
</defs>
<path d="M22.13,1.299C15.006-1.906,6.697,1.025,3.088,7.829L0,6.396l2.915,5.985L9.5,10.803L6.591,9.455
	c4.563-6.986,11.259-7.01,17.507-4.199c2.504,1.127,4.526,2.877,5.996,4.975C28.859,6.398,26.088,3.081,22.13,1.299z"/>
<path d="M22.13,12.3c-7.124-3.206-15.433-0.274-19.042,6.529L0,17.396l2.915,5.985L9.5,21.804l-2.909-1.349
	c4.563-6.986,11.259-7.011,17.507-4.199c2.504,1.127,4.526,2.877,5.996,4.976C28.859,17.399,26.088,14.081,22.13,12.3z"/>
</svg>
