<?xml version="1.0" encoding="utf-8"?>
<svg version="1.1"
	 xmlns="http://www.w3.org/2000/svg" x="0px" y="0px" width="48px" height="48px" viewBox="-3.121 -4.788 48 48">
<defs>
</defs>
<polygon points="8.577,9.737 11.328,9.737 9.938,5.995 "/>
<path d="M22.379,11.965c0.303-0.055,0.547-0.189,0.738-0.402c0.188-0.213,0.285-0.499,0.285-0.856c0-0.303-0.074-0.56-0.221-0.771
	s-0.357-0.364-0.637-0.46c-0.276-0.097-0.879-0.145-1.805-0.145h-1.643v2.696h1.885C21.715,12.027,22.181,12.006,22.379,11.965z"/>
<path d="M21.911,7.618c0.348-0.042,0.62-0.162,0.819-0.361c0.201-0.198,0.301-0.461,0.301-0.788c0-0.311-0.085-0.565-0.26-0.759
	c-0.17-0.195-0.426-0.313-0.765-0.355c-0.202-0.023-0.783-0.034-1.741-0.034h-1.168v2.331h1.334
	C21.224,7.652,21.717,7.641,21.911,7.618z"/>
<path d="M38.374,0H3.382C1.514,0,0,1.474,0,3.294v31.838c0,1.818,1.514,3.292,3.382,3.292h34.99c1.871,0,3.387-1.474,3.387-3.292
	l0,0V3.294C41.758,1.474,40.243,0,38.374,0z M21.092,3.643c0.797,0,1.393,0.034,1.786,0.1c0.394,0.066,0.744,0.205,1.053,0.417
	c0.311,0.211,0.566,0.492,0.773,0.842s0.311,0.743,0.311,1.179c0,0.473-0.129,0.906-0.383,1.3c-0.256,0.396-0.6,0.691-1.034,0.888
	c0.614,0.178,1.087,0.484,1.417,0.915c0.328,0.431,0.494,0.938,0.494,1.52c0,0.459-0.105,0.904-0.32,1.337
	c-0.211,0.434-0.502,0.781-0.874,1.039c-0.367,0.259-0.821,0.419-1.364,0.478c-0.34,0.037-1.158,0.06-2.455,0.069h-3.433V3.643
	H21.092z M7.118,13.726h-2.16L8.886,3.643h2.153l4.037,10.083h-2.214l-0.88-2.291H7.951L7.118,13.726z M35.469,27.743l-0.729,0.395
	c-0.078,0.305-0.244,0.569-0.514,0.716l-1.98,1.076c-0.273,0.148-0.592,0.151-0.895,0.045l-0.402,0.218
	c-0.277,0.151-0.641,0.016-0.813-0.299c-0.174-0.318-0.084-0.697,0.191-0.85l0.031-0.018l-2.119-3.901l-9.737,5.29
	c0.065,0.44-0.182,0.929-0.671,1.19l-6.657,3.617c-0.595,0.324-1.296,0.188-1.565-0.307l-0.484-0.895
	c-0.269-0.492-0.001-1.154,0.594-1.479l6.657-3.617c0.489-0.266,1.032-0.206,1.365,0.088l9.736-5.289l-2.08-3.829l-0.35,0.19
	c-0.277,0.149-0.643,0.019-0.813-0.301c-0.172-0.314-0.087-0.695,0.188-0.845l0.859-0.466c0.094-0.228,0.23-0.43,0.447-0.548
	l1.979-1.075c0.227-0.123,0.482-0.149,0.736-0.095l0.496-0.269c0.277-0.15,0.643-0.015,0.814,0.301
	c0.174,0.317,0.086,0.695-0.189,0.846l-0.027,0.014l2.104,3.869c0.432-0.119,0.855-0.018,1.025,0.297
	c0.172,0.314,0.025,0.725-0.311,1.021l2.145,3.943l0.342-0.186c0.277-0.149,0.643-0.014,0.813,0.303
	C35.831,27.212,35.745,27.589,35.469,27.743z M35.004,13.097c-0.703,0.534-1.596,0.8-2.68,0.8c-1.34,0-2.438-0.457-3.301-1.372
	c-0.863-0.916-1.293-2.165-1.293-3.751c0-1.679,0.434-2.982,1.299-3.911c0.867-0.929,2.01-1.393,3.42-1.393
	c1.232,0,2.234,0.364,3.006,1.094c0.457,0.43,0.803,1.049,1.029,1.856l-2.012,0.481c-0.121-0.522-0.369-0.935-0.746-1.238
	c-0.379-0.302-0.84-0.455-1.381-0.455c-0.748,0-1.354,0.269-1.82,0.806c-0.463,0.536-0.695,1.406-0.695,2.607
	c0,1.273,0.229,2.182,0.688,2.723c0.457,0.542,1.055,0.813,1.787,0.813c0.543,0,1.008-0.172,1.396-0.516
	c0.389-0.343,0.67-0.883,0.838-1.621l1.977,0.625C36.213,11.745,35.709,12.562,35.004,13.097z"/>
</svg>
