<?xml version="1.0" encoding="utf-8"?>
<!-- Generator: Adobe Illustrator 15.0.0, SVG Export Plug-In  -->
<!DOCTYPE svg PUBLIC "-//W3C//DTD SVG 1.1//EN" "http://www.w3.org/Graphics/SVG/1.1/DTD/svg11.dtd" [
	<!ENTITY ns_flows "http://ns.adobe.com/Flows/1.0/">
]>
<svg version="1.1"
	 xmlns="http://www.w3.org/2000/svg" xmlns:xlink="http://www.w3.org/1999/xlink" xmlns:a="http://ns.adobe.com/AdobeSVGViewerExtensions/3.0/"
	 x="0px" y="0px" width="48px" height="48px" viewBox="-2.783 0 48 48"
	 xml:space="preserve">
<defs>
</defs>
<path d="M35.607,20.777c-0.402,0-0.741,0.161-1.015,0.481c-0.272,0.322-0.409,0.802-0.409,1.439c0,0.686,0.096,1.183,0.285,1.49
	c0.274,0.443,0.658,0.666,1.15,0.666c0.393,0,0.727-0.167,1-0.5s0.41-0.83,0.41-1.493c0-0.739-0.133-1.271-0.397-1.596
	C36.365,20.939,36.023,20.777,35.607,20.777z"/>
<path d="M7.432,26.871c-0.222,0.158-0.333,0.358-0.333,0.602c0,0.236,0.089,0.443,0.267,0.617c0.177,0.172,0.403,0.261,0.678,0.261
	c0.307,0,0.6-0.103,0.878-0.304c0.206-0.152,0.341-0.342,0.405-0.563c0.045-0.146,0.067-0.422,0.067-0.829v-0.341
	c-0.218,0.072-0.564,0.159-1.036,0.26C7.885,26.678,7.577,26.774,7.432,26.871z"/>
<path d="M15.982,29.271c-0.408,0-0.747,0.158-1.018,0.475c-0.27,0.316-0.405,0.797-0.405,1.444c0,0.666,0.105,1.159,0.315,1.479
	c0.294,0.451,0.686,0.678,1.175,0.678c0.375,0,0.695-0.161,0.959-0.481c0.265-0.319,0.397-0.827,0.397-1.519
	c0-0.733-0.133-1.264-0.4-1.59C16.739,29.434,16.398,29.271,15.982,29.271z"/>
<path d="M0,18.075v20.816h24.18V18.075H0z M9.751,29.403c-0.045-0.11-0.099-0.28-0.164-0.502c-0.028-0.103-0.048-0.168-0.061-0.199
	c-0.291,0.282-0.602,0.494-0.933,0.636c-0.331,0.142-0.685,0.213-1.06,0.213c-0.662,0-1.184-0.18-1.565-0.541
	c-0.381-0.357-0.572-0.813-0.572-1.361c0-0.363,0.087-0.688,0.26-0.973c0.174-0.284,0.417-0.502,0.73-0.653s0.764-0.283,1.354-0.397
	c0.795-0.147,1.347-0.287,1.654-0.416v-0.17c0-0.328-0.081-0.561-0.243-0.7S8.685,24.13,8.237,24.13c-0.303,0-0.54,0.06-0.709,0.179
	c-0.169,0.116-0.306,0.325-0.411,0.624l-1.545-0.278c0.174-0.623,0.473-1.083,0.896-1.381c0.424-0.299,1.054-0.448,1.89-0.448
	c0.759,0,1.324,0.09,1.696,0.27c0.372,0.18,0.633,0.408,0.785,0.685c0.151,0.276,0.227,0.784,0.227,1.523l-0.018,1.986
	c0,0.565,0.027,0.982,0.082,1.252c0.055,0.268,0.156,0.555,0.306,0.86H9.751z M18.367,33.8c-0.523,0.595-1.158,0.892-1.905,0.892
	c-0.367,0-0.729-0.093-1.087-0.276c-0.357-0.183-0.666-0.455-0.923-0.813v0.944H12.87v-0.002v-8.878h1.702v3.198
	c0.525-0.598,1.147-0.896,1.865-0.896c0.783,0,1.432,0.283,1.944,0.851c0.512,0.567,0.77,1.381,0.77,2.442
	C19.151,32.361,18.889,33.207,18.367,33.8z"/>
<path d="M18.254,9.108v6.935h8.333v0.709c0.138-0.49,0.355-0.913,0.677-1.25c0.561-0.591,1.318-0.887,2.275-0.887
	c0.783,0,1.406,0.168,1.868,0.506c0.462,0.337,0.795,0.851,0.995,1.542l-1.676,0.303c-0.058-0.336-0.185-0.588-0.385-0.758
	c-0.201-0.17-0.46-0.254-0.779-0.254c-0.424,0-0.762,0.146-1.015,0.438c-0.252,0.293-0.378,0.783-0.378,1.469
	c0,0.763,0.128,1.302,0.385,1.617c0.256,0.314,0.6,0.472,1.032,0.472c0.322,0,0.588-0.091,0.793-0.275s0.353-0.5,0.437-0.948
	l1.672,0.285c-0.174,0.767-0.506,1.347-1,1.738c-0.491,0.392-1.152,0.588-1.979,0.588c-0.94,0-1.69-0.297-2.25-0.891
	c-0.318-0.337-0.535-0.757-0.672-1.242v10.719h15.847V9.108H18.254z M38.727,26.055h-1.58v-0.946
	c-0.263,0.368-0.572,0.642-0.93,0.822c-0.357,0.178-0.717,0.267-1.082,0.267c-0.738,0-1.371-0.296-1.898-0.893
	c-0.525-0.596-0.791-1.426-0.791-2.492c0-1.09,0.258-1.919,0.771-2.486c0.515-0.567,1.161-0.851,1.944-0.851
	c0.718,0,1.34,0.299,1.865,0.896v-3.197h1.701V26.055z"/>
</svg>
