<?xml version="1.0" encoding="utf-8"?>
<!-- Generator: Adobe Illustrator 15.0.0, SVG Export Plug-In  -->
<!DOCTYPE svg PUBLIC "-//W3C//DTD SVG 1.1//EN" "http://www.w3.org/Graphics/SVG/1.1/DTD/svg11.dtd" [
	<!ENTITY ns_flows "http://ns.adobe.com/Flows/1.0/">
]>
<svg version="1.1"
	 xmlns="http://www.w3.org/2000/svg" xmlns:xlink="http://www.w3.org/1999/xlink" xmlns:a="http://ns.adobe.com/AdobeSVGViewerExtensions/3.0/"
	 x="0px" y="0px" width="48px" height="48px" viewBox="-4.5 -6.05 48 48"
	 xml:space="preserve">
<defs>
</defs>
<polygon points="6.866,8.648 9.024,8.648 7.934,5.713 "/>
<path d="M9.506,19.023c-0.218-0.076-0.69-0.113-1.417-0.113H6.8v2.115h1.479c0.575,0,0.94-0.017,1.095-0.049
	c0.238-0.043,0.431-0.148,0.58-0.315c0.149-0.167,0.224-0.392,0.224-0.672c0-0.237-0.058-0.438-0.173-0.604
	C9.89,19.22,9.724,19.099,9.506,19.023z"/>
<path d="M9.007,17.566c0.273-0.032,0.488-0.127,0.645-0.283c0.157-0.157,0.235-0.362,0.235-0.618c0-0.245-0.067-0.443-0.202-0.597
	c-0.135-0.152-0.335-0.245-0.602-0.277c-0.158-0.019-0.613-0.027-1.365-0.027H6.8v1.829h1.047
	C8.469,17.593,8.856,17.584,9.007,17.566z"/>
<path d="M35.9,0H3.2C1.4,0,0,1.4,0,3.1v29.7C0,34.5,1.5,35.9,3.2,35.9h32.6c1.8,0,3.2-1.4,3.2-3.101V3.1C39,1.4,37.6,0,35.9,0z
	 M10.182,32.108c-0.552,0.42-1.253,0.629-2.102,0.629c-1.051,0-1.914-0.358-2.59-1.076s-1.015-1.699-1.015-2.944
	c0-1.316,0.34-2.339,1.02-3.067s1.574-1.093,2.682-1.093c0.968,0,1.754,0.285,2.358,0.857c0.36,0.339,0.629,0.824,0.81,1.457
	l-1.582,0.378c-0.093-0.41-0.289-0.733-0.585-0.972c-0.297-0.237-0.658-0.355-1.082-0.355c-0.586,0-1.062,0.21-1.427,0.631
	s-0.548,1.103-0.548,2.046c0,1,0.18,1.712,0.54,2.137s0.828,0.637,1.403,0.637c0.424,0,0.79-0.135,1.095-0.404
	c0.306-0.271,0.525-0.694,0.659-1.274l1.549,0.491C11.129,31.048,10.734,31.689,10.182,32.108z M11.579,21.114
	c-0.167,0.34-0.396,0.612-0.686,0.815c-0.29,0.203-0.646,0.328-1.071,0.375c-0.267,0.028-0.909,0.047-1.927,0.054H5.203v-7.911
	h3.162c0.626,0,1.093,0.025,1.401,0.078c0.308,0.052,0.583,0.161,0.826,0.326c0.243,0.166,0.445,0.386,0.607,0.661
	s0.243,0.584,0.243,0.926c0,0.37-0.1,0.71-0.299,1.02S10.671,18,10.33,18.154c0.482,0.141,0.853,0.38,1.111,0.718
	c0.259,0.338,0.389,0.736,0.389,1.192C11.83,20.425,11.746,20.774,11.579,21.114z M10.228,11.778L9.537,9.981H6.375l-0.653,1.797
	H4.027l3.082-7.911h1.689l3.168,7.911H10.228z M34.6,29.9H15.5V26.1h19.1V29.9z M34.6,19.899H15.5V16.1h19.1V19.899z M34.6,10H15.5
	V6.2h19.1V10z"/>
</svg>
