<?xml version="1.0" encoding="utf-8"?>
<!-- Generator: Adobe Illustrator 15.0.0, SVG Export Plug-In  -->
<!DOCTYPE svg PUBLIC "-//W3C//DTD SVG 1.1//EN" "http://www.w3.org/Graphics/SVG/1.1/DTD/svg11.dtd" [
	<!ENTITY ns_flows "http://ns.adobe.com/Flows/1.0/">
]>
<svg version="1.1"
	 xmlns="http://www.w3.org/2000/svg" x="0px" y="0px" width="48px" height="48px" viewBox="-4.409 -4.176 48 48">
<defs>
</defs>
<path d="M29.707,0.622c-0.044,0-0.087,0.006-0.131,0.007V0.628c-0.02,0-0.038,0.003-0.057,0.003
	c-0.303,0.006-0.602,0.023-0.896,0.057c-0.011,0.001-0.021,0.004-0.032,0.005c-0.304,0.036-0.604,0.084-0.899,0.148
	c-0.003,0.001-0.006,0.002-0.01,0.002c-0.605,0.132-1.189,0.321-1.746,0.563c-0.001,0-0.002,0.001-0.003,0.001
	c-0.278,0.121-0.55,0.254-0.813,0.401c-0.007,0.003-0.013,0.007-0.019,0.011c-0.258,0.144-0.509,0.298-0.751,0.464
	c-0.014,0.01-0.026,0.021-0.041,0.031c-0.232,0.162-0.458,0.331-0.675,0.512c-0.03,0.025-0.058,0.054-0.087,0.08
	c-0.197,0.169-0.391,0.343-0.573,0.528c-0.047,0.047-0.089,0.099-0.135,0.147c-0.16,0.169-0.319,0.339-0.467,0.52
	c-0.063,0.078-0.12,0.162-0.181,0.242c-0.121,0.158-0.244,0.314-0.355,0.479c-0.082,0.124-0.154,0.255-0.232,0.382
	c-0.078,0.13-0.162,0.257-0.234,0.391c-0.1,0.185-0.187,0.377-0.273,0.568c-0.039,0.084-0.084,0.166-0.121,0.251
	c-0.112,0.267-0.211,0.541-0.299,0.819c-0.006,0.015-0.012,0.029-0.016,0.043c-0.277,0.89-0.428,1.836-0.428,2.817
	c0,2.486,0.967,4.742,2.533,6.433l0.951,7.884l0.002-0.001l0,0l4.52-4.405l0.499-0.486c0.275,0.027,0.557,0.037,0.838,0.043v-0.002
	c0.044,0,0.087,0.006,0.131,0.006c5.232,0,9.475-4.243,9.475-9.473C39.182,4.862,34.939,0.622,29.707,0.622z M29.924,17.399
	c-4.035,0-7.307-3.271-7.307-7.307c0-4.036,3.271-7.308,7.307-7.308c4.036,0,7.309,3.272,7.309,7.308
	C37.232,14.127,33.96,17.399,29.924,17.399z"/>
<path d="M28.288,12.024l-0.017-0.417c-0.047-0.82,0.226-1.656,0.949-2.509c0.514-0.627,0.932-1.156,0.932-1.687
	c0-0.563-0.369-0.949-1.174-0.965c-0.529,0-1.174,0.192-1.59,0.481L26.84,5.176c0.596-0.338,1.545-0.659,2.686-0.659
	c2.123,0,3.104,1.174,3.104,2.508c0,1.221-0.771,2.024-1.383,2.699c-0.579,0.66-0.836,1.287-0.82,2.01v0.289L28.288,12.024
	L28.288,12.024z M27.87,14.26c0-0.869,0.595-1.464,1.432-1.464c0.867,0,1.431,0.595,1.446,1.464c0,0.835-0.563,1.462-1.446,1.462
	C28.449,15.722,27.87,15.095,27.87,14.26z"/>
<path d="M29.961,22.346c-0.057,0-0.111-0.008-0.168-0.01v0.004c-0.359-0.008-0.719-0.02-1.069-0.055l-0.638,0.621l-5.771,5.625
	v-0.002l-0.002,0.002l-0.984-8.172H7.521v-2.742h12.862c0,0,0.001,0,0.001,0.001c-0.965-1.25-1.683-2.696-2.103-4.264
	c0,0.001,0,0.003,0.001,0.005H7.521v-2.742h10.361c0,0.001,0,0.002,0,0.003c-0.003-0.124-0.018-0.244-0.018-0.368
	c0-1.253,0.192-2.46,0.546-3.597c0.006-0.019,0.014-0.037,0.02-0.056c0.113-0.355,0.239-0.705,0.383-1.046
	c0.046-0.109,0.104-0.213,0.153-0.32c0.112-0.245,0.222-0.49,0.349-0.727c0.093-0.17,0.201-0.332,0.301-0.499
	c0.098-0.163,0.19-0.33,0.297-0.488c0.142-0.211,0.299-0.411,0.453-0.612c0.078-0.103,0.149-0.209,0.23-0.309
	c0.189-0.23,0.392-0.448,0.596-0.664c0.059-0.062,0.113-0.127,0.172-0.188c0.178-0.179,0.367-0.345,0.557-0.511
	C20.035,0.44,17.962,0,15.787,0C7.068,0,0,7.068,0,15.787c0,8.721,7.068,15.789,15.787,15.789c0.545,0,1.084-0.027,1.613-0.082
	l8.368,8.154l1.586-13.139c1.137-1.225,2.068-2.637,2.775-4.173C30.072,22.338,30.018,22.346,29.961,22.346z"/>
<path d="M18.013,12.053c-0.004-0.027-0.008-0.054-0.012-0.081C18.005,12,18.009,12.026,18.013,12.053z"/>
</svg>
