<?xml version="1.0" encoding="utf-8"?>
<svg version="1.1"
	 xmlns="http://www.w3.org/2000/svg" xmlns:xlink="http://www.w3.org/1999/xlink"
	 x="0px" y="0px" width="48px" height="48px" viewBox="-4.41 -4.176 48 48">
<defs>
</defs>
<path fill="#C8691C" d="M27.354,26.51c2.612-2.816,4.222-6.577,4.222-10.723C31.575,7.068,24.506,0,15.787,0
	C7.068,0,0,7.068,0,15.787c0,8.721,7.068,15.789,15.787,15.789c0.545,0,1.084-0.027,1.613-0.082l8.368,8.154L27.354,26.51z"/>
<path fill="#F79523" d="M14.962,0.042C6.63,0.474,0,7.347,0,15.788c0,8.44,6.63,15.315,14.962,15.747V0.042z"/>
<path fill="#3588A6" d="M22.767,16.528c-1.567-1.69-2.532-3.946-2.532-6.433c0-5.232,4.241-9.473,9.472-9.473
	c5.232,0,9.474,4.24,9.474,9.473c0,5.23-4.241,9.473-9.474,9.473c-0.327,0-0.649-0.017-0.967-0.049l-5.021,4.893L22.767,16.528z"/>
<circle fill="#E6E7E8" cx="15.847" cy="15.468" r="12.8"/>
<rect x="7.521" y="10.617" fill="#52CAF5" width="17.553" height="2.742"/>
<rect x="7.521" y="17.617" fill="#52CAF5" width="17.553" height="2.742"/>
<rect x="15.201" y="10.617" fill="#3588A6" width="9.874" height="2.742"/>
<rect x="15.201" y="17.617" fill="#3588A6" width="9.874" height="2.742"/>
<path fill="#52CAF5" d="M29.576,0.628c-5.17,0.07-9.343,4.28-9.343,9.468c0,2.486,0.967,4.742,2.534,6.433l0.951,7.884l5.021-4.892
	c0.274,0.027,0.556,0.037,0.837,0.043V0.628z"/>
<path fill="#43A4C7" d="M37.232,10.092c0,4.035-3.272,7.307-7.308,7.307c-4.036,0-7.307-3.271-7.307-7.307
	c0-4.036,3.271-7.308,7.307-7.308C33.96,2.784,37.232,6.056,37.232,10.092"/>
<path fill="#84D5F7" d="M29.576,2.802c-3.871,0.183-6.958,3.37-6.958,7.29c0,3.918,3.087,7.107,6.958,7.29V2.802z"/>
<path fill="#FFFFFF" d="M28.288,12.024l-0.016-0.417c-0.048-0.82,0.225-1.656,0.948-2.509c0.515-0.627,0.932-1.156,0.932-1.687
	c0-0.563-0.369-0.949-1.173-0.965c-0.53,0-1.174,0.192-1.591,0.481l-0.548-1.751c0.596-0.338,1.545-0.659,2.685-0.659
	c2.123,0,3.104,1.174,3.104,2.508c0,1.221-0.772,2.024-1.383,2.699c-0.579,0.66-0.836,1.287-0.82,2.01v0.289H28.288z M27.87,14.26
	c0-0.869,0.595-1.464,1.432-1.464c0.867,0,1.431,0.595,1.446,1.464c0,0.835-0.563,1.462-1.446,1.462
	C28.449,15.722,27.87,15.095,27.87,14.26z"/>
</svg>
