<?xml version="1.0" encoding="utf-8"?>
<svg version="1.1"
	 xmlns="http://www.w3.org/2000/svg" xmlns:xlink="http://www.w3.org/1999/xlink"
	 x="0px" y="0px" width="48px" height="48px" viewBox="-5.477 -2.979 48 48">
<defs>
</defs>
<rect x="17.306" y="5.141" transform="matrix(1 0.0092 -0.0092 1 0.0564 -0.2246)" fill="#52CAF5" width="14.13" height="1.713"/>
<rect x="17.27" y="9.114" transform="matrix(1 0.0092 -0.0092 1 0.093 -0.2241)" fill="#52CAF5" width="14.13" height="1.713"/>
<rect x="17.233" y="13.057" transform="matrix(1 0.0092 -0.0092 1 0.1292 -0.192)" fill="#52CAF5" width="7.306" height="1.712"/>
<rect x="24.518" y="5.175" transform="matrix(1 0.0092 -0.0092 1 0.057 -0.2584)" fill="#3588A6" width="6.917" height="1.713"/>
<rect x="24.481" y="9.148" transform="matrix(1 0.0092 -0.0092 1 0.0937 -0.2579)" fill="#3588A6" width="6.918" height="1.713"/>
<rect x="24.445" y="13.106" transform="matrix(1 0.0093 -0.0093 1 0.1308 -0.2431)" fill="#3588A6" width="3.574" height="1.712"/>
<path fill="#52CAF5" d="M34.531,3.005c0.002,0.04,0.01,0.075,0.009,0.115l-0.123,13.397c-0.01,1.012-0.681,1.826-1.499,1.818
	l-8.105-0.075l-4.538,5.336l-0.861-5.321l-2.03,2.54l1.567,7.549l7.306-7.827l8.772,0.081c1.015,0.009,1.846-0.997,1.856-2.251
	l0.162-17.497c0.003-0.302-0.045-0.589-0.129-0.853L34.531,3.005z"/>
<path fill="#52CAF5" d="M19.445,18.437l-5.284-0.049c-0.816-0.007-1.473-0.834-1.463-1.846l0.124-13.397
	c0-0.04,0.008-0.077,0.009-0.114L10.498,0c-0.086,0.263-0.14,0.549-0.143,0.851l-0.161,17.496c-0.012,1.254,0.8,2.275,1.816,2.284
	l7.414,0.068L19.445,18.437z"/>
<path fill="#3588A6" d="M36.918,0.019l-2.387,2.986c0.002,0.04,0.01,0.075,0.009,0.115l-0.123,13.397
	c-0.01,1.012-0.681,1.826-1.499,1.818l-8.105-0.075L24.4,18.746l-0.035,3.818l1.891-2.026l8.772,0.081
	c1.015,0.009,1.846-0.997,1.856-2.251l0.162-17.497C37.05,0.569,37.002,0.283,36.918,0.019z"/>
<path fill="#C8691C" d="M18.561,34.285c0.027,0.087,0.045,0.171,0.045,0.259c-0.012,1.239-2.977,2.218-6.625,2.185
	c-3.646-0.034-6.595-1.067-6.583-2.306c0-0.088,0.02-0.172,0.051-0.259C2.57,36.002,0.517,39.027,0,42.561l23.852,0.22
	C23.398,39.238,21.403,36.176,18.561,34.285z"/>
<ellipse transform="matrix(1 0.0092 -0.0092 1 0.2596 -0.1098)" fill="#C8691C" cx="12.06" cy="28.164" rx="5.731" ry="6.026"/>
<path fill="#F79523" d="M10.235,36.628c-2.795-0.286-4.848-1.175-4.838-2.206c0-0.088,0.02-0.172,0.051-0.259
	C2.57,36.002,0.517,39.027,0,42.561l13.8,0.127L10.235,36.628z"/>
</svg>
