<?xml version="1.0" encoding="utf-8"?>
<!DOCTYPE svg PUBLIC "-//W3C//DTD SVG 1.1//EN" "http://www.w3.org/Graphics/SVG/1.1/DTD/svg11.dtd" [
	<!ENTITY ns_flows "http://ns.adobe.com/Flows/1.0/">
]>
<svg version="1.1"
	 xmlns="http://www.w3.org/2000/svg" xmlns:xlink="http://www.w3.org/1999/xlink" x="0px" y="0px" width="48px" height="48px" viewBox="-4.028 -3.101 48 48">
<defs>
</defs>
<path d="M14.13,1.374c0,0.758-0.615,1.374-1.374,1.374H6.929c-0.759,0-1.374-0.615-1.374-1.374l0,0C5.555,0.615,6.169,0,6.929,0
	h5.828C13.516,0,14.13,0.615,14.13,1.374L14.13,1.374z"/>
<path d="M34.131,1.374c0,0.758-0.615,1.374-1.374,1.374h-5.828c-0.759,0-1.374-0.615-1.374-1.374l0,0C25.555,0.615,26.17,0,26.929,0
	h5.828C33.516,0,34.131,0.615,34.131,1.374L34.131,1.374z"/>
<path d="M39.943,1.083h-4.818c0.076,0.197,0.121,0.41,0.121,0.635c0,0.947-0.783,1.818-1.717,1.818h-7.164
	c-0.934,0-1.661-0.87-1.661-1.818c0-0.225,0.046-0.438,0.122-0.635h-4.883H19h-3.875c0.077,0.197,0.122,0.41,0.122,0.635
	c0,0.947-0.784,1.818-1.717,1.818H6.365c-0.933,0-1.661-0.87-1.661-1.818c0-0.225,0.045-0.438,0.122-0.635H0v23.73h6.965v16.984
	h3.981V24.813H19h0.943h10.021v16.984h3.98V24.813h5.998V1.083z M16.341,18.828H3.603v-0.999h12.739V18.828z M16.341,14.828H3.603
	v-0.999h12.739V14.828z M16.341,10.828H3.603V9.829h12.739V10.828z M16.341,6.828H3.603V5.829h12.739V6.828z M36.342,18.828H23.603
	v-0.999h12.739V18.828z M36.342,14.828H23.603v-0.999h12.739V14.828z M36.342,10.828H23.603V9.829h12.739V10.828z M36.342,6.828
	H23.603V5.829h12.739V6.828z"/>
</svg>
