<?xml version="1.0" encoding="utf-8"?>
<!-- Generator: Adobe Illustrator 15.0.0, SVG Export Plug-In  -->
<!DOCTYPE svg PUBLIC "-//W3C//DTD SVG 1.1//EN" "http://www.w3.org/Graphics/SVG/1.1/DTD/svg11.dtd" [
	<!ENTITY ns_flows "http://ns.adobe.com/Flows/1.0/">
]>
<svg version="1.1"
	 xmlns="http://www.w3.org/2000/svg" xmlns:xlink="http://www.w3.org/1999/xlink" xmlns:a="http://ns.adobe.com/AdobeSVGViewerExtensions/3.0/"
	 x="0px" y="0px" width="48px" height="48px" viewBox="-3.4 -2.6 48 48" enable-background="new -3.4 -2.6 48 48"
	 xml:space="preserve">
<defs>
</defs>
<rect y="17.4" fill="#52CAF5" width="19.2" height="24.4"/>
<rect x="4.6" y="22.9" fill="#E6E7E8" width="10.3" height="1.6"/>
<rect x="4.6" y="28.3" fill="#E6E7E8" width="10.3" height="1.6"/>
<rect x="4.6" y="33.7" fill="#E6E7E8" width="10.3" height="1.6"/>
<rect x="29.7" y="22" fill="#3588A6" width="3.9" height="2.4"/>
<rect x="29.7" fill="#3588A6" width="3.9" height="2.4"/>
<rect x="22.5" y="13.5" fill="#3588A6" width="1.9" height="2.8"/>
<polygon fill="#3588A6" points="24.4,18.9 22.5,18.9 22.5,24.4 27.1,24.4 27.1,22 24.4,22 "/>
<rect x="39.7" y="13.5" fill="#3588A6" width="1.9" height="2.8"/>
<polygon fill="#3588A6" points="39.7,5.5 41.6,5.5 41.6,0 36.2,0 36.2,2.4 39.7,2.4 "/>
<rect x="39.7" y="8.1" fill="#3588A6" width="1.9" height="2.8"/>
<rect x="22.5" y="8.1" fill="#3588A6" width="1.9" height="2.8"/>
<polygon fill="#3588A6" points="24.4,5.5 24.4,2.4 27.1,2.4 27.1,0 22.5,0 22.5,5.5 "/>
<polygon fill="#3588A6" points="39.7,18.9 39.7,22 36.2,22 36.2,24.4 41.6,24.4 41.6,18.9 "/>
<path fill="#C8691C" d="M37,17.8l0.3,0.6L35,19.6c0.7,0.7,1.3,1.5,1.8,2.4c2.8,5.2,0.9,11.7-4.3,14.6c-5.2,2.8-11.7,0.9-14.6-4.3
	c-0.5-0.9-0.8-1.8-1-2.8l-2.4,1.3c0.3,0.9,0.6,1.9,1.1,2.7c3.5,6.5,11.7,8.9,18.2,5.4c6.5-3.5,8.9-11.7,5.4-18.2
	C38.6,19.6,37.8,18.6,37,17.8z"/>
<polygon fill="#C8691C" points="31.7,22.1 33.6,15.1 41.3,16.7 "/>
</svg>
