<?xml version="1.0" encoding="utf-8"?>
<!-- Generator: Adobe Illustrator 15.0.0, SVG Export Plug-In  -->
<!DOCTYPE svg PUBLIC "-//W3C//DTD SVG 1.1//EN" "http://www.w3.org/Graphics/SVG/1.1/DTD/svg11.dtd" [
	<!ENTITY ns_flows "http://ns.adobe.com/Flows/1.0/">
]>
<svg version="1.1"
	 xmlns="http://www.w3.org/2000/svg" xmlns:xlink="http://www.w3.org/1999/xlink" xmlns:a="http://ns.adobe.com/AdobeSVGViewerExtensions/3.0/"
	 x="0px" y="0px" width="48px" height="48px" viewBox="-7.7 -4.4 48 48" enable-background="new -7.7 -4.4 48 48"
	 xml:space="preserve">
<defs>
</defs>
<polygon fill="#C8691C" points="30.2,2.4 17.5,2.3 17.5,0 32.6,0 32.6,15.1 30.2,15.1 "/>
<polygon fill="#C8691C" points="2.4,36.4 15.1,36.4 15.1,38.8 0,38.7 0,23.6 2.4,23.6 "/>
<rect x="7.7" y="7.7" fill="#52CAF5" width="18.1" height="23.1"/>
<polygon fill="#3588A6" points="25.8,30.8 32,24.4 25.8,24.4 "/>
<rect x="25.8" y="22" fill="#003D4E" width="6.2" height="2.5"/>
<rect x="12" y="12.9" fill="#E6E7E8" width="9.7" height="1.5"/>
<rect x="12" y="18" fill="#E6E7E8" width="9.7" height="1.5"/>
<rect x="12" y="23.2" fill="#E6E7E8" width="9.7" height="1.5"/>
<path fill="#F79523" d="M13,4.1c0-0.7-0.5-1.3-1.1-1.3h-1.4V2.1c0-0.7-0.6-1.3-1.3-1.3H5.3C4.5,0.8,4,1.3,4,2.1v0.7H2.6
	C2,2.8,1.5,3.4,1.5,4.1c0,0.5,0.2,0.9,0.5,1.1v11.2c0,0.7,0.5,1.2,1.2,1.3v0.7h8v-0.7c0.7,0,1.2-0.6,1.2-1.3V5.3
	C12.7,5,13,4.6,13,4.1z M4.6,2.6c0-0.6,0-1,0.6-1h4c0.6,0,0.6,0.5,0.6,1v0.2H4.6V2.6z"/>
<path fill="#C8691C" d="M11.8,2.8h-1.4V2.1c0-0.7-0.6-1.3-1.3-1.3H5.3C4.5,0.8,4,1.3,4,2.1v0.7H3.5l7,15.6h0.7v-0.7
	c0.7,0,1.2-0.6,1.2-1.3V5.3C12.7,5,13,4.6,13,4.1C13,3.4,12.5,2.8,11.8,2.8z M9.8,2.8H4.6V2.6c0-0.6,0-1,0.6-1h4
	c0.6,0,0.6,0.5,0.6,1V2.8z"/>
<path fill="#FFFFFF" d="M8.1,15.1c0,0.4-0.4,0.8-0.9,0.8l0,0c-0.5,0-0.9-0.4-0.9-0.8V7.7c0-0.4,0.4-0.8,0.9-0.8l0,0
	c0.5,0,0.9,0.4,0.9,0.8V15.1z"/>
<path fill="#FFFFFF" d="M5,15.1c0,0.4-0.4,0.8-0.9,0.8l0,0c-0.5,0-0.9-0.4-0.9-0.8V7.7c0-0.4,0.4-0.8,0.9-0.8l0,0
	C4.7,6.9,5,7.2,5,7.7V15.1z"/>
<path fill="#FFFFFF" d="M11.1,15.1c0,0.4-0.4,0.8-0.9,0.8l0,0c-0.5,0-0.9-0.4-0.9-0.8V7.7c0-0.4,0.4-0.8,0.9-0.8l0,0
	c0.5,0,0.9,0.4,0.9,0.8V15.1z"/>
</svg>
