<?xml version="1.0" encoding="utf-8"?>
<svg version="1.1"
	 xmlns="http://www.w3.org/2000/svg" xmlns:xlink="http://www.w3.org/1999/xlink"
	 x="0px" y="0px" width="48px" height="48px" viewBox="-2.972 -2.785 48 48">
<defs>
</defs>
<polygon fill="#F79523" points="30.422,42.117 10.617,42.117 0,32.568 0,1.573 30.422,1.573 "/>
<polygon fill="#C8691C" points="10.844,33.194 0,32.568 10.844,42.196 "/>
<path fill="#C8691C" d="M6.808,5.546c0,0.765-0.619,1.384-1.384,1.384C4.66,6.93,4.04,6.311,4.04,5.546
	c0-0.765,0.62-1.384,1.383-1.384C6.188,4.162,6.808,4.781,6.808,5.546"/>
<path fill="#852D05" d="M6.254,5.546c0,0.458-0.372,0.831-0.831,0.831c-0.458,0-0.83-0.373-0.83-0.831c0-0.459,0.372-0.83,0.83-0.83
	C5.882,4.716,6.254,5.086,6.254,5.546"/>
<path fill="#C8691C" d="M13.896,5.546c0,0.765-0.62,1.384-1.385,1.384c-0.763,0-1.383-0.619-1.383-1.384
	c0-0.765,0.62-1.384,1.383-1.384C13.275,4.162,13.896,4.781,13.896,5.546"/>
<path fill="#852D05" d="M13.342,5.546c0,0.458-0.372,0.831-0.831,0.831c-0.458,0-0.831-0.373-0.831-0.831
	c0-0.459,0.372-0.83,0.831-0.83C12.97,4.716,13.342,5.086,13.342,5.546"/>
<path fill="#3588A6" d="M5.912,5.209c0,0.246-0.219,0.442-0.488,0.442c-0.269,0-0.487-0.196-0.487-0.442V0.441
	C4.936,0.198,5.154,0,5.423,0c0.27,0,0.488,0.198,0.488,0.441V5.209z"/>
<path fill="#3588A6" d="M12.999,5.209c0,0.246-0.218,0.442-0.488,0.442c-0.27,0-0.487-0.196-0.487-0.442V0.441
	C12.023,0.198,12.241,0,12.511,0c0.27,0,0.488,0.198,0.488,0.441V5.209z"/>
<path fill="#C8691C" d="M20.895,5.546c0,0.765-0.618,1.384-1.383,1.384c-0.764,0-1.384-0.619-1.384-1.384
	c0-0.765,0.62-1.384,1.384-1.384C20.276,4.162,20.895,4.781,20.895,5.546"/>
<path fill="#852D05" d="M20.342,5.546c0,0.458-0.372,0.831-0.83,0.831c-0.459,0-0.832-0.373-0.832-0.831
	c0-0.459,0.373-0.83,0.832-0.83C19.97,4.716,20.342,5.086,20.342,5.546"/>
<path fill="#3588A6" d="M20,5.209c0,0.246-0.22,0.442-0.488,0.442c-0.271,0-0.488-0.196-0.488-0.442V0.441
	C19.024,0.198,19.241,0,19.512,0C19.78,0,20,0.198,20,0.441V5.209z"/>
<path fill="#C8691C" d="M27.354,5.546c0,0.765-0.62,1.384-1.387,1.384c-0.762,0-1.381-0.619-1.381-1.384
	c0-0.765,0.619-1.384,1.381-1.384C26.733,4.162,27.354,4.781,27.354,5.546"/>
<path fill="#852D05" d="M26.8,5.546c0,0.458-0.372,0.831-0.83,0.831c-0.459,0-0.831-0.373-0.831-0.831
	c0-0.459,0.372-0.83,0.831-0.83C26.428,4.716,26.8,5.086,26.8,5.546"/>
<path fill="#3588A6" d="M26.457,5.209c0,0.246-0.219,0.442-0.487,0.442c-0.27,0-0.488-0.196-0.488-0.442V0.441
	C25.481,0.198,25.7,0,25.97,0c0.269,0,0.487,0.198,0.487,0.441V5.209z"/>
<rect x="3.563" y="9.257" fill="#52CAF5" width="7.368" height="10.062"/>
<rect x="3.743" y="23.093" fill="#52CAF5" width="23.181" height="1.258"/>
<rect x="3.743" y="26.338" fill="#52CAF5" width="23.181" height="1.258"/>
<path fill="#43A4C7" d="M22.722,15.476l0.001,8.221l-8.221-0.002c-2.042,0.002-3.694,1.654-3.694,3.695s1.654,3.695,3.694,3.695
	h8.222l-0.002,8.22c0.001,2.042,1.654,3.695,3.695,3.696c2.041-0.001,3.694-1.655,3.695-3.695l-0.001-8.221l8.221,0.001
	c2.039-0.001,3.694-1.654,3.696-3.695c-0.002-2.041-1.655-3.694-3.696-3.694h-8.221l0.001-8.222
	c-0.002-2.04-1.655-3.693-3.696-3.694C24.376,11.781,22.723,13.435,22.722,15.476z"/>
<path fill="#FFFFFF" d="M26.416,11.781c2.041,0.001,3.694,1.655,3.696,3.694l-0.001,8.222h8.221c2.041,0,3.694,1.653,3.696,3.694
	c-0.002,2.041-1.657,3.694-3.696,3.695l-8.221-0.001l0.001,8.221c-0.001,2.04-1.654,3.694-3.695,3.695
	c-2.041-0.001-3.694-1.654-3.695-3.696l0.002-8.22h-8.222c-2.041,0-3.694-1.654-3.694-3.695s1.653-3.693,3.694-3.695l8.221,0.002
	l-0.001-8.221C22.723,13.435,24.376,11.781,26.416,11.781 M26.416,10.781L26.416,10.781c-2.587,0-4.693,2.107-4.694,4.695
	l0.001,7.222l-7.221-0.002c-2.589,0.003-4.694,2.108-4.694,4.695c0,2.589,2.106,4.695,4.694,4.695h7.222l-0.002,7.22
	c0.001,2.589,2.107,4.695,4.695,4.696c2.588-0.001,4.694-2.107,4.695-4.695l-0.001-7.221l7.221,0.001
	c2.587-0.001,4.693-2.107,4.696-4.694c-0.003-2.59-2.109-4.695-4.696-4.695h-7.221l0.001-7.222
	C31.109,12.887,29.003,10.782,26.416,10.781L26.416,10.781z"/>
<path fill="#52CAF5" d="M22.722,15.476l0.001,8.221l-8.221-0.002c-2.042,0.002-3.694,1.654-3.694,3.695
	c0,0.046,0.013,0.089,0.014,0.135h31.191c0.003-0.045,0.014-0.089,0.017-0.134c-0.002-2.041-1.655-3.694-3.696-3.694h-8.221
	l0.001-8.222c-0.002-2.04-1.655-3.693-3.696-3.694C24.376,11.781,22.723,13.435,22.722,15.476z"/>
</svg>
