<?xml version="1.0" encoding="utf-8"?>
<svg version="1.1"
	 xmlns="http://www.w3.org/2000/svg" xmlns:xlink="http://www.w3.org/1999/xlink"
	 x="0px" y="0px" width="48px" height="48px" viewBox="-3.685 -1.193 48 48">
<defs>
</defs>
<polygon fill="#F79523" points="28.406,44.733 9.914,44.733 0,35.816 0,6.875 28.406,6.875 "/>
<polygon fill="#C8691C" points="10.125,36.401 0,35.816 10.125,44.807 "/>
<path fill="#C8691C" d="M6.356,10.584c0,0.714-0.578,1.292-1.293,1.292c-0.713,0-1.292-0.579-1.292-1.292
	c0-0.714,0.579-1.292,1.292-1.292C5.778,9.292,6.356,9.87,6.356,10.584"/>
<path fill="#852D05" d="M5.839,10.584c0,0.427-0.347,0.776-0.776,0.776c-0.428,0-0.776-0.349-0.776-0.776
	c0-0.429,0.348-0.775,0.776-0.775C5.492,9.809,5.839,10.155,5.839,10.584"/>
<path fill="#C8691C" d="M12.975,10.584c0,0.714-0.579,1.292-1.293,1.292c-0.713,0-1.292-0.579-1.292-1.292
	c0-0.714,0.579-1.292,1.292-1.292C12.396,9.292,12.975,9.87,12.975,10.584"/>
<path fill="#852D05" d="M12.457,10.584c0,0.427-0.348,0.776-0.776,0.776c-0.428,0-0.775-0.349-0.775-0.776
	c0-0.429,0.347-0.775,0.775-0.775C12.109,9.809,12.457,10.155,12.457,10.584"/>
<path fill="#52CAF5" d="M5.52,10.27c0,0.229-0.204,0.412-0.456,0.412S4.608,10.5,4.608,10.27V5.818c0-0.228,0.203-0.413,0.455-0.413
	S5.52,5.59,5.52,5.818V10.27z"/>
<path fill="#52CAF5" d="M12.138,10.27c0,0.229-0.206,0.412-0.457,0.412c-0.251,0-0.455-0.183-0.455-0.412V5.818
	c0-0.228,0.204-0.413,0.455-0.413c0.251,0,0.457,0.185,0.457,0.413V10.27z"/>
<path fill="#C8691C" d="M19.51,10.584c0,0.714-0.577,1.292-1.292,1.292c-0.713,0-1.292-0.579-1.292-1.292
	c0-0.714,0.579-1.292,1.292-1.292C18.933,9.292,19.51,9.87,19.51,10.584"/>
<path fill="#852D05" d="M18.994,10.584c0,0.427-0.348,0.776-0.776,0.776c-0.429,0-0.776-0.349-0.776-0.776
	c0-0.429,0.347-0.775,0.776-0.775C18.646,9.809,18.994,10.155,18.994,10.584"/>
<path fill="#52CAF5" d="M18.674,10.27c0,0.229-0.204,0.412-0.456,0.412s-0.455-0.183-0.455-0.412V5.818
	c0-0.228,0.203-0.413,0.455-0.413s0.456,0.185,0.456,0.413V10.27z"/>
<path fill="#C8691C" d="M25.541,10.584c0,0.714-0.579,1.292-1.295,1.292c-0.711,0-1.289-0.579-1.289-1.292
	c0-0.714,0.578-1.292,1.289-1.292C24.962,9.292,25.541,9.87,25.541,10.584"/>
<path fill="#852D05" d="M25.024,10.584c0,0.427-0.348,0.776-0.776,0.776c-0.428,0-0.775-0.349-0.775-0.776
	c0-0.429,0.348-0.775,0.775-0.775C24.677,9.809,25.024,10.155,25.024,10.584"/>
<path fill="#52CAF5" d="M24.703,10.27c0,0.229-0.203,0.412-0.455,0.412c-0.251,0-0.454-0.183-0.454-0.412V5.818
	c0-0.228,0.203-0.413,0.454-0.413c0.252,0,0.455,0.185,0.455,0.413V10.27z"/>
<rect x="3.327" y="14.049" fill="#52CAF5" width="6.879" height="9.396"/>
<rect x="10.876" y="14.049" fill="#52CAF5" width="6.88" height="9.396"/>
<rect x="7.917" y="15.444" transform="matrix(0.6428 -0.766 0.766 0.6428 -6.4229 25.3168)" fill="#52CAF5" width="32.035" height="8.202"/>
<rect x="33.431" y="1.578" transform="matrix(0.6427 -0.7661 0.7661 0.6427 8.3579 29.2798)" fill="#6D6E71" width="4.276" height="8.203"/>
<polygon fill="#FCB51E" points="16.818,34.406 11.949,36.341 9.343,34.156 10.536,29.133 "/>
<polygon points="11.752,36.246 8.726,37.475 9.471,34.331 "/>
<rect x="31.801" y="2.34" transform="matrix(-0.6429 0.7659 -0.7659 -0.6429 59.0611 -18.9074)" fill="#A7A9AC" width="4.274" height="3.948"/>
<polygon fill="#58595B" points="10.568,35.252 9.471,34.331 8.736,37.436 "/>
<polygon fill="#FFD65A" points="10.594,35.206 13.56,31.672 10.536,29.133 9.343,34.156 "/>
<rect x="6.287" y="16.202" transform="matrix(-0.6428 0.766 -0.766 -0.6428 50.5668 12.7727)" fill="#84D5F7" width="32.037" height="3.949"/>
<g>
	<path fill="#FFFFFF" d="M33.8,1.408l6.284,5.271L16.818,34.462l-8.112,2.986l1.769-8.298L33.8,1.408 M33.677,0l-0.643,0.765
		L9.709,28.507l-0.16,0.191l-0.052,0.243L7.728,37.24L7.35,39.013l1.701-0.626l8.113-2.986l0.25-0.092l0.171-0.205L40.851,7.321
		l0.642-0.766l-0.766-0.642l-6.284-5.271L33.677,0L33.677,0z"/>
</g>
<polygon fill="#58595B" points="24.377,37.314 24.721,30.938 21.05,31.165 20.933,41.21 30.889,39.862 30.662,36.191 "/>
<polygon points="24.377,37.314 20.933,41.21 30.889,39.862 30.662,36.191 "/>
<rect x="21.358" y="30.563" transform="matrix(0.6623 -0.7492 0.7492 0.6623 -14.7677 32.52)" fill="#58595B" width="14.673" height="4.161"/>
<polygon points="35.113,28.524 25.395,39.517 23.711,38.031 33.646,27.227 "/>
</svg>
