<?xml version="1.0" encoding="utf-8"?>
<!-- Generator: Adobe Illustrator 15.0.0, SVG Export Plug-In  -->
<!DOCTYPE svg PUBLIC "-//W3C//DTD SVG 1.1//EN" "http://www.w3.org/Graphics/SVG/1.1/DTD/svg11.dtd" [
	<!ENTITY ns_flows "http://ns.adobe.com/Flows/1.0/">
]>
<svg version="1.1"
	 xmlns="http://www.w3.org/2000/svg" x="0px" y="0px" width="74px" height="74px" viewBox="-4.275 -4.275 74 74"
	 xml:space="preserve">
<defs>
</defs>
<path d="M0,32.725C0,50.797,14.652,65.45,32.725,65.45c18.073,0,32.725-14.654,32.725-32.725C65.449,14.652,50.798,0,32.725,0
	C14.652,0,0,14.652,0,32.725z M14.842,30.056l19.706-19.705c1.467-1.469,3.873-1.469,5.34,0l3.484,3.486
	c1.469,1.469,1.469,3.871,0,5.34L32.495,30.056c-1.467,1.468-1.467,3.872,0,5.339l10.877,10.881c1.469,1.469,1.469,3.869,0,5.342
	l-3.484,3.484c-1.467,1.467-3.872,1.467-5.34,0L14.842,35.395C13.375,33.928,13.375,31.524,14.842,30.056z"/>
</svg>
