<?xml version="1.0" encoding="utf-8"?>
<!-- Generator: Adobe Illustrator 15.0.0, SVG Export Plug-In  -->
<!DOCTYPE svg PUBLIC "-//W3C//DTD SVG 1.1//EN" "http://www.w3.org/Graphics/SVG/1.1/DTD/svg11.dtd" [
	<!ENTITY ns_flows "http://ns.adobe.com/Flows/1.0/">
]>
<svg version="1.1"
	 xmlns="http://www.w3.org/2000/svg" xmlns:xlink="http://www.w3.org/1999/xlink" xmlns:a="http://ns.adobe.com/AdobeSVGViewerExtensions/3.0/"
	 x="0px" y="0px" width="150px" height="160px" viewBox="-5.5 -18.468 150 160" enable-background="new -5.5 -18.468 150 160"
	 xml:space="preserve">
<defs>
</defs>
<path fill="#52CAF5" d="M139,112.44c0,5.869-4.755,10.623-10.624,10.623H10.624C4.757,123.063,0,118.309,0,112.44V10.624
	C0,4.757,4.757,0,10.624,0h117.752C134.245,0,139,4.757,139,10.624V112.44z"/>
<path fill="#3588A6" d="M0,18.37v94.07c0,5.869,4.757,10.623,10.624,10.623h80.381c0.151-2.24,0.259-4.492,0.259-6.771
	C91.264,64.393,50.994,21.928,0,18.37z"/>
<polygon fill="#FFFFFF" points="55.735,29.495 23.01,58.772 19.628,54.989 52.346,25.713 "/>
<rect x="84.977" y="32.932" transform="matrix(0.5731 -0.8195 0.8195 0.5731 16.7336 103.057)" fill="#FFFFFF" width="44.598" height="5.073"/>
<rect x="52.415" y="36.711" transform="matrix(-0.7877 -0.6161 0.6161 -0.7877 108.7649 115.9832)" fill="#FFFFFF" width="43.908" height="5.074"/>
<circle fill="#D1D3D4" cx="21.542" cy="57.25" r="6.787"/>
<circle fill="#FFFFFF" cx="56.958" cy="27.15" r="6.787"/>
<circle fill="#FFFFFF" cx="92.373" cy="54.304" r="6.787"/>
<polygon fill="#FFFFFF" points="108.512,16.102 121.987,14.646 125.751,27.142 120.681,23.733 119.743,18.15 113.602,18.925 "/>
<ellipse fill="#F79523" cx="75.206" cy="93.2" rx="23.954" ry="26.475"/>
<ellipse fill="#C8691C" cx="71.664" cy="93.2" rx="23.953" ry="26.475"/>
<path fill="#FCB51E" d="M91.182,112.885c4.887-4.844,7.979-11.857,7.979-19.686c0-13.598-9.275-24.785-21.215-26.285
	C85.871,80.499,90.609,96.161,91.182,112.885z"/>
<path fill="#F79523" d="M90.956,108.846c2.918-4.385,4.661-9.783,4.661-15.646c0-12.008-7.237-22.129-17.146-25.373
	C85.449,80.09,89.843,94.006,90.956,108.846z"/>
<path fill="#F79523" d="M70.723,76.268l1.765,0.17v2.697c1.771,0.297,3.272,0.795,4.503,1.494c1.08,0.615,1.921,1.373,2.521,2.27
	c0.603,0.895,0.902,1.84,0.902,2.836c0,0.939-0.3,1.674-0.902,2.195c-0.601,0.521-1.387,0.736-2.355,0.643
	c-0.87-0.086-1.597-0.438-2.178-1.061c-0.582-0.623-0.872-1.367-0.872-2.225c0-0.609,0.146-1.131,0.437-1.574l0.436-0.664
	c0.138-0.205,0.199-0.361,0.187-0.459c-0.027-0.279-0.312-0.553-0.851-0.82c-0.54-0.266-1.148-0.432-1.827-0.498v5.77l-1.765-1.123
	v-4.67c-0.567,0.068-1.023,0.225-1.37,0.471c-0.746,0.521-1.12,1.258-1.12,2.213c0,1.023,0.505,1.965,1.515,2.826
	c0.679,0.59,2.126,1.504,4.339,2.742c1.59,0.885,2.738,1.588,3.452,2.098c0.712,0.51,1.334,1.084,1.859,1.717
	c0.65,0.754,1.155,1.662,1.515,2.729c0.36,1.066,0.54,2.191,0.54,3.383c0,1.451-0.294,2.756-0.882,3.906
	c-0.588,1.156-1.436,2.094-2.542,2.816c-1.383,0.893-3.23,1.342-5.541,1.352v3.113l-1.765-0.17v-3.111
	c-1.881-0.295-3.507-0.852-4.876-1.678c-1.121-0.676-1.999-1.502-2.636-2.473c-0.637-0.975-0.955-1.982-0.955-3.02
	c0-1.023,0.333-1.85,0.997-2.477c0.663-0.629,1.486-0.896,2.469-0.799c0.871,0.084,1.622,0.48,2.251,1.193s0.943,1.514,0.943,2.414
	c0,0.553-0.138,1.068-0.415,1.549c-0.277,0.479-0.637,0.813-1.078,1.006c-0.347,0.146-0.513,0.289-0.499,0.43
	c0.015,0.139,0.174,0.318,0.477,0.543c0.305,0.221,0.679,0.432,1.121,0.625c0.761,0.34,1.494,0.541,2.2,0.609v-6.494l1.765,0.998
	v5.645c0.776,0.008,1.419-0.117,1.932-0.373c0.553-0.264,0.987-0.635,1.307-1.117c0.317-0.48,0.477-1.006,0.477-1.574
	c0-0.58-0.132-1.105-0.395-1.572s-0.677-0.938-1.245-1.408c-0.332-0.252-0.739-0.525-1.217-0.822
	c-0.477-0.295-1.376-0.824-2.706-1.588c-1.646-0.938-2.884-1.719-3.715-2.352c-0.83-0.637-1.529-1.332-2.095-2.092
	c-1.232-1.629-1.847-3.467-1.847-5.514c0-1.535,0.377-2.93,1.131-4.184c0.754-1.256,1.788-2.215,3.102-2.875
	c1.051-0.537,2.221-0.836,3.507-0.906V76.268z"/>
<path fill="#FFFFFF" d="M69.901,76.19l1.764,0.168v2.697c1.771,0.299,3.271,0.797,4.502,1.494c1.08,0.615,1.921,1.373,2.521,2.27
	c0.603,0.895,0.902,1.84,0.902,2.836c0,0.939-0.3,1.674-0.902,2.195c-0.601,0.523-1.386,0.736-2.355,0.645
	c-0.87-0.088-1.597-0.439-2.178-1.063c-0.582-0.623-0.872-1.363-0.872-2.221c0-0.607,0.146-1.133,0.437-1.576l0.436-0.664
	c0.138-0.209,0.199-0.359,0.187-0.461c-0.027-0.279-0.312-0.553-0.851-0.818c-0.54-0.268-1.147-0.434-1.826-0.5v5.77l-1.764-1.123
	v-4.67c-0.567,0.068-1.023,0.225-1.37,0.471c-0.747,0.523-1.121,1.26-1.121,2.213c0,1.025,0.506,1.965,1.515,2.826
	c0.679,0.592,2.125,1.504,4.339,2.742c1.59,0.887,2.742,1.588,3.454,2.1c0.713,0.512,1.331,1.082,1.856,1.715
	c0.65,0.754,1.155,1.664,1.515,2.729c0.36,1.064,0.541,2.193,0.541,3.383c0,1.453-0.295,2.756-0.883,3.908
	c-0.588,1.154-1.436,2.092-2.542,2.814c-1.383,0.893-3.229,1.342-5.54,1.352v3.115l-1.764-0.172v-3.111
	c-1.882-0.295-3.508-0.852-4.876-1.678c-1.121-0.674-1.999-1.5-2.635-2.473c-0.637-0.975-0.955-1.98-0.955-3.02
	c0-1.023,0.332-1.85,0.996-2.477c0.665-0.629,1.487-0.895,2.47-0.799c0.871,0.084,1.622,0.48,2.251,1.193
	c0.629,0.713,0.944,1.514,0.944,2.414c0,0.553-0.139,1.068-0.416,1.549c-0.276,0.477-0.636,0.814-1.079,1.008
	c-0.345,0.145-0.511,0.287-0.498,0.428c0.015,0.139,0.173,0.318,0.479,0.543c0.303,0.221,0.677,0.432,1.12,0.627
	c0.761,0.338,1.493,0.539,2.199,0.609v-6.496l1.764,1v5.645c0.775,0.006,1.418-0.119,1.931-0.375
	c0.553-0.262,0.989-0.635,1.307-1.115c0.317-0.482,0.477-1.008,0.477-1.574c0-0.58-0.132-1.107-0.395-1.574
	s-0.677-0.938-1.244-1.406c-0.333-0.254-0.737-0.527-1.214-0.824c-0.478-0.295-1.38-0.822-2.709-1.588
	c-1.646-0.938-2.884-1.719-3.714-2.352c-0.83-0.637-1.528-1.33-2.095-2.092c-1.232-1.629-1.847-3.467-1.847-5.514
	c0-1.535,0.377-2.928,1.131-4.184s1.788-2.213,3.102-2.875c1.052-0.535,2.222-0.836,3.508-0.906V76.19z"/>
<path fill="#D1D3D4" d="M48.934,35.581c-1.44-0.997-2.901-1.961-4.393-2.882L19.628,54.989l3.382,3.784L48.934,35.581z"/>
</svg>
