<?xml version="1.0" encoding="utf-8"?>
<!-- Generator: Adobe Illustrator 15.0.0, SVG Export Plug-In  -->
<!DOCTYPE svg PUBLIC "-//W3C//DTD SVG 1.1//EN" "http://www.w3.org/Graphics/SVG/1.1/DTD/svg11.dtd" [
	<!ENTITY ns_flows "http://ns.adobe.com/Flows/1.0/">
]>
<svg version="1.1"
	 xmlns="http://www.w3.org/2000/svg" xmlns:xlink="http://www.w3.org/1999/xlink" xmlns:a="http://ns.adobe.com/AdobeSVGViewerExtensions/3.0/"
	 x="0px" y="0px" width="150px" height="160px" viewBox="-16.993 -10.243 150 160" enable-background="new -16.993 -10.243 150 160"
	 xml:space="preserve">
<defs>
</defs>
<path fill="#D1D3D4" d="M111.425,104.423c0,0-4.023,2.301-2.875,13.793c1.146,11.491,5.312,15.041,5.312,15.041H11.997V99.822
	L111.425,104.423z"/>
<path fill="#52CAF5" d="M116.141,95.568l-10.987-84.583C105.154,4.918,100.24,0,94.171,0H23.75c-6.065,0-10.983,4.918-10.983,10.985
	L1.782,93.845c0,0-1.838,14.586-1.78,22.839c0.139,19.48,14.389,22.716,20.088,22.828h85.064c6.071,0,8.832-1.788,8.708-6.255
	c-0.136-5.055-7.685-4.854-7.685-4.854l-82.792,0.096c-3.883,0-8.494-1.998-8.729-10.156c-0.191-6.545,5.325-10.251,9.21-10.251
	l81.288-1.536C111.225,106.556,116.141,101.64,116.141,95.568z"/>
<polygon fill="#F79523" points="38.916,0.376 34.824,46.589 50.94,40.899 67.625,46.968 64.646,0.376 "/>
<path fill="#3588A6" d="M116.141,95.568c0,6.071-4.916,10.987-10.987,10.987l-81.288,1.536c-3.885,0-9.401,3.706-9.21,10.251
	c0.235,8.158,4.846,10.156,8.729,10.156l82.792-0.096c0,0,7.549-0.201,7.685,4.854c0.124,4.467-2.617,6.913-13.942,6.227
	l-76.438-0.113c-5.129-0.097-18.099-5.01-18.222-22.545c0,0,0.571-9.625,9.701-14.526c5.995-3.226,12.285-3.419,12.285-3.419h71.666
	C98.913,98.88,114.188,98.567,116.141,95.568z"/>
<path fill="#3588A6" d="M88.542,128.426l-65.156,0.073c-3.883,0-8.494-1.998-8.729-10.156c-0.191-6.545,5.325-10.251,9.21-10.251
	l67.901-1.284c0.066-1.553,0.116-3.112,0.116-4.687c0-47.262-31.356-87.186-74.39-100.149c-2.851,1.985-4.727,5.277-4.727,9.013
	L1.782,93.845c0,0-1.838,14.586-1.78,22.839c0.139,19.48,14.389,22.716,20.088,22.828h64.884
	C86.354,135.903,87.565,132.211,88.542,128.426z"/>
<path fill="#C8691C" d="M66.812,34.215c-8.092-9.468-17.839-17.478-28.804-23.571l-3.184,35.945l16.116-5.69l16.685,6.069
	L66.812,34.215z"/>
<path fill="#939598" d="M108.215,113.854c0,0-24.694,3.347-40.206,2.891l40.492,1.63c0,0-0.194-2.575-0.17-2
	C108.346,116.941,108.215,113.854,108.215,113.854z"/>
</svg>
