<?xml version="1.0" encoding="utf-8"?>
<!-- Generator: Adobe Illustrator 15.0.0, SVG Export Plug-In  -->
<!DOCTYPE svg PUBLIC "-//W3C//DTD SVG 1.1//EN" "http://www.w3.org/Graphics/SVG/1.1/DTD/svg11.dtd" [
	<!ENTITY ns_flows "http://ns.adobe.com/Flows/1.0/">
]>
<svg version="1.1"
	 xmlns="http://www.w3.org/2000/svg" xmlns:xlink="http://www.w3.org/1999/xlink" xmlns:a="http://ns.adobe.com/AdobeSVGViewerExtensions/3.0/"
	 x="0px" y="0px" width="48px" height="48px" viewBox="-3.221 -3.634 48 48" enable-background="new -3.221 -3.634 48 48"
	 xml:space="preserve">
<defs>
</defs>
<path fill="#3588A6" d="M41.844,39.708c0,0.494-0.4,0.892-0.892,0.892H0.891C0.399,40.6,0,40.202,0,39.708V0.89
	C0,0.398,0.399,0,0.891,0h40.062c0.491,0,0.892,0.398,0.892,0.89V39.708z"/>
<path fill="#52CAF5" d="M0,2.732v36.976C0,40.202,0.399,40.6,0.891,40.6h22.692C25.072,22.521,10.762,5.93,0,2.732z"/>
<path fill="#FFFFFF" d="M3.695,24.997c1.565,0,1.79-0.871,1.811-1.655c0-0.626-0.089-1.253-0.178-1.856
	c-0.089-0.649-0.18-1.275-0.18-1.88c0-2.057,1.365-2.931,3.266-2.931h0.448v1.232H8.482c-1.32,0.022-1.789,0.716-1.789,1.924
	c0,0.513,0.089,1.05,0.156,1.587c0.089,0.56,0.18,1.095,0.18,1.699c0.021,1.434-0.626,2.148-1.633,2.416v0.046
	c1.007,0.268,1.633,1.007,1.633,2.438c0,0.604-0.09,1.163-0.18,1.722c-0.067,0.538-0.156,1.074-0.156,1.612
	c0,1.252,0.537,1.923,1.789,1.946h0.381v1.23H8.394c-1.835,0-3.245-0.807-3.245-3.066c0-0.604,0.09-1.229,0.201-1.833
	c0.067-0.628,0.156-1.232,0.156-1.813c0-0.716-0.223-1.678-1.811-1.678V24.997z"/>
<path fill="#D1D3D4" d="M38.2,26.138c-1.589,0-1.812,0.962-1.812,1.678c0,0.581,0.089,1.186,0.156,1.813
	c0.111,0.604,0.201,1.229,0.201,1.833c0,2.26-1.409,3.066-3.244,3.066h-0.469v-1.23h0.379c1.254-0.023,1.79-0.694,1.79-1.946
	c0-0.538-0.089-1.074-0.156-1.612c-0.089-0.559-0.181-1.118-0.181-1.722c0-1.432,0.628-2.171,1.635-2.438v-0.046
	c-1.007-0.268-1.655-0.982-1.635-2.416c0-0.604,0.092-1.14,0.181-1.699c0.067-0.537,0.156-1.074,0.156-1.587
	c0-1.208-0.47-1.901-1.79-1.924h-0.379v-1.232h0.447c1.901,0,3.266,0.874,3.266,2.931c0,0.605-0.09,1.231-0.179,1.88
	c-0.09,0.604-0.179,1.23-0.179,1.856c0.022,0.784,0.245,1.655,1.812,1.655V26.138z"/>
<rect x="10.26" y="5.64" fill="#C8691C" width="21.946" height="29.844"/>
<path fill="#F79523" d="M10.251,9.022l0.009,26.462h13.334C22.875,26.032,15.988,15.16,10.251,9.022z"/>
<path fill="#FFFFFF" d="M18.023,15.193c-0.36,0.174-1.16,0.439-2.18,0.439c-2.291,0-3.782-1.553-3.782-3.875
	c0-2.338,1.601-4.048,4.081-4.048c0.815,0,1.538,0.204,1.914,0.409l-0.313,1.051c-0.33-0.173-0.848-0.361-1.601-0.361
	c-1.742,0-2.684,1.303-2.684,2.87c0,1.758,1.13,2.84,2.636,2.84c0.785,0,1.303-0.187,1.696-0.36L18.023,15.193z"/>
<path fill="#FFFFFF" d="M19.456,14.065c0.424,0.25,1.146,0.532,1.836,0.532c0.988,0,1.46-0.485,1.46-1.129
	c0-0.66-0.393-1.004-1.397-1.381c-1.381-0.502-2.025-1.239-2.025-2.15c0-1.224,1.004-2.228,2.622-2.228
	c0.768,0,1.441,0.204,1.85,0.471l-0.329,1.004c-0.297-0.188-0.846-0.456-1.553-0.456c-0.816,0-1.254,0.471-1.254,1.036
	c0,0.628,0.438,0.91,1.426,1.302c1.302,0.488,1.993,1.147,1.993,2.275c0,1.349-1.051,2.291-2.825,2.291
	c-0.831,0-1.6-0.218-2.133-0.534L19.456,14.065z"/>
<path fill="#FFFFFF" d="M25.674,14.065c0.422,0.25,1.146,0.532,1.834,0.532c0.99,0,1.461-0.485,1.461-1.129
	c0-0.66-0.395-1.004-1.399-1.381c-1.379-0.502-2.022-1.239-2.022-2.15c0-1.224,1.002-2.228,2.622-2.228
	c0.768,0,1.44,0.204,1.848,0.471l-0.328,1.004c-0.296-0.188-0.846-0.456-1.553-0.456c-0.814,0-1.255,0.471-1.255,1.036
	c0,0.628,0.44,0.91,1.43,1.302c1.299,0.488,1.992,1.147,1.992,2.275c0,1.349-1.052,2.291-2.825,2.291
	c-0.832,0-1.601-0.218-2.135-0.534L25.674,14.065z"/>
<rect x="15.461" y="19.115" fill="#D1D3D4" width="9.949" height="2.019"/>
<rect x="15.461" y="24.548" fill="#D1D3D4" width="9.949" height="2.019"/>
<rect x="15.461" y="29.98" fill="#D1D3D4" width="9.949" height="2.019"/>
<path fill="#FFFFFF" d="M22.56,29.989l-7.099-0.009v2.019l7.591-0.006C22.93,31.313,22.721,30.656,22.56,29.989z"/>
<path fill="#FFFFFF" d="M20.557,24.574l-5.096-0.026v2.019l5.945,0.028C21.172,25.913,20.824,25.236,20.557,24.574z"/>
<path fill="#FFFFFF" d="M17.738,19.124l-2.277-0.009v2.019l3.466-0.007C18.575,20.442,18.123,19.784,17.738,19.124z"/>
</svg>
