<?xml version="1.0" encoding="utf-8"?>
<!-- Generator: Adobe Illustrator 15.0.0, SVG Export Plug-In  -->
<!DOCTYPE svg PUBLIC "-//W3C//DTD SVG 1.1//EN" "http://www.w3.org/Graphics/SVG/1.1/DTD/svg11.dtd" [
	<!ENTITY ns_flows "http://ns.adobe.com/Flows/1.0/">
]>
<svg version="1.1"
	 xmlns="http://www.w3.org/2000/svg" xmlns:xlink="http://www.w3.org/1999/xlink" xmlns:a="http://ns.adobe.com/AdobeSVGViewerExtensions/3.0/"
	 x="0px" y="0px" width="150px" height="160px" viewBox="-6.421 -14.646 150 160" enable-background="new -6.421 -14.646 150 160"
	 xml:space="preserve">
<defs>
</defs>
<path fill-rule="evenodd" clip-rule="evenodd" fill="#C8691C" d="M68.545,41.93c-34.428,0-62.845,8.438-67.705,19.417
	c-0.483-1.089-0.813-2.192-0.813-3.325c0-12.563,30.676-22.743,68.518-22.743c37.84,0,68.516,10.18,68.516,22.743
	c0,1.133-0.33,2.236-0.815,3.325C131.388,50.368,102.975,41.93,68.545,41.93z"/>
<path fill-rule="evenodd" clip-rule="evenodd" fill="#C8691C" d="M68.545,48.435c-34.428,0-62.845,8.438-67.705,19.419
	c-0.483-1.091-0.813-2.191-0.813-3.325c0-12.563,30.676-22.743,68.518-22.743c37.84,0,68.516,10.18,68.516,22.743
	c0,1.134-0.33,2.234-0.815,3.325C131.388,56.873,102.975,48.435,68.545,48.435z"/>
<path fill-rule="evenodd" clip-rule="evenodd" fill="#52CAF5" d="M131.877,65.352c0,34.482-27.95,62.433-62.432,62.433
	c-34.478,0-62.427-27.95-62.427-62.433c0-34.477,27.949-62.425,62.427-62.425C103.927,2.927,131.877,30.875,131.877,65.352z"/>
<path fill-rule="evenodd" clip-rule="evenodd" fill="#84D5F7" d="M36.078,12.654C18.633,23.724,7.019,43.162,7.019,65.352
	c0,31.938,23.992,58.23,54.927,61.94c13.163-12.465,21.416-30.057,21.416-49.615C83.361,47.28,63.511,21.548,36.078,12.654z"/>
<path fill-rule="evenodd" clip-rule="evenodd" fill="#3588A6" d="M121.621,94.913c-0.273,0-0.817-0.273-1.09-0.273
	c0.816-3.539,3.27-8.444,6.266-11.71C125.434,86.742,123.801,90.83,121.621,94.913z M10.734,67.122
	c0.545,1.093,1.909,2.18,2.725,3.544c0.818,1.09,0.818,2.725,1.634,4.085c0,0.273,0.817,0,1.091,0.547
	c0.818,0.547,1.363,2.18,2.18,2.18c0.545,0,0.817-0.273,1.362-0.544c0.272,1.364,0.817,3.542,0.817,4.359
	c0,0.544-0.817,3.266-0.817,4.085c0,0.547,0.272,3.813,1.634,5.452c2.45,3.268,5.176,6.263,8.445,9.259
	c0.818,0.819,2.453,1.093,3.813,2.183c1.909,2.176,3.271,4.902,5.18,7.355c1.905,2.722,5.991,7.354,9.263,9.538
	c1.632,1.359,3.541,2.722,5.175,3.814c-12.806-2.182-33.239-18.255-38.417-32.698c-0.543-1.633-1.635-3.539-2.178-5.449
	c-0.546-2.179-1.363-4.902-1.909-6.808c-0.272-2.453-1.09-6.812-1.09-7.358v-3.544H10.734z M126.523,66.854v-0.815V66.854z
	 M18.363,63.585c0,0.271,0.817,0.271,0.817,0.544c0.545,1.364,1.633,1.636,2.179,1.636c0.272,0,1.363-0.548,1.907-1.364
	c2.453,0.545,5.177,0.545,7.901,0.816c0.545,0,1.089,0.548,1.361,0.821c0.273,0.271,0,1.628,0.817,2.45v3.81
	c-1.363-0.542-3.269-0.27-4.358-0.813c-0.544,0-1.362-0.819-1.908-1.637h-1.633c-1.363,0-4.361,0.547-4.634,3.269
	c-1.088-0.547-0.271-0.819-2.724-0.269v-5.995c-1.089-1.089-1.633-2.182-2.725-1.908v-1.089c0.273-0.818,0.818-1.906,1.091-2.724
	C16.728,61.95,17.273,62.767,18.363,63.585z M115.083,47.509c0.815,0,1.089-1.087,1.089-1.36h1.363
	c0.273,0.815,1.091,1.632,2.453,1.36v1.635c0-0.817-1.092-0.271-1.636-0.271c-0.273,0.271-0.273,0.545-1.087,0.545
	c-0.55,0-3.545-1.091-4.089-1.091c-0.817,0-1.909-0.272-2.183,1.362c-1.634-0.816-3.539-1.362-5.176-2.18
	c0.273,0.271,0,0.271,0.547,0.271c2.175,0,1.09-2.995,2.722-4.903C110.994,44.512,112.359,47.509,115.083,47.509z M101.729,43.422
	c1.909,0,1.362-2.179,1.641-2.449c0.541,0.542,1.36,0.814,2.175,1.36c-0.271,0-0.814-0.274-1.634,0c-0.272,0.544,0,1.089,0,1.636
	c-2.725,0-5.722,0.271-8.443,0.816c0.543-0.545,1.086-1.089,1.086-1.636c0-0.816-0.271-0.816-0.543-1.362
	c0.272-0.272,1.363-0.814,2.179-1.906c0.544,0,1.363,0,1.906-0.272C100.372,40.154,99.825,43.422,101.729,43.422z M115.898,38.246
	c0.544,0,0.273-0.545,0.817-0.545c0.819,0,1.093,0.545,1.363,0.818c-0.813,0-1.907,0.271-2.996,0.815l-0.543-0.544v-1.637
	C114.813,37.43,115.083,38.246,115.898,38.246z M46.97,32.251c-1.362,1.363-1.907,1.09-2.995,2.181c0-0.817,1.088-1.362,1.361-2.181
	H46.97z M103.639,26.804c-0.547,0-1.359,0.271-2.18,0.545c0.271-1.365,0.271-2.181,0.547-2.726
	C102.55,24.896,103.092,26.259,103.639,26.804z M51.057,22.443c0,0-0.543,0-0.543,0.273v-0.818
	C50.785,22.17,51.057,22.17,51.057,22.443z M49.693,21.081c-0.27-0.272-0.542-0.544-0.27-0.544
	C49.693,20.537,49.693,20.809,49.693,21.081z M45.063,21.081c-0.545,0.817-1.635,1.089-2.179,1.636
	c-0.818,0.544-1.09,1.634-1.637,2.18c-0.816,0.544-1.905,0.815-2.725,1.362c-0.542-0.818-1.089-1.908-1.089-2.453
	c0-0.818,5.178-3.542,5.994-3.542C43.975,20.264,44.518,21.081,45.063,21.081z M47.79,19.721c0-0.275,0-0.818,0.272-0.818
	S47.79,19.445,47.79,19.721z M83.203,20.537c0,0.817-3.266,1.906-3.539,1.906c-1.363,0-3.273-1.635-3.542-2.998
	c0.545-0.814,2.452-0.814,3.27-0.814C79.938,18.631,83.203,18.084,83.203,20.537z M50.514,17.813
	c0.271-0.273,0.543-0.545,0.816-0.545C51.057,17.539,50.785,17.813,50.514,17.813z M92.472,12.364c0,0.544-0.823,1.36-1.637,1.36
	c-0.546,0-2.727-1.36-4.09-2.179V9.913c1.093,1.359,2.18,0,3.273,0C90.835,9.913,92.472,11.817,92.472,12.364z M102.006,15.633
	c0,0.271,0.817,0.545,1.364,0.816c0,0-0.278,0.272-0.278,0.545c-1.086-0.816-5.991-1.635-5.991-1.635
	c-1.363,0-2.453-0.271-3.27,2.453c-0.273,0.545,0,1.633-0.273,2.451c-0.273,0.817-1.359,1.635-1.359,2.453
	c0,0.544,1.902,3.542,3.27,4.087l0.815,1.633c-0.546,0.273-1.359,1.09-1.909,1.364c-1.634-1.908-1.902-2.181-3.269-4.089
	c-0.271-0.815-1.907-1.633-2.454-1.633c-1.628,0-1.628,1.904-1.359,2.996c-0.547,0-2.452,0.273-2.452,1.907
	c0,0.544,0.273,1.362,0.273,1.907c0,0.817,0.272,1.361,1.086,1.361c0.546,0,1.639-0.271,2.452-0.817
	c-0.543,2.181,0.547,1.364,0.82,3.544c0.817,0.815,1.634,0.815,2.456,1.36v0.816c-1.365,0.275-4.09-1.633-5.183,1.092v4.903
	c0.547,0.819,1.093,3.543,3,2.726c-0.82,0.817-2.453,1.905-3.269,3.269c-0.277,0.273-0.277,1.362-0.547,1.908
	c-1.09,1.092-2.996,1.634-3.813,2.996c-1.636,2.182-3.542,6.813-3.542,7.356c0,0.819,0.817,2.996,0.817,3.541
	c0,0.819-1.637,2.994-1.637,3.813c0,0.543,0.275,0.543,0.546,1.36c0.273,0.276,0,1.094,0.273,1.637
	c0.817,1.361,1.906,2.726,2.995,4.089c0.82,0.816,5.454,4.631,6.539,4.631c0.816,0,5.992-0.546,8.719-1.092
	c0.82-0.273,1.636-0.273,2.452-0.544c0,1.636,1.637,1.906,3.544,1.906c0,0.273,0.269,0.273,0.269,1.091
	c0,0.546-0.542,1.363-0.813,1.91c-0.273-1.364-1.093-1.91-1.637-1.91c-1.09,0-1.909,0.816-1.909,1.637
	c0,1.358,0.819,1.904,1.639,1.904c0.544,0,0.814-0.272,1.357-0.546c0.55,1.91,1.909,5.449,1.909,5.998
	c0,0.814-0.269,3.268-1.089,4.63c-1.091,1.633-3.271,2.726-3.271,5.179c0,0.813,0.273,1.633,0,2.45
	c-0.546,2.183-1.358,4.632-2.179,7.08c-0.547,1.364-1.633,3.003-2.177,4.363c0.271,0.271,0.544,0.544,1.359,0.544
	c2.45,0,7.898-2.998,10.082-4.907c0.543-0.542,1.362-1.632,2.175-2.176c1.91-1.362,2.454-1.636,3.547-3
	c0.272-0.269,0.272-1.088,0.816-1.358c0.544-0.819,1.91-1.637,2.995-2.453c-0.543,1.09-2.178,2.181-2.722,3.266
	c-0.273,0.546-0.547,2.184-1.363,2.997c-5.995,7.088-17.439,12.807-22.889,14.442c-2.995,0.816-5.448,1.637-8.171,2.18
	c-3.816,0.816-7.902,1.09-11.442,1.09c-0.547,0-5.175,0-7.901-0.543c0.545-0.273,0.817-0.273,0.817-0.819
	c0-0.814-1.364-1.634-1.906-1.634c-0.818,0-1.09,0.543-1.09,1.09c-0.818-0.547-5.177-4.358-5.177-5.452
	c0-0.543,0.272-0.543,0.272-0.816c0.271-0.544,0-1.358,0-2.179c0-0.544,1.362-3.813,1.362-4.36c0-0.815-0.817-1.905-1.09-2.722
	c1.635-0.82,5.177-2.728,4.362-4.905c0.271-0.817,0.543-1.634,0.543-2.454c0-0.541-0.818-2.176-0.818-2.995
	c0,0,3.271-4.359,3.271-5.176s0-2.453-0.818-3c-1.362-1.635-3.815-2.448-5.994-3.266c-1.907-0.819-4.903,0-7.082-2.451
	c-0.818-1.091-2.182-2.728-3.543-4.09c-1.09-1.086-2.452-1.638-3.814-2.45c-0.273,0-3.27,0-3.27-1.362
	c0-0.547,0.818-1.91,1.089-2.723c-0.815-1.363-1.633-0.82-2.451-0.82v-4.906c0-2.722-2.454-5.172-5.449-4.355
	c-1.363-0.816-2.996-0.816-4.632-1.634c0-1.09-0.543-2.453-1.09-2.453c-0.817,0-0.817,0.545-1.091,1.092
	c-1.36-0.82-4.084-2.998-4.629-2.998c-0.817,0-1.362,0-1.634,0.271c-0.818,0.272-0.818,1.091-1.363,1.362
	c-0.818,0.545-2.178,0.273-2.998,0.818c-0.817,0.547-0.817,1.636-1.361,2.452c0-0.544-0.545-1.089-0.545-1.905
	c0-2.182,2.179-6.814,3.541-8.446c0.818,0.272,1.636,1.36,2.181,1.36c0.817,0,1.089-0.818,1.362-1.36
	c0.271,0,0.817,0.272,1.089,0.272c-0.272,1.359-0.272,2.995-0.272,4.358c1.09,0.817,2.451,1.634,3.27,1.634
	c1.088,0,1.36-0.273,1.36-1.36c0-0.273,0-1.908-1.36-1.637c0.273-0.817,0.545-1.636,0.545-2.449
	c-0.272-4.635,6.538-4.635,6.81-8.447c0.818-0.274,2.725-2.182,3.542-2.999c4.905,0,2.18-2.996,5.722-2.996
	c0.817,0,0.545,0.818,1.362,0.818c0.544,0,4.358-1.637,6.267-2.727c0.272-0.271,0.272-0.815,0.272-1.361
	c1.092,0.274,2.454,1.09,3.271,1.09c1.09,0,2.997-0.815,2.997-1.907c0-0.816-0.543-1.363-0.543-1.907
	c0-0.817,0.543-0.544,0.543-0.817c0.273-0.545,0.545-1.363,0.545-2.18c0-0.547-0.817-0.817-1.363-0.817
	c0.274-3.27,0.274-4.905,0.274-5.449c0-0.816,1.634-1.089,2.724-1.906c0,0,3.269-0.816,3.269-2.18c0-0.818-0.816-0.818-0.816-1.636
	c0-0.544,0.545-0.272,0.545-0.817c0-0.816-0.818-1.362-1.092-1.907c0.818-0.817,2.182-1.633,3.542-1.906
	c-0.542,1.362,1.635,1.906,2.454,1.634v2.725c-0.545,0-1.635,0.545-1.907,1.09c-0.546,0.818-0.818,2.453-0.818,3.27
	c0,0.546,0,1.635,0.545,2.452c0.273,0.545,1.362,0.545,1.907,1.09c0.273,0.272,0.273,0.272,0.82,0.272
	c1.634,0,2.449-2.18,4.629-3.542c0.546-0.544,1.638-0.544,2.454-0.817c0.818-0.271,1.361-1.09,2.448-1.361
	c1.363-0.545,4.086-0.271,5.449-1.635c0.819-1.09,1.362-3.543,1.362-4.088c0-0.815-0.27-0.815-0.543-1.362
	c0.273-0.271,1.09-0.545,1.632-1.361c-0.269-0.272-0.542-0.816-0.815-1.09c-0.543-0.273-1.636-0.273-1.906-0.545
	c-0.819-0.271-1.093-1.09-1.637-1.362c-1.089-0.546-2.722-0.272-3.542-0.272c-0.544,0-2.721,0-4.084,0.272
	c-0.818,0-1.089,1.091-1.633,1.091c-0.819,0-3.542-2.453-4.36-2.453s-4.086,2.725-4.357,2.996c-0.275-0.271-0.275-0.543-1.091-0.543
	c-0.819,0-1.909,1.363-2.726,2.178c0-0.271,0-0.544,0.273-0.814c-0.273-0.273-0.273-0.82-1.09-0.82
	c-0.545,0-0.817,1.091-1.362,1.091c-0.818,0-0.818-0.544-1.363-0.544c-2.179,0-5.176,0.816-6.266,1.359
	c-0.273,0.273-1.088,0.273-1.908,0.547c-1.088,0.271-2.18,1.089-3.542,1.907c9.807-5.994,19.346-7.902,29.425-7.902
	C81.569,5.551,93.831,8.821,102.006,15.633z M134.801,65.223c0,36.754-29.507,65.484-65.483,65.484
	c-23.553,0-50.211-12.165-62.119-44.518c0-0.262-3.105-12.682-3.105-15.27V59.789C9.011,19.412,40.069,0,69.317,0
	C106.069,0,134.801,29.248,134.801,65.223z"/>
<path fill-rule="evenodd" clip-rule="evenodd" fill="#42A1C3" d="M78.301,70.119c0.273,0.276,0,1.094,0.273,1.637
	c0.817,1.361,1.906,2.726,2.995,4.089c0.268,0.268,0.957,0.857,1.776,1.524c-0.03-7.006-1.104-13.767-3.094-20.125
	c-0.946,1.918-1.678,3.823-1.678,4.16c0,0.819,0.817,2.996,0.817,3.541c0,0.819-1.637,2.994-1.637,3.813
	C77.755,69.302,78.03,69.302,78.301,70.119z"/>
<path fill-rule="evenodd" clip-rule="evenodd" fill="#42A1C3" d="M64.294,124.973c-1.024-0.08-2.045-0.19-2.884-0.359
	c0.545-0.273,0.817-0.273,0.817-0.819c0-0.814-1.364-1.634-1.906-1.634c-0.818,0-1.09,0.543-1.09,1.09
	c-0.818-0.547-5.177-4.358-5.177-5.452c0-0.543,0.272-0.543,0.272-0.816c0.271-0.544,0-1.358,0-2.179
	c0-0.544,1.362-3.813,1.362-4.36c0-0.815-0.817-1.905-1.09-2.722c1.635-0.82,5.177-2.728,4.362-4.905
	c0.271-0.817,0.543-1.634,0.543-2.454c0-0.541-0.818-2.176-0.818-2.995c0,0,3.271-4.359,3.271-5.176s0-2.453-0.818-3
	c-1.362-1.635-3.815-2.448-5.994-3.266c-1.907-0.819-4.903,0-7.082-2.451c-0.818-1.091-2.182-2.728-3.543-4.09
	c-1.09-1.086-2.452-1.638-3.814-2.45c-0.273,0-3.27,0-3.27-1.362c0-0.547,0.818-1.91,1.089-2.723
	c-0.815-1.363-1.633-0.82-2.451-0.82v-4.906c0-2.722-2.454-5.172-5.449-4.355c-1.363-0.816-2.996-0.816-4.632-1.634
	c0-1.09-0.543-2.453-1.09-2.453c-0.817,0-0.817,0.545-1.091,1.092c-1.36-0.82-4.084-2.998-4.629-2.998c-0.817,0-1.362,0-1.634,0.271
	c-0.818,0.272-0.818,1.091-1.363,1.362c-0.818,0.545-2.178,0.273-2.998,0.818c-0.817,0.547-0.817,1.636-1.361,2.452
	c0-0.544-0.545-1.089-0.545-1.905c0-2.182,2.179-6.814,3.541-8.446c0.818,0.272,1.636,1.36,2.181,1.36
	c0.817,0,1.089-0.818,1.362-1.36c0.271,0,0.817,0.272,1.089,0.272c-0.272,1.359-0.272,2.995-0.272,4.358
	c1.09,0.817,2.451,1.634,3.27,1.634c1.088,0,1.36-0.273,1.36-1.36c0-0.273,0-1.908-1.36-1.637c0.273-0.817,0.545-1.636,0.545-2.449
	c-0.272-4.635,6.538-4.635,6.81-8.447c0.818-0.274,2.725-2.182,3.542-2.999c4.905,0,2.18-2.996,5.722-2.996
	c0.817,0,0.545,0.818,1.362,0.818c0.544,0,4.358-1.637,6.267-2.727c0.272-0.271,0.272-0.815,0.272-1.361
	c1.092,0.274,2.454,1.09,3.271,1.09c1.09,0,2.997-0.815,2.997-1.907c0-0.816-0.543-1.363-0.543-1.907
	c0-0.817,0.543-0.544,0.543-0.817c0.273-0.545,0.545-1.363,0.545-2.18c0-0.547-0.817-0.817-1.363-0.817
	c0.274-3.27,0.274-4.905,0.274-5.449c0-0.443,0.491-0.729,1.107-1.026c-6.55-4.527-13.941-7.888-21.874-9.913
	C17.745,21.247,6.839,37.242,4.093,59.789V70.92c0,2.588,3.105,15.008,3.105,15.27c10.203,27.724,31.239,40.591,51.871,43.714
	C60.902,128.355,62.635,126.7,64.294,124.973z M50.514,21.898c0.271,0.271,0.543,0.271,0.543,0.545c0,0-0.543,0-0.543,0.273V21.898z
	 M49.423,20.537c0.27,0,0.27,0.271,0.27,0.544C49.423,20.809,49.151,20.537,49.423,20.537z M48.062,18.902
	c0.272,0-0.272,0.543-0.272,0.818C47.79,19.445,47.79,18.902,48.062,18.902z M46.97,32.251c-1.362,1.363-1.907,1.09-2.995,2.181
	c0-0.817,1.088-1.362,1.361-2.181H46.97z M43.428,20.264c0.547,0,1.09,0.817,1.635,0.817c-0.545,0.817-1.635,1.089-2.179,1.636
	c-0.818,0.544-1.09,1.634-1.637,2.18c-0.816,0.544-1.905,0.815-2.725,1.362c-0.542-0.818-1.089-1.908-1.089-2.453
	C37.434,22.987,42.612,20.264,43.428,20.264z M15.365,63.856c0.273-0.818,0.818-1.906,1.091-2.724
	c0.271,0.817,0.816,1.634,1.907,2.452c0,0.271,0.817,0.271,0.817,0.544c0.545,1.364,1.633,1.636,2.179,1.636
	c0.272,0,1.363-0.548,1.907-1.364c2.453,0.545,5.177,0.545,7.901,0.816c0.545,0,1.089,0.548,1.361,0.821
	c0.273,0.271,0,1.628,0.817,2.45v3.81c-1.363-0.542-3.269-0.27-4.358-0.813c-0.544,0-1.362-0.819-1.908-1.637h-1.633
	c-1.363,0-4.361,0.547-4.634,3.269c-1.088-0.547-0.271-0.819-2.724-0.269v-5.995c-1.089-1.089-1.633-2.182-2.725-1.908V63.856z
	 M14.82,90.281c-0.543-1.633-1.635-3.539-2.178-5.449c-0.546-2.179-1.363-4.902-1.909-6.808c-0.272-2.453-1.09-6.812-1.09-7.358
	v-3.544h1.09c0.545,1.093,1.909,2.18,2.725,3.544c0.818,1.09,0.818,2.725,1.634,4.085c0,0.273,0.817,0,1.091,0.547
	c0.818,0.547,1.363,2.18,2.18,2.18c0.545,0,0.817-0.273,1.362-0.544c0.272,1.364,0.817,3.542,0.817,4.359
	c0,0.544-0.817,3.266-0.817,4.085c0,0.547,0.272,3.813,1.634,5.452c2.45,3.268,5.176,6.263,8.445,9.259
	c0.818,0.819,2.453,1.093,3.813,2.183c1.909,2.176,3.271,4.902,5.18,7.355c1.905,2.722,5.991,7.354,9.263,9.538
	c1.632,1.359,3.541,2.722,5.175,3.814C40.431,120.798,19.998,104.725,14.82,90.281z"/>
<path fill-rule="evenodd" clip-rule="evenodd" fill="#F79523" d="M136.814,63.009c0.113-0.543,0.247-1.084,0.247-1.635
	c0-1.132,0.309-4.063-0.177-5.152c-0.203,1.222-0.858,2.298-0.985,2.53c-5.735,10.637-33.666,18.716-67.354,18.716
	c-34.05,0-62.219-8.254-67.536-19.057c-0.059-0.121-0.869-1.426-0.666-2.849c-0.483,1.087-0.316,4.68-0.316,5.812
	c0,0.394,0.118,0.776,0.176,1.164c-0.305,1.414-0.176,4.34-0.176,5.344c0,12.563,30.676,22.742,68.518,22.742
	c37.84,0,68.516-10.18,68.516-22.742c0-1.134,0.309-4.064-0.177-5.152C136.868,62.826,136.837,62.913,136.814,63.009z"/>
<path fill-rule="evenodd" clip-rule="evenodd" fill="#FCB51E" d="M83.324,76.916c-4.766,0.348-9.692,0.552-14.779,0.552
	c-34.05,0-62.219-8.254-67.536-19.057c-0.059-0.121-0.869-1.426-0.666-2.849c-0.483,1.087-0.316,4.68-0.316,5.812
	c0,0.394,0.118,0.776,0.176,1.164c-0.305,1.414-0.176,4.34-0.176,5.344c0,12.563,30.676,22.742,68.518,22.742
	c4.666,0,9.219-0.159,13.625-0.45c0.751-4.059,1.19-8.225,1.19-12.497C83.361,77.42,83.327,77.173,83.324,76.916z"/>
</svg>
