<?xml version="1.0" encoding="utf-8"?>
<!-- Generator: Adobe Illustrator 15.0.0, SVG Export Plug-In  -->
<!DOCTYPE svg PUBLIC "-//W3C//DTD SVG 1.1//EN" "http://www.w3.org/Graphics/SVG/1.1/DTD/svg11.dtd" [
	<!ENTITY ns_flows "http://ns.adobe.com/Flows/1.0/">
]>
<svg version="1.1"
	 xmlns="http://www.w3.org/2000/svg" xmlns:xlink="http://www.w3.org/1999/xlink" xmlns:a="http://ns.adobe.com/AdobeSVGViewerExtensions/3.0/"
	 x="0px" y="0px" width="150px" height="160px" viewBox="-9.625 -23.891 150 160" enable-background="new -9.625 -23.891 150 160"
	 xml:space="preserve">
<defs>
</defs>
<path fill="#52CAF5" d="M131.75,106.574c0,5.565-4.506,10.071-10.072,10.071H10.069C4.51,116.646,0,112.14,0,106.574V10.069
	C0,4.51,4.51,0,10.069,0h111.609c5.566,0,10.072,4.51,10.072,10.069V106.574z"/>
<path fill="#3588A6" d="M0,17.411v89.163c0,5.565,4.51,10.071,10.069,10.071h76.189c0.146-2.122,0.245-4.261,0.245-6.416
	C86.503,61.034,48.335,20.783,0,17.411z"/>
<path fill="#F79523" d="M115.805,58.323c0,27.578-22.351,49.93-49.93,49.93c-27.574,0-49.93-22.352-49.93-49.93
	c0-27.576,22.355-49.931,49.93-49.931C93.454,8.393,115.805,30.747,115.805,58.323z"/>
<path fill="#C8691C" d="M29.335,24.373c-8.287,8.913-13.39,20.821-13.39,33.95c0,27.578,22.355,49.93,49.93,49.93
	c7.268,0,14.161-1.589,20.391-4.383C83.84,67.951,61.053,37.643,29.335,24.373z"/>
<path fill="#FFFFFF" d="M59.919,28.261c0-2.131,0.775-3.975,2.331-5.528c1.552-1.553,3.408-2.33,5.579-2.33
	c2.17,0,4.024,0.767,5.558,2.303c1.538,1.537,2.304,3.387,2.304,5.555c0,2.167-0.766,4.028-2.304,5.585
	c-1.533,1.552-3.388,2.33-5.558,2.33c-2.17,0-4.027-0.777-5.579-2.33C60.694,32.29,59.919,30.429,59.919,28.261z M61.379,43.71
	h13.23v46.502h-13.23V43.71z"/>
<path fill="#A7A9AC" d="M61.379,46.64v43.572h13.23V64.714C70.92,58.158,66.483,52.085,61.379,46.64z"/>
</svg>
