<?xml version="1.0" encoding="utf-8"?>
<!-- Generator: Adobe Illustrator 15.0.0, SVG Export Plug-In  -->
<!DOCTYPE svg PUBLIC "-//W3C//DTD SVG 1.1//EN" "http://www.w3.org/Graphics/SVG/1.1/DTD/svg11.dtd" [
	<!ENTITY ns_flows "http://ns.adobe.com/Flows/1.0/">
]>
<svg version="1.1"
	 xmlns="http://www.w3.org/2000/svg" xmlns:xlink="http://www.w3.org/1999/xlink" xmlns:a="http://ns.adobe.com/AdobeSVGViewerExtensions/3.0/"
	 x="0px" y="0px" width="150px" height="160px" viewBox="-11.031 -14.031 150 160" enable-background="new -11.031 -14.031 150 160"
	 xml:space="preserve">
<defs>
</defs>
<path fill="#F79523" d="M120.363,49.64c8.555-8.613,10.601-21.232,6.198-31.774l-11.243,19.252l-16.643,6.576L85.126,30.24
	l6.459-16.689L110.762,2.18C100.19-2.16,87.585-0.019,79.032,8.596c-8.089,8.144-10.342,19.86-6.839,30.029L18.532,92.654
	c-4.778-0.04-9.569,1.761-13.197,5.413c-7.146,7.198-7.109,18.828,0.09,25.975c7.192,7.147,18.822,7.107,25.969-0.089
	c3.632-3.66,5.399-8.457,5.323-13.237L90.38,56.685C100.57,60.117,112.271,57.788,120.363,49.64z M12.1,117.314
	c-2.782-2.764-2.799-7.266-0.033-10.05c2.057-2.075,5.072-2.605,7.63-1.61l4.014,3.991c1.013,2.551,0.503,5.563-1.557,7.638
	C19.391,120.067,14.888,120.081,12.1,117.314z"/>
<path fill="#C8691C" d="M36.547,99.846c-0.922,0.928-2.421,0.938-3.35,0.014l-3.784-3.757c-0.928-0.925-0.936-2.419-0.012-3.35
	L71.147,50.72c0.921-0.928,2.425-0.935,3.349-0.012l3.784,3.759c0.929,0.921,0.935,2.421,0.012,3.349L36.547,99.846z"/>
<rect x="46.835" y="62.103" transform="matrix(0.7169 0.6972 -0.6972 0.7169 65.1943 -22.0936)" fill="#FFFFFF" width="25.935" height="14.259"/>
<path fill="#3588A6" d="M126.131,113.693c5.228,4.938,5.464,13.177,0.519,18.407l0,0c-4.937,5.228-13.174,5.46-18.401,0.524
	l-31.505-32.96c-5.228-4.941-7.249-11.282-2.311-16.513l0,0c4.938-5.23,11.391-3.57,16.618,1.369L126.131,113.693z"/>
<path fill="#3588A6" d="M80.282,78.379c0.918,0.868,0.958,2.308,0.096,3.223l-7.155,7.574c-0.864,0.914-2.308,0.955-3.223,0.087l0,0
	c-0.913-0.863-0.954-2.303-0.087-3.218c0,0,2.113-1.416,4.014-3.481c1.896-2.07,3.133-4.093,3.133-4.093
	C77.928,77.556,79.371,77.517,80.282,78.379L80.282,78.379z"/>
<path fill="#52CAF5" d="M8.152,16.958l7.303,3.316l7.12,6.722l-0.523,3.091l50.855,48.042c0,0-0.228,1.013-1.43,2.285
	c-1.203,1.274-2.146,1.499-2.146,1.499L18.562,33.956l-3.098,0.655l-7.163-6.769L4.58,20.746L8.152,16.958z"/>
<path fill="#52CAF5" d="M75.543,88.305c0,0,1.173-0.633,2.332-1.856c1.157-1.224,1.574-2.278,1.574-2.278l44.883,38.537
	c0,0,0.251,3.411-1.487,5.257c-2.753,2.908-5.456,2.095-5.456,2.095L75.543,88.305z"/>
</svg>
