<?xml version="1.0" encoding="utf-8"?>
<!-- Generator: Adobe Illustrator 15.0.0, SVG Export Plug-In  -->
<!DOCTYPE svg PUBLIC "-//W3C//DTD SVG 1.1//EN" "http://www.w3.org/Graphics/SVG/1.1/DTD/svg11.dtd" [
	<!ENTITY ns_flows "http://ns.adobe.com/Flows/1.0/">
]>
<svg version="1.1"
	 xmlns="http://www.w3.org/2000/svg" xmlns:xlink="http://www.w3.org/1999/xlink" xmlns:a="http://ns.adobe.com/AdobeSVGViewerExtensions/3.0/"
	 x="0px" y="0px" width="150px" height="160px" viewBox="-6.58 -11.583 150 160" enable-background="new -6.58 -11.583 150 160"
	 xml:space="preserve">
<defs>
</defs>
<path fill="#F79523" d="M84.667,83.655c0.589,1.129,0.15,2.519-0.984,3.105l-9.313,4.852c-1.135,0.585-2.524,0.147-3.117-0.979
	l-16.47-31.672c-0.588-1.129-0.15-2.521,0.981-3.11l9.32-4.848c1.13-0.588,2.52-0.145,3.106,0.981L84.667,83.655z"/>
<polygon fill="#F79523" points="71.001,87.963 51.613,95.455 39.557,72.275 56.82,60.698 "/>
<rect x="34.071" y="77.273" transform="matrix(0.8871 -0.4617 0.4617 0.8871 -35.7655 28.0094)" fill="#F79523" width="10.581" height="19.655"/>
<path fill="#F79523" d="M95.478,47.829c0.586,1.132,0.15,2.523-0.981,3.112L78.99,59.007c-1.131,0.587-2.523,0.15-3.11-0.983
	l-0.894-1.72c-0.592-1.127-0.147-2.521,0.981-3.109l15.509-8.066c1.132-0.591,2.519-0.149,3.107,0.981L95.478,47.829z"/>
<rect x="73.243" y="51.855" transform="matrix(0.8872 -0.4613 0.4613 0.8872 -17.3924 41.7846)" fill="#F79523" width="7.06" height="9.226"/>
<path fill="#F79523" d="M105.057,66.244c0.593,1.138,0.153,2.526-0.981,3.115L88.57,77.426c-1.129,0.585-2.521,0.153-3.109-0.988
	l-0.896-1.714c-0.584-1.129-0.146-2.519,0.984-3.11l15.504-8.067c1.135-0.585,2.525-0.143,3.11,0.983L105.057,66.244z"/>
<rect x="82.824" y="70.272" transform="matrix(0.8871 -0.4616 0.4616 0.8871 -24.8159 48.3159)" fill="#F79523" width="7.058" height="9.223"/>
<rect x="12.652" y="89.447" transform="matrix(0.8797 -0.4755 0.4755 0.8797 -41.6968 23.4715)" fill="#F79523" width="25.788" height="9.416"/>
<path fill="#F79523" d="M35.895,8.24C2.659,26.203-9.723,67.711,8.24,100.945c1.114,2.063,2.318,4.044,3.605,5.941l9.087-4.912
	c-1.322-1.877-2.578-3.822-3.697-5.89C1.959,67.818,12.489,32.514,40.757,17.236c28.269-15.278,63.568-4.746,78.847,23.521
	c15.277,28.267,4.748,63.568-23.52,78.846c-16.241,8.778-34.789,8.997-50.542,2.268l-11.026,5.958
	c19.837,11.295,44.871,12.427,66.432,0.771c33.236-17.962,45.615-59.467,27.653-92.705C110.635,2.66,69.133-9.724,35.895,8.24z"/>
<path fill="#C8691C" d="M45.542,121.871l-11.026,5.958c14.122,8.04,30.878,10.898,47.14,7.688c1.094-3.607,1.954-7.316,2.564-11.111
	C71.208,128.079,57.564,127.006,45.542,121.871z"/>
<path fill="#C8691C" d="M13.972,27.014C-1.768,47.738-4.939,76.562,8.24,100.945c1.114,2.063,2.318,4.044,3.605,5.941l4.586-2.479
	l0.011,0.021l20.27-10.955l2.492,4.789l9.386-4.885l-9.069-17.433l-9.387,4.881l2.233,4.293l-16.188,8.749
	C5.578,72.127,9.767,46.783,25.16,29.601C21.529,28.494,17.793,27.628,13.972,27.014z"/>
<path fill="#C8691C" d="M71.253,90.633c0.593,1.126,1.982,1.563,3.117,0.979l7.693-4.009C78.285,74.297,71.35,62.33,62.113,52.551
	l-6.348,3.3c-1.132,0.589-1.569,1.981-0.981,3.11l1.197,2.301L39.557,72.275l12.056,23.18l18.443-7.124L71.253,90.633z"/>
</svg>
