<?xml version="1.0" encoding="utf-8"?>
<!-- Generator: Adobe Illustrator 15.0.0, SVG Export Plug-In  -->
<!DOCTYPE svg PUBLIC "-//W3C//DTD SVG 1.1//EN" "http://www.w3.org/Graphics/SVG/1.1/DTD/svg11.dtd" [
	<!ENTITY ns_flows "http://ns.adobe.com/Flows/1.0/">
]>
<svg version="1.1"
	 xmlns="http://www.w3.org/2000/svg" xmlns:xlink="http://www.w3.org/1999/xlink" xmlns:a="http://ns.adobe.com/AdobeSVGViewerExtensions/3.0/"
	 x="0px" y="0px" width="150px" height="160px" viewBox="-6.821 -26.26 150 160" enable-background="new -6.821 -26.26 150 160"
	 xml:space="preserve">
<defs>
</defs>
<path fill="#F79523" d="M117.118,38.625c0.24-1.616,0.366-3.266,0.366-4.947C117.484,15.076,102.402,0,83.803,0
	C69.949,0,58.049,8.371,52.88,20.33c-3.8-3.637-8.944-5.877-14.62-5.877c-11.669,0-21.133,9.463-21.133,21.134
	c0,1.189,0.104,2.355,0.293,3.491C7.158,43.65,0,53.934,0,65.896c0,16.207,13.143,29.348,29.355,29.348h19.375V84.338h-6.622
	c-6.394,0-8.692-3.52-9.383-5.032c-0.663-1.45-1.795-5.298,2.005-9.688l23.26-26.861c2.33-2.689,5.632-4.235,9.059-4.235
	c3.428,0,6.727,1.545,9.057,4.235l23.261,26.861c3.801,4.391,2.671,8.238,2.003,9.688c-0.688,1.513-2.988,5.032-9.382,5.032h-6.624
	v10.905h22.999v-0.077c15.22-1.08,27.245-13.771,27.245-29.271C135.609,53.521,127.953,42.946,117.118,38.625z"/>
<path fill="#52CAF5" d="M95.244,73.183L71.983,46.326c-2.713-3.134-7.154-3.134-9.867,0l-23.26,26.856
	c-2.717,3.138-1.25,5.705,3.253,5.705h12.078v20.405c0,7.104,5.76,12.859,12.863,12.859c7.103,0,12.864-5.756,12.864-12.859V78.888
	h12.075C96.494,78.888,97.959,76.32,95.244,73.183z"/>
<path fill="#3588A6" d="M71.983,46.326c-2.713-3.134-7.154-3.134-9.867,0l-23.26,26.856c-2.717,3.138-1.25,5.705,3.253,5.705h12.078
	v20.405c0,1.802,0.375,3.511,1.044,5.065c11.521-15.237,18.815-33.829,20.198-54.056L71.983,46.326z"/>
<path fill="#C8691C" d="M67.809,4.057C61.185,7.645,55.888,13.371,52.88,20.33c-3.8-3.637-8.944-5.877-14.62-5.877
	c-11.669,0-21.133,9.463-21.133,21.134c0,1.189,0.104,2.355,0.293,3.491C7.158,43.65,0,53.934,0,65.896
	c0,16.207,13.143,29.348,29.355,29.348h19.375V84.338h-6.622c-6.394,0-8.692-3.52-9.383-5.032c-0.663-1.45-1.795-5.298,2.005-9.688
	l23.26-26.861c2.33-2.689,5.632-4.235,9.059-4.235c3.232,0,6.323,1.414,8.619,3.826C75.545,28.78,72.768,15.85,67.809,4.057z"/>
</svg>
