<?xml version="1.0" encoding="utf-8"?>
<svg version="1.1"
	 xmlns="http://www.w3.org/2000/svg" xmlns:xlink="http://www.w3.org/1999/xlink"
	 x="0px" y="0px" width="28px" height="28px" viewBox="-1.5 -1.6 28 28">
<defs>
</defs>
<path fill="#F79523" d="M21.5,12.2c1.1,0,2.1,0.6,2.7,1.4c0.2,0,0.4,0,0.6,0V9.3c0-2.2-0.8-3-3-3h-4.3c0-0.1,0-0.2,0-0.3
	c0.7-0.6,1.2-1.5,1.2-2.6c0-1.9-1.5-3.4-3.4-3.4C13.6,0,12,1.5,12,3.4c0,1.1,0.6,2.1,1.4,2.7c0,0.1,0,0.1,0,0.2H9c-2.2,0-3,0.8-3,3
	v3.2c-0.6-0.7-1.5-1.2-2.5-1.2c-1.9,0-3.4,1.5-3.4,3.4c0,1.9,1.5,3.4,3.4,3.4c1,0,1.9-0.5,2.5-1.2v4.9c0,2.2,0.8,3,3,3h4.6
	c0-0.1,0-0.2,0-0.3c-0.9-0.6-1.4-1.6-1.4-2.7c0-1.9,1.5-3.4,3.4-3.4c1.9,0,3.4,1.5,3.4,3.4c0,1-0.5,1.9-1.2,2.6c0,0.1,0,0.3-0.1,0.5
	h4.2c2.2,0,3-0.8,3-3v-4c-0.3,0-0.5,0-0.8,0.1c-0.6,0.7-1.5,1.2-2.6,1.2c-1.9,0-3.4-1.5-3.4-3.4C18.1,13.8,19.6,12.2,21.5,12.2z"/>
<path fill="#C8691C" d="M21.5,12.2c1.1,0,2.1,0.6,2.7,1.4c0.2,0,0.4,0,0.6,0V9.3c0-2.2-0.8-3-3-3h-4.3c0-0.1,0-0.2,0-0.3
	c0.7-0.6,1.2-1.5,1.2-2.6c0-1.9-1.5-3.4-3.4-3.4c0,0,0,0,0,0v18.3c0,0,0.1,0,0.1,0c1.9,0,3.4,1.5,3.4,3.4c0,1-0.5,1.9-1.2,2.6
	c0,0.1,0,0.3-0.1,0.5h4.2c2.2,0,3-0.8,3-3v-4c-0.3,0-0.5,0-0.8,0.1c-0.6,0.7-1.5,1.2-2.6,1.2c-1.9,0-3.4-1.5-3.4-3.4
	S19.6,12.2,21.5,12.2z"/>
<path fill="#52CAF5" d="M11.4,17.8c0,0-7.4-1.6-8.5-7.6L0,10.7l4.4-7.6l7.3,5.3L8.6,9.2C8.6,9.2,8,14.6,11.4,17.8z"/>
</svg>
