<?xml version="1.0" encoding="utf-8"?>
<!-- Generator: Adobe Illustrator 15.0.0, SVG Export Plug-In  -->
<!DOCTYPE svg PUBLIC "-//W3C//DTD SVG 1.1//EN" "http://www.w3.org/Graphics/SVG/1.1/DTD/svg11.dtd" [
	<!ENTITY ns_flows "http://ns.adobe.com/Flows/1.0/">
]>
<svg version="1.1"
	 xmlns="http://www.w3.org/2000/svg" xmlns:xlink="http://www.w3.org/1999/xlink" xmlns:a="http://ns.adobe.com/AdobeSVGViewerExtensions/3.0/"
	 x="0px" y="0px" width="48px" height="48px" viewBox="0 -1.906 48 48" enable-background="new 0 -1.906 48 48"
	 xml:space="preserve">
<defs>
</defs>
<path d="M9.217,12.854c-0.2-0.4-0.5-0.7-1-0.8c-0.2,0-0.4-0.101-0.6-0.101c-0.5,0-0.9,0.2-1.2,0.5c-1.2,1.2-1.4,4.301-0.6,7.101
	c0.1,0.5,0.3,1,0.5,1.4C8.217,17.854,9.817,14.453,9.217,12.854z"/>
<path d="M0,3.087v41.101h20.2l12-10.2v-30.9H0z M14.117,25.454c-0.9,0.8-2.3,1-4.4,0.399c-1.3-0.3-2.5-1.2-3.5-2.6
	c-1.3,2-2.5,3.6-2.8,4l-0.9-0.7c0.8-1,1.9-2.6,3-4.4c-0.3-0.699-0.6-1.399-0.9-2.3c-0.9-3.3-0.6-6.7,0.9-8.2c0.8-0.8,1.8-1,2.9-0.7
	c0.9,0.2,1.5,0.801,1.8,1.601c0.8,2.2-1.3,6.399-3.4,9.7c0.8,1.3,1.9,2.2,3.2,2.6c1.7,0.4,2.8,0.4,3.4-0.2
	c1-0.899,0.6-3.6,0.1-6.399c-0.1-0.5-0.2-1-0.2-1.5l1.1-0.2c0.1,0.5,0.2,1,0.2,1.5C15.117,21.354,15.617,24.153,14.117,25.454z"/>
<polygon fill="#FFFFFF" points="41.777,0 6.521,32.284 21.772,29.313 48,10.695 "/>
<path d="M22.6,22.087l-2.3,1.9c0.1,0.1,0.1,0.2,0.1,0.3c0,0.3-0.2,0.5-0.5,0.5c-0.1,0-0.3-0.1-0.4-0.2l-4.3,3.601
	c1.5-1.101,5.6-1.3,5.6-1.3l3.5-2.4L22.6,22.087z"/>
<rect x="22.922" y="21.601" transform="matrix(-0.7583 0.652 -0.652 -0.7583 56.2539 25.6443)" width="0.9" height="3.301"/>
<polygon points="22.8,21.888 30.3,14.787 32.7,17.688 24.7,23.987 "/>
<polygon points="30.3,14.787 42.9,2.787 42.9,9.587 32.7,17.688 "/>
</svg>
