<?xml version="1.0" encoding="utf-8"?>
<!-- Generator: Adobe Illustrator 15.0.0, SVG Export Plug-In  -->
<!DOCTYPE svg PUBLIC "-//W3C//DTD SVG 1.1//EN" "http://www.w3.org/Graphics/SVG/1.1/DTD/svg11.dtd" [
	<!ENTITY ns_flows "http://ns.adobe.com/Flows/1.0/">
]>
<svg version="1.1"
	 xmlns="http://www.w3.org/2000/svg" x="0px" y="0px" width="48px" height="48px" viewBox="-2.033 -2.306 48 48">
<defs>
</defs>
<path d="M21.872,0C11.542,0,2.958,7.376,1.049,17.147c-0.061,0.309,3.777,0,3.777,0v-3.234c0-1.984,2.321-3.126,4.307-3.126
	c1.984,0,3.961,1.14,3.961,3.126v3.142l3.593-0.001c0.086,0,0.167,0.02,0.252,0.026V8.681l15.259,12.563L16.94,33.811v-7.582
	c-0.085,0.006-0.166,0.025-0.252,0.025h-3.48v3.14c-0.001,1.983-1.944,3.17-3.926,3.17c-1.982,0-4.295-1.187-4.296-3.171v-3.074
	c0,0-3.69,0.094-3.699,0.14c2.325,9.21,10.654,16.029,20.585,16.029c11.733,0,21.244-9.511,21.244-21.244
	C43.115,9.511,33.604,0,21.872,0z"/>
<path d="M8.949,30.601c-1.377,0-2.5-1.121-2.5-2.499l0.001-3.949H2.5C1.121,24.152,0,23.03,0,21.652s1.123-2.5,2.501-2.5
	l3.949,0.001l-0.001-3.951c0-1.378,1.122-2.5,2.501-2.5c1.377,0,2.499,1.121,2.5,2.499v3.951l3.949-0.001
	c1.376,0.001,2.498,1.122,2.5,2.499c0,1.38-1.122,2.502-2.5,2.502H11.45v3.949C11.449,29.48,10.327,30.601,8.949,30.601z"/>
</svg>
