<?xml version="1.0" encoding="utf-8"?>
<!-- Generator: Adobe Illustrator 15.0.0, SVG Export Plug-In  -->
<!DOCTYPE svg PUBLIC "-//W3C//DTD SVG 1.1//EN" "http://www.w3.org/Graphics/SVG/1.1/DTD/svg11.dtd" [
	<!ENTITY ns_flows "http://ns.adobe.com/Flows/1.0/">
]>
<svg version="1.1"
	 xmlns="http://www.w3.org/2000/svg" x="0px" y="0px" width="48px" height="48px" viewBox="-3.9 -5.55 48 48">
<defs>
</defs>
<path d="M36.901,0H3.3C1.5,0,0,1.4,0,3.2v12.867l10.806-7.71l10.362,8.29l14.508-7.536L40.2,12.63V3.2C40.2,1.4,38.7,0,36.901,0z
	 M22.4,14.2c-2.1,0-3.9-1.7-3.9-3.9c0-2.1,1.7-3.9,3.9-3.9c2.101,0.1,3.899,1.8,3.899,3.9C26.299,12.4,24.6,14.2,22.4,14.2z"/>
<path d="M35.6,12.1l-14.9,7.5l-9.9-7.9L0,18.9V19v14.7c0,1.8,1.5,3.2,3.3,3.2h33.601c1.799,0,3.299-1.4,3.299-3.2V15.6L35.6,12.1z
	 M28.6,31.3h-4.7v4.4h-6.3v-4.4H13l-3.6-3L13,24.9h4.6v-4.8h6.3v4.8h4.7V31.3z"/>
</svg>
