<?xml version="1.0" encoding="utf-8"?>
<!DOCTYPE svg PUBLIC "-//W3C//DTD SVG 1.1//EN" "http://www.w3.org/Graphics/SVG/1.1/DTD/svg11.dtd" [
	<!ENTITY ns_flows "http://ns.adobe.com/Flows/1.0/">
]>
<svg version="1.1"
	 xmlns="http://www.w3.org/2000/svg" x="0px" y="0px" width="48px" height="48px" viewBox="-3.023 -2.756 48 48">
<defs>
</defs>
<polygon points="1.074,8.402 0,5.488 5.591,3.428 6.666,6.342 6.666,6.342 14.689,28.096 14.689,28.096 14.689,28.096 
	14.705,28.139 14.684,28.146 14.271,31.826 11.953,32.676 9.136,30.191 9.115,30.201 9.1,30.16 9.1,30.16 9.1,30.16 1.076,8.402 "/>
<polygon points="14.249,32.455 13.985,34.787 12.219,33.205 "/>
<path d="M22.307,0C16.714,0,11.641,2.178,7.847,5.712l8.12,21.985l-1.055,10.489l-7.134-7.35L2.021,14.921
	c-0.622,1.998-0.958,4.121-0.958,6.323c0,11.733,9.511,21.244,21.243,21.244c11.733,0,21.244-9.511,21.244-21.244
	C43.551,9.512,34.04,0,22.307,0z M17.375,33.812V8.681l15.259,12.563L17.375,33.812z"/>
</svg>
