<?xml version="1.0" encoding="utf-8"?>
<!-- Generator: Adobe Illustrator 15.0.0, SVG Export Plug-In  -->
<!DOCTYPE svg PUBLIC "-//W3C//DTD SVG 1.1//EN" "http://www.w3.org/Graphics/SVG/1.1/DTD/svg11.dtd" [
	<!ENTITY ns_flows "http://ns.adobe.com/Flows/1.0/">
]>
<svg version="1.1"
	 xmlns="http://www.w3.org/2000/svg" xmlns:xlink="http://www.w3.org/1999/xlink" xmlns:a="http://ns.adobe.com/AdobeSVGViewerExtensions/3.0/"
	 x="0px" y="0px" width="48px" height="48px" viewBox="-2.465 -2.578 48 48"
	 xml:space="preserve">
<defs>
</defs>
<path d="M39.771,0H6.17C4.371,0,2.871,1.399,2.871,3.2v2.082l6.344,2.785l0.034-0.028l0.056,0.064l1.771,2.109l2.602-1.855
	l10.362,8.29l14.508-7.536l4.523,3.519V3.2C43.07,1.399,41.57,0,39.771,0z M25.271,14.2c-2.101,0-3.899-1.7-3.899-3.9
	c0-2.1,1.699-3.9,3.899-3.9C27.371,6.5,29.17,8.2,29.17,10.3S27.471,14.2,25.271,14.2z"/>
<polygon points="29.004,34.297 31.752,37.572 25.467,42.844 22.719,39.568 22.719,39.568 2.201,15.118 2.201,15.118 2.201,15.118 
	2.162,15.071 2.186,15.052 1.008,10.095 3.615,7.911 8.42,9.819 8.443,9.8 8.482,9.845 8.482,9.845 8.482,9.845 29.002,34.298 "/>
<polygon points="0.744,9.269 0,6.124 3.025,7.353 "/>
<path d="M2.961,18.839l-0.09,0.061V19v14.7c0,1.799,1.5,3.199,3.299,3.199h11.947L2.961,18.839z"/>
<path d="M38.471,12.1l-14.9,7.501l-9.9-7.9l-0.864,0.576l20.662,24.623h6.304c1.799,0,3.299-1.4,3.299-3.199V15.6L38.471,12.1z"/>
</svg>
