<?xml version="1.0" encoding="utf-8"?>
<!-- Generator: Adobe Illustrator 15.0.0, SVG Export Plug-In  -->
<!DOCTYPE svg PUBLIC "-//W3C//DTD SVG 1.1//EN" "http://www.w3.org/Graphics/SVG/1.1/DTD/svg11.dtd" [
	<!ENTITY ns_flows "http://ns.adobe.com/Flows/1.0/">
]>
<svg version="1.1"
	 xmlns="http://www.w3.org/2000/svg" x="0px" y="0px" width="48px" height="48px" viewBox="-0.783 -5.592 48 48">
<defs>
</defs>
<polygon points="43.811,26.889 46.434,30.014 40.436,35.045 37.813,31.92 37.813,31.92 18.229,8.584 18.229,8.584 18.229,8.584 
	18.191,8.539 18.215,8.521 17.091,3.79 19.579,1.706 24.166,3.526 24.188,3.508 24.225,3.552 24.225,3.552 24.225,3.552 
	43.809,26.889 "/>
<polygon points="16.839,3.002 16.129,0 19.017,1.173 "/>
<path d="M14.248,10.278l-0.146-0.905H8.444C3.78,9.373,0,13.154,0,17.817v10.555c0,4.663,3.78,8.444,8.444,8.444h17.942
	c2.918,0,5.488-1.479,7.006-3.729L14.248,10.278z M15.759,26.795v-7.756l4.358,3.847L15.759,26.795z"/>
</svg>
