<?xml version="1.0" encoding="utf-8"?>
<svg version="1.1"
	 xmlns="http://www.w3.org/2000/svg" xmlns:xlink="http://www.w3.org/1999/xlink"
	 x="0px" y="0px" width="48px" height="48px" viewBox="-4.25 -4.25 48 48">
<defs>
</defs>
<polygon fill="#3588A6" points="3.282,16.889 0.984,19.533 3.291,19.533 "/>
<polygon fill="#3588A6" points="33.953,16.842 36.25,19.486 33.944,19.486 "/>
<circle fill="#F79523" cx="19.875" cy="19.875" r="19.875"/>
<path fill="#C8691C" d="M19.875,0c-1.848,0-3.628,0.271-5.326,0.743l12.815,37.535C34.626,35.32,39.75,28.2,39.75,19.875
	C39.75,8.898,30.852,0,19.875,0z"/>
<path fill="#FFFFFF" d="M14.253,16.22c0.793,0.806,1.001,1.733,1.001,3.503v6.946c0,0.806,0.195,1.185,0.769,1.185
	c0.452,0,0.781-0.232,1.123-0.525l0.281,0.428c-0.696,0.524-1.221,0.915-2.283,0.915c-1.746,0-2.148-1.05-2.148-2.222
	c-1.074,1.77-2.649,2.222-3.845,2.222c-1.672,0-3.174-0.843-3.174-2.796c0-1.977,1.526-2.855,4.028-3.906
	c1.672-0.695,2.991-1.123,2.991-2.124v-1.55c0-2.1-1.025-2.515-2.319-2.515c-0.854,0-1.904,0.171-2.478,0.891
	c0.623,0.159,1.172,0.708,1.172,1.526c0,0.854-0.574,1.355-1.465,1.355c-0.854,0-1.355-0.647-1.355-1.55
	c0-0.732,0.476-1.306,1.172-1.782c0.708-0.464,1.904-0.94,3.503-0.94C12.629,15.28,13.679,15.646,14.253,16.22z M12.996,20.871
	c-0.269,0.402-0.818,0.658-2.393,1.428c-1.099,0.525-2.429,1.245-2.429,3.174c0,1.502,0.854,2.197,2.002,2.197
	c1.001,0,1.978-0.525,2.82-1.893V20.871z"/>
<path fill="#D1D3D4" d="M29.494,27.871c1.978,0,3.26-1.123,3.479-4.016h0.574c0,2.148,0.024,3.564,0.098,4.492
	c-1.465-0.073-3.064-0.098-4.639-0.098c-1.685,0-3.455,0.049-5.054,0.122l7.227-12.622H28.42c-2.222,0-3.247,1.123-3.467,4.028
	h-0.574c0-2.148-0.023-3.577-0.109-4.504c1.477,0.073,3.076,0.098,4.65,0.098c1.686,0,3.455-0.049,5.055-0.122l-7.227,12.622H29.494
	z"/>
<path fill="#52CAF5" d="M24.769,11.946c0.181,0.105,1.946-2.086,1.956-2.242c-5.443-3.184-12.366-1.543-15.848,3.607
	C14.623,9.994,20.215,9.282,24.769,11.946z"/>
<polygon fill="#52CAF5" points="27.583,8.318 23.13,13.188 28.14,12.632 "/>
<rect x="17.524" y="21.301" fill="#FFFFFF" width="6.991" height="1.941"/>
<polygon fill="#D1D3D4" points="22.23,23.242 24.515,23.242 24.515,21.301 21.567,21.301 "/>
</svg>
