<?xml version="1.0" encoding="utf-8"?>
<svg version="1.1"
	 xmlns="http://www.w3.org/2000/svg" xmlns:xlink="http://www.w3.org/1999/xlink"
	 x="0px" y="0px" width="48px" height="48px" viewBox="-7.762 -3.583 48 48">
<defs>
</defs>
<path fill="#E6E7E8" d="M32.292,22.357c0,2.65-2.148,4.796-4.798,4.796L5.771,27.294c-2.65,0-4.797-2.146-4.797-4.796V5.368
	c0-2.65,0.352-4.727,4.797-4.798l21.724-0.14c2.649,0,4.798,2.148,4.798,4.797V22.357z"/>
<path fill="#F79523" d="M32.476,37.511c0,1.789-1.449,3.239-3.238,3.239H4.95c-1.789,0-1.08-1.45-1.08-3.239V9.445
	c0-1.789-0.496-2.985,1.292-2.985h23.208c1.788,0,4.105,1.197,4.105,2.985V37.511z"/>
<path fill="#C8691C" d="M27.349,0.54c0,0.298-0.131,0.54-0.292,0.54H5.511c-0.161,0-0.291-0.241-0.291-0.54l0,0
	C5.22,0.241,5.35,0,5.511,0h21.546C27.218,0,27.349,0.241,27.349,0.54L27.349,0.54z"/>
<path fill="#C8691C" d="M32.24,7.294c0,0,0.305-3.43-0.804-5.146c-1.504-2.329-4.362-2.118-4.362-2.118v1.038
	c0,0,2.646-0.085,3.868,1.521C32.4,4.502,32.24,7.294,32.24,7.294z"/>
<path fill="#C8691C" d="M5.492,0.045c0,0-5.194-0.303-5.127,3.458C0.432,7.331,5.068,6.46,5.068,6.46S1.569,6.432,1.562,3.898
	C1.552,0.922,5.56,1.107,5.56,1.107L5.492,0.045z"/>
<path fill="#C8691C" d="M0.379,3.846L0.007,38.037c0,0-0.15,1.353,0.901,2.103c1.051,0.752,4.056,0.602,4.056,0.602L5.076,6.46
	C5.076,6.46,0.901,7.229,0.379,3.846z"/>
<path fill="#939598" d="M16.998,3.915c0,0,11.273-0.929,12.815,0.144c1.54,1.073,1.742,2.279,1.742,2.279s-0.469-1.005-2.01-1.676
	C28.002,3.992,16.998,3.915,16.998,3.915z"/>
<circle fill="#52CAF5" cx="18.828" cy="19.375" r="9.443"/>
<path fill="#F1F2F2" d="M22.428,19.903c0.015,0.046,0.026,0.091,0.026,0.137c0,0.654-1.563,1.187-3.492,1.187
	c-1.927,0-3.49-0.533-3.49-1.187c0-0.046,0.01-0.091,0.025-0.137c-1.511,0.986-2.582,2.592-2.837,4.465h12.607
	C25.009,22.495,23.94,20.889,22.428,19.903z"/>
<ellipse fill="#F1F2F2" cx="18.963" cy="16.7" rx="3.029" ry="3.186"/>
<path fill="#FFFFFF" d="M18.04,21.182c-1.479-0.137-2.567-0.596-2.567-1.142c0-0.046,0.01-0.091,0.025-0.137
	c-1.511,0.986-2.582,2.592-2.837,4.465h7.294L18.04,21.182z"/>
</svg>
