<?xml version="1.0" encoding="utf-8"?>
<svg version="1.1"
	 xmlns="http://www.w3.org/2000/svg" xmlns:xlink="http://www.w3.org/1999/xlink"
	 x="0px" y="0px" width="48px" height="48px" viewBox="0 0 48 48">
<defs>
</defs>
<path fill="#F89624" d="M42.028,12.722H6.014c-1.25,0-2.263,1.015-2.263,2.264v21.737c0,1.251,1.013,2.263,2.263,2.263h36.014
	c1.251,0,2.263-1.012,2.263-2.263V14.986C44.291,13.737,43.28,12.722,42.028,12.722z M43.019,35.788
	c0,1.109-0.751,1.864-1.861,1.864H6.934c-1.108,0-1.917-0.627-1.917-1.737L5.012,16.079c0-1.109-0.122-2.007,0.986-2.007h36.047
	c1.111,0,0.987,0.897,0.987,2.007L43.019,35.788L43.019,35.788z"/>
<path fill="#C86B28" d="M42.028,12.722H17.67l0.944,1.349h23.43c1.111,0,0.987,0.899,0.987,2.008l-0.014,19.709
	c0,1.109-0.751,1.864-1.861,1.864L33.5,37.638l0.943,1.349h7.585c1.251,0,2.263-1.012,2.263-2.263V14.986
	C44.291,13.737,43.28,12.722,42.028,12.722z"/>
<path fill="#F89624" d="M40.731,31.51c-0.07-0.087-0.134-0.18-0.216-0.262l-4.709-4.71c-1.441-1.44-3.776-1.44-5.217,0l-2.245,2.246
	l-5.183-5.187c-2.274-2.273-5.961-2.273-8.235,0l-7.435,7.435c-0.148,0.151-0.261,0.318-0.391,0.478H40.731z"/>
<circle fill="#F89624" cx="12.933" cy="18.757" r="2.469"/>
<path fill="#C86B28" d="M30.779,31.51h9.952c-0.072-0.087-0.134-0.18-0.217-0.262l-4.708-4.71c-1.441-1.44-3.776-1.44-5.217,0
	L28.629,28.5L30.779,31.51z"/>
<path fill="#F89624" d="M8.59,12.638v-0.902c0-1.109-0.123-2.008,0.985-2.008H39.49c1.108,0,0.986,0.899,0.986,2.008v0.902h1.261
	v-1.995c0-1.25-1.014-2.264-2.265-2.264H9.592c-1.249,0-2.263,1.014-2.263,2.264v1.995H8.59z"/>
<path fill="#C86B28" d="M39.473,8.379H15.928l0.774,1.348H39.49c1.108,0,0.986,0.899,0.986,2.008v0.902h1.261v-1.995
	C41.739,9.394,40.724,8.379,39.473,8.379z"/>
<polygon fill="#56CAF5" points="4.944,28.86 0.607,24.526 4.944,20.19 "/>
<polygon fill="#3689A6" points="43.056,28.838 47.393,24.503 43.056,20.166 "/>
</svg>
