<?xml version="1.0" encoding="utf-8"?>
<!-- Generator: Adobe Illustrator 15.0.0, SVG Export Plug-In  -->
<!DOCTYPE svg PUBLIC "-//W3C//DTD SVG 1.1//EN" "http://www.w3.org/Graphics/SVG/1.1/DTD/svg11.dtd" [
	<!ENTITY ns_flows "http://ns.adobe.com/Flows/1.0/">
]>
<svg version="1.1"
	 xmlns="http://www.w3.org/2000/svg" xmlns:xlink="http://www.w3.org/1999/xlink" xmlns:a="http://ns.adobe.com/AdobeSVGViewerExtensions/3.0/"
	 x="0px" y="0px" width="150px" height="160px" viewBox="-4.136 -38.901 150 160" enable-background="new -4.136 -38.901 150 160"
	 xml:space="preserve">
<defs>
</defs>
<path display="none" fill="#FFFFFF" d="M70.598,43.868c-1.094,0-1.47-0.884-1.802-1.665c-0.307-0.724-0.573-1.35-1.305-1.375
	c-0.015-0.001-0.029-0.001-0.044-0.001c-1.568,0-2.702,2.844-2.712,2.874l-0.318-0.124c0.05-0.128,1.264-3.158,3.086-3.089
	c0.949,0.032,1.284,0.82,1.608,1.582c0.318,0.75,0.619,1.459,1.487,1.459c0.778,0,1.012-1.43,1.238-2.814
	c0.272-1.659,0.55-3.38,1.819-3.268c2.252,0.188,3.27,5.978,3.313,6.224l-0.336,0.059c-0.276-1.607-1.354-5.805-3.006-5.942
	c-0.944-0.084-1.207,1.478-1.452,2.984C71.912,42.364,71.666,43.868,70.598,43.868z"/>
<path fill="#F79523" d="M125.48,9.651h-109.1c-3.786,0-6.854,3.072-6.854,6.857v58.835c0,3.789,3.068,6.855,6.854,6.855h109.1
	c3.788,0,6.857-3.066,6.857-6.855V16.508C132.338,12.723,129.269,9.651,125.48,9.651z M128.52,72.033
	c0,3.361,0.374,6.082-2.988,6.082H16.329c-3.356,0-2.984-2.721-2.984-6.082V19.822c0-3.362-0.372-6.085,2.984-6.085h109.202
	c3.362,0,2.988,2.723,2.988,6.085V72.033z"/>
<path fill="#C8691C" d="M125.48,9.651H51.69l2.859,4.085h70.981c3.362,0,2.988,2.723,2.988,6.085v52.211
	c0,3.361,0.374,6.082-2.988,6.082H99.641l2.86,4.084h22.979c3.788,0,6.857-3.066,6.857-6.855V16.508
	C132.338,12.723,129.269,9.651,125.48,9.651z"/>
<path fill="#F79523" d="M121.549,66.566c-0.217-0.262-0.402-0.547-0.649-0.795L106.631,51.5c-4.362-4.361-11.441-4.361-15.804,0
	l-6.801,6.805L68.324,42.595c-6.888-6.886-18.057-6.886-24.946,0L20.855,65.119c-0.451,0.453-0.791,0.961-1.183,1.447H121.549z"/>
<circle fill="#F79523" cx="37.337" cy="27.931" r="7.481"/>
<path fill="#C8691C" d="M91.398,66.566h30.15c-0.217-0.262-0.402-0.547-0.649-0.795L106.631,51.5
	c-4.362-4.361-11.441-4.361-15.804,0l-5.942,5.945L91.398,66.566z"/>
<path fill="#F79523" d="M24.181,12.9v-2.729c0-3.362-0.371-6.086,2.985-6.086h90.625c3.362,0,2.987,2.724,2.987,6.086V12.9h3.818
	V6.857c0-3.786-3.069-6.857-6.857-6.857H27.217c-3.785,0-6.854,3.072-6.854,6.857V12.9H24.181z"/>
<path fill="#C8691C" d="M117.739,0H46.41l2.346,4.084h69.035c3.362,0,2.987,2.724,2.987,6.086V12.9h3.818V6.857
	C124.597,3.072,121.527,0,117.739,0z"/>
<polygon fill="#52CAF5" points="13.137,58.542 0,45.408 13.137,32.272 "/>
<polygon fill="#3588A6" points="128.591,58.472 141.729,45.337 128.591,32.2 "/>
</svg>
