<?xml version="1.0" encoding="utf-8"?>
<svg version="1.1"
	 xmlns="http://www.w3.org/2000/svg" xmlns:xlink="http://www.w3.org/1999/xlink"
	 x="0px" y="0px" width="48px" height="48px" viewBox="-6.613 -4.833 48 48">
<defs>
</defs>
<path fill="#3588A6" d="M15.749,39.68c-0.041,0.01-8.438,0-11.039,0C2.107,39.68,0,37.572,0,34.97V24.877
	c0-2.602,1.053-4.71,3.656-4.71h7.384c2.601,0,4.709,2.108,4.709,4.71V39.68z"/>
<path fill="#52CAF5" d="M4.71,39.68C2.107,39.68,0,37.572,0,34.97v-2.164c0,0,0.804,3.824,2.386,5.143s4.219,0.659,4.219,0.659
	s-0.613,0.568-0.939,0.726C5.339,39.49,4.71,39.68,4.71,39.68z"/>
<path fill="#FCB51E" d="M4.726,39.67c0.548,0,1.516,0.009,1.516,0.009S9.704,38.728,9.437,35L9.421,0.135H8.44l0.015,33.771
	C8.637,38.498,4.726,39.67,4.726,39.67"/>
<path fill="#F79523" d="M9.42,0v34.97c0,2.096-1.377,4.1-3.271,4.71h21.758c0,0,4.241,0.555,6.012-1.848
	c1.716-2.33,1.582-5.274,1.582-5.274V0H9.42z"/>
<rect x="11.718" y="3.073" fill="#C8691C" width="21.463" height="7.849"/>
<rect x="12.1" y="14.611" fill="#C8691C" width="9.141" height="1.582"/>
<rect x="12.1" y="18.83" fill="#C8691C" width="9.141" height="1.583"/>
<rect x="12.1" y="23.049" fill="#C8691C" width="9.141" height="1.582"/>
<rect x="12.1" y="27.269" fill="#C8691C" width="9.141" height="1.582"/>
<rect x="23.702" y="14.611" fill="#C8691C" width="9.142" height="1.582"/>
<rect x="23.702" y="18.83" fill="#C8691C" width="9.142" height="1.583"/>
<rect x="23.702" y="23.049" fill="#C8691C" width="9.142" height="1.582"/>
<rect x="23.702" y="27.269" fill="#C8691C" width="9.142" height="1.582"/>
</svg>
