<?xml version="1.0" encoding="utf-8"?>
<svg version="1.1"
	 xmlns="http://www.w3.org/2000/svg" xmlns:xlink="http://www.w3.org/1999/xlink"
	 x="0px" y="0px" width="48px" height="48px" viewBox="-4.25 -2.917 48 48">
<defs>
</defs>
<circle fill="#F79523" cx="11.252" cy="11.252" r="11.252"/>
<path fill="#C8691C" d="M11.252,0c-1.046,0-2.054,0.154-3.015,0.42l7.255,21.25c4.111-1.674,7.012-5.706,7.012-10.418
	C22.504,5.038,17.466,0,11.252,0z"/>
<path fill="#D1D3D4" d="M12.332,14.745H9.935c-0.006-0.344-0.009-0.554-0.009-0.629c0-0.777,0.128-1.417,0.385-1.918
	c0.257-0.501,0.771-1.065,1.542-1.692c0.771-0.626,1.231-1.037,1.382-1.231c0.232-0.307,0.348-0.646,0.348-1.015
	c0-0.514-0.206-0.954-0.616-1.321c-0.411-0.366-0.964-0.55-1.659-0.55c-0.67,0-1.231,0.191-1.683,0.574
	C9.174,7.344,8.864,7.927,8.694,8.71L6.269,8.41c0.069-1.122,0.547-2.074,1.434-2.857s2.051-1.175,3.492-1.175
	c1.517,0,2.723,0.396,3.619,1.189c0.896,0.792,1.344,1.715,1.344,2.768c0,0.583-0.164,1.134-0.493,1.654
	c-0.329,0.521-1.033,1.229-2.11,2.125c-0.558,0.464-0.904,0.836-1.039,1.119S12.32,14.019,12.332,14.745z M9.935,18.298v-2.641
	h2.642v2.641H9.935z"/>
<path fill="#FFFFFF" d="M9.648,4.555C8.896,4.74,8.247,5.072,7.703,5.552C6.816,6.335,6.338,7.288,6.269,8.41L8.694,8.71
	c0.169-0.783,0.479-1.366,0.931-1.748c0.211-0.179,0.448-0.312,0.707-0.407L9.648,4.555z"/>
<rect x="9.935" y="15.657" fill="#FFFFFF" width="2.642" height="2.641"/>
<path fill="#FFFFFF" d="M12.332,14.745c-0.012-0.727,0.049-1.231,0.184-1.513c0.015-0.031,0.042-0.067,0.062-0.1l-0.857-2.511
	c-0.692,0.58-1.168,1.107-1.409,1.577c-0.257,0.501-0.385,1.141-0.385,1.918c0,0.075,0.003,0.285,0.009,0.629H12.332z"/>
<path fill="#52CAF5" d="M39.675,38.872c0,1.104-0.896,2-2,2H17.29c-1.104,0-2-0.896-2-2V12.461c0-1.104,0.896-2,2-2h20.385
	c1.104,0,2,0.896,2,2V38.872z"/>
<rect x="19.206" y="18.822" fill="#FFFFFF" width="3.382" height="3.916"/>
<rect x="25.08" y="20.068" fill="#FFFFFF" width="11.747" height="1.424"/>
<rect x="19.206" y="25.822" fill="#FFFFFF" width="3.382" height="3.916"/>
<rect x="25.08" y="27.067" fill="#FFFFFF" width="11.747" height="1.425"/>
<rect x="19.206" y="32.822" fill="#FFFFFF" width="3.382" height="3.916"/>
<rect x="25.08" y="34.067" fill="#FFFFFF" width="11.747" height="1.425"/>
<path fill="#3588A6" d="M21.361,10.621c0.031,1.465,1.224,2.646,2.697,2.646h7.341c1.474,0,2.665-1.181,2.697-2.646H21.361z"/>
<circle fill="#3588A6" cx="27.829" cy="10.841" r="1.804"/>
</svg>
