<?xml version="1.0" encoding="utf-8"?>
<!-- Generator: Adobe Illustrator 15.0.0, SVG Export Plug-In  -->
<!DOCTYPE svg PUBLIC "-//W3C//DTD SVG 1.1//EN" "http://www.w3.org/Graphics/SVG/1.1/DTD/svg11.dtd" [
	<!ENTITY ns_flows "http://ns.adobe.com/Flows/1.0/">
]>
<svg version="1.1"
	 xmlns="http://www.w3.org/2000/svg" x="0px" y="0px" width="48px" height="48px" viewBox="-3.425 -3.425 48 48">
<defs>
</defs>
<path d="M16.729,21.075v9.51c0.666,0.111,1.554,0.148,2.701,0.148c3.33,0,6.4-1.223,6.4-4.848c0-3.368-2.922-4.811-6.437-4.811
	H16.729z"/>
<path d="M20.575,0C9.212,0,0,9.212,0,20.575C0,31.938,9.212,41.15,20.575,41.15S41.15,31.938,41.15,20.575
	C41.15,9.212,31.938,0,20.575,0z M20.577,39.594c-10.487,0-19.019-8.531-19.019-19.019c0-6.934,3.776-13.32,9.854-16.667
	l0.482,0.876c-5.759,3.171-9.336,9.222-9.336,15.791c0,9.936,8.083,18.019,18.019,18.019c3.609,0,7.093-1.063,10.075-3.076
	l0.559,0.828C28.063,38.471,24.387,39.594,20.577,39.594z M29.234,25.923c0,2.146-0.85,3.811-2.145,4.994
	c-1.703,1.592-4.515,2.332-8.585,2.332c-2.22,0-3.922-0.148-4.996-0.297V8.457c1.406-0.333,3.664-0.555,5.884-0.555
	c3.219,0,5.291,0.555,6.808,1.813c1.295,0.962,2.109,2.442,2.109,4.403c0,2.442-1.629,4.551-4.219,5.476v0.111
	C26.459,20.26,29.234,22.222,29.234,25.923z M31.393,36.21l-0.57-0.822c4.865-3.374,7.77-8.911,7.77-14.813
	c0-9.935-8.082-18.018-18.017-18.018c-2.912,0-5.813,0.719-8.39,2.078L11.719,3.75c2.72-1.435,5.783-2.193,8.856-2.193
	c10.485,0,19.017,8.531,19.017,19.018C39.592,26.804,36.526,32.648,31.393,36.21z"/>
<path d="M19.578,10.381c-1.48,0-2.332,0.111-2.85,0.222v8.066h2.923c3.368,0,5.366-1.813,5.366-4.218
	C25.018,11.565,22.834,10.381,19.578,10.381z"/>
</svg>
