<?xml version="1.0" encoding="utf-8"?>
<!-- Generator: Adobe Illustrator 15.0.0, SVG Export Plug-In  -->
<!DOCTYPE svg PUBLIC "-//W3C//DTD SVG 1.1//EN" "http://www.w3.org/Graphics/SVG/1.1/DTD/svg11.dtd" [
	<!ENTITY ns_flows "http://ns.adobe.com/Flows/1.0/">
]>
<svg version="1.1"
	 xmlns="http://www.w3.org/2000/svg" xmlns:xlink="http://www.w3.org/1999/xlink" xmlns:a="http://ns.adobe.com/AdobeSVGViewerExtensions/3.0/"
	 x="0px" y="0px" width="48px" height="48px" viewBox="-3.425 -3.425 48 48"
	 xml:space="preserve">
<defs>
</defs>
<path d="M20.575,0C9.212,0,0,9.212,0,20.575C0,31.938,9.212,41.15,20.575,41.15S41.15,31.938,41.15,20.575
	C41.15,9.212,31.938,0,20.575,0z M20.577,39.594c-10.487,0-19.019-8.531-19.019-19.019c0-6.934,3.776-13.32,9.854-16.667
	l0.482,0.876c-5.759,3.171-9.336,9.222-9.336,15.791c0,9.936,8.083,18.019,18.019,18.019c3.609,0,7.093-1.063,10.075-3.076
	l0.559,0.828C28.063,38.471,24.387,39.594,20.577,39.594z M21.484,30.435c2.108,0,3.551-0.296,4.291-0.666v-7.438h-5.031V19.74
	h8.213v11.989c-1.441,0.556-4.328,1.369-7.695,1.369c-3.774,0-6.882-0.962-9.324-3.293c-2.146-2.072-3.479-5.403-3.479-9.288
	c0-7.438,5.144-12.877,13.506-12.877c2.887,0,5.18,0.629,6.254,1.147l-0.814,2.627c-1.332-0.629-2.998-1.073-5.514-1.073
	c-6.068,0-10.027,3.774-10.027,10.028C11.863,26.697,15.638,30.435,21.484,30.435z M31.393,36.21l-0.57-0.822
	c4.865-3.374,7.77-8.911,7.77-14.813c0-9.935-8.082-18.018-18.017-18.018c-2.912,0-5.813,0.719-8.39,2.078L11.719,3.75
	c2.72-1.435,5.783-2.193,8.856-2.193c10.485,0,19.017,8.531,19.017,19.018C39.592,26.804,36.526,32.648,31.393,36.21z"/>
</svg>
