<?xml version="1.0" encoding="utf-8"?>
<svg version="1.1"
	 xmlns="http://www.w3.org/2000/svg" x="0px" y="0px" width="48px" height="48px" viewBox="-3.425 -3.425 48 48">
<defs>
</defs>
<path d="M26.947,15.328c0-3.33-2.368-4.922-5.884-4.922c-1.405,0-2.479,0.111-3.034,0.26v9.694c0.703,0.186,1.592,0.259,2.665,0.259
	C24.579,20.619,26.947,18.695,26.947,15.328z"/>
<path d="M20.575,0C9.212,0,0,9.212,0,20.575C0,31.938,9.212,41.15,20.575,41.15S41.15,31.938,41.15,20.575
	C41.15,9.212,31.938,0,20.575,0z M20.577,39.594c-10.487,0-19.019-8.531-19.019-19.019c0-6.934,3.776-13.32,9.854-16.667
	l0.482,0.876c-5.759,3.171-9.336,9.222-9.336,15.791c0,9.936,8.083,18.019,18.019,18.019c3.609,0,7.093-1.063,10.075-3.076
	l0.559,0.828C28.063,38.471,24.387,39.594,20.577,39.594z M14.811,32.979V8.335c1.554-0.26,3.589-0.481,6.18-0.481
	c3.182,0,5.513,0.74,6.993,2.072c1.332,1.184,2.183,2.997,2.183,5.217c0,2.258-0.666,4.034-1.924,5.329
	c-1.739,1.813-4.478,2.738-7.622,2.738c-0.962,0-1.851-0.037-2.591-0.223v9.991H14.811z M31.393,36.21l-0.57-0.822
	c4.865-3.374,7.77-8.911,7.77-14.813c0-9.935-8.082-18.018-18.017-18.018c-2.912,0-5.813,0.719-8.39,2.078L11.719,3.75
	c2.72-1.435,5.783-2.193,8.856-2.193c10.485,0,19.017,8.531,19.017,19.018C39.592,26.804,36.526,32.648,31.393,36.21z"/>
</svg>
