<?xml version="1.0" encoding="utf-8"?>
<!-- Generator: Adobe Illustrator 15.0.0, SVG Export Plug-In  -->
<!DOCTYPE svg PUBLIC "-//W3C//DTD SVG 1.1//EN" "http://www.w3.org/Graphics/SVG/1.1/DTD/svg11.dtd" [
	<!ENTITY ns_flows "http://ns.adobe.com/Flows/1.0/">
]>
<svg version="1.1"
	 xmlns="http://www.w3.org/2000/svg" x="0px" y="0px" width="48px" height="48px" viewBox="-3.425 -3.425 48 48">
<defs>
</defs>
<path d="M20.575,0C9.212,0,0,9.212,0,20.575C0,31.938,9.212,41.15,20.575,41.15S41.15,31.938,41.15,20.575
	C41.15,9.212,31.938,0,20.575,0z M20.577,39.594c-10.487,0-19.019-8.531-19.019-19.019c0-6.934,3.776-13.32,9.854-16.667
	l0.482,0.876c-5.759,3.171-9.336,9.222-9.336,15.791c0,9.936,8.083,18.019,18.019,18.019c3.609,0,7.093-1.063,10.075-3.076
	l0.559,0.828C28.063,38.471,24.387,39.594,20.577,39.594z M20.173,21.453c-4.07-1.479-6.586-3.626-6.586-7.104
	c0-3.885,3.219-6.771,8.066-6.771c2.517,0,4.403,0.592,5.477,1.221l-0.889,2.627c-0.776-0.481-2.441-1.184-4.699-1.184
	c-3.404,0-4.699,2.035-4.699,3.737c0,2.331,1.518,3.479,4.959,4.811c4.218,1.628,6.327,3.663,6.327,7.326
	c0,3.849-2.813,7.216-8.696,7.216c-2.405,0-5.032-0.74-6.364-1.628l0.851-2.701c1.443,0.925,3.515,1.628,5.735,1.628
	c3.293,0,5.218-1.739,5.218-4.256C24.873,24.08,23.54,22.711,20.173,21.453z M31.393,36.21l-0.57-0.822
	c4.865-3.374,7.77-8.911,7.77-14.813c0-9.935-8.082-18.018-18.017-18.018c-2.912,0-5.813,0.719-8.39,2.078L11.719,3.75
	c2.72-1.435,5.783-2.193,8.856-2.193c10.485,0,19.017,8.531,19.017,19.018C39.592,26.804,36.526,32.648,31.393,36.21z"/>
</svg>
