<?xml version="1.0" encoding="utf-8"?>
<svg version="1.1"
	 xmlns="http://www.w3.org/2000/svg" xmlns:xlink="http://www.w3.org/1999/xlink"
	 x="0px" y="0px" width="48px" height="48px" viewBox="0 0 48 48">
<defs>
</defs>
<path id="Amazon_4_" fill="#F8991D" d="M43.011,40.23c1.992-1.686,2.833-4.744,2.877-6.342v-0.266c0-0.357-0.088-0.621-0.175-0.754
	c-0.399-0.486-3.324-0.932-5.844-0.178c-0.709,0.223-1.331,0.533-1.905,0.932c-0.441,0.311-0.354,0.707,0.089,0.664
	c0.485-0.09,1.107-0.133,1.816-0.225c1.549-0.129,3.363-0.174,3.807,0.402c0.617,0.75-0.709,4.035-1.286,5.453
	C42.215,40.361,42.612,40.541,43.011,40.23L43.011,40.23z M2.333,33.889c5.709,5.189,13.234,8.293,21.646,8.293
	c5.223,0,11.244-1.465,15.891-4.258c0.62-0.355,1.237-0.754,1.813-1.199c0.797-0.572,0.09-1.463-0.709-1.109
	c-0.352,0.133-0.752,0.314-1.104,0.445c-5.094,1.996-10.446,2.93-15.405,2.93c-7.88,0-15.492-2.176-21.646-5.766
	C2.243,32.914,1.843,33.488,2.333,33.889L2.333,33.889z"/>
<path id="Amazon_3_" d="M28.004,16.101c-1.061,0.084-2.283,0.165-3.505,0.329c-1.874,0.241-3.747,0.571-5.295,1.303
	c-3.014,1.227-5.053,3.836-5.053,7.673c0,4.816,3.098,7.262,7.008,7.262c1.306,0,2.364-0.16,3.34-0.406
	c1.549-0.49,2.853-1.387,4.401-3.02c0.897,1.225,1.139,1.797,2.688,3.102c0.408,0.164,0.816,0.164,1.141-0.082
	c0.977-0.816,2.688-2.283,3.586-3.1c0.406-0.33,0.323-0.818,0.081-1.227c-0.897-1.143-1.793-2.123-1.793-4.323v-7.347
	c0-3.104,0.243-5.959-2.036-8.079c-1.875-1.717-4.81-2.369-7.089-2.369c-0.328,0-0.651,0-0.979,0
	c-4.155,0.246-8.555,2.04-9.534,7.182c-0.161,0.652,0.329,0.897,0.655,0.981l4.561,0.572c0.489-0.084,0.733-0.492,0.813-0.901
	c0.409-1.794,1.876-2.69,3.505-2.855c0.082,0,0.164,0,0.328,0c0.975,0,2.033,0.41,2.606,1.222c0.648,0.981,0.57,2.288,0.57,3.43
	L28.004,16.101L28.004,16.101L28.004,16.101z M28.004,20.837c0,1.878,0.079,3.346-0.897,4.975c-0.57,1.143-1.547,1.877-2.608,2.123
	c-0.161,0-0.404,0.084-0.65,0.084c-1.792,0-2.855-1.389-2.855-3.43c0-2.61,1.549-3.835,3.505-4.407
	c1.061-0.246,2.283-0.327,3.504-0.327L28.004,20.837L28.004,20.837L28.004,20.837z"/>
</svg>
