<?xml version="1.0" encoding="utf-8"?>
<svg version="1.1"
	 xmlns="http://www.w3.org/2000/svg" xmlns:xlink="http://www.w3.org/1999/xlink"
	 x="0px" y="0px" width="48px" height="48px" viewBox="0 0 48 48">
<defs>
</defs>
<path id="Baidu_1_" fill="#4A63AD" d="M14.039,18.584c0.254,3.63-1.713,6.727-4.397,6.915c-2.682,0.188-5.062-2.603-5.316-6.233
	c-0.254-3.632,1.714-6.728,4.397-6.916C11.405,12.161,13.786,14.952,14.039,18.584L14.039,18.584z M32.514,3.532
	c-2.605-0.665-5.445,1.655-6.342,5.184c-0.899,3.526,0.485,6.925,3.092,7.59c2.605,0.664,5.446-1.656,6.343-5.183
	C36.773,6.532,33.138,3.69,32.514,3.532z M38.623,15.422c-2.74,0.04-4.915,2.647-4.855,6.686c0.061,4.037,2.328,5.879,5.07,5.838
	c2.74-0.04,4.916-1.947,4.857-5.986C43.616,16.703,39.281,15.412,38.623,15.422L38.623,15.422z M18.763,2.643
	c-2.608,0-4.723,2.924-4.723,6.528s2.115,6.527,4.723,6.527c2.608,0,4.724-2.923,4.724-6.527S21.371,2.643,18.763,2.643z
	 M18.159,22.918c-1.507,2.163-3.215,4.277-6.531,7.043c-3.317,2.768-4.724,4.68-4.724,7.497c0,2.818,1.608,7.497,6.18,7.497
	s6.783-1.007,10.401-1.007c3.618,0,6.031,1.409,10.604,1.409c4.571,0,6.48-4.327,6.48-7.145c0-2.818-0.792-4.412-4.456-7.626
	c-2.348-2.063-4.337-3.744-7.451-8.071c-1.541-2.14-3.317-2.415-5.176-2.415C21.626,20.101,19.667,20.755,18.159,22.918z"/>
</svg>
