<?xml version="1.0" encoding="utf-8"?>
<svg version="1.1"
	 xmlns="http://www.w3.org/2000/svg" xmlns:xlink="http://www.w3.org/1999/xlink"
	 x="0px" y="0px" width="48px" height="48px" viewBox="0 0 48 48">
<defs>
</defs>
<path fill="#010101" d="M12.627,35.305h-0.054v1.722h-2.198V19.692L2.31,37.143h12.45C13.574,36.707,12.969,35.855,12.627,35.305z"
	/>
<path fill="#010101" d="M16.387,35.41c2.543,0,3.734-2.305,3.734-5.35c0-1.773-0.185-5.19-3.787-5.19
	c-3.364,0-3.734,3.627-3.734,5.88C12.6,34.431,14.904,35.41,16.387,35.41z"/>
<path fill="#010101" d="M18.339,37.143h9.926c-2.694-0.823-4.238-3.385-4.238-6.659c0-4.289,2.065-7.706,6.647-7.706
	c3.628,0,5.005,2.649,5.19,5.059h-2.252c-0.289-1.854-1.323-2.966-3.284-2.966c-2.886,0-3.813,2.754-3.813,5.218
	c0,2.383,0.583,5.322,3.788,5.322c1.563,0,2.912-1.165,3.309-3.283h2.248l9.83-21.27H14.458l-3.305,7.151h1.553v6.914h0.053
	c1.007-1.456,2.383-2.119,4-2.146c3.682,0,5.772,3.021,5.772,6.913C22.531,32.505,21.535,36.122,18.339,37.143z"/>
<path fill="#010101" d="M32.162,37.143h1.38l0.504-1.092C33.548,36.518,32.927,36.901,32.162,37.143z"/>
</svg>
