<?xml version="1.0" encoding="utf-8"?>
<svg version="1.1"
	 xmlns="http://www.w3.org/2000/svg" xmlns:xlink="http://www.w3.org/1999/xlink"
	 x="0px" y="0px" width="48px" height="48px" viewBox="0 0 48 48">
<defs>
</defs>
<path fill="#F79523" d="M23.997,2.233c-12.019,0-21.764,9.741-21.764,21.764c0,12.02,9.745,21.77,21.764,21.77
	c12.021,0,21.77-9.75,21.77-21.77C45.767,11.975,36.018,2.233,23.997,2.233z M22.132,10.735l3.179,0.604l-0.581,3.083l2.044,0.386
	l0.581-3.089l3.179,0.592l-0.62,3.307c0.454,0.18,0.87,0.363,1.195,0.587c0.854,0.567,1.476,1.245,1.85,2.05
	c0.369,0.806,0.466,1.637,0.302,2.486c-0.114,0.614-0.356,1.182-0.726,1.698c-0.367,0.502-0.843,0.924-1.425,1.257
	c-0.579,0.329-1.306,0.559-2.174,0.688c0.831,0.384,1.464,0.758,1.878,1.116c0.6,0.505,1.035,1.13,1.307,1.889
	c0.267,0.746,0.321,1.535,0.168,2.374c-0.188,1-0.659,1.861-1.413,2.574c-0.758,0.737-1.732,1.221-2.91,1.447
	c-0.437,0.077-0.93,0.127-1.476,0.134l-0.632,3.347l-3.178-0.586l0.581-3.095c-0.081-0.026-0.154-0.031-0.235-0.045l-1.814-0.336
	l-0.575,3.089l-3.18-0.591l0.576-3.096l-4.849-0.91l0.485-2.598l0.743,0.14c0.494,0.099,0.834,0.122,1.028,0.057
	c0.193-0.052,0.332-0.152,0.436-0.291c0.106-0.144,0.208-0.492,0.308-1.033L18.139,17.5c0.106-0.549,0.139-0.915,0.095-1.083
	c-0.044-0.169-0.146-0.317-0.308-0.431c-0.153-0.128-0.483-0.241-0.978-0.318l-0.743-0.151l0.486-2.597l4.854,0.916L22.132,10.735
	L22.132,10.735z M22.992,17.227l-0.855,4.575l2.062,0.391c1.073,0.198,1.889,0.252,2.441,0.168c0.549-0.077,0.979-0.277,1.313-0.592
	c0.318-0.308,0.537-0.71,0.625-1.189c0.096-0.495,0.053-0.936-0.134-1.331c-0.176-0.388-0.486-0.696-0.933-0.948
	c-0.437-0.231-1.25-0.464-2.459-0.688L22.992,17.227L22.992,17.227z M21.623,24.578l-0.754,4.061
	c-0.092,0.567-0.14,0.922-0.128,1.018c0.021,0.135,0.081,0.238,0.173,0.302c0.099,0.065,0.368,0.151,0.826,0.228l1.369,0.264
	c0.801,0.143,1.475,0.197,2.027,0.145c0.554-0.052,1.057-0.276,1.515-0.675c0.45-0.403,0.737-0.923,0.866-1.581
	c0.095-0.554,0.058-1.045-0.129-1.481c-0.194-0.432-0.522-0.801-1.006-1.095c-0.483-0.292-1.255-0.53-2.324-0.732L21.623,24.578
	L21.623,24.578z"/>
</svg>
