<?xml version="1.0" encoding="utf-8"?>
<svg version="1.1"
	 xmlns="http://www.w3.org/2000/svg" xmlns:xlink="http://www.w3.org/1999/xlink"
	 x="0px" y="0px" width="48px" height="48px" viewBox="-4.244 -1.946 48 48">
<defs>
</defs>
<path fill="#3588A6" d="M30.045,35.695c5.306-3.47,8.816-9.453,8.816-16.264C38.861,8.699,30.161,0,19.431,0
	C8.699,0,0,8.699,0,19.431c0,10.731,8.699,19.431,19.431,19.431c0.589,0,1.17-0.037,1.747-0.088l12.896,5.78L30.045,35.695z"/>
<path fill="#52CAF5" d="M7.942,3.786C3.134,7.323,0,13.004,0,19.431c0,10.731,8.699,19.431,19.431,19.431
	c0.589,0,1.17-0.037,1.747-0.088l7.789,3.491L7.942,3.786z"/>
<path fill="#F79523" d="M26.234,19.301c0.027,0.089,0.049,0.176,0.049,0.267c0,1.286-3.067,2.332-6.854,2.332
	c-3.785,0-6.854-1.046-6.854-2.332c0-0.091,0.021-0.178,0.05-0.267c-2.967,1.935-5.069,5.092-5.573,8.767h24.755
	C31.303,24.393,29.202,21.236,26.234,19.301z"/>
<ellipse fill="#F79523" cx="19.431" cy="13.01" rx="5.948" ry="6.255"/>
<path fill="#FCB51E" d="M17.619,21.813c-2.905-0.272-5.044-1.173-5.044-2.246c0-0.091,0.021-0.178,0.05-0.267
	c-2.967,1.935-5.069,5.092-5.573,8.767h14.324L17.619,21.813z"/>
</svg>
