<?xml version="1.0" encoding="utf-8"?>
<svg version="1.1"
	 xmlns="http://www.w3.org/2000/svg" xmlns:xlink="http://www.w3.org/1999/xlink"
	 x="0px" y="0px" width="48px" height="48px" viewBox="0 0 48 48">
<defs>
</defs>
<path id="Dailymotion_2_" fill="#3767B1" d="M31.291,4.666v13.166c0,0-3.389-4.717-10.12-3.687
	c-2.903,0.443-5.818,1.662-8.058,3.582c-1.744,1.495-3.278,3.295-4.21,5.41c-0.555,1.261-0.993,2.717-1.161,4.088
	c-0.677,5.513,1.375,11.814,6.039,15.09c1.33,0.934,3.023,1.911,4.592,2.363c3.019,0.869,6.313,0.822,9.246-0.344
	c0.798-0.318,1.546-0.748,2.245-1.248c0.293-0.211,1.782-1.146,1.782-1.502l-0.013,3.469l8.752-0.018V2.725L31.291,4.666z
	 M24.125,37.226c-4.209,0-7.623-3.414-7.623-7.625c0-4.21,3.414-7.625,7.623-7.625c4.211,0,7.625,3.415,7.625,7.625
	C31.75,33.812,28.336,37.226,24.125,37.226z"/>
</svg>
