<?xml version="1.0" encoding="utf-8"?>
<!DOCTYPE svg PUBLIC "-//W3C//DTD SVG 1.1//EN" "http://www.w3.org/Graphics/SVG/1.1/DTD/svg11.dtd" [
	<!ENTITY ns_flows "http://ns.adobe.com/Flows/1.0/">
]>
<svg version="1.1"
	 xmlns="http://www.w3.org/2000/svg" xmlns:xlink="http://www.w3.org/1999/xlink"
	 x="0px" y="0px" width="100px" height="100px" viewBox="-6.055 -6 100 100">
<defs>
</defs>
<path display="none" fill="#3588A6" d="M44.496,23.1v23.101h-7.717V23.1H44.496z M65.68,23.1v23.101h-7.717V23.1H65.68z
	 M65.68,63.55l13.467-13.518V7.718H15.595V63.55h17.352v11.551l11.55-11.551H65.68z M86.863,0v53.917l-23.1,23.1H46.412
	L34.863,88.568h-11.55V77.017H2.129V15.382L7.931,0H86.863z"/>
<polygon display="none" fill="#52CAF5" points="73.326,7.718 79.146,7.718 79.146,50.033 65.68,63.55 53.042,63.55 48.149,77.017 
	63.764,77.017 86.863,53.917 86.863,0 76.13,0 "/>
<polygon display="none" fill="#52CAF5" points="65.68,28.765 59.346,46.201 65.68,46.201 "/>
<path fill="#C8691C" d="M59.854,69.539c5.332-1.674,9.933-4.269,13.509-8.892c-19.571,11.31-38.931,10.964-58.464,0.078
	c1.593,2.274,3.513,4.002,5.753,5.299c2.233,1.293,4.604,2.35,6.994,3.55c-1.031,1.287-2.254,2.633-3.262,4.124
	c-0.958,1.421-2.046,1.919-3.799,1.715c-6.604-0.769-12.542-2.966-17.466-7.563c-0.142-0.134-0.276-0.274-0.421-0.405
	c-2.011-1.812-2.849-3.832-2.676-6.754c0.817-13.835,4.27-26.926,10.313-39.359c0.296-0.609,0.802-1.196,1.355-1.589
	c4.828-3.427,10.122-5.793,15.978-6.817c1.118-0.195,2.252-0.342,3.384-0.392c0.46-0.021,0.935,0.276,1.393,0.607
	c-6.959,2.326-13.572,5.129-19.389,9.812c19.986-9.52,39.856-9.991,59.78-0.241c-5.326-4.305-11.483-6.973-17.925-9.08
	c0.48-0.989,1.151-1.18,2.181-1.084c6.971,0.648,13.196,3.21,18.879,7.196c0.533,0.374,1.031,0.923,1.318,1.503
	c4.408,8.926,7.38,18.318,9.065,28.128c0.782,4.56,1.185,9.151,1.265,13.77c0.012,0.648-0.266,1.422-0.664,1.941
	c-3.714,4.816-8.661,7.792-14.489,9.28c-2.251,0.575-4.599,0.779-6.909,1.097c-0.357,0.05-0.899-0.078-1.114-0.329
	C62.903,73.33,61.427,71.471,59.854,69.539z M28.985,57.202c2.555-0.007,4.069-0.547,5.398-1.651
	c2.173-1.807,2.984-4.186,3.151-6.948c0.187-3.089-1.012-5.387-3.579-6.954c-2.648-1.617-5.415-1.751-8.095-0.069
	c-4.302,2.699-5.11,9.121-1.687,12.991C25.671,56.263,27.532,57.185,28.985,57.202z M57.183,57.322
	c0.878-0.201,1.798-0.298,2.628-0.623c5.126-1.999,6.758-8.881,3.214-13.417c-2.762-3.535-7.907-3.853-11.054-0.652
	c-2.082,2.118-2.731,4.708-2.376,7.607C50.064,54.079,53.428,57.186,57.183,57.322z"/>
<path fill="#F79523" d="M77.289,20.68c-0.287-0.58-0.785-1.129-1.318-1.503c-3.973-2.786-8.218-4.857-12.791-6.084l-0.797,2.809
	c3.706,1.644,7.233,3.641,10.453,6.244c-3.665-1.794-7.329-3.239-10.992-4.348l-6.319,22.256c2.688-0.637,5.637,0.277,7.5,2.662
	c3.544,4.536,1.912,11.417-3.214,13.417c-0.83,0.325-1.75,0.422-2.628,0.623c-2.162-0.078-4.19-1.145-5.615-2.767l-4.075,14.35
	c8.604-0.539,17.217-3.257,25.871-8.258c-3.576,4.623-8.177,7.218-13.509,8.892c1.572,1.933,3.049,3.791,4.588,5.596
	c0.215,0.251,0.757,0.379,1.114,0.329c2.311-0.317,4.658-0.521,6.909-1.097c5.828-1.488,10.775-4.464,14.489-9.28
	c0.398-0.52,0.676-1.293,0.664-1.941c-0.08-4.618-0.482-9.21-1.265-13.77C84.669,38.999,81.697,29.606,77.289,20.68z"/>
</svg>
