<?xml version="1.0" encoding="utf-8"?>
<svg version="1.1"
	 xmlns="http://www.w3.org/2000/svg" xmlns:xlink="http://www.w3.org/1999/xlink"
	 x="0px" y="0px" width="48px" height="48px" viewBox="0 0 48 48">
<defs>
</defs>
<path fill="#3588A6" d="M30.246,7.689l-0.548,0.626c6.658,1.997,9.752,4.935,9.752,4.935c-4.074-2.192-8.067-3.29-11.788-3.721
	c-2.82-0.313-5.522-0.234-7.911,0.079c-0.235,0-0.431,0.039-0.666,0.078c-1.371,0.156-4.7,0.626-8.89,2.467
	c-1.45,0.627-2.311,1.097-2.311,1.097s3.211-3.094,10.26-5.091l-0.392-0.47c0,0-0.021-0.001-0.061-0.001
	c-0.606,0.003-5.618,0.145-10.905,4.073c0,0-5.639,10.144-5.639,22.637c0,0,3.289,5.639,11.944,5.913c0,0,1.449-1.723,2.624-3.211
	c-4.974-1.488-6.854-4.583-6.854-4.583s0.392,0.275,1.097,0.667c0.039,0,0.079,0.038,0.156,0.078
	c0.118,0.078,0.235,0.116,0.353,0.195c0.979,0.548,1.958,0.979,2.859,1.332c1.605,0.666,3.525,1.253,5.757,1.684
	c2.937,0.55,6.384,0.744,10.143,0.04c1.841-0.353,3.722-0.862,5.68-1.686c1.37-0.508,2.897-1.253,4.503-2.311
	c0,0-1.958,3.173-7.088,4.622c1.175,1.449,2.585,3.133,2.585,3.133c8.655-0.273,11.944-5.914,11.944-5.874
	c0-12.493-5.639-22.637-5.639-22.637C35.612,7.571,30.246,7.689,30.246,7.689z M16.696,30.756c-2.193,0-3.995-1.919-3.995-4.308
	s1.762-4.308,3.995-4.308s4.034,1.919,3.995,4.308C20.69,28.837,18.928,30.756,16.696,30.756z M30.99,30.756
	c-2.192,0-3.994-1.919-3.994-4.308s1.763-4.308,3.994-4.308c2.193,0,3.994,1.919,3.994,4.308S33.223,30.756,30.99,30.756z"/>
</svg>
