<?xml version="1.0" encoding="utf-8"?>
<svg version="1.1"
	 xmlns="http://www.w3.org/2000/svg" xmlns:xlink="http://www.w3.org/1999/xlink"
	 x="0px" y="0px" width="48px" height="48px" viewBox="0 0 48 48">
<defs>
</defs>
<path fill="#010101" d="M42.878,12.539c-1.646-3.085-3.933-5.466-6.864-7.139c-2.932-1.674-6.255-2.511-9.969-2.512H3.252
	l12.214,7.053h10.582c3.423,0,6.025,1.107,7.806,3.323s2.67,5.471,2.67,9.766v2.234c-0.038,4.141-0.959,7.323-2.758,9.547
	c-1.798,2.226-4.4,3.337-7.808,3.339H15.047L2.932,45.144h23.201c3.695-0.019,7.012-0.87,9.954-2.554
	c2.94-1.683,5.219-4.054,6.834-7.11c1.614-3.056,2.423-6.548,2.423-10.477V23.06C45.344,19.132,44.521,15.625,42.878,12.539z"/>
<polygon fill="#ED1C24" points="27.793,24.032 3.161,9.809 3.161,38.254 "/>
</svg>
