<?xml version="1.0" encoding="utf-8"?>
<svg version="1.1"
	 xmlns="http://www.w3.org/2000/svg" xmlns:xlink="http://www.w3.org/1999/xlink"
	 x="0px" y="0px" width="48px" height="48px" viewBox="0 0 48 48">
<defs>
</defs>
<path fill="#F6A621" d="M12.031,31.561V21.416c0-7.688,1.638-9.518,9.325-9.518h1.968v7.042c0,0,0.071,0.45,0.545,0.459
	c0.374,0.008,0.923-0.571,0.923-0.571l16.471-16.22H15.936c-7.688,0-13.34,5.846-13.34,13.533v24.723L12.031,31.561z"/>
<path fill="#70B343" d="M35.97,16.441v10.144c0,7.688-1.639,9.518-9.324,9.518h-1.969v-7.042c0,0-0.071-0.45-0.546-0.46
	c-0.373-0.009-0.923,0.569-0.923,0.569L6.738,45.391h25.326c7.688,0,13.34-5.846,13.34-13.532V7.134L35.97,16.441z"/>
</svg>
