<?xml version="1.0" encoding="utf-8"?>
<svg version="1.1"
	 xmlns="http://www.w3.org/2000/svg" xmlns:xlink="http://www.w3.org/1999/xlink"
	 x="0px" y="0px" width="100px" height="100px" viewBox="-6.644 -6 100 100">
<defs>
</defs>
<path fill="#C8691C" d="M81.827,22.559c-3.922-6.719-9.241-12.039-15.96-15.96c-6.72-3.921-14.055-5.881-22.013-5.881
	c-7.956,0-15.294,1.96-22.012,5.881c-6.719,3.921-12.039,9.241-15.96,15.96S0,36.615,0,44.571c0,9.556,2.788,18.148,8.365,25.781
	s12.781,12.914,21.613,15.845c1.028,0.191,1.789,0.057,2.284-0.398c0.495-0.457,0.742-1.028,0.742-1.713
	c0-0.114-0.01-1.142-0.029-3.083c-0.02-1.942-0.029-3.636-0.029-5.081l-1.313,0.227c-0.837,0.153-1.894,0.219-3.169,0.2
	c-1.275-0.018-2.598-0.151-3.968-0.399c-1.371-0.246-2.646-0.817-3.826-1.712c-1.18-0.895-2.017-2.065-2.512-3.512l-0.571-1.313
	c-0.381-0.875-0.98-1.847-1.798-2.912c-0.819-1.066-1.646-1.789-2.484-2.17l-0.4-0.286c-0.266-0.189-0.514-0.419-0.742-0.686
	s-0.399-0.532-0.514-0.8c-0.114-0.267-0.02-0.485,0.286-0.657c0.305-0.172,0.856-0.255,1.656-0.255l1.142,0.17
	c0.762,0.153,1.703,0.608,2.827,1.37c1.123,0.762,2.046,1.751,2.77,2.969c0.876,1.562,1.931,2.751,3.169,3.569
	c1.237,0.818,2.484,1.228,3.74,1.228s2.341-0.096,3.255-0.285c0.913-0.19,1.77-0.477,2.569-0.856
	c0.343-2.552,1.275-4.512,2.798-5.882c-2.17-0.229-4.121-0.571-5.853-1.028c-1.731-0.457-3.521-1.199-5.367-2.229
	c-1.847-1.027-3.379-2.303-4.597-3.825c-1.218-1.522-2.218-3.521-2.998-5.995c-0.78-2.475-1.17-5.33-1.17-8.565
	c0-4.607,1.504-8.527,4.511-11.764c-1.409-3.463-1.275-7.346,0.399-11.648c1.104-0.343,2.741-0.085,4.911,0.771
	s3.759,1.59,4.768,2.199c1.009,0.608,1.818,1.124,2.427,1.542c3.541-0.989,7.195-1.484,10.964-1.484s7.423,0.495,10.965,1.484
	l2.169-1.37c1.484-0.914,3.236-1.752,5.253-2.513c2.018-0.761,3.561-0.971,4.627-0.627c1.712,4.302,1.865,8.184,0.456,11.648
	c3.007,3.236,4.512,7.157,4.512,11.763c0,3.236-0.392,6.099-1.171,8.593c-0.78,2.494-1.788,4.491-3.025,5.996
	c-1.238,1.504-2.78,2.77-4.626,3.797c-1.847,1.028-3.637,1.771-5.368,2.228c-1.732,0.457-3.683,0.801-5.853,1.029
	c1.979,1.712,2.969,4.415,2.969,8.107v12.048c0,0.684,0.238,1.255,0.714,1.712c0.477,0.456,1.228,0.59,2.256,0.399
	c8.832-2.931,16.037-8.213,21.613-15.846c5.576-7.632,8.365-16.226,8.365-25.781C87.708,36.615,85.746,29.278,81.827,22.559z"/>
<path fill="#F79523" d="M72.092,11.021l-4.063,11.186c0.694,3.063,0.516,5.89-0.539,8.483c3.007,3.236,4.512,7.157,4.512,11.763
	c0,3.236-0.392,6.1-1.171,8.594c-0.78,2.494-1.788,4.49-3.025,5.996c-1.238,1.504-2.78,2.77-4.626,3.797
	c-1.847,1.027-3.637,1.77-5.368,2.227c-1.489,0.393-3.148,0.696-4.961,0.921l-0.265,0.729c1.558,1.718,2.342,4.211,2.342,7.486
	v12.049c0,0.684,0.238,1.254,0.714,1.711c0.477,0.457,1.228,0.59,2.256,0.4c8.832-2.932,16.037-8.213,21.613-15.846
	s8.365-16.227,8.365-25.781c-0.002-7.955-1.964-15.291-5.883-22.01C79.338,18.178,76.028,14.287,72.092,11.021z"/>
</svg>
