<?xml version="1.0" encoding="utf-8"?>
<!DOCTYPE svg PUBLIC "-//W3C//DTD SVG 1.1//EN" "http://www.w3.org/Graphics/SVG/1.1/DTD/svg11.dtd" [
	<!ENTITY ns_flows "http://ns.adobe.com/Flows/1.0/">
]>
<svg version="1.1"
	 xmlns="http://www.w3.org/2000/svg" xmlns:xlink="http://www.w3.org/1999/xlink"
	 x="0px" y="0px" width="48px" height="48px" viewBox="-3.607 -5.218 48 48">
<defs>
</defs>
<path id="path50_2_" fill="#E24329" d="M20.106,37.027L20.106,37.027l7.405-22.78H12.703L20.106,37.027L20.106,37.027z"/>
<path id="path66_2_" fill="#FCA326" d="M2.328,14.247L2.328,14.247l-2.252,6.921c-0.204,0.629,0.016,1.321,0.554,1.713
	l19.465,14.146L2.328,14.247L2.328,14.247z"/>
<path id="path74_2_" fill="#E24329" d="M2.328,14.247h10.375L8.245,0.525c-0.228-0.7-1.224-0.7-1.461,0L2.328,14.247L2.328,14.247z"
	/>
<path id="path82_2_" fill="#FCA326" d="M37.875,14.247L37.875,14.247l2.251,6.921c0.204,0.629-0.016,1.321-0.553,1.713
	L20.106,37.027L37.875,14.247L37.875,14.247z"/>
<path id="path86_2_" fill="#E24329" d="M37.875,14.247H27.503l4.456-13.722c0.231-0.7,1.225-0.7,1.458,0L37.875,14.247
	L37.875,14.247z"/>
<polygon fill="#FC6D26" points="20.106,37.027 27.503,14.247 37.875,14.247 "/>
<polygon fill="#FC6D26" points="20.076,36.984 12.678,14.205 2.306,14.205 "/>
</svg>
