<?xml version="1.0" encoding="utf-8"?>
<svg version="1.1"
	 xmlns="http://www.w3.org/2000/svg" xmlns:xlink="http://www.w3.org/1999/xlink"
	 x="0px" y="0px" width="100px" height="100px" viewBox="-5.202 -4.075 100 100">
<defs>
</defs>
<path fill="#F79523" d="M64.688,0H25.244C11.303,0,0,11.301,0,25.244v41.021c0,13.942,11.303,25.244,25.244,25.244h39.444
	c13.942,0,25.243-11.302,25.243-25.244V25.244C89.931,11.301,78.63,0,64.688,0z M84.089,64.627c0,12.129-8.807,20.937-20.937,20.937
	H26.779c-12.13,0-20.938-8.808-20.938-20.937V26.882c0-12.131,8.808-20.938,20.938-20.938h36.373
	c12.13,0,20.937,8.807,20.937,20.938V64.627z"/>
<path fill="#F79523" d="M44.965,22.139c-13.042,0-23.616,10.574-23.616,23.616c0,13.043,10.574,23.616,23.616,23.616
	c13.042,0,23.616-10.572,23.616-23.616C68.581,32.712,58.008,22.139,44.965,22.139z M44.965,63.771
	c-9.95,0-18.016-8.064-18.016-18.015c0-9.951,8.066-18.017,18.016-18.017c9.951,0,18.017,8.065,18.017,18.017
	C62.982,55.706,54.916,63.771,44.965,63.771z"/>
<circle fill="#F79523" cx="68.581" cy="19.743" r="6.503"/>
<path fill="#C8691C" d="M44.965,63.771c-9.95,0-18.016-8.064-18.016-18.015c0-9.951,8.066-18.017,18.016-18.017
	c3.003,0,5.828,0.745,8.318,2.044l1.186-5.648c-2.908-1.28-6.121-1.996-9.503-1.996c-13.042,0-23.616,10.574-23.616,23.616
	c0,13.043,10.574,23.616,23.616,23.616c0.001,0,0.002,0,0.004,0l1.188-5.66C45.761,63.735,45.368,63.771,44.965,63.771z"/>
<path fill="#C8691C" d="M41.784,85.563H26.779c-12.13,0-20.938-8.808-20.938-20.937V26.882c0-12.131,8.808-20.938,20.938-20.938
	h31.724L59.754,0h-34.51C11.303,0,0,11.301,0,25.244v41.021c0,13.942,11.303,25.244,25.244,25.244h15.292L41.784,85.563z"/>
</svg>
