<?xml version="1.0" encoding="utf-8"?>
<svg version="1.1"
	 xmlns="http://www.w3.org/2000/svg" xmlns:xlink="http://www.w3.org/1999/xlink"
	 x="0px" y="0px" width="48px" height="48px" viewBox="-2.831 -9.493 48 48">
<defs>
</defs>
<path fill="#E96E24" d="M10.971,30.34c0,0,10-3.668,14.838-11.731C30.645,10.545,29.53,4.59,29.53,4.59l4.219-1.365
	c0,0,0.248,8.064-5.584,16.004c-6.929,9.435-17.243,11.537-17.243,11.537L10.971,30.34z"/>
<path fill="#DA5527" d="M37.965,1.737l-4.217,1.488c0,0-0.497,9.181-5.584,16.004c-5.086,6.823-17.243,11.537-17.243,11.537
	s10.896-0.694,19.332-10.372C38.691,10.718,37.965,1.737,37.965,1.737z"/>
<path fill="#148EC1" d="M37.965,1.737l4.715-1.613c0,0,0.124,9.304-6.947,17.49c-7.071,8.189-18.857,13.648-24.812,13.151
	c0,0,15.056-1.867,22.083-14.392C38.711,6.203,37.965,1.737,37.965,1.737z"/>
<path fill="#9FCE67" d="M7.943,3.845l4.974,1.436c0,0-0.384,5.511,4.331,13.577c7.19,12.297,14.354,11.539,14.354,11.539
	l-0.097,0.349c0,0-9.364-0.457-17.854-11.146C8.431,13.033,7.943,3.845,7.943,3.845z"/>
<path fill="#409845" d="M4.098,1.984c0,0,1.082,9.189,9.552,19.602c7.568,9.306,17.896,9.174,17.896,9.174
	s-8.838-0.614-17.026-10.291c-5.285-6.245-6.08-16.5-6.08-16.5L4.098,1.984z"/>
<path fill="#148EC1" d="M0.003,0c0,0-0.495,8.807,11.291,21.214c10.089,10.622,20.098,9.552,20.098,9.552
	s-11.414-0.868-18.485-10.171C4.87,10.02,4.966,2.355,4.966,2.355L0.003,0z"/>
</svg>
