<?xml version="1.0" encoding="utf-8"?>
<svg version="1.1"
	 xmlns="http://www.w3.org/2000/svg" xmlns:xlink="http://www.w3.org/1999/xlink"
	 x="0px" y="0px" width="48px" height="48px" viewBox="0 0 48 48">
<defs>
</defs>
<path fill="#55B948" d="M11.061,2.095h25.877c4.932,0,8.967,4.035,8.967,8.967v25.877c0,4.932-4.035,8.967-8.967,8.967H11.061
	c-4.932,0-8.966-4.035-8.966-8.967V11.062C2.095,6.13,6.129,2.095,11.061,2.095z"/>
<path fill="#FFFFFF" d="M23.958,9.352c8.877,0,16.073,5.763,16.073,12.871c0,2.482-0.879,4.801-2.398,6.767
	c-0.076,0.112-0.175,0.235-0.299,0.372l-0.009,0.011c-0.52,0.62-1.104,1.204-1.748,1.742c-4.445,4.108-11.761,9.001-12.727,8.246
	c-0.839-0.657,1.382-3.864-1.181-4.397c-0.179-0.021-0.357-0.044-0.535-0.068h-0.003l0,0c-7.53-1.07-13.247-6.337-13.247-12.672
	C7.885,15.115,15.081,9.352,23.958,9.352L23.958,9.352z"/>
<path fill="#55B948" d="M14.632,26.329h3.242c0.46,0,0.838-0.379,0.838-0.839v-0.071c0-0.46-0.378-0.837-0.838-0.837h-2.333v-5.31
	c0-0.461-0.377-0.838-0.838-0.838h-0.07c-0.461,0-0.838,0.377-0.838,0.838v6.218C13.793,25.95,14.17,26.329,14.632,26.329z
	 M34.719,22.431v-0.069c0-0.462-0.377-0.839-0.838-0.839h-2.334v-1.327h2.334c0.461,0,0.838-0.377,0.838-0.838v-0.07
	c0-0.46-0.377-0.838-0.838-0.838H30.64c-0.461,0-0.839,0.378-0.839,0.838v6.217c0,0.462,0.378,0.839,0.839,0.839h3.241
	c0.461,0,0.838-0.377,0.838-0.839v-0.07c0-0.46-0.377-0.837-0.838-0.837h-2.334v-1.327h2.334
	C34.342,23.27,34.719,22.892,34.719,22.431L34.719,22.431z M28.485,26.078L28.485,26.078c0.154-0.156,0.242-0.368,0.242-0.588
	v-6.218c0-0.461-0.378-0.838-0.838-0.838H27.82c-0.461,0-0.84,0.376-0.84,0.838v3.65l-3.029-4.063
	c-0.144-0.252-0.418-0.424-0.728-0.424h-0.07c-0.461,0-0.838,0.376-0.838,0.838v6.218c0,0.46,0.377,0.839,0.838,0.839h0.07
	c0.461,0,0.838-0.379,0.838-0.839v-3.718l3.051,4.168c0.02,0.028,0.04,0.058,0.062,0.083l0,0c0.084,0.114,0.2,0.193,0.326,0.242
	c0.1,0.04,0.208,0.063,0.319,0.063h0.07c0.137,0,0.271-0.035,0.391-0.1C28.363,26.19,28.435,26.138,28.485,26.078L28.485,26.078z
	 M20.227,26.329h0.07c0.461,0,0.837-0.379,0.837-0.839v-6.218c0-0.461-0.376-0.838-0.837-0.838h-0.07
	c-0.461,0-0.838,0.376-0.838,0.838v6.218C19.388,25.95,19.766,26.329,20.227,26.329L20.227,26.329z"/>
</svg>
