<?xml version="1.0" encoding="utf-8"?>
<svg version="1.1"
	 xmlns="http://www.w3.org/2000/svg" xmlns:xlink="http://www.w3.org/1999/xlink"
	 x="0px" y="0px" width="100px" height="100px" viewBox="-6.207 -5.438 100 100">
<defs>
</defs>
<path fill="#3588A6" d="M69.93,68.168H59.377h-0.572v-0.573V44.729c0-1.229-0.166-2.259-0.681-2.947
	c-0.494-0.66-1.361-1.046-2.798-1.046c-4.649,0-5.812,3.525-5.962,4.06v22.799v0.573h-0.572H38.241h-0.573v-0.573V30.583V30.01
	h0.573h10.551h0.572v0.573v2.448c0.782-0.508,1.822-1.098,3.091-1.619c1.854-0.761,4.193-1.375,6.922-1.375
	c2.176,0,5.758,0.776,8.278,4.223c1.657,2.264,2.847,5.679,2.847,10.779v22.557v0.573H69.93L69.93,68.168z"/>
<path fill="#3588A6" d="M26.058,25.396c-1.525,0-2.909-0.622-3.911-1.629c-0.999-1.004-1.617-2.391-1.617-3.926
	c0-1.526,0.619-2.908,1.62-3.909c1-1,2.383-1.62,3.908-1.62l0.005,0.002c1.526,0.014,2.907,0.639,3.905,1.637
	c1,1,1.619,2.376,1.619,3.89c0,1.535-0.618,2.921-1.617,3.926C28.968,24.775,27.584,25.396,26.058,25.396L26.058,25.396z"/>
<polygon fill="#3588A6" points="31.351,68.168 20.765,68.168 20.192,68.168 20.192,67.595 20.192,30.583 20.192,30.01 20.765,30.01 
	31.351,30.01 31.924,30.01 31.924,30.583 31.924,67.595 31.924,68.168 "/>
<path fill="#52CAF5" d="M63.001,0H24.585C11.008,0,0,11.006,0,24.585v39.952c0,13.578,11.008,24.586,24.585,24.586h38.416
	c13.578,0,24.585-11.008,24.585-24.586V24.585C87.586,11.006,76.579,0,63.001,0z M81.896,62.942
	c0,11.813-8.576,20.391-20.391,20.391H26.081c-11.813,0-20.392-8.578-20.392-20.391V26.181c0-11.815,8.578-20.392,20.392-20.392
	h35.425c11.814,0,20.391,8.577,20.391,20.392V62.942z"/>
<path fill="#3588A6" d="M40.694,83.333H26.081c-11.813,0-20.392-8.578-20.392-20.391V26.181c0-11.815,8.578-20.392,20.392-20.392
	h30.897L58.195,0h-33.61C11.008,0,0,11.006,0,24.585v39.952c0,13.578,11.008,24.586,24.585,24.586h14.893L40.694,83.333z"/>
<path fill="#52CAF5" d="M59.377,30.037c-2.729,0-5.068,0.614-6.922,1.375c-0.358,0.147-0.693,0.3-1.015,0.455l-7.534,36.301h4.886
	h0.572v-0.573V44.795c0.15-0.535,1.313-4.06,5.962-4.06c1.437,0,2.304,0.386,2.798,1.046c0.515,0.688,0.681,1.718,0.681,2.947
	v22.866v0.573h0.572H69.93h0.572v-0.573V45.038c0-5.1-1.189-8.515-2.847-10.779C65.135,30.813,61.553,30.037,59.377,30.037z"/>
</svg>
