<?xml version="1.0" encoding="utf-8"?>
<svg version="1.1"
	 xmlns="http://www.w3.org/2000/svg" xmlns:xlink="http://www.w3.org/1999/xlink"
	 x="0px" y="0px" width="48px" height="48px" viewBox="0 0 48 48">
<defs>
</defs>
<path fill="#3A87C7" d="M42.777,28.184c-0.577,2.968-5.164,6.214-10.434,6.843c-2.748,0.328-5.453,0.63-8.336,0.497
	c-4.718-0.216-8.44-1.126-8.44-1.126c0,0.459,0.028,0.896,0.084,1.305c0.613,4.657,4.617,4.936,8.408,5.064
	c3.828,0.132,7.235-0.942,7.235-0.942l0.156,3.46c0,0-2.676,1.438-7.444,1.702c-2.631,0.145-5.896-0.066-9.699-1.074
	c-8.248-2.183-9.667-10.976-9.884-19.897c-0.066-2.649-0.025-5.146-0.025-7.234c0-9.124,5.977-11.797,5.977-11.797
	C13.39,3.6,18.561,3.018,23.938,2.973h0.132C29.445,3.018,34.62,3.6,37.634,4.984c0,0,5.978,2.673,5.978,11.797
	C43.611,16.781,43.687,23.51,42.777,28.184"/>
<path fill="#FFFFFF" d="M36.562,17.489v11.045h-4.377V17.813c0-2.261-0.95-3.409-2.854-3.409c-2.103,0-3.156,1.361-3.156,4.052v5.87
	h-4.35v-5.87c0-2.69-1.055-4.052-3.158-4.052c-1.902,0-2.853,1.148-2.853,3.409v10.721h-4.376V17.489
	c0-2.259,0.575-4.052,1.729-5.38c1.191-1.327,2.75-2.008,4.686-2.008c2.238,0,3.935,0.861,5.056,2.582L24,14.511l1.089-1.828
	c1.121-1.721,2.817-2.582,5.058-2.582c1.935,0,3.494,0.681,4.686,2.008C35.986,13.437,36.562,15.23,36.562,17.489"/>
</svg>
