<?xml version="1.0" encoding="utf-8"?>
<svg version="1.1"
	 xmlns="http://www.w3.org/2000/svg" xmlns:xlink="http://www.w3.org/1999/xlink"
	 x="0px" y="0px" width="48px" height="48px" viewBox="0 0 48 48">
<defs>
</defs>
<path fill="#989898" d="M23.857,34.65h-0.022h-5.231v1.055h0.733v7.081c0,0,0.516,2.337,4.498,2.56v0.002c0.005,0,0.007,0,0.011,0
	s0.008,0,0.012,0v-0.002c3.982-0.223,4.497-2.56,4.497-2.56v-7.081h0.732V34.65H23.857z"/>
<circle opacity="0.4" fill="#FFE98C" cx="24" cy="16.71" r="14.058"/>
<path fill="#FFCD05" d="M36.523,16.533c0-6.884-5.582-12.464-12.464-12.464c-6.883,0-12.464,5.58-12.464,12.464
	c0,2.36,0.669,4.558,1.809,6.44c0.341,0.769,1.225,2.637,2.327,4.015c1.417,1.771,1.417,3.544,1.535,5.551
	c0.118,2.01,1.337,2.111,1.337,2.111h4.311h1.912h4.312c0,0,1.218-0.102,1.336-2.111c0.118-2.007,0.118-3.779,1.536-5.551
	c0.582-0.728,1.102-1.593,1.516-2.362C35.389,22.448,36.523,19.625,36.523,16.533z"/>
</svg>
