<?xml version="1.0" encoding="utf-8"?>
<svg version="1.1"
	 xmlns="http://www.w3.org/2000/svg" xmlns:xlink="http://www.w3.org/1999/xlink"
	 x="0px" y="0px" width="100px" height="100px" viewBox="-5.523 -4.724 100 100">
<defs>
</defs>
<path fill="#C8691C" d="M44.477,0C19.912,0,0,19.913,0,44.477v44.436h17.19h25.423c0.617,0.025,1.239,0.041,1.863,0.041
	c24.564,0,44.477-19.912,44.477-44.477C88.953,19.913,69.041,0,44.477,0z"/>
<path fill="#F79523" d="M72.244,9.745L43.258,88.926c0.406,0.012,0.81,0.027,1.218,0.027c24.564,0,44.477-19.912,44.477-44.477
	C88.953,30.42,82.426,17.895,72.244,9.745z"/>
<path fill="#E6E7E8" d="M45,78.629c0.504,0,1.005-0.016,1.504-0.037h-2.937C44.042,78.612,44.521,78.629,45,78.629z"/>
<path fill="#E6E7E8" d="M45,10.324c-18.86,0-34.152,15.292-34.152,34.152v45.075h13.667V44.513c0-11.277,9.142-20.424,20.418-20.424
	c11.277,0,20.419,9.146,20.419,20.424c0,11.277-9.142,20.417-20.419,20.417c-4.122,0-7.962-1.225-11.171-3.326v14.678
	c2.15,1.324,7.061,2.26,12.819,2.307c18.126-0.828,32.571-15.781,32.571-34.112C79.152,25.616,63.86,10.324,45,10.324z"/>
<path fill="#FFFFFF" d="M79.152,44.477c0-9.524-3.903-18.135-10.192-24.329l-5.666,15.476c1.305,2.691,2.058,5.699,2.058,8.889
	c0,8.328-4.992,15.476-12.14,18.654l-5.619,15.35C65.24,77.19,79.152,62.463,79.152,44.477z"/>
</svg>
