<?xml version="1.0" encoding="utf-8"?>
<svg version="1.1"
	 xmlns="http://www.w3.org/2000/svg" xmlns:xlink="http://www.w3.org/1999/xlink"
	 x="0px" y="0px" width="48px" height="48px" viewBox="0 0 48 48">
<defs>
</defs>
<path fill="#253D80" d="M15.488,40.071H7.846c-0.681,0-1.233-0.566-1.233-1.266l5.464-33.783c0-0.699,0.552-1.265,1.234-1.265
	l14.036-0.176c0,0,5.504-0.129,8.421,2.807c2.299,2.313,2.536,4.527,2.083,7.605s-2.428,8.892-7.218,10.949
	c-3.332,1.432-5.375,1.455-7.722,1.364c-3.619-0.14-4.006-0.007-4.601,0.389c-0.771,0.515-1.173,3.646-1.173,3.646L15.488,40.071z"
	/>
<path fill="#189BD7" d="M27.629,12.721h4.497c0,0,4.803-0.122,7.281,2.34c1.949,1.938,2.137,3.998,1.9,6.675
	c-0.242,2.75-1.423,6.708-4.188,8.779c-2.497,1.873-5.042,2.514-7.118,2.656c-2.039,0.14-3.058-0.176-3.792,0.429
	c-0.751,0.62-0.977,2.665-0.977,2.665l-0.874,5.876c0,0-0.125,0.991-0.257,1.454c-0.23,0.806-1.094,0.823-1.094,0.823l-7.543-0.052
	c-0.462-0.176-0.484-0.727-0.394-1.214l4.76-29.022c0-0.699,0.552-1.265,1.233-1.265l6.646-0.176"/>
<path fill="#242F65" d="M37.854,13.953c-2.523-1.313-5.687-1.299-5.687-1.299l-4.405-0.048l-6.697,0.26
	c-0.682,0-1.233,0.566-1.233,1.265l-2.374,14.475c0.196-0.816,0.481-1.663,0.851-1.909c0.595-0.396,0.982-0.528,4.601-0.389
	c2.347,0.091,4.39,0.067,7.722-1.364c4.79-2.058,6.765-7.871,7.218-10.949C37.852,13.98,37.854,13.966,37.854,13.953z"/>
</svg>
