<?xml version="1.0" encoding="utf-8"?>
<svg version="1.1"
	 xmlns="http://www.w3.org/2000/svg" xmlns:xlink="http://www.w3.org/1999/xlink"
	 x="0px" y="0px" width="100px" height="100px" viewBox="-5.655 -5.655 100 100">
<defs>
</defs>
<path fill="#C8691C" d="M88.689,76.019c0,6.998-5.672,12.671-12.67,12.671H12.67C5.673,88.689,0,83.017,0,76.019V12.67
	C0,5.673,5.673,0,12.67,0h63.35c6.998,0,12.67,5.673,12.67,12.67V76.019z"/>
<path fill="#F79523" d="M76.02,0H62.586L42.43,88.689h33.59c6.998,0,12.67-5.673,12.67-12.671V12.67C88.689,5.673,83.018,0,76.02,0z
	"/>
<path fill="#E6E7E8" d="M63.284,13.892c4.597,3.403,7.796,8.307,8.652,14.545h0.001c0.347,2.506,0.418,5.042,0.229,7.531
	c-0.453,5.95-2.391,11.654-5.601,16.067c-3.24,4.459-7.775,7.605-13.387,8.382c-1.389,0.192-2.838,0.238-4.345,0.123h-0.003
	c-3.376-0.268-5.255-1.57-7.455-3.096c-0.426-0.295-0.866-0.601-1.326-0.9c-0.871,4.465-1.864,8.819-3.379,12.671
	c-1.667,4.236-3.962,7.862-7.409,10.37l-1.02,0.74l-0.176-1.25c-1.527-10.852,0.831-19.66,3.124-28.223
	c0.792-2.957,1.576-5.885,2.175-8.797c-1.355-2.453-1.712-5.655-1.248-8.682c0.329-2.146,1.069-4.214,2.158-5.879
	c1.123-1.715,2.621-3.008,4.434-3.538c1.402-0.41,2.97-0.358,4.665,0.314v0.002c5.626,2.23,3.664,8.393,1.7,14.551
	c-0.616,1.935-1.233,3.871-1.593,5.674c-0.723,3.615-0.309,6.566,3.769,7.381v0.003c2.279,0.462,4.313,0.032,6.069-1.026
	c2.413-1.459,4.323-4.106,5.643-7.287c1.341-3.233,2.064-6.995,2.082-10.613c0.024-4.773-1.171-9.273-3.783-11.924
	c-2.938-2.979-6.553-4.47-10.271-4.759c-3.589-0.28-7.277,0.552-10.553,2.239c-3.281,1.688-6.144,4.229-8.078,7.364
	c-2.087,3.382-3.094,7.465-2.373,11.919c0.217,1.346,0.863,2.412,1.484,3.436c1.373,2.266,2.64,4.354,0.216,8.649l-0.275,0.487
	l-0.547-0.12c-3.813-0.843-6.4-2.691-8.056-5.298c-1.629-2.563-2.326-5.841-2.387-9.597v-0.018
	c0.082-7.092,2.633-13.367,6.922-18.073c4.31-4.729,10.368-7.871,17.434-8.661c0.692-0.079,1.389-0.138,2.089-0.177
	c0.684-0.039,1.38-0.059,2.086-0.061C51.875,8.348,58.375,10.259,63.284,13.892L63.284,13.892z"/>
<path fill="#FFFFFF" d="M71.938,28.437L71.938,28.437c-0.857-6.238-4.057-11.142-8.653-14.545c-1.054-0.779-2.193-1.463-3.382-2.082
	l-2.21,9.73c2.301,2.694,3.375,6.924,3.352,11.416c-0.018,3.618-0.741,7.38-2.082,10.613c-1.319,3.18-3.229,5.828-5.643,7.287
	c-0.784,0.473-1.627,0.813-2.521,1.011l-1.972,8.673c0.002,0,0.003,0,0.004,0h0.003c1.507,0.115,2.956,0.069,4.345-0.123
	c5.611-0.776,10.146-3.923,13.387-8.382c3.21-4.413,5.147-10.117,5.601-16.067C72.355,33.479,72.284,30.943,71.938,28.437z"/>
</svg>
