<?xml version="1.0" encoding="utf-8"?>
<svg version="1.1"
	 xmlns="http://www.w3.org/2000/svg" xmlns:xlink="http://www.w3.org/1999/xlink"
	 x="0px" y="0px" width="48px" height="48px" viewBox="0 0 48 48">
<defs>
</defs>
<path id="Playstation_1_" fill="#3588A6" d="M25.698,41.178l-6.743-2.891V6.822c0,0,14.651,2.461,16.668,8.562
	s-1.125,10.052-2.229,10.169c-3.08,0.32-4.248-1.606-4.248-1.606v-9.848l-3.344-1.391L25.698,41.178L25.698,41.178z M27.45,36.844
	v3.691c0,0,15.871-5.139,18.209-7.117c2.336-1.98-5.469-6.902-9.662-5.941c0,0-4.457,0.219-8.494,1.982
	c-0.039,0.016,0,3.316,0,3.316l10.246-2.408l3.609,1.605L27.45,36.844L27.45,36.844z M17.257,36.576c0,0-2.07,1.07-6.688,1.016
	s-8.707-1.338-8.654-4.119c0.053-2.783,7.645-5.834,15.29-7.119v3.906l-8.122,2.143c0,0-1.391,1.766,0.478,1.818
	c4.247,0.119,7.75-1.018,7.75-1.018L17.257,36.576z"/>
</svg>
