<?xml version="1.0" encoding="utf-8"?>
<svg version="1.1"
	 xmlns="http://www.w3.org/2000/svg" xmlns:xlink="http://www.w3.org/1999/xlink"
	 x="0px" y="0px" width="48px" height="48px" viewBox="-2.333 -8.229 48 48">
<defs>
</defs>
<rect x="13.586" fill="#F79523" width="16.303" height="9.764"/>
<polygon fill="#C8691C" points="29.889,9.764 22.09,9.764 13.586,1.475 13.586,0 29.889,0 "/>
<path fill="#F79523" d="M40.759,11.575H2.718C1.217,11.575,0,12.693,0,14.072v12.488c0,1.378,1.217,2.497,2.718,2.497h6.917v-7.675
	c0-1.502,1.217-2.718,2.717-2.718h18.774c1.499,0,2.716,1.216,2.716,2.718v7.675h6.918c1.499,0,2.717-1.119,2.717-2.497V14.072
	C43.476,12.693,42.258,11.575,40.759,11.575z"/>
<polygon fill="#52CAF5" points="31.684,34.28 11.974,34.28 13.586,22.155 29.889,22.155 "/>
<rect x="16.336" y="25.162" fill="#FFFFFF" width="11.474" height="1.207"/>
<rect x="16.336" y="27.88" fill="#FFFFFF" width="11.474" height="1.207"/>
<rect x="16.336" y="30.597" fill="#FFFFFF" width="11.474" height="1.208"/>
<rect x="2.448" y="13.689" fill="#FFFFFF" width="4.529" height="1.812"/>
<rect x="8.788" y="13.689" fill="#FFFFFF" width="4.529" height="1.812"/>
<path fill="#C8691C" d="M31.201,18.673c1.34,0.038,2.43,1.045,2.604,2.348l8.449,7.62c0.734-0.445,1.222-1.21,1.222-2.08V14.072
	c0-1.379-1.218-2.497-2.717-2.497H23.333L31.201,18.673z"/>
</svg>
