<?xml version="1.0" encoding="utf-8"?>
<svg version="1.1"
	 xmlns="http://www.w3.org/2000/svg" xmlns:xlink="http://www.w3.org/1999/xlink"
	 x="0px" y="0px" width="48px" height="48px" viewBox="0 0 48 48">
<defs>
</defs>
<g>
	<g>
		<path fill="#CF2527" d="M34.082,38.413c5.465-3.427,9.107-9.557,9.107-16.548c0-10.743-8.593-19.453-19.19-19.453
			c-10.599,0-19.188,8.709-19.188,19.453c0,10.743,8.59,19.451,19.188,19.451c1.56,0,3.073-0.192,4.523-0.549
			c1.82,3.314,4.597,5.659,10.487,4.537v-3.296C39.01,42.008,35.231,41.058,34.082,38.413z M33.949,24.437
			c0,3.247-1.035,6.195-2.715,8.373c-2.109-2.245-5.414-4.091-9.608-3.855v0.394v3.429c0,0,2.846,0.112,4.793,3.461
			c-0.729,0.215-1.489,0.33-2.273,0.33c-5.413,0-9.8-5.431-9.8-12.131c0-0.86,0-4.152,0-5.012c0-6.7,4.387-12.132,9.8-12.132
			s9.804,5.432,9.804,12.132C33.949,20.285,33.949,23.577,33.949,24.437z"/>
	</g>
</g>
</svg>
