<?xml version="1.0" encoding="utf-8"?>
<svg version="1.1"
	 xmlns="http://www.w3.org/2000/svg" xmlns:xlink="http://www.w3.org/1999/xlink"
	 x="0px" y="0px" width="48px" height="48px" viewBox="0 0 48 48">
<defs>
</defs>
<path fill="#FEE000" d="M14.061,21.584c-0.017-0.001-0.028-0.001-0.028-0.001C13.978,21.597,13.99,21.596,14.061,21.584z"/>
<path fill="#FEE000" d="M43.184,2.532H4.815c-1.262,0-2.284,1.022-2.284,2.284v38.368c0,1.262,1.022,2.285,2.284,2.285h38.368
	c1.264,0,2.285-1.023,2.285-2.285V4.815C45.469,3.554,44.447,2.532,43.184,2.532z M41.691,20.72l-8.352,7.739l0.211,1.617
	c-3.131,0.365-12.006-0.5-12.006-0.5l11.512-8.069c-6.801-1.92-18.529,0.002-18.996,0.077c0.554,0.017,9.538,0.301,13.404,1.01
	l-11.428,8.368c0.352,0.018,10.771,1.125,17.561-0.182v0.002c1.02-0.191,1.4-0.295,2.418-0.699c-0.625,0.719-1.811,1.24-2.213,1.428
	l1.527,8.65c0.059,0.283-0.059,0.574-0.297,0.742c-0.242,0.166-0.561,0.178-0.811,0.104l-10.109-5.973L13.852,40.93
	c-0.118,0.07-0.251,0.105-0.383,0.105c-0.153,0-0.306-0.047-0.435-0.139c-0.24-0.172-0.355-0.469-0.288-0.754l2.076-11.684
	l-8.431-7.732c-0.227-0.189-0.315-0.495-0.225-0.773c0.09-0.278,0.341-0.478,0.636-0.505l11.41-1.305l5.14-10.741
	c0.115-0.274,0.384-0.453,0.685-0.453c0.3,0,0.572,0.179,0.685,0.453l4.988,10.981l11.486,1.064c0.293,0.028,0.541,0.224,0.633,0.5
	C41.922,20.223,41.836,20.526,41.691,20.72L41.691,20.72z"/>
</svg>
