<?xml version="1.0" encoding="utf-8"?>
<svg version="1.1"
	 xmlns="http://www.w3.org/2000/svg" xmlns:xlink="http://www.w3.org/1999/xlink"
	 x="0px" y="0px" width="48px" height="48px" viewBox="0 0 48 48">
<defs>
</defs>
<path id="reddit_1_" fill="#F79523" d="M33.748,25.688c0.116,0.299,0.169,0.607,0.169,0.914c0,0.619-0.212,1.219-0.57,1.709
	c-0.354,0.484-0.856,0.859-1.447,1.025H31.9c-0.006,0.002-0.01,0.002-0.012,0.004c-0.003,0-0.007,0.002-0.009,0.002
	c-0.276,0.094-0.56,0.139-0.842,0.139c-0.659,0-1.307-0.238-1.824-0.643c-0.513-0.404-0.902-0.982-1.023-1.67h-0.002
	c0-0.002,0-0.006,0-0.008s0-0.004-0.002-0.006h0.002c-0.039-0.178-0.059-0.355-0.059-0.529c0-0.596,0.202-1.168,0.538-1.64
	c0.333-0.47,0.803-0.842,1.353-1.034c0.003,0,0.005-0.001,0.005-0.001c0.003,0,0.003-0.003,0.006-0.003
	c0.311-0.115,0.64-0.173,0.965-0.173c0.593,0,1.176,0.18,1.668,0.509c0.485,0.324,0.881,0.796,1.078,1.386
	c0.002,0.004,0.002,0.008,0.004,0.01c0,0.004,0.002,0.008,0.004,0.01H33.748L33.748,25.688z M31.935,32.992
	c-0.231-0.152-0.5-0.242-0.784-0.242c-0.229,0-0.469,0.066-0.681,0.207l0,0c-2.003,1.195-4.358,1.85-6.699,1.85
	c-1.755,0-3.499-0.371-5.08-1.146l-0.008-0.004l-0.008-0.004c-0.238-0.096-0.51-0.305-0.806-0.5
	c-0.15-0.098-0.308-0.195-0.482-0.268c-0.172-0.072-0.363-0.123-0.568-0.123c-0.169,0-0.347,0.037-0.522,0.117
	c-0.009,0.004-0.018,0.006-0.026,0.01h0.001c-0.276,0.105-0.491,0.299-0.63,0.525c-0.145,0.236-0.215,0.51-0.215,0.783
	c0,0.246,0.058,0.49,0.179,0.715c0.114,0.211,0.29,0.396,0.52,0.52c2.259,1.523,4.919,2.215,7.589,2.213
	c2.407,0,4.83-0.559,6.986-1.572l0.012-0.006l0.011-0.008c0.284-0.168,0.661-0.318,1.018-0.539c0.177-0.111,0.349-0.242,0.497-0.41
	c0.147-0.168,0.265-0.375,0.332-0.619l0,0c0.027-0.109,0.041-0.215,0.041-0.32c0-0.199-0.048-0.389-0.131-0.561
	C32.359,33.352,32.164,33.143,31.935,32.992z M16.074,29.326c0.004,0,0.009,0.002,0.014,0.004c0.288,0.105,0.585,0.158,0.879,0.158
	c0.734,0,1.448-0.301,1.988-0.791c0.54-0.49,0.908-1.188,0.908-1.979c0-0.021,0-0.041,0-0.066c0.002-0.035,0.002-0.074,0.002-0.113
	c0-0.787-0.364-1.486-0.898-1.979c-0.536-0.494-1.248-0.796-1.985-0.796c-0.196,0-0.397,0.023-0.593,0.069
	c-0.002,0-0.005,0.001-0.008,0.001c0,0-0.002,0-0.003,0c-0.976,0.204-1.832,0.928-2.147,1.924l0,0l0,0
	c0,0.002-0.001,0.004-0.001,0.004c-0.091,0.273-0.133,0.555-0.133,0.834c0,0.609,0.202,1.203,0.549,1.693
	c0.344,0.48,0.832,0.857,1.417,1.035C16.068,29.324,16.069,29.324,16.074,29.326z M46.662,22.212v0.003
	c0.008,0.1,0.01,0.198,0.01,0.296c0,1.101-0.354,2.161-0.942,3.059c-0.55,0.842-1.309,1.545-2.184,2.021
	c0.056,0.439,0.089,0.881,0.089,1.32c-0.001,2.371-0.818,4.703-2.241,6.57v0.002H41.39c-2.633,3.502-6.675,5.566-10.757,6.607l0,0
	l-0.004,0.004c-2.176,0.527-4.421,0.797-6.665,0.797c-3.345,0-6.687-0.602-9.806-1.854l-0.001-0.002h-0.002
	c-3.234-1.334-6.314-3.453-8.204-6.557c-1.016-1.654-1.574-3.598-1.574-5.551c0-0.441,0.03-0.883,0.088-1.322
	c-0.851-0.479-1.588-1.158-2.135-1.969c-0.584-0.872-0.955-1.893-1.002-2.972v-0.004v-0.003V22.65
	c0.001-1.512,0.658-2.944,1.678-3.999c1.02-1.055,2.413-1.745,3.908-1.745c0.021,0,0.042,0,0.062,0
	c0.157-0.01,0.315-0.017,0.473-0.017c0.75,0,1.503,0.121,2.218,0.395l0.004,0.003l0.003,0.002c0.61,0.257,1.216,0.566,1.756,0.996
	c0.175-0.092,0.366-0.195,0.581-0.276c3.275-1.939,7.082-2.688,10.791-2.903c0.032-1.837,0.258-3.761,1.154-5.445
	c0.746-1.399,2.042-2.488,3.585-2.865l0.006-0.003l0.008-0.001c0.589-0.113,1.18-0.166,1.77-0.166c1.567,0,3.115,0.371,4.565,0.951
	c0.642-0.969,1.558-1.725,2.632-2.148l0.011-0.006l0.011-0.004c0.63-0.196,1.296-0.311,1.965-0.311c0.705,0,1.418,0.129,2.083,0.426
	V5.531c0.002,0.002,0.002,0.002,0.002,0.002c0.005,0.002,0.009,0.005,0.013,0.005c0.954,0.368,1.763,1.047,2.335,1.892
	c0.575,0.848,0.913,1.864,0.913,2.909c0,0.193-0.011,0.386-0.034,0.579l-0.002,0.004c0,0.003,0,0.008-0.001,0.011
	c-0.112,1.35-0.797,2.535-1.765,3.38c-0.975,0.848-2.235,1.36-3.53,1.36c-0.208,0-0.417-0.011-0.626-0.039
	c-1.285-0.098-2.481-0.72-3.361-1.644c-0.883-0.923-1.452-2.156-1.452-3.487c0-0.064,0.007-0.13,0.008-0.194
	c-1.204-0.537-2.484-0.982-3.757-0.981c-0.185,0-0.369,0.011-0.553,0.028h-0.002c-0.952,0.092-1.838,0.692-2.267,1.556v0.001v0.003
	c-0.651,1.269-0.781,2.751-0.802,4.224c3.652,0.238,7.325,1.115,10.547,2.966h0.005l0.046,0.027
	c0.062,0.036,0.175,0.098,0.276,0.152c0.222-0.179,0.456-0.364,0.725-0.523c0.976-0.651,2.133-0.974,3.29-0.974
	c0.514,0,1.027,0.065,1.527,0.193h0.001l0.021,0.006c0.008,0.001,0.012,0.004,0.019,0.004v0.001c1.179,0.3,2.246,0.977,3.048,1.89
	c0.803,0.914,1.344,2.071,1.447,3.327L46.662,22.212L46.662,22.212L46.662,22.212z M35.907,10.261c0,0.05,0,0.1,0.005,0.152v0.003
	v0.006c0.024,0.634,0.323,1.225,0.779,1.661c0.457,0.437,1.064,0.707,1.679,0.709h0.01h0.008c0.045,0.004,0.09,0.004,0.134,0.004
	c0.621,0.001,1.238-0.267,1.702-0.702c0.465-0.438,0.77-1.032,0.794-1.671l0.001-0.003v-0.004c0.005-0.049,0.007-0.096,0.007-0.146
	c0-0.659-0.308-1.286-0.79-1.751c-0.48-0.465-1.128-0.752-1.765-0.751c-0.205,0-0.409,0.028-0.609,0.09l-0.006,0.001L37.85,7.862
	c-0.526,0.137-1.018,0.46-1.372,0.89C36.121,9.18,35.907,9.71,35.907,10.261z M8.952,20.049c-0.488-0.228-0.993-0.39-1.492-0.388
	c-0.083,0-0.168,0.005-0.252,0.014H7.196l-0.012,0.001c-0.716,0.02-1.439,0.333-1.982,0.833c-0.543,0.5-0.902,1.173-0.93,1.916
	v0.006l-0.001,0.006c-0.004,0.06-0.006,0.12-0.006,0.177c0,0.458,0.141,0.901,0.378,1.304c0.177,0.301,0.408,0.574,0.669,0.813
	C6.15,22.897,7.458,21.342,8.952,20.049z M40.762,29.016c0-1.635-0.589-3.275-1.543-4.597c-1.904-2.648-4.855-4.375-7.927-5.338
	l-0.021-0.008c-0.59-0.181-1.186-0.341-1.785-0.478c-1.794-0.409-3.635-0.612-5.473-0.612c-2.469,0-4.937,0.365-7.3,1.095
	c-3.07,0.974-6.032,2.689-7.931,5.346v0.002c-0.962,1.327-1.526,2.973-1.526,4.612c0,0.605,0.076,1.209,0.235,1.797h0.002
	c0.346,1.318,1.022,2.496,1.896,3.521c0.875,1.027,1.947,1.902,3.076,2.617c0.25,0.156,0.501,0.303,0.758,0.447
	c3.277,1.83,7.052,2.631,10.799,2.631c0.634,0,1.271-0.021,1.902-0.066c3.772-0.313,7.563-1.426,10.625-3.703l0.002-0.002
	c0.975-0.721,1.878-1.594,2.593-2.586c0.718-0.992,1.243-2.102,1.477-3.309v-0.002v-0.002
	C40.717,29.932,40.762,29.475,40.762,29.016z M43.741,22.513c-0.002-0.396-0.092-0.792-0.29-1.16l-0.006-0.004l-0.002-0.006
	c-0.265-0.547-0.682-0.96-1.185-1.242c-0.504-0.284-1.092-0.427-1.683-0.427c-0.533,0-1.064,0.119-1.536,0.356
	c1.499,1.301,2.813,2.865,3.662,4.705c0.275-0.237,0.509-0.528,0.683-0.852C43.612,23.458,43.741,22.982,43.741,22.513z"/>
</svg>
