<?xml version="1.0" encoding="utf-8"?>
<svg version="1.1"
	 xmlns="http://www.w3.org/2000/svg" xmlns:xlink="http://www.w3.org/1999/xlink"
	 x="0px" y="0px" width="48px" height="48px" viewBox="0 0 48 48">
<defs>
</defs>
<path fill="#FFFFFF" d="M5.651,30.111c0,5.002,6.513,9.06,14.549,9.06c8.037,0,14.55-4.058,14.55-9.06s-6.514-9.059-14.55-9.059
	C12.165,21.052,5.651,25.108,5.651,30.111"/>
<path fill="#E51D2E" d="M20.539,38.435c-7.112,0.701-13.25-2.513-13.713-7.184c-0.462-4.669,4.931-9.023,12.042-9.726
	c7.112-0.704,13.251,2.511,13.713,7.18C33.043,33.375,27.651,37.729,20.539,38.435 M34.764,22.933
	c-0.604-0.181-1.02-0.304-0.703-1.099c0.688-1.727,0.758-3.216,0.015-4.278c-1.395-1.991-5.21-1.885-9.585-0.053
	c0-0.002-1.373,0.601-1.022-0.489c0.672-2.163,0.571-3.974-0.476-5.02c-2.372-2.375-8.683,0.09-14.095,5.499
	c-4.052,4.053-6.405,8.35-6.405,12.063c0,7.105,9.111,11.424,18.024,11.424c11.684,0,19.455-6.788,19.455-12.177
	C39.971,25.545,37.229,23.697,34.764,22.933"/>
<path fill="#F89939" d="M42.523,9.932c-2.822-3.128-6.984-4.321-10.825-3.504h-0.001c-0.888,0.19-1.455,1.064-1.265,1.952
	c0.189,0.889,1.063,1.455,1.951,1.266c2.733-0.581,5.689,0.269,7.697,2.49c1.937,2.145,2.581,5.16,1.69,7.909v0
	c-0.28,0.863,0.192,1.791,1.055,2.071c0.003,0,0.004,0,0.005,0.001c0.863,0.279,1.79-0.194,2.07-1.057v-0.007
	C46.106,17.317,45.345,13.056,42.523,9.932"/>
<path fill="#F89939" d="M38.189,13.842c-1.372-1.523-3.4-2.102-5.272-1.704c-0.77,0.141-1.278,0.878-1.138,1.647
	c0.142,0.769,0.879,1.279,1.646,1.138c0.026-0.005,0.056-0.011,0.081-0.017v0.001c0.947-0.203,1.93,0.114,2.579,0.832
	c0.649,0.719,0.864,1.73,0.564,2.652h0.001c-0.241,0.744,0.168,1.542,0.91,1.783c0.745,0.24,1.543-0.168,1.784-0.913
	C39.933,17.44,39.565,15.365,38.189,13.842"/>
<path fill="#010101" d="M20.931,29.977c-0.249,0.427-0.798,0.631-1.229,0.452c-0.423-0.175-0.557-0.65-0.315-1.068
	c0.248-0.415,0.777-0.618,1.199-0.451C21.015,29.067,21.168,29.548,20.931,29.977 M18.665,32.886
	c-0.688,1.097-2.161,1.579-3.271,1.07c-1.094-0.497-1.416-1.772-0.728-2.842c0.679-1.065,2.103-1.541,3.204-1.079
	C18.985,30.511,19.342,31.777,18.665,32.886 M21.25,25.117c-3.385-0.88-7.21,0.807-8.68,3.789c-1.498,3.041-0.049,6.418,3.369,7.521
	c3.542,1.143,7.717-0.608,9.168-3.891C26.54,29.327,24.752,26.023,21.25,25.117"/>
</svg>
