<?xml version="1.0" encoding="utf-8"?>
<svg version="1.1"
	 xmlns="http://www.w3.org/2000/svg" xmlns:xlink="http://www.w3.org/1999/xlink"
	 x="0px" y="0px" width="48px" height="48px" viewBox="-2.795 -3.039 48 48">
<defs>
</defs>
<circle fill-rule="evenodd" clip-rule="evenodd" fill="#52CAF5" cx="21.177" cy="21.177" r="21.177"/>
<path fill-rule="evenodd" clip-rule="evenodd" fill="#FFFFFF" d="M33.006,24.128c-0.076-0.174-0.108-0.334-0.068-0.527
	c0.284-1.404,0.294-2.813,0.063-4.229c-1.029-6.243-6.911-10.619-13.162-9.773c-0.366,0.048-0.669-0.01-0.998-0.184
	c-2.642-1.412-5.872-0.927-8.02,1.183c-2.115,2.077-2.647,5.324-1.292,7.968c0.143,0.279,0.186,0.529,0.123,0.839
	c-0.132,0.634-0.143,1.282-0.173,1.958c0.022,0.377,0.029,0.786,0.072,1.192c0.707,6.764,6.904,11.511,13.651,10.455
	c0.206-0.031,0.38,0.002,0.565,0.095c1.272,0.643,2.643,0.801,4.023,0.578C32.302,32.964,34.814,28.33,33.006,24.128z
	 M27.124,27.281c-0.757,0.863-1.711,1.415-2.795,1.728c-2.03,0.585-4.086,0.603-6.109-0.006c-1.842-0.554-3.2-1.694-3.74-3.607
	c-0.382-1.355,0.49-2.368,1.842-2.21c0.585,0.067,0.97,0.42,1.241,0.907c0.173,0.305,0.316,0.627,0.469,0.943
	c0.503,1.027,1.31,1.61,2.459,1.737c0.939,0.103,1.85,0.035,2.719-0.36c0.337-0.152,0.634-0.359,0.878-0.642
	c0.649-0.752,0.532-1.816-0.267-2.406c-0.771-0.571-1.697-0.725-2.597-0.925c-1.29-0.287-2.582-0.56-3.796-1.101
	c-1.252-0.559-2.269-1.369-2.599-2.786c-0.381-1.645,0.076-3.036,1.393-4.103c1.161-0.939,2.557-1.243,4.005-1.369
	c0.334-0.03,0.673-0.006,1.009-0.006c1.335-0.035,2.635,0.142,3.843,0.756c0.922,0.471,1.688,1.113,2.132,2.076
	c0.216,0.473,0.319,0.976,0.182,1.479c-0.171,0.609-0.586,1.034-1.217,1.163c-0.657,0.133-1.267,0.029-1.682-0.581
	c-0.196-0.291-0.385-0.587-0.563-0.888c-0.564-0.96-1.369-1.495-2.511-1.492c-0.521,0.002-1.039-0.014-1.55,0.109
	c-0.457,0.111-0.878,0.301-1.225,0.624c-0.621,0.577-0.597,1.367,0.065,1.893c0.435,0.348,0.952,0.541,1.485,0.676
	c1.25,0.32,2.506,0.615,3.755,0.942c0.681,0.178,1.33,0.445,1.96,0.761C28.839,22.061,28.631,25.567,27.124,27.281z"/>
</svg>
