<?xml version="1.0" encoding="utf-8"?>
<svg version="1.1"
	 xmlns="http://www.w3.org/2000/svg" xmlns:xlink="http://www.w3.org/1999/xlink"
	 x="0px" y="0px" width="100px" height="100px" viewBox="-6.039 -6.039 100 100">
<defs>
</defs>
<path fill-rule="evenodd" clip-rule="evenodd" fill="#52CAF5" d="M61.204,30.871c0,0.504-0.502,6.293-0.502,7.048
	c0,1.007,0.502,1.764,2.014,1.764c0.503,0,3.272-1.258,4.028-1.258c1.258,0,2.518,1.006,2.518,1.762
	c0,3.021-8.058,2.517-8.058,6.545c0,5.287,10.576,14.351,14.603,13.595v0.756c-2.015,2.015-6.042,2.266-8.307,3.021
	c-0.756,0.252-1.009,4.278-2.015,4.278c-0.756,0-4.281-0.755-5.034-0.755c-6.546,0-9.819,6.294-16.616,6.294
	c-6.545,0-9.818-6.294-16.363-6.294c-0.756,0-4.281,0.755-4.784,0.755c-2.014,0-1.511-3.271-2.266-4.278
	c-2.518-0.755-6.294-0.755-8.308-3.272c2.266-1.511,5.035-1.763,8.055-4.28c2.518-2.014,6.546-7.553,6.546-9.818
	c0-3.777-8.056-4.028-8.056-6.545c0-1.762,2.266-1.511,2.266-1.511c0.755,0,3.524,1.007,4.279,1.007
	c3.021,0,1.762-3.273,1.762-4.531v-7.302c1.512-10.321,9.819-13.846,17.121-13.846C54.157,14.003,61.204,21.052,61.204,30.871z"/>
<path fill-rule="evenodd" clip-rule="evenodd" fill="#F79523" d="M43.961,0C19.682,0,0,19.682,0,43.961
	C0,68.24,19.682,87.922,43.961,87.922S87.922,68.24,87.922,43.961C87.922,19.682,68.24,0,43.961,0z M43.961,83.525
	c-21.852,0-39.565-17.713-39.565-39.564c0-21.851,17.714-39.565,39.565-39.565S83.525,22.11,83.525,43.961
	C83.525,65.813,65.813,83.525,43.961,83.525z"/>
<path fill-rule="evenodd" clip-rule="evenodd" fill="#3588A6" d="M44.088,14.003c-7.302,0-15.608,3.525-17.121,13.846v7.302
	c0,1.258,1.259,4.531-1.762,4.531c-0.754,0-3.523-1.007-4.279-1.007c0,0-2.266-0.251-2.266,1.511c0,2.517,8.056,2.768,8.056,6.545
	c0,2.266-4.028,7.805-6.546,9.818c-3.021,2.518-5.79,2.77-8.055,4.28c2.013,2.518,5.79,2.518,8.308,3.272
	c0.755,1.007,0.251,4.278,2.266,4.278c0.502,0,4.028-0.755,4.784-0.755c2.499,0,4.52,0.919,6.429,2.054l18.251-53.907
	C49.799,14.639,47.081,14.003,44.088,14.003z"/>
<path fill-rule="evenodd" clip-rule="evenodd" fill="#C8691C" d="M30.065,81.01C15.07,75.383,4.396,60.922,4.396,43.961
	c0-21.851,17.714-39.565,39.565-39.565c3.989,0,7.838,0.596,11.469,1.695l1.412-4.169C52.768,0.675,48.443,0,43.961,0
	C19.682,0,0,19.682,0,43.961c0,18.896,11.923,35.002,28.654,41.218L30.065,81.01z"/>
</svg>
