<?xml version="1.0" encoding="utf-8"?>
<svg version="1.1"
	 xmlns="http://www.w3.org/2000/svg" xmlns:xlink="http://www.w3.org/1999/xlink"
	 x="0px" y="0px" width="48px" height="48px" viewBox="0 0 48 48">
<defs>
</defs>
<path fill="#F04C23" d="M2.105,31.783c0,0.544,0.197,0.955,0.591,1.232c0.395,0.279,0.816,0.377,1.263,0.297
	c0.421-0.082,0.717-0.23,0.887-0.449c0.17-0.217,0.255-0.578,0.255-1.08v-5.909c0-0.421-0.146-0.776-0.438-1.068
	c-0.292-0.293-0.648-0.438-1.069-0.438c-0.407,0-0.757,0.146-1.049,0.438c-0.292,0.292-0.438,0.647-0.438,1.068V31.783z
	 M6.792,34.31c0,0.396,0.14,0.69,0.418,0.887c0.279,0.197,0.635,0.295,1.07,0.295c0.448,0,0.812-0.098,1.089-0.295
	C9.648,35,9.788,34.705,9.788,34.31V20.536c0-0.408-0.146-0.757-0.438-1.049c-0.292-0.292-0.648-0.438-1.069-0.438
	c-0.408,0-0.758,0.146-1.05,0.438c-0.292,0.292-0.438,0.641-0.438,1.049V34.31z M11.458,34.962c0,0.396,0.144,0.69,0.428,0.887
	c0.286,0.197,0.652,0.295,1.101,0.295c0.435,0,0.791-0.098,1.07-0.295c0.278-0.196,0.417-0.491,0.417-0.887V22.391
	c0-0.421-0.146-0.781-0.438-1.079c-0.293-0.3-0.642-0.449-1.05-0.449c-0.421,0-0.781,0.149-1.081,0.449
	c-0.298,0.298-0.448,0.658-0.448,1.079V34.962L11.458,34.962z M16.146,35.024c0,0.746,0.501,1.119,1.507,1.119
	s1.508-0.373,1.508-1.119V14.647c0-1.142-0.346-1.786-1.039-1.936c-0.448-0.108-0.89,0.021-1.324,0.387
	c-0.436,0.367-0.652,0.884-0.652,1.549V35.024L16.146,35.024z M20.913,35.614V13.445c0-0.706,0.21-1.128,0.632-1.264
	c0.91-0.217,1.813-0.325,2.71-0.325c2.078,0,4.014,0.488,5.807,1.467c1.794,0.978,3.244,2.313,4.351,4.004
	c1.107,1.691,1.75,3.556,1.926,5.593c0.829-0.353,1.712-0.529,2.649-0.529c1.902,0,3.528,0.672,4.88,2.017
	c1.353,1.345,2.027,2.962,2.027,4.85c0,1.902-0.675,3.526-2.027,4.87c-1.352,1.345-2.972,2.017-4.86,2.017l-17.728-0.02
	c-0.123-0.04-0.214-0.116-0.274-0.225C20.944,35.791,20.913,35.696,20.913,35.614L20.913,35.614z"/>
</svg>
