<?xml version="1.0" encoding="utf-8"?>
<svg version="1.1"
	 xmlns="http://www.w3.org/2000/svg" xmlns:xlink="http://www.w3.org/1999/xlink"
	 x="0px" y="0px" width="100px" height="100px" viewBox="-6.207 -5.438 100 100">
<defs>
</defs>
<path fill="#C8691C" d="M26.947,65.404h31.52v-7.377h-31.52V65.404z"/>
<path fill="#C8691C" d="M69.793,53.954V76.89H16.679V53.954h6.639v15.291h39.834V53.954H69.793z"/>
<path fill="#C8691C" d="M27.238,51.206l1.135-7.222l31.104,4.891l-1.135,7.223L27.238,51.206z"/>
<path fill="#C8691C" d="M31.329,34.81l28.77,12.202l2.986-7.039L34.313,27.771L31.329,34.81z"/>
<path fill="#C8691C" d="M41.629,16.64L63.963,38.5l5.348-5.464l-22.334-21.86L41.629,16.64L41.629,16.64z"/>
<path fill="#52CAF5" d="M63.001,0H24.585C11.008,0,0,11.006,0,24.585v39.952c0,13.578,11.008,24.586,24.585,24.586h38.416
	c13.578,0,24.585-11.008,24.585-24.586V24.585C87.586,11.006,76.579,0,63.001,0z M81.896,62.942
	c0,11.813-8.576,20.391-20.391,20.391H26.081c-11.813,0-20.392-8.578-20.392-20.391V26.181c0-11.815,8.578-20.392,20.392-20.392
	h35.425c11.814,0,20.391,8.577,20.391,20.392V62.942z"/>
<path fill="#3588A6" d="M40.694,83.333H26.081c-11.813,0-20.392-8.578-20.392-20.391V26.181c0-11.815,8.578-20.392,20.392-20.392
	h30.897L58.195,0h-33.61C11.008,0,0,11.006,0,24.585v39.952c0,13.578,11.008,24.586,24.585,24.586h14.893L40.694,83.333z"/>
<polygon fill="#F79523" points="63.152,69.245 43.358,69.245 41.816,76.89 69.793,76.89 69.793,53.954 63.152,53.954 "/>
<polygon fill="#F79523" points="51.934,26.726 63.963,38.5 69.311,33.036 53.735,17.792 "/>
<polygon fill="#F79523" points="48.808,42.223 60.099,47.012 63.085,39.973 50.351,34.573 "/>
<polygon fill="#F79523" points="46.389,54.218 58.343,56.098 59.478,48.875 47.836,47.045 "/>
<polygon fill="#F79523" points="44.133,65.404 58.467,65.404 58.467,58.027 45.621,58.027 "/>
</svg>
