<?xml version="1.0" encoding="utf-8"?>
<svg version="1.1"
	 xmlns="http://www.w3.org/2000/svg" xmlns:xlink="http://www.w3.org/1999/xlink"
	 x="0px" y="0px" width="48px" height="48px" viewBox="0 0 48 48">
<defs>
</defs>
<path fill="#010101" d="M15.106,37.85c1.161,0,2.299-0.562,2.991-1.599c1.1-1.651,0.654-3.881-0.996-4.979l-2.824-1.883
	c0.483-0.133,0.991-0.203,1.516-0.203c3.18,0,5.758,2.577,5.758,5.758c0,3.178-2.578,5.756-5.758,5.756
	c-3.095,0-5.618-2.44-5.751-5.503l3.077,2.05C13.731,37.654,14.422,37.85,15.106,37.85z M38.59,2.116
	c4.012,0,7.293,3.282,7.293,7.296v29.177c0,4.015-3.281,7.295-7.293,7.295H9.413c-4.014,0-7.296-3.28-7.296-7.295v-8.677
	l5.186,3.456c-0.499,2.701,0.296,5.592,2.385,7.682c3.373,3.371,8.841,3.371,12.213,0c2.071-2.072,2.87-4.935,2.396-7.616
	l10.646-9.531l0,0c1.975-0.283,3.881-1.186,5.4-2.706c3.74-3.739,3.74-9.802,0-13.54c-3.738-3.739-9.801-3.739-13.539,0
	c-1.521,1.521-2.423,3.425-2.707,5.402l0,0l-8.749,13.259c-1.361,0.071-2.709,0.462-3.92,1.172l-9.312-6.208V9.412
	c0-4.014,3.282-7.296,7.296-7.296H38.59z M40.414,14.426c0-3.776-3.063-6.839-6.84-6.839s-6.838,3.063-6.838,6.839
	c0,3.777,3.061,6.839,6.838,6.839S40.414,18.203,40.414,14.426z M29.471,14.426c0-2.266,1.838-4.103,4.104-4.103
	c2.268,0,4.104,1.837,4.104,4.103c0,2.267-1.836,4.104-4.104,4.104C31.309,18.529,29.471,16.692,29.471,14.426z"/>
</svg>
