<?xml version="1.0" encoding="utf-8"?>
<!DOCTYPE svg PUBLIC "-//W3C//DTD SVG 1.1//EN" "http://www.w3.org/Graphics/SVG/1.1/DTD/svg11.dtd" [
	<!ENTITY ns_flows "http://ns.adobe.com/Flows/1.0/">
]>
<svg version="1.1"
	 xmlns="http://www.w3.org/2000/svg" xmlns:xlink="http://www.w3.org/1999/xlink"
	 x="0px" y="0px" width="48px" height="48px" viewBox="0 0 48 48">
<defs>
</defs>
<rect opacity="0" fill="#FFFFFF" width="48" height="48"/>
<path fill="#165198" d="M8.293,7.025c-1.909,1.599-3.877,3.568-4.678,5.971c-0.924,2.832,0.368,5.724,1.601,8.246
	c1.229,2.583,2.583,5.109,3.751,7.752c0.924,2.093,2.215,4.554,1.909,6.895c-0.246,1.663-0.801,3.26-1.108,4.924
	c-0.246,1.106,0.801,0,1.169-0.308c2.154-1.847,4.491-3.94,5.353-6.771c0.43-1.414,0.185-2.708-0.307-4.062
	c-0.49-1.289-1.046-2.522-1.601-3.816c-1.168-2.586-2.399-5.169-3.632-7.755c-0.491-0.924-0.985-1.908-1.414-2.893
	c-0.433-1.058-0.683-2.181-0.74-3.323c-0.061-0.924-0.061-1.786,0.062-2.709c0.061-0.679,0.246-1.292,0.307-1.97
	C9.029,6.842,8.722,6.715,8.293,7.025 M36.477,7.025c-1.907,1.603-3.877,3.572-4.677,5.971c-0.925,2.832,0.367,5.724,1.601,8.246
	c1.231,2.586,2.586,5.109,3.755,7.755c0.924,2.093,2.216,4.554,1.908,6.895c-0.246,1.664-0.8,3.26-1.106,4.925
	c-0.245,1.105,0.8,0,1.169-0.309c2.153-1.847,4.491-3.938,5.352-6.771c0.43-1.414,0.185-2.708-0.306-4.062
	c-0.491-1.291-1.046-2.521-1.603-3.816c-1.169-2.586-2.398-5.17-3.631-7.756c-0.491-0.923-0.984-1.908-1.415-2.893
	c-0.433-1.058-0.683-2.181-0.739-3.322c-0.063-0.923-0.063-1.786,0.062-2.709c0.061-0.677,0.245-1.292,0.306-1.969
	C37.218,6.842,36.91,6.715,36.477,7.025"/>
<path fill="#5D9DD5" d="M21.955,2.347c-2.154,1.786-4.491,3.94-5.787,6.461c-0.923,1.786-1.046,3.632-0.556,5.476
	c0.616,2.214,1.476,4.429,2.399,6.583c1.786,4.123,4.123,8.001,5.847,12.184c0.616,1.479,1.293,3.141,1.415,4.804
	c0.123,2.029-0.556,4.185-1.108,6.093c-0.122,0.555-0.49,1.291-0.429,1.847c0.061,0.429,0.307,0.246,0.555,0.061
	c1.062-0.815,2.07-1.7,3.017-2.646c2.521-2.401,5.414-5.604,5.168-9.355c-0.122-1.54-0.86-3.016-1.475-4.43
	c-0.679-1.659-1.414-3.258-2.153-4.86c-1.354-3.016-2.771-5.97-4.247-8.925c-0.49-1.046-1.107-2.031-1.476-3.077
	c-0.556-1.414-0.8-2.894-0.862-4.368c-0.062-1.107,0-2.276,0.123-3.384c0.061-0.739,0.307-1.414,0.307-2.153
	C22.878,1.978,22.509,1.917,21.955,2.347L21.955,2.347L21.955,2.347z"/>
</svg>
