<?xml version="1.0" encoding="utf-8"?>
<svg version="1.1"
	 xmlns="http://www.w3.org/2000/svg" xmlns:xlink="http://www.w3.org/1999/xlink"
	 x="0px" y="0px" width="48px" height="48px" viewBox="0 0 48 48">
<defs>
</defs>
<rect opacity="0" fill-rule="evenodd" clip-rule="evenodd" fill="#FFFFFF" width="48" height="48"/>
<path fill-rule="evenodd" clip-rule="evenodd" fill="#4DBD9E" d="M40.334,27.619c0,5.488-3.771,11.319-11.061,12.862
	c-2.23,0.429-2.916,0.429-4.716,0.429c-3.859,0-5.832-0.429-10.376-2.144c1.458-1.457,2.83-3.345,2.83-4.716
	c0-1.458-1.544-3.516-1.544-5.83v-1.716c0.772-7.546,6.689-11.32,12.433-11.32C35.104,15.185,40.334,20.845,40.334,27.619z
	 M39.221,6.954c-0.172,0-0.43,0.085-0.688,0.171c-1.457,0.429-4.887,3.345-4.887,4.716c0,0.257,0.172,0.257,0.258,0.257
	c1.885,0.772,4.029,2.058,6.002,4.202c3.088,3.258,4.459,7.631,4.459,11.147c0,5.66-3.26,12.52-10.977,15.863
	c-0.686,0.258-1.457,0.602-2.143,0.773c-1.201,0.342-3.518,0.686-3.773,0.686h-4.63c-5.402-0.601-10.976-2.144-16.378-5.145
	c1.8-0.516,5.316-2.487,6.26-4.975c-0.344-0.257-0.772-0.6-1.201-0.857c-5.745-3.344-7.889-9.347-7.889-13.72
	c0-7.632,5.745-15.349,15.606-16.55c0.515-0.085,1.629-0.171,1.886-0.171c0,0,1.147-0.106,2.006-0.12
	c0.953-0.016,2.281,0.12,2.281,0.12C29.016,3.352,36.563,5.496,39.221,6.954z"/>
</svg>
