<?xml version="1.0" encoding="utf-8"?>
<!DOCTYPE svg PUBLIC "-//W3C//DTD SVG 1.1//EN" "http://www.w3.org/Graphics/SVG/1.1/DTD/svg11.dtd" [
	<!ENTITY ns_flows "http://ns.adobe.com/Flows/1.0/">
]>
<svg version="1.1"
	 xmlns="http://www.w3.org/2000/svg" xmlns:xlink="http://www.w3.org/1999/xlink"
	 x="0px" y="0px" width="48px" height="48px" viewBox="-2.993 -3.661 48 48">
<defs>
</defs>
<circle fill="#52CAF5" cx="20.937" cy="20.937" r="20.937"/>
<path fill="#3588A6" d="M20.937,0c-0.369,0-0.727,0.036-1.09,0.055v41.763c0.364,0.019,0.722,0.055,1.09,0.055
	c11.563,0,20.937-9.373,20.937-20.936C41.873,9.374,32.499,0,20.937,0z"/>
<path fill="#FFFFFF" d="M37.266,26.261V7.852c-1.08-1.347-2.329-2.545-3.704-3.589v21.281c0,0-0.343,1.755-2.594,1.853
	c-2.318,0.101-2.7-1.754-2.7-1.754v-9.882c0,0-0.362-1.592-1.475-2.828c-1.11-1.235-3.36-1.347-3.36-1.347l-10.207-0.081
	c0,0-5.122,1.149-4.864,6.504c0.2,4.112,4.388,5.063,4.388,5.063l2.762,0.144c0,0,1.758,0.523,1.683,2.268
	c-0.04,0.927-1.667,1.666-1.667,1.666H2.926l-1.962,0.076c0.343,1.089,0.788,2.131,1.295,3.135h14.503c0,0,4.508-1.197,4.323-5.682
	c-0.173-4.187-4.147-5.226-4.147-5.226l-3.511-0.208c0,0-1.111-0.496-1.236-1.978c-0.125-1.481,1.359-2.347,1.359-2.347h9.141
	c0,0,0.867-0.123,1.48,0.742c0.62,0.863,0.619,1.605,0.619,1.605v9.018c0,0,0.573,4.697,6.301,4.571
	C36.552,30.737,37.266,26.261,37.266,26.261z"/>
</svg>
