<?xml version="1.0" encoding="utf-8"?>
<svg version="1.1"
	 xmlns="http://www.w3.org/2000/svg" xmlns:xlink="http://www.w3.org/1999/xlink"
	 x="0px" y="0px" width="48px" height="48px" viewBox="0 0 48 48">
<defs>
</defs>
<path fill="#3A9ED8" d="M44.809,7.32c-0.466-0.854-0.997-1.634-1.678-2.317c-0.684-0.685-1.492-1.3-2.347-1.767
	c-1.438-0.784-3.223-1.175-4.973-1.175H12.188c-1.79,0-3.521,0.402-5.016,1.19C6.313,3.706,5.53,4.306,4.859,4.987
	C4.185,5.673,3.575,6.443,3.138,7.313c-0.735,1.463-1.075,3.167-1.075,4.91v23.553c0,1.769,0.286,3.544,1.079,4.992
	c0.459,0.84,1.061,1.689,1.729,2.364c0.674,0.682,1.471,1.238,2.313,1.707c1.451,0.804,3.229,1.099,5.005,1.099h23.623
	c1.813,0,3.496-0.263,4.967-1.098c0.812-0.461,1.695-1.048,2.347-1.708c0.673-0.682,1.234-1.517,1.694-2.364
	c0.783-1.442,1.118-3.234,1.118-4.992V12.224C45.938,10.457,45.599,8.769,44.809,7.32z"/>
<path fill="#FFFFFF" d="M17.943,10.014c-4.97-0.331-9.281,3.442-9.613,8.414c-0.093,1.42,0.149,2.872,0.717,4.175
	c0.18,0.409,0.645,0.597,1.053,0.414c0.417-0.173,0.604-0.646,0.422-1.051c-0.472-1.088-0.667-2.246-0.589-3.432
	c0.272-4.084,3.822-7.187,7.905-6.914c4.092,0.271,7.194,3.816,6.924,7.9c-0.271,4.081-3.816,7.186-7.909,6.913
	c-0.564-0.037-1.122-0.137-1.657-0.298c-0.423-0.131-0.863,0.114-0.998,0.542c-0.117,0.419,0.112,0.866,0.54,0.997
	c0.647,0.19,1.331,0.312,2.009,0.357c4.976,0.331,9.288-3.443,9.619-8.405C26.692,14.655,22.919,10.344,17.943,10.014z
	 M15.174,21.65c0.601,0.525,1.389,0.846,2.25,0.846c1.897,0,3.436-1.536,3.436-3.434c0-1.896-1.538-3.434-3.436-3.434
	c-1.896,0-3.434,1.537-3.434,3.434c0,0.438,0.084,0.855,0.234,1.24c-0.562,0.555-1.159,1.214-1.755,1.987
	c-2.101,2.705-4.574,7.599-4.416,14.411c0.012,0.421,0.321,0.994,0.729,1.023l0.08,0.004c0.438,0.03,0.813-0.62,0.806-1.063
	c-0.132-5.056,1.234-9.587,4.021-13.21C14.187,22.806,14.693,22.168,15.174,21.65z M40.651,30.095
	c-2.688-0.985-4.731-2.612-6.066-4.836c-0.316-0.524-0.55-1.019-0.729-1.462c0.29-0.161,0.539-0.42,0.691-0.741
	c0.396-0.845,0.034-1.854-0.809-2.256c-0.853-0.404-1.86-0.041-2.261,0.806c-0.403,0.851-0.043,1.854,0.817,2.262
	c0.214,0.093,0.437,0.155,0.673,0.159c0.187,0.488,0.447,1.062,0.803,1.665c0.992,1.671,2.94,3.934,6.57,5.262
	c0.231,0.081,0.47-0.022,0.574-0.232c0-0.013,0.01-0.021,0.014-0.045C41.009,30.44,40.891,30.188,40.651,30.095z M32.903,26.649
	c-0.661-0.018-1.312-0.203-1.897-0.528c-2.032-1.139-2.759-3.704-1.611-5.729c1.128-2.037,3.695-2.758,5.723-1.62
	c2.031,1.125,2.756,3.7,1.616,5.725c-0.148,0.28-0.339,0.548-0.55,0.777c-0.169,0.187-0.156,0.477,0.028,0.644
	c0.185,0.169,0.481,0.153,0.646-0.03c0.256-0.288,0.475-0.607,0.676-0.947c1.387-2.457,0.501-5.592-1.965-6.967
	c-2.47-1.382-5.599-0.498-6.975,1.969c-1.381,2.468-0.498,5.595,1.97,6.975c0.705,0.396,1.507,0.617,2.305,0.652
	c0.26,0.004,0.475-0.19,0.479-0.445C33.359,26.871,33.158,26.662,32.903,26.649z"/>
</svg>
