<?xml version="1.0" encoding="utf-8"?>
<svg version="1.1"
	 xmlns="http://www.w3.org/2000/svg" xmlns:xlink="http://www.w3.org/1999/xlink"
	 x="0px" y="0px" width="48px" height="48px" viewBox="-3.148 -3.805 48 48">
<defs>
</defs>
<circle fill="#52CAF5" cx="20.899" cy="20.897" r="20.899"/>
<path fill="#3588A6" d="M20.898,0c-0.367,0-0.725,0.036-1.088,0.055v41.687c0.364,0.019,0.721,0.055,1.088,0.055
	c11.542,0,20.899-9.356,20.899-20.899C41.797,9.357,32.44,0,20.898,0z"/>
<path fill="#FFFFFF" d="M16.505,32.795c10.848,0,16.778-8.986,16.778-16.78c0-0.254-0.005-0.51-0.016-0.763
	c1.15-0.832,2.152-1.87,2.941-3.053c-1.058,0.469-2.195,0.787-3.387,0.928c1.217-0.729,2.152-1.885,2.594-3.262
	c-1.142,0.676-2.401,1.168-3.746,1.432c-1.075-1.146-2.607-1.863-4.304-1.863c-3.257,0-5.897,2.642-5.897,5.897
	c0,0.462,0.051,0.914,0.153,1.344c-4.903-0.247-9.248-2.593-12.156-6.162c-0.507,0.873-0.8,1.885-0.8,2.964
	c0,2.047,1.042,3.854,2.625,4.91c-0.966-0.03-1.875-0.296-2.671-0.738C8.62,17.673,8.62,17.699,8.62,17.724
	c0,2.857,2.033,5.24,4.731,5.781c-0.494,0.136-1.016,0.208-1.554,0.208c-0.379,0-0.75-0.037-1.109-0.105
	c0.751,2.342,2.928,4.048,5.509,4.096c-2.02,1.583-4.561,2.524-7.325,2.524c-0.476,0-0.945-0.027-1.406-0.081
	C10.075,31.817,13.174,32.795,16.505,32.795"/>
</svg>
