<?xml version="1.0" encoding="utf-8"?>
<svg version="1.1"
	 xmlns="http://www.w3.org/2000/svg" xmlns:xlink="http://www.w3.org/1999/xlink"
	 x="0px" y="0px" width="48px" height="48px" viewBox="0 0 48 48">
<defs>
</defs>
<polygon fill="#7D529D" points="45.344,45.344 45.344,2.656 2.656,2.656 2.656,45.344 "/>
<path fill="#FFFFFF" d="M21.162,17.06c-0.049-0.883-1.075-2.704-2.282-4.349c-1.188-1.623-2.582-3.116-3.417-3.424
	c-0.362-0.134-0.728-0.195-1.097-0.193c-0.364,0.001-0.726,0.066-1.089,0.188c-0.192,0.064-0.37,0.13-0.534,0.196
	c-1.61,0.657-2.766,1.688-3.384,2.974c-0.619,1.29-0.691,2.818-0.137,4.468c0.059,0.174,0.12,0.34,0.184,0.496
	c1.016,2.496,2.209,4.82,3.59,6.962c1.383,2.149,2.951,4.11,4.716,5.875c1.764,1.765,3.726,3.332,5.874,4.715
	c2.142,1.381,4.466,2.573,6.961,3.59c0.158,0.064,0.324,0.126,0.499,0.185c1.647,0.553,3.177,0.481,4.466-0.139
	c1.286-0.617,2.316-1.772,2.974-3.383c0.064-0.162,0.132-0.34,0.196-0.534c0.122-0.363,0.188-0.725,0.189-1.09
	c0.002-0.367-0.062-0.732-0.193-1.096c-0.308-0.836-1.803-2.229-3.426-3.417c-1.645-1.206-3.465-2.233-4.348-2.281
	c-0.729-0.041-1.295,0.189-1.76,0.552c-0.433,0.336-0.758,0.777-1.056,1.217c-0.44,0.646-0.924,0.969-1.441,1.059
	c-0.542,0.094-1.149-0.051-1.802-0.342c-0.714-0.317-1.385-0.681-2.006-1.095c-0.616-0.409-1.182-0.867-1.69-1.377l-0.003-0.001
	c-0.51-0.51-0.967-1.074-1.377-1.692c-0.413-0.621-0.776-1.291-1.094-2.005c-0.29-0.652-0.437-1.261-0.341-1.802
	c0.089-0.518,0.412-1.001,1.059-1.44c0.438-0.298,0.879-0.624,1.216-1.057C20.973,18.354,21.201,17.79,21.162,17.06L21.162,17.06z"
	/>
<path fill="#FFFFFF" d="M32.221,21.369c-0.122-1.406-0.801-2.708-1.812-3.687c-1.01-0.978-2.351-1.637-3.803-1.762h-0.002
	c-0.103-0.009-0.222-0.015-0.354-0.018c-0.115-0.003-0.227-0.002-0.336,0.002v-0.002l-0.019,0.002
	c-0.409,0.018-0.772,0.198-1.029,0.477c-0.253,0.273-0.401,0.644-0.391,1.044h-0.001l0.002,0.019
	c0.017,0.409,0.197,0.772,0.477,1.028c0.277,0.256,0.654,0.406,1.063,0.391h0.002c0.056-0.003,0.109-0.004,0.162-0.003
	c0.04,0.001,0.098,0.005,0.172,0.012c0.729,0.063,1.432,0.415,1.967,0.925c0.531,0.504,0.892,1.156,0.951,1.828
	c0.006,0.069,0.009,0.124,0.009,0.161c0.001,0.044-0.001,0.099-0.005,0.158c-0.028,0.407,0.114,0.787,0.362,1.073
	c0.25,0.284,0.604,0.475,1.009,0.503v0.001l0.058,0.002h0.05v0.003c0.385,0,0.74-0.152,1.01-0.402
	c0.264-0.248,0.438-0.592,0.466-0.98c0.007-0.117,0.012-0.246,0.009-0.384C32.234,21.615,32.23,21.484,32.221,21.369L32.221,21.369z
	"/>
<path fill="#FFFFFF" d="M33.052,15.083c-0.808-0.809-1.741-1.462-2.75-1.938c-1.012-0.478-2.095-0.775-3.204-0.872
	c-0.303-0.026-0.616-0.036-0.938-0.03h-0.001c-0.313,0.007-0.623,0.029-0.93,0.068v-0.002h-0.001l-0.002,0.003
	c-0.406,0.052-0.753,0.263-0.983,0.563c-0.23,0.297-0.349,0.685-0.297,1.088h-0.002v0.001l0.002,0.002
	c0.052,0.406,0.264,0.752,0.562,0.983c0.3,0.231,0.688,0.349,1.093,0.298c0.204-0.026,0.409-0.04,0.618-0.045
	c0.196-0.004,0.405,0.004,0.624,0.022c0.765,0.066,1.511,0.272,2.206,0.603c0.696,0.329,1.345,0.785,1.909,1.352
	c0.542,0.541,0.976,1.153,1.29,1.805c0.312,0.648,0.506,1.342,0.566,2.049c0.019,0.199,0.024,0.389,0.021,0.567
	c-0.003,0.188-0.018,0.374-0.04,0.559c-0.053,0.405,0.064,0.793,0.296,1.092c0.231,0.3,0.579,0.511,0.985,0.562l0.003,0.002
	c0.024,0.003,0.055,0.006,0.093,0.008c0.04,0.003,0.07,0.005,0.091,0.005c0.368,0,0.714-0.14,0.979-0.373
	c0.26-0.229,0.44-0.551,0.489-0.923c0.036-0.289,0.057-0.582,0.063-0.875c0.006-0.303-0.004-0.597-0.028-0.88
	c-0.092-1.053-0.377-2.085-0.838-3.051C34.466,16.761,33.835,15.865,33.052,15.083L33.052,15.083z"/>
<path fill="#FFFFFF" d="M38.304,15.774c-0.625-1.318-1.483-2.539-2.543-3.6c-1.086-1.086-2.344-1.966-3.709-2.607
	c-1.365-0.643-2.829-1.043-4.329-1.173c-0.485-0.043-0.981-0.055-1.48-0.037c-0.493,0.016-0.983,0.063-1.467,0.141
	c-0.404,0.063-0.744,0.285-0.967,0.592c-0.222,0.305-0.327,0.696-0.263,1.101c0.063,0.404,0.285,0.744,0.592,0.967
	c0.306,0.222,0.696,0.327,1.102,0.264c0.365-0.058,0.733-0.094,1.104-0.106c0.364-0.013,0.74-0.002,1.122,0.031
	c1.158,0.101,2.286,0.409,3.334,0.903c1.051,0.495,2.022,1.178,2.865,2.019v0.002c0.818,0.818,1.479,1.755,1.956,2.759
	c0.478,1.005,0.775,2.079,0.871,3.179c0.033,0.381,0.041,0.755,0.026,1.121c-0.015,0.367-0.054,0.736-0.12,1.105
	c-0.068,0.401,0.031,0.794,0.249,1.104c0.219,0.31,0.555,0.536,0.959,0.606h0.003c0.047,0.008,0.089,0.014,0.124,0.017
	c0.042,0.004,0.086,0.006,0.127,0.006c0.354,0,0.688-0.129,0.95-0.351c0.26-0.218,0.445-0.521,0.506-0.879
	c0.086-0.485,0.138-0.981,0.159-1.486c0.021-0.506,0.011-1.007-0.031-1.5C39.319,18.507,38.928,17.093,38.304,15.774L38.304,15.774z
	"/>
</svg>
