<?xml version="1.0" encoding="utf-8"?>
<svg version="1.1"
	 xmlns="http://www.w3.org/2000/svg" xmlns:xlink="http://www.w3.org/1999/xlink"
	 x="0px" y="0px" width="48px" height="48px" viewBox="-0.318 -7.845 48 48">
<defs>
</defs>
<path fill="#F79523" d="M45.103,22.819c1.929,3.336-0.212,9.065-2.151,9.126c-2.662,0.084-25.383,0.127-28.159,0
	c-4.456-0.202-4.595-5.227-2.152-9.126L24.31,2.55c2.21-3.067,6.377-3.708,9.125,0L45.103,22.819z"/>
<path fill="#C8691C" d="M45.103,22.819L33.434,2.55c-0.86-1.047-1.938-2.437-4.179-2.55l0.154,31.982
	c6.191-0.017,11.169-0.068,12.466-0.037C47.079,32.072,47.174,26.579,45.103,22.819z"/>
<path fill="#FFFEFE" d="M29.397,6.961c5.361,0,0.141,15.525,0.141,15.525S23.752,6.961,29.397,6.961z"/>
<circle fill="#FFFEFE" cx="29.37" cy="25.66" r="1.906"/>
<g>
	<path fill="#52CAF5" d="M13.976,33.655c-1.968-0.001-3.57-1.604-3.571-3.573l0.001-6.332H4.071C2.102,23.749,0.5,22.146,0.5,20.178
		c0-1.969,1.603-3.57,3.572-3.57l6.333,0.001l-0.001-6.335c0-1.969,1.602-3.571,3.571-3.571c1.968,0,3.571,1.602,3.573,3.571v6.335
		l6.333-0.001c1.967,0.001,3.57,1.603,3.572,3.569c0,1.971-1.602,3.573-3.57,3.573l-6.334,0.001v6.332
		C17.547,32.052,15.945,33.654,13.976,33.655L13.976,33.655z"/>
	<path fill="#FFFFFF" d="M13.976,7.203C13.976,7.203,13.977,7.203,13.976,7.203c1.697,0,3.071,1.375,3.073,3.071v6.835l6.833-0.001
		c1.696,0.001,3.07,1.375,3.072,3.07c0,1.697-1.375,3.072-3.07,3.072c0,0-0.001,0-0.002,0l-6.833,0.001v6.832
		c-0.001,1.696-1.375,3.071-3.072,3.072c-1.696-0.001-3.07-1.376-3.071-3.073l0.001-6.832H4.071C2.375,23.249,1,21.875,1,20.178
		c0-1.696,1.374-3.07,3.072-3.07l6.833,0.001l-0.001-6.835C10.905,8.577,12.279,7.203,13.976,7.203 M13.977,6.203L13.977,6.203
		c-2.246,0-4.072,1.826-4.072,4.071l0.001,5.835l-5.833-0.001C1.828,16.107,0,17.934,0,20.178c0,2.244,1.826,4.071,4.07,4.072h5.836
		l-0.001,5.832c0.001,2.245,1.828,4.072,4.071,4.073c2.245-0.001,4.071-1.828,4.073-4.071v-5.833l5.833-0.001
		c2.246,0,4.072-1.827,4.072-4.072c-0.003-2.243-1.829-4.069-4.071-4.07l-5.833,0.001v-5.835C18.046,8.029,16.22,6.203,13.977,6.203
		L13.977,6.203z"/>
</g>
<g>
	<path fill="#3588A6" d="M23.881,17.107l-6.833,0.001v-6.835c-0.001-1.642-1.293-2.971-2.914-3.055v25.92
		c1.622-0.085,2.913-1.414,2.914-3.056v-6.832l6.833-0.001c1.696,0.001,3.072-1.374,3.072-3.072
		C26.951,18.482,25.577,17.108,23.881,17.107z"/>
</g>
</svg>
