<?xml version="1.0" encoding="utf-8"?>
<svg version="1.1"
	 xmlns="http://www.w3.org/2000/svg" xmlns:xlink="http://www.w3.org/1999/xlink"
	 x="0px" y="0px" width="48px" height="48px" viewBox="0 0 48 48">
<defs>
</defs>
<path fill="#A2CD3A" d="M26.938,8.17C22.407,5.619,16.76,5.233,11.884,6.995c-3.202,1.154-6.104,3.297-7.895,6.217
	c-1.625,2.632-2.234,5.916-1.448,8.928c0.785,3.343,3.102,6.145,5.925,8.018c-0.531,1.544-1.054,3.087-1.547,4.642
	c1.784-0.927,3.547-1.894,5.325-2.836c2.144,0.686,4.396,1.015,6.646,0.942c-0.586-1.719-0.726-3.57-0.458-5.364
	c0.426-2.488,1.773-4.767,3.633-6.456c3.133-2.934,7.576-4.174,11.802-3.875C33.075,13.337,30.354,10.061,26.938,8.17L26.938,8.17z
	 M14.792,15.198c-0.315,1.518-2.35,2.25-3.539,1.233c-1.376-0.971-0.992-3.383,0.628-3.867
	C13.467,11.952,15.27,13.562,14.792,15.198z M25.797,14.757c0.013,1.747-2.313,2.837-3.622,1.65
	c-1.358-0.971-0.973-3.337,0.621-3.828C24.221,12.019,25.908,13.221,25.797,14.757L25.797,14.757z"/>
<path fill="#2F3233" d="M44.963,25.359c-1.105-2.505-3.193-4.489-5.616-5.717c-4.274-2.169-9.595-2.152-13.855,0.051
	c-2.965,1.522-5.437,4.249-6.141,7.564c-0.58,2.439-0.059,5.067,1.235,7.197c1.928,3.194,5.408,5.234,9.03,5.891
	c2.623,0.532,5.334,0.22,7.882-0.521c1.523,0.596,2.891,1.555,4.371,2.264c-0.379-1.28-0.785-2.552-1.223-3.813
	c1.657-1.184,3.167-2.653,4.076-4.503C46.072,31.196,46.154,28.007,44.963,25.359L44.963,25.359z M30.081,26.317
	c-0.375,1.184-2.101,1.54-2.932,0.636c-0.917-0.831-0.561-2.578,0.642-2.948C29.129,23.443,30.667,24.981,30.081,26.317
	L30.081,26.317z M38.792,26.48c-0.456,1.066-2.054,1.312-2.841,0.487c-0.382-0.343-0.475-0.864-0.627-1.325
	c0.204-0.831,0.757-1.696,1.699-1.732C38.328,23.732,39.473,25.315,38.792,26.48z"/>
</svg>
