<?xml version="1.0" encoding="utf-8"?>
<svg version="1.1"
	 xmlns="http://www.w3.org/2000/svg" xmlns:xlink="http://www.w3.org/1999/xlink"
	 x="0px" y="0px" width="100px" height="100px" viewBox="-8.211 -7.66 100 100">
<defs>
</defs>
<path fill="#F79523" d="M42.738,0C19.522,0,0.703,18.819,0.703,42.035c0,7.44,1.941,14.424,5.333,20.487L0,85.008l22.808-5.958
	c5.931,3.2,12.718,5.02,19.93,5.02c23.215,0,42.035-18.821,42.035-42.035C84.773,18.819,65.953,0,42.738,0z M42.738,77.187
	c-7.433,0-14.322-2.313-20-6.249c0,0-7.999,2.441-7.989,2.449l-4.363,1.175l3.775-12.069c-4.134-5.764-6.576-12.823-6.576-20.458
	c0-19.414,15.738-35.152,35.152-35.152c19.414,0,35.152,15.738,35.152,35.152C77.89,61.448,62.152,77.187,42.738,77.187z"/>
<path fill="#52CAF5" d="M26.426,22.5c0,0-5.106,3.322-5.362,8.696c-0.29,6.087,4.348,14.204,11.739,21.16
	s16.521,10.434,22.753,9.854s7.826-4.638,7.826-4.638s1.305-3.768,0.725-5.072s-9.275-5.217-9.275-5.217s-0.725-0.58-1.739-0.146
	s-1.739,1.595-1.739,1.595S49.47,52.5,47.875,52.5s-6.377-2.319-9.855-5.652s-5.941-6.376-5.797-7.681s3.333-3.333,3.333-4.783
	c0-1.561-3.043-10.435-4.348-11.449S26.426,22.5,26.426,22.5z"/>
<path fill="#3588A6" d="M32.223,39.167c0.145-1.305,3.333-3.333,3.333-4.783c0-1.561-3.043-10.435-4.348-11.449
	S26.426,22.5,26.426,22.5s-5.106,3.322-5.362,8.696c-0.29,6.087,4.348,14.204,11.739,21.16c1.628,1.532,3.342,2.885,5.09,4.073
	l2.985-7.24c-0.987-0.699-1.965-1.486-2.857-2.341C34.542,43.514,32.079,40.471,32.223,39.167z"/>
<path fill="#C8691C" d="M22.739,70.938c0,0-7.999,2.441-7.989,2.449l-4.363,1.175l3.775-12.069
	c-4.134-5.764-6.576-12.823-6.576-20.458c0-19.414,15.738-35.152,35.152-35.152c5.103,0,9.947,1.096,14.323,3.052l2.625-6.366
	C54.5,1.28,48.77,0,42.738,0C19.522,0,0.703,18.819,0.703,42.035c0,7.44,1.941,14.424,5.333,20.487L0,85.008l22.808-5.958
	c1.557,0.84,3.176,1.578,4.843,2.221l2.63-6.381C27.598,73.871,25.063,72.549,22.739,70.938z"/>
</svg>
