<?xml version="1.0" encoding="utf-8"?>
<svg version="1.1"
	 xmlns="http://www.w3.org/2000/svg" xmlns:xlink="http://www.w3.org/1999/xlink"
	 x="0px" y="0px" width="48px" height="48px" viewBox="0 0 48 48">
<defs>
</defs>
<path fill="#1A7D3E" d="M9.127,8.896L9.108,8.913v0.002c-4.042,3.978-6.313,9.413-6.307,15.083
	c-0.006,4.642,1.516,9.155,4.333,12.842c0.029,0.035,0.073,0.057,0.114,0.035c0.039-0.021,0.04-0.07,0.024-0.109
	c-1.616-4.998,6.645-17.11,10.913-22.187c0.013-0.019,0.031-0.038,0.031-0.063c0-0.028-0.021-0.051-0.041-0.069
	c-7.179-7.146-9.096-5.512-9.068-5.535 M38.875,8.896l0.02,0.018v0.002c4.039,3.978,6.311,9.414,6.305,15.083
	c0.004,4.642-1.516,9.155-4.334,12.842c-0.025,0.035-0.074,0.057-0.113,0.035c-0.037-0.021-0.039-0.07-0.025-0.109
	c1.617-4.998-6.637-17.118-10.904-22.197c-0.016-0.019-0.031-0.039-0.031-0.061c0-0.031,0.018-0.053,0.041-0.071
	c7.182-7.146,9.084-5.501,9.063-5.524 M24.001,2.8c4.278,0,7.796,1.172,11.042,3.103c0.039,0.019,0.051,0.065,0.035,0.104
	c-0.014,0.038-0.061,0.046-0.102,0.037c-4.105-0.888-10.342,2.658-10.93,3.013c-0.013,0.01-0.028,0.018-0.045,0.018
	c-0.02,0-0.034-0.008-0.047-0.018c-1.564-0.898-7.331-3.921-10.961-2.992c-0.041,0.011-0.085,0.003-0.103-0.037
	c-0.017-0.039,0-0.083,0.036-0.105C16.17,3.972,19.734,2.8,24.001,2.8 M24.001,19.802c0.026,0,0.051,0.021,0.068,0.034
	c6.343,4.824,17.199,16.747,13.884,20.122l0.008-0.007l-0.004,0.007h-0.006c-3.859,3.386-8.818,5.25-13.953,5.242
	c-5.134,0.008-10.095-1.856-13.955-5.242l-0.004-0.007l0.004,0.007C6.735,36.583,17.59,24.66,23.928,19.836
	C23.946,19.823,23.974,19.802,24.001,19.802"/>
</svg>
