<?xml version="1.0" encoding="utf-8"?>
<!-- Generator: Adobe Illustrator 15.0.0, SVG Export Plug-In  -->
<!DOCTYPE svg PUBLIC "-//W3C//DTD SVG 1.1//EN" "http://www.w3.org/Graphics/SVG/1.1/DTD/svg11.dtd" [
	<!ENTITY ns_flows "http://ns.adobe.com/Flows/1.0/">
]>
<svg version="1.1"
	 xmlns="http://www.w3.org/2000/svg" xmlns:xlink="http://www.w3.org/1999/xlink" xmlns:a="http://ns.adobe.com/AdobeSVGViewerExtensions/3.0/"
	 x="0px" y="0px" width="16px" height="16px" viewBox="-0.5 -0.5 16 16"
	 xml:space="preserve">
<defs>
</defs>
<path d="M0,1.974v11.051C0,14.116,0.892,15,1.991,15h11.018C14.109,15,15,14.116,15,13.025V1.974C15,0.884,14.107,0,13.009,0H1.991
	C0.892,0,0,0.884,0,1.974z M4.278,6.68l4.943-4.944c0.461-0.461,1.194-0.483,1.631-0.048c0.436,0.435,0.414,1.169-0.049,1.631
	L7.443,6.68c-0.462,0.462-0.462,1.217,0,1.679l3.36,3.359c0.461,0.461,0.483,1.195,0.049,1.631c-0.437,0.436-1.17,0.414-1.631-0.048
	L4.278,8.357C3.816,7.896,3.816,7.142,4.278,6.68z"/>
</svg>
