<?xml version="1.0" encoding="utf-8"?>
<svg version="1.1"
	 xmlns="http://www.w3.org/2000/svg" xmlns:xlink="http://www.w3.org/1999/xlink"
	 x="0px" y="0px" width="48px" height="48px" viewBox="-2.72 -2.72 48 48">
<defs>
</defs>
<path fill="#F79523" d="M21.28,0C9.527,0,0,9.527,0,21.28s9.527,21.28,21.28,21.28s21.28-9.527,21.28-21.28S33.033,0,21.28,0z
	 M21.28,40.433c-10.577,0-19.152-8.575-19.152-19.152S10.703,2.128,21.28,2.128c10.578,0,19.152,8.575,19.152,19.152
	S31.858,40.433,21.28,40.433z"/>
<path fill="#C8691C" d="M38.563,31.133c-1.484-3.348-3.894-6.193-6.931-8.175c0.042,0.132,0.072,0.267,0.072,0.402
	c0,1.935-4.617,3.506-10.313,3.506c-5.698,0-10.315-1.571-10.315-3.506c0-0.136,0.028-0.271,0.075-0.402
	c-3.183,2.076-5.682,5.097-7.142,8.655c3.542,5.753,9.879,9.602,17.131,9.602C28.593,41.215,35.084,37.153,38.563,31.133z"/>
<path fill="#C8691C" d="M30.34,13.491c0,5.199-4.007,9.41-8.949,9.41c-4.947,0-8.951-4.211-8.951-9.41
	c0-5.198,4.004-9.411,8.951-9.411C26.333,4.08,30.34,8.293,30.34,13.491z"/>
<path fill="#F79523" d="M18.664,26.737c-4.372-0.406-7.589-1.764-7.589-3.377c0-0.136,0.028-0.271,0.075-0.402
	c-3.183,2.076-5.682,5.097-7.142,8.655c2.024,3.289,4.895,6.279,8.401,7.956l5.268,1.693c1.107,0.188,2.301-0.048,3.462-0.048
	c2.194,0,4.302-0.363,6.278-1.013L18.664,26.737z"/>
</svg>
