<?xml version="1.0" encoding="utf-8"?>
<svg version="1.1"
	 xmlns="http://www.w3.org/2000/svg" xmlns:xlink="http://www.w3.org/1999/xlink"
	 x="0px" y="0px" width="48px" height="48px" viewBox="-3.32 -3.439 48 48">
<defs>
</defs>
<path fill="#C8691C" d="M36.937,28.918c-1.587-3.578-4.162-6.62-7.409-8.738c0.045,0.141,0.077,0.285,0.077,0.43
	c0,2.068-4.936,3.748-11.024,3.748c-6.091,0-11.027-1.68-11.027-3.748c0-0.146,0.031-0.289,0.081-0.43
	C4.232,22.399,1.561,25.628,0,29.432c3.786,6.15,10.56,10.264,18.312,10.264C26.28,39.695,33.218,35.354,36.937,28.918z"/>
<path fill="#C8691C" d="M28.147,10.06c0,5.558-4.283,10.06-9.566,10.06c-5.288,0-9.567-4.502-9.567-10.06
	C9.013,4.503,13.293,0,18.581,0C23.864,0,28.147,4.503,28.147,10.06z"/>
<path fill="#F79523" d="M15.717,24.225c-4.7-0.429-8.163-1.884-8.163-3.615c0-0.146,0.031-0.289,0.081-0.43
	C4.232,22.399,1.561,25.628,0,29.432c3.786,6.15,10.56,10.264,18.312,10.264c2.262,0,4.437-0.361,6.483-1.009L15.717,24.225z"/>
<circle fill="#52CAF5" cx="31.862" cy="19.884" r="9.247"/>
<path fill="#FFFFFF" d="M35.991,14.33l-4.168,4.042l-4.358-3.836c-0.443-0.392-1.059-0.271-1.374,0.269
	c-0.317,0.54-0.212,1.297,0.232,1.689l3.898,3.431l-3.729,3.613c-0.428,0.417-0.493,1.176-0.153,1.697
	c0.343,0.529,0.964,0.619,1.389,0.204l4.166-4.039l4.361,3.836c0.446,0.394,1.062,0.271,1.378-0.27
	c0.317-0.541,0.212-1.297-0.234-1.688L33.5,19.847l3.731-3.619c0.426-0.412,0.493-1.172,0.151-1.696
	C37.041,14.006,36.417,13.915,35.991,14.33z"/>
</svg>
