<?xml version="1.0" encoding="utf-8"?>
<svg version="1.1"
	 xmlns="http://www.w3.org/2000/svg" xmlns:xlink="http://www.w3.org/1999/xlink"
	 x="0px" y="0px" width="48px" height="48px" viewBox="-4.903 -4.074 48 48">
<defs>
</defs>
<path fill="#C8691C" d="M37.081,29.031c-1.593-3.592-4.179-6.646-7.438-8.771c0.045,0.141,0.077,0.285,0.077,0.432
	c0,2.076-4.955,3.762-11.067,3.762c-6.115,0-11.07-1.686-11.07-3.762c0-0.146,0.032-0.291,0.081-0.432
	C4.249,22.487,1.566,25.729,0,29.548c3.801,6.174,10.602,10.304,18.384,10.304C26.382,39.852,33.348,35.493,37.081,29.031z"/>
<path fill="#C8691C" d="M28.257,10.1c0,5.58-4.3,10.1-9.604,10.1c-5.308,0-9.605-4.52-9.605-10.1c0-5.578,4.297-10.1,9.605-10.1
	C23.957,0,28.257,4.521,28.257,10.1z"/>
<path fill="#F79523" d="M15.779,24.32c-4.719-0.431-8.196-1.892-8.196-3.629c0-0.146,0.032-0.291,0.081-0.432
	C4.249,22.487,1.566,25.729,0,29.548c3.801,6.174,10.602,10.304,18.384,10.304c2.271,0,4.454-0.362,6.508-1.014L15.779,24.32z"/>
<path fill="#52CAF5" d="M32.466,13.002l-15.18,15.915l4.812,4.588L37.273,17.59c1.269-1.328,1.22-3.433-0.109-4.699
	C35.836,11.625,33.731,11.673,32.466,13.002z"/>
<polygon fill="#F37029" points="14.867,36.261 17.356,28.972 22.032,33.429 "/>
<path fill="#3588A6" d="M19.664,31.184l2.434,2.321L37.273,17.59c1.269-1.328,1.22-3.433-0.109-4.699
	C36.99,12.763,19.664,31.184,19.664,31.184z"/>
<polygon fill="#C54A20" points="14.867,36.261 19.756,31.261 22.032,33.429 "/>
<polygon fill="#939598" points="14.867,36.261 16.131,32.563 18.498,34.825 "/>
<polygon fill="#414042" points="14.867,36.261 17.413,33.654 18.498,34.825 "/>
<path fill="#BCBEC0" d="M31.399,14.146c0,0,0.603,0.163,2.609,1.836c1.442,1.204,2.183,2.762,2.183,2.762l-1.328,1.41
	c0,0-0.702-1.213-2.257-2.656c-1.557-1.444-2.463-2.085-2.463-2.085L31.399,14.146z"/>
<path fill="#636464" d="M34.009,15.982c1.442,1.204,2.183,2.762,2.183,2.762l-1.328,1.41c0,0-0.702-1.213-2.257-2.656
	C32.564,17.59,33.8,16.045,34.009,15.982z"/>
<path fill="#F37029" d="M17.286,28.948c0,0,0.883-0.633,1.321-0.227c0.438,0.405,0.125,1.156,0.125,1.156s0.75-0.47,1.25,0.155
	c0.345,0.433-0.318,1.182-0.318,1.182L17.286,28.948z"/>
<path fill="#C54A20" d="M19.692,31.261c0,0,0.883-0.633,1.321-0.228c0.438,0.407,0.125,1.157,0.125,1.157s0.749-0.469,1.25,0.155
	c0.347,0.433-0.317,1.181-0.317,1.181L19.692,31.261z"/>
</svg>
