<?xml version="1.0" encoding="utf-8"?>
<svg version="1.1"
	 xmlns="http://www.w3.org/2000/svg" xmlns:xlink="http://www.w3.org/1999/xlink"
	 x="0px" y="0px" width="48px" height="48px" viewBox="-3.7 -3.112 48 48">
<defs>
</defs>
<path fill="#C8691C" d="M38.113,29.839c-1.639-3.693-4.295-6.832-7.645-9.018c0.047,0.146,0.078,0.294,0.078,0.444
	c0,2.134-5.092,3.867-11.375,3.867c-6.285,0-11.377-1.732-11.377-3.867c0-0.15,0.032-0.298,0.083-0.444
	C4.367,23.113,1.611,26.443,0,30.369c3.907,6.346,10.896,10.59,18.896,10.59C27.117,40.958,34.275,36.478,38.113,29.839z"/>
<path fill="#C8691C" d="M29.042,10.38c0,5.735-4.418,10.381-9.871,10.381c-5.456,0-9.872-4.646-9.872-10.381
	C9.3,4.646,13.716,0,19.172,0C24.625,0,29.042,4.646,29.042,10.38z"/>
<path fill="#F79523" d="M16.218,24.996c-4.85-0.441-8.423-1.943-8.423-3.73c0-0.15,0.032-0.298,0.083-0.444
	C4.367,23.113,1.611,26.443,0,30.369c3.907,6.346,10.896,10.59,18.896,10.59c2.334,0,4.577-0.373,6.688-1.041L16.218,24.996z"/>
<circle fill="#3588A6" cx="28.913" cy="30.087" r="11.688"/>
<path fill="#D1D3D4" d="M36.283,29.777l-1.088-0.141c-0.053-0.6-0.188-1.199-0.414-1.777l0.939-0.6
	c0.33-0.211,0.426-0.648,0.219-0.979l-0.65-1.01c-0.209-0.33-0.648-0.424-0.977-0.215l-0.967,0.617
	c-0.295-0.297-0.615-0.559-0.959-0.787l0.441-1.07c0.146-0.363-0.023-0.775-0.387-0.924l-1.107-0.457
	c-0.363-0.15-0.775,0.023-0.924,0.385l-0.451,1.096c-0.402-0.068-0.807-0.104-1.217-0.096l-0.26-1.164
	c-0.086-0.383-0.465-0.623-0.846-0.539l-1.17,0.264c-0.381,0.084-0.617,0.463-0.535,0.844l0.262,1.174
	c-0.197,0.092-0.393,0.195-0.586,0.309l2.621,4.096c0.643-0.287,1.418-0.076,1.813,0.539c0.389,0.613,0.26,1.406-0.271,1.875
	l2.691,4.205c0.041-0.031,0.084-0.057,0.121-0.086l0.789,0.719c0.289,0.264,0.736,0.244,0.998-0.045l0.811-0.885
	c0.262-0.289,0.24-0.738-0.047-1l-0.789-0.721c0.217-0.375,0.398-0.766,0.535-1.174l1.07,0.137c0.387,0.053,0.74-0.221,0.793-0.609
	l0.152-1.188C36.945,30.183,36.673,29.828,36.283,29.777z"/>
<path fill="#FFFFFF" d="M31.667,35.769c0.199-0.094,0.393-0.197,0.586-0.311l-2.643-4.08c-0.645,0.291-1.42,0.082-1.816-0.529
	c-0.395-0.611-0.271-1.406,0.26-1.875l-2.719-4.193c-0.043,0.033-0.08,0.059-0.121,0.09l-0.793-0.715
	c-0.291-0.262-0.736-0.24-0.998,0.051l-0.805,0.891c-0.26,0.291-0.236,0.738,0.053,0.998l0.797,0.717
	c-0.219,0.377-0.395,0.77-0.531,1.178l-1.07-0.133c-0.387-0.049-0.74,0.229-0.79,0.615l-0.146,1.189
	c-0.048,0.389,0.228,0.74,0.616,0.789l1.092,0.137c0.055,0.6,0.191,1.197,0.424,1.773l-0.938,0.604
	c-0.326,0.213-0.422,0.652-0.211,0.98l0.652,1.006c0.213,0.328,0.654,0.422,0.982,0.209l0.959-0.623
	c0.299,0.295,0.621,0.557,0.967,0.781l-0.438,1.074c-0.145,0.361,0.029,0.773,0.395,0.92l1.107,0.451
	c0.361,0.148,0.775-0.029,0.924-0.389l0.443-1.102c0.402,0.068,0.809,0.102,1.219,0.09l0.266,1.164
	c0.09,0.381,0.469,0.619,0.848,0.531l1.168-0.27c0.381-0.086,0.619-0.467,0.533-0.848L31.667,35.769z"/>
</svg>
