<?xml version="1.0" encoding="utf-8"?>
<svg version="1.1"
	 xmlns="http://www.w3.org/2000/svg" xmlns:xlink="http://www.w3.org/1999/xlink"
	 x="0px" y="0px" width="48px" height="48px" viewBox="-2.5 -3.2 48 48">
<defs>
</defs>
<polygon fill="#F79523" points="20.2,41.4 0,41.4 0,0.3 32.2,0.3 32.2,31.2 "/>
<polygon fill="#C8691C" points="20.2,41.4 20.5,29.8 32.2,31.2 "/>
<path fill="#FFFFFF" d="M5.2,31.2l-0.9-0.7c0.8-1,1.9-2.6,3-4.4c-0.3-0.7-0.6-1.4-0.9-2.3c-0.9-3.3-0.6-6.7,0.9-8.2
	c0.8-0.8,1.8-1,2.9-0.7c0.9,0.2,1.5,0.8,1.8,1.6c0.8,2.2-1.3,6.4-3.4,9.7c0.8,1.3,1.9,2.2,3.2,2.6c1.7,0.4,2.8,0.4,3.4-0.2
	c1-0.9,0.6-3.6,0.1-6.4c-0.1-0.5-0.2-1-0.2-1.5l1.1-0.2c0.1,0.5,0.2,1,0.2,1.5c0.5,3.3,1,6.1-0.5,7.4c-0.9,0.8-2.3,1-4.4,0.4
	C10.2,29.5,9,28.6,8,27.2C6.7,29.2,5.5,30.8,5.2,31.2z M9.4,15.9c-0.5,0-0.9,0.2-1.2,0.5c-1.2,1.2-1.4,4.3-0.6,7.1
	c0.1,0.5,0.3,1,0.5,1.4c1.9-3.1,3.5-6.5,2.9-8.1c-0.2-0.4-0.5-0.7-1-0.8C9.8,16,9.6,15.9,9.4,15.9z"/>
<path fill="#6D6E71" d="M22.6,19.3l-2.3,1.9c0.1,0.1,0.1,0.2,0.1,0.3c0,0.3-0.2,0.5-0.5,0.5c-0.1,0-0.3-0.1-0.4-0.2l-4.3,3.6
	c1.5-1.1,5.6-1.3,5.6-1.3l3.5-2.4L22.6,19.3z"/>
<rect x="22.9" y="18.8" transform="matrix(0.7586 -0.6516 0.6516 0.7586 -7.6661 20.1652)" fill="#52CAF5" width="0.9" height="3.3"/>
<polygon fill="#3588A6" points="22.8,19.1 30.3,12 32.7,14.9 24.7,21.2 "/>
<polygon fill="#52CAF5" points="30.3,12 42.9,0 42.9,6.8 32.7,14.9 "/>
</svg>
