<?xml version="1.0" encoding="utf-8"?>
<svg version="1.1"
	 xmlns="http://www.w3.org/2000/svg" xmlns:xlink="http://www.w3.org/1999/xlink"
	 x="0px" y="0px" width="48px" height="48px" viewBox="-2.531 -2.72 48 48">
<defs>
</defs>
<path fill="#F79523" d="M21.279,0C9.527,0,0,9.527,0,21.28s9.527,21.28,21.279,21.28c11.753,0,21.28-9.527,21.28-21.28
	S33.032,0,21.279,0z M21.279,40.433c-10.577,0-19.152-8.575-19.152-19.152S10.702,2.128,21.279,2.128
	c10.578,0,19.152,8.575,19.152,19.152S31.857,40.433,21.279,40.433z"/>
<path fill="#C8691C" d="M38.562,31.133c-1.484-3.348-3.894-6.193-6.931-8.175c0.042,0.132,0.072,0.267,0.072,0.402
	c0,1.935-4.617,3.506-10.313,3.506c-5.698,0-10.315-1.571-10.315-3.506c0-0.136,0.029-0.271,0.075-0.402
	c-3.183,2.076-5.682,5.097-7.142,8.655c3.542,5.753,9.879,9.602,17.131,9.602C28.592,41.215,35.083,37.153,38.562,31.133z"/>
<path fill="#C8691C" d="M30.339,13.491c0,5.199-4.007,9.411-8.949,9.411c-4.946,0-8.95-4.212-8.95-9.411
	c0-5.198,4.004-9.411,8.95-9.411C26.332,4.08,30.339,8.293,30.339,13.491z"/>
<path fill="#F79523" d="M18.663,26.737c-4.372-0.406-7.589-1.764-7.589-3.377c0-0.136,0.029-0.271,0.075-0.402
	c-3.183,2.076-5.682,5.097-7.142,8.655c2.025,3.289,4.895,6.279,8.402,7.956l5.267,1.693c1.108,0.188,2.301-0.048,3.462-0.048
	c2.194,0,4.302-0.363,6.278-1.013L18.663,26.737z"/>
<path fill="#52CAF5" d="M36.268,10.228c-0.591-0.59-1.547-0.59-2.137,0l-4.967,4.672v12.789c0,3.295,2.67,1.963,5.961,1.963
	c3.293,0,5.962,1.332,5.962-1.963V14.899L36.268,10.228z M35.195,14.321c-0.725,0-1.313-0.588-1.313-1.313s0.588-1.313,1.313-1.313
	c0.726,0,1.313,0.588,1.313,1.313S35.921,14.321,35.195,14.321z"/>
<path fill="none" stroke="#52CAF5" stroke-miterlimit="10" d="M38.91,9.255c2.078-0.48,3.798-0.353,4.007,0.352
	c0.235,0.795-1.542,2.021-3.97,2.74c-2.427,0.719-4.585,0.656-4.82-0.138c-0.183-0.618,0.852-1.497,2.463-2.196"/>
<polygon fill="#FFFFFF" points="35.1,19.183 36.344,21.705 39.128,22.108 37.112,24.073 37.59,26.845 35.1,25.537 32.609,26.845 
	33.084,24.073 31.07,22.108 33.854,21.705 "/>
</svg>
