<?xml version="1.0" encoding="utf-8"?>
<svg version="1.1"
	 xmlns="http://www.w3.org/2000/svg" x="0px" y="0px" width="28px" height="28px" viewBox="0 0 28 28">
<defs>
</defs>
<path d="M17.64,6.029l1.396-2.705c-0.315-0.509-0.874-0.852-1.516-0.853H3.238c-0.985,0-1.785,0.799-1.785,1.785
	c0,0.987,0.8,1.785,1.785,1.785H17.52C17.561,6.041,17.6,6.032,17.64,6.029z"/>
<path d="M25.057,1.745c-1.348-0.699-3.008-0.172-3.707,1.177l-8.343,16.174l-0.717,7.443l5.582-4.914l0.024-0.002l8.342-16.177
	C26.938,4.099,26.404,2.436,25.057,1.745z"/>
<path d="M11.199,18.516l1.499-2.906h-9.46c-0.985,0-1.785,0.8-1.785,1.785s0.8,1.785,1.785,1.785h7.897L11.199,18.516z"/>
<path d="M16.086,9.041H3.238c-0.985,0-1.785,0.799-1.785,1.784c0,0.986,0.8,1.787,1.785,1.787h11.006L16.086,9.041z"/>
</svg>
