<?xml version="1.0" encoding="utf-8"?>
<!DOCTYPE svg PUBLIC "-//W3C//DTD SVG 1.1//EN" "http://www.w3.org/Graphics/SVG/1.1/DTD/svg11.dtd" [
	<!ENTITY ns_flows "http://ns.adobe.com/Flows/1.0/">
]>
<svg version="1.1"
	 xmlns="http://www.w3.org/2000/svg" x="0px" y="0px" width="24px" height="24px" viewBox="-1.833 -2.483 24 24">
<defs>
</defs>
<path d="M20.334,2.033c0,1.124-0.91,2.033-2.034,2.033H2.033C0.911,4.066,0,3.157,0,2.033l0,0C0,0.91,0.911,0,2.033,0H18.3
	C19.424,0,20.334,0.91,20.334,2.033L20.334,2.033z"/>
<path d="M20.334,9.516c0,1.124-0.91,2.034-2.034,2.034H2.033C0.911,11.55,0,10.64,0,9.516l0,0c0-1.122,0.911-2.032,2.033-2.032H18.3
	C19.424,7.483,20.334,8.394,20.334,9.516L20.334,9.516z"/>
<path d="M20.334,17c0,1.123-0.91,2.033-2.034,2.033H2.033C0.911,19.033,0,18.123,0,17l0,0c0-1.123,0.911-2.033,2.033-2.033H18.3
	C19.424,14.967,20.334,15.877,20.334,17L20.334,17z"/>
</svg>
