<?xml version="1.0" encoding="utf-8"?>
<svg version="1.1"
	 xmlns="http://www.w3.org/2000/svg" xmlns:xlink="http://www.w3.org/1999/xlink"
	 x="0px" y="0px" width="32px" height="32px" viewBox="-3.001 -1.874 32 32">
<defs>
</defs>
<path fill="#52CAF5" d="M24.281,27.508l-8.589-8.59c-1.056-1.056-2.768-1.056-3.824,0l-8.534,8.533
	c0.343,0.156,0.722,0.25,1.125,0.25h18.824C23.637,27.701,23.973,27.629,24.281,27.508z"/>
<path fill="#52CAF5" d="M25.689,26.224c0.191-0.369,0.309-0.781,0.309-1.227V12.122c0-0.435-0.11-0.838-0.295-1.201l-7.698,7.777
	L25.689,26.224z"/>
<path fill="#3588A6" d="M1.926,11.112c-0.121,0.323-0.184,0.664-0.18,1.004c0,0.002-0.001,0.004-0.001,0.006v12.875
	c0,0.365,0.075,0.714,0.207,1.03l7.483-7.329L1.926,11.112z"/>
<path fill="#52CAF5" d="M8.36,11.04h11.391v3.025l4.64-4.639l-8.619-8.619c-1.074-1.075-2.817-1.075-3.891,0L3.445,9.242
	l4.915,4.915V11.04z"/>
<path fill="#3588A6" d="M7.874,17.121l-5.948-6.009c-0.121,0.323-0.184,0.664-0.18,1.004c0,0.002-0.001,0.004-0.001,0.006v12.875
	c0,0.365,0.075,0.714,0.207,1.03l4.945-4.844L7.874,17.121z"/>
<circle fill="#F79523" cx="6.155" cy="22.097" r="6.155"/>
<path fill="#C8691C" d="M8.019,16.23c-0.588-0.188-1.214-0.29-1.864-0.29C2.756,15.94,0,18.697,0,22.097
	c0,3.094,2.286,5.648,5.26,6.082L8.019,16.23z"/>
<path fill="#F5F5F5" d="M4.163,21.832l-2.247,1.502c-0.519,0.347-0.584,1.161-0.144,1.817c0.438,0.658,1.216,0.909,1.735,0.562
	l2.247-1.502c0.519-0.347,0.583-1.161,0.145-1.816C5.46,21.736,4.684,21.485,4.163,21.832z M5.278,23.648l-2.11,1.409
	c-0.252,0.169-0.631,0.047-0.846-0.273c-0.213-0.321-0.184-0.717,0.071-0.887l2.109-1.411c0.253-0.168,0.632-0.045,0.847,0.274
	C5.564,23.081,5.532,23.478,5.278,23.648z"/>
<path fill="#F5F5F5" d="M7.097,18.672l-0.81,2.578C6.1,21.846,6.56,22.521,7.314,22.758c0.752,0.238,1.516-0.053,1.704-0.649
	l0.81-2.579c0.188-0.596-0.272-1.271-1.026-1.507C8.048,17.785,7.286,18.076,7.097,18.672z M9.104,19.389l-0.76,2.42
	C8.251,22.1,7.88,22.241,7.512,22.125c-0.368-0.114-0.592-0.443-0.5-0.733l0.761-2.421c0.091-0.291,0.463-0.433,0.831-0.317
	C8.972,18.769,9.195,19.098,9.104,19.389z"/>
<path fill="#F5F5F5" d="M7.935,21.036c0.118,0.176,0.093,0.399-0.057,0.499l-2.753,1.841c-0.151,0.1-0.367,0.038-0.483-0.137l0,0
	c-0.119-0.178-0.092-0.402,0.057-0.5l2.753-1.841C7.602,20.797,7.817,20.858,7.935,21.036L7.935,21.036z"/>
<polygon fill="#3588A6" points="3.445,9.242 8.36,14.157 8.36,11.04 9.335,11.04 11.766,0.92 "/>
</svg>
