<?xml version="1.0" encoding="utf-8"?>
<svg version="1.1"
	 xmlns="http://www.w3.org/2000/svg" xmlns:xlink="http://www.w3.org/1999/xlink"
	 x="0px" y="0px" width="48px" height="48px" viewBox="-2.857 -5.682 48 48">
<defs>
</defs>
<path fill="#F79523" d="M42.295,34.667c-0.612-7.718-5.361-14.261-12.025-17.443v-3.757c0-1.183-0.956-2.141-2.139-2.141h-13.97
	c-1.181,0-2.141,0.958-2.141,2.141v3.758C5.361,20.408,0.612,26.949,0,34.667h5.524v1.258c0,1.178,0.957,2.14,2.139,2.14h0.391
	c1.178,0,2.136-0.962,2.136-2.14v-1.258h23.772v1.258c0,1.178,0.952,2.14,2.137,2.14h0.39c1.182,0,2.138-0.962,2.138-2.14v-1.258
	H42.295z"/>
<path fill="#52CAF5" d="M21.146,19.39c-3.633,0-6.577,2.943-6.577,6.579c0,3.632,2.944,6.58,6.577,6.58
	c3.635,0,6.578-2.948,6.578-6.58C27.724,22.333,24.781,19.39,21.146,19.39z M21.316,29.512c-1.864,0-3.375-1.513-3.375-3.374
	c0-1.862,1.511-3.373,3.375-3.373s3.371,1.511,3.371,3.373C24.687,27.999,23.18,29.512,21.316,29.512z"/>
<path fill="#F79523" d="M41.303,10.272C37.09,4.1,29.641,0,21.146,0C12.653,0,5.203,4.1,0.989,10.272h0.682
	c0.023,0.198,0.065,0.399,0.154,0.603l1.107,2.531c0.52,1.195,1.906,1.735,3.098,1.214l6.382-2.79
	c1.188-0.519,1.734-1.907,1.212-3.098l-0.676-1.547c2.471-1.001,5.248-1.581,8.198-1.581c2.873,0,5.579,0.549,7.999,1.5
	l-0.712,1.628c-0.52,1.191,0.026,2.579,1.215,3.098l6.385,2.79c1.189,0.521,2.574-0.02,3.096-1.214l1.106-2.531
	c0.086-0.197,0.133-0.399,0.163-0.603H41.303z"/>
<path fill="#C8691C" d="M21.146,0c-1.256,0-2.487,0.101-3.693,0.274l2.966,5.365c0.243-0.008,0.48-0.035,0.727-0.035
	c2.873,0,5.579,0.549,7.999,1.5l-0.712,1.628c-0.52,1.191,0.026,2.579,1.215,3.098l6.385,2.79c1.189,0.521,2.574-0.02,3.096-1.214
	l1.106-2.531c0.086-0.197,0.133-0.399,0.163-0.603h0.905C37.09,4.1,29.641,0,21.146,0z"/>
<path fill="#C8691C" d="M37.991,37.445c0.393-0.39,0.636-0.927,0.636-1.521v-1.258h3.669c-0.612-7.718-5.361-14.261-12.025-17.443
	v-3.757c0-1.183-0.956-2.141-2.139-2.141H23.56L37.991,37.445z"/>
</svg>
