<?xml version="1.0" encoding="utf-8"?>
<svg version="1.1"
	 xmlns="http://www.w3.org/2000/svg" xmlns:xlink="http://www.w3.org/1999/xlink"
	 x="0px" y="0px" width="48px" height="48px" viewBox="-3.696 -5.84 48 48">
<defs>
</defs>
<path fill="#F79523" d="M38.607,5.097h-6.213v4.29c0,1.196-0.971,2.167-2.166,2.167h-1.926c-1.196,0-2.166-0.97-2.166-2.167v-4.29
	H13.395v4.29c0,1.196-0.971,2.167-2.167,2.167H9.303c-1.196,0-2.167-0.97-2.167-2.167v-4.29H2c-1.104,0-2,0.896-2,2v27.602
	c0,1.104,0.896,2,2,2h36.607c1.104,0,2-0.896,2-2V7.097C40.607,5.993,39.712,5.097,38.607,5.097z"/>
<path fill="#C8691C" d="M11.71,8.75c0,0.798-0.646,1.444-1.444,1.444l0,0c-0.798,0-1.444-0.646-1.444-1.444V1.444
	C8.821,0.646,9.468,0,10.266,0l0,0c0.798,0,1.444,0.646,1.444,1.444V8.75z"/>
<path fill="#C8691C" d="M30.71,8.75c0,0.798-0.646,1.444-1.444,1.444l0,0c-0.797,0-1.443-0.646-1.443-1.444V1.444
	C27.822,0.646,28.469,0,29.266,0l0,0c0.798,0,1.444,0.646,1.444,1.444V8.75z"/>
<path fill="#52CAF5" d="M28.661,26.729c0,2.051-1.662,3.713-3.712,3.713h-9.291c-2.05,0-3.712-1.662-3.712-3.713v-7.083
	c0-2.05,1.662-3.712,3.712-3.712h9.291c2.05,0,3.712,1.662,3.712,3.712V26.729z"/>
<polygon fill="#FFFFFF" points="14.111,23.387 17.107,28.381 26.496,18.993 25.098,17.994 17.307,25.185 15.709,21.589 "/>
</svg>
