<?xml version="1.0" encoding="utf-8"?>
<svg version="1.1"
	 xmlns="http://www.w3.org/2000/svg" xmlns:xlink="http://www.w3.org/1999/xlink"
	 x="0px" y="0px" width="48px" height="48px" viewBox="-3.196 -5.301 48 48">
<defs>
</defs>
<path fill="#F79523" d="M39.716,5.244h-6.392v4.413c0,1.23-0.998,2.229-2.228,2.229h-1.981c-1.23,0-2.228-0.998-2.228-2.229V5.244
	H13.779v4.413c0,1.23-0.999,2.229-2.229,2.229H9.57c-1.231,0-2.229-0.998-2.229-2.229V5.244H2.057C0.921,5.244,0,6.165,0,7.301
	v28.396c0,1.135,0.921,2.057,2.057,2.057h37.659c1.137,0,2.058-0.922,2.058-2.057V7.301C41.773,6.165,40.853,5.244,39.716,5.244z"/>
<path fill="#C8691C" d="M12.046,9.001c0,0.821-0.665,1.485-1.485,1.485l0,0c-0.821,0-1.486-0.665-1.486-1.485V1.486
	C9.074,0.665,9.74,0,10.561,0l0,0c0.821,0,1.485,0.665,1.485,1.486V9.001z"/>
<path fill="#C8691C" d="M31.592,9.001c0,0.821-0.665,1.485-1.485,1.485l0,0c-0.82,0-1.485-0.665-1.485-1.485V1.486
	C28.621,0.665,29.286,0,30.106,0l0,0c0.82,0,1.485,0.665,1.485,1.486V9.001z"/>
<path fill="#C8691C" d="M24.34,29.553c0,2.11-1.71,3.82-3.818,3.82h-9.557c-2.109,0-3.819-1.71-3.819-3.82v-7.285
	c0-2.109,1.71-3.819,3.819-3.819h9.557c2.108,0,3.818,1.71,3.818,3.819V29.553z"/>
<polygon fill="#52CAF5" points="39.232,22.969 25.346,22.969 25.346,19.294 18.071,26.569 25.346,33.844 25.346,30.17 39.232,30.17 
	"/>
<path fill="#FFFFFF" d="M25.346,19.294v3.674h13.887v7.201H25.346v3.674l-7.275-7.274L25.346,19.294 M26.374,16.811l-1.756,1.756
	l-7.275,7.275l-0.727,0.728l0.727,0.728l7.275,7.273l1.756,1.756v-2.482v-2.646h12.858h1.027V30.17v-7.201v-1.029h-1.027H26.374
	v-2.645V16.811L26.374,16.811z"/>
</svg>
