<?xml version="1.0" encoding="utf-8"?>
<svg version="1.1"
	 xmlns="http://www.w3.org/2000/svg" xmlns:xlink="http://www.w3.org/1999/xlink"
	 x="0px" y="0px" width="48px" height="48px" viewBox="-11.19 -4.834 48 48">
<defs>
</defs>
<path fill="#F79523" d="M17.958,37.835c0,1.268-1.028,2.295-2.295,2.295H2.497c-1.267,0-2.294-1.027-2.294-2.295V9.834
	c0-1.267,1.027-2.295,2.294-2.295h13.167c1.267,0,2.295,1.028,2.295,2.295V37.835z"/>
<path fill="#F79523" d="M13.661,11.949c0,1.268-1.027,2.294-2.295,2.294H6.957c-1.268,0-2.295-1.027-2.295-2.294V2.918
	c0-1.267,1.027-2.294,2.295-2.294h4.409c1.268,0,2.295,1.027,2.295,2.294V11.949z"/>
<path fill="#F79523" d="M14.754,1.217c0,0.671-0.544,1.216-1.216,1.216H4.783c-0.671,0-1.215-0.545-1.215-1.216l0,0
	C3.568,0.545,4.112,0,4.783,0h8.755C14.21,0,14.754,0.545,14.754,1.217L14.754,1.217z"/>
<path fill="#C8691C" d="M14.431,28.836c0,1.267-1.028,2.294-2.294,2.294H6.024c-1.267,0-2.295-1.027-2.295-2.294V13.726
	c0-1.267,1.028-2.294,2.295-2.294h6.113c1.266,0,2.294,1.027,2.294,2.294V28.836z"/>
<polygon fill="#FFFFFF" points="8.914,19.531 10.089,21.913 12.716,22.294 10.816,24.147 11.265,26.765 8.914,25.53 6.563,26.765 
	7.012,24.147 5.111,22.294 7.739,21.913 "/>
<polygon fill="#52CAF5" points="17.999,15.322 12.889,11.674 14.593,9 4.864,8.756 5.837,19.943 8.269,17.511 18.241,25.294 "/>
<polygon fill="#52CAF5" points="0,30.644 0.202,37.835 22.625,40.13 26.029,33.077 "/>
</svg>
