<?xml version="1.0" encoding="utf-8"?>
<svg version="1.1"
	 xmlns="http://www.w3.org/2000/svg" xmlns:xlink="http://www.w3.org/1999/xlink"
	 x="0px" y="0px" width="100px" height="100px" viewBox="-3.294 -9.072 100 100">
<defs>
</defs>
<path fill="#A75812" d="M72.167,80.366h6.297c-0.01-0.235-0.023-0.476-0.107-0.711L49.891,1.451
	c-0.418-1.144-1.684-1.733-2.829-1.317l-1.55,0.563c-1.143,0.416-1.733,1.682-1.318,2.826L72.167,80.366z"/>
<path fill="#A75812" d="M41.902,75.958V15.183c0-1-0.988-1.811-2.204-1.811h-1.649c-1.219,0-2.205,0.811-2.205,1.811v60.776H41.902z
	"/>
<path fill="#A75812" d="M6.297,80.366l27.97-76.843c0.415-1.144-0.174-2.41-1.317-2.826l-1.551-0.563
	c-1.145-0.416-2.41,0.174-2.827,1.317L0.107,79.655C0.022,79.89,0.004,80.13,0,80.366H6.297z"/>
<rect x="2.626" y="8.235" fill="#D1D3D4" width="72.496" height="43.497"/>
<polygon fill="#E6E7E8" points="42.981,51.732 2.626,51.732 2.626,8.235 "/>
<path fill="#DA7320" d="M66.676,48.981H11.071c-1.219,0-2.205,0.983-2.205,2.201v0.55h60.014v-0.55
	C68.879,49.964,67.895,48.981,66.676,48.981z"/>
<path fill="#DA7320" d="M66.676,10.988H11.071c-1.219,0-2.205-0.986-2.205-2.205V8.235h60.014v0.548
	C68.879,10.002,67.895,10.988,66.676,10.988z"/>
<path fill="#2BB673" d="M21.852,15.827c-3.71,3.445,8.505,8.305,7.898,11.139c-0.607,2.835-14.583-5.064-15.595-0.811
	c-1.013,4.254,9.519,5.063,10.734,7.291c1.215,2.229-7.898,2.025-6.886,5.267c1.012,3.241,7.088-1.013,11.14,0.811
	c4.051,1.824,8.102,5.873,10.127,3.038c2.025-2.835-2.634-4.658,0.404-7.292c3.039-2.633,5.469,0.203,6.887-1.418
	c1.417-1.621-4.458-3.24-5.672-6.076c-1.215-2.836,5.875-3.039,4.659-7.697c-1.216-4.658-5.469,1.215-8.102,1.215
	C34.814,21.294,24.688,13.193,21.852,15.827z"/>
<path fill="#EF4136" d="M53.756,20.511c1.922,3.019-4.408,7.275-4.094,9.759c0.314,2.484,7.559-4.437,8.082-0.71
	c0.525,3.727-4.934,4.435-5.563,6.387c-0.631,1.952,4.094,1.774,3.568,4.614c-0.525,2.839-3.674-0.887-5.773,0.71
	c-2.1,1.598-4.199,5.145-5.248,2.661c-1.051-2.484,1.364-4.08-0.21-6.388c-1.575-2.307-2.835,0.178-3.569-1.242
	c-0.735-1.42,2.311-2.838,2.939-5.323c0.63-2.484-3.045-2.662-2.414-6.743c0.629-4.081,2.834,1.064,4.198,1.064
	S52.286,18.204,53.756,20.511z"/>
<polygon fill="#7C3E00" points="41.897,62.549 35.86,56.549 35.86,51.749 41.897,51.749 "/>
<ellipse fill="#808285" cx="80.109" cy="80.677" rx="10.927" ry="1.179"/>
<rect x="69.161" y="79.059" fill="#808285" width="21.895" height="1.777"/>
<ellipse fill="#BCBEC0" cx="80.109" cy="79.088" rx="10.927" ry="1.175"/>
<path fill="#3588A6" d="M82.331,71.434l1.4-10.755c0.141-1.111,0.623-1.947-0.162-2.63l5.289-40.468
	c0.127-0.991-0.57-1.896-1.561-2.026c-0.988-0.128-1.898,0.571-2.031,1.561l-5.287,40.456c-0.943,0.468-0.672,1.747-0.813,2.868
	l-1.41,10.756c-0.23,1.781,0.133,2.485,1.916,2.709c1.779,0.241,2.398-0.651,2.633-2.432"/>
<path fill="#414042" d="M84.928,19.47c0,0,0.82-0.572,1.77-0.385c0.947,0.187,1.912,1.117,1.912,1.117l0.615-4.288
	c0,0-0.262-0.762-1.777-1.025c-1.391-0.241-2.039,0.626-2.039,0.626L84.928,19.47z"/>
<path fill="#52CAF5" d="M85.409,15.515c0,0-0.895-3.123-0.053-4.795c0.838-1.668,3.268-2.643,3.012-4.775c0,0,1.455,3.578,2.1,5.775
	c0.643,2.203-1.242,4.194-1.242,4.194s-0.477-0.977-1.777-1.025C86.045,14.837,85.409,15.515,85.409,15.515z"/>
<path fill="#414042" d="M89.288,78.897c0,0-3.225,0.876-9.387,0.945c-5.836,0.066-8.965-0.912-8.965-0.912l-4.182-37.184
	l26.607-0.171L89.288,78.897z"/>
<ellipse fill="#58595B" cx="79.98" cy="41.555" rx="13.431" ry="1.153"/>
<polygon fill="#3588A6" points="82.393,39.159 81.889,42.715 85.637,42.65 85.963,39.554 "/>
<polygon fill="#52CAF5" points="77.295,42.63 73.401,42.544 73.389,12.746 77.151,12.746 "/>
<polygon fill="#3588A6" points="78.172,42.65 75.565,42.585 75.489,12.746 78.11,12.746 "/>
<polygon fill="#C8691C" points="73.389,12.746 75.133,7.358 76.344,7.24 78.11,12.746 75.489,12.746 "/>
<polygon fill="#414042" points="75.133,7.358 75.817,5.131 76.344,7.24 "/>
<polygon fill="#AE5B14" points="75.752,7.298 76.344,7.24 78.11,12.746 75.489,12.746 "/>
<path fill="#3588A6" d="M85.356,10.72c0.838-1.668,3.268-2.643,3.012-4.775c0,0,1.455,3.578,2.1,5.775
	c0.643,2.203-1.242,4.194-1.242,4.194s-0.477-0.977-1.777-1.025c0,0,1.648-1.621,0.461-2.863
	C86.719,10.785,85.356,10.72,85.356,10.72z"/>
<polygon fill="#414042" points="85.889,40.479 87.454,40.577 86.639,42.566 85.637,42.65 "/>
<polygon fill="#414042" points="78.165,40.381 79.86,40.381 79.11,42.664 78.172,42.65 "/>
<path fill="#6D6E71" d="M75.249,79.661c-2.828-0.267-4.313-0.73-4.313-0.73l-4.182-37.184c0,0,0.752,0.313,2.584,0.548
	C71.192,56.946,73.129,65.258,75.249,79.661z"/>
<circle fill="#A75812" cx="13.332" cy="50.523" r="0.743"/>
<circle fill="#A75812" cx="65.332" cy="50.523" r="0.743"/>
<polygon fill="#F1F2F2" points="2.626,8.235 3.04,7.986 75.649,7.986 75.122,8.235 "/>
<polygon fill="#E39948" points="8.866,8.235 9.196,7.971 69.086,7.971 68.852,8.206 "/>
<path fill="#65BF71" d="M18.23,25.054c-2.107-0.374-3.753-0.256-4.076,1.101c-1.013,4.254,9.519,5.063,10.734,7.291
	c1.215,2.229-7.898,2.025-6.886,5.267c1.012,3.241,7.088-1.013,11.14,0.811c1.818,0.818,3.635,2.082,5.27,2.973L18.23,25.054z"/>
<path fill="#E68A20" d="M11.071,48.981c-1.219,0-2.205,0.983-2.205,2.201v0.55h34.116l-2.552-2.751H11.071z"/>
</svg>
