<?xml version="1.0" encoding="utf-8"?>
<svg version="1.1"
	 xmlns="http://www.w3.org/2000/svg" xmlns:xlink="http://www.w3.org/1999/xlink"
	 x="0px" y="0px" width="100px" height="100px" viewBox="-6.309 -4.931 100 100">
<defs>
</defs>
<path fill="#C8691C" d="M23.31,80.617c0.125-0.067,0.243-0.136,0.34-0.232c1.379-1.379-0.788-5.795-4.852-9.858
	c-4.059-4.059-8.478-6.229-9.857-4.851c-0.097,0.096-0.169,0.21-0.232,0.341c-1.107-5.26,0.024-10.903,3.428-15.386l26.56,26.562
	C34.211,80.593,28.57,81.725,23.31,80.617z"/>
<path fill="#C8691C" d="M15.642,86.45c3.707-3.708,3.854-9.57,0.329-13.097c-3.525-3.525-9.385-3.375-13.092,0.332
	c-3.705,3.703-3.854,9.563-0.328,13.089C6.076,90.301,11.938,90.155,15.642,86.45z"/>
<path fill="#F79523" d="M16.761,68.678c-3.408-2.825-6.67-4.152-7.82-3.002c-0.097,0.096-0.169,0.21-0.232,0.341
	c-1.107-5.26,0.024-10.903,3.428-15.386l15.367,15.368L16.761,68.678z"/>
<path fill="#C8691C" d="M64.353,78.869c-0.124-0.067-0.242-0.136-0.34-0.231c-1.38-1.38,0.788-5.795,4.853-9.859
	c4.059-4.06,8.479-6.229,9.856-4.851c0.097,0.097,0.168,0.211,0.233,0.341c1.106-5.26-0.025-10.902-3.428-15.385l-26.562,26.56
	C53.453,78.846,59.093,79.977,64.353,78.869z"/>
<path fill="#C8691C" d="M72.021,84.701c-3.707-3.707-3.854-9.57-0.328-13.095c3.525-3.526,9.384-3.375,13.092,0.332
	c3.704,3.703,3.854,9.563,0.327,13.088C81.587,88.553,75.725,88.406,72.021,84.701z"/>
<path fill="#F79523" d="M70.902,66.931c3.408-2.825,6.67-4.153,7.82-3.003c0.097,0.097,0.168,0.211,0.233,0.341
	c1.106-5.26-0.025-10.902-3.428-15.385L60.16,64.251L70.902,66.931z"/>
<path fill="#C8691C" d="M23.683,8.708c0.125,0.067,0.243,0.136,0.34,0.233c1.379,1.379-0.788,5.794-4.851,9.857
	c-4.06,4.06-8.479,6.23-9.858,4.851c-0.097-0.097-0.168-0.211-0.232-0.341c-1.107,5.26,0.025,10.901,3.428,15.384l26.561-26.56
	C34.585,8.733,28.944,7.601,23.683,8.708z"/>
<path fill="#C8691C" d="M16.016,2.876c3.707,3.707,3.854,9.57,0.329,13.095c-3.525,3.525-9.385,3.375-13.093-0.332
	c-3.704-3.705-3.854-9.563-0.328-13.088C6.45-0.974,12.312-0.828,16.016,2.876z"/>
<path fill="#F79523" d="M17.135,20.648c-3.408,2.825-6.67,4.153-7.82,3.002c-0.097-0.097-0.168-0.211-0.232-0.341
	c-1.107,5.26,0.025,10.901,3.428,15.384l15.367-15.367L17.135,20.648z"/>
<path fill="#C8691C" d="M63.231,10.457c-0.125,0.067-0.242,0.136-0.341,0.233c-1.379,1.379,0.789,5.794,4.853,9.856
	c4.059,4.061,8.478,6.231,9.856,4.852c0.098-0.097,0.169-0.211,0.233-0.341c1.106,5.26-0.025,10.902-3.428,15.385l-26.561-26.56
	C52.33,10.481,57.971,9.348,63.231,10.457z"/>
<path fill="#C8691C" d="M70.899,4.624c-3.707,3.707-3.854,9.57-0.329,13.095c3.525,3.525,9.385,3.376,13.092-0.332
	c3.704-3.705,3.853-9.563,0.328-13.088C80.464,0.774,74.603,0.92,70.899,4.624z"/>
<path fill="#F79523" d="M69.779,22.396c3.408,2.825,6.67,4.152,7.82,3.002c0.098-0.097,0.169-0.211,0.233-0.341
	c1.106,5.26-0.025,10.902-3.428,15.385L59.037,25.074L69.779,22.396z"/>
<path fill="#3588A6" d="M43.023,16.628c-15.689,0-28.408,12.719-28.408,28.407c0,15.689,12.719,28.407,28.408,28.407
	S71.43,60.725,71.43,45.035C71.43,29.347,58.712,16.628,43.023,16.628z M43.023,68.866c-13.162,0-23.832-10.67-23.832-23.831
	s10.669-23.83,23.832-23.83c13.16,0,23.83,10.668,23.83,23.83S56.183,68.866,43.023,68.866z"/>
<path fill="#3588A6" d="M57,40.116c0.675,0.723,1.253,0.505,1.287-0.482l0.256-7.482c0.034-0.988-0.746-1.823-1.733-1.856
	l-7.481-0.255c-0.989-0.033-1.244,0.529-0.57,1.251l0.442,0.474c0.674,0.722,0.635,1.864-0.087,2.539l-3.392,3.169
	c-0.722,0.673-0.762,1.816-0.087,2.538l2.453,2.626c0.674,0.722,1.817,0.761,2.539,0.087l3.392-3.169
	c0.723-0.674,1.865-0.636,2.539,0.087L57,40.116z"/>
<path fill="#3588A6" d="M37.289,58.526c0.674,0.722,0.419,1.285-0.569,1.252l-7.481-0.255c-0.988-0.034-1.768-0.868-1.734-1.857
	l0.255-7.48c0.034-0.988,0.613-1.205,1.288-0.484l0.442,0.475c0.675,0.722,1.817,0.761,2.539,0.086l3.393-3.169
	c0.722-0.674,1.865-0.635,2.539,0.088l2.453,2.626c0.675,0.722,0.635,1.865-0.086,2.539l-3.393,3.169
	c-0.722,0.674-0.761,1.816-0.086,2.538L37.289,58.526z"/>
<path fill="#3588A6" d="M38.23,30.932c0.722-0.674,0.505-1.253-0.482-1.287l-7.481-0.257c-0.989-0.033-1.824,0.748-1.857,1.735
	l-0.255,7.482c-0.034,0.986,0.529,1.243,1.251,0.568l0.473-0.441c0.723-0.675,1.865-0.636,2.539,0.086l3.169,3.392
	c0.674,0.722,1.816,0.762,2.539,0.086l2.625-2.453c0.723-0.675,0.761-1.817,0.087-2.539l-3.168-3.392
	c-0.674-0.723-0.636-1.864,0.086-2.54L38.23,30.932z"/>
<path fill="#3588A6" d="M56.641,50.643c0.722-0.674,1.284-0.418,1.252,0.57l-0.255,7.481c-0.034,0.986-0.87,1.768-1.858,1.733
	l-7.481-0.254c-0.986-0.035-1.205-0.615-0.482-1.289l0.475-0.442c0.721-0.674,0.761-1.815,0.086-2.538l-3.169-3.393
	c-0.674-0.721-0.636-1.865,0.088-2.539l2.625-2.452c0.723-0.675,1.863-0.637,2.539,0.086l3.168,3.393
	c0.675,0.722,1.817,0.762,2.539,0.087L56.641,50.643z"/>
</svg>
