<?xml version="1.0" encoding="utf-8"?>
<svg version="1.1"
	 xmlns="http://www.w3.org/2000/svg" xmlns:xlink="http://www.w3.org/1999/xlink"
	 x="0px" y="0px" width="48px" height="48px" viewBox="-0.317 -0.62 48 48">
<defs>
</defs>
<path fill="#52CAF5" d="M25.487,46.058c-1.124,1.125-2.947,1.125-4.072,0L0.844,25.487c-1.125-1.125-1.125-2.948,0-4.074
	L21.415,0.843c1.125-1.124,2.949-1.124,4.072,0l20.571,20.571c1.125,1.125,1.124,2.949,0,4.074L25.487,46.058z"/>
<path fill="#37ACD4" d="M10.01,13.658c-0.485,0-0.968,0.013-1.447,0.037l-7.719,7.719c-1.125,1.125-1.125,2.949,0,4.074
	l20.571,20.57c1.125,1.125,2.948,1.125,4.072,0l11.947-11.946C33.921,22.286,22.976,13.658,10.01,13.658z"/>
<path fill="#FFFFFF" d="M18.08,10.181c0-0.588-0.47-1.067-1.049-1.067h-1.818c-0.579,0-1.049,0.479-1.049,1.067
	c0,0.387,0.206,0.724,0.51,0.911v13.151c0,0.41,0.128,0.794,0.359,1.095v12.691c0,0.589,0.479,1.066,1.067,1.066
	c0.589,0,1.067-0.478,1.067-1.066V25.451c0.29-0.31,0.459-0.746,0.459-1.208V11.807l-0.422-0.15
	c-0.438-0.157-0.832-0.287-1.211-0.408h1.038C17.61,11.249,18.08,10.77,18.08,10.181z"/>
<path fill="#FFFFFF" d="M38.513,17.176c-0.03-0.001-3.029-0.101-4.488-0.442c-1.198-0.281-3.414-1.947-4.879-3.049
	c-0.244-0.184-0.473-0.354-0.678-0.506c-1.438-1.063-3.177-2.25-5.649-2.885c-0.706-0.182-1.558-0.274-2.53-0.274
	c-1.724,0-3.245,0.286-3.309,0.297l-0.517,0.099v15.408l1.018-0.767c0.504-0.379,3.123-2.146,4.216-2.853
	c0.981-0.634,1.574-1.019,4.198-1.276c1.088-0.103,2.445-0.026,3.699,0.068c0.804,0.059,1.634,0.121,2.439,0.121
	c0.663,0,1.247-0.042,1.785-0.128c2.614-0.418,5.007-2.621,5.107-2.713l1.131-1.052L38.513,17.176z"/>
<path fill="#F79523" d="M16.991,24.243c0,0.571-0.375,1.036-0.841,1.036l0,0c-0.464,0-0.841-0.465-0.841-1.036V11.475
	c0-0.572,0.376-1.035,0.841-1.035l0,0c0.466,0,0.841,0.463,0.841,1.035V24.243z"/>
<path fill="#F79523" d="M17.444,10.181c0,0.239-0.185,0.432-0.414,0.432h-1.818c-0.228,0-0.413-0.193-0.413-0.432l0,0
	c0-0.237,0.185-0.431,0.413-0.431h1.818C17.259,9.75,17.444,9.943,17.444,10.181L17.444,10.181z"/>
<path fill="#C8691C" d="M16.531,38.029c0,0.237-0.193,0.432-0.431,0.432l0,0c-0.239,0-0.431-0.194-0.431-0.432V14.764
	c0-0.238,0.192-0.431,0.431-0.431l0,0c0.238,0,0.431,0.193,0.431,0.431V38.029z"/>
<path fill="#C8691C" d="M16.93,11.008c0,0,3.271-0.622,5.562-0.032c2.289,0.589,3.924,1.669,5.43,2.781
	c1.504,1.113,4.252,3.304,5.79,3.663c1.536,0.36,4.611,0.458,4.611,0.458s-2.321,2.159-4.774,2.551
	c-2.455,0.393-5.202-0.327-7.885-0.066c-2.682,0.262-3.37,0.655-4.482,1.375c-1.112,0.719-3.729,2.486-4.252,2.88V11.008z"/>
<path fill="#F79523" d="M28.647,20.308c1.355,0.101,3.757,0.281,5.071,0.055c2.448-0.421,4.775-2.551,4.775-2.551
	s-3.075-0.099-4.613-0.458c-1.537-0.359-4.285-2.551-5.79-3.663c-1.505-1.113-3.14-2.191-5.429-2.781
	c-2.291-0.589-5.731,0.028-5.731,0.028l-0.004,3.406C21.746,16.08,25.105,16.747,28.647,20.308z"/>
<path fill="#C8691C" d="M15.309,13.823v10.42c0,0.571,0.376,1.036,0.841,1.036c0.466,0,0.841-0.465,0.841-1.036v-9.864
	C16.436,14.181,15.877,13.992,15.309,13.823z"/>
</svg>
