<?xml version="1.0" encoding="utf-8"?>
<svg version="1.1"
	 xmlns="http://www.w3.org/2000/svg" xmlns:xlink="http://www.w3.org/1999/xlink"
	 x="0px" y="0px" width="48px" height="48px" viewBox="-1.833 -9.522 48 48">
<defs>
</defs>
<rect x="0.659" y="0.719" fill="#D1D3D4" width="43.293" height="26.509"/>
<polygon fill="#E6E7E8" points="15.965,0.719 0.659,0.719 0.659,27.228 29.82,27.228 "/>
<path fill="#3588A6" d="M43.91,0H0.644C0.289,0,0,0.288,0,0.644v27.269c0,0.355,0.289,0.645,0.644,0.645h2.792v1.61
	c0,0.356,0.289,0.644,0.644,0.644h36.393c0.357,0,0.646-0.287,0.646-0.644v-1.61h2.792c0.356,0,0.644-0.289,0.644-0.645V0.644
	C44.553,0.288,44.266,0,43.91,0z M43.317,26.571c0,0.355-0.286,0.643-0.643,0.643H1.879c-0.355,0-0.645-0.287-0.645-0.643V1.986
	c0-0.355,0.289-0.644,0.645-0.644h40.795c0.356,0,0.643,0.289,0.643,0.644V26.571z"/>
<path fill="#3B92B2" d="M0,0.644v27.269c0,0.355,0.289,0.645,0.644,0.645h2.792v1.61c0,0.356,0.289,0.644,0.644,0.644h27.611
	l-1.88-3.598H1.879c-0.355,0-0.645-0.287-0.645-0.643V1.986c0-0.355,0.289-0.644,0.645-0.644h14.413L15.589,0H0.644
	C0.289,0,0,0.288,0,0.644z"/>
<path fill="#C8691C" d="M23.251,16.583c1.241,0.469,1.658,2.354-0.235,2.783c-1.451,0.331-5.401,0-3.791,3.154h0.403
	c-1.778-2.784,1.946-2.449,3.69-2.885c1.882-0.472,1.573-2.694,0.053-3.319L23.251,16.583z"/>
<path fill="#C8691C" d="M8.095,11.643C8.72,9.69,9.649,9.15,9.79,9.078C9.363,8.556,8.789,8.146,8.099,7.925
	c-1.902-0.61-3.938,0.438-4.548,2.339c-0.609,1.902,0.438,3.938,2.34,4.547c0.688,0.221,1.395,0.222,2.045,0.046
	C7.859,14.723,7.407,13.788,8.095,11.643z"/>
<path fill="#F79523" d="M20.247,16.08c0-0.593,0.427-1.083,0.99-1.187L10.762,9.274c0,0-1.037,0.458-1.716,2.576
	c-0.747,2.331-0.147,3.236-0.147,3.236l11.55,1.799l0.04-0.089C20.338,16.596,20.247,16.349,20.247,16.08z"/>
<ellipse transform="matrix(0.9712 0.2383 -0.2383 0.9712 4.45 -4.7428)" fill="#F79523" cx="21.845" cy="16.038" rx="0.738" ry="0.879"/>
<rect x="22.243" y="15.506" transform="matrix(0.3246 -0.9459 0.9459 0.3246 -0.1036 32.3647)" fill="#F79523" width="0.734" height="1.498"/>
<polygon fill="#6AABC7" points="24.779,3.703 24.681,10.365 30.292,7.581 "/>
<polygon fill="#6AABC7" points="25.712,12.059 31.019,9.427 34.999,19.356 31.549,21.162 "/>
<polygon fill="#6AABC7" points="36.122,24.97 35.365,25.346 32.424,19.877 33.181,19.501 "/>
<polygon fill="#EEB11E" points="35.958,6.021 33.753,10.753 38.658,10.562 "/>
<polygon fill="#EEB11E" points="33.948,12.296 38.586,12.114 38.252,20.491 35.206,20.675 "/>
<polygon fill="#F79523" points="37.256,24.864 36.595,24.889 36.244,20.038 36.906,20.011 "/>
</svg>
