<?xml version="1.0" encoding="utf-8"?>
<svg version="1.1" xmlns="http://www.w3.org/2000/svg" x="0px" y="0px" width="100px" height="100px" viewBox="0 0 100 100">
<g>
	<g>
		<rect x="15.022" y="15.023" fill="#FCB51E" width="15.9" height="28.619"/>
		<rect x="53.18" y="59.541" fill="#FCB51E" width="19.081" height="22.258"/>
		<path fill="#FCB51E" d="M91.339,83.389c0,0.877-0.71,1.59-1.59,1.59c-0.879,0-1.591-0.713-1.591-1.59V13.433h-3.18v69.956
			c0,0.877-0.712,1.59-1.59,1.59s-1.59-0.713-1.59-1.59V5.483H5.482v81.085c0.006,4.389,3.563,7.945,7.95,7.949h73.136
			c4.39-0.004,7.945-3.563,7.949-7.949V13.433h-3.18L91.339,83.389L91.339,83.389z M11.843,13.433
			c-0.001-0.878,0.711-1.591,1.589-1.591h0.001h19.08c0.877,0,1.59,0.711,1.59,1.59v0.001v31.798c0,0.878-0.712,1.59-1.59,1.59l0,0
			h-19.08c-0.878,0-1.59-0.712-1.59-1.589c0-0.001,0-0.001,0-0.001V13.433z M26.152,78.619H13.434c-0.878,0-1.59-0.713-1.59-1.592
			c0-0.877,0.712-1.59,1.59-1.59h12.719c0.879,0,1.591,0.713,1.591,1.59C27.742,77.906,27.03,78.619,26.152,78.619z M26.152,72.26
			H13.434c-0.878,0-1.59-0.713-1.59-1.59c0-0.881,0.712-1.592,1.59-1.592h12.719c0.879,0,1.591,0.711,1.591,1.592
			C27.742,71.547,27.03,72.26,26.152,72.26z M26.152,65.898H13.434c-0.878,0-1.59-0.711-1.59-1.59c0-0.877,0.712-1.59,1.59-1.59
			h12.719c0.879,0,1.591,0.713,1.591,1.59C27.743,65.188,27.03,65.898,26.152,65.898z M26.152,59.541H13.434
			c-0.878,0-1.59-0.713-1.59-1.592s0.712-1.59,1.59-1.59h12.719c0.879,0,1.591,0.711,1.591,1.59
			C27.742,58.828,27.03,59.541,26.152,59.541z M45.231,78.619H32.513c-0.879,0-1.59-0.713-1.59-1.592c0-0.877,0.711-1.59,1.59-1.59
			h12.719c0.878,0,1.591,0.713,1.591,1.59C46.82,77.906,46.109,78.619,45.231,78.619z M45.231,72.26H32.513
			c-0.879,0-1.59-0.713-1.59-1.59c0-0.881,0.711-1.592,1.59-1.592h12.719c0.878,0,1.591,0.711,1.591,1.592
			C46.82,71.547,46.109,72.26,45.231,72.26z M45.231,65.898H32.513c-0.879,0-1.59-0.711-1.59-1.59c0-0.877,0.711-1.59,1.59-1.59
			h12.719c0.878,0,1.591,0.713,1.591,1.59C46.822,65.188,46.109,65.898,45.231,65.898z M45.231,59.541H32.513
			c-0.879,0-1.59-0.713-1.59-1.592s0.711-1.59,1.59-1.59h12.719c0.878,0,1.591,0.711,1.591,1.59
			C46.82,58.828,46.109,59.541,45.231,59.541z M75.44,83.389c0,0.877-0.711,1.59-1.59,1.59l0,0h-22.26
			c-0.876,0-1.59-0.713-1.59-1.59l0,0V57.949c0-0.879,0.712-1.59,1.59-1.59l0,0h22.26c0.877,0,1.59,0.711,1.59,1.59l0,0V83.389z
			 M73.851,46.821H42.052c-0.878,0-1.59-0.712-1.59-1.59s0.712-1.59,1.59-1.59h31.799c0.877,0,1.59,0.711,1.59,1.59
			C75.44,46.109,74.728,46.821,73.851,46.821z M73.851,40.461H42.052c-0.878,0-1.59-0.711-1.59-1.59c0-0.877,0.712-1.59,1.59-1.59
			h31.799c0.877,0,1.59,0.711,1.59,1.59C75.44,39.749,74.728,40.461,73.851,40.461z M73.851,34.102H42.052
			c-0.878,0-1.59-0.711-1.59-1.59s0.712-1.59,1.59-1.59h31.799c0.877,0,1.59,0.711,1.59,1.59
			C75.44,33.39,74.728,34.102,73.851,34.102z M73.851,27.742H42.052c-0.878,0-1.59-0.711-1.59-1.59c0-0.878,0.712-1.59,1.59-1.59
			h31.799c0.877,0,1.59,0.712,1.59,1.59S74.728,27.742,73.851,27.742z M73.851,21.381H42.052c-0.878,0-1.59-0.711-1.59-1.59
			c0-0.877,0.712-1.59,1.59-1.59h31.799c0.877,0,1.59,0.713,1.59,1.59C75.44,20.67,74.728,21.381,73.851,21.381z M73.851,15.023
			H42.052c-0.878,0-1.59-0.712-1.59-1.589c0-0.878,0.712-1.59,1.59-1.59h31.799c0.877,0,1.59,0.712,1.59,1.59
			C75.44,14.311,74.728,15.023,73.851,15.023z"/>
	</g>
	<g>
		<path fill="#F79523" d="M72.082,81.799V59.541H56.745c-0.641,4.947-1.911,9.697-3.744,14.164v8.094H72.082z"/>
		<path fill="#F79523" d="M91.16,13.433v69.956c0,0.879-0.71,1.59-1.59,1.59s-1.592-0.711-1.592-1.59V13.433H84.8v69.956
			c0,0.879-0.712,1.59-1.59,1.59s-1.59-0.711-1.59-1.59V5.482H32.538c2.948,2.016,5.698,4.301,8.21,6.825
			c0.288-0.288,0.685-0.466,1.124-0.466h31.799c0.877,0,1.59,0.713,1.59,1.591c0,0.877-0.713,1.589-1.59,1.589H43.263
			c0.9,1.029,1.771,2.085,2.596,3.179h27.813c0.877,0,1.59,0.712,1.59,1.591c0,0.877-0.713,1.59-1.59,1.59H48.077
			c0.676,1.037,1.318,2.097,1.928,3.18h23.667c0.877,0,1.59,0.712,1.59,1.59s-0.713,1.59-1.59,1.59H51.674
			c0.5,1.041,0.958,2.105,1.396,3.182h20.604c0.877,0,1.59,0.711,1.59,1.588c0,0.879-0.713,1.591-1.59,1.591H54.25
			c0.354,1.047,0.68,2.106,0.973,3.18h18.45c0.877,0,1.59,0.711,1.59,1.591c0,0.877-0.713,1.59-1.59,1.59H56
			c0.222,1.049,0.422,2.108,0.585,3.18h17.088c0.877,0,1.59,0.711,1.59,1.59c0,0.878-0.713,1.589-1.59,1.589H56.969
			c0.169,1.78,0.264,3.583,0.264,5.407c0,1.393-0.066,2.768-0.167,4.135h16.607c0.877,0,1.59,0.711,1.59,1.59v25.438
			c0,0.879-0.711,1.59-1.59,1.59h-22.26c-0.876,0-1.591-0.711-1.591-1.59v-3.18c-3.069,5.385-6.992,10.215-11.593,14.309h48.162
			c4.39-0.004,7.945-3.561,7.949-7.949V13.433H91.16z"/>
	</g>
</g>
</svg>
