<?xml version="1.0" encoding="utf-8"?>
<!DOCTYPE svg PUBLIC "-//W3C//DTD SVG 1.1//EN" "http://www.w3.org/Graphics/SVG/1.1/DTD/svg11.dtd" [
	<!ENTITY ns_flows "http://ns.adobe.com/Flows/1.0/">
]>
<svg version="1.1"
	 xmlns="http://www.w3.org/2000/svg" x="0px" y="0px" width="48px" height="48px" viewBox="-5.03 -4.6 48 48">
<defs>
</defs>
<path d="M37.7,8.4c-0.2-0.7-0.5-1.3-1-2c-0.6-0.8-1.399-1.5-2.3-1.9c-1-0.4-2.2-0.7-3.6-0.9l0.399-2C31.4,0.5,31,0,30.2,0
	s-1.399,0.5-1.7,1.5l-0.399,2c-2.8,0.2-5,0.9-6.7,2.3c-0.513,0.422-0.954,0.876-1.343,1.358c0.014,0.015,0.029,0.027,0.043,0.042
	c2.1,2.3,3.2,5,3.2,8.2c0,1.079-0.135,2.103-0.393,3.069c0.745,0.287,1.57,0.56,2.492,0.831l-1.5,8.799c-0.9-0.299-1.5-0.6-2-1.1
	c-0.4-0.4-0.7-1-0.9-1.5c-0.1-0.6-0.3-1.399-0.5-2.399c-0.018-0.091-0.043-0.167-0.068-0.245C20.386,22.902,20.347,22.953,20.3,23
	c-1.352,1.352-2.988,2.277-4.912,2.822c0.032,0.189,0.068,0.381,0.112,0.578c0.2,0.9,0.7,1.699,1.3,2.5c0.7,0.801,1.5,1.5,2.601,2
	c1.1,0.5,2.399,0.9,3.9,1.1l-0.9,5.1c-0.101,0.602,0,1,0.1,1.301c0.101,0.199,0.4,0.4,0.9,0.4s0.9-0.201,1.1-0.5
	c0.2-0.301,0.4-0.9,0.5-1.6L25.801,32c2-0.1,3.699-0.5,5.199-1.299c1.5-0.801,2.801-1.801,3.7-3c1-1.201,1.5-2.602,1.8-4
	c0.2-1.201,0.2-2.201-0.1-3.201c-0.3-1-0.8-1.799-1.5-2.5s-1.5-1.2-2.4-1.6c-0.899-0.3-2.1-0.7-3.699-1.2L30.2,7.4
	c1.601,0.6,2.4,1.6,2.601,3.2c0.199,1.3,0.899,2,2.199,2c0.7,0,1.301-0.3,1.9-0.7s0.9-1,1-1.6C38,9.7,37.9,9.1,37.7,8.4z
	 M24.101,13.1c-0.5-0.6-0.7-1.3-0.5-2.3c0.1-1,0.6-1.8,1.3-2.3s1.6-0.9,2.8-1.2l-1.3,7.2C25.301,14,24.5,13.5,24.101,13.1z
	 M30.801,21.701c0.6,0.6,0.8,1.399,0.6,2.5c-0.2,1.1-0.7,1.898-1.6,2.699c-0.9,0.801-2,1.301-3.4,1.5l1.5-8.3
	C29.301,20.5,30.2,21.1,30.801,21.701z"/>
<path d="M18.8,8.2c-2-2.2-4.5-3.3-7.699-3.3c-3.5,0-6.2,1.1-8.4,3.2C0.9,10,0,12.3,0,15s0.9,5,2.7,6.8c2,2.1,4.7,3.1,8.1,3.1
	c3.4,0,6.101-1,8.101-3c1.7-1.8,2.6-4,2.6-6.6C21.5,12.5,20.601,10.2,18.8,8.2z M15.7,16.1c-0.2,0.4-0.7,0.4-0.7,0.4h-1.6
	c0,0-1.3,1.2-0.3,2.2c1,0.9,0.3,1.299,0.3,1.299s-2,1.201-3.5-0.7c-1-1.3-1.4-2.8-1.4-2.8H6.601c0,0-0.4,0.2-0.7-0.3
	c-0.2-0.5,0.3-1,0.3-1L9.4,11c0,0,0.7-1.1,1.399-1.1c0.801,0,1.5,1.2,1.5,1.2l3.4,4.1C15.7,15.2,16.101,15.6,15.7,16.1z"/>
</svg>
