<?xml version="1.0" encoding="utf-8"?>
<svg version="1.1"
	 xmlns="http://www.w3.org/2000/svg" x="0px" y="0px" width="48px" height="48px" viewBox="-7.497 -4.847 48 48">
<defs>
</defs>
<path d="M2.187,36.139C1.229,35.19,0.481,34.034,0,32.748v5.559h0.049l-0.016-0.016L2.187,36.139z"/>
<path d="M33.006,0H0v26.181c1.333-3.563,4.759-6.105,8.787-6.105c5.186,0,9.389,4.203,9.389,9.389c0,2.346-0.865,4.485-2.288,6.132
	l2.698,2.695l-0.016,0.016h0.044l-0.016-0.016l3.088-3.086l3.089,3.086l-0.018,0.016h0.045l-0.014-0.016l3.086-3.086l3.088,3.086
	l-0.015,0.016h0.043l-0.017-0.016l2.031-2.029V0z M17.253,18.366H4.649v-1.904h12.604V18.366z M17.253,13.21H4.649v-1.904h12.604
	V13.21z M7.245,7.311V5.408H25.76v1.903H7.245z M28.564,24.555h-7.411v-1.903h7.411V24.555z M28.564,18.366h-7.411v-1.904h7.411
	V18.366z M28.564,13.21h-7.411v-1.904h7.411V13.21z"/>
<polygon points="14.483,27.883 10.369,27.883 10.369,23.769 7.205,23.769 7.205,27.883 3.09,27.883 3.09,31.048 7.205,31.048 
	7.205,35.162 10.369,35.162 10.369,31.048 14.483,31.048 "/>
</svg>
