<?xml version="1.0" encoding="utf-8"?>
<svg version="1.1"
	 xmlns="http://www.w3.org/2000/svg" x="0px" y="0px" width="48px" height="48px" viewBox="-3.821 -6.9 48 48">
<defs>
</defs>
<path d="M37.8,0H27.3L26,3.3h9.2c1.8,0.3,1.3,1.6,1.3,2.3l-1.6,14.8c0,0.7-0.601,1.3-1.301,1.3H16.1c-0.7,0-1.3-0.6-1.3-1.3l-1-7.6
	c0,0-0.2-1.7-1.1-2.5c-0.9-0.7-3.4-0.7-3.4-0.7H0L0.2,13h7.5c0,0,1.3-0.1,1.8,0.3c0.6,0.5,0.5,1.2,0.5,1.2l1.1,7.6
	c0,1.1,1.8,2.9,2.9,2.9h21.8c1.101,0,2.601-2.201,2.601-3.201L40.3,3.6c0.4-1.9-1.399-3.5-2.2-3.5"/>
<path d="M19.1,25.7c-2.3,0-4.2,1.9-4.2,4.1c0,2.201,1.9,4.102,4.2,4.102s4.2-1.9,4.2-4.102C23.3,27.6,21.3,25.7,19.1,25.7z"/>
<path d="M30.1,25.799c-2.3,0-4.199,1.9-4.199,4.201c0,2.299,1.899,4.199,4.199,4.199c2.301,0,4.2-1.9,4.2-4.199
	C34.3,27.7,32.4,25.799,30.1,25.799z"/>
<rect x="18.4" y="16.9" width="13.2" height="2.601"/>
<rect x="16.8" y="11.4" width="12.101" height="5.3"/>
<polygon points="16.9,11.4 16.8,11.4 16.8,12.8 "/>
</svg>
