<?xml version="1.0" encoding="utf-8"?>
<!-- Generator: Adobe Illustrator 15.0.0, SVG Export Plug-In  -->
<!DOCTYPE svg PUBLIC "-//W3C//DTD SVG 1.1//EN" "http://www.w3.org/Graphics/SVG/1.1/DTD/svg11.dtd" [
	<!ENTITY ns_flows "http://ns.adobe.com/Flows/1.0/">
]>
<svg version="1.1"
	 xmlns="http://www.w3.org/2000/svg" x="0px" y="0px" width="48px" height="48px" viewBox="-7.25 -4.6 48 48">
<defs>
</defs>
<path d="M0,0v38.8l3.2-3.1l3,3l3.1-3l3.1,3.1h0.2l3.1-3.1l3.1,3.1H18.9l3.1-3.1l3.1,3.1l3.2-3.1l3.101,3.1l2.1-2V0H0z M17.5,24.9
	H4.7V23h12.8V24.9z M17.5,18.6H4.7v-1.9h12.8V18.6z M17.5,13.4H4.7v-1.9h12.8V13.4z M7.3,7.4V5.5h18.8v1.9H7.3z M28.9,24.9h-7.5V23
	h7.5V24.9z M28.9,18.6h-7.5v-1.9h7.5V18.6z M28.9,13.4h-7.5v-1.9h7.5V13.4z"/>
</svg>
