<?xml version="1.0" encoding="utf-8"?>
<!-- Generator: Adobe Illustrator 15.0.0, SVG Export Plug-In  -->
<!DOCTYPE svg PUBLIC "-//W3C//DTD SVG 1.1//EN" "http://www.w3.org/Graphics/SVG/1.1/DTD/svg11.dtd" [
	<!ENTITY ns_flows "http://ns.adobe.com/Flows/1.0/">
]>
<svg version="1.1"
	 xmlns="http://www.w3.org/2000/svg" x="0px" y="0px" width="48px" height="48px" viewBox="-3.309 -9.42 48 48"
	 xml:space="preserve">
<defs>
</defs>
<polygon points="11.793,27.453 18.264,27.22 4.111,20.105 "/>
<path d="M22.004,22.811c-2.933,0-7.919-0.876-7.919-0.876l0.031,2.489c0,0,4.972,0.865,7.888,0.865c2.82,0,5.45-0.298,7.664-0.813
	c-0.015-0.052-2.055-2.084-2.251-2.055C25.749,22.673,23.922,22.811,22.004,22.811z"/>
<polyline points="23.984,3.894 30.727,9.008 38.424,5.426 31.585,1.06 "/>
<polygon points="11.793,27.453 4.111,20.105 4.111,9.953 0,9.953 8.153,2.597 16.322,9.953 11.793,9.953 "/>
<polygon points="38.424,5.388 30.715,8.951 31.486,19.167 27.619,19.912 35.951,26.011 41.383,16.425 38.672,17.479 "/>
<path d="M29.246,17.169c-2.063,0.424-4.441,0.666-6.979,0.666c-3.125,0-8.359-0.988-8.359-0.988l-0.002,2.467
	c0,0,5.207,1.002,8.361,1.002c1.145,0,3.322-0.143,3.322-0.143l-1.752-1.704c0,0,1.275-0.052,2.497-0.175
	c1.222-0.125,2.93-0.482,2.93-0.482L29.246,17.169z"/>
<path d="M29.105,12.233c-2.029,0.406-4.357,0.638-6.838,0.638c-2.688,0-8.273-1.011-8.273-1.011l-0.073,2.446
	c0,0,5.583,1.046,8.347,1.046c2.508,0,4.86-0.237,6.908-0.651L29.105,12.233z"/>
<path d="M20.435,3.313l7.756-2.839C26.385,0.172,24.383,0,22.268,0c-4.6,0-8.679,0.796-11.288,2.027l8.071,8.227
	c1.035,0.087,2.109,0.138,3.217,0.138c2.575,0,4.984-0.252,7.07-0.687L20.435,3.313z"/>
</svg>
