<?xml version="1.0" encoding="utf-8"?>
<!-- Generator: Adobe Illustrator 15.0.0, SVG Export Plug-In  -->
<!DOCTYPE svg PUBLIC "-//W3C//DTD SVG 1.1//EN" "http://www.w3.org/Graphics/SVG/1.1/DTD/svg11.dtd" [
	<!ENTITY ns_flows "http://ns.adobe.com/Flows/1.0/">
]>
<svg version="1.1"
	 xmlns="http://www.w3.org/2000/svg" x="0px" y="0px" width="48px" height="48px" viewBox="0 0 48 48" xml:space="preserve">
<path d="M31.122,24.729l9.628,9.452V3.497H7.25v29.236h23.872V24.729z M36.15,16.897h-7.5v-1.9h7.5V16.897z M14.55,8.997h18.8v1.9
	h-18.8V8.997z M24.75,28.396h-12.8v-1.9h12.8V28.396z M24.75,22.097h-12.8v-1.899h12.8V22.097z M24.75,16.897h-12.8v-1.9h12.8
	V16.897z M28.65,20.198h7.5v1.899h-7.5V20.198z"/>
<polygon points="39.708,37.693 33.434,30.883 33.488,34.988 9.451,34.988 9.451,40.34 33.559,40.34 33.613,44.504 "/>
</svg>
