<?xml version="1.0" encoding="utf-8"?>
<!-- Generator: Adobe Illustrator 15.0.0, SVG Export Plug-In  -->
<!DOCTYPE svg PUBLIC "-//W3C//DTD SVG 1.1//EN" "http://www.w3.org/Graphics/SVG/1.1/DTD/svg11.dtd" [
	<!ENTITY ns_flows "http://ns.adobe.com/Flows/1.0/">
]>
<svg version="1.1"
	 xmlns="http://www.w3.org/2000/svg" x="0px" y="0px" width="48px" height="48px" viewBox="-5.457 -2.555 48 48">
<defs>
</defs>
<path d="M22.352,31.908l0.729,3.404l-2.292,0.49l-0.708-3.313c-2.126,0.442-4.204,0.388-6.24-0.174l-0.929-4.349
	c0.711,0.367,1.714,0.623,3.009,0.787c1.292,0.16,2.415,0.174,3.37,0.034l-1.223-5.714c-2.64-0.386-4.525-1.018-5.643-1.885
	c-1.125-0.871-1.847-2.072-2.175-3.6c-0.352-1.642-0.07-3.166,0.844-4.57c0.917-1.404,2.309-2.406,4.183-3.002l-0.625-2.92
	l2.293-0.489l0.61,2.857c2.233-0.367,3.956-0.365,5.172,0.009l0.906,4.237c-1.652-0.577-3.417-0.769-5.294-0.575l1.272,5.949
	c2.471,0.336,4.312,0.928,5.533,1.778c1.222,0.846,1.992,2.025,2.314,3.532c0.372,1.733,0.115,3.256-0.768,4.557
	C25.811,30.254,24.364,31.237,22.352,31.908z M17.123,18.665l-1.063-4.976c-1.397,0.572-1.963,1.485-1.694,2.742
	C14.597,17.51,15.517,18.253,17.123,18.665z M20.549,23.479l1.02,4.758c1.445-0.553,2.031-1.46,1.763-2.729
	C23.114,24.485,22.186,23.811,20.549,23.479z"/>
<path d="M33.46,9.021C29.237,1.65,20.253-1.904,11.958,1.026C3.345,4.065-1.475,13.012,0.403,21.714l5.128-1.812
	c-0.93-5.869,2.417-11.748,8.22-13.797c5.66-2,11.778,0.314,14.823,5.204l-3.779,1.771l8.908,3.781l2.802-9.267L33.46,9.021z"/>
<path d="M3.627,33.87c4.223,7.371,13.208,10.925,21.502,7.994c8.614-3.038,13.432-11.983,11.555-20.687l-5.127,1.812
	c0.93,5.869-2.416,11.748-8.221,13.796c-5.661,2.001-11.777-0.313-14.822-5.205l3.778-1.77l-8.906-3.783l-2.805,9.271L3.627,33.87z"
	/>
</svg>
