<?xml version="1.0" encoding="utf-8"?>
<!DOCTYPE svg PUBLIC "-//W3C//DTD SVG 1.1//EN" "http://www.w3.org/Graphics/SVG/1.1/DTD/svg11.dtd" [
	<!ENTITY ns_flows "http://ns.adobe.com/Flows/1.0/">
]>
<svg version="1.1"
	 xmlns="http://www.w3.org/2000/svg" x="0px" y="0px" width="48px" height="48px" viewBox="-5.352 -3.601 48 48">
<defs>
</defs>
<path d="M36.238,19.504c-0.676-1.514-1.719-2.665-3.133-3.45c-1.412-0.787-3.172-1.231-5.276-1.333
	c-2.106-0.102-4.655,0.137-7.646,0.72c-1.641,0.322-3.035,0.579-4.228,0.783v0c-0.289,0.049-0.565,0.096-0.833,0.14
	c-0.247,0.04-0.486,0.078-0.709,0.112c-0.067,0.01-0.144,0.022-0.208,0.032c-0.779,0.117-1.49,0.167-2.142,0.16l0.212,0.418
	l1.624,3.473l-8.177-3.941l2.178-8.534l1.342,3.002c0.191-0.206,0.401-0.402,0.626-0.591l0,0c0.284-0.239,0.604-0.461,0.941-0.674
	c0.079-0.05,0.158-0.099,0.239-0.146c0.352-0.208,0.721-0.408,1.128-0.589c0.179-0.079,0.345-0.136,0.518-0.205l0.041,0.091
	c0.02-0.008,0.04-0.016,0.06-0.024l-0.04-0.092c1.29-0.508,2.429-0.744,3.397-0.67c0.378,0.029,0.749,0.091,1.116,0.169
	l-0.017-0.037c0.799,0.146,1.574,0.404,2.323,0.78c1.247,0.61,2.293,1.014,3.14,1.219c0.843,0.205,1.717,0.105,2.613-0.294
	c1.237-0.552,2.06-1.28,2.46-2.187c0.404-0.907,0.396-1.834-0.032-2.785c-0.385-0.866-1.099-1.614-2.132-2.243
	c-1.034-0.627-2.324-1.046-3.861-1.256c-1.541-0.209-3.311-0.134-5.313,0.227c-0.624,0.113-1.266,0.269-1.915,0.444l-0.56-1.255
	c-0.459-1.033-2.161-1.276-3.798-0.547L9.136,0.884c-1.638,0.73-2.592,2.159-2.131,3.19l0.477,1.07
	C5.79,6.128,4.376,7.226,3.255,8.443c-1.646,1.786-2.665,3.651-3.054,5.59c-0.389,1.943-0.215,3.74,0.524,5.396
	c0.208,0.465,0.442,0.896,0.704,1.293c0.785,1.19,1.813,2.072,3.088,2.647c1.699,0.766,3.668,1.117,5.903,1.054
	c2.238-0.063,5.019-0.414,8.344-1.05c0.094-0.02,0.18-0.033,0.272-0.051l-0.001-0.002c2.688-0.521,4.737-0.726,6.148-0.616
	l-1.354-3.045l7.805,4.084l-2.532,8.716l-1.5-3.526c0,0-0.084,0.099-0.236,0.256c-0.178,0.201-0.396,0.383-0.604,0.569
	c-0.217,0.188-0.478,0.396-0.771,0.61c-0.235,0.166-0.46,0.337-0.724,0.489c-0.002,0.001-0.003,0.002-0.005,0.003
	c-0.236,0.145-0.484,0.288-0.753,0.426c-0.129,0.064-0.254,0.126-0.39,0.183c-0.455,0.203-0.891,0.367-1.319,0.521l-0.01-0.023
	c-1.584,0.557-2.997,0.78-4.225,0.648c-1.574-0.17-3.138-0.795-4.691-1.866c-0.107-0.077-0.212-0.143-0.317-0.214
	c-0.001,0-0.001-0.001-0.002-0.002c-0.002-0.002-0.005-0.003-0.008-0.005c-0.323-0.215-0.637-0.401-0.941-0.554
	c-0.023-0.013-0.047-0.022-0.07-0.033c-0.293-0.144-0.58-0.265-0.854-0.348c-0.004-0.002-0.009-0.005-0.014-0.006
	c-0.681-0.205-1.481-0.102-2.398,0.309c-1.046,0.465-1.767,1.174-2.162,2.125c-0.396,0.948-0.39,1.881,0.016,2.791
	c0,0,0,0.001,0.001,0.001c0,0.001,0,0.001,0,0.001c0.613,1.371,1.755,2.5,3.432,3.389c1.67,0.884,3.824,1.282,6.462,1.193
	c0.007,0,0.013,0,0.021,0l0,0c0,0,0,0,0.001,0c0.001,0,0.001,0,0.002,0c0.619-0.021,1.253-0.082,1.9-0.176c0,0,0,0,0.001,0
	c1.09-0.157,2.218-0.414,3.386-0.775l0.618,1.388c0.46,1.03,2.16,1.274,3.798,0.544l1.041-0.461c1.637-0.73,2.593-2.16,2.13-3.193
	l-0.622-1.396c1.66-0.98,3.076-2.032,4.237-3.157c1.923-1.859,3.107-3.868,3.559-6.016C37.539,24.001,37.257,21.787,36.238,19.504z"
	/>
</svg>
