<?xml version="1.0" encoding="utf-8"?>
<!-- Generator: Adobe Illustrator 15.0.0, SVG Export Plug-In  -->
<!DOCTYPE svg PUBLIC "-//W3C//DTD SVG 1.1//EN" "http://www.w3.org/Graphics/SVG/1.1/DTD/svg11.dtd" [
	<!ENTITY ns_flows "http://ns.adobe.com/Flows/1.0/">
]>
<svg version="1.1"
	 xmlns="http://www.w3.org/2000/svg" xmlns:xlink="http://www.w3.org/1999/xlink" xmlns:a="http://ns.adobe.com/AdobeSVGViewerExtensions/3.0/"
	 x="0px" y="0px" width="48px" height="48px" viewBox="-6.193 -4.6 48 48"
	 xml:space="preserve">
<defs>
</defs>
<path d="M2.113,0v21.527c1.704-1.324,3.839-2.12,6.164-2.12c5.557,0,10.063,4.505,10.063,10.063c0,1.941-0.552,3.752-1.506,5.287
	c0.017,0.065,4.079,4.043,4.079,4.043h0.101l3.1-3.1l3.1,3.1l3.2-3.1l3.101,3.1l2.1-2V0H2.113z M19.613,18.601h-12.8v-1.899h12.8
	V18.601z M19.613,13.4h-12.8v-1.9h12.8V13.4z M9.413,7.4V5.5h18.8v1.9H9.413z M30.938,24.144h-7.5v-1.9h7.5V24.144z M31.014,18.601
	h-7.5v-1.899h7.5V18.601z M31.014,13.4h-7.5v-1.9h7.5V13.4z"/>
<path d="M8.634,22.048c-3.854,0-6.979,3.124-6.979,6.979v2.134L0,31.164l3.048,2.797l2.795-2.797H4.222l0.015-1.701
	c-0.108-3.061,1.701-5.156,4.397-5.142c3.59,0.017,4.886,3.108,4.886,5.331l-0.025,1.576l2.191,0.033l-0.072-2.234
	C15.613,25.172,12.49,22.048,8.634,22.048z"/>
</svg>
