<?xml version="1.0" encoding="utf-8"?>
<svg version="1.1"
	 xmlns="http://www.w3.org/2000/svg" x="0px" y="0px" width="48px" height="48px" viewBox="-4.509 -5.058 48 48">
<defs>
</defs>
<path d="M20.595,27.637l-0.533-0.381v5.478c1.368-0.303,2.055-1.181,2.055-2.638C22.116,29.153,21.608,28.333,20.595,27.637z"/>
<path d="M17.305,19.481c-0.373,0.47-0.559,1.032-0.559,1.694c0,0.854,0.498,1.646,1.496,2.375l0.501,0.356V18.67
	C18.157,18.74,17.677,19.012,17.305,19.481z"/>
<path d="M13.84,9.667V7.014c0-3.016,2.444-5.46,5.459-5.46c3.016,0,5.46,2.444,5.46,5.46v2.653h1.365V6.825
	C26.125,3.056,23.069,0,19.3,0s-6.825,3.056-6.825,6.825v2.842H13.84z"/>
<path d="M33.109,32.141c-3.983,0-7.213-3.229-7.213-7.213c0-3.97,3.208-7.188,7.172-7.211L31,10.667h-4.875v3.093
	c0.344,0.246,0.57,0.647,0.57,1.103c0,0.751-0.609,1.36-1.36,1.36s-1.359-0.609-1.359-1.36c0-0.544,0.322-1.011,0.784-1.228v-2.968
	H13.84v2.936c0.5,0.2,0.854,0.688,0.854,1.26c0,0.751-0.609,1.36-1.36,1.36s-1.36-0.609-1.36-1.36c0-0.423,0.197-0.795,0.5-1.045
	v-3.15H8L0,37.885l38.935-0.174l-1.965-6.697C35.853,31.724,34.531,32.141,33.109,32.141z M23.114,32.965
	c-0.762,0.844-1.778,1.354-3.054,1.526v1.461H18.6v-0.001V34.49c-1.283,0-2.736-0.313-4.36-0.938v-2.009
	c1.687,0.816,3.141,1.226,4.36,1.226v-6.381l-0.867-0.569c-2.1-1.41-3.147-2.935-3.147-4.573c0-1.179,0.383-2.171,1.151-2.976
	s1.77-1.258,3.006-1.359v-1.475h1.461v1.475c1.172,0.071,2.371,0.326,3.6,0.769v1.916c-1.148-0.569-2.35-0.922-3.6-1.057v6.295
	l0.795,0.477c2.17,1.273,3.256,2.783,3.256,4.524C24.255,31.078,23.874,32.121,23.114,32.965z"/>
<path d="M33.109,19.054c-3.244,0-5.873,2.63-5.873,5.874s2.629,5.873,5.873,5.873s5.873-2.629,5.873-5.873
	S36.354,19.054,33.109,19.054z M35.732,29.058l-2.811-2.813l-2.813,2.813l-1.408-1.408l2.811-2.813l-2.811-2.811l1.408-1.41
	l2.813,2.813l2.811-2.813l1.406,1.41l-2.809,2.811l2.811,2.813L35.732,29.058z"/>
</svg>
