<?xml version="1.0" encoding="utf-8"?>
<!-- Generator: Adobe Illustrator 15.0.0, SVG Export Plug-In  -->
<!DOCTYPE svg PUBLIC "-//W3C//DTD SVG 1.1//EN" "http://www.w3.org/Graphics/SVG/1.1/DTD/svg11.dtd" [
	<!ENTITY ns_flows "http://ns.adobe.com/Flows/1.0/">
]>
<svg version="1.1"
	 xmlns="http://www.w3.org/2000/svg" xmlns:xlink="http://www.w3.org/1999/xlink" xmlns:a="http://ns.adobe.com/AdobeSVGViewerExtensions/3.0/"
	 x="0px" y="0px" width="48px" height="48px" viewBox="-7.001 -3.184 48 48"
	 xml:space="preserve">
<defs>
</defs>
<path d="M24.054,37.428l-6.18-12.215c-0.064-0.117-0.158-0.205-0.247-0.295c4.728-3.083,6.372-9.327,3.629-14.37
	C18.37,5.242,11.731,3.28,6.425,6.167c-5.306,2.885-7.267,9.526-4.38,14.832c2.612,4.803,8.301,6.851,13.289,5.058
	c0.025,0.156,0.063,0.313,0.144,0.459l6.18,12.217c0.362,0.664,1.188,0.906,1.85,0.548C24.168,38.919,24.413,38.09,24.054,37.428z
	 M5.501,19.117c-1.846-3.395-0.59-7.646,2.804-9.491c3.396-1.849,7.646-0.593,9.493,2.804c1.844,3.395,0.592,7.645-2.803,9.491
	C11.6,23.77,7.348,22.514,5.501,19.117z"/>
<path d="M24.011,39.865c-0.994,0.506-2.211,0.111-2.717-0.881l-3.553-6.953c-0.507-0.995-0.114-2.211,0.88-2.719l0,0
	c0.991-0.506,2.209-0.111,2.717,0.881l3.551,6.955C25.398,38.141,25.003,39.357,24.011,39.865L24.011,39.865z"/>
<path d="M23.091,21.35c-0.595,1.182-1.359,2.262-2.27,3.203h6.319V21.35H23.091z"/>
<path d="M21.708,7.473c0.758,0.967,1.383,2.042,1.847,3.202h3.586V7.473H21.708z"/>
<path d="M24.435,14.412c0.029,0.36,0.055,0.722,0.055,1.09c0,0.721-0.074,1.423-0.187,2.113h2.838v-3.203H24.435z"/>
<path d="M31.723,0H2.276C1.02,0,0,1.258,0,2.812V29.05c0,1.554,1.02,2.813,2.276,2.813h5.371l2.126,9.77l6.939-7.568l-1.514-2.948
	l-3.839,4.599l-1.147-6.673l-5.296,0.019c-1.012,0-1.835-1.018-1.835-2.27V5.624c0-1.252,0.823-2.268,1.835-2.268h24.169
	c1.011,0,1.833,1.016,1.833,2.268v21.168h-0.001c0,1.252-0.821,2.269-1.833,2.269h-6.583l1.439,2.803h7.782
	c1.256,0,2.275-1.26,2.275-2.813V2.812C33.998,1.258,32.979,0,31.723,0z"/>
</svg>
