<?xml version="1.0" encoding="utf-8"?>
<!DOCTYPE svg PUBLIC "-//W3C//DTD SVG 1.1//EN" "http://www.w3.org/Graphics/SVG/1.1/DTD/svg11.dtd" [
	<!ENTITY ns_flows "http://ns.adobe.com/Flows/1.0/">
]>
<svg version="1.1"
	 xmlns="http://www.w3.org/2000/svg" x="0px" y="0px" width="48px" height="48px" viewBox="-4.25 -2.7 48 48">
<defs>
</defs>
<rect x="13.5" y="10" width="11.8" height="2.6"/>
<rect x="13.5" y="17.5" width="11.8" height="2.6"/>
<polygon points="6.9,0 6.9,22 10.1,22 10.1,3.2 28.9,3.2 28.9,22 32.1,22 32.1,0 "/>
<path d="M30.3,10.9v4.2l5.604,2.989L19.9,26.6L3.98,18.035L8.4,15.6v-4.3L0,16v26.6h39.5V16L30.3,10.9z M3.5,39.5V21.864
	l13.765,7.165L10.9,34.4l9-4l9.6,5.3l-7.033-6.649L36.3,21.779V39.5H3.5z"/>
</svg>
