<?xml version="1.0" encoding="utf-8"?>
<!-- Generator: Adobe Illustrator 16.0.0, SVG Export Plug-In . SVG Version: 6.00 Build 0)  -->
<!DOCTYPE svg PUBLIC "-//W3C//DTD SVG 1.1//EN" "http://www.w3.org/Graphics/SVG/1.1/DTD/svg11.dtd">
<svg version="1.1" xmlns="http://www.w3.org/2000/svg" xmlns:xlink="http://www.w3.org/1999/xlink" x="0px" y="0px"
	 width="48px" height="48px" viewBox="0 0 48 48" xml:space="preserve">
<rect x="12.266" y="13.714" width="13.971" height="3.129"/>
<rect x="12.266" y="22.593" width="13.971" height="3.13"/>
<path d="M16.407,43.867v-1.484H8.18V5.618H30.57v20.266h3.768V1.801H4.412v44.398h13.039C16.854,45.531,16.407,44.703,16.407,43.867
	z"/>
<path d="M31.533,41.201c-0.725,0-1.313,0.589-1.313,1.314c0,0.727,0.586,1.314,1.313,1.314c0.729,0,1.316-0.588,1.316-1.314
	C32.85,41.79,32.264,41.201,31.533,41.201z"/>
<path d="M40.488,27.697H21.978c-1.714,0-3.1,1.387-3.1,3.1v11.886c0,1.711,2.245,3.407,3.1,3.101h18.786
	c1.291,0.088,2.824-1.39,2.824-3.101V30.797C43.588,29.084,42.199,27.697,40.488,27.697z M37.643,44.623H25.229
	c-1.65,0-2.347-1.182-1.55-2.627l6.307-11.42c0.797-1.443,2.102-1.443,2.9,0l6.305,11.42C39.99,43.441,39.291,44.623,37.643,44.623z
	"/>
<path d="M31.533,31.676c-2.412,0,0,8.541,0,8.541S33.947,31.676,31.533,31.676z"/>
<rect x="12.266" y="31.47" width="3.523" height="3.131"/>
</svg>
