<?xml version="1.0" encoding="utf-8"?>
<!-- Generator: Adobe Illustrator 15.0.0, SVG Export Plug-In  -->
<!DOCTYPE svg PUBLIC "-//W3C//DTD SVG 1.1//EN" "http://www.w3.org/Graphics/SVG/1.1/DTD/svg11.dtd" [
	<!ENTITY ns_flows "http://ns.adobe.com/Flows/1.0/">
]>
<svg version="1.1"
	 xmlns="http://www.w3.org/2000/svg" x="0px" y="0px" width="48px" height="48px" viewBox="-9.521 -4 48 48">
<defs>
</defs>
<polygon points="21.765,40 28.958,32.486 21.793,32.486 "/>
<path d="M0.015,21v19h19.75V21H0.015z M6.797,34.698v1.649H5.798v-1.587c-0.92-0.015-1.856-0.301-2.411-0.698l0.381-1.062
	c0.555,0.363,1.38,0.683,2.268,0.683c1.127,0,1.889-0.65,1.889-1.556c0-0.872-0.619-1.412-1.793-1.887
	c-1.618-0.638-2.617-1.382-2.617-2.761c0-1.318,0.936-2.316,2.379-2.557v-1.586h1v1.54c0.936,0.031,1.586,0.285,2.063,0.554
	L8.558,26.48c-0.333-0.189-0.983-0.557-1.999-0.557c-1.222,0-1.681,0.729-1.681,1.381c0,0.811,0.587,1.221,1.967,1.81
	c1.634,0.665,2.459,1.475,2.459,2.887C9.304,33.27,8.431,34.443,6.797,34.698z M13.733,34.698v1.649h-0.999v-1.587
	c-0.921-0.015-1.856-0.301-2.412-0.698l0.381-1.062c0.556,0.363,1.381,0.683,2.27,0.683c1.126,0,1.887-0.65,1.887-1.556
	c0-0.872-0.619-1.412-1.793-1.887c-1.618-0.638-2.617-1.382-2.617-2.761c0-1.318,0.938-2.316,2.38-2.557v-1.586h0.998v1.54
	c0.938,0.031,1.588,0.285,2.064,0.554l-0.397,1.049c-0.334-0.189-0.982-0.557-1.999-0.557c-1.221,0-1.682,0.729-1.682,1.381
	c0,0.811,0.588,1.221,1.968,1.81c1.634,0.665,2.458,1.475,2.458,2.887C16.241,33.27,15.368,34.443,13.733,34.698z"/>
<path d="M0,0v19.333h19.75V0H0z M15.598,15.952H3.715v-2h11.883V15.952z M15.598,10.952H3.715v-2h11.883V10.952z M15.598,5.952
	H3.715v-2h11.883V5.952z"/>
</svg>
