<?xml version="1.0" encoding="utf-8"?>
<svg version="1.1"
	 xmlns="http://www.w3.org/2000/svg" x="0px" y="0px" width="48px" height="48px" viewBox="-0.624 -8.182 48 48">
<defs>
</defs>
<path d="M20.481,15.063l0.365-0.149L20.043,3.462L21.55,0l1.375,3.571l-1.093,11.294l0.423,0.13
	c1.123,0.346,1.878,1.359,1.878,2.523c0,0.567-0.186,1.115-0.535,1.584l-0.289,0.389l9.501,8.964l1.353,4.3l-4.586-1.609
	l-7.123-11.13l-0.372,0.087c-0.219,0.049-0.416,0.072-0.603,0.072c-1.464,0-2.655-1.191-2.655-2.658
	C18.823,16.438,19.475,15.475,20.481,15.063z"/>
<path d="M20.965,21.229c-0.16,0.021-0.313,0.032-0.465,0.032c-2.063,0-3.741-1.679-3.741-3.743c0-1.394,0.75-2.638,1.971-3.29
	l-0.77-10.956l0.028-0.062l1.194-2.742C14.239,0.573,10.2,4.342,9.68,9.172C4.326,9.221,0,13.571,0,18.939
	c0,5.396,4.375,9.77,9.771,9.77c3.908,0,10.886,0,15.982,0L20.965,21.229z"/>
<path d="M40.289,13.377c-0.409,0-0.804,0.048-1.195,0.12c-1.739-2.589-4.686-4.298-8.035-4.325c-0.429-4.002-3.275-7.277-7.05-8.345
	l0.998,2.595l-0.006,0.063l-1.029,10.632c1.357,0.597,2.224,1.912,2.224,3.403c0,0.638-0.167,1.263-0.482,1.825l9.025,8.519
	l0.027,0.085c1.181-0.497,2.243-1.219,3.133-2.112c0.741,0.294,1.544,0.468,2.389,0.468c3.571,0,6.465-2.895,6.465-6.462
	C46.753,16.271,43.859,13.377,40.289,13.377z"/>
</svg>
