<?xml version="1.0" encoding="utf-8"?>
<svg version="1.1"
	 xmlns="http://www.w3.org/2000/svg" x="0px" y="0px" width="28px" height="28px" viewBox="-1.3 -1.85 28 28">
<defs>
</defs>
<path d="M18,7.49c0.494,0,0.976,0.051,1.446,0.132L23.5,2.4L20.6,0l-6.963,8.704C14.914,7.938,16.402,7.49,18,7.49z"
	/>
<path d="M9.49,16c0-0.922,0.151-1.81,0.423-2.642L7,17l-3.2-5.7L0,14.9l6.5,9.4l3.74-4.818
	C9.762,18.417,9.49,17.242,9.49,16z"/>
<path d="M18,8.6c-4.087,0-7.4,3.313-7.4,7.399c0,4.088,3.313,7.4,7.4,7.4s7.4-3.313,7.4-7.4
	C25.4,11.913,22.087,8.6,18,8.6z M17.9,21.9c-0.773,0-1.4-0.627-1.4-1.4s0.627-1.4,1.4-1.4s1.399,0.627,1.399,1.4
	S18.674,21.9,17.9,21.9z M17.8,18.4c0-0.1-3-7.3,0-7.4C21.1,10.9,18.1,17.8,17.8,18.4z"/>
</svg>
