<?xml version="1.0" encoding="utf-8"?>
<!DOCTYPE svg PUBLIC "-//W3C//DTD SVG 1.1//EN" "http://www.w3.org/Graphics/SVG/1.1/DTD/svg11.dtd" [
	<!ENTITY ns_flows "http://ns.adobe.com/Flows/1.0/">
]>
<svg version="1.1"
	 xmlns="http://www.w3.org/2000/svg" x="0px" y="0px" width="48px" height="48px" viewBox="-2.553 -3.804 48 48">
<defs>
</defs>
<circle cx="5.537" cy="10.531" r="1.5"/>
<circle cx="10.537" cy="10.531" r="1.5"/>
<circle cx="15.537" cy="10.531" r="1.5"/>
<ellipse cx="24.504" cy="18.225" rx="7.482" ry="7.869"/>
<path d="M28.348,29.098c-1.159,0.197-2.461,0.311-3.845,0.311c-4.761,0-8.622-1.314-8.622-2.932c0-0.115,0.024-0.226,0.062-0.338
	c-0.137,0.09-0.262,0.195-0.396,0.289l0.899-4.142c-0.331-0.761-0.566-1.574-0.697-2.427l-0.948-0.003l-0.782,4.562l-3.799-4.55
	H3.36c-0.692,0-1.256-0.694-1.256-1.551V3.845c0-0.856,0.565-1.55,1.256-1.55h15.064c0.692,0,1.254,0.694,1.254,1.55v6.57
	c0.647-0.451,1.354-0.812,2.104-1.077V1.922C21.783,0.86,21.088,0,20.229,0H1.556C0.696,0,0,0.86,0,1.922v17.939
	c0,1.062,0.696,1.922,1.556,1.922H8.98l5.221,5.695c-2.796,2.438-4.738,5.829-5.268,9.688h19.256
	c-0.599-1.166-0.942-2.484-0.942-3.886C27.247,31.76,27.649,30.335,28.348,29.098z"/>
<path d="M35.782,26.169c-3.929,0-7.112,3.185-7.112,7.112s3.184,7.111,7.112,7.111c3.928,0,7.112-3.184,7.112-7.111
	S39.71,26.169,35.782,26.169z M40.012,34.934h-2.896v2.895c0,0.719-0.583,1.3-1.302,1.301c-0.717,0-1.299-0.584-1.299-1.301v-2.895
	H31.62c-0.72,0-1.302-0.582-1.302-1.301s0.582-1.301,1.302-1.301h2.894v-2.895c0-0.72,0.582-1.303,1.299-1.302
	c0.72,0,1.301,0.581,1.301,1.302v2.895h2.896c0.72,0,1.302,0.582,1.304,1.301C41.311,34.352,40.729,34.934,40.012,34.934z"/>
</svg>
