<?xml version="1.0" encoding="utf-8"?>
<!-- Generator: Adobe Illustrator 15.0.0, SVG Export Plug-In  -->
<!DOCTYPE svg PUBLIC "-//W3C//DTD SVG 1.1//EN" "http://www.w3.org/Graphics/SVG/1.1/DTD/svg11.dtd" [
	<!ENTITY ns_flows "http://ns.adobe.com/Flows/1.0/">
]>
<svg version="1.1"
	 xmlns="http://www.w3.org/2000/svg" x="0px" y="0px" width="48px" height="48px" viewBox="-2.117 -5.482 48 48"
	 xml:space="preserve">
<defs>
</defs>
<path d="M42.123,0H22.408c-0.907-0.001-1.642,0.908-1.642,2.029v4.955H1.644C0.736,6.984,0,7.892,0,9.013v18.94
	c0,1.121,0.736,2.029,1.644,2.029h3.877l1.534,7.053l6.464-7.053h7.839c0.906,0,1.643-0.908,1.643-2.029v-4.955h7.248l6.465,7.055
	l1.533-7.055h3.877c0.906,0,1.643-0.908,1.643-2.029V2.029C43.766,0.908,43.031,0,42.123,0z M19.452,27.961h-7.244l-4.01,4.805
	L7.37,27.949l-3.823,0.013c-0.729,0-1.324-0.733-1.324-1.638v-15.28c0-0.903,0.595-1.637,1.324-1.637h15.904
	c0.697,0,1.265,0.67,1.315,1.518v10.044c0,0.041,0.008,0.079,0.01,0.119v5.234h0.001C20.777,27.227,20.184,27.961,19.452,27.961z
	 M41.541,19.338c0,0.904-0.594,1.637-1.324,1.637l-3.824-0.012l-0.826,4.816l-4.011-4.806h-7.243c-0.69,0-1.253-0.656-1.313-1.493
	V9.013c0-0.049-0.009-0.095-0.012-0.144V4.059c0-0.903,0.594-1.637,1.324-1.637h15.904c0.73,0,1.324,0.733,1.324,1.637V19.338z"/>
<circle cx="26.647" cy="11.188" r="1.594"/>
<circle cx="31.961" cy="11.188" r="1.594"/>
<circle cx="37.273" cy="11.188" r="1.594"/>
<path d="M18.141,14.722c0,0.616-0.499,1.114-1.114,1.114H6.071c-0.616,0-1.114-0.499-1.114-1.114l0,0
	c0-0.615,0.499-1.114,1.114-1.114h10.955C17.643,13.609,18.141,14.107,18.141,14.722L18.141,14.722z"/>
<path d="M18.141,20.035c0,0.613-0.499,1.113-1.114,1.113H6.071c-0.616,0-1.114-0.5-1.114-1.113l0,0c0-0.616,0.499-1.115,1.114-1.115
	h10.955C17.643,18.92,18.141,19.419,18.141,20.035L18.141,20.035z"/>
</svg>
