<?xml version="1.0" encoding="utf-8"?>
<!DOCTYPE svg PUBLIC "-//W3C//DTD SVG 1.1//EN" "http://www.w3.org/Graphics/SVG/1.1/DTD/svg11.dtd" [
	<!ENTITY ns_flows "http://ns.adobe.com/Flows/1.0/">
]>
<svg version="1.1"
	 xmlns="http://www.w3.org/2000/svg" x="0px" y="0px" width="48px" height="48px" viewBox="-2.662 -3.784 48 48">
<defs>
</defs>
<ellipse cx="24.504" cy="18.225" rx="7.482" ry="7.869"/>
<path d="M28.348,29.098c-1.159,0.197-2.461,0.311-3.845,0.311c-4.761,0-8.622-1.314-8.622-2.932c0-0.115,0.023-0.227,0.063-0.338
	c-0.138,0.09-0.262,0.195-0.396,0.289l0.899-4.143c-0.331-0.76-0.566-1.574-0.697-2.426l-0.948-0.003l-0.782,4.562l-3.799-4.55H3.36
	c-0.692,0-1.256-0.693-1.256-1.551V3.845c0-0.856,0.565-1.55,1.256-1.55h15.064c0.692,0,1.255,0.693,1.255,1.55v6.57
	c0.646-0.45,1.354-0.812,2.104-1.077V1.922C21.783,0.86,21.088,0,20.229,0H1.556C0.696,0,0,0.86,0,1.922v17.94
	c0,1.062,0.696,1.921,1.556,1.921H8.98l5.221,5.695c-2.796,2.438-4.738,5.83-5.268,9.688h19.256
	c-0.599-1.166-0.942-2.484-0.942-3.885C27.247,31.76,27.649,30.334,28.348,29.098z"/>
<path d="M35.563,26.207c-3.928,0-7.111,3.186-7.111,7.113s3.184,7.111,7.111,7.111s7.113-3.184,7.113-7.111
	S39.49,26.207,35.563,26.207z M40.545,37.371l-0.928,0.932l-4.055-4.055l-4.053,4.055l-0.932-0.932l4.055-4.053l-4.055-4.053
	l0.932-0.93l4.053,4.053l4.055-4.053l0.93,0.93l-4.053,4.053L40.545,37.371z"/>
</svg>
