<?xml version="1.0" encoding="utf-8"?>
<!-- Generator: Adobe Illustrator 15.0.0, SVG Export Plug-In  -->
<!DOCTYPE svg PUBLIC "-//W3C//DTD SVG 1.1//EN" "http://www.w3.org/Graphics/SVG/1.1/DTD/svg11.dtd" [
	<!ENTITY ns_flows "http://ns.adobe.com/Flows/1.0/">
]>
<svg version="1.1"
	 xmlns="http://www.w3.org/2000/svg" xmlns:xlink="http://www.w3.org/1999/xlink" xmlns:a="http://ns.adobe.com/AdobeSVGViewerExtensions/3.0/"
	 x="0px" y="0px" width="48px" height="48px" viewBox="-8.222 -2.443 48 48"
	 xml:space="preserve">
<defs>
</defs>
<path d="M0,2.874v26.813c0,1.586,1.042,2.873,2.326,2.873h11.097l9.153,9.985l2.168-9.985h5.49c1.282,0,2.323-1.287,2.323-2.873
	V2.874C32.557,1.287,31.516,0,30.234,0H2.325C1.042,0,0,1.286,0,2.874z M3.145,5.748c0-1.279,0.843-2.316,1.877-2.316h22.514
	c1.034,0,1.875,1.038,1.875,2.316v21.629c0,1.281-0.841,2.316-1.875,2.316l-5.414-0.017l-1.167,6.819l-5.68-6.804H5.023
	c-1.035,0-1.877-1.036-1.877-2.315L3.145,5.748L3.145,5.748z"/>
<polygon points="17.059,7.463 17.059,25.161 9.558,19.635 4.749,19.635 4.749,13.18 9.558,13.18 "/>
<path d="M26.949,15.745c0,0.565-0.412,1.023-0.921,1.023h-5.566c-0.51,0-0.922-0.458-0.922-1.023v-0.1
	c0-0.566,0.412-1.024,0.922-1.024h5.566c0.509,0,0.921,0.458,0.921,1.024V15.745z"/>
<path d="M26.588,8.187c0.176,0.532-0.072,1.12-0.551,1.313l-5.229,2.116c-0.479,0.194-1.008-0.081-1.184-0.612l-0.029-0.093
	c-0.176-0.532,0.07-1.119,0.55-1.313l5.231-2.116c0.479-0.194,1.008,0.082,1.182,0.613L26.588,8.187z"/>
<path d="M26.588,23.202c0.176-0.531-0.072-1.119-0.551-1.312l-5.229-2.116c-0.479-0.195-1.008,0.08-1.184,0.612l-0.029,0.093
	c-0.176,0.531,0.07,1.118,0.55,1.313l5.231,2.117c0.479,0.192,1.008-0.082,1.182-0.61L26.588,23.202z"/>
</svg>
