<?xml version="1.0" encoding="utf-8"?>
<!-- Generator: Adobe Illustrator 15.0.0, SVG Export Plug-In  -->
<!DOCTYPE svg PUBLIC "-//W3C//DTD SVG 1.1//EN" "http://www.w3.org/Graphics/SVG/1.1/DTD/svg11.dtd" [
	<!ENTITY ns_flows "http://ns.adobe.com/Flows/1.0/">
]>
<svg version="1.1"
	 xmlns="http://www.w3.org/2000/svg" xmlns:xlink="http://www.w3.org/1999/xlink" xmlns:a="http://ns.adobe.com/AdobeSVGViewerExtensions/3.0/"
	 x="0px" y="0px" width="48px" height="48px" viewBox="-7.985 -2.635 48 48"
	 xml:space="preserve">
<defs>
</defs>
<path d="M8.365,31.256l-0.456-0.911L0,42.431l7.2-2.101l2,2.4l3.11-8.95C10.713,33.619,9.201,32.718,8.365,31.256z"/>
<path d="M17.993,33.438l2.607,5.993l1.8-4.2l5.001,0.6l-3.329-4.348C22.775,33.471,20.195,34.246,17.993,33.438z"/>
<path d="M31.401,16.53l-0.601-0.8l0.4-0.8c1.2-2.1,0.5-4.9-1.601-6.1l-0.8-0.4v-0.9c0-2.5-2-4.5-4.5-4.5h-0.9L23,2.23
	c-1.2-2.1-4-2.9-6.101-1.6l-0.7,0.4l-0.8-0.4c-2.1-1.2-4.9-0.5-6.1,1.6l-0.4,0.8H8c-2.4,0-4.4,2-4.4,4.5v0.9l-0.8,0.4
	c-2.1,1.2-2.9,4-1.6,6.1l0.4,0.8l-0.4,0.8c-1.2,2.1-0.5,4.9,1.6,6.1l0.8,0.4v0.899c0,2.501,2,4.501,4.5,4.501H9l0.4,0.8
	c1.2,2.1,4,2.899,6.1,1.6l0.8-0.399l0.8,0.399c2.101,1.2,4.9,0.5,6.101-1.6l0.399-0.8h0.9c2.5,0,4.5-2,4.5-4.501V23.03l0.8-0.4
	C31.901,21.43,32.701,18.63,31.401,16.53z M16.63,25.276c-5.146,0-9.317-4.172-9.317-9.317s4.171-9.316,9.317-9.316
	c5.146,0,9.316,4.171,9.316,9.316S21.776,25.276,16.63,25.276z"/>
</svg>
