<?xml version="1.0" encoding="utf-8"?>
<!DOCTYPE svg PUBLIC "-//W3C//DTD SVG 1.1//EN" "http://www.w3.org/Graphics/SVG/1.1/DTD/svg11.dtd" [
	<!ENTITY ns_flows "http://ns.adobe.com/Flows/1.0/">
]>
<svg version="1.1"
	 xmlns="http://www.w3.org/2000/svg" x="0px" y="0px" width="48px" height="48px" viewBox="-3.658 -3.973 48 48">
<defs>
</defs>
<path d="M26.992,16.313V4.706C26.992,2.107,22.799,0,20.2,0c-2.599,0-6.793,2.107-6.793,4.706v11.603
	c-0.434,0.144-0.751,0.54-0.751,1.021c0,0.602,0.488,1.09,1.09,1.09s1.09-0.488,1.09-1.09c0-0.374-0.2-0.688-0.487-0.884V4.834
	c0-2.079,3.771-3.764,5.851-3.764c2.079,0,5.85,1.685,5.85,3.764v11.438c-0.382,0.169-0.649,0.549-0.649,0.993
	c0,0.602,0.488,1.09,1.091,1.09c0.602,0,1.09-0.488,1.09-1.09C27.581,16.847,27.338,16.495,26.992,16.313z"/>
<path d="M32.338,11.891h-4.389v4.276c0.294,0.353,0.479,0.802,0.479,1.298c0,1.129-0.916,2.044-2.046,2.044
	c-1.129,0-2.042-0.915-2.042-2.044c0-0.496,0.186-0.945,0.479-1.299v-4.275H15.43v4.276c0.294,0.353,0.479,0.802,0.479,1.298
	c0,1.129-0.915,2.044-2.045,2.044c-1.128,0-2.042-0.915-2.042-2.044c0-0.496,0.185-0.945,0.479-1.299v-4.275H8.345L0,40.055h40.684
	L32.338,11.891z M20,38.634c-5.519,0-9.992-4.474-9.992-9.991c0-5.52,4.474-9.993,9.992-9.993s9.992,4.473,9.992,9.993
	C29.992,34.16,25.519,38.634,20,38.634z"/>
<path d="M24.876,21.72l-0.92,0.914c-0.399-0.258-0.819-0.473-1.252-0.645l0.231-1.289c0.078-0.437-0.211-0.853-0.645-0.933
	l-1.338-0.24c-0.436-0.078-0.852,0.211-0.93,0.646l-0.238,1.321c-0.46,0.018-0.919,0.079-1.37,0.184l-0.566-1.228
	c-0.184-0.402-0.66-0.578-1.063-0.392l-1.231,0.567c-0.402,0.186-0.577,0.662-0.393,1.064l0.571,1.236
	c-0.263,0.197-0.52,0.406-0.761,0.646c-0.089,0.088-0.167,0.185-0.251,0.275l-1.18-0.687c-0.383-0.224-0.874-0.095-1.096,0.289
	l-0.683,1.173c-0.223,0.382-0.093,0.872,0.289,1.096l1.168,0.682c-0.147,0.439-0.25,0.889-0.311,1.345l-1.341,0.112
	c-0.442,0.037-0.769,0.424-0.732,0.865l0.113,1.352c0.036,0.441,0.424,0.769,0.866,0.732l1.309-0.109
	c0.186,0.644,0.466,1.267,0.836,1.849l-0.921,0.914c-0.314,0.312-0.317,0.817-0.005,1.133l0.956,0.964
	c0.312,0.313,0.819,0.315,1.133,0.004l0.896-0.889c0.404,0.271,0.827,0.499,1.265,0.682l-0.221,1.228
	c-0.078,0.437,0.21,0.853,0.646,0.931l1.335,0.241c0.436,0.079,0.853-0.21,0.931-0.646l0.219-1.207
	c0.484-0.01,0.967-0.068,1.444-0.176l0.512,1.105c0.186,0.4,0.66,0.576,1.063,0.393l1.229-0.568c0.4-0.188,0.578-0.662,0.394-1.064
	l-0.506-1.096c0.276-0.206,0.549-0.426,0.803-0.678c0.101-0.1,0.188-0.205,0.281-0.311l1.043,0.61
	c0.383,0.223,0.873,0.092,1.099-0.29l0.682-1.172c0.223-0.383,0.094-0.875-0.289-1.098L26.9,30.945
	c0.149-0.465,0.258-0.94,0.313-1.424l1.216-0.102c0.44-0.036,0.77-0.425,0.731-0.865l-0.113-1.353
	c-0.034-0.44-0.424-0.769-0.864-0.732l-1.238,0.104c-0.201-0.65-0.494-1.279-0.883-1.865l0.896-0.89
	c0.313-0.313,0.315-0.819,0.006-1.133l-0.957-0.965C25.698,21.409,25.189,21.408,24.876,21.72 M23.145,31.813
	c-1.75,1.735-4.579,1.725-6.314-0.024c-1.737-1.752-1.726-4.579,0.025-6.315c1.752-1.738,4.579-1.727,6.316,0.025
	C24.904,27.246,24.896,30.074,23.145,31.813"/>
</svg>
