<?xml version="1.0" encoding="utf-8"?>
<!-- Generator: Adobe Illustrator 15.0.0, SVG Export Plug-In  -->
<!DOCTYPE svg PUBLIC "-//W3C//DTD SVG 1.1//EN" "http://www.w3.org/Graphics/SVG/1.1/DTD/svg11.dtd" [
	<!ENTITY ns_flows "http://ns.adobe.com/Flows/1.0/">
]>
<svg version="1.1"
	 xmlns="http://www.w3.org/2000/svg" x="0px" y="0px" width="48px" height="48px" viewBox="-6.341 -2.378 48 48">
<defs>
</defs>
<path d="M34.729,35.879H0.589C0.265,35.879,0,36.145,0,36.469s0.265,0.59,0.589,0.59h34.14c0.326,0,0.59-0.266,0.59-0.59
	S35.055,35.879,34.729,35.879"/>
<path d="M34.085,34.575c0,0-4.086-3.16-5.707-6.76c-1.972-4.371-1.14-7.346-1.14-12.74c0-3.799-4.753-7.302-7.562-9.05
	c0.809-0.612,1.338-1.573,1.338-2.667C21.017,1.502,19.513,0,17.66,0c-0.019,0-0.036,0.003-0.054,0.005
	C17.589,0.003,17.571,0,17.553,0c-1.853,0-3.357,1.502-3.356,3.358c0,1.094,0.529,2.055,1.338,2.667
	c-2.81,1.748-7.563,5.251-7.563,9.05c0,5.394,0.833,8.369-1.138,12.74c-1.622,3.6-5.707,6.76-5.707,6.76h16.432v-0.014h0.095v0.014
	H34.085z M16.064,3.357c0-0.869,0.685-1.571,1.543-1.608c0.858,0.038,1.542,0.74,1.542,1.608c0,0.797-0.576,1.454-1.333,1.588
	c-0.089-0.05-0.147-0.079-0.153-0.083v-0.02c0,0-0.024,0.012-0.058,0.03c-0.034-0.018-0.058-0.03-0.058-0.03v0.02
	c-0.005,0.004-0.063,0.033-0.152,0.083C16.641,4.811,16.064,4.154,16.064,3.357z"/>
<path d="M18.278,43.243c2.68,0,4.851-2.17,4.851-4.848H13.43C13.43,41.073,15.602,43.243,18.278,43.243"/>
</svg>
