<?xml version="1.0" encoding="utf-8"?>
<!-- Generator: Adobe Illustrator 15.0.0, SVG Export Plug-In  -->
<!DOCTYPE svg PUBLIC "-//W3C//DTD SVG 1.1//EN" "http://www.w3.org/Graphics/SVG/1.1/DTD/svg11.dtd" [
	<!ENTITY ns_flows "http://ns.adobe.com/Flows/1.0/">
]>
<svg version="1.1"
	 xmlns="http://www.w3.org/2000/svg" xmlns:xlink="http://www.w3.org/1999/xlink" xmlns:a="http://ns.adobe.com/AdobeSVGViewerExtensions/3.0/"
	 x="0px" y="0px" width="48px" height="48px" viewBox="-2 -0.891 48 48"
	 xml:space="preserve">
<defs>
</defs>
<path d="M5.736,14.456c-0.819,1.499-1.43,3.127-1.809,4.844h7.247c1.569-4.437,5.787-7.621,10.76-7.621
	c4.972,0,9.193,3.185,10.762,7.621h7.246c-0.264-1.181-0.633-2.319-1.108-3.404l2.748-1.923c0.927-0.65,1.152-1.928,0.504-2.855
	l-1.993-2.845c-0.651-0.929-1.928-1.153-2.856-0.504L34.424,9.74c-0.867-0.798-1.807-1.513-2.818-2.135l1.187-3.249
	c0.388-1.065-0.162-2.242-1.228-2.63L28.3,0.54c-1.063-0.387-2.239,0.163-2.627,1.226l-1.19,3.276
	c-0.836-0.117-1.681-0.197-2.547-0.197c-0.324,0-0.638,0.031-0.958,0.048L20.073,1.52c-0.293-1.094-1.416-1.743-2.512-1.449
	l-3.352,0.898c-1.093,0.292-1.742,1.418-1.45,2.512l0.896,3.342c-1.06,0.534-2.057,1.162-2.987,1.882L8.03,6.494
	C7.161,5.764,5.869,5.879,5.139,6.747l-2.23,2.66c-0.728,0.866-0.614,2.159,0.253,2.889L5.736,14.456z"/>
<path d="M38.275,31.871c0.762-1.452,1.328-3.017,1.687-4.663h-7.374c-1.65,4.28-5.793,7.322-10.654,7.322
	c-4.861,0-9.002-3.042-10.651-7.322h-7.37c0.239,1.105,0.563,2.18,0.988,3.203l-2.61,1.826c-0.928,0.651-1.153,1.931-0.504,2.856
	l1.992,2.844c0.649,0.931,1.928,1.154,2.855,0.506l2.569-1.802c0.901,0.86,1.887,1.62,2.944,2.286l-1.064,2.928
	c-0.385,1.063,0.163,2.24,1.226,2.628l3.262,1.188c1.065,0.387,2.241-0.162,2.63-1.226l1.055-2.905
	c0.877,0.129,1.768,0.219,2.68,0.219c0.36,0,0.71-0.035,1.064-0.056l0.801,2.987c0.293,1.095,1.42,1.74,2.514,1.448l3.353-0.899
	c1.093-0.295,1.743-1.418,1.449-2.512l-0.802-2.997c1.117-0.57,2.168-1.245,3.138-2.021l2.394,2.006
	c0.867,0.729,2.159,0.615,2.891-0.254l2.229-2.658c0.729-0.865,0.612-2.158-0.253-2.889L38.275,31.871z"/>
<path d="M40.371,20.946H25.01c-0.756-1.155-2.057-1.923-3.539-1.924c-1.484,0-2.784,0.768-3.539,1.924H2.307
	C1.033,20.946,0,21.979,0,23.254c0,1.274,1.033,2.307,2.307,2.304h15.625c0.755,1.155,2.055,1.923,3.539,1.923
	c1.482,0,2.783-0.767,3.539-1.923h15.359c1.277,0,2.309-1.032,2.309-2.304C42.678,21.979,41.646,20.946,40.371,20.946z"/>
</svg>
