<?xml version="1.0" encoding="utf-8"?>
<!-- Generator: Adobe Illustrator 15.0.0, SVG Export Plug-In  -->
<!DOCTYPE svg PUBLIC "-//W3C//DTD SVG 1.1//EN" "http://www.w3.org/Graphics/SVG/1.1/DTD/svg11.dtd" [
	<!ENTITY ns_flows "http://ns.adobe.com/Flows/1.0/">
]>
<svg version="1.1"
	 xmlns="http://www.w3.org/2000/svg" x="0px" y="0px" width="48px" height="48px" viewBox="-1.634 -8.998 48 48"
	 xml:space="preserve">
<defs>
</defs>
<polygon points="18.945,0.52 18.578,4.065 36.993,4.065 23.343,15.165 22.892,16.148 25.189,18.852 41.074,5.937 41.074,25.864 
	16.323,25.864 15.956,29.41 44.732,29.41 44.732,0.52 "/>
<polygon points="3.658,10.549 3.658,5.217 6.795,7.768 7.372,0.52 0,0.52 0,10.463 "/>
<polygon points="3.658,25.863 3.658,20.017 0,20.418 0,29.41 5.073,29.41 5.355,25.864 3.658,25.864 "/>
<polygon points="1.325,15.101 0,13.228 0,17.049 "/>
<polygon points="23.7,19.525 20.86,16.184 23.061,11.388 16.166,13.238 17.535,0 9.011,0 8.057,11.998 0.378,11.817 2.788,15.224 
	0.023,19.289 7.542,18.463 6.624,30.004 14.466,29.663 15.555,19.142 "/>
</svg>
