<?xml version="1.0" encoding="utf-8"?>
<!-- Generator: Adobe Illustrator 15.0.0, SVG Export Plug-In  -->
<!DOCTYPE svg PUBLIC "-//W3C//DTD SVG 1.1//EN" "http://www.w3.org/Graphics/SVG/1.1/DTD/svg11.dtd" [
	<!ENTITY ns_flows "http://ns.adobe.com/Flows/1.0/">
]>
<svg version="1.1"
	 xmlns="http://www.w3.org/2000/svg" x="0px" y="0px" width="48px" height="48px" viewBox="-0.7 -3.05 48 48"
	 xml:space="preserve">
<defs>
</defs>
<path d="M3.447,31h39.948c0.485-0.021,0.955,0.036,1.404,0.148V0h-43v31.282C2.323,31.113,2.871,31,3.447,31z M36.6,20.3l4.601-2
	l-4.601-2V15l6,2.7v1.2l-6,2.701V20.3z M34.7,13.1H36l-2.7,9H32L34.7,13.1z M27.399,14.5h1.5v5.4H31.5v1.3h-4.101V14.5z M19.4,14.4
	h2l0.6,2.2c0.2,0.8,0.4,1.6,0.6,2.4c0.2-0.8,0.4-1.6,0.6-2.4l0.7-2.2h2l0.4,6.6h-1.5l-0.1-2.4c0-0.8-0.101-1.8-0.101-2.7
	c-0.2,0.8-0.5,1.8-0.7,2.6L23.1,21h-1.2l-0.7-2.6c-0.2-0.8-0.4-1.7-0.6-2.6c0,0.9-0.1,1.9-0.1,2.7L20.4,21H19L19.4,14.4z M12.8,14.4
	h1.7l0.6,1.2c0.2,0.4,0.3,0.7,0.5,1.1c0.2-0.4,0.3-0.7,0.5-1.1l0.6-1.2h1.7l-1.9,3.2l2,3.4h-1.9v0.1L16,19.9
	c-0.2-0.5-0.4-0.8-0.6-1.2c-0.1,0.4-0.3,0.7-0.5,1.2l-0.5,1.2h-1.7l1.9-3.4L12.8,14.4z M3.7,17l6.6-3v1.5l-5,2.2l5,2.2v1.5l-6.6-3.1
	V17z"/>
<path d="M39.899,33.1h-33c-2.4,0-4.4,1.9-4.4,4.4c0,2.4,1.9,4.4,4.4,4.4h33c2.4,0,4.4-1.9,4.4-4.4S42.3,33,39.899,33.1z M39.5,40.5
	H7.4c-1.6,0-3-1.3-3-2.9c0-1.6,1.3-2.899,3-2.899h32.1c1.6,0,3,1.3,3,2.899C42.5,39.2,41.2,40.5,39.5,40.5z"/>
</svg>
