<?xml version="1.0" encoding="utf-8"?>

<svg version="1.1"
	 xmlns="http://www.w3.org/2000/svg" xmlns:xlink="http://www.w3.org/1999/xlink"
	 x="0px" y="0px" width="28px" height="28px" viewBox="0 0 28 28">
<defs>
</defs>
<rect opacity="0" fill="#FFFFFF" width="28" height="28"/>
<path fill="#39B54A" d="M23.796,10.963h-6.76v-6.76c0-1.678-1.358-3.037-3.037-3.037s-3.038,1.359-3.038,3.037v6.76H4.203
	c-1.678,0-3.038,1.359-3.038,3.037s1.36,3.037,3.038,3.037h6.759v6.76c0,1.678,1.359,3.037,3.038,3.037s3.037-1.359,3.037-3.037
	v-6.76h6.76c1.678,0,3.037-1.359,3.037-3.037S25.474,10.963,23.796,10.963z"/>
<path fill="#FFFFFF" d="M14,1.167c1.678,0,3.037,1.359,3.037,3.037v6.76h6.76c1.678,0,3.037,1.359,3.037,3.037
	s-1.359,3.037-3.037,3.037h-6.76v6.76c0,1.678-1.358,3.037-3.037,3.037s-3.038-1.359-3.038-3.037v-6.76H4.203
	c-1.678,0-3.038-1.359-3.038-3.037s1.36-3.037,3.038-3.037h6.759v-6.76C10.962,2.526,12.322,1.167,14,1.167 M14,0.167
	c-2.227,0-4.038,1.811-4.038,4.037v5.76H4.203c-2.227,0-4.038,1.811-4.038,4.037c0,2.226,1.811,4.037,4.038,4.037h5.759v5.76
	c0,2.226,1.811,4.037,4.038,4.037c2.226,0,4.037-1.812,4.037-4.037v-5.76h5.76c2.226,0,4.037-1.812,4.037-4.037
	c0-2.227-1.812-4.037-4.037-4.037h-5.76v-5.76C18.037,1.977,16.226,0.167,14,0.167L14,0.167z"/>
<path fill="#86C87D" d="M23.796,10.963h-6.76v-6.76c0-1.678-1.358-3.037-3.037-3.037c-0.038,0-0.073,0.01-0.111,0.011v25.646
	c0.038,0,0.073,0.011,0.111,0.011c1.678,0,3.037-1.359,3.037-3.037v-6.76h6.76c1.678,0,3.037-1.359,3.037-3.037
	S25.474,10.963,23.796,10.963z"/>
</svg>
