<?xml version="1.0" encoding="utf-8"?>
<svg version="1.1"
	 xmlns="http://www.w3.org/2000/svg" xmlns:xlink="http://www.w3.org/1999/xlink"
	 x="0px" y="0px" width="48px" height="48px" viewBox="-2.115 -6.999 48 48">
<defs>
</defs>
<path fill="#C8691C" d="M43.745,25.692c0,1.575-1.275,2.854-2.854,2.854H4.732c-1.576,0-2.855-1.278-2.855-2.854V2.854
	C1.877,1.277,3.156,0,4.732,0h36.159c1.578,0,2.854,1.277,2.854,2.854V25.692z"/>
<path fill="#F79523" d="M14.273,10.485c-1.576,0-2.854-1.277-2.854-2.855V1.922H2.854C1.278,1.922,0,3.199,0,4.776v22.837
	c0,1.576,1.278,2.854,2.854,2.854h38.062c1.576,0,2.854-1.277,2.854-2.854V10.485H14.273z"/>
<path fill="#52CAF5" d="M29.377,20.731h-4.604v-4.603c0-1.593-1.295-2.889-2.889-2.889c-1.592,0-2.887,1.296-2.887,2.889v4.603
	h-4.605c-1.592,0-2.887,1.297-2.887,2.89c0,1.594,1.295,2.889,2.887,2.889h4.605v4.604c0,1.592,1.295,2.888,2.887,2.888
	c1.594,0,2.889-1.296,2.889-2.888V26.51h4.604c1.592,0,2.887-1.295,2.887-2.889C32.264,22.028,30.969,20.731,29.377,20.731z"/>
<path fill="#3588A6" d="M29.377,20.731h-4.604v-4.603c0-1.593-1.295-2.889-2.889-2.889c-0.097,0-0.188,0.02-0.282,0.029v20.704
	c0.094,0.011,0.186,0.029,0.282,0.029c1.594,0,2.889-1.296,2.889-2.888V26.51h4.604c1.592,0,2.887-1.295,2.887-2.889
	C32.264,22.028,30.969,20.731,29.377,20.731z"/>
<path fill="none" stroke="#FFFFFF" stroke-miterlimit="10" d="M29.377,20.731h-4.604v-4.603c0-1.593-1.295-2.889-2.889-2.889
	c-1.592,0-2.887,1.296-2.887,2.889v4.603h-4.605c-1.592,0-2.887,1.297-2.887,2.89c0,1.594,1.295,2.889,2.887,2.889h4.605v4.604
	c0,1.592,1.295,2.888,2.887,2.888c1.594,0,2.889-1.296,2.889-2.888V26.51h4.604c1.592,0,2.887-1.295,2.887-2.889
	C32.264,22.028,30.969,20.731,29.377,20.731z"/>
</svg>
