<?xml version="1.0" encoding="utf-8"?>
<svg version="1.1"
	 xmlns="http://www.w3.org/2000/svg" xmlns:xlink="http://www.w3.org/1999/xlink"
	 x="0px" y="0px" width="48px" height="48px" viewBox="-1.453 -5.578 48 48">
<defs>
</defs>
<path fill="#C8691C" d="M44.868,30.735c0,1.615-1.31,2.925-2.929,2.925H4.854c-1.616,0-2.928-1.31-2.928-2.925V7.311
	c0-1.617,1.312-2.927,2.928-2.927h37.085c1.619,0,2.929,1.31,2.929,2.927V30.735z"/>
<path fill="#F79523" d="M14.64,15.138c-1.617,0-2.928-1.311-2.928-2.928V6.355H2.928C1.311,6.355,0,7.665,0,9.281v23.425
	c0,1.615,1.311,2.926,2.928,2.926h39.039c1.615,0,2.927-1.311,2.927-2.926V15.138H14.64z"/>
<polygon fill="#52CAF5" points="32.055,17.413 32.055,0 12.269,0 12.269,17.413 3.563,17.413 22.556,35.617 41.557,17.413 "/>
<polygon fill="#3588A6" points="32.055,17.413 32.055,0 22.175,0 22.556,35.617 41.557,17.413 "/>
<path fill="#F1F2F2" d="M30.131,18.379H24.83v-5.302c0-1.315-1.067-2.382-2.384-2.382c-1.316,0-2.38,1.067-2.38,2.382v5.302h-5.303
	c-1.316,0-2.382,1.067-2.382,2.385c0,1.316,1.065,2.383,2.382,2.383h5.303v5.301c0,1.315,1.064,2.383,2.38,2.383
	c1.317,0,2.384-1.067,2.384-2.383v-5.301h5.301c1.316,0,2.382-1.066,2.382-2.383C32.513,19.446,31.447,18.379,30.131,18.379"/>
<path fill="#BCBEC0" d="M30.131,18.379H24.83v-5.302c0-1.315-1.067-2.382-2.384-2.382c-0.027,0-0.056,0.009-0.085,0.009v20.12
	c0.029,0,0.058,0.007,0.085,0.007c1.317,0,2.384-1.067,2.384-2.383v-5.301h5.301c1.316,0,2.382-1.066,2.382-2.383
	C32.513,19.446,31.447,18.379,30.131,18.379"/>
</svg>
