<?xml version="1.0" encoding="utf-8"?>
<svg version="1.1"
	 xmlns="http://www.w3.org/2000/svg" xmlns:xlink="http://www.w3.org/1999/xlink"
	 x="0px" y="0px" width="48px" height="48px" viewBox="-5 -5.4 48 48">
<defs>
</defs>
<path fill="#52CAF5" d="M4.6,0c2.8,8.2-3.4,13.1-2.8,16.9c0.7,3.8,4.6,3.5,4.6,3.5l-0.3,2.2c0,0-5.3-1-6-5.3
	c-0.8-4.6,5.4-8.9,2.6-17.1L4.6,0z"/>
<path fill="#F79523" d="M22.4,5.9c-8,0.4-14.3,7-14.3,15.1S14.4,35.6,22.4,36V5.9z"/>
<path fill="#F79523" d="M10.4,15.3c-3.2,0.2-5.7,2.8-5.7,6c0,3.2,2.5,5.9,5.7,6V15.3z"/>
<path fill="#F79523" d="M38.7,14.2c0,1.3-1,2.3-2.3,2.3H18.3c-1.3,0-2.3-1-2.3-2.3l0,0c0-1.3,1-2.3,2.3-2.3h18.1
	C37.6,11.9,38.7,12.9,38.7,14.2L38.7,14.2z"/>
<path fill="#F79523" d="M38.7,27c0,1.3-1,2.3-2.3,2.3H18.3c-1.3,0-2.3-1-2.3-2.3l0,0c0-1.3,1-2.3,2.3-2.3h18.1
	C37.6,24.7,38.7,25.7,38.7,27L38.7,27z"/>
<path fill="#C8691C" d="M36.4,11.9h-5.3v4.5h5.3c1.2,0,2.3-1,2.3-2.3C38.7,12.9,37.6,11.9,36.4,11.9z"/>
<path fill="#C8691C" d="M36.4,24.7h-5.3v4.5h5.3c1.2,0,2.3-1,2.3-2.3S37.6,24.7,36.4,24.7z"/>
<path fill="#FCB51E" d="M24.9,35c0,0.9-0.7,1.5-1.5,1.5l0,0c-0.8,0-1.5-0.7-1.5-1.5V6.1c0-0.9,0.7-1.5,1.5-1.5l0,0
	c0.8,0,1.5,0.7,1.5,1.5V35z"/>
</svg>
