<?xml version="1.0" encoding="utf-8"?>
<svg version="1.1"
	 xmlns="http://www.w3.org/2000/svg" xmlns:xlink="http://www.w3.org/1999/xlink"
	 x="0px" y="0px" width="48px" height="48px" viewBox="-11.9 -5.2 48 48">
<defs>
</defs>
<path fill="#F79523" d="M25.1,7.3c0-1.6-1.1-2.9-2.4-2.9h-3.1V2.8c0-1.6-1.3-2.8-2.8-2.8H8.3C6.7,0,5.5,1.3,5.5,2.8v1.6H2.4
	C1.1,4.4,0,5.7,0,7.3c0,1,0.4,1.9,1.1,2.4v24.5c0,1.5,1.2,2.7,2.6,2.8v1.5h17.4V37c1.5-0.1,2.6-1.3,2.6-2.8V9.8
	C24.6,9.3,25.1,8.4,25.1,7.3z M6.9,4c0-1.2,0.1-2.3,1.3-2.3h8.7c1.2,0,1.3,1,1.3,2.3v0.4H6.9V4z"/>
<path fill="#C8691C" d="M22.7,4.4h-3.1V2.8c0-1.6-1.3-2.8-2.8-2.8H8.3C6.7,0,5.5,1.3,5.5,2.8v1.6H4.4l15.2,34.1h1.6V37
	c1.5-0.1,2.6-1.3,2.6-2.8V9.8c0.8-0.5,1.3-1.4,1.3-2.5C25.1,5.7,24,4.4,22.7,4.4z M18.2,4.4H6.9V4c0-1.2,0.1-2.3,1.3-2.3h8.7
	c1.2,0,1.3,1,1.3,2.3V4.4z"/>
<path fill="#FFFFFF" d="M14.4,31.3c0,1-0.8,1.8-1.9,1.8l0,0c-1,0-1.9-0.8-1.9-1.8V15.1c0-1,0.8-1.8,1.9-1.8l0,0c1,0,1.9,0.8,1.9,1.8
	V31.3z"/>
<path fill="#FFFFFF" d="M7.8,31.3c0,1-0.8,1.8-1.9,1.8l0,0c-1,0-1.9-0.8-1.9-1.8V15.1c0-1,0.8-1.8,1.9-1.8l0,0c1,0,1.9,0.8,1.9,1.8
	V31.3z"/>
<path fill="#FFFFFF" d="M21,31.3c0,1-0.8,1.8-1.9,1.8l0,0c-1,0-1.9-0.8-1.9-1.8V15.1c0-1,0.8-1.8,1.9-1.8l0,0c1,0,1.9,0.8,1.9,1.8
	V31.3z"/>
</svg>
