<?xml version="1.0" encoding="utf-8"?>
<svg version="1.1"
	 xmlns="http://www.w3.org/2000/svg" xmlns:xlink="http://www.w3.org/1999/xlink"
	 x="0px" y="0px" width="28px" height="28px" viewBox="-2.2 -3 28 28">
<defs>
</defs>
<path fill="#43A4C7" d="M17.6,1.1l-5.7,5.7L6.2,1.1c-1.4-1.4-3.7-1.4-5.1,0c-1.4,1.4-1.4,3.7,0,5.1l5.7,5.7l-5.7,5.7
	c-1.4,1.4-1.4,3.7,0,5.1c1.4,1.4,3.7,1.4,5.1,0l5.7-5.7l5.7,5.7c1.4,1.4,3.7,1.4,5.1,0c1.4-1.4,1.4-3.7,0-5.1L17,11.9l5.7-5.7
	c1.4-1.4,1.4-3.7,0-5.1C21.3-0.4,19-0.4,17.6,1.1z"/>
<path fill="#52CAF5" d="M17.6,1.1l-5.7,5.7L6.2,1.1c-1.4-1.4-3.7-1.4-5.1,0C1,1.1,1,1.1,1,1.2l21.6,21.6c0,0,0.1-0.1,0.1-0.1
	c1.4-1.4,1.4-3.7,0-5.1L17,11.9l5.7-5.7c1.4-1.4,1.4-3.7,0-5.1C21.3-0.4,19-0.4,17.6,1.1z"/>
</svg>
