<?xml version="1.0" encoding="utf-8"?>
<svg version="1.1"
	 xmlns="http://www.w3.org/2000/svg" xmlns:xlink="http://www.w3.org/1999/xlink"
	 x="0px" y="0px" width="28px" height="28px" viewBox="-3 -1.4 28 28">
<defs>
</defs>
<path fill="#52CAF5" d="M17.5,1L2.4,16.9l4.8,4.6L22.3,5.6c1.3-1.3,1.2-3.4-0.1-4.7C20.9-0.3,18.8-0.3,17.5,1z"/>
<polygon fill="#F37029" points="0,24.2 2.5,16.9 7.1,21.3 "/>
<path fill="#3588A6" d="M4.8,19.1l2.4,2.3L22.3,5.6c1.3-1.3,1.2-3.4-0.1-4.7C22,0.8,4.8,19.1,4.8,19.1z"/>
<polygon fill="#C54A20" points="0,24.2 4.9,19.2 7.1,21.3 "/>
<polygon fill="#939598" points="0,24.2 1.3,20.5 3.6,22.7 "/>
<polygon fill="#414042" points="0,24.2 2.5,21.6 3.6,22.7 "/>
<path fill="#BCBEC0" d="M16.4,2.2c0,0,0.6,0.2,2.6,1.8c1.4,1.2,2.2,2.7,2.2,2.7l-1.3,1.4c0,0-0.7-1.2-2.2-2.6
	c-1.5-1.4-2.4-2.1-2.4-2.1L16.4,2.2z"/>
<path fill="#636464" d="M19,4c1.4,1.2,2.2,2.7,2.2,2.7l-1.3,1.4c0,0-0.7-1.2-2.2-2.6C17.6,5.6,18.8,4.1,19,4z"/>
<path fill="#F37029" d="M2.4,16.9c0,0,0.9-0.6,1.3-0.2c0.4,0.4,0.1,1.1,0.1,1.1s0.7-0.5,1.2,0.2c0.3,0.4-0.3,1.2-0.3,1.2L2.4,16.9z"
	/>
<path fill="#C54A20" d="M4.8,19.2c0,0,0.9-0.6,1.3-0.2c0.4,0.4,0.1,1.2,0.1,1.2s0.7-0.5,1.2,0.2c0.3,0.4-0.3,1.2-0.3,1.2L4.8,19.2z"
	/>
</svg>
