<?xml version="1.0" encoding="utf-8"?>
<svg version="1.1"
	 xmlns="http://www.w3.org/2000/svg" xmlns:xlink="http://www.w3.org/1999/xlink"
	 x="0px" y="0px" width="48px" height="48px" viewBox="-6.271 -2.866 48 48">
<defs>
</defs>
<rect x="-0.942" y="16.346" transform="matrix(0.6428 -0.766 0.766 0.6428 -9.8535 21.1126)" fill="#52CAF5" width="37.307" height="9.551"/>
<rect x="28.77" y="0.2" transform="matrix(0.6427 -0.7662 0.7662 0.6427 7.3577 25.7275)" fill="#6D6E71" width="4.978" height="9.551"/>
<polygon fill="#FCB51E" points="9.422,38.427 3.753,40.683 0.719,38.137 2.107,32.289 "/>
<polygon points="3.525,40.57 0,42.001 0.866,38.34 "/>
<rect x="26.873" y="1.085" transform="matrix(-0.6429 0.766 -0.766 -0.6429 50.8285 -16.931)" fill="#A7A9AC" width="4.977" height="4.598"/>
<polygon fill="#58595B" points="2.146,39.413 0.866,38.34 0.011,41.957 "/>
<polygon fill="#FFD65A" points="2.176,39.359 5.629,35.244 2.107,32.289 0.719,38.137 "/>
<rect x="-2.84" y="17.228" transform="matrix(-0.6428 0.766 -0.766 -0.6428 40.937 19.966)" fill="#84D5F7" width="37.307" height="4.598"/>
<polygon fill="#F79523" points="20.725,32.67 21.094,25.839 17.163,26.083 17.036,36.843 27.702,35.4 27.459,31.468 "/>
<rect x="17.491" y="25.438" transform="matrix(0.6623 -0.7492 0.7492 0.6623 -12.1672 28.3363)" fill="#F79523" width="15.721" height="4.457"/>
<polygon fill="#C8691C" points="20.725,32.67 17.036,36.843 27.702,35.4 27.459,31.468 "/>
<polygon fill="#C8691C" points="32.228,23.252 21.815,35.031 20.013,33.438 30.656,21.864 "/>
</svg>
