<?xml version="1.0" encoding="utf-8"?>
<svg version="1.1"
	 xmlns="http://www.w3.org/2000/svg" xmlns:xlink="http://www.w3.org/1999/xlink"
	 x="0px" y="0px" width="48px" height="48px" viewBox="0 0 48 48">
<defs>
</defs>
<path fill="#C8691C" d="M40.898,41.65c0,1.913-1.55,3.463-3.463,3.463h-25.39c-1.912,0-3.462-1.55-3.462-3.463V6.162
	c0-1.912,1.55-3.462,3.462-3.462h25.39c1.913,0,3.463,1.55,3.463,3.462V41.65z"/>
<rect x="8.584" y="13.77" fill="#FCB51E" width="32.314" height="1.424"/>
<rect x="23.608" y="3.854" fill="#FCB51E" width="1.425" height="39.104"/>
<rect x="8.584" y="25.889" fill="#FCB51E" width="32.314" height="1.424"/>
<rect x="8.584" y="38.006" fill="#FCB51E" width="32.314" height="1.425"/>
<path fill="#52CAF5" d="M22.99,5.2l4.442,4.016L8.566,28.219v13.459c0,0.811,0.289,1.547,0.756,2.137l26.646-26.878l4.895,4.428
	L40.81,5.489c-0.021-0.1-0.061-0.191-0.09-0.289H22.99z"/>
<path fill="#3588A6" d="M40.862,21.364V6.006c-0.014-0.24-0.051-0.473-0.109-0.697L8.566,37.234v4.443
	c0,0.811,0.289,1.547,0.756,2.137l26.646-26.878L40.862,21.364z"/>
<polygon fill="#FFFFFF" points="8.529,29.092 8.577,27.389 26.597,9.239 21.116,4.278 22.956,4.295 24.07,5.399 28.267,9.194 "/>
<path fill="#FFFFFF" d="M8.998,43.32c0.188,0.346,0.427,0.654,0.716,0.916l26.275-26.501l4.873,4.412l0.006-0.789v-0.781
	l-4.922-4.438L8.998,43.32z"/>
<path fill="#FFFFFF" d="M40.302,4.278H22.92l-0.324,1.371l0.649-0.217h17.547C40.698,5.014,40.532,4.624,40.302,4.278z"/>
</svg>
