<?xml version="1.0" encoding="UTF-8" standalone="no"?>
<svg
   xmlns:dc="http://purl.org/dc/elements/1.1/"
   xmlns:cc="http://creativecommons.org/ns#"
   xmlns:rdf="http://www.w3.org/1999/02/22-rdf-syntax-ns#"
   xmlns:svg="http://www.w3.org/2000/svg"
   xmlns="http://www.w3.org/2000/svg"
   xmlns:sodipodi="http://sodipodi.sourceforge.net/DTD/sodipodi-0.dtd"
   xmlns:inkscape="http://www.inkscape.org/namespaces/inkscape"
   version="1.1"
   x="0px"
   y="0px"
   width="48px"
   height="48px"
   viewBox="-8.187 -1.67 48 48"
   id="svg3825"
   sodipodi:docname="import_csv.svg"
   inkscape:version="0.92.2 5c3e80d, 2017-08-06">
  <metadata
     id="metadata3829">
    <rdf:RDF>
      <cc:Work
         rdf:about="">
        <dc:format>image/svg+xml</dc:format>
        <dc:type
           rdf:resource="http://purl.org/dc/dcmitype/StillImage" />
      </cc:Work>
    </rdf:RDF>
  </metadata>
  <sodipodi:namedview
     pagecolor="#ffffff"
     bordercolor="#666666"
     borderopacity="1"
     objecttolerance="10"
     gridtolerance="10"
     guidetolerance="10"
     inkscape:pageopacity="0"
     inkscape:pageshadow="2"
     inkscape:window-width="1311"
     inkscape:window-height="849"
     id="namedview3827"
     showgrid="false"
     inkscape:zoom="23.708333"
     inkscape:cx="18.624651"
     inkscape:cy="24.755365"
     inkscape:window-x="0"
     inkscape:window-y="0"
     inkscape:window-maximized="0"
     inkscape:current-layer="svg3825" />
  <defs
     id="defs3805" />
  <g
     id="g3844"
     inkscape:label="g3844"
     transform="rotate(-90,16.07,20.287)">
    <path
       id="path3807"
       d="m 31.268,37.261 c 0,1.83 -1.482,3.313 -3.313,3.313 H 3.667 c -1.829,0 -3.312,-1.482 -3.312,-3.313 V 3.312 C 0.355,1.483 1.838,0 3.667,0 h 24.289 c 1.83,0 3.313,1.483 3.313,3.312 v 33.949 z"
       inkscape:connector-curvature="0"
       style="fill:#c8691c" />
    <rect
       id="rect3809"
       height="1.363"
       width="30.913"
       y="10.59"
       x="0.35499999"
       style="fill:#fcb51e" />
    <rect
       id="rect3811"
       height="38.365002"
       width="1.363"
       y="1.104"
       x="14.728"
       style="fill:#fcb51e" />
    <rect
       id="rect3813"
       height="1.364"
       width="30.913"
       y="22.181999"
       x="0.35499999"
       style="fill:#fcb51e" />
    <rect
       id="rect3815"
       height="1.362"
       width="30.913"
       y="33.775002"
       x="0.35499999"
       style="fill:#fcb51e" />
    <polygon
       id="polygon3817"
       points="0.355,18.015 0.355,2.367 27.103,29.346 31.785,25.111 31.733,40.574 14.688,40.574 18.937,36.732 "
       style="fill:#52caf5" />
    <polygon
       id="polygon3819"
       points="27.103,29.346 31.785,25.111 31.733,40.574 0.355,9.398 0.355,2.367 "
       style="fill:#3588a6" />
    <polyline
       id="polyline3821"
       points="14.688,40.574 18.937,36.732 0.355,18.015 "
       stroke-miterlimit="10"
       style="fill:none;stroke:#ffffff;stroke-miterlimit:10" />
    <polyline
       id="polyline3823"
       points="0.355,2.367 27.103,29.346 31.785,25.111 "
       stroke-miterlimit="10"
       style="fill:none;stroke:#ffffff;stroke-miterlimit:10" />
  </g>
</svg>
