<?xml version="1.0" encoding="utf-8"?>
<svg version="1.1"
	 xmlns="http://www.w3.org/2000/svg" xmlns:xlink="http://www.w3.org/1999/xlink"
	 x="0px" y="0px" width="28px" height="28px" viewBox="-2.5 -1.1 28 28">
<defs>
</defs>
<rect y="20.7" fill="#F79523" width="22.7" height="5.3"/>
<rect x="11" y="20.7" fill="#C8691C" width="11.7" height="5.3"/>
<polygon fill="#52CAF5" points="10.2,14.4 10.2,12 3.9,12 3.9,14.4 1.4,14.4 7,20 12.6,14.4 "/>
<polygon fill="#3588A6" points="10.2,14.4 10.2,12 6.9,12 7,20 12.6,14.4 "/>
<rect x="3.9" y="9.9" fill="#52CAF5" width="6.2" height="1.3"/>
<rect x="6.9" y="9.9" fill="#3588A6" width="3.2" height="1.3"/>
<rect x="3.9" y="7.6" fill="#52CAF5" width="6.2" height="1.3"/>
<rect x="6.9" y="7.6" fill="#3588A6" width="3.2" height="1.3"/>
<path fill="#52CAF5" d="M17.6,17.8c0,0,0.2-13.4-4.9-13.4c-2.5,0-2.6,2-2.6,2H3.9c0,0,0.7-7.3,8.7-6.3C21.5,1.1,17.6,17.8,17.6,17.8
	z"/>
<path fill="#3588A6" d="M17.6,17.8c0,0,0.2-13.4-4.9-13.4c-2.5,0-2.6,2-2.6,2L7,6.3c0,0,1.4-4.9,6.1-4C18.9,3.4,17.6,17.8,17.6,17.8
	z"/>
</svg>
