<?xml version="1.0" encoding="utf-8"?>
<!DOCTYPE svg PUBLIC "-//W3C//DTD SVG 1.1//EN" "http://www.w3.org/Graphics/SVG/1.1/DTD/svg11.dtd" [
	<!ENTITY ns_flows "http://ns.adobe.com/Flows/1.0/">
]>
<svg version="1.1"
	 xmlns="http://www.w3.org/2000/svg" xmlns:xlink="http://www.w3.org/1999/xlink"
	 x="0px" y="0px" width="28px" height="28px" viewBox="-3.124 -2.833 28 28">
<defs>
</defs>
<path fill="#F58466" d="M17.892,6.355H16.8c-0.086-0.391-0.209-0.768-0.365-1.127l0.902-0.632c0.305-0.214,0.379-0.636,0.166-0.939
	L16.849,2.72c-0.213-0.305-0.637-0.379-0.941-0.164l-0.924,0.648c-0.285-0.264-0.594-0.5-0.926-0.703l0.389-1.069
	c0.127-0.351-0.055-0.736-0.402-0.865L12.97,0.176c-0.352-0.127-0.738,0.056-0.863,0.404l-0.396,1.077
	c-0.271-0.037-0.55-0.064-0.833-0.064c-0.109,0-0.213,0.011-0.316,0.017L10.263,0.5c-0.096-0.36-0.466-0.573-0.824-0.478
	L8.335,0.318c-0.36,0.098-0.573,0.468-0.479,0.828l0.295,1.098C7.805,2.421,7.476,2.626,7.169,2.863L6.304,2.136
	C6.017,1.896,5.593,1.934,5.353,2.22L4.617,3.095C4.379,3.378,4.416,3.804,4.701,4.044l0.847,0.71
	C5.278,5.25,5.076,5.787,4.95,6.355H3.859c-0.372,0-0.674,0.303-0.674,0.674v1.143c0,0.371,0.303,0.674,0.674,0.674h1.063
	c0.078,0.401,0.196,0.789,0.352,1.157l-0.859,0.601c-0.307,0.213-0.381,0.637-0.167,0.941l0.655,0.934
	c0.215,0.307,0.634,0.379,0.941,0.166l0.845-0.59c0.296,0.28,0.618,0.531,0.968,0.75l-0.351,0.96
	c-0.13,0.352,0.054,0.739,0.403,0.865l1.072,0.391c0.352,0.128,0.736-0.053,0.864-0.402l0.349-0.954
	c0.287,0.044,0.58,0.071,0.883,0.071c0.117,0,0.232-0.011,0.349-0.019l0.262,0.983c0.097,0.357,0.468,0.574,0.825,0.479l1.104-0.297
	c0.358-0.098,0.573-0.467,0.477-0.826l-0.262-0.985c0.365-0.188,0.713-0.41,1.033-0.666l0.785,0.658
	c0.283,0.239,0.709,0.203,0.951-0.085l0.732-0.871c0.24-0.285,0.203-0.711-0.084-0.949l-0.801-0.676
	c0.268-0.508,0.465-1.057,0.578-1.637h1.064c0.371,0,0.676-0.303,0.676-0.674V7.029C18.567,6.658,18.263,6.355,17.892,6.355z
	 M10.878,11.358c-2.078,0-3.76-1.684-3.76-3.758c0-2.076,1.682-3.759,3.76-3.759c2.074,0,3.756,1.683,3.756,3.759
	C14.634,9.674,12.952,11.358,10.878,11.358z"/>
<path fill="#ED1C24" d="M17.892,6.355H16.8c-0.086-0.391-0.209-0.768-0.365-1.127l0.902-0.632c0.305-0.214,0.379-0.636,0.166-0.939
	L16.849,2.72c-0.213-0.305-0.637-0.379-0.941-0.164l-0.924,0.648c-0.285-0.264-0.594-0.5-0.926-0.703l0.389-1.069
	c0.127-0.351-0.055-0.736-0.402-0.865L12.97,0.176c-0.352-0.127-0.738,0.056-0.863,0.404l-0.396,1.077
	c-0.271-0.037-0.55-0.064-0.833-0.064c-0.014,0-0.025,0.002-0.037,0.002v2.248c0.012-0.002,0.023-0.002,0.037-0.002
	c2.074,0,3.756,1.683,3.756,3.759c0,2.074-1.682,3.758-3.756,3.758c-0.014,0-0.025-0.003-0.037-0.003v2.377
	c0.012,0,0.023,0.003,0.037,0.003c0.117,0,0.232-0.011,0.349-0.019l0.262,0.983c0.097,0.357,0.468,0.574,0.825,0.479l1.104-0.297
	c0.358-0.098,0.573-0.467,0.477-0.826l-0.262-0.985c0.365-0.188,0.713-0.41,1.033-0.666l0.785,0.658
	c0.283,0.239,0.709,0.203,0.951-0.085l0.732-0.871c0.24-0.285,0.203-0.711-0.084-0.949l-0.801-0.676
	c0.268-0.508,0.465-1.057,0.578-1.637h1.064c0.371,0,0.676-0.303,0.676-0.674V7.029C18.567,6.658,18.263,6.355,17.892,6.355z"/>
<rect y="17.303" fill="#F79523" width="21.752" height="5.031"/>
<rect x="10.567" y="17.303" fill="#C8691C" width="11.185" height="5.031"/>
</svg>
