<?xml version="1.0" encoding="utf-8"?>
<svg version="1.1"
	 xmlns="http://www.w3.org/2000/svg" xmlns:xlink="http://www.w3.org/1999/xlink"
	 x="0px" y="0px" width="48px" height="48px" viewBox="-3.616 -1.962 48 48">
<defs>
</defs>
<polygon fill="#F79523" points="40.998,40.067 38.571,30.754 29.157,32.571 "/>
<polygon fill="#52CAF5" points="10.031,10.085 19.417,10.356 19.627,19.718 "/>
<path fill="#F79523" d="M13.907,38.141C4.823,33.831,0.954,22.972,5.265,13.888C9.576,4.805,20.434,0.937,29.518,5.248
	c0.751,0.356,1.466,0.759,2.145,1.201l1.49-3.142c-0.699-0.435-1.42-0.847-2.181-1.208C20.156-3.034,7.231,1.572,2.098,12.385
	C-3.033,23.2,1.571,36.125,12.386,41.258c8.588,4.076,18.498,1.99,24.787-4.449l-3.595-1.316
	C28.285,40.036,20.617,41.326,13.907,38.141z"/>
<path fill="#52CAF5" d="M21.648,32.812c4.77-0.009,8.856-2.896,10.629-7.015l-3.859-0.684c-1.354,2.379-3.903,3.985-6.836,3.989
	c-4.35,0.005-7.882-3.516-7.887-7.867c-0.002-2.275,0.965-4.321,2.505-5.762l-2.694-2.499c-2.137,2.105-3.463,5.028-3.459,8.265
	C10.056,27.639,15.25,32.82,21.648,32.812z"/>
</svg>
