<?xml version="1.0" encoding="utf-8"?>
<svg version="1.1"
	 xmlns="http://www.w3.org/2000/svg" xmlns:xlink="http://www.w3.org/1999/xlink"
	 x="0px" y="0px" width="48px" height="48px" viewBox="-4 -7.2 48 48">
<defs>
</defs>
<path fill="#C8691C" d="M15.8,32.2L30,15.5c0.2-0.2,0.3-0.4,0.4-0.6c2.7,0.9,5.9,0.1,7.9-2.2c1.9-2.2,2.2-5.2,1.1-7.7l-3.8,4.4
	c-1.2,1.4-3.2,1.5-4.6,0.4c-1.4-1.2-1.5-3.2-0.4-4.6l3.8-4.4c-2.6-0.7-5.5,0.2-7.4,2.4c-2,2.3-2.3,5.5-1,8.1
	c-0.2,0.1-0.4,0.3-0.6,0.5L11.4,28.4c-1.1,1.2-0.9,3.1,0.3,4.2C12.9,33.6,14.8,33.4,15.8,32.2z M12.8,28.6c0.6-0.7,1.7-0.8,2.4-0.2
	c0.7,0.6,0.8,1.7,0.2,2.4c-0.6,0.7-1.7,0.8-2.4,0.2C12.2,30.4,12.2,29.3,12.8,28.6z"/>
<path fill="#F79523" d="M39.4,4.9l-3.8,4.4c-1.2,1.4-3.2,1.5-4.6,0.4C31,9.6,31,9.6,30.9,9.5L15.4,28.6c0.5,0.6,0.5,1.6,0,2.2
	c-0.5,0.6-1.4,0.8-2.1,0.4L12,32.7c1.2,0.8,2.9,0.6,3.8-0.6L30,15.5c0.2-0.2,0.3-0.4,0.4-0.6c2.7,0.9,5.9,0.1,7.9-2.2
	C40.2,10.4,40.5,7.4,39.4,4.9z"/>
<path fill="#3588A6" d="M31.7,29l-6.4-6.6c-0.5-0.5-1.1-0.7-1.7-0.7L14,11.8l4.3-4.1c1.8-1.7,1.8-4.5,0.1-6.3
	c-1.7-1.8-4.5-1.8-6.3-0.1L7.4,5.8C7.1,5.9,6.8,6,6.5,6.2C6.3,6.5,6.2,6.8,6.1,7.1l-4.7,4.6c-1.8,1.7-1.8,4.5-0.1,6.3
	c1.7,1.8,4.5,1.8,6.3,0.1l4.3-4.1l9.6,9.9c0,0.6,0.2,1.3,0.6,1.8l6.4,6.6c0.9,0.9,2.3,0.9,3.2,0.1C32.6,31.4,32.6,29.9,31.7,29z"/>
<path fill="#52CAF5" d="M6.5,6.3C6.3,6.5,6.1,6.8,6.1,7.1l-4.7,4.6c-1.8,1.7-1.8,4.5-0.1,6.3c1.7,1.8,4.5,1.8,6.3,0.1l4.3-4.1
	l9.6,9.9c0,0.6,0.2,1.3,0.6,1.8l6.4,6.6c0.9,0.9,2.3,0.9,3.2,0.1c0.1-0.1,0.2-0.3,0.3-0.4L6.5,6.3z"/>
</svg>
