<?xml version="1.0" encoding="utf-8"?>
<svg version="1.1"
	 xmlns="http://www.w3.org/2000/svg" xmlns:xlink="http://www.w3.org/1999/xlink"
	 x="0px" y="0px" width="28px" height="28px" viewBox="-3.435 -2.295 28 28">
<defs>
</defs>
<path fill="#3588A6" d="M2.06,19.379l4.556-5.76c0.664-0.907,1.372-1.221,2.062-0.931l7.345-10.037l0.432-1.207l1.484-1.412
	l0.645,0.471l-0.867,1.809l-1.049,0.811L9.322,13.16c0.484,0.569,0.401,1.339-0.264,2.248l-4.11,6.084
	c-0.778,1.062-2.055,1.45-2.852,0.868C1.299,21.777,1.284,20.44,2.06,19.379z"/>
<path fill="#C54A20" d="M5.958,6.454l1.207-1.019l2.009-1.699C9.194,3.719,9.2,3.695,9.217,3.679
	c0.014-0.012,0.025-0.016,0.039-0.026c1.501-1.271,1.427-1.298,1.844-1.247c0.277,0.035,1.725,1.541,1.725,1.541l-0.282-1.074
	c0,0-0.839-0.639-1.894-2.24C9.637-0.899,7.575,0.781,7.12,1.181c-0.023,0.016-0.051,0.021-0.072,0.04L1.744,5.707
	c-0.029,0.022-0.04,0.057-0.066,0.084L1.462,5.535L0,6.769l2.552,3.02l1.461-1.236l-0.237-0.28C3.805,8.25,3.841,8.244,3.87,8.22
	L5.958,6.454z"/>
<path fill="#C54A20" d="M20.86,19.202l-6.19-6.934c-0.857-1.014-1.629-1.441-2.257-1.282L7.831,5.568L6.973,6.277L11.6,11.75
	c-0.17,0.584,0.147,1.371,0.945,2.315l5.806,7.259c1.077,1.272,2.51,1.83,3.204,1.242C22.249,21.982,21.937,20.476,20.86,19.202z"/>
</svg>
