<?xml version="1.0" encoding="utf-8"?>
<svg version="1.1"
	 xmlns="http://www.w3.org/2000/svg" xmlns:xlink="http://www.w3.org/1999/xlink"
	 x="0px" y="0px" width="28px" height="28px" viewBox="-1.925 -1.354 28 28">
<defs>
</defs>
<path fill="#3588A6" d="M24.557,21.689c0,1.798-1.505,3.252-3.36,3.252H3.359C1.504,24.941,0,23.487,0,21.689V3.251
	C0,1.455,1.504,0,3.359,0h17.837c1.855,0,3.36,1.455,3.36,3.251V21.689z"/>
<path fill="#FFFFFF" d="M5.752,10.773L4.96,13.17H3.943l2.599-7.619H7.72l2.6,7.619H9.267l-0.813-2.396H5.752z M8.262,10.004
	L7.504,7.811C7.335,7.314,7.222,6.861,7.108,6.422H7.085C6.973,6.861,6.859,7.338,6.701,7.801l-0.746,2.203H8.262z"/>
<path fill="#FFFFFF" d="M13.088,19.994l-0.792,2.397h-1.017l2.6-7.619h1.177l2.601,7.619h-1.053l-0.813-2.397H13.088z
	 M13.088,14.309c-0.011-0.689,0.282-1.153,0.769-1.153c0.248,0,0.441,0.103,0.679,0.227c0.182,0.103,0.361,0.203,0.543,0.203
	c0.17,0,0.271-0.079,0.306-0.44h0.52c0.011,0.712-0.238,1.097-0.759,1.097c-0.236,0-0.451-0.09-0.688-0.215
	c-0.227-0.114-0.373-0.215-0.543-0.215c-0.181,0-0.26,0.192-0.295,0.497H13.088z M15.597,19.226l-0.756-2.192
	c-0.171-0.498-0.282-0.949-0.396-1.391h-0.022c-0.113,0.441-0.227,0.916-0.384,1.378l-0.746,2.205H15.597z"/>
<path fill="#F79523" d="M20.347,11.254c1.12-2.744,0.186-5.976-2.402-7.631C15.259,1.905,11.761,2.5,9.768,4.885l1.601,1.022
	c1.416-1.517,3.753-1.857,5.563-0.698c1.765,1.128,2.436,3.306,1.745,5.195l-1.294-0.657l0.87,3.265l3.155-1.219L20.347,11.254z"/>
</svg>
