<?xml version="1.0" encoding="utf-8"?>
<svg version="1.1"
	 xmlns="http://www.w3.org/2000/svg" xmlns:xlink="http://www.w3.org/1999/xlink"
	 x="0px" y="0px" width="28px" height="28px" viewBox="-2.01 -4.458 28 28">
<defs>
</defs>
<path fill="#C8691C" d="M23.819,17.065c0,0.857-0.695,1.553-1.555,1.553H2.577c-0.858,0-1.554-0.695-1.554-1.553V1.555
	C1.022,0.695,1.718,0,2.577,0h19.688c0.859,0,1.555,0.695,1.555,1.555V17.065z"/>
<path fill="#F79523" d="M7.772,5.709c-0.858,0-1.556-0.695-1.556-1.554V1.047H1.554C0.696,1.047,0,1.742,0,2.602v15.511
	c0,0.857,0.696,1.553,1.554,1.553h20.724c0.858,0,1.555-0.695,1.555-1.553V5.709H7.772z"/>
<polygon fill="#3588A6" points="20.795,16.513 2.979,16.513 11.888,7.604 "/>
<path fill="#FFFFFF" d="M11.248,12.414v-1.571c0-0.138,0.051-0.256,0.152-0.354s0.227-0.146,0.371-0.146
	c0.139,0,0.256,0.048,0.354,0.146s0.146,0.216,0.146,0.354v1.571h1.572c0.141,0,0.264,0.05,0.367,0.148
	c0.104,0.101,0.154,0.222,0.154,0.363s-0.051,0.263-0.154,0.363c-0.104,0.099-0.227,0.148-0.367,0.148h-1.56v1.571
	c0,0.146-0.052,0.271-0.155,0.371c-0.104,0.103-0.227,0.153-0.369,0.153s-0.264-0.051-0.362-0.153
	c-0.1-0.101-0.149-0.225-0.149-0.371v-1.571h-1.57c-0.139,0-0.258-0.05-0.36-0.148c-0.102-0.101-0.151-0.222-0.151-0.363
	c0-0.139,0.05-0.258,0.151-0.359c0.103-0.102,0.222-0.152,0.36-0.152H11.248z"/>
</svg>
