<?xml version="1.0" encoding="utf-8"?>
<svg version="1.1"
	 xmlns="http://www.w3.org/2000/svg" xmlns:xlink="http://www.w3.org/1999/xlink"
	 x="0px" y="0px" width="48px" height="48px" viewBox="-3.6 -9.5 48 48">
<defs>
</defs>
<path fill="#C8691C" d="M40.2,23.6c0,1.4-1.2,2.6-2.6,2.6H4.4c-1.4,0-2.6-1.2-2.6-2.6v-21C1.7,1.2,2.9,0,4.4,0h33.2
	c1.5,0,2.6,1.2,2.6,2.6V23.6z"/>
<path fill="#F79523" d="M13.1,9.6c-1.4,0-2.6-1.2-2.6-2.6V1.8H2.6C1.2,1.8,0,2.9,0,4.4v21C0,26.8,1.2,28,2.6,28h35
	c1.4,0,2.6-1.2,2.6-2.6V9.6H13.1z"/>
<path fill="#52CAF5" d="M35.4,18.4c0,0-4.3,6.9-14.8,7.4C10,26.2,4.3,18.4,4.3,18.4s6.5-6.9,16.4-6.9C31.3,11.4,35.4,18.4,35.4,18.4
	z"/>
<circle fill="#3588A6" cx="21.1" cy="18.7" r="6.9"/>
<ellipse transform="matrix(0.7339 0.6793 -0.6793 0.7339 17.4043 -12.0973)" fill="#84D5F7" cx="24.1" cy="16.2" rx="2.3" ry="1"/>
</svg>
