<?xml version="1.0" encoding="utf-8"?>
<svg version="1.1"
	 xmlns="http://www.w3.org/2000/svg" xmlns:xlink="http://www.w3.org/1999/xlink"
	 x="0px" y="0px" width="48px" height="48px" viewBox="-7.687 -4.387 48 48">
<defs>
</defs>
<path fill="#F79523" d="M29.655,36.023c0,1.77-1.433,3.203-3.201,3.203H6.174c-1.769,0-3.202-1.434-3.202-3.203V3.202
	C2.972,1.434,4.405,0,6.174,0h20.28c1.769,0,3.201,1.434,3.201,3.202V36.023z"/>
<rect x="7.694" y="6.938" fill="#FFFFFF" width="17.238" height="1.334"/>
<rect x="7.694" y="12.809" fill="#FFFFFF" width="17.238" height="1.334"/>
<rect x="7.694" y="18.679" fill="#FFFFFF" width="17.238" height="1.334"/>
<rect x="7.694" y="24.551" fill="#FFFFFF" width="17.238" height="1.334"/>
<path fill="#52CAF5" d="M32.627,28.025c0,0-4.493,7.211-15.447,7.705C5.999,36.236,0,28.025,0,28.025s6.839-7.253,17.18-7.265
	C28.279,20.748,32.627,28.025,32.627,28.025z"/>
<circle fill="#3588A6" cx="17.579" cy="28.332" r="7.257"/>
<path fill="#84D5F7" d="M22.563,27.342c-0.39,0.422-0.641-0.441-1.613-1.342c-0.975-0.9-2.3-1.498-1.91-1.92
	c0.391-0.422,1.495-0.031,2.468,0.867C22.479,25.848,22.952,26.92,22.563,27.342z"/>
</svg>
