<?xml version="1.0" encoding="utf-8"?>
<svg version="1.1"
	 xmlns="http://www.w3.org/2000/svg" xmlns:xlink="http://www.w3.org/1999/xlink"
	 x="0px" y="0px" width="48px" height="48px" viewBox="-7 -4.5 48 48">
<defs>
</defs>
<path fill="#F79523" d="M33.9,35.4c0,1.7-1.4,3.1-3.1,3.1h-23c-1.7,0-3.1-1.4-3.1-3.1V3.1C4.6,1.4,6,0,7.7,0h23
	c1.7,0,3.1,1.4,3.1,3.1V35.4z"/>
<path fill="#C8691C" d="M15.2,0H7.7C6,0,4.6,1.4,4.6,3.1v32.2c0,1.7,1.4,3.1,3.1,3.1h23c0.1,0,0.2,0,0.4,0L15.2,0z"/>
<polygon fill="#FFFFFF" points="29,12.4 24.3,7.6 24.3,5.3 31.4,12.4 24.3,19.5 24.3,17.2 "/>
<polygon fill="#FFFFFF" points="9.9,12 14.7,7.2 14.7,4.9 7.5,12 14.7,19.1 14.7,16.8 "/>
<polygon fill="#FFFFFF" points="16.2,21.9 17.7,22.3 22.5,2.7 21,2.3 "/>
<path fill="#52CAF5" d="M29.3,31.4c0,1.7-1.4,3.1-3.1,3.1h-23c-1.7,0-3.1-1.4-3.1-3.1v-4.7c0-1.7,1.4-3.1,3.1-3.1h23
	c1.7,0,3.1,1.4,3.1,3.1V31.4z"/>
<text transform="matrix(1 0 0 1 3.3242 32.6484)" fill="#1B5C72" font-family="'CenturyGothic-Bold'" font-size="10.4762">XML</text>
<path fill="#84D5F7" d="M28.9,33.1c0.3-0.5,0.5-1,0.5-1.6v-4.7c0-1.7-1.4-3.1-3.1-3.1h-1.4L28.9,33.1z"/>
</svg>
