<?xml version="1.0" encoding="utf-8"?>
<!-- Generator: Adobe Illustrator 15.0.0, SVG Export Plug-In  -->
<!DOCTYPE svg PUBLIC "-//W3C//DTD SVG 1.1//EN" "http://www.w3.org/Graphics/SVG/1.1/DTD/svg11.dtd" [
	<!ENTITY ns_flows "http://ns.adobe.com/Flows/1.0/">
]>
<svg version="1.1"
	 xmlns="http://www.w3.org/2000/svg" xmlns:xlink="http://www.w3.org/1999/xlink" xmlns:a="http://ns.adobe.com/AdobeSVGViewerExtensions/3.0/"
	 x="0px" y="0px" width="48px" height="48px" viewBox="-5.473 -2.7 48 48" enable-background="new -5.473 -2.7 48 48"
	 xml:space="preserve">
<defs>
</defs>
<path display="none" fill="#C8691C" d="M35.426,38.95c0,1.912-1.551,3.463-3.463,3.463H6.572c-1.912,0-3.462-1.551-3.462-3.463
	V3.462C3.11,1.55,4.66,0,6.572,0h25.391c1.912,0,3.463,1.55,3.463,3.462V38.95z"/>
<rect x="3.111" y="11.07" display="none" fill="#FCB51E" width="32.314" height="1.424"/>
<rect x="18.135" y="1.154" display="none" fill="#FCB51E" width="1.425" height="39.104"/>
<rect x="3.111" y="23.188" display="none" fill="#FCB51E" width="32.314" height="1.424"/>
<rect x="3.111" y="35.306" display="none" fill="#FCB51E" width="32.314" height="1.426"/>
<path display="none" fill="#52CAF5" d="M17.518,2.5l4.441,4.016L3.093,25.519v13.459c0,0.812,0.289,1.547,0.756,2.137l26.646-26.877
	l4.896,4.428L35.338,2.789c-0.021-0.1-0.062-0.191-0.09-0.289H17.518z"/>
<path display="none" fill="#3588A6" d="M35.389,18.664V3.306c-0.014-0.24-0.051-0.473-0.108-0.697L3.093,34.534v4.442
	c0,0.812,0.289,1.548,0.756,2.138l26.646-26.878L35.389,18.664z"/>
<polygon display="none" fill="#FFFFFF" points="3.056,26.392 3.104,24.688 21.125,6.539 15.644,1.578 17.483,1.595 18.597,2.699 
	22.795,6.494 "/>
<path display="none" fill="#FFFFFF" d="M3.525,40.62c0.188,0.346,0.427,0.654,0.716,0.916l26.274-26.501l4.873,4.412l0.007-0.789
	v-0.781l-4.923-4.438L3.525,40.62z"/>
<path display="none" fill="#FFFFFF" d="M34.829,1.578H17.447l-0.324,1.371l0.649-0.217h17.547
	C35.226,2.314,35.06,1.924,34.829,1.578z"/>
<rect x="33.495" y="0.058" width="3.56" height="7.104"/>
<polygon points="16.698,7.161 19.33,4.343 14.572,0.058 0,0.058 0,7.161 "/>
<polygon points="19.685,21.584 10.818,30.913 19.685,30.913 "/>
<polygon points="33.495,9.062 33.495,17.154 28.333,12.485 21.585,19.585 21.585,30.913 37.055,30.913 37.055,9.062 "/>
<polygon points="19.685,32.813 9.012,32.813 0.063,42.228 0.063,24.976 14.924,9.062 0,9.062 0,42.542 19.685,42.542 "/>
<rect x="21.585" y="32.813" width="15.47" height="9.729"/>
</svg>
