<?xml version="1.0" encoding="utf-8"?>
<!-- Generator: Adobe Illustrator 15.0.0, SVG Export Plug-In  -->
<!DOCTYPE svg PUBLIC "-//W3C//DTD SVG 1.1//EN" "http://www.w3.org/Graphics/SVG/1.1/DTD/svg11.dtd" [
	<!ENTITY ns_flows "http://ns.adobe.com/Flows/1.0/">
]>
<svg version="1.1"
	 xmlns="http://www.w3.org/2000/svg" xmlns:xlink="http://www.w3.org/1999/xlink" xmlns:a="http://ns.adobe.com/AdobeSVGViewerExtensions/3.0/"
	 x="0px" y="0px" width="28px" height="28px" viewBox="-1.722 -1.529 28 28" enable-background="new -1.722 -1.529 28 28"
	 xml:space="preserve">
<defs>
</defs>
<path d="M7.108,6.422H7.085C6.973,6.861,6.859,7.338,6.701,7.801l-0.746,2.203h2.307L7.504,7.811
	C7.335,7.314,7.222,6.861,7.108,6.422z"/>
<path d="M21.195,0H3.359C1.504,0,0,1.455,0,3.251v18.438c0,1.797,1.504,3.252,3.359,3.252h17.838c1.854,0,3.359-1.455,3.359-3.252
	V3.251C24.557,1.455,23.051,0,21.195,0z M9.267,13.17l-0.813-2.396H5.752v-0.001L4.96,13.17H3.943l2.599-7.619H7.72l2.6,7.619H9.267
	z M18.253,13.012l-0.87-3.265l1.294,0.657c0.691-1.889,0.021-4.067-1.745-5.195c-1.81-1.159-4.146-0.819-5.563,0.698L9.768,4.885
	c1.993-2.385,5.491-2.979,8.177-1.262c2.588,1.655,3.521,4.887,2.402,7.631l1.061,0.539L18.253,13.012z"/>
<path fill="#FFFFFF" d="M13.088,19.994l-0.792,2.396h-1.017l2.6-7.619h1.178l2.601,7.619h-1.054l-0.813-2.396H13.088z
	 M15.598,19.227l-0.757-2.192c-0.171-0.498-0.282-0.949-0.396-1.392h-0.021c-0.113,0.441-0.227,0.916-0.384,1.379l-0.746,2.205
	H15.598z"/>
<path fill="#FFFFFF" d="M13.088,14.309c-0.011-0.688,0.282-1.152,0.769-1.152c0.248,0,0.441,0.103,0.68,0.227
	c0.182,0.104,0.36,0.203,0.543,0.203c0.17,0,0.271-0.079,0.306-0.439h0.52c0.012,0.711-0.237,1.097-0.758,1.097
	c-0.236,0-0.451-0.091-0.688-0.216c-0.227-0.113-0.373-0.215-0.543-0.215c-0.182,0-0.26,0.192-0.295,0.498h-0.532V14.309z"/>
</svg>
