<?xml version="1.0" encoding="utf-8"?>
<svg version="1.1"
	 xmlns="http://www.w3.org/2000/svg" xmlns:xlink="http://www.w3.org/1999/xlink"
	 x="0px" y="0px" width="48px" height="48px" viewBox="-8.076 -3.666 48 48">
<defs>
</defs>
<path fill="#F79523" d="M31.494,0H2.259C1.012,0,0,1.249,0,2.792v26.049c0,1.542,1.012,2.792,2.259,2.792h5.333l2.11,9.7l8.892-9.7
	h12.9c1.247,0,2.259-1.25,2.259-2.792V2.792C33.753,1.249,32.741,0,31.494,0z M30.696,26.599c0,1.243-0.817,2.252-1.821,2.252
	H16.792l-5.514,6.607l-1.139-6.625L4.88,28.851c-1.005,0-1.821-1.009-1.821-2.252V5.584c0-1.243,0.816-2.251,1.821-2.251h23.995
	c1.004,0,1.821,1.008,1.821,2.251V26.599z"/>
<path fill="#C8691C" d="M30.685,5.445c0.002,0.046,0.012,0.091,0.012,0.139v21.015c0,1.243-0.817,2.252-1.821,2.252H16.792
	l-5.514,6.607l-1.122-6.531l-2.466,3.146l2.013,9.26l8.892-9.7h12.9c1.247,0,2.259-1.25,2.259-2.792V2.792
	c0-0.371-0.062-0.723-0.168-1.047L30.685,5.445z"/>
<path fill="#3588A6" d="M23.562,19.833c0,1.81-1.467,3.785-3.274,3.785H5.877v-6.697c0-1.809,0.229-3.274,2.038-3.274h12.372
	c1.808,0,3.274,1.466,3.274,3.274V19.833z"/>
<path fill="#52CAF5" d="M26.618,23.618H8.715V11.192c0-1.809,1.466-3.275,3.275-3.275h11.353c1.809,0,3.275,1.467,3.275,3.275
	V23.618z"/>
</svg>
