<?xml version="1.0" encoding="utf-8"?>
<svg version="1.1"
	 xmlns="http://www.w3.org/2000/svg" xmlns:xlink="http://www.w3.org/1999/xlink"
	 x="0px" y="0px" width="48px" height="48px" viewBox="-8.076 -3.55 48 48">
<defs>
</defs>
<path fill="#F79523" d="M31.582,0H2.266C1.015,0,0,1.252,0,2.799v26.122c0,1.547,1.015,2.8,2.266,2.8h5.347l2.116,9.728l8.917-9.728
	h12.937c1.251,0,2.266-1.253,2.266-2.8V2.799C33.848,1.252,32.833,0,31.582,0z M30.781,26.673c0,1.246-0.818,2.259-1.825,2.259
	H16.839l-5.53,6.626l-1.142-6.644l-5.273,0.018c-1.008,0-1.827-1.013-1.827-2.259V5.6c0-1.247,0.819-2.257,1.827-2.257h24.063
	c1.007,0,1.825,1.011,1.825,2.257V26.673z"/>
<path fill="#C8691C" d="M30.771,5.46c0.002,0.047,0.011,0.091,0.011,0.14v21.074c0,1.246-0.818,2.259-1.825,2.259H16.839
	l-5.53,6.626l-1.125-6.551L7.71,32.163l2.019,9.286l8.917-9.728h12.937c1.251,0,2.266-1.253,2.266-2.8V2.799
	c0-0.372-0.063-0.725-0.169-1.05L30.771,5.46z"/>
<rect x="6.827" y="7.44" fill="#52CAF5" width="20.193" height="3.188"/>
<rect x="6.827" y="14.349" fill="#52CAF5" width="20.193" height="3.188"/>
<rect x="6.827" y="21.256" fill="#52CAF5" width="20.193" height="3.188"/>
</svg>
