<?xml version="1.0" encoding="utf-8"?>
<svg version="1.1"
	 xmlns="http://www.w3.org/2000/svg" xmlns:xlink="http://www.w3.org/1999/xlink"
	 x="0px" y="0px" width="28px" height="28px" viewBox="-1.13 -1.923 28 28">
<defs>
</defs>
<path fill="#F79523" d="M9.27,19.962l5.99-6.122l-7.13-5.53l4.082-5.455c-0.591-0.734-1.478-1.613-2.624-2.111
	C2.792-2.211-2.559,4.777,1.29,10.993C3.529,14.611,5.974,16.66,9.27,19.962z"/>
<path fill="#F79523" d="M16.539,0.745c-1.038,0.6-3.162,2.999-3.444,3.323L11.186,8.02l7.276,5.673L9.79,20.487
	c1.007,1.023,2.088,2.163,3.271,3.51c0,0,5.428-4.23,10.996-12.306C30.055,2.994,21.226-1.974,16.539,0.745z"/>
<path fill="#C8691C" d="M13.018,12.101c-0.005,1.334-0.009,2.713-0.013,4.044l2.255-2.305L13.018,12.101z"/>
<path fill="#C8691C" d="M16.539,0.745c-1.038,0.6-3.162,2.999-3.444,3.323l-0.034,0.07c-0.001,0.219-0.016,2.432-0.03,5.321
	l5.432,4.234l-5.46,4.276c-0.002,3.335,0.011,5.972,0.059,6.027c0,0,5.428-4.23,10.996-12.306
	C30.055,2.994,21.226-1.974,16.539,0.745z"/>
</svg>
