<?xml version="1.0" encoding="utf-8"?>
<svg version="1.1"
	 xmlns="http://www.w3.org/2000/svg" xmlns:xlink="http://www.w3.org/1999/xlink"
	 x="0px" y="0px" width="48px" height="48px" viewBox="0 0 48 48">
<defs>
</defs>
<path fill="#F79523" d="M14.55,23.144l2.599,0.891l5.753,12.159l-0.245,6.709c0,0,1.625,1.823,3.487,0.909
	c1.862-0.909,4.294-3.973,4.215-6.32c-0.082-2.352-1.783-8.674-1.783-8.674h13.617c0,0,3.244-0.568,3.408-3.488
	c0.158-2.918-1.785-3.566-1.785-3.566s1.864-0.646,1.702-3.24c-0.164-2.598-2.594-2.92-2.594-2.92s1.135-1.867,0.566-3.324
	c-0.566-1.46-2.514-2.354-2.514-2.354s1.216-1.134,0.567-2.916c-0.646-1.784-2.432-2.673-2.432-2.673s-17.67-0.327-18.97-0.248
	c-1.293,0.082-5.593,1.38-5.593,1.38V3.931H2.389v20.912H14.55V23.144z"/>
</svg>
