<?xml version="1.0" encoding="utf-8"?>
<svg version="1.1"
	 xmlns="http://www.w3.org/2000/svg" xmlns:xlink="http://www.w3.org/1999/xlink"
	 x="0px" y="0px" width="28px" height="28px" viewBox="-1.046 -1.868 28 28">
<defs>
</defs>
<path fill="#F79523" d="M13.085,24.042C7.717,17.93,4.319,15.903,1.292,11.014C-2.563,4.786,2.798-2.215,9.606,0.746
	c2.223,0.967,3.479,3.368,3.479,3.368s2.368-2.722,3.484-3.368C21.265-1.978,30.11,3,24.103,11.713
	C18.524,19.803,13.085,24.042,13.085,24.042z"/>
<path fill="#C8691C" d="M16.569,0.746c-1.116,0.646-3.484,3.368-3.484,3.368s-0.133,19.777,0,19.929c0,0,5.439-4.239,11.017-12.329
	C30.11,3,21.265-1.978,16.569,0.746z"/>
</svg>
