<?xml version="1.0" encoding="utf-8"?>
<svg version="1.1"
	 xmlns="http://www.w3.org/2000/svg" xmlns:xlink="http://www.w3.org/1999/xlink"
	 x="0px" y="0px" width="48px" height="48px" viewBox="-4.457 -5.382 48 48">
<defs>
</defs>
<polygon fill="#F79523" points="0,37.327 8,10.326 31,10.326 39,37.327 "/>
<polygon fill="#C8691C" points="8,10.326 31,10.326 39,37.327 "/>
<path fill="#52CAF5" d="M14.1,13.607V6.679c0-2.872,2.328-5.2,5.2-5.2s5.2,2.328,5.2,5.2v6.929h1.3V6.5c0-3.59-2.91-6.5-6.5-6.5
	s-6.5,2.91-6.5,6.5v7.107H14.1z"/>
<circle fill="#52CAF5" cx="13.335" cy="14.522" r="1.36"/>
<circle fill="#52CAF5" cx="25.335" cy="14.522" r="1.36"/>
<path fill="#FFFFFF" d="M19.45,36.066v-1.461c-1.283,0-2.736-0.313-4.359-0.938v-2.008c1.686,0.816,3.14,1.225,4.359,1.225v-6.38
	l-0.867-0.57c-2.1-1.41-3.148-2.934-3.148-4.573c0-1.179,0.385-2.171,1.152-2.975c0.768-0.804,1.77-1.258,3.006-1.36v-1.473h1.461
	v1.473c1.172,0.071,2.371,0.326,3.599,0.768v1.917c-1.147-0.57-2.349-0.922-3.599-1.057v6.295l0.795,0.476
	c2.17,1.274,3.256,2.783,3.256,4.525c0,1.243-0.381,2.286-1.141,3.13c-0.761,0.844-1.778,1.353-3.053,1.526v1.461H19.45z
	 M19.593,24.021v-5.238c-0.586,0.071-1.066,0.342-1.438,0.812c-0.373,0.469-0.559,1.033-0.559,1.695
	c0,0.854,0.498,1.646,1.496,2.375L19.593,24.021z M20.911,32.847c1.369-0.302,2.055-1.18,2.055-2.637
	c0-0.943-0.508-1.763-1.521-2.459l-0.533-0.381V32.847z"/>
<path fill="#BCBEC0" d="M24.652,19.709v-1.917c-1.228-0.442-2.427-0.697-3.599-0.768v-1.473h-1.461v1.473
	c-1.07,0.088-1.953,0.457-2.672,1.071l1.454,1.267c0.336-0.323,0.739-0.522,1.218-0.58v1.64l1.461,1.272v-3.043
	C22.304,18.787,23.505,19.139,24.652,19.709z"/>
</svg>
