<?xml version="1.0" encoding="utf-8"?>
<svg version="1.1"
	 xmlns="http://www.w3.org/2000/svg" xmlns:xlink="http://www.w3.org/1999/xlink"
	 x="0px" y="0px" width="48px" height="48px" viewBox="-3.377 -11.5 48 48">
<defs>
</defs>
<path fill="#F79523" d="M0,5.643c0,0,5.562-3.964,10.548-3.824c4.987,0.141,10.767,3.757,14.6,3.964C33.012,6.206,41.236,0,41.236,0
	v22.807c0,0-7.457,5.923-16.184,6.064c-4.508,0.073-10.093-4.246-14.6-4.246S0.096,28.448,0.096,28.448L0,5.643z"/>
<path fill="#C8691C" d="M25.148,5.783C33.012,6.206,41.236,0,41.236,0v22.807c0,0-7.457,5.923-16.184,6.064
	C20.544,28.944,21.315,5.576,25.148,5.783z"/>
<path fill="#FCB51E" d="M4.443,6.912c0,0,4.513-2.438,8.56-2.326c4.046,0.114,8.735,3.05,11.847,3.217
	c6.381,0.343,13.054-3.138,13.054-3.138v17.729c0,0-6.05,3.251-13.132,3.366c-3.657,0.06-8.189-3.445-11.847-3.445
	s-8.404,1.546-8.404,1.546L4.443,6.912z"/>
<path fill="#52CAF5" d="M21.516,7.445c2.408,0,4.376,0.732,5.907,2.196c1.53,1.464,2.296,3.291,2.296,5.481
	c0,2.819-0.886,5.192-2.656,7.118c-1.771,1.927-4.121,2.89-7.049,2.89c-2.376,0-4.337-0.763-5.836-2.33
	c-1.195-1.249-1.84-3.067-2.083-5.229c-0.148-1.324,0.176-3.339,0.906-4.884c0.73-1.546,1.83-2.806,3.297-3.781
	C17.765,7.933,19.504,7.445,21.516,7.445z"/>
<path fill="#FFFFFF" d="M22.009,8.653c2.188,0,3.978,0.666,5.369,1.997c1.392,1.331,2.088,2.992,2.088,4.983
	c0,2.563-0.806,4.721-2.416,6.472c-1.609,1.75-3.745,2.626-6.408,2.626c-2.161,0-3.93-0.706-5.306-2.118
	c-1.377-1.412-2.066-3.106-2.066-5.084c0-1.334,0.332-2.704,0.996-4.11c0.664-1.405,1.663-2.55,2.998-3.437
	C18.598,9.097,20.18,8.653,22.009,8.653z"/>
<path fill="#52CAF5" d="M22.436,9.821c1.957,0,3.557,0.594,4.8,1.784c1.244,1.19,1.865,2.675,1.865,4.456
	c0,2.291-0.72,4.22-2.158,5.784c-1.439,1.565-3.349,2.349-5.729,2.349c-1.931,0-3.512-0.632-4.743-1.894
	c-1.23-1.263-1.846-2.777-1.846-4.545c0-1.193,0.296-2.417,0.889-3.673c0.594-1.257,1.487-2.281,2.68-3.073
	C19.387,10.217,20.801,9.821,22.436,9.821z M22.38,23.454c0.958,0,1.905-0.257,2.839-0.771c0.935-0.516,1.67-1.224,2.207-2.126
	c0.535-0.902,0.805-1.831,0.805-2.784c0-1.35-0.361-2.578-1.085-3.683c-0.723-1.104-1.66-1.969-2.812-2.594
	c-1.152-0.625-2.218-0.938-3.196-0.938c-1.382,0-2.636,0.521-3.764,1.563c-1.126,1.041-1.689,2.335-1.689,3.882
	c0,1.976,0.688,3.711,2.064,5.207C19.125,22.706,20.669,23.454,22.38,23.454z"/>
<path fill="#3588A6" d="M22.383,23.52c0.969,0,1.926-0.26,2.868-0.78c0.944-0.52,1.687-1.235,2.229-2.146
	c0.542-0.912,0.813-1.849,0.813-2.811c0-1.364-0.363-2.604-1.095-3.72c-0.729-1.116-1.676-1.99-2.84-2.621
	c-1.163-0.631-2.239-0.947-3.227-0.947c-1.396,0-2.664,0.526-3.801,1.578c-1.139,1.052-1.708,2.359-1.708,3.92
	c0,1.995,0.695,3.748,2.085,5.259C19.097,22.764,20.656,23.52,22.383,23.52z"/>
<path fill="#FFFFFF" d="M20.497,12.327l0.202,0.55c0.367-0.159,0.695-0.252,0.989-0.281c0.293-0.029,0.575,0.019,0.846,0.142
	c0.212,0.09,0.393,0.205,0.54,0.343c0.148,0.138,0.25,0.284,0.307,0.437c0.062,0.17,0.056,0.351-0.019,0.541
	c-0.075,0.191-0.198,0.335-0.37,0.43c-0.322,0.18-0.597,0.117-0.825-0.189c-0.264-0.363-0.629-0.5-1.095-0.408l0.778,2.12
	c0.451-0.112,0.814-0.188,1.092-0.229c0.277-0.039,0.543-0.023,0.801,0.051c0.273,0.073,0.512,0.208,0.718,0.407
	c0.206,0.198,0.365,0.451,0.479,0.761c0.143,0.387,0.188,0.8,0.135,1.236c-0.051,0.437-0.21,0.856-0.474,1.262
	c-0.265,0.405-0.624,0.759-1.08,1.063l0.467,1.271c0.072,0.2,0.107,0.355,0.103,0.47c-0.003,0.112-0.07,0.204-0.198,0.276
	c-0.118,0.066-0.215,0.075-0.29,0.026c-0.075-0.048-0.142-0.15-0.198-0.306l-0.506-1.376c-0.401,0.17-0.773,0.265-1.113,0.282
	c-0.34,0.019-0.646-0.024-0.916-0.13c-0.271-0.104-0.494-0.246-0.671-0.424c-0.176-0.178-0.305-0.378-0.386-0.598
	c-0.06-0.164-0.053-0.345,0.023-0.545c0.076-0.199,0.205-0.351,0.39-0.453c0.148-0.083,0.287-0.118,0.414-0.103
	c0.129,0.014,0.237,0.075,0.324,0.182c0.19,0.229,0.346,0.399,0.467,0.511c0.12,0.11,0.269,0.189,0.448,0.238
	c0.178,0.048,0.389,0.042,0.633-0.017l-0.869-2.37c-0.488,0.121-0.908,0.186-1.261,0.197c-0.353,0.011-0.674-0.075-0.963-0.257
	c-0.289-0.184-0.516-0.499-0.681-0.947c-0.214-0.584-0.209-1.164,0.014-1.739c0.224-0.574,0.665-1.083,1.324-1.523l-0.198-0.541
	c-0.104-0.286-0.054-0.486,0.153-0.602C20.237,11.968,20.395,12.048,20.497,12.327z M21.153,16.174l-0.717-1.952
	c-0.245,0.239-0.419,0.472-0.523,0.697c-0.104,0.226-0.104,0.479-0.001,0.762c0.099,0.268,0.245,0.432,0.441,0.487
	C20.548,16.226,20.814,16.227,21.153,16.174z M22.336,17.337l0.818,2.232c0.307-0.254,0.514-0.535,0.619-0.843
	c0.104-0.31,0.106-0.601,0.006-0.875c-0.108-0.296-0.281-0.476-0.517-0.538C23.027,17.249,22.718,17.258,22.336,17.337z"/>
</svg>
