<?xml version="1.0" encoding="utf-8"?>
<!DOCTYPE svg PUBLIC "-//W3C//DTD SVG 1.1//EN" "http://www.w3.org/Graphics/SVG/1.1/DTD/svg11.dtd" [
	<!ENTITY ns_flows "http://ns.adobe.com/Flows/1.0/">
]>
<svg version="1.1"
	 xmlns="http://www.w3.org/2000/svg" xmlns:xlink="http://www.w3.org/1999/xlink"
	 x="0px" y="0px" width="48px" height="48px" viewBox="-2.978 -6.563 48 48">
<defs>
</defs>
<path fill="#F79523" d="M39.328,0H28.07v2.338h9.959c0.766,0,1.385,0.621,1.385,1.386L37.68,19.664c0,0.766-0.619,1.385-1.385,1.385
	H17.438c-0.766,0-1.385-0.619-1.385-1.385l-1.047-7.161c0,0-0.197-1.434-1.231-2.437c-0.867-0.839-3.698-0.916-3.698-0.916L0,9.162
	v2.542h9.334c0,0,1.372,0.169,2.181,0.832c0.677,0.555,1.032,1.578,1.032,1.578l0.993,6.675c0,0.958,1.642,2.6,2.599,2.6h21.457
	c0.957,0,2.598-1.642,2.598-2.6l1.733-18.19C41.926,1.642,40.284,0,39.328,0z"/>
<path fill="#C8691C" d="M39.328,0H28.07v2.338h9.959c0.766,0,1.385,0.621,1.385,1.386L37.68,19.664c0,0.766-0.619,1.385-1.385,1.385
	H25.234l0.524,2.34h11.837c0.957,0,2.598-1.642,2.598-2.6l1.733-18.19C41.926,1.642,40.284,0,39.328,0z"/>
<path fill="#43A4C7" d="M20.165,25.681c-2.476,0-4.483,2.007-4.483,4.482c0,2.475,2.007,4.483,4.483,4.483
	c2.476,0,4.481-2.009,4.481-4.483C24.646,27.688,22.64,25.681,20.165,25.681z M20.164,32.467c-1.273,0-2.304-1.031-2.304-2.304
	c0-1.271,1.031-2.303,2.304-2.303c1.271,0,2.303,1.031,2.303,2.303C22.467,31.436,21.436,32.467,20.164,32.467z"/>
<path fill="#3588A6" d="M31.897,25.682c-2.476,0-4.482,2.007-4.482,4.483c0,2.474,2.007,4.48,4.482,4.48s4.483-2.007,4.483-4.48
	C36.38,27.689,34.373,25.682,31.897,25.682z M31.896,32.467c-1.271,0-2.303-1.031-2.303-2.302c0-1.272,1.031-2.304,2.303-2.304
	c1.273,0,2.305,1.031,2.305,2.304C34.201,31.436,33.169,32.467,31.896,32.467z"/>
<rect x="19.884" y="15.967" fill="#52CAF5" width="14.227" height="2.76"/>
<polygon fill="#3588A6" points="34.111,18.727 24.071,18.727 23.025,15.967 34.111,15.967 "/>
<rect x="18.713" y="10.783" fill="#F79523" width="9.708" height="4.268"/>
<polygon fill="#C8691C" points="28.421,15.051 22.899,15.051 21.806,10.783 28.421,10.783 "/>
</svg>
