<?xml version="1.0" encoding="utf-8"?>
	<svg version="1.1"
	 xmlns="http://www.w3.org/2000/svg" xmlns:xlink="http://www.w3.org/1999/xlink"
	 x="0px" y="0px" width="48px" height="48px" viewBox="0 0 48 48">
<defs>
</defs>
<path fill="#F89624" d="M43.539,5.039H31.896l-1.441,3.658h10.201c1.996,0.333,1.441,1.775,1.441,2.55l-1.773,16.412
	c0,0.774-0.667,1.44-1.442,1.44H19.477c-0.775,0-1.441-0.666-1.441-1.44l-1.108-8.428c0,0-0.222-1.886-1.219-2.772
	c-0.998-0.775-3.771-0.775-3.771-0.775H1.625l0.222,3.77h8.316c0,0,1.44-0.11,1.996,0.333c0.666,0.554,0.555,1.331,0.555,1.331
	l1.22,8.427c0,1.22,1.995,3.216,3.215,3.216h24.172c1.221,0,2.883-2.44,2.883-3.549L46.312,9.03
	c0.443-2.106-1.552-3.881-2.439-3.881"/>
<path fill="#52CAF5" d="M22.804,33.535c-2.55,0-4.656,2.106-4.656,4.546s2.106,4.547,4.656,4.547c2.551,0,4.658-2.107,4.658-4.547
	S25.243,33.535,22.804,33.535"/>
<path fill="#52CAF5" d="M22.804,34.866c-1.773,0-3.215,1.441-3.215,3.215c0,1.775,1.441,3.216,3.215,3.216
	c1.775,0,3.216-1.44,3.216-3.216C26.02,36.308,24.579,34.866,22.804,34.866"/>
<path fill="#52CAF5" d="M35.001,33.646c-2.55,0-4.656,2.107-4.656,4.658c0,2.55,2.106,4.657,4.656,4.657
	c2.551,0,4.656-2.107,4.656-4.657C39.657,35.753,37.552,33.646,35.001,33.646"/>
<path fill="#52CAF5" d="M35.001,34.977c-1.773,0-3.215,1.441-3.215,3.216c0,1.773,1.441,3.216,3.215,3.216
	c1.774,0,3.216-1.442,3.216-3.216C38.217,36.418,36.775,34.977,35.001,34.977"/>
<rect x="22.028" y="23.778" fill="#56CAF5" width="14.636" height="2.882"/>
<rect x="20.254" y="16.68" fill="#56CAF5" width="13.417" height="5.877"/>
<path fill="#C86B28" d="M42.098,11.247l-1.773,16.412c0,0.774-0.667,1.44-1.442,1.44h-5.211l3.659,3.66h3.991
	c1.221,0,2.883-2.44,2.883-3.549L46.312,9.03c0.443-2.106-1.552-3.881-2.439-3.881l-0.333-0.11H31.896l-1.441,3.658h10.201
	C42.652,9.142,42.098,10.473,42.098,11.247z"/>
<polygon fill="#3689A6" points="20.365,17.68 20.254,17.68 20.254,19.231 "/>
</svg>
