<?xml version="1.0" encoding="utf-8"?>
<!-- Generator: Adobe Illustrator 15.0.0, SVG Export Plug-In  -->
<!DOCTYPE svg PUBLIC "-//W3C//DTD SVG 1.1//EN" "http://www.w3.org/Graphics/SVG/1.1/DTD/svg11.dtd" [
	<!ENTITY ns_flows "http://ns.adobe.com/Flows/1.0/">
]>
<svg version="1.1"
	 xmlns="http://www.w3.org/2000/svg" x="0px" y="0px" width="48px" height="48px" viewBox="-2.389 -3.931 48 48">
<defs>
</defs>
<path d="M12.161,19.213l2.599,0.891l5.753,12.158l-0.245,6.709c0,0,1.625,1.824,3.487,0.91c1.861-0.91,4.293-3.974,4.215-6.32
	c-0.082-2.352-1.783-8.674-1.783-8.674h13.617c0,0,3.244-0.568,3.408-3.488c0.157-2.918-1.785-3.566-1.785-3.566
	s1.863-0.646,1.701-3.24c-0.164-2.598-2.594-2.92-2.594-2.92s1.135-1.867,0.566-3.324c-0.566-1.46-2.514-2.354-2.514-2.354
	s1.215-1.134,0.566-2.916c-0.646-1.784-2.432-2.673-2.432-2.673s-17.67-0.327-18.97-0.248c-1.293,0.082-5.593,1.38-5.593,1.38V0H0
	v20.912h12.161V19.213z"/>
</svg>
