<?xml version="1.0" encoding="utf-8"?>
<svg version="1.1"
	 xmlns="http://www.w3.org/2000/svg" x="0px" y="0px" width="28px" height="28px" viewBox="-0.962 -2.001 28 28">
<defs>
</defs>
<path d="M9.27,19.961l5.989-6.122L8.13,8.31l4.082-5.455c-0.591-0.734-1.478-1.613-2.624-2.111C2.792-2.211-2.559,4.777,1.29,10.993
	C3.529,14.611,5.974,16.66,9.27,19.961z"/>
<path d="M16.539,0.745c-1.038,0.6-3.162,2.999-3.443,3.323L11.186,8.02l7.275,5.673L9.79,20.486
	c1.007,1.023,2.088,2.164,3.271,3.511c0,0,5.427-4.229,10.995-12.306C30.054,2.994,21.226-1.974,16.539,0.745z"/>
</svg>
