<?xml version="1.0" encoding="utf-8"?>
<!-- Generator: Adobe Illustrator 15.0.0, SVG Export Plug-In  -->
<!DOCTYPE svg PUBLIC "-//W3C//DTD SVG 1.1//EN" "http://www.w3.org/Graphics/SVG/1.1/DTD/svg11.dtd" [
	<!ENTITY ns_flows "http://ns.adobe.com/Flows/1.0/">
]>
<svg version="1.1"
	 xmlns="http://www.w3.org/2000/svg" x="0px" y="0px" width="48px" height="48px" viewBox="-2.389 -3.931 48 48"
	 xml:space="preserve">
<defs>
</defs>
<path d="M12.161,20.924l2.599-0.891l5.753-12.159l-0.245-6.709c0,0,1.625-1.823,3.487-0.909c1.861,0.909,4.293,3.973,4.215,6.321
	c-0.082,2.351-1.783,8.674-1.783,8.674h13.617c0,0,3.244,0.567,3.408,3.487c0.157,2.918-1.785,3.566-1.785,3.566
	s1.863,0.646,1.701,3.24c-0.164,2.599-2.594,2.92-2.594,2.92s1.135,1.867,0.566,3.324c-0.566,1.461-2.514,2.354-2.514,2.354
	s1.215,1.134,0.566,2.916c-0.646,1.784-2.432,2.673-2.432,2.673s-17.67,0.327-18.97,0.248c-1.293-0.082-5.593-1.38-5.593-1.38v1.538
	H0V19.227h12.161V20.924z"/>
</svg>
