<?xml version="1.0" encoding="utf-8"?>
<!DOCTYPE svg PUBLIC "-//W3C//DTD SVG 1.1//EN" "http://www.w3.org/Graphics/SVG/1.1/DTD/svg11.dtd" [
	<!ENTITY ns_flows "http://ns.adobe.com/Flows/1.0/">
]>
<svg version="1.1"
	 xmlns="http://www.w3.org/2000/svg" x="0px" y="0px" width="48px" height="48px" viewBox="-8.386 -2.255 48 48">
<defs>
</defs>
<path d="M33.893,32.5L28.5,7.315v29.399l3.038-0.65C33.144,35.689,34.168,34.105,33.893,32.5z"/>
<path d="M24.75,2.697c1.317,0,2.44,0.626,3.105,1.607l-0.408-1.905c-0.376-1.605-1.961-2.63-3.564-2.354L11.754,2.697H24.75z"/>
<path d="M22,5.687H3c-1.7,0-3,1.3-3,3v30.799c0,1.701,1.3,3,3,3h19c1.7,0,3-1.299,3-3V8.687C25,6.987,23.7,5.687,22,5.687z
	 M15.307,35.365H5.506v-1.301h9.801V35.365z M20.006,29.865h-14.5v-1.301h14.5V29.865z M20.006,24.364h-14.5v-1.299h14.5V24.364z
	 M20.006,18.865h-14.5v-1.3h14.5V18.865z M20.006,13.365h-14.5v-1.3h14.5V13.365z"/>
</svg>
