<?xml version="1.0" encoding="utf-8"?>
<!DOCTYPE svg PUBLIC "-//W3C//DTD SVG 1.1//EN" "http://www.w3.org/Graphics/SVG/1.1/DTD/svg11.dtd" [
	<!ENTITY ns_flows "http://ns.adobe.com/Flows/1.0/">
]>
<svg version="1.1"
	 xmlns="http://www.w3.org/2000/svg" x="0px" y="0px" width="48px" height="48px" viewBox="-4.959 -4.26 48 48">
<defs>
</defs>
<path d="M34.553,0H3.53C1.58,0,0,1.581,0,3.53v32.421C0,37.9,1.58,39.48,3.53,39.48h31.023
	c1.95,0,3.529-1.58,3.529-3.529V3.53C38.082,1.581,36.503,0,34.553,0z M17.64,32.063H3.521v-1.178H17.64V32.063z M17.64,28.141
	H3.521v-1.177H17.64V28.141z M17.64,24.218H3.521v-1.177H17.64V24.218z M17.64,20.295H3.521v-1.176H17.64V20.295z M34.7,32.063
	H20.581v-1.178H34.7V32.063z M34.7,28.141H20.581v-1.177H34.7V28.141z M34.7,24.218H20.581v-1.177H34.7V24.218z M34.7,20.295H20.581
	v-1.176H34.7V20.295z M34.7,12.707c0,1.1-0.9,2-2,2H5.521c-1.1,0-2-0.9-2-2V5.824c0-1.1,0.9-2,2-2H32.7c1.1,0,2,0.9,2,2V12.707z"/>
</svg>
