<?xml version="1.0" encoding="utf-8"?>
<!-- Generator: Adobe Illustrator 15.0.0, SVG Export Plug-In  -->
<!DOCTYPE svg PUBLIC "-//W3C//DTD SVG 1.1//EN" "http://www.w3.org/Graphics/SVG/1.1/DTD/svg11.dtd" [
	<!ENTITY ns_flows "http://ns.adobe.com/Flows/1.0/">
]>
<svg version="1.1"
	 xmlns="http://www.w3.org/2000/svg" x="0px" y="0px" width="48px" height="48px" viewBox="-3.788 -4.386 48 48"
	 xml:space="preserve">
<defs>
</defs>
<path d="M24.41,24.547h-1.812c-0.144-0.648-0.349-1.273-0.608-1.87l1.499-1.05c0.507-0.354,0.63-1.052,0.276-1.56l-1.09-1.553
	c-0.354-0.507-1.051-0.629-1.559-0.275l-1.535,1.076c-0.474-0.436-0.988-0.825-1.539-1.165l0.645-1.774
	c0.214-0.581-0.086-1.223-0.668-1.436l-1.779-0.648c-0.581-0.211-1.223,0.089-1.437,0.669l-0.649,1.788
	c-0.456-0.063-0.917-0.107-1.391-0.107c-0.178,0-0.349,0.018-0.522,0.027l-0.494-1.841c-0.16-0.597-0.774-0.952-1.371-0.792
	L8.546,14.53c-0.598,0.159-0.951,0.772-0.792,1.371l0.489,1.825c-0.578,0.292-1.123,0.635-1.63,1.028l-1.44-1.208
	c-0.475-0.398-1.18-0.335-1.578,0.138l-1.218,1.452c-0.398,0.473-0.335,1.179,0.139,1.578l1.406,1.18
	c-0.45,0.821-0.785,1.714-0.99,2.655H1.119C0.501,24.547,0,25.048,0,25.667v1.896c0,0.619,0.501,1.119,1.119,1.119h1.763
	c0.132,0.666,0.328,1.31,0.584,1.922L2.039,31.6c-0.506,0.355-0.629,1.053-0.274,1.561l1.088,1.552
	c0.354,0.508,1.052,0.63,1.559,0.274l1.403-0.981c0.49,0.47,1.029,0.884,1.606,1.247L6.84,36.85
	c-0.212,0.582,0.088,1.224,0.669,1.437l1.779,0.647c0.582,0.211,1.226-0.089,1.437-0.67l0.576-1.584
	c0.479,0.068,0.965,0.118,1.464,0.118c0.196,0,0.388-0.019,0.582-0.03l0.436,1.631c0.16,0.598,0.774,0.949,1.372,0.791l1.83-0.49
	c0.598-0.16,0.952-0.774,0.792-1.371l-0.438-1.637c0.606-0.313,1.184-0.681,1.712-1.104l1.307,1.096
	c0.474,0.396,1.179,0.336,1.577-0.14l1.218-1.451c0.397-0.474,0.336-1.179-0.138-1.577l-1.329-1.117
	c0.44-0.842,0.771-1.754,0.961-2.717h1.763c0.619,0,1.121-0.502,1.121-1.119v-1.896C25.529,25.048,25.027,24.547,24.41,24.547
	 M12.765,32.852c-3.444,0-6.237-2.793-6.237-6.237s2.793-6.237,6.237-6.237c3.446,0,6.238,2.793,6.238,6.237
	S16.211,32.852,12.765,32.852"/>
<path d="M39.751,28.375h-1.086c-0.086-0.39-0.209-0.765-0.365-1.122l0.898-0.63c0.305-0.212,0.379-0.631,0.164-0.935l-0.65-0.933
	c-0.213-0.305-0.631-0.378-0.938-0.165l-0.92,0.646c-0.285-0.262-0.594-0.495-0.924-0.698l0.387-1.065
	c0.127-0.349-0.051-0.732-0.4-0.861l-1.066-0.39c-0.35-0.126-0.732,0.055-0.863,0.402l-0.389,1.073
	c-0.273-0.038-0.551-0.064-0.834-0.064c-0.105,0-0.209,0.011-0.314,0.017l-0.295-1.104c-0.096-0.358-0.465-0.57-0.822-0.476
	l-1.1,0.296c-0.357,0.095-0.57,0.464-0.477,0.821l0.295,1.096c-0.348,0.175-0.674,0.381-0.979,0.616l-0.863-0.726
	c-0.285-0.238-0.709-0.201-0.947,0.084l-0.73,0.87c-0.238,0.284-0.201,0.707,0.082,0.946l0.844,0.707
	c-0.27,0.493-0.471,1.028-0.594,1.594h-1.086c-0.371,0-0.674,0.301-0.674,0.672v1.138c0,0.371,0.303,0.672,0.674,0.672h1.057
	c0.08,0.399,0.197,0.785,0.352,1.151l-0.855,0.601c-0.305,0.213-0.379,0.631-0.164,0.936l0.65,0.932
	c0.213,0.305,0.633,0.377,0.938,0.164l0.842-0.589c0.293,0.281,0.617,0.529,0.963,0.747l-0.35,0.96
	c-0.125,0.349,0.055,0.733,0.402,0.861l1.066,0.39c0.35,0.126,0.734-0.055,0.861-0.402l0.346-0.949
	c0.289,0.041,0.58,0.07,0.879,0.07c0.117,0,0.232-0.012,0.352-0.019l0.26,0.979c0.098,0.357,0.465,0.568,0.824,0.475l1.098-0.294
	c0.357-0.097,0.572-0.466,0.475-0.823l-0.262-0.98c0.363-0.188,0.711-0.408,1.027-0.662l0.785,0.656
	c0.281,0.237,0.705,0.201,0.943-0.084l0.73-0.869c0.238-0.285,0.201-0.709-0.082-0.947l-0.797-0.67
	c0.266-0.506,0.461-1.053,0.576-1.631h1.057c0.373,0,0.674-0.301,0.674-0.672v-1.138C40.423,28.674,40.123,28.375,39.751,28.375
	 M32.765,33.358c-2.066,0-3.744-1.676-3.744-3.743s1.678-3.743,3.744-3.743s3.742,1.676,3.742,3.743S34.832,33.358,32.765,33.358"/>
<path d="M38.796,8.771h-1.506c-0.119-0.539-0.289-1.059-0.506-1.555l1.248-0.873c0.42-0.294,0.521-0.875,0.229-1.296l-0.906-1.292
	c-0.295-0.421-0.873-0.523-1.295-0.229l-1.275,0.895c-0.396-0.362-0.822-0.687-1.281-0.969l0.537-1.475
	c0.176-0.483-0.072-1.017-0.557-1.194l-1.479-0.539c-0.484-0.176-1.018,0.075-1.195,0.557l-0.539,1.487
	c-0.379-0.053-0.764-0.089-1.156-0.089c-0.146,0-0.289,0.015-0.436,0.022l-0.41-1.531c-0.133-0.497-0.645-0.792-1.141-0.658
	L25.605,0.44c-0.496,0.132-0.791,0.643-0.658,1.14l0.406,1.518c-0.479,0.242-0.934,0.528-1.355,0.854l-1.195-1.005
	c-0.396-0.331-0.981-0.279-1.313,0.115L20.477,4.27c-0.331,0.393-0.278,0.98,0.114,1.312l1.17,0.981
	c-0.374,0.683-0.652,1.425-0.823,2.208h-1.507c-0.514,0-0.931,0.417-0.931,0.931v1.576c0,0.514,0.417,0.931,0.931,0.931h1.466
	c0.108,0.554,0.272,1.088,0.485,1.597l-1.188,0.83c-0.421,0.295-0.522,0.875-0.228,1.297l0.904,1.29
	c0.295,0.422,0.875,0.524,1.295,0.229l1.168-0.816c0.408,0.39,0.854,0.735,1.336,1.037L24.187,19
	c-0.175,0.483,0.074,1.017,0.559,1.194l1.479,0.538c0.482,0.176,1.018-0.072,1.193-0.557l0.479-1.317
	c0.398,0.058,0.803,0.099,1.217,0.099c0.164,0,0.322-0.016,0.484-0.025l0.361,1.355c0.135,0.497,0.645,0.79,1.143,0.658l1.521-0.408
	c0.496-0.134,0.791-0.645,0.656-1.141l-0.361-1.361c0.504-0.259,0.982-0.565,1.422-0.917l1.088,0.91
	c0.393,0.331,0.98,0.279,1.311-0.115l1.014-1.207c0.33-0.394,0.279-0.98-0.113-1.312l-1.105-0.929
	c0.367-0.699,0.641-1.458,0.799-2.259h1.467c0.514,0,0.932-0.417,0.932-0.931V9.701C39.728,9.187,39.312,8.771,38.796,8.771
	 M29.113,15.675c-2.863,0-5.188-2.322-5.188-5.187c0-2.865,2.322-5.187,5.188-5.187c2.867,0,5.189,2.322,5.189,5.187
	C34.302,13.353,31.978,15.675,29.113,15.675"/>
</svg>
