<?xml version="1.0" encoding="utf-8"?>
<!-- Generator: Adobe Illustrator 15.0.0, SVG Export Plug-In  -->
<!DOCTYPE svg PUBLIC "-//W3C//DTD SVG 1.1//EN" "http://www.w3.org/Graphics/SVG/1.1/DTD/svg11.dtd" [
	<!ENTITY ns_flows "http://ns.adobe.com/Flows/1.0/">
]>
<svg version="1.1"
	 xmlns="http://www.w3.org/2000/svg" x="0px" y="0px" width="48px" height="48px" viewBox="-6.05 -3.9 48 48"
	 xml:space="preserve">
<defs>
</defs>
<path d="M31.8,26.346V13.854C34.226,12.667,35.9,10.182,35.9,7.3C35.9,3.269,32.632,0,28.6,0c-4.031,0-7.3,3.269-7.3,7.3
	c0,0.342,0.031,0.676,0.077,1.005l-10.085,6.788C10.145,14.341,8.774,13.9,7.3,13.9c-4.031,0-7.3,3.269-7.3,7.3S3.269,28.5,7.3,28.5
	c2.008,0,3.826-0.813,5.146-2.123l8.882,5.979c-0.014,0.18-0.027,0.361-0.027,0.545c0,4.031,3.269,7.299,7.3,7.299
	c4.032,0,7.301-3.268,7.301-7.299C35.9,30.018,34.226,27.534,31.8,26.346z M14.37,19.41l9.604-6.464
	c0.735,0.604,1.592,1.064,2.526,1.344v11.619c-1.072,0.322-2.037,0.887-2.84,1.627l-9.072-6.105c0.002-0.077,0.012-0.152,0.012-0.23
	C14.6,20.581,14.515,19.984,14.37,19.41z"/>
</svg>
