<?xml version="1.0" encoding="utf-8"?>
<!-- Generator: Adobe Illustrator 15.0.0, SVG Export Plug-In  -->
<!DOCTYPE svg PUBLIC "-//W3C//DTD SVG 1.1//EN" "http://www.w3.org/Graphics/SVG/1.1/DTD/svg11.dtd" [
	<!ENTITY ns_flows "http://ns.adobe.com/Flows/1.0/">
]>
<svg version="1.1"
	 xmlns="http://www.w3.org/2000/svg" x="0px" y="0px" width="48px" height="48px" viewBox="-3.7 0 48 48">
<defs>
</defs>
<polygon points="0,0 0,39 3.2,39 3.2,3.9 28.5,3.9 28.5,39 31.7,39 31.7,0 "/>
<path d="M4.5,5.2V39l16.899-4.8v-29H4.5z M14.613,15.382l-6.907,0.574l-0.15-5.693l6.874-0.249l0.003-2.925l4.918,5.046
	l-4.657,6.038L14.613,15.382z M19,21.5c-0.939,0-1.7-0.761-1.7-1.7c0-0.938,0.761-1.7,1.7-1.7c0.938,0,1.7,0.761,1.7,1.7
	C20.7,20.739,19.938,21.5,19,21.5z"/>
</svg>
