<?xml version="1.0" encoding="utf-8"?>
<!-- Generator: Adobe Illustrator 16.0.0, SVG Export Plug-In . SVG Version: 6.00 Build 0)  -->
<!DOCTYPE svg PUBLIC "-//W3C//DTD SVG 1.1//EN" "http://www.w3.org/Graphics/SVG/1.1/DTD/svg11.dtd">
<svg version="1.1" id="Layer_1" xmlns="http://www.w3.org/2000/svg" xmlns:xlink="http://www.w3.org/1999/xlink" x="0px" y="0px"
	 width="48px" height="48px" viewBox="-13 -14 48 48" enable-background="new -13 -14 48 48" xml:space="preserve">
<path fill="#FFFFFF" d="M-4.852,30.99v-41.98h15.756c3.199,0,5.775,0.426,7.711,1.274c1.936,0.849,3.457,2.158,4.547,3.927
	c1.107,1.765,1.652,3.615,1.652,5.539c0,1.798-0.492,3.486-1.453,5.068c-0.975,1.586-2.449,2.864-4.414,3.84
	c2.537,0.744,4.488,2.016,5.857,3.804c1.363,1.797,2.047,3.914,2.047,6.361c0,1.964-0.418,3.795-1.246,5.479
	c-0.828,1.698-1.863,2.998-3.08,3.907c-1.227,0.923-2.756,1.614-4.592,2.075c-1.855,0.477-4.103,0.703-6.776,0.703h-16.01V30.99z
	 M0.698,6.653h9.083c2.465,0,4.233-0.161,5.301-0.482c1.412-0.423,2.471-1.122,3.188-2.09c0.719-0.976,1.084-2.198,1.084-3.666
	c0-1.394-0.344-2.62-1.008-3.682c-0.67-1.055-1.629-1.782-2.857-2.172c-1.245-0.391-3.375-0.587-6.394-0.587H0.698V6.653z
	 M0.698,26.042h10.46c1.796,0,3.057-0.07,3.778-0.21c1.275-0.224,2.355-0.607,3.205-1.139c0.859-0.531,1.568-1.313,2.117-2.335
	c0.559-1.021,0.838-2.194,0.838-3.536c0-1.566-0.404-2.922-1.211-4.083c-0.797-1.151-1.912-1.963-3.334-2.432
	c-1.416-0.465-3.475-0.699-6.138-0.699H0.698V26.042z"/>
</svg>
