<?xml version="1.0" encoding="utf-8"?>
<!-- Generator: Adobe Illustrator 16.0.0, SVG Export Plug-In . SVG Version: 6.00 Build 0)  -->
<!DOCTYPE svg PUBLIC "-//W3C//DTD SVG 1.1//EN" "http://www.w3.org/Graphics/SVG/1.1/DTD/svg11.dtd">
<svg version="1.1" id="Layer_1" xmlns="http://www.w3.org/2000/svg" xmlns:xlink="http://www.w3.org/1999/xlink" x="0px" y="0px"
	 width="48px" height="48px" viewBox="0 0 48 48" enable-background="new 0 0 48 48" xml:space="preserve">
<path fill="#FFFFFF" d="M31.854,42.281c-1.84,3.109-5.535,4.324-8.269,2.709L5.811,34.49c-2.724-1.611-3.453-5.438-1.614-8.541
	L16.149,5.708c1.834-3.104,5.531-4.312,8.259-2.697l17.777,10.494c2.733,1.613,3.453,5.44,1.621,8.543L31.854,42.281z"/>
<path fill="#838484" d="M26.231,45.955c-0.984,0-1.944-0.259-2.773-0.75l-17.774-10.5c-1.381-0.816-2.318-2.194-2.637-3.88
	c-0.317-1.675,0.015-3.451,0.935-5.004l11.952-20.24c1.289-2.182,3.521-3.537,5.826-3.537c0.986,0,1.946,0.26,2.775,0.751
	L42.313,13.29c1.384,0.817,2.322,2.195,2.642,3.882c0.316,1.672-0.015,3.45-0.933,5.003L32.068,42.408
	C30.774,44.596,28.537,45.955,26.231,45.955z M21.76,2.544c-2.129,0-4.196,1.261-5.396,3.291L4.412,26.076
	c-0.858,1.448-1.168,3.102-0.874,4.656c0.292,1.542,1.144,2.8,2.4,3.543l17.773,10.5c0.764,0.451,1.611,0.68,2.52,0.68
	c2.13,0,4.202-1.265,5.407-3.301l11.953-20.233c0.855-1.45,1.165-3.104,0.871-4.657c-0.292-1.542-1.146-2.801-2.404-3.544
	L24.281,3.226C23.517,2.774,22.669,2.544,21.76,2.544z"/>
<path fill="#F5F5F6" d="M30.286,38.625c-1.47,2.484-4.429,3.455-6.612,2.158L9.45,32.391c-2.178-1.289-2.764-4.348-1.29-6.824
	l9.56-16.197c1.465-2.479,4.43-3.452,6.606-2.162l14.221,8.396c2.188,1.291,2.768,4.354,1.299,6.833L30.286,38.625z"/>
<path fill="#2B5198" d="M29.943,15.076H22.45c0,0-7.919,0.668-7.919,8.611c0,8.456,8.032,8.761,8.032,8.761h7.612v-4.882h-7.946
	c0,0-2.67-0.309-2.67-3.776c0-3.324,2.894-3.49,2.894-3.49h7.268L29.943,15.076z"/>
</svg>
