<?xml version="1.0" encoding="utf-8"?>
<!-- Generator: Adobe Illustrator 16.0.0, SVG Export Plug-In . SVG Version: 6.00 Build 0)  -->
<!DOCTYPE svg PUBLIC "-//W3C//DTD SVG 1.1//EN" "http://www.w3.org/Graphics/SVG/1.1/DTD/svg11.dtd">
<svg version="1.1" id="Layer_1" xmlns="http://www.w3.org/2000/svg" xmlns:xlink="http://www.w3.org/1999/xlink" x="0px" y="0px"
	 width="48px" height="48px" viewBox="2.5 -7.5 48 48" enable-background="new 2.5 -7.5 48 48" xml:space="preserve">
<g>
	<rect x="16.948" y="5.883" fill="#FFFFFF" width="31.383" height="2.73"/>
	<path fill="#FFFFFF" d="M11.942,7.247c0,2.012-1.626,3.64-3.637,3.64l0,0c-2.012,0-3.636-1.629-3.636-3.64l0,0
		c0-2.005,1.626-3.637,3.636-3.637l0,0C10.316,3.609,11.942,5.242,11.942,7.247L11.942,7.247z"/>
	<rect x="16.948" y="15.144" fill="#FFFFFF" width="31.383" height="2.73"/>
	<path fill="#FFFFFF" d="M11.942,16.51c0,2.012-1.626,3.635-3.637,3.635l0,0c-2.012,0-3.636-1.626-3.636-3.635l0,0
		c0-2.012,1.626-3.637,3.636-3.637l0,0C10.316,12.873,11.942,14.498,11.942,16.51L11.942,16.51z"/>
	<rect x="16.948" y="24.392" fill="#FFFFFF" width="31.383" height="2.729"/>
	<path fill="#FFFFFF" d="M11.942,25.758c0,2.005-1.626,3.633-3.637,3.633l0,0c-2.012,0-3.636-1.63-3.636-3.633l0,0
		c0-2.013,1.626-3.643,3.636-3.643l0,0C10.316,22.115,11.942,23.745,11.942,25.758L11.942,25.758z"/>
</g>
</svg>
