<?xml version="1.0" encoding="utf-8"?>
<!-- Generator: Adobe Illustrator 16.0.0, SVG Export Plug-In . SVG Version: 6.00 Build 0)  -->
<!DOCTYPE svg PUBLIC "-//W3C//DTD SVG 1.1//EN" "http://www.w3.org/Graphics/SVG/1.1/DTD/svg11.dtd">
<svg version="1.1" id="Layer_1" xmlns="http://www.w3.org/2000/svg" xmlns:xlink="http://www.w3.org/1999/xlink" x="0px" y="0px"
	 width="48px" height="48px" viewBox="2.5 -7.5 48 48" enable-background="new 2.5 -7.5 48 48" xml:space="preserve">
<g>
	<path fill="#BCBEC0" d="M38.171,13.033c0-7.075-7.46-12.806-16.674-12.806c-9.203,0-16.665,5.73-16.665,12.806
		c0,4.981,3.717,9.298,9.133,11.407l-1.664,8.332l10.243-6.98C31.269,25.374,38.171,19.831,38.171,13.033z"/>
	<path fill="#FFFFFF" d="M48.168,13.033c0-7.075-7.469-12.806-16.676-12.806c-9.208,0-16.669,5.73-16.669,12.806
		c0,4.981,3.709,9.298,9.133,11.407l-1.672,8.332l10.251-6.98C41.26,25.374,48.168,19.831,48.168,13.033z"/>
</g>
</svg>
