<?xml version="1.0" encoding="utf-8"?>
<svg version="1.1"
	 xmlns="http://www.w3.org/2000/svg" xmlns:xlink="http://www.w3.org/1999/xlink"
	 x="0px" y="0px" width="48px" height="48px" viewBox="-2.368 -4.162 48 48">
<defs>
</defs>
<path fill="#F79523" d="M22.712,38.804h20.694V0H22.712V38.804z M40.302,3.099v32.606H25.816V3.099H40.302z"/>
<rect x="27.423" y="24.159" fill="#3588A6" width="11.074" height="1.478"/>
<rect x="27.423" y="27.587" fill="#3588A6" width="11.073" height="1.476"/>
<rect x="27.423" y="31.015" fill="#3588A6" width="5.696" height="1.477"/>
<path fill="#F79523" d="M1.633,20.443C2.092,12.95,7.318,6.893,14.175,5.009l-0.036-4.132l8.468,8.37l-8.322,8.197l-0.037-4.183
	c-6.97,2.233-10.201,7.195-9.596,14.376c0.131,1.573,0.353,3.01,0.646,4.446C2.78,28.896,1.364,24.818,1.633,20.443z"/>
<path fill="#C8691C" d="M22.607,9.246l-8.322,8.197l-0.037-4.183c-6.97,2.233-10.201,7.195-9.596,14.376
	c0.131,1.573,0.353,3.01,0.646,4.446C-3.431,7.021,22.607,9.246,22.607,9.246z"/>
<rect x="27.78" y="4.902" fill="#3588A6" width="5.772" height="6.335"/>
<path fill="#3588A6" d="M20.543,29.416c0.03,0.095,0.052,0.189,0.052,0.287c0,1.377-3.286,2.493-7.34,2.493
	c-4.055,0-7.341-1.116-7.341-2.493c0-0.098,0.02-0.192,0.053-0.287C2.789,31.489,0.54,34.872,0,38.803h26.511
	C25.97,34.872,23.722,31.489,20.543,29.416z"/>
<ellipse fill="#3588A6" cx="13.255" cy="22.678" rx="6.369" ry="6.698"/>
<path fill="#52CAF5" d="M11.315,32.107c-3.112-0.29-5.4-1.257-5.4-2.404c0-0.098,0.02-0.192,0.053-0.287
	C2.789,31.489,0.54,34.872,0,38.803h15.34L11.315,32.107z"/>
</svg>
