<?xml version="1.0" encoding="utf-8"?>
<svg version="1.1"
	 xmlns="http://www.w3.org/2000/svg" xmlns:xlink="http://www.w3.org/1999/xlink"
	 x="0px" y="0px" width="48px" height="48px" viewBox="-3.808 -5.383 48 48">
<defs>
</defs>
<rect x="15.797" y="30.796" fill="#C8691C" width="8.791" height="5.001"/>
<path fill="#F79523" d="M38.441,0H1.943C0.87,0,0,0.87,0,1.943v27.238c0,1.073,0.87,1.943,1.943,1.943h36.498
	c1.073,0,1.943-0.87,1.943-1.943V1.943C40.385,0.87,39.515,0,38.441,0z M38.131,27.288c0,1.02-0.438,1.459-1.458,1.459H3.712
	c-1.02,0-1.458-0.439-1.458-1.459V3.637c0-1.02,0.438-1.459,1.458-1.459h32.961c1.02,0,1.458,0.439,1.458,1.459V27.288z"/>
<path fill="#F79523" d="M24.922,35.506h-9.46c-1.093,0-1.979,0.887-1.979,1.98h13.42C26.902,36.393,26.016,35.506,24.922,35.506z"/>
<rect x="6.747" y="6.159" fill="#3588A6" width="27.916" height="7.236"/>
<path fill="#3588A6" d="M30.037,18.159c-1.081,0-1.958-0.877-1.958-1.958h-14.67c0,0.014,0.004,0.027,0.004,0.042
	c0,1.082-0.877,1.958-1.958,1.958c-0.042,0-0.083-0.01-0.125-0.013v6.942c0.042-0.003,0.082-0.013,0.125-0.013
	c1.067,0,1.931,0.854,1.954,1.917h14.652c0-0.007-0.002-0.014-0.002-0.021c0-1.081,0.877-1.958,1.958-1.958
	c0.021,0,0.042,0.006,0.063,0.007v-6.908C30.065,18.155,30.052,18.159,30.037,18.159z"/>
<path fill="#FFFFFF" d="M20.392,26.483v-0.707c-0.621,0-1.325-0.152-2.11-0.453v-0.973c0.816,0.395,1.52,0.592,2.11,0.592v-3.088
	l-0.42-0.275c-1.016-0.684-1.524-1.42-1.524-2.215c0-0.57,0.186-1.05,0.558-1.439c0.372-0.389,0.856-0.609,1.455-0.659v-0.713h0.707
	v0.713c0.567,0.035,1.147,0.158,1.742,0.372v0.927c-0.556-0.276-1.137-0.446-1.742-0.511v3.048l0.385,0.229
	c1.051,0.617,1.576,1.348,1.576,2.191c0,0.602-0.184,1.107-0.553,1.514c-0.367,0.408-0.86,0.656-1.477,0.74v0.707H20.392z
	 M20.461,20.653v-2.535c-0.284,0.034-0.516,0.166-0.696,0.392c-0.18,0.228-0.271,0.5-0.271,0.821c0,0.414,0.242,0.797,0.724,1.15
	L20.461,20.653z M21.099,24.925c0.663-0.146,0.995-0.57,0.995-1.275c0-0.457-0.246-0.854-0.736-1.191l-0.258-0.184V24.925z"/>
<g>
	<g>
		<polyline fill="none" stroke="#F79523" stroke-miterlimit="10" points="36.291,13.148 36.291,14.648 34.791,14.648 		"/>
		
			<line fill="none" stroke="#F79523" stroke-miterlimit="10" stroke-dasharray="3.1302,3.1302" x1="31.661" y1="14.648" x2="8.184" y2="14.648"/>
		<polyline fill="none" stroke="#F79523" stroke-miterlimit="10" points="6.619,14.648 5.119,14.648 5.119,13.148 		"/>
		
			<line fill="none" stroke="#F79523" stroke-miterlimit="10" stroke-dasharray="2.2935,2.2935" x1="5.119" y1="10.854" x2="5.119" y2="7.414"/>
		<polyline fill="none" stroke="#F79523" stroke-miterlimit="10" points="5.119,6.268 5.119,4.768 6.619,4.768 		"/>
		
			<line fill="none" stroke="#F79523" stroke-miterlimit="10" stroke-dasharray="3.1302,3.1302" x1="9.75" y1="4.768" x2="33.226" y2="4.768"/>
		<polyline fill="none" stroke="#F79523" stroke-miterlimit="10" points="34.791,4.768 36.291,4.768 36.291,6.268 		"/>
		
			<line fill="none" stroke="#F79523" stroke-miterlimit="10" stroke-dasharray="2.2935,2.2935" x1="36.291" y1="8.561" x2="36.291" y2="12.001"/>
	</g>
</g>
</svg>
