<?xml version="1.0" encoding="utf-8"?>
<svg version="1.1"
	 xmlns="http://www.w3.org/2000/svg" xmlns:xlink="http://www.w3.org/1999/xlink"
	 x="0px" y="0px" width="48px" height="48px" viewBox="-2.511 -2.011 48 48">
<defs>
</defs>
<polygon fill="#F79523" points="0,34.223 0,12.203 20.693,0 42.979,12.203 42.979,34.223 39.81,34.223 39.81,14.326 20.958,4.51 
	3.714,14.061 3.714,34.223 "/>
<rect x="0.134" y="36.019" fill="#C8691C" width="42.712" height="1.592"/>
<rect x="1.327" y="39.203" fill="#C8691C" width="40.325" height="1.592"/>
<rect x="2.39" y="42.386" fill="#C8691C" width="38.2" height="1.592"/>
<path fill="#3588A6" d="M29.634,23.651c0.036,0.106,0.06,0.213,0.06,0.322c0,1.552-3.701,2.81-8.267,2.81
	c-4.566,0-8.267-1.258-8.267-2.81c0-0.109,0.023-0.216,0.06-0.322c-3.58,2.334-6.113,6.143-6.721,10.572h29.856
	C35.746,29.793,33.214,25.985,29.634,23.651z"/>
<ellipse fill="#3588A6" cx="21.427" cy="16.063" rx="7.174" ry="7.543"/>
<path fill="#52CAF5" d="M19.241,26.68c-3.503-0.326-6.081-1.414-6.081-2.707c0-0.109,0.023-0.216,0.06-0.322
	c-3.58,2.334-6.113,6.143-6.721,10.572h17.276L19.241,26.68z"/>
</svg>
