<?xml version="1.0" encoding="utf-8"?>
<svg version="1.1"
	 xmlns="http://www.w3.org/2000/svg" xmlns:xlink="http://www.w3.org/1999/xlink"
	 x="0px" y="0px" width="48px" height="48px" viewBox="-3.862 -2.642 48 48">
<defs>
</defs>
<path fill="#FFFFFF" stroke="#838484" stroke-width="2" stroke-miterlimit="10" d="M29.626,37.23
	c-1.662,2.811-5.015,3.911-7.487,2.448L6.035,30.167c-2.47-1.46-3.13-4.924-1.467-7.738L15.397,4.095
	c1.662-2.811,5.014-3.909,7.484-2.449l16.104,9.51c2.473,1.461,3.131,4.925,1.469,7.739L29.626,37.23z"/>
<linearGradient id="SVGID_1_" gradientUnits="userSpaceOnUse" x1="17.998" y1="28.6724" x2="29.0202" y2="9.1067">
	<stop  offset="0" style="stop-color:#FFFFFF"/>
	<stop  offset="1" style="stop-color:#E9EAEB"/>
</linearGradient>
<path fill="url(#SVGID_1_)" d="M28.204,33.915c-1.33,2.251-4.013,3.13-5.989,1.96L9.329,28.268c-1.975-1.17-2.503-3.938-1.172-6.189
	l8.664-14.67c1.329-2.249,4.011-3.126,5.987-1.959l12.883,7.607c1.979,1.169,2.505,3.942,1.175,6.191L28.204,33.915z"/>
<linearGradient id="SVGID_2_" gradientUnits="userSpaceOnUse" x1="21.0068" y1="13.4595" x2="21.0249" y2="27.6312">
	<stop  offset="0" style="stop-color:#3268B2"/>
	<stop  offset="1" style="stop-color:#253C7F"/>
</linearGradient>
<path fill="url(#SVGID_2_)" d="M27.898,12.58H21.11c0,0-7.179,0.604-7.179,7.803c0,7.659,7.281,7.934,7.281,7.934h6.893v-4.423h-7.2
	c0,0-2.414-0.279-2.414-3.423c0-3.011,2.62-3.159,2.62-3.159h6.582L27.898,12.58z"/>
<path fill="#F79523" d="M5.677,19.402c-2.405-0.483-4.745,1.078-5.226,3.479c-0.482,2.406,1.076,4.747,3.48,5.229
	c2.404,0.479,4.744-1.077,5.226-3.483C9.639,22.226,8.081,19.884,5.677,19.402z M7.672,24.333c-0.317,1.581-1.858,2.609-3.443,2.291
	c-1.584-0.318-2.611-1.858-2.294-3.442c0.318-1.586,1.859-2.612,3.445-2.294C6.963,21.205,7.99,22.748,7.672,24.333z"/>
<path fill="#C8691C" d="M4.44,29.969C1.988,29.969,0,31.96,0,34.409c0,2.455,1.988,4.443,4.44,4.443s4.44-1.988,4.44-4.443
	C8.88,31.96,6.892,29.969,4.44,29.969z M4.44,37.336c-1.617,0-2.926-1.31-2.926-2.926c0-1.617,1.309-2.926,2.926-2.926
	c1.616,0,2.926,1.309,2.926,2.926C7.367,36.027,6.056,37.336,4.44,37.336z"/>
<path fill="#3588A6" d="M13.732,34.103l25.567-7.668c0,0-3.911-1.188-4.474-2.696l-21.769,7.696L13.732,34.103z"/>
<path fill="#52CAF5" d="M14.336,26.92L36.92,39.649c0,0-3.272,0.328-4.119,1.696L12.559,29.159L14.336,26.92z"/>
<path fill="#F79523" d="M14.668,28.861c-0.481,0.889-1.591,1.22-2.479,0.737l-4.22-2.287c-0.888-0.479-1.218-1.588-0.737-2.477
	l0.272-0.501c0.48-0.89,1.591-1.222,2.479-0.739l4.219,2.287c0.889,0.479,1.219,1.589,0.738,2.477L14.668,28.861z"/>
<path fill="#C8691C" d="M14.948,32.312c0.245,0.98-0.349,1.974-1.329,2.219L8.964,35.7c-0.979,0.242-1.973-0.35-2.218-1.33
	l-0.139-0.555c-0.246-0.981,0.35-1.974,1.329-2.219l4.655-1.167c0.979-0.247,1.973,0.351,2.218,1.329L14.948,32.312z"/>
<circle fill="#3588A6" cx="18.283" cy="31.009" r="1.158"/>
</svg>
