<?xml version="1.0" encoding="utf-8"?>
<svg version="1.1"
	 xmlns="http://www.w3.org/2000/svg" xmlns:xlink="http://www.w3.org/1999/xlink"
	 x="0px" y="0px" width="48px" height="48px" viewBox="-2.316 -3.762 48 48">
<defs>
</defs>
<path fill="#C8691C" d="M42.977,23.156c0,1.677-1.373,3.048-3.048,3.048H5.001c-1.676,0-3.049-1.371-3.049-3.048V12.65
	c0-1.677,1.373-3.048,3.049-3.048h26.775c1.677,0,4.147,0.822,5.487,1.828l3.272,2.45c1.342,1.005,2.44,3.198,2.44,4.875V23.156z"/>
<path fill="#52CAF5" d="M27.491,19.33c0,1-0.832,1.809-1.861,1.809H6.38c-1.028,0-1.863-0.809-1.863-1.809V1.812
	C4.517,0.811,5.352,0,6.38,0h19.25c1.029,0,1.861,0.811,1.861,1.812V19.33z"/>
<path fill="#A7A9AC" d="M6.38,21.139h19.25c1.029,0,1.861-0.809,1.861-1.809V8.947l-2.633-2.019l-8.533,4.318l-5.687-4.529
	l-6.11,4.108l-0.011,0.077v8.427C4.517,20.33,5.352,21.139,6.38,21.139"/>
<polygon fill="#D1D3D4" points="10.639,6.717 16.326,11.246 24.858,6.928 16.362,12.57 "/>
<path fill="#FCB51E" d="M19.562,5.905c0,1.221-0.991,2.212-2.213,2.212c-1.221,0-2.211-0.991-2.211-2.212
	c0-1.222,0.99-2.211,2.211-2.211C18.571,3.693,19.562,4.683,19.562,5.905"/>
<path fill="#F79523" d="M26.001,8.026c-1.676,0-3.048,1.276-3.048,2.838c0,1.56,0.106,8.25-4.574,7.41H3.048
	C1.372,18.274,0,19.646,0,21.322v15.702c0,1.677,1.372,3.048,3.048,3.048H40.66c1.677,0,3.048-1.371,3.048-3.048V22.306
	c0-1.676,0-4.298,0-5.826s0-4.056,0-5.615c0-1.562-1.371-2.838-3.048-2.838H26.001z"/>
<path fill="#FCB51E" d="M40.66,8.026H26.001c-0.835,0-1.594,0.317-2.146,0.827c8.491,5.437,14.123,14.945,14.123,25.776
	c0,1.857-0.175,3.675-0.492,5.442h3.174c1.677,0,3.048-1.371,3.048-3.048V22.306c0-1.676,0-4.298,0-5.826s0-4.056,0-5.615
	C43.708,9.303,42.337,8.026,40.66,8.026z"/>
</svg>
