<?xml version="1.0" encoding="utf-8"?>
<svg version="1.1"
	 xmlns="http://www.w3.org/2000/svg" xmlns:xlink="http://www.w3.org/1999/xlink"
	 x="0px" y="0px" width="32px" height="32px" viewBox="-1.95 -1.95 32 32">
<defs>
</defs>
<circle fill="#F79523" cx="14.05" cy="14.05" r="14.05"/>
<path fill="#C8691C" d="M14.051,0C14.05,0,14.05,0,14.051,0L14.05,28.1c0,0,0,0,0.001,0c7.76,0,14.049-6.289,14.049-14.05
	C28.1,6.29,21.811,0,14.051,0z"/>
<path fill="#E6E7E8" d="M19.907,4.731H7.38c-2.431,0-4.401,1.97-4.401,4.4v6.647c0,2.432,1.971,4.401,4.401,4.401h6.762
	l-1.729,4.786l6.699-4.786h0.795c2.432,0,4.401-1.97,4.401-4.401V9.132C24.309,6.701,22.339,4.731,19.907,4.731z"/>
<path fill="#39B54A" d="M18.98,6.202H8.311C5.81,6.115,4.608,7.576,4.563,9.949l-0.025,5.14c0.012,2.229,1.352,3.487,3.886,3.609
	l7.858-0.137l-1.654,3.583l3.734-3.583h0.677c2.388,0.008,3.85-1.455,3.748-3.749l-0.061-4.863C22.73,7.576,21.366,6.18,18.98,6.202
	z"/>
</svg>
