<?xml version="1.0" encoding="utf-8"?>
<svg version="1.1"
	 xmlns="http://www.w3.org/2000/svg" xmlns:xlink="http://www.w3.org/1999/xlink"
	 x="0px" y="0px" width="32px" height="32px" viewBox="-1.95 -1.95 32 32">
<defs>
</defs>
<circle fill="#F79523" cx="14.05" cy="14.05" r="14.05"/>
<path fill="#C8691C" d="M14.051,0C14.05,0,14.05,0,14.051,0L14.05,28.1c0,0,0,0,0.001,0c7.76,0,14.049-6.289,14.049-14.05
	C28.1,6.29,21.811,0,14.051,0z"/>
<path fill="#E6E7E8" d="M20.313,4.731H7.786c-2.431,0-4.401,1.97-4.401,4.4v6.647c0,2.432,1.971,4.401,4.401,4.401h6.762
	l-1.729,4.786l6.699-4.786h0.795c2.432,0,4.401-1.97,4.401-4.401V9.132C24.715,6.701,22.745,4.731,20.313,4.731z"/>
</svg>
