<?xml version="1.0" encoding="utf-8"?>
<svg version="1.1"
	 xmlns="http://www.w3.org/2000/svg" xmlns:xlink="http://www.w3.org/1999/xlink"
	 x="0px" y="0px" width="48px" height="48px" viewBox="-4.01 -3.151 48 48">
<defs>
</defs>
<ellipse fill="#F79523" cx="22.04" cy="25.283" rx="16.639" ry="16.349"/>
<path fill="#C8691C" d="M22.041,8.936C22.04,8.936,22.04,8.936,22.041,8.936L22.04,41.632c0,0,0,0,0.001,0
	c9.189,0,16.639-7.319,16.639-16.349C38.679,16.254,31.23,8.936,22.041,8.936z"/>
<path fill="#E6E7E8" d="M28.303,15.511H14.815c-2.617,0-4.738,2.084-4.738,4.655v7.03c0,2.573,2.121,4.657,4.738,4.657h6.044
	l-0.625,5.063l7.211-5.063h0.857c2.616,0,4.737-2.084,4.737-4.657v-7.03C33.041,17.595,30.919,15.511,28.303,15.511z"/>
<path fill="#52CAF5" d="M33.913,6.167c-8.175-8.361-21.507-8.2-29.782,0.36C3.853,6.814,3.605,7.122,3.347,7.421L0.633,4.629
	L0,14.103l9.585-0.265L7.303,11.49c0.262-0.305,0.512-0.615,0.794-0.908c7.678-7.944,20.051-8.092,27.638-0.334
	c1.313,1.341,2.377,2.838,3.231,4.426C37.989,11.555,36.319,8.626,33.913,6.167z"/>
<path fill="#3588A6" d="M33.913,6.167c-3.392-3.468-7.671-5.447-12.107-5.991v4.36c5.05-0.1,10.102,1.796,13.931,5.712
	c1.313,1.341,2.377,2.838,3.231,4.426C37.989,11.555,36.319,8.626,33.913,6.167z"/>
</svg>
