<?xml version="1.0" encoding="utf-8"?>
<svg version="1.1"
	 xmlns="http://www.w3.org/2000/svg" xmlns:xlink="http://www.w3.org/1999/xlink"
	 x="0px" y="0px" width="32px" height="32px" viewBox="-0.544 -4.944 32 32">
<defs>
</defs>
<path fill="#3588A6" d="M22.13,1.299C15.006-1.906,6.697,1.025,3.088,7.828L0,6.395l2.915,5.985L9.5,10.803L6.591,9.454
	c4.103-5.098,11.259-7.01,17.506-4.199c2.504,1.127,4.527,2.877,5.997,4.975C28.86,6.398,26.088,3.08,22.13,1.299z"/>
<path fill="#F79523" d="M23.11,8.157C15.986,4.953,7.677,7.884,4.068,14.686l-3.088-1.432l2.915,5.984l6.584-1.577l-2.909-1.35
	c4.103-5.097,11.26-7.01,17.506-4.2c2.505,1.129,4.528,2.879,5.998,4.975C29.84,13.256,27.068,9.939,23.11,8.157z"/>
</svg>
