<?xml version="1.0" encoding="utf-8"?>
<!-- Generator: Adobe Illustrator 15.0.0, SVG Export Plug-In  -->
<!DOCTYPE svg PUBLIC "-//W3C//DTD SVG 1.1//EN" "http://www.w3.org/Graphics/SVG/1.1/DTD/svg11.dtd" [
	<!ENTITY ns_flows "http://ns.adobe.com/Flows/1.0/">
]>
<svg version="1.1"
	 xmlns="http://www.w3.org/2000/svg" xmlns:xlink="http://www.w3.org/1999/xlink" xmlns:a="http://ns.adobe.com/AdobeSVGViewerExtensions/3.0/"
	 x="0px" y="0px" width="48px" height="48px" viewBox="-2.41 -4.141 48 48" enable-background="new -2.41 -4.141 48 48"
	 xml:space="preserve">
<defs>
</defs>
<circle fill-rule="evenodd" clip-rule="evenodd" fill="#FFFFFF" cx="21.347" cy="20.087" r="19.189"/>
<path d="M25.575,6.313c0-0.754-1.004-0.586-1.172-0.586c-0.251,0-0.837,0-1.005,0.25c0.083,0.419,0.67,0.921,1.089,0.921
	C24.571,6.898,25.575,6.564,25.575,6.313z"/>
<path d="M3.539,17.916c0.179-0.726,0.677-1.733,1.017-2.14c0.251,0.083,0.503,0.418,0.67,0.418c0.251,0,0.334-0.251,0.418-0.418
	c0.083,0,0.251,0.083,0.335,0.083c-0.083,0.418-0.083,0.921-0.083,1.34c0.335,0.251,0.753,0.502,1.005,0.502
	c0.334,0,0.418-0.084,0.418-0.418c0-0.084,0-0.586-0.418-0.503c0.084-0.251,0.167-0.502,0.167-0.753
	c-0.083-1.424,2.01-1.424,2.093-2.596c0.251-0.084,0.837-0.67,1.089-0.922c1.507,0,0.67-0.921,1.759-0.921
	c0.251,0,0.167,0.251,0.418,0.251c0.167,0,1.34-0.503,1.926-0.838c0.083-0.083,0.083-0.251,0.083-0.419
	c0.335,0.084,0.754,0.335,1.005,0.335c0.335,0,0.921-0.251,0.921-0.586c0-0.251-0.167-0.419-0.167-0.586
	c0-0.251,0.167-0.167,0.167-0.251c0.084-0.167,0.167-0.419,0.167-0.67c0-0.168-0.251-0.251-0.419-0.251
	c0.084-1.005,0.084-1.507,0.084-1.675c0-0.251,0.502-0.334,0.837-0.586c0,0,1.004-0.251,1.004-0.67c0-0.251-0.251-0.251-0.251-0.503
	c0-0.167,0.167-0.083,0.167-0.251c0-0.251-0.251-0.419-0.335-0.586c0.251-0.251,0.67-0.502,1.089-0.586
	c-0.167,0.419,0.502,0.586,0.754,0.502v0.837c-0.167,0-0.502,0.167-0.586,0.335c-0.168,0.251-0.251,0.754-0.251,1.005
	c0,0.168,0,0.502,0.167,0.754c0.084,0.167,0.418,0.167,0.586,0.335c0.084,0.083,0.084,0.083,0.252,0.083
	c0.502,0,0.753-0.67,1.423-1.088c0.168-0.167,0.503-0.167,0.754-0.251c0.252-0.083,0.419-0.335,0.753-0.418
	c0.419-0.167,1.256-0.083,1.675-0.502c0.252-0.335,0.419-1.089,0.419-1.256c0-0.251-0.083-0.251-0.167-0.419
	c0.084-0.083,0.335-0.167,0.502-0.418c-0.083-0.083-0.167-0.251-0.251-0.335c-0.167-0.084-0.503-0.084-0.586-0.167
	c-0.252-0.083-0.336-0.335-0.503-0.418c-0.335-0.168-0.837-0.084-1.089-0.084c-0.167,0-0.836,0-1.255,0.084
	c-0.251,0-0.335,0.335-0.502,0.335c-0.251,0-1.089-0.754-1.34-0.754s-1.256,0.837-1.339,0.921c-0.084-0.083-0.084-0.167-0.335-0.167
	c-0.251,0-0.586,0.419-0.837,0.669c0-0.083,0-0.167,0.084-0.25c-0.084-0.084-0.084-0.252-0.335-0.252
	c-0.167,0-0.251,0.335-0.418,0.335c-0.251,0-0.251-0.167-0.419-0.167c-0.67,0-1.591,0.251-1.926,0.418
	c-0.084,0.084-0.335,0.084-0.587,0.168c-0.042,0.01-0.084,0.03-0.126,0.046c-0.32,0.168-0.641,0.344-0.962,0.541
	c0.366-0.22,0.668-0.433,0.962-0.541c2.68-1.413,5.314-1.889,8.082-1.889c3.768,0,7.537,1.005,10.049,3.099
	c0,0.083,0.251,0.167,0.419,0.251c0,0-0.085,0.083-0.085,0.167c-0.334-0.251-1.842-0.502-1.842-0.502
	c-0.419,0-0.754-0.083-1.005,0.754c-0.084,0.167,0,0.502-0.084,0.753s-0.418,0.502-0.418,0.754c0,0.167,0.585,1.089,1.005,1.256
	l0.251,0.502c-0.168,0.084-0.418,0.335-0.587,0.419c-0.502-0.587-0.585-0.67-1.005-1.257c-0.083-0.251-0.586-0.502-0.754-0.502
	c-0.501,0-0.501,0.585-0.418,0.921c-0.168,0-0.754,0.084-0.754,0.586c0,0.167,0.084,0.418,0.084,0.586
	c0,0.251,0.084,0.418,0.334,0.418c0.168,0,0.504-0.083,0.754-0.251c-0.167,0.67,0.168,0.419,0.252,1.089
	c0.251,0.251,0.502,0.251,0.755,0.418v0.251c-0.42,0.084-1.257-0.502-1.593,0.335v1.507c0.168,0.251,0.336,1.089,0.922,0.837
	c-0.252,0.251-0.754,0.586-1.005,1.005c-0.085,0.084-0.085,0.418-0.168,0.586c-0.335,0.335-0.921,0.502-1.172,0.921
	c-0.503,0.67-1.089,2.094-1.089,2.261c0,0.251,0.251,0.921,0.251,1.088c0,0.252-0.503,0.92-0.503,1.172
	c0,0.034,0.006,0.059,0.012,0.083c7.675-0.414,13.59-2.306,17.202-4.666C39.479,7.159,31.383,0,21.307,0
	C12.697,0,3.597,5.489,1.513,16.853C2.109,17.208,2.777,17.565,3.539,17.916z M15.778,5.308c-0.084,0.083-0.167,0.167-0.251,0.167
	C15.61,5.391,15.694,5.308,15.778,5.308z M15.527,6.731c0.083,0.083,0.167,0.083,0.167,0.167c0,0-0.167,0-0.167,0.084V6.731z
	 M35.207,11.42c0.084,0.084,0.167,0.335,0.418,0.335c0.167,0,0.084-0.167,0.251-0.167c0.252,0,0.336,0.167,0.419,0.251
	c-0.25,0-0.586,0.083-0.921,0.25l-0.167-0.167V11.42z M32.714,14.683c0.637-0.022,0.32-0.924,0.816-1.503
	c0.586,0.502,1.006,1.424,1.843,1.424c0.251,0,0.335-0.334,0.335-0.418h0.419c0.084,0.251,0.335,0.502,0.754,0.418v0.502
	c0-0.251-0.336-0.083-0.503-0.083c-0.084,0.083-0.084,0.167-0.334,0.167c-0.169,0-1.09-0.335-1.257-0.335
	c-0.251,0-0.587-0.083-0.671,0.419C33.674,15.052,33.173,14.888,32.714,14.683c-0.008,0-0.012,0.004-0.021,0.004
	c-0.168,0-0.084,0-0.168-0.083C32.585,14.633,32.653,14.655,32.714,14.683z M31.94,13.012c-0.084,0.167,0,0.334,0,0.502
	c-0.838,0-1.759,0.083-2.596,0.251c0.167-0.167,0.334-0.334,0.334-0.502c0-0.251-0.083-0.251-0.167-0.419
	c0.084-0.083,0.419-0.25,0.67-0.586c0.167,0,0.419,0,0.586-0.084c0.085,0.168-0.083,1.172,0.502,1.172
	c0.587,0,0.419-0.669,0.504-0.753c0.167,0.167,0.419,0.25,0.669,0.418C32.359,13.012,32.192,12.928,31.94,13.012z M31.186,8.406
	c0.083-0.419,0.083-0.67,0.168-0.838c0.167,0.084,0.334,0.503,0.502,0.67C31.688,8.239,31.438,8.322,31.186,8.406z M15.191,6.313
	c0.083,0,0.083,0.083,0.083,0.167C15.191,6.396,15.108,6.313,15.191,6.313z M14.773,5.81c0.083,0-0.083,0.167-0.083,0.251
	C14.689,5.977,14.689,5.81,14.773,5.81z M14.438,9.913c-0.418,0.419-0.586,0.335-0.921,0.67c0-0.251,0.335-0.418,0.419-0.67H14.438z
	 M13.349,6.229c0.168,0,0.335,0.251,0.503,0.251c-0.167,0.251-0.503,0.334-0.67,0.502c-0.251,0.167-0.335,0.502-0.503,0.67
	c-0.251,0.167-0.585,0.251-0.837,0.419c-0.167-0.251-0.335-0.586-0.335-0.754C11.506,7.066,13.098,6.229,13.349,6.229z"/>
<path d="M28.423,3.8c0-0.168-0.503-0.753-0.754-0.753c-0.336,0-0.67,0.418-1.006,0v0.502c0.419,0.251,1.089,0.67,1.257,0.67
	C28.17,4.219,28.423,3.968,28.423,3.8z"/>
<path d="M38.34,27.134c-0.279,0.672-0.592,1.355-0.957,2.04c-0.084,0-0.251-0.084-0.335-0.084c0.112-0.487,0.337-1.06,0.621-1.633
	c-1.719,0.797-3.779,1.477-6.221,1.979c-0.35,0.452-0.933,0.793-0.933,1.498c0,0.25,0.084,0.502,0,0.753
	c-0.168,0.671-0.418,1.424-0.67,2.177c-0.168,0.419-0.502,0.923-0.669,1.341c0.083,0.083,0.167,0.167,0.418,0.167
	c0.753,0,2.428-0.921,3.099-1.508c0.167-0.167,0.419-0.502,0.669-0.669c0.587-0.419,0.754-0.503,1.09-0.922
	c0.084-0.083,0.084-0.335,0.251-0.418c0.167-0.252,0.587-0.503,0.921-0.754c-0.167,0.335-0.67,0.67-0.837,1.004
	c-0.084,0.168-0.168,0.671-0.419,0.921c-1.843,2.179-5.36,3.937-7.035,4.439c-0.921,0.251-1.675,0.503-2.512,0.67
	c-1.173,0.251-2.429,0.335-3.517,0.335c-0.168,0-1.591,0-2.428-0.167c0.167-0.084,0.251-0.084,0.251-0.252
	c0-0.25-0.419-0.502-0.586-0.502c-0.251,0-0.335,0.167-0.335,0.335c-0.251-0.168-1.591-1.34-1.591-1.676
	c0-0.167,0.083-0.167,0.083-0.251c0.083-0.167,0-0.418,0-0.67c0-0.167,0.419-1.172,0.419-1.34c0-0.251-0.251-0.586-0.335-0.837
	c0.503-0.252,1.591-0.838,1.341-1.508c0.083-0.251,0.167-0.502,0.167-0.754c0-0.104-0.095-0.338-0.169-0.561
	c-4.757-0.241-8.491-1.027-11.372-2.137c0.707,0.913,1.487,1.765,2.413,2.613c0.251,0.252,0.754,0.336,1.172,0.671
	c0.586,0.669,1.005,1.507,1.592,2.261c0.586,0.837,1.842,2.261,2.847,2.932c0.502,0.418,1.088,0.837,1.591,1.173
	C12.428,37.13,6.147,32.189,4.556,27.75c-0.078-0.234-0.194-0.489-0.311-0.752c-0.855-0.469-1.604-0.97-2.259-1.493
	c0.131,0.561,0.227,0.962,0.227,0.987c3.66,9.944,11.854,13.684,19.094,13.684c9.102,0,16.844-5.989,19.302-14.406
	C39.939,26.247,39.185,26.705,38.34,27.134z"/>
<path d="M9.413,19.293c-0.419-0.251-0.921-0.251-1.424-0.502c0-0.335-0.167-0.754-0.335-0.754c-0.251,0-0.251,0.167-0.335,0.335
	C6.901,18.12,6.063,17.45,5.896,17.45c-0.251,0-0.419,0-0.502,0.084c-0.251,0.083-0.251,0.335-0.419,0.418
	c-0.228,0.152-0.587,0.106-0.841,0.219c1.894,0.818,4.223,1.575,6.917,2.144C10.89,19.618,10.215,19.074,9.413,19.293z"/>
<path fill-rule="evenodd" clip-rule="evenodd" d="M42.075,17.281c-0.063,0.375-0.264,0.706-0.303,0.778
	c-1.763,3.269-10.348,5.752-20.703,5.752c-10.466,0-19.125-2.537-20.759-5.857c-0.018-0.037-0.267-0.438-0.205-0.876
	c-0.148,0.334-0.097,1.438-0.097,1.787c0,0.121,0,1.692,0,2c0,3.861,9.429,6.99,21.061,6.99s21.06-3.129,21.06-6.99
	C42.129,20.517,42.224,17.616,42.075,17.281z"/>
</svg>
