<?xml version="1.0" encoding="utf-8"?>
<!-- Generator: Adobe Illustrator 15.0.0, SVG Export Plug-In  -->
<!DOCTYPE svg PUBLIC "-//W3C//DTD SVG 1.1//EN" "http://www.w3.org/Graphics/SVG/1.1/DTD/svg11.dtd" [
	<!ENTITY ns_flows "http://ns.adobe.com/Flows/1.0/">
]>
<svg version="1.1"
	 xmlns="http://www.w3.org/2000/svg" xmlns:xlink="http://www.w3.org/1999/xlink" xmlns:a="http://ns.adobe.com/AdobeSVGViewerExtensions/3.0/"
	 x="0px" y="0px" width="32px" height="32px" viewBox="-1.5 -1.4 32 32" enable-background="new -1.5 -1.4 32 32"
	 xml:space="preserve">
<defs>
</defs>
<path fill="#F79523" d="M0,0v18.9h29.3V0H0z M24.2,2.3l-9.3,7.5L5.6,2.3H24.2z M2.4,16.6V3.1l12.5,10.2l12-9.7v13H2.4z"/>
<polygon fill="#C8691C" points="14.9,0 14.9,2.3 24.2,2.3 14.9,9.9 14.9,9.8 14.9,13.2 14.9,13.3 26.9,3.5 26.9,16.6 14.9,16.6 
	14.9,18.9 29.3,18.9 29.3,0 "/>
<circle fill="none" stroke="#3588A6" stroke-width="0.5" stroke-miterlimit="10" cx="10.9" cy="8.2" r="2"/>
<circle fill="none" stroke="#3588A6" stroke-width="0.5" stroke-miterlimit="10" cx="10.9" cy="8.2" r="3.7"/>
<path fill="#3588A6" d="M21.6,14.8c-0.1-0.8-0.9-1.2-1.6-1.1c-0.5,0.1-0.6,1.2-0.8,1.7l-0.3-1c-0.1-0.8-0.9-1.2-1.6-1.1
	c-0.4,0.1-0.8,1.5-1,1.8l-0.1-1.5c-0.1-0.8-0.9-1.2-1.6-1.1c-0.5,0.1-0.7,1.5-0.9,2l-1.2-6.2c-0.1-0.8-0.9-1.2-1.6-1.1
	C10.1,7.3,9.6,8,9.8,8.8L11.7,20l-2.2-1.8c-1-0.7-2.2-0.8-2.7,0c-0.5,0.7-0.1,1.9,0.9,2.6l4.3,3.8l2.5,2.7c0.2,0.8,1.3,1.4,2.1,1.2
	l5-1.1c0.8-0.2,1.6-1.5,1.5-2.3l-0.5-4.7c0-0.2,0-0.4,0-0.6L21.6,14.8z"/>
<path fill="#52CAF5" d="M14.9,12.4c-0.1,0-0.2,0-0.2,0c-0.5,0.1-0.9,0.5-1.1,1l-1-5.2c-0.1-0.8-0.9-1.2-1.6-1.1
	C10.1,7.3,9.6,8,9.8,8.8L11.7,20l-2.2-1.8c-1-0.7-2.2-0.8-2.7,0c-0.5,0.7-0.1,1.9,0.9,2.6l4.3,3.8l2.5,2.7c0,0.2,0.2,0.4,0.3,0.6
	V12.4z"/>
</svg>
