<?xml version="1.0" encoding="utf-8"?>
<!-- Generator: Adobe Illustrator 15.0.0, SVG Export Plug-In  -->
<!DOCTYPE svg PUBLIC "-//W3C//DTD SVG 1.1//EN" "http://www.w3.org/Graphics/SVG/1.1/DTD/svg11.dtd" [
	<!ENTITY ns_flows "http://ns.adobe.com/Flows/1.0/">
]>
<svg version="1.1"
	 xmlns="http://www.w3.org/2000/svg" xmlns:xlink="http://www.w3.org/1999/xlink" xmlns:a="http://ns.adobe.com/AdobeSVGViewerExtensions/3.0/"
	 x="0px" y="0px" width="48px" height="48px" viewBox="-3.696 -5.65 48 48"
	 xml:space="preserve">
<defs>
</defs>
<path d="M11.817,8.75c0,0.798-0.646,1.444-1.444,1.444l0,0c-0.798,0-1.444-0.646-1.444-1.444V1.444C8.928,0.646,9.575,0,10.374,0
	l0,0c0.798,0,1.444,0.646,1.444,1.444V8.75z"/>
<path d="M30.817,8.75c0,0.798-0.646,1.444-1.444,1.444l0,0c-0.797,0-1.443-0.646-1.443-1.444V1.444C27.93,0.646,28.576,0,29.373,0
	l0,0c0.799,0,1.444,0.646,1.444,1.444V8.75z"/>
<path d="M38.607,5.097h-6.213v4.29c0,1.196-0.972,2.167-2.166,2.167h-1.927c-1.196,0-2.165-0.97-2.165-2.167v-4.29H13.395v4.29
	c0,1.196-0.971,2.167-2.167,2.167H9.303c-1.196,0-2.167-0.97-2.167-2.167v-4.29H2c-1.104,0-2,0.896-2,2v27.602c0,1.104,0.896,2,2,2
	h36.607c1.104,0,2-0.896,2-2V7.097C40.607,5.993,39.712,5.097,38.607,5.097z M18.817,27.683c0,1.899-1.539,3.438-3.437,3.438H6.779
	c-1.898,0-3.437-1.539-3.437-3.438v-5.656c0-1.897,1.539-3.437,3.437-3.437h8.601c1.897,0,3.437,1.539,3.437,3.437V27.683z
	 M37.265,27.683c0,1.899-1.538,3.438-3.437,3.438h-8.601c-1.897,0-3.437-1.539-3.437-3.438v-5.656c0-1.897,1.539-3.437,3.437-3.437
	h8.601c1.898,0,3.437,1.539,3.437,3.437V27.683z"/>
<polygon points="4.518,25.358 7.514,30.353 16.903,20.965 15.504,19.966 7.714,27.157 6.116,23.561 "/>
</svg>
