<?xml version="1.0" encoding="utf-8"?>
<!-- Generator: Adobe Illustrator 15.0.0, SVG Export Plug-In  -->
<!DOCTYPE svg PUBLIC "-//W3C//DTD SVG 1.1//EN" "http://www.w3.org/Graphics/SVG/1.1/DTD/svg11.dtd" [
	<!ENTITY ns_flows "http://ns.adobe.com/Flows/1.0/">
]>
<svg version="1.1"
	 xmlns="http://www.w3.org/2000/svg" x="0px" y="0px" width="48px" height="48px" viewBox="-3.696 -5.65 48 48">
<defs>
</defs>
<path d="M11.71,8.75c0,0.798-0.646,1.444-1.444,1.444l0,0c-0.798,0-1.444-0.646-1.444-1.444V1.444C8.821,0.646,9.468,0,10.266,0l0,0
	c0.798,0,1.444,0.646,1.444,1.444V8.75z"/>
<path d="M30.71,8.75c0,0.798-0.646,1.444-1.444,1.444l0,0c-0.797,0-1.443-0.646-1.443-1.444V1.444C27.822,0.646,28.469,0,29.266,0
	l0,0c0.799,0,1.444,0.646,1.444,1.444V8.75z"/>
<path d="M38.607,5.097h-6.213v4.29c0,1.196-0.972,2.167-2.166,2.167h-1.927c-1.196,0-2.165-0.97-2.165-2.167v-4.29H13.395v4.29
	c0,1.196-0.971,2.167-2.167,2.167H9.303c-1.196,0-2.167-0.97-2.167-2.167v-4.29H2c-1.104,0-2,0.896-2,2v27.602c0,1.104,0.896,2,2,2
	h36.607c1.104,0,2-0.896,2-2V7.097C40.607,5.993,39.712,5.097,38.607,5.097z M25.083,31.817h-9.557c-2.109,0-3.819-1.71-3.819-3.82
	v-6.285c0-2.108,1.71-3.818,3.819-3.818h8.495l-5.413,4.136l-2.035-2.604l-1.125,9.182l9.182,1.124l-2.034-2.602l6.306-4.929v5.796
	C28.901,30.107,27.19,31.817,25.083,31.817z"/>
</svg>
