<?xml version="1.0" encoding="utf-8"?>
<!-- Generator: Adobe Illustrator 15.0.0, SVG Export Plug-In  -->
<!DOCTYPE svg PUBLIC "-//W3C//DTD SVG 1.1//EN" "http://www.w3.org/Graphics/SVG/1.1/DTD/svg11.dtd" [
	<!ENTITY ns_flows "http://ns.adobe.com/Flows/1.0/">
]>
<svg version="1.1"
	 xmlns="http://www.w3.org/2000/svg" x="0px" y="0px" width="48px" height="48px" viewBox="-15.122 -3.935 48 48">
<defs>
</defs>
<path d="M15.461,7.539h-2.083V2.918c0-0.171-0.022-0.337-0.058-0.498c0.64-0.036,1.15-0.555,1.15-1.203
	C14.471,0.545,13.927,0,13.255,0H4.5C3.829,0,3.285,0.545,3.285,1.217c0,0.648,0.511,1.168,1.151,1.203
	C4.4,2.581,4.378,2.747,4.378,2.918v4.621H2.294C1.027,7.539,0,8.567,0,9.834v28c0,1.27,1.027,2.295,2.294,2.295H15.46
	c1.268,0,2.295-1.025,2.295-2.295h0.001v-28C17.756,8.567,16.728,7.539,15.461,7.539z M14.229,28.836
	c0,1.268-1.029,2.293-2.295,2.293H5.822c-1.267,0-2.295-1.025-2.295-2.293v-15.11c0-1.267,1.028-2.294,2.295-2.294h6.113
	c1.266,0,2.295,1.027,2.295,2.294V28.836z"/>
<polygon points="8.879,22.532 10.054,24.913 12.681,25.293 10.78,27.147 11.229,29.766 8.879,28.53 6.527,29.766 6.977,27.147 
	5.075,25.293 7.703,24.913 "/>
<polygon points="8.879,12.611 10.054,14.993 12.681,15.374 10.78,17.227 11.229,19.846 8.879,18.61 6.527,19.846 6.977,17.227 
	5.075,15.374 7.703,14.993 "/>
</svg>
