<?xml version="1.0" encoding="utf-8"?>
<!-- Generator: Adobe Illustrator 15.0.0, SVG Export Plug-In  -->
<!DOCTYPE svg PUBLIC "-//W3C//DTD SVG 1.1//EN" "http://www.w3.org/Graphics/SVG/1.1/DTD/svg11.dtd" [
	<!ENTITY ns_flows "http://ns.adobe.com/Flows/1.0/">
]>
<svg version="1.1"
	 xmlns="http://www.w3.org/2000/svg" x="0px" y="0px" width="28px" height="28px" viewBox="-1.424 -2.336 28 28">
<defs>
</defs>
<path d="M16.565,18.322l5.237-0.471L14.042,1.854L1.915,13.639L0,13.57l3.391,7.154l1.225-1.328l3.826-0.344
	c-0.15,0.47-0.208,0.973-0.124,1.491c0.288,1.804,1.98,3.03,3.783,2.742l1.994-0.317c1.801-0.289,3.028-1.98,2.741-3.783
	C16.787,18.878,16.692,18.59,16.565,18.322z M13.587,22.121l-1.267,0.201c-1.302,0.209-2.525-0.678-2.733-1.979
	c-0.081-0.502,0.009-0.988,0.216-1.413l5.386-0.483c0.186,0.276,0.32,0.592,0.377,0.942C15.773,20.689,14.889,21.912,13.587,22.121z
	"/>
<path d="M24.99,16.521l-2.669-5.598l0.2-0.086c1.023-0.443,1.493-1.631,1.049-2.654c-0.442-1.024-1.629-1.495-2.654-1.052
	l-0.334,0.145l-3.051-6.397c-0.348-0.727-1.143-1.072-1.777-0.769c-0.635,0.302-0.867,1.136-0.521,1.864l7.463,15.642
	c0.345,0.731,1.141,1.071,1.773,0.77C25.104,18.083,25.34,17.25,24.99,16.521z"/>
</svg>
