<?xml version="1.0" encoding="utf-8"?>
<!-- Generator: Adobe Illustrator 15.0.0, SVG Export Plug-In  -->
<!DOCTYPE svg PUBLIC "-//W3C//DTD SVG 1.1//EN" "http://www.w3.org/Graphics/SVG/1.1/DTD/svg11.dtd" [
	<!ENTITY ns_flows "http://ns.adobe.com/Flows/1.0/">
]>
<svg version="1.1"
	 xmlns="http://www.w3.org/2000/svg" x="0px" y="0px" width="28px" height="28px" viewBox="-3.845 -1.847 28 28">
<defs>
</defs>
<path d="M18.089,9.702V7.933C18.089,3.551,14.538,0,10.155,0C5.773,0,2.221,3.551,2.221,7.933v1.769C0.977,9.841,0,11.036,0,12.507
	v8.968c0,1.563,1.1,2.832,2.458,2.832h15.396c1.354,0,2.457-1.27,2.457-2.832v-8.968C20.309,11.036,19.333,9.841,18.089,9.702z
	 M10.156,2.499c2.779,0,5.032,2.548,5.032,5.69l0.188,1.486H5.072l0.049-1.486C5.122,5.046,7.375,2.499,10.156,2.499z M11.59,17.139
	v2.439c0,0.792-0.644,1.436-1.436,1.436c-0.792,0-1.435-0.644-1.435-1.436v-2.439c0-0.219,0.057-0.42,0.145-0.604
	c-0.444-0.37-0.732-0.921-0.732-1.544c0-1.117,0.906-2.023,2.023-2.023c1.118,0,2.022,0.906,2.022,2.023
	c0,0.623-0.287,1.174-0.732,1.544C11.533,16.719,11.59,16.92,11.59,17.139z"/>
</svg>
