<?xml version="1.0" encoding="utf-8"?>
<!-- Generator: Adobe Illustrator 15.0.0, SVG Export Plug-In  -->
<!DOCTYPE svg PUBLIC "-//W3C//DTD SVG 1.1//EN" "http://www.w3.org/Graphics/SVG/1.1/DTD/svg11.dtd" [
	<!ENTITY ns_flows "http://ns.adobe.com/Flows/1.0/">
]>
<svg version="1.1"
	 xmlns="http://www.w3.org/2000/svg" xmlns:xlink="http://www.w3.org/1999/xlink" xmlns:a="http://ns.adobe.com/AdobeSVGViewerExtensions/3.0/"
	 x="0px" y="0px" width="28px" height="28px" viewBox="-5.635 -2.169 28 28"
	 xml:space="preserve">
<defs>
</defs>
<path d="M8.368,23.652c0,0-6.324,0.242-8.119-6.764c-1.183-4.941,2.23-8.52,2.23-8.52s-0.563,2.345-0.322,3.411
	c0.586,2.62,1.523,2.444,1.523,2.444s-0.23-4.51,0.608-6.979C5.336,4.156,7.063,3.12,7.063,3.12s-1.029,1.843-1.21,2.903
	C5.509,8.028,6.641,11.1,6.641,11.1s1.903-2.039,2.585-5.077C10.158,1.889,8.368,0,8.368,0s2.178,1.058,2.815,3.677
	c0.84,3.449-0.098,6.602-0.098,6.602s1.319-0.537,2.103-2.641c0.404-1.086,0.09-2.499,0.09-2.499s4.013,3.307,3.386,10.687
	C15.948,24.268,8.368,23.652,8.368,23.652z"/>
</svg>
