<?xml version="1.0" encoding="utf-8"?>
<!-- Generator: Adobe Illustrator 15.0.0, SVG Export Plug-In  -->
<!DOCTYPE svg PUBLIC "-//W3C//DTD SVG 1.1//EN" "http://www.w3.org/Graphics/SVG/1.1/DTD/svg11.dtd" [
	<!ENTITY ns_flows "http://ns.adobe.com/Flows/1.0/">
]>
<svg version="1.1"
	 xmlns="http://www.w3.org/2000/svg" xmlns:xlink="http://www.w3.org/1999/xlink" xmlns:a="http://ns.adobe.com/AdobeSVGViewerExtensions/3.0/"
	 x="0px" y="0px" width="28px" height="28px" viewBox="-7.809 -1.277 28 28"
	 xml:space="preserve">
<defs>
</defs>
<path d="M12.382,10.094l-0.12-0.11l-0.043-5.699c0,0,0.122-1.083-0.882-1.196c-0.564-0.062-0.691,1.007-0.691,1.007v4.552
	l-0.682-0.06l0.117-5.877c0,0,0.104-1.018-0.754-1.133C8.316,1.444,8.384,2.671,8.384,2.671L8.48,8.459l-0.797-0.07l0.01-7.185
	c0,0,0.121-1.089-0.881-1.195C5.618-0.118,5.869,1.203,5.869,1.203l0.039,7.031L5.297,8.18L5.178,2.083c0,0,0.122-0.963-0.88-1.068
	C3.103,0.889,3.459,2.508,3.459,2.508L3.383,8.409l0.039-0.003l-0.218,2.506l-1.669,2.119l1.174-1.887c0,0-0.306-1.213-0.507-2.37
	C1.95,7.328,0,7.642,0,7.642l0.92,6.169l-0.044,0.056l0.066,0.092l0.003,0.02l0.005-0.008l3.07,4.297l7.419-0.063l-0.063-1.006
	l0.843-1.381L12.382,10.094z"/>
<path d="M4.234,19.061c0,0-0.468,0.768-0.942,6.385h8.928c0,0-0.254-5.254-0.881-6.447L4.234,19.061z"/>
</svg>
