<?xml version="1.0" encoding="utf-8"?>
<!DOCTYPE svg PUBLIC "-//W3C//DTD SVG 1.1//EN" "http://www.w3.org/Graphics/SVG/1.1/DTD/svg11.dtd" [
	<!ENTITY ns_flows "http://ns.adobe.com/Flows/1.0/">
]>
<svg version="1.1"
	 xmlns="http://www.w3.org/2000/svg" x="0px" y="0px" width="28px" height="28px" viewBox="-6.222 -2.571 28 28">
<defs>
</defs>
<path d="M9.929,13.559l-1.041,2.093c0,0-1.64,1.33-4.105,0.348l-1.308-0.69c-2.68-1.714-2.196-3.445-2.196-3.445l1.016-2.041
	c-0.96,0.163-1.723,0.591-2.08,1.307c-0.751,1.51,0.523,3.685,2.867,5.093L0.45,22.378l4.448-5.308
	c2.356,0.788,4.586,0.434,5.288-0.977C10.554,15.354,10.418,14.453,9.929,13.559z"/>
<path d="M7.98,8.029C6.691,7.388,5.625,6.545,4.854,5.635l-3.061,6.151c0,0-0.527,1.851,2.669,3.524
	c2.526,1.32,4.248-0.081,4.248-0.081l3.06-6.15C10.582,9.013,9.267,8.669,7.98,8.029z"/>
<path d="M11.494,0.968C8.465-0.539,5.26-0.255,4.336,1.602s0.783,4.583,3.811,6.091c3.029,1.507,6.234,1.224,7.157-0.633
	C16.23,5.203,14.523,2.476,11.494,0.968z M13.709,5.751c-0.621,1.248-2.773,1.438-4.809,0.424C6.866,5.163,5.72,3.331,6.341,2.083
	c0.621-1.247,2.774-1.438,4.808-0.424C13.184,2.672,14.331,4.504,13.709,5.751z"/>
</svg>
