<?xml version="1.0" encoding="utf-8"?>
<!-- Generator: Adobe Illustrator 15.0.0, SVG Export Plug-In  -->
<!DOCTYPE svg PUBLIC "-//W3C//DTD SVG 1.1//EN" "http://www.w3.org/Graphics/SVG/1.1/DTD/svg11.dtd" [
	<!ENTITY ns_flows "http://ns.adobe.com/Flows/1.0/">
]>
<svg version="1.1"
	 xmlns="http://www.w3.org/2000/svg" x="0px" y="0px" width="28px" height="28px" viewBox="0 0.125 28 28" xml:space="preserve">
<defs>
</defs>
<path d="M22.6,10.525c-3,0.1-4.3-3.8-5.899-3.8c-0.092,0-0.178,0.01-0.262,0.026l1.886,7.35c0.767,2.607-0.766,5.215-3.375,5.829
	c-2.607,0.767-5.215-0.766-5.829-3.375L6.518,6.648C4.494,6.87,4.348,8.832,1.8,8.925c-0.6,0.1-1.2-0.1-1.8-0.4v14h25.2v-14
	C24.6,9.525,23.9,10.525,22.6,10.525z"/>
<path d="M11.9,3.125l-0.5-1.9c0.2-0.2,0.3-0.4,0.2-0.7c-0.1-0.4-0.5-0.6-0.8-0.5l-1.7,0.6c-0.3,0-0.6,0.4-0.5,0.8
	c0.1,0.2,0.3,0.4,0.5,0.5l0.5,1.9c-1,0.7-1.5,2-1.2,3.3l2.4,9c0.4,1.7,2.1,2.7,3.8,2.2c1.7-0.4,2.7-2.101,2.2-3.8l-2.4-9
	C14.2,4.125,13.1,3.326,11.9,3.125z"/>
</svg>
