<?xml version="1.0" encoding="utf-8"?>
<!DOCTYPE svg PUBLIC "-//W3C//DTD SVG 1.1//EN" "http://www.w3.org/Graphics/SVG/1.1/DTD/svg11.dtd">
<svg version="1.1" xmlns="http://www.w3.org/2000/svg" xmlns:xlink="http://www.w3.org/1999/xlink" x="0px" y="0px"
	 width="28px" height="28px" viewBox="0 0 28 28">
<path d="M10.621,15.906l-2.305,2.881l-3.189-5.601l-3.706,3.577l6.419,9.172l3.434-4.413c-0.568-1.106-0.894-2.357-0.894-3.687
	C10.38,17.17,10.47,16.526,10.621,15.906z"/>
<path d="M20.282,9.944l4.298-5.523l-2.883-2.357l-6.822,8.526c1.087-0.542,2.309-0.854,3.605-0.854
	C19.101,9.736,19.702,9.813,20.282,9.944z"/>
<g>
	<path d="M18.482,11.184c-3.676,0-6.655,2.979-6.655,6.652c0,3.676,2.979,6.652,6.655,6.652c3.674,0,6.65-2.979,6.65-6.652
		S22.154,11.184,18.482,11.184z M23.803,17.836c0,1.229-0.42,2.354-1.117,3.254l-7.46-7.459c0.901-0.697,2.026-1.116,3.253-1.116
		C21.418,12.515,23.803,14.896,23.803,17.836z M13.156,17.836c0-1.227,0.419-2.354,1.117-3.252l7.459,7.457
		c-0.9,0.699-2.025,1.117-3.252,1.117C15.541,23.159,13.156,20.776,13.156,17.836z"/>
</g>
</svg>
