<?xml version="1.0" encoding="utf-8"?>
<!-- Generator: Adobe Illustrator 15.0.0, SVG Export Plug-In  -->
<!DOCTYPE svg PUBLIC "-//W3C//DTD SVG 1.1//EN" "http://www.w3.org/Graphics/SVG/1.1/DTD/svg11.dtd" [
	<!ENTITY ns_flows "http://ns.adobe.com/Flows/1.0/">
]>
<svg version="1.1"
	 xmlns="http://www.w3.org/2000/svg" xmlns:xlink="http://www.w3.org/1999/xlink" xmlns:a="http://ns.adobe.com/AdobeSVGViewerExtensions/3.0/"
	 x="0px" y="0px" width="16px" height="16px" viewBox="-1.01 -1.01 16 16" enable-background="new -1.01 -1.01 16 16"
	 xml:space="preserve">
<defs>
</defs>
<path display="none" fill="#FFFFFF" d="M6.724,9.759c-1.094,0-1.47-0.884-1.802-1.665C4.615,7.37,4.349,6.744,3.617,6.719
	C3.603,6.718,3.588,6.718,3.573,6.718c-1.568,0-2.702,2.844-2.712,2.874L0.543,9.468C0.593,9.34,1.807,6.31,3.629,6.378
	c0.949,0.032,1.284,0.82,1.608,1.582c0.318,0.75,0.619,1.459,1.487,1.459c0.778,0,1.012-1.43,1.238-2.814
	c0.272-1.659,0.55-3.38,1.819-3.268c2.252,0.188,3.27,5.978,3.313,6.224l-0.336,0.059c-0.276-1.607-1.354-5.805-3.006-5.942
	C8.808,3.593,8.545,5.155,8.3,6.661C8.038,8.255,7.792,9.759,6.724,9.759z"/>
<path fill="#3588A6" d="M13.98,13.092c0,0.49-0.398,0.889-0.889,0.889H0.889C0.398,13.98,0,13.582,0,13.092V0.889
	C0,0.399,0.398,0,0.889,0h12.203c0.49,0,0.889,0.399,0.889,0.889V13.092z"/>
<path fill="#FFFFFF" d="M13.143,6.99c0,0.324-0.263,0.585-0.586,0.585H1.424c-0.324,0-0.586-0.261-0.586-0.585l0,0
	c0-0.323,0.262-0.585,0.586-0.585h11.133C12.88,6.405,13.143,6.667,13.143,6.99L13.143,6.99z"/>
</svg>
