<?xml version="1.0" encoding="utf-8"?>
<!-- Generator: Adobe Illustrator 15.0.0, SVG Export Plug-In  -->
<!DOCTYPE svg PUBLIC "-//W3C//DTD SVG 1.1//EN" "http://www.w3.org/Graphics/SVG/1.1/DTD/svg11.dtd" [
	<!ENTITY ns_flows "http://ns.adobe.com/Flows/1.0/">
]>
<svg version="1.1"
	 xmlns="http://www.w3.org/2000/svg" xmlns:xlink="http://www.w3.org/1999/xlink" xmlns:a="http://ns.adobe.com/AdobeSVGViewerExtensions/3.0/"
	 x="0px" y="0px" width="20px" height="20px" viewBox="-0.749 -2.035 20 20" enable-background="new -0.749 -2.035 20 20"
	 xml:space="preserve">
<defs>
</defs>
<path fill="#F79523" d="M14.337,9.378c0.021,0.065,0.035,0.132,0.035,0.2c0,0.959-2.291,1.74-5.12,1.74
	c-2.831,0-5.125-0.781-5.125-1.74c0-0.068,0.014-0.135,0.037-0.2C1.947,10.822,0.376,13.186,0,15.93h18.503
	C18.125,13.186,16.556,10.822,14.337,9.378z"/>
<path fill="#F79523" d="M13.697,4.674c0,2.585-1.99,4.676-4.444,4.676c-2.458,0-4.447-2.091-4.447-4.676
	C4.806,2.093,6.795,0,9.253,0C11.707,0,13.697,2.093,13.697,4.674z"/>
<path fill="#C8691C" d="M7.897,11.256c-2.171-0.203-3.77-0.875-3.77-1.678c0-0.068,0.014-0.135,0.037-0.2
	C1.947,10.822,0.376,13.186,0,15.93h10.707L7.897,11.256z"/>
</svg>
