<?xml version="1.0" encoding="utf-8"?>
<!-- Generator: Adobe Illustrator 15.0.0, SVG Export Plug-In  -->
<!DOCTYPE svg PUBLIC "-//W3C//DTD SVG 1.1//EN" "http://www.w3.org/Graphics/SVG/1.1/DTD/svg11.dtd" [
	<!ENTITY ns_flows "http://ns.adobe.com/Flows/1.0/">
]>
<svg version="1.1"
	 xmlns="http://www.w3.org/2000/svg" xmlns:xlink="http://www.w3.org/1999/xlink" xmlns:a="http://ns.adobe.com/AdobeSVGViewerExtensions/3.0/"
	 x="0px" y="0px" width="48px" height="48px" viewBox="-5.228 -3.588 48 48" enable-background="new -5.228 -3.588 48 48"
	 xml:space="preserve">
<defs>
</defs>
<rect fill="#FBAB20" width="28.53" height="40.824"/>
<polygon fill="#F79523" points="28.53,40.824 0,0 28.53,0 "/>
<polygon fill="#C8691C" points="28.53,40.824 37.543,34.716 28.454,34.716 "/>
<rect x="3.908" y="6.542" fill="#FFFFFF" width="20.249" height="3.773"/>
<polygon fill="#D1D3D4" points="24.157,10.315 7.213,10.335 4.557,6.538 24.157,6.542 "/>
<rect x="3.908" y="16.546" fill="#FFFFFF" width="20.249" height="3.775"/>
<polygon fill="#D1D3D4" points="24.157,20.321 14.213,20.321 11.572,16.546 24.157,16.546 "/>
<rect x="3.908" y="26.554" fill="#FFFFFF" width="20.249" height="3.771"/>
<polygon fill="#D1D3D4" points="24.157,30.326 21.182,30.326 18.557,26.554 24.157,26.554 "/>
<path fill="#52CAF5" d="M34.432,32.085c0,4.625-3.748,8.369-8.371,8.369h-8.307c-4.62,0-8.369-3.744-8.369-8.369v-8.305
	c0-4.621,3.75-8.368,8.369-8.368h8.307c4.623,0,8.371,3.747,8.371,8.368V32.085z"/>
<path fill="#3588A6" d="M26.061,15.413h-8.307c-2.116,0-4.047,0.785-5.52,2.082c-0.049,0.043,16.431,22.542,16.431,22.542
	c3.346-1.094,5.768-4.238,5.768-7.951v-8.305C34.432,19.16,30.684,15.413,26.061,15.413z"/>
<path fill="#FFFFFF" d="M19.437,32.111l-0.025-0.662c-0.127-1.352,0.33-2.754,1.529-4.18c0.967-1.172,1.631-2.064,1.631-3.057
	c0-1.072-0.689-1.787-2.115-1.811c-0.892,0-1.912,0.279-2.548,0.764l-0.764-2.241c0.916-0.588,2.37-1.047,4-1.047
	c3.16,0,4.613,1.834,4.613,3.875c0,1.857-1.096,3.107-2.189,4.355c-1.023,1.174-1.404,2.217-1.352,3.441v0.561H19.437z
	 M18.823,35.652c0-1.172,0.815-1.986,1.939-1.986c1.145,0,1.91,0.814,1.936,1.986c0,1.123-0.764,1.988-1.963,1.988
	C19.614,37.64,18.823,36.775,18.823,35.652z"/>
<path fill="#D1D3D4" d="M25.756,23.753c0-2.041-1.453-3.875-4.613-3.875c-1.629,0-3.083,0.459-4,1.047l0.764,2.241
	c0.637-0.484,1.656-0.764,2.548-0.764c1.426,0.023,2.115,0.738,2.115,1.811c0,0.992-0.664,1.885-1.631,3.057
	c-0.316,0.377-0.578,0.75-0.793,1.123c0.693,0.951,1.389,1.9,2.068,2.832c0.025-1.088,0.422-2.049,1.352-3.115
	C24.661,26.861,25.756,25.611,25.756,23.753z"/>
</svg>
