<?xml version="1.0" encoding="utf-8"?>
<svg version="1.1"
	 xmlns="http://www.w3.org/2000/svg" xmlns:xlink="http://www.w3.org/1999/xlink"
	 x="0px" y="0px" width="48px" height="48px" viewBox="-9.7 -3.7 48 48">
<defs>
</defs>
<path fill="#52CAF5" d="M13.8,27h12.8c0,0-3.2-2.5-4.5-5.3c-1.5-3.4-0.9-5.7-0.9-10c0-3-3.7-5.7-5.9-7.1c0.6-0.5,1-1.2,1-2.1
	c0-1.4-1.2-2.6-2.6-2.6c-1.4,0-2.6,1.2-2.6,2.6c0,0.8,0.4,1.6,1,2.1C10,6.1,6.3,8.8,6.3,11.8c0,4.2,0.7,6.5-0.9,10
	C4.2,24.5,1,27,1,27L13.8,27L13.8,27z M12.4,2.6c0-0.7,0.6-1.3,1.3-1.3c0.7,0,1.3,0.6,1.3,1.3c0,0.6-0.5,1.1-1,1.2
	c-0.1,0-0.1-0.1-0.1-0.1v0c0,0-0.1,0-0.2,0.1C13,3.8,12.4,3.3,12.4,2.6z"/>
<path fill="#3588A6" d="M27.1,27.2H0.5c-0.3,0-0.5,0.2-0.5,0.5c0,0.3,0.2,0.5,0.5,0.5h26.7c0.3,0,0.5-0.2,0.5-0.5
	C27.6,27.5,27.4,27.2,27.1,27.2z"/>
<path fill="#3588A6" d="M13.7,1.4C13.7,1.4,13.7,1.4,13.7,1.4c0.7,0,1.3,0.6,1.3,1.3c0,0.6-0.5,1.1-1,1.2c-0.1,0-0.1-0.1-0.1-0.1v0
	c0,0,0,0-0.1,0.1V27h0.1v0h12.8c0,0-3.2-2.5-4.5-5.3c-1.5-3.4-0.9-5.7-0.9-10c0-3-3.7-5.7-5.9-7.1c0.6-0.5,1-1.2,1-2.1
	c0-1.4-1.2-2.6-2.6-2.6c0,0-0.1,0-0.1,0V1.4z"/>
<path fill="#3588A6" d="M14.3,33.5c2.1,0,3.8-1.7,3.8-3.8h-7.6C10.5,31.8,12.2,33.5,14.3,33.5z"/>
<path fill="#F79523" d="M14.6,39.9c0,0.4-0.3,0.7-0.7,0.7l0,0c-0.4,0-0.7-0.3-0.7-0.7v-4.6c0-0.4,0.3-0.7,0.7-0.7l0,0
	c0.4,0,0.7,0.3,0.7,0.7V39.9z"/>
<path fill="#F79523" d="M20.7,37.5c0.2,0.3,0.1,0.7-0.2,1l0,0c-0.3,0.2-0.7,0.1-1-0.2l-2.7-3.8c-0.2-0.3-0.1-0.7,0.2-1l0,0
	c0.3-0.2,0.7-0.1,1,0.2L20.7,37.5z"/>
<path fill="#F79523" d="M24.5,32.2c0.4,0.1,0.5,0.5,0.4,0.9l0,0c-0.1,0.4-0.5,0.5-0.9,0.4L19.6,32c-0.4-0.1-0.5-0.5-0.4-0.9l0,0
	c0.1-0.4,0.5-0.5,0.9-0.4L24.5,32.2z"/>
<path fill="#F79523" d="M7.1,37.5c-0.2,0.3-0.1,0.7,0.2,1l0,0c0.3,0.2,0.7,0.1,1-0.2l2.7-3.8c0.2-0.3,0.1-0.7-0.2-1l0,0
	c-0.3-0.2-0.7-0.1-1,0.2L7.1,37.5z"/>
<path fill="#F79523" d="M3.4,32.2C3,32.4,2.8,32.8,3,33.1l0,0c0.1,0.4,0.5,0.5,0.9,0.4L8.2,32c0.4-0.1,0.5-0.5,0.4-0.9l0,0
	c-0.1-0.4-0.5-0.5-0.9-0.4L3.4,32.2z"/>
</svg>
