<?xml version="1.0" encoding="utf-8"?>
<svg version="1.1"
	 xmlns="http://www.w3.org/2000/svg" xmlns:xlink="http://www.w3.org/1999/xlink"
	 x="0px" y="0px" width="48px" height="48px" viewBox="-1.434 -3.433 48 48">
<defs>
</defs>
<path fill="#52CAF5" d="M38.696,16.393c-0.411,0-0.811,0.049-1.205,0.121c-1.756-2.612-4.73-4.338-8.111-4.366
	c-0.53-4.946-4.716-8.797-9.804-8.797s-9.272,3.851-9.805,8.797C4.368,12.197,0,16.59,0,22.007c0,5.449,4.416,9.865,9.864,9.865
	c4.89,0,14.546,0,19.435,0c2.732,0,5.202-1.11,6.985-2.901c0.749,0.296,1.56,0.472,2.412,0.472c3.605,0,6.527-2.922,6.527-6.524
	C45.224,19.314,42.302,16.393,38.696,16.393z"/>
<path fill="#3588A6" d="M30.396,29.68c-4.89,0-14.549,0.183-19.436,0C1.978,29.344,0,22.007,0,22.007
	c0,5.449,4.416,9.865,9.864,9.865c4.89,0,14.546,0,19.435,0L30.396,29.68z"/>
<path fill="#F79523" d="M34.349,36.836l-1.734-5.52l-9.341-8.815c0.401-0.538,0.649-1.201,0.649-1.926
	c0-1.45-0.964-2.664-2.283-3.071l1.072-11.085l-1.914-4.974L18.69,6.289l0.793,11.299c-1.18,0.48-2.016,1.637-2.016,2.987
	c0,1.785,1.446,3.232,3.228,3.232c0.253,0,0.495-0.037,0.732-0.09l7.086,11.07L34.349,36.836z"/>
<path fill="#FFFFFF" d="M33.094,31.017l-9.11-8.6c0.319-0.567,0.487-1.198,0.487-1.842c0-1.506-0.875-2.833-2.245-3.436
	l1.038-10.734l0.006-0.063L20.829,0l-2.668,6.131l-0.028,0.062l0.776,11.061c-1.232,0.658-1.99,1.915-1.99,3.322
	c0,2.084,1.695,3.779,3.776,3.779c0.154,0,0.307-0.011,0.469-0.032l6.888,10.762l0.102,0.159l7.046,2.474L33.094,31.017z
	 M19.689,18.096l0.369-0.151L19.246,6.384l1.521-3.495l1.388,3.605l-1.104,11.401l0.428,0.131c1.134,0.35,1.896,1.373,1.896,2.548
	c0,0.572-0.187,1.125-0.541,1.599l-0.292,0.392l9.592,9.05l1.364,4.341l-4.627-1.623L21.68,23.096l-0.376,0.088
	c-0.22,0.05-0.42,0.074-0.608,0.074c-1.477,0-2.68-1.203-2.68-2.683C18.015,19.484,18.672,18.51,19.689,18.096z"/>
<path fill="#3588A6" d="M12.577,22.633c0,0-6.404,5.562-7.583,10.112c-0.973,3.752,2.865,7.077,7.246,7.077
	c4.381,0,7.951-4.343,7.078-7.077C17.969,28.532,12.577,22.633,12.577,22.633z"/>
<path fill="#FFFFFF" d="M12.24,40.843c-2.828,0-5.555-1.254-7.117-3.272c-1.176-1.52-1.572-3.324-1.117-5.082
	c1.245-4.801,7.631-10.391,7.902-10.626l0.751-0.652l0.671,0.734c0.227,0.247,5.559,6.113,6.959,10.489
	c0.455,1.425,0.043,3.162-1.128,4.767C17.875,38.961,15.382,40.843,12.24,40.843z M12.498,24.09
	c-1.679,1.584-5.661,5.609-6.517,8.911c-0.376,1.451,0.203,2.606,0.756,3.32c1.184,1.53,3.292,2.48,5.502,2.48
	c2.377,0,4.283-1.45,5.273-2.806c0.772-1.057,1.083-2.156,0.833-2.94C17.356,29.963,13.957,25.79,12.498,24.09z"/>
</svg>
