<?xml version="1.0" encoding="utf-8"?>
<svg version="1.1"
	 xmlns="http://www.w3.org/2000/svg" xmlns:xlink="http://www.w3.org/1999/xlink"
	 x="0px" y="0px" width="48px" height="48px" viewBox="-1.434 -3.701 48 48">
<defs>
</defs>
<path fill="#52CAF5" d="M38.464,16.294c-0.409,0-0.807,0.049-1.198,0.12c-1.746-2.596-4.702-4.312-8.063-4.34
	c-0.526-4.916-4.687-8.743-9.744-8.743c-5.057,0-9.216,3.827-9.745,8.743C4.342,12.124,0,16.49,0,21.876
	c0,5.415,4.389,9.805,9.805,9.805c4.861,0,14.459,0,19.317,0c2.716,0,5.171-1.103,6.943-2.884c0.744,0.295,1.55,0.469,2.398,0.469
	c3.583,0,6.487-2.903,6.487-6.484C44.951,19.198,42.047,16.294,38.464,16.294z"/>
<path fill="#3588A6" d="M30.213,29.502c-4.859,0-14.461,0.181-19.318,0C1.966,29.168,0,21.876,0,21.876
	c0,5.415,4.389,9.805,9.805,9.805c4.861,0,14.459,0,19.317,0L30.213,29.502z"/>
<path fill="#F79523" d="M34.142,36.614l-1.724-5.485l-9.285-8.763c0.399-0.535,0.646-1.194,0.646-1.914
	c0-1.442-0.958-2.648-2.27-3.053l1.066-11.019l-1.902-4.944l-2.096,4.815l0.789,11.23c-1.173,0.478-2.003,1.627-2.003,2.97
	c0,1.773,1.438,3.212,3.208,3.212c0.251,0,0.491-0.037,0.727-0.089l7.044,11.003L34.142,36.614z"/>
<path fill="#FFFFFF" d="M32.895,30.83l-9.056-8.547c0.317-0.564,0.484-1.191,0.484-1.831c0-1.498-0.869-2.817-2.231-3.416
	l1.031-10.669l0.006-0.063L20.704,0l-2.652,6.094l-0.028,0.062l0.772,10.994c-1.225,0.654-1.978,1.903-1.978,3.303
	c0,2.071,1.684,3.756,3.753,3.756c0.152,0,0.305-0.011,0.466-0.032l6.846,10.697l0.102,0.157l7.002,2.459L32.895,30.83z
	 M19.57,17.987l0.366-0.15L19.13,6.346l1.512-3.474l1.379,3.584l-1.097,11.332l0.425,0.131c1.127,0.348,1.884,1.364,1.884,2.533
	c0,0.568-0.185,1.118-0.537,1.589l-0.291,0.39l9.535,8.995l1.356,4.315l-4.6-1.614L21.55,22.958l-0.375,0.087
	c-0.219,0.05-0.417,0.074-0.604,0.074c-1.468,0-2.664-1.196-2.664-2.667C17.907,19.367,18.56,18.398,19.57,17.987z"/>
<path fill="#BCBEC0" d="M12.501,22.498c0,0-6.366,5.527-7.538,10.051c-0.966,3.729,2.848,7.034,7.203,7.034
	c4.354,0,7.903-4.316,7.035-7.034C17.861,28.36,12.501,22.498,12.501,22.498z"/>
<path fill="#FFFFFF" d="M12.166,40.598c-2.811,0-5.522-1.246-7.074-3.253c-1.169-1.51-1.563-3.304-1.111-5.051
	c1.237-4.772,7.585-10.328,7.855-10.562l0.747-0.649l0.667,0.73c0.225,0.245,5.525,6.076,6.917,10.426
	c0.452,1.416,0.043,3.143-1.122,4.738C17.768,38.727,15.29,40.598,12.166,40.598z M12.422,23.945
	c-1.668,1.574-5.626,5.576-6.477,8.857c-0.374,1.443,0.202,2.591,0.751,3.301c1.177,1.521,3.272,2.465,5.469,2.465
	c2.363,0,4.257-1.44,5.241-2.788c0.768-1.05,1.077-2.143,0.827-2.923C17.251,29.783,13.873,25.635,12.422,23.945z"/>
</svg>
