<?xml version="1.0" encoding="utf-8"?>
<svg version="1.1"
	 xmlns="http://www.w3.org/2000/svg" xmlns:xlink="http://www.w3.org/1999/xlink"
	 x="0px" y="0px" width="48px" height="48px" viewBox="-3.259 -5.87 48 48">
<defs>
</defs>
<path fill="#C8691C" d="M20.74,24.282c0,1.915-1.568,3.469-3.506,3.469H3.505C1.57,27.751,0,26.197,0,24.282V3.469
	C0,1.553,1.57,0,3.505,0h13.729c1.938,0,3.506,1.553,3.506,3.469V24.282z"/>
<path fill="#F79523" d="M41.772,24.282c0,1.915-1.569,3.469-3.506,3.469H24.537c-1.935,0-3.504-1.554-3.504-3.469V3.469
	c0-1.916,1.57-3.469,3.504-3.469h13.729c1.937,0,3.506,1.553,3.506,3.469V24.282z"/>
<polygon fill="#C8691C" points="8.179,26.874 6.134,36.514 14.313,26.874 "/>
<polygon fill="#F79523" points="36.67,26.874 38.714,36.514 30.536,26.874 "/>
<polygon fill="#84D5F7" points="24.425,16.018 21.03,16.018 21.03,22.225 24.425,22.225 24.425,26.369 31.618,19.176 24.425,11.984 
	"/>
<polygon fill="#84D5F7" points="17.622,6.58 21.016,6.58 21.016,12.682 17.622,12.682 17.622,16.826 10.431,9.632 17.622,2.44 "/>
</svg>
