<?xml version="1.0" encoding="utf-8"?>
<!-- Generator: Adobe Illustrator 15.0.0, SVG Export Plug-In  -->
<!DOCTYPE svg PUBLIC "-//W3C//DTD SVG 1.1//EN" "http://www.w3.org/Graphics/SVG/1.1/DTD/svg11.dtd" [
	<!ENTITY ns_flows "http://ns.adobe.com/Flows/1.0/">
]>
<svg version="1.1"
	 xmlns="http://www.w3.org/2000/svg" xmlns:xlink="http://www.w3.org/1999/xlink" xmlns:a="http://ns.adobe.com/AdobeSVGViewerExtensions/3.0/"
	 x="0px" y="0px" width="48px" height="48px" viewBox="-3.116 -4.245 48 48" enable-background="new -3.116 -4.245 48 48"
	 xml:space="preserve">
<defs>
</defs>
<path fill="#F79523" d="M41.768,36.123c0,1.872-1.517,3.387-3.386,3.387H3.386C1.516,39.51,0,37.995,0,36.123V3.386
	C0,1.516,1.516,0,3.386,0h34.996c1.869,0,3.386,1.516,3.386,3.386V36.123z"/>
<path fill="#C8691C" d="M41.768,36.123c0,1.872-1.517,3.387-3.386,3.387H3.386c-1.87,0,38.381-37.994,38.381-36.124V36.123z"/>
<rect x="12.942" y="4.273" fill="#FFFFFF" width="16.716" height="3.232"/>
<rect x="4.666" y="12.975" fill="#52CAF5" width="8.225" height="8.227"/>
<rect x="16.547" y="12.975" fill="#52CAF5" width="8.226" height="8.227"/>
<rect x="28.429" y="12.975" fill="#52CAF5" width="8.226" height="8.227"/>
<rect x="4.666" y="25.021" fill="#52CAF5" width="8.225" height="8.225"/>
<rect x="16.547" y="25.021" fill="#52CAF5" width="8.226" height="8.225"/>
<rect x="28.429" y="25.021" fill="#52CAF5" width="8.226" height="8.225"/>
</svg>
