<?xml version="1.0" encoding="utf-8"?>
<!DOCTYPE svg PUBLIC "-//W3C//DTD SVG 1.1//EN" "http://www.w3.org/Graphics/SVG/1.1/DTD/svg11.dtd" [
	<!ENTITY ns_flows "http://ns.adobe.com/Flows/1.0/">
]>
<svg version="1.1"
	 xmlns="http://www.w3.org/2000/svg" xmlns:xlink="http://www.w3.org/1999/xlink"
	 x="0px" y="0px" width="36px" height="36px" viewBox="-1.852 -1.753 36 36">
<defs>
</defs>
<circle display="none" fill="#52CAF5" cx="16.176" cy="16.174" r="16.176"/>
<path display="none" fill="#3588A6" d="M16.698,0.026v32.301c8.692-0.277,15.655-7.394,15.655-16.153
	C32.353,7.417,25.39,0.304,16.698,0.026z"/>
<polygon display="none" fill="#F79523" points="10.402,28.358 10.4,4.183 22.49,16.271 "/>
<polygon display="none" fill="#C8691C" points="16.771,10.553 16.771,21.989 22.49,16.271 "/>
<circle fill="#F79523" cx="16.176" cy="16.174" r="16.176"/>
<path fill="#C8691C" d="M16.698,0.026v32.301c8.692-0.277,15.655-7.394,15.655-16.153C32.353,7.417,25.39,0.304,16.698,0.026z"/>
<polygon fill="#3588A6" points="22.605,28.593 22.607,4.417 18.769,8.256 10.519,16.505 "/>
<polygon fill="#52CAF5" points="16.653,10.458 10.519,16.505 16.713,22.616 "/>
</svg>
