<?xml version="1.0" encoding="utf-8"?>
<!DOCTYPE svg PUBLIC "-//W3C//DTD SVG 1.1//EN" "http://www.w3.org/Graphics/SVG/1.1/DTD/svg11.dtd" [
	<!ENTITY ns_flows "http://ns.adobe.com/Flows/1.0/">
]>
<svg version="1.1"
	 xmlns="http://www.w3.org/2000/svg" x="0px" y="0px" width="48px" height="48px" viewBox="-3.211 -2.761 48 48">
<defs>
</defs>
<ellipse cx="21.285" cy="8.026" rx="7.633" ry="8.026"/>
<path d="M36.848,25.7c-0.986-4.004-3.474-7.412-6.83-9.601c0.039,0.113,0.063,0.227,0.063,0.343c0,1.65-3.938,2.988-8.795,2.988
	c-4.859,0-8.797-1.338-8.797-2.988c0-0.117,0.025-0.23,0.065-0.343c-3.358,2.189-5.845,5.597-6.832,9.601H36.848z"/>
<path d="M15.325,34.299c-0.523,0-1.009,0.396-1.136,0.957c-0.026,0.116-0.039,0.229-0.039,0.358v0.918
	c0,0.128,0.013,0.243,0.039,0.345c0.127,0.512,0.575,0.918,1.136,0.918c0.829,0,1.34-0.638,1.34-1.76
	C16.665,35.064,16.23,34.299,15.325,34.299z"/>
<path d="M5.699,37.221c0,0.498,0.332,0.74,0.766,0.74c0.472,0,0.88-0.318,1.008-0.715c0.025-0.102,0.038-0.219,0.038-0.332v-0.675
	C6.49,36.239,5.699,36.48,5.699,37.221z"/>
<path d="M39.828,27.7H1.751C0.784,27.7,0,28.852,0,30.27v9.639c0,1.419,0.784,2.57,1.751,2.57h38.077c0.965,0,1.75-1.151,1.75-2.57
	V30.27C41.578,28.852,40.793,27.7,39.828,27.7z M7.74,39.186l-0.115-0.625H7.587c-0.408,0.498-1.046,0.767-1.787,0.767
	c-1.263,0-2.016-0.919-2.016-1.914c0-1.621,1.454-2.388,3.662-2.388v-0.074c0-0.346-0.179-0.817-1.135-0.817
	c-0.638,0-1.315,0.216-1.723,0.474l-0.357-1.252c0.434-0.242,1.289-0.562,2.425-0.562c2.08,0,2.731,1.226,2.731,2.705v2.183
	c0,0.586,0.025,1.159,0.102,1.504H7.74z M15.783,39.326c-0.727,0-1.442-0.268-1.876-1.01h-0.025l-0.076,0.869H12.16
	c0.025-0.408,0.051-1.162,0.051-1.862v-7.198h1.939v3.561h0.026c0.37-0.535,1.021-0.881,1.888-0.881
	c1.493,0,2.579,1.238,2.565,3.152C18.629,38.203,17.212,39.326,15.783,39.326z M24.503,37.795c0.459,0,0.817-0.075,1.11-0.203
	l0.23,1.43c-0.345,0.164-0.994,0.293-1.734,0.293c-2.017,0-3.305-1.237-3.305-3.19c0-1.825,1.25-3.317,3.574-3.317
	c0.509,0,1.071,0.088,1.479,0.242l-0.307,1.442c-0.23-0.104-0.574-0.192-1.085-0.192c-1.021,0-1.685,0.729-1.673,1.749
	C22.793,37.184,23.561,37.795,24.503,37.795z"/>
</svg>
