<?xml version="1.0" encoding="utf-8"?>
<!-- Generator: Adobe Illustrator 15.0.0, SVG Export Plug-In  -->
<!DOCTYPE svg PUBLIC "-//W3C//DTD SVG 1.1//EN" "http://www.w3.org/Graphics/SVG/1.1/DTD/svg11.dtd" [
	<!ENTITY ns_flows "http://ns.adobe.com/Flows/1.0/">
]>
<svg version="1.1"
	 xmlns="http://www.w3.org/2000/svg" x="0px" y="0px" width="48px" height="48px" viewBox="-1.966 -3.677 48 48">
<defs>
</defs>
<path d="M23.216,31.168c0-1.277,0.221-2.501,0.608-3.647c-0.97,0.09-1.986,0.143-3.041,0.143c-6.358,0-11.51-1.753-11.51-3.911
	c0-0.15,0.032-0.302,0.083-0.447C4.373,26.555,0.846,31.855,0,38.021h25.528C24.083,36.114,23.216,33.745,23.216,31.168z"/>
<path d="M34.59,21.69c-5.234,0-9.479,4.243-9.479,9.478s4.244,9.479,9.479,9.479s9.479-4.244,9.479-9.479S39.824,21.69,34.59,21.69z
	 M40.667,37.588c-0.823,0.768-2.112,0.721-2.882-0.1l-3.094-3.315l-3.315,3.093c-0.821,0.769-2.11,0.727-2.879-0.101
	c-0.769-0.822-0.724-2.11,0.101-2.879l3.313-3.095l-3.095-3.313c-0.768-0.825-0.723-2.114,0.1-2.881
	c0.822-0.768,2.113-0.724,2.882,0.099l3.095,3.314l3.313-3.092c0.823-0.77,2.112-0.725,2.881,0.1
	c0.769,0.822,0.724,2.112-0.101,2.878l-3.314,3.097l3.094,3.314C41.533,35.527,41.488,36.818,40.667,37.588z"/>
<path d="M20.791,0.008c-9.274,0.32-10.646,11.042-9.728,16.027c0.564,3.065-0.006,7.33,0,7.505c0,0,2.484-1.242,5.193-1.179
	c2.709,0.062,3.162,1.229,5.194,1.179c2.031-0.051,3.726-1.468,5.646-1.406c0.175,0.006,0.352,0.032,0.528,0.058
	c0.938-0.73,1.994-1.313,3.136-1.722c-0.092-1.179-0.117-2.573,0.061-3.963C31.497,11.204,31.046-0.346,20.791,0.008z
	 M17.667,11.241c-0.779,0-1.411-1.163-1.411-2.597s0.632-2.597,1.411-2.597s1.411,1.163,1.411,2.597S18.446,11.241,17.667,11.241z
	 M24.555,11.241c-0.78,0-1.411-1.163-1.411-2.597s0.631-2.597,1.411-2.597c0.779,0,1.41,1.163,1.41,2.597
	S25.334,11.241,24.555,11.241z"/>
</svg>
