<?xml version="1.0" encoding="utf-8"?>
<svg version="1.1"
	 xmlns="http://www.w3.org/2000/svg" x="0px" y="0px" width="48px" height="48px" viewBox="-1.506 -5.98 48 48">
<defs>
</defs>
<path d="M29.381,11.932c0.105-0.6,0.168-1.216,0.168-1.848C29.549,4.516,25.256,0,19.959,0c-5.301,0-9.592,4.516-9.592,10.084
	c0,5.571,4.291,10.084,9.592,10.084c0.352,0,0.699-0.023,1.042-0.062C22.407,16.265,25.494,13.242,29.381,11.932z"/>
<path d="M33.785,18.895c-1.318-1.629-3.569-1.861-5.2-0.623c-1.629,1.321-1.862,3.571-0.618,5.203
	c1.241,1.551,3.568,1.86,5.198,0.619C34.796,22.773,35.027,20.523,33.785,18.895z"/>
<path d="M33.705,13.471c-6.232,0-11.284,5.052-11.284,11.284s5.052,11.284,11.284,11.284s11.283-5.053,11.283-11.284
	S39.938,13.471,33.705,13.471z M39.607,32.945c-0.39,0.231-0.854,0.231-1.084-0.077l-5.668-7.065
	c-2.097,0.934-4.658,0.389-6.133-1.476c-1.707-2.249-1.396-5.431,0.854-7.218c2.251-1.707,5.435-1.396,7.219,0.854
	c1.708,2.173,1.396,5.2-0.544,6.986l5.589,6.984C40.074,32.243,39.995,32.711,39.607,32.945z"/>
<path d="M20.164,24.755c0-0.116,0.015-0.228,0.017-0.343c-0.075,0-0.147,0.004-0.222,0.004c-6.105,0-11.055-1.684-11.055-3.755
	c0-0.146,0.031-0.291,0.081-0.433C4.199,23.352,0.813,28.441,0,34.364h24.168C21.696,31.911,20.164,28.513,20.164,24.755z"/>
</svg>
