<?xml version="1.0" encoding="utf-8"?>
<!-- Generator: Adobe Illustrator 15.0.0, SVG Export Plug-In  -->
<!DOCTYPE svg PUBLIC "-//W3C//DTD SVG 1.1//EN" "http://www.w3.org/Graphics/SVG/1.1/DTD/svg11.dtd" [
	<!ENTITY ns_flows "http://ns.adobe.com/Flows/1.0/">
]>
<svg version="1.1"
	 xmlns="http://www.w3.org/2000/svg" xmlns:xlink="http://www.w3.org/1999/xlink" xmlns:a="http://ns.adobe.com/AdobeSVGViewerExtensions/3.0/"
	 x="0px" y="0px" width="48px" height="48px" viewBox="-2.429 -5.429 48 48"
	 xml:space="preserve">
<defs>
</defs>
<path d="M17.091,35.786l2.511-7.559l0.078-0.236l0.169-0.176l1.365-1.431c-6.432-0.065-11.589-1.854-11.589-4.054
	c0-0.158,0.034-0.313,0.087-0.466C4.539,25.238,0.878,30.742,0,37.143h16.641L17.091,35.786z"/>
<path d="M36.034,23.858l-9.707,10.115l-0.166,0.175l-0.224,0.088l-7.36,2.906h24.565C42.418,31.878,39.812,27.224,36.034,23.858z"/>
<path d="M31.938,10.9c0,6.022-4.641,10.9-10.364,10.9c-5.729,0-10.367-4.877-10.367-10.9c0-6.019,4.638-10.9,10.367-10.9
	C27.297,0,31.938,4.881,31.938,10.9z"/>
<path d="M40.372,12.827c-1.296-1.236-3.351-1.189-4.584,0.108L20.976,28.463l0.065,0.063l-0.89,2.607l2.859,2.757l2.586-1.021
	l0.074,0.071l14.808-15.527C41.715,16.115,41.668,14.062,40.372,12.827z"/>
<polygon points="18.617,35.628 19.849,32.02 22.16,34.229 "/>
</svg>
