<?xml version="1.0" encoding="utf-8"?>
<svg version="1.1"
	 xmlns="http://www.w3.org/2000/svg" x="0px" y="0px" width="48px" height="48px" viewBox="-2.614 -5.497 48 48">
<defs>
</defs>
<path d="M30.502,10.41c0,5.751-4.432,10.409-9.899,10.409c-5.472,0-9.901-4.658-9.901-10.409C10.702,4.662,15.131,0,20.604,0
	C26.07,0,30.502,4.662,30.502,10.41z"/>
<path d="M22.163,27.639c0-0.856,0.105-1.688,0.287-2.49c-0.603,0.034-1.217,0.056-1.847,0.056c-6.303,0-11.412-1.736-11.412-3.876
	c0-0.151,0.032-0.3,0.083-0.445C4.335,24.104,0.839,29.361,0,35.475h25.354C23.382,33.45,22.163,30.688,22.163,27.639z"/>
<path d="M33.404,18.272c-5.174,0-9.367,4.194-9.367,9.367c0,5.174,4.193,9.367,9.367,9.367c5.173,0,9.367-4.193,9.367-9.367
	C42.771,22.466,38.577,18.272,33.404,18.272z M39.152,29.421h-3.965v3.965c0,0.984-0.799,1.783-1.783,1.783
	c-0.982,0-1.781-0.799-1.781-1.783v-3.965h-3.966c-0.984,0-1.782-0.799-1.782-1.782c0-0.984,0.798-1.783,1.782-1.783h3.966V21.89
	c0-0.983,0.799-1.783,1.781-1.783c0.984,0,1.783,0.8,1.783,1.783v3.966h3.965c0.984,0,1.783,0.799,1.783,1.783
	C40.936,28.622,40.137,29.421,39.152,29.421z"/>
</svg>
