<?xml version="1.0" encoding="utf-8"?>
<!-- Generator: Adobe Illustrator 15.0.0, SVG Export Plug-In  -->
<!DOCTYPE svg PUBLIC "-//W3C//DTD SVG 1.1//EN" "http://www.w3.org/Graphics/SVG/1.1/DTD/svg11.dtd" [
	<!ENTITY ns_flows "http://ns.adobe.com/Flows/1.0/">
]>
<svg version="1.1"
	 xmlns="http://www.w3.org/2000/svg" x="0px" y="0px" width="48px" height="48px" viewBox="-2.506 -4.803 48 48"
	 xml:space="preserve">
<defs>
</defs>
<ellipse cx="29.885" cy="6.621" rx="6.297" ry="6.621"/>
<path d="M20.728,28.922c0.031,0.096,0.052,0.191,0.052,0.289c0,1.389-3.315,2.518-7.405,2.518c-4.091,0-7.407-1.129-7.407-2.518
	c0-0.098,0.02-0.193,0.054-0.289C2.814,31.014,0.545,34.427,0,38.395h26.748C26.203,34.427,23.934,31.014,20.728,28.922z"/>
<path d="M19.801,22.125c0,3.732-2.877,6.758-6.426,6.758c-3.552,0-6.427-3.023-6.427-6.758c0-3.732,2.875-6.758,6.427-6.758
	C16.924,15.367,19.801,18.393,19.801,22.125z"/>
<path d="M22.049,22.561h3.84l0.024-0.033c0.504-0.663,0.371-1.621-0.294-2.125l-1.393-1.052c-0.664-0.504-0.533-1.011,0.295-1.125
	l9.418-1.305c0.826-0.114,1.598,0.469,1.713,1.296l0.601,4.345h6.735c-0.534-3.887-2.758-7.23-5.899-9.279
	c0.03,0.093,0.052,0.188,0.052,0.283c0,1.36-3.248,2.465-7.256,2.465s-7.256-1.105-7.256-2.465c0-0.095,0.02-0.19,0.053-0.283
	c-1.201,0.783-2.265,1.757-3.154,2.876c1.566,1.572,2.535,3.739,2.535,6.132C22.063,22.381,22.051,22.47,22.049,22.561z"/>
<path d="M34.67,18.958c-0.088-0.623-0.669-1.064-1.293-0.979l-7.107,0.985c-0.623,0.087-0.726,0.469-0.223,0.851l1.049,0.795
	c0.504,0.379,0.605,1.102,0.223,1.604l-4.297,5.678c-0.381,0.504-0.28,1.227,0.223,1.606l3.099,2.344
	c0.503,0.382,1.226,0.28,1.604-0.221l4.297-5.681c0.381-0.502,1.104-0.604,1.605-0.223l1.049,0.795
	c0.502,0.379,0.843,0.18,0.756-0.445L34.67,18.958z"/>
</svg>
