<?xml version="1.0" encoding="utf-8"?>
<svg version="1.1"
	 xmlns="http://www.w3.org/2000/svg" xmlns:xlink="http://www.w3.org/1999/xlink"
	 x="0px" y="0px" width="48px" height="48px" viewBox="-2.733 -4.876 48 48">
<defs>
</defs>
<path fill="#52CAF5" d="M34.43,4.582L30.078,0.23c-0.401-0.401-0.73-0.265-0.73,0.303v2.443H11.623c-2.183,0-3.953,1.77-3.953,3.953
	c0,1.375,0.703,2.583,1.768,3.291c0.645-1.306,1.978-2.212,3.533-2.212h16.376v2.083c0,0.568,0.329,0.704,0.73,0.303l4.352-4.351
	C34.831,5.641,34.831,4.983,34.43,4.582z"/>
<polygon fill="#F79523" points="36.202,4.144 36.202,7.135 39.842,7.135 39.842,35.829 2.56,35.829 2.56,7.135 6.199,7.135 
	6.199,4.144 0,4.144 0,38.819 42.401,38.819 42.401,4.144 "/>
<rect x="7.552" y="14.25" fill="#F79523" width="26.771" height="1.976"/>
<rect x="7.552" y="19.416" fill="#F79523" width="26.771" height="1.976"/>
<rect x="7.552" y="24.582" fill="#F79523" width="26.771" height="1.976"/>
<rect x="7.552" y="29.748" fill="#F79523" width="26.771" height="1.975"/>
<polygon fill="#C8691C" points="20.396,19.416 7.552,19.416 7.552,21.392 20.012,21.392 "/>
<polygon fill="#C8691C" points="19.391,24.582 7.552,24.582 7.552,26.557 19.006,26.557 "/>
<path fill="#3588A6" d="M23.597,2.977H11.623c-2.183,0-3.953,1.77-3.953,3.953c0,1.375,0.703,2.583,1.768,3.291
	c0.645-1.306,1.978-2.212,3.533-2.212h9.647L23.597,2.977z"/>
<polygon fill="#C8691C" points="17.201,35.829 2.56,35.829 2.56,7.135 6.199,7.135 6.199,4.144 0,4.144 0,38.819 16.619,38.819 "/>
<polygon fill="#C8691C" points="18.385,29.748 7.552,29.748 7.552,31.722 18,31.722 "/>
<polygon fill="#C8691C" points="21.402,14.25 7.552,14.25 7.552,16.227 21.017,16.227 "/>
</svg>
