<?xml version="1.0" encoding="utf-8"?>
<svg version="1.1"
	 xmlns="http://www.w3.org/2000/svg" xmlns:xlink="http://www.w3.org/1999/xlink"
	 x="0px" y="0px" width="48px" height="48px" viewBox="-7.743 -3.367 48 48">
<defs>
</defs>
<path fill="#F79523" d="M31.722,0H2.276C1.02,0,0,1.258,0,2.812V29.05c0,1.553,1.02,2.813,2.276,2.813h5.371l2.126,9.77l8.957-9.77
	h12.993c1.256,0,2.275-1.26,2.275-2.813V2.812C33.998,1.258,32.978,0,31.722,0z M30.917,26.792c0,1.252-0.822,2.269-1.833,2.269
	H16.914l-5.555,6.654l-1.147-6.673L4.916,29.06c-1.012,0-1.835-1.017-1.835-2.269V5.624c0-1.252,0.823-2.268,1.835-2.268h24.169
	c1.011,0,1.833,1.016,1.833,2.268V26.792z"/>
<path fill="#C8691C" d="M30.907,5.484c0.002,0.047,0.011,0.092,0.011,0.14v21.167c0,1.252-0.822,2.269-1.833,2.269H16.914
	l-5.555,6.654l-1.13-6.578l-2.484,3.169l2.028,9.327l8.957-9.77h12.993c1.256,0,2.275-1.26,2.275-2.813V2.812
	c0-0.373-0.063-0.729-0.17-1.055L30.907,5.484z"/>
<rect x="6.857" y="7.473" fill="#52CAF5" width="20.284" height="3.202"/>
<rect x="6.857" y="14.412" fill="#52CAF5" width="20.284" height="3.203"/>
<rect x="6.857" y="21.35" fill="#52CAF5" width="20.284" height="3.203"/>
<path fill="#3588A6" d="M24.053,37.428l-6.179-12.215c-0.065-0.117-0.158-0.205-0.247-0.295c4.728-3.083,6.372-9.327,3.629-14.37
	C18.37,5.242,11.731,3.28,6.425,6.167c-5.306,2.885-7.267,9.526-4.38,14.832c2.612,4.803,8.301,6.85,13.289,5.057
	c0.025,0.157,0.063,0.313,0.144,0.459l6.18,12.217c0.363,0.664,1.188,0.907,1.85,0.548C24.168,38.919,24.413,38.09,24.053,37.428z
	 M5.501,19.117c-1.846-3.395-0.59-7.646,2.804-9.491c3.396-1.849,7.646-0.593,9.493,2.804c1.844,3.395,0.591,7.645-2.803,9.491
	C11.6,23.77,7.348,22.513,5.501,19.117z"/>
<path fill="#3588A6" d="M24.011,39.865c-0.995,0.506-2.211,0.112-2.717-0.88l-3.553-6.954c-0.507-0.995-0.114-2.21,0.88-2.718l0,0
	c0.991-0.506,2.209-0.112,2.717,0.881l3.55,6.954C25.398,38.14,25.003,39.357,24.011,39.865L24.011,39.865z"/>
</svg>
