<?xml version="1.0" encoding="utf-8"?>
<svg version="1.1"
	 xmlns="http://www.w3.org/2000/svg" xmlns:xlink="http://www.w3.org/1999/xlink"
	 x="0px" y="0px" width="48px" height="48px" viewBox="-4 -3 48 48">
<defs>
</defs>
<polygon fill="#52CAF5" points="30.3,10.9 30.3,15.1 36.3,18.3 36.3,39.5 3.5,39.5 3.5,18.3 8.4,15.6 8.4,11.3 0,16 0,42.6 
	39.5,42.6 39.5,16 "/>
<polyline fill="#F5F5F5" points="30.8,15.2 30.7,17 18.7,16.9 "/>
<rect x="13.5" y="10" fill="#F79523" width="11.8" height="2.6"/>
<polygon fill="#C8691C" points="20.2,10 20.2,12.7 25.3,12.7 25.3,10 "/>
<rect x="13.5" y="17.5" fill="#F79523" width="11.8" height="2.6"/>
<polygon fill="#C8691C" points="20.2,17.5 20.2,20.1 25.3,20.1 25.3,17.5 "/>
<polygon fill="#C8691C" points="28.9,22 32.1,22 32.1,0 19.1,0 19.1,3.2 28.9,3.2 "/>
<polygon fill="#F79523" points="10.1,22 10.1,3.2 19.9,3.2 19.9,0 6.9,0 6.9,22 "/>
<polygon fill="#52CAF5" points="2.8,17.4 19.9,26.6 37.2,17.4 37.4,21.2 19.9,30.4 2.8,21.5 "/>
<polygon fill="#52CAF5" points="20.4,29.6 22.2,28.8 29.5,35.7 19.9,30.4 10.9,34.4 17.3,29 "/>
</svg>
