<?xml version="1.0" encoding="utf-8"?>
<svg version="1.1"
	 xmlns="http://www.w3.org/2000/svg" xmlns:xlink="http://www.w3.org/1999/xlink"
	 x="0px" y="0px" width="48px" height="48px" viewBox="-4.641 -1.679 48 48">
<defs>
</defs>
<polygon fill="#C8691C" points="14.54,0 14.54,3.815 26.159,3.824 26.159,40.589 14.419,40.589 14.419,44.404 29.927,44.404 
	29.927,0.007 "/>
<polygon fill="#F79523" points="15.388,0 15.388,3.815 3.768,3.824 3.768,40.589 15.508,40.589 15.508,44.404 0,44.404 0,0.007 "/>
<rect x="7.854" y="11.92" fill="#F79523" width="13.971" height="3.129"/>
<polygon fill="#C8691C" points="15.742,11.909 15.742,15.037 21.825,15.05 21.825,11.92 "/>
<rect x="7.854" y="20.799" fill="#F79523" width="13.971" height="3.13"/>
<polygon fill="#C8691C" points="15.742,20.787 15.742,23.916 21.825,23.928 21.825,20.799 "/>
<rect x="7.854" y="29.677" fill="#F37029" width="13.971" height="3.13"/>
<path fill="#52CAF5" d="M39.692,41.136c0,1.782-2.733,3.229-1.942,3.229H17.18c-0.891,0.319-3.229-1.447-3.229-3.229V28.754
	c0-1.783,1.444-3.229,3.229-3.229h19.283c1.782,0,3.229,1.445,3.229,3.229V41.136z"/>
<path fill="#3588A6" d="M36.463,25.526H26.445v18.84h10.018c1.782,0,3.229-1.447,3.229-3.229V28.754
	C39.692,26.971,38.245,25.526,36.463,25.526"/>
<g>
	<path fill="#FFFFFF" d="M28.475,28.782c-0.798-1.444-2.103-1.444-2.9,0l-6.307,11.42c-0.797,1.444-0.1,2.626,1.55,2.626H33.23
		c1.65,0,2.348-1.182,1.55-2.626L28.475,28.782z M27.122,29.881c2.414,0,0,8.541,0,8.541S24.709,29.881,27.122,29.881z
		 M27.122,42.036c-0.727,0-1.314-0.589-1.314-1.315s0.588-1.315,1.314-1.315c0.728,0,1.315,0.589,1.315,1.315
		S27.85,42.036,27.122,42.036z"/>
</g>
</svg>
