<?xml version="1.0" encoding="utf-8"?>
<!DOCTYPE svg PUBLIC "-//W3C//DTD SVG 1.1//EN" "http://www.w3.org/Graphics/SVG/1.1/DTD/svg11.dtd" [
	<!ENTITY ns_flows "http://ns.adobe.com/Flows/1.0/">
]>
<svg version="1.1"
	 xmlns="http://www.w3.org/2000/svg" xmlns:xlink="http://www.w3.org/1999/xlink"
	 x="0px" y="0px" width="48px" height="48px" viewBox="-3.8 -4.1 48 48">
<defs>
</defs>
<path fill="#F79523" d="M0,40.5h40.9V14.1H0V40.5z M33.8,17.4l-13,10.5l-13-10.5H33.8z M3.3,37.3V18.4l17.5,14.2l16.7-13.6v18.2H3.3
	z"/>
<polygon fill="#C8691C" points="20.8,14.1 20.8,17.4 33.8,17.4 20.8,27.9 20.8,27.8 20.8,32.6 20.8,32.6 37.5,19.1 37.5,37.3 
	20.8,37.3 20.8,40.5 40.9,40.5 40.9,14.1 "/>
<polygon fill="#52CAF5" points="35.6,5.7 20.7,20.6 5.8,5.7 "/>
<polygon fill="#3588A6" points="35.6,5.7 20.7,20.6 20.7,5.7 "/>
<rect x="12.7" fill="#52CAF5" width="17.5" height="5.6"/>
<rect x="20.6" fill="#3588A6" width="9.6" height="5.6"/>
</svg>
