<?xml version="1.0" encoding="utf-8"?>
<svg version="1.1"
	 xmlns="http://www.w3.org/2000/svg" xmlns:xlink="http://www.w3.org/1999/xlink"
	 x="0px" y="0px" width="48px" height="48px" viewBox="-10.025 -4.652 48 48">
<defs>
</defs>
<polygon fill="#F79523" points="19.765,40 26.958,32.486 19.793,32.486 "/>
<rect fill="#F79523" width="19.75" height="40"/>
<rect x="0.015" y="21" fill="#C8691C" width="19.75" height="19"/>
<path fill="#FFFFFF" d="M5.798,36.348v-1.587c-0.92-0.015-1.856-0.301-2.411-0.698l0.381-1.062c0.555,0.363,1.38,0.682,2.268,0.682
	c1.127,0,1.889-0.65,1.889-1.555c0-0.872-0.619-1.412-1.793-1.887c-1.618-0.637-2.617-1.382-2.617-2.761
	c0-1.318,0.936-2.316,2.379-2.556v-1.586h1v1.54c0.936,0.031,1.586,0.285,2.063,0.554L8.558,26.48
	c-0.333-0.189-0.983-0.556-1.999-0.556c-1.222,0-1.681,0.729-1.681,1.381c0,0.81,0.587,1.221,1.967,1.809
	c1.634,0.665,2.459,1.475,2.459,2.887c0,1.269-0.873,2.442-2.507,2.697v1.649H5.798z"/>
<path fill="#FFFFFF" d="M12.734,36.348v-1.587c-0.921-0.015-1.856-0.301-2.412-0.698l0.381-1.062
	c0.556,0.363,1.381,0.682,2.27,0.682c1.126,0,1.887-0.65,1.887-1.555c0-0.872-0.619-1.412-1.793-1.887
	c-1.618-0.637-2.617-1.382-2.617-2.761c0-1.318,0.938-2.316,2.38-2.556v-1.586h0.998v1.54c0.938,0.031,1.588,0.285,2.064,0.554
	l-0.397,1.048c-0.334-0.189-0.983-0.556-1.999-0.556c-1.221,0-1.682,0.729-1.682,1.381c0,0.81,0.588,1.221,1.968,1.809
	c1.634,0.665,2.459,1.475,2.459,2.887c0,1.269-0.873,2.442-2.508,2.697v1.649H12.734z"/>
<rect x="3.715" y="4.952" fill="#FFFFFF" width="11.883" height="2"/>
<rect x="3.715" y="9.952" fill="#FFFFFF" width="11.883" height="2"/>
<rect x="3.715" y="14.952" fill="#FFFFFF" width="11.883" height="2"/>
</svg>
