<?xml version="1.0" encoding="utf-8"?>
<svg version="1.1"
	 xmlns="http://www.w3.org/2000/svg" xmlns:xlink="http://www.w3.org/1999/xlink"
	 x="0px" y="0px" width="48px" height="48px" viewBox="-0.992 -5.423 48 48">
<defs>
</defs>
<path fill="#52CAF5" d="M39.187,16.601c-0.417,0-0.821,0.049-1.221,0.122c-1.778-2.646-4.79-4.393-8.214-4.421
	c-0.537-5.008-4.776-8.908-9.928-8.908s-9.389,3.9-9.928,8.908C4.423,12.352,0,16.8,0,22.287c0,5.518,4.472,9.989,9.989,9.989
	c4.952,0,14.73,0,19.681,0c2.767,0,5.268-1.124,7.074-2.938c0.758,0.3,1.578,0.478,2.442,0.478c3.651,0,6.609-2.959,6.609-6.606
	C45.796,19.559,42.838,16.601,39.187,16.601z"/>
<path fill="#3588A6" d="M30.781,30.056c-4.951,0-14.734,0.185-19.682,0C2.002,29.715,0,22.287,0,22.287
	c0,5.518,4.472,9.989,9.989,9.989c4.952,0,14.73,0,19.681,0L30.781,30.056z"/>
<path fill="#F79523" d="M34.783,37.302l-1.756-5.589l-9.459-8.928c0.406-0.545,0.657-1.216,0.657-1.95
	c0-1.468-0.976-2.698-2.312-3.109L23,6.5l-1.938-5.037l-2.135,4.906l0.803,11.441c-1.195,0.487-2.041,1.657-2.041,3.025
	c0,1.808,1.465,3.273,3.269,3.273c0.256,0,0.501-0.038,0.74-0.091l7.176,11.21L34.783,37.302z"/>
<path fill="#FFFFFF" d="M33.513,31.41l-9.227-8.708c0.324-0.575,0.494-1.214,0.494-1.866c0-1.525-0.885-2.869-2.273-3.479
	l1.051-10.869l0.006-0.064L21.093,0l-2.703,6.208l-0.028,0.063l0.787,11.2c-1.248,0.667-2.015,1.939-2.015,3.364
	c0,2.111,1.715,3.827,3.824,3.827c0.155,0,0.312-0.011,0.475-0.033l6.975,10.898l0.103,0.16l7.135,2.506L33.513,31.41z
	 M19.938,18.325l0.373-0.153L19.49,6.465l1.541-3.539l1.405,3.65l-1.117,11.546l0.433,0.133c1.148,0.354,1.92,1.39,1.92,2.58
	c0,0.58-0.189,1.14-0.547,1.619l-0.295,0.397l9.714,9.164l1.382,4.396l-4.687-1.645l-7.283-11.379l-0.38,0.089
	c-0.224,0.05-0.425,0.075-0.616,0.075c-1.497,0-2.714-1.219-2.714-2.718C18.243,19.731,18.909,18.745,19.938,18.325z"/>
</svg>
