<?xml version="1.0" encoding="utf-8"?>
<svg version="1.1"
	 xmlns="http://www.w3.org/2000/svg" xmlns:xlink="http://www.w3.org/1999/xlink"
	 x="0px" y="0px" width="48px" height="48px" viewBox="-3.1 -13.7 48 48">
<defs>
</defs>
<polygon fill="#F79523" points="0,22.1 41.7,22.1 32.2,0 12.7,0.4 "/>
<polygon fill="#FCB51E" points="8.1,8.1 33.6,3.5 32.2,0 12.7,0.1 "/>
<polygon fill="#C8691C" points="17,20 26.2,20 24.7,13.8 19.4,13.9 "/>
<polygon fill="#C8691C" points="20,11.3 24.5,11.3 23.8,8.1 21.2,8.1 "/>
<polygon fill="#C8691C" points="21.5,7 23.7,7 23.3,5.5 22.1,5.5 "/>
<polygon fill="#C8691C" points="22.2,4.7 23.3,4.7 23.1,3.9 22.5,4 "/>
<polygon fill="#C8691C" points="22.4,3.4 23.2,3.4 23.1,2.9 22.6,2.9 "/>
<polygon fill="#C8691C" points="22.6,1.6 23.1,1.6 23,1.3 22.7,1.3 "/>
<polygon fill="#C8691C" points="22.7,1.1 23,1.1 22.9,0.8 22.7,0.8 "/>
<polygon fill="#3588A6" points="0.1,22 5.2,12.6 1.5,12.4 10.2,7.8 16.3,13.1 11.6,13 8.2,22.1 "/>
</svg>
