<?xml version="1.0" encoding="utf-8"?>
<!-- Generator: Adobe Illustrator 15.0.0, SVG Export Plug-In  -->
<!DOCTYPE svg PUBLIC "-//W3C//DTD SVG 1.1//EN" "http://www.w3.org/Graphics/SVG/1.1/DTD/svg11.dtd" [
	<!ENTITY ns_flows "http://ns.adobe.com/Flows/1.0/">
]>
<svg version="1.1"
	 xmlns="http://www.w3.org/2000/svg" xmlns:xlink="http://www.w3.org/1999/xlink" xmlns:a="http://ns.adobe.com/AdobeSVGViewerExtensions/3.0/"
	 x="0px" y="0px" width="48px" height="48px" viewBox="-2.136 0 48 48" enable-background="new -2.136 0 48 48"
	 xml:space="preserve">
<defs>
</defs>
<path display="none" fill="#FFFFFF" d="M22.347,23.796c-6.56,0-11.897-5.337-11.897-11.898S15.787,0,22.347,0
	c6.562,0,11.899,5.337,11.899,11.898S28.908,23.796,22.347,23.796z M22.347,1C16.338,1,11.45,5.889,11.45,11.898
	c0,6.009,4.889,10.898,10.897,10.898c6.01,0,10.899-4.889,10.899-10.898C33.246,5.889,28.357,1,22.347,1z"/>
<path d="M23.983,6.822c-6.294,0-11.397,5.103-11.397,11.398c0,0.641,0.071,1.262,0.173,1.874h8.983l5.249-8.234l7.331,11.137
	c0.673-1.455,1.06-3.069,1.06-4.777C35.382,11.925,30.279,6.822,23.983,6.822z"/>
<polygon points="10.658,41.178 27.032,15.49 43.729,41.178 "/>
<polygon points="20.173,22.556 0,22.556 0,41.178 8.302,41.178 "/>
</svg>
