<?xml version="1.0" encoding="utf-8"?>
<svg version="1.1"
	 xmlns="http://www.w3.org/2000/svg" xmlns:xlink="http://www.w3.org/1999/xlink"
	 x="0px" y="0px" width="48px" height="48px" viewBox="-4.571 -2.512 48 48">
<defs>
</defs>
<path fill="#F79523" d="M4.515,0.736v41.752h34.343V0.736L22.19,12.768L4.515,0.736z M34.481,38.062H8.886V7.837l13.268,9.357
	l12.328-9.357V38.062z"/>
<polygon fill="#C8691C" points="22.259,12.792 22.237,17.178 34.481,7.837 34.481,38.062 22.254,38.062 22.254,42.488 
	38.857,42.488 38.857,0.736 "/>
<rect x="13.279" y="29.451" fill="#F79523" width="16.21" height="3.631"/>
<polygon fill="#C8691C" points="22.397,29.436 22.397,33.067 29.454,33.082 29.454,29.45 "/>
<rect x="13.279" y="21.43" fill="#F79523" width="16.21" height="3.633"/>
<polygon fill="#C8691C" points="22.397,21.416 22.397,25.046 29.454,25.063 29.454,21.43 "/>
<polygon fill="#F79523" points="38.846,3.673 4.519,3.632 4.519,0 38.846,0.04 "/>
<polygon fill="#C8691C" points="22.397,0.026 22.397,3.656 38.812,3.673 38.812,0.039 "/>
<path fill="#3588A6" d="M22.57,37.889c0,1.2-1.057,2.176-2.361,2.176H2.361C1.058,40.064,0,39.089,0,37.889V17.52
	c0-1.201,1.058-2.176,2.361-2.176h17.848c1.305,0,2.361,0.975,2.361,2.176V37.889z"/>
<path fill="#FFFFFF" d="M15.621,36.079c-1.629,0.734-3.04,0.978-4.994,0.978c-4.506,0-8.469-3.229-8.469-8.549
	c0-5.538,4.045-10.342,10.151-10.342c4.805,0,8.225,3.284,8.225,7.844c0,3.99-2.226,6.487-5.157,6.487
	c-1.275,0-2.199-0.678-2.335-2.091h-0.054c-0.868,1.357-2.063,2.091-3.528,2.091c-1.737,0-3.04-1.329-3.04-3.556
	c0-3.339,2.47-6.324,6.379-6.324c1.193,0,2.551,0.299,3.229,0.651l-0.814,5.049c-0.271,1.602-0.081,2.335,0.679,2.361
	c1.167,0.054,2.633-1.438,2.633-4.587c0-3.556-2.279-6.27-6.487-6.27c-4.18,0-7.789,3.23-7.789,8.441c0,4.56,2.876,7.11,6.921,7.11
	c1.385,0,2.877-0.298,3.963-0.841L15.621,36.079z M13.205,24.87c-0.217-0.055-0.516-0.109-0.841-0.109
	c-1.792,0-3.203,1.765-3.203,3.854c0,1.031,0.462,1.684,1.357,1.684c1.004,0,2.063-1.276,2.307-2.851L13.205,24.87z"/>
</svg>
