<?xml version="1.0" encoding="utf-8"?>
<svg version="1.1"
	 xmlns="http://www.w3.org/2000/svg" xmlns:xlink="http://www.w3.org/1999/xlink"
	 x="0px" y="0px" width="48px" height="48px" viewBox="-6.105 -5.194 48 48">
<defs>
</defs>
<path fill="#3588A6" d="M36.388,31.643c0,2.317-1.881,4.197-4.198,4.197H4.198C1.88,35.84,0,33.96,0,31.643V6.449
	C0,4.13,1.88,2.251,4.198,2.251h9.541l4.268,5.598h14.183c2.317,0,4.198,1.879,4.198,4.199V31.643z"/>
<rect x="10.359" y="3.948" transform="matrix(0.8974 -0.4412 0.4412 0.8974 -2.3657 10.203)" fill="#F79523" width="20.8" height="12.482"/>
<path fill="#52CAF5" d="M36.388,34.44c0,2.32-1.881,4.198-4.198,4.198H4.198C1.88,38.639,0,36.761,0,34.44V9.249
	C0,6.93,1.88,5.05,4.198,5.05h9.541l4.268,5.598h14.183c2.317,0,4.198,1.879,4.198,4.198V34.44z"/>
<polygon fill="#FFFFFF" points="18.582,28.411 13.013,29.35 10.629,34.469 8.016,29.462 2.41,28.778 6.363,24.745 5.282,19.202 
	10.34,21.716 15.277,18.975 14.449,24.563 "/>
</svg>
