<?xml version="1.0" encoding="utf-8"?>
<svg version="1.1"
	 xmlns="http://www.w3.org/2000/svg" xmlns:xlink="http://www.w3.org/1999/xlink"
	 x="0px" y="0px" width="48px" height="48px" viewBox="-2.473 -3.238 48 48">
<defs>
</defs>
<path fill="#F79523" d="M30.164,13.672c0,5.691-4.381,10.295-9.787,10.295c-5.412,0-9.792-4.604-9.792-10.295
	c0-5.685,4.38-10.293,9.792-10.293C25.783,3.379,30.164,7.987,30.164,13.672z"/>
<path fill="#F79523" d="M31.753,24.152c-0.059-0.039-0.117-0.082-0.176-0.121c0.018,0.057,0.018,0.116,0.031,0.175
	C31.658,24.188,31.705,24.168,31.753,24.152z"/>
<path fill="#F79523" d="M25.158,33.352c0-2.181,0.727-4.187,1.939-5.809c-1.879,0.476-4.199,0.761-6.72,0.761
	c-6.234,0-11.286-1.721-11.286-3.833c0-0.149,0.032-0.297,0.08-0.44C4.287,27.213,0.83,32.416,0,38.459h26.619
	C25.699,36.974,25.158,35.228,25.158,33.352z"/>
<path fill="#C8691C" d="M17.395,28.165c-4.785-0.443-8.304-1.929-8.304-3.693c0-0.149,0.032-0.297,0.08-0.44
	C4.287,27.213,0.83,32.416,0,38.459h23.582L17.395,28.165z"/>
<circle fill="#52CAF5" cx="34.882" cy="33.352" r="8.172"/>
<path fill="#FFFFFF" d="M39.464,30.668c0,0.427-0.066,0.807-0.197,1.144c-0.131,0.338-0.305,0.641-0.521,0.904
	c-0.217,0.268-0.461,0.508-0.725,0.725c-0.268,0.217-0.537,0.431-0.809,0.644c-0.232,0.185-0.463,0.376-0.688,0.575
	c-0.225,0.198-0.42,0.416-0.59,0.648c-0.172,0.234-0.309,0.498-0.412,0.793s-0.154,0.619-0.154,0.973v0.172H33.91
	c-0.014-0.205-0.021-0.363-0.021-0.469c0-0.482,0.07-0.918,0.213-1.309s0.336-0.734,0.582-1.033c0.244-0.297,0.51-0.561,0.797-0.786
	c0.287-0.228,0.568-0.448,0.846-0.661c0.191-0.148,0.373-0.302,0.543-0.458c0.17-0.155,0.32-0.321,0.453-0.498
	c0.131-0.179,0.232-0.37,0.309-0.581c0.074-0.209,0.111-0.445,0.111-0.707c0-0.313-0.066-0.593-0.197-0.841
	c-0.131-0.249-0.316-0.458-0.553-0.628c-0.238-0.171-0.521-0.302-0.852-0.394c-0.33-0.093-0.697-0.14-1.102-0.14
	c-0.533,0-1.057,0.068-1.57,0.203s-0.973,0.294-1.379,0.479v-1.404c0.383-0.205,0.846-0.373,1.391-0.501
	c0.541-0.128,1.086-0.19,1.633-0.19c0.674,0,1.279,0.078,1.814,0.239c0.535,0.16,0.99,0.386,1.365,0.68
	c0.373,0.295,0.664,0.646,0.867,1.055C39.363,29.708,39.464,30.166,39.464,30.668z M33.613,40.109v-2.074h1.648v2.074H33.613z"/>
<path fill="#C8691C" d="M9.223,16.964v-4.457c0-5.116,3.103-11.076,11.176-10.999c8.913,0.085,11.19,5.882,11.19,10.999v4.457
	l1.23-0.361V11.5c0-5.846-3.77-11.434-12.414-11.5C12.472-0.06,7.991,5.654,7.991,11.5v5.102L9.223,16.964z"/>
<path fill="#C8691C" d="M8.771,16.469c0,0.88-0.712,1.593-1.592,1.593l0,0c-0.879,0-1.592-0.713-1.592-1.593v-4.774
	c0-0.88,0.713-1.593,1.592-1.593l0,0c0.88,0,1.592,0.713,1.592,1.593V16.469z"/>
<path fill="#C8691C" d="M35.125,16.469c0,0.88-0.713,1.593-1.594,1.593l0,0c-0.879,0-1.592-0.713-1.592-1.593v-4.774
	c0-0.88,0.713-1.593,1.592-1.593l0,0c0.881,0,1.594,0.713,1.594,1.593V16.469z"/>
<path fill="#C8691C" d="M32.546,20.216l0.795-3.569l-1.234-0.276l-0.662,2.97c-0.271,1.223-0.844,2.319-1.633,3.194
	c-0.266-0.318-0.627-0.563-1.061-0.663c-1.063-0.247-2.121,0.411-2.367,1.471s0.41,2.116,1.471,2.363s2.117-0.411,2.365-1.471
	c0.006-0.02,0.004-0.037,0.008-0.058C31.353,23.163,32.191,21.808,32.546,20.216z"/>
</svg>
