<?xml version="1.0" encoding="utf-8"?>
<svg version="1.1"
	 xmlns="http://www.w3.org/2000/svg" xmlns:xlink="http://www.w3.org/1999/xlink"
	 x="0px" y="0px" width="36px" height="36px" viewBox="0 0 36 36">
<defs>
</defs>
<rect opacity="0" fill="#FFFFFF" width="36" height="36"/>
<path fill="#F89624" d="M1.697,22.887h30.188V1.705H1.697V22.887z M26.664,4.098l-9.573,7.784L7.516,4.098H26.664z M4.167,20.492
	V4.875l12.925,10.509L29.418,5.362v15.13H4.167z"/>
<polygon fill="#C86B28" points="17.048,1.705 17.048,4.098 26.664,4.098 17.09,11.882 17.048,11.847 17.048,15.349 17.09,15.384 
	29.418,5.362 29.418,20.492 17.048,20.492 17.048,22.887 31.886,22.887 31.886,1.705 "/>
<rect x="19.655" y="20.416" fill="#3689A6" width="14.647" height="13.879"/>
<path fill="#FFFFFF" d="M32.313,32.486h-9.718c-0.631,0-0.948-0.197-0.948-0.592v-9.078c0-0.393,0.317-0.59,0.948-0.59h8.768
	c0.631,0,0.95,0.197,0.95,0.59v6.838c0,0.393-0.319,0.588-0.95,0.588h-5.884c-0.632,0-0.949-0.191-0.949-0.578v-2.289
	c0-0.395,0.317-0.594,0.949-0.594h2.157v-1.467h-1.366v0.918h-1.634v-1.227c0-0.393,0.309-0.59,0.93-0.59h2.829
	c0.636,0,0.949,0.197,0.949,0.59v4.535h1.839v-6.637h-8.406v8.912h9.538v0.67H32.313z M27.635,29.385v-1.756h-1.407v1.756H27.635z"
	/>
</svg>
