<?xml version="1.0" encoding="utf-8"?>
<svg version="1.1"
	 xmlns="http://www.w3.org/2000/svg" xmlns:xlink="http://www.w3.org/1999/xlink"
	 x="0px" y="0px" width="36px" height="36px" viewBox="0 0 36 36">
<defs>
</defs>
<rect opacity="0" fill="#FFFFFF" width="36" height="36"/>
<path fill="#56CAF5" d="M15.747,34.258c-0.036,0.009-7.386,0-9.664,0c-2.279,0-4.125-1.846-4.125-4.123v-8.837
	c0-2.277,0.922-4.124,3.2-4.124h6.465c2.277,0,4.123,1.846,4.123,4.124V34.258L15.747,34.258z"/>
<path fill="#C86B28" d="M6.097,34.249c2.278,0,4.42,0.045,4.125-4.09L10.205,1.697H9.346L9.36,29.202
	C9.521,33.224,6.097,34.249,6.097,34.249"/>
<path fill="#F89624" d="M10.206,1.693v28.441c0,1.836-1.205,3.589-2.863,4.123h20.048c0,0,3.713,0.486,5.264-1.617
	c1.504-2.04,1.385-4.618,1.385-4.618V1.693H10.206z"/>
<rect x="12.218" y="3.297" fill="#FFFFFF" width="18.788" height="6.871"/>
<rect x="12.552" y="12.311" fill="#FFFFFF" width="8.003" height="1.385"/>
<rect x="12.552" y="16.004" fill="#FFFFFF" width="8.003" height="1.384"/>
<rect x="12.552" y="19.698" fill="#FFFFFF" width="8.003" height="1.384"/>
<rect x="12.552" y="23.393" fill="#FFFFFF" width="8.003" height="1.384"/>
<rect x="22.708" y="12.311" fill="#FFFFFF" width="8.005" height="1.385"/>
<rect x="22.708" y="16.004" fill="#FFFFFF" width="8.005" height="1.384"/>
<rect x="22.708" y="19.698" fill="#FFFFFF" width="8.005" height="1.384"/>
<rect x="22.708" y="23.393" fill="#FFFFFF" width="8.005" height="1.384"/>
</svg>
