<?xml version="1.0" encoding="utf-8"?>
<svg version="1.1"
	 xmlns="http://www.w3.org/2000/svg" xmlns:xlink="http://www.w3.org/1999/xlink"
	 x="0px" y="0px" width="17px" height="17px" viewBox="0 0 17 17">
<defs>
</defs>
<rect opacity="0" fill="#FFFFFF" width="17" height="17"/>
<path fill="#C86B28" d="M11.885,7.34L5.797,1.251C5.158,0.613,4.636,0.829,4.636,1.732v3.94L6.303,7.34
	c0.639,0.638,0.639,1.683,0,2.321L4.636,11.33v3.938c0,0.903,0.522,1.119,1.161,0.481l6.088-6.09
	C12.524,9.023,12.524,7.978,11.885,7.34z"/>
<path fill="#F89624" d="M6.78,8.528h5.583c0.008-0.43-0.148-0.862-0.478-1.188L5.797,1.251C5.158,0.613,4.636,0.829,4.636,1.732
	v3.94L6.303,7.34C6.63,7.667,6.787,8.098,6.78,8.528z"/>
</svg>
