<?xml version="1.0" encoding="utf-8"?>
<svg version="1.1"
	 xmlns="http://www.w3.org/2000/svg" xmlns:xlink="http://www.w3.org/1999/xlink"
	 x="0px" y="0px" width="30px" height="30px" viewBox="-1.847 -1.847 30 30">
<defs>
</defs>
<path fill="#F79523" d="M26.305,24.743c0,0.863-0.699,1.563-1.563,1.563H1.563C0.7,26.305,0,25.606,0,24.743V1.563
	C0,0.7,0.7,0,1.563,0h23.18c0.863,0,1.563,0.7,1.563,1.563V24.743z"/>
<path fill="#C8691C" d="M26.305,24.743c0,0.863-0.699,1.563-1.563,1.563C24.743,26.305,0.7,0,1.563,0h23.18
	c0.863,0,1.563,0.7,1.563,1.563V24.743z"/>
<path fill="#BCBEC0" d="M10.961,20.125c0,0.807-0.655,1.461-1.462,1.461H7.672c-0.807,0-1.461-0.654-1.461-1.461V6.181
	c0-0.807,0.654-1.461,1.461-1.461h1.827c0.807,0,1.462,0.654,1.462,1.461V20.125z"/>
<path fill="#BCBEC0" d="M19.424,20.125c0,0.807-0.654,1.461-1.461,1.461h-1.826c-0.807,0-1.463-0.654-1.463-1.461V6.181
	c0-0.807,0.656-1.461,1.463-1.461h1.826c0.807,0,1.461,0.654,1.461,1.461V20.125z"/>
<path fill="#FFFFFF" d="M14.674,15.206v4.92c0,0.807,0.656,1.461,1.463,1.461h1.826c0.703,0,1.291-0.498,1.43-1.16
	C17.956,18.84,16.338,17.051,14.674,15.206z"/>
<path fill="#FFFFFF" d="M6.274,5.779C6.237,5.907,6.211,6.04,6.211,6.181v13.945c0,0.807,0.654,1.461,1.461,1.461h1.827
	c0.807,0,1.462-0.654,1.462-1.461v-9.059C9.286,9.193,7.676,7.379,6.274,5.779z"/>
</svg>
