<?xml version="1.0" encoding="utf-8"?>
<svg version="1.1"
	 xmlns="http://www.w3.org/2000/svg" xmlns:xlink="http://www.w3.org/1999/xlink"
	 x="0px" y="0px" width="36px" height="36px" viewBox="0 0 36 36">
<defs>
</defs>
<rect opacity="0" fill="#FFFFFF" width="36" height="36"/>
<polygon fill="#56CAF5" points="1.436,16.657 5.763,32.326 34.564,25.461 30.385,9.942 "/>
<path fill="#F89624" d="M28.668,31.057c0,1.979-1.602,3.582-3.582,3.582h-9.997c-1.979,0-3.583-1.604-3.583-3.582V4.943
	c0.001-1.978,1.605-3.581,3.583-3.581h9.998c1.979,0,3.582,1.603,3.582,3.581v26.114H28.668z"/>
<path fill="#C86B28" d="M25.088,1.362h-8.378l7.935,33.277h0.443c1.979,0,3.582-1.604,3.582-3.582V4.943
	C28.668,2.965,27.066,1.362,25.088,1.362z"/>
<rect x="12.329" y="4.868" fill="#FFFFFF" width="15.519" height="26.114"/>
<path fill="#FFFFFF" d="M22.701,3.079c0,0.247-0.201,0.447-0.447,0.447h-4.328c-0.247,0-0.447-0.201-0.447-0.447l0,0
	c0-0.248,0.2-0.447,0.447-0.447h4.328C22.5,2.63,22.701,2.83,22.701,3.079L22.701,3.079z"/>
<polygon fill="#3689A6" points="30.385,9.942 23.67,15.761 28.295,30.684 34.564,25.461 "/>
<polygon fill="#3689A6" points="23.67,15.761 22.326,12.181 20.834,26.057 31.131,32.922 "/>
</svg>
