<?xml version="1.0" encoding="utf-8"?>
<svg version="1.1"
	 xmlns="http://www.w3.org/2000/svg" xmlns:xlink="http://www.w3.org/1999/xlink"
	 x="0px" y="0px" width="36px" height="36px" viewBox="0 0 36 36">
<defs>
</defs>
<rect opacity="0" fill="#FFFFFF" width="36" height="36"/>
<path fill="#F89624" d="M26.818,5.463l-1.666,1.655c-0.726-0.467-1.481-0.854-2.265-1.165l0.418-2.333
	c0.143-0.788-0.383-1.543-1.17-1.684l-2.418-0.435c-0.789-0.143-1.542,0.382-1.686,1.17l-0.429,2.393
	c-0.835,0.032-1.661,0.142-2.478,0.332l-1.026-2.22c-0.336-0.728-1.199-1.043-1.925-0.709L9.945,3.499
	C9.217,3.835,8.902,4.697,9.237,5.424l1.035,2.238C9.795,8.02,9.329,8.402,8.895,8.834C8.731,8.996,8.591,9.168,8.438,9.336
	L6.304,8.095C5.611,7.691,4.722,7.927,4.319,8.62l-1.234,2.122c-0.404,0.691-0.168,1.581,0.524,1.984l2.117,1.229
	c-0.266,0.798-0.453,1.61-0.561,2.435l-2.428,0.206c-0.8,0.067-1.39,0.768-1.323,1.566l0.207,2.447
	c0.065,0.798,0.768,1.392,1.565,1.324l2.371-0.199c0.336,1.165,0.844,2.292,1.514,3.347l-1.666,1.652
	c-0.568,0.564-0.571,1.484-0.006,2.053l1.731,1.742c0.565,0.568,1.482,0.571,2.051,0.008l1.621-1.611
	c0.729,0.494,1.497,0.904,2.29,1.234l-0.398,2.219c-0.142,0.789,0.382,1.543,1.17,1.686l2.418,0.436
	c0.789,0.143,1.543-0.385,1.685-1.172l0.393-2.186c0.88-0.018,1.754-0.126,2.615-0.318l0.925,2c0.337,0.727,1.198,1.041,1.927,0.709
	l2.229-1.031c0.727-0.338,1.045-1.2,0.709-1.928l-0.918-1.984c0.504-0.371,0.994-0.771,1.453-1.227c0.18-0.18,0.34-0.371,0.506-0.56
	l1.892,1.102c0.692,0.401,1.58,0.167,1.985-0.524l1.231-2.123c0.403-0.692,0.169-1.579-0.524-1.982l-1.896-1.104
	c0.274-0.844,0.47-1.707,0.567-2.579l2.201-0.188c0.799-0.067,1.393-0.769,1.323-1.567l-0.204-2.446
	c-0.068-0.799-0.771-1.392-1.568-1.325l-2.242,0.189c-0.363-1.179-0.895-2.318-1.6-3.377l1.623-1.61
	c0.568-0.564,0.571-1.484,0.008-2.052l-1.731-1.743C28.306,4.9,27.386,4.898,26.818,5.463z"/>
<path fill="#C86B28" d="M26.818,5.463l-1.666,1.655c-0.726-0.467-1.481-0.854-2.265-1.165l0.418-2.333
	c0.143-0.788-0.383-1.543-1.17-1.684l-2.418-0.435c-0.789-0.143-1.542,0.382-1.686,1.17l-0.429,2.393
	c-0.835,0.032-1.661,0.142-2.478,0.332l-1.026-2.22c-0.336-0.728-1.199-1.043-1.925-0.709L9.945,3.499
	C9.217,3.835,8.902,4.697,9.237,5.424l1.035,2.238c-0.36,0.27-0.706,0.56-1.044,0.868l18.375,18.498
	c0.068-0.077,0.138-0.149,0.203-0.227l1.892,1.102c0.692,0.401,1.58,0.167,1.985-0.524l1.231-2.123
	c0.403-0.692,0.169-1.579-0.524-1.982l-1.896-1.104c0.274-0.844,0.47-1.707,0.567-2.58l2.201-0.187
	c0.799-0.067,1.393-0.77,1.323-1.567l-0.204-2.446c-0.068-0.799-0.771-1.392-1.568-1.325l-2.242,0.189
	c-0.363-1.179-0.895-2.318-1.6-3.377l1.623-1.61c0.568-0.564,0.571-1.484,0.008-2.052l-1.731-1.743
	C28.306,4.9,27.386,4.898,26.818,5.463z"/>
<path fill="#FFFFFF" d="M17.998,8.934c-5.005,0-9.063,4.058-9.063,9.064c0,5.005,4.058,9.063,9.063,9.063
	c5.009,0,9.063-4.058,9.063-9.063C27.062,12.992,23.007,8.934,17.998,8.934z M17.998,25.249c-4.003,0-7.25-3.248-7.25-7.25
	c0-4.005,3.247-7.251,7.25-7.251c4.005,0,7.252,3.247,7.252,7.251C25.25,22.001,22.003,25.249,17.998,25.249z"/>
<circle fill="#FFFFFF" cx="18" cy="17.998" r="2.981"/>
<path fill="#56CAF5" d="M30.156,26.738l-6.933-7.087c-0.073-0.066-0.154-0.107-0.233-0.148c2.591-3.162,2.362-7.833-0.636-10.717
	c-3.149-3.033-8.164-2.939-11.198,0.213c-3.034,3.15-2.937,8.166,0.213,11.199c2.853,2.744,7.23,2.918,10.282,0.59
	c0.052,0.104,0.111,0.203,0.199,0.285l6.936,7.088c0.396,0.381,1.02,0.367,1.396-0.023C30.563,27.743,30.55,27.116,30.156,26.738z
	 M13.347,18.144c-2.015-1.94-2.076-5.151-0.137-7.167c1.942-2.019,5.151-2.078,7.17-0.136c2.016,1.941,2.077,5.15,0.137,7.166
	C18.576,20.024,15.365,20.085,13.347,18.144z"/>
<path fill="#D2D3D4" d="M30.659,28.431c-0.577,0.564-1.502,0.559-2.068-0.016l-3.972-4.026c-0.565-0.576-0.562-1.501,0.015-2.068
	l0,0c0.573-0.567,1.502-0.562,2.067,0.013l3.972,4.029C31.24,26.937,31.233,27.861,30.659,28.431L30.659,28.431z"/>
<path fill="#6E6F72" d="M30.673,26.362l-3.972-4.029c-0.565-0.573-1.494-0.58-2.067-0.013c-0.045,0.044-0.082,0.095-0.119,0.146
	l6.068,6.023c0.025-0.021,0.055-0.035,0.076-0.059C31.233,27.861,31.24,26.937,30.673,26.362z"/>
<path fill="#3689A6" d="M13.083,11.124c0.044-0.05,0.082-0.101,0.126-0.147c1.942-2.019,5.151-2.078,7.171-0.136
	c2.014,1.941,2.076,5.15,0.135,7.166c-0.082,0.085-0.168,0.162-0.254,0.239l4.254,4.22c0.037-0.051,0.074-0.102,0.119-0.146
	c0.229-0.226,0.514-0.358,0.809-0.401l-2.219-2.268c-0.073-0.066-0.154-0.107-0.233-0.148c2.591-3.162,2.362-7.833-0.636-10.717
	c-3.149-3.033-8.164-2.939-11.198,0.213c-0.034,0.037-0.063,0.078-0.098,0.114L13.083,11.124z"/>
<circle fill="#D2D3D4" cx="16.784" cy="14.469" r="5.56"/>
<ellipse transform="matrix(-0.9836 -0.1803 0.1803 -0.9836 23.7619 29.2294)" fill="#F2F2F2" cx="13.209" cy="13.535" rx="0.869" ry="1.448"/>
</svg>
