<?xml version="1.0" encoding="utf-8"?>
<!-- Generator: Adobe Illustrator 15.0.0, SVG Export Plug-In  -->
<!DOCTYPE svg PUBLIC "-//W3C//DTD SVG 1.1//EN" "http://www.w3.org/Graphics/SVG/1.1/DTD/svg11.dtd" [
	<!ENTITY ns_flows "http://ns.adobe.com/Flows/1.0/">
]>
<svg version="1.1"
	 xmlns="http://www.w3.org/2000/svg" xmlns:xlink="http://www.w3.org/1999/xlink" xmlns:a="http://ns.adobe.com/AdobeSVGViewerExtensions/3.0/"
	 x="0px" y="0px" width="38px" height="36px" viewBox="-1.756 -1.572 38 36" enable-background="new -1.756 -1.572 38 36"
	 xml:space="preserve">
<defs>
</defs>
<path fill="#F79523" d="M25.409,3.985L23.743,5.64c-0.725-0.467-1.481-0.854-2.265-1.165l0.419-2.333
	c0.142-0.788-0.383-1.543-1.17-1.684l-2.419-0.435c-0.788-0.143-1.542,0.382-1.685,1.17l-0.429,2.393
	c-0.835,0.032-1.661,0.142-2.478,0.332l-1.026-2.22c-0.336-0.728-1.199-1.043-1.925-0.709L8.536,2.021
	C7.808,2.357,7.493,3.219,7.828,3.946l1.035,2.238C8.386,6.542,7.92,6.924,7.486,7.356C7.322,7.518,7.182,7.69,7.029,7.858
	L4.895,6.617C4.202,6.213,3.313,6.449,2.91,7.142L1.676,9.264C1.272,9.955,1.508,10.845,2.2,11.248l2.117,1.229
	c-0.266,0.798-0.453,1.61-0.561,2.435l-2.428,0.206c-0.8,0.067-1.39,0.768-1.323,1.566l0.207,2.448
	c0.065,0.798,0.768,1.391,1.565,1.324l2.371-0.199c0.336,1.165,0.844,2.292,1.514,3.346l-1.666,1.653
	c-0.568,0.565-0.571,1.484-0.006,2.052l1.731,1.743c0.565,0.568,1.482,0.571,2.051,0.007l1.621-1.611
	c0.729,0.494,1.497,0.905,2.29,1.234l-0.398,2.219c-0.142,0.79,0.382,1.544,1.17,1.686l2.418,0.435
	c0.789,0.143,1.543-0.384,1.685-1.171l0.393-2.186c0.88-0.018,1.754-0.126,2.616-0.319l0.924,2c0.337,0.727,1.199,1.042,1.927,0.709
	l2.229-1.031c0.726-0.337,1.045-1.2,0.708-1.927l-0.918-1.984c0.504-0.372,0.995-0.772,1.454-1.227
	c0.179-0.18,0.34-0.372,0.505-0.56l1.892,1.102c0.692,0.401,1.58,0.167,1.985-0.524l1.232-2.124
	c0.403-0.692,0.169-1.579-0.524-1.982l-1.896-1.104c0.275-0.844,0.469-1.706,0.568-2.579l2.201-0.187
	c0.798-0.067,1.392-0.77,1.323-1.568l-0.205-2.446c-0.068-0.799-0.771-1.392-1.567-1.325l-2.243,0.189
	c-0.363-1.179-0.895-2.318-1.599-3.377l1.622-1.61c0.569-0.564,0.572-1.484,0.008-2.052l-1.731-1.743
	C26.897,3.422,25.977,3.42,25.409,3.985z"/>
<path fill="#C8691C" d="M25.409,3.985L23.743,5.64c-0.725-0.467-1.481-0.854-2.265-1.165l0.419-2.333
	c0.142-0.788-0.383-1.543-1.17-1.684l-2.419-0.435c-0.788-0.143-1.542,0.382-1.685,1.17l-0.429,2.393
	c-0.835,0.032-1.661,0.142-2.478,0.332l-1.026-2.22c-0.336-0.728-1.199-1.043-1.925-0.709L8.536,2.021
	C7.808,2.357,7.493,3.219,7.828,3.946l1.035,2.238c-0.36,0.27-0.706,0.56-1.044,0.868L26.194,25.55
	c0.067-0.077,0.137-0.15,0.202-0.227l1.892,1.102c0.692,0.401,1.58,0.167,1.985-0.524l1.232-2.124
	c0.403-0.692,0.169-1.579-0.524-1.982l-1.896-1.104c0.275-0.844,0.469-1.706,0.568-2.579l2.201-0.187
	c0.798-0.067,1.392-0.77,1.323-1.568l-0.205-2.446c-0.068-0.799-0.771-1.392-1.567-1.325l-2.243,0.189
	c-0.363-1.179-0.895-2.318-1.599-3.377l1.622-1.61c0.569-0.564,0.572-1.484,0.008-2.052l-1.731-1.743
	C26.897,3.422,25.977,3.42,25.409,3.985z"/>
<path fill="#FFFFFF" d="M16.589,7.456c-5.005,0-9.063,4.058-9.063,9.064c0,5.005,4.058,9.063,9.063,9.063
	c5.008,0,9.063-4.058,9.063-9.063C25.653,11.514,21.597,7.456,16.589,7.456z M16.589,23.771c-4.003,0-7.25-3.247-7.25-7.25
	c0-4.005,3.247-7.251,7.25-7.251c4.005,0,7.252,3.247,7.252,7.251C23.841,20.523,20.594,23.771,16.589,23.771z"/>
<circle fill="#FFFFFF" cx="16.591" cy="16.52" r="2.981"/>
<path fill="#52CAF5" d="M28.747,25.261l-6.933-7.087c-0.073-0.066-0.154-0.107-0.233-0.149c2.591-3.162,2.363-7.833-0.635-10.717
	c-3.15-3.033-8.165-2.939-11.199,0.213C6.713,10.671,6.81,15.687,9.96,18.72c2.853,2.745,7.23,2.918,10.282,0.591
	c0.052,0.103,0.111,0.203,0.2,0.285l6.935,7.087c0.396,0.382,1.019,0.368,1.396-0.023C29.154,26.265,29.14,25.639,28.747,25.261z
	 M11.938,16.666c-2.015-1.94-2.076-5.151-0.137-7.167c1.942-2.019,5.151-2.078,7.17-0.136c2.015,1.941,2.077,5.15,0.136,7.166
	C17.167,18.547,13.956,18.607,11.938,16.666z"/>
<path fill="#D1D3D4" d="M29.25,26.953c-0.577,0.565-1.502,0.559-2.068-0.015l-3.972-4.027c-0.566-0.576-0.562-1.501,0.014-2.068l0,0
	c0.574-0.567,1.502-0.562,2.068,0.013l3.972,4.029C29.831,25.459,29.824,26.384,29.25,26.953L29.25,26.953z"/>
<path fill="#6D6E71" d="M29.264,24.885l-3.972-4.029c-0.566-0.574-1.494-0.58-2.068-0.013c-0.045,0.044-0.082,0.095-0.119,0.145
	l6.069,6.024c0.025-0.021,0.054-0.036,0.076-0.059C29.824,26.384,29.831,25.459,29.264,24.885z"/>
<path fill="#3588A6" d="M11.674,9.646c0.044-0.05,0.082-0.101,0.126-0.147c1.942-2.019,5.151-2.078,7.17-0.136
	c2.015,1.941,2.077,5.15,0.136,7.166c-0.082,0.085-0.168,0.162-0.255,0.239l4.254,4.22c0.037-0.05,0.074-0.101,0.119-0.145
	c0.229-0.226,0.514-0.358,0.809-0.401l-2.219-2.268c-0.073-0.066-0.154-0.107-0.233-0.149c2.591-3.162,2.363-7.833-0.635-10.717
	c-3.15-3.033-8.165-2.939-11.199,0.213C9.713,7.558,9.684,7.599,9.649,7.635L11.674,9.646z"/>
<circle fill="#D1D3D4" cx="15.375" cy="12.991" r="5.56"/>
<ellipse transform="matrix(0.1804 -0.9836 0.9836 0.1804 -2.1879 21.489)" fill="#F1F2F2" cx="11.801" cy="12.057" rx="1.448" ry="0.869"/>
</svg>
