<?xml version="1.0" encoding="utf-8"?>
<svg version="1.1"
	 xmlns="http://www.w3.org/2000/svg" xmlns:xlink="http://www.w3.org/1999/xlink"
	 x="0px" y="0px" width="48px" height="48px" viewBox="-1.437 -1.667 48 48">
<defs>
</defs>
<path fill="#F89726" d="M22.029,9.562C9.9,9.562,0,17.111,0,26.518c0,3.587,5.321,3.341,10.396,3.093
	c4.455-0.248,6.435,3.218,5.694,7.057c-0.496,2.474-6.684,1.979-3.591,5.072c2.846,1.114,6.189,1.732,9.53,1.732
	c12.128,0,22.03-7.549,22.03-16.954C44.182,17.111,34.28,9.562,22.029,9.562z M26.483,40.872c-2.599,0-4.702-1.486-4.702-3.216
	c0-1.732,2.103-3.219,4.702-3.219c2.601,0,4.703,1.486,4.703,3.219C31.186,39.386,29.083,40.872,26.483,40.872z"/>
<path fill="#C86C29" d="M44.057,27.755c0-0.371,0.125-0.744,0.125-1.237c0-9.407-9.902-16.956-22.03-16.956
	C9.9,9.562,0,17.111,0,26.518c0,0.493,0.123,0.866,0.247,1.237H44.057z"/>
<circle fill="#5ACAF4" cx="7.177" cy="22.556" r="3.217"/>
<circle fill="#F3722A" cx="16.335" cy="16.615" r="3.218"/>
<circle fill="#3FB54A" cx="26.608" cy="16.615" r="3.218"/>
<circle fill="#F7EC36" cx="34.899" cy="21.937" r="3.217"/>
<path fill="#52CAF5" d="M45.069,11.652c0,6.436-5.219,11.652-11.651,11.652c-6.435,0-11.653-5.217-11.653-11.652S26.983,0,33.417,0
	C39.85,0,45.069,5.217,45.069,11.652z"/>
<path fill="#3588A6" d="M33.417,0c-2.142,0-4.143,0.587-5.865,1.596l9.921,20.968c4.431-1.649,7.596-5.906,7.596-10.912
	C45.069,5.217,39.85,0,33.417,0z"/>
<polygon fill="#D1D3D4" points="41.427,15.842 26.177,15.842 33.803,8.22 "/>
<polygon fill="#FFFFFF" points="41.095,12.794 25.847,12.794 33.471,5.171 "/>
<path fill="#414042" d="M29.034,42.374L13.288,15.242c-0.646-1.163-2.111-1.591-3.276-0.942c-1.168,0.644-1.593,2.113-0.95,3.279
	l15.739,27.123L29.034,42.374z"/>
<path fill="#BABABA" d="M10.557,20.38c0,0,0.433-1.267,1.598-1.815c1.165-0.544,2.937-0.311,2.937-0.311l-2.725-5.096
	c0,0-1.644-0.281-2.721,0.303c-1.077,0.578-1.697,2.285-1.697,2.285L10.557,20.38z"/>
<path fill="#F37029" d="M7.949,15.747c0,0-3.43-2.651-3.848-5.113C3.69,8.177,5.524,5.211,3.563,3.122c0,0,4.395,2.693,6.825,4.546
	c2.432,1.863,1.98,5.491,1.98,5.491s-1.73-0.32-2.721,0.303C8.803,13.988,7.949,15.747,7.949,15.747z"/>
<path fill="none" stroke="#FFFFFF" stroke-linecap="square" stroke-miterlimit="10" d="M7.65,15.851c0,0-3.131-2.755-3.549-5.217
	C3.69,8.177,5.524,5.211,3.563,3.122c0,0,4.395,2.693,6.825,4.546c2.432,1.863,2.503,5.562,2.503,5.562"/>
<polyline fill="none" stroke="#FFFFFF" stroke-miterlimit="10" points="12.816,13.303 29.585,42.123 24.494,44.97 7.727,16.148 "/>
</svg>
