<?xml version="1.0" encoding="utf-8"?>
<svg version="1.1"
	 xmlns="http://www.w3.org/2000/svg" xmlns:xlink="http://www.w3.org/1999/xlink"
	 x="0px" y="0px" width="100px" height="100px" viewBox="-5.677 -4.982 100 100">
<defs>
</defs>
<path fill="#3588A6" d="M89.591,79.131c0,6.559-5.49,11.864-12.26,11.864H12.256C5.488,90.995,0,85.689,0,79.131v-67.27
	C0,5.311,5.488,0,12.256,0h65.075c6.77,0,12.26,5.311,12.26,11.861V79.131z"/>
<path fill="#FFFFFF" d="M20.985,39.308l-2.888,8.741h-3.712l9.484-27.797h4.293l9.483,27.797H33.81l-2.969-8.741H20.985z
	 M30.142,36.5l-2.765-8.002c-0.618-1.811-1.032-3.463-1.443-5.07h-0.086c-0.409,1.607-0.823,3.342-1.4,5.031L21.727,36.5H30.142z"/>
<path fill="#FFFFFF" d="M47.75,72.945l-2.89,8.747H41.15l9.484-27.797h4.293l9.49,27.797h-3.842l-2.968-8.747H47.75z M47.75,52.204
	c-0.04-2.516,1.029-4.209,2.805-4.209c0.902,0,1.608,0.374,2.476,0.827c0.663,0.375,1.316,0.74,1.98,0.74
	c0.619,0,0.987-0.289,1.114-1.606h1.896c0.038,2.599-0.869,4.002-2.768,4.002c-0.864,0-1.647-0.328-2.513-0.782
	c-0.826-0.418-1.36-0.786-1.98-0.786c-0.66,0-0.949,0.702-1.077,1.814H47.75z M56.901,70.141l-2.756-7.997
	c-0.624-1.818-1.029-3.463-1.447-5.073h-0.083c-0.412,1.61-0.826,3.341-1.4,5.027l-2.721,8.043H56.901z"/>
<g>
	<g>
		<path fill="none" stroke="#F79523" stroke-width="7" stroke-miterlimit="10" d="M73.174,50.56
			c0.382-0.936,0.698-1.886,0.951-2.846"/>
		<path fill="none" stroke="#F79523" stroke-width="7" stroke-miterlimit="10" stroke-dasharray="6.5147,4.3431" d="M74.826,43.433
			c0.541-8.022-3.153-16.069-10.414-20.713c-8.284-5.299-18.69-4.567-26.102,1.046"/>
		<path fill="none" stroke="#F79523" stroke-width="7" stroke-miterlimit="10" d="M36.65,25.151
			c-0.73,0.671-1.422,1.395-2.071,2.171"/>
	</g>
</g>
<polygon fill="#F79523" points="64.662,48.609 79.584,55.974 68.15,58.687 "/>
</svg>
