<?xml version="1.0" encoding="utf-8"?>
<!-- Generator: Adobe Illustrator 15.0.0, SVG Export Plug-In  -->
<!DOCTYPE svg PUBLIC "-//W3C//DTD SVG 1.1//EN" "http://www.w3.org/Graphics/SVG/1.1/DTD/svg11.dtd" [
	<!ENTITY ns_flows "http://ns.adobe.com/Flows/1.0/">
]>
<svg version="1.1"
	 xmlns="http://www.w3.org/2000/svg" xmlns:xlink="http://www.w3.org/1999/xlink" xmlns:a="http://ns.adobe.com/AdobeSVGViewerExtensions/3.0/"
	 x="0px" y="0px" width="48px" height="48px" viewBox="-4.019 -2.763 48 48" enable-background="new -4.019 -2.763 48 48"
	 xml:space="preserve">
<defs>
</defs>
<path fill="#FFFFFF" d="M2.965,36.56c4.118,4.538,10.044,7.406,16.658,7.406c6.199,0,11.807-2.503,15.878-6.559L18.809,18.61
	L2.965,36.56z"/>
<path d="M31.104,14.22c0-6.105-4.951-11.055-11.057-11.055c-6.104,0-11.055,4.949-11.055,11.055c0,0-0.16,3.27,2.09,7.498
	c1.483,2.792,8.965,17.032,8.965,17.032s7.678-14.276,9.189-17.186C31.254,17.684,31.104,14.22,31.104,14.22z M19.842,19.988
	c-3.833,0-6.94-3.107-6.94-6.94c0-3.833,3.107-6.94,6.94-6.94c3.833,0,6.94,3.107,6.94,6.94
	C26.782,16.881,23.675,19.988,19.842,19.988z"/>
<path d="M20.047,1.496c4.434,0,8.333,2.272,10.608,5.712l2.087-2.087C29.264,1.95,24.65,0,19.572,0
	C14.169,0,9.276,2.189,5.736,5.729l2.901,2.902C10.705,4.41,15.031,1.496,20.047,1.496z"/>
<path d="M12.304,27.696l-7.217,8.176c3.581,3.946,8.734,6.44,14.485,6.44c0.138,0,0.271-0.018,0.408-0.021
	C19.426,41.237,15.231,33.256,12.304,27.696z"/>
<path d="M33.379,36.609l-6.368-7.172c-2.876,5.377-6.369,11.876-6.892,12.848C25.289,42.142,29.96,40.015,33.379,36.609z"/>
<path d="M5.758,33.396l5.98-6.774c-0.896-1.7-1.62-3.072-2-3.789c-2.587-4.863-2.403-8.623-2.403-8.623
	c0-1.588,0.305-3.103,0.837-4.504L5.002,6.535C1.902,9.998,0,14.557,0,19.573C0,24.981,2.209,29.858,5.758,33.396z"/>
<path d="M27.541,28.444l5.063,5.701c4.009-3.58,6.542-8.774,6.542-14.572c0-5.366-2.161-10.222-5.656-13.757l-2.29,2.29
	c0.994,1.812,1.562,3.891,1.562,6.103c0,0,0.173,3.984-2.147,8.446C30.09,23.665,28.919,25.866,27.541,28.444z"/>
</svg>
