<?xml version="1.0" encoding="utf-8"?>
<svg version="1.1"
	 xmlns="http://www.w3.org/2000/svg" xmlns:xlink="http://www.w3.org/1999/xlink"
	 x="0px" y="0px" width="48px" height="48px" viewBox="-1.939 -3.529 48 48">
<defs>
</defs>
<path fill="#43A4C7" d="M41.178,37.693c0,1.795-1.494,3.248-3.338,3.248H3.339C1.496,40.941,0,39.488,0,37.693V6.297
	C0,4.504,1.496,3.05,3.339,3.05H37.84c1.844,0,3.338,1.454,3.338,3.247V37.693z"/>
<path fill="#C8691C" d="M3.339,40.941H37.84c1.844,0,3.338-1.453,3.338-3.248V19.087l-4.723-3.62l-15.291,7.74L10.97,15.088
	L0.02,22.453L0,22.592v15.102C0,39.488,1.496,40.941,3.339,40.941"/>
<path fill="#FCB51E" d="M12.715,8.984c0,2.189-1.774,3.965-3.963,3.965c-2.19,0-3.966-1.775-3.966-3.965s1.775-3.963,3.966-3.963
	C10.94,5.021,12.715,6.795,12.715,8.984"/>
<path fill="#414042" d="M44.121,13.376c0,7.388-5.99,13.377-13.379,13.377c-7.385,0-13.372-5.989-13.372-13.377
	C17.37,5.989,23.357,0,30.742,0C38.131,0,44.121,5.989,44.121,13.376z"/>
<path fill="#F9ED32" d="M33.168,13.04c0,1.291-1.049,2.335-2.34,2.335c-1.285,0-2.332-1.044-2.332-2.335
	c0-1.288,1.047-2.337,2.332-2.337C32.119,10.703,33.168,11.752,33.168,13.04z"/>
<polygon fill="#F9ED32" points="29.756,16.586 31.229,15.462 32.699,16.5 32.354,23.508 30.537,23.508 "/>
<polygon fill="#F9ED32" points="27.246,11.48 29.236,11.221 29.842,9.49 23.699,3.262 22.488,4.213 "/>
</svg>
