<?xml version="1.0" encoding="utf-8"?>
<svg version="1.1"
	 xmlns="http://www.w3.org/2000/svg" xmlns:xlink="http://www.w3.org/1999/xlink"
	 x="0px" y="0px" width="48px" height="48px" viewBox="-4.203 -3.734 48 48">
<defs>
</defs>
<polygon fill="#F79523" points="0.001,18.396 0.001,41.506 39.875,41.506 39.906,2.344 28.961,12.707 23.946,7.256 16.582,14.62 
	7.306,11.69 "/>
<circle fill="#52CAF5" cx="27.808" cy="29.904" r="12.008"/>
<path fill="#3588A6" d="M27.823,17.895c-0.035,0-0.067,0.005-0.103,0.005v24.007c0.035,0.001,0.067,0.005,0.103,0.005
	c6.631,0,12.008-5.376,12.008-12.009C39.831,23.271,34.454,17.895,27.823,17.895z"/>
<polygon fill="#FFFFFF" points="35.982,24.967 32.917,21.898 27.809,27.01 22.702,21.898 19.636,24.967 24.742,30.073 
	19.637,35.179 22.7,38.248 27.808,33.139 32.916,38.248 35.982,35.179 30.874,30.073 "/>
<polygon fill="#BCBEC0" points="36.011,24.928 32.944,21.861 27.838,26.972 27.836,33.101 32.943,38.209 36.011,35.143 
	30.902,30.035 "/>
<polygon fill="#C8691C" points="39.922,0 28.921,10.468 24.45,5.319 17.308,14.493 7.521,9.989 0.001,17.198 0,19.828 7.96,11.938 
	17.723,16.479 24.566,7.816 28.946,12.709 39.891,2.359 "/>
<circle fill="#C8691C" cx="6.956" cy="11.179" r="3"/>
<circle fill="#C8691C" cx="17.053" cy="15.243" r="3"/>
<circle fill="#C8691C" cx="24.527" cy="6.675" r="3"/>
</svg>
