<?xml version="1.0" encoding="utf-8"?>
<svg version="1.1"
	 xmlns="http://www.w3.org/2000/svg" xmlns:xlink="http://www.w3.org/1999/xlink"
	 x="0px" y="0px" width="48px" height="48px" viewBox="-4.562 -3.556 48 48">
<defs>
</defs>
<path fill="#F79523" d="M39.146,19.573c0,10.807-8.761,19.57-19.575,19.57C8.763,39.144,0,30.38,0,19.573C0,8.76,8.763,0,19.571,0
	C30.385,0,39.146,8.76,39.146,19.573"/>
<path fill="#FCB51E" d="M19.572,0C14.169,0,9.276,2.189,5.736,5.729L18.932,18.93L32.742,5.121C29.263,1.95,24.65,0,19.572,0"/>
<path fill="#C8691C" d="M5.087,35.872c3.581,3.946,8.734,6.441,14.485,6.441c5.39,0,10.267-2.177,13.807-5.703L18.864,20.264
	L5.087,35.872z"/>
<path fill="#52CAF5" d="M31.104,11.22c0-6.106-4.951-11.055-11.057-11.055c-6.104,0-11.055,4.949-11.055,11.055
	c0,0-0.16,3.269,2.09,7.498c1.483,2.792,8.965,17.032,8.965,17.032s7.678-14.277,9.19-17.186
	C31.254,14.684,31.104,11.22,31.104,11.22z"/>
<path fill="#3588A6" d="M31.104,11.22c0-6.106-4.951-11.055-11.057-11.055c-0.166,0.104,0,35.585,0,35.585s7.678-14.277,9.19-17.186
	C31.254,14.684,31.104,11.22,31.104,11.22z"/>
<circle fill="#FFFFFF" cx="19.842" cy="10.048" r="6.94"/>
</svg>
