<?xml version="1.0" encoding="utf-8"?>
<svg version="1.1"
	 xmlns="http://www.w3.org/2000/svg" xmlns:xlink="http://www.w3.org/1999/xlink"
	 x="0px" y="0px" width="48px" height="48px" viewBox="-7 -3.068 48 48">
<defs>
</defs>
<circle fill="#F79523" cx="16.995" cy="25.937" r="16.995"/>
<path fill="#C8691C" d="M17.153,8.951v33.974c9.312-0.086,16.836-7.654,16.836-16.987C33.989,16.604,26.465,9.036,17.153,8.951z"/>
<rect x="15.965" y="13.063" fill="#FFFFFF" width="2.061" height="25.75"/>
<rect x="4.12" y="24.908" fill="#FFFFFF" width="25.75" height="2.06"/>
<path fill="#FFFFFF" d="M17.085,21.302c-0.032,0-0.063,0-0.096,0c-5.85-0.032-11.469-3.698-11.705-3.81l0.883-1.861
	c0.054,0.026,5.452,3.583,10.833,3.611c5.647-0.008,10.638-4.106,10.688-4.137l1.102,1.74C28.569,16.985,23.31,21.302,17.085,21.302
	z"/>
<path fill="#FFFFFF" d="M17.085,30.554c-0.032,0-0.063,0-0.096,0c-5.85,0.032-11.469,3.697-11.705,3.811l0.883,1.86
	C6.221,36.2,11.619,32.643,17,32.614c5.647,0.009,10.638,4.106,10.688,4.139l1.102-1.74C28.569,34.872,23.31,30.554,17.085,30.554z"
	/>
<path fill="#3588A6" d="M25.701,0c-0.113,0-0.218,0.006-0.328,0.008v2.959c0.108-0.006,0.217-0.016,0.328-0.016
	c2.536,0,4.591,1.982,4.591,4.427c0,2.446-2.055,4.427-4.591,4.427c-0.111,0-0.22-0.008-0.328-0.016l0.328,14.445
	C25.701,26.234,43.081,0,25.701,0z"/>
<path fill="#52CAF5" d="M25.889,0c0.113,0,0.218,0.006,0.328,0.008v2.959C26.108,2.96,26,2.951,25.889,2.951
	c-2.536,0-4.591,1.982-4.591,4.427c0,2.446,2.055,4.427,4.591,4.427c0.111,0,0.22-0.008,0.328-0.016l-0.328,14.445
	C25.889,26.234,8.508,0,25.889,0z"/>
</svg>
