<?xml version="1.0" encoding="utf-8"?>
<svg version="1.1"
	 xmlns="http://www.w3.org/2000/svg" xmlns:xlink="http://www.w3.org/1999/xlink"
	 x="0px" y="0px" width="48px" height="48px" viewBox="-4.183 -5.143 48 48">
<defs>
</defs>
<polygon fill="#C8691C" points="12.832,5.631 12.832,9.113 22.338,9.119 22.338,34.995 12.72,34.995 12.72,38.477 25.778,38.477 
	25.778,5.637 "/>
<polygon fill="#F79523" points="12.947,5.631 12.947,9.113 3.441,9.119 3.441,34.995 13.058,34.995 13.058,38.477 0,38.477 0,5.637 
	"/>
<rect x="5.661" y="13.218" fill="#F79523" width="12.75" height="2.856"/>
<polygon fill="#C8691C" points="12.832,13.208 12.832,16.063 18.382,16.075 18.382,13.219 "/>
<rect x="5.661" y="20.72" fill="#F79523" width="12.75" height="2.856"/>
<polygon fill="#C8691C" points="12.832,20.72 12.832,23.576 18.382,23.588 18.382,20.731 "/>
<rect x="5.661" y="28.223" fill="#F79523" width="12.75" height="2.856"/>
<polygon fill="#C8691C" points="12.832,28.212 12.832,31.067 18.382,31.081 18.382,28.222 "/>
<path fill="#6D6E71" d="M18.405,20.662c-2.037-2.197-3.292-5.127-3.292-8.355C15.113,5.508,20.62,0,27.416,0
	C34.213,0,39.72,5.508,39.72,12.306c0,6.793-5.507,12.303-12.304,12.303c-0.422,0-0.843-0.022-1.254-0.063l-6.523,6.354
	L18.405,20.662z"/>
<path fill="#D1D3D4" d="M27.25,0.008c-6.718,0.091-12.137,5.559-12.137,12.298c0,3.23,1.256,6.159,3.292,8.357l1.234,10.236
	l6.523-6.354c0.358,0.037,0.722,0.05,1.088,0.056V0.008z"/>
<path fill="#3588A6" d="M37.191,12.3c0,5.242-4.247,9.491-9.49,9.491c-5.242,0-9.493-4.25-9.493-9.491
	c0-5.243,4.25-9.492,9.493-9.492C32.944,2.809,37.191,7.058,37.191,12.3"/>
<path fill="#52CAF5" d="M27.25,2.831c-5.032,0.238-9.042,4.379-9.042,9.47c0,5.09,4.009,9.231,9.042,9.469V2.831z"/>
<path fill="#FFFFFF" d="M28.4,12.879c0,0.586-0.474,1.063-1.061,1.063c-0.588,0-1.063-0.476-1.063-1.063
	c0-0.584,0.476-1.062,1.063-1.062C27.927,11.817,28.4,12.295,28.4,12.879"/>
<polygon fill="#FFFFFF" points="21.447,7.57 21.78,7.224 29.482,14.431 28.952,14.909 "/>
<polygon fill="#FFFFFF" points="33.546,5.87 33.806,6.153 25.727,14.966 25.251,14.437 "/>
</svg>
