<?xml version="1.0" encoding="utf-8"?>
<svg version="1.1"
	 xmlns="http://www.w3.org/2000/svg" xmlns:xlink="http://www.w3.org/1999/xlink"
	 x="0px" y="0px" width="48px" height="48px" viewBox="-4.2 -3.1 48 48">
<defs>
</defs>
<polygon fill="#C8691C" points="16.3,0 16.3,4.4 28.4,4.4 28.4,37.4 16.2,37.4 16.2,41.8 32.8,41.8 32.8,0 "/>
<polygon fill="#F79523" points="16.5,0 16.5,4.4 4.4,4.4 4.4,37.4 16.6,37.4 16.6,41.8 0,41.8 0,0 "/>
<rect x="7.2" y="9.7" fill="#F79523" width="16.2" height="3.6"/>
<polygon fill="#C8691C" points="16.3,9.6 16.3,13.3 23.4,13.3 23.4,9.7 "/>
<rect x="7.2" y="19.2" fill="#F79523" width="16.2" height="3.6"/>
<polygon fill="#C8691C" points="16.3,19.2 16.3,22.8 23.4,22.9 23.4,19.2 "/>
<rect x="7.2" y="28.8" fill="#F79523" width="16.2" height="3.6"/>
<polygon fill="#C8691C" points="16.3,28.7 16.3,32.4 23.4,32.4 23.4,28.8 "/>
<circle fill="#FFFFFF" cx="22.6" cy="29.6" r="6.7"/>
<path fill="#52CAF5" d="M22.1,20.8c-11-0.1-16.6,9.1-16.6,9.1s5.1,8.7,16.9,8.7c11.8,0,16.6-8.9,16.6-8.9S33.1,21,22.1,20.8z
	 M22.2,36c-3.5,0-6.3-2.8-6.3-6.3c0-3.5,2.8-6.3,6.3-6.3s6.3,2.8,6.3,6.3C28.5,33.2,25.7,36,22.2,36z"/>
<path fill="#3588A6" d="M22.1,20.8c-2.9,0-5.5,0.6-7.8,1.5l3.3,3.2c1.2-1.3,2.9-2.2,4.8-2.2c3.5,0,6.3,2.8,6.3,6.3
	c0,2.3-1.2,4.3-3.1,5.4l1.9,3c8.4-2,11.4-8.2,11.4-8.2S33.1,21,22.1,20.8z"/>
<ellipse fill="#3588A6" cx="22.4" cy="30.2" rx="1.8" ry="2"/>
</svg>
