<?xml version="1.0" encoding="utf-8"?>
<svg version="1.1"
	 xmlns="http://www.w3.org/2000/svg" xmlns:xlink="http://www.w3.org/1999/xlink"
	 x="0px" y="0px" width="48px" height="48px" viewBox="-3.875 -1.744 48 48">
<defs>
</defs>
<path fill="#F79523" d="M34.646,4.52H4.932c-2.673,0-4.84,2.167-4.84,4.841v29.713c0,2.675,2.167,4.841,4.84,4.841h29.714
	c2.672,0,4.839-2.166,4.839-4.841V9.36C39.485,6.687,37.318,4.52,34.646,4.52z M37.105,37.584c0,2.693-1.255,3.95-3.95,3.95H6.421
	c-2.693,0-3.951-1.257-3.951-3.95V10.85c0-2.695,1.258-3.95,3.951-3.95h26.734c2.695,0,3.95,1.255,3.95,3.95V37.584z"/>
<path fill="#C8691C" d="M34.646,4.52h-0.069l-1.73,2.38h0.309c2.695,0,3.95,1.255,3.95,3.95v26.734c0,2.693-1.255,3.95-3.95,3.95
	H7.653l-1.731,2.38h28.725c2.672,0,4.839-2.166,4.839-4.841V9.36C39.485,6.687,37.318,4.52,34.646,4.52z"/>
<polygon fill="#52CAF5" points="0,17.755 15.756,3.561 12.349,0.295 26.85,0 27.111,13.229 23.574,10.216 0,31.951 "/>
<path fill="#F79523" d="M31.225,32.774c0,1.768-1.428,3.199-3.194,3.199H10.881c-1.763,0-3.195-1.432-3.195-3.199V16.727
	c0-1.764,1.432-3.195,3.195-3.195H28.03c1.767,0,3.194,1.431,3.194,3.195V32.774z"/>
<path fill="#C8691C" d="M28.03,35.973c1.767,0,3.194-1.432,3.194-3.199V16.727c0-1.764-1.428-3.195-3.194-3.195h-0.498
	L11.475,35.973H28.03z"/>
<rect x="12.745" y="18.476" fill="#FFFFFF" width="13.341" height="1.648"/>
<rect x="12.745" y="23.84" fill="#FFFFFF" width="13.341" height="1.648"/>
<rect x="12.745" y="28.858" fill="#FFFFFF" width="13.341" height="1.652"/>
<polygon fill="#E6E7E8" points="26.086,30.51 26.086,28.858 16.565,28.858 15.383,30.51 "/>
<polygon fill="#E6E7E8" points="26.086,25.489 26.086,23.84 20.156,23.84 18.977,25.489 "/>
<polygon fill="#E6E7E8" points="26.086,20.124 26.086,18.476 23.994,18.476 22.814,20.124 "/>
</svg>
