<?xml version="1.0" encoding="utf-8"?>
<svg version="1.1"
	 xmlns="http://www.w3.org/2000/svg" xmlns:xlink="http://www.w3.org/1999/xlink"
	 x="0px" y="0px" width="48px" height="48px" viewBox="-8.506 -3.479 48 48">
<defs>
</defs>
<path fill="#F79523" d="M30.447,14.365c0,7.934-6.431,14.365-14.364,14.365S1.719,22.299,1.719,14.365C1.719,6.431,8.15,0,16.083,0
	S30.447,6.431,30.447,14.365"/>
<path fill="#43A4C7" d="M16.083,0C12.117,0,8.527,1.607,5.925,4.206l9.688,9.688L25.747,3.759C23.195,1.431,19.811,0,16.083,0"/>
<circle opacity="0.6" fill="#FFFFFF" cx="10.216" cy="24.389" r="10.216"/>
<path fill="#3689A6" d="M30.8,38.592l-12.739-9.088c2.502-4.028,1.451-9.239-2.343-12.015c-4.067-3.011-9.717-2.044-12.631,1.997
	c-2.914,4.041-1.948,9.69,2.066,12.507c3.397,2.473,7.972,2.12,11.004-0.395l12.888,9.254c0.521,0.372,1.415,0.226,1.856-0.418
	C31.344,39.791,31.319,38.965,30.8,38.592 M6.644,29.913c-2.876-2.1-3.602-6.155-1.502-9.031s6.155-3.602,9.03-1.502
	c2.877,2.1,3.603,6.154,1.502,9.03C13.603,31.382,9.521,32.011,6.644,29.913"/>
<path fill="#86D4F7" d="M12.396,30.787c-1.898,0.639-4.041,0.41-5.849-0.847c-2.876-2.1-3.602-6.155-1.502-9.031
	c0.98-1.314,2.289-2.202,3.856-2.54l-0.677-2.406c-2.049,0.473-3.908,1.619-5.165,3.427c-2.915,4.041-1.948,9.69,2.066,12.508
	c2.452,1.699,5.376,2.123,8.044,1.268l-0.677-2.406L12.396,30.787z"/>
<path fill="#FFFFFF" d="M13.495,21.235c0,0,2.012,1.228,1.787,4.02c-0.209,2.595-2.345,3.238-2.345,3.238l-0.559-1.005
	c0,0,1.664-0.67,1.694-2.545c0.031-1.922-1.266-2.641-1.266-2.641L13.495,21.235z"/>
</svg>
