<?xml version="1.0" encoding="utf-8"?>
<svg version="1.1"
	 xmlns="http://www.w3.org/2000/svg" xmlns:xlink="http://www.w3.org/1999/xlink"
	 x="0px" y="0px" width="48px" height="48px" viewBox="-3.044 -8.007 48 48">
<defs>
</defs>
<polygon fill="#84D5F7" points="0.017,11.731 0.017,30.83 42.171,30.83 42.171,3.443 32.597,12.05 24.526,1.398 16.35,8.931 
	8.227,4.573 "/>
<polygon fill="#F79523" points="0,11.776 8.026,3.312 16.164,8.091 24.553,0.203 32.695,10.634 42.184,1.68 42.184,3.633 
	32.682,12.633 24.449,2.109 16.37,9.626 8.276,4.952 0,13.747 "/>
<circle fill="#3588A6" cx="8.227" cy="4.573" r="1.452"/>
<circle fill="#3588A6" cx="24.365" cy="1.453" r="1.453"/>
<circle fill="#3588A6" cx="32.65" cy="11.351" r="1.453"/>
<circle fill="#3588A6" cx="16.296" cy="8.554" r="1.452"/>
<path fill="#52CAF5" d="M0.017,30.83c0,0,3.5-8.816,9-7.149s6.5,5.168,15.5,0.334s17.654-5.667,17.654-5.667V30.83H0.017z"/>
<circle fill="#E6E7E8" cx="20.956" cy="19.993" r="8.418"/>
<path fill="#F79523" d="M25.638,18.541h-3.23v-3.23c0-0.803-0.649-1.453-1.452-1.453c-0.801,0-1.452,0.65-1.452,1.453v3.23h-3.231
	c-0.802,0-1.452,0.651-1.452,1.453c0,0.803,0.65,1.451,1.452,1.451h3.231v3.231c0,0.802,0.651,1.452,1.452,1.452
	c0.803,0,1.452-0.65,1.452-1.452v-3.231h3.23c0.805,0,1.453-0.648,1.453-1.451C27.091,19.192,26.442,18.541,25.638,18.541z"/>
<path fill="#C8691C" d="M25.638,18.541h-3.23v-3.23c0-0.803-0.649-1.453-1.452-1.453c-0.018,0-0.034,0.007-0.053,0.007v12.259
	c0.019,0,0.035,0.006,0.053,0.006c0.803,0,1.452-0.65,1.452-1.452v-3.231h3.23c0.805,0,1.453-0.648,1.453-1.451
	C27.091,19.192,26.442,18.541,25.638,18.541z"/>
</svg>
