<?xml version="1.0" encoding="utf-8"?>
<!DOCTYPE svg PUBLIC "-//W3C//DTD SVG 1.1//EN" "http://www.w3.org/Graphics/SVG/1.1/DTD/svg11.dtd" [
	<!ENTITY ns_flows "http://ns.adobe.com/Flows/1.0/">
]>
<svg version="1.1"
	 xmlns="http://www.w3.org/2000/svg" xmlns:xlink="http://www.w3.org/1999/xlink"
	 x="0px" y="0px" width="48px" height="48px" viewBox="-5 -3.613 48 48">
<defs>
</defs>
<path fill="#52CAF5" d="M27.678,36.628c0,2.078-1.68,3.759-3.758,3.759H3.758C1.683,40.387,0,38.706,0,36.628V3.758
	C0,1.683,1.683,0,3.758,0H23.92c2.078,0,3.758,1.683,3.758,3.758V36.628z"/>
<path fill="#FFFFFF" d="M24.557,9.006c0-0.755-0.707-1.367-1.582-1.367h-9.989C12.358,5.75,10.6,4.381,8.501,4.381
	c-2.62,0-4.745,2.125-4.745,4.747c0,2.62,2.125,4.745,4.745,4.745c2.188,0,4.01-1.488,4.561-3.5h5.814v0.846
	c0,0.514,0.416,0.928,0.929,0.928c0.514,0,0.928-0.414,0.928-0.928v-0.846h0.82v1.671c0,0.513,0.416,0.929,0.928,0.929
	c0.514,0,0.93-0.416,0.93-0.929v-1.711c0-0.012-0.006-0.022-0.006-0.034C24.064,10.134,24.557,9.629,24.557,9.006z M8.501,11.547
	c-1.336,0-2.418-1.084-2.418-2.42c0-1.336,1.083-2.419,2.418-2.419c1.338,0,2.42,1.083,2.42,2.419
	C10.921,10.463,9.839,11.547,8.501,11.547z"/>
<rect x="5.948" y="19.814" fill="#FFFFFF" width="15.687" height="1.94"/>
<rect x="5.948" y="26.121" fill="#FFFFFF" width="15.687" height="1.941"/>
<rect x="5.948" y="32.023" fill="#FFFFFF" width="15.687" height="1.941"/>
<path fill="#C8691C" d="M38.887,37.548L29.576,23.97c3.926-3.078,4.768-8.607,2.02-12.72c-2.934-4.442-8.865-5.525-13.204-2.583
	c-4.338,2.942-5.42,8.873-2.47,13.106c2.465,3.668,7.114,4.972,11.018,3.579l9.396,13.795c0.383,0.556,1.318,0.733,1.986,0.257
	C38.992,38.928,39.266,38.104,38.887,37.548 M18.146,20.254c-2.085-3.112-1.339-7.383,1.773-9.467
	c3.111-2.085,7.383-1.339,9.467,1.773c2.084,3.113,1.34,7.382-1.775,9.467C24.492,24.218,20.232,23.366,18.146,20.254"/>
<path fill="#F79523" d="M23.516,23.193c-2.107-0.054-4.141-1.053-5.474-2.947c-2.086-3.112-1.339-7.382,1.773-9.467
	c1.441-0.945,3.057-1.351,4.727-1.119l0.199-2.622c-2.195-0.272-4.445,0.19-6.34,1.523c-4.338,2.942-5.421,8.875-2.471,13.106
	c1.81,2.564,4.547,4.038,7.493,4.155l0.199-2.622L23.516,23.193z"/>
<path fill="#3588A6" d="M0,29.765v6.863c0,2.078,1.683,3.759,3.758,3.759h6.864L0,29.765z"/>
</svg>
