<?xml version="1.0" encoding="utf-8"?>
<svg version="1.1"
	 xmlns="http://www.w3.org/2000/svg" xmlns:xlink="http://www.w3.org/1999/xlink"
	 x="0px" y="0px" width="48px" height="48px" viewBox="-2.1 -3.3 48 48">
<defs>
</defs>
<path fill="#F79523" d="M38.7,19.3c0,10.7-8.7,19.3-19.3,19.3C8.7,38.7,0,30,0,19.3C0,8.7,8.7,0,19.3,0C30,0,38.7,8.7,38.7,19.3"/>
<path fill="#C8691C" d="M19.3,0C14,0,9.2,2.2,5.7,5.7l13,13L32.3,5.1C28.9,1.9,24.4,0,19.3,0"/>
<path fill="#FCB51E" d="M5,34.1c3.5,3.9,8.6,6.4,14.3,6.4c5.3,0,10.1-2.2,13.6-5.6L18.6,18.7L5,34.1z"/>
<path fill="#52CAF5" d="M28.8,13.9c0,0-8.1-9.8-14.1,0c-4.5,7.4,13.7,15.8,13.7,15.8S48,21.9,42.5,13.9
	C37.2,6.1,28.8,13.9,28.8,13.9"/>
<path fill="#43A4C7" d="M42.5,13.9c-5.3-7.7-13.7,0-13.7,0s-0.1-0.1-0.2-0.3v16C30,29,47.8,21.6,42.5,13.9"/>
</svg>
