<?xml version="1.0" encoding="utf-8"?>
<svg version="1.1"
	 xmlns="http://www.w3.org/2000/svg" xmlns:xlink="http://www.w3.org/1999/xlink"
	 x="0px" y="0px" width="48px" height="48px" viewBox="-2.763 -4.122 48 48">
<defs>
</defs>
<path fill="#E6E7E8" d="M31.65,26.622c0,2.6-1.998,4.705-4.46,4.705H4.458C1.996,31.327,0,29.222,0,26.622V4.706
	C0,2.107,1.996,0,4.458,0H27.19c2.462,0,4.46,2.107,4.46,4.706V26.622z"/>
<path fill="#84D5F7" d="M4.379,9.583c0,0,1.135,4.392,4.035,4.392s1.765-6.654,4.665-6.522c2.901,0.133,1.639,10.116,4.287,10.116
	c2.649,0,2.147-6.381,4.414-6.521c4.288-0.268,4.845,15.9,4.845,15.9L4.269,27.22L4.379,9.583z"/>
<path fill="#F79523" d="M26.771,11.837c-7.15,0.226-3.858,5.542-7.338,8.014c-2.679,1.903-4.483-0.162-7.776-0.028
	c-4.354,0.179-7.387,7.397-7.387,7.397l1.046,0.028c0,0,2.784-6.483,6.595-6.363c2.375,0.075,5.15,1.766,8.147-0.19
	c3.5-2.286,0.612-7.857,6.793-7.912L26.771,11.837z"/>
<polygon fill="#3588A6" points="4.51,26.947 4.51,5.19 3.733,5.19 3.733,27.766 3.862,27.766 4.51,27.766 26.625,27.766 
	26.625,26.947 "/>
<path fill="#F79523" d="M36.614,30.155c0.032,0.094,0.053,0.191,0.053,0.287c0,1.389-3.31,2.516-7.394,2.516
	c-4.088,0-7.398-1.127-7.398-2.516c0-0.096,0.021-0.193,0.053-0.287c-3.202,2.088-5.469,5.497-6.013,9.458h26.713
	C42.083,35.652,39.818,32.243,36.614,30.155z"/>
<path fill="#F79523" d="M35.69,23.365c0,3.729-2.874,6.749-6.417,6.749c-3.55,0-6.42-3.021-6.42-6.749
	c0-3.727,2.87-6.748,6.42-6.748C32.816,16.617,35.69,19.638,35.69,23.365z"/>
<path fill="#C8691C" d="M27.315,32.864c-3.134-0.29-5.44-1.264-5.44-2.422c0-0.096,0.021-0.193,0.053-0.287
	c-3.202,2.088-5.469,5.497-6.013,9.458h15.458L27.315,32.864z"/>
</svg>
