<?xml version="1.0" encoding="utf-8"?>

<svg version="1.1"
	 xmlns="http://www.w3.org/2000/svg" xmlns:xlink="http://www.w3.org/1999/xlink"
	 x="0px" y="0px" width="36px" height="36px" viewBox="0 0 36 36">
<defs>
</defs>
<rect opacity="0" fill="#FFFFFF" width="36" height="36"/>
<circle fill="#FCB51E" cx="18.063" cy="17.972" r="15.263"/>
<path fill="#FFFFFF" d="M18.063,2.709c8.43,0,15.263,6.832,15.263,15.263c0,8.43-6.833,15.263-15.263,15.263
	S2.801,26.401,2.801,17.972C2.801,9.541,9.634,2.709,18.063,2.709 M18.063,1.709c-8.967,0-16.263,7.295-16.263,16.263
	c0,8.967,7.295,16.263,16.263,16.263c8.967,0,16.263-7.296,16.263-16.263C34.326,9.004,27.03,1.709,18.063,1.709L18.063,1.709z"/>
<path fill="#C8691C" d="M33.326,17.972c0,8.43-6.833,15.263-15.263,15.263c-0.188-0.109,0.062-30.234,0-30.525
	C26.493,2.709,33.326,9.541,33.326,17.972z"/>
<polygon fill="#FFFFFF" points="8.186,23.065 27.697,23.065 17.941,11.31 "/>
<polygon fill="#D1D3D4" points="17.984,23.047 27.697,23.065 17.941,11.31 "/>
</svg>
