<?xml version="1.0" encoding="utf-8"?>

<svg version="1.1"
	 xmlns="http://www.w3.org/2000/svg" xmlns:xlink="http://www.w3.org/1999/xlink"
	 x="0px" y="0px" width="36px" height="36px" viewBox="0 0 36 36">
<defs>
</defs>
<rect opacity="0" fill="#FFFFFF" width="36" height="36"/>
<circle fill="#FCB51E" cx="18.063" cy="17.972" r="15.263"/>
<path fill="#FFFFFF" d="M18.063,33.234c-8.43,0-15.263-6.832-15.263-15.263c0-8.43,6.833-15.263,15.263-15.263
	s15.263,6.833,15.263,15.263C33.326,26.402,26.493,33.234,18.063,33.234 M18.063,34.234c8.967,0,16.263-7.295,16.263-16.263
	c0-8.967-7.296-16.263-16.263-16.263c-8.967,0-16.263,7.296-16.263,16.263C1.801,26.939,9.096,34.234,18.063,34.234L18.063,34.234z"
	/>
<path fill="#C8691C" d="M33.326,17.972c0-8.43-6.833-15.263-15.263-15.263c-0.188,0.109,0.062,30.234,0,30.525
	C26.493,33.234,33.326,26.402,33.326,17.972z"/>
<polygon fill="#FFFFFF" points="8.186,12.878 27.697,12.878 17.941,24.634 "/>
<polygon fill="#D1D3D4" points="17.984,12.896 27.697,12.878 17.941,24.634 "/>
</svg>
