<?xml version="1.0" encoding="utf-8"?>
<!-- Generator: Adobe Illustrator 15.0.0, SVG Export Plug-In  -->
<!DOCTYPE svg PUBLIC "-//W3C//DTD SVG 1.1//EN" "http://www.w3.org/Graphics/SVG/1.1/DTD/svg11.dtd" [
	<!ENTITY ns_flows "http://ns.adobe.com/Flows/1.0/">
]>
<svg version="1.1"
	 xmlns="http://www.w3.org/2000/svg" x="0px" y="0px" width="100px" height="100px" viewBox="-4.428 -9.616 100 100"
	 xml:space="preserve">
<defs>
</defs>
<path d="M74.047,79.654L63.616,50.999h-6.45l10.69,29.366h6.297C74.144,80.13,74.131,79.89,74.047,79.654z"/>
<path d="M0.106,79.654l10.431-28.655h6.45L6.297,80.365H0C0.01,80.13,0.022,79.89,0.106,79.654z"/>
<path d="M32.607,8.833l1.933-5.311c0.415-1.144-0.174-2.41-1.317-2.826l-1.551-0.563c-1.145-0.416-2.41,0.174-2.827,1.317
	l-2.687,7.382H32.607z"/>
<path d="M41.816,8.833h6.451l-2.687-7.382c-0.418-1.144-1.684-1.733-2.829-1.317l-1.55,0.563c-1.143,0.416-1.733,1.682-1.318,2.826
	L41.816,8.833z"/>
<path d="M60.903,37.662c-0.125-0.063-0.205-0.128-0.205-0.194c0-0.501,3.728-0.926,8.926-1.085V8.234h-3.055v0.548
	c-0.001,1.219-0.985,2.205-2.204,2.205H8.76c-1.219,0-2.205-0.986-2.205-2.205V8.234h-6.24v43.497h6.24v-0.551
	c0-1.218,0.986-2.2,2.205-2.2h53.416L60.903,37.662z M49.871,35.947c-0.632,1.952,4.094,1.774,3.567,4.614
	c-0.524,2.839-3.674-0.887-5.772,0.71c-2.101,1.598-4.2,5.145-5.249,2.661c-1.051-2.484,1.364-4.08-0.21-6.388
	c-1.575-2.307-2.835,0.178-3.569-1.242c-0.347-0.67,0.151-1.342,0.837-2.124c-0.664,0.135-1.37,0.449-2.113,1.092
	c-3.038,2.634,1.621,4.457-0.404,7.292s-6.076-1.214-10.127-3.038c-4.052-1.824-10.128,2.43-11.14-0.811
	c-1.012-3.242,8.101-3.038,6.886-5.267c-1.215-2.228-11.747-3.037-10.734-7.291c1.012-4.253,14.988,3.646,15.595,0.811
	c0.607-2.834-11.608-7.694-7.898-11.139c2.836-2.634,12.962,5.467,15.594,5.467c2.633,0,6.886-5.873,8.102-1.215
	c0.494,1.891-0.386,3.043-1.519,3.94c0.581,0.646,1.164,1.281,1.643,1.281c1.364,0,6.614-7.096,8.084-4.789
	c1.922,3.02-4.408,7.275-4.094,9.759s7.559-4.437,8.082-0.71C55.959,33.287,50.5,33.995,49.871,35.947z"/>
<path d="M85.183,11.802c1.3,0.048,1.777,1.025,1.777,1.025s1.885-1.991,1.241-4.194c-0.646-2.197-2.1-5.775-2.1-5.775
	c0.256,2.132-2.175,3.107-3.013,4.775c-0.842,1.672,0.054,4.795,0.054,4.795S83.778,11.75,85.183,11.802z"/>
<path d="M91.086,40.567c0.033-0.033,0.059-0.065,0.059-0.099c0-0.456-3.084-0.849-7.552-1.036l2.666-20.394
	c0.049,0.044,0.084,0.077,0.084,0.077l0.615-4.288c0,0-0.262-0.762-1.777-1.025c-1.391-0.241-2.038,0.626-2.038,0.626l-0.481,3.955
	c0,0,0.014-0.009,0.033-0.021l-2.74,20.971c-0.73-0.01-1.476-0.017-2.24-0.017c-0.616,0-1.219,0.005-1.813,0.012l-0.058-27.667
	l-1.656-5.371l-1.453-0.016l-1.611,5.387l0.011,27.804c-4.086,0.198-6.851,0.573-6.851,1.005c0,0.066,0.08,0.131,0.205,0.194
	l4.182,37.18c0,0,0.169,0.052,0.486,0.129h-2.261v1.777h0.132c0.722,0.576,5.283,1.02,10.816,1.02s10.094-0.443,10.815-1.02h0.132
	v-1.777h-2.488c0.472-0.096,0.72-0.162,0.72-0.162L91.086,40.567z"/>
<polygon points="73.55,3.106 72.866,5.333 74.077,5.333 "/>
</svg>
