<?xml version="1.0" encoding="utf-8"?>
<!DOCTYPE svg PUBLIC "-//W3C//DTD SVG 1.1//EN" "http://www.w3.org/Graphics/SVG/1.1/DTD/svg11.dtd" [
	<!ENTITY ns_flows "http://ns.adobe.com/Flows/1.0/">
]>
<svg version="1.1"
	 xmlns="http://www.w3.org/2000/svg" x="0px" y="0px" width="100px" height="100px" viewBox="-4.403 -5.019 100 100">
<defs>
</defs>
<polygon points="21.859,89.961 3.695,89.961 3.743,64.78 21.859,48.797 "/>
<polygon points="42.779,89.961 24.615,89.961 24.615,46.896 29.088,42.52 42.765,53.045 "/>
<polygon points="63.699,89.961 45.535,89.961 45.535,52.776 63.678,36.393 "/>
<polygon points="84.618,89.961 66.452,89.961 66.436,34.071 68.381,32.194 84.618,52.776 "/>
<path d="M87.614,43.608L72.624,24.67c0.096-0.334,0.163-0.68,0.163-1.045c0-2.11-1.711-3.82-3.82-3.82s-3.82,1.71-3.82,3.82
	c0,0.113,0.023,0.219,0.033,0.33l-21.553,19.41c-0.081,0.003-0.159,0.016-0.239,0.024L32.64,34.883
	c-0.187-1.935-1.799-3.453-3.783-3.453c-2.072,0-3.748,1.651-3.809,3.708L4.236,54.329c-0.139-0.016-0.274-0.043-0.417-0.043
	c-2.11,0-3.82,1.711-3.82,3.82s1.71,3.82,3.82,3.82c1.886,0,3.443-1.371,3.754-3.168l21.362-19.696
	c0.057-0.001,0.11-0.013,0.166-0.017l10.916,8.594c0.235,1.885,1.824,3.35,3.772,3.35c2.098,0,3.797-1.691,3.816-3.785l20.9-18.858
	l15.05,19.017c0,0.014-0.004,0.027-0.004,0.042c0,2.11,1.711,3.821,3.82,3.821s3.82-1.711,3.82-3.821
	C91.193,45.377,89.609,43.735,87.614,43.608z"/>
<path d="M54.396,0H6.651C6.064,0,5.588,0.476,5.588,1.063v27.393c0,0.587,0.477,1.063,1.063,1.063h47.746
	c0.586,0,1.062-0.476,1.062-1.063h0.001V1.063C55.459,0.476,54.982,0,54.396,0z M34.932,20.215H10.796v-1.563h24.136V20.215z
	 M34.932,13.84H10.796v-1.563h24.136V13.84z M50.869,20.215H40.798v-1.563h10.071V20.215z M50.869,13.84H40.798v-1.563h10.071V13.84
	z M50.907,7.465H10.796V5.902h40.111V7.465z"/>
</svg>
