<?xml version="1.0" encoding="utf-8"?>
<!-- Generator: Adobe Illustrator 15.0.0, SVG Export Plug-In  -->
<!DOCTYPE svg PUBLIC "-//W3C//DTD SVG 1.1//EN" "http://www.w3.org/Graphics/SVG/1.1/DTD/svg11.dtd" [
	<!ENTITY ns_flows "http://ns.adobe.com/Flows/1.0/">
]>
<svg version="1.1"
	 xmlns="http://www.w3.org/2000/svg" x="0px" y="0px" width="100px" height="100px" viewBox="-6.169 -5.336 100 100"
	 xml:space="preserve">
<defs>
</defs>
<path d="M15.642,86.451c3.707-3.708,3.854-9.57,0.329-13.097c-3.525-3.525-9.385-3.375-13.092,0.332
	c-3.705,3.703-3.854,9.563-0.328,13.088C6.076,90.301,11.938,90.156,15.642,86.451z"/>
<path d="M72.021,84.702c-3.707-3.707-3.854-9.57-0.328-13.096c3.524-3.525,9.384-3.375,13.092,0.332
	c3.703,3.703,3.854,9.563,0.326,13.088C81.587,88.553,75.725,88.407,72.021,84.702z"/>
<path d="M16.016,2.876c3.707,3.707,3.854,9.57,0.329,13.095c-3.525,3.525-9.385,3.375-13.093-0.332
	c-3.704-3.705-3.854-9.563-0.328-13.088C6.45-0.974,12.312-0.828,16.016,2.876z"/>
<path d="M70.898,4.625c-3.707,3.707-3.854,9.57-0.328,13.095c3.525,3.525,9.385,3.376,13.092-0.332
	c3.704-3.705,3.854-9.563,0.328-13.088C80.464,0.774,74.604,0.92,70.898,4.625z"/>
<path d="M75.527,48.884l-5.771,5.771c1.081-3.004,1.674-6.242,1.674-9.619c0-3.165-0.525-6.205-1.48-9.048l4.455,4.455
	c3.402-4.483,4.533-10.125,3.428-15.385c-0.064,0.13-0.135,0.244-0.232,0.341c-1.379,1.379-5.798-0.791-9.856-4.852
	c-4.063-4.062-6.231-8.477-4.853-9.856c0.098-0.097,0.215-0.166,0.34-0.233c-5.26-1.109-10.9,0.024-15.388,3.425l4.226,4.226
	c-2.842-0.955-5.882-1.479-9.046-1.479c-3.686,0-7.204,0.709-10.436,1.987l6.484-6.483c-4.486-3.399-10.127-4.531-15.388-3.424
	c0.125,0.067,0.243,0.136,0.34,0.233c1.379,1.379-0.788,5.794-4.851,9.857c-4.06,4.06-8.479,6.23-9.858,4.851
	c-0.097-0.097-0.168-0.211-0.232-0.341c-1.107,5.26,0.025,10.901,3.428,15.384l4.093-4.093c-1.278,3.232-1.988,6.75-1.988,10.437
	c0,3.451,0.617,6.758,1.744,9.818l-4.222-4.223c-3.404,4.483-4.535,10.126-3.428,15.387c0.063-0.132,0.135-0.246,0.232-0.342
	c1.379-1.378,5.798,0.792,9.857,4.852c4.064,4.063,6.231,8.479,4.852,9.857c-0.097,0.096-0.215,0.165-0.34,0.232
	c5.26,1.107,10.901-0.024,15.387-3.424L33.2,71.697c3.061,1.128,6.37,1.745,9.823,1.745c3.376,0,6.613-0.592,9.617-1.673
	l-3.675,3.675c4.488,3.402,10.128,4.533,15.389,3.426c-0.125-0.067-0.242-0.137-0.34-0.23c-1.381-1.381,0.787-5.796,4.853-9.859
	c4.059-4.061,8.479-6.229,9.856-4.852c0.096,0.098,0.168,0.211,0.232,0.342C80.061,59.009,78.93,53.368,75.527,48.884z
	 M19.19,45.036c0-13.161,10.669-23.83,23.832-23.83c13.161,0,23.831,10.668,23.831,23.83s-10.67,23.831-23.831,23.831
	C29.86,68.867,19.19,58.196,19.19,45.036z"/>
<path d="M57,40.117c0.675,0.723,1.253,0.505,1.287-0.482l0.256-7.482c0.034-0.988-0.746-1.823-1.732-1.856l-7.481-0.255
	c-0.989-0.033-1.244,0.529-0.57,1.251l0.442,0.474c0.674,0.722,0.635,1.864-0.088,2.539l-3.392,3.169
	c-0.722,0.673-0.762,1.816-0.087,2.538l2.453,2.626c0.674,0.722,1.816,0.761,2.539,0.087l3.393-3.169
	c0.723-0.674,1.864-0.636,2.539,0.087L57,40.117z"/>
<path d="M37.289,58.526c0.674,0.723,0.419,1.285-0.569,1.252l-7.481-0.254c-0.988-0.034-1.768-0.868-1.734-1.857l0.255-7.48
	c0.034-0.987,0.613-1.205,1.288-0.483l0.442,0.475c0.675,0.722,1.817,0.761,2.539,0.086l3.393-3.169
	c0.722-0.674,1.865-0.635,2.539,0.088l2.453,2.626c0.675,0.723,0.635,1.865-0.086,2.54l-3.393,3.168
	c-0.722,0.674-0.761,1.816-0.086,2.539L37.289,58.526z"/>
<path d="M38.229,30.933c0.722-0.674,0.505-1.253-0.482-1.287l-7.481-0.257c-0.989-0.033-1.824,0.748-1.857,1.735l-0.255,7.482
	c-0.034,0.986,0.529,1.243,1.251,0.568l0.473-0.441c0.723-0.675,1.865-0.636,2.539,0.086l3.169,3.392
	c0.674,0.722,1.816,0.762,2.539,0.086l2.625-2.453c0.723-0.675,0.761-1.817,0.087-2.539l-3.168-3.392
	c-0.674-0.723-0.636-1.864,0.086-2.54L38.229,30.933z"/>
<path d="M56.641,50.643c0.723-0.674,1.284-0.418,1.252,0.57l-0.254,7.48c-0.035,0.986-0.871,1.769-1.859,1.733l-7.48-0.254
	c-0.986-0.034-1.205-0.614-0.482-1.289l0.476-0.442c0.721-0.674,0.761-1.814,0.086-2.537l-3.169-3.394
	c-0.674-0.721-0.637-1.864,0.088-2.539l2.625-2.452c0.723-0.675,1.863-0.637,2.539,0.086L53.629,51
	c0.676,0.722,1.816,0.762,2.539,0.087L56.641,50.643z"/>
</svg>
