<?xml version="1.0" encoding="utf-8"?>
<svg version="1.1"
	 xmlns="http://www.w3.org/2000/svg" x="0px" y="0px" width="48px" height="48px" viewBox="-0.549 -0.549 48 48">
<defs>
</defs>
<path d="M16.125,6.841c0.704,0,1.273,0.575,1.289,1.287c0.737-0.087,1.703-0.169,2.732-0.169c1.199,0,2.25,0.113,3.121,0.338
	c3.05,0.784,5.194,2.249,6.97,3.56c0.254,0.187,0.537,0.397,0.838,0.624c1.807,1.36,4.563,3.342,6.042,3.688
	c1.126,0.264,2.985,0.439,4.229,0.534l-15.86-15.86c-1.122-1.124-2.946-1.124-4.071,0l-5.998,5.998H16.125z"/>
<path d="M13.661,26.858c-0.286-0.371-0.443-0.846-0.443-1.352V9.281c-0.049-0.03-0.089-0.071-0.134-0.107l-12.24,12.24
	c-1.125,1.126-1.125,2.949,0,4.073l12.817,12.817V26.858z"/>
<path d="M46.058,21.414l-3.115-3.115c-0.729,0.555-3.373,2.429-6.104,3.193c-0.646,0.181-1.446,0.489-2.33,0.571
	c-0.988,0.092-1.821,0.155-2.813,0.082c-1.549-0.117-3.223-0.206-4.564-0.084c-2.746,0.249-3.969,0.792-5.18,1.575
	c-1.349,0.872-2.647,2.407-3.269,2.875l-0.1,0.077c-0.082,0.147-0.174,0.289-0.288,0.41v15.52c0,0.098-0.05,0.193-0.134,0.285
	l3.255,3.256c1.125,1.125,2.948,1.125,4.071,0l20.572-20.57C47.181,24.363,47.183,22.539,46.058,21.414z"/>
<path d="M33.711,17.42c-1.538-0.359-4.286-2.55-5.79-3.663c-1.506-1.112-3.141-2.192-5.43-2.781
	c-2.291-0.59-5.562,0.032-5.562,0.032v0.094c-0.066-0.209-0.189-0.371-0.342-0.489h0.441c0.229,0,0.414-0.193,0.414-0.432
	c0-0.238-0.185-0.431-0.414-0.431h-1.818c-0.228,0-0.413,0.194-0.413,0.431c0,0.239,0.185,0.432,0.413,0.432h0.5
	c-0.237,0.183-0.403,0.492-0.403,0.862v12.768c0,0.347,0.147,0.639,0.36,0.826v12.96c0,0.238,0.192,0.432,0.431,0.432
	c0.238,0,0.431-0.195,0.431-0.432V25.154c0.181-0.116,0.325-0.302,0.399-0.538v0.002c0.523-0.394,3.14-2.161,4.252-2.88
	c1.112-0.72,1.8-1.113,4.482-1.375c2.684-0.261,5.43,0.459,7.885,0.066c2.453-0.392,4.774-2.551,4.774-2.551
	S35.248,17.78,33.711,17.42z"/>
</svg>
