<?xml version="1.0" encoding="utf-8"?>
<!-- Generator: Adobe Illustrator 15.0.0, SVG Export Plug-In  -->
<!DOCTYPE svg PUBLIC "-//W3C//DTD SVG 1.1//EN" "http://www.w3.org/Graphics/SVG/1.1/DTD/svg11.dtd" [
	<!ENTITY ns_flows "http://ns.adobe.com/Flows/1.0/">
]>
<svg version="1.1"
	 xmlns="http://www.w3.org/2000/svg" x="0px" y="0px" width="48px" height="48px" viewBox="-1.723 -8.594 48 48"
	 xml:space="preserve">
<defs>
</defs>
<path d="M43.91,0H0.644C0.289,0,0,0.288,0,0.644v27.269c0,0.354,0.289,0.646,0.644,0.646h2.792v1.609
	c0,0.355,0.289,0.645,0.644,0.645h36.393c0.357,0,0.646-0.287,0.646-0.645v-1.609h2.792c0.356,0,0.644-0.289,0.644-0.646V0.644
	C44.553,0.288,44.266,0,43.91,0z M43.316,26.57c0,0.355-0.285,0.644-0.643,0.644H1.879c-0.355,0-0.645-0.287-0.645-0.644V1.986
	c0-0.355,0.289-0.644,0.645-0.644h40.795c0.355,0,0.643,0.289,0.643,0.644V26.57z"/>
<path d="M23.381,16.321l0.059-0.171l-0.857-0.294c-0.038-0.327-0.236-0.6-0.529-0.671c-0.396-0.098-0.811,0.206-0.926,0.678
	c-0.116,0.471,0.111,0.932,0.507,1.029c0.282,0.069,0.57-0.071,0.756-0.326l0.81,0.278l0.083-0.243
	c1.213,0.491,1.606,2.34-0.269,2.765c-1.451,0.331-5.4,0-3.791,3.153h0.403c-1.778-2.783,1.946-2.449,3.69-2.885
	C25.196,19.164,24.891,16.952,23.381,16.321z"/>
<path d="M9.79,9.078C9.363,8.556,8.789,8.146,8.099,7.925c-1.902-0.61-3.938,0.438-4.548,2.339c-0.609,1.902,0.438,3.938,2.34,4.547
	c0.688,0.221,1.395,0.222,2.045,0.046c-0.077-0.134-0.529-1.069,0.159-3.214C8.72,9.69,9.649,9.15,9.79,9.078z"/>
<path d="M20.489,16.796c-0.151-0.2-0.242-0.446-0.242-0.716c0-0.593,0.427-1.083,0.99-1.187L10.762,9.274
	c0,0-1.037,0.458-1.716,2.576c-0.747,2.331-0.147,3.236-0.147,3.236l11.55,1.799L20.489,16.796z"/>
<polygon points="24.779,3.703 24.682,10.365 30.292,7.581 "/>
<polygon points="36.122,24.97 33.52,20.131 34.999,19.355 31.02,9.427 25.712,12.059 31.549,21.162 32.771,20.522 35.365,25.346 "/>
<polygon points="35.958,6.021 33.753,10.753 38.658,10.562 "/>
<polygon points="35.206,20.675 36.285,20.609 36.596,24.889 37.256,24.864 36.946,20.57 38.252,20.491 38.586,12.114 33.948,12.296 
	"/>
</svg>
