<?xml version="1.0" encoding="utf-8"?>
<svg version="1.1" xmlns="http://www.w3.org/2000/svg" x="0px" y="0px" width="100px" height="100px" viewBox="0 0 100 100">
<g>
	<rect x="15.022" y="15.022" width="15.9" height="28.619"/>
	<rect x="53.18" y="59.541" width="19.081" height="22.259"/>
	<path d="M91.339,83.389c0,0.878-0.71,1.59-1.59,1.59c-0.879,0-1.591-0.712-1.591-1.59V13.433h-3.18v69.956
		c0,0.878-0.712,1.59-1.59,1.59s-1.59-0.712-1.59-1.59V5.482H5.482v81.086c0.006,4.389,3.563,7.945,7.95,7.949h73.136
		c4.39-0.004,7.945-3.562,7.949-7.949V13.433h-3.18L91.339,83.389L91.339,83.389z M11.843,13.433
		c-0.001-0.878,0.711-1.591,1.589-1.591h0.001h19.08c0.877,0,1.59,0.711,1.59,1.59v0.001V45.23c0,0.878-0.712,1.59-1.59,1.59l0,0
		h-19.08c-0.878,0-1.59-0.712-1.59-1.589c0-0.001,0-0.001,0-0.001V13.433z M26.152,78.619H13.434c-0.878,0-1.59-0.712-1.59-1.591
		c0-0.878,0.712-1.59,1.59-1.59h12.719c0.879,0,1.591,0.712,1.591,1.59C27.742,77.907,27.03,78.619,26.152,78.619z M26.152,72.26
		H13.434c-0.878,0-1.59-0.713-1.59-1.59c0-0.881,0.712-1.592,1.59-1.592h12.719c0.879,0,1.591,0.711,1.591,1.592
		C27.742,71.547,27.03,72.26,26.152,72.26z M26.152,65.899H13.434c-0.878,0-1.59-0.712-1.59-1.59s0.712-1.591,1.59-1.591h12.719
		c0.879,0,1.591,0.713,1.591,1.591S27.03,65.899,26.152,65.899z M26.152,59.541H13.434c-0.878,0-1.59-0.713-1.59-1.591
		c0-0.879,0.712-1.59,1.59-1.59h12.719c0.879,0,1.591,0.711,1.591,1.59C27.742,58.828,27.03,59.541,26.152,59.541z M45.231,78.619
		H32.513c-0.879,0-1.59-0.712-1.59-1.591c0-0.878,0.711-1.59,1.59-1.59h12.719c0.878,0,1.591,0.712,1.591,1.59
		C46.82,77.907,46.109,78.619,45.231,78.619z M45.231,72.26H32.513c-0.879,0-1.59-0.713-1.59-1.59c0-0.881,0.711-1.592,1.59-1.592
		h12.719c0.878,0,1.591,0.711,1.591,1.592C46.82,71.547,46.109,72.26,45.231,72.26z M45.231,65.899H32.513
		c-0.879,0-1.59-0.712-1.59-1.59s0.711-1.591,1.59-1.591h12.719c0.878,0,1.591,0.713,1.591,1.591S46.109,65.899,45.231,65.899z
		 M45.231,59.541H32.513c-0.879,0-1.59-0.713-1.59-1.591c0-0.879,0.711-1.59,1.59-1.59h12.719c0.878,0,1.591,0.711,1.591,1.59
		C46.82,58.828,46.109,59.541,45.231,59.541z M75.44,83.389c0,0.878-0.711,1.59-1.59,1.59l0,0h-22.26c-0.876,0-1.59-0.712-1.59-1.59
		l0,0V57.95c0-0.879,0.712-1.59,1.59-1.59l0,0h22.26c0.877,0,1.59,0.711,1.59,1.59l0,0V83.389z M73.851,46.82H42.052
		c-0.878,0-1.59-0.712-1.59-1.59s0.712-1.59,1.59-1.59h31.799c0.877,0,1.59,0.711,1.59,1.59C75.44,46.108,74.728,46.82,73.851,46.82
		z M73.851,40.461H42.052c-0.878,0-1.59-0.711-1.59-1.59c0-0.877,0.712-1.59,1.59-1.59h31.799c0.877,0,1.59,0.711,1.59,1.59
		C75.44,39.748,74.728,40.461,73.851,40.461z M73.851,34.102H42.052c-0.878,0-1.59-0.711-1.59-1.59s0.712-1.59,1.59-1.59h31.799
		c0.877,0,1.59,0.711,1.59,1.59C75.44,33.39,74.728,34.102,73.851,34.102z M73.851,27.741H42.052c-0.878,0-1.59-0.711-1.59-1.59
		c0-0.878,0.712-1.59,1.59-1.59h31.799c0.877,0,1.59,0.712,1.59,1.59S74.728,27.741,73.851,27.741z M73.851,21.381H42.052
		c-0.878,0-1.59-0.711-1.59-1.59c0-0.877,0.712-1.59,1.59-1.59h31.799c0.877,0,1.59,0.713,1.59,1.59
		C75.44,20.67,74.728,21.381,73.851,21.381z M73.851,15.022H42.052c-0.878,0-1.59-0.712-1.59-1.589c0-0.878,0.712-1.59,1.59-1.59
		h31.799c0.877,0,1.59,0.712,1.59,1.59C75.44,14.311,74.728,15.022,73.851,15.022z"/>
</g>
</svg>
