<?xml version="1.0" encoding="utf-8"?>
<!-- Generator: Adobe Illustrator 15.0.0, SVG Export Plug-In  -->
<!DOCTYPE svg PUBLIC "-//W3C//DTD SVG 1.1//EN" "http://www.w3.org/Graphics/SVG/1.1/DTD/svg11.dtd" [
	<!ENTITY ns_flows "http://ns.adobe.com/Flows/1.0/">
]>
<svg version="1.1"
	 xmlns="http://www.w3.org/2000/svg" x="0px" y="0px" width="100px" height="100px" viewBox="-6.324 -7.073 100 100">
<defs>
</defs>
<path d="M63.434,41.054c-0.174,0.813-0.271,1.656-0.271,2.521v29.278c0,6.627,5.373,12,12,12h0.188c6.627,0,12-5.373,12-12V43.576
	c0-0.867-0.098-1.708-0.271-2.521H63.434z"/>
<path d="M58.512,74.18V0H0v71.434c0,0-0.101,6.641,3.638,10.754c3.456,3.802,11.669,3.666,11.669,3.666h52.468
	C62.471,84.615,58.512,79.865,58.512,74.18z M12.422,6h32v6h-32V6z M7.422,18h25v22h-25V18z M51.422,69h-44v-3h44V69z M51.422,60.5
	h-44v-3h44V60.5z M51.422,52h-44v-3h44V52z M51.455,39H37.392v-3h14.063V39z M51.455,30H37.392v-3h14.063V30z M51.455,22H37.392v-3
	h14.063V22z"/>
</svg>
