<?xml version="1.0" encoding="utf-8"?>
<!-- Generator: Adobe Illustrator 15.0.0, SVG Export Plug-In  -->
<!DOCTYPE svg PUBLIC "-//W3C//DTD SVG 1.1//EN" "http://www.w3.org/Graphics/SVG/1.1/DTD/svg11.dtd" [
	<!ENTITY ns_flows "http://ns.adobe.com/Flows/1.0/">
]>
<svg version="1.1"
	 xmlns="http://www.w3.org/2000/svg" x="0px" y="0px" width="100px" height="100px" viewBox="-22.416 -4.864 100 100"
	 xml:space="preserve">
<defs>
</defs>
<path d="M26.35,26.749c0-0.247,0-0.247,0-0.247c-0.018-0.267,0.213-0.551,0.515-0.632l1.027-0.274
	c0.301-0.082,0.48-0.394,0.399-0.696l-0.514-1.917c-0.081-0.302-0.394-0.483-0.694-0.402l-1.025,0.276
	c-0.301,0.081-0.671-0.078-0.822-0.351l-0.588-0.924c-0.185-0.252-0.171-0.653,0.029-0.893l0.684-0.813
	c0.2-0.238,0.168-0.598-0.07-0.799L23.771,17.8c-0.24-0.201-0.599-0.169-0.8,0.069l-0.683,0.815
	c-0.201,0.239-0.596,0.326-0.878,0.195l-1.745-0.633c-0.302-0.083-0.548-0.405-0.548-0.716v-1.063c0-0.312-0.255-0.568-0.567-0.568
	h-1.985c-0.312,0-0.567,0.256-0.567,0.568v1.063c0,0.311-0.247,0.628-0.55,0.703L14.4,18.56c-0.291,0.113-0.676-0.003-0.855-0.259
	l-0.608-0.87c-0.179-0.255-0.534-0.318-0.79-0.139l-1.626,1.139c-0.255,0.178-0.318,0.534-0.139,0.789l0.609,0.87
	c0.178,0.255,0.157,0.656-0.048,0.892l-0.667,0.87c-0.173,0.259-0.556,0.383-0.85,0.276l-0.998-0.363
	c-0.293-0.107-0.62,0.045-0.728,0.339L7.022,23.97c-0.108,0.293,0.045,0.621,0.339,0.729l0.998,0.363
	c0.293,0.106,0.5,0.447,0.459,0.756c0,0-0.055,0.421-0.055,0.931c0,0.246,0,0.246,0,0.246c0.018,0.268-0.214,0.552-0.515,0.633
	l-1.027,0.275c-0.301,0.081-0.482,0.394-0.402,0.695l0.515,1.918c0.081,0.301,0.393,0.481,0.695,0.401l1.024-0.275
	c0.302-0.08,0.671,0.076,0.822,0.349l0.589,0.925c0.185,0.251,0.171,0.654-0.029,0.893l-0.682,0.813
	c-0.201,0.239-0.169,0.599,0.07,0.799l1.521,1.276c0.239,0.2,0.599,0.168,0.799-0.071l0.683-0.813
	c0.201-0.24,0.596-0.326,0.878-0.194l1.745,0.631c0.301,0.083,0.547,0.404,0.547,0.717v1.062c0,0.312,0.255,0.567,0.567,0.567h1.985
	c0.313,0,0.567-0.255,0.567-0.567v-1.062c0-0.313,0.248-0.629,0.551-0.704l1.045-0.328c0.292-0.113,0.676,0.004,0.854,0.261
	l0.609,0.869c0.179,0.256,0.534,0.318,0.79,0.139l1.626-1.139c0.256-0.179,0.317-0.535,0.14-0.791l-0.609-0.869
	c-0.18-0.256-0.158-0.657,0.047-0.893l0.667-0.87c0.174-0.259,0.556-0.384,0.849-0.276l0.999,0.363
	c0.293,0.107,0.62-0.045,0.728-0.339l0.677-1.866c0.106-0.293-0.045-0.62-0.337-0.727l-0.999-0.363
	c-0.293-0.108-0.5-0.447-0.459-0.756C26.293,27.68,26.35,27.258,26.35,26.749z M17.557,33.215c-3.571,0-6.467-2.896-6.467-6.467
	c0-3.572,2.896-6.467,6.467-6.467c3.571,0,6.466,2.895,6.466,6.467C24.022,30.32,21.127,33.215,17.557,33.215z"/>
<path d="M33.307,50.151c0-0.182,0-0.182,0-0.182c-0.017-0.193,0.153-0.4,0.373-0.461l0.748-0.199
	c0.221-0.059,0.353-0.285,0.294-0.506l-0.374-1.396c-0.061-0.22-0.287-0.353-0.507-0.293l-0.748,0.2
	c-0.219,0.06-0.487-0.057-0.6-0.256l-0.428-0.674c-0.134-0.182-0.125-0.474,0.021-0.648l0.498-0.591
	c0.146-0.176,0.123-0.437-0.051-0.584l-1.109-0.93c-0.173-0.145-0.436-0.122-0.581,0.051l-0.498,0.594
	c-0.146,0.174-0.435,0.238-0.64,0.142l-1.271-0.461c-0.221-0.059-0.399-0.295-0.399-0.521v-0.774c0-0.228-0.186-0.413-0.413-0.413
	h-1.446c-0.228,0-0.413,0.186-0.413,0.413v0.774c0,0.226-0.181,0.457-0.401,0.512l-0.762,0.238
	c-0.212,0.082-0.493-0.002-0.623-0.188l-0.444-0.634c-0.13-0.186-0.39-0.232-0.576-0.102l-1.184,0.831
	c-0.187,0.131-0.232,0.39-0.102,0.576l0.445,0.634c0.13,0.186,0.114,0.478-0.036,0.65l-0.485,0.633
	c-0.127,0.189-0.405,0.279-0.619,0.201l-0.728-0.266c-0.213-0.076-0.451,0.033-0.529,0.248l-0.495,1.358
	c-0.078,0.213,0.033,0.451,0.247,0.529l0.727,0.266c0.213,0.076,0.365,0.324,0.334,0.552c0,0-0.04,0.307-0.04,0.678
	c0,0.18,0,0.18,0,0.18c0.012,0.194-0.156,0.399-0.375,0.459l-0.749,0.201c-0.219,0.059-0.351,0.287-0.293,0.508l0.375,1.396
	c0.06,0.22,0.287,0.353,0.506,0.291l0.747-0.196c0.219-0.062,0.488,0.055,0.598,0.252l0.429,0.674
	c0.134,0.185,0.125,0.476-0.021,0.649l-0.498,0.593c-0.146,0.176-0.123,0.438,0.051,0.582l1.107,0.932
	c0.174,0.146,0.437,0.123,0.583-0.051l0.497-0.595c0.146-0.174,0.434-0.237,0.64-0.143l1.272,0.461
	c0.219,0.062,0.399,0.295,0.399,0.521v0.775c0,0.227,0.185,0.412,0.413,0.412h1.446c0.228,0,0.413-0.187,0.413-0.412v-0.775
	c0-0.227,0.18-0.457,0.402-0.512l0.76-0.238c0.213-0.082,0.491,0.002,0.623,0.188l0.442,0.635c0.131,0.188,0.39,0.232,0.575,0.103
	l1.186-0.83c0.187-0.129,0.23-0.389,0.101-0.576l-0.44-0.633c-0.132-0.187-0.116-0.479,0.033-0.647l0.485-0.635
	c0.127-0.188,0.405-0.279,0.619-0.201l0.727,0.264c0.214,0.078,0.452-0.033,0.53-0.246l0.493-1.361
	c0.078-0.211-0.032-0.451-0.245-0.527l-0.723-0.269c-0.216-0.075-0.364-0.325-0.335-0.551C33.266,50.83,33.307,50.523,33.307,50.151
	z M26.9,54.863c-2.602,0-4.711-2.109-4.711-4.712c0-2.602,2.109-4.71,4.711-4.71c2.601,0,4.709,2.109,4.709,4.71
	C31.609,52.754,29.501,54.863,26.9,54.863z"/>
<path d="M40.208,36.246c0-0.173,0-0.173,0-0.173c-0.012-0.188,0.15-0.385,0.361-0.443l0.718-0.192
	c0.213-0.057,0.338-0.275,0.282-0.486l-0.36-1.343c-0.057-0.21-0.275-0.337-0.484-0.281l-0.719,0.192
	c-0.211,0.058-0.47-0.053-0.575-0.245l-0.411-0.647c-0.129-0.177-0.121-0.457,0.021-0.625l0.479-0.569
	c0.141-0.168,0.119-0.419-0.049-0.56l-1.065-0.894c-0.167-0.14-0.419-0.119-0.559,0.049l-0.479,0.57
	c-0.141,0.167-0.418,0.228-0.615,0.136l-1.223-0.442c-0.209-0.057-0.383-0.283-0.383-0.501v-0.744c0-0.218-0.18-0.396-0.396-0.396
	h-1.39c-0.22,0-0.398,0.178-0.398,0.396v0.744c0,0.219-0.173,0.44-0.384,0.493l-0.731,0.229c-0.203,0.08-0.474-0.002-0.599-0.182
	l-0.428-0.608c-0.124-0.179-0.373-0.224-0.552-0.098l-1.14,0.797c-0.179,0.125-0.222,0.374-0.098,0.554l0.426,0.608
	c0.126,0.179,0.111,0.46-0.033,0.625l-0.467,0.608c-0.121,0.182-0.388,0.269-0.594,0.194l-0.698-0.255
	c-0.205-0.075-0.434,0.032-0.509,0.237L26.68,34.3c-0.074,0.205,0.032,0.434,0.237,0.509l0.699,0.254
	c0.204,0.074,0.349,0.314,0.322,0.53c0,0-0.039,0.295-0.039,0.652c0,0.173,0,0.173,0,0.173c0.012,0.187-0.149,0.386-0.361,0.442
	l-0.719,0.192c-0.211,0.057-0.337,0.275-0.28,0.486l0.359,1.343c0.057,0.21,0.274,0.337,0.485,0.281L28.1,38.97
	c0.212-0.056,0.471,0.054,0.576,0.245l0.411,0.647c0.13,0.176,0.12,0.458-0.021,0.625l-0.478,0.569
	c-0.14,0.167-0.118,0.419,0.051,0.559l1.063,0.893c0.166,0.141,0.419,0.118,0.562-0.049l0.477-0.569
	c0.141-0.167,0.419-0.229,0.615-0.136l1.222,0.442c0.21,0.058,0.382,0.284,0.382,0.502v0.745c0,0.218,0.18,0.396,0.398,0.396h1.39
	c0.218,0,0.396-0.178,0.396-0.396V42.7c0-0.218,0.175-0.441,0.386-0.493l0.732-0.229c0.204-0.081,0.473,0.002,0.598,0.182
	l0.427,0.607c0.124,0.18,0.375,0.224,0.553,0.099l1.14-0.798c0.18-0.125,0.223-0.375,0.098-0.553l-0.426-0.609
	c-0.126-0.18-0.111-0.46,0.033-0.624l0.466-0.609c0.123-0.183,0.39-0.269,0.595-0.194l0.699,0.254
	c0.205,0.075,0.434-0.032,0.51-0.236l0.474-1.307c0.076-0.205-0.031-0.434-0.235-0.509l-0.699-0.254
	c-0.205-0.075-0.35-0.313-0.32-0.529C40.171,36.898,40.208,36.603,40.208,36.246z M34.054,40.773c-2.5,0-4.526-2.027-4.526-4.527
	s2.026-4.528,4.526-4.528s4.526,2.027,4.526,4.528C38.58,38.746,36.554,40.773,34.054,40.773z"/>
<path d="M39.095,19.977c0-0.145,0-0.145,0-0.145c-0.012-0.155,0.125-0.321,0.301-0.368l0.599-0.16
	c0.176-0.047,0.28-0.229,0.233-0.406l-0.299-1.116c-0.049-0.176-0.23-0.281-0.405-0.234l-0.599,0.161
	c-0.175,0.047-0.392-0.045-0.479-0.204l-0.344-0.539c-0.107-0.146-0.101-0.381,0.017-0.52l0.398-0.474
	c0.116-0.14,0.099-0.349-0.04-0.466l-0.888-0.743c-0.14-0.117-0.348-0.098-0.466,0.04l-0.396,0.475
	c-0.118,0.139-0.35,0.19-0.514,0.113l-1.017-0.369c-0.175-0.048-0.319-0.235-0.319-0.417v-0.62c0-0.183-0.147-0.331-0.33-0.331
	h-1.156c-0.184,0-0.33,0.148-0.33,0.331v0.62c0,0.181-0.146,0.365-0.321,0.41l-0.609,0.19c-0.169,0.065-0.393-0.001-0.497-0.151
	l-0.354-0.506c-0.104-0.149-0.312-0.185-0.461-0.082l-0.947,0.664c-0.146,0.104-0.186,0.313-0.081,0.46l0.356,0.508
	c0.104,0.148,0.091,0.382-0.029,0.519l-0.389,0.507c-0.102,0.151-0.324,0.224-0.493,0.162l-0.582-0.212
	c-0.171-0.062-0.362,0.027-0.424,0.197l-0.396,1.087c-0.063,0.171,0.027,0.361,0.198,0.423l0.581,0.212
	c0.172,0.062,0.292,0.261,0.268,0.44c0,0-0.031,0.246-0.031,0.543c0,0.143,0,0.143,0,0.143c0.012,0.156-0.123,0.321-0.3,0.369
	l-0.598,0.16c-0.176,0.047-0.28,0.23-0.233,0.406l0.299,1.117c0.048,0.176,0.229,0.28,0.404,0.234l0.597-0.161
	c0.177-0.047,0.391,0.044,0.479,0.203l0.343,0.539c0.107,0.146,0.102,0.381-0.017,0.52l-0.398,0.475
	c-0.115,0.139-0.099,0.349,0.041,0.465l0.887,0.743c0.141,0.117,0.35,0.099,0.466-0.04l0.398-0.474
	c0.115-0.14,0.347-0.191,0.513-0.114l1.016,0.369c0.176,0.047,0.319,0.235,0.319,0.417v0.62c0,0.182,0.146,0.331,0.33,0.331h1.156
	c0.183,0,0.33-0.149,0.33-0.331v-0.62c0-0.181,0.146-0.366,0.322-0.409l0.608-0.191c0.17-0.065,0.393,0.002,0.497,0.152l0.354,0.506
	c0.104,0.149,0.312,0.185,0.461,0.081l0.946-0.663c0.148-0.105,0.187-0.313,0.082-0.461l-0.355-0.507
	c-0.104-0.149-0.092-0.382,0.028-0.52l0.39-0.507c0.102-0.151,0.322-0.223,0.494-0.161l0.581,0.211
	c0.171,0.063,0.361-0.027,0.424-0.198l0.396-1.086c0.063-0.171-0.027-0.361-0.196-0.424l-0.583-0.211
	c-0.17-0.063-0.29-0.261-0.268-0.441C39.063,20.519,39.095,20.272,39.095,19.977z M33.973,23.745c-2.083,0-3.771-1.688-3.771-3.768
	c0-2.082,1.688-3.769,3.771-3.769c2.08,0,3.767,1.687,3.767,3.769C37.738,22.057,36.052,23.745,33.973,23.745z"/>
<path d="M48.225,27.197c0-0.121,0-0.121,0-0.121c-0.011-0.131,0.104-0.271,0.254-0.31l0.503-0.136
	c0.149-0.039,0.236-0.193,0.199-0.342l-0.253-0.942c-0.04-0.147-0.193-0.237-0.342-0.197l-0.505,0.134
	c-0.146,0.041-0.33-0.037-0.403-0.171l-0.289-0.454c-0.092-0.124-0.082-0.321,0.016-0.438l0.336-0.399
	c0.098-0.118,0.083-0.294-0.036-0.394L46.957,22.8c-0.116-0.098-0.294-0.083-0.392,0.035l-0.336,0.4
	c-0.101,0.118-0.294,0.16-0.434,0.096l-0.856-0.312c-0.147-0.04-0.271-0.198-0.271-0.352v-0.522c0-0.153-0.123-0.279-0.277-0.279
	h-0.977c-0.152,0-0.277,0.125-0.277,0.279v0.522c0,0.153-0.122,0.309-0.271,0.346l-0.516,0.161c-0.143,0.055-0.331-0.002-0.42-0.127
	l-0.301-0.428c-0.086-0.125-0.261-0.156-0.388-0.068l-0.799,0.56c-0.126,0.087-0.156,0.263-0.067,0.388l0.298,0.428
	c0.09,0.126,0.078,0.322-0.022,0.438l-0.327,0.427c-0.085,0.127-0.271,0.188-0.417,0.136l-0.491-0.179
	c-0.143-0.052-0.303,0.022-0.357,0.167l-0.333,0.917c-0.054,0.143,0.023,0.304,0.168,0.357l0.488,0.179
	c0.146,0.052,0.247,0.22,0.228,0.372c0,0-0.026,0.207-0.026,0.457c0,0.121,0,0.121,0,0.121c0.009,0.132-0.104,0.271-0.254,0.311
	l-0.506,0.135c-0.146,0.04-0.236,0.194-0.195,0.342l0.251,0.942c0.041,0.148,0.194,0.236,0.344,0.198l0.503-0.135
	c0.147-0.04,0.33,0.037,0.403,0.172l0.289,0.453c0.091,0.125,0.083,0.322-0.014,0.44l-0.335,0.399
	c-0.1,0.118-0.084,0.294,0.033,0.393l0.747,0.627c0.117,0.098,0.295,0.082,0.393-0.035l0.335-0.399
	c0.101-0.118,0.295-0.161,0.434-0.096l0.857,0.311c0.146,0.04,0.27,0.199,0.27,0.352v0.522c0,0.153,0.125,0.279,0.277,0.279h0.977
	c0.154,0,0.277-0.126,0.277-0.279v-0.522c0-0.153,0.123-0.31,0.271-0.346l0.514-0.161c0.145-0.056,0.333,0.002,0.42,0.127
	l0.299,0.427c0.09,0.126,0.265,0.156,0.392,0.069l0.799-0.559c0.124-0.089,0.156-0.264,0.067-0.389l-0.3-0.428
	c-0.087-0.125-0.077-0.322,0.023-0.438l0.328-0.427c0.084-0.128,0.271-0.188,0.417-0.136l0.49,0.178
	c0.144,0.054,0.305-0.022,0.355-0.167l0.336-0.917c0.052-0.144-0.022-0.305-0.168-0.358l-0.49-0.177
	c-0.145-0.054-0.245-0.221-0.226-0.373C48.197,27.655,48.225,27.447,48.225,27.197z M43.903,30.375
	c-1.756,0-3.178-1.422-3.178-3.178c0-1.755,1.422-3.178,3.178-3.178c1.755,0,3.178,1.422,3.178,3.178
	C47.081,28.953,45.658,30.375,43.903,30.375z"/>
<path d="M55.164,27.032C54.914,12.105,43.062,0,28.133,0c-0.188,0-0.367,0.023-0.555,0.028C27.396,0.023,27.218,0,27.037,0
	C12.106,0,0.253,12.105,0.003,27.032c-0.196,11.767,8.262,17.834,13.234,27.514c2.933,5.711,2.667,12.021,2.667,12.021
	c0,0.472,0.569,0.854,1.272,0.854l1.869-0.063c0.252-5.858-0.714-11.692-3.454-17.188C11.535,42.033,4.368,37.011,4.533,27.175
	C4.742,14.7,14.647,4.582,27.125,4.582c0.154,0,0.303,0.019,0.453,0.023c0.158-0.004,0.308-0.024,0.464-0.024
	c12.479,0,22.383,10.118,22.592,22.593c0.166,9.835-6.314,15.237-11.062,22.997c-2.738,4.479-3.372,11.06-3.494,17.25h1.911
	c0.702,0,1.271-0.383,1.271-0.854c0,0-0.268-6.31,2.668-12.021C46.901,44.865,55.361,38.799,55.164,27.032z"/>
<path d="M39.664,78.189c0,0.701-0.567,1.271-1.271,1.271H17.335c-0.703,0-1.272-0.569-1.272-1.271v-0.568
	c0-0.703,0.57-1.271,1.272-1.271h21.057c0.703,0,1.271,0.568,1.271,1.271L39.664,78.189L39.664,78.189z"/>
<path d="M39.664,72.781c0,0.703-0.567,1.273-1.271,1.273H17.335c-0.703,0-1.272-0.57-1.272-1.273v-0.568
	c0-0.703,0.57-1.271,1.272-1.271h21.057c0.703,0,1.271,0.568,1.271,1.271L39.664,72.781L39.664,72.781z"/>
<path d="M38.604,83.593c0,0.703-0.568,1.273-1.273,1.273H18.397c-0.702,0-1.271-0.57-1.271-1.273v-0.567
	c0-0.701,0.569-1.271,1.271-1.271h18.932c0.705,0,1.273,0.57,1.273,1.271L38.604,83.593L38.604,83.593z"/>
<path d="M35.85,89.001c0,0.701-0.568,1.271-1.272,1.271H21.151c-0.702,0-1.272-0.569-1.272-1.271v-0.567
	c0-0.703,0.57-1.271,1.272-1.271h13.425c0.704,0,1.272,0.568,1.272,1.271L35.85,89.001L35.85,89.001z"/>
</svg>
