<?xml version="1.0" encoding="utf-8"?>
<svg version="1.1"
	 xmlns="http://www.w3.org/2000/svg" xmlns:xlink="http://www.w3.org/1999/xlink"
	 x="0px" y="0px" width="48px" height="48px" viewBox="-2.368 -8.084 48 48">
<defs>
</defs>
<path fill="#3588A6" d="M43.166,18.862c0,1.833-1.486,3.321-3.32,3.321H3.321C1.486,22.184,0,20.695,0,18.862v-8.025
	c0-1.833,1.486-3.32,3.321-3.32h36.525c1.834,0,3.32,1.486,3.32,3.32V18.862z"/>
<path fill="#52CAF5" d="M43.166,14.711v-3.874c0-1.833-1.486-3.32-3.32-3.32H3.321C1.486,7.518,0,9.004,0,10.837v3.874H43.166z"/>
<text transform="matrix(1 0 0 1 3.2056 16.9258)" fill="#FFFFFF" font-family="'MyriadPro-Regular'" font-size="6.6409">POWERED BY</text>
<path fill="#F79523" d="M21.299,0C12.375,0,5.138,7.235,5.138,16.161c0,8.925,7.236,16.16,16.161,16.16
	c8.927,0,16.161-7.235,16.161-16.16C37.46,7.235,30.227,0,21.299,0z M9.987,16.161c0-2.404,0.755-4.629,2.034-6.464l14.03,16.722
	c-1.445,0.67-3.052,1.053-4.751,1.053C15.051,27.472,9.987,22.408,9.987,16.161z M30.059,23.317L15.774,6.294
	c1.635-0.918,3.517-1.446,5.525-1.446c6.249,0,11.312,5.064,11.312,11.313C32.611,18.878,31.653,21.368,30.059,23.317z"/>
<path fill="#C8691C" d="M21.299,0c-0.155,0-0.307,0.019-0.461,0.023v4.855c0.154-0.006,0.305-0.03,0.461-0.03
	c6.249,0,11.312,5.064,11.312,11.313c0,2.717-0.958,5.207-2.553,7.156l-9.22-10.988v7.876l5.212,6.214
	c-1.445,0.67-3.052,1.053-4.751,1.053c-0.155,0-0.307-0.017-0.461-0.022v4.849c0.154,0.006,0.306,0.023,0.461,0.023
	c8.927,0,16.161-7.235,16.161-16.16C37.46,7.235,30.227,0,21.299,0z"/>
</svg>
