<?xml version="1.0" encoding="utf-8"?>
<svg version="1.1"
	 xmlns="http://www.w3.org/2000/svg" xmlns:xlink="http://www.w3.org/1999/xlink"
	 x="0px" y="0px" width="48px" height="48px" viewBox="-3.492 -5.275 48 48">
<defs>
</defs>
<path fill="#F79523" d="M39.226,0H2.031C0.911,0,0,1.125,0,2.51v23.433c0,1.387,0.911,2.511,2.031,2.511h10.773l1.897,8.726
	l7.999-8.726h16.525c1.121,0,2.032-1.124,2.032-2.511V2.51C41.258,1.125,40.347,0,39.226,0z M38.509,23.926
	c0,1.118-0.735,2.023-1.639,2.023H21.08l-4.961,5.944l-1.023-5.957L4.389,25.95c-0.903,0-1.638-0.905-1.638-2.023V5.022
	c0-1.118,0.735-2.025,1.638-2.025H36.87c0.903,0,1.639,0.907,1.639,2.025V23.926z"/>
<path fill="#C8691C" d="M38.498,4.897c0.002,0.042,0.011,0.083,0.011,0.125v18.904c0,1.118-0.735,2.023-1.639,2.023H21.08
	l-4.961,5.944L15.11,26.02l-2.219,2.83l1.811,8.329l7.999-8.726h16.525c1.121,0,2.032-1.124,2.032-2.511V2.51
	c0-0.333-0.055-0.649-0.151-0.941L38.498,4.897z"/>
<path fill="#52CAF5" d="M9.881,5.97v1.897c-1.348,0.14-2.021,0.953-2.021,2.44v0.221h2.021v4.129H5.765v-3.833
	c0-1.963,0.363-3.264,1.09-3.9C7.583,6.289,8.591,5.97,9.881,5.97z M16.19,5.97v1.897c-1.348,0.14-2.021,0.953-2.021,2.44v0.221
	h2.021v4.129h-4.116v-3.833c0-1.963,0.364-3.264,1.091-3.9C13.892,6.289,14.9,5.97,16.19,5.97z"/>
<path fill="#3588A6" d="M33.9,13.714c0.728,0.637,1.09,1.937,1.09,3.9v3.831h-4.115v-4.126h2.021v-0.222
	c0-1.488-0.673-2.301-2.021-2.439v-1.898C32.165,12.759,33.174,13.078,33.9,13.714z M27.591,13.714
	c0.727,0.637,1.091,1.937,1.091,3.9v3.831h-4.116v-4.126h2.021v-0.222c0-1.488-0.673-2.301-2.021-2.439v-1.898
	C25.855,12.759,26.864,13.078,27.591,13.714z"/>
</svg>
