<?xml version="1.0" encoding="utf-8"?>
<!-- Generator: Adobe Illustrator 15.0.0, SVG Export Plug-In  -->
<!DOCTYPE svg PUBLIC "-//W3C//DTD SVG 1.1//EN" "http://www.w3.org/Graphics/SVG/1.1/DTD/svg11.dtd" [
	<!ENTITY ns_flows "http://ns.adobe.com/Flows/1.0/">
]>
<svg version="1.1"
	 xmlns="http://www.w3.org/2000/svg" x="0px" y="0px" width="48px" height="48px" viewBox="-2.417 -10.483 48 48"
	 xml:space="preserve">
<defs>
</defs>
<path d="M36.01,12.868c0-0.339-0.26-0.519-0.718-0.519c-0.226,0-0.352,0.014-0.431,0.027v1.042h0.332
	C35.73,13.419,36.01,13.199,36.01,12.868z"/>
<path d="M35.206,14.143h-0.345v1.261c0.1,0.014,0.219,0.014,0.391,0.014c0.459,0,0.863-0.18,0.863-0.651
	C36.115,14.321,35.711,14.143,35.206,14.143z"/>
<path d="M1.867,13.537c0-2.454,0.589-4.766,1.609-6.825H3.32C1.485,6.712,0,8.198,0,10.031v8.025c0,1.833,1.485,3.322,3.32,3.321
	h0.708C2.665,19.078,1.867,16.403,1.867,13.537z"/>
<path d="M39.846,6.712H31.08c1.021,2.06,1.609,4.371,1.609,6.825c0,2.866-0.797,5.541-2.161,7.841h9.317
	c1.834,0,3.32-1.488,3.32-3.321v-8.025C43.166,8.197,41.68,6.712,39.846,6.712z M36.713,15.762c-0.326,0.259-0.869,0.405-1.76,0.405
	c-0.497,0-0.869-0.033-1.095-0.066v-4.395c0.266-0.047,0.796-0.093,1.308-0.093c0.617,0,0.996,0.06,1.328,0.252
	c0.312,0.166,0.53,0.472,0.53,0.883c0,0.392-0.231,0.757-0.736,0.949v0.014c0.511,0.133,0.89,0.524,0.89,1.095
	C37.178,15.218,36.991,15.536,36.713,15.762z M39.688,14.255v1.865H38.68v-1.832l-1.414-2.642h1.161l0.452,1.075
	c0.139,0.325,0.238,0.564,0.345,0.856h0.013c0.1-0.279,0.206-0.538,0.339-0.856l0.451-1.075h1.136L39.688,14.255z"/>
<path d="M17.174,0C9.709,0,3.656,6.051,3.656,13.518c0,7.465,6.052,13.516,13.518,13.516c7.467,0,13.518-6.051,13.518-13.516
	C30.691,6.051,24.641,0,17.174,0z M7.712,13.518c0-2.012,0.632-3.872,1.701-5.406l11.734,13.985
	c-1.209,0.561-2.553,0.881-3.974,0.881C11.947,22.978,7.712,18.742,7.712,13.518z M24.5,19.502L12.552,5.265
	c1.368-0.769,2.942-1.21,4.622-1.21c5.226,0,9.461,4.236,9.461,9.463C26.635,15.79,25.832,17.872,24.5,19.502z"/>
</svg>
