<?xml version="1.0" encoding="utf-8"?>
<!-- Generator: Adobe Illustrator 15.0.0, SVG Export Plug-In  -->
<!DOCTYPE svg PUBLIC "-//W3C//DTD SVG 1.1//EN" "http://www.w3.org/Graphics/SVG/1.1/DTD/svg11.dtd" [
	<!ENTITY ns_flows "http://ns.adobe.com/Flows/1.0/">
]>
<svg version="1.1"
	 xmlns="http://www.w3.org/2000/svg" x="0px" y="0px" width="48px" height="48px" viewBox="-3.438 -3.438 48 48">
<defs>
</defs>
<path d="M20.561,0C9.206,0,0,9.207,0,20.562c0,11.354,9.206,20.561,20.561,20.561c11.354,0,20.563-9.207,20.563-20.561
	C41.125,9.207,31.916,0,20.561,0z M29.132,13.14c1.338,0,2.43,1.089,2.43,2.429c0,1.342-1.092,2.428-2.43,2.428
	c-1.344,0-2.43-1.085-2.43-2.428C26.703,14.229,27.789,13.14,29.132,13.14z M11.301,13.141c1.341,0,2.428,1.087,2.428,2.428
	c0,1.341-1.087,2.428-2.428,2.428c-1.341,0-2.428-1.087-2.428-2.428C8.873,14.228,9.96,13.141,11.301,13.141z M20.611,33.882
	c-7.302,0-11.543-6.213-11.72-6.478l1.661-1.113c0.038,0.057,3.842,5.591,10.059,5.591c6.57,0,10.557-5.552,10.598-5.606
	l1.637,1.146C32.662,27.686,28.244,33.882,20.611,33.882z"/>
</svg>
