<?xml version="1.0" encoding="utf-8"?>
<svg version="1.1"
	 xmlns="http://www.w3.org/2000/svg" x="0px" y="0px" width="48px" height="48px" viewBox="-3.372 -5.41 48 48">
<defs>
</defs>
<path d="M39.226,0H2.031C0.911,0,0,1.125,0,2.51v23.434c0,1.387,0.911,2.511,2.031,2.511h10.773l1.897,8.726l8-8.726h16.523
	c1.121,0,2.033-1.124,2.033-2.511V2.51C41.257,1.125,40.347,0,39.226,0z M38.509,23.926c0,1.118-0.736,2.023-1.639,2.023H21.08
	l-4.961,5.943l-1.023-5.957L4.389,25.95c-0.903,0-1.638-0.905-1.638-2.023V5.022c0-1.118,0.735-2.025,1.638-2.025h32.481
	c0.902,0,1.639,0.907,1.639,2.025V23.926z"/>
<path d="M9.881,5.97v1.897C8.533,8.007,7.86,8.82,7.86,10.307v0.221h2.021v4.129H5.765v-3.833c0-1.963,0.363-3.264,1.09-3.9
	C7.583,6.289,8.591,5.97,9.881,5.97z M16.19,5.97v1.897c-1.348,0.14-2.021,0.953-2.021,2.44v0.221h2.021v4.129h-4.116v-3.833
	c0-1.963,0.364-3.264,1.091-3.9C13.892,6.289,14.9,5.97,16.19,5.97z"/>
<path d="M33.9,13.714c0.729,0.637,1.09,1.937,1.09,3.9v3.831h-4.115v-4.126h2.021v-0.222c0-1.488-0.674-2.301-2.021-2.439V12.76
	C32.166,12.759,33.173,13.078,33.9,13.714z M27.591,13.714c0.727,0.637,1.09,1.937,1.09,3.9v3.831h-4.115v-4.126h2.021v-0.222
	c0-1.488-0.674-2.301-2.021-2.439V12.76C25.855,12.759,26.863,13.078,27.591,13.714z"/>
</svg>
