<?xml version="1.0" encoding="utf-8"?>
<!-- Generator: Adobe Illustrator 15.0.0, SVG Export Plug-In  -->
<!DOCTYPE svg PUBLIC "-//W3C//DTD SVG 1.1//EN" "http://www.w3.org/Graphics/SVG/1.1/DTD/svg11.dtd" [
	<!ENTITY ns_flows "http://ns.adobe.com/Flows/1.0/">
]>
<svg version="1.1"
	 xmlns="http://www.w3.org/2000/svg" x="0px" y="0px" width="48px" height="48px" viewBox="-2.345 -3.958 48 48">
<defs>
</defs>
<path d="M36.204,0H6.277C4.955,0,3.884,1.071,3.884,2.395v10.024c0,1.322,1.071,2.395,2.394,2.395h3.674l5.153,3.964l-1.639-3.964
	h15.4l-1.64,3.964l5.154-3.964h3.824c1.32,0,2.395-1.072,2.395-2.395V2.395C38.598,1.071,37.525,0,36.204,0z M35.316,13.396H7.21
	c-1.083,0-1.961-0.879-1.961-1.962L5.205,3.38c0-1.084,0.878-1.962,1.961-1.962h28.107c1.082,0,1.959,0.878,1.959,1.962l0.043,8.054
	C37.275,12.517,36.4,13.396,35.316,13.396z"/>
<ellipse cx="31.876" cy="26.172" rx="5.494" ry="5.779"/>
<path d="M18.09,31.79c0.026,0.082,0.045,0.166,0.045,0.252c0,1.211-2.893,2.195-6.463,2.195c-3.57,0-6.464-0.984-6.464-2.195
	c0-0.086,0.018-0.17,0.047-0.252C2.456,33.614,0.476,36.592,0,40.055h23.343C22.867,36.592,20.888,33.614,18.09,31.79z"/>
<ellipse cx="11.671" cy="25.856" rx="5.609" ry="5.898"/>
<path d="M25.527,39.999l0.75,0.084h17.033c-0.467-3.391-2.406-6.309-5.147-8.098c0.026,0.082,0.045,0.164,0.045,0.248
	c0,1.188-2.835,2.15-6.332,2.15s-6.333-0.963-6.333-2.15c0-0.084,0.018-0.166,0.046-0.248c-0.927,0.605-1.752,1.348-2.471,2.186
	C24.476,35.811,25.261,38.059,25.527,39.999z"/>
</svg>
