<?xml version="1.0" encoding="utf-8"?>
<!-- Generator: Adobe Illustrator 15.0.0, SVG Export Plug-In  -->
<!DOCTYPE svg PUBLIC "-//W3C//DTD SVG 1.1//EN" "http://www.w3.org/Graphics/SVG/1.1/DTD/svg11.dtd" [
	<!ENTITY ns_flows "http://ns.adobe.com/Flows/1.0/">
]>
<svg version="1.1"
	 xmlns="http://www.w3.org/2000/svg" xmlns:xlink="http://www.w3.org/1999/xlink" xmlns:a="http://ns.adobe.com/AdobeSVGViewerExtensions/3.0/"
	 x="0px" y="0px" width="48px" height="48px" viewBox="-3.104 -3.734 48 48"
	 xml:space="preserve">
<defs>
</defs>
<path d="M39.486,1.621H28.854c1.909,1.986,3.089,4.678,3.089,7.65c0,3.182-1.354,6.04-3.506,8.057
	c-0.033,0.031-0.068,0.063-0.104,0.094c-0.283,0.258-0.578,0.502-0.887,0.729c-0.049,0.036-0.096,0.073-0.145,0.108
	c-0.695,0.497-1.449,0.917-2.252,1.243c-0.071,0.029-0.146,0.053-0.217,0.08c-0.318,0.121-0.643,0.229-0.975,0.321
	c-0.119,0.033-0.239,0.063-0.359,0.093c-0.31,0.074-0.623,0.135-0.941,0.183c-0.115,0.018-0.23,0.039-0.348,0.054
	c-0.432,0.051-0.869,0.085-1.314,0.085c-3.432,0-6.499-1.565-8.524-4.021c-1.321-1.601-2.194-3.581-2.443-5.752
	C9.88,10.127,9.85,9.703,9.85,9.271c0-0.379,0.02-0.754,0.057-1.123c0.013-0.132,0.041-0.259,0.059-0.39
	c0.033-0.235,0.061-0.472,0.107-0.701c0.03-0.146,0.074-0.287,0.109-0.432c0.051-0.208,0.097-0.419,0.16-0.622
	c0.046-0.149,0.106-0.292,0.159-0.438c0.068-0.191,0.131-0.386,0.209-0.571c0.061-0.146,0.135-0.283,0.202-0.426
	c0.085-0.18,0.165-0.362,0.259-0.537c0.075-0.139,0.163-0.27,0.243-0.405c0.101-0.168,0.196-0.339,0.305-0.501
	c0.089-0.134,0.19-0.258,0.285-0.387c0.114-0.155,0.224-0.313,0.345-0.462c0.101-0.123,0.212-0.237,0.318-0.355
	c0.09-0.101,0.181-0.2,0.272-0.3H2.306C1.032,1.621,0,2.654,0,3.928v34.298c0,1.272,1.032,2.306,2.306,2.306h37.18
	c1.273,0,2.306-1.033,2.306-2.306h0.001V3.928C41.793,2.653,40.76,1.621,39.486,1.621z M36.46,35.375H5.333V33.07H36.46V35.375z
	 M36.46,27.947H5.333v-2.305H36.46V27.947z"/>
<path d="M17.729,5.986c-0.16,0.416-0.253,0.869-0.253,1.346c0,1.987,1.532,3.598,3.421,3.598c1.89,0,3.421-1.61,3.421-3.598
	c0-0.444-0.087-0.864-0.227-1.257h0.041l0.625-3.128l-1.34,0.716l-1.517-1.161L20.74,0l-1.072,2.412l-1.519,1.162l-1.428-0.447
	l0.803,2.856L17.729,5.986z"/>
<path d="M24.811,10.95c0.018,0.052,0.027,0.103,0.027,0.155c0,0.739-1.764,1.34-3.941,1.34c-2.176,0-3.942-0.601-3.942-1.34
	c0-0.053,0.011-0.104,0.028-0.155c-1.707,1.114-2.915,2.931-3.204,5.042h14.236C27.726,13.881,26.518,12.064,24.811,10.95z"/>
</svg>
