<?xml version="1.0" encoding="utf-8"?>
<svg version="1.1"
	 xmlns="http://www.w3.org/2000/svg" x="0px" y="0px" width="48px" height="48px" viewBox="-1.489 -8.021 48 48">
<defs>
</defs>
<path d="M34.787,5.686c0,3.141-2.415,5.686-5.406,5.686c-2.989,0-5.408-2.544-5.408-5.686C23.972,2.546,26.391,0,29.38,0
	C32.372,0,34.787,2.546,34.787,5.686z"/>
<path d="M33.696,13.171c-1.123,0.367-2.639,0.594-4.315,0.594c-3.442,0-6.232-0.947-6.232-2.117c0-0.082,0.019-0.162,0.046-0.244
	c-2.7,1.76-4.607,4.633-5.066,7.97h20.038L33.696,13.171z"/>
<path d="M44.765,15.19l-4.599-6.387c-0.415-0.573-1.19-0.724-1.787-0.378c0.122,0.522-0.067,1.09-0.53,1.421l-0.479,0.345
	c-0.462,0.333-1.061,0.333-1.518,0.053c-0.519,0.458-0.619,1.241-0.205,1.813l4.602,6.388c0.439,0.61,1.291,0.748,1.902,0.311
	l2.305-1.66C45.066,16.654,45.207,15.802,44.765,15.19z"/>
<path d="M16.659,18.159c0,3.142-2.417,5.688-5.406,5.688c-2.989,0-5.409-2.547-5.409-5.688c0-3.138,2.419-5.686,5.409-5.686
	C14.242,12.474,16.659,15.021,16.659,18.159z"/>
<path d="M16.01,25.479c-1.144,0.459-2.837,0.763-4.757,0.763c-3.442,0-6.233-0.947-6.233-2.118c0-0.082,0.018-0.161,0.044-0.242
	C2.367,25.641,0.459,28.51,0,31.852h20.603L16.01,25.479z"/>
<path d="M27.125,28.138l-4.6-6.389c-0.412-0.571-1.187-0.724-1.786-0.377c0.124,0.521-0.067,1.091-0.529,1.422l-0.48,0.345
	c-0.46,0.333-1.059,0.334-1.516,0.055c-0.518,0.457-0.62,1.239-0.206,1.813l4.599,6.387c0.439,0.609,1.294,0.749,1.904,0.311
	l2.305-1.66C27.428,29.603,27.569,28.75,27.125,28.138z"/>
</svg>
