<?xml version="1.0" encoding="utf-8"?>
<!DOCTYPE svg PUBLIC "-//W3C//DTD SVG 1.1//EN" "http://www.w3.org/Graphics/SVG/1.1/DTD/svg11.dtd" [
	<!ENTITY ns_flows "http://ns.adobe.com/Flows/1.0/">
]>
<svg version="1.1"
	 xmlns="http://www.w3.org/2000/svg" x="0px" y="0px" width="48px" height="48px" viewBox="-2.47 -2.47 48 48">
<defs>
</defs>
<path d="M21.53,0C9.639,0,0,9.639,0,21.53c0,11.891,9.639,21.53,21.53,21.53c11.891,0,21.531-9.64,21.531-21.53
	C43.061,9.639,33.421,0,21.53,0z M34.178,34.17c-3.171,3.302-7.807,5.275-12.397,5.275l-0.259-0.002
	c-4.706-0.004-9.3-1.941-12.596-5.316c-1.671-1.713-2.971-3.654-3.864-5.771c-0.899-2.129-1.38-4.487-1.393-6.821
	c-0.06-4.743,1.822-9.375,5.163-12.704c3.298-3.356,7.876-5.283,12.557-5.283l0.149,0c2.408,0.009,4.785,0.489,6.873,1.39
	c2.139,0.914,4.134,2.281,5.767,3.953c3.276,3.332,5.136,7.94,5.102,12.644C39.312,26.216,37.452,30.824,34.178,34.17z"/>
<path d="M36.867,15.127c-0.85-1.976-2.119-3.823-3.673-5.344c-3.075-3.021-7.332-4.754-11.68-4.754h-0.067
	c-4.337,0-8.577,1.752-11.631,4.807c-3.124,3.078-4.919,7.327-4.928,11.66C4.85,25.885,6.653,30.277,9.711,33.25
	c3.058,3.04,7.273,4.781,11.569,4.781l0.188-0.001c4.339-0.022,8.612-1.78,11.726-4.822c1.552-1.51,2.823-3.356,3.678-5.342
	c0.839-1.956,1.289-4.159,1.301-6.372C38.158,19.285,37.707,17.081,36.867,15.127z M27.713,24.781l1.459,8.504l-7.638-4.014
	l-7.641,4.014l1.459-8.504L9.17,18.756l8.543-1.24l3.821-7.74l3.818,7.74l8.538,1.24L27.713,24.781z"/>
</svg>
