<?xml version="1.0" encoding="utf-8"?>
<!-- Generator: Adobe Illustrator 15.0.0, SVG Export Plug-In  -->
<!DOCTYPE svg PUBLIC "-//W3C//DTD SVG 1.1//EN" "http://www.w3.org/Graphics/SVG/1.1/DTD/svg11.dtd" [
	<!ENTITY ns_flows "http://ns.adobe.com/Flows/1.0/">
]>
<svg version="1.1"
	 xmlns="http://www.w3.org/2000/svg" x="0px" y="0px" width="48px" height="48px" viewBox="-2.756 -0.929 48 48"
	 xml:space="preserve">
<defs>
</defs>
<path d="M22.246,25.973c0.777,2.808,0.595,5.872-0.68,8.628l2.669,1.978h18.253c-0.866-6.301-4.467-11.727-9.565-15.044
	c0.052,0.15,0.084,0.304,0.084,0.458C33.007,24.083,28.271,25.8,22.246,25.973z"/>
<path d="M26.41,43.131l-4.897-4.648c-0.422-0.4-0.989-0.543-1.521-0.447l-2.738-2.617c-0.088-0.076-0.188-0.123-0.286-0.17
	c2.967-3.877,2.511-9.441-1.179-12.766c-3.883-3.496-9.862-3.184-13.359,0.698c-3.497,3.882-3.183,9.863,0.699,13.357
	c3.514,3.166,8.744,3.197,12.295,0.299c0.066,0.121,0.141,0.236,0.249,0.334l2.912,2.783c0.047,0.391,0.217,0.77,0.524,1.063
	l4.899,4.648c0.7,0.664,1.805,0.633,2.469-0.064C27.138,44.898,27.112,43.791,26.41,43.131z M13.956,33.561
	c-2.236,2.486-6.066,2.684-8.551,0.449c-2.484-2.238-2.683-6.068-0.446-8.551c2.236-2.484,6.065-2.684,8.55-0.447
	C15.991,27.25,16.192,31.076,13.956,33.561z"/>
<path d="M17.349,19.025c0.963,0.67,1.802,1.459,2.516,2.332c0.454,0.065,0.913,0.11,1.384,0.11c5.635,0,10.203-4.8,10.203-10.734
	C31.451,4.806,26.882,0,21.248,0c-5.645,0-10.213,4.806-10.212,10.733c0,2.389,0.75,4.587,2.002,6.369
	C14.572,17.46,16.031,18.108,17.349,19.025z"/>
</svg>
