<?xml version="1.0" encoding="utf-8"?>
<!-- Generator: Adobe Illustrator 15.0.0, SVG Export Plug-In  -->
<!DOCTYPE svg PUBLIC "-//W3C//DTD SVG 1.1//EN" "http://www.w3.org/Graphics/SVG/1.1/DTD/svg11.dtd" [
	<!ENTITY ns_flows "http://ns.adobe.com/Flows/1.0/">
]>
<svg version="1.1"
	 xmlns="http://www.w3.org/2000/svg" x="0px" y="0px" width="48px" height="48px" viewBox="-2.249 -2.399 48 48">
<defs>
</defs>
<ellipse cx="24.109" cy="17.653" rx="7.71" ry="8.109"/>
<path d="M28.016,31.579l-2.506-2.441c-0.458,0.024-0.924,0.041-1.403,0.041c-4.907,0-8.885-1.354-8.885-3.021
	c0-0.118,0.025-0.233,0.064-0.349c-3.847,2.51-6.57,6.604-7.223,11.362h18.993L28.016,31.579z"/>
<path d="M42.253,26.636l-5.828-0.85l-2.607-5.282l-2.609,5.282l-5.829,0.85l4.219,4.11l-0.997,5.808l5.217-2.744l5.212,2.744
	l-0.996-5.808L42.253,26.636z M32.543,32.639l-1.817-2.005l0.907-1.638l1.094,1.823l2.913-3.827l1.097,0.367L32.543,32.639z"/>
<path d="M14.995,20.688c0,1.31-1.061,2.37-2.369,2.37H6.329c-1.309,0-2.37-1.061-2.37-2.37V6.646c0-1.308,1.061-2.369,2.37-2.369
	h6.297c1.309,0,2.369,1.061,2.369,2.369V20.688z"/>
<path d="M41.868,29.384v8.722h0.001c0,2.691-2.183,3.791-4.873,3.791H5.424c-2.692,0-3.791-2.183-3.791-4.873V6.176
	c0-2.691,1.099-4.874,3.791-4.874h31.571c2.691,0,4.873,0.908,4.873,3.599v20.508l1.634,0.238V6.307C43.564,1.604,42.04,0,38.087,0
	H5.415C1.806,0,0,2.424,0,5.415v32.371c0,2.99,1.687,5.489,5.415,5.415h32.672c3.758,0.074,5.414-2.425,5.414-5.415v-9.992
	L41.868,29.384z"/>
</svg>
