<?xml version="1.0" encoding="utf-8"?>
<!DOCTYPE svg PUBLIC "-//W3C//DTD SVG 1.1//EN" "http://www.w3.org/Graphics/SVG/1.1/DTD/svg11.dtd" [
	<!ENTITY ns_flows "http://ns.adobe.com/Flows/1.0/">
]>
<svg version="1.1"
	 xmlns="http://www.w3.org/2000/svg" x="0px" y="0px" width="48px" height="48px" viewBox="-3.088 -7.939 48 48">
<defs>
</defs>
<path d="M41.137,28.022L23.807,1.696c-1.481-2.253-3.926-2.263-5.427-0.022L0.705,28.047c-1.502,2.24-0.524,4.074,2.174,4.074
	h36.049C41.625,32.121,42.618,30.276,41.137,28.022z M21.453,29.239c-1.14,0-2.063-0.924-2.063-2.063s0.923-2.063,2.063-2.063
	c1.139,0,2.063,0.924,2.063,2.063S22.592,29.239,21.453,29.239z M21.633,23.74c0,0-6.263-16.808-0.152-16.808
	C27.286,6.933,21.633,23.74,21.633,23.74z"/>
</svg>
