<?xml version="1.0" encoding="utf-8"?>
<!DOCTYPE svg PUBLIC "-//W3C//DTD SVG 1.1//EN" "http://www.w3.org/Graphics/SVG/1.1/DTD/svg11.dtd" [
	<!ENTITY ns_flows "http://ns.adobe.com/Flows/1.0/">
]>
<svg version="1.1"
	 xmlns="http://www.w3.org/2000/svg" xmlns:xlink="http://www.w3.org/1999/xlink" x="0px" y="0px" width="48px" height="48px" viewBox="-0.939 -3.529 48 48">
<defs>
</defs>
<path d="M32.742,0C25.357,0,19.37,5.989,19.37,13.376c0,7.388,5.987,13.377,13.372,13.377c7.389,0,13.379-5.989,13.379-13.377
	C46.121,5.989,40.131,0,32.742,0z M24.488,4.213l1.211-0.951l6.143,6.228l-0.605,1.731l-1.99,0.259L24.488,4.213z M34.027,23.406
	h-1.25l-1.021-6.82l1.473-1.124l1.471,1.038L34.027,23.406z M32.828,15.375c-1.285,0-2.332-1.044-2.332-2.335
	c0-1.288,1.047-2.337,2.332-2.337c1.291,0,2.34,1.049,2.34,2.337C35.168,14.331,34.119,15.375,32.828,15.375z"/>
<path d="M32.741,30.097c-4.498,0-8.568-1.787-11.568-4.681l-10.419-6.228L0,26.529v11.164c0,1.795,1.496,3.248,3.339,3.248H37.84
	c1.844,0,3.338-1.453,3.338-3.248v-9.897C38.699,29.249,35.822,30.097,32.741,30.097z"/>
<path d="M10.97,15.088l6.585,5.245c-0.973-2.12-1.529-4.471-1.529-6.957c0-3.901,1.347-7.481,3.585-10.326H3.339
	C1.496,3.05,0,4.504,0,6.297v16.295l0.02-0.139L10.97,15.088z M8.752,5.021c2.188,0,3.963,1.774,3.963,3.963
	s-1.774,3.965-3.963,3.965c-2.19,0-3.966-1.775-3.966-3.965S6.561,5.021,8.752,5.021z"/>
<path d="M30.767,29.97c-0.375-0.044-0.745-0.102-1.112-0.17C30.021,29.869,30.392,29.926,30.767,29.97z"/>
<path d="M29.234,29.722c-0.47-0.101-0.934-0.218-1.389-0.357C28.301,29.504,28.765,29.621,29.234,29.722z"/>
</svg>
