<?xml version="1.0" encoding="utf-8"?>
<svg version="1.1"
	 xmlns="http://www.w3.org/2000/svg" xmlns:xlink="http://www.w3.org/1999/xlink"
	 x="0px" y="0px" width="28px" height="28px" viewBox="-1.9 -1.2 28 28">
<defs>
</defs>
<path fill="#C8691C" d="M24,24.9c-0.5-0.4-1-0.5-1.2-0.5c0.6-0.6,0.9-1.3,0.9-2.2v-6.9c0-1.7-1.4-3.1-3.1-3.1H3.9
	c-1.7,0-3.1,1.4-3.1,3.1v6.9c0,0.9,0.3,1.6,0.9,2.2H1.5c0,0-0.5,0-1.1,0.6S0,26,0,26l24.4,0C24.4,26,24.5,25.5,24,24.9z"/>
<path fill="#F79523" d="M9.1,12.2H3.9c-1.7,0-3.1,1.4-3.1,3.1v6.9c0,0.9,0.3,1.6,0.9,2.2H1.5c0,0-0.5,0-1.1,0.6S0,26,0,26l16.1,0
	L9.1,12.2z"/>
<path fill="#F79523" d="M12.3,4.4c-1.4,0.3-1.6-1.8-0.9-2.5s1.1-0.6,0.7-1.8c0,0,1.1,1.5,1.1,1.9C13.3,2.4,13.6,4.1,12.3,4.4z"/>
<path fill="#52CAF5" d="M23.6,11.5c0-0.1,0-0.1,0-0.2c0-0.6-0.5-1.2-1.2-1.2h-9V4.9H11v5.3H2c-0.6,0-1.2,0.5-1.2,1.2c0,0,0,0,0,0.1
	c-0.3,0.4-0.5,0.8-0.5,1.3c0,1.3,1.4,2.4,3.1,2.4c1.4,0,2.5-0.7,2.9-1.6c0.4,1,1.5,1.8,3,1.8c1.4,0,2.5-0.7,2.9-1.7
	c0.4,1,1.5,1.7,2.9,1.7c1.3,0,2.5-0.7,2.9-1.6c0.4,0.9,1.6,1.6,2.9,1.6c1.7,0,3.1-1.1,3.1-2.4C24.1,12.4,23.9,11.9,23.6,11.5z"/>
<path fill="#3588A6" d="M23.6,11.5c0-0.1,0-0.1,0-0.2c0-0.6-0.5-1.2-1.2-1.2h-9V4.9H11v5.3H8.1l2.5,4.8c0.8-0.3,1.4-0.8,1.7-1.5
	c0.4,1,1.5,1.7,2.9,1.7c1.3,0,2.5-0.7,2.9-1.6c0.4,0.9,1.6,1.6,2.9,1.6c1.7,0,3.1-1.1,3.1-2.4C24.1,12.4,23.9,11.9,23.6,11.5z"/>
<path fill="#FFFFFF" d="M21,19.4c-1.2,0-2.3-0.6-2.8-1.4L18,18c-0.5,0.8-1.5,1.4-2.8,1.4c-1.3,0-2.4-0.6-2.8-1.5l-0.3,0
	c-0.5,0.8-1.5,1.4-2.8,1.4c-1.3,0-2.4-0.6-2.8-1.5l-0.3,0c-0.5,0.8-1.5,1.3-2.7,1.3c-1.2,0-2.3-0.6-2.8-1.4c0,0,0,1,0.1,1.2
	c0.5,0.7,1.5,1.2,2.7,1.2c1.4,0,2.5-0.7,2.9-1.6c0.4,1,1.5,1.8,3,1.8c1.4,0,2.5-0.7,2.9-1.7c0.4,1,1.5,1.7,2.9,1.7
	c1.3,0,2.5-0.7,2.9-1.6c0.4,0.9,1.6,1.6,2.9,1.6c1.2,0,2.3-0.4,2.7-1.2c0.1-0.1,0.1-1.2,0.1-1.2C23.2,18.8,22.2,19.4,21,19.4z"/>
</svg>
