<?xml version="1.0" encoding="utf-8"?>
<svg version="1.1"
	 xmlns="http://www.w3.org/2000/svg" xmlns:xlink="http://www.w3.org/1999/xlink"
	 x="0px" y="0px" width="40px" height="40px" viewBox="-2.707 -1.931 40 40">
<defs>
</defs>
<path fill="#F79523" d="M35.385,17.693c0,9.766-7.922,17.693-17.693,17.693C7.92,35.386,0,27.458,0,17.693C0,7.917,7.92,0,17.691,0
	C27.463,0,35.385,7.917,35.385,17.693z"/>
<path fill="#C8691C" d="M0,17.693c0,9.766,7.92,17.693,17.691,17.693c9.771,0,17.693-7.928,17.693-17.693
	C35.458,17.668-0.025,17.613,0,17.693z"/>
<path fill="#52CAF5" d="M30.075,17.693c0,6.839-5.544,12.383-12.384,12.383c-6.842,0-12.383-5.544-12.383-12.383
	c0-6.843,5.542-12.388,12.383-12.388C24.531,5.305,30.075,10.85,30.075,17.693z"/>
<path fill="#55A8C6" d="M5.308,17.693c0,6.839,5.542,12.383,12.383,12.383c6.84,0,12.384-5.544,12.384-12.383
	C30.149,17.668,5.284,17.668,5.308,17.693z"/>
<polygon fill="#FFFFFF" points="15.19,25.959 15.188,9.675 23.331,17.817 "/>
<polygon fill="#BCBEC0" points="15.19,25.959 15.189,17.725 23.331,17.817 "/>
</svg>
