<?xml version="1.0" encoding="utf-8"?>
<!-- Generator: Adobe Illustrator 15.0.0, SVG Export Plug-In  -->
<!DOCTYPE svg PUBLIC "-//W3C//DTD SVG 1.1//EN" "http://www.w3.org/Graphics/SVG/1.1/DTD/svg11.dtd" [
	<!ENTITY ns_flows "http://ns.adobe.com/Flows/1.0/">
]>
<svg version="1.1"
	 xmlns="http://www.w3.org/2000/svg" xmlns:xlink="http://www.w3.org/1999/xlink" xmlns:a="http://ns.adobe.com/AdobeSVGViewerExtensions/3.0/"
	 x="0px" y="0px" width="150px" height="160px" viewBox="-7.686 -12.686 150 160" enable-background="new -7.686 -12.686 150 160"
	 xml:space="preserve">
<defs>
</defs>
<path fill="#C8691C" d="M67.314,0C30.138,0,0,30.138,0,67.314c0,37.183,30.138,67.314,67.314,67.314
	c37.18,0,67.314-30.132,67.314-67.314C134.629,30.138,104.494,0,67.314,0z M67.314,125.473c-32.12,0-58.159-26.034-58.159-58.158
	c0-32.12,26.039-58.159,58.159-58.159c32.124,0,58.158,26.039,58.158,58.159C125.473,99.438,99.438,125.473,67.314,125.473z"/>
<circle fill="#3588A6" cx="67.314" cy="67.314" r="47.413"/>
<path fill="#D1D3D4" d="M63.318,80.823l-0.193-2.511c-0.58-5.124,1.161-10.923,5.993-16.721c4.35-5.122,6.765-8.892,6.765-13.242
	c0-4.929-3.091-8.215-9.181-8.311c-3.478,0-7.346,1.159-9.762,2.996l-2.317-6.088c3.284-2.32,8.696-3.868,13.82-3.868
	c11.115,0,16.142,6.863,16.142,14.209c0,6.572-3.676,11.307-8.314,16.815c-4.251,5.027-5.798,9.375-5.507,14.304l0.194,2.416H63.318
	z M61.289,94.452c0-3.575,2.416-6.09,5.705-6.09c3.478,0,5.7,2.515,5.7,6.09c0,3.381-2.223,5.993-5.799,5.993
	C63.61,100.445,61.289,97.833,61.289,94.452z"/>
<path fill="#52CAF5" d="M50.165,23.149c-17.698,6.879-30.264,24.037-30.264,44.165c0,26.186,21.228,47.413,47.414,47.413
	c8.674,0,16.776-2.366,23.772-6.434c0.361-3.263,0.563-6.572,0.563-9.931C91.65,66.694,75.086,38.911,50.165,23.149z"/>
<path fill="#F79523" d="M67.314,125.473c-32.12,0-58.159-26.034-58.159-58.158c0-21.587,11.789-40.385,29.255-50.421
	c-3.469-1.522-7.049-2.826-10.732-3.901C10.927,25.237,0,44.977,0,67.314c0,37.183,30.138,67.314,67.314,67.314
	c6.12,0,12.017-0.888,17.652-2.416c1.442-3.5,2.665-7.113,3.658-10.824C82.02,123.995,74.847,125.473,67.314,125.473z"/>
<path fill="#FFFFFF" d="M66.702,40.039c1.357,0.021,2.541,0.225,3.599,0.545c-2.114-2.471-4.36-4.824-6.728-7.05
	c-3.461,0.617-6.706,1.826-8.951,3.412l2.317,6.088C59.355,41.198,63.224,40.039,66.702,40.039z"/>
<path fill="#FFFFFF" d="M72.694,94.452c0-3.575-2.223-6.09-5.7-6.09c-3.29,0-5.705,2.515-5.705,6.09
	c0,3.381,2.321,5.993,5.606,5.993C70.472,100.445,72.694,97.833,72.694,94.452z"/>
<path fill="#FFFFFF" d="M81.521,57.146c-1.707-3.254-3.604-6.393-5.687-9.396c0.011,0.202,0.049,0.391,0.049,0.599
	c0,4.35-2.415,8.12-6.765,13.242c-4.832,5.798-6.573,11.597-5.993,16.721l0.193,2.511h7.639l-0.194-2.416
	c-0.291-4.93,1.256-9.277,5.507-14.304C78.282,61.713,80.092,59.46,81.521,57.146z"/>
</svg>
