<?xml version="1.0" encoding="utf-8"?>
<svg version="1.1"
	 xmlns="http://www.w3.org/2000/svg" xmlns:xlink="http://www.w3.org/1999/xlink"
	 x="0px" y="0px" width="48px" height="48px" viewBox="0 0 48 48">
<defs>
</defs>

<path fill="#C8691C" d="M24,2.943C12.371,2.943,2.943,12.371,2.943,24c0,11.631,9.428,21.057,21.057,21.057
	c11.63,0,21.057-9.426,21.057-21.057C45.057,12.371,35.63,2.943,24,2.943z M24,42.192C13.953,42.192,5.808,34.049,5.808,24
	C5.808,13.953,13.953,5.808,24,5.808c10.049,0,18.192,8.145,18.192,18.192C42.192,34.049,34.049,42.192,24,42.192z"/>
<circle fill="#3588A6" cx="24" cy="24" r="14.831"/>
<path fill="#D1D3D4" d="M22.75,28.226l-0.061-0.785c-0.182-1.603,0.363-3.417,1.875-5.231c1.361-1.602,2.117-2.781,2.117-4.142
	c0-1.542-0.967-2.569-2.873-2.6c-1.088,0-2.298,0.363-3.054,0.937L20.03,14.5c1.027-0.726,2.72-1.209,4.323-1.209
	c3.478,0,5.049,2.146,5.049,4.444c0,2.056-1.149,3.537-2.6,5.26c-1.33,1.572-1.814,2.932-1.723,4.474l0.061,0.756H22.75z
	 M22.115,32.489c0-1.119,0.756-1.905,1.784-1.905c1.088,0,1.783,0.786,1.783,1.905c0,1.057-0.695,1.874-1.814,1.874
	C22.841,34.363,22.115,33.546,22.115,32.489z"/>
<path fill="#52CAF5" d="M18.636,10.185C13.1,12.337,9.169,17.704,9.169,24c0,8.19,6.64,14.831,14.831,14.831
	c2.713,0,5.248-0.74,7.437-2.013c0.112-1.021,0.176-2.056,0.176-3.105C31.612,23.806,26.432,15.115,18.636,10.185z"/>
<path fill="#F79523" d="M24,42.192C13.953,42.192,5.808,34.049,5.808,24c0-6.753,3.688-12.633,9.151-15.772
	c-1.085-0.477-2.205-0.884-3.357-1.22C6.362,10.838,2.943,17.013,2.943,24c0,11.631,9.428,21.057,21.057,21.057
	c1.914,0,3.759-0.278,5.521-0.756c0.451-1.096,0.834-2.226,1.145-3.386C28.6,41.73,26.356,42.192,24,42.192z"/>
<path fill="#FFFFFF" d="M23.808,15.468c0.425,0.007,0.795,0.07,1.126,0.171c-0.661-0.773-1.364-1.509-2.104-2.206
	c-1.083,0.193-2.098,0.571-2.8,1.067l0.725,1.904C21.51,15.831,22.72,15.468,23.808,15.468z"/>
<path fill="#FFFFFF" d="M25.683,32.489c0-1.119-0.695-1.905-1.783-1.905c-1.028,0-1.784,0.786-1.784,1.905
	c0,1.057,0.726,1.874,1.753,1.874C24.987,34.363,25.683,33.546,25.683,32.489z"/>
<path fill="#FFFFFF" d="M28.444,20.819c-0.534-1.019-1.128-2-1.779-2.939c0.003,0.063,0.016,0.122,0.016,0.187
	c0,1.361-0.756,2.54-2.117,4.142c-1.511,1.814-2.056,3.628-1.875,5.231l0.061,0.785h2.39l-0.061-0.756
	c-0.092-1.542,0.393-2.902,1.723-4.474C27.431,22.248,27.997,21.543,28.444,20.819z"/>
</svg>
