<?xml version="1.0" encoding="utf-8"?>
<svg version="1.1" xmlns="http://www.w3.org/2000/svg" x="0px" y="0px" width="48px" height="48px" viewBox="0 0 48 48">
<path fill="#FFFFFF" d="M25.684,32.489c0-1.119-0.695-1.905-1.784-1.905c-1.028,0-1.784,0.786-1.784,1.905
	c0,1.057,0.726,1.874,1.753,1.874C24.986,34.363,25.684,33.546,25.684,32.489z"/>
<path fill="#F79524" d="M42.057,13H40.25v-0.916c0-0.552-0.447-1-1-1h-3.335c-0.553,0-1,0.448-1,1V13h-3.086
	c0-0.015,0.005-0.029,0.005-0.044V9.19c0-1.44-1.343-2.607-3-2.607h-9.917c-1.657,0-3,1.167-3,2.607v3.765
	c0,0.015,0.005,0.029,0.005,0.044H6c-1.657,0-3,1.343-3,3v19.334c0,1.657,1.343,3,3,3h36.056c1.657,0,3-1.343,3-3V16
	C45.057,14.343,43.714,13,42.057,13z"/>
<path fill="#FFFFFF" d="M23.946,16.804c-4.849,0-8.78,3.931-8.78,8.78c0,4.849,3.931,8.779,8.78,8.779
	c4.849,0,8.78-3.931,8.78-8.779C32.727,20.734,28.795,16.804,23.946,16.804z M23.949,29.917c-2.347,0-4.25-1.902-4.25-4.25
	c0-2.347,1.903-4.25,4.25-4.25c2.348,0,4.25,1.903,4.25,4.25C28.199,28.015,26.297,29.917,23.949,29.917z"/>
<path fill="#C8691C" d="M29.009,38.334h13.048c1.657,0,3-1.343,3-3V16c0-1.657-1.343-3-3-3H40.25v-0.916c0-0.552-0.447-1-1-1h-3.335
	c-0.553,0-1,0.448-1,1V13h-3.086c0-0.015,0.005-0.029,0.005-0.044V9.19c0-1.44-1.343-2.607-3-2.607H19.9L29.009,38.334z"/>
<circle fill="#FCB41E" cx="39.25" cy="18.167" r="1.917"/>
<path fill="#4ECAF5" d="M26.871,30.881"/>
<path fill="#4ECAF5" d="M26.871,30.881"/>
<line fill="#4ECAF5" x1="24.58" y1="22.899" x2="26.871" y2="30.881"/>
<line fill="#4ECAF5" x1="24.58" y1="22.899" x2="26.927" y2="30.944"/>
<path fill="#4ECAF5" d="M24.592,22.913"/>
<path fill="#E7E8E9" d="M32.727,25.584c0-4.85-3.932-8.78-8.78-8.78c-0.371,0-0.734,0.03-1.092,0.075l1.308,4.56
	c2.246,0.113,4.037,1.954,4.037,4.229c0,1.444-0.724,2.716-1.825,3.484l1.261,4.392C30.639,32.148,32.727,29.113,32.727,25.584z"/>
<polyline fill="#4ECAF5" points="41.54,42.017 38.858,44.393 26.927,30.944 7.594,9.153 10.273,6.774 "/>
<polyline fill="#3389A7" points="41.54,42.017 38.859,44.394 33.414,38.257 26.927,30.944 24.58,22.899 "/>
</svg>
