<?xml version="1.0" encoding="utf-8"?>
<!-- Generator: Adobe Illustrator 15.0.0, SVG Export Plug-In  -->
<!DOCTYPE svg PUBLIC "-//W3C//DTD SVG 1.1//EN" "http://www.w3.org/Graphics/SVG/1.1/DTD/svg11.dtd" [
	<!ENTITY ns_flows "http://ns.adobe.com/Flows/1.0/">
]>
<svg version="1.1"
	 xmlns="http://www.w3.org/2000/svg" x="0px" y="0px" width="48px" height="48px" viewBox="-3.687 -4.079 48 48"
	 xml:space="preserve">
<defs>
</defs>
<path d="M20.313,0C18.234,0,0,0.138,0,4.933C0,5.81,0.614,6.53,1.624,7.123c6.58,7.067,13.297,15.087,13.465,16.672v16.049
	l10.449-2.986l-0.002-13.044c0.17-1.603,6.887-9.624,13.469-16.691c1.008-0.593,1.621-1.313,1.621-2.189
	C40.625,0.138,22.391,0,20.313,0z M6.204,8.668c1.247,0.26,2.588,0.461,3.933,0.62c3.41,3.862,8.997,10.389,8.997,11.708
	c0,1.52,0.172,11.334,0.241,15.207l-1.963,0.561V23.794C17.411,21.493,11.218,14.197,6.204,8.668z M23.213,23.794v11.313
	l-1.408,0.402c0.053-3.834,0.188-13.154,0.248-14.686c0.068-1.701,4.959-7.792,8.059-11.49c1.469-0.166,2.947-0.382,4.311-0.666
	C29.407,14.197,23.213,21.493,23.213,23.794z M37.456,5.374c-0.953,0.432-2.656,0.917-5.094,1.319
	c0.16-0.183,0.248-0.285,0.248-0.285s0.465-0.319-0.16-0.644c-0.85-0.84-6.063-1.883-12.405-1.883
	c-6.343,0-11.673,1.122-12.524,1.961C7.064,6.089,7.56,6.409,7.56,6.409s0.066,0.072,0.177,0.195
	C5.581,6.22,4.051,5.774,3.169,5.374c-0.871-0.198-0.952-0.36-0.55-0.587c1.468-0.977,7.386-2.466,17.694-2.466
	c10.307,0,16.225,1.49,17.693,2.466C38.292,5.054,38.209,5.135,37.456,5.374z"/>
</svg>
