<?xml version="1.0" encoding="utf-8"?>
<svg version="1.1"
	 xmlns="http://www.w3.org/2000/svg" xmlns:xlink="http://www.w3.org/1999/xlink"
	 x="0px" y="0px" width="80px" height="33px" viewBox="-1.325 -3.397 80 33">
<defs>
</defs>
<rect fill="#C8691C" width="77.35" height="26.205"/>
<rect fill="#F79523" width="77.35" height="13.262"/>
<path fill="#F1F2F2" d="M72.3,17.521c0,2.092,0.197,3.789-1.895,3.789H57.776c-2.093,0-1.896-1.697-1.896-3.789V8.684
	c0-2.093-0.197-3.789,1.896-3.789h12.629c2.092,0,1.895,1.696,1.895,3.789V17.521z"/>
<path fill="#FFFFFF" d="M8.28,8.112L7.102,7.897c0.132-0.475,0.36-0.825,0.684-1.055C8.109,6.617,8.59,6.502,9.229,6.502
	c0.58,0,1.011,0.066,1.295,0.204c0.284,0.137,0.482,0.314,0.6,0.525c0.114,0.211,0.173,0.596,0.173,1.161l-0.015,1.517
	c0,0.434,0.021,0.752,0.063,0.955c0.041,0.207,0.119,0.426,0.233,0.658h-1.286c-0.034-0.085-0.076-0.215-0.125-0.385
	c-0.021-0.074-0.037-0.126-0.046-0.151c-0.222,0.218-0.46,0.377-0.713,0.484c-0.252,0.111-0.522,0.163-0.809,0.163
	c-0.507,0-0.905-0.138-1.195-0.411c-0.292-0.273-0.438-0.621-0.438-1.04c0-0.276,0.066-0.524,0.198-0.743
	C7.298,9.221,7.483,9.055,7.723,8.94c0.239-0.115,0.584-0.215,1.034-0.304c0.607-0.114,1.028-0.218,1.263-0.318V8.189
	c0-0.252-0.063-0.429-0.186-0.533C9.711,7.549,9.479,7.494,9.136,7.494c-0.23,0-0.411,0.048-0.541,0.137
	C8.466,7.724,8.36,7.882,8.28,8.112z M10.02,9.166C9.853,9.221,9.589,9.288,9.229,9.362C8.867,9.439,8.632,9.518,8.521,9.591
	C8.352,9.71,8.267,9.861,8.267,10.046c0,0.186,0.067,0.341,0.203,0.474c0.136,0.134,0.309,0.2,0.519,0.2
	c0.233,0,0.458-0.078,0.67-0.233c0.157-0.115,0.261-0.259,0.311-0.429c0.034-0.111,0.051-0.322,0.051-0.633V9.166z"/>
<path fill="#FFFFFF" d="M12.54,6.613h1.212v0.722c0.156-0.248,0.37-0.448,0.637-0.604c0.271-0.151,0.566-0.229,0.894-0.229
	c0.571,0,1.055,0.222,1.452,0.67s0.596,1.069,0.596,1.867c0,0.822-0.2,1.459-0.6,1.914c-0.401,0.455-0.888,0.681-1.457,0.681
	c-0.271,0-0.519-0.052-0.737-0.163c-0.222-0.107-0.455-0.293-0.696-0.555v2.475h-1.3V6.613z M13.826,8.984
	c0,0.552,0.107,0.958,0.327,1.225c0.221,0.263,0.487,0.393,0.802,0.393c0.302,0,0.551-0.119,0.752-0.362
	c0.202-0.241,0.302-0.637,0.302-1.191c0-0.515-0.104-0.896-0.311-1.147c-0.207-0.247-0.463-0.373-0.768-0.373
	c-0.316,0-0.581,0.122-0.79,0.37C13.93,8.141,13.826,8.504,13.826,8.984z"/>
<path fill="#FFFFFF" d="M18.325,6.613h1.212v0.722c0.157-0.248,0.37-0.448,0.638-0.604c0.269-0.151,0.566-0.229,0.893-0.229
	c0.57,0,1.054,0.222,1.453,0.67c0.396,0.448,0.596,1.069,0.596,1.867c0,0.822-0.199,1.459-0.602,1.914
	c-0.4,0.455-0.886,0.681-1.455,0.681c-0.272,0-0.519-0.052-0.74-0.163c-0.219-0.107-0.451-0.293-0.695-0.555v2.475h-1.299V6.613z
	 M19.611,8.984c0,0.552,0.108,0.958,0.327,1.225c0.22,0.263,0.486,0.393,0.801,0.393c0.302,0,0.553-0.119,0.753-0.362
	c0.202-0.241,0.302-0.637,0.302-1.191c0-0.515-0.104-0.896-0.31-1.147c-0.207-0.247-0.462-0.373-0.77-0.373
	c-0.316,0-0.58,0.122-0.79,0.37C19.716,8.141,19.611,8.504,19.611,8.984z"/>
<path fill="#FFFFFF" d="M24.148,11.522V4.745h1.299v6.777H24.148z"/>
<path fill="#FFFFFF" d="M26.165,6.613h1.382l1.175,3.484l1.146-3.484h1.347l-1.734,4.725l-0.312,0.854
	c-0.112,0.289-0.222,0.507-0.325,0.659c-0.104,0.151-0.223,0.274-0.355,0.366c-0.133,0.097-0.3,0.17-0.495,0.222
	c-0.196,0.052-0.417,0.078-0.663,0.078c-0.251,0-0.495-0.026-0.735-0.078l-0.115-1.017c0.203,0.04,0.385,0.059,0.549,0.059
	c0.302,0,0.526-0.089,0.672-0.266c0.145-0.178,0.255-0.403,0.333-0.677L26.165,6.613z"/>
<path fill="#FFFFFF" d="M11.592,15.641l-1.281,0.233c-0.044-0.256-0.141-0.452-0.294-0.581c-0.152-0.13-0.351-0.192-0.594-0.192
	c-0.324,0-0.582,0.11-0.775,0.337c-0.192,0.222-0.288,0.595-0.288,1.12c0,0.582,0.098,0.992,0.294,1.232
	c0.195,0.24,0.458,0.363,0.788,0.363c0.247,0,0.448-0.07,0.605-0.212c0.157-0.141,0.269-0.381,0.333-0.725l1.276,0.218
	c-0.132,0.589-0.387,1.028-0.763,1.328c-0.377,0.301-0.881,0.447-1.513,0.447c-0.719,0-1.291-0.225-1.717-0.68
	c-0.428-0.452-0.642-1.081-0.642-1.88c0-0.81,0.215-1.443,0.643-1.895c0.428-0.45,1.008-0.677,1.739-0.677
	c0.599,0,1.073,0.13,1.426,0.385C11.184,14.723,11.438,15.115,11.592,15.641z"/>
<path fill="#FFFFFF" d="M13.87,12.321v2.49c0.42-0.488,0.922-0.732,1.505-0.732c0.298,0,0.567,0.055,0.809,0.166
	c0.24,0.111,0.422,0.252,0.543,0.426c0.122,0.17,0.205,0.363,0.252,0.573c0.044,0.208,0.066,0.533,0.066,0.974V19.1h-1.3v-2.594
	c0-0.514-0.024-0.844-0.074-0.98c-0.05-0.14-0.135-0.248-0.261-0.329s-0.282-0.126-0.471-0.126c-0.214,0-0.408,0.056-0.576,0.159
	c-0.171,0.104-0.296,0.263-0.374,0.475c-0.078,0.21-0.119,0.525-0.119,0.936v2.46h-1.298v-6.778H13.87z"/>
<path fill="#FFFFFF" d="M19.333,15.688l-1.178-0.215c0.131-0.473,0.358-0.825,0.684-1.055c0.322-0.226,0.804-0.34,1.443-0.34
	c0.579,0,1.01,0.066,1.295,0.203c0.283,0.137,0.481,0.314,0.6,0.525c0.114,0.211,0.172,0.597,0.172,1.162l-0.013,1.517
	c0,0.434,0.019,0.752,0.063,0.955c0.041,0.207,0.118,0.425,0.233,0.658h-1.288c-0.033-0.085-0.073-0.215-0.123-0.385
	c-0.021-0.073-0.038-0.125-0.047-0.151c-0.222,0.218-0.459,0.377-0.712,0.484c-0.254,0.11-0.523,0.162-0.809,0.162
	c-0.507,0-0.906-0.137-1.195-0.41c-0.292-0.273-0.438-0.621-0.438-1.04c0-0.277,0.067-0.525,0.198-0.743
	c0.134-0.219,0.318-0.384,0.559-0.499c0.238-0.115,0.583-0.215,1.032-0.304c0.609-0.114,1.028-0.218,1.264-0.318v-0.13
	c0-0.251-0.061-0.429-0.186-0.532c-0.123-0.107-0.356-0.163-0.696-0.163c-0.233,0-0.413,0.049-0.543,0.137
	C19.519,15.301,19.413,15.459,19.333,15.688z M21.072,16.743c-0.167,0.055-0.431,0.121-0.79,0.196
	c-0.362,0.077-0.598,0.155-0.708,0.229c-0.169,0.118-0.254,0.271-0.254,0.455c0,0.186,0.066,0.34,0.204,0.474
	c0.135,0.133,0.307,0.2,0.518,0.2c0.233,0,0.457-0.077,0.669-0.233c0.158-0.114,0.262-0.259,0.312-0.429
	c0.033-0.111,0.05-0.322,0.05-0.634V16.743z"/>
<path fill="#FFFFFF" d="M28.097,19.1h-1.299v-2.505c0-0.532-0.027-0.872-0.083-1.028c-0.057-0.155-0.146-0.277-0.272-0.366
	c-0.122-0.085-0.273-0.13-0.449-0.13c-0.224,0-0.428,0.063-0.605,0.186c-0.179,0.125-0.303,0.288-0.369,0.492
	c-0.065,0.203-0.099,0.581-0.099,1.128V19.1h-1.301V14.19h1.208v0.722c0.428-0.556,0.968-0.833,1.619-0.833
	c0.286,0,0.547,0.052,0.786,0.155c0.238,0.104,0.416,0.233,0.538,0.393c0.122,0.162,0.207,0.344,0.256,0.547
	c0.048,0.204,0.07,0.497,0.07,0.874V19.1z"/>
<path fill="#FFFFFF" d="M29.295,19.425l1.483,0.179c0.026,0.173,0.082,0.292,0.172,0.358c0.124,0.092,0.316,0.137,0.583,0.137
	c0.341,0,0.594-0.052,0.763-0.151c0.114-0.067,0.201-0.179,0.259-0.329c0.04-0.108,0.061-0.308,0.061-0.597v-0.717
	c-0.388,0.532-0.879,0.795-1.471,0.795c-0.658,0-1.182-0.277-1.568-0.836c-0.302-0.44-0.451-0.992-0.451-1.646
	c0-0.825,0.196-1.454,0.592-1.887c0.397-0.437,0.89-0.651,1.479-0.651c0.607,0,1.106,0.267,1.503,0.8V14.19h1.217v4.406
	c0,0.58-0.048,1.014-0.145,1.299c-0.096,0.288-0.229,0.514-0.403,0.677c-0.17,0.163-0.403,0.288-0.691,0.381
	c-0.287,0.093-0.651,0.141-1.092,0.141c-0.832,0-1.424-0.145-1.772-0.429c-0.348-0.285-0.521-0.645-0.521-1.085
	C29.291,19.54,29.291,19.484,29.295,19.425z M30.457,16.543c0,0.521,0.1,0.903,0.303,1.144c0.2,0.243,0.45,0.363,0.746,0.363
	c0.316,0,0.586-0.123,0.804-0.37c0.219-0.248,0.33-0.618,0.33-1.104c0-0.511-0.105-0.888-0.314-1.136
	c-0.211-0.244-0.476-0.37-0.796-0.37c-0.313,0-0.569,0.122-0.77,0.367C30.557,15.678,30.457,16.048,30.457,16.543z"/>
<path fill="#FFFFFF" d="M38.045,17.538l1.295,0.215c-0.166,0.477-0.429,0.84-0.788,1.087c-0.358,0.249-0.807,0.37-1.347,0.37
	c-0.854,0-1.487-0.276-1.897-0.835c-0.322-0.448-0.485-1.011-0.485-1.695c0-0.813,0.215-1.45,0.64-1.909
	c0.426-0.462,0.963-0.691,1.613-0.691c0.729,0,1.307,0.24,1.729,0.722c0.422,0.484,0.625,1.225,0.606,2.22h-3.256
	c0.012,0.385,0.115,0.685,0.314,0.899c0.2,0.215,0.451,0.321,0.751,0.321c0.204,0,0.374-0.055,0.511-0.166
	C37.871,17.963,37.975,17.783,38.045,17.538z M38.119,16.225c-0.008-0.377-0.104-0.662-0.289-0.857
	c-0.185-0.196-0.41-0.297-0.677-0.297c-0.285,0-0.519,0.104-0.703,0.311c-0.185,0.208-0.277,0.488-0.273,0.844H38.119z"/>
<path fill="#FFFFFF" d="M40.01,17.698l1.307-0.197c0.055,0.252,0.166,0.444,0.336,0.574c0.17,0.133,0.407,0.196,0.714,0.196
	c0.333,0,0.588-0.06,0.759-0.186c0.111-0.085,0.17-0.199,0.17-0.345c0-0.1-0.033-0.181-0.092-0.247
	c-0.067-0.06-0.212-0.118-0.438-0.17c-1.047-0.229-1.713-0.441-1.99-0.633c-0.389-0.267-0.585-0.633-0.585-1.107
	c0-0.425,0.167-0.78,0.504-1.072c0.337-0.288,0.858-0.433,1.564-0.433c0.67,0,1.169,0.107,1.499,0.326
	c0.325,0.222,0.551,0.544,0.674,0.973l-1.226,0.226c-0.052-0.189-0.151-0.336-0.3-0.44c-0.144-0.1-0.355-0.152-0.625-0.152
	c-0.34,0-0.589,0.049-0.735,0.145c-0.097,0.067-0.148,0.155-0.148,0.264c0,0.092,0.045,0.17,0.13,0.236
	c0.118,0.085,0.521,0.207,1.212,0.366c0.692,0.156,1.177,0.348,1.451,0.577s0.407,0.555,0.407,0.966
	c0,0.451-0.189,0.836-0.563,1.162c-0.377,0.321-0.933,0.483-1.669,0.483c-0.669,0-1.198-0.132-1.591-0.406
	C40.387,18.533,40.132,18.163,40.01,17.698z"/>
<polygon fill="#F79523" points="57.578,8.563 57.578,10.972 66.102,10.972 66.102,16.142 63.577,16.142 67.405,19.613 
	70.956,16.142 68.629,16.142 68.629,8.563 "/>
</svg>
