<?xml version="1.0" encoding="utf-8"?>
<svg version="1.1"
	 xmlns="http://www.w3.org/2000/svg" xmlns:xlink="http://www.w3.org/1999/xlink"
	 x="0px" y="0px" width="22px" height="20px" viewBox="-0.77 -0.9 22 20">
<defs>
</defs>
<rect fill="#C8691C" width="20.46" height="18.211"/>
<rect fill="#F79523" width="20.46" height="9.215"/>
<path fill="#FFFFFF" d="M6.492,15.217V3.486h4.403c0.894,0,1.614,0.119,2.155,0.356c0.541,0.237,0.965,0.603,1.271,1.097
	c0.309,0.493,0.461,1.01,0.461,1.548c0,0.502-0.137,0.974-0.406,1.416c-0.273,0.443-0.684,0.8-1.234,1.073
	c0.709,0.208,1.254,0.563,1.637,1.063c0.381,0.502,0.572,1.094,0.572,1.777c0,0.549-0.117,1.061-0.348,1.531
	c-0.232,0.475-0.52,0.838-0.861,1.093c-0.342,0.257-0.77,0.451-1.283,0.58c-0.518,0.132-1.146,0.196-1.893,0.196H6.492z
	 M8.043,8.416h2.538c0.689,0,1.182-0.045,1.481-0.135c0.395-0.118,0.691-0.313,0.891-0.584c0.201-0.272,0.303-0.614,0.303-1.024
	c0-0.39-0.096-0.732-0.281-1.029c-0.188-0.295-0.455-0.498-0.799-0.607c-0.348-0.109-0.943-0.164-1.787-0.164H8.043V8.416z
	 M8.043,13.834h2.923c0.502,0,0.854-0.019,1.055-0.058c0.357-0.063,0.658-0.17,0.896-0.319c0.24-0.149,0.438-0.367,0.592-0.652
	c0.156-0.285,0.234-0.614,0.234-0.988c0-0.438-0.113-0.817-0.338-1.141c-0.223-0.322-0.535-0.549-0.932-0.68
	c-0.396-0.13-0.971-0.195-1.715-0.195H8.043V13.834z"/>
</svg>
