<?xml version="1.0" encoding="utf-8"?>
<!-- Generator: Adobe Illustrator 15.0.0, SVG Export Plug-In  -->
<!DOCTYPE svg PUBLIC "-//W3C//DTD SVG 1.1//EN" "http://www.w3.org/Graphics/SVG/1.1/DTD/svg11.dtd" [
	<!ENTITY ns_flows "http://ns.adobe.com/Flows/1.0/">
]>
<svg version="1.1"
	 xmlns="http://www.w3.org/2000/svg" xmlns:xlink="http://www.w3.org/1999/xlink" xmlns:a="http://ns.adobe.com/AdobeSVGViewerExtensions/3.0/"
	 x="0px" y="0px" width="86px" height="33px" viewBox="0 0 86 33" enable-background="new 0 0 86 33" xml:space="preserve">
<defs>
</defs>
<rect display="none" fill="#FFF200" width="2" height="33"/>
<rect x="84.5" display="none" fill="#FFF200" width="2" height="33"/>
<rect x="2" fill="#C8691C" width="82.5" height="33"/>
<rect x="2" fill="#F79523" width="82.5" height="16.638"/>
<rect x="2.345" display="none" fill="#C8691C" width="82.035" height="27.793"/>
<rect x="2.345" display="none" fill="#F79523" width="82.035" height="14.064"/>
<path fill="#FFFFFF" d="M8.431,12.604L7.18,12.376c0.141-0.503,0.383-0.875,0.727-1.119c0.343-0.239,0.853-0.361,1.53-0.361
	c0.615,0,1.072,0.071,1.374,0.216c0.301,0.146,0.512,0.335,0.636,0.559c0.122,0.223,0.183,0.631,0.183,1.231l-0.015,1.609
	c0,0.459,0.022,0.796,0.066,1.012c0.043,0.22,0.127,0.451,0.248,0.698h-1.364c-0.036-0.091-0.08-0.228-0.132-0.408
	c-0.022-0.078-0.039-0.133-0.049-0.161c-0.235,0.232-0.487,0.4-0.755,0.515c-0.268,0.118-0.554,0.173-0.858,0.173
	c-0.537,0-0.959-0.146-1.268-0.436c-0.31-0.291-0.464-0.659-0.464-1.103c0-0.295,0.071-0.558,0.211-0.789
	c0.14-0.23,0.337-0.408,0.59-0.53c0.254-0.12,0.62-0.227,1.097-0.32c0.645-0.122,1.09-0.232,1.339-0.338v-0.137
	c0-0.268-0.066-0.456-0.196-0.565c-0.13-0.115-0.378-0.174-0.74-0.174c-0.246,0-0.437,0.052-0.574,0.146
	C8.627,12.19,8.517,12.36,8.431,12.604z M10.275,13.721c-0.177,0.061-0.457,0.13-0.839,0.209c-0.383,0.082-0.632,0.165-0.75,0.243
	c-0.18,0.125-0.27,0.286-0.27,0.483c0,0.195,0.072,0.359,0.215,0.501c0.145,0.142,0.327,0.213,0.549,0.213
	c0.249,0,0.486-0.083,0.712-0.248c0.167-0.122,0.276-0.274,0.328-0.455c0.037-0.117,0.054-0.342,0.054-0.671V13.721z"/>
<path fill="#FFFFFF" d="M17.765,16.221h-1.279v-0.766c-0.213,0.299-0.464,0.522-0.752,0.668c-0.291,0.146-0.583,0.216-0.876,0.216
	c-0.599,0-1.111-0.239-1.537-0.723c-0.428-0.481-0.641-1.157-0.641-2.021c0-0.883,0.208-1.554,0.623-2.013s0.939-0.688,1.574-0.688
	c0.582,0,1.086,0.24,1.511,0.727v-2.59h1.378V16.221z M14.086,13.506c0,0.554,0.077,0.957,0.23,1.205
	c0.223,0.36,0.533,0.541,0.932,0.541c0.316,0,0.586-0.137,0.809-0.404c0.223-0.271,0.333-0.675,0.333-1.212
	c0-0.597-0.108-1.029-0.324-1.291c-0.215-0.264-0.493-0.397-0.829-0.397c-0.327,0-0.601,0.134-0.822,0.394
	C14.196,12.6,14.086,12.987,14.086,13.506z"/>
<path fill="#FFFFFF" d="M23.901,16.221h-1.28v-0.766c-0.213,0.299-0.463,0.522-0.753,0.668c-0.288,0.146-0.581,0.216-0.875,0.216
	c-0.598,0-1.11-0.239-1.538-0.723c-0.426-0.481-0.64-1.157-0.64-2.021c0-0.883,0.208-1.554,0.623-2.013s0.94-0.688,1.574-0.688
	c0.583,0,1.086,0.24,1.511,0.727v-2.59h1.378V16.221z M20.222,13.506c0,0.554,0.077,0.957,0.231,1.205
	c0.223,0.36,0.533,0.541,0.932,0.541c0.317,0,0.587-0.137,0.809-0.404c0.223-0.271,0.334-0.675,0.334-1.212
	c0-0.597-0.108-1.029-0.324-1.291c-0.216-0.264-0.492-0.397-0.829-0.397c-0.327,0-0.601,0.134-0.822,0.394
	C20.333,12.6,20.222,12.987,20.222,13.506z"/>
<path fill="#FFFFFF" d="M7.342,24.258v-7.189h1.379v2.59c0.425-0.486,0.929-0.726,1.511-0.726c0.635,0,1.16,0.227,1.575,0.687
	c0.415,0.459,0.622,1.122,0.622,1.981c0,0.887-0.211,1.573-0.635,2.053c-0.423,0.482-0.937,0.722-1.542,0.722
	c-0.297,0-0.591-0.075-0.881-0.224c-0.289-0.149-0.538-0.369-0.748-0.659v0.766H7.342z M8.711,21.542
	c0,0.537,0.085,0.938,0.255,1.197c0.238,0.365,0.556,0.549,0.951,0.549c0.304,0,0.563-0.129,0.777-0.393
	c0.215-0.259,0.322-0.667,0.322-1.228c0-0.594-0.108-1.024-0.324-1.288c-0.216-0.263-0.493-0.396-0.829-0.396
	c-0.331,0-0.605,0.13-0.825,0.389C8.821,20.628,8.711,21.016,8.711,21.542z"/>
<path fill="#FFFFFF" d="M13.537,24.258v-7.189h1.378v7.189H13.537z"/>
<path fill="#FFFFFF" d="M16.009,21.581c0-0.459,0.113-0.902,0.338-1.33s0.545-0.757,0.958-0.981
	c0.414-0.228,0.876-0.337,1.386-0.337c0.787,0,1.434,0.255,1.937,0.765c0.503,0.515,0.755,1.162,0.755,1.942
	c0,0.789-0.254,1.44-0.763,1.959c-0.508,0.518-1.148,0.776-1.92,0.776c-0.478,0-0.933-0.106-1.367-0.321
	c-0.433-0.216-0.762-0.535-0.988-0.949C16.122,22.688,16.009,22.178,16.009,21.581z M17.422,21.651c0,0.518,0.123,0.914,0.368,1.189
	c0.245,0.274,0.547,0.412,0.907,0.412s0.661-0.138,0.904-0.412c0.244-0.275,0.366-0.676,0.366-1.196
	c0-0.511-0.122-0.903-0.366-1.178c-0.243-0.274-0.544-0.413-0.904-0.413s-0.663,0.139-0.907,0.413
	C17.544,20.741,17.422,21.138,17.422,21.651z"/>
<path fill="#FFFFFF" d="M27.006,20.589l-1.358,0.246c-0.046-0.271-0.15-0.479-0.312-0.615c-0.162-0.138-0.372-0.205-0.63-0.205
	c-0.343,0-0.617,0.119-0.821,0.358c-0.205,0.235-0.307,0.632-0.307,1.188c0,0.616,0.104,1.052,0.312,1.307
	c0.208,0.256,0.486,0.385,0.836,0.385c0.262,0,0.476-0.074,0.643-0.224s0.285-0.405,0.354-0.77l1.354,0.231
	c-0.141,0.624-0.41,1.091-0.809,1.408c-0.4,0.319-0.935,0.476-1.604,0.476c-0.762,0-1.369-0.239-1.822-0.722
	c-0.452-0.479-0.679-1.146-0.679-1.994c0-0.859,0.228-1.529,0.682-2.009c0.455-0.479,1.07-0.718,1.845-0.718
	c0.635,0,1.139,0.138,1.514,0.407C26.573,19.614,26.842,20.031,27.006,20.589z"/>
<path fill="#FFFFFF" d="M28.001,24.258v-7.189h1.378v3.814l1.614-1.833h1.697l-1.78,1.903l1.908,3.305h-1.486l-1.31-2.339
	l-0.643,0.67v1.669H28.001z"/>
<path fill="#56CAF5" d="M79.998,21.716c0,2.792,0.267,5.056-2.527,5.056H60.611c-2.79,0-2.529-2.263-2.529-5.056V9.921
	c0-2.792-0.261-5.054,2.529-5.054H77.47c2.792,0,2.527,2.262,2.527,5.054V21.716L79.998,21.716z"/>
<polygon fill="#FFFFFF" points="74.41,14.397 70.46,14.397 70.46,10.445 67.616,10.445 67.616,14.397 63.67,14.397 63.67,17.245 
	67.616,17.245 67.616,21.189 70.46,21.189 70.46,17.245 74.41,17.245 "/>
<path fill="#FFFFFF" d="M58.469,10.888l5.636,15.501l15.506-5.636L73.974,5.246L58.469,10.888z M77.496,19.768l-12.403,4.506
	l-4.509-12.401l12.403-4.511L77.496,19.768z"/>
</svg>
