<?xml version="1.0" encoding="utf-8"?>
<!DOCTYPE svg PUBLIC "-//W3C//DTD SVG 1.1//EN" "http://www.w3.org/Graphics/SVG/1.1/DTD/svg11.dtd" [
	<!ENTITY ns_flows "http://ns.adobe.com/Flows/1.0/">
]>
<svg version="1.1"
	 xmlns="http://www.w3.org/2000/svg" xmlns:xlink="http://www.w3.org/1999/xlink"
	 x="0px" y="0px" width="74px" height="33px" viewBox="0 0 74 33">
<defs>
</defs>
<rect x="2.22" display="none" fill="#C8691C" width="82.035" height="27.793"/>
<rect x="2.22" display="none" fill="#F79523" width="82.035" height="14.064"/>
<path display="none" fill="#FFFFFF" d="M8.306,12.604l-1.251-0.228c0.141-0.503,0.383-0.875,0.727-1.119
	c0.343-0.239,0.853-0.361,1.53-0.361c0.615,0,1.072,0.071,1.374,0.216c0.301,0.146,0.512,0.335,0.636,0.559
	c0.122,0.223,0.183,0.631,0.183,1.231l-0.015,1.609c0,0.459,0.022,0.796,0.066,1.012c0.043,0.22,0.127,0.451,0.248,0.698h-1.364
	c-0.036-0.091-0.08-0.228-0.132-0.408c-0.022-0.078-0.039-0.133-0.049-0.161c-0.235,0.232-0.487,0.4-0.755,0.515
	c-0.268,0.118-0.554,0.173-0.858,0.173c-0.537,0-0.959-0.146-1.268-0.436c-0.31-0.291-0.464-0.659-0.464-1.103
	c0-0.295,0.071-0.558,0.211-0.789c0.14-0.23,0.337-0.408,0.59-0.53c0.254-0.12,0.62-0.227,1.097-0.32
	c0.645-0.122,1.09-0.232,1.339-0.338v-0.137c0-0.268-0.066-0.456-0.196-0.565c-0.13-0.115-0.378-0.174-0.74-0.174
	c-0.246,0-0.437,0.052-0.574,0.146C8.501,12.19,8.391,12.36,8.306,12.604z M10.15,13.721c-0.177,0.061-0.457,0.13-0.839,0.209
	c-0.383,0.082-0.632,0.165-0.75,0.243c-0.18,0.125-0.27,0.286-0.27,0.483c0,0.195,0.072,0.359,0.215,0.501
	c0.145,0.142,0.327,0.213,0.549,0.213c0.249,0,0.486-0.083,0.712-0.248c0.167-0.122,0.276-0.274,0.328-0.455
	c0.037-0.117,0.054-0.342,0.054-0.671V13.721z"/>
<path display="none" fill="#FFFFFF" d="M17.639,16.221H16.36v-0.766c-0.213,0.299-0.464,0.522-0.752,0.668
	c-0.291,0.146-0.583,0.216-0.876,0.216c-0.599,0-1.111-0.239-1.537-0.723c-0.428-0.481-0.641-1.157-0.641-2.021
	c0-0.883,0.208-1.554,0.623-2.013s0.939-0.688,1.574-0.688c0.582,0,1.086,0.24,1.511,0.727v-2.59h1.378V16.221z M13.961,13.506
	c0,0.554,0.077,0.957,0.23,1.205c0.223,0.36,0.533,0.541,0.932,0.541c0.316,0,0.586-0.137,0.809-0.404
	c0.223-0.271,0.333-0.675,0.333-1.212c0-0.597-0.108-1.029-0.324-1.291c-0.215-0.264-0.493-0.397-0.829-0.397
	c-0.327,0-0.601,0.134-0.822,0.394C14.071,12.6,13.961,12.987,13.961,13.506z"/>
<path display="none" fill="#FFFFFF" d="M23.776,16.221h-1.28v-0.766c-0.213,0.299-0.463,0.522-0.753,0.668
	c-0.288,0.146-0.581,0.216-0.875,0.216c-0.598,0-1.11-0.239-1.538-0.723c-0.426-0.481-0.64-1.157-0.64-2.021
	c0-0.883,0.208-1.554,0.623-2.013s0.94-0.688,1.574-0.688c0.583,0,1.086,0.24,1.511,0.727v-2.59h1.378V16.221z M20.097,13.506
	c0,0.554,0.077,0.957,0.231,1.205c0.223,0.36,0.533,0.541,0.932,0.541c0.317,0,0.587-0.137,0.809-0.404
	c0.223-0.271,0.334-0.675,0.334-1.212c0-0.597-0.108-1.029-0.324-1.291c-0.216-0.264-0.492-0.397-0.829-0.397
	c-0.327,0-0.601,0.134-0.822,0.394C20.208,12.6,20.097,12.987,20.097,13.506z"/>
<path display="none" fill="#FFFFFF" d="M7.216,24.258v-7.189h1.379v2.59c0.425-0.486,0.929-0.726,1.511-0.726
	c0.635,0,1.16,0.227,1.575,0.687c0.415,0.459,0.622,1.122,0.622,1.981c0,0.887-0.211,1.573-0.635,2.053
	c-0.423,0.482-0.937,0.722-1.542,0.722c-0.297,0-0.591-0.075-0.881-0.224c-0.289-0.149-0.538-0.369-0.748-0.659v0.766H7.216z
	 M8.585,21.542c0,0.537,0.085,0.938,0.255,1.197c0.238,0.365,0.556,0.549,0.951,0.549c0.304,0,0.563-0.129,0.777-0.393
	c0.215-0.259,0.322-0.667,0.322-1.228c0-0.594-0.108-1.024-0.324-1.288c-0.216-0.263-0.493-0.396-0.829-0.396
	c-0.331,0-0.605,0.13-0.825,0.389C8.695,20.628,8.585,21.016,8.585,21.542z"/>
<path display="none" fill="#FFFFFF" d="M13.412,24.258v-7.189h1.378v7.189H13.412z"/>
<path display="none" fill="#FFFFFF" d="M15.884,21.581c0-0.459,0.113-0.902,0.338-1.33s0.545-0.757,0.958-0.981
	c0.414-0.228,0.876-0.337,1.386-0.337c0.787,0,1.434,0.255,1.937,0.765c0.503,0.515,0.755,1.162,0.755,1.942
	c0,0.789-0.254,1.44-0.763,1.959c-0.508,0.518-1.148,0.776-1.92,0.776c-0.478,0-0.933-0.106-1.367-0.321
	c-0.433-0.216-0.762-0.535-0.988-0.949C15.997,22.688,15.884,22.178,15.884,21.581z M17.296,21.651c0,0.518,0.123,0.914,0.368,1.189
	c0.245,0.274,0.547,0.412,0.907,0.412s0.661-0.138,0.904-0.412c0.244-0.275,0.366-0.676,0.366-1.196
	c0-0.511-0.122-0.903-0.366-1.178c-0.243-0.274-0.544-0.413-0.904-0.413s-0.663,0.139-0.907,0.413
	C17.419,20.741,17.296,21.138,17.296,21.651z"/>
<path display="none" fill="#FFFFFF" d="M26.88,20.589l-1.358,0.246c-0.046-0.271-0.15-0.479-0.312-0.615
	c-0.162-0.138-0.372-0.205-0.63-0.205c-0.343,0-0.617,0.119-0.821,0.358c-0.205,0.235-0.307,0.632-0.307,1.188
	c0,0.616,0.104,1.052,0.312,1.307c0.208,0.256,0.486,0.385,0.836,0.385c0.262,0,0.476-0.074,0.643-0.224s0.285-0.405,0.354-0.77
	l1.354,0.231c-0.141,0.624-0.41,1.091-0.809,1.408c-0.4,0.319-0.935,0.476-1.604,0.476c-0.762,0-1.369-0.239-1.822-0.722
	c-0.452-0.479-0.679-1.146-0.679-1.994c0-0.859,0.228-1.529,0.682-2.009c0.455-0.479,1.07-0.718,1.845-0.718
	c0.635,0,1.139,0.138,1.514,0.407C26.447,19.614,26.717,20.031,26.88,20.589z"/>
<path display="none" fill="#FFFFFF" d="M27.876,24.258v-7.189h1.378v3.814l1.614-1.833h1.697l-1.78,1.903l1.908,3.305h-1.486
	l-1.31-2.339l-0.643,0.67v1.669H27.876z"/>
<rect display="none" fill="#FFF200" width="2" height="33"/>
<rect x="72.233" display="none" fill="#FFF200" width="2" height="33"/>
<rect x="2" fill="#C8691C" width="70.22" height="33"/>
<rect x="2" fill="#F79523" width="70.22" height="16.638"/>
<path fill="#56CAF5" d="M66.997,21.716c0,2.792,0.268,5.056-2.527,5.056H47.611c-2.79,0-2.529-2.263-2.529-5.056V9.921
	c0-2.792-0.261-5.054,2.529-5.054H64.47c2.793,0,2.527,2.262,2.527,5.054V21.716L66.997,21.716z"/>
<polygon fill="#FFFFFF" points="61.409,14.397 57.46,14.397 57.46,10.445 54.616,10.445 54.616,14.397 50.67,14.397 50.67,17.245 
	54.616,17.245 54.616,21.189 57.46,21.189 57.46,17.245 61.409,17.245 "/>
<path fill="#FFFFFF" d="M45.469,10.888l5.636,15.501l15.505-5.636L60.974,5.246L45.469,10.888z M64.495,19.768l-12.403,4.506
	l-4.509-12.401l12.403-4.511L64.495,19.768z"/>
<path fill="#FFFFFF" d="M9.32,12.326l-1.245-0.225c0.14-0.502,0.381-0.873,0.723-1.113c0.342-0.242,0.85-0.361,1.523-0.361
	c0.612,0,1.068,0.072,1.367,0.217s0.51,0.328,0.632,0.553c0.122,0.223,0.183,0.631,0.183,1.227l-0.015,1.602
	c0,0.457,0.022,0.793,0.066,1.01c0.044,0.215,0.126,0.447,0.247,0.695h-1.357c-0.036-0.092-0.08-0.227-0.132-0.406
	c-0.023-0.08-0.039-0.135-0.049-0.16c-0.234,0.227-0.485,0.398-0.752,0.512c-0.267,0.115-0.552,0.172-0.854,0.172
	c-0.534,0-0.955-0.145-1.262-0.436c-0.308-0.289-0.461-0.656-0.461-1.098c0-0.293,0.07-0.555,0.21-0.783
	c0.14-0.23,0.336-0.406,0.588-0.527c0.252-0.123,0.616-0.23,1.091-0.32c0.641-0.121,1.085-0.232,1.333-0.338v-0.137
	c0-0.264-0.065-0.451-0.195-0.563c-0.13-0.113-0.376-0.17-0.737-0.17c-0.244,0-0.435,0.049-0.571,0.145S9.405,12.084,9.32,12.326z
	 M11.156,13.439c-0.176,0.059-0.454,0.129-0.835,0.209c-0.381,0.082-0.63,0.162-0.747,0.24c-0.179,0.127-0.269,0.287-0.269,0.482
	c0,0.193,0.072,0.359,0.215,0.498c0.143,0.141,0.326,0.211,0.547,0.211c0.248,0,0.483-0.082,0.708-0.244
	c0.166-0.125,0.275-0.275,0.327-0.455c0.036-0.117,0.054-0.34,0.054-0.668V13.439z"/>
<path fill="#FFFFFF" d="M18.612,15.93h-1.274v-0.762c-0.211,0.295-0.461,0.516-0.75,0.662c-0.288,0.145-0.579,0.217-0.872,0.217
	c-0.596,0-1.106-0.24-1.531-0.721s-0.637-1.15-0.637-2.01c0-0.879,0.207-1.547,0.62-2.004s0.936-0.686,1.567-0.686
	c0.58,0,1.081,0.24,1.504,0.723V8.771h1.372V15.93z M14.95,13.225c0,0.553,0.077,0.953,0.229,1.201
	c0.221,0.357,0.531,0.537,0.928,0.537c0.316,0,0.584-0.135,0.806-0.402c0.221-0.27,0.332-0.67,0.332-1.205
	c0-0.596-0.107-1.023-0.322-1.285c-0.215-0.264-0.49-0.395-0.825-0.395c-0.326,0-0.598,0.131-0.818,0.389
	C15.06,12.324,14.95,12.709,14.95,13.225z"/>
<path fill="#FFFFFF" d="M24.721,15.93h-1.274v-0.762c-0.211,0.295-0.461,0.516-0.75,0.662c-0.288,0.145-0.579,0.217-0.872,0.217
	c-0.596,0-1.106-0.24-1.531-0.721s-0.637-1.15-0.637-2.01c0-0.879,0.207-1.547,0.62-2.004s0.936-0.686,1.567-0.686
	c0.58,0,1.081,0.24,1.504,0.723V8.771h1.372V15.93z M21.059,13.225c0,0.553,0.077,0.953,0.229,1.201
	c0.221,0.357,0.531,0.537,0.928,0.537c0.316,0,0.584-0.135,0.806-0.402c0.221-0.27,0.332-0.67,0.332-1.205
	c0-0.596-0.107-1.023-0.322-1.285c-0.215-0.264-0.49-0.395-0.825-0.395c-0.326,0-0.598,0.131-0.818,0.389
	C21.168,12.324,21.059,12.709,21.059,13.225z"/>
<path fill="#FFFFFF" d="M8.236,24.93v-7.158h1.372v2.578c0.423-0.482,0.924-0.723,1.504-0.723c0.631,0,1.154,0.229,1.567,0.686
	s0.62,1.113,0.62,1.971c0,0.885-0.211,1.566-0.632,2.045s-0.934,0.719-1.536,0.719c-0.296,0-0.588-0.074-0.876-0.223
	s-0.536-0.367-0.745-0.656v0.762H8.236z M9.599,22.225c0,0.537,0.084,0.934,0.254,1.191c0.238,0.363,0.553,0.547,0.947,0.547
	c0.303,0,0.561-0.129,0.774-0.389c0.213-0.258,0.32-0.666,0.32-1.223c0-0.594-0.107-1.02-0.322-1.281
	c-0.215-0.264-0.49-0.395-0.825-0.395c-0.329,0-0.602,0.129-0.82,0.385C9.708,21.314,9.599,21.703,9.599,22.225z"/>
<path fill="#FFFFFF" d="M14.403,24.93v-7.158h1.372v7.158H14.403z"/>
<path fill="#FFFFFF" d="M16.864,22.264c0-0.457,0.112-0.896,0.337-1.324c0.225-0.426,0.543-0.752,0.955-0.977
	s0.872-0.336,1.379-0.336c0.785,0,1.427,0.254,1.929,0.764s0.752,1.152,0.752,1.932c0,0.783-0.253,1.434-0.759,1.951
	c-0.506,0.516-1.144,0.773-1.912,0.773c-0.475,0-0.929-0.107-1.36-0.322s-0.759-0.529-0.984-0.945
	C16.977,23.365,16.864,22.859,16.864,22.264z M18.271,22.336c0,0.516,0.122,0.908,0.366,1.182s0.545,0.41,0.903,0.41
	s0.658-0.137,0.901-0.41s0.364-0.67,0.364-1.191c0-0.508-0.121-0.898-0.364-1.172s-0.543-0.41-0.901-0.41s-0.659,0.137-0.903,0.41
	S18.271,21.822,18.271,22.336z"/>
<path fill="#FFFFFF" d="M27.812,21.277l-1.353,0.244c-0.045-0.271-0.149-0.475-0.31-0.611s-0.37-0.205-0.627-0.205
	c-0.342,0-0.614,0.119-0.818,0.355c-0.204,0.234-0.305,0.629-0.305,1.184c0,0.615,0.104,1.049,0.31,1.303s0.484,0.381,0.833,0.381
	c0.26,0,0.474-0.074,0.64-0.221c0.166-0.148,0.283-0.404,0.352-0.766l1.348,0.23c-0.14,0.617-0.409,1.086-0.806,1.4
	c-0.397,0.316-0.929,0.475-1.597,0.475c-0.758,0-1.363-0.24-1.814-0.719s-0.676-1.141-0.676-1.986c0-0.857,0.226-1.523,0.679-2
	s1.064-0.715,1.836-0.715c0.631,0,1.134,0.135,1.506,0.408C27.381,20.307,27.649,20.721,27.812,21.277z"/>
<path fill="#FFFFFF" d="M28.803,24.93v-7.158h1.372v3.799l1.606-1.826h1.689l-1.772,1.895l1.899,3.291h-1.479l-1.304-2.33
	l-0.64,0.67v1.66H28.803z"/>
</svg>
