<?xml version="1.0" encoding="utf-8"?>
<svg version="1.1"
	 xmlns="http://www.w3.org/2000/svg" xmlns:xlink="http://www.w3.org/1999/xlink"
	 x="0px" y="0px" width="74px" height="33px" viewBox="0 0 74 33">
<defs>
</defs>
<rect x="2" fill="#C8691C" width="70.22" height="33"/>
<rect x="2" fill="#F79523" width="70.22" height="16.638"/>
<path fill="#56CAF5" d="M66.997,21.716c0,2.792,0.268,5.056-2.527,5.056H47.611c-2.79,0-2.529-2.263-2.529-5.056V9.921
	c0-2.792-0.261-5.054,2.529-5.054H64.47c2.793,0,2.527,2.262,2.527,5.054V21.716L66.997,21.716z"/>
<polygon fill="#FFFFFF" points="61.409,14.397 57.46,14.397 57.46,10.445 54.616,10.445 54.616,14.397 50.67,14.397 50.67,17.245 
	54.616,17.245 54.616,21.189 57.46,21.189 57.46,17.245 61.409,17.245 "/>
<path fill="#FFFFFF" d="M45.469,10.888l5.636,15.501l15.505-5.636L60.974,5.246L45.469,10.888z M64.495,19.768l-12.403,4.506
	l-4.509-12.401l12.403-4.511L64.495,19.768z"/>
<path fill="#FFFFFF" d="M9.32,12.326l-1.245-0.225c0.14-0.502,0.381-0.873,0.723-1.113c0.342-0.242,0.85-0.361,1.523-0.361
	c0.612,0,1.068,0.072,1.367,0.217s0.51,0.328,0.632,0.553c0.122,0.223,0.183,0.631,0.183,1.227l-0.015,1.602
	c0,0.457,0.022,0.793,0.066,1.01c0.044,0.215,0.126,0.447,0.247,0.695h-1.357c-0.036-0.092-0.08-0.227-0.132-0.406
	c-0.023-0.08-0.039-0.135-0.049-0.16c-0.234,0.227-0.485,0.398-0.752,0.512c-0.267,0.115-0.552,0.172-0.854,0.172
	c-0.534,0-0.955-0.145-1.262-0.436c-0.308-0.289-0.461-0.656-0.461-1.098c0-0.293,0.07-0.555,0.21-0.783
	c0.14-0.23,0.336-0.406,0.588-0.527c0.252-0.123,0.616-0.23,1.091-0.32c0.641-0.121,1.085-0.232,1.333-0.338v-0.137
	c0-0.264-0.065-0.451-0.195-0.563c-0.13-0.113-0.376-0.17-0.737-0.17c-0.244,0-0.435,0.049-0.571,0.145S9.405,12.084,9.32,12.326z
	 M11.156,13.439c-0.176,0.059-0.454,0.129-0.835,0.209c-0.381,0.082-0.63,0.162-0.747,0.24c-0.179,0.127-0.269,0.287-0.269,0.482
	c0,0.193,0.072,0.359,0.215,0.498c0.143,0.141,0.326,0.211,0.547,0.211c0.248,0,0.483-0.082,0.708-0.244
	c0.166-0.125,0.275-0.275,0.327-0.455c0.036-0.117,0.054-0.34,0.054-0.668V13.439z"/>
<path fill="#FFFFFF" d="M18.612,15.93h-1.274v-0.762c-0.211,0.295-0.461,0.516-0.75,0.662c-0.288,0.145-0.579,0.217-0.872,0.217
	c-0.596,0-1.106-0.24-1.531-0.721s-0.637-1.15-0.637-2.01c0-0.879,0.207-1.547,0.62-2.004s0.936-0.686,1.567-0.686
	c0.58,0,1.081,0.24,1.504,0.723V8.771h1.372V15.93z M14.95,13.225c0,0.553,0.077,0.953,0.229,1.201
	c0.221,0.357,0.531,0.537,0.928,0.537c0.316,0,0.584-0.135,0.806-0.402c0.221-0.27,0.332-0.67,0.332-1.205
	c0-0.596-0.107-1.023-0.322-1.285c-0.215-0.264-0.49-0.395-0.825-0.395c-0.326,0-0.598,0.131-0.818,0.389
	C15.06,12.324,14.95,12.709,14.95,13.225z"/>
<path fill="#FFFFFF" d="M24.721,15.93h-1.274v-0.762c-0.211,0.295-0.461,0.516-0.75,0.662c-0.288,0.145-0.579,0.217-0.872,0.217
	c-0.596,0-1.106-0.24-1.531-0.721s-0.637-1.15-0.637-2.01c0-0.879,0.207-1.547,0.62-2.004s0.936-0.686,1.567-0.686
	c0.58,0,1.081,0.24,1.504,0.723V8.771h1.372V15.93z M21.059,13.225c0,0.553,0.077,0.953,0.229,1.201
	c0.221,0.357,0.531,0.537,0.928,0.537c0.316,0,0.584-0.135,0.806-0.402c0.221-0.27,0.332-0.67,0.332-1.205
	c0-0.596-0.107-1.023-0.322-1.285c-0.215-0.264-0.49-0.395-0.825-0.395c-0.326,0-0.598,0.131-0.818,0.389
	C21.168,12.324,21.059,12.709,21.059,13.225z"/>
<path fill="#FFFFFF" d="M8.236,24.93v-7.158h1.372v2.578c0.423-0.482,0.924-0.723,1.504-0.723c0.631,0,1.154,0.229,1.567,0.686
	s0.62,1.113,0.62,1.971c0,0.885-0.211,1.566-0.632,2.045s-0.934,0.719-1.536,0.719c-0.296,0-0.588-0.074-0.876-0.223
	s-0.536-0.367-0.745-0.656v0.762H8.236z M9.599,22.225c0,0.537,0.084,0.934,0.254,1.191c0.238,0.363,0.553,0.547,0.947,0.547
	c0.303,0,0.561-0.129,0.774-0.389c0.213-0.258,0.32-0.666,0.32-1.223c0-0.594-0.107-1.02-0.322-1.281
	c-0.215-0.264-0.49-0.395-0.825-0.395c-0.329,0-0.602,0.129-0.82,0.385C9.708,21.314,9.599,21.703,9.599,22.225z"/>
<path fill="#FFFFFF" d="M14.403,24.93v-7.158h1.372v7.158H14.403z"/>
<path fill="#FFFFFF" d="M16.864,22.264c0-0.457,0.112-0.896,0.337-1.324c0.225-0.426,0.543-0.752,0.955-0.977
	s0.872-0.336,1.379-0.336c0.785,0,1.427,0.254,1.929,0.764s0.752,1.152,0.752,1.932c0,0.783-0.253,1.434-0.759,1.951
	c-0.506,0.516-1.144,0.773-1.912,0.773c-0.475,0-0.929-0.107-1.36-0.322s-0.759-0.529-0.984-0.945
	C16.977,23.365,16.864,22.859,16.864,22.264z M18.271,22.336c0,0.516,0.122,0.908,0.366,1.182s0.545,0.41,0.903,0.41
	s0.658-0.137,0.901-0.41s0.364-0.67,0.364-1.191c0-0.508-0.121-0.898-0.364-1.172s-0.543-0.41-0.901-0.41s-0.659,0.137-0.903,0.41
	S18.271,21.822,18.271,22.336z"/>
<path fill="#FFFFFF" d="M27.812,21.277l-1.353,0.244c-0.045-0.271-0.149-0.475-0.31-0.611s-0.37-0.205-0.627-0.205
	c-0.342,0-0.614,0.119-0.818,0.355c-0.204,0.234-0.305,0.629-0.305,1.184c0,0.615,0.104,1.049,0.31,1.303s0.484,0.381,0.833,0.381
	c0.26,0,0.474-0.074,0.64-0.221c0.166-0.148,0.283-0.404,0.352-0.766l1.348,0.23c-0.14,0.617-0.409,1.086-0.806,1.4
	c-0.397,0.316-0.929,0.475-1.597,0.475c-0.758,0-1.363-0.24-1.814-0.719s-0.676-1.141-0.676-1.986c0-0.857,0.226-1.523,0.679-2
	s1.064-0.715,1.836-0.715c0.631,0,1.134,0.135,1.506,0.408C27.381,20.307,27.649,20.721,27.812,21.277z"/>
<path fill="#FFFFFF" d="M28.803,24.93v-7.158h1.372v3.799l1.606-1.826h1.689l-1.772,1.895l1.899,3.291h-1.479l-1.304-2.33
	l-0.64,0.67v1.66H28.803z"/>
</svg>
