<?xml version="1.0" encoding="utf-8"?>
<!-- Generator: Adobe Illustrator 15.0.0, SVG Export Plug-In  -->
<!DOCTYPE svg PUBLIC "-//W3C//DTD SVG 1.1//EN" "http://www.w3.org/Graphics/SVG/1.1/DTD/svg11.dtd" [
	<!ENTITY ns_flows "http://ns.adobe.com/Flows/1.0/">
]>
<svg version="1.1"
	 xmlns="http://www.w3.org/2000/svg" xmlns:xlink="http://www.w3.org/1999/xlink" xmlns:a="http://ns.adobe.com/AdobeSVGViewerExtensions/3.0/"
	 x="0px" y="0px" width="101px" height="33px" viewBox="0 0 101 33" enable-background="new 0 0 101 33" xml:space="preserve">
<defs>
</defs>
<rect display="none" fill="#FFF200" width="2" height="33"/>
<rect x="50.846" display="none" fill="#FFF200" width="2" height="33"/>
<rect x="2.011" fill="#C8691C" width="97.405" height="33"/>
<rect x="2.011" fill="#F79523" width="97.405" height="16.7"/>
<path fill="#FFFFFF" d="M12.438,10.215l-1.485-0.271c0.167-0.596,0.454-1.038,0.862-1.327c0.408-0.284,1.014-0.429,1.817-0.429
	c0.73,0,1.273,0.084,1.631,0.256c0.357,0.173,0.608,0.396,0.755,0.662c0.145,0.266,0.218,0.75,0.218,1.463l-0.018,1.91
	c0,0.545,0.026,0.945,0.079,1.202c0.051,0.261,0.15,0.535,0.293,0.829h-1.619c-0.043-0.107-0.096-0.271-0.157-0.484
	c-0.027-0.094-0.047-0.159-0.059-0.191c-0.279,0.275-0.579,0.476-0.896,0.61c-0.318,0.14-0.658,0.205-1.02,0.205
	c-0.637,0-1.139-0.173-1.505-0.518c-0.368-0.345-0.551-0.782-0.551-1.309c0-0.35,0.084-0.662,0.25-0.937
	c0.167-0.275,0.401-0.484,0.701-0.629c0.302-0.145,0.735-0.271,1.302-0.382c0.765-0.145,1.295-0.275,1.59-0.401v-0.163
	c0-0.316-0.078-0.54-0.233-0.671c-0.155-0.135-0.448-0.205-0.879-0.205c-0.291,0-0.519,0.061-0.682,0.173
	C12.67,9.726,12.539,9.926,12.438,10.215z M14.627,11.543c-0.209,0.069-0.542,0.153-0.996,0.247
	c-0.454,0.098-0.751,0.195-0.891,0.288c-0.213,0.149-0.32,0.341-0.32,0.573c0,0.233,0.085,0.429,0.256,0.597
	c0.171,0.168,0.388,0.252,0.652,0.252c0.295,0,0.577-0.099,0.845-0.294c0.198-0.145,0.328-0.326,0.39-0.54
	c0.043-0.141,0.064-0.405,0.064-0.797V11.543z"/>
<path fill="#FFFFFF" d="M23.521,14.511H22v-0.908c-0.253,0.354-0.551,0.619-0.894,0.792c-0.345,0.172-0.69,0.256-1.04,0.256
	c-0.71,0-1.32-0.284-1.825-0.857c-0.508-0.573-0.761-1.374-0.761-2.399c0-1.048,0.247-1.845,0.74-2.39
	c0.493-0.546,1.116-0.815,1.87-0.815c0.69,0,1.289,0.284,1.793,0.861V5.976h1.637V14.511z M19.152,11.286
	c0,0.657,0.091,1.138,0.274,1.431c0.264,0.429,0.632,0.643,1.106,0.643c0.376,0,0.697-0.163,0.961-0.479
	c0.265-0.321,0.396-0.802,0.396-1.439c0-0.708-0.128-1.221-0.384-1.533c-0.256-0.312-0.585-0.471-0.984-0.471
	c-0.388,0-0.714,0.159-0.975,0.466C19.283,10.21,19.152,10.672,19.152,11.286z"/>
<path fill="#FFFFFF" d="M30.806,14.511h-1.52v-0.908c-0.253,0.354-0.55,0.619-0.895,0.792c-0.343,0.172-0.69,0.256-1.039,0.256
	c-0.71,0-1.318-0.284-1.827-0.857c-0.505-0.573-0.759-1.374-0.759-2.399c0-1.048,0.247-1.845,0.74-2.39
	c0.493-0.546,1.116-0.815,1.87-0.815c0.69,0,1.289,0.284,1.793,0.861V5.976h1.637V14.511z M26.438,11.286
	c0,0.657,0.091,1.138,0.274,1.431c0.264,0.429,0.632,0.643,1.106,0.643c0.376,0,0.697-0.163,0.961-0.479
	c0.264-0.321,0.396-0.802,0.396-1.439c0-0.708-0.128-1.221-0.384-1.533c-0.256-0.312-0.585-0.471-0.984-0.471
	c-0.388,0-0.713,0.159-0.976,0.466C26.57,10.21,26.438,10.672,26.438,11.286z"/>
<path fill="#FFFFFF" d="M11.145,24.053v-8.536h1.636v3.075c0.504-0.577,1.103-0.861,1.794-0.861c0.753,0,1.376,0.27,1.869,0.814
	c0.493,0.546,0.74,1.333,0.74,2.354c0,1.053-0.251,1.868-0.755,2.437c-0.502,0.573-1.112,0.857-1.831,0.857
	c-0.353,0-0.701-0.089-1.046-0.266c-0.342-0.178-0.639-0.438-0.887-0.783v0.909H11.145z M12.77,20.828
	c0,0.639,0.102,1.113,0.303,1.421c0.283,0.434,0.661,0.652,1.13,0.652c0.361,0,0.669-0.153,0.923-0.466
	c0.255-0.308,0.382-0.792,0.382-1.458c0-0.704-0.128-1.216-0.384-1.528s-0.585-0.471-0.984-0.471c-0.393,0-0.719,0.154-0.979,0.461
	C12.9,19.743,12.77,20.204,12.77,20.828z"/>
<path fill="#FFFFFF" d="M18.122,20.875c0-0.545,0.134-1.071,0.402-1.579c0.268-0.509,0.648-0.899,1.139-1.165
	c0.49-0.271,1.039-0.4,1.645-0.4c0.936,0,1.703,0.303,2.301,0.908c0.597,0.61,0.896,1.379,0.896,2.306
	c0,0.937-0.301,1.71-0.905,2.325c-0.604,0.615-1.364,0.923-2.281,0.923c-0.567,0-1.107-0.126-1.621-0.383
	c-0.515-0.256-0.906-0.633-1.174-1.127C18.256,22.188,18.122,21.583,18.122,20.875z M19.799,20.959c0,0.614,0.146,1.085,0.437,1.411
	s0.65,0.489,1.077,0.489c0.428,0,0.785-0.163,1.075-0.489c0.289-0.326,0.434-0.801,0.434-1.421c0-0.605-0.145-1.071-0.434-1.397
	c-0.29-0.326-0.647-0.489-1.075-0.489c-0.427,0-0.786,0.163-1.077,0.489S19.799,20.349,19.799,20.959z"/>
<path fill="#FFFFFF" d="M25,24.053l2.23-3.188l-2.137-2.995h1.998l1.095,1.7l1.153-1.7h1.922l-2.097,2.926l2.289,3.257h-2.009
	l-1.258-1.915l-1.27,1.915H25z"/>
<path fill="#E6E7E8" d="M91.854,21.438c0.453,2.933,1.094,5.268-1.838,5.722l-17.703,2.726c-2.934,0.451-3.025-1.974-3.477-4.904
	L66.93,12.591c-0.449-2.933-1.094-5.27,1.842-5.719l17.699-2.728c2.936-0.447,3.025,1.971,3.475,4.905L91.854,21.438z"/>
<path fill="#52CAF5" d="M93.586,23.283c0,2.966,0.279,5.372-2.689,5.372H72.988c-2.971,0-2.689-2.406-2.689-5.372V10.746
	c0-2.968-0.281-5.374,2.689-5.374h17.908c2.969,0,2.689,2.406,2.689,5.374V23.283z"/>
<polygon fill="#F1F2F2" points="89.594,15.263 83.969,15.263 83.969,9.633 79.916,9.633 79.916,15.263 74.289,15.263 74.289,19.314 
	79.916,19.314 79.916,24.939 83.969,24.939 83.969,19.314 89.594,19.314 "/>
<rect x="99.418" display="none" fill="#FFF200" width="2" height="33"/>
</svg>
