<?xml version="1.0" encoding="utf-8"?>
<!-- Generator: Adobe Illustrator 15.0.0, SVG Export Plug-In  -->
<!DOCTYPE svg PUBLIC "-//W3C//DTD SVG 1.1//EN" "http://www.w3.org/Graphics/SVG/1.1/DTD/svg11.dtd" [
	<!ENTITY ns_flows "http://ns.adobe.com/Flows/1.0/">
]>
<svg version="1.1"
	 xmlns="http://www.w3.org/2000/svg" xmlns:xlink="http://www.w3.org/1999/xlink" xmlns:a="http://ns.adobe.com/AdobeSVGViewerExtensions/3.0/"
	 x="0px" y="0px" width="101px" height="33px" viewBox="0 0 101 33" enable-background="new 0 0 101 33" xml:space="preserve">
<defs>
</defs>
<rect display="none" fill="#FFF200" width="2" height="33"/>
<rect x="50.846" display="none" fill="#FFF200" width="2" height="33"/>
<rect x="2.011" fill="#C8691C" width="97.405" height="33"/>
<rect x="2.011" fill="#F79523" width="97.405" height="16.7"/>
<path fill="#E6E7E8" d="M91.854,21.438c0.453,2.933,1.094,5.268-1.838,5.722l-17.703,2.726c-2.934,0.451-3.025-1.974-3.477-4.904
	L66.93,12.591c-0.449-2.933-1.094-5.27,1.842-5.719l17.699-2.728c2.936-0.447,3.025,1.971,3.475,4.905L91.854,21.438z"/>
<path fill="#52CAF5" d="M93.586,23.283c0,2.966,0.279,5.372-2.689,5.372H72.988c-2.971,0-2.689-2.406-2.689-5.372V10.746
	c0-2.968-0.281-5.374,2.689-5.374h17.908c2.969,0,2.689,2.406,2.689,5.374V23.283z"/>
<polygon fill="#F1F2F2" points="89.594,15.263 83.969,15.263 83.969,9.633 79.916,9.633 79.916,15.263 74.289,15.263 74.289,19.314 
	79.916,19.314 79.916,24.939 83.969,24.939 83.969,19.314 89.594,19.314 "/>
<rect x="99.418" display="none" fill="#FFF200" width="2" height="33"/>
<path fill="#FFFFFF" d="M8.6,10.934l-1.245-0.225c0.14-0.502,0.381-0.873,0.723-1.113c0.342-0.242,0.85-0.361,1.523-0.361
	c0.612,0,1.068,0.072,1.367,0.217s0.51,0.328,0.632,0.553c0.122,0.223,0.183,0.631,0.183,1.227l-0.015,1.602
	c0,0.457,0.022,0.793,0.066,1.01c0.044,0.215,0.126,0.447,0.247,0.695h-1.357c-0.036-0.092-0.08-0.227-0.132-0.406
	c-0.023-0.08-0.039-0.135-0.049-0.16c-0.234,0.227-0.485,0.398-0.752,0.512c-0.267,0.115-0.552,0.172-0.854,0.172
	c-0.534,0-0.955-0.145-1.262-0.436c-0.308-0.289-0.461-0.656-0.461-1.098c0-0.293,0.07-0.555,0.21-0.783
	c0.14-0.23,0.336-0.406,0.588-0.527c0.252-0.123,0.616-0.23,1.091-0.32c0.641-0.121,1.085-0.232,1.333-0.338v-0.137
	c0-0.264-0.065-0.451-0.195-0.563c-0.13-0.113-0.376-0.17-0.737-0.17c-0.244,0-0.435,0.049-0.571,0.145S8.685,10.691,8.6,10.934z
	 M10.436,12.047c-0.176,0.059-0.454,0.129-0.835,0.209c-0.381,0.082-0.63,0.162-0.747,0.24c-0.179,0.127-0.269,0.287-0.269,0.482
	c0,0.193,0.072,0.359,0.215,0.498c0.143,0.141,0.326,0.211,0.547,0.211c0.248,0,0.483-0.082,0.708-0.244
	c0.166-0.125,0.275-0.275,0.327-0.455c0.036-0.117,0.054-0.34,0.054-0.668V12.047z"/>
<path fill="#FFFFFF" d="M17.892,14.537h-1.274v-0.762c-0.211,0.295-0.461,0.516-0.75,0.662c-0.288,0.145-0.579,0.217-0.872,0.217
	c-0.596,0-1.106-0.24-1.531-0.721s-0.637-1.15-0.637-2.01c0-0.879,0.207-1.547,0.62-2.004s0.936-0.686,1.567-0.686
	c0.58,0,1.081,0.24,1.504,0.723V7.379h1.372V14.537z M14.23,11.832c0,0.553,0.077,0.953,0.229,1.201
	c0.221,0.357,0.531,0.537,0.928,0.537c0.316,0,0.584-0.135,0.806-0.402c0.221-0.27,0.332-0.67,0.332-1.205
	c0-0.596-0.107-1.023-0.322-1.285c-0.215-0.264-0.49-0.395-0.825-0.395c-0.326,0-0.598,0.131-0.818,0.389
	C14.34,10.932,14.23,11.316,14.23,11.832z"/>
<path fill="#FFFFFF" d="M24,14.537h-1.274v-0.762c-0.211,0.295-0.461,0.516-0.75,0.662c-0.288,0.145-0.579,0.217-0.872,0.217
	c-0.596,0-1.106-0.24-1.531-0.721s-0.637-1.15-0.637-2.01c0-0.879,0.207-1.547,0.62-2.004s0.936-0.686,1.567-0.686
	c0.58,0,1.081,0.24,1.504,0.723V7.379H24V14.537z M20.338,11.832c0,0.553,0.077,0.953,0.229,1.201
	c0.221,0.357,0.531,0.537,0.928,0.537c0.316,0,0.584-0.135,0.806-0.402c0.221-0.27,0.332-0.67,0.332-1.205
	c0-0.596-0.107-1.023-0.322-1.285c-0.215-0.264-0.49-0.395-0.825-0.395c-0.326,0-0.598,0.131-0.818,0.389
	C20.448,10.932,20.338,11.316,20.338,11.832z"/>
<path fill="#FFFFFF" d="M7.516,23.537v-7.158h1.372v2.578c0.423-0.482,0.924-0.723,1.504-0.723c0.631,0,1.154,0.229,1.567,0.686
	s0.62,1.113,0.62,1.971c0,0.885-0.211,1.566-0.632,2.045s-0.934,0.719-1.536,0.719c-0.296,0-0.588-0.074-0.876-0.223
	s-0.536-0.367-0.745-0.656v0.762H7.516z M8.878,20.832c0,0.537,0.084,0.934,0.254,1.191c0.238,0.363,0.553,0.547,0.947,0.547
	c0.303,0,0.561-0.129,0.774-0.389c0.213-0.258,0.32-0.666,0.32-1.223c0-0.594-0.107-1.02-0.322-1.281
	c-0.215-0.264-0.49-0.395-0.825-0.395c-0.329,0-0.602,0.129-0.82,0.385C8.987,19.922,8.878,20.311,8.878,20.832z"/>
<path fill="#FFFFFF" d="M13.366,20.871c0-0.457,0.112-0.896,0.337-1.324c0.225-0.426,0.543-0.752,0.955-0.977
	s0.872-0.336,1.379-0.336c0.785,0,1.427,0.254,1.929,0.764s0.752,1.152,0.752,1.932c0,0.783-0.253,1.434-0.759,1.951
	c-0.506,0.516-1.144,0.773-1.912,0.773c-0.475,0-0.929-0.107-1.36-0.322s-0.759-0.529-0.984-0.945
	C13.478,21.973,13.366,21.467,13.366,20.871z M14.772,20.943c0,0.516,0.122,0.908,0.366,1.182s0.545,0.41,0.903,0.41
	s0.658-0.137,0.901-0.41s0.364-0.67,0.364-1.191c0-0.508-0.121-0.898-0.364-1.172s-0.543-0.41-0.901-0.41s-0.659,0.137-0.903,0.41
	S14.772,20.43,14.772,20.943z"/>
<path fill="#FFFFFF" d="M19.132,23.537l1.87-2.672l-1.792-2.514h1.675l0.918,1.426l0.967-1.426h1.611l-1.758,2.455l1.919,2.73
	h-1.685l-1.055-1.607l-1.064,1.607H19.132z"/>
</svg>
