<?xml version="1.0" encoding="utf-8"?>
<!-- Generator: Adobe Illustrator 15.0.0, SVG Export Plug-In  -->
<!DOCTYPE svg PUBLIC "-//W3C//DTD SVG 1.1//EN" "http://www.w3.org/Graphics/SVG/1.1/DTD/svg11.dtd" [
	<!ENTITY ns_flows "http://ns.adobe.com/Flows/1.0/">
]>
<svg version="1.1"
	 xmlns="http://www.w3.org/2000/svg" xmlns:xlink="http://www.w3.org/1999/xlink" xmlns:a="http://ns.adobe.com/AdobeSVGViewerExtensions/3.0/"
	 x="0px" y="0px" width="53px" height="33px" viewBox="0 0 53 33" enable-background="new 0 0 53 33" xml:space="preserve">
<defs>
</defs>
<rect display="none" fill="#FFF200" width="2" height="33"/>
<rect x="50.927" display="none" fill="#FFF200" width="2" height="33"/>
<rect x="2.01" y="0.025" fill="#C8691C" width="48.901" height="33"/>
<rect x="2.01" y="0.025" fill="#F79523" width="48.901" height="16.7"/>
<path fill="#FCB51E" d="M5.879,28.49l4.34,0.838c0.219,0.045,0.373,0.094,0.458,0.159c0.089,0.061,0.152,0.153,0.193,0.279
	c0.051,0.158,0.038,0.316-0.037,0.466c-0.077,0.156-0.191,0.256-0.342,0.308c-0.1,0.032-0.268,0.023-0.503-0.021l-6.469-1.26
	l4.486-4.832c0.163-0.172,0.293-0.274,0.389-0.308c0.156-0.049,0.31-0.034,0.459,0.042c0.154,0.08,0.256,0.196,0.308,0.354
	c0.042,0.126,0.044,0.237,0.009,0.34c-0.035,0.103-0.128,0.233-0.28,0.396L5.879,28.49z"/>
<path fill="#FCB51E" d="M13.813,25.392c-0.221-0.056-0.445-0.079-0.666-0.07c-0.222,0.01-0.443,0.052-0.664,0.121
	c-0.44,0.145-0.764,0.331-0.976,0.555c-0.093,0.103-0.128,0.191-0.105,0.264c0.028,0.086,0.133,0.142,0.314,0.175
	c0.138,0.019,0.419-0.01,0.846-0.089c0.788-0.14,1.344-0.21,1.675-0.2c0.431,0.009,0.797,0.116,1.095,0.316
	c0.298,0.2,0.496,0.452,0.594,0.75c0.13,0.405,0.063,0.807-0.205,1.193c-0.384,0.563-0.987,0.976-1.808,1.244
	c-0.326,0.106-0.641,0.179-0.937,0.212c-0.298,0.034-0.582,0.03-0.85-0.003c-0.04,0.065-0.086,0.121-0.142,0.168
	c-0.054,0.047-0.114,0.084-0.179,0.103c-0.177,0.061-0.338,0.044-0.482-0.037c-0.142-0.084-0.259-0.261-0.347-0.531l-0.124-0.387
	c-0.088-0.271-0.1-0.484-0.032-0.634c0.067-0.149,0.186-0.252,0.356-0.308c0.135-0.044,0.264-0.047,0.38,0
	c0.117,0.047,0.23,0.154,0.342,0.321c0.222,0.091,0.468,0.136,0.734,0.131c0.271-0.005,0.562-0.056,0.881-0.158
	c0.52-0.173,0.896-0.387,1.132-0.639c0.109-0.128,0.151-0.232,0.124-0.321c-0.049-0.149-0.187-0.24-0.412-0.271
	c-0.229-0.032-0.659,0.019-1.295,0.149c-0.941,0.202-1.61,0.214-2.006,0.042c-0.396-0.168-0.657-0.452-0.785-0.848
	c-0.131-0.406-0.07-0.797,0.184-1.179c0.347-0.522,0.895-0.906,1.647-1.151c0.264-0.086,0.524-0.14,0.783-0.172
	c0.256-0.028,0.513-0.028,0.769,0.004c0.051-0.074,0.107-0.135,0.158-0.177c0.054-0.047,0.105-0.079,0.156-0.098
	c0.156-0.047,0.305-0.033,0.445,0.051c0.14,0.079,0.256,0.259,0.345,0.531l0.091,0.279c0.08,0.247,0.105,0.425,0.075,0.531
	c-0.063,0.21-0.196,0.345-0.398,0.41c-0.135,0.047-0.27,0.042-0.4-0.009C13.993,25.61,13.888,25.522,13.813,25.392z"/>
<path fill="#FCB51E" d="M19.663,22.242c0.093-0.175,0.212-0.284,0.356-0.331c0.163-0.054,0.314-0.037,0.458,0.042
	c0.143,0.084,0.256,0.259,0.345,0.529l0.237,0.729c0.088,0.275,0.1,0.484,0.033,0.634s-0.187,0.252-0.356,0.308
	c-0.156,0.051-0.3,0.047-0.436-0.005c-0.1-0.042-0.205-0.158-0.317-0.35c-0.109-0.188-0.266-0.308-0.471-0.35
	c-0.356-0.081-0.766-0.046-1.232,0.107c-0.534,0.173-0.914,0.471-1.135,0.89c-0.219,0.417-0.251,0.867-0.095,1.347
	c0.144,0.442,0.412,0.743,0.806,0.899c0.394,0.153,0.951,0.116,1.67-0.121c0.473-0.153,0.843-0.326,1.111-0.518
	c0.158-0.116,0.293-0.274,0.405-0.47c0.112-0.191,0.233-0.308,0.363-0.35c0.156-0.052,0.308-0.037,0.457,0.037
	c0.151,0.079,0.25,0.195,0.301,0.35c0.082,0.251-0.012,0.545-0.282,0.885c-0.4,0.501-1.09,0.913-2.073,1.23
	c-0.883,0.288-1.628,0.328-2.239,0.126c-0.824-0.275-1.374-0.842-1.654-1.691c-0.263-0.811-0.212-1.565,0.154-2.273
	c0.368-0.704,0.985-1.198,1.854-1.482c0.312-0.103,0.615-0.167,0.901-0.195C19.116,22.19,19.393,22.198,19.663,22.242z"/>
<path fill="#FCB51E" d="M23.262,20.845l0.23,0.708c0.363-0.499,0.666-0.849,0.904-1.053c0.238-0.205,0.475-0.35,0.715-0.429
	c0.37-0.117,0.771-0.099,1.209,0.064c0.296,0.107,0.475,0.257,0.538,0.447c0.054,0.163,0.04,0.319-0.035,0.469
	c-0.074,0.151-0.193,0.249-0.352,0.301c-0.14,0.046-0.312,0.022-0.513-0.065c-0.2-0.089-0.361-0.116-0.482-0.075
	c-0.159,0.052-0.364,0.229-0.615,0.531c-0.251,0.301-0.547,0.728-0.89,1.281l0.559,1.71l1.617-0.526
	c0.272-0.089,0.484-0.098,0.633-0.032c0.152,0.065,0.254,0.187,0.308,0.358c0.056,0.163,0.042,0.317-0.042,0.461
	c-0.079,0.145-0.256,0.259-0.531,0.35l-3.429,1.113c-0.272,0.089-0.484,0.103-0.634,0.033c-0.151-0.065-0.254-0.187-0.31-0.354
	c-0.054-0.165-0.04-0.321,0.042-0.461c0.082-0.145,0.258-0.261,0.533-0.35l0.676-0.219l-0.899-2.763l-0.41,0.135
	c-0.275,0.089-0.484,0.103-0.636,0.033c-0.149-0.065-0.251-0.185-0.308-0.354c-0.054-0.168-0.04-0.321,0.04-0.466
	c0.084-0.14,0.261-0.257,0.536-0.345L23.262,20.845z"/>
<path fill="#FCB51E" d="M29.731,18.733l1.268,3.896l1.363-0.442c0.272-0.089,0.482-0.103,0.636-0.033
	c0.149,0.065,0.254,0.182,0.308,0.354c0.056,0.168,0.04,0.321-0.042,0.463c-0.084,0.143-0.259,0.259-0.531,0.348l-3.862,1.258
	c-0.27,0.089-0.484,0.101-0.634,0.032c-0.151-0.067-0.254-0.186-0.31-0.356c-0.054-0.165-0.04-0.318,0.044-0.463
	c0.079-0.143,0.258-0.257,0.531-0.345l1.363-0.445l-0.899-2.761l-0.916,0.299c-0.268,0.088-0.478,0.1-0.631,0.032
	c-0.151-0.065-0.256-0.184-0.31-0.354c-0.056-0.168-0.04-0.322,0.04-0.467c0.084-0.14,0.261-0.256,0.534-0.345L29.731,18.733z
	 M28.874,16.633l0.391,1.202l-1.351,0.438l-0.391-1.199L28.874,16.633z"/>
<path fill="#FCB51E" d="M34.863,21.935l0.605,1.859l0.683-0.22c0.272-0.088,0.484-0.103,0.634-0.032
	c0.151,0.065,0.254,0.182,0.31,0.354c0.054,0.162,0.04,0.318-0.042,0.461c-0.082,0.145-0.258,0.261-0.531,0.35l-2.013,0.654
	c-0.272,0.089-0.482,0.101-0.636,0.035c-0.149-0.07-0.251-0.187-0.305-0.354c-0.056-0.168-0.042-0.326,0.044-0.468
	c0.083-0.147,0.258-0.259,0.529-0.348l0.195-0.061l-1.67-5.134l-0.196,0.065c-0.275,0.088-0.484,0.102-0.638,0.032
	c-0.149-0.065-0.252-0.185-0.308-0.354c-0.054-0.167-0.04-0.321,0.042-0.466c0.084-0.14,0.261-0.256,0.533-0.345l1.33-0.433
	l0.126,0.386c0.205-0.268,0.438-0.493,0.692-0.673c0.256-0.184,0.534-0.321,0.834-0.422c0.776-0.251,1.521-0.2,2.239,0.149
	c0.717,0.345,1.183,0.857,1.407,1.537c0.243,0.75,0.124,1.473-0.363,2.172c-0.405,0.582-0.946,0.982-1.626,1.206
	c-0.289,0.094-0.592,0.145-0.904,0.149C35.522,22.046,35.201,22.009,34.863,21.935z M37.596,18.888
	c-0.051-0.158-0.18-0.34-0.387-0.545c-0.205-0.205-0.466-0.35-0.778-0.429c-0.314-0.079-0.647-0.061-0.997,0.056
	c-0.563,0.182-0.946,0.54-1.139,1.071c-0.128,0.368-0.151,0.686-0.063,0.951c0.098,0.307,0.356,0.547,0.773,0.727
	c0.415,0.182,0.862,0.195,1.337,0.042c0.48-0.158,0.836-0.432,1.063-0.82C37.635,19.554,37.698,19.199,37.596,18.888z"/>
<path fill="#FCB51E" d="M40.601,16.448l0.741,2.276c0.08,0.244,0.184,0.387,0.308,0.438c0.193,0.07,0.492,0.037,0.892-0.093
	c0.578-0.187,1.074-0.484,1.482-0.895c0.161-0.154,0.291-0.249,0.398-0.284c0.147-0.047,0.294-0.037,0.438,0.037
	c0.145,0.074,0.242,0.193,0.293,0.354c0.049,0.148,0.033,0.293-0.051,0.438c-0.125,0.233-0.428,0.51-0.915,0.829
	c-0.487,0.321-0.911,0.536-1.274,0.657c-0.708,0.229-1.286,0.252-1.738,0.061c-0.452-0.191-0.75-0.506-0.895-0.95l-0.815-2.497
	l-0.405,0.133c-0.275,0.091-0.487,0.102-0.638,0.034c-0.149-0.067-0.252-0.187-0.308-0.354c-0.054-0.168-0.042-0.321,0.042-0.466
	c0.082-0.145,0.258-0.262,0.533-0.35l0.408-0.131l-0.333-1.024c-0.091-0.275-0.1-0.487-0.03-0.639
	c0.065-0.149,0.184-0.252,0.354-0.308c0.166-0.056,0.319-0.042,0.464,0.042c0.142,0.082,0.258,0.259,0.347,0.533l0.335,1.023
	l2.097-0.681c0.275-0.093,0.487-0.103,0.636-0.035c0.151,0.067,0.254,0.187,0.31,0.356c0.054,0.163,0.042,0.321-0.042,0.462
	c-0.082,0.144-0.261,0.261-0.536,0.349L40.601,16.448z"/>
<path fill="#FCB51E" d="M47.969,14.778l-4.34-0.839c-0.221-0.042-0.373-0.093-0.461-0.158c-0.086-0.061-0.151-0.153-0.193-0.279
	c-0.051-0.158-0.038-0.313,0.04-0.466c0.077-0.151,0.193-0.252,0.349-0.303c0.093-0.033,0.261-0.023,0.494,0.016l6.467,1.263
	l-4.482,4.829c-0.163,0.177-0.294,0.279-0.389,0.31c-0.156,0.049-0.31,0.038-0.459-0.039c-0.154-0.077-0.256-0.198-0.31-0.359
	c-0.04-0.125-0.042-0.237-0.009-0.34c0.035-0.103,0.128-0.232,0.28-0.396L47.969,14.778z"/>
<path fill="#FFFFFF" d="M19.535,8.421L17.92,8.712c-0.054-0.321-0.177-0.565-0.368-0.729s-0.442-0.242-0.75-0.242
	c-0.405,0-0.731,0.14-0.974,0.421c-0.242,0.282-0.363,0.753-0.363,1.412c0,0.733,0.121,1.251,0.368,1.554
	c0.247,0.303,0.578,0.457,0.993,0.457c0.312,0,0.566-0.089,0.764-0.266c0.198-0.178,0.337-0.48,0.419-0.914l1.607,0.275
	c-0.167,0.738-0.487,1.295-0.959,1.673c-0.476,0.375-1.109,0.563-1.906,0.563c-0.904,0-1.626-0.284-2.162-0.857
	c-0.541-0.568-0.809-1.36-0.809-2.369c0-1.021,0.271-1.816,0.809-2.386c0.541-0.568,1.272-0.853,2.189-0.853
	c0.755,0,1.354,0.163,1.798,0.487C19.02,7.264,19.341,7.757,19.535,8.421z"/>
<path fill="#FFFFFF" d="M20.397,9.598c0-0.543,0.132-1.069,0.403-1.577c0.266-0.511,0.647-0.899,1.137-1.165
	c0.492-0.271,1.039-0.403,1.645-0.403c0.937,0,1.706,0.304,2.302,0.911c0.596,0.608,0.897,1.377,0.897,2.304
	c0,0.937-0.301,1.713-0.906,2.327c-0.604,0.615-1.363,0.923-2.278,0.923c-0.568,0-1.109-0.128-1.622-0.385
	c-0.517-0.256-0.908-0.631-1.174-1.127C20.529,10.911,20.397,10.308,20.397,9.598z M22.074,9.684c0,0.615,0.146,1.086,0.436,1.412
	c0.293,0.326,0.652,0.489,1.079,0.489s0.785-0.163,1.074-0.489s0.433-0.802,0.433-1.422c0-0.605-0.144-1.071-0.433-1.397
	s-0.647-0.489-1.074-0.489S22.803,7.95,22.51,8.276C22.221,8.603,22.074,9.071,22.074,9.684z"/>
<path fill="#FFFFFF" d="M33.733,12.777h-1.519v-0.908c-0.254,0.354-0.55,0.617-0.895,0.789c-0.345,0.173-0.689,0.259-1.039,0.259
	c-0.713,0-1.318-0.286-1.826-0.859s-0.759-1.372-0.759-2.397c0-1.048,0.247-1.845,0.738-2.39c0.492-0.546,1.116-0.818,1.871-0.818
	c0.689,0,1.288,0.287,1.794,0.862V4.239h1.635V12.777z M29.365,9.551c0,0.659,0.091,1.137,0.273,1.433
	c0.265,0.427,0.633,0.641,1.108,0.641c0.375,0,0.694-0.161,0.96-0.479c0.266-0.322,0.396-0.8,0.396-1.438
	c0-0.708-0.128-1.221-0.384-1.533c-0.256-0.312-0.585-0.471-0.985-0.471c-0.387,0-0.713,0.156-0.974,0.464
	C29.498,8.477,29.365,8.938,29.365,9.551z"/>
<path fill="#FFFFFF" d="M38.928,10.809l1.63,0.272c-0.209,0.599-0.541,1.056-0.992,1.367c-0.452,0.313-1.021,0.469-1.698,0.469
	c-1.074,0-1.871-0.352-2.388-1.053c-0.408-0.564-0.61-1.274-0.61-2.134c0-1.025,0.266-1.826,0.801-2.406s1.216-0.872,2.034-0.872
	c0.92,0,1.647,0.304,2.178,0.911c0.531,0.608,0.787,1.54,0.764,2.793h-4.1c0.009,0.484,0.142,0.862,0.396,1.133
	c0.251,0.27,0.566,0.405,0.941,0.405c0.256,0,0.473-0.07,0.648-0.21C38.707,11.345,38.839,11.118,38.928,10.809z M39.021,9.154
	c-0.012-0.473-0.135-0.833-0.368-1.08s-0.515-0.371-0.848-0.371c-0.359,0-0.652,0.131-0.885,0.392s-0.349,0.612-0.345,1.06H39.021z"
	/>
</svg>
