<?xml version="1.0" encoding="utf-8"?>
<svg version="1.1"
	 xmlns="http://www.w3.org/2000/svg" xmlns:xlink="http://www.w3.org/1999/xlink"
	 x="0px" y="0px" width="102px" height="33px" viewBox="0 0 102 33">
<defs>
</defs>
<rect x="2.026" fill="#C8691C" width="97.961" height="33"/>
<rect x="2.026" fill="#F79523" width="97.934" height="16.645"/>
<path fill="#FFFFFF" stroke="#838484" stroke-width="0.5" stroke-miterlimit="10" d="M85.955,27.294
	c-1.1,1.857-3.307,2.582-4.939,1.618l-10.619-6.273c-1.627-0.963-2.063-3.248-0.966-5.103l7.142-12.092
	c1.096-1.854,3.304-2.576,4.934-1.611l10.619,6.269c1.633,0.964,2.064,3.25,0.968,5.104L85.955,27.294z"/>
<linearGradient id="SVGID_1_" gradientUnits="userSpaceOnUse" x1="78.2891" y1="21.6523" x2="85.556" y2="8.7526">
	<stop  offset="0" style="stop-color:#FFFFFF"/>
	<stop  offset="1" style="stop-color:#E9EAEB"/>
</linearGradient>
<path fill="url(#SVGID_1_)" d="M85.017,25.109c-0.877,1.485-2.645,2.064-3.949,1.29l-8.497-5.014
	c-1.301-0.771-1.651-2.598-0.771-4.079l5.711-9.675c0.876-1.481,2.646-2.062,3.947-1.292l8.495,5.016
	c1.306,0.771,1.653,2.601,0.776,4.082L85.017,25.109z"/>
<linearGradient id="SVGID_2_" gradientUnits="userSpaceOnUse" x1="80.2715" y1="11.6201" x2="80.2834" y2="20.9657">
	<stop  offset="0" style="stop-color:#3268B2"/>
	<stop  offset="1" style="stop-color:#253C7F"/>
</linearGradient>
<path fill="url(#SVGID_2_)" d="M84.814,11.04h-4.477c0,0-4.731,0.399-4.731,5.145c0,5.052,4.799,5.233,4.799,5.233h4.546v-2.916
	h-4.747c0,0-1.594-0.184-1.594-2.257c0-1.985,1.728-2.085,1.728-2.085h4.342L84.814,11.04z"/>
<path fill="#FFFFFF" d="M12.967,10.589l-1.353,0.244c-0.045-0.27-0.149-0.473-0.31-0.609s-0.37-0.205-0.627-0.205
	c-0.342,0-0.614,0.117-0.818,0.354s-0.305,0.631-0.305,1.184c0,0.615,0.104,1.051,0.31,1.305s0.484,0.381,0.833,0.381
	c0.26,0,0.474-0.074,0.64-0.223s0.283-0.402,0.352-0.764l1.348,0.229c-0.14,0.619-0.409,1.086-0.806,1.402
	c-0.397,0.314-0.929,0.473-1.597,0.473c-0.758,0-1.363-0.238-1.814-0.717s-0.676-1.141-0.676-1.988c0-0.855,0.226-1.521,0.679-2
	c0.453-0.477,1.064-0.715,1.836-0.715c0.631,0,1.134,0.137,1.506,0.408S12.805,10.032,12.967,10.589z"/>
<path fill="#FFFFFF" d="M13.69,11.575c0-0.455,0.112-0.896,0.337-1.322c0.225-0.428,0.543-0.752,0.955-0.977
	s0.872-0.338,1.379-0.338c0.785,0,1.427,0.256,1.929,0.764c0.501,0.51,0.752,1.154,0.752,1.932c0,0.785-0.253,1.436-0.759,1.951
	s-1.144,0.773-1.912,0.773c-0.475,0-0.929-0.107-1.36-0.322s-0.759-0.529-0.984-0.945C13.802,12.677,13.69,12.171,13.69,11.575z
	 M15.096,11.649c0,0.514,0.122,0.908,0.366,1.182s0.545,0.41,0.903,0.41s0.658-0.137,0.901-0.41s0.364-0.672,0.364-1.191
	c0-0.508-0.121-0.898-0.364-1.172s-0.543-0.41-0.901-0.41s-0.659,0.137-0.903,0.41S15.096,11.134,15.096,11.649z"/>
<path fill="#FFFFFF" d="M20.013,9.056h1.265v0.709c0.453-0.551,0.991-0.826,1.616-0.826c0.332,0,0.62,0.068,0.864,0.205
	s0.444,0.344,0.601,0.621c0.228-0.277,0.474-0.484,0.737-0.621s0.545-0.205,0.845-0.205c0.381,0,0.703,0.078,0.967,0.232
	s0.46,0.381,0.591,0.682c0.094,0.221,0.142,0.578,0.142,1.074v3.314h-1.372v-2.963c0-0.516-0.047-0.848-0.142-0.996
	C26,10.087,25.804,9.989,25.541,9.989c-0.192,0-0.373,0.059-0.542,0.176s-0.292,0.289-0.366,0.514
	c-0.075,0.227-0.112,0.584-0.112,1.072v2.49h-1.372v-2.842c0-0.504-0.024-0.83-0.073-0.977s-0.125-0.256-0.227-0.326
	c-0.103-0.072-0.242-0.107-0.417-0.107c-0.211,0-0.402,0.057-0.571,0.17c-0.169,0.115-0.291,0.279-0.364,0.494
	s-0.11,0.57-0.11,1.068v2.52h-1.372V9.056z"/>
<path fill="#FFFFFF" d="M33.529,10.589l-1.353,0.244c-0.045-0.27-0.149-0.473-0.31-0.609s-0.37-0.205-0.627-0.205
	c-0.342,0-0.614,0.117-0.818,0.354s-0.305,0.631-0.305,1.184c0,0.615,0.104,1.051,0.31,1.305s0.484,0.381,0.833,0.381
	c0.26,0,0.474-0.074,0.64-0.223s0.283-0.402,0.352-0.764l1.348,0.229c-0.14,0.619-0.409,1.086-0.806,1.402
	c-0.397,0.314-0.929,0.473-1.597,0.473c-0.758,0-1.363-0.238-1.814-0.717s-0.676-1.141-0.676-1.988c0-0.855,0.226-1.521,0.679-2
	c0.453-0.477,1.064-0.715,1.836-0.715c0.631,0,1.134,0.137,1.506,0.408S33.366,10.032,33.529,10.589z"/>
<path fill="#FFFFFF" d="M34.251,11.575c0-0.455,0.112-0.896,0.337-1.322c0.225-0.428,0.543-0.752,0.955-0.977
	s0.872-0.338,1.379-0.338c0.785,0,1.427,0.256,1.929,0.764c0.501,0.51,0.752,1.154,0.752,1.932c0,0.785-0.253,1.436-0.759,1.951
	s-1.144,0.773-1.912,0.773c-0.475,0-0.929-0.107-1.36-0.322s-0.759-0.529-0.984-0.945C34.364,12.677,34.251,12.171,34.251,11.575z
	 M35.658,11.649c0,0.514,0.122,0.908,0.366,1.182s0.545,0.41,0.903,0.41s0.658-0.137,0.901-0.41s0.364-0.672,0.364-1.191
	c0-0.508-0.121-0.898-0.364-1.172s-0.543-0.41-0.901-0.41s-0.659,0.137-0.903,0.41S35.658,11.134,35.658,11.649z"/>
<path fill="#FFFFFF" d="M45.433,14.241h-1.274v-0.762c-0.211,0.297-0.461,0.518-0.75,0.662s-0.579,0.217-0.872,0.217
	c-0.596,0-1.106-0.24-1.531-0.721c-0.425-0.479-0.637-1.148-0.637-2.008c0-0.879,0.207-1.547,0.62-2.006
	c0.414-0.457,0.936-0.686,1.567-0.686c0.58,0,1.081,0.242,1.504,0.723V7.083h1.372V14.241z M41.771,11.536
	c0,0.555,0.077,0.955,0.229,1.201c0.221,0.359,0.531,0.537,0.928,0.537c0.316,0,0.584-0.135,0.806-0.402
	c0.221-0.27,0.332-0.67,0.332-1.203c0-0.596-0.107-1.025-0.322-1.287s-0.49-0.393-0.825-0.393c-0.326,0-0.598,0.129-0.818,0.387
	C41.881,10.636,41.771,11.022,41.771,11.536z"/>
<path fill="#FFFFFF" d="M49.789,12.591l1.367,0.23c-0.176,0.5-0.453,0.883-0.833,1.145s-0.854,0.393-1.423,0.393
	c-0.902,0-1.569-0.295-2.002-0.883c-0.342-0.473-0.513-1.068-0.513-1.787c0-0.859,0.225-1.533,0.674-2.02s1.017-0.73,1.704-0.73
	c0.771,0,1.38,0.256,1.826,0.764c0.446,0.51,0.659,1.291,0.64,2.342h-3.438c0.01,0.408,0.121,0.725,0.332,0.949
	c0.211,0.227,0.475,0.34,0.791,0.34c0.215,0,0.396-0.059,0.542-0.176S49.714,12.853,49.789,12.591z M49.867,11.204
	c-0.01-0.396-0.112-0.699-0.308-0.906c-0.195-0.205-0.433-0.309-0.713-0.309c-0.299,0-0.547,0.109-0.742,0.326
	c-0.195,0.219-0.292,0.516-0.288,0.889H49.867z"/>
<path fill="#FFFFFF" d="M52.611,10.429V9.056h1.372v1.373H52.611z M52.611,14.241V12.87h1.372v1.371H52.611z"/>
<path fill="#FFFFFF" d="M9.471,19.638l-1.245-0.225c0.14-0.5,0.381-0.871,0.723-1.113c0.342-0.24,0.85-0.361,1.523-0.361
	c0.612,0,1.068,0.072,1.367,0.217c0.299,0.146,0.51,0.33,0.632,0.553s0.183,0.633,0.183,1.229l-0.015,1.602
	c0,0.455,0.022,0.791,0.066,1.008s0.126,0.449,0.247,0.695h-1.357c-0.036-0.09-0.08-0.227-0.132-0.404
	c-0.023-0.082-0.039-0.135-0.049-0.162c-0.234,0.229-0.485,0.398-0.752,0.514c-0.267,0.113-0.552,0.17-0.854,0.17
	c-0.534,0-0.955-0.145-1.262-0.434c-0.308-0.291-0.461-0.656-0.461-1.1c0-0.293,0.07-0.555,0.21-0.783
	c0.14-0.23,0.336-0.406,0.588-0.527c0.252-0.123,0.616-0.229,1.091-0.32c0.641-0.119,1.085-0.232,1.333-0.336v-0.137
	c0-0.264-0.065-0.453-0.195-0.564c-0.13-0.113-0.376-0.168-0.737-0.168c-0.244,0-0.435,0.047-0.571,0.143
	C9.667,19.229,9.556,19.397,9.471,19.638z M11.307,20.751c-0.176,0.059-0.454,0.129-0.835,0.211c-0.381,0.08-0.63,0.16-0.747,0.238
	c-0.179,0.127-0.269,0.289-0.269,0.484c0,0.191,0.072,0.357,0.215,0.498c0.143,0.139,0.326,0.209,0.547,0.209
	c0.248,0,0.483-0.08,0.708-0.244c0.166-0.123,0.275-0.275,0.327-0.453c0.036-0.117,0.054-0.34,0.054-0.67V20.751z"/>
<path fill="#FFFFFF" d="M18.763,23.241h-1.274v-0.762c-0.211,0.297-0.461,0.518-0.75,0.662s-0.579,0.217-0.872,0.217
	c-0.596,0-1.106-0.24-1.531-0.721c-0.425-0.479-0.637-1.148-0.637-2.008c0-0.879,0.207-1.547,0.62-2.006
	c0.414-0.457,0.936-0.686,1.567-0.686c0.58,0,1.081,0.242,1.504,0.723v-2.578h1.372V23.241z M15.101,20.536
	c0,0.555,0.077,0.955,0.229,1.201c0.221,0.359,0.531,0.537,0.928,0.537c0.316,0,0.584-0.135,0.806-0.402
	c0.221-0.27,0.332-0.67,0.332-1.203c0-0.596-0.107-1.025-0.322-1.287s-0.49-0.393-0.825-0.393c-0.326,0-0.598,0.129-0.818,0.387
	C15.211,19.636,15.101,20.022,15.101,20.536z"/>
<path fill="#FFFFFF" d="M24.872,23.241h-1.274v-0.762c-0.211,0.297-0.461,0.518-0.75,0.662s-0.579,0.217-0.872,0.217
	c-0.596,0-1.106-0.24-1.531-0.721c-0.425-0.479-0.637-1.148-0.637-2.008c0-0.879,0.207-1.547,0.62-2.006
	c0.414-0.457,0.936-0.686,1.567-0.686c0.58,0,1.081,0.242,1.504,0.723v-2.578h1.372V23.241z M21.209,20.536
	c0,0.555,0.077,0.955,0.229,1.201c0.221,0.359,0.531,0.537,0.928,0.537c0.316,0,0.584-0.135,0.806-0.402
	c0.221-0.27,0.332-0.67,0.332-1.203c0-0.596-0.107-1.025-0.322-1.287s-0.49-0.393-0.825-0.393c-0.326,0-0.598,0.129-0.818,0.387
	C21.319,19.636,21.209,20.022,21.209,20.536z"/>
<path fill="#FFFFFF" d="M31.38,18.056v1.094h-0.938v2.09c0,0.424,0.009,0.67,0.027,0.74s0.059,0.127,0.122,0.174
	c0.063,0.045,0.141,0.068,0.232,0.068c0.127,0,0.311-0.045,0.552-0.133l0.117,1.064c-0.319,0.137-0.68,0.205-1.084,0.205
	c-0.248,0-0.47-0.041-0.669-0.125c-0.199-0.082-0.344-0.189-0.437-0.322c-0.093-0.131-0.157-0.309-0.193-0.533
	c-0.029-0.16-0.044-0.482-0.044-0.967v-2.262h-0.63v-1.094h0.63v-1.029l1.377-0.801v1.83H31.38z"/>
<path fill="#FFFFFF" d="M33.358,19.638l-1.245-0.225c0.14-0.5,0.381-0.871,0.723-1.113c0.342-0.24,0.85-0.361,1.523-0.361
	c0.612,0,1.068,0.072,1.367,0.217c0.299,0.146,0.51,0.33,0.632,0.553s0.183,0.633,0.183,1.229l-0.015,1.602
	c0,0.455,0.022,0.791,0.066,1.008s0.126,0.449,0.247,0.695h-1.357c-0.036-0.09-0.08-0.227-0.132-0.404
	c-0.023-0.082-0.039-0.135-0.049-0.162c-0.234,0.229-0.485,0.398-0.752,0.514c-0.267,0.113-0.552,0.17-0.854,0.17
	c-0.534,0-0.955-0.145-1.262-0.434c-0.308-0.291-0.461-0.656-0.461-1.1c0-0.293,0.07-0.555,0.21-0.783
	c0.14-0.23,0.336-0.406,0.588-0.527c0.252-0.123,0.616-0.229,1.091-0.32c0.641-0.119,1.085-0.232,1.333-0.336v-0.137
	c0-0.264-0.065-0.453-0.195-0.564c-0.13-0.113-0.376-0.168-0.737-0.168c-0.244,0-0.435,0.047-0.571,0.143
	C33.553,19.229,33.442,19.397,33.358,19.638z M35.194,20.751c-0.176,0.059-0.454,0.129-0.835,0.211
	c-0.381,0.08-0.63,0.16-0.747,0.238c-0.179,0.127-0.269,0.289-0.269,0.484c0,0.191,0.072,0.357,0.215,0.498
	c0.143,0.139,0.326,0.209,0.547,0.209c0.248,0,0.483-0.08,0.708-0.244c0.166-0.123,0.275-0.275,0.327-0.453
	c0.036-0.117,0.054-0.34,0.054-0.67V20.751z"/>
<path fill="#FFFFFF" d="M37.767,23.583l1.567,0.191c0.026,0.182,0.086,0.307,0.181,0.375c0.13,0.098,0.335,0.146,0.615,0.146
	c0.358,0,0.626-0.053,0.806-0.16c0.121-0.072,0.211-0.188,0.273-0.348c0.042-0.113,0.063-0.324,0.063-0.629v-0.758
	c-0.41,0.561-0.928,0.84-1.553,0.84c-0.697,0-1.249-0.295-1.655-0.883c-0.319-0.467-0.479-1.045-0.479-1.738
	c0-0.869,0.209-1.533,0.627-1.992s0.938-0.689,1.56-0.689c0.641,0,1.17,0.281,1.587,0.846v-0.729h1.284v4.654
	c0,0.611-0.05,1.068-0.151,1.371s-0.243,0.541-0.425,0.713c-0.182,0.174-0.426,0.309-0.73,0.406s-0.689,0.146-1.155,0.146
	c-0.879,0-1.502-0.15-1.87-0.453c-0.368-0.301-0.552-0.682-0.552-1.145C37.762,23.704,37.764,23.649,37.767,23.583z M38.993,20.542
	c0,0.549,0.106,0.953,0.32,1.207c0.213,0.256,0.476,0.385,0.789,0.385c0.335,0,0.619-0.131,0.85-0.395
	c0.231-0.262,0.347-0.648,0.347-1.164c0-0.537-0.111-0.936-0.332-1.195c-0.221-0.262-0.501-0.391-0.84-0.391
	c-0.329,0-0.6,0.127-0.813,0.383S38.993,20.017,38.993,20.542z"/>
</svg>
