<?xml version="1.0" encoding="utf-8"?>
<!DOCTYPE svg PUBLIC "-//W3C//DTD SVG 1.1//EN" "http://www.w3.org/Graphics/SVG/1.1/DTD/svg11.dtd" [
	<!ENTITY ns_flows "http://ns.adobe.com/Flows/1.0/">
]>
<svg version="1.1"
	 xmlns="http://www.w3.org/2000/svg" xmlns:xlink="http://www.w3.org/1999/xlink"
	 x="0px" y="0px" width="102px" height="33px" viewBox="0 0 102 33">
<defs>
</defs>
<rect display="none" fill="#FFF200" width="2" height="33"/>
<rect x="2.026" fill="#C8691C" width="97.961" height="33"/>
<rect x="2.026" fill="#F79523" width="97.934" height="16.645"/>
<path display="none" fill="#FFFFFF" d="M12.993,10.12l-1.607,0.293c-0.054-0.321-0.177-0.567-0.369-0.729
	c-0.19-0.163-0.44-0.241-0.746-0.241c-0.406,0-0.73,0.139-0.973,0.422c-0.241,0.279-0.362,0.748-0.362,1.408
	c0,0.729,0.124,1.243,0.37,1.546c0.245,0.302,0.574,0.454,0.989,0.454c0.31,0,0.563-0.088,0.761-0.265
	c0.197-0.177,0.336-0.478,0.418-0.909l1.602,0.274c-0.166,0.737-0.485,1.29-0.958,1.666c-0.472,0.377-1.105,0.563-1.898,0.563
	c-0.902,0-1.62-0.283-2.155-0.854c-0.537-0.566-0.805-1.355-0.805-2.359c0-1.017,0.27-1.811,0.807-2.378
	c0.537-0.565,1.265-0.849,2.183-0.849c0.75,0,1.348,0.162,1.79,0.482C12.481,8.969,12.799,9.461,12.993,10.12z"/>
<path display="none" fill="#FFFFFF" d="M13.852,11.295c0-0.543,0.133-1.068,0.401-1.573c0.267-0.507,0.645-0.897,1.135-1.162
	c0.489-0.269,1.035-0.398,1.639-0.398c0.932,0,1.697,0.301,2.292,0.905c0.596,0.608,0.894,1.374,0.894,2.298
	c0,0.934-0.3,1.705-0.902,2.317c-0.603,0.612-1.359,0.92-2.273,0.92c-0.565,0-1.104-0.126-1.616-0.381
	c-0.514-0.256-0.903-0.631-1.17-1.125C13.985,12.604,13.852,12.001,13.852,11.295z M15.524,11.378c0,0.614,0.145,1.083,0.435,1.408
	c0.29,0.324,0.648,0.486,1.074,0.486c0.426,0,0.783-0.162,1.071-0.486c0.289-0.325,0.432-0.8,0.432-1.417
	c0-0.604-0.144-1.067-0.432-1.393c-0.289-0.324-0.645-0.487-1.071-0.487c-0.426,0-0.784,0.163-1.074,0.487
	C15.669,10.302,15.524,10.77,15.524,11.378z"/>
<path display="none" fill="#FFFFFF" d="M21.369,8.3h1.503v0.84c0.538-0.653,1.178-0.979,1.921-0.979c0.395,0,0.737,0.079,1.027,0.24
	c0.291,0.164,0.529,0.409,0.714,0.738c0.271-0.329,0.563-0.574,0.876-0.738c0.313-0.161,0.647-0.24,1.004-0.24
	c0.453,0,0.836,0.093,1.15,0.274c0.313,0.186,0.547,0.454,0.702,0.808c0.113,0.265,0.168,0.69,0.168,1.276v3.941h-1.631v-3.522
	c0-0.608-0.056-1.005-0.168-1.185c-0.15-0.233-0.383-0.35-0.697-0.35c-0.229,0-0.443,0.071-0.644,0.21
	c-0.201,0.14-0.346,0.344-0.435,0.612c-0.09,0.271-0.134,0.697-0.134,1.277v2.957h-1.631v-3.374c0-0.6-0.029-0.989-0.087-1.162
	c-0.058-0.177-0.147-0.307-0.271-0.39c-0.121-0.084-0.287-0.131-0.496-0.131c-0.252,0-0.479,0.071-0.679,0.205
	c-0.201,0.135-0.346,0.33-0.432,0.585C23.042,10.45,23,10.877,23,11.466v2.995h-1.631V8.3z"/>
<path display="none" fill="#FFFFFF" d="M37.435,10.12l-1.608,0.293c-0.055-0.321-0.178-0.567-0.368-0.729
	c-0.193-0.163-0.441-0.241-0.746-0.241c-0.407,0-0.73,0.139-0.972,0.422c-0.243,0.279-0.363,0.748-0.363,1.408
	c0,0.729,0.123,1.243,0.368,1.546c0.246,0.302,0.576,0.454,0.991,0.454c0.309,0,0.563-0.088,0.76-0.265s0.336-0.478,0.418-0.909
	l1.602,0.274c-0.166,0.737-0.484,1.29-0.957,1.666c-0.473,0.377-1.105,0.563-1.898,0.563c-0.902,0-1.621-0.283-2.157-0.854
	c-0.535-0.566-0.803-1.355-0.803-2.359c0-1.017,0.27-1.811,0.807-2.378c0.537-0.565,1.265-0.849,2.183-0.849
	c0.751,0,1.348,0.162,1.791,0.482C36.923,8.969,37.241,9.461,37.435,10.12z"/>
<path display="none" fill="#FFFFFF" d="M38.294,11.295c0-0.543,0.133-1.068,0.4-1.573c0.267-0.507,0.645-0.897,1.134-1.162
	c0.49-0.269,1.038-0.398,1.642-0.398c0.93,0,1.694,0.301,2.292,0.905c0.596,0.608,0.894,1.374,0.894,2.298
	c0,0.934-0.302,1.705-0.903,2.317c-0.602,0.612-1.358,0.92-2.273,0.92c-0.564,0-1.103-0.126-1.617-0.381
	c-0.511-0.256-0.902-0.631-1.168-1.125C38.427,12.604,38.294,12.001,38.294,11.295z M39.965,11.378c0,0.614,0.144,1.083,0.437,1.408
	c0.288,0.324,0.647,0.486,1.073,0.486c0.425,0,0.782-0.162,1.07-0.486c0.288-0.325,0.434-0.8,0.434-1.417
	c0-0.604-0.146-1.067-0.434-1.393c-0.288-0.324-0.646-0.487-1.07-0.487c-0.425,0-0.785,0.163-1.073,0.487
	C40.109,10.302,39.965,10.77,39.965,11.378z"/>
<path display="none" fill="#FFFFFF" d="M51.583,14.461H50.07v-0.905c-0.251,0.354-0.548,0.618-0.892,0.791
	c-0.341,0.171-0.687,0.255-1.035,0.255c-0.708,0-1.314-0.283-1.82-0.854c-0.503-0.572-0.757-1.37-0.757-2.392
	c0-1.044,0.246-1.839,0.738-2.383c0.49-0.543,1.112-0.812,1.863-0.812c0.689,0,1.283,0.283,1.788,0.858V5.955h1.629V14.461z
	 M47.232,11.248c0,0.655,0.09,1.134,0.271,1.426c0.262,0.428,0.632,0.642,1.103,0.642c0.376,0,0.694-0.163,0.956-0.479
	c0.265-0.321,0.395-0.799,0.395-1.435c0-0.706-0.125-1.217-0.381-1.528c-0.255-0.311-0.583-0.47-0.982-0.47
	c-0.388,0-0.711,0.159-0.973,0.466C47.362,10.176,47.232,10.636,47.232,11.248z"/>
<path display="none" fill="#FFFFFF" d="M56.762,12.503l1.625,0.269c-0.209,0.599-0.538,1.055-0.988,1.365
	c-0.451,0.312-1.013,0.465-1.69,0.465c-1.073,0-1.867-0.349-2.383-1.05c-0.405-0.562-0.609-1.268-0.609-2.127
	c0-1.021,0.27-1.819,0.804-2.396c0.534-0.581,1.208-0.868,2.024-0.868c0.915,0,1.639,0.301,2.169,0.905
	c0.529,0.608,0.784,1.536,0.761,2.786h-4.085c0.014,0.482,0.144,0.858,0.394,1.129c0.251,0.269,0.567,0.403,0.943,0.403
	c0.255,0,0.469-0.069,0.641-0.21C56.543,13.036,56.673,12.809,56.762,12.503z M56.854,10.854c-0.01-0.473-0.13-0.831-0.362-1.077
	c-0.232-0.246-0.516-0.372-0.85-0.372c-0.358,0-0.65,0.131-0.882,0.391c-0.233,0.261-0.348,0.614-0.344,1.059H56.854z"/>
<path display="none" fill="#FFFFFF" d="M60.119,9.93V8.3h1.63v1.63H60.119z M60.119,14.461v-1.63h1.63v1.63H60.119z"/>
<path display="none" fill="#FFFFFF" d="M8.837,19.69l-1.48-0.269c0.166-0.596,0.452-1.036,0.859-1.324
	c0.406-0.283,1.01-0.428,1.811-0.428c0.728,0,1.269,0.084,1.625,0.256s0.606,0.395,0.752,0.659c0.144,0.265,0.217,0.748,0.217,1.458
	l-0.017,1.904c0,0.543,0.025,0.942,0.079,1.198c0.051,0.259,0.15,0.533,0.292,0.826h-1.613c-0.043-0.107-0.096-0.269-0.157-0.482
	c-0.027-0.094-0.046-0.158-0.058-0.191c-0.278,0.273-0.577,0.475-0.894,0.608c-0.317,0.14-0.656,0.204-1.016,0.204
	c-0.635,0-1.135-0.171-1.5-0.515c-0.367-0.344-0.549-0.78-0.549-1.305c0-0.35,0.083-0.659,0.249-0.934
	c0.167-0.274,0.4-0.482,0.699-0.627c0.301-0.145,0.732-0.271,1.298-0.381c0.763-0.145,1.291-0.274,1.584-0.4v-0.161
	c0-0.315-0.078-0.539-0.232-0.669c-0.155-0.135-0.447-0.204-0.876-0.204c-0.291,0-0.517,0.06-0.679,0.172
	C9.069,19.202,8.938,19.403,8.837,19.69z M11.02,21.014c-0.209,0.069-0.54,0.152-0.992,0.246c-0.453,0.098-0.749,0.195-0.889,0.288
	c-0.212,0.148-0.319,0.339-0.319,0.57c0,0.232,0.085,0.428,0.255,0.595c0.17,0.168,0.387,0.25,0.65,0.25
	c0.294,0,0.575-0.097,0.842-0.291c0.197-0.145,0.328-0.325,0.389-0.539c0.042-0.139,0.063-0.403,0.063-0.794V21.014z"/>
<path display="none" fill="#FFFFFF" d="M19.882,23.972h-1.515v-0.905c-0.252,0.353-0.549,0.617-0.891,0.789
	c-0.344,0.172-0.688,0.255-1.036,0.255c-0.708,0-1.315-0.283-1.819-0.854c-0.506-0.57-0.758-1.369-0.758-2.391
	c0-1.045,0.246-1.84,0.737-2.382c0.491-0.543,1.112-0.813,1.863-0.813c0.688,0,1.285,0.283,1.788,0.86v-3.064h1.63V23.972z
	 M15.53,20.759c0,0.653,0.09,1.132,0.273,1.425c0.263,0.427,0.63,0.641,1.102,0.641c0.375,0,0.695-0.162,0.958-0.478
	c0.264-0.32,0.395-0.799,0.395-1.436c0-0.706-0.128-1.217-0.383-1.527c-0.255-0.312-0.582-0.469-0.98-0.469
	c-0.386,0-0.711,0.157-0.971,0.464C15.66,19.687,15.53,20.145,15.53,20.759z"/>
<path display="none" fill="#FFFFFF" d="M27.144,23.972h-1.515v-0.905c-0.252,0.353-0.548,0.617-0.892,0.789
	c-0.341,0.172-0.688,0.255-1.036,0.255c-0.708,0-1.313-0.283-1.82-0.854c-0.504-0.57-0.757-1.369-0.757-2.391
	c0-1.045,0.247-1.84,0.737-2.382c0.491-0.543,1.112-0.813,1.863-0.813c0.688,0,1.285,0.283,1.788,0.86v-3.064h1.631V23.972z
	 M22.791,20.759c0,0.653,0.091,1.132,0.272,1.425c0.264,0.427,0.631,0.641,1.104,0.641c0.375,0,0.694-0.162,0.958-0.478
	c0.264-0.32,0.395-0.799,0.395-1.436c0-0.706-0.127-1.217-0.383-1.527c-0.255-0.312-0.583-0.469-0.981-0.469
	c-0.387,0-0.71,0.157-0.973,0.464C22.921,19.687,22.791,20.145,22.791,20.759z"/>
<path display="none" fill="#FFFFFF" d="M34.881,17.81v1.301h-1.115v2.484c0,0.501,0.01,0.794,0.032,0.877
	c0.021,0.084,0.069,0.153,0.145,0.204c0.076,0.057,0.167,0.084,0.276,0.084c0.151,0,0.369-0.052,0.656-0.157l0.139,1.268
	c-0.38,0.161-0.809,0.24-1.288,0.24c-0.294,0-0.56-0.045-0.795-0.148c-0.235-0.098-0.409-0.223-0.521-0.381
	c-0.109-0.158-0.185-0.372-0.229-0.635c-0.035-0.191-0.052-0.572-0.052-1.152V19.11h-0.749V17.81h0.749v-1.226l1.637-0.951v2.177
	H34.881z"/>
<path display="none" fill="#FFFFFF" d="M37.231,19.69l-1.48-0.269c0.166-0.596,0.453-1.036,0.859-1.324
	c0.406-0.283,1.01-0.428,1.811-0.428c0.728,0,1.269,0.084,1.625,0.256c0.355,0.172,0.605,0.395,0.752,0.659
	c0.144,0.265,0.216,0.748,0.216,1.458l-0.016,1.904c0,0.543,0.025,0.942,0.079,1.198c0.051,0.259,0.148,0.533,0.292,0.826h-1.613
	c-0.043-0.107-0.096-0.269-0.157-0.482c-0.027-0.094-0.046-0.158-0.058-0.191c-0.278,0.273-0.577,0.475-0.894,0.608
	c-0.317,0.14-0.656,0.204-1.015,0.204c-0.635,0-1.135-0.171-1.5-0.515c-0.366-0.344-0.549-0.78-0.549-1.305
	c0-0.35,0.083-0.659,0.25-0.934c0.167-0.274,0.4-0.482,0.699-0.627c0.301-0.145,0.733-0.271,1.297-0.381
	c0.763-0.145,1.291-0.274,1.584-0.4v-0.161c0-0.315-0.078-0.539-0.232-0.669c-0.154-0.135-0.446-0.204-0.876-0.204
	c-0.29,0-0.517,0.06-0.679,0.172C37.464,19.202,37.333,19.403,37.231,19.69z M39.414,21.014c-0.208,0.069-0.54,0.152-0.992,0.246
	c-0.452,0.098-0.749,0.195-0.888,0.288c-0.212,0.148-0.319,0.339-0.319,0.57c0,0.232,0.085,0.428,0.255,0.595
	c0.17,0.168,0.386,0.25,0.65,0.25c0.294,0,0.575-0.097,0.841-0.291c0.197-0.145,0.328-0.325,0.389-0.539
	c0.043-0.139,0.063-0.403,0.063-0.794V21.014z"/>
<path display="none" fill="#FFFFFF" d="M42.473,24.381l1.865,0.222c0.03,0.22,0.102,0.368,0.216,0.45
	c0.153,0.116,0.397,0.173,0.729,0.173c0.427,0,0.746-0.065,0.959-0.191c0.144-0.083,0.25-0.222,0.325-0.413
	c0.051-0.134,0.076-0.385,0.076-0.747v-0.901c-0.487,0.669-1.105,0.999-1.848,0.999c-0.826,0-1.483-0.348-1.967-1.05
	c-0.378-0.552-0.568-1.245-0.568-2.065c0-1.036,0.248-1.825,0.745-2.368c0.497-0.548,1.117-0.818,1.855-0.818
	c0.761,0,1.391,0.334,1.885,1.003V17.81h1.527v5.531c0,0.729-0.06,1.271-0.18,1.63c-0.119,0.362-0.288,0.644-0.504,0.849
	c-0.216,0.204-0.506,0.362-0.868,0.479s-0.82,0.177-1.372,0.177c-1.044,0-1.785-0.181-2.224-0.539
	c-0.437-0.357-0.655-0.808-0.655-1.359C42.468,24.523,42.471,24.454,42.473,24.381z M43.931,20.763c0,0.655,0.128,1.134,0.381,1.435
	c0.252,0.308,0.566,0.456,0.938,0.456c0.397,0,0.733-0.154,1.007-0.466c0.276-0.31,0.413-0.775,0.413-1.382
	c0-0.642-0.132-1.115-0.395-1.427c-0.263-0.307-0.597-0.464-0.999-0.464c-0.39,0-0.713,0.153-0.965,0.46
	C44.059,19.677,43.931,20.141,43.931,20.763z"/>
<path fill="#FFFFFF" stroke="#838484" stroke-width="0.5" stroke-miterlimit="10" d="M85.955,27.294
	c-1.1,1.857-3.307,2.582-4.939,1.618l-10.619-6.273c-1.627-0.963-2.063-3.248-0.966-5.103l7.142-12.092
	c1.096-1.854,3.304-2.576,4.934-1.611l10.619,6.269c1.633,0.964,2.064,3.25,0.968,5.104L85.955,27.294z"/>
<linearGradient id="SVGID_1_" gradientUnits="userSpaceOnUse" x1="78.2891" y1="21.6523" x2="85.556" y2="8.7526">
	<stop  offset="0" style="stop-color:#FFFFFF"/>
	<stop  offset="1" style="stop-color:#E9EAEB"/>
</linearGradient>
<path fill="url(#SVGID_1_)" d="M85.017,25.109c-0.877,1.485-2.645,2.064-3.949,1.29l-8.497-5.014
	c-1.301-0.771-1.651-2.598-0.771-4.079l5.711-9.675c0.876-1.481,2.646-2.062,3.947-1.292l8.495,5.016
	c1.306,0.771,1.653,2.601,0.776,4.082L85.017,25.109z"/>
<linearGradient id="SVGID_2_" gradientUnits="userSpaceOnUse" x1="80.2715" y1="11.6201" x2="80.2834" y2="20.9657">
	<stop  offset="0" style="stop-color:#3268B2"/>
	<stop  offset="1" style="stop-color:#253C7F"/>
</linearGradient>
<path fill="url(#SVGID_2_)" d="M84.814,11.04h-4.477c0,0-4.731,0.399-4.731,5.145c0,5.052,4.799,5.233,4.799,5.233h4.546v-2.916
	h-4.747c0,0-1.594-0.184-1.594-2.257c0-1.985,1.728-2.085,1.728-2.085h4.342L84.814,11.04z"/>
<rect x="100.019" display="none" fill="#FFF200" width="2" height="33"/>
<path fill="#FFFFFF" d="M12.967,10.589l-1.353,0.244c-0.045-0.27-0.149-0.473-0.31-0.609s-0.37-0.205-0.627-0.205
	c-0.342,0-0.614,0.117-0.818,0.354s-0.305,0.631-0.305,1.184c0,0.615,0.104,1.051,0.31,1.305s0.484,0.381,0.833,0.381
	c0.26,0,0.474-0.074,0.64-0.223s0.283-0.402,0.352-0.764l1.348,0.229c-0.14,0.619-0.409,1.086-0.806,1.402
	c-0.397,0.314-0.929,0.473-1.597,0.473c-0.758,0-1.363-0.238-1.814-0.717s-0.676-1.141-0.676-1.988c0-0.855,0.226-1.521,0.679-2
	c0.453-0.477,1.064-0.715,1.836-0.715c0.631,0,1.134,0.137,1.506,0.408S12.805,10.032,12.967,10.589z"/>
<path fill="#FFFFFF" d="M13.69,11.575c0-0.455,0.112-0.896,0.337-1.322c0.225-0.428,0.543-0.752,0.955-0.977
	s0.872-0.338,1.379-0.338c0.785,0,1.427,0.256,1.929,0.764c0.501,0.51,0.752,1.154,0.752,1.932c0,0.785-0.253,1.436-0.759,1.951
	s-1.144,0.773-1.912,0.773c-0.475,0-0.929-0.107-1.36-0.322s-0.759-0.529-0.984-0.945C13.802,12.677,13.69,12.171,13.69,11.575z
	 M15.096,11.649c0,0.514,0.122,0.908,0.366,1.182s0.545,0.41,0.903,0.41s0.658-0.137,0.901-0.41s0.364-0.672,0.364-1.191
	c0-0.508-0.121-0.898-0.364-1.172s-0.543-0.41-0.901-0.41s-0.659,0.137-0.903,0.41S15.096,11.134,15.096,11.649z"/>
<path fill="#FFFFFF" d="M20.013,9.056h1.265v0.709c0.453-0.551,0.991-0.826,1.616-0.826c0.332,0,0.62,0.068,0.864,0.205
	s0.444,0.344,0.601,0.621c0.228-0.277,0.474-0.484,0.737-0.621s0.545-0.205,0.845-0.205c0.381,0,0.703,0.078,0.967,0.232
	s0.46,0.381,0.591,0.682c0.094,0.221,0.142,0.578,0.142,1.074v3.314h-1.372v-2.963c0-0.516-0.047-0.848-0.142-0.996
	C26,10.087,25.804,9.989,25.541,9.989c-0.192,0-0.373,0.059-0.542,0.176s-0.292,0.289-0.366,0.514
	c-0.075,0.227-0.112,0.584-0.112,1.072v2.49h-1.372v-2.842c0-0.504-0.024-0.83-0.073-0.977s-0.125-0.256-0.227-0.326
	c-0.103-0.072-0.242-0.107-0.417-0.107c-0.211,0-0.402,0.057-0.571,0.17c-0.169,0.115-0.291,0.279-0.364,0.494
	s-0.11,0.57-0.11,1.068v2.52h-1.372V9.056z"/>
<path fill="#FFFFFF" d="M33.529,10.589l-1.353,0.244c-0.045-0.27-0.149-0.473-0.31-0.609s-0.37-0.205-0.627-0.205
	c-0.342,0-0.614,0.117-0.818,0.354s-0.305,0.631-0.305,1.184c0,0.615,0.104,1.051,0.31,1.305s0.484,0.381,0.833,0.381
	c0.26,0,0.474-0.074,0.64-0.223s0.283-0.402,0.352-0.764l1.348,0.229c-0.14,0.619-0.409,1.086-0.806,1.402
	c-0.397,0.314-0.929,0.473-1.597,0.473c-0.758,0-1.363-0.238-1.814-0.717s-0.676-1.141-0.676-1.988c0-0.855,0.226-1.521,0.679-2
	c0.453-0.477,1.064-0.715,1.836-0.715c0.631,0,1.134,0.137,1.506,0.408S33.366,10.032,33.529,10.589z"/>
<path fill="#FFFFFF" d="M34.251,11.575c0-0.455,0.112-0.896,0.337-1.322c0.225-0.428,0.543-0.752,0.955-0.977
	s0.872-0.338,1.379-0.338c0.785,0,1.427,0.256,1.929,0.764c0.501,0.51,0.752,1.154,0.752,1.932c0,0.785-0.253,1.436-0.759,1.951
	s-1.144,0.773-1.912,0.773c-0.475,0-0.929-0.107-1.36-0.322s-0.759-0.529-0.984-0.945C34.364,12.677,34.251,12.171,34.251,11.575z
	 M35.658,11.649c0,0.514,0.122,0.908,0.366,1.182s0.545,0.41,0.903,0.41s0.658-0.137,0.901-0.41s0.364-0.672,0.364-1.191
	c0-0.508-0.121-0.898-0.364-1.172s-0.543-0.41-0.901-0.41s-0.659,0.137-0.903,0.41S35.658,11.134,35.658,11.649z"/>
<path fill="#FFFFFF" d="M45.433,14.241h-1.274v-0.762c-0.211,0.297-0.461,0.518-0.75,0.662s-0.579,0.217-0.872,0.217
	c-0.596,0-1.106-0.24-1.531-0.721c-0.425-0.479-0.637-1.148-0.637-2.008c0-0.879,0.207-1.547,0.62-2.006
	c0.414-0.457,0.936-0.686,1.567-0.686c0.58,0,1.081,0.242,1.504,0.723V7.083h1.372V14.241z M41.771,11.536
	c0,0.555,0.077,0.955,0.229,1.201c0.221,0.359,0.531,0.537,0.928,0.537c0.316,0,0.584-0.135,0.806-0.402
	c0.221-0.27,0.332-0.67,0.332-1.203c0-0.596-0.107-1.025-0.322-1.287s-0.49-0.393-0.825-0.393c-0.326,0-0.598,0.129-0.818,0.387
	C41.881,10.636,41.771,11.022,41.771,11.536z"/>
<path fill="#FFFFFF" d="M49.789,12.591l1.367,0.23c-0.176,0.5-0.453,0.883-0.833,1.145s-0.854,0.393-1.423,0.393
	c-0.902,0-1.569-0.295-2.002-0.883c-0.342-0.473-0.513-1.068-0.513-1.787c0-0.859,0.225-1.533,0.674-2.02s1.017-0.73,1.704-0.73
	c0.771,0,1.38,0.256,1.826,0.764c0.446,0.51,0.659,1.291,0.64,2.342h-3.438c0.01,0.408,0.121,0.725,0.332,0.949
	c0.211,0.227,0.475,0.34,0.791,0.34c0.215,0,0.396-0.059,0.542-0.176S49.714,12.853,49.789,12.591z M49.867,11.204
	c-0.01-0.396-0.112-0.699-0.308-0.906c-0.195-0.205-0.433-0.309-0.713-0.309c-0.299,0-0.547,0.109-0.742,0.326
	c-0.195,0.219-0.292,0.516-0.288,0.889H49.867z"/>
<path fill="#FFFFFF" d="M52.611,10.429V9.056h1.372v1.373H52.611z M52.611,14.241V12.87h1.372v1.371H52.611z"/>
<path fill="#FFFFFF" d="M9.471,19.638l-1.245-0.225c0.14-0.5,0.381-0.871,0.723-1.113c0.342-0.24,0.85-0.361,1.523-0.361
	c0.612,0,1.068,0.072,1.367,0.217c0.299,0.146,0.51,0.33,0.632,0.553s0.183,0.633,0.183,1.229l-0.015,1.602
	c0,0.455,0.022,0.791,0.066,1.008s0.126,0.449,0.247,0.695h-1.357c-0.036-0.09-0.08-0.227-0.132-0.404
	c-0.023-0.082-0.039-0.135-0.049-0.162c-0.234,0.229-0.485,0.398-0.752,0.514c-0.267,0.113-0.552,0.17-0.854,0.17
	c-0.534,0-0.955-0.145-1.262-0.434c-0.308-0.291-0.461-0.656-0.461-1.1c0-0.293,0.07-0.555,0.21-0.783
	c0.14-0.23,0.336-0.406,0.588-0.527c0.252-0.123,0.616-0.229,1.091-0.32c0.641-0.119,1.085-0.232,1.333-0.336v-0.137
	c0-0.264-0.065-0.453-0.195-0.564c-0.13-0.113-0.376-0.168-0.737-0.168c-0.244,0-0.435,0.047-0.571,0.143
	C9.667,19.229,9.556,19.397,9.471,19.638z M11.307,20.751c-0.176,0.059-0.454,0.129-0.835,0.211c-0.381,0.08-0.63,0.16-0.747,0.238
	c-0.179,0.127-0.269,0.289-0.269,0.484c0,0.191,0.072,0.357,0.215,0.498c0.143,0.139,0.326,0.209,0.547,0.209
	c0.248,0,0.483-0.08,0.708-0.244c0.166-0.123,0.275-0.275,0.327-0.453c0.036-0.117,0.054-0.34,0.054-0.67V20.751z"/>
<path fill="#FFFFFF" d="M18.763,23.241h-1.274v-0.762c-0.211,0.297-0.461,0.518-0.75,0.662s-0.579,0.217-0.872,0.217
	c-0.596,0-1.106-0.24-1.531-0.721c-0.425-0.479-0.637-1.148-0.637-2.008c0-0.879,0.207-1.547,0.62-2.006
	c0.414-0.457,0.936-0.686,1.567-0.686c0.58,0,1.081,0.242,1.504,0.723v-2.578h1.372V23.241z M15.101,20.536
	c0,0.555,0.077,0.955,0.229,1.201c0.221,0.359,0.531,0.537,0.928,0.537c0.316,0,0.584-0.135,0.806-0.402
	c0.221-0.27,0.332-0.67,0.332-1.203c0-0.596-0.107-1.025-0.322-1.287s-0.49-0.393-0.825-0.393c-0.326,0-0.598,0.129-0.818,0.387
	C15.211,19.636,15.101,20.022,15.101,20.536z"/>
<path fill="#FFFFFF" d="M24.872,23.241h-1.274v-0.762c-0.211,0.297-0.461,0.518-0.75,0.662s-0.579,0.217-0.872,0.217
	c-0.596,0-1.106-0.24-1.531-0.721c-0.425-0.479-0.637-1.148-0.637-2.008c0-0.879,0.207-1.547,0.62-2.006
	c0.414-0.457,0.936-0.686,1.567-0.686c0.58,0,1.081,0.242,1.504,0.723v-2.578h1.372V23.241z M21.209,20.536
	c0,0.555,0.077,0.955,0.229,1.201c0.221,0.359,0.531,0.537,0.928,0.537c0.316,0,0.584-0.135,0.806-0.402
	c0.221-0.27,0.332-0.67,0.332-1.203c0-0.596-0.107-1.025-0.322-1.287s-0.49-0.393-0.825-0.393c-0.326,0-0.598,0.129-0.818,0.387
	C21.319,19.636,21.209,20.022,21.209,20.536z"/>
<path fill="#FFFFFF" d="M31.38,18.056v1.094h-0.938v2.09c0,0.424,0.009,0.67,0.027,0.74s0.059,0.127,0.122,0.174
	c0.063,0.045,0.141,0.068,0.232,0.068c0.127,0,0.311-0.045,0.552-0.133l0.117,1.064c-0.319,0.137-0.68,0.205-1.084,0.205
	c-0.248,0-0.47-0.041-0.669-0.125c-0.199-0.082-0.344-0.189-0.437-0.322c-0.093-0.131-0.157-0.309-0.193-0.533
	c-0.029-0.16-0.044-0.482-0.044-0.967v-2.262h-0.63v-1.094h0.63v-1.029l1.377-0.801v1.83H31.38z"/>
<path fill="#FFFFFF" d="M33.358,19.638l-1.245-0.225c0.14-0.5,0.381-0.871,0.723-1.113c0.342-0.24,0.85-0.361,1.523-0.361
	c0.612,0,1.068,0.072,1.367,0.217c0.299,0.146,0.51,0.33,0.632,0.553s0.183,0.633,0.183,1.229l-0.015,1.602
	c0,0.455,0.022,0.791,0.066,1.008s0.126,0.449,0.247,0.695h-1.357c-0.036-0.09-0.08-0.227-0.132-0.404
	c-0.023-0.082-0.039-0.135-0.049-0.162c-0.234,0.229-0.485,0.398-0.752,0.514c-0.267,0.113-0.552,0.17-0.854,0.17
	c-0.534,0-0.955-0.145-1.262-0.434c-0.308-0.291-0.461-0.656-0.461-1.1c0-0.293,0.07-0.555,0.21-0.783
	c0.14-0.23,0.336-0.406,0.588-0.527c0.252-0.123,0.616-0.229,1.091-0.32c0.641-0.119,1.085-0.232,1.333-0.336v-0.137
	c0-0.264-0.065-0.453-0.195-0.564c-0.13-0.113-0.376-0.168-0.737-0.168c-0.244,0-0.435,0.047-0.571,0.143
	C33.553,19.229,33.442,19.397,33.358,19.638z M35.194,20.751c-0.176,0.059-0.454,0.129-0.835,0.211
	c-0.381,0.08-0.63,0.16-0.747,0.238c-0.179,0.127-0.269,0.289-0.269,0.484c0,0.191,0.072,0.357,0.215,0.498
	c0.143,0.139,0.326,0.209,0.547,0.209c0.248,0,0.483-0.08,0.708-0.244c0.166-0.123,0.275-0.275,0.327-0.453
	c0.036-0.117,0.054-0.34,0.054-0.67V20.751z"/>
<path fill="#FFFFFF" d="M37.767,23.583l1.567,0.191c0.026,0.182,0.086,0.307,0.181,0.375c0.13,0.098,0.335,0.146,0.615,0.146
	c0.358,0,0.626-0.053,0.806-0.16c0.121-0.072,0.211-0.188,0.273-0.348c0.042-0.113,0.063-0.324,0.063-0.629v-0.758
	c-0.41,0.561-0.928,0.84-1.553,0.84c-0.697,0-1.249-0.295-1.655-0.883c-0.319-0.467-0.479-1.045-0.479-1.738
	c0-0.869,0.209-1.533,0.627-1.992s0.938-0.689,1.56-0.689c0.641,0,1.17,0.281,1.587,0.846v-0.729h1.284v4.654
	c0,0.611-0.05,1.068-0.151,1.371s-0.243,0.541-0.425,0.713c-0.182,0.174-0.426,0.309-0.73,0.406s-0.689,0.146-1.155,0.146
	c-0.879,0-1.502-0.15-1.87-0.453c-0.368-0.301-0.552-0.682-0.552-1.145C37.762,23.704,37.764,23.649,37.767,23.583z M38.993,20.542
	c0,0.549,0.106,0.953,0.32,1.207c0.213,0.256,0.476,0.385,0.789,0.385c0.335,0,0.619-0.131,0.85-0.395
	c0.231-0.262,0.347-0.648,0.347-1.164c0-0.537-0.111-0.936-0.332-1.195c-0.221-0.262-0.501-0.391-0.84-0.391
	c-0.329,0-0.6,0.127-0.813,0.383S38.993,20.017,38.993,20.542z"/>
</svg>
