<?xml version="1.0" encoding="utf-8"?>
<!-- Generator: Adobe Illustrator 15.0.0, SVG Export Plug-In  -->
<!DOCTYPE svg PUBLIC "-//W3C//DTD SVG 1.1//EN" "http://www.w3.org/Graphics/SVG/1.1/DTD/svg11.dtd" [
	<!ENTITY ns_flows "http://ns.adobe.com/Flows/1.0/">
]>
<svg version="1.1"
	 xmlns="http://www.w3.org/2000/svg" xmlns:xlink="http://www.w3.org/1999/xlink" xmlns:a="http://ns.adobe.com/AdobeSVGViewerExtensions/3.0/"
	 x="0px" y="0px" width="102px" height="33px" viewBox="0 0 102 33" enable-background="new 0 0 102 33" xml:space="preserve">
<defs>
</defs>
<rect display="none" fill="#FFF200" width="2" height="33"/>
<rect x="2.026" fill="#C8691C" width="97.961" height="33"/>
<rect x="2.026" fill="#F79523" width="97.934" height="16.645"/>
<path fill="#FFFFFF" d="M12.993,10.12l-1.607,0.293c-0.054-0.321-0.177-0.567-0.369-0.729c-0.19-0.163-0.44-0.241-0.746-0.241
	c-0.406,0-0.73,0.139-0.973,0.422c-0.241,0.279-0.362,0.748-0.362,1.408c0,0.729,0.124,1.243,0.37,1.546
	c0.245,0.302,0.574,0.454,0.989,0.454c0.31,0,0.563-0.088,0.761-0.265c0.197-0.177,0.336-0.478,0.418-0.909l1.602,0.274
	c-0.166,0.737-0.485,1.29-0.958,1.666c-0.472,0.377-1.105,0.563-1.898,0.563c-0.902,0-1.62-0.283-2.155-0.854
	c-0.537-0.566-0.805-1.355-0.805-2.359c0-1.017,0.27-1.811,0.807-2.378c0.537-0.565,1.265-0.849,2.183-0.849
	c0.75,0,1.348,0.162,1.79,0.482C12.481,8.969,12.799,9.461,12.993,10.12z"/>
<path fill="#FFFFFF" d="M13.852,11.295c0-0.543,0.133-1.068,0.401-1.573c0.267-0.507,0.645-0.897,1.135-1.162
	c0.489-0.269,1.035-0.398,1.639-0.398c0.932,0,1.697,0.301,2.292,0.905c0.596,0.608,0.894,1.374,0.894,2.298
	c0,0.934-0.3,1.705-0.902,2.317c-0.603,0.612-1.359,0.92-2.273,0.92c-0.565,0-1.104-0.126-1.616-0.381
	c-0.514-0.256-0.903-0.631-1.17-1.125C13.985,12.604,13.852,12.001,13.852,11.295z M15.524,11.378c0,0.614,0.145,1.083,0.435,1.408
	c0.29,0.324,0.648,0.486,1.074,0.486c0.426,0,0.783-0.162,1.071-0.486c0.289-0.325,0.432-0.8,0.432-1.417
	c0-0.604-0.144-1.067-0.432-1.393c-0.289-0.324-0.645-0.487-1.071-0.487c-0.426,0-0.784,0.163-1.074,0.487
	C15.669,10.302,15.524,10.77,15.524,11.378z"/>
<path fill="#FFFFFF" d="M21.369,8.3h1.503v0.84c0.538-0.653,1.178-0.979,1.921-0.979c0.395,0,0.737,0.079,1.027,0.24
	c0.291,0.164,0.529,0.409,0.714,0.738c0.271-0.329,0.563-0.574,0.876-0.738c0.313-0.161,0.647-0.24,1.004-0.24
	c0.453,0,0.836,0.093,1.15,0.274c0.313,0.186,0.547,0.454,0.702,0.808c0.113,0.265,0.168,0.69,0.168,1.276v3.941h-1.631v-3.522
	c0-0.608-0.056-1.005-0.168-1.185c-0.15-0.233-0.383-0.35-0.697-0.35c-0.229,0-0.443,0.071-0.644,0.21
	c-0.201,0.14-0.346,0.344-0.435,0.612c-0.09,0.271-0.134,0.697-0.134,1.277v2.957h-1.631v-3.374c0-0.6-0.029-0.989-0.087-1.162
	c-0.058-0.177-0.147-0.307-0.271-0.39c-0.121-0.084-0.287-0.131-0.496-0.131c-0.252,0-0.479,0.071-0.679,0.205
	c-0.201,0.135-0.346,0.33-0.432,0.585C23.042,10.45,23,10.877,23,11.466v2.995h-1.631V8.3z"/>
<path fill="#FFFFFF" d="M37.435,10.12l-1.608,0.293c-0.055-0.321-0.178-0.567-0.368-0.729c-0.193-0.163-0.441-0.241-0.746-0.241
	c-0.407,0-0.73,0.139-0.972,0.422c-0.243,0.279-0.363,0.748-0.363,1.408c0,0.729,0.123,1.243,0.368,1.546
	c0.246,0.302,0.576,0.454,0.991,0.454c0.309,0,0.563-0.088,0.76-0.265s0.336-0.478,0.418-0.909l1.602,0.274
	c-0.166,0.737-0.484,1.29-0.957,1.666c-0.473,0.377-1.105,0.563-1.898,0.563c-0.902,0-1.621-0.283-2.157-0.854
	c-0.535-0.566-0.803-1.355-0.803-2.359c0-1.017,0.27-1.811,0.807-2.378c0.537-0.565,1.265-0.849,2.183-0.849
	c0.751,0,1.348,0.162,1.791,0.482C36.923,8.969,37.241,9.461,37.435,10.12z"/>
<path fill="#FFFFFF" d="M38.294,11.295c0-0.543,0.133-1.068,0.4-1.573c0.267-0.507,0.645-0.897,1.134-1.162
	c0.49-0.269,1.038-0.398,1.642-0.398c0.93,0,1.694,0.301,2.292,0.905c0.596,0.608,0.894,1.374,0.894,2.298
	c0,0.934-0.302,1.705-0.903,2.317c-0.602,0.612-1.358,0.92-2.273,0.92c-0.564,0-1.103-0.126-1.617-0.381
	c-0.511-0.256-0.902-0.631-1.168-1.125C38.427,12.604,38.294,12.001,38.294,11.295z M39.965,11.378c0,0.614,0.144,1.083,0.437,1.408
	c0.288,0.324,0.647,0.486,1.073,0.486c0.425,0,0.782-0.162,1.07-0.486c0.288-0.325,0.434-0.8,0.434-1.417
	c0-0.604-0.146-1.067-0.434-1.393c-0.288-0.324-0.646-0.487-1.07-0.487c-0.425,0-0.785,0.163-1.073,0.487
	C40.109,10.302,39.965,10.77,39.965,11.378z"/>
<path fill="#FFFFFF" d="M51.583,14.461H50.07v-0.905c-0.251,0.354-0.548,0.618-0.892,0.791c-0.341,0.171-0.687,0.255-1.035,0.255
	c-0.708,0-1.314-0.283-1.82-0.854c-0.503-0.572-0.757-1.37-0.757-2.392c0-1.044,0.246-1.839,0.738-2.383
	c0.49-0.543,1.112-0.812,1.863-0.812c0.689,0,1.283,0.283,1.788,0.858V5.955h1.629V14.461z M47.232,11.248
	c0,0.655,0.09,1.134,0.271,1.426c0.262,0.428,0.632,0.642,1.103,0.642c0.376,0,0.694-0.163,0.956-0.479
	c0.265-0.321,0.395-0.799,0.395-1.435c0-0.706-0.125-1.217-0.381-1.528c-0.255-0.311-0.583-0.47-0.982-0.47
	c-0.388,0-0.711,0.159-0.973,0.466C47.362,10.176,47.232,10.636,47.232,11.248z"/>
<path fill="#FFFFFF" d="M56.762,12.503l1.625,0.269c-0.209,0.599-0.538,1.055-0.988,1.365c-0.451,0.312-1.013,0.465-1.69,0.465
	c-1.073,0-1.867-0.349-2.383-1.05c-0.405-0.562-0.609-1.268-0.609-2.127c0-1.021,0.27-1.819,0.804-2.396
	c0.534-0.581,1.208-0.868,2.024-0.868c0.915,0,1.639,0.301,2.169,0.905c0.529,0.608,0.784,1.536,0.761,2.786h-4.085
	c0.014,0.482,0.144,0.858,0.394,1.129c0.251,0.269,0.567,0.403,0.943,0.403c0.255,0,0.469-0.069,0.641-0.21
	C56.543,13.036,56.673,12.809,56.762,12.503z M56.854,10.854c-0.01-0.473-0.13-0.831-0.362-1.077
	c-0.232-0.246-0.516-0.372-0.85-0.372c-0.358,0-0.65,0.131-0.882,0.391c-0.233,0.261-0.348,0.614-0.344,1.059H56.854z"/>
<path fill="#FFFFFF" d="M60.119,9.93V8.3h1.63v1.63H60.119z M60.119,14.461v-1.63h1.63v1.63H60.119z"/>
<path fill="#FFFFFF" d="M8.837,19.69l-1.48-0.269c0.166-0.596,0.452-1.036,0.859-1.324c0.406-0.283,1.01-0.428,1.811-0.428
	c0.728,0,1.269,0.084,1.625,0.256s0.606,0.395,0.752,0.659c0.144,0.265,0.217,0.748,0.217,1.458l-0.017,1.904
	c0,0.543,0.025,0.942,0.079,1.198c0.051,0.259,0.15,0.533,0.292,0.826h-1.613c-0.043-0.107-0.096-0.269-0.157-0.482
	c-0.027-0.094-0.046-0.158-0.058-0.191c-0.278,0.273-0.577,0.475-0.894,0.608c-0.317,0.14-0.656,0.204-1.016,0.204
	c-0.635,0-1.135-0.171-1.5-0.515c-0.367-0.344-0.549-0.78-0.549-1.305c0-0.35,0.083-0.659,0.249-0.934
	c0.167-0.274,0.4-0.482,0.699-0.627c0.301-0.145,0.732-0.271,1.298-0.381c0.763-0.145,1.291-0.274,1.584-0.4v-0.161
	c0-0.315-0.078-0.539-0.232-0.669c-0.155-0.135-0.447-0.204-0.876-0.204c-0.291,0-0.517,0.06-0.679,0.172
	C9.069,19.202,8.938,19.403,8.837,19.69z M11.02,21.014c-0.209,0.069-0.54,0.152-0.992,0.246c-0.453,0.098-0.749,0.195-0.889,0.288
	c-0.212,0.148-0.319,0.339-0.319,0.57c0,0.232,0.085,0.428,0.255,0.595c0.17,0.168,0.387,0.25,0.65,0.25
	c0.294,0,0.575-0.097,0.842-0.291c0.197-0.145,0.328-0.325,0.389-0.539c0.042-0.139,0.063-0.403,0.063-0.794V21.014z"/>
<path fill="#FFFFFF" d="M19.882,23.972h-1.515v-0.905c-0.252,0.353-0.549,0.617-0.891,0.789c-0.344,0.172-0.688,0.255-1.036,0.255
	c-0.708,0-1.315-0.283-1.819-0.854c-0.506-0.57-0.758-1.369-0.758-2.391c0-1.045,0.246-1.84,0.737-2.382
	c0.491-0.543,1.112-0.813,1.863-0.813c0.688,0,1.285,0.283,1.788,0.86v-3.064h1.63V23.972z M15.53,20.759
	c0,0.653,0.09,1.132,0.273,1.425c0.263,0.427,0.63,0.641,1.102,0.641c0.375,0,0.695-0.162,0.958-0.478
	c0.264-0.32,0.395-0.799,0.395-1.436c0-0.706-0.128-1.217-0.383-1.527c-0.255-0.312-0.582-0.469-0.98-0.469
	c-0.386,0-0.711,0.157-0.971,0.464C15.66,19.687,15.53,20.145,15.53,20.759z"/>
<path fill="#FFFFFF" d="M27.144,23.972h-1.515v-0.905c-0.252,0.353-0.548,0.617-0.892,0.789c-0.341,0.172-0.688,0.255-1.036,0.255
	c-0.708,0-1.313-0.283-1.82-0.854c-0.504-0.57-0.757-1.369-0.757-2.391c0-1.045,0.247-1.84,0.737-2.382
	c0.491-0.543,1.112-0.813,1.863-0.813c0.688,0,1.285,0.283,1.788,0.86v-3.064h1.631V23.972z M22.791,20.759
	c0,0.653,0.091,1.132,0.272,1.425c0.264,0.427,0.631,0.641,1.104,0.641c0.375,0,0.694-0.162,0.958-0.478
	c0.264-0.32,0.395-0.799,0.395-1.436c0-0.706-0.127-1.217-0.383-1.527c-0.255-0.312-0.583-0.469-0.981-0.469
	c-0.387,0-0.71,0.157-0.973,0.464C22.921,19.687,22.791,20.145,22.791,20.759z"/>
<path fill="#FFFFFF" d="M34.881,17.81v1.301h-1.115v2.484c0,0.501,0.01,0.794,0.032,0.877c0.021,0.084,0.069,0.153,0.145,0.204
	c0.076,0.057,0.167,0.084,0.276,0.084c0.151,0,0.369-0.052,0.656-0.157l0.139,1.268c-0.38,0.161-0.809,0.24-1.288,0.24
	c-0.294,0-0.56-0.045-0.795-0.148c-0.235-0.098-0.409-0.223-0.521-0.381c-0.109-0.158-0.185-0.372-0.229-0.635
	c-0.035-0.191-0.052-0.572-0.052-1.152V19.11h-0.749V17.81h0.749v-1.226l1.637-0.951v2.177H34.881z"/>
<path fill="#FFFFFF" d="M37.231,19.69l-1.48-0.269c0.166-0.596,0.453-1.036,0.859-1.324c0.406-0.283,1.01-0.428,1.811-0.428
	c0.728,0,1.269,0.084,1.625,0.256c0.355,0.172,0.605,0.395,0.752,0.659c0.144,0.265,0.216,0.748,0.216,1.458l-0.016,1.904
	c0,0.543,0.025,0.942,0.079,1.198c0.051,0.259,0.148,0.533,0.292,0.826h-1.613c-0.043-0.107-0.096-0.269-0.157-0.482
	c-0.027-0.094-0.046-0.158-0.058-0.191c-0.278,0.273-0.577,0.475-0.894,0.608c-0.317,0.14-0.656,0.204-1.015,0.204
	c-0.635,0-1.135-0.171-1.5-0.515c-0.366-0.344-0.549-0.78-0.549-1.305c0-0.35,0.083-0.659,0.25-0.934
	c0.167-0.274,0.4-0.482,0.699-0.627c0.301-0.145,0.733-0.271,1.297-0.381c0.763-0.145,1.291-0.274,1.584-0.4v-0.161
	c0-0.315-0.078-0.539-0.232-0.669c-0.154-0.135-0.446-0.204-0.876-0.204c-0.29,0-0.517,0.06-0.679,0.172
	C37.464,19.202,37.333,19.403,37.231,19.69z M39.414,21.014c-0.208,0.069-0.54,0.152-0.992,0.246
	c-0.452,0.098-0.749,0.195-0.888,0.288c-0.212,0.148-0.319,0.339-0.319,0.57c0,0.232,0.085,0.428,0.255,0.595
	c0.17,0.168,0.386,0.25,0.65,0.25c0.294,0,0.575-0.097,0.841-0.291c0.197-0.145,0.328-0.325,0.389-0.539
	c0.043-0.139,0.063-0.403,0.063-0.794V21.014z"/>
<path fill="#FFFFFF" d="M42.473,24.381l1.865,0.222c0.03,0.22,0.102,0.368,0.216,0.45c0.153,0.116,0.397,0.173,0.729,0.173
	c0.427,0,0.746-0.065,0.959-0.191c0.144-0.083,0.25-0.222,0.325-0.413c0.051-0.134,0.076-0.385,0.076-0.747v-0.901
	c-0.487,0.669-1.105,0.999-1.848,0.999c-0.826,0-1.483-0.348-1.967-1.05c-0.378-0.552-0.568-1.245-0.568-2.065
	c0-1.036,0.248-1.825,0.745-2.368c0.497-0.548,1.117-0.818,1.855-0.818c0.761,0,1.391,0.334,1.885,1.003V17.81h1.527v5.531
	c0,0.729-0.06,1.271-0.18,1.63c-0.119,0.362-0.288,0.644-0.504,0.849c-0.216,0.204-0.506,0.362-0.868,0.479s-0.82,0.177-1.372,0.177
	c-1.044,0-1.785-0.181-2.224-0.539c-0.437-0.357-0.655-0.808-0.655-1.359C42.468,24.523,42.471,24.454,42.473,24.381z
	 M43.931,20.763c0,0.655,0.128,1.134,0.381,1.435c0.252,0.308,0.566,0.456,0.938,0.456c0.397,0,0.733-0.154,1.007-0.466
	c0.276-0.31,0.413-0.775,0.413-1.382c0-0.642-0.132-1.115-0.395-1.427c-0.263-0.307-0.597-0.464-0.999-0.464
	c-0.39,0-0.713,0.153-0.965,0.46C44.059,19.677,43.931,20.141,43.931,20.763z"/>
<path fill="#FFFFFF" stroke="#838484" stroke-width="0.5" stroke-miterlimit="10" d="M85.955,27.294
	c-1.1,1.857-3.307,2.582-4.939,1.618l-10.619-6.273c-1.627-0.963-2.063-3.248-0.966-5.103l7.142-12.092
	c1.096-1.854,3.304-2.576,4.934-1.611l10.619,6.269c1.633,0.964,2.064,3.25,0.968,5.104L85.955,27.294z"/>
<linearGradient id="SVGID_1_" gradientUnits="userSpaceOnUse" x1="78.2891" y1="21.6523" x2="85.556" y2="8.7526">
	<stop  offset="0" style="stop-color:#FFFFFF"/>
	<stop  offset="1" style="stop-color:#E9EAEB"/>
</linearGradient>
<path fill="url(#SVGID_1_)" d="M85.017,25.109c-0.877,1.485-2.645,2.064-3.949,1.29l-8.497-5.014
	c-1.301-0.771-1.651-2.598-0.771-4.079l5.711-9.675c0.876-1.481,2.646-2.062,3.947-1.292l8.495,5.016
	c1.306,0.771,1.653,2.601,0.776,4.082L85.017,25.109z"/>
<linearGradient id="SVGID_2_" gradientUnits="userSpaceOnUse" x1="80.2715" y1="11.6201" x2="80.2834" y2="20.9657">
	<stop  offset="0" style="stop-color:#3268B2"/>
	<stop  offset="1" style="stop-color:#253C7F"/>
</linearGradient>
<path fill="url(#SVGID_2_)" d="M84.814,11.04h-4.477c0,0-4.731,0.399-4.731,5.145c0,5.052,4.799,5.233,4.799,5.233h4.546v-2.916
	h-4.747c0,0-1.594-0.184-1.594-2.257c0-1.985,1.728-2.085,1.728-2.085h4.342L84.814,11.04z"/>
<rect x="100.019" display="none" fill="#FFF200" width="2" height="33"/>
</svg>
