<?xml version="1.0" encoding="utf-8"?>
<!-- Generator: Adobe Illustrator 15.0.0, SVG Export Plug-In  -->
<!DOCTYPE svg PUBLIC "-//W3C//DTD SVG 1.1//EN" "http://www.w3.org/Graphics/SVG/1.1/DTD/svg11.dtd" [
	<!ENTITY ns_flows "http://ns.adobe.com/Flows/1.0/">
]>
<svg version="1.1"
	 xmlns="http://www.w3.org/2000/svg" xmlns:xlink="http://www.w3.org/1999/xlink" xmlns:a="http://ns.adobe.com/AdobeSVGViewerExtensions/3.0/"
	 x="0px" y="0px" width="80px" height="33px" viewBox="-0.5 -3.118 80 33" enable-background="new -0.5 -3.118 80 33"
	 xml:space="preserve">
<defs>
</defs>
<rect fill="#C8691C" width="79" height="26.765"/>
<rect fill="#F79523" width="79" height="13.545"/>
<path fill="#FFFFFF" d="M11.839,8.237L10.53,8.473c-0.044-0.261-0.143-0.459-0.301-0.591c-0.154-0.132-0.358-0.196-0.606-0.196
	c-0.331,0-0.595,0.113-0.792,0.342C8.635,8.255,8.537,8.636,8.537,9.173c0,0.593,0.1,1.013,0.301,1.258
	c0.199,0.246,0.467,0.37,0.804,0.37c0.252,0,0.458-0.072,0.619-0.215c0.16-0.144,0.274-0.389,0.34-0.741l1.304,0.223
	c-0.135,0.601-0.395,1.051-0.779,1.356c-0.384,0.306-0.899,0.458-1.545,0.458c-0.734,0-1.318-0.231-1.753-0.695
	c-0.437-0.461-0.655-1.104-0.655-1.919c0-0.829,0.219-1.475,0.656-1.936C8.266,6.871,8.858,6.64,9.604,6.64
	c0.611,0,1.097,0.132,1.457,0.395C11.422,7.297,11.681,7.698,11.839,8.237z"/>
<path fill="#FFFFFF" d="M12.538,9.192c0-0.442,0.109-0.868,0.326-1.28c0.217-0.414,0.525-0.729,0.924-0.944
	c0.398-0.22,0.843-0.327,1.334-0.327c0.759,0,1.381,0.246,1.865,0.739c0.485,0.493,0.728,1.117,0.728,1.869
	c0,0.76-0.245,1.387-0.734,1.886c-0.49,0.5-1.106,0.749-1.85,0.749c-0.46,0-0.898-0.102-1.315-0.31
	c-0.417-0.208-0.735-0.514-0.952-0.914C12.646,10.257,12.538,9.766,12.538,9.192z M13.898,9.26c0,0.499,0.118,0.88,0.354,1.145
	c0.236,0.264,0.527,0.396,0.874,0.396c0.347,0,0.636-0.132,0.872-0.396c0.234-0.265,0.352-0.65,0.352-1.153
	c0-0.491-0.117-0.868-0.352-1.132c-0.235-0.265-0.525-0.397-0.872-0.397c-0.347,0-0.638,0.132-0.874,0.397
	C14.016,8.384,13.898,8.765,13.898,9.26z"/>
<path fill="#FFFFFF" d="M18.654,6.753h1.224v0.686c0.437-0.533,0.958-0.799,1.563-0.799c0.321,0,0.6,0.066,0.836,0.198
	c0.236,0.132,0.43,0.333,0.581,0.601c0.22-0.269,0.458-0.469,0.713-0.601c0.255-0.132,0.527-0.198,0.817-0.198
	c0.369,0,0.681,0.076,0.936,0.225c0.255,0.149,0.446,0.369,0.572,0.658c0.091,0.216,0.137,0.561,0.137,1.039v3.208h-1.328V8.9
	c0-0.496-0.045-0.817-0.137-0.962c-0.123-0.189-0.312-0.284-0.567-0.284c-0.186,0-0.361,0.057-0.524,0.17
	c-0.163,0.113-0.281,0.279-0.354,0.499c-0.073,0.219-0.109,0.566-0.109,1.038v2.407h-1.327V9.022c0-0.488-0.024-0.804-0.071-0.946
	c-0.046-0.142-0.119-0.248-0.22-0.316c-0.099-0.069-0.233-0.105-0.403-0.105c-0.205,0-0.39,0.057-0.553,0.167
	c-0.164,0.109-0.281,0.268-0.352,0.476c-0.071,0.208-0.106,0.555-0.106,1.035v2.437h-1.328V6.753z"/>
<path fill="#FFFFFF" d="M31.729,8.237L30.42,8.473c-0.044-0.261-0.145-0.459-0.299-0.591c-0.156-0.132-0.359-0.196-0.607-0.196
	c-0.33,0-0.594,0.113-0.791,0.342c-0.198,0.228-0.295,0.609-0.295,1.146c0,0.593,0.1,1.013,0.299,1.258s0.468,0.37,0.805,0.37
	c0.253,0,0.458-0.072,0.619-0.215s0.274-0.389,0.34-0.741l1.303,0.223c-0.135,0.601-0.395,1.051-0.779,1.356
	c-0.384,0.306-0.899,0.458-1.544,0.458c-0.734,0-1.318-0.231-1.755-0.695c-0.435-0.461-0.653-1.104-0.653-1.919
	c0-0.829,0.219-1.475,0.656-1.936c0.438-0.461,1.03-0.691,1.776-0.691c0.611,0,1.097,0.132,1.458,0.395
	C31.313,7.297,31.571,7.698,31.729,8.237z"/>
<path fill="#FFFFFF" d="M32.428,9.192c0-0.442,0.108-0.868,0.326-1.28c0.217-0.414,0.525-0.729,0.922-0.944
	c0.399-0.22,0.845-0.327,1.336-0.327c0.757,0,1.379,0.246,1.864,0.739c0.486,0.493,0.728,1.117,0.728,1.869
	c0,0.76-0.246,1.387-0.735,1.886c-0.489,0.5-1.105,0.749-1.85,0.749c-0.459,0-0.897-0.102-1.314-0.31
	c-0.417-0.208-0.734-0.514-0.951-0.914C32.537,10.257,32.428,9.766,32.428,9.192z M33.789,9.26c0,0.499,0.117,0.88,0.355,1.145
	c0.234,0.264,0.527,0.396,0.873,0.396s0.636-0.132,0.871-0.396c0.234-0.265,0.353-0.65,0.353-1.153c0-0.491-0.119-0.868-0.353-1.132
	c-0.235-0.265-0.525-0.397-0.871-0.397s-0.639,0.132-0.873,0.397C33.906,8.384,33.789,8.765,33.789,9.26z"/>
<path fill="#FFFFFF" d="M43.244,11.769h-1.232v-0.736c-0.204,0.287-0.446,0.502-0.726,0.643c-0.279,0.139-0.56,0.208-0.843,0.208
	c-0.577,0-1.07-0.231-1.482-0.695c-0.41-0.465-0.616-1.115-0.616-1.946c0-0.849,0.201-1.496,0.601-1.938
	c0.399-0.442,0.905-0.663,1.515-0.663c0.561,0,1.045,0.232,1.456,0.699V4.845h1.327V11.769z M39.702,9.154
	c0,0.533,0.073,0.922,0.221,1.16c0.213,0.348,0.514,0.521,0.898,0.521c0.307,0,0.563-0.131,0.779-0.389
	c0.215-0.261,0.32-0.65,0.32-1.168c0-0.574-0.102-0.989-0.31-1.242c-0.208-0.253-0.476-0.381-0.802-0.381
	c-0.313,0-0.576,0.127-0.79,0.376C39.808,8.282,39.702,8.655,39.702,9.154z"/>
<path fill="#FFFFFF" d="M47.457,10.174l1.322,0.22c-0.17,0.487-0.438,0.858-0.805,1.111c-0.366,0.253-0.823,0.378-1.375,0.378
	c-0.873,0-1.52-0.284-1.938-0.854c-0.329-0.457-0.495-1.032-0.495-1.731c0-0.831,0.219-1.48,0.653-1.951
	c0.435-0.47,0.982-0.707,1.647-0.707c0.744,0,1.334,0.246,1.765,0.739c0.432,0.493,0.639,1.25,0.62,2.267h-3.325
	c0.011,0.393,0.117,0.699,0.321,0.918s0.461,0.329,0.767,0.329c0.208,0,0.382-0.057,0.521-0.17
	C47.279,10.609,47.385,10.423,47.457,10.174z M47.533,8.833c-0.008-0.384-0.106-0.677-0.295-0.877c-0.189-0.2-0.42-0.3-0.692-0.3
	c-0.29,0-0.528,0.105-0.718,0.317c-0.188,0.211-0.283,0.497-0.279,0.86H47.533z"/>
<path fill="#FFFFFF" d="M50.189,8.082V6.753h1.326v1.328H50.189z M50.189,11.769v-1.326h1.326v1.326H50.189z"/>
<path fill="#FFFFFF" d="M8.457,16.023l-1.204-0.219c0.135-0.482,0.368-0.842,0.699-1.076c0.331-0.23,0.822-0.348,1.474-0.348
	c0.592,0,1.033,0.068,1.322,0.207c0.29,0.141,0.493,0.322,0.612,0.537c0.117,0.215,0.177,0.607,0.177,1.186l-0.014,1.551
	c0,0.441,0.021,0.766,0.064,0.975c0.042,0.211,0.122,0.436,0.238,0.672h-1.313c-0.035-0.086-0.078-0.219-0.128-0.393
	c-0.022-0.076-0.038-0.129-0.047-0.156c-0.226,0.225-0.469,0.387-0.727,0.496c-0.258,0.113-0.534,0.166-0.827,0.166
	c-0.517,0-0.924-0.139-1.22-0.42c-0.299-0.279-0.447-0.635-0.447-1.061c0-0.283,0.068-0.537,0.204-0.76
	c0.135-0.223,0.325-0.393,0.568-0.51c0.245-0.117,0.596-0.221,1.056-0.311c0.621-0.117,1.05-0.223,1.29-0.324v-0.133
	c0-0.258-0.063-0.438-0.189-0.545c-0.125-0.109-0.363-0.166-0.713-0.166c-0.236,0-0.42,0.049-0.553,0.141
	C8.646,15.626,8.539,15.789,8.457,16.023z M10.233,17.101c-0.17,0.057-0.439,0.125-0.808,0.199c-0.369,0.08-0.609,0.16-0.723,0.234
	C8.53,17.656,8.443,17.812,8.443,18c0,0.189,0.069,0.348,0.208,0.484c0.139,0.135,0.314,0.203,0.529,0.203
	c0.239,0,0.468-0.08,0.686-0.238c0.16-0.117,0.266-0.264,0.316-0.438c0.035-0.113,0.052-0.328,0.052-0.646V17.101z"/>
<path fill="#FFFFFF" d="M17.445,19.507h-1.232v-0.736c-0.206,0.287-0.447,0.502-0.725,0.643c-0.28,0.139-0.561,0.207-0.844,0.207
	c-0.576,0-1.07-0.23-1.48-0.695c-0.412-0.465-0.617-1.113-0.617-1.945c0-0.85,0.2-1.496,0.6-1.939c0.4-0.441,0.905-0.66,1.517-0.66
	c0.56,0,1.045,0.23,1.455,0.699v-2.495h1.327V19.507z M13.903,16.892c0,0.533,0.073,0.924,0.222,1.16
	c0.215,0.348,0.514,0.521,0.898,0.521c0.305,0,0.565-0.133,0.779-0.389c0.214-0.26,0.321-0.65,0.321-1.168
	c0-0.574-0.104-0.99-0.312-1.242c-0.208-0.254-0.474-0.383-0.798-0.383c-0.314,0-0.579,0.129-0.79,0.379
	C14.009,16.019,13.903,16.394,13.903,16.892z"/>
<path fill="#FFFFFF" d="M23.354,19.507h-1.233v-0.736c-0.205,0.287-0.446,0.502-0.726,0.643c-0.277,0.139-0.56,0.207-0.843,0.207
	c-0.576,0-1.069-0.23-1.481-0.695c-0.41-0.465-0.616-1.113-0.616-1.945c0-0.85,0.2-1.496,0.6-1.939
	c0.399-0.441,0.905-0.66,1.517-0.66c0.56,0,1.045,0.23,1.454,0.699v-2.495h1.328V19.507z M19.812,16.892
	c0,0.533,0.074,0.924,0.223,1.16c0.214,0.348,0.513,0.521,0.897,0.521c0.305,0,0.565-0.133,0.779-0.389
	c0.215-0.26,0.322-0.65,0.322-1.168c0-0.574-0.104-0.99-0.312-1.242c-0.208-0.254-0.475-0.383-0.799-0.383
	c-0.314,0-0.578,0.129-0.792,0.379C19.918,16.019,19.812,16.394,19.812,16.892z"/>
<path fill="#FFFFFF" d="M29.651,14.494v1.057h-0.907v2.021c0,0.41,0.008,0.646,0.026,0.715c0.017,0.068,0.057,0.125,0.117,0.166
	c0.063,0.047,0.137,0.068,0.225,0.068c0.123,0,0.301-0.041,0.534-0.129l0.113,1.033c-0.309,0.131-0.658,0.195-1.048,0.195
	c-0.239,0-0.455-0.037-0.647-0.121c-0.192-0.078-0.333-0.182-0.423-0.311c-0.089-0.127-0.151-0.301-0.186-0.516
	c-0.029-0.156-0.043-0.465-0.043-0.938V15.55h-0.609v-1.057h0.609v-0.998l1.333-0.774v1.772H29.651z"/>
<path fill="#FFFFFF" d="M31.563,16.023l-1.204-0.219c0.135-0.482,0.368-0.842,0.699-1.076c0.331-0.23,0.822-0.348,1.474-0.348
	c0.592,0,1.033,0.068,1.322,0.207c0.289,0.141,0.493,0.322,0.612,0.537c0.117,0.215,0.175,0.607,0.175,1.186l-0.013,1.551
	c0,0.441,0.021,0.766,0.064,0.975c0.042,0.211,0.121,0.436,0.238,0.672h-1.313c-0.035-0.086-0.078-0.219-0.128-0.393
	c-0.022-0.076-0.038-0.129-0.047-0.156c-0.226,0.225-0.469,0.387-0.727,0.496c-0.258,0.113-0.534,0.166-0.827,0.166
	c-0.517,0-0.924-0.139-1.22-0.42c-0.299-0.279-0.447-0.635-0.447-1.061c0-0.283,0.068-0.537,0.204-0.76
	c0.135-0.223,0.325-0.393,0.568-0.51c0.245-0.117,0.596-0.221,1.056-0.311c0.621-0.117,1.05-0.223,1.29-0.324v-0.133
	c0-0.258-0.063-0.438-0.189-0.545c-0.125-0.109-0.364-0.166-0.713-0.166c-0.236,0-0.42,0.049-0.553,0.141
	C31.753,15.626,31.646,15.789,31.563,16.023z M33.34,17.101c-0.17,0.057-0.439,0.125-0.808,0.199
	c-0.369,0.08-0.609,0.16-0.723,0.234C31.637,17.656,31.55,17.812,31.55,18c0,0.189,0.069,0.348,0.208,0.484
	c0.139,0.135,0.314,0.203,0.529,0.203c0.239,0,0.468-0.08,0.686-0.238c0.16-0.117,0.266-0.264,0.316-0.438
	c0.035-0.113,0.052-0.328,0.052-0.646V17.101z"/>
<path fill="#FFFFFF" d="M35.829,19.841l1.518,0.182c0.025,0.176,0.083,0.297,0.176,0.365c0.125,0.094,0.323,0.141,0.593,0.141
	c0.348,0,0.606-0.055,0.78-0.156c0.118-0.068,0.205-0.18,0.265-0.336c0.042-0.109,0.063-0.314,0.063-0.607v-0.734
	c-0.397,0.545-0.9,0.813-1.504,0.813c-0.673,0-1.207-0.283-1.601-0.854c-0.308-0.449-0.463-1.014-0.463-1.682
	c0-0.842,0.203-1.484,0.607-1.928c0.404-0.445,0.909-0.664,1.509-0.664c0.62,0,1.132,0.271,1.535,0.816v-0.703h1.243v4.5
	c0,0.594-0.049,1.035-0.147,1.326c-0.097,0.295-0.234,0.525-0.41,0.691c-0.175,0.166-0.412,0.295-0.707,0.389
	c-0.295,0.096-0.667,0.145-1.116,0.145c-0.851,0-1.454-0.148-1.81-0.438c-0.355-0.293-0.533-0.658-0.533-1.107
	C35.825,19.957,35.827,19.9,35.829,19.841z M37.016,16.896c0,0.533,0.104,0.922,0.31,1.168c0.206,0.25,0.461,0.369,0.763,0.369
	c0.323,0,0.597-0.123,0.82-0.377c0.225-0.252,0.336-0.631,0.336-1.125c0-0.521-0.107-0.908-0.321-1.16
	c-0.213-0.25-0.486-0.379-0.813-0.379c-0.317,0-0.58,0.125-0.786,0.375C37.12,16.011,37.016,16.39,37.016,16.896z"/>
<path fill="#FFFFFF" stroke="#838484" stroke-width="0.5" stroke-miterlimit="10" d="M68.299,22.21
	c-0.895,1.512-2.69,2.102-4.02,1.318l-8.642-5.105c-1.324-0.783-1.68-2.643-0.786-4.152l5.812-9.84
	c0.893-1.507,2.689-2.097,4.016-1.313L73.32,8.22c1.328,0.785,1.68,2.646,0.789,4.154L68.299,22.21z"/>
<linearGradient id="SVGID_1_" gradientUnits="userSpaceOnUse" x1="62.0596" y1="17.6196" x2="67.9734" y2="7.1218">
	<stop  offset="0" style="stop-color:#FFFFFF"/>
	<stop  offset="1" style="stop-color:#E9EAEB"/>
</linearGradient>
<path fill="url(#SVGID_1_)" d="M67.535,20.433c-0.714,1.209-2.152,1.68-3.214,1.051l-6.915-4.082
	c-1.058-0.627-1.344-2.113-0.628-3.318l4.648-7.874c0.712-1.205,2.152-1.678,3.212-1.05l6.913,4.082
	c1.063,0.627,1.345,2.116,0.632,3.321L67.535,20.433z"/>
<linearGradient id="SVGID_2_" gradientUnits="userSpaceOnUse" x1="63.6738" y1="9.4565" x2="63.6835" y2="17.0619">
	<stop  offset="0" style="stop-color:#3268B2"/>
	<stop  offset="1" style="stop-color:#253C7F"/>
</linearGradient>
<path fill="url(#SVGID_2_)" d="M67.371,8.983h-3.643c0,0-3.851,0.326-3.851,4.188c0,4.112,3.905,4.258,3.905,4.258h3.699v-2.373
	h-3.864c0,0-1.295-0.148-1.295-1.836c0-1.615,1.405-1.697,1.405-1.697h3.533L67.371,8.983z"/>
</svg>
