<?xml version="1.0" encoding="utf-8"?>
<svg version="1.1"
	 xmlns="http://www.w3.org/2000/svg" xmlns:xlink="http://www.w3.org/1999/xlink"
	 x="0px" y="0px" width="53px" height="33px" viewBox="0 0 53 33">
<defs>
</defs>
<rect x="2" fill="#C86B28" width="48.875" height="32.98"/>
<rect x="2" fill="#F89624" width="48.875" height="16.692"/>
<path fill="#FFC762" d="M35.877,15.267c-0.552-1.702-1.576-3.007-3.068-3.917c-1.493-0.908-3.651-0.903-6.477,0.019
	c-2.727,0.888-4.758,2.709-6.093,5.47c-1.334,2.755-1.548,5.523-0.643,8.307c0.814,2.5,2.181,4.189,4.095,5.071
	c1.915,0.878,3.953,0.968,6.113,0.262c1.263-0.408,2.43-1.002,3.5-1.775c1.069-0.771,2.265-2.063,3.588-3.869l0.275,0.215
	c-0.906,1.419-1.983,2.66-3.231,3.732c-1.249,1.068-2.644,1.854-4.188,2.356c-2.751,0.894-5.313,0.919-7.688,0.07
	c-2.376-0.849-4.008-2.632-4.895-5.347c-1.045-3.211-0.702-6.314,1.031-9.304c1.734-2.99,4.284-5.035,7.649-6.131
	c2.441-0.795,4.625-0.778,6.55,0.048c1.924,0.827,3.234,2.3,3.923,4.419c0.396,1.223,0.539,2.389,0.422,3.494
	c-0.117,1.107-0.445,2.205-0.978,3.283c-0.541,1.08-1.177,1.906-1.914,2.469c-0.739,0.565-1.434,0.955-2.08,1.167
	c-0.743,0.242-1.428,0.249-2.055,0.022c-0.629-0.227-1.063-0.698-1.296-1.416l-0.097,0.005c-0.269,0.911-0.595,1.61-0.979,2.114
	c-0.382,0.499-0.976,0.881-1.779,1.145c-0.834,0.269-1.603,0.235-2.303-0.111c-0.701-0.342-1.195-0.954-1.484-1.835
	c-0.537-1.653-0.322-3.55,0.645-5.693c0.968-2.144,2.378-3.515,4.231-4.118c0.464-0.15,0.899-0.174,1.311-0.067
	c0.411,0.105,0.69,0.39,0.844,0.852c0.012,0.098,0.027,0.169,0.043,0.218l0.094-0.031l0.14-1.532l4.1-1.335
	c-0.081,0.692-0.184,1.558-0.309,2.591c-0.123,1.035-0.266,2.284-0.432,3.747c-0.163,1.465-0.261,2.36-0.29,2.691
	c-0.028,0.326-0.001,0.624,0.083,0.885c0.075,0.233,0.188,0.394,0.338,0.479c0.148,0.091,0.331,0.099,0.547,0.026
	c0.432-0.138,0.846-0.414,1.24-0.826c0.396-0.414,0.804-1.073,1.223-1.993c0.419-0.912,0.666-1.833,0.738-2.764
	C36.393,17.425,36.246,16.396,35.877,15.267z M28.647,17.993c0.013-0.737-0.031-1.269-0.137-1.595
	c-0.07-0.215-0.176-0.36-0.31-0.437c-0.136-0.075-0.312-0.079-0.527-0.007c-0.247,0.078-0.47,0.361-0.669,0.843
	c-0.199,0.483-0.354,1.076-0.466,1.78c-0.111,0.706-0.202,1.289-0.272,1.755c-0.067,0.465-0.106,0.766-0.109,0.907l-0.251,2.593
	c-0.046,0.597-0.069,1.073-0.07,1.434c-0.001,0.36,0.024,0.621,0.08,0.792c0.04,0.125,0.102,0.209,0.184,0.246
	c0.081,0.042,0.176,0.047,0.285,0.013c0.385-0.126,0.75-0.516,1.099-1.167c0.349-0.651,0.567-1.366,0.653-2.146l0.306-2.508
	c0.04-0.439,0.086-0.891,0.132-1.351C28.619,18.686,28.643,18.302,28.647,17.993z"/>
<path fill="#FFFFFF" d="M16.37,10.153L18,10.424c-0.211,0.6-0.54,1.055-0.993,1.367c-0.453,0.312-1.019,0.469-1.7,0.469
	c-1.073,0-1.869-0.354-2.384-1.054c-0.409-0.563-0.61-1.272-0.61-2.131c0-1.025,0.267-1.824,0.802-2.405
	c0.536-0.58,1.214-0.871,2.031-0.871c0.921,0,1.646,0.302,2.18,0.91c0.531,0.608,0.784,1.54,0.761,2.793h-4.099
	c0.011,0.484,0.141,0.86,0.395,1.131c0.253,0.27,0.567,0.405,0.945,0.405c0.255,0,0.469-0.071,0.645-0.209
	C16.146,10.687,16.279,10.463,16.37,10.153z M16.463,8.5c-0.015-0.474-0.135-0.834-0.369-1.081c-0.234-0.246-0.518-0.37-0.851-0.37
	c-0.355,0-0.651,0.129-0.884,0.391C14.128,7.701,14.015,8.053,14.02,8.5H16.463z"/>
<path fill="#FFFFFF" d="M19.297,5.938h1.506v0.845c0.541-0.656,1.183-0.984,1.927-0.984c0.396,0,0.74,0.082,1.029,0.244
	c0.293,0.164,0.53,0.41,0.716,0.74c0.27-0.33,0.565-0.577,0.882-0.74c0.312-0.162,0.646-0.244,1.005-0.244
	c0.453,0,0.839,0.093,1.153,0.276c0.314,0.186,0.55,0.454,0.705,0.811c0.111,0.267,0.168,0.692,0.168,1.28v3.953h-1.635V8.585
	c0-0.61-0.054-1.007-0.169-1.188c-0.151-0.233-0.384-0.348-0.698-0.348c-0.23,0-0.445,0.071-0.645,0.21
	c-0.202,0.138-0.348,0.345-0.438,0.614c-0.088,0.27-0.135,0.695-0.135,1.278v2.969h-1.635V8.733c0-0.601-0.028-0.99-0.088-1.164
	c-0.054-0.177-0.149-0.306-0.27-0.389c-0.122-0.087-0.288-0.131-0.499-0.131c-0.25,0-0.479,0.071-0.681,0.205
	c-0.201,0.133-0.343,0.329-0.432,0.586c-0.09,0.256-0.131,0.683-0.131,1.276v3.004h-1.636V5.938L19.297,5.938z"/>
<path fill="#FFFFFF" d="M31.24,7.822l-1.482-0.267c0.165-0.6,0.45-1.04,0.861-1.327c0.404-0.285,1.009-0.43,1.815-0.43
	c0.728,0,1.271,0.087,1.63,0.258c0.354,0.172,0.604,0.394,0.755,0.66c0.143,0.264,0.216,0.751,0.216,1.465l-0.016,1.908
	c0,0.543,0.022,0.943,0.079,1.2c0.05,0.259,0.149,0.533,0.293,0.831h-1.621c-0.042-0.112-0.092-0.271-0.155-0.485
	c-0.027-0.097-0.048-0.161-0.06-0.19c-0.278,0.271-0.577,0.474-0.897,0.609c-0.318,0.139-0.658,0.205-1.017,0.205
	c-0.638,0-1.14-0.173-1.504-0.518c-0.368-0.346-0.553-0.78-0.553-1.311c0-0.348,0.084-0.661,0.25-0.933
	c0.167-0.273,0.398-0.483,0.704-0.629c0.3-0.146,0.731-0.271,1.297-0.382c0.767-0.146,1.295-0.276,1.591-0.4V7.923
	c0-0.315-0.078-0.54-0.233-0.672c-0.156-0.135-0.448-0.202-0.877-0.202c-0.293,0-0.52,0.058-0.682,0.171
	C31.473,7.336,31.339,7.537,31.24,7.822z M33.431,9.151c-0.212,0.069-0.544,0.154-0.994,0.249c-0.457,0.099-0.755,0.192-0.893,0.285
	c-0.212,0.153-0.318,0.344-0.318,0.576c0,0.229,0.083,0.428,0.255,0.597c0.169,0.165,0.386,0.248,0.653,0.248
	c0.291,0,0.575-0.098,0.841-0.29c0.197-0.146,0.331-0.33,0.394-0.541c0.042-0.14,0.063-0.408,0.063-0.799V9.151L33.431,9.151z"/>
<path fill="#FFFFFF" d="M36.649,5.102V3.587h1.636v1.515H36.649z M36.649,12.121V5.938h1.636v6.183H36.649z"/>
<path fill="#FFFFFF" d="M39.96,12.121V3.587h1.635v8.534H39.96z"/>
</svg>
