<?xml version="1.0" encoding="utf-8"?>
<!-- Generator: Adobe Illustrator 15.0.0, SVG Export Plug-In  -->
<!DOCTYPE svg PUBLIC "-//W3C//DTD SVG 1.1//EN" "http://www.w3.org/Graphics/SVG/1.1/DTD/svg11.dtd" [
	<!ENTITY ns_flows "http://ns.adobe.com/Flows/1.0/">
]>
<svg version="1.1"
	 xmlns="http://www.w3.org/2000/svg" xmlns:xlink="http://www.w3.org/1999/xlink" xmlns:a="http://ns.adobe.com/AdobeSVGViewerExtensions/3.0/"
	 x="0px" y="0px" width="40px" height="33px" viewBox="-0.65 -3.443 40 33" enable-background="new -0.65 -3.443 40 33"
	 xml:space="preserve">
<defs>
</defs>
<rect fill="#C8691C" width="38.699" height="26.114"/>
<rect fill="#F79523" width="38.699" height="13.217"/>
<path fill="#FFC75F" d="M26.824,12.088c-0.438-1.348-1.248-2.381-2.43-3.102c-1.181-0.718-2.89-0.714-5.128,0.015
	c-2.159,0.703-3.767,2.146-4.824,4.331c-1.056,2.182-1.226,4.374-0.509,6.577c0.645,1.98,1.727,3.318,3.243,4.016
	c1.516,0.695,3.129,0.766,4.839,0.207c1.001-0.324,1.924-0.793,2.772-1.406c0.847-0.611,1.793-1.633,2.841-3.063l0.218,0.17
	c-0.718,1.123-1.57,2.107-2.559,2.955c-0.989,0.846-2.094,1.469-3.316,1.867c-2.179,0.707-4.207,0.727-6.088,0.055
	c-1.882-0.672-3.174-2.084-3.876-4.234c-0.828-2.543-0.556-5,0.816-7.366c1.373-2.368,3.392-3.987,6.057-4.855
	c1.933-0.629,3.662-0.617,5.186,0.038c1.524,0.655,2.561,1.821,3.107,3.499c0.314,0.968,0.427,1.891,0.334,2.766
	c-0.093,0.877-0.353,1.746-0.775,2.6c-0.427,0.855-0.931,1.51-1.515,1.955c-0.585,0.447-1.135,0.756-1.647,0.924
	c-0.587,0.191-1.13,0.197-1.627,0.018c-0.498-0.18-0.841-0.553-1.026-1.121l-0.077,0.004c-0.213,0.721-0.471,1.275-0.775,1.674
	c-0.303,0.395-0.773,0.697-1.409,0.906c-0.66,0.213-1.269,0.186-1.823-0.088c-0.555-0.271-0.946-0.756-1.175-1.453
	c-0.425-1.309-0.255-2.811,0.511-4.508s1.883-2.784,3.35-3.261c0.367-0.119,0.712-0.137,1.038-0.054
	c0.325,0.084,0.547,0.309,0.667,0.675c0.01,0.077,0.022,0.134,0.035,0.172l0.074-0.024l0.111-1.213l3.246-1.058
	c-0.064,0.549-0.146,1.233-0.245,2.052c-0.098,0.819-0.211,1.809-0.341,2.967c-0.13,1.16-0.207,1.869-0.23,2.131
	c-0.023,0.258-0.001,0.494,0.066,0.701c0.059,0.184,0.148,0.311,0.267,0.379c0.117,0.072,0.262,0.078,0.433,0.021
	c0.342-0.109,0.67-0.328,0.982-0.654c0.314-0.328,0.637-0.85,0.969-1.578c0.332-0.723,0.527-1.451,0.584-2.189
	C27.232,13.797,27.116,12.982,26.824,12.088z M21.099,14.247c0.011-0.584-0.024-1.005-0.108-1.263
	c-0.056-0.17-0.139-0.285-0.245-0.346c-0.107-0.059-0.247-0.062-0.417-0.005c-0.195,0.063-0.372,0.286-0.53,0.668
	c-0.158,0.383-0.281,0.852-0.369,1.409c-0.088,0.559-0.16,1.02-0.215,1.389c-0.054,0.369-0.084,0.607-0.087,0.719l-0.199,2.053
	c-0.036,0.473-0.054,0.85-0.055,1.135s0.019,0.492,0.063,0.627c0.032,0.1,0.081,0.166,0.146,0.195
	c0.064,0.033,0.139,0.037,0.225,0.01c0.305-0.1,0.594-0.408,0.87-0.924s0.449-1.082,0.517-1.699l0.242-1.986
	c0.032-0.348,0.069-0.705,0.105-1.07C21.077,14.795,21.096,14.491,21.099,14.247z"/>
<path fill="#FFFFFF" d="M11.378,8.039l1.291,0.215c-0.167,0.474-0.428,0.835-0.786,1.082c-0.359,0.247-0.807,0.371-1.346,0.371
	c-0.85,0-1.48-0.279-1.888-0.834C8.325,8.428,8.166,7.865,8.166,7.185c0-0.811,0.211-1.444,0.635-1.904
	c0.424-0.459,0.961-0.689,1.608-0.689c0.729,0,1.303,0.238,1.726,0.72c0.42,0.482,0.621,1.219,0.603,2.211H9.492
	c0.009,0.384,0.112,0.682,0.313,0.896c0.201,0.214,0.449,0.321,0.748,0.321c0.202,0,0.372-0.056,0.511-0.166
	C11.201,8.462,11.306,8.284,11.378,8.039z M11.452,6.73c-0.012-0.375-0.107-0.66-0.292-0.856c-0.185-0.195-0.41-0.293-0.673-0.293
	c-0.282,0-0.516,0.103-0.7,0.31S9.513,6.376,9.517,6.73H11.452z"/>
<path fill="#FFFFFF" d="M13.696,4.702h1.192v0.669c0.428-0.52,0.936-0.779,1.526-0.779c0.313,0,0.586,0.064,0.815,0.193
	c0.232,0.13,0.42,0.325,0.567,0.586c0.214-0.261,0.447-0.457,0.698-0.586c0.247-0.129,0.512-0.193,0.796-0.193
	c0.359,0,0.664,0.073,0.913,0.219c0.249,0.146,0.435,0.359,0.559,0.641C20.85,5.663,20.894,6,20.894,6.466v3.13H19.6V6.798
	c0-0.484-0.043-0.798-0.134-0.94c-0.12-0.185-0.304-0.276-0.553-0.276c-0.182,0-0.352,0.056-0.51,0.166
	c-0.16,0.11-0.276,0.273-0.347,0.487c-0.07,0.213-0.107,0.55-0.107,1.012v2.351h-1.294V6.915c0-0.476-0.022-0.784-0.07-0.922
	c-0.043-0.139-0.118-0.242-0.214-0.308c-0.096-0.068-0.228-0.103-0.395-0.103c-0.198,0-0.38,0.056-0.539,0.162
	s-0.272,0.261-0.342,0.464c-0.071,0.203-0.104,0.541-0.104,1.011v2.378h-1.295V4.702z"/>
<path fill="#FFFFFF" d="M23.152,6.194l-1.174-0.211c0.131-0.475,0.357-0.824,0.682-1.051c0.321-0.226,0.799-0.34,1.438-0.34
	c0.576,0,1.006,0.068,1.29,0.204c0.281,0.136,0.479,0.312,0.598,0.522c0.114,0.21,0.171,0.595,0.171,1.16l-0.013,1.511
	c0,0.43,0.018,0.747,0.063,0.951c0.04,0.205,0.118,0.422,0.232,0.657h-1.283c-0.033-0.088-0.073-0.214-0.123-0.384
	c-0.021-0.076-0.038-0.127-0.047-0.151c-0.221,0.215-0.457,0.376-0.71,0.483c-0.252,0.109-0.521,0.162-0.805,0.162
	c-0.505,0-0.903-0.136-1.191-0.409c-0.291-0.274-0.438-0.619-0.438-1.038c0-0.276,0.066-0.523,0.198-0.738
	c0.132-0.218,0.316-0.384,0.557-0.498c0.238-0.117,0.58-0.216,1.028-0.303c0.607-0.115,1.025-0.219,1.26-0.317V6.274
	c0-0.25-0.062-0.428-0.185-0.533c-0.124-0.106-0.355-0.16-0.694-0.16c-0.233,0-0.412,0.046-0.54,0.136
	C23.337,5.808,23.231,5.968,23.152,6.194z M24.886,7.246c-0.167,0.055-0.43,0.122-0.787,0.197c-0.361,0.078-0.597,0.153-0.706,0.226
	C23.224,7.79,23.14,7.941,23.14,8.125c0,0.182,0.066,0.339,0.203,0.472c0.134,0.131,0.306,0.197,0.516,0.197
	c0.231,0,0.455-0.077,0.667-0.23c0.156-0.116,0.261-0.261,0.311-0.428c0.033-0.111,0.05-0.323,0.05-0.632V7.246z"/>
<path fill="#FFFFFF" d="M27.435,4.039V2.84h1.295v1.199H27.435z M27.435,9.597V4.702h1.295v4.895H27.435z"/>
<path fill="#FFFFFF" d="M30.057,9.597V2.84h1.295v6.757H30.057z"/>
</svg>
