<?xml version="1.0" encoding="utf-8"?>
<svg version="1.1"
	 xmlns="http://www.w3.org/2000/svg" xmlns:xlink="http://www.w3.org/1999/xlink"
	 x="0px" y="0px" width="53px" height="33px" viewBox="0 0 53 33">
<defs>
</defs>
<rect x="2" fill="#C86B28" width="48.75" height="32.899"/>
<rect x="2" fill="#F89624" width="48.75" height="16.649"/>
<path fill="#FFFFFF" d="M17.277,4.469v3.126c0.527-0.612,1.156-0.919,1.886-0.919c0.375,0,0.713,0.07,1.016,0.21
	c0.303,0.138,0.53,0.315,0.684,0.534c0.153,0.214,0.258,0.454,0.316,0.72c0.055,0.259,0.082,0.668,0.082,1.222v3.618h-1.631V9.724
	c0-0.646-0.032-1.059-0.093-1.229c-0.061-0.178-0.169-0.312-0.328-0.414c-0.158-0.104-0.353-0.157-0.59-0.157
	c-0.269,0-0.512,0.07-0.724,0.198c-0.213,0.131-0.371,0.331-0.469,0.596c-0.096,0.266-0.147,0.659-0.147,1.176v3.089h-1.631V4.469
	H17.277z"/>
<path fill="#FFFFFF" d="M22.915,5.98V4.469h1.632V5.98H22.915L22.915,5.98z M22.915,12.979V6.815h1.632v6.164H22.915z"/>
<path fill="#FFFFFF" d="M31.874,12.979h-1.516v-0.905c-0.252,0.353-0.55,0.617-0.89,0.789c-0.344,0.173-0.691,0.256-1.039,0.256
	c-0.707,0-1.315-0.284-1.818-0.855c-0.506-0.57-0.759-1.371-0.759-2.392c0-1.045,0.248-1.839,0.737-2.383
	c0.493-0.544,1.115-0.813,1.863-0.813c0.689,0,1.285,0.284,1.79,0.86V4.469h1.631V12.979L31.874,12.979z M27.518,9.766
	c0,0.653,0.092,1.132,0.274,1.426c0.264,0.429,0.632,0.642,1.102,0.642c0.375,0,0.696-0.164,0.96-0.479
	c0.262-0.32,0.395-0.798,0.395-1.436c0-0.706-0.131-1.216-0.386-1.529c-0.256-0.312-0.582-0.468-0.979-0.468
	c-0.387,0-0.71,0.156-0.971,0.465C27.645,8.692,27.518,9.151,27.518,9.766z"/>
<path fill="#FFFFFF" d="M37.053,11.02l1.625,0.269c-0.208,0.602-0.538,1.055-0.988,1.365c-0.454,0.313-1.02,0.466-1.698,0.466
	c-1.07,0-1.865-0.348-2.378-1.05c-0.408-0.563-0.61-1.268-0.61-2.128c0-1.021,0.268-1.82,0.802-2.396
	c0.534-0.581,1.21-0.869,2.023-0.869c0.919,0,1.642,0.303,2.174,0.907c0.529,0.608,0.782,1.537,0.758,2.786h-4.087
	c0.011,0.482,0.141,0.86,0.393,1.128c0.255,0.269,0.566,0.404,0.941,0.404c0.257,0,0.47-0.069,0.646-0.208
	C36.83,11.554,36.962,11.326,37.053,11.02z M37.146,9.371c-0.015-0.475-0.134-0.831-0.365-1.078c-0.234-0.245-0.517-0.37-0.85-0.37
	c-0.353,0-0.65,0.13-0.882,0.39c-0.233,0.261-0.346,0.613-0.342,1.061h2.439V9.371z"/>
<path fill="#FBB51C" d="M32.638,28.58v-8.011c0-0.797-0.648-1.444-1.448-1.444h-8.104c-0.801,0-1.447,0.647-1.447,1.444v8.011
	c0,0.8,0.647,1.448,1.447,1.448h8.104C31.99,30.028,32.638,29.38,32.638,28.58z M26.523,26.97l-3.616-3.619
	c-0.338-0.337-0.353-0.873-0.034-1.191c0.318-0.317,0.856-0.302,1.19,0.034l2.46,2.457c0.338,0.34,0.889,0.34,1.227,0l2.458-2.457
	c0.339-0.339,0.877-0.352,1.193-0.034c0.318,0.318,0.304,0.854-0.033,1.191L27.75,26.97C27.413,27.307,26.859,27.307,26.523,26.97z"
	/>
</svg>
