<?xml version="1.0" encoding="utf-8"?>
<svg version="1.1"
	 xmlns="http://www.w3.org/2000/svg" xmlns:xlink="http://www.w3.org/1999/xlink"
	 x="0px" y="0px" width="53px" height="33px" viewBox="0 0 53 33">
<defs>
</defs>
<rect x="2.013" fill="#C8691C" width="48.901" height="33"/>
<rect x="2.013" fill="#F79523" width="48.901" height="16.7"/>
<path fill="#FFFFFF" d="M19.353,25.723l-4.086-0.533l-0.251-0.874l3.176-2.616l0.298,1.03l-2.255,1.695l2.823,0.275L19.353,25.723z"
	/>
<path fill="#FFFFFF" d="M23.922,25.057l-0.943,0.272l-0.163-0.563c-0.093,0.263-0.23,0.479-0.413,0.649
	c-0.182,0.168-0.382,0.284-0.599,0.347c-0.44,0.126-0.871,0.059-1.286-0.204c-0.417-0.266-0.718-0.716-0.9-1.352
	c-0.188-0.652-0.176-1.19,0.031-1.616c0.208-0.425,0.545-0.706,1.011-0.842c0.429-0.123,0.853-0.053,1.267,0.212l-0.55-1.905
	l1.016-0.293L23.922,25.057z M20.635,23.838c0.119,0.41,0.261,0.689,0.426,0.839c0.24,0.217,0.506,0.281,0.802,0.198
	c0.23-0.068,0.403-0.224,0.51-0.469c0.105-0.244,0.103-0.568-0.011-0.964c-0.128-0.438-0.298-0.731-0.515-0.881
	c-0.212-0.146-0.445-0.187-0.694-0.114c-0.24,0.067-0.415,0.222-0.521,0.464C20.523,23.148,20.525,23.458,20.635,23.838z"/>
<path fill="#FFFFFF" d="M23.666,20.411l-0.272-0.938l1.016-0.294l0.272,0.941L23.666,20.411z M24.921,24.768l-1.106-3.837
	l1.016-0.293l1.106,3.839L24.921,24.768z"/>
<path fill="#FFFFFF" d="M28.034,23.87l-2.653-3.392l1.067-0.308l1.286,1.752l0.398,0.592c0.007-0.182,0.009-0.301,0.009-0.358
	c0.002-0.116,0.007-0.237,0.014-0.354l0.165-2.171l1.044-0.301l-0.417,4.277L28.034,23.87z"/>
<path fill="#FFFFFF" d="M30.731,22.44l-0.296-1.022l2.248-1.727l-2.818-0.256l-0.294-1.014l4.088,0.521l0.25,0.867L30.731,22.44z"/>
<path fill="#FFFFFF" d="M23.114,31.046l-4.085-0.529l-0.253-0.873l3.178-2.621l0.298,1.029l-2.255,1.698l2.823,0.275L23.114,31.046z
	"/>
<path fill="#FFFFFF" d="M23.649,31.642l-0.268-5.852l0.762-0.219l0.254,5.856L23.649,31.642z"/>
<path fill="#FFFFFF" d="M29.739,29.787l-0.941,0.273l-0.163-0.564c-0.093,0.264-0.23,0.48-0.415,0.652
	c-0.182,0.168-0.382,0.284-0.596,0.348c-0.443,0.125-0.871,0.056-1.288-0.208c-0.417-0.268-0.715-0.715-0.899-1.351
	c-0.188-0.65-0.177-1.19,0.03-1.617c0.21-0.426,0.547-0.705,1.013-0.841c0.429-0.123,0.851-0.051,1.265,0.215l-0.55-1.908
	l1.016-0.294L29.739,29.787z M26.454,28.569c0.119,0.41,0.259,0.689,0.424,0.841c0.242,0.215,0.508,0.282,0.801,0.198
	c0.233-0.067,0.403-0.224,0.51-0.471c0.107-0.242,0.105-0.566-0.012-0.962c-0.125-0.44-0.295-0.734-0.512-0.883
	c-0.214-0.147-0.447-0.187-0.694-0.114c-0.242,0.067-0.415,0.224-0.522,0.461C26.342,27.88,26.345,28.189,26.454,28.569z"/>
<path fill="#FFFFFF" d="M29.482,25.145l-0.27-0.94l1.016-0.294l0.27,0.941L29.482,25.145z M30.74,29.499l-1.106-3.837l1.016-0.294
	l1.106,3.837L30.74,29.499z"/>
<path fill="#FFFFFF" d="M33.85,28.602l-2.651-3.392l1.064-0.308l1.286,1.752l0.398,0.594c0.007-0.182,0.012-0.3,0.012-0.36
	c0-0.117,0.004-0.235,0.014-0.354l0.166-2.171l1.043-0.301l-0.417,4.277L33.85,28.602z"/>
<path fill="#FFFFFF" d="M36.55,27.174l-0.296-1.022l2.248-1.729l-2.821-0.257l-0.291-1.013l4.086,0.524l0.251,0.866L36.55,27.174z"
	/>
<path fill="#FFFFFF" d="M17.994,6.041v2.631c0.443-0.518,0.972-0.775,1.587-0.775c0.316,0,0.601,0.059,0.854,0.176
	s0.445,0.266,0.574,0.449c0.128,0.182,0.216,0.383,0.264,0.605c0.047,0.221,0.071,0.564,0.071,1.029v3.043h-1.372v-2.74
	c0-0.543-0.026-0.889-0.078-1.035s-0.144-0.262-0.276-0.348c-0.132-0.088-0.297-0.131-0.496-0.131c-0.228,0-0.431,0.057-0.61,0.166
	c-0.179,0.111-0.31,0.277-0.393,0.502c-0.083,0.223-0.125,0.551-0.125,0.988v2.598h-1.372V6.041H17.994z"/>
<path fill="#FFFFFF" d="M25.113,8.014v1.094h-0.938v2.09c0,0.422,0.009,0.67,0.027,0.74c0.018,0.068,0.059,0.127,0.122,0.172
	c0.063,0.047,0.141,0.068,0.232,0.068c0.127,0,0.311-0.043,0.552-0.131l0.117,1.064c-0.319,0.137-0.68,0.205-1.084,0.205
	c-0.248,0-0.47-0.041-0.669-0.125c-0.199-0.082-0.344-0.189-0.437-0.322c-0.093-0.131-0.157-0.311-0.193-0.535
	c-0.029-0.158-0.044-0.48-0.044-0.967v-2.26h-0.63V8.014h0.63V6.982l1.377-0.801v1.832H25.113z"/>
<path fill="#FFFFFF" d="M25.963,8.014h1.265v0.707c0.453-0.549,0.991-0.824,1.616-0.824c0.332,0,0.62,0.068,0.864,0.205
	s0.444,0.344,0.601,0.619c0.228-0.275,0.474-0.482,0.737-0.619s0.545-0.205,0.845-0.205c0.381,0,0.703,0.076,0.967,0.232
	c0.264,0.154,0.46,0.381,0.591,0.68c0.094,0.223,0.142,0.58,0.142,1.074v3.316h-1.372v-2.965c0-0.514-0.047-0.846-0.142-0.996
	c-0.127-0.195-0.322-0.293-0.586-0.293c-0.192,0-0.373,0.059-0.542,0.176s-0.292,0.289-0.366,0.516s-0.112,0.584-0.112,1.072v2.49
	h-1.372v-2.842c0-0.506-0.024-0.83-0.073-0.977S28.9,9.125,28.797,9.053c-0.103-0.07-0.242-0.107-0.417-0.107
	c-0.211,0-0.402,0.057-0.571,0.172c-0.169,0.113-0.291,0.277-0.364,0.492s-0.11,0.572-0.11,1.07v2.52h-1.372V8.014z"/>
<path fill="#FFFFFF" d="M34.957,13.199V6.041h1.372v7.158H34.957z"/>
</svg>
