<?xml version="1.0" encoding="utf-8"?>
<!-- Generator: Adobe Illustrator 15.0.0, SVG Export Plug-In  -->
<!DOCTYPE svg PUBLIC "-//W3C//DTD SVG 1.1//EN" "http://www.w3.org/Graphics/SVG/1.1/DTD/svg11.dtd" [
	<!ENTITY ns_flows "http://ns.adobe.com/Flows/1.0/">
]>
<svg version="1.1"
	 xmlns="http://www.w3.org/2000/svg" xmlns:xlink="http://www.w3.org/1999/xlink" xmlns:a="http://ns.adobe.com/AdobeSVGViewerExtensions/3.0/"
	 x="0px" y="0px" width="53px" height="33px" viewBox="0 0 53 33" enable-background="new 0 0 53 33" xml:space="preserve">
<defs>
</defs>
<rect display="none" fill="#FFF200" width="2" height="33"/>
<rect x="2.013" fill="#C8691C" width="48.901" height="33"/>
<rect x="2.013" fill="#F79523" width="48.901" height="16.7"/>
<path fill="#FFFFFF" d="M15.929,4.484V7.62c0.528-0.615,1.159-0.923,1.893-0.923c0.376,0,0.716,0.07,1.019,0.21
	s0.531,0.316,0.684,0.535c0.154,0.215,0.259,0.457,0.314,0.723c0.057,0.261,0.085,0.671,0.085,1.226v3.629h-1.636V9.754
	c0-0.647-0.032-1.063-0.093-1.234c-0.062-0.178-0.172-0.313-0.329-0.415c-0.158-0.103-0.355-0.158-0.592-0.158
	c-0.271,0-0.515,0.069-0.728,0.2c-0.213,0.13-0.37,0.331-0.47,0.597c-0.098,0.265-0.148,0.661-0.148,1.179v3.098h-1.636V4.484
	H15.929z"/>
<path fill="#FFFFFF" d="M24.42,6.837v1.305h-1.118v2.492c0,0.504,0.012,0.797,0.03,0.881c0.023,0.084,0.07,0.154,0.149,0.205
	c0.075,0.056,0.168,0.084,0.275,0.084c0.151,0,0.371-0.052,0.657-0.158l0.14,1.271c-0.38,0.163-0.811,0.242-1.291,0.242
	c-0.296,0-0.564-0.046-0.799-0.148c-0.235-0.099-0.412-0.224-0.519-0.383c-0.112-0.158-0.189-0.372-0.233-0.638
	c-0.033-0.191-0.051-0.573-0.051-1.155V8.142h-0.75V6.837h0.75V5.607l1.642-0.955v2.185H24.42z"/>
<path fill="#FFFFFF" d="M25.434,6.837h1.51v0.844c0.538-0.657,1.181-0.983,1.926-0.983c0.396,0,0.739,0.079,1.032,0.242
	c0.289,0.163,0.529,0.41,0.715,0.741c0.273-0.331,0.566-0.578,0.878-0.741c0.317-0.163,0.652-0.242,1.009-0.242
	c0.454,0,0.838,0.094,1.153,0.275c0.315,0.186,0.55,0.456,0.704,0.811c0.114,0.266,0.17,0.694,0.17,1.281v3.955h-1.638V9.483
	c0-0.61-0.056-1.006-0.168-1.188c-0.151-0.233-0.384-0.35-0.699-0.35c-0.229,0-0.445,0.069-0.647,0.209
	c-0.201,0.141-0.345,0.345-0.436,0.615S30.81,9.47,30.81,10.052v2.968h-1.637V9.633c0-0.602-0.03-0.992-0.086-1.165
	c-0.061-0.177-0.149-0.308-0.27-0.392c-0.126-0.084-0.289-0.13-0.499-0.13c-0.254,0-0.48,0.069-0.683,0.205
	c-0.203,0.135-0.347,0.33-0.436,0.587c-0.084,0.256-0.131,0.685-0.131,1.276v3.005h-1.635V6.837z"/>
<path fill="#FFFFFF" d="M36.161,13.02V4.484h1.638v8.535H36.161z"/>
<path fill="#FFFFFF" d="M19.353,25.723l-4.086-0.533l-0.251-0.874l3.176-2.616l0.298,1.03l-2.255,1.695l2.823,0.275L19.353,25.723z"
	/>
<path fill="#FFFFFF" d="M23.922,25.057l-0.943,0.272l-0.163-0.563c-0.093,0.263-0.23,0.479-0.413,0.649
	c-0.182,0.168-0.382,0.284-0.599,0.347c-0.44,0.126-0.871,0.059-1.286-0.204c-0.417-0.266-0.718-0.716-0.9-1.352
	c-0.188-0.652-0.176-1.19,0.031-1.616c0.208-0.425,0.545-0.706,1.011-0.842c0.429-0.123,0.853-0.053,1.267,0.212l-0.55-1.905
	l1.016-0.293L23.922,25.057z M20.635,23.838c0.119,0.41,0.261,0.689,0.426,0.839c0.24,0.217,0.506,0.281,0.802,0.198
	c0.23-0.068,0.403-0.224,0.51-0.469c0.105-0.244,0.103-0.568-0.011-0.964c-0.128-0.438-0.298-0.731-0.515-0.881
	c-0.212-0.146-0.445-0.187-0.694-0.114c-0.24,0.067-0.415,0.222-0.521,0.464C20.523,23.148,20.525,23.458,20.635,23.838z"/>
<path fill="#FFFFFF" d="M23.666,20.411l-0.272-0.938l1.016-0.294l0.272,0.941L23.666,20.411z M24.921,24.768l-1.106-3.837
	l1.016-0.293l1.106,3.839L24.921,24.768z"/>
<path fill="#FFFFFF" d="M28.034,23.87l-2.653-3.392l1.067-0.308l1.286,1.752l0.398,0.592c0.007-0.182,0.009-0.301,0.009-0.358
	c0.002-0.116,0.007-0.237,0.014-0.354l0.165-2.171l1.044-0.301l-0.417,4.277L28.034,23.87z"/>
<path fill="#FFFFFF" d="M30.731,22.44l-0.296-1.022l2.248-1.727l-2.818-0.256l-0.294-1.014l4.088,0.521l0.25,0.867L30.731,22.44z"/>
<path fill="#FFFFFF" d="M23.114,31.046l-4.085-0.529l-0.253-0.873l3.178-2.621l0.298,1.029l-2.255,1.698l2.823,0.275L23.114,31.046z
	"/>
<path fill="#FFFFFF" d="M23.649,31.642l-0.268-5.852l0.762-0.219l0.254,5.856L23.649,31.642z"/>
<path fill="#FFFFFF" d="M29.739,29.787l-0.941,0.273l-0.163-0.564c-0.093,0.264-0.23,0.48-0.415,0.652
	c-0.182,0.168-0.382,0.284-0.596,0.348c-0.443,0.125-0.871,0.056-1.288-0.208c-0.417-0.268-0.715-0.715-0.899-1.351
	c-0.188-0.65-0.177-1.19,0.03-1.617c0.21-0.426,0.547-0.705,1.013-0.841c0.429-0.123,0.851-0.051,1.265,0.215l-0.55-1.908
	l1.016-0.294L29.739,29.787z M26.454,28.569c0.119,0.41,0.259,0.689,0.424,0.841c0.242,0.215,0.508,0.282,0.801,0.198
	c0.233-0.067,0.403-0.224,0.51-0.471c0.107-0.242,0.105-0.566-0.012-0.962c-0.125-0.44-0.295-0.734-0.512-0.883
	c-0.214-0.147-0.447-0.187-0.694-0.114c-0.242,0.067-0.415,0.224-0.522,0.461C26.342,27.88,26.345,28.189,26.454,28.569z"/>
<path fill="#FFFFFF" d="M29.482,25.145l-0.27-0.94l1.016-0.294l0.27,0.941L29.482,25.145z M30.74,29.499l-1.106-3.837l1.016-0.294
	l1.106,3.837L30.74,29.499z"/>
<path fill="#FFFFFF" d="M33.85,28.602l-2.651-3.392l1.064-0.308l1.286,1.752l0.398,0.594c0.007-0.182,0.012-0.3,0.012-0.36
	c0-0.117,0.004-0.235,0.014-0.354l0.166-2.171l1.043-0.301l-0.417,4.277L33.85,28.602z"/>
<path fill="#FFFFFF" d="M36.55,27.174l-0.296-1.022l2.248-1.729l-2.821-0.257l-0.291-1.013l4.086,0.524l0.251,0.866L36.55,27.174z"
	/>
<rect x="50.927" display="none" fill="#FFF200" width="2" height="33"/>
</svg>
