<?xml version="1.0" encoding="utf-8"?>
<svg version="1.1"
	 xmlns="http://www.w3.org/2000/svg" xmlns:xlink="http://www.w3.org/1999/xlink"
	 x="0px" y="0px" width="87px" height="33px" viewBox="0 0 87 33">
<defs>
</defs>
<rect x="2" fill="#C8691C" width="82.5" height="33"/>
<rect x="2" fill="#F79523" width="82.5" height="16.638"/>
<path fill="#52CAF5" d="M57.938,4.909v21.013H78.95V4.909H57.938z M76.85,23.819H60.039V7.01H76.85V23.819z"/>
<rect x="61.843" y="9.928" fill="#52CAF5" width="6.392" height="5.036"/>
<rect x="68.814" y="9.928" fill="#52CAF5" width="6.39" height="5.036"/>
<rect x="61.843" y="16.9" fill="#52CAF5" width="6.392" height="5.036"/>
<rect x="68.814" y="16.9" fill="#52CAF5" width="6.39" height="5.036"/>
<path fill="#FFFFFF" d="M9.204,11.229l-1.245-0.225c0.14-0.501,0.381-0.872,0.723-1.113s0.85-0.361,1.523-0.361
	c0.612,0,1.068,0.072,1.367,0.217c0.299,0.146,0.51,0.329,0.632,0.553c0.122,0.223,0.183,0.632,0.183,1.228l-0.015,1.602
	c0,0.456,0.022,0.792,0.066,1.009c0.044,0.216,0.126,0.448,0.247,0.695h-1.357c-0.036-0.091-0.08-0.227-0.132-0.405
	c-0.023-0.081-0.039-0.135-0.049-0.161c-0.234,0.228-0.485,0.398-0.752,0.513S9.843,14.95,9.541,14.95
	c-0.534,0-0.955-0.145-1.262-0.435s-0.461-0.656-0.461-1.099c0-0.293,0.07-0.555,0.21-0.783c0.14-0.23,0.336-0.406,0.588-0.527
	c0.252-0.123,0.616-0.229,1.091-0.32c0.641-0.12,1.085-0.232,1.333-0.337v-0.137c0-0.264-0.065-0.452-0.195-0.563
	c-0.13-0.113-0.376-0.169-0.737-0.169c-0.244,0-0.435,0.048-0.571,0.144C9.399,10.82,9.288,10.988,9.204,11.229z M11.04,12.342
	c-0.176,0.059-0.454,0.129-0.835,0.21s-0.63,0.161-0.747,0.239c-0.179,0.127-0.269,0.288-0.269,0.483
	c0,0.192,0.072,0.358,0.215,0.498s0.326,0.21,0.547,0.21c0.248,0,0.483-0.081,0.708-0.244c0.166-0.124,0.275-0.275,0.327-0.454
	c0.036-0.117,0.054-0.34,0.054-0.669V12.342z"/>
<path fill="#FFFFFF" d="M18.496,14.833h-1.274v-0.762c-0.211,0.296-0.461,0.517-0.75,0.662c-0.288,0.145-0.579,0.217-0.872,0.217
	c-0.596,0-1.106-0.24-1.531-0.721c-0.425-0.479-0.637-1.149-0.637-2.009c0-0.879,0.207-1.547,0.62-2.005
	c0.414-0.457,0.936-0.686,1.567-0.686c0.58,0,1.081,0.241,1.504,0.723V7.674h1.372V14.833z M14.833,12.127
	c0,0.554,0.077,0.954,0.229,1.201c0.221,0.358,0.531,0.537,0.928,0.537c0.316,0,0.584-0.135,0.806-0.402
	c0.221-0.27,0.332-0.67,0.332-1.204c0-0.596-0.107-1.024-0.322-1.286c-0.215-0.263-0.49-0.394-0.825-0.394
	c-0.326,0-0.598,0.13-0.818,0.388C14.943,11.227,14.833,11.613,14.833,12.127z"/>
<path fill="#FFFFFF" d="M24.604,14.833H23.33v-0.762c-0.211,0.296-0.461,0.517-0.75,0.662c-0.288,0.145-0.579,0.217-0.872,0.217
	c-0.596,0-1.106-0.24-1.531-0.721c-0.425-0.479-0.637-1.149-0.637-2.009c0-0.879,0.207-1.547,0.62-2.005
	c0.414-0.457,0.936-0.686,1.567-0.686c0.58,0,1.081,0.241,1.504,0.723V7.674h1.372V14.833z M20.942,12.127
	c0,0.554,0.077,0.954,0.229,1.201c0.221,0.358,0.531,0.537,0.928,0.537c0.316,0,0.584-0.135,0.806-0.402
	c0.221-0.27,0.332-0.67,0.332-1.204c0-0.596-0.107-1.024-0.322-1.286c-0.215-0.263-0.49-0.394-0.825-0.394
	c-0.326,0-0.598,0.13-0.818,0.388C21.052,11.227,20.942,11.613,20.942,12.127z"/>
<path fill="#FFFFFF" d="M8.178,17.943v-1.269H9.55v1.269H8.178z M8.178,23.832v-5.186H9.55v5.186H8.178z"/>
<path fill="#FFFFFF" d="M10.854,18.646h1.265v0.709c0.453-0.551,0.991-0.826,1.616-0.826c0.332,0,0.62,0.068,0.864,0.205
	s0.444,0.344,0.601,0.621c0.228-0.277,0.474-0.484,0.737-0.621s0.545-0.205,0.845-0.205c0.381,0,0.703,0.078,0.967,0.232
	s0.46,0.381,0.591,0.682c0.094,0.221,0.142,0.578,0.142,1.074v3.314h-1.372v-2.963c0-0.516-0.047-0.848-0.142-0.996
	c-0.127-0.195-0.322-0.293-0.586-0.293c-0.192,0-0.373,0.059-0.542,0.176s-0.292,0.289-0.366,0.514
	c-0.075,0.227-0.112,0.584-0.112,1.072v2.49h-1.372V20.99c0-0.504-0.024-0.83-0.073-0.977s-0.125-0.256-0.227-0.326
	c-0.103-0.072-0.242-0.107-0.417-0.107c-0.211,0-0.402,0.057-0.571,0.17c-0.169,0.115-0.291,0.279-0.364,0.494
	s-0.11,0.57-0.11,1.068v2.52h-1.372V18.646z"/>
<path fill="#FFFFFF" d="M20.874,20.229l-1.245-0.225c0.14-0.5,0.381-0.871,0.723-1.113c0.342-0.24,0.85-0.361,1.523-0.361
	c0.612,0,1.068,0.072,1.367,0.217c0.299,0.146,0.51,0.33,0.632,0.553s0.183,0.633,0.183,1.229l-0.015,1.602
	c0,0.455,0.022,0.791,0.066,1.008s0.126,0.449,0.247,0.695h-1.357c-0.036-0.09-0.08-0.227-0.132-0.404
	c-0.023-0.082-0.039-0.135-0.049-0.162c-0.234,0.229-0.485,0.398-0.752,0.514c-0.267,0.113-0.552,0.17-0.854,0.17
	c-0.534,0-0.955-0.145-1.262-0.434c-0.308-0.291-0.461-0.656-0.461-1.1c0-0.293,0.07-0.555,0.21-0.783
	c0.14-0.23,0.336-0.406,0.588-0.527c0.252-0.123,0.616-0.229,1.091-0.32c0.641-0.119,1.085-0.232,1.333-0.336v-0.137
	c0-0.264-0.065-0.453-0.195-0.564c-0.13-0.113-0.376-0.168-0.737-0.168c-0.244,0-0.435,0.047-0.571,0.143
	C21.069,19.82,20.958,19.988,20.874,20.229z M22.709,21.342c-0.176,0.059-0.454,0.129-0.835,0.211
	c-0.381,0.08-0.63,0.16-0.747,0.238c-0.179,0.127-0.269,0.289-0.269,0.484c0,0.191,0.072,0.357,0.215,0.498
	c0.143,0.139,0.326,0.209,0.547,0.209c0.248,0,0.483-0.08,0.708-0.244c0.166-0.123,0.275-0.275,0.327-0.453
	c0.036-0.117,0.054-0.34,0.054-0.67V21.342z"/>
<path fill="#FFFFFF" d="M25.283,24.174l1.567,0.191c0.026,0.182,0.086,0.307,0.181,0.375c0.13,0.098,0.335,0.146,0.615,0.146
	c0.358,0,0.626-0.053,0.806-0.16c0.121-0.072,0.211-0.188,0.273-0.348c0.042-0.113,0.063-0.324,0.063-0.629v-0.758
	c-0.41,0.561-0.928,0.84-1.553,0.84c-0.697,0-1.249-0.295-1.655-0.883c-0.319-0.467-0.479-1.045-0.479-1.738
	c0-0.869,0.209-1.533,0.627-1.992s0.938-0.689,1.56-0.689c0.641,0,1.17,0.281,1.587,0.846v-0.729h1.284v4.654
	c0,0.611-0.05,1.068-0.151,1.371s-0.243,0.541-0.425,0.713c-0.182,0.174-0.426,0.309-0.73,0.406s-0.689,0.146-1.155,0.146
	c-0.879,0-1.502-0.15-1.87-0.453c-0.368-0.301-0.552-0.682-0.552-1.145C25.278,24.295,25.279,24.24,25.283,24.174z M26.508,21.133
	c0,0.549,0.106,0.953,0.32,1.207c0.213,0.256,0.476,0.385,0.789,0.385c0.335,0,0.619-0.131,0.85-0.395
	c0.231-0.262,0.347-0.648,0.347-1.164c0-0.537-0.111-0.936-0.332-1.195c-0.221-0.262-0.501-0.391-0.84-0.391
	c-0.329,0-0.6,0.127-0.813,0.383S26.508,20.607,26.508,21.133z"/>
<path fill="#FFFFFF" d="M34.521,22.182l1.367,0.23c-0.176,0.5-0.453,0.883-0.833,1.145s-0.854,0.393-1.423,0.393
	c-0.902,0-1.569-0.295-2.002-0.883c-0.342-0.473-0.513-1.068-0.513-1.787c0-0.859,0.225-1.533,0.674-2.02s1.017-0.73,1.704-0.73
	c0.771,0,1.38,0.256,1.826,0.764c0.446,0.51,0.659,1.291,0.64,2.342h-3.438c0.01,0.408,0.121,0.725,0.332,0.949
	c0.211,0.227,0.475,0.34,0.791,0.34c0.215,0,0.396-0.059,0.542-0.176S34.446,22.443,34.521,22.182z M34.599,20.795
	c-0.01-0.396-0.112-0.699-0.308-0.906c-0.195-0.205-0.433-0.309-0.713-0.309c-0.299,0-0.547,0.109-0.742,0.326
	c-0.195,0.219-0.292,0.516-0.288,0.889H34.599z"/>
</svg>
