<?xml version="1.0" encoding="utf-8"?>
<!DOCTYPE svg PUBLIC "-//W3C//DTD SVG 1.1//EN" "http://www.w3.org/Graphics/SVG/1.1/DTD/svg11.dtd" [
	<!ENTITY ns_flows "http://ns.adobe.com/Flows/1.0/">
]>
<svg version="1.1"
	 xmlns="http://www.w3.org/2000/svg" xmlns:xlink="http://www.w3.org/1999/xlink"
	 x="0px" y="0px" width="75px" height="33px" viewBox="-0.685 -1.828 75 33">
<defs>
</defs>
<rect fill="#C8691C" width="73.631" height="29.344"/>
<rect fill="#F79523" width="73.631" height="14.849"/>
<path fill="#FFFFFF" d="M5.656,9.626L4.524,9.421C4.65,8.966,4.869,8.628,5.182,8.409C5.491,8.189,5.953,8.08,6.568,8.08
	c0.556,0,0.97,0.065,1.243,0.197C8.084,8.41,8.273,8.577,8.388,8.78c0.11,0.203,0.165,0.575,0.165,1.118L8.54,11.355
	c0,0.414,0.019,0.72,0.061,0.917c0.039,0.197,0.114,0.407,0.225,0.632H7.588c-0.032-0.083-0.071-0.206-0.119-0.37
	c-0.02-0.073-0.035-0.123-0.044-0.146c-0.214,0.208-0.441,0.362-0.685,0.465c-0.243,0.105-0.503,0.157-0.776,0.157
	c-0.487,0-0.871-0.132-1.148-0.395c-0.28-0.265-0.421-0.597-0.421-1c0-0.267,0.064-0.505,0.19-0.712
	c0.128-0.21,0.306-0.37,0.536-0.48c0.229-0.112,0.561-0.208,0.992-0.292c0.584-0.11,0.988-0.211,1.214-0.306V9.702
	c0-0.24-0.059-0.412-0.178-0.513C7.03,9.086,6.806,9.035,6.479,9.035c-0.225,0-0.396,0.043-0.521,0.13
	C5.834,9.254,5.732,9.406,5.656,9.626z M7.327,10.639c-0.16,0.053-0.414,0.118-0.759,0.19c-0.349,0.075-0.574,0.147-0.681,0.218
	c-0.162,0.116-0.244,0.261-0.244,0.439c0,0.176,0.064,0.327,0.196,0.455c0.129,0.126,0.295,0.19,0.497,0.19
	c0.224,0,0.439-0.075,0.644-0.222c0.15-0.112,0.25-0.25,0.298-0.412c0.032-0.106,0.049-0.311,0.049-0.609V10.639z"/>
<path fill="#FFFFFF" d="M14.109,12.904h-1.158v-0.693c-0.192,0.27-0.42,0.471-0.683,0.603c-0.263,0.131-0.526,0.197-0.793,0.197
	c-0.542,0-1.005-0.219-1.393-0.656s-0.579-1.047-0.579-1.829c0-0.799,0.188-1.406,0.564-1.823c0.375-0.416,0.85-0.624,1.426-0.624
	c0.525,0,0.984,0.219,1.368,0.657V6.392h1.247V12.904z M10.779,10.443c0,0.503,0.067,0.867,0.208,1.093
	c0.201,0.325,0.481,0.489,0.844,0.489c0.288,0,0.531-0.123,0.732-0.366c0.203-0.245,0.302-0.609,0.302-1.096
	c0-0.541-0.096-0.931-0.291-1.169c-0.195-0.239-0.448-0.358-0.752-0.358c-0.297,0-0.545,0.118-0.744,0.353
	C10.879,9.624,10.779,9.976,10.779,10.443z"/>
<path fill="#FFFFFF" d="M19.668,12.904H18.51v-0.693c-0.194,0.27-0.42,0.471-0.683,0.603c-0.263,0.131-0.526,0.197-0.793,0.197
	c-0.544,0-1.006-0.219-1.393-0.656c-0.388-0.437-0.58-1.047-0.58-1.829c0-0.799,0.188-1.406,0.563-1.823
	C16,8.288,16.477,8.08,17.052,8.08c0.526,0,0.983,0.219,1.369,0.657V6.392h1.247V12.904z M16.336,10.443
	c0,0.503,0.069,0.867,0.208,1.093c0.202,0.325,0.483,0.489,0.846,0.489c0.286,0,0.529-0.123,0.732-0.366
	c0.202-0.245,0.302-0.609,0.302-1.096c0-0.541-0.098-0.931-0.293-1.169c-0.195-0.239-0.446-0.358-0.752-0.358
	c-0.295,0-0.544,0.118-0.742,0.353C16.438,9.624,16.336,9.976,16.336,10.443z"/>
<path fill="#FFFFFF" d="M4.724,14.825V13.67h1.247v1.155H4.724z M4.724,20.182v-4.717h1.247v4.717H4.724z"/>
<path fill="#FFFFFF" d="M7.158,15.465H8.31v0.645c0.41-0.5,0.9-0.752,1.47-0.752c0.302,0,0.563,0.063,0.787,0.188
	c0.22,0.125,0.403,0.313,0.545,0.564c0.208-0.252,0.433-0.439,0.67-0.564c0.242-0.125,0.498-0.188,0.77-0.188
	c0.347,0,0.64,0.072,0.88,0.213c0.24,0.139,0.419,0.346,0.537,0.617c0.087,0.203,0.129,0.527,0.129,0.979v3.016h-1.249v-2.697
	c0-0.467-0.042-0.77-0.128-0.906c-0.115-0.178-0.293-0.266-0.533-0.266c-0.174,0-0.339,0.053-0.494,0.16
	c-0.152,0.105-0.263,0.262-0.332,0.469c-0.069,0.205-0.102,0.531-0.102,0.975v2.266H10.01v-2.584c0-0.459-0.022-0.756-0.065-0.889
	c-0.046-0.133-0.114-0.232-0.206-0.297c-0.096-0.066-0.221-0.1-0.381-0.1c-0.193,0-0.365,0.053-0.521,0.156
	c-0.154,0.104-0.265,0.252-0.332,0.447c-0.063,0.195-0.1,0.521-0.1,0.975v2.291H7.158V15.465z"/>
<path fill="#FFFFFF" d="M16.273,16.905L15.141,16.7c0.128-0.457,0.348-0.793,0.657-1.012c0.313-0.219,0.774-0.33,1.386-0.33
	c0.558,0,0.972,0.066,1.244,0.197c0.273,0.133,0.466,0.301,0.575,0.504c0.11,0.201,0.167,0.574,0.167,1.117l-0.014,1.457
	c0,0.414,0.021,0.721,0.061,0.918s0.115,0.406,0.224,0.631h-1.233c-0.033-0.082-0.074-0.205-0.121-0.369
	c-0.021-0.072-0.035-0.123-0.044-0.145c-0.213,0.207-0.442,0.361-0.685,0.465c-0.241,0.105-0.501,0.156-0.778,0.156
	c-0.484,0-0.867-0.131-1.147-0.395c-0.281-0.264-0.419-0.598-0.419-1c0-0.268,0.063-0.506,0.191-0.713
	c0.126-0.209,0.306-0.369,0.533-0.48c0.23-0.111,0.562-0.207,0.995-0.291c0.583-0.109,0.988-0.211,1.212-0.305v-0.125
	c0-0.242-0.061-0.412-0.178-0.514c-0.117-0.104-0.341-0.154-0.672-0.154c-0.22,0-0.395,0.045-0.519,0.131
	C16.451,16.532,16.353,16.686,16.273,16.905z M17.944,17.917c-0.16,0.055-0.412,0.117-0.761,0.191
	c-0.345,0.074-0.572,0.146-0.679,0.219c-0.163,0.115-0.245,0.26-0.245,0.438c0,0.176,0.065,0.328,0.195,0.455
	c0.132,0.127,0.297,0.191,0.498,0.191c0.226,0,0.44-0.076,0.645-0.223c0.151-0.111,0.251-0.25,0.297-0.412
	c0.034-0.107,0.05-0.311,0.05-0.609V17.917z"/>
<path fill="#FFFFFF" d="M20.286,20.495l1.426,0.172c0.024,0.166,0.078,0.281,0.163,0.344c0.119,0.088,0.306,0.133,0.562,0.133
	c0.325,0,0.568-0.051,0.732-0.146c0.109-0.066,0.191-0.17,0.248-0.316c0.039-0.104,0.058-0.295,0.058-0.572v-0.689
	c-0.373,0.51-0.843,0.764-1.411,0.764c-0.635,0-1.138-0.268-1.507-0.803c-0.292-0.424-0.436-0.951-0.436-1.582
	c0-0.791,0.19-1.396,0.57-1.813c0.38-0.418,0.854-0.627,1.42-0.627c0.585,0,1.064,0.256,1.444,0.77v-0.662h1.168V19.7
	c0,0.557-0.046,0.973-0.137,1.248c-0.093,0.275-0.221,0.492-0.388,0.648s-0.388,0.279-0.664,0.367
	c-0.277,0.09-0.626,0.135-1.051,0.135c-0.8,0-1.366-0.139-1.7-0.412c-0.336-0.273-0.503-0.619-0.503-1.041
	C20.281,20.604,20.283,20.553,20.286,20.495z M21.4,17.727c0,0.5,0.098,0.865,0.29,1.098c0.195,0.234,0.434,0.35,0.718,0.35
	c0.306,0,0.563-0.119,0.774-0.357c0.21-0.238,0.314-0.592,0.314-1.059c0-0.49-0.101-0.852-0.302-1.09
	c-0.201-0.236-0.457-0.355-0.764-0.355c-0.301,0-0.546,0.117-0.741,0.35C21.498,16.895,21.4,17.249,21.4,17.727z"/>
<path fill="#FFFFFF" d="M28.691,18.682l1.244,0.207c-0.16,0.457-0.412,0.805-0.757,1.043c-0.347,0.238-0.778,0.357-1.298,0.357
	c-0.819,0-1.427-0.268-1.819-0.803c-0.313-0.43-0.468-0.973-0.468-1.629c0-0.781,0.205-1.393,0.613-1.834
	c0.409-0.443,0.926-0.666,1.55-0.666c0.704,0,1.256,0.232,1.663,0.695c0.405,0.465,0.599,1.174,0.581,2.131h-3.127
	c0.009,0.369,0.108,0.658,0.302,0.863c0.193,0.207,0.432,0.309,0.72,0.309c0.195,0,0.358-0.053,0.494-0.158
	C28.521,19.09,28.622,18.918,28.691,18.682z M28.763,17.42c-0.011-0.361-0.104-0.637-0.281-0.824
	c-0.178-0.189-0.395-0.283-0.648-0.283c-0.271,0-0.497,0.1-0.675,0.299s-0.265,0.467-0.262,0.809H28.763z"/>
<path fill="#52CAF5" d="M49.927,4.381v18.754h18.75V4.381H49.927z M66.805,21.258H51.8V6.257h15.005V21.258z"/>
<polygon fill="#52CAF5" points="51.839,14.09 57.081,8.792 60.553,13.313 66.759,7.883 66.818,9.732 60.372,15.342 56.971,10.866 
	51.839,15.94 "/>
<circle fill="#52CAF5" cx="61.417" cy="8.747" r="1.582"/>
<polygon fill="#52CAF5" points="59.455,13.976 56.48,17.989 60.372,15.342 "/>
</svg>
