<?xml version="1.0" encoding="utf-8"?>
<!-- Generator: Adobe Illustrator 15.0.0, SVG Export Plug-In  -->
<!DOCTYPE svg PUBLIC "-//W3C//DTD SVG 1.1//EN" "http://www.w3.org/Graphics/SVG/1.1/DTD/svg11.dtd" [
	<!ENTITY ns_flows "http://ns.adobe.com/Flows/1.0/">
]>
<svg version="1.1"
	 xmlns="http://www.w3.org/2000/svg" xmlns:xlink="http://www.w3.org/1999/xlink" xmlns:a="http://ns.adobe.com/AdobeSVGViewerExtensions/3.0/"
	 x="0px" y="0px" width="53px" height="33px" viewBox="0 0 53 33" enable-background="new 0 0 53 33" xml:space="preserve">
<defs>
</defs>
<rect display="none" fill="#FFF200" width="2" height="33"/>
<rect x="50.644" display="none" fill="#FFF200" width="2" height="33"/>
<rect x="2.025" y="0.268" fill="#C8691C" width="48.593" height="32.732"/>
<rect x="2.025" fill="#F79523" width="48.593" height="16.564"/>
<path fill="#FFFFFF" d="M18.412,12.47V3.983h1.625v8.486H18.412z"/>
<path fill="#FFFFFF" d="M21.704,5.488V3.983h1.627v1.505H21.704z M21.704,12.47V6.322h1.627v6.147H21.704z"/>
<path fill="#FFFFFF" d="M24.426,10.716l1.629-0.25c0.069,0.319,0.213,0.555,0.424,0.722c0.21,0.162,0.509,0.245,0.891,0.245
	c0.421,0,0.736-0.078,0.949-0.231c0.144-0.106,0.213-0.254,0.213-0.435c0-0.121-0.037-0.223-0.116-0.306
	c-0.079-0.079-0.262-0.148-0.542-0.213c-1.313-0.292-2.144-0.556-2.495-0.792c-0.486-0.333-0.729-0.796-0.729-1.384
	c0-0.533,0.21-0.981,0.632-1.346c0.419-0.363,1.072-0.544,1.954-0.544c0.843,0,1.468,0.137,1.875,0.41
	c0.41,0.275,0.692,0.683,0.847,1.22l-1.535,0.282c-0.067-0.24-0.19-0.421-0.373-0.551c-0.186-0.125-0.445-0.189-0.785-0.189
	c-0.428,0-0.734,0.06-0.919,0.181c-0.125,0.083-0.186,0.194-0.186,0.328c0,0.116,0.053,0.213,0.162,0.297
	c0.146,0.106,0.653,0.259,1.519,0.453c0.866,0.199,1.47,0.44,1.815,0.728c0.338,0.286,0.509,0.689,0.509,1.208
	c0,0.561-0.236,1.046-0.708,1.454c-0.47,0.402-1.167,0.606-2.088,0.606c-0.838,0-1.5-0.172-1.986-0.51
	C24.894,11.757,24.574,11.299,24.426,10.716z"/>
<path fill="#FFFFFF" d="M34.408,6.322v1.296h-1.111v2.477c0,0.505,0.009,0.797,0.033,0.88c0.021,0.083,0.069,0.148,0.144,0.204
	c0.074,0.056,0.167,0.083,0.275,0.083c0.15,0,0.368-0.056,0.655-0.157l0.139,1.259c-0.38,0.162-0.808,0.246-1.287,0.246
	c-0.292,0-0.556-0.052-0.792-0.148c-0.236-0.098-0.408-0.227-0.519-0.385c-0.111-0.152-0.186-0.365-0.227-0.629
	c-0.037-0.19-0.053-0.574-0.053-1.148V7.618h-0.748V6.322h0.748V5.102l1.632-0.948v2.169H34.408z"/>
<rect x="22.359" y="20.665" fill="#FFFFFF" width="13.144" height="1.144"/>
<path fill="#FFFFFF" d="M20.262,21.236c0,0.843-0.681,1.525-1.523,1.525l0,0c-0.843,0-1.523-0.683-1.523-1.525l0,0
	c0-0.84,0.681-1.523,1.523-1.523l0,0C19.581,19.713,20.262,20.396,20.262,21.236L20.262,21.236z"/>
<rect x="22.359" y="24.544" fill="#FFFFFF" width="13.144" height="1.144"/>
<path fill="#FFFFFF" d="M20.262,25.116c0,0.843-0.681,1.523-1.523,1.523l0,0c-0.843,0-1.523-0.681-1.523-1.523l0,0
	c0-0.843,0.681-1.523,1.523-1.523l0,0C19.581,23.593,20.262,24.273,20.262,25.116L20.262,25.116z"/>
<rect x="22.359" y="28.417" fill="#FFFFFF" width="13.144" height="1.144"/>
<path fill="#FFFFFF" d="M20.262,28.989c0,0.84-0.681,1.522-1.523,1.522l0,0c-0.843,0-1.523-0.683-1.523-1.522l0,0
	c0-0.843,0.681-1.525,1.523-1.525l0,0C19.581,27.464,20.262,28.146,20.262,28.989L20.262,28.989z"/>
</svg>
