<?xml version="1.0" encoding="utf-8"?>
<svg version="1.1"
	 xmlns="http://www.w3.org/2000/svg" xmlns:xlink="http://www.w3.org/1999/xlink"
	 x="0px" y="0px" width="53px" height="33px" viewBox="0 0 53 33">
<defs>
</defs>
<rect x="2.025" y="0.268" fill="#C8691C" width="48.593" height="32.732"/>
<rect x="2.025" fill="#F79523" width="48.593" height="16.564"/>
<rect x="22.359" y="20.665" fill="#FFFFFF" width="13.144" height="1.144"/>
<path fill="#FFFFFF" d="M20.262,21.236c0,0.843-0.681,1.525-1.523,1.525l0,0c-0.843,0-1.523-0.683-1.523-1.525l0,0
	c0-0.84,0.681-1.523,1.523-1.523l0,0C19.581,19.713,20.262,20.396,20.262,21.236L20.262,21.236z"/>
<rect x="22.359" y="24.544" fill="#FFFFFF" width="13.144" height="1.144"/>
<path fill="#FFFFFF" d="M20.262,25.116c0,0.843-0.681,1.523-1.523,1.523l0,0c-0.843,0-1.523-0.681-1.523-1.523l0,0
	c0-0.843,0.681-1.523,1.523-1.523l0,0C19.581,23.593,20.262,24.273,20.262,25.116L20.262,25.116z"/>
<rect x="22.359" y="28.417" fill="#FFFFFF" width="13.144" height="1.144"/>
<path fill="#FFFFFF" d="M20.262,28.989c0,0.84-0.681,1.522-1.523,1.522l0,0c-0.843,0-1.523-0.683-1.523-1.522l0,0
	c0-0.843,0.681-1.525,1.523-1.525l0,0C19.581,27.464,20.262,28.146,20.262,28.989L20.262,28.989z"/>
<path fill="#FFFFFF" d="M19.806,12.78V5.622h1.372v7.158H19.806z"/>
<path fill="#FFFFFF" d="M22.584,6.892v-1.27h1.372v1.27H22.584z M22.584,12.78V7.595h1.372v5.186H22.584z"/>
<path fill="#FFFFFF" d="M24.879,11.3l1.377-0.209c0.059,0.266,0.177,0.469,0.356,0.607s0.43,0.207,0.752,0.207
	c0.355,0,0.622-0.064,0.801-0.195c0.121-0.09,0.181-0.213,0.181-0.365c0-0.105-0.033-0.191-0.098-0.26
	c-0.068-0.064-0.221-0.125-0.459-0.18c-1.107-0.244-1.808-0.467-2.104-0.67c-0.41-0.279-0.615-0.668-0.615-1.166
	c0-0.449,0.177-0.828,0.532-1.133c0.355-0.307,0.905-0.459,1.65-0.459c0.709,0,1.237,0.115,1.582,0.346
	c0.345,0.232,0.583,0.574,0.713,1.025l-1.294,0.24c-0.055-0.203-0.16-0.357-0.315-0.465s-0.375-0.16-0.662-0.16
	c-0.361,0-0.62,0.051-0.776,0.15c-0.104,0.072-0.156,0.164-0.156,0.279c0,0.098,0.045,0.18,0.137,0.248
	c0.124,0.092,0.551,0.221,1.282,0.387s1.241,0.369,1.531,0.609c0.287,0.244,0.43,0.584,0.43,1.021c0,0.475-0.199,0.883-0.596,1.225
	s-0.985,0.514-1.763,0.514c-0.707,0-1.266-0.145-1.677-0.43C25.276,12.181,25.006,11.792,24.879,11.3z"/>
<path fill="#FFFFFF" d="M33.302,7.595v1.094h-0.938v2.09c0,0.422,0.009,0.67,0.027,0.74c0.018,0.068,0.059,0.127,0.122,0.172
	c0.063,0.047,0.141,0.068,0.232,0.068c0.127,0,0.311-0.043,0.552-0.131l0.117,1.064c-0.319,0.137-0.68,0.205-1.084,0.205
	c-0.248,0-0.47-0.041-0.669-0.125c-0.199-0.082-0.344-0.189-0.437-0.322c-0.093-0.131-0.157-0.311-0.193-0.535
	c-0.029-0.158-0.044-0.48-0.044-0.967v-2.26h-0.63V7.595h0.63V6.563l1.377-0.801v1.832H33.302z"/>
</svg>
