<?xml version="1.0" encoding="utf-8"?>
<!-- Generator: Adobe Illustrator 15.0.0, SVG Export Plug-In  -->
<!DOCTYPE svg PUBLIC "-//W3C//DTD SVG 1.1//EN" "http://www.w3.org/Graphics/SVG/1.1/DTD/svg11.dtd" [
	<!ENTITY ns_flows "http://ns.adobe.com/Flows/1.0/">
]>
<svg version="1.1"
	 xmlns="http://www.w3.org/2000/svg" xmlns:xlink="http://www.w3.org/1999/xlink" xmlns:a="http://ns.adobe.com/AdobeSVGViewerExtensions/3.0/"
	 x="0px" y="0px" width="53px" height="33px" viewBox="0 0 53 33" enable-background="new 0 0 53 33" xml:space="preserve">
<defs>
</defs>
<rect display="none" fill="#FFF200" width="2" height="33"/>
<rect x="50.846" display="none" fill="#FFF200" width="2" height="33"/>
<rect x="1.937" fill="#C8691C" width="48.901" height="33"/>
<rect x="1.937" fill="#F79523" width="48.901" height="16.7"/>
<path fill="#FFFFFF" d="M13.076,5.006h1.528v0.909c0.196-0.311,0.466-0.564,0.801-0.758c0.34-0.193,0.713-0.291,1.125-0.291
	c0.72,0,1.328,0.282,1.829,0.846c0.5,0.562,0.75,1.347,0.75,2.353c0,1.032-0.251,1.834-0.755,2.407
	c-0.505,0.572-1.118,0.859-1.835,0.859c-0.34,0-0.652-0.067-0.93-0.205c-0.277-0.136-0.571-0.368-0.876-0.699v3.117h-1.638V5.006z
	 M14.698,7.995c0,0.694,0.135,1.206,0.412,1.54c0.277,0.33,0.613,0.496,1.009,0.496c0.38,0,0.694-0.151,0.948-0.457
	c0.254-0.305,0.379-0.804,0.379-1.5c0-0.647-0.13-1.128-0.391-1.444c-0.261-0.313-0.583-0.471-0.967-0.471
	c-0.398,0-0.731,0.154-0.995,0.464C14.828,6.931,14.698,7.39,14.698,7.995z"/>
<path fill="#FFFFFF" d="M21.633,6.893l-1.484-0.268c0.165-0.599,0.452-1.041,0.862-1.328c0.405-0.286,1.011-0.431,1.817-0.431
	c0.729,0,1.272,0.086,1.631,0.259c0.356,0.172,0.608,0.394,0.752,0.659c0.146,0.266,0.219,0.753,0.219,1.465L25.414,9.16
	c0,0.542,0.025,0.943,0.077,1.201c0.054,0.259,0.151,0.534,0.296,0.83h-1.621c-0.042-0.11-0.093-0.271-0.156-0.485
	c-0.025-0.095-0.046-0.16-0.058-0.19c-0.28,0.272-0.578,0.475-0.897,0.61c-0.319,0.138-0.659,0.205-1.018,0.205
	c-0.638,0-1.139-0.173-1.507-0.518c-0.366-0.347-0.55-0.782-0.55-1.312c0-0.35,0.084-0.661,0.25-0.934
	c0.167-0.275,0.4-0.485,0.704-0.629c0.3-0.147,0.734-0.273,1.3-0.383c0.766-0.145,1.295-0.277,1.591-0.4V6.993
	c0-0.316-0.077-0.54-0.233-0.673c-0.156-0.136-0.45-0.203-0.878-0.203c-0.293,0-0.52,0.059-0.683,0.173S21.733,6.606,21.633,6.893z
	 M23.822,8.221c-0.209,0.07-0.542,0.154-0.995,0.249c-0.457,0.099-0.752,0.193-0.892,0.287c-0.212,0.151-0.319,0.342-0.319,0.575
	c0,0.23,0.084,0.429,0.256,0.597c0.17,0.165,0.387,0.249,0.652,0.249c0.293,0,0.575-0.098,0.843-0.291
	c0.198-0.147,0.329-0.329,0.392-0.541c0.042-0.14,0.063-0.407,0.063-0.799V8.221z"/>
<path fill="#FFFFFF" d="M26.891,11.599l1.871,0.226c0.03,0.22,0.102,0.368,0.216,0.45c0.154,0.116,0.398,0.175,0.731,0.175
	c0.429,0,0.75-0.065,0.962-0.191c0.142-0.086,0.254-0.224,0.326-0.414c0.049-0.136,0.077-0.387,0.077-0.751v-0.903
	c-0.489,0.668-1.109,1.002-1.854,1.002c-0.829,0-1.486-0.353-1.973-1.054c-0.38-0.557-0.571-1.248-0.571-2.073
	c0-1.039,0.249-1.831,0.748-2.376c0.501-0.55,1.121-0.822,1.861-0.822c0.764,0,1.396,0.336,1.892,1.009V5.006h1.533v5.552
	c0,0.729-0.061,1.274-0.182,1.635c-0.119,0.361-0.289,0.646-0.505,0.851c-0.217,0.205-0.508,0.366-0.872,0.482
	c-0.361,0.116-0.822,0.177-1.376,0.177c-1.048,0-1.792-0.182-2.232-0.54c-0.438-0.359-0.657-0.813-0.657-1.365
	C26.886,11.743,26.888,11.676,26.891,11.599z M28.354,7.972c0,0.654,0.125,1.135,0.382,1.439c0.254,0.306,0.568,0.457,0.941,0.457
	c0.398,0,0.736-0.156,1.011-0.469c0.277-0.312,0.415-0.775,0.415-1.389c0-0.64-0.13-1.115-0.396-1.428
	c-0.266-0.31-0.596-0.466-1.001-0.466c-0.392,0-0.715,0.154-0.969,0.459C28.479,6.882,28.354,7.345,28.354,7.972z"/>
<path fill="#FFFFFF" d="M37.909,9.223l1.63,0.272c-0.209,0.599-0.541,1.056-0.992,1.367c-0.452,0.313-1.018,0.469-1.696,0.469
	c-1.076,0-1.873-0.352-2.39-1.053c-0.405-0.564-0.61-1.274-0.61-2.135c0-1.024,0.268-1.826,0.804-2.406s1.213-0.871,2.034-0.871
	c0.918,0,1.645,0.303,2.176,0.911c0.533,0.607,0.787,1.54,0.764,2.793h-4.1c0.012,0.484,0.145,0.862,0.396,1.132
	c0.251,0.271,0.568,0.405,0.943,0.405c0.256,0,0.473-0.069,0.646-0.209C37.69,9.759,37.82,9.532,37.909,9.223z M38.002,7.568
	c-0.01-0.473-0.133-0.834-0.366-1.081c-0.233-0.246-0.515-0.37-0.851-0.37c-0.359,0-0.652,0.131-0.885,0.392
	s-0.347,0.612-0.345,1.06H38.002z"/>
<rect x="22.05" y="19.263" transform="matrix(0.966 -0.2586 0.2586 0.966 -5.6604 7.6784)" fill="#BCBEC0" width="8.609" height="12.181"/>
<rect x="22.05" y="19.263" fill="#FFFFFF" width="8.61" height="12.182"/>
<rect x="23.522" y="21.124" fill="#C8691C" width="5.74" height="0.696"/>
<rect x="23.522" y="23.908" fill="#C8691C" width="5.74" height="0.696"/>
<rect x="23.522" y="26.689" fill="#C8691C" width="5.74" height="0.698"/>
</svg>
