<?xml version="1.0" encoding="utf-8"?>
<svg version="1.1"
	 xmlns="http://www.w3.org/2000/svg" xmlns:xlink="http://www.w3.org/1999/xlink"
	 x="0px" y="0px" width="53px" height="33px" viewBox="0 0 53 33">
<defs>
</defs>
<rect x="1.937" fill="#C8691C" width="48.901" height="33"/>
<rect x="1.937" fill="#F79523" width="48.901" height="16.7"/>
<rect x="22.05" y="19.263" transform="matrix(0.966 -0.2586 0.2586 0.966 -5.6604 7.6784)" fill="#BCBEC0" width="8.609" height="12.181"/>
<rect x="22.05" y="19.263" fill="#FFFFFF" width="8.61" height="12.182"/>
<rect x="23.522" y="21.124" fill="#C8691C" width="5.74" height="0.696"/>
<rect x="23.522" y="23.908" fill="#C8691C" width="5.74" height="0.696"/>
<rect x="23.522" y="26.689" fill="#C8691C" width="5.74" height="0.698"/>
<path fill="#FFFFFF" d="M15.424,5.551h1.279v0.762c0.166-0.262,0.391-0.473,0.674-0.635c0.283-0.164,0.597-0.244,0.942-0.244
	c0.602,0,1.113,0.236,1.533,0.707c0.42,0.473,0.63,1.131,0.63,1.973c0,0.867-0.211,1.539-0.635,2.02s-0.936,0.721-1.538,0.721
	c-0.287,0-0.546-0.057-0.779-0.172c-0.233-0.113-0.478-0.309-0.735-0.586v2.613h-1.372V5.551z M16.781,8.055
	c0,0.584,0.116,1.014,0.347,1.293c0.231,0.277,0.513,0.416,0.845,0.416c0.319,0,0.584-0.127,0.796-0.383s0.317-0.674,0.317-1.258
	c0-0.543-0.109-0.947-0.327-1.211s-0.488-0.395-0.811-0.395c-0.335,0-0.614,0.129-0.835,0.389
	C16.892,7.164,16.781,7.547,16.781,8.055z"/>
<path fill="#FFFFFF" d="M22.597,7.133l-1.245-0.225c0.14-0.502,0.381-0.873,0.723-1.113c0.342-0.242,0.85-0.361,1.523-0.361
	c0.612,0,1.068,0.072,1.367,0.217s0.51,0.328,0.632,0.553c0.122,0.223,0.183,0.631,0.183,1.227l-0.015,1.602
	c0,0.457,0.022,0.793,0.066,1.01c0.044,0.215,0.126,0.447,0.247,0.695h-1.357c-0.036-0.092-0.08-0.227-0.132-0.406
	c-0.023-0.08-0.039-0.135-0.049-0.16c-0.234,0.227-0.485,0.398-0.752,0.512c-0.267,0.115-0.552,0.172-0.854,0.172
	c-0.534,0-0.955-0.145-1.262-0.436c-0.308-0.289-0.461-0.656-0.461-1.098c0-0.293,0.07-0.555,0.21-0.783
	c0.14-0.23,0.336-0.406,0.588-0.527c0.252-0.123,0.616-0.23,1.091-0.32c0.641-0.121,1.085-0.232,1.333-0.338V7.215
	c0-0.264-0.065-0.451-0.195-0.563c-0.13-0.113-0.376-0.17-0.737-0.17c-0.244,0-0.435,0.049-0.571,0.145S22.681,6.891,22.597,7.133z
	 M24.433,8.246c-0.176,0.059-0.454,0.129-0.835,0.209c-0.381,0.082-0.63,0.162-0.747,0.24c-0.179,0.127-0.269,0.287-0.269,0.482
	c0,0.193,0.072,0.359,0.215,0.498c0.143,0.141,0.326,0.211,0.547,0.211c0.248,0,0.483-0.082,0.708-0.244
	c0.166-0.125,0.275-0.275,0.327-0.455c0.036-0.117,0.054-0.34,0.054-0.668V8.246z"/>
<path fill="#FFFFFF" d="M27.006,11.078l1.567,0.189c0.026,0.184,0.086,0.309,0.181,0.377c0.13,0.098,0.335,0.146,0.615,0.146
	c0.358,0,0.626-0.055,0.806-0.162c0.121-0.07,0.211-0.188,0.273-0.346c0.042-0.115,0.063-0.324,0.063-0.631V9.896
	c-0.41,0.559-0.928,0.84-1.553,0.84c-0.697,0-1.249-0.295-1.655-0.885c-0.319-0.465-0.479-1.045-0.479-1.738
	c0-0.869,0.209-1.533,0.627-1.992s0.938-0.688,1.56-0.688c0.641,0,1.17,0.281,1.587,0.844V5.551h1.284v4.652
	c0,0.613-0.05,1.07-0.151,1.373s-0.243,0.539-0.425,0.713c-0.182,0.172-0.426,0.307-0.73,0.404s-0.689,0.146-1.155,0.146
	c-0.879,0-1.502-0.15-1.87-0.451s-0.552-0.684-0.552-1.145C27.001,11.197,27.002,11.143,27.006,11.078z M28.231,8.035
	c0,0.551,0.106,0.953,0.32,1.209s0.476,0.383,0.789,0.383c0.335,0,0.619-0.131,0.85-0.393s0.347-0.65,0.347-1.164
	c0-0.537-0.111-0.936-0.332-1.197c-0.221-0.26-0.501-0.391-0.84-0.391c-0.329,0-0.6,0.129-0.813,0.385
	C28.338,7.121,28.231,7.512,28.231,8.035z"/>
<path fill="#FFFFFF" d="M36.244,9.086l1.367,0.229c-0.176,0.502-0.453,0.883-0.833,1.146c-0.379,0.262-0.854,0.393-1.423,0.393
	c-0.902,0-1.569-0.295-2.002-0.885c-0.342-0.471-0.513-1.066-0.513-1.787c0-0.859,0.225-1.531,0.674-2.018
	c0.449-0.488,1.017-0.73,1.704-0.73c0.771,0,1.38,0.254,1.826,0.764s0.659,1.289,0.64,2.342h-3.438
	c0.01,0.406,0.121,0.723,0.332,0.949s0.475,0.34,0.791,0.34c0.215,0,0.396-0.059,0.542-0.176S36.169,9.346,36.244,9.086z
	 M36.322,7.699C36.313,7.301,36.21,7,36.015,6.793s-0.433-0.311-0.713-0.311c-0.299,0-0.547,0.109-0.742,0.328
	c-0.195,0.217-0.292,0.514-0.288,0.889H36.322z"/>
</svg>
