<?xml version="1.0" encoding="utf-8"?>
<!-- Generator: Adobe Illustrator 15.0.0, SVG Export Plug-In  -->
<!DOCTYPE svg PUBLIC "-//W3C//DTD SVG 1.1//EN" "http://www.w3.org/Graphics/SVG/1.1/DTD/svg11.dtd" [
	<!ENTITY ns_flows "http://ns.adobe.com/Flows/1.0/">
]>
<svg version="1.1"
	 xmlns="http://www.w3.org/2000/svg" xmlns:xlink="http://www.w3.org/1999/xlink" xmlns:a="http://ns.adobe.com/AdobeSVGViewerExtensions/3.0/"
	 x="0px" y="0px" width="40px" height="33px" viewBox="-0.604 -3.411 40 33" enable-background="new -0.604 -3.411 40 33"
	 xml:space="preserve">
<defs>
</defs>
<rect fill="#C8691C" width="38.793" height="26.179"/>
<rect fill="#F79523" width="38.793" height="13.248"/>
<path fill="#FFFFFF" d="M10.249,11.181V8.714c-0.17,0.218-0.381,0.392-0.635,0.519C9.361,9.361,9.09,9.426,8.796,9.426
	c-0.556,0-1.016-0.209-1.374-0.628c-0.426-0.49-0.64-1.153-0.64-1.992c0-0.787,0.199-1.403,0.599-1.845
	C7.78,4.52,8.275,4.297,8.866,4.297c0.325,0,0.609,0.068,0.847,0.208c0.24,0.137,0.45,0.348,0.636,0.629V4.408h1.197v6.773H10.249z
	 M10.289,6.801c0-0.502-0.104-0.876-0.307-1.12C9.777,5.436,9.521,5.313,9.214,5.313c-0.314,0-0.577,0.124-0.787,0.375
	C8.214,5.937,8.108,6.334,8.108,6.875c0,0.539,0.102,0.927,0.305,1.166C8.617,8.28,8.868,8.4,9.166,8.4
	c0.299,0,0.562-0.135,0.787-0.401C10.177,7.729,10.289,7.332,10.289,6.801z"/>
<path fill="#FFFFFF" d="M16.052,9.314V8.579c-0.18,0.263-0.414,0.47-0.706,0.621c-0.292,0.149-0.6,0.226-0.921,0.226
	c-0.331,0-0.626-0.072-0.887-0.218c-0.263-0.145-0.451-0.348-0.569-0.61c-0.118-0.261-0.176-0.623-0.176-1.085V4.408h1.3v2.254
	c0,0.689,0.021,1.113,0.069,1.268c0.049,0.156,0.135,0.279,0.263,0.37c0.126,0.091,0.285,0.137,0.48,0.137
	c0.222,0,0.42-0.061,0.596-0.183c0.175-0.122,0.295-0.271,0.36-0.453c0.064-0.179,0.098-0.621,0.098-1.323v-2.07h1.297v4.906H16.052
	z"/>
<path fill="#FFFFFF" d="M18.3,6.792c0-0.43,0.106-0.848,0.32-1.251c0.211-0.404,0.514-0.713,0.901-0.924
	c0.391-0.214,0.824-0.32,1.305-0.32c0.743,0,1.353,0.24,1.825,0.723c0.474,0.482,0.712,1.092,0.712,1.828
	c0,0.743-0.238,1.358-0.719,1.846c-0.479,0.488-1.081,0.732-1.808,0.732c-0.45,0-0.879-0.102-1.285-0.305
	c-0.411-0.203-0.721-0.5-0.932-0.894C18.406,7.834,18.3,7.356,18.3,6.792z M19.631,6.86c0,0.488,0.116,0.861,0.346,1.12
	c0.232,0.259,0.518,0.388,0.854,0.388c0.339,0,0.623-0.129,0.853-0.388s0.344-0.636,0.344-1.127c0-0.48-0.114-0.85-0.344-1.108
	s-0.514-0.388-0.853-0.388c-0.337,0-0.622,0.129-0.854,0.388C19.747,6.003,19.631,6.375,19.631,6.86z"/>
<path fill="#FFFFFF" d="M26.629,4.408v1.035h-0.888v1.978c0,0.401,0.01,0.633,0.026,0.7c0.019,0.067,0.055,0.121,0.114,0.163
	c0.063,0.045,0.136,0.067,0.223,0.067c0.118,0,0.291-0.042,0.521-0.126l0.111,1.008c-0.304,0.129-0.644,0.194-1.025,0.194
	c-0.235,0-0.445-0.039-0.635-0.119c-0.187-0.077-0.325-0.179-0.413-0.305c-0.086-0.124-0.148-0.294-0.182-0.504
	c-0.028-0.152-0.041-0.457-0.041-0.917V5.443h-0.597V4.408h0.597V3.435l1.301-0.758v1.731H26.629z"/>
<path fill="#FFFFFF" d="M30.373,7.753l1.293,0.216C31.5,8.444,31.237,8.806,30.88,9.054c-0.361,0.248-0.811,0.372-1.35,0.372
	c-0.852,0-1.484-0.279-1.892-0.835c-0.325-0.447-0.487-1.011-0.487-1.693c0-0.813,0.213-1.449,0.638-1.909
	c0.426-0.46,0.963-0.691,1.612-0.691c0.731,0,1.306,0.24,1.729,0.723c0.421,0.482,0.622,1.222,0.604,2.216h-3.252
	c0.01,0.384,0.112,0.684,0.314,0.898c0.201,0.214,0.448,0.322,0.748,0.322c0.203,0,0.373-0.056,0.514-0.167
	C30.195,8.178,30.301,7.999,30.373,7.753z M30.446,6.441c-0.011-0.375-0.107-0.661-0.291-0.857C29.971,5.388,29.744,5.29,29.48,5.29
	c-0.282,0-0.518,0.104-0.703,0.31c-0.185,0.208-0.274,0.486-0.271,0.841H30.446z"/>
<path fill="#BCBEC0" d="M24.276,19.199c0-2.223-2.346-4.025-5.24-4.025c-2.893,0-5.237,1.803-5.237,4.025
	c0,1.564,1.168,2.922,2.87,3.584l-0.523,2.619l3.219-2.193C22.106,23.078,24.276,21.335,24.276,19.199z"/>
<path fill="#FFFFFF" d="M27.418,19.199c0-2.223-2.347-4.025-5.241-4.025c-2.894,0-5.238,1.803-5.238,4.025
	c0,1.564,1.166,2.922,2.87,3.584l-0.525,2.619l3.221-2.193C25.247,23.078,27.418,21.335,27.418,19.199z"/>
</svg>
