<?xml version="1.0" encoding="utf-8"?>
<!-- Generator: Adobe Illustrator 15.0.0, SVG Export Plug-In  -->
<!DOCTYPE svg PUBLIC "-//W3C//DTD SVG 1.1//EN" "http://www.w3.org/Graphics/SVG/1.1/DTD/svg11.dtd" [
	<!ENTITY ns_flows "http://ns.adobe.com/Flows/1.0/">
]>
<svg version="1.1"
	 xmlns="http://www.w3.org/2000/svg" xmlns:xlink="http://www.w3.org/1999/xlink" xmlns:a="http://ns.adobe.com/AdobeSVGViewerExtensions/3.0/"
	 x="0px" y="0px" width="53px" height="33px" viewBox="-0.023 0 53 33" enable-background="new -0.023 0 53 33"
	 xml:space="preserve">
<defs>
</defs>
<rect display="none" fill="#FFF200" width="2" height="33"/>
<rect x="50.846" display="none" fill="#FFF200" width="2" height="33"/>
<rect x="1.999" fill="#C8691C" width="48.901" height="33"/>
<rect x="1.999" fill="#F79523" width="48.901" height="16.7"/>
<path fill="#FFFFFF" d="M14.918,14.094v-3.107c-0.214,0.274-0.479,0.493-0.799,0.652c-0.319,0.163-0.662,0.242-1.032,0.242
	c-0.701,0-1.281-0.261-1.733-0.792c-0.536-0.615-0.806-1.454-0.806-2.512c0-0.992,0.251-1.766,0.755-2.325
	c0.503-0.554,1.127-0.833,1.873-0.833c0.41,0,0.769,0.083,1.067,0.261c0.303,0.172,0.568,0.438,0.801,0.792V5.559h1.509v8.535
	H14.918z M14.969,8.572c0-0.633-0.13-1.104-0.387-1.411C14.324,6.854,14,6.699,13.614,6.699c-0.396,0-0.727,0.154-0.993,0.471
	c-0.268,0.313-0.4,0.815-0.4,1.496c0,0.68,0.128,1.169,0.384,1.472c0.256,0.299,0.573,0.452,0.948,0.452
	c0.377,0,0.708-0.172,0.992-0.508C14.827,9.742,14.969,9.243,14.969,8.572z"/>
<path fill="#FFFFFF" d="M22.233,11.741v-0.928c-0.226,0.331-0.522,0.592-0.89,0.783c-0.368,0.19-0.754,0.284-1.16,0.284
	c-0.417,0-0.79-0.089-1.118-0.275c-0.331-0.182-0.568-0.438-0.717-0.769c-0.149-0.326-0.221-0.782-0.221-1.365V5.559h1.638V8.4
	c0,0.866,0.028,1.402,0.088,1.598c0.061,0.196,0.17,0.35,0.331,0.466c0.159,0.112,0.359,0.173,0.606,0.173
	c0.279,0,0.529-0.079,0.75-0.233c0.221-0.153,0.373-0.34,0.454-0.568c0.082-0.228,0.124-0.782,0.124-1.668V5.559h1.635v6.183H22.233
	z"/>
<path fill="#FFFFFF" d="M25.068,8.563c0-0.545,0.133-1.071,0.403-1.579c0.266-0.509,0.648-0.899,1.137-1.165
	c0.492-0.271,1.039-0.4,1.645-0.4c0.937,0,1.705,0.303,2.301,0.908c0.597,0.61,0.897,1.379,0.897,2.306
	c0,0.937-0.3,1.71-0.906,2.325c-0.603,0.615-1.363,0.923-2.278,0.923c-0.568,0-1.109-0.126-1.621-0.383
	c-0.517-0.256-0.909-0.633-1.174-1.127C25.201,9.877,25.068,9.271,25.068,8.563z M26.745,8.647c0,0.614,0.147,1.085,0.436,1.411
	c0.293,0.326,0.652,0.489,1.079,0.489s0.785-0.163,1.074-0.489c0.289-0.326,0.434-0.801,0.434-1.421
	c0-0.605-0.145-1.071-0.434-1.397c-0.289-0.326-0.647-0.489-1.074-0.489s-0.785,0.163-1.079,0.489
	C26.892,7.566,26.745,8.037,26.745,8.647z"/>
<path fill="#FFFFFF" d="M35.567,5.559v1.304h-1.118v2.493c0,0.503,0.012,0.797,0.033,0.881c0.023,0.083,0.07,0.153,0.145,0.205
	c0.079,0.056,0.17,0.083,0.279,0.083c0.149,0,0.368-0.051,0.657-0.158l0.14,1.272c-0.382,0.163-0.811,0.242-1.293,0.242
	c-0.296,0-0.562-0.047-0.799-0.149c-0.235-0.098-0.41-0.224-0.522-0.382c-0.107-0.158-0.187-0.373-0.229-0.639
	c-0.035-0.19-0.051-0.573-0.051-1.155V6.862h-0.752V5.559h0.752v-1.23l1.64-0.955v2.186H35.567z"/>
<path fill="#FFFFFF" d="M40.287,9.774l1.631,0.271c-0.21,0.601-0.541,1.058-0.993,1.37c-0.454,0.312-1.02,0.466-1.701,0.466
	c-1.074,0-1.871-0.35-2.385-1.054c-0.41-0.563-0.613-1.271-0.613-2.134c0-1.024,0.268-1.826,0.804-2.403
	c0.536-0.583,1.214-0.871,2.031-0.871c0.923,0,1.647,0.303,2.181,0.908c0.531,0.61,0.785,1.542,0.762,2.795h-4.1
	c0.012,0.485,0.142,0.862,0.396,1.133c0.254,0.27,0.566,0.405,0.944,0.405c0.256,0,0.47-0.07,0.647-0.21
	C40.063,10.311,40.196,10.082,40.287,9.774z M40.38,8.121c-0.014-0.476-0.135-0.834-0.368-1.081s-0.517-0.373-0.85-0.373
	c-0.356,0-0.652,0.131-0.885,0.392s-0.347,0.615-0.343,1.063H40.38z"/>
<path fill="#BCBEC0" d="M32.602,24.201c0-2.802-2.956-5.073-6.606-5.073c-3.646,0-6.602,2.271-6.602,5.073
	c0,1.974,1.472,3.684,3.618,4.52l-0.659,3.301l4.058-2.765C29.867,29.091,32.602,26.895,32.602,24.201z"/>
<path fill="#FFFFFF" d="M36.562,24.201c0-2.802-2.958-5.073-6.606-5.073s-6.604,2.271-6.604,5.073c0,1.974,1.47,3.684,3.618,4.52
	l-0.662,3.301l4.061-2.765C33.825,29.091,36.562,26.895,36.562,24.201z"/>
</svg>
