<?xml version="1.0" encoding="utf-8"?>
<svg version="1.1"
	 xmlns="http://www.w3.org/2000/svg" xmlns:xlink="http://www.w3.org/1999/xlink"
	 x="0px" y="0px" width="53px" height="33px" viewBox="-0.023 0 53 33">
<defs>
</defs>
<rect x="1.999" fill="#C8691C" width="48.901" height="33"/>
<rect x="1.999" fill="#F79523" width="48.901" height="16.7"/>
<path fill="#BCBEC0" d="M32.602,24.201c0-2.802-2.956-5.073-6.606-5.073c-3.646,0-6.602,2.271-6.602,5.073
	c0,1.974,1.472,3.684,3.618,4.52l-0.659,3.301l4.058-2.765C29.867,29.091,32.602,26.895,32.602,24.201z"/>
<path fill="#FFFFFF" d="M36.562,24.201c0-2.802-2.958-5.073-6.606-5.073s-6.604,2.271-6.604,5.073c0,1.974,1.47,3.684,3.618,4.52
	l-0.662,3.301l4.061-2.765C33.825,29.091,36.562,26.895,36.562,24.201z"/>
<path fill="#FFFFFF" d="M16.898,13.627V11.02c-0.179,0.232-0.402,0.414-0.669,0.549c-0.267,0.137-0.555,0.203-0.864,0.203
	c-0.589,0-1.074-0.221-1.455-0.664c-0.449-0.518-0.674-1.219-0.674-2.104c0-0.834,0.211-1.484,0.632-1.951s0.945-0.701,1.57-0.701
	c0.345,0,0.644,0.074,0.896,0.221s0.476,0.367,0.671,0.664V6.469h1.265v7.158H16.898z M16.942,8.998
	c0-0.529-0.108-0.926-0.325-1.184c-0.216-0.26-0.487-0.389-0.813-0.389c-0.332,0-0.609,0.133-0.833,0.396s-0.334,0.682-0.334,1.254
	c0,0.57,0.107,0.98,0.322,1.232c0.215,0.254,0.48,0.379,0.796,0.379s0.592-0.141,0.83-0.424S16.942,9.559,16.942,8.998z"/>
<path fill="#FFFFFF" d="M23.031,11.654v-0.775c-0.189,0.275-0.437,0.494-0.745,0.654c-0.308,0.158-0.632,0.238-0.974,0.238
	c-0.348,0-0.661-0.076-0.938-0.229c-0.277-0.154-0.477-0.369-0.601-0.645c-0.124-0.277-0.186-0.66-0.186-1.148V6.469h1.372v2.383
	c0,0.73,0.025,1.176,0.076,1.34c0.05,0.166,0.143,0.295,0.276,0.391c0.133,0.098,0.303,0.145,0.508,0.145
	c0.234,0,0.444-0.064,0.63-0.193c0.186-0.127,0.313-0.287,0.381-0.479c0.068-0.189,0.103-0.656,0.103-1.398V6.469h1.372v5.186
	H23.031z"/>
<path fill="#FFFFFF" d="M25.409,8.988c0-0.455,0.112-0.896,0.337-1.322c0.225-0.428,0.543-0.752,0.955-0.977
	s0.872-0.338,1.379-0.338c0.785,0,1.427,0.256,1.929,0.764c0.501,0.51,0.752,1.154,0.752,1.932c0,0.785-0.253,1.436-0.759,1.951
	s-1.144,0.773-1.912,0.773c-0.475,0-0.929-0.107-1.36-0.322s-0.759-0.529-0.984-0.945C25.521,10.09,25.409,9.584,25.409,8.988z
	 M26.815,9.063c0,0.514,0.122,0.908,0.366,1.182s0.545,0.41,0.903,0.41s0.658-0.137,0.901-0.41s0.364-0.672,0.364-1.191
	c0-0.508-0.121-0.898-0.364-1.172s-0.543-0.41-0.901-0.41s-0.659,0.137-0.903,0.41S26.815,8.547,26.815,9.063z"/>
<path fill="#FFFFFF" d="M34.212,6.469v1.094h-0.938v2.09c0,0.424,0.009,0.67,0.027,0.74s0.059,0.127,0.122,0.174
	c0.063,0.045,0.141,0.068,0.232,0.068c0.127,0,0.311-0.045,0.552-0.133l0.117,1.064c-0.319,0.137-0.68,0.205-1.084,0.205
	c-0.248,0-0.47-0.041-0.669-0.125c-0.199-0.082-0.344-0.189-0.437-0.322c-0.093-0.131-0.157-0.309-0.193-0.533
	c-0.029-0.16-0.044-0.482-0.044-0.967V7.563h-0.63V6.469h0.63V5.439l1.377-0.801v1.83H34.212z"/>
<path fill="#FFFFFF" d="M38.167,10.004l1.367,0.23c-0.176,0.5-0.453,0.883-0.833,1.145s-0.854,0.393-1.423,0.393
	c-0.902,0-1.569-0.295-2.002-0.883c-0.342-0.473-0.513-1.068-0.513-1.787c0-0.859,0.225-1.533,0.674-2.02s1.017-0.73,1.704-0.73
	c0.771,0,1.38,0.256,1.826,0.764c0.446,0.51,0.659,1.291,0.64,2.342H36.17c0.01,0.408,0.121,0.725,0.332,0.949
	c0.211,0.227,0.475,0.34,0.791,0.34c0.215,0,0.396-0.059,0.542-0.176S38.093,10.266,38.167,10.004z M38.246,8.617
	c-0.01-0.396-0.112-0.699-0.308-0.906c-0.195-0.205-0.433-0.309-0.713-0.309c-0.299,0-0.547,0.109-0.742,0.326
	c-0.195,0.219-0.292,0.516-0.288,0.889H38.246z"/>
</svg>
