<?xml version="1.0" encoding="utf-8"?>
<svg version="1.1"
	 xmlns="http://www.w3.org/2000/svg" xmlns:xlink="http://www.w3.org/1999/xlink"
	 x="0px" y="0px" width="22px" height="20px" viewBox="-0.855 -0.875 22 20">
<defs>
</defs>
<rect fill="#C8691C" width="20.46" height="18.25"/>
<rect fill="#F79523" width="20.46" height="9.235"/>
<path fill="#FFFFFF" d="M4.978,12.063l2.174-0.342c0.122,0.871,0.462,1.539,1.02,2.003c0.558,0.464,1.337,0.696,2.339,0.696
	c1.01,0,1.759-0.205,2.247-0.617c0.489-0.411,0.733-0.894,0.733-1.447c0-0.496-0.216-0.888-0.647-1.173
	c-0.302-0.195-1.051-0.443-2.248-0.745c-1.612-0.406-2.73-0.759-3.353-1.056C6.621,9.085,6.148,8.674,5.827,8.148
	c-0.322-0.525-0.483-1.105-0.483-1.74c0-0.578,0.132-1.114,0.397-1.606S6.366,3.9,6.822,3.574C7.165,3.322,7.63,3.108,8.221,2.933
	c0.59-0.175,1.223-0.263,1.899-0.263c1.018,0,1.911,0.146,2.681,0.44c0.77,0.293,1.338,0.69,1.704,1.191
	c0.366,0.5,0.619,1.17,0.758,2.009l-2.15,0.293c-0.098-0.667-0.381-1.189-0.849-1.563c-0.469-0.375-1.13-0.562-1.985-0.562
	c-1.01,0-1.73,0.167-2.162,0.501S7.47,5.704,7.47,6.151c0,0.285,0.09,0.542,0.269,0.77c0.179,0.236,0.46,0.432,0.843,0.586
	c0.22,0.082,0.867,0.269,1.942,0.562c1.555,0.415,2.64,0.755,3.255,1.02c0.614,0.265,1.097,0.649,1.447,1.154
	c0.351,0.505,0.525,1.132,0.525,1.882c0,0.732-0.214,1.423-0.642,2.07s-1.044,1.147-1.851,1.502
	c-0.806,0.354-1.718,0.531-2.736,0.531c-1.686,0-2.97-0.35-3.854-1.05C5.786,14.478,5.222,13.439,4.978,12.063z"/>
<rect x="1.255" y="8.458" fill="#E6E7E8" width="17.834" height="1.7"/>
</svg>
