<?xml version="1.0" encoding="utf-8"?>
<!-- Generator: Adobe Illustrator 15.0.0, SVG Export Plug-In  -->
<!DOCTYPE svg PUBLIC "-//W3C//DTD SVG 1.1//EN" "http://www.w3.org/Graphics/SVG/1.1/DTD/svg11.dtd" [
	<!ENTITY ns_flows "http://ns.adobe.com/Flows/1.0/">
]>
<svg version="1.1"
	 xmlns="http://www.w3.org/2000/svg" xmlns:xlink="http://www.w3.org/1999/xlink" xmlns:a="http://ns.adobe.com/AdobeSVGViewerExtensions/3.0/"
	 x="0px" y="0px" width="87px" height="33px" viewBox="0 0 87 33" enable-background="new 0 0 87 33" xml:space="preserve">
<defs>
</defs>
<rect x="2" fill="#C8691C" width="82.5" height="33"/>
<rect x="2" fill="#F79523" width="82.5" height="16.638"/>
<path fill="#FFFFFF" d="M8.324,10.813l-1.259-0.227C7.206,10.079,7.45,9.704,7.796,9.46c0.346-0.244,0.859-0.366,1.541-0.366
	c0.619,0,1.08,0.073,1.383,0.219c0.303,0.147,0.517,0.333,0.639,0.559c0.125,0.225,0.186,0.639,0.186,1.242l-0.015,1.621
	c0,0.46,0.023,0.8,0.066,1.02c0.045,0.219,0.128,0.453,0.25,0.704h-1.374c-0.036-0.093-0.081-0.229-0.133-0.411
	c-0.022-0.081-0.04-0.136-0.049-0.162c-0.237,0.231-0.491,0.403-0.761,0.518c-0.27,0.117-0.558,0.174-0.864,0.174
	c-0.541,0-0.965-0.146-1.277-0.438c-0.31-0.294-0.466-0.664-0.466-1.112c0-0.296,0.071-0.561,0.212-0.792
	C7.275,12,7.474,11.823,7.729,11.7c0.255-0.125,0.623-0.231,1.104-0.324c0.649-0.122,1.099-0.235,1.349-0.341v-0.138
	c0-0.267-0.066-0.458-0.198-0.57c-0.131-0.115-0.38-0.171-0.746-0.171c-0.247,0-0.44,0.048-0.578,0.145
	C8.522,10.399,8.41,10.569,8.324,10.813z M10.182,11.939c-0.178,0.059-0.459,0.13-0.845,0.211c-0.385,0.083-0.637,0.164-0.756,0.243
	C8.4,12.522,8.31,12.684,8.31,12.882c0,0.195,0.072,0.363,0.217,0.506c0.145,0.14,0.329,0.211,0.553,0.211
	c0.25,0,0.489-0.083,0.716-0.247c0.168-0.125,0.278-0.279,0.331-0.458c0.037-0.119,0.055-0.346,0.055-0.678V11.939z"/>
<path fill="#FFFFFF" d="M17.724,14.458h-1.289v-0.771c-0.214,0.3-0.466,0.523-0.759,0.669c-0.291,0.146-0.584,0.219-0.881,0.219
	c-0.603,0-1.119-0.243-1.549-0.729c-0.429-0.486-0.644-1.164-0.644-2.033c0-0.888,0.209-1.564,0.627-2.027
	c0.418-0.462,0.946-0.693,1.585-0.693c0.586,0,1.094,0.244,1.521,0.731V7.217h1.388V14.458z M14.019,11.722
	c0,0.559,0.077,0.964,0.232,1.215c0.224,0.361,0.536,0.543,0.938,0.543c0.319,0,0.591-0.137,0.815-0.407
	c0.224-0.272,0.336-0.678,0.336-1.219c0-0.601-0.109-1.036-0.326-1.3c-0.217-0.266-0.496-0.398-0.834-0.398
	c-0.329,0-0.605,0.131-0.828,0.392C14.131,10.811,14.019,11.202,14.019,11.722z"/>
<path fill="#FFFFFF" d="M23.903,14.458h-1.289v-0.771c-0.214,0.3-0.467,0.523-0.758,0.669c-0.292,0.146-0.586,0.219-0.882,0.219
	c-0.603,0-1.119-0.243-1.548-0.729c-0.431-0.486-0.645-1.164-0.645-2.033c0-0.888,0.209-1.564,0.627-2.027
	c0.417-0.462,0.946-0.693,1.585-0.693c0.586,0,1.093,0.244,1.521,0.731V7.217h1.388V14.458z M20.198,11.722
	c0,0.559,0.077,0.964,0.232,1.215c0.224,0.361,0.536,0.543,0.938,0.543c0.319,0,0.59-0.137,0.815-0.407
	c0.224-0.272,0.336-0.678,0.336-1.219c0-0.601-0.109-1.036-0.326-1.3c-0.217-0.266-0.496-0.398-0.835-0.398
	c-0.329,0-0.605,0.131-0.827,0.392C20.309,10.811,20.198,11.202,20.198,11.722z"/>
<path fill="#FFFFFF" d="M7.287,16.594V15.31h1.388v1.284H7.287z M7.287,22.551v-5.245h1.388v5.245H7.287z"/>
<path fill="#FFFFFF" d="M9.994,17.306h1.279v0.717c0.458-0.557,1.003-0.836,1.635-0.836c0.336,0,0.627,0.069,0.875,0.208
	c0.247,0.138,0.449,0.348,0.607,0.628c0.23-0.28,0.479-0.49,0.746-0.628c0.267-0.139,0.551-0.208,0.854-0.208
	c0.385,0,0.711,0.079,0.978,0.235c0.267,0.156,0.466,0.386,0.598,0.688c0.096,0.226,0.143,0.587,0.143,1.087v3.354h-1.388v-2.999
	c0-0.52-0.047-0.855-0.143-1.008c-0.128-0.197-0.326-0.296-0.593-0.296c-0.194,0-0.377,0.059-0.548,0.178
	c-0.171,0.118-0.294,0.292-0.37,0.521c-0.076,0.229-0.114,0.591-0.114,1.085v2.519h-1.388v-2.875c0-0.51-0.024-0.839-0.074-0.987
	s-0.125-0.259-0.23-0.33c-0.103-0.073-0.244-0.11-0.422-0.11c-0.214,0-0.407,0.059-0.578,0.174c-0.171,0.114-0.294,0.28-0.368,0.498
	c-0.075,0.217-0.111,0.578-0.111,1.082v2.549H9.994V17.306z"/>
<path fill="#FFFFFF" d="M20.129,18.905l-1.26-0.227c0.141-0.508,0.385-0.884,0.731-1.126c0.346-0.243,0.859-0.366,1.541-0.366
	c0.62,0,1.08,0.073,1.383,0.22s0.517,0.334,0.639,0.559c0.125,0.226,0.186,0.639,0.186,1.243l-0.015,1.62
	c0,0.46,0.022,0.8,0.066,1.02c0.045,0.219,0.128,0.452,0.25,0.703h-1.373c-0.037-0.093-0.081-0.229-0.133-0.411
	c-0.023-0.081-0.04-0.136-0.049-0.162c-0.237,0.231-0.491,0.403-0.761,0.518c-0.27,0.117-0.558,0.174-0.864,0.174
	c-0.541,0-0.965-0.146-1.277-0.438c-0.311-0.294-0.466-0.663-0.466-1.112c0-0.296,0.071-0.561,0.212-0.792
	c0.141-0.233,0.34-0.411,0.596-0.533c0.255-0.125,0.622-0.231,1.103-0.324c0.649-0.122,1.099-0.235,1.349-0.34V18.99
	c0-0.269-0.066-0.458-0.198-0.57c-0.131-0.115-0.38-0.172-0.746-0.172c-0.247,0-0.439,0.049-0.578,0.146
	C20.327,18.491,20.215,18.663,20.129,18.905z M21.986,20.032c-0.178,0.059-0.459,0.13-0.845,0.211
	c-0.385,0.083-0.637,0.164-0.755,0.243c-0.181,0.128-0.272,0.29-0.272,0.488c0,0.195,0.072,0.363,0.217,0.506
	c0.146,0.14,0.329,0.211,0.553,0.211c0.25,0,0.489-0.083,0.716-0.247c0.168-0.124,0.279-0.278,0.331-0.458
	c0.037-0.119,0.054-0.346,0.054-0.678V20.032z"/>
<path fill="#FFFFFF" d="M24.589,22.896l1.585,0.191c0.027,0.187,0.087,0.313,0.183,0.382c0.131,0.099,0.339,0.148,0.623,0.148
	c0.362,0,0.634-0.056,0.815-0.162c0.122-0.073,0.214-0.19,0.277-0.352c0.042-0.115,0.064-0.328,0.064-0.637v-0.767
	c-0.415,0.567-0.938,0.85-1.571,0.85c-0.704,0-1.262-0.298-1.674-0.893c-0.323-0.473-0.484-1.06-0.484-1.759
	c0-0.881,0.211-1.553,0.634-2.016c0.423-0.466,0.949-0.697,1.579-0.697c0.649,0,1.183,0.285,1.605,0.855v-0.736h1.299v4.708
	c0,0.618-0.052,1.08-0.153,1.387s-0.245,0.547-0.43,0.721s-0.431,0.311-0.739,0.409c-0.308,0.099-0.697,0.15-1.168,0.15
	c-0.889,0-1.519-0.154-1.892-0.458c-0.373-0.305-0.558-0.689-0.558-1.158C24.584,23.02,24.586,22.962,24.589,22.896z M25.829,19.82
	c0,0.556,0.108,0.962,0.324,1.221c0.215,0.259,0.481,0.388,0.797,0.388c0.339,0,0.625-0.133,0.859-0.397
	c0.234-0.265,0.351-0.657,0.351-1.178c0-0.543-0.112-0.946-0.336-1.211c-0.224-0.263-0.507-0.395-0.85-0.395
	c-0.333,0-0.606,0.13-0.822,0.389C25.937,18.896,25.829,19.289,25.829,19.82z"/>
<path fill="#FFFFFF" d="M33.935,20.881l1.383,0.231c-0.178,0.508-0.458,0.896-0.843,1.16c-0.383,0.265-0.863,0.396-1.439,0.396
	c-0.912,0-1.587-0.298-2.025-0.893c-0.346-0.479-0.519-1.081-0.519-1.81c0-0.869,0.228-1.549,0.682-2.041
	c0.455-0.492,1.029-0.739,1.724-0.739c0.78,0,1.396,0.257,1.847,0.772c0.451,0.516,0.667,1.307,0.647,2.369h-3.477
	c0.01,0.411,0.121,0.731,0.335,0.96c0.214,0.229,0.481,0.344,0.8,0.344c0.217,0,0.4-0.059,0.548-0.178
	C33.747,21.336,33.858,21.145,33.935,20.881z M34.014,19.479c-0.01-0.401-0.114-0.707-0.312-0.917
	c-0.197-0.209-0.438-0.313-0.721-0.313c-0.304,0-0.553,0.11-0.751,0.332c-0.198,0.221-0.294,0.52-0.292,0.898H34.014z"/>
<path fill="#52CAF5" d="M57.938,4.909v21.013H78.95V4.909H57.938z M76.85,23.819H60.039V7.01H76.85V23.819z"/>
<rect x="61.843" y="9.928" fill="#52CAF5" width="6.392" height="5.036"/>
<rect x="68.814" y="9.928" fill="#52CAF5" width="6.39" height="5.036"/>
<rect x="61.843" y="16.9" fill="#52CAF5" width="6.392" height="5.036"/>
<rect x="68.814" y="16.9" fill="#52CAF5" width="6.39" height="5.036"/>
<rect display="none" fill="#FFF200" width="2" height="33"/>
<rect x="84.5" display="none" fill="#FFF200" width="2" height="33"/>
</svg>
