<?xml version="1.0" encoding="utf-8"?>
<!DOCTYPE svg PUBLIC "-//W3C//DTD SVG 1.1//EN" "http://www.w3.org/Graphics/SVG/1.1/DTD/svg11.dtd" [
	<!ENTITY ns_flows "http://ns.adobe.com/Flows/1.0/">
]>
<svg version="1.1"
	 xmlns="http://www.w3.org/2000/svg" xmlns:xlink="http://www.w3.org/1999/xlink"
	 x="0px" y="0px" width="87px" height="33px" viewBox="0 0 87 33">
<defs>
</defs>
<rect x="2" fill="#C8691C" width="82.5" height="33"/>
<rect x="2" fill="#F79523" width="82.5" height="16.638"/>
<path display="none" fill="#FFFFFF" d="M8.324,10.813l-1.259-0.227C7.206,10.079,7.45,9.704,7.796,9.46
	c0.346-0.244,0.859-0.366,1.541-0.366c0.619,0,1.08,0.073,1.383,0.219c0.303,0.147,0.517,0.333,0.639,0.559
	c0.125,0.225,0.186,0.639,0.186,1.242l-0.015,1.621c0,0.46,0.023,0.8,0.066,1.02c0.045,0.219,0.128,0.453,0.25,0.704h-1.374
	c-0.036-0.093-0.081-0.229-0.133-0.411c-0.022-0.081-0.04-0.136-0.049-0.162c-0.237,0.231-0.491,0.403-0.761,0.518
	c-0.27,0.117-0.558,0.174-0.864,0.174c-0.541,0-0.965-0.146-1.277-0.438c-0.31-0.294-0.466-0.664-0.466-1.112
	c0-0.296,0.071-0.561,0.212-0.792C7.275,12,7.474,11.823,7.729,11.7c0.255-0.125,0.623-0.231,1.104-0.324
	c0.649-0.122,1.099-0.235,1.349-0.341v-0.138c0-0.267-0.066-0.458-0.198-0.57c-0.131-0.115-0.38-0.171-0.746-0.171
	c-0.247,0-0.44,0.048-0.578,0.145C8.522,10.399,8.41,10.569,8.324,10.813z M10.182,11.939c-0.178,0.059-0.459,0.13-0.845,0.211
	c-0.385,0.083-0.637,0.164-0.756,0.243C8.4,12.522,8.31,12.684,8.31,12.882c0,0.195,0.072,0.363,0.217,0.506
	c0.145,0.14,0.329,0.211,0.553,0.211c0.25,0,0.489-0.083,0.716-0.247c0.168-0.125,0.278-0.279,0.331-0.458
	c0.037-0.119,0.055-0.346,0.055-0.678V11.939z"/>
<path display="none" fill="#FFFFFF" d="M17.724,14.458h-1.289v-0.771c-0.214,0.3-0.466,0.523-0.759,0.669
	c-0.291,0.146-0.584,0.219-0.881,0.219c-0.603,0-1.119-0.243-1.549-0.729c-0.429-0.486-0.644-1.164-0.644-2.033
	c0-0.888,0.209-1.564,0.627-2.027c0.418-0.462,0.946-0.693,1.585-0.693c0.586,0,1.094,0.244,1.521,0.731V7.217h1.388V14.458z
	 M14.019,11.722c0,0.559,0.077,0.964,0.232,1.215c0.224,0.361,0.536,0.543,0.938,0.543c0.319,0,0.591-0.137,0.815-0.407
	c0.224-0.272,0.336-0.678,0.336-1.219c0-0.601-0.109-1.036-0.326-1.3c-0.217-0.266-0.496-0.398-0.834-0.398
	c-0.329,0-0.605,0.131-0.828,0.392C14.131,10.811,14.019,11.202,14.019,11.722z"/>
<path display="none" fill="#FFFFFF" d="M23.903,14.458h-1.289v-0.771c-0.214,0.3-0.467,0.523-0.758,0.669
	c-0.292,0.146-0.586,0.219-0.882,0.219c-0.603,0-1.119-0.243-1.548-0.729c-0.431-0.486-0.645-1.164-0.645-2.033
	c0-0.888,0.209-1.564,0.627-2.027c0.417-0.462,0.946-0.693,1.585-0.693c0.586,0,1.093,0.244,1.521,0.731V7.217h1.388V14.458z
	 M20.198,11.722c0,0.559,0.077,0.964,0.232,1.215c0.224,0.361,0.536,0.543,0.938,0.543c0.319,0,0.59-0.137,0.815-0.407
	c0.224-0.272,0.336-0.678,0.336-1.219c0-0.601-0.109-1.036-0.326-1.3c-0.217-0.266-0.496-0.398-0.835-0.398
	c-0.329,0-0.605,0.131-0.827,0.392C20.309,10.811,20.198,11.202,20.198,11.722z"/>
<path display="none" fill="#FFFFFF" d="M7.287,16.594V15.31h1.388v1.284H7.287z M7.287,22.551v-5.245h1.388v5.245H7.287z"/>
<path display="none" fill="#FFFFFF" d="M9.994,17.306h1.279v0.717c0.458-0.557,1.003-0.836,1.635-0.836
	c0.336,0,0.627,0.069,0.875,0.208c0.247,0.138,0.449,0.348,0.607,0.628c0.23-0.28,0.479-0.49,0.746-0.628
	c0.267-0.139,0.551-0.208,0.854-0.208c0.385,0,0.711,0.079,0.978,0.235c0.267,0.156,0.466,0.386,0.598,0.688
	c0.096,0.226,0.143,0.587,0.143,1.087v3.354h-1.388v-2.999c0-0.52-0.047-0.855-0.143-1.008c-0.128-0.197-0.326-0.296-0.593-0.296
	c-0.194,0-0.377,0.059-0.548,0.178c-0.171,0.118-0.294,0.292-0.37,0.521c-0.076,0.229-0.114,0.591-0.114,1.085v2.519h-1.388v-2.875
	c0-0.51-0.024-0.839-0.074-0.987s-0.125-0.259-0.23-0.33c-0.103-0.073-0.244-0.11-0.422-0.11c-0.214,0-0.407,0.059-0.578,0.174
	c-0.171,0.114-0.294,0.28-0.368,0.498c-0.075,0.217-0.111,0.578-0.111,1.082v2.549H9.994V17.306z"/>
<path display="none" fill="#FFFFFF" d="M20.129,18.905l-1.26-0.227c0.141-0.508,0.385-0.884,0.731-1.126
	c0.346-0.243,0.859-0.366,1.541-0.366c0.62,0,1.08,0.073,1.383,0.22s0.517,0.334,0.639,0.559c0.125,0.226,0.186,0.639,0.186,1.243
	l-0.015,1.62c0,0.46,0.022,0.8,0.066,1.02c0.045,0.219,0.128,0.452,0.25,0.703h-1.373c-0.037-0.093-0.081-0.229-0.133-0.411
	c-0.023-0.081-0.04-0.136-0.049-0.162c-0.237,0.231-0.491,0.403-0.761,0.518c-0.27,0.117-0.558,0.174-0.864,0.174
	c-0.541,0-0.965-0.146-1.277-0.438c-0.311-0.294-0.466-0.663-0.466-1.112c0-0.296,0.071-0.561,0.212-0.792
	c0.141-0.233,0.34-0.411,0.596-0.533c0.255-0.125,0.622-0.231,1.103-0.324c0.649-0.122,1.099-0.235,1.349-0.34V18.99
	c0-0.269-0.066-0.458-0.198-0.57c-0.131-0.115-0.38-0.172-0.746-0.172c-0.247,0-0.439,0.049-0.578,0.146
	C20.327,18.491,20.215,18.663,20.129,18.905z M21.986,20.032c-0.178,0.059-0.459,0.13-0.845,0.211
	c-0.385,0.083-0.637,0.164-0.755,0.243c-0.181,0.128-0.272,0.29-0.272,0.488c0,0.195,0.072,0.363,0.217,0.506
	c0.146,0.14,0.329,0.211,0.553,0.211c0.25,0,0.489-0.083,0.716-0.247c0.168-0.124,0.279-0.278,0.331-0.458
	c0.037-0.119,0.054-0.346,0.054-0.678V20.032z"/>
<path display="none" fill="#FFFFFF" d="M24.589,22.896l1.585,0.191c0.027,0.187,0.087,0.313,0.183,0.382
	c0.131,0.099,0.339,0.148,0.623,0.148c0.362,0,0.634-0.056,0.815-0.162c0.122-0.073,0.214-0.19,0.277-0.352
	c0.042-0.115,0.064-0.328,0.064-0.637v-0.767c-0.415,0.567-0.938,0.85-1.571,0.85c-0.704,0-1.262-0.298-1.674-0.893
	c-0.323-0.473-0.484-1.06-0.484-1.759c0-0.881,0.211-1.553,0.634-2.016c0.423-0.466,0.949-0.697,1.579-0.697
	c0.649,0,1.183,0.285,1.605,0.855v-0.736h1.299v4.708c0,0.618-0.052,1.08-0.153,1.387s-0.245,0.547-0.43,0.721
	s-0.431,0.311-0.739,0.409c-0.308,0.099-0.697,0.15-1.168,0.15c-0.889,0-1.519-0.154-1.892-0.458
	c-0.373-0.305-0.558-0.689-0.558-1.158C24.584,23.02,24.586,22.962,24.589,22.896z M25.829,19.82c0,0.556,0.108,0.962,0.324,1.221
	c0.215,0.259,0.481,0.388,0.797,0.388c0.339,0,0.625-0.133,0.859-0.397c0.234-0.265,0.351-0.657,0.351-1.178
	c0-0.543-0.112-0.946-0.336-1.211c-0.224-0.263-0.507-0.395-0.85-0.395c-0.333,0-0.606,0.13-0.822,0.389
	C25.937,18.896,25.829,19.289,25.829,19.82z"/>
<path display="none" fill="#FFFFFF" d="M33.935,20.881l1.383,0.231c-0.178,0.508-0.458,0.896-0.843,1.16
	c-0.383,0.265-0.863,0.396-1.439,0.396c-0.912,0-1.587-0.298-2.025-0.893c-0.346-0.479-0.519-1.081-0.519-1.81
	c0-0.869,0.228-1.549,0.682-2.041c0.455-0.492,1.029-0.739,1.724-0.739c0.78,0,1.396,0.257,1.847,0.772
	c0.451,0.516,0.667,1.307,0.647,2.369h-3.477c0.01,0.411,0.121,0.731,0.335,0.96c0.214,0.229,0.481,0.344,0.8,0.344
	c0.217,0,0.4-0.059,0.548-0.178C33.747,21.336,33.858,21.145,33.935,20.881z M34.014,19.479c-0.01-0.401-0.114-0.707-0.312-0.917
	c-0.197-0.209-0.438-0.313-0.721-0.313c-0.304,0-0.553,0.11-0.751,0.332c-0.198,0.221-0.294,0.52-0.292,0.898H34.014z"/>
<path fill="#52CAF5" d="M57.938,4.909v21.013H78.95V4.909H57.938z M76.85,23.819H60.039V7.01H76.85V23.819z"/>
<rect x="61.843" y="9.928" fill="#52CAF5" width="6.392" height="5.036"/>
<rect x="68.814" y="9.928" fill="#52CAF5" width="6.39" height="5.036"/>
<rect x="61.843" y="16.9" fill="#52CAF5" width="6.392" height="5.036"/>
<rect x="68.814" y="16.9" fill="#52CAF5" width="6.39" height="5.036"/>
<path fill="#FFFFFF" d="M9.204,11.229l-1.245-0.225c0.14-0.501,0.381-0.872,0.723-1.113s0.85-0.361,1.523-0.361
	c0.612,0,1.068,0.072,1.367,0.217c0.299,0.146,0.51,0.329,0.632,0.553c0.122,0.223,0.183,0.632,0.183,1.228l-0.015,1.602
	c0,0.456,0.022,0.792,0.066,1.009c0.044,0.216,0.126,0.448,0.247,0.695h-1.357c-0.036-0.091-0.08-0.227-0.132-0.405
	c-0.023-0.081-0.039-0.135-0.049-0.161c-0.234,0.228-0.485,0.398-0.752,0.513S9.843,14.95,9.541,14.95
	c-0.534,0-0.955-0.145-1.262-0.435s-0.461-0.656-0.461-1.099c0-0.293,0.07-0.555,0.21-0.783c0.14-0.23,0.336-0.406,0.588-0.527
	c0.252-0.123,0.616-0.229,1.091-0.32c0.641-0.12,1.085-0.232,1.333-0.337v-0.137c0-0.264-0.065-0.452-0.195-0.563
	c-0.13-0.113-0.376-0.169-0.737-0.169c-0.244,0-0.435,0.048-0.571,0.144C9.399,10.82,9.288,10.988,9.204,11.229z M11.04,12.342
	c-0.176,0.059-0.454,0.129-0.835,0.21s-0.63,0.161-0.747,0.239c-0.179,0.127-0.269,0.288-0.269,0.483
	c0,0.192,0.072,0.358,0.215,0.498s0.326,0.21,0.547,0.21c0.248,0,0.483-0.081,0.708-0.244c0.166-0.124,0.275-0.275,0.327-0.454
	c0.036-0.117,0.054-0.34,0.054-0.669V12.342z"/>
<path fill="#FFFFFF" d="M18.496,14.833h-1.274v-0.762c-0.211,0.296-0.461,0.517-0.75,0.662c-0.288,0.145-0.579,0.217-0.872,0.217
	c-0.596,0-1.106-0.24-1.531-0.721c-0.425-0.479-0.637-1.149-0.637-2.009c0-0.879,0.207-1.547,0.62-2.005
	c0.414-0.457,0.936-0.686,1.567-0.686c0.58,0,1.081,0.241,1.504,0.723V7.674h1.372V14.833z M14.833,12.127
	c0,0.554,0.077,0.954,0.229,1.201c0.221,0.358,0.531,0.537,0.928,0.537c0.316,0,0.584-0.135,0.806-0.402
	c0.221-0.27,0.332-0.67,0.332-1.204c0-0.596-0.107-1.024-0.322-1.286c-0.215-0.263-0.49-0.394-0.825-0.394
	c-0.326,0-0.598,0.13-0.818,0.388C14.943,11.227,14.833,11.613,14.833,12.127z"/>
<path fill="#FFFFFF" d="M24.604,14.833H23.33v-0.762c-0.211,0.296-0.461,0.517-0.75,0.662c-0.288,0.145-0.579,0.217-0.872,0.217
	c-0.596,0-1.106-0.24-1.531-0.721c-0.425-0.479-0.637-1.149-0.637-2.009c0-0.879,0.207-1.547,0.62-2.005
	c0.414-0.457,0.936-0.686,1.567-0.686c0.58,0,1.081,0.241,1.504,0.723V7.674h1.372V14.833z M20.942,12.127
	c0,0.554,0.077,0.954,0.229,1.201c0.221,0.358,0.531,0.537,0.928,0.537c0.316,0,0.584-0.135,0.806-0.402
	c0.221-0.27,0.332-0.67,0.332-1.204c0-0.596-0.107-1.024-0.322-1.286c-0.215-0.263-0.49-0.394-0.825-0.394
	c-0.326,0-0.598,0.13-0.818,0.388C21.052,11.227,20.942,11.613,20.942,12.127z"/>
<path fill="#FFFFFF" d="M8.178,17.943v-1.269H9.55v1.269H8.178z M8.178,23.832v-5.186H9.55v5.186H8.178z"/>
<path fill="#FFFFFF" d="M10.854,18.646h1.265v0.709c0.453-0.551,0.991-0.826,1.616-0.826c0.332,0,0.62,0.068,0.864,0.205
	s0.444,0.344,0.601,0.621c0.228-0.277,0.474-0.484,0.737-0.621s0.545-0.205,0.845-0.205c0.381,0,0.703,0.078,0.967,0.232
	s0.46,0.381,0.591,0.682c0.094,0.221,0.142,0.578,0.142,1.074v3.314h-1.372v-2.963c0-0.516-0.047-0.848-0.142-0.996
	c-0.127-0.195-0.322-0.293-0.586-0.293c-0.192,0-0.373,0.059-0.542,0.176s-0.292,0.289-0.366,0.514
	c-0.075,0.227-0.112,0.584-0.112,1.072v2.49h-1.372V20.99c0-0.504-0.024-0.83-0.073-0.977s-0.125-0.256-0.227-0.326
	c-0.103-0.072-0.242-0.107-0.417-0.107c-0.211,0-0.402,0.057-0.571,0.17c-0.169,0.115-0.291,0.279-0.364,0.494
	s-0.11,0.57-0.11,1.068v2.52h-1.372V18.646z"/>
<path fill="#FFFFFF" d="M20.874,20.229l-1.245-0.225c0.14-0.5,0.381-0.871,0.723-1.113c0.342-0.24,0.85-0.361,1.523-0.361
	c0.612,0,1.068,0.072,1.367,0.217c0.299,0.146,0.51,0.33,0.632,0.553s0.183,0.633,0.183,1.229l-0.015,1.602
	c0,0.455,0.022,0.791,0.066,1.008s0.126,0.449,0.247,0.695h-1.357c-0.036-0.09-0.08-0.227-0.132-0.404
	c-0.023-0.082-0.039-0.135-0.049-0.162c-0.234,0.229-0.485,0.398-0.752,0.514c-0.267,0.113-0.552,0.17-0.854,0.17
	c-0.534,0-0.955-0.145-1.262-0.434c-0.308-0.291-0.461-0.656-0.461-1.1c0-0.293,0.07-0.555,0.21-0.783
	c0.14-0.23,0.336-0.406,0.588-0.527c0.252-0.123,0.616-0.229,1.091-0.32c0.641-0.119,1.085-0.232,1.333-0.336v-0.137
	c0-0.264-0.065-0.453-0.195-0.564c-0.13-0.113-0.376-0.168-0.737-0.168c-0.244,0-0.435,0.047-0.571,0.143
	C21.069,19.82,20.958,19.988,20.874,20.229z M22.709,21.342c-0.176,0.059-0.454,0.129-0.835,0.211
	c-0.381,0.08-0.63,0.16-0.747,0.238c-0.179,0.127-0.269,0.289-0.269,0.484c0,0.191,0.072,0.357,0.215,0.498
	c0.143,0.139,0.326,0.209,0.547,0.209c0.248,0,0.483-0.08,0.708-0.244c0.166-0.123,0.275-0.275,0.327-0.453
	c0.036-0.117,0.054-0.34,0.054-0.67V21.342z"/>
<path fill="#FFFFFF" d="M25.283,24.174l1.567,0.191c0.026,0.182,0.086,0.307,0.181,0.375c0.13,0.098,0.335,0.146,0.615,0.146
	c0.358,0,0.626-0.053,0.806-0.16c0.121-0.072,0.211-0.188,0.273-0.348c0.042-0.113,0.063-0.324,0.063-0.629v-0.758
	c-0.41,0.561-0.928,0.84-1.553,0.84c-0.697,0-1.249-0.295-1.655-0.883c-0.319-0.467-0.479-1.045-0.479-1.738
	c0-0.869,0.209-1.533,0.627-1.992s0.938-0.689,1.56-0.689c0.641,0,1.17,0.281,1.587,0.846v-0.729h1.284v4.654
	c0,0.611-0.05,1.068-0.151,1.371s-0.243,0.541-0.425,0.713c-0.182,0.174-0.426,0.309-0.73,0.406s-0.689,0.146-1.155,0.146
	c-0.879,0-1.502-0.15-1.87-0.453c-0.368-0.301-0.552-0.682-0.552-1.145C25.278,24.295,25.279,24.24,25.283,24.174z M26.508,21.133
	c0,0.549,0.106,0.953,0.32,1.207c0.213,0.256,0.476,0.385,0.789,0.385c0.335,0,0.619-0.131,0.85-0.395
	c0.231-0.262,0.347-0.648,0.347-1.164c0-0.537-0.111-0.936-0.332-1.195c-0.221-0.262-0.501-0.391-0.84-0.391
	c-0.329,0-0.6,0.127-0.813,0.383S26.508,20.607,26.508,21.133z"/>
<path fill="#FFFFFF" d="M34.521,22.182l1.367,0.23c-0.176,0.5-0.453,0.883-0.833,1.145s-0.854,0.393-1.423,0.393
	c-0.902,0-1.569-0.295-2.002-0.883c-0.342-0.473-0.513-1.068-0.513-1.787c0-0.859,0.225-1.533,0.674-2.02s1.017-0.73,1.704-0.73
	c0.771,0,1.38,0.256,1.826,0.764c0.446,0.51,0.659,1.291,0.64,2.342h-3.438c0.01,0.408,0.121,0.725,0.332,0.949
	c0.211,0.227,0.475,0.34,0.791,0.34c0.215,0,0.396-0.059,0.542-0.176S34.446,22.443,34.521,22.182z M34.599,20.795
	c-0.01-0.396-0.112-0.699-0.308-0.906c-0.195-0.205-0.433-0.309-0.713-0.309c-0.299,0-0.547,0.109-0.742,0.326
	c-0.195,0.219-0.292,0.516-0.288,0.889H34.599z"/>
<rect display="none" fill="#FFF200" width="2" height="33"/>
<rect x="84.5" display="none" fill="#FFF200" width="2" height="33"/>
</svg>
