<?xml version="1.0" encoding="utf-8"?>
<!-- Generator: Adobe Illustrator 15.0.0, SVG Export Plug-In  -->
<!DOCTYPE svg PUBLIC "-//W3C//DTD SVG 1.1//EN" "http://www.w3.org/Graphics/SVG/1.1/DTD/svg11.dtd" [
	<!ENTITY ns_flows "http://ns.adobe.com/Flows/1.0/">
]>
<svg version="1.1"
	 xmlns="http://www.w3.org/2000/svg" xmlns:xlink="http://www.w3.org/1999/xlink" xmlns:a="http://ns.adobe.com/AdobeSVGViewerExtensions/3.0/"
	 x="0px" y="0px" width="75px" height="33px" viewBox="-0.696 -1.832 75 33" enable-background="new -0.696 -1.832 75 33"
	 xml:space="preserve">
<defs>
</defs>
<rect fill="#C8691C" width="73.609" height="29.336"/>
<rect fill="#F79523" width="73.609" height="14.845"/>
<path fill="#FFFFFF" d="M5.642,9.648L4.519,9.445C4.645,8.993,4.862,8.658,5.171,8.44C5.48,8.223,5.938,8.114,6.545,8.114
	c0.553,0,0.964,0.065,1.234,0.195c0.271,0.132,0.461,0.297,0.57,0.499c0.111,0.201,0.166,0.57,0.166,1.108l-0.013,1.446
	c0,0.41,0.02,0.713,0.059,0.909c0.04,0.195,0.114,0.403,0.223,0.628H7.56c-0.033-0.083-0.073-0.205-0.12-0.367
	c-0.02-0.072-0.035-0.122-0.043-0.145c-0.212,0.207-0.438,0.359-0.678,0.462c-0.241,0.104-0.499,0.155-0.771,0.155
	c-0.482,0-0.862-0.131-1.14-0.392c-0.277-0.263-0.417-0.592-0.417-0.993c0-0.264,0.064-0.499,0.19-0.706
	c0.125-0.208,0.303-0.366,0.531-0.476c0.227-0.111,0.555-0.207,0.984-0.29C6.676,10.04,7.076,9.94,7.3,9.846V9.723
	c0-0.238-0.059-0.408-0.177-0.509C7.006,9.111,6.784,9.062,6.458,9.062c-0.221,0-0.393,0.043-0.516,0.13
	C5.818,9.278,5.719,9.431,5.642,9.648z M7.3,10.652c-0.159,0.053-0.41,0.117-0.754,0.188c-0.343,0.074-0.568,0.146-0.674,0.218
	c-0.161,0.114-0.242,0.258-0.242,0.436c0,0.174,0.064,0.323,0.193,0.45c0.13,0.125,0.293,0.188,0.494,0.188
	c0.223,0,0.436-0.074,0.639-0.22c0.15-0.111,0.249-0.249,0.295-0.409C7.283,11.398,7.3,11.195,7.3,10.899V10.652z"/>
<path fill="#FFFFFF" d="M14.029,12.9h-1.15v-0.688c-0.191,0.268-0.416,0.467-0.677,0.597c-0.259,0.131-0.521,0.196-0.786,0.196
	c-0.538,0-0.998-0.217-1.382-0.651c-0.383-0.433-0.575-1.038-0.575-1.813c0-0.792,0.187-1.396,0.56-1.809
	c0.373-0.412,0.844-0.618,1.415-0.618c0.523,0,0.976,0.218,1.357,0.652V6.439h1.238V12.9z M10.724,10.458
	c0,0.499,0.069,0.86,0.207,1.085c0.2,0.322,0.479,0.484,0.837,0.484c0.285,0,0.527-0.121,0.727-0.363
	c0.201-0.243,0.3-0.604,0.3-1.088c0-0.536-0.097-0.923-0.291-1.16c-0.193-0.236-0.442-0.354-0.745-0.354
	c-0.293,0-0.539,0.117-0.739,0.35C10.823,9.646,10.724,9.995,10.724,10.458z"/>
<path fill="#FFFFFF" d="M19.542,12.9h-1.15v-0.688c-0.191,0.268-0.417,0.467-0.676,0.597c-0.261,0.131-0.522,0.196-0.787,0.196
	c-0.538,0-0.999-0.217-1.381-0.651c-0.384-0.433-0.575-1.038-0.575-1.813c0-0.792,0.187-1.396,0.56-1.809
	c0.373-0.412,0.845-0.618,1.415-0.618c0.523,0,0.976,0.218,1.357,0.652V6.439h1.238V12.9z M16.237,10.458
	c0,0.499,0.068,0.86,0.207,1.085c0.201,0.322,0.479,0.484,0.837,0.484c0.285,0,0.527-0.121,0.728-0.363
	c0.199-0.243,0.299-0.604,0.299-1.088c0-0.536-0.097-0.923-0.291-1.16c-0.194-0.236-0.442-0.354-0.744-0.354
	c-0.294,0-0.541,0.117-0.738,0.35C16.335,9.646,16.237,9.995,16.237,10.458z"/>
<path fill="#FFFFFF" d="M4.717,14.806V13.66h1.239v1.146H4.717z M4.717,20.12v-4.681h1.239v4.681H4.717z"/>
<path fill="#FFFFFF" d="M7.132,15.439h1.141v0.641c0.409-0.497,0.895-0.746,1.459-0.746c0.3,0,0.56,0.062,0.78,0.186
	c0.22,0.123,0.401,0.31,0.542,0.561c0.205-0.251,0.427-0.438,0.665-0.561c0.239-0.124,0.492-0.186,0.763-0.186
	c0.344,0,0.634,0.07,0.873,0.21c0.237,0.14,0.416,0.344,0.533,0.613c0.085,0.201,0.127,0.523,0.127,0.97v2.993h-1.238v-2.676
	c0-0.464-0.042-0.764-0.128-0.899c-0.114-0.176-0.291-0.264-0.529-0.264c-0.173,0-0.336,0.052-0.489,0.157
	c-0.152,0.106-0.263,0.262-0.331,0.466c-0.068,0.205-0.102,0.528-0.102,0.969v2.247H9.961v-2.564c0-0.455-0.022-0.749-0.066-0.882
	c-0.043-0.133-0.112-0.231-0.205-0.294c-0.092-0.065-0.218-0.099-0.376-0.099c-0.191,0-0.363,0.052-0.516,0.154
	c-0.153,0.103-0.263,0.251-0.328,0.444c-0.066,0.193-0.099,0.517-0.099,0.966v2.274H7.132V15.439z"/>
<path fill="#FFFFFF" d="M16.175,16.867l-1.124-0.202c0.126-0.452,0.344-0.788,0.652-1.004c0.309-0.218,0.767-0.327,1.375-0.327
	c0.553,0,0.964,0.065,1.234,0.196c0.271,0.131,0.461,0.298,0.57,0.498c0.111,0.201,0.167,0.569,0.167,1.109l-0.013,1.445
	c0,0.41,0.02,0.714,0.058,0.909c0.041,0.196,0.115,0.405,0.224,0.628h-1.226c-0.032-0.083-0.072-0.205-0.119-0.366
	c-0.02-0.072-0.035-0.122-0.044-0.145c-0.211,0.205-0.438,0.359-0.679,0.462c-0.24,0.103-0.498,0.154-0.771,0.154
	c-0.482,0-0.862-0.13-1.14-0.392c-0.277-0.262-0.417-0.592-0.417-0.991c0-0.266,0.064-0.502,0.189-0.708
	c0.126-0.208,0.304-0.366,0.532-0.476c0.227-0.11,0.555-0.206,0.984-0.289c0.579-0.108,0.98-0.209,1.203-0.304v-0.122
	c0-0.24-0.059-0.409-0.176-0.511c-0.117-0.103-0.339-0.152-0.666-0.152c-0.22,0-0.392,0.044-0.516,0.131
	C16.351,16.498,16.252,16.65,16.175,16.867z M17.832,17.873c-0.159,0.052-0.41,0.116-0.754,0.188
	c-0.344,0.074-0.568,0.147-0.674,0.218c-0.161,0.114-0.243,0.259-0.243,0.436c0,0.174,0.064,0.324,0.194,0.451
	c0.13,0.124,0.293,0.188,0.494,0.188c0.223,0,0.436-0.075,0.639-0.221c0.15-0.11,0.248-0.248,0.295-0.408
	c0.032-0.105,0.048-0.309,0.048-0.605V17.873z"/>
<path fill="#FFFFFF" d="M20.155,20.429l1.415,0.171c0.023,0.165,0.078,0.278,0.163,0.34c0.118,0.088,0.302,0.133,0.556,0.133
	c0.323,0,0.565-0.05,0.728-0.146c0.108-0.065,0.191-0.17,0.247-0.313c0.037-0.102,0.058-0.292,0.058-0.567v-0.684
	c-0.371,0.506-0.837,0.758-1.402,0.758c-0.628,0-1.126-0.266-1.494-0.797c-0.288-0.421-0.432-0.945-0.432-1.568
	c0-0.787,0.188-1.386,0.565-1.798c0.378-0.417,0.847-0.623,1.409-0.623c0.579,0,1.055,0.254,1.432,0.764v-0.658h1.159v4.201
	c0,0.553-0.045,0.964-0.136,1.237c-0.091,0.273-0.219,0.488-0.384,0.644c-0.165,0.156-0.384,0.276-0.658,0.365
	c-0.274,0.088-0.622,0.134-1.042,0.134c-0.792,0-1.355-0.138-1.688-0.409c-0.332-0.271-0.498-0.615-0.498-1.033
	C20.15,20.538,20.152,20.486,20.155,20.429z M21.261,17.685c0,0.495,0.096,0.857,0.289,1.089c0.192,0.23,0.429,0.345,0.711,0.345
	c0.302,0,0.558-0.117,0.767-0.354s0.313-0.587,0.313-1.051c0-0.484-0.1-0.845-0.3-1.08c-0.2-0.234-0.452-0.353-0.758-0.353
	c-0.297,0-0.541,0.116-0.733,0.347C21.357,16.858,21.261,17.209,21.261,17.685z"/>
<path fill="#FFFFFF" d="M28.493,18.631l1.233,0.206c-0.159,0.452-0.409,0.799-0.751,1.035c-0.342,0.236-0.771,0.354-1.284,0.354
	c-0.813,0-1.417-0.266-1.807-0.797c-0.309-0.427-0.463-0.964-0.463-1.615c0-0.774,0.203-1.381,0.608-1.819
	c0.405-0.439,0.918-0.66,1.538-0.66c0.696,0,1.246,0.229,1.649,0.688c0.402,0.461,0.595,1.166,0.577,2.114H26.69
	c0.009,0.367,0.108,0.652,0.3,0.856c0.191,0.205,0.429,0.307,0.714,0.307c0.193,0,0.356-0.052,0.489-0.158
	C28.326,19.036,28.425,18.864,28.493,18.631z M28.563,17.379c-0.009-0.357-0.102-0.631-0.277-0.818
	c-0.177-0.187-0.391-0.279-0.644-0.279c-0.271,0-0.494,0.099-0.67,0.296s-0.263,0.464-0.26,0.802H28.563z"/>
<path fill="#52CAF5" d="M49.91,4.38v18.748h18.746V4.38H49.91z M66.783,21.252H51.785V6.255h14.998V21.252z"/>
<rect x="53.392" y="8.335" fill="#52CAF5" width="5.703" height="4.713"/>
<rect x="59.613" y="8.335" fill="#52CAF5" width="5.703" height="4.713"/>
<rect x="53.392" y="14.858" fill="#52CAF5" width="5.703" height="4.714"/>
<rect x="59.613" y="14.858" fill="#52CAF5" width="5.703" height="4.714"/>
</svg>
