<?xml version="1.0" encoding="utf-8"?>
<svg version="1.1"
	 xmlns="http://www.w3.org/2000/svg" xmlns:xlink="http://www.w3.org/1999/xlink"
	 x="0px" y="0px" width="74px" height="33px" viewBox="0 0 74 33">
<defs>
</defs>
<rect x="2.188" fill="#C8691C" width="69.809" height="33.113"/>
<rect x="2.188" fill="#F79523" width="69.809" height="16.756"/>
<path fill="#56CAF5" d="M46.523,4.945v21.16h21.159V4.945H46.523z M65.567,23.986h-16.93V7.061h16.93V23.986z"/>
<path fill="#56CAF5" d="M60.397,15.498l0.367,2.42l3.646-5.1l-4.955-3.518l0.336,2.199c-3.074,0.135-6.086,1.461-8.26,3.967
	c-2.285,2.641-3.16,6.016-2.709,9.221c0.393-1.865,1.246-3.66,2.582-5.203C53.75,16.777,57.075,15.436,60.397,15.498z"/>
<path fill="#FFFFFF" d="M9.6,10.859l-1.245-0.225c0.14-0.5,0.381-0.871,0.723-1.113c0.342-0.24,0.85-0.361,1.523-0.361
	c0.612,0,1.068,0.072,1.367,0.217c0.299,0.146,0.51,0.33,0.632,0.553s0.183,0.633,0.183,1.229l-0.015,1.602
	c0,0.455,0.022,0.791,0.066,1.008s0.126,0.449,0.247,0.695h-1.357c-0.036-0.09-0.08-0.227-0.132-0.404
	c-0.023-0.082-0.039-0.135-0.049-0.162c-0.234,0.229-0.485,0.398-0.752,0.514c-0.267,0.113-0.552,0.17-0.854,0.17
	c-0.534,0-0.955-0.145-1.262-0.434c-0.308-0.291-0.461-0.656-0.461-1.1c0-0.293,0.07-0.555,0.21-0.783
	c0.14-0.23,0.336-0.406,0.588-0.527c0.252-0.123,0.616-0.229,1.091-0.32c0.641-0.119,1.085-0.232,1.333-0.336v-0.137
	c0-0.264-0.065-0.453-0.195-0.564c-0.13-0.113-0.376-0.168-0.737-0.168c-0.244,0-0.435,0.047-0.571,0.143
	C9.795,10.451,9.685,10.619,9.6,10.859z M11.436,11.973c-0.176,0.059-0.454,0.129-0.835,0.211c-0.381,0.08-0.63,0.16-0.747,0.238
	c-0.179,0.127-0.269,0.289-0.269,0.484c0,0.191,0.072,0.357,0.215,0.498c0.143,0.139,0.326,0.209,0.547,0.209
	c0.248,0,0.483-0.08,0.708-0.244c0.166-0.123,0.275-0.275,0.327-0.453c0.036-0.117,0.054-0.34,0.054-0.67V11.973z"/>
<path fill="#FFFFFF" d="M18.892,14.463h-1.274v-0.762c-0.211,0.297-0.461,0.518-0.75,0.662s-0.579,0.217-0.872,0.217
	c-0.596,0-1.106-0.24-1.531-0.721c-0.425-0.479-0.637-1.148-0.637-2.008c0-0.879,0.207-1.547,0.62-2.006
	c0.414-0.457,0.936-0.686,1.567-0.686c0.58,0,1.081,0.242,1.504,0.723V7.305h1.372V14.463z M15.23,11.758
	c0,0.555,0.077,0.955,0.229,1.201c0.221,0.359,0.531,0.537,0.928,0.537c0.316,0,0.584-0.135,0.806-0.402
	c0.221-0.27,0.332-0.67,0.332-1.203c0-0.596-0.107-1.025-0.322-1.287s-0.49-0.393-0.825-0.393c-0.326,0-0.598,0.129-0.818,0.387
	C15.34,10.857,15.23,11.244,15.23,11.758z"/>
<path fill="#FFFFFF" d="M25,14.463h-1.274v-0.762c-0.211,0.297-0.461,0.518-0.75,0.662s-0.579,0.217-0.872,0.217
	c-0.596,0-1.106-0.24-1.531-0.721c-0.425-0.479-0.637-1.148-0.637-2.008c0-0.879,0.207-1.547,0.62-2.006
	c0.414-0.457,0.936-0.686,1.567-0.686c0.58,0,1.081,0.242,1.504,0.723V7.305H25V14.463z M21.338,11.758
	c0,0.555,0.077,0.955,0.229,1.201c0.221,0.359,0.531,0.537,0.928,0.537c0.316,0,0.584-0.135,0.806-0.402
	c0.221-0.27,0.332-0.67,0.332-1.203c0-0.596-0.107-1.025-0.322-1.287s-0.49-0.393-0.825-0.393c-0.326,0-0.598,0.129-0.818,0.387
	C21.448,10.857,21.338,11.244,21.338,11.758z"/>
<path fill="#FFFFFF" d="M8.575,23.463v-7.158h1.372v7.158H8.575z"/>
<path fill="#FFFFFF" d="M11.353,17.574v-1.27h1.372v1.27H11.353z M11.353,23.463v-5.186h1.372v5.186H11.353z"/>
<path fill="#FFFFFF" d="M18.848,23.463h-1.372v-2.646c0-0.559-0.029-0.922-0.088-1.086s-0.154-0.293-0.286-0.383
	c-0.132-0.092-0.291-0.137-0.476-0.137c-0.238,0-0.451,0.064-0.64,0.195c-0.189,0.129-0.318,0.303-0.388,0.518
	s-0.105,0.611-0.105,1.191v2.348h-1.372v-5.186h1.274v0.762c0.453-0.586,1.022-0.879,1.709-0.879c0.303,0,0.58,0.055,0.83,0.164
	s0.44,0.248,0.569,0.418c0.128,0.168,0.218,0.361,0.269,0.576s0.076,0.521,0.076,0.922V23.463z"/>
<path fill="#FFFFFF" d="M20.191,23.463v-7.158h1.372v3.799l1.606-1.826h1.689l-1.772,1.895l1.899,3.291h-1.479l-1.304-2.328
	l-0.64,0.668v1.66H20.191z"/>
</svg>
