<?xml version="1.0" encoding="utf-8"?>
<!DOCTYPE svg PUBLIC "-//W3C//DTD SVG 1.1//EN" "http://www.w3.org/Graphics/SVG/1.1/DTD/svg11.dtd" [
	<!ENTITY ns_flows "http://ns.adobe.com/Flows/1.0/">
]>
<svg version="1.1"
	 xmlns="http://www.w3.org/2000/svg" xmlns:xlink="http://www.w3.org/1999/xlink"
	 x="0px" y="0px" width="87px" height="33px" viewBox="0 0 87 33">
<defs>
</defs>
<rect display="none" fill="#FFF200" width="2" height="33"/>
<rect x="85.284" display="none" fill="#FFF200" width="2" height="33"/>
<rect x="2.188" fill="#C8691C" width="83.085" height="33.113"/>
<rect x="2.188" fill="#F79523" width="83.085" height="16.756"/>
<path display="none" fill="#FFFFFF" d="M8.72,10.922l-1.259-0.227c0.141-0.508,0.385-0.881,0.73-1.127
	c0.346-0.244,0.859-0.365,1.54-0.365c0.619,0,1.079,0.074,1.382,0.219c0.303,0.146,0.515,0.332,0.64,0.561
	c0.123,0.225,0.185,0.637,0.185,1.24l-0.015,1.619c0,0.461,0.021,0.801,0.067,1.02c0.043,0.219,0.127,0.453,0.249,0.703h-1.372
	c-0.037-0.094-0.081-0.229-0.133-0.41c-0.023-0.082-0.04-0.137-0.05-0.162c-0.237,0.23-0.49,0.402-0.76,0.518
	s-0.558,0.174-0.864,0.174c-0.54,0-0.965-0.146-1.275-0.439c-0.312-0.293-0.467-0.662-0.467-1.111c0-0.297,0.071-0.561,0.212-0.791
	c0.141-0.234,0.339-0.412,0.594-0.533c0.255-0.125,0.623-0.232,1.104-0.324c0.649-0.123,1.098-0.234,1.348-0.34v-0.139
	c0-0.268-0.066-0.457-0.197-0.57c-0.131-0.115-0.38-0.172-0.746-0.172c-0.247,0-0.439,0.049-0.578,0.146
	C8.917,10.506,8.806,10.678,8.72,10.922z M10.576,12.047c-0.178,0.059-0.459,0.131-0.844,0.211
	c-0.385,0.084-0.637,0.164-0.755,0.244c-0.181,0.127-0.271,0.289-0.271,0.486c0,0.195,0.072,0.363,0.217,0.506
	c0.146,0.141,0.329,0.211,0.553,0.211c0.25,0,0.489-0.082,0.716-0.246c0.167-0.125,0.278-0.279,0.331-0.459
	c0.037-0.117,0.054-0.346,0.054-0.676V12.047z"/>
<path display="none" fill="#FFFFFF" d="M18.113,14.564h-1.288v-0.77c-0.214,0.299-0.467,0.523-0.757,0.668
	c-0.292,0.146-0.585,0.221-0.882,0.221c-0.602,0-1.119-0.244-1.547-0.729c-0.431-0.486-0.645-1.164-0.645-2.033
	c0-0.889,0.209-1.563,0.627-2.025c0.417-0.461,0.946-0.693,1.584-0.693c0.585,0,1.093,0.244,1.52,0.73V7.328h1.387V14.564z
	 M14.411,11.83c0,0.559,0.077,0.963,0.232,1.215c0.224,0.361,0.536,0.543,0.938,0.543c0.319,0,0.59-0.137,0.814-0.408
	s0.336-0.676,0.336-1.217c0-0.602-0.109-1.035-0.326-1.301c-0.217-0.264-0.496-0.398-0.834-0.398c-0.329,0-0.605,0.133-0.826,0.393
	C14.522,10.92,14.411,11.311,14.411,11.83z"/>
<path display="none" fill="#FFFFFF" d="M24.289,14.564H23v-0.77c-0.214,0.299-0.466,0.523-0.758,0.668
	c-0.291,0.146-0.584,0.221-0.881,0.221c-0.602,0-1.118-0.244-1.548-0.729c-0.429-0.486-0.644-1.164-0.644-2.033
	c0-0.889,0.209-1.563,0.627-2.025c0.417-0.461,0.945-0.693,1.584-0.693c0.585,0,1.093,0.244,1.52,0.73V7.328h1.387V14.564z
	 M20.586,11.83c0,0.559,0.077,0.963,0.232,1.215c0.224,0.361,0.536,0.543,0.938,0.543c0.319,0,0.59-0.137,0.814-0.408
	s0.335-0.676,0.335-1.217c0-0.602-0.108-1.035-0.326-1.301c-0.217-0.264-0.496-0.398-0.834-0.398c-0.329,0-0.604,0.133-0.828,0.393
	C20.698,10.92,20.586,11.311,20.586,11.83z"/>
<path display="none" fill="#FFFFFF" d="M7.683,23.652v-7.236H9.07v7.236H7.683z"/>
<path display="none" fill="#FFFFFF" d="M10.492,17.699v-1.283h1.387v1.283H10.492z M10.492,23.652V18.41h1.387v5.242H10.492z"/>
<path display="none" fill="#FFFFFF" d="M18.069,23.652h-1.387v-2.676c0-0.566-0.029-0.932-0.089-1.098
	c-0.059-0.166-0.156-0.297-0.288-0.389c-0.134-0.092-0.294-0.139-0.482-0.139c-0.24,0-0.456,0.066-0.646,0.197
	c-0.19,0.133-0.322,0.309-0.392,0.525c-0.071,0.217-0.106,0.617-0.106,1.205v2.373h-1.387V18.41h1.289v0.77
	c0.457-0.592,1.034-0.889,1.728-0.889c0.306,0,0.585,0.055,0.839,0.166c0.253,0.111,0.445,0.25,0.574,0.42
	c0.13,0.172,0.221,0.367,0.273,0.586c0.05,0.217,0.076,0.525,0.076,0.932V23.652z"/>
<path display="none" fill="#FFFFFF" d="M19.426,23.652v-7.236h1.387v3.84l1.624-1.846h1.708l-1.792,1.914l1.92,3.328h-1.496
	l-1.318-2.354l-0.646,0.674v1.68H19.426z"/>
<path fill="#56CAF5" d="M58.523,4.945v21.16h21.159V4.945H58.523z M77.567,23.986h-16.93V7.061h16.93V23.986z"/>
<path fill="#56CAF5" d="M72.397,15.498l0.367,2.42l3.646-5.1l-4.954-3.518l0.336,2.199c-3.075,0.135-6.086,1.461-8.26,3.967
	c-2.286,2.641-3.161,6.016-2.709,9.221c0.393-1.865,1.246-3.66,2.581-5.203C65.75,16.777,69.074,15.436,72.397,15.498z"/>
<path fill="#FFFFFF" d="M9.6,10.859l-1.245-0.225c0.14-0.5,0.381-0.871,0.723-1.113c0.342-0.24,0.85-0.361,1.523-0.361
	c0.612,0,1.068,0.072,1.367,0.217c0.299,0.146,0.51,0.33,0.632,0.553s0.183,0.633,0.183,1.229l-0.015,1.602
	c0,0.455,0.022,0.791,0.066,1.008s0.126,0.449,0.247,0.695h-1.357c-0.036-0.09-0.08-0.227-0.132-0.404
	c-0.023-0.082-0.039-0.135-0.049-0.162c-0.234,0.229-0.485,0.398-0.752,0.514c-0.267,0.113-0.552,0.17-0.854,0.17
	c-0.534,0-0.955-0.145-1.262-0.434c-0.308-0.291-0.461-0.656-0.461-1.1c0-0.293,0.07-0.555,0.21-0.783
	c0.14-0.23,0.336-0.406,0.588-0.527c0.252-0.123,0.616-0.229,1.091-0.32c0.641-0.119,1.085-0.232,1.333-0.336v-0.137
	c0-0.264-0.065-0.453-0.195-0.564c-0.13-0.113-0.376-0.168-0.737-0.168c-0.244,0-0.435,0.047-0.571,0.143
	C9.795,10.451,9.685,10.619,9.6,10.859z M11.436,11.973c-0.176,0.059-0.454,0.129-0.835,0.211c-0.381,0.08-0.63,0.16-0.747,0.238
	c-0.179,0.127-0.269,0.289-0.269,0.484c0,0.191,0.072,0.357,0.215,0.498c0.143,0.139,0.326,0.209,0.547,0.209
	c0.248,0,0.483-0.08,0.708-0.244c0.166-0.123,0.275-0.275,0.327-0.453c0.036-0.117,0.054-0.34,0.054-0.67V11.973z"/>
<path fill="#FFFFFF" d="M18.892,14.463h-1.274v-0.762c-0.211,0.297-0.461,0.518-0.75,0.662s-0.579,0.217-0.872,0.217
	c-0.596,0-1.106-0.24-1.531-0.721c-0.425-0.479-0.637-1.148-0.637-2.008c0-0.879,0.207-1.547,0.62-2.006
	c0.414-0.457,0.936-0.686,1.567-0.686c0.58,0,1.081,0.242,1.504,0.723V7.305h1.372V14.463z M15.23,11.758
	c0,0.555,0.077,0.955,0.229,1.201c0.221,0.359,0.531,0.537,0.928,0.537c0.316,0,0.584-0.135,0.806-0.402
	c0.221-0.27,0.332-0.67,0.332-1.203c0-0.596-0.107-1.025-0.322-1.287s-0.49-0.393-0.825-0.393c-0.326,0-0.598,0.129-0.818,0.387
	C15.34,10.857,15.23,11.244,15.23,11.758z"/>
<path fill="#FFFFFF" d="M25,14.463h-1.274v-0.762c-0.211,0.297-0.461,0.518-0.75,0.662s-0.579,0.217-0.872,0.217
	c-0.596,0-1.106-0.24-1.531-0.721c-0.425-0.479-0.637-1.148-0.637-2.008c0-0.879,0.207-1.547,0.62-2.006
	c0.414-0.457,0.936-0.686,1.567-0.686c0.58,0,1.081,0.242,1.504,0.723V7.305H25V14.463z M21.338,11.758
	c0,0.555,0.077,0.955,0.229,1.201c0.221,0.359,0.531,0.537,0.928,0.537c0.316,0,0.584-0.135,0.806-0.402
	c0.221-0.27,0.332-0.67,0.332-1.203c0-0.596-0.107-1.025-0.322-1.287s-0.49-0.393-0.825-0.393c-0.326,0-0.598,0.129-0.818,0.387
	C21.448,10.857,21.338,11.244,21.338,11.758z"/>
<path fill="#FFFFFF" d="M8.575,23.463v-7.158h1.372v7.158H8.575z"/>
<path fill="#FFFFFF" d="M11.353,17.574v-1.27h1.372v1.27H11.353z M11.353,23.463v-5.186h1.372v5.186H11.353z"/>
<path fill="#FFFFFF" d="M18.848,23.463h-1.372v-2.646c0-0.559-0.029-0.922-0.088-1.086s-0.154-0.293-0.286-0.383
	c-0.132-0.092-0.291-0.137-0.476-0.137c-0.238,0-0.451,0.064-0.64,0.195c-0.189,0.129-0.318,0.303-0.388,0.518
	s-0.105,0.611-0.105,1.191v2.348h-1.372v-5.186h1.274v0.762c0.453-0.586,1.022-0.879,1.709-0.879c0.303,0,0.58,0.055,0.83,0.164
	s0.44,0.248,0.569,0.418c0.128,0.168,0.218,0.361,0.269,0.576s0.076,0.521,0.076,0.922V23.463z"/>
<path fill="#FFFFFF" d="M20.191,23.463v-7.158h1.372v3.799l1.606-1.826h1.689l-1.772,1.895l1.899,3.291h-1.479l-1.304-2.328
	l-0.64,0.668v1.66H20.191z"/>
</svg>
