<?xml version="1.0" encoding="utf-8"?>
<!-- Generator: Adobe Illustrator 15.0.0, SVG Export Plug-In  -->
<!DOCTYPE svg PUBLIC "-//W3C//DTD SVG 1.1//EN" "http://www.w3.org/Graphics/SVG/1.1/DTD/svg11.dtd" [
	<!ENTITY ns_flows "http://ns.adobe.com/Flows/1.0/">
]>
<svg version="1.1"
	 xmlns="http://www.w3.org/2000/svg" xmlns:xlink="http://www.w3.org/1999/xlink" xmlns:a="http://ns.adobe.com/AdobeSVGViewerExtensions/3.0/"
	 x="0px" y="0px" width="87px" height="33px" viewBox="0 0 87 33" enable-background="new 0 0 87 33" xml:space="preserve">
<defs>
</defs>
<rect display="none" fill="#FFF200" width="2" height="33"/>
<rect x="85.284" display="none" fill="#FFF200" width="2" height="33"/>
<rect x="2.188" fill="#C8691C" width="83.085" height="33.113"/>
<rect x="2.188" fill="#F79523" width="83.085" height="16.756"/>
<path fill="#FFFFFF" d="M8.72,10.922l-1.259-0.227c0.141-0.508,0.385-0.881,0.73-1.127c0.346-0.244,0.859-0.365,1.54-0.365
	c0.619,0,1.079,0.074,1.382,0.219c0.303,0.146,0.515,0.332,0.64,0.561c0.123,0.225,0.185,0.637,0.185,1.24l-0.015,1.619
	c0,0.461,0.021,0.801,0.067,1.02c0.043,0.219,0.127,0.453,0.249,0.703h-1.372c-0.037-0.094-0.081-0.229-0.133-0.41
	c-0.023-0.082-0.04-0.137-0.05-0.162c-0.237,0.23-0.49,0.402-0.76,0.518s-0.558,0.174-0.864,0.174c-0.54,0-0.965-0.146-1.275-0.439
	c-0.312-0.293-0.467-0.662-0.467-1.111c0-0.297,0.071-0.561,0.212-0.791c0.141-0.234,0.339-0.412,0.594-0.533
	c0.255-0.125,0.623-0.232,1.104-0.324c0.649-0.123,1.098-0.234,1.348-0.34v-0.139c0-0.268-0.066-0.457-0.197-0.57
	c-0.131-0.115-0.38-0.172-0.746-0.172c-0.247,0-0.439,0.049-0.578,0.146C8.917,10.506,8.806,10.678,8.72,10.922z M10.576,12.047
	c-0.178,0.059-0.459,0.131-0.844,0.211c-0.385,0.084-0.637,0.164-0.755,0.244c-0.181,0.127-0.271,0.289-0.271,0.486
	c0,0.195,0.072,0.363,0.217,0.506c0.146,0.141,0.329,0.211,0.553,0.211c0.25,0,0.489-0.082,0.716-0.246
	c0.167-0.125,0.278-0.279,0.331-0.459c0.037-0.117,0.054-0.346,0.054-0.676V12.047z"/>
<path fill="#FFFFFF" d="M18.113,14.564h-1.288v-0.77c-0.214,0.299-0.467,0.523-0.757,0.668c-0.292,0.146-0.585,0.221-0.882,0.221
	c-0.602,0-1.119-0.244-1.547-0.729c-0.431-0.486-0.645-1.164-0.645-2.033c0-0.889,0.209-1.563,0.627-2.025
	c0.417-0.461,0.946-0.693,1.584-0.693c0.585,0,1.093,0.244,1.52,0.73V7.328h1.387V14.564z M14.411,11.83
	c0,0.559,0.077,0.963,0.232,1.215c0.224,0.361,0.536,0.543,0.938,0.543c0.319,0,0.59-0.137,0.814-0.408s0.336-0.676,0.336-1.217
	c0-0.602-0.109-1.035-0.326-1.301c-0.217-0.264-0.496-0.398-0.834-0.398c-0.329,0-0.605,0.133-0.826,0.393
	C14.522,10.92,14.411,11.311,14.411,11.83z"/>
<path fill="#FFFFFF" d="M24.289,14.564H23v-0.77c-0.214,0.299-0.466,0.523-0.758,0.668c-0.291,0.146-0.584,0.221-0.881,0.221
	c-0.602,0-1.118-0.244-1.548-0.729c-0.429-0.486-0.644-1.164-0.644-2.033c0-0.889,0.209-1.563,0.627-2.025
	c0.417-0.461,0.945-0.693,1.584-0.693c0.585,0,1.093,0.244,1.52,0.73V7.328h1.387V14.564z M20.586,11.83
	c0,0.559,0.077,0.963,0.232,1.215c0.224,0.361,0.536,0.543,0.938,0.543c0.319,0,0.59-0.137,0.814-0.408s0.335-0.676,0.335-1.217
	c0-0.602-0.108-1.035-0.326-1.301c-0.217-0.264-0.496-0.398-0.834-0.398c-0.329,0-0.604,0.133-0.828,0.393
	C20.698,10.92,20.586,11.311,20.586,11.83z"/>
<path fill="#FFFFFF" d="M7.683,23.652v-7.236H9.07v7.236H7.683z"/>
<path fill="#FFFFFF" d="M10.492,17.699v-1.283h1.387v1.283H10.492z M10.492,23.652V18.41h1.387v5.242H10.492z"/>
<path fill="#FFFFFF" d="M18.069,23.652h-1.387v-2.676c0-0.566-0.029-0.932-0.089-1.098c-0.059-0.166-0.156-0.297-0.288-0.389
	c-0.134-0.092-0.294-0.139-0.482-0.139c-0.24,0-0.456,0.066-0.646,0.197c-0.19,0.133-0.322,0.309-0.392,0.525
	c-0.071,0.217-0.106,0.617-0.106,1.205v2.373h-1.387V18.41h1.289v0.77c0.457-0.592,1.034-0.889,1.728-0.889
	c0.306,0,0.585,0.055,0.839,0.166c0.253,0.111,0.445,0.25,0.574,0.42c0.13,0.172,0.221,0.367,0.273,0.586
	c0.05,0.217,0.076,0.525,0.076,0.932V23.652z"/>
<path fill="#FFFFFF" d="M19.426,23.652v-7.236h1.387v3.84l1.624-1.846h1.708l-1.792,1.914l1.92,3.328h-1.496l-1.318-2.354
	l-0.646,0.674v1.68H19.426z"/>
<path fill="#FFFFFF" d="M58.523,4.945v21.16h21.159V4.945H58.523z M77.567,23.986h-16.93V7.061h16.93V23.986z"/>
<path fill="#FFFFFF" d="M72.397,15.498l0.367,2.42l3.646-5.1l-4.954-3.518l0.336,2.199c-3.075,0.135-6.086,1.461-8.26,3.967
	c-2.286,2.641-3.161,6.016-2.709,9.221c0.393-1.865,1.246-3.66,2.581-5.203C65.75,16.777,69.074,15.436,72.397,15.498z"/>
</svg>
