<?xml version="1.0" encoding="utf-8"?>
<svg version="1.1"
	 xmlns="http://www.w3.org/2000/svg" xmlns:xlink="http://www.w3.org/1999/xlink"
	 x="0px" y="0px" width="186px" height="41px" viewBox="-2.167 -2.333 186 41">
<defs>
</defs>
<path fill="#BCBEC0" stroke="#F79523" stroke-miterlimit="10" d="M191.833,29.833c0,2.762-2.238,5-5,5H5.5c-2.761,0-5-2.238-5-5V5.5
	c0-2.761,2.239-5,5-5h181.333c2.762,0,5,2.239,5,5V29.833z"/>
<circle fill="#F79523" cx="168.349" cy="17.608" r="9.757"/>
<polygon fill="#D1D3D4" points="174.209,18.062 168.615,12.468 169.643,11.44 176.266,18.062 169.643,24.684 168.615,23.656 "/>
<polygon fill="#FFFFFF" points="176.104,17.9 169.643,11.44 168.615,12.468 174.048,17.9 "/>
<polygon fill="#D1D3D4" points="169.046,18.062 163.452,12.468 164.479,11.44 171.103,18.062 164.479,24.684 163.452,23.656 "/>
<polygon fill="#FFFFFF" points="170.94,17.9 164.479,11.44 163.452,12.468 168.885,17.9 "/>
</svg>
