<?xml version="1.0" encoding="utf-8"?>
<!DOCTYPE svg PUBLIC "-//W3C//DTD SVG 1.1//EN" "http://www.w3.org/Graphics/SVG/1.1/DTD/svg11.dtd" [
	<!ENTITY ns_flows "http://ns.adobe.com/Flows/1.0/">
]>
<svg version="1.1"
	 xmlns="http://www.w3.org/2000/svg" x="0px" y="0px" width="100px" height="100px" viewBox="-9.775 -8.031 100 100">
<defs>
</defs>
<polygon points="7.348,50.29 8.107,41.055 17.058,32.106 17.058,50.29 20.067,50.29 20.067,32.198 28.926,41.058 29.875,50.29 
	29.912,50.29 33.772,58.641 31.674,39.425 31.673,39.426 18.515,26.269 5.358,39.425 4.388,50.29 "/>
<polygon points="80.449,83.938 0,83.938 0,53.29 27.912,53.29 34.478,65.33 44.876,65.33 51.443,53.29 80.449,53.29 "/>
<polygon points="22.621,39.974 27.075,44.124 27.363,49.095 23,45.768 "/>
<polygon points="14.428,40.055 9.974,44.205 9.686,49.175 14.048,45.848 "/>
<polygon points="35.89,12.418 31.436,16.568 31.147,21.54 35.511,18.212 "/>
<polygon points="35.89,23.364 31.436,26.419 31.219,31.743 35.511,29.157 "/>
<polygon points="43.475,13.381 47.671,16.459 47.95,20.657 44.033,18.978 "/>
<polygon points="43.475,23.232 47.671,26.311 44.033,28.829 "/>
<polygon points="65.3,29.668 69.499,32.747 69.777,36.945 65.859,35.265 "/>
<polygon points="65.859,40.582 70.059,43.661 70.337,47.859 66.419,46.178 "/>
<polygon points="57.202,29.668 53.006,32.747 52.727,36.945 56.645,35.265 "/>
<polygon points="56.643,40.582 52.445,43.661 52.165,47.859 56.084,46.178 "/>
<polygon points="29.177,14.785 38.126,5.837 38.126,62.33 41.137,62.33 41.137,5.93 49.996,14.789 50.73,23.029 53.436,20.588 
	52.743,13.156 52.741,13.157 39.585,0 26.428,13.156 25.157,29.58 27.963,31.731 "/>
<polygon points="49.123,50.984 50.794,30.656 59.744,21.708 59.744,50.29 62.754,50.29 62.754,21.8 71.613,30.66 73.631,50.29 
	76.682,50.29 74.359,29.027 74.359,29.028 61.203,15.871 48.046,29.027 45.357,59.125 "/>
</svg>
