<?xml version="1.0" encoding="utf-8"?>
<!DOCTYPE svg PUBLIC "-//W3C//DTD SVG 1.1//EN" "http://www.w3.org/Graphics/SVG/1.1/DTD/svg11.dtd" [
	<!ENTITY ns_flows "http://ns.adobe.com/Flows/1.0/">
]>
<svg version="1.1"
	 xmlns="http://www.w3.org/2000/svg" x="0px" y="0px" width="100px" height="100px" viewBox="-8.938 -7.383 100 100">
<defs>
</defs>
<path d="M28.464,25.32l10.821,8.357l0.738-9.688h2.643l1.159,13.194l11.723,9.053V30.104h-0.001c0-6.898-4.972-9.628-11.524-10.828
	c4.262-1.061,7.422-4.9,7.422-9.488C51.445,4.382,47.064,0,41.658,0c-5.407,0-9.789,4.382-9.789,9.789
	c0,4.54,3.094,8.347,7.287,9.453C34.294,20.05,30.285,21.755,28.464,25.32z"/>
<polygon points="27.405,39.629 27.405,57.898 33.483,57.898 33.483,85.234 39.398,85.234 39.398,63.014 43.556,63.014 
	43.556,85.234 49.472,85.234 49.472,57.898 51.06,57.898 "/>
<path d="M82.125,34.148l-0.502-12.686l-12.186,3.642l3.52,2.261l3.006-0.98l-1.633,1.637L55.826,51.408l-34.702-26.6L0,49.666
	l2.929,2.726l18.677-22.229l34.941,26.778l20.919-26.438l1.328-1.835l0.064,3.219L82.125,34.148z M78.496,25.559l0.236-0.078
	l0.01,0.456L78.496,25.559z"/>
</svg>
