<?xml version="1.0" encoding="utf-8"?>
<!-- Generator: Adobe Illustrator 15.0.0, SVG Export Plug-In  -->
<!DOCTYPE svg PUBLIC "-//W3C//DTD SVG 1.1//EN" "http://www.w3.org/Graphics/SVG/1.1/DTD/svg11.dtd" [
	<!ENTITY ns_flows "http://ns.adobe.com/Flows/1.0/">
]>
<svg version="1.1"
	 xmlns="http://www.w3.org/2000/svg" xmlns:xlink="http://www.w3.org/1999/xlink" xmlns:a="http://ns.adobe.com/AdobeSVGViewerExtensions/3.0/"
	 x="0px" y="0px" width="100px" height="100px" viewBox="-5.005 -15.75 100 100"
	 xml:space="preserve">
<defs>
</defs>
<path d="M44.798,0c-7.861,0-14.234,6.373-14.234,14.234c0,7.861,6.373,14.234,14.234,14.234c7.863,0,14.234-6.373,14.234-14.234
	C59.032,6.373,52.661,0,44.798,0z M44.798,25.394c-6.164,0-11.16-4.997-11.16-11.16c0-6.164,4.996-11.16,11.16-11.16
	c6.164,0,11.16,4.996,11.16,11.16C55.958,20.397,50.961,25.394,44.798,25.394z"/>
<path d="M18.744,8.346c-5.543,0-10.038,4.495-10.038,10.039c0,5.544,4.494,10.039,10.038,10.039s10.039-4.495,10.039-10.039
	C28.783,12.84,24.288,8.346,18.744,8.346z M18.744,25.488c-3.923,0-7.102-3.18-7.102-7.103c0-3.923,3.179-7.103,7.102-7.103
	c3.923,0,7.103,3.179,7.103,7.103C25.847,22.308,22.667,25.488,18.744,25.488z"/>
<path d="M19.689,41.173H3.741c2.121-5.778,8.488-9.91,15.003-9.91c2.837,0,5.645,0.784,8.089,2.146
	c0.815-0.621,1.667-1.197,2.546-1.731c-3.04-2.048-6.693-3.255-10.635-3.255c-9.333,0-17.095,6.705-18.744,15.56h1.177h1.154h15.78
	C18.587,43.018,19.114,42.079,19.689,41.173z"/>
<path d="M61.206,18.385c0,5.544,4.494,10.039,10.039,10.039s10.037-4.495,10.037-10.039c0-5.544-4.492-10.039-10.037-10.039
	S61.206,12.84,61.206,18.385z M64.143,18.385c0-3.923,3.18-7.103,7.104-7.103c3.922,0,7.104,3.179,7.104,7.103
	c0,3.923-3.182,7.103-7.104,7.103C67.323,25.488,64.143,22.308,64.143,18.385z"/>
<path d="M70.299,41.173h15.949c-2.121-5.778-8.49-9.91-15.004-9.91c-2.838,0-5.645,0.784-8.09,2.146
	c-0.814-0.621-1.666-1.197-2.545-1.731c3.039-2.048,6.691-3.255,10.635-3.255c9.332,0,17.096,6.705,18.744,15.56h-1.178h-1.152
	H71.879C71.401,43.018,70.875,42.079,70.299,41.173z"/>
<path d="M44.798,28.468c-13.234,0-24.24,9.507-26.58,22.063h1.67h1.636h5.436c0.158-1.102,0.406-2.174,0.75-3.203h-5.242
	c3.339-9.107,12.065-15.614,22.33-15.614c10.265,0,18.992,6.507,22.33,15.614h-4.521c0.344,1.029,0.592,2.102,0.75,3.203h4.715
	h0.486h2.82C69.038,37.977,58.034,28.468,44.798,28.468z"/>
<path d="M45.158,37.822c-8.472,0-15.339,6.867-15.339,15.339S36.687,68.5,45.158,68.5c8.471,0,15.338-6.867,15.338-15.339
	S53.629,37.822,45.158,37.822z M45.588,40.545c1.672,0,3.027,1.355,3.027,3.028c0,1.672-1.355,3.028-3.027,3.028
	c-1.673,0-3.028-1.356-3.028-3.028C42.56,41.9,43.916,40.545,45.588,40.545z M32.655,53.516c0-1.672,1.356-3.027,3.028-3.027
	s3.028,1.355,3.028,3.027c0,1.673-1.355,3.028-3.028,3.028S32.655,55.188,32.655,53.516z M40.298,63.711
	c-2.21-1.045-4.013-2.805-5.119-4.979c0.203,0.024,0.403,0.063,0.613,0.063c0.584,0,1.137-0.118,1.66-0.299
	c0.781,1.238,1.849,2.281,3.125,3.01c-0.199,0.547-0.325,1.131-0.325,1.745C40.252,63.41,40.284,63.559,40.298,63.711z
	 M37.486,48.748c-0.554-0.203-1.147-0.331-1.772-0.331c-0.175,0-0.341,0.034-0.511,0.054c1.115-2.087,2.885-3.759,5.025-4.779
	c-0.003,0.078-0.023,0.154-0.023,0.236c0,0.686,0.14,1.336,0.382,1.936C39.339,46.564,38.272,47.557,37.486,48.748z M45.579,65.775
	c-1.684,0-3.049-1.364-3.049-3.049c0-1.684,1.365-3.049,3.049-3.049s3.049,1.365,3.049,3.049
	C48.627,64.411,47.262,65.775,45.579,65.775z M50.516,44.102c1.779,1.029,3.254,2.529,4.23,4.344
	c-0.76,0.041-1.469,0.246-2.104,0.578c-0.68-1.11-1.604-2.051-2.682-2.778C50.29,45.596,50.491,44.873,50.516,44.102z M50.53,63.268
	c0-0.012,0.002-0.021,0.002-0.033c0-0.768-0.178-1.49-0.48-2.146c1.098-0.751,2.01-1.748,2.68-2.9
	c0.635,0.317,1.34,0.508,2.092,0.539C53.848,60.617,52.364,62.203,50.53,63.268z M54.612,56.479c-1.684,0-3.049-1.365-3.049-3.049
	s1.365-3.049,3.049-3.049s3.049,1.365,3.049,3.049S56.295,56.479,54.612,56.479z"/>
</svg>
