<?xml version="1.0" encoding="utf-8"?>
<!DOCTYPE svg PUBLIC "-//W3C//DTD SVG 1.1//EN" "http://www.w3.org/Graphics/SVG/1.1/DTD/svg11.dtd" [
	<!ENTITY ns_flows "http://ns.adobe.com/Flows/1.0/">
]>
<svg version="1.1"
	 xmlns="http://www.w3.org/2000/svg" x="0px" y="0px" width="100px" height="100px" viewBox="-6.893 -6.891 100 100">
<defs>
</defs>
<path d="M42.458,7.278c-10.406,0-18.841,8.435-18.841,18.841c0,10.406,8.435,18.841,18.841,18.841
	c10.407,0,18.841-8.436,18.841-18.841C61.299,15.713,52.865,7.278,42.458,7.278z M42.458,40.89c-8.159,0-14.771-6.614-14.771-14.771
	c0-8.158,6.613-14.771,14.771-14.771s14.769,6.613,14.769,14.771C57.227,34.276,50.616,40.89,42.458,40.89z"/>
<path d="M36.354,69.921h-22.58c1.38,1.527,2.879,2.943,4.479,4.24h16.619L36.354,69.921z"/>
<path d="M42.458,49.257c2.957,0,5.81,0.43,8.522,1.191l3.25-3.481c-3.689-1.286-7.644-2.007-11.772-2.007
	c-14.231,0-26.515,8.305-32.284,20.332c0.916,1.373,1.918,2.682,2.993,3.928C17.772,57.537,29.136,49.257,42.458,49.257z"/>
<path d="M66.893,60.917c2.175,2.678,3.936,5.705,5.145,9.004H58.644l-3.885,4.24h13.546c2.67-2.164,5.051-4.668,7.082-7.447
	c-1.402-3.285-3.288-6.311-5.556-9.004L66.893,60.917z"/>
<path d="M74.998,39.018c-2.279-2.17-5.893-2.089-8.063,0.192L40.885,66.521L41,66.632l-4.266,12.492l12.278-4.854l0.13,0.123
	l26.045-27.311C77.364,44.803,77.279,41.193,74.998,39.018z"/>
<path d="M43.107,0C19.3,0,0,19.3,0,43.108c0,19.69,13.207,36.286,31.24,41.442l1.425-4.076C16.313,75.912,4.309,60.917,4.309,43.109
	c0-21.426,17.372-38.798,38.798-38.798c21.43,0,38.8,17.372,38.8,38.798c0,21.428-17.37,38.799-38.8,38.799
	c-1.25,0-2.485-0.064-3.705-0.182l-7.516,3.008c3.579,0.963,7.338,1.484,11.221,1.484c23.808,0,43.108-19.301,43.108-43.11
	C86.215,19.3,66.915,0,43.107,0z"/>
</svg>
