<?xml version="1.0" encoding="utf-8"?>
<!-- Generator: Adobe Illustrator 15.0.0, SVG Export Plug-In  -->
<!DOCTYPE svg PUBLIC "-//W3C//DTD SVG 1.1//EN" "http://www.w3.org/Graphics/SVG/1.1/DTD/svg11.dtd" [
	<!ENTITY ns_flows "http://ns.adobe.com/Flows/1.0/">
]>
<svg version="1.1"
	 xmlns="http://www.w3.org/2000/svg" x="0px" y="0px" width="100px" height="100px" viewBox="-7.289 -5.567 100 100">
<defs>
</defs>
<path d="M59.713,7.54c0,0-8.516-1.896-17.285-2.164V0h-4.224v5.383C29.442,5.675,21.655,7.54,21.655,7.54
	c-4.21,1.144-7.685,3.733-7.685,8.34v0.199c0,4.282,2.972,7.804,6.8,8.28c-1.059,2.568-1.66,5.371-1.66,8.322
	c0,12.168,9.864,22.033,22.033,22.033c12.167,0,22.031-9.865,22.031-22.033c0-3.013-0.624-5.873-1.723-8.484
	c3.405-0.856,5.948-4.161,5.948-8.118V15.88C67.398,11.273,64.103,8.684,59.713,7.54z M41.142,49.954
	c-9.54,0-17.274-7.733-17.274-17.273c0-3.457,1.035-6.66,2.787-9.357c3.366-0.596,8.142-1.196,13.479-1.101
	c6.223,0.111,12.096,0.896,15.759,1.497c1.596,2.612,2.521,5.675,2.521,8.961C58.415,42.222,50.681,49.954,41.142,49.954z
	 M58.799,20.15c0,0-9.15-2.256-18.666-2.195c-9.516,0.061-17.565,2.195-17.565,2.195c-2.122,0-3.842-1.867-3.842-4.17
	c0-2.304,1.72-4.17,3.842-4.17c0,0,7.868-2.18,17.565-2.195c9.697-0.016,18.666,2.195,18.666,2.195c2.121,0,3.841,1.866,3.841,4.17
	C62.64,18.283,60.92,20.15,58.799,20.15z"/>
<path d="M65.17,83.908H6.552c5.166-14.102,18.697-24.17,34.59-24.17c10.016,0,19.09,4.001,25.727,10.487l0.751-6.059
	c-7.213-5.904-16.428-9.453-26.478-9.453C20.658,54.714,3.622,69.43,0,88.865h2.584h2.533h59.438L65.17,83.908z"/>
<path d="M85.103,51.088c-1.539-5.703-4.985-15.096-4.985-15.096c0.618,5.44-5.086,7.257-7.052,11.235
	c-1.963,3.989,0.164,12.089,0.164,12.089l-1.103,9.832c0,0,0.082-0.041,0.198-0.094l-1.983,19.674h7.816l2.356-17.141
	c0.101,0.142,0.152,0.227,0.152,0.227l1.544-10.494v-0.001C82.219,61.312,86.625,56.802,85.103,51.088z"/>
</svg>
