<?xml version="1.0" encoding="utf-8"?>
<!-- Generator: Adobe Illustrator 16.0.0, SVG Export Plug-In . SVG Version: 6.00 Build 0)  -->
<!DOCTYPE svg PUBLIC "-//W3C//DTD SVG 1.1//EN" "http://www.w3.org/Graphics/SVG/1.1/DTD/svg11.dtd">
<svg version="1.1" id="Layer_1" xmlns="http://www.w3.org/2000/svg" xmlns:xlink="http://www.w3.org/1999/xlink" x="0px" y="0px"
	 width="100px" height="100px" viewBox="0 0 100 100">
<path d="M50.934,6.667c-8.417,0-15.239,6.822-15.239,15.237c0,8.416,6.822,15.238,15.239,15.238c8.416,0,15.237-6.822,15.237-15.238
	C66.171,13.489,59.35,6.667,50.934,6.667z M50.934,33.852c-6.6,0-11.948-5.349-11.948-11.947c0-6.598,5.349-11.946,11.948-11.946
	s11.945,5.348,11.945,11.945C62.879,28.503,57.531,33.852,50.934,33.852z"/>
<path d="M81.667,91.833c0,0.828-0.672,1.5-1.5,1.5H19.833c-0.828,0-1.5-0.672-1.5-1.5l0,0c0-0.828,0.672-1.5,1.5-1.5h60.334
	C80.995,90.333,81.667,91.005,81.667,91.833L81.667,91.833z"/>
<path d="M37.98,44.167c3.796-2.248,8.22-3.55,12.954-3.55c4.731,0,9.154,1.302,12.951,3.55h5.939
	c-5.069-4.375-11.67-7.024-18.893-7.024S37.11,39.792,32.04,44.167H37.98z"/>
<path d="M77.715,50.912h-55.43c-1.945,0-3.52,1.577-3.52,3.521v30.38c0,1.943,1.576,3.52,3.52,3.52h55.428
	c1.945,0,3.521-1.578,3.521-3.52h0.002v-30.38C81.235,52.486,79.658,50.912,77.715,50.912z M36.763,70.658l6.629,6.629
	c0.389,0.389,0.389,1.024,0,1.414l-0.163,0.163c-0.39,0.389-1.026,0.389-1.415,0l-8.206-8.206c-0.389-0.39-0.389-1.025,0-1.414
	l8.206-8.206c0.389-0.389,1.025-0.389,1.414,0l0.164,0.164c0.389,0.389,0.389,1.025,0,1.414l-6.629,6.628
	C36.374,69.633,36.374,70.269,36.763,70.658z M53.4,58.586l-4.596,22.28c-0.126,0.609-0.721,1-1.329,0.875
	c-0.608-0.126-1-0.721-0.875-1.329l4.595-22.28c0.128-0.609,0.722-1,1.33-0.875C53.132,57.383,53.525,57.978,53.4,58.586z
	 M66.393,70.658l-8.207,8.206c-0.391,0.389-1.025,0.389-1.414,0l-0.164-0.163c-0.391-0.39-0.391-1.025,0-1.414l6.629-6.629
	c0.389-0.39,0.389-1.025,0-1.414l-6.629-6.628c-0.391-0.389-0.391-1.025,0-1.414l0.164-0.164c0.389-0.389,1.023-0.389,1.414,0
	l8.207,8.206C66.781,69.633,66.781,70.269,66.393,70.658z"/>
</svg>
