<?xml version="1.0" encoding="utf-8"?>
<!DOCTYPE svg PUBLIC "-//W3C//DTD SVG 1.1//EN" "http://www.w3.org/Graphics/SVG/1.1/DTD/svg11.dtd" [
	<!ENTITY ns_flows "http://ns.adobe.com/Flows/1.0/">
]>
<svg version="1.1"
	 xmlns="http://www.w3.org/2000/svg" x="0px" y="0px" width="48px" height="48px" viewBox="-1.364 -7.821 48 48">
<defs>
</defs>
<path d="M31.968,0c-3.936,0-7.125,3.19-7.125,7.125s3.189,7.125,7.125,7.125c3.935,0,7.124-3.19,7.124-7.125S35.902,0,31.968,0z
	 M31.968,12.711c-3.086,0-5.586-2.501-5.586-5.586s2.5-5.585,5.586-5.585c3.085,0,5.587,2.5,5.587,5.585
	S35.053,12.711,31.968,12.711z"/>
<path d="M31.968,14.25c-3.053,0-5.862,1.02-8.126,2.726c0.237,0.229,0.458,0.469,0.663,0.693c0.148,0.166,0.299,0.33,0.448,0.482
	c0.143-0.146,0.288-0.306,0.438-0.47c0.755-0.823,1.693-1.85,3.043-1.85c0.5,0,0.987,0.085,1.457,0.23
	c0.675-0.119,1.368-0.187,2.078-0.187c5.139,0,9.516,3.256,11.184,7.815h-9.182c-0.022,0.082-0.033,0.166-0.06,0.247
	c-0.09,0.387-0.317,0.852-0.626,1.356h10.331h0.243h1.412C44.102,19.008,38.592,14.25,31.968,14.25z"/>
<path d="M32.359,22.414c0-2.343-1.897-4.741-4.241-4.741c-1.254,0-2.089,1.727-3.157,2.414c-1.065-0.648-1.901-2.414-3.156-2.414
	c-2.343,0-4.242,2.398-4.242,4.741c0,0.64,0.145,1.241,0.398,1.786c-0.004,0.025-0.012,0.05-0.004,0.076
	c0.46,1.423,6.95,7.829,6.95,7.829s6.834-6.242,7.225-8.325C32.277,23.351,32.359,22.892,32.359,22.414z"/>
<path d="M21.33,30.754H2.118c1.671-4.561,6.046-7.815,11.186-7.815c0.868,0,1.71,0.101,2.525,0.277
	c-0.067-0.353-0.106-0.709-0.106-1.07c0-0.205,0.011-0.408,0.03-0.609c-0.794-0.146-1.613-0.223-2.449-0.223
	c-6.623,0-12.133,4.76-13.304,11.044h0.836h0.819h21.241C22.425,31.882,21.89,31.336,21.33,30.754z"/>
<path d="M16.853,18.504c-0.965,0.794-2.201,1.272-3.548,1.272c-3.085,0-5.586-2.502-5.586-5.587c0-3.084,2.501-5.585,5.586-5.585
	c3.085,0,5.585,2.5,5.585,5.585c0,1.11-0.327,2.142-0.885,3.011c0.642-0.554,1.383-0.964,2.179-1.184
	c0.155-0.584,0.246-1.195,0.246-1.829c0-3.934-3.19-7.124-7.125-7.124s-7.125,3.19-7.125,7.124c0,3.936,3.19,7.125,7.125,7.125
	c0.904,0,1.765-0.176,2.56-0.482C16.042,19.987,16.386,19.198,16.853,18.504z"/>
</svg>
