<?xml version="1.0" encoding="utf-8"?>
<!-- Generator: Adobe Illustrator 15.0.0, SVG Export Plug-In  -->
<!DOCTYPE svg PUBLIC "-//W3C//DTD SVG 1.1//EN" "http://www.w3.org/Graphics/SVG/1.1/DTD/svg11.dtd" [
	<!ENTITY ns_flows "http://ns.adobe.com/Flows/1.0/">
]>
<svg version="1.1"
	 xmlns="http://www.w3.org/2000/svg" x="0px" y="0px" width="100px" height="100px" viewBox="-6.928 -7.383 100 100">
<defs>
</defs>
<rect x="52.705" y="48.542" width="4.064" height="16.998"/>
<rect x="50.793" y="57.404" transform="matrix(-0.3419 -0.9397 0.9397 -0.3419 27.1319 137.869)" width="22.097" height="4.061"/>
<rect x="45.259" y="48.387" transform="matrix(-0.9396 -0.3422 0.3422 -0.9396 71.3875 131.4669)" width="4.064" height="22.099"/>
<path d="M78.635,0.783H30.333c-1.122,0-2.183,0.253-3.138,0.694c1.043,1.755,1.627,3.797,1.653,5.987
	c0.098,8.245-4.024,12.185-4.024,12.185c3.643,1.369,5.004,3.34,6.634,7.269v-2.953h10.627v19.351h-8.313v7.035h44.862
	c4.147,0,7.509-3.363,7.509-7.51h0.002V8.291C86.145,4.145,82.781,0.783,78.635,0.783z M59.686,43.316H49.055V17.971h10.631V43.316z
	 M77.279,43.316H66.65V11.975h10.629V43.316z"/>
<path d="M28.142,33.104c0-6.898-4.97-12.628-11.524-13.828c4.26-1.061,7.422-4.9,7.422-9.488C24.04,4.382,19.658,0,14.252,0
	C8.846,0,4.464,4.382,4.464,9.789c0,4.54,3.094,8.347,7.287,9.453C5.085,20.35,0,26.126,0,33.104v24.792h6.078v27.338h5.916V63.014
	h4.157v22.221h5.916V57.898h6.076L28.142,33.104L28.142,33.104z"/>
</svg>
