<?xml version="1.0" encoding="utf-8"?>
<!-- Generator: Adobe Illustrator 15.0.0, SVG Export Plug-In  -->
<!DOCTYPE svg PUBLIC "-//W3C//DTD SVG 1.1//EN" "http://www.w3.org/Graphics/SVG/1.1/DTD/svg11.dtd" [
	<!ENTITY ns_flows "http://ns.adobe.com/Flows/1.0/">
]>
<svg version="1.1"
	 xmlns="http://www.w3.org/2000/svg" x="0px" y="0px" width="100px" height="100px" viewBox="-24.424 -3.591 100 100">
<defs>
</defs>
<path d="M38.604,20.992c4.641-1.155,8.082-5.336,8.082-10.333C46.686,4.772,41.914,0,36.027,0S25.368,4.772,25.368,10.659
	c0,4.944,3.37,9.089,7.935,10.294c-7.258,1.207-12.795,4.23-12.795,11.83v3.816c5.944,2.557,10.109,8.463,10.109,15.344
	c0,4.271-1.615,8.153-4.252,11.106h0.762v29.769h6.439V68.62h4.529v24.196h6.441V63.049h6.615V32.783
	C51.152,25.271,45.74,22.298,38.604,20.992z M35.338,46.395l-2.386-3.279l1.297-16.993h2.877l1.491,16.993L35.338,46.395z"/>
<path d="M14.875,53.871v3.865c1.217-0.187,1.825-0.795,1.825-1.823C16.7,55.079,16.092,54.398,14.875,53.871z"/>
<path d="M11.238,47.362c0,0.877,0.592,1.607,1.774,2.195v-4.045C11.83,45.724,11.238,46.341,11.238,47.362z"/>
<path d="M13.917,38.027C6.231,38.027,0,44.258,0,51.943c0,7.688,6.231,13.918,13.917,13.918s13.917-6.23,13.917-13.918
	C27.834,44.258,21.603,38.027,13.917,38.027z M18.741,59.148c-0.901,0.863-2.19,1.389-3.866,1.574v2.771h-1.863V60.8
	c-1.727-0.009-3.335-0.399-4.824-1.175v-3.534c0.493,0.399,1.229,0.771,2.208,1.11s1.851,0.535,2.616,0.586v-4.645
	c-1.991-0.74-3.35-1.539-4.077-2.403c-0.728-0.863-1.091-1.918-1.091-3.16c0-1.336,0.472-2.472,1.416-3.413
	c0.944-0.94,2.195-1.486,3.752-1.64v-2.374h1.863v2.322c1.795,0.085,3.135,0.375,4.02,0.868v3.445
	c-1.191-0.724-2.531-1.166-4.02-1.327v4.836c1.863,0.672,3.199,1.442,4.007,2.306c0.809,0.864,1.212,1.906,1.212,3.131
	C20.094,57.145,19.643,58.286,18.741,59.148z"/>
</svg>
