<?xml version="1.0" encoding="utf-8"?>
<!-- Generator: Adobe Illustrator 15.0.0, SVG Export Plug-In  -->
<!DOCTYPE svg PUBLIC "-//W3C//DTD SVG 1.1//EN" "http://www.w3.org/Graphics/SVG/1.1/DTD/svg11.dtd" [
	<!ENTITY ns_flows "http://ns.adobe.com/Flows/1.0/">
]>
<svg version="1.1"
	 xmlns="http://www.w3.org/2000/svg" x="0px" y="0px" width="100px" height="100px" viewBox="-7.837 -6.534 100 100"
	 xml:space="preserve">
<defs>
</defs>
<polygon points="64.038,34.836 66.436,37.633 64.178,41.02 62.626,38.847 "/>
<path d="M42.164,6.774c-12.472,0-22.581,10.109-22.581,22.58s10.109,22.58,22.581,22.58c12.47,0,22.578-10.107,22.578-22.58
	C64.742,16.883,54.633,6.774,42.164,6.774z M42.164,47.056c-9.778,0-17.704-7.925-17.704-17.703S32.385,11.65,42.164,11.65
	c9.775,0,17.701,7.925,17.701,17.703S51.939,47.056,42.164,47.056z"/>
<path d="M42.164,51.934C21.17,51.934,3.711,67.016,0,86.932h2.648h2.596H79.08h0.771h4.475
	C80.615,67.016,63.156,51.934,42.164,51.934z M6.714,81.852C12.008,67.4,25.875,57.081,42.163,57.081
	c16.287,0,30.151,10.317,35.446,24.771H6.714z"/>
<path d="M70.85,23.185C68.018,9.937,56.256,0,42.164,0C28.093,0,16.35,9.902,13.489,23.114c-2.606,1.067-4.444,3.626-4.444,6.616
	c0,3.949,3.202,7.15,7.151,7.15c0.652,0,1.281-0.095,1.881-0.258v-8.528C18.739,15.338,29.243,5.189,42.164,5.189
	c12.283,0,22.4,9.17,23.934,21.037v10.396c0.602,0.164,1.23,0.258,1.883,0.258c3.949,0,7.149-3.201,7.149-7.15
	C75.129,26.803,73.369,24.291,70.85,23.185z"/>
<path d="M66.436,37.633H49.106c-0.637-1.331-1.982-2.258-3.558-2.258h-3.764c-2.182,0-3.951,1.771-3.951,3.952
	c0,2.183,1.769,3.952,3.951,3.952h3.764c1.575,0,2.923-0.926,3.558-2.258h15.071L66.436,37.633z"/>
</svg>
