<?xml version="1.0" encoding="utf-8"?>
<!-- Generator: Adobe Illustrator 15.0.0, SVG Export Plug-In  -->
<!DOCTYPE svg PUBLIC "-//W3C//DTD SVG 1.1//EN" "http://www.w3.org/Graphics/SVG/1.1/DTD/svg11.dtd" [
	<!ENTITY ns_flows "http://ns.adobe.com/Flows/1.0/">
]>
<svg version="1.1"
	 xmlns="http://www.w3.org/2000/svg" x="0px" y="0px" width="100px" height="100px" viewBox="-16.216 -7.315 100 100"
	 xml:space="preserve">
<defs>
</defs>
<path d="M33.784,21.141c-9.993,0-18.093,8.101-18.093,18.093c0,9.994,8.1,18.092,18.093,18.092c9.992,0,18.093-8.099,18.093-18.092
	C51.877,29.241,43.776,21.141,33.784,21.141z M33.784,53.418c-7.834,0-14.185-6.351-14.185-14.185
	c0-7.834,6.351-14.185,14.185-14.185s14.185,6.351,14.185,14.185C47.969,47.067,41.618,53.418,33.784,53.418z"/>
<path d="M4.202,85.369c2.911-13.667,15.046-23.918,29.582-23.918c14.535,0,26.67,10.251,29.581,23.918h4.203
	c-2.975-15.958-16.963-28.044-33.784-28.044S2.974,69.411,0,85.369H4.202z"/>
<rect x="2.122" y="81.298" width="61.86" height="4.071"/>
<path d="M50.149,5.695c-1.264,0-2.282,1.02-2.282,2.282c0,0.16,0.063,0.303,0.09,0.46l-7.45,3.497l-5.304-8.26
	c0.304-0.392,0.517-0.855,0.517-1.394c0-1.261-1.013-2.28-2.277-2.28c-1.256,0-2.274,1.019-2.274,2.279
	c0,0.564,0.228,1.062,0.564,1.453l-6.506,8.579l-8.693-4.17c0.129-0.283,0.208-0.597,0.208-0.929c0-1.255-1.016-2.273-2.278-2.273
	c-1.255,0-2.277,1.018-2.277,2.273c0,1.26,1.021,2.278,2.277,2.278c0.261,0,0.499-0.067,0.734-0.143l3.853,14.731
	c0,0,3.627-5.941,14.715-6.144c10.321-0.194,13.906,5.498,13.906,5.498l2.149-13.246c0.109,0.013,0.21,0.07,0.326,0.07
	c1.257,0,2.276-1.021,2.276-2.28C52.426,6.714,51.406,5.695,50.149,5.695z"/>
</svg>
