<?xml version="1.0" encoding="utf-8"?>
<svg version="1.1"
	 xmlns="http://www.w3.org/2000/svg" xmlns:xlink="http://www.w3.org/1999/xlink" x="0px" y="0px" width="16px" height="16px" viewBox="-0.746 -0.747 16 16">
<defs>
</defs>
<path d="M13.585,0H0.923C0.413,0,0,0.413,0,0.922v12.662c0,0.51,0.413,0.924,0.923,0.924h12.662c0.509,0,0.923-0.414,0.923-0.924
	V0.922C14.508,0.413,14.094,0,13.585,0z M12.576,10.5l-0.085-0.494c-0.389-2.262-1.492-5.441-2.554-5.529H9.937
	c-0.498,0-0.761,1.605-0.918,2.565c-0.282,1.729-0.574,3.517-2.067,3.517c-1.425,0-1.929-1.184-2.262-1.969
	C4.362,7.822,4.204,7.532,3.828,7.52c0,0,0,0-0.001,0c-0.972,0-1.947,1.718-2.271,2.552l-0.182,0.467L0.122,10.05l0.183-0.465
	c0.137-0.35,1.396-3.407,3.489-3.407c1.348,0.043,1.8,1.109,2.13,1.887C6.271,8.884,6.462,9.218,6.95,9.218
	c0.353,0,0.627-1.678,0.744-2.394c0.294-1.795,0.624-3.84,2.356-3.685c2.515,0.21,3.575,5.565,3.762,6.636l0.086,0.492L12.576,10.5z
	"/>
</svg>
