<?xml version="1.0" encoding="utf-8"?>
<svg version="1.1"
	 xmlns="http://www.w3.org/2000/svg" xmlns:xlink="http://www.w3.org/1999/xlink" x="0px" y="0px" width="16px" height="16px" viewBox="-0.746 -0.747 16 16">
<defs>
</defs>
<path d="M13.585,0H0.923C0.413,0,0,0.413,0,0.922v12.662c0,0.51,0.413,0.924,0.923,0.924h12.662c0.509,0,0.923-0.414,0.923-0.924
	V0.922C14.508,0.413,14.094,0,13.585,0z M11.818,6.083l0.199,0.244c0.603,0.745,1.076,1.333,0.973,2.606
	c-0.11,1.332-0.633,2.332-1.51,2.893c-0.529,0.338-1.176,0.496-1.862,0.461v0.938c-0.128,0-0.271,0.006-0.42,0.014
	c-0.171,0.01-0.358,0.018-0.554,0.018c-0.627,0-1.33-0.096-1.733-0.627c-1.433-0.086-2.358-0.188-3.653-1.084
	c-1.167-0.811-1.073-1.6-0.989-2.293c0.046-0.387,0.09-0.75-0.048-1.198C2.112,7.701,1.969,7.385,1.831,7.08
	c-0.41-0.904-0.833-1.839,0.075-3.141c0.872-1.251,2.07-2.672,3.425-2.612c1.026,0.051,1.447,0.646,1.785,1.124
	c0.18,0.254,0.35,0.494,0.607,0.678c0.498,0.353,0.787,0.223,1.56-0.277C9.396,2.778,9.512,2.704,9.63,2.631
	c0.093-0.056,0.19-0.124,0.294-0.194c0.631-0.428,1.686-1.145,2.641-0.261c0.92,0.852,0.428,2.458-0.265,3.242
	c-0.233,0.264-0.427,0.435-0.571,0.555C11.755,6.006,11.786,6.042,11.818,6.083z"/>
<path d="M11.007,5.27c0.132-0.106,0.313-0.251,0.544-0.513c0.413-0.469,0.729-1.483,0.335-1.847
	c-0.321-0.298-0.676-0.137-1.397,0.354c-0.118,0.08-0.23,0.156-0.336,0.221C10.039,3.552,9.932,3.622,9.826,3.69
	c-0.71,0.46-1.594,1.032-2.684,0.253C6.746,3.662,6.508,3.325,6.299,3.028C5.991,2.593,5.821,2.353,5.281,2.326
	C5.267,2.325,5.252,2.325,5.237,2.325c-0.988,0-2.132,1.641-2.511,2.186c-0.583,0.836-0.37,1.305,0.016,2.157
	C2.886,6.986,3.049,7.346,3.176,7.76c0.2,0.651,0.136,1.183,0.084,1.61c-0.073,0.607-0.106,0.885,0.566,1.352
	c1.141,0.791,1.897,0.836,3.403,0.924l0.302,0.018l0.125,0.275c0.152,0.338,0.77,0.334,1.49,0.299c0.004,0,0.006,0,0.008,0
	c-0.327-0.051-0.665-0.139-1.01-0.264L7.91,11.886l-0.072-0.238c-0.313-1.049,0.781-1.818,1.747-2.5
	c0.39-0.271,1.112-0.781,1.142-0.996c-0.004,0-0.039-0.063-0.188-0.16c-0.368-0.242-0.764,0.17-1.367,1.006
	C9.082,9.121,9,9.234,8.927,9.326c-0.935,1.174-2.163,1.5-3.65,0.975l-0.305-0.107L4.945,9.871C4.804,8.15,5.964,7.578,6.895,7.117
	C7.154,6.989,7.42,6.858,7.673,6.699c0.479-0.302,0.683-0.71,0.67-0.982C8.34,5.646,8.32,5.554,8.25,5.519
	C8.125,5.453,7.814,5.49,7.349,5.8c-0.17,0.113-0.392,0.309-0.643,0.528c-0.859,0.75-1.927,1.684-2.893,1.427
	C3.347,7.63,3.005,7.261,2.798,6.659c-0.446-1.298,0.43-2.611,2.404-3.602L5.65,3.95C4.951,4.301,3.366,5.236,3.744,6.333
	c0.063,0.185,0.172,0.414,0.328,0.455C4.517,6.91,5.514,6.041,6.049,5.575C6.34,5.322,6.598,5.099,6.796,4.968
	c0.972-0.646,1.611-0.49,1.906-0.341C9.082,4.819,9.32,5.21,9.343,5.671c0.032,0.695-0.403,1.414-1.137,1.875
	C7.924,7.723,7.628,7.871,7.338,8.013c-0.88,0.435-1.356,0.705-1.401,1.443c0.916,0.232,1.609-0.002,2.208-0.754
	c0.064-0.08,0.137-0.182,0.215-0.291c0.486-0.672,1.494-2.067,2.73-1.255c0.416,0.274,0.631,0.604,0.637,0.98
	c0.01,0.72-0.756,1.259-1.565,1.829c-0.479,0.338-1.163,0.818-1.333,1.178c0.833,0.236,1.572,0.182,2.115-0.164
	c0.604-0.385,0.967-1.121,1.051-2.131c0.07-0.873-0.188-1.193-0.753-1.895l-0.194-0.237c-0.301-0.366-0.467-0.567-0.436-0.872
	C10.641,5.563,10.835,5.407,11.007,5.27z"/>
</svg>
