<?xml version="1.0" encoding="utf-8"?>
<svg version="1.1"
	 xmlns="http://www.w3.org/2000/svg" xmlns:xlink="http://www.w3.org/1999/xlink" x="0px" y="0px" width="16px" height="16px" viewBox="-1.01 -1.01 16 16">
<defs>
</defs>
<path d="M13.092,0H0.889C0.398,0,0,0.399,0,0.889v12.203c0,0.49,0.398,0.889,0.889,0.889h12.202c0.491,0,0.89-0.398,0.89-0.889
	V0.889C13.98,0.399,13.582,0,13.092,0z M12.557,7.575H1.424c-0.324,0-0.586-0.261-0.586-0.585c0-0.323,0.262-0.585,0.586-0.585
	h11.133c0.323,0,0.586,0.262,0.586,0.585C13.143,7.314,12.88,7.575,12.557,7.575z"/>
</svg>
