<?xml version="1.0" encoding="utf-8"?>
<svg version="1.1"
	 xmlns="http://www.w3.org/2000/svg" xmlns:xlink="http://www.w3.org/1999/xlink"
	 x="0px" y="0px" width="48px" height="48px" viewBox="-2.1 -7 48 48">
<defs>
</defs>
<path fill="#52CAF5" d="M17.1,0L0,12.4l17.1,17.2l10.7-9L17.1,0z M17.8,25.1L6,12.4l9.2-5.2l9.3,12.1L17.8,25.1z"/>
<path fill="#F79523" d="M34.7,8.4l-18.6,7.1l7.4,15.1l18-4.7L34.7,8.4z M25.8,26.7L20,16.8l12.3-2.2l2.7,8.5L25.8,26.7z"/>
<polygon fill="#52CAF5" points="23.6,12.6 25.3,15.8 22.3,16.4 20.4,13.9 "/>
<polygon fill="#FCB51E" points="26.6,24.6 25.8,26.7 34.9,23.1 34.3,21.5 "/>
<polygon fill="#C8691C" points="22.3,16.4 26.6,24.6 25.8,26.7 20,16.8 "/>
<polygon fill="#3588A6" points="16.4,8.9 10.1,13.3 6,12.4 15.3,7.2 "/>
<polygon fill="#84D5F7" points="19.3,23.8 10.1,13.3 6,12.4 17.8,25.1 "/>
<polygon fill="#84D5F7" points="17.1,0 20.5,0.6 28.4,18.9 27.8,20.7 "/>
<polygon fill="#FCB51E" points="34.7,8.4 38.1,9.9 42.7,25.8 41.5,25.8 "/>
</svg>
