<?xml version="1.0" encoding="utf-8"?>
<!-- Generator: Adobe Illustrator 15.0.0, SVG Export Plug-In  -->
<!DOCTYPE svg PUBLIC "-//W3C//DTD SVG 1.1//EN" "http://www.w3.org/Graphics/SVG/1.1/DTD/svg11.dtd" [
	<!ENTITY ns_flows "http://ns.adobe.com/Flows/1.0/">
]>
<svg version="1.1"
	 xmlns="http://www.w3.org/2000/svg" xmlns:xlink="http://www.w3.org/1999/xlink" xmlns:a="http://ns.adobe.com/AdobeSVGViewerExtensions/3.0/"
	 x="0px" y="0px" width="150px" height="160px" viewBox="-8.128 -10.929 150 160" enable-background="new -8.128 -10.929 150 160"
	 xml:space="preserve">
<defs>
</defs>
<rect x="1.348" y="55.998" fill="#F79523" width="12.582" height="81.962"/>
<rect x="120.204" y="55.998" fill="#F79523" width="12.584" height="81.962"/>
<path fill="#F79523" d="M87.832,59.168c0,8.918-8.865,16.146-19.8,16.146l0,0c-10.934,0-19.799-7.228-19.799-16.146V38.66
	c0-8.917,8.865-16.15,19.799-16.15l0,0c10.935,0,19.8,7.232,19.8,16.15V59.168z"/>
<path fill="#FCB51E" d="M58.456,24.529c-6.093,2.754-10.223,8.048-10.223,14.131v20.508c0,7.026,5.515,12.987,13.196,15.206
	c6.096-2.751,10.225-8.042,10.225-14.127V39.739C71.654,32.713,66.141,26.75,58.456,24.529z"/>
<polygon fill="#C8691C" points="12.839,62.517 69.252,48.768 122.186,63.663 122.186,77.985 12.839,77.985 "/>
<rect x="13.885" y="75.48" fill="#C8691C" width="6.304" height="52.709"/>
<rect x="47.405" y="75.12" fill="#C8691C" width="6.302" height="52.71"/>
<polygon fill="#E67922" points="71.225,49.323 69.252,48.768 12.839,62.517 12.839,77.985 71.515,77.985 "/>
<path fill="#F79523" d="M70.038,22.002c0,1.492-0.897,2.702-2.006,2.702l0,0c-1.106,0-2.005-1.21-2.005-2.702V2.704
	C66.027,1.21,66.926,0,68.032,0l0,0c1.108,0,2.006,1.21,2.006,2.704V22.002z"/>
<rect x="114.441" y="75.12" fill="#C8691C" width="6.303" height="52.71"/>
<rect x="80.922" y="75.12" fill="#C8691C" width="6.303" height="52.71"/>
<path fill="#C8691C" d="M132.788,138.143c-0.834-6.76-6.959-12.031-14.479-12.031H15.829c-7.522,0-13.651,5.271-14.481,12.031
	H132.788z"/>
<rect x="26.884" y="90.771" fill="#F79523" width="13.178" height="32.083"/>
<rect x="61.048" y="91.132" fill="#F79523" width="13.178" height="32.081"/>
<rect x="93.71" y="91.132" fill="#F79523" width="13.177" height="32.081"/>
<rect x="68.784" y="2.359" fill="#84D5F7" width="8.022" height="8.931"/>
<rect x="76.736" y="4.558" fill="#52CAF5" width="8.021" height="8.931"/>
<polygon fill="#F79523" points="68.072,56.942 54.648,61.659 54.648,71.585 81.814,71.585 81.814,61.137 "/>
<rect y="54.561" fill="#F79523" width="14.738" height="2.875"/>
<rect x="119.006" y="54.561" fill="#F79523" width="14.738" height="2.875"/>
</svg>
