<?xml version="1.0" encoding="utf-8"?>
<svg version="1.1"
	 xmlns="http://www.w3.org/2000/svg" xmlns:xlink="http://www.w3.org/1999/xlink"
	 x="0px" y="0px" width="48px" height="48px" viewBox="0 0 48 48">
<defs>
</defs>
<rect x="3.13" y="20.045" fill="#F79523" width="4.855" height="24.792"/>
<rect x="40.133" y="20.045" fill="#F79523" width="4.855" height="24.792"/>
<path fill="#F79523" d="M30.34,21.004c0,2.698-2.682,4.884-5.989,4.884l0,0c-3.307,0-5.988-2.187-5.988-4.884v-6.203
	c0-2.697,2.682-4.885,5.988-4.885l0,0c3.308,0,5.989,2.188,5.989,4.885V21.004z"/>
<path fill="#FCB51E" d="M21.454,10.527c-1.843,0.833-3.092,2.434-3.092,4.274v6.203c0,2.125,1.667,3.929,3.992,4.599
	c1.844-0.832,3.093-2.432,3.093-4.272v-6.203C25.447,13.002,23.778,11.199,21.454,10.527z"/>
<polygon fill="#C8691C" points="7.656,22.018 24.72,17.858 40.731,22.364 40.731,26.696 7.656,26.696 "/>
<rect x="7.972" y="25.938" fill="#C8691C" width="1.907" height="15.945"/>
<rect x="18.111" y="25.829" fill="#C8691C" width="1.906" height="15.945"/>
<polygon fill="#E67922" points="25.316,18.026 24.72,17.858 7.656,22.018 7.656,26.696 25.404,26.696 "/>
<path fill="#F79523" d="M24.958,9.762c0,0.451-0.271,0.817-0.607,0.817l0,0c-0.334,0-0.606-0.366-0.606-0.817V3.925
	c0-0.452,0.272-0.818,0.606-0.818l0,0c0.335,0,0.607,0.366,0.607,0.818V9.762z"/>
<rect x="38.39" y="25.829" fill="#C8691C" width="1.906" height="15.945"/>
<rect x="28.25" y="25.829" fill="#C8691C" width="1.906" height="15.945"/>
<path fill="#C8691C" d="M44.988,44.894c-0.252-2.045-3.154-3.641-5.429-3.641H8.561c-2.275,0-5.179,1.596-5.43,3.641H44.988z"/>
<rect x="11.904" y="30.564" fill="#F79523" width="3.986" height="9.704"/>
<rect x="22.238" y="30.673" fill="#F79523" width="3.986" height="9.705"/>
<rect x="32.118" y="30.673" fill="#F79523" width="3.985" height="9.705"/>
<rect x="24.578" y="3.821" fill="#84D5F7" width="2.428" height="2.701"/>
<rect x="26.983" y="4.486" fill="#52CAF5" width="2.427" height="2.701"/>
<polygon fill="#F79523" points="24.363,20.331 20.302,21.758 20.302,24.76 28.52,24.76 28.52,21.6 "/>
<rect x="2.722" y="19.611" fill="#F79523" width="5.508" height="0.87"/>
<rect x="39.77" y="19.611" fill="#F79523" width="5.509" height="0.87"/>
</svg>
