<?xml version="1.0" encoding="utf-8"?>
<!-- Generator: Adobe Illustrator 15.0.0, SVG Export Plug-In  -->
<!DOCTYPE svg PUBLIC "-//W3C//DTD SVG 1.1//EN" "http://www.w3.org/Graphics/SVG/1.1/DTD/svg11.dtd" [
	<!ENTITY ns_flows "http://ns.adobe.com/Flows/1.0/">
]>
<svg version="1.1"
	 xmlns="http://www.w3.org/2000/svg" xmlns:xlink="http://www.w3.org/1999/xlink" xmlns:a="http://ns.adobe.com/AdobeSVGViewerExtensions/3.0/"
	 x="0px" y="0px" width="150px" height="160px" viewBox="-8.09 -15.08 150 160" enable-background="new -8.09 -15.08 150 160"
	 xml:space="preserve">
<defs>
</defs>
<path fill="#F79523" d="M133.82,126.991c0,1.578-1.279,2.85-2.851,2.85H2.851c-1.575,0-2.851-1.271-2.851-2.85V2.847
	C0,1.274,1.275,0,2.851,0H130.97c1.571,0,2.851,1.274,2.851,2.847V126.991z"/>
<path fill="#FCB51E" d="M0,8.738v118.253c0,1.578,1.275,2.85,2.851,2.85h72.572C80.182,72.024,34.417,18.964,0,8.738z"/>
<rect x="35.896" y="17.035" fill="#52CAF5" width="66.603" height="8.121"/>
<rect x="13.972" y="66.003" fill="#A75812" width="64.766" height="4.196"/>
<path fill="#C8691C" d="M61.29,65.883l-47.318,0.121V70.2l49.489-0.082C62.586,68.534,62.108,67.249,61.29,65.883z"/>
<rect x="13.972" y="46.929" fill="#A75812" width="64.766" height="4.19"/>
<path fill="#C8691C" d="M13.972,46.929v4.19l38.251-0.004c-0.818-1.473-2.223-3.363-2.986-4.182L13.972,46.929z"/>
<rect x="13.972" y="104.163" fill="#A75812" width="64.766" height="4.191"/>
<path fill="#C8691C" d="M73.683,104.167l-59.71-0.004v4.191l60.504,0.014C74.314,107.198,73.954,105.04,73.683,104.167z"/>
<rect x="13.972" y="85.096" fill="#A75812" width="64.766" height="4.193"/>
<path fill="#C8691C" d="M13.972,85.096v4.193L70.9,89.284c-0.244-0.953-1.032-3.221-1.467-4.234L13.972,85.096z"/>
<path fill="#A75812" d="M95.657,39.496v24.589h24.589V39.496H95.657z M115.031,58.873h-14.157V44.709h14.157V58.873z"/>
<polygon fill="#FFFFFF" points="98.929,46.225 107.478,60.476 130.443,37.509 127.287,34.867 108.38,52.944 102.242,43.379 "/>
<path fill="#A75812" d="M95.657,77.719v24.588h24.589V77.719H95.657z M115.031,97.094h-14.157V82.932h14.157V97.094z"/>
<polygon fill="#FFFFFF" points="98.929,84.448 107.478,98.696 130.443,75.731 127.287,73.09 108.38,91.167 102.242,81.6 "/>
</svg>
