<?xml version="1.0" encoding="utf-8"?>
<svg version="1.1"
	 xmlns="http://www.w3.org/2000/svg" xmlns:xlink="http://www.w3.org/1999/xlink"
	 x="0px" y="0px" width="48px" height="48px" viewBox="0 0 48 48">
<defs>
</defs>
<path fill="#F79523" d="M45.255,44.467c0,0.501-0.405,0.905-0.905,0.905H3.686c-0.5,0-0.904-0.404-0.904-0.905L2.745,3.532
	c0-0.499,0.405-0.904,0.904-0.904h40.664c0.5,0,0.906,0.405,0.906,0.904L45.255,44.467z"/>
<path fill="#FCB51E" d="M2.745,5.401l0.037,39.065c0,0.501,0.405,0.905,0.904,0.905h23.035C28.23,27.021,13.668,8.647,2.745,5.401z"
	/>
<rect x="14.175" y="8.518" fill="#52CAF5" width="21.139" height="2.577"/>
<rect x="7.216" y="24.061" fill="#A75812" width="20.557" height="1.331"/>
<path fill="#C8691C" d="M22.235,24.022L7.216,24.061v1.331l15.708-0.024C22.646,24.863,22.494,24.456,22.235,24.022z"/>
<rect x="7.216" y="18.006" fill="#A75812" width="20.557" height="1.33"/>
<path fill="#C8691C" d="M7.216,18.006v1.33l12.141-0.001c-0.259-0.468-0.705-1.067-0.947-1.327L7.216,18.006z"/>
<rect x="7.216" y="36.173" fill="#A75812" width="20.557" height="1.329"/>
<path fill="#C8691C" d="M26.168,36.174L7.216,36.173v1.329l19.204,0.005C26.368,37.135,26.254,36.449,26.168,36.174z"/>
<rect x="7.216" y="30.12" fill="#A75812" width="20.557" height="1.332"/>
<path fill="#C8691C" d="M7.216,30.12v1.332l18.069-0.003c-0.078-0.303-0.328-1.021-0.465-1.344L7.216,30.12z"/>
<path fill="#A75812" d="M33.143,15.647v7.804h7.804v-7.804H33.143z M39.292,21.797h-4.493v-4.495h4.493V21.797z"/>
<polygon fill="#FFFFFF" points="34.181,17.783 36.895,22.306 44.183,15.017 43.182,14.178 37.181,19.916 35.232,16.88 "/>
<path fill="#A75812" d="M33.143,27.778v7.805h7.804v-7.805H33.143z M39.292,33.929h-4.493v-4.495h4.493V33.929z"/>
<polygon fill="#FFFFFF" points="34.181,29.915 36.895,34.438 44.183,27.147 43.182,26.311 37.181,32.047 35.232,29.011 "/>
</svg>
