<?xml version="1.0" encoding="utf-8"?>
<svg version="1.1"
	 xmlns="http://www.w3.org/2000/svg" xmlns:xlink="http://www.w3.org/1999/xlink"
	 x="0px" y="0px" width="48px" height="48px" viewBox="0 0 48 48">
<defs>
</defs>
<polygon fill="#F79523" points="6.592,40.88 6.571,2.746 2.676,2.746 2.676,45.254 45.174,45.254 45.196,40.88 "/>
<rect x="10.135" y="18.746" fill="#F79523" width="7.614" height="19.3"/>
<rect x="20.759" y="10.601" fill="#F79523" width="7.613" height="27.445"/>
<rect x="31.384" y="18.746" fill="#F79523" width="7.613" height="19.3"/>
<path fill="#C8691C" d="M37.044,40.88H6.592V23.468c-1.351,0.401-2.653,0.916-3.895,1.534L2.676,45.254h34.963
	C37.528,43.985,37.344,42.086,37.044,40.88z"/>
<path fill="#C8691C" d="M31.384,30.336v7.71h4.77C35.053,35.174,33.426,32.563,31.384,30.336z"/>
<path fill="#C8691C" d="M20.759,23.57v14.476h7.613V27.566C26.117,25.813,23.548,24.444,20.759,23.57z"/>
<path fill="#C8691C" d="M17.749,22.843c-1.38-0.244-2.799-0.378-4.25-0.378c-1.143,0-2.264,0.085-3.364,0.237v15.344h7.614V22.843z"
	/>
<rect x="12.374" y="17.819" transform="matrix(0.7453 -0.6667 0.6667 0.7453 -7.5591 17.3727)" fill="#52CAF5" width="13.173" height="1.523"/>
<rect x="34.162" y="17.733" transform="matrix(0.573 -0.8196 0.8196 0.573 1.2733 39.4322)" fill="#52CAF5" width="8.629" height="1.523"/>
<rect x="23.379" y="16.921" transform="matrix(-0.7876 -0.6162 0.6162 -0.7876 42.6734 50.073)" fill="#52CAF5" width="13.174" height="1.523"/>
<circle fill="#52CAF5" cx="14.118" cy="23.084" r="2.036"/>
<circle fill="#52CAF5" cx="24.743" cy="14.053" r="2.036"/>
<polygon fill="#52CAF5" points="44.311,16.949 41.659,15.913 39.304,17.51 39.469,14.669 37.222,12.922 39.976,12.201 40.943,9.523 
	42.48,11.921 45.324,12.013 43.521,14.215 "/>
<circle fill="#52CAF5" cx="35.368" cy="22.198" r="2.037"/>
<path fill="#3588A6" d="M12.176,22.502c-0.056,0.186-0.094,0.378-0.094,0.582c0,1.124,0.912,2.036,2.036,2.036
	c1.125,0,2.037-0.912,2.037-2.036c0-0.167-0.026-0.326-0.063-0.479c-0.852-0.091-1.717-0.14-2.593-0.14
	C13.055,22.465,12.615,22.479,12.176,22.502z"/>
</svg>
