<?xml version="1.0" encoding="utf-8"?>
<!-- Generator: Adobe Illustrator 15.0.0, SVG Export Plug-In  -->
<!DOCTYPE svg PUBLIC "-//W3C//DTD SVG 1.1//EN" "http://www.w3.org/Graphics/SVG/1.1/DTD/svg11.dtd" [
	<!ENTITY ns_flows "http://ns.adobe.com/Flows/1.0/">
]>
<svg version="1.1"
	 xmlns="http://www.w3.org/2000/svg" xmlns:xlink="http://www.w3.org/1999/xlink" xmlns:a="http://ns.adobe.com/AdobeSVGViewerExtensions/3.0/"
	 x="0px" y="0px" width="150px" height="160px" viewBox="-8.86 -17.542 150 160" enable-background="new -8.86 -17.542 150 160"
	 xml:space="preserve">
<defs>
</defs>
<polygon fill="#F79523" points="11.843,113.61 11.843,0 0,0 0,124.916 129.226,124.916 129.226,113.61 "/>
<rect x="22.614" y="46.307" fill="#F79523" width="23.154" height="58.687"/>
<rect x="54.92" y="21.538" fill="#F79523" width="23.152" height="83.455"/>
<rect x="87.228" y="46.307" fill="#F79523" width="23.151" height="58.687"/>
<path fill="#C8691C" d="M104.44,113.61H11.843V60.665C7.734,61.884,3.776,63.45,0,65.33v59.586h106.312
	C105.978,121.055,105.35,117.279,104.44,113.61z"/>
<path fill="#C8691C" d="M87.228,81.549v23.444h14.503C98.383,96.261,93.437,88.32,87.228,81.549z"/>
<path fill="#C8691C" d="M54.92,60.978v44.016h23.152V73.126C71.213,67.795,63.401,63.633,54.92,60.978z"/>
<path fill="#C8691C" d="M45.768,58.765c-4.198-0.742-8.512-1.151-12.922-1.151c-3.474,0-6.886,0.259-10.232,0.724v46.656h23.154
	V58.765z"/>
<polygon fill="#52CAF5" points="65.919,34.176 36.066,60.883 32.981,57.434 62.827,30.726 "/>
<rect x="95.678" y="43.228" transform="matrix(0.573 -0.8195 0.8195 0.573 9.13 108.6082)" fill="#52CAF5" width="26.238" height="4.628"/>
<rect x="62.891" y="40.758" transform="matrix(-0.7876 -0.6161 0.6161 -0.7876 121.6886 128.0888)" fill="#52CAF5" width="40.055" height="4.63"/>
<circle fill="#52CAF5" cx="34.728" cy="59.495" r="6.192"/>
<circle fill="#52CAF5" cx="67.035" cy="32.035" r="6.192"/>
<polygon fill="#52CAF5" points="128.594,40.611 118.956,36.845 110.391,42.652 110.99,32.32 102.818,25.968 112.833,23.348 
	116.351,13.614 121.937,22.326 132.279,22.664 125.72,30.668 "/>
<circle fill="#52CAF5" cx="99.341" cy="56.805" r="6.192"/>
<path fill="#3588A6" d="M28.823,57.728c-0.168,0.563-0.287,1.15-0.287,1.768c0,3.421,2.771,6.192,6.191,6.192
	c3.421,0,6.193-2.771,6.193-6.192c0-0.505-0.079-0.988-0.191-1.456c-2.591-0.276-5.219-0.426-7.883-0.426
	C31.495,57.613,30.156,57.654,28.823,57.728z"/>
</svg>
