<?xml version="1.0" encoding="utf-8"?>
<!-- Generator: Adobe Illustrator 15.0.0, SVG Export Plug-In  -->
<!DOCTYPE svg PUBLIC "-//W3C//DTD SVG 1.1//EN" "http://www.w3.org/Graphics/SVG/1.1/DTD/svg11.dtd" [
	<!ENTITY ns_flows "http://ns.adobe.com/Flows/1.0/">
]>
<svg version="1.1"
	 xmlns="http://www.w3.org/2000/svg" xmlns:xlink="http://www.w3.org/1999/xlink" xmlns:a="http://ns.adobe.com/AdobeSVGViewerExtensions/3.0/"
	 x="0px" y="0px" width="150px" height="160px" viewBox="-19.53 -6.555 150 160" enable-background="new -19.53 -6.555 150 160"
	 xml:space="preserve">
<defs>
</defs>
<polygon fill="#A0530F" points="59.705,0 0,44.298 5.393,53.927 62.788,10.785 "/>
<path fill="#6D6E71" d="M1.778,45.764c0,0,8.1,1.1,14.017,3.928c3.278,1.567,8.088,6.163,8.088,6.163l1.154,13.866l-20.8-3.081
	L1.778,45.764z"/>
<path fill="#D1D3D4" d="M1.762,45.784c0,0,8.098,1.062,12.105,3.522c2.937,1.801,10.016,6.549,10.016,6.549l75.885-32.743
	c0,0-16.181-4.621-21.186-8.474c-5.011-3.853-15.41-10.016-15.41-10.016L1.762,45.784z"/>
<polygon fill="#F79523" points="99.768,23.112 23.883,55.854 38.134,146.762 110.939,112.09 "/>
<polygon fill="#FFFFFF" points="26.194,44.298 76.385,13.025 79.448,15.274 82.241,16.792 "/>
<path fill="#52CAF5" d="M35.824,23.112l-13.097-5.008l-2.312,12.712l5.778,13.482l14.945-7.359L35.824,23.112z M28.269,30.149
	c-0.424,0-0.827-0.09-1.188-0.253c-1.027-0.456-1.743-1.483-1.743-2.68c0-1.619,1.313-2.931,2.932-2.931
	c1.621,0,2.932,1.312,2.932,2.931C31.2,28.836,29.89,30.149,28.269,30.149z"/>
<path fill="#414042" d="M14.253,59.708c-2.268-6.643-0.449-15.686,4.235-20.804c2.796-3.05,8.374-13.705,12.522-10.553
	c-7.677,9.304-17.299,17.037-14.062,30.198"/>
<path fill="#3F8490" d="M0,44.298c0,0,6.123,7.718,15.021,10.785c4.063,1.401,8.861,0.772,8.861,0.772l14.251,90.907
	c0,0-7.623,0.875-11.556-1.926c-8.266-5.891-9.629-10.4-9.629-10.4L0,44.298z"/>
<path fill="#414042" d="M22.422,19.917l5.847,4.369c0,0,0.891,0.563-0.437,2.462c-1.102,1.574-2.372,0.664-2.372,0.664l-5.505-4.081
	c0,0-1.043-0.854-0.285-2.372C20.53,19.242,22.422,19.917,22.422,19.917z"/>
<polygon fill="#52CAF5" points="34.718,51.369 23.883,55.854 38.134,146.762 49.036,141.365 "/>
<path fill="#2B626B" d="M6.563,78.73c0,0,2.285,4.891,8.648,7.178c4.543,1.631,13.708,1.799,13.708,1.799l3.428,22.682
	c0,0-7.996,0.977-15.015-1.961c-5.657-2.363-6.527-6.197-6.527-6.197L6.563,78.73z"/>
<polygon fill="#3F8490" points="28.919,87.707 39.646,84.406 43.174,106.758 32.347,110.389 "/>
<polygon fill="#3F8490" points="39.694,34.103 41.14,36.939 26.194,44.298 "/>
</svg>
