<?xml version="1.0" encoding="utf-8"?>
<svg version="1.1"
	 xmlns="http://www.w3.org/2000/svg" xmlns:xlink="http://www.w3.org/1999/xlink"
	 x="0px" y="0px" width="48px" height="48px" viewBox="0 0 48 48">
<defs>
</defs>
<polygon fill="#A0530F" points="30.787,2.147 1.955,15.127 3.569,18.011 31.624,5.089 "/>
<path fill="#6D6E71" d="M2.486,15.565c0,0,2.426,0.33,4.198,1.177c0.982,0.469,2.423,1.846,2.423,1.846l0.345,4.152l-6.229-0.922
	L2.486,15.565z"/>
<path fill="#D1D3D4" d="M2.482,15.571c0,0,2.425,0.319,3.626,1.056c0.88,0.539,3,1.961,3,1.961l33.592-9.807
	c0,0-3.23-0.923-5.231-1.89c-0.02-0.036-1.414,0.407-1.414,0.407s-0.428-1.52-0.361-1.509c-1.602-1.126-3.954-2.545-3.954-2.545
	L2.482,15.571z"/>
<polygon fill="#F79523" points="42.699,8.781 9.107,18.588 13.376,45.814 46.045,35.429 "/>
<polygon fill="#A7A9AC" points="9.799,15.127 35.695,5.76 36.07,7.298 "/>
<path fill="#52CAF5" d="M12.684,8.781l-3.923-1.5l-0.692,3.808l1.731,4.038l5.008-1.479L12.684,8.781z M10.421,10.888
	c-0.126,0-0.249-0.027-0.356-0.075c-0.308-0.136-0.522-0.444-0.522-0.802c0-0.486,0.393-0.879,0.878-0.879
	c0.485,0,0.877,0.393,0.877,0.879C11.298,10.496,10.906,10.888,10.421,10.888z"/>
<path fill="#414042" d="M6.223,19.742c-0.679-1.99-0.134-4.699,1.269-6.231C8.329,12.597,10,9.406,11.242,10.35
	c-2.299,2.787-5.18,5.103-4.211,9.045"/>
<path fill="#3F8490" d="M1.955,15.127c0,0,1.833,2.311,4.5,3.229c1.215,0.419,2.653,0.231,2.653,0.231l4.269,27.227
	c0,0-2.285,0.261-3.462-0.577c-2.475-1.767-2.883-3.115-2.883-3.115L1.955,15.127z"/>
<path fill="#414042" d="M8.67,7.824l1.75,1.308c0,0,0.267,0.168-0.131,0.738c-0.329,0.47-0.71,0.198-0.71,0.198L7.931,8.847
	c0,0-0.312-0.256-0.086-0.711C8.104,7.622,8.67,7.824,8.67,7.824z"/>
<polygon fill="#52CAF5" points="13.479,17.306 9.107,18.588 13.376,45.814 17.777,44.426 "/>
<path fill="#2B626B" d="M3.92,25.439c0,0,0.684,1.465,2.59,2.149c1.362,0.488,4.107,0.539,4.107,0.539l1.025,6.79
	c0,0-2.395,0.295-4.497-0.584c-1.695-0.709-1.954-1.857-1.954-1.857L3.92,25.439z"/>
<polygon fill="#3F8490" points="10.617,28.128 14.955,26.953 16.005,33.581 11.642,34.918 "/>
<polygon fill="#3F8490" points="14.446,12.844 14.791,13.647 9.799,15.127 "/>
</svg>
