<?xml version="1.0" encoding="utf-8"?>
<svg version="1.1"
	 xmlns="http://www.w3.org/2000/svg" xmlns:xlink="http://www.w3.org/1999/xlink"
	 x="0px" y="0px" width="48px" height="48px" viewBox="0 0 48 48">
<defs>
</defs>
<path fill="#52CAF5" d="M45.187,42.055c0,1.791-1.452,3.242-3.244,3.242L6.017,45.279c-1.792,0-3.244-1.452-3.244-3.243l0.033-36.09
	c0-1.791,1.452-3.244,3.243-3.244h35.953c1.791,0,3.243,1.453,3.243,3.244L45.187,42.055z"/>
<path fill="#3588A6" d="M2.805,9.36L2.756,41.987c0,1.79,1.453,3.242,3.245,3.242l24.607,0.033c0.045-0.684,0.062-5.31,0.062-6.005
	C30.669,23.412,18.375,10.447,2.805,9.36z"/>
<rect x="7.606" y="15.875" transform="matrix(0.7453 -0.6668 0.6668 0.7453 -7.4563 13.7818)" fill="#FFFFFF" width="13.406" height="1.549"/>
<rect x="28.75" y="13.806" transform="matrix(0.5731 -0.8195 0.8195 0.5731 3.2308 35.364)" fill="#FFFFFF" width="13.617" height="1.549"/>
<rect x="18.808" y="14.961" transform="matrix(-0.7877 -0.6161 0.6161 -0.7877 35.9098 43.8469)" fill="#FFFFFF" width="13.406" height="1.549"/>
<circle fill="#D1D3D4" cx="9.382" cy="21.231" r="2.072"/>
<circle fill="#FFFFFF" cx="20.195" cy="12.042" r="2.072"/>
<circle fill="#FFFFFF" cx="31.008" cy="20.332" r="2.072"/>
<polygon fill="#FFFFFF" points="35.936,8.668 40.051,8.224 41.199,12.039 39.65,10.999 39.364,9.294 37.489,9.53 "/>
<ellipse fill="#F79523" cx="25.766" cy="32.207" rx="7.314" ry="8.084"/>
<ellipse fill="#C8691C" cx="24.686" cy="32.207" rx="7.313" ry="8.084"/>
<path fill="#FCB51E" d="M30.645,38.218c1.492-1.479,2.436-3.621,2.436-6.011c0-4.15-2.832-7.567-6.477-8.025
	C29.023,28.329,30.47,33.111,30.645,38.218z"/>
<path fill="#F79523" d="M30.576,36.985c0.891-1.339,1.423-2.988,1.423-4.778c0-3.665-2.211-6.755-5.235-7.747
	C28.895,28.204,30.235,32.453,30.576,36.985z"/>
<path fill="#F79523" d="M24.398,27.037l0.538,0.054v0.822c0.542,0.092,1,0.244,1.375,0.457c0.33,0.187,0.586,0.418,0.77,0.691
	c0.184,0.274,0.276,0.562,0.276,0.867c0,0.287-0.093,0.511-0.276,0.671c-0.184,0.157-0.423,0.224-0.719,0.194
	c-0.267-0.026-0.488-0.133-0.665-0.324c-0.178-0.188-0.266-0.416-0.266-0.679c0-0.185,0.044-0.344,0.132-0.479l0.134-0.203
	c0.042-0.063,0.062-0.11,0.058-0.14c-0.009-0.086-0.096-0.17-0.261-0.25c-0.164-0.082-0.35-0.133-0.558-0.153v1.761l-0.538-0.342
	v-1.426c-0.173,0.021-0.313,0.068-0.418,0.144c-0.228,0.16-0.342,0.384-0.342,0.675c0,0.313,0.155,0.601,0.462,0.863
	c0.207,0.181,0.649,0.46,1.324,0.837c0.486,0.271,0.837,0.486,1.055,0.642c0.217,0.156,0.408,0.33,0.568,0.523
	c0.198,0.231,0.353,0.509,0.462,0.835c0.109,0.323,0.165,0.668,0.165,1.031c0,0.442-0.09,0.841-0.27,1.193s-0.438,0.638-0.776,0.859
	c-0.422,0.272-0.985,0.41-1.692,0.412v0.951l-0.538-0.053v-0.949c-0.574-0.091-1.071-0.261-1.489-0.513
	c-0.343-0.205-0.61-0.458-0.805-0.755c-0.194-0.298-0.291-0.605-0.291-0.921c0-0.313,0.102-0.566,0.303-0.757
	c0.203-0.192,0.455-0.272,0.755-0.244c0.266,0.024,0.495,0.147,0.687,0.365c0.193,0.217,0.288,0.461,0.288,0.736
	c0,0.17-0.042,0.326-0.126,0.474c-0.085,0.146-0.195,0.248-0.331,0.308c-0.105,0.043-0.156,0.086-0.151,0.129
	c0.004,0.043,0.053,0.099,0.146,0.166c0.093,0.068,0.207,0.134,0.342,0.193c0.232,0.103,0.457,0.164,0.672,0.185v-1.983l0.538,0.306
	v1.723c0.237,0.002,0.434-0.035,0.589-0.113c0.17-0.08,0.303-0.194,0.4-0.342c0.097-0.146,0.146-0.306,0.146-0.48
	c0-0.176-0.04-0.338-0.121-0.479c-0.08-0.144-0.207-0.287-0.379-0.431c-0.102-0.076-0.227-0.16-0.373-0.25
	c-0.146-0.091-0.42-0.253-0.826-0.486c-0.502-0.285-0.881-0.523-1.134-0.718c-0.253-0.192-0.467-0.406-0.64-0.638
	c-0.376-0.498-0.564-1.059-0.564-1.684c0-0.47,0.115-0.895,0.346-1.278c0.229-0.383,0.545-0.674,0.947-0.877
	c0.321-0.164,0.678-0.255,1.071-0.277V27.037z"/>
<path fill="#FFFFFF" d="M24.146,27.015l0.539,0.051v0.823c0.542,0.092,1,0.243,1.375,0.457c0.331,0.187,0.587,0.418,0.771,0.693
	c0.184,0.272,0.275,0.562,0.275,0.865c0,0.287-0.092,0.511-0.275,0.671c-0.184,0.159-0.424,0.223-0.719,0.196
	c-0.267-0.026-0.488-0.135-0.666-0.326c-0.177-0.188-0.265-0.414-0.265-0.677c0-0.187,0.044-0.347,0.132-0.481l0.133-0.203
	c0.043-0.063,0.062-0.108,0.058-0.14c-0.009-0.086-0.095-0.17-0.26-0.25c-0.164-0.082-0.351-0.134-0.558-0.152v1.76l-0.539-0.342
	v-1.426c-0.173,0.021-0.313,0.067-0.418,0.144c-0.228,0.16-0.341,0.384-0.341,0.677c0,0.312,0.154,0.599,0.462,0.861
	c0.207,0.181,0.648,0.459,1.324,0.839c0.486,0.269,0.838,0.484,1.056,0.64c0.217,0.156,0.406,0.33,0.566,0.523
	c0.199,0.231,0.353,0.508,0.463,0.834c0.109,0.324,0.165,0.669,0.165,1.032c0,0.442-0.091,0.843-0.27,1.193
	c-0.18,0.353-0.438,0.64-0.776,0.859c-0.423,0.272-0.985,0.41-1.692,0.412V37.5l-0.539-0.051v-0.952
	c-0.574-0.09-1.07-0.258-1.489-0.511c-0.341-0.207-0.61-0.459-0.804-0.756c-0.195-0.298-0.292-0.605-0.292-0.921
	c0-0.314,0.102-0.566,0.305-0.757c0.203-0.191,0.454-0.273,0.753-0.244c0.267,0.026,0.496,0.147,0.688,0.365
	c0.192,0.217,0.289,0.461,0.289,0.736c0,0.17-0.043,0.325-0.127,0.474c-0.084,0.146-0.194,0.248-0.329,0.308
	c-0.105,0.043-0.157,0.088-0.152,0.131c0.004,0.041,0.052,0.097,0.146,0.164c0.092,0.067,0.207,0.134,0.342,0.192
	c0.232,0.103,0.456,0.164,0.671,0.185v-1.982l0.539,0.306v1.723c0.237,0.002,0.434-0.035,0.589-0.113
	c0.169-0.08,0.303-0.194,0.399-0.34c0.097-0.148,0.146-0.308,0.146-0.482c0-0.177-0.041-0.338-0.121-0.479
	c-0.08-0.144-0.207-0.287-0.381-0.431c-0.101-0.076-0.225-0.16-0.37-0.251c-0.146-0.09-0.421-0.252-0.827-0.483
	c-0.502-0.287-0.88-0.525-1.133-0.72c-0.254-0.193-0.467-0.406-0.641-0.638c-0.375-0.499-0.563-1.059-0.563-1.684
	c0-0.468,0.115-0.895,0.344-1.278c0.231-0.383,0.547-0.675,0.948-0.878c0.321-0.161,0.678-0.254,1.07-0.276V27.015z"/>
<path fill="#D1D3D4" d="M17.745,14.616c-0.44-0.305-0.886-0.599-1.341-0.88l-7.606,6.806l1.033,1.155L17.745,14.616z"/>
</svg>
