<?xml version="1.0" encoding="utf-8"?>
<svg version="1.1"
	 xmlns="http://www.w3.org/2000/svg" xmlns:xlink="http://www.w3.org/1999/xlink"
	 x="0px" y="0px" width="48px" height="48px" viewBox="-3 -3.32 48 48">
<defs>
</defs>
<polygon fill="#FBAC29" points="42.061,33.042 42.083,40.769 4.696,40.769 4.696,32.69 "/>
<polygon fill="#C8691C" points="36.917,38.186 42.061,33.042 36.001,33.042 "/>
<path fill="#F79523" d="M36.917,38.186V2.254c0-1.245-1.01-2.254-2.254-2.254H2.254C1.01,0,0,1.009,0,2.254v35.931H36.917z"/>
<rect x="4.696" y="5.072" fill="#52CAF5" width="11.085" height="27.242"/>
<rect x="7.327" y="7.891" fill="#3588A6" width="6.013" height="2.066"/>
<rect x="19.294" y="6.176" fill="#FFFFFF" width="13.541" height="2.539"/>
<rect x="19.294" y="11.812" fill="#FFFFFF" width="13.541" height="2.539"/>
<rect x="19.294" y="17.448" fill="#FFFFFF" width="13.541" height="2.54"/>
<rect x="19.294" y="23.084" fill="#FFFFFF" width="13.541" height="2.54"/>
</svg>
