<?xml version="1.0" encoding="utf-8"?>
<svg version="1.1"
	 xmlns="http://www.w3.org/2000/svg" xmlns:xlink="http://www.w3.org/1999/xlink"
	 x="0px" y="0px" width="48px" height="48px" viewBox="0 0 48 48">
<defs>
</defs>
<path fill="#F79523" d="M10.8,23.27c0-0.61-0.356-1.46-0.792-1.889c0,0-1.553-1.529-1.553-3.261c0-2.591,2.1-4.691,4.69-4.691
	c2.59,0,4.689,2.1,4.689,4.691c0,1.731-1.554,3.259-1.554,3.259c-0.435,0.429-0.792,1.278-0.792,1.889v0.708h8.503v-8.502h0.882
	c0.61,0,1.46,0.356,1.89,0.792c0,0,1.525,1.553,3.259,1.553c2.59,0,4.69-2.099,4.69-4.69c0-2.589-2.101-4.688-4.69-4.688
	c-1.733,0-3.261,1.552-3.261,1.552c-0.428,0.437-1.278,0.792-1.889,0.792h-0.881V2.297H5.485c-1.76,0-3.188,1.417-3.188,3.164
	v18.517H10.8V23.27z"/>
<path fill="#52CAF5" d="M5.485,45.702h18.507v-8.489h-0.708c-0.61,0-1.46,0.356-1.889,0.792c0,0-1.529,1.554-3.261,1.554
	c-2.591,0-4.69-2.1-4.69-4.689c0-2.591,2.099-4.69,4.69-4.69c1.732,0,3.26,1.555,3.26,1.555c0.429,0.434,1.279,0.792,1.889,0.792
	h0.708v-8.504h-8.502v-0.884c0-0.609,0.357-1.459,0.792-1.888c0,0,1.554-1.527,1.554-3.26c0-2.589-2.099-4.69-4.69-4.69
	c-2.589,0-4.689,2.101-4.689,4.69c0,1.733,1.552,3.262,1.552,3.262c0.437,0.427,0.792,1.277,0.792,1.887v0.883H2.297v18.518
	C2.297,44.287,3.725,45.702,5.485,45.702z"/>
<path fill="#C8691C" d="M37.198,24.729c0,0.611,0.355,1.46,0.792,1.89c0,0,1.553,1.528,1.553,3.261c0,2.591-2.099,4.689-4.688,4.689
	c-2.592,0-4.692-2.099-4.692-4.689c0-1.732,1.556-3.26,1.556-3.26c0.434-0.428,0.792-1.279,0.792-1.889v-0.708h-8.502v8.503h-0.884
	c-0.61,0-1.46-0.357-1.889-0.792c0,0-1.527-1.554-3.26-1.554c-2.59,0-4.691,2.1-4.691,4.69c0,2.59,2.101,4.689,4.691,4.689
	c1.733,0,3.262-1.553,3.262-1.553c0.427-0.436,1.277-0.793,1.888-0.793h0.883v8.488h18.508c1.761,0,3.187-1.415,3.187-3.163V24.022
	h-8.504V24.729z"/>
<path fill="#3588A6" d="M42.516,2.297H24.009v8.49h0.707c0.61,0,1.46-0.355,1.889-0.792c0,0,1.529-1.552,3.261-1.552
	c2.591,0,4.69,2.099,4.69,4.688c0,2.592-2.1,4.691-4.69,4.691c-1.731,0-3.26-1.555-3.26-1.555c-0.428-0.434-1.278-0.792-1.889-0.792
	h-0.708v8.503h8.501v0.883c0,0.61-0.356,1.46-0.792,1.89c0,0-1.553,1.526-1.553,3.259c0,2.59,2.099,4.691,4.69,4.691
	c2.59,0,4.688-2.102,4.688-4.691c0-1.732-1.553-3.261-1.553-3.261c-0.436-0.428-0.792-1.277-0.792-1.889v-0.882h8.502V5.461
	C45.702,3.714,44.276,2.297,42.516,2.297z"/>
<path fill="#DE7521" d="M39.282,45.702c-0.106-4.109-0.845-8.061-2.127-11.76c-0.682,0.389-1.46,0.627-2.301,0.627
	c-2.592,0-4.692-2.099-4.692-4.689c0-1.732,1.556-3.26,1.556-3.26c0.434-0.428,0.792-1.279,0.792-1.889v-0.027
	c-0.157-0.23-0.322-0.455-0.484-0.682h-8.018v8.503h-0.884c-0.61,0-1.46-0.357-1.889-0.792c0,0-1.527-1.554-3.26-1.554
	c-2.59,0-4.691,2.1-4.691,4.69c0,2.59,2.101,4.689,4.691,4.689c1.733,0,3.262-1.553,3.262-1.553
	c0.427-0.436,1.277-0.793,1.888-0.793h0.883v8.488H39.282z"/>
<path fill="#FBAB20" d="M2.297,7.688v16.289H10.8V23.27c0-0.61-0.356-1.46-0.792-1.889c0,0-1.553-1.529-1.553-3.261
	c0-2.591,2.1-4.691,4.69-4.691c2.59,0,4.689,2.1,4.689,4.691c0,1.731-1.554,3.259-1.554,3.259c-0.435,0.429-0.792,1.278-0.792,1.889
	v0.708h8.503v-8.269C17.918,11.045,10.441,8.119,2.297,7.688z"/>
</svg>
