<?xml version="1.0" encoding="utf-8"?>
<!-- Generator: Adobe Illustrator 15.0.0, SVG Export Plug-In  -->
<!DOCTYPE svg PUBLIC "-//W3C//DTD SVG 1.1//EN" "http://www.w3.org/Graphics/SVG/1.1/DTD/svg11.dtd" [
	<!ENTITY ns_flows "http://ns.adobe.com/Flows/1.0/">
]>
<svg version="1.1"
	 xmlns="http://www.w3.org/2000/svg" xmlns:xlink="http://www.w3.org/1999/xlink" xmlns:a="http://ns.adobe.com/AdobeSVGViewerExtensions/3.0/"
	 x="0px" y="0px" width="150px" height="160px" viewBox="-6.831 -11.831 150 160" enable-background="new -6.831 -11.831 150 160"
	 xml:space="preserve">
<defs>
</defs>
<path fill="#F79523" d="M26.707,65.875c0-1.917-1.117-4.586-2.487-5.932c0,0-4.879-4.802-4.879-10.243
	c0-8.138,6.596-14.733,14.731-14.733c8.136,0,14.729,6.596,14.729,14.733c0,5.44-4.879,10.24-4.879,10.24
	c-1.365,1.346-2.486,4.014-2.486,5.932v2.225h26.709V41.39h2.771c1.915,0,4.586,1.121,5.936,2.487c0,0,4.793,4.879,10.234,4.879
	c8.137,0,14.737-6.593,14.737-14.733c0-8.133-6.601-14.725-14.737-14.725c-5.441,0-10.24,4.876-10.24,4.876
	c-1.344,1.37-4.015,2.486-5.935,2.486h-2.767V0H10.012C4.483,0,0,4.448,0,9.937v58.161h26.707V65.875z"/>
<path fill="#52CAF5" d="M10.012,136.338h58.13v-26.664H65.92c-1.917,0-4.586,1.115-5.933,2.485c0,0-4.802,4.879-10.242,4.879
	c-8.14,0-14.732-6.593-14.732-14.729c0-8.14,6.592-14.731,14.732-14.731c5.44,0,10.239,4.883,10.239,4.883
	c1.346,1.363,4.016,2.487,5.933,2.487h2.225V68.237H41.437v-2.779c0-1.913,1.121-4.583,2.486-5.931c0,0,4.879-4.795,4.879-10.24
	c0-8.133-6.592-14.733-14.731-14.733c-8.132,0-14.729,6.601-14.729,14.733c0,5.444,4.876,10.246,4.876,10.246
	c1.373,1.342,2.487,4.012,2.487,5.929v2.775H0v58.164C0,131.894,4.483,136.338,10.012,136.338z"/>
<path fill="#C8691C" d="M109.623,70.459c0,1.92,1.119,4.587,2.491,5.936c0,0,4.877,4.802,4.877,10.243
	c0,8.139-6.593,14.73-14.727,14.73c-8.142,0-14.738-6.592-14.738-14.73c0-5.441,4.886-10.24,4.886-10.24
	c1.361-1.343,2.486-4.015,2.486-5.933V68.24H68.192v26.708h-2.777c-1.916,0-4.586-1.121-5.933-2.487c0,0-4.796-4.88-10.24-4.88
	c-8.135,0-14.735,6.592-14.735,14.732c0,8.136,6.601,14.728,14.735,14.728c5.444,0,10.246-4.875,10.246-4.875
	c1.34-1.37,4.011-2.489,5.93-2.489h2.774v26.661h58.136c5.529,0,10.01-4.444,10.01-9.937V68.24h-26.715V70.459z"/>
<path fill="#3588A6" d="M126.328,0h-58.13v26.667h2.22c1.916,0,4.585-1.116,5.932-2.487c0,0,4.803-4.876,10.242-4.876
	c8.14,0,14.732,6.593,14.732,14.726c0,8.141-6.593,14.735-14.732,14.735c-5.439,0-10.238-4.884-10.238-4.884
	c-1.345-1.363-4.017-2.486-5.933-2.486h-2.223v26.71h26.703v2.773c0,1.916-1.121,4.587-2.486,5.937c0,0-4.879,4.793-4.879,10.234
	c0,8.137,6.593,14.736,14.735,14.736c8.133,0,14.726-6.6,14.726-14.736c0-5.441-4.877-10.24-4.877-10.24
	c-1.369-1.344-2.489-4.015-2.489-5.935v-2.77h26.707V9.937C136.338,4.448,131.857,0,126.328,0z"/>
<path fill="#DE7521" d="M116.172,136.338c-0.335-12.909-2.654-25.318-6.68-36.939c-2.142,1.222-4.587,1.97-7.228,1.97
	c-8.142,0-14.738-6.592-14.738-14.73c0-5.441,4.886-10.24,4.886-10.24c1.361-1.343,2.486-4.015,2.486-5.933V70.38
	c-0.492-0.723-1.012-1.428-1.521-2.14H68.192v26.708h-2.777c-1.916,0-4.586-1.121-5.933-2.487c0,0-4.796-4.88-10.24-4.88
	c-8.135,0-14.735,6.592-14.735,14.732c0,8.136,6.601,14.728,14.735,14.728c5.444,0,10.246-4.875,10.246-4.875
	c1.34-1.37,4.011-2.489,5.93-2.489h2.774v26.661H116.172z"/>
<path fill="#FBAB20" d="M0,16.934v51.164h26.707v-2.222c0-1.917-1.117-4.586-2.487-5.932c0,0-4.879-4.802-4.879-10.243
	c0-8.138,6.596-14.733,14.731-14.733c8.136,0,14.729,6.596,14.729,14.733c0,5.44-4.879,10.24-4.879,10.24
	c-1.365,1.346-2.486,4.014-2.486,5.932v2.225h26.709V42.125C49.067,27.475,25.578,18.285,0,16.934z"/>
</svg>
