<?xml version="1.0" encoding="utf-8"?>
<svg version="1.1"
	 xmlns="http://www.w3.org/2000/svg" xmlns:xlink="http://www.w3.org/1999/xlink"
	 x="0px" y="0px" width="48px" height="48px" viewBox="-3.732 -5.976 48 48">
<defs>
</defs>
<path fill="#F79523" d="M36.396,0H4.282C1.916,0,0,1.918,0,4.282v21.412c0,2.364,1.916,4.282,4.282,4.282h9.956v3.629h-0.927
	c-1.024,0-1.854,0.83-1.854,1.854c0,1.023,0.83,1.854,1.854,1.854h13.904c1.025,0,1.855-0.83,1.855-1.854
	c0-1.024-0.83-1.854-1.855-1.854h-0.927v-3.629h10.108c2.365,0,4.282-1.918,4.282-4.282V4.282C40.679,1.918,38.762,0,36.396,0z
	 M38.899,24.256c0,2.049-1.659,3.71-3.706,3.71H5.486c-2.048,0-3.709-1.661-3.709-3.71V5.717c0-2.048,0.712-3.708,2.76-3.708h31.604
	c2.049,0,2.759,1.659,2.759,3.708V24.256z"/>
<path fill="#3588A6" d="M21.119,15.852v9.486h12.648c1.57,0,2.845-1.275,2.845-2.847v-6.64H21.119z"/>
<path fill="#52CAF5" d="M19.538,15.852v9.486H6.892c-1.572,0-2.845-1.275-2.845-2.847v-6.64H19.538z"/>
<path fill="#3588A6" d="M21.119,13.956V4.471h12.648c1.57,0,2.845,1.273,2.845,2.846v6.639H21.119z"/>
<path fill="#52CAF5" d="M19.538,13.956V4.471H6.892c-1.572,0-2.845,1.273-2.845,2.846v6.639H19.538z"/>
<path fill="#C8691C" d="M36.396,0H20.805v2.01h15.336c2.049,0,2.759,1.659,2.759,3.708v18.539c0,2.049-1.659,3.71-3.706,3.71H20.805
	v9.347h6.41c1.025,0,1.855-0.83,1.855-1.854c0-1.024-0.83-1.854-1.855-1.854h-0.927v-3.629h10.108c2.365,0,4.282-1.918,4.282-4.282
	V4.282C40.679,1.918,38.762,0,36.396,0z"/>
</svg>
