<?xml version="1.0" encoding="utf-8"?>
<svg version="1.1"
	 xmlns="http://www.w3.org/2000/svg" xmlns:xlink="http://www.w3.org/1999/xlink"
	 x="0px" y="0px" width="48px" height="48px" viewBox="0 0 48 48">
<defs>
</defs>
<path fill="#C8691C" d="M42.45,34.043l-4.871-2.194c0,0-2.462-1.157-3.778-1.128c-5.213,0.112-6.476,4.109-9.397,4.899
	c-2.27,0.61-4.583,0.56-4.583,0.56s-1.819,0.183-1.819,1.468c0,1.254,0.803,1.528,1.886,1.633c2.031,0.195,5.458,0.072,6.616-0.078
	c1.139-0.147,2.37-0.263,4.26-1.22c0,0-1.985,1.688-3.838,2.196c-2.229,0.606-6.173,0.543-7.201,0.442
	c-1.139-0.108-3.192-0.444-3.226-2.978c-0.024-2.02,1.698-2.646,2.587-2.782c0.972,0.041,4.391-0.326,4.391-0.326l-3.884-2.351
	c0,0-1.432-1.013-2.52-0.732c-1.09,0.283-1.547,1.126-1.547,1.126s-1.661-1.688-3.321-1.126c-1.663,0.564-1.433,1.745-1.433,1.745
	s-3.439-2.025-4.641,0c-1.204,2.026,2.176,3.771,2.176,3.771l13.463,7.882c0,0,0.572,0.336,1.547,0.336
	c0.972,0,2.347-0.563,2.347-0.563l6.588-2.476c0,0,0.62-0.449,1.621-0.679c0.86-0.195,2.47,0.045,2.47,0.045l2.245,0.929
	c0,0,0.899-2.896,1.746-4.727C41.184,35.887,42.45,34.043,42.45,34.043z"/>
<path fill="#C8691C" d="M40.015,11.042l-13.463-7.88c0,0-0.574-0.338-1.547-0.338c-0.972,0-2.349,0.564-2.349,0.564l-6.589,2.476
	c0,0-0.616,0.447-1.62,0.677c-0.859,0.196-2.469-0.044-2.469-0.044L9.731,5.57c0,0-0.506,2.21-1.575,4.432
	c-1.068,2.222-2.286,3.966-2.286,3.966l4.869,2.196c0,0,2.465,1.154,3.782,1.125c3.938-0.084,5.631-2.351,7.477-3.82
	c0.441-0.049,1.048-0.043,1.634,0.223c1.084,0.493,1.775,1.48,2.663,1.678c0.46,0.102,1.157-0.088,1.725-0.294
	c0.427,0.435,0.709,0.75,0.709,0.75s1.43,1.013,2.52,0.732c1.089-0.282,1.546-1.126,1.546-1.126s1.662,1.688,3.322,1.126
	c1.664-0.563,1.432-1.745,1.432-1.745s3.44,2.025,4.642,0C43.395,12.787,40.015,11.042,40.015,11.042z"/>
<path fill="#3588A6" d="M28.249,22.134h-2.886v-2.886c0-1.01-0.818-1.828-1.828-1.828c-1.01,0-1.829,0.818-1.829,1.828v2.886H18.82
	c-1.011,0-1.83,0.82-1.83,1.828c0,1.011,0.818,1.83,1.83,1.83h2.887v2.888c0,1.009,0.818,1.827,1.829,1.827
	c1.01,0,1.828-0.818,1.828-1.827v-2.888h2.886c1.01,0,1.829-0.819,1.829-1.83C30.078,22.954,29.259,22.134,28.249,22.134z"/>
<path fill="#F79523" d="M16.037,21.004h-1.869v-1.871c0-0.654-0.53-1.184-1.184-1.184c-0.654,0-1.185,0.53-1.185,1.184v1.871H9.928
	c-0.654,0-1.186,0.531-1.186,1.184c0,0.655,0.531,1.186,1.186,1.186h1.871v1.869c0,0.653,0.53,1.185,1.185,1.185
	c0.654,0,1.184-0.531,1.184-1.185v-1.869h1.869c0.655,0,1.186-0.531,1.186-1.186C17.222,21.535,16.692,21.004,16.037,21.004z"/>
<path fill="#F79523" d="M37.35,24.444H35.48v-1.872c0-0.653-0.531-1.184-1.185-1.184c-0.654,0-1.186,0.53-1.186,1.184v1.872h-1.87
	c-0.654,0-1.185,0.53-1.185,1.184c0,0.654,0.53,1.186,1.185,1.186h1.87v1.87c0,0.654,0.531,1.184,1.186,1.184
	c0.653,0,1.185-0.529,1.185-1.184v-1.87h1.869c0.656,0,1.187-0.531,1.187-1.186C38.536,24.975,38.006,24.444,37.35,24.444z"/>
<path fill="#F79523" d="M9.675,2.696c0,0,0.489,2.292-1.015,6.256c-1.86,4.904-5.749,8.623-5.749,8.623V2.865L9.675,2.696z"/>
<path fill="#F79523" d="M38.324,45.304c0,0-0.488-2.291,1.016-6.255c1.86-4.903,5.748-8.624,5.748-8.624v14.711L38.324,45.304z"/>
</svg>
