<?xml version="1.0" encoding="utf-8"?>
<!-- Generator: Adobe Illustrator 15.0.0, SVG Export Plug-In  -->
<!DOCTYPE svg PUBLIC "-//W3C//DTD SVG 1.1//EN" "http://www.w3.org/Graphics/SVG/1.1/DTD/svg11.dtd" [
	<!ENTITY ns_flows "http://ns.adobe.com/Flows/1.0/">
]>
<svg version="1.1"
	 xmlns="http://www.w3.org/2000/svg" xmlns:xlink="http://www.w3.org/1999/xlink" xmlns:a="http://ns.adobe.com/AdobeSVGViewerExtensions/3.0/"
	 x="0px" y="0px" width="150px" height="160px" viewBox="-19.213 -8.548 150 160" enable-background="new -19.213 -8.548 150 160"
	 xml:space="preserve">
<defs>
</defs>
<path fill="#C8691C" d="M111.574,108.914l-14.854-6.698c0,0-7.515-3.522-11.527-3.434c-15.901,0.341-19.752,12.535-28.661,14.938
	c-6.927,1.868-13.98,1.716-13.98,1.716s-5.55,0.554-5.55,4.472c0,3.826,2.448,4.662,5.754,4.979
	c6.192,0.595,16.649,0.224,20.178-0.237c3.47-0.451,7.227-0.799,12.992-3.72c0,0-6.057,5.149-11.705,6.698
	c-6.797,1.853-18.832,1.654-21.965,1.35c-3.475-0.331-9.736-1.353-9.839-9.081c-0.078-6.16,5.178-8.071,7.892-8.49
	c2.964,0.124,13.389-0.991,13.389-0.991l-11.847-7.168c0,0-4.365-3.091-7.683-2.235c-3.324,0.862-4.722,3.433-4.722,3.433
	s-5.065-5.146-10.131-3.433c-5.068,1.719-4.367,5.32-4.367,5.32s-10.488-6.176-14.155,0c-3.67,6.185,6.635,11.505,6.635,11.505
	l41.066,24.037c0,0,1.749,1.029,4.721,1.029c2.964,0,7.161-1.717,7.161-1.717l20.095-7.555c0,0,1.887-1.363,4.945-2.066
	c2.62-0.598,7.53,0.134,7.53,0.134l6.848,2.831c0,0,2.742-8.831,5.33-14.413C107.709,114.537,111.574,108.914,111.574,108.914z"/>
<path fill="#C8691C" d="M104.147,25.066L63.084,1.032c0,0-1.752-1.032-4.723-1.032c-2.965,0-7.166,1.72-7.166,1.72L31.101,9.273
	c0,0-1.882,1.364-4.944,2.063c-2.62,0.599-7.53-0.134-7.53-0.134l-6.851-2.827c0,0-1.543,6.742-4.802,13.519
	C3.713,28.673,0,33.993,0,33.993l14.851,6.697c0,0,7.518,3.521,11.536,3.431c12.013-0.255,17.176-7.167,22.804-11.652
	c1.347-0.15,3.199-0.13,4.985,0.681c3.309,1.504,5.419,4.517,8.127,5.117c1.403,0.312,3.528-0.268,5.256-0.897
	c1.304,1.327,2.163,2.289,2.163,2.289s4.365,3.089,7.688,2.233c3.32-0.86,4.716-3.432,4.716-3.432s5.068,5.146,10.132,3.432
	c5.075-1.716,4.369-5.321,4.369-5.321s10.491,6.177,14.155,0C114.455,30.389,104.147,25.066,104.147,25.066z"/>
<path fill="#3588A6" d="M75.104,65.746h-8.801v-8.804c0-3.084-2.498-5.576-5.579-5.576c-3.079,0-5.575,2.492-5.575,5.576v8.804
	H46.34c-3.082,0-5.578,2.5-5.578,5.574c0,3.082,2.497,5.583,5.578,5.583h8.809v8.803c0,3.084,2.496,5.577,5.575,5.577
	c3.081,0,5.579-2.493,5.579-5.577v-8.803h8.801c3.081,0,5.579-2.501,5.579-5.583C80.683,68.246,78.185,65.746,75.104,65.746z"/>
<path fill="#F79523" d="M44.7,55.673h-5.703v-5.705c0-1.996-1.618-3.611-3.613-3.611c-1.994,0-3.613,1.615-3.613,3.611v5.705h-5.705
	c-1.998,0-3.615,1.62-3.615,3.611c0,1.997,1.618,3.617,3.615,3.617h5.705v5.704c0,1.995,1.619,3.611,3.613,3.611
	c1.996,0,3.613-1.616,3.613-3.611v-5.704H44.7c1.997,0,3.615-1.62,3.615-3.617C48.315,57.293,46.697,55.673,44.7,55.673z"/>
<path fill="#F79523" d="M96.017,79.416h-5.7v-5.709c0-1.991-1.618-3.61-3.614-3.61c-1.995,0-3.613,1.619-3.613,3.61v5.709h-5.706
	c-1.995,0-3.612,1.617-3.612,3.61c0,1.999,1.617,3.615,3.612,3.615h5.706v5.704c0,1.999,1.618,3.612,3.613,3.612
	c1.996,0,3.614-1.613,3.614-3.612v-5.704h5.7c1.999,0,3.618-1.616,3.618-3.615C99.635,81.033,98.016,79.416,96.017,79.416z"/>
</svg>
