<?xml version="1.0" encoding="utf-8"?>
<svg version="1.1"
	 xmlns="http://www.w3.org/2000/svg" xmlns:xlink="http://www.w3.org/1999/xlink"
	 x="0px" y="0px" width="48px" height="48px" viewBox="0 0 48 48">
<defs>
</defs>
<path fill="#D1D3D4" d="M43.239,34.552c0,0-1.226,0.699-0.876,4.198c0.349,3.497,1.617,4.578,1.617,4.578H6.977V33.151
	L43.239,34.552z"/>
<path fill="#52CAF5" d="M44.674,31.856L41.33,6.112c0-1.847-1.496-3.344-3.343-3.344H10.554c-1.846,0-3.343,1.497-3.343,3.344
	l-3.344,25.22c0,0-0.56,4.439-0.542,6.951c0.042,5.929,4.379,6.913,6.114,6.948h31.89c1.848,0,2.688-0.545,2.65-1.903
	c-0.042-1.539-2.339-1.478-2.339-1.478l-31.199,0.028c-1.182,0-2.584-0.607-2.657-3.091c-0.058-1.992,1.621-3.119,2.803-3.119
	l30.741-0.468C43.178,35.201,44.674,33.705,44.674,31.856z"/>
<polygon fill="#F79523" points="15.17,2.883 13.925,16.949 18.83,15.217 23.908,17.064 23.001,2.883 "/>
<path fill="#3588A6" d="M44.674,31.856c0,1.849-1.496,3.345-3.344,3.345l-30.741,0.468c-1.182,0-2.861,1.127-2.803,3.119
	c0.072,2.483,1.475,3.091,2.657,3.091l31.199-0.028c0,0,2.297-0.062,2.339,1.478c0.037,1.358-0.626,1.941-4.244,1.894l-29.264-0.034
	c-1.561-0.028-5.509-1.523-5.546-6.86c0,0,0.174-2.931,2.953-4.423c1.825-0.981,3.739-1.04,3.739-1.04H39.43
	C39.43,32.864,44.08,32.77,44.674,31.856z"/>
<path fill="#3588A6" d="M30.274,41.856l-19.832,0.022c-1.182,0-2.584-0.607-2.657-3.091c-0.058-1.992,1.621-3.119,2.803-3.119
	l20.667-0.392c0.021-0.473,0.034-0.947,0.034-1.427c0-14.385-9.542-26.536-22.64-30.481C7.782,3.973,7.211,4.975,7.211,6.112
	l-3.344,25.22c0,0-0.56,4.439-0.542,6.951c0.042,5.929,4.379,6.913,6.114,6.948h19.748C29.608,44.133,29.976,43.01,30.274,41.856z"
	/>
<path fill="#C8691C" d="M23.66,13.183c-2.462-2.882-5.429-5.319-8.766-7.174l-0.969,10.94l4.905-1.732l5.078,1.848L23.66,13.183z"/>
<path fill="#939598" d="M42.262,37.422c0,0-13.517,1.019-18.237,0.88l18.324,0.496c0,0-0.059-0.783-0.052-0.608
	C42.302,38.362,42.262,37.422,42.262,37.422z"/>
</svg>
