<?xml version="1.0" encoding="utf-8"?>
<svg version="1.1"
	 xmlns="http://www.w3.org/2000/svg" xmlns:xlink="http://www.w3.org/1999/xlink"
	 x="0px" y="0px" width="48px" height="48px" viewBox="0 0 48 48">
<defs>
</defs>
<path fill="#3588A6" d="M45.19,44.273c0,0.499-0.404,0.902-0.902,0.902H3.731c-0.498,0-0.902-0.403-0.902-0.902L2.809,3.726
	c0-0.499,0.404-0.901,0.902-0.901h40.557c0.498,0,0.902,0.403,0.902,0.901L45.19,44.273z"/>
<path fill="#52CAF5" d="M2.809,5.591l0.02,38.682c0,0.499,0.404,0.902,0.902,0.902h22.974C28.21,26.873,13.704,8.828,2.809,5.591z"
	/>
<path fill="#FFFFFF" d="M6.55,28.509c1.585,0,1.812-0.883,1.833-1.676c0-0.635-0.089-1.271-0.18-1.879
	c-0.091-0.658-0.182-1.292-0.182-1.903c0-2.083,1.382-2.967,3.307-2.967h0.453v1.247h-0.385c-1.336,0.022-1.811,0.725-1.811,1.948
	c0,0.519,0.089,1.062,0.158,1.606c0.09,0.566,0.181,1.108,0.181,1.721c0.022,1.45-0.634,2.174-1.653,2.445v0.047
	c1.019,0.271,1.653,1.019,1.653,2.469c0,0.61-0.091,1.177-0.181,1.741c-0.069,0.545-0.158,1.089-0.158,1.633
	c0,1.268,0.543,1.947,1.811,1.972h0.385v1.244h-0.476c-1.857,0-3.284-0.814-3.284-3.104c0-0.612,0.091-1.243,0.204-1.856
	c0.068-0.635,0.158-1.246,0.158-1.834c0-0.725-0.226-1.7-1.833-1.7V28.509z"/>
<path fill="#D1D3D4" d="M41.481,29.662c-1.607,0-1.834,0.976-1.834,1.7c0,0.588,0.09,1.199,0.158,1.834
	c0.112,0.613,0.204,1.244,0.204,1.856c0,2.289-1.427,3.104-3.285,3.104h-0.476v-1.244h0.386c1.269-0.024,1.812-0.704,1.812-1.972
	c0-0.544-0.09-1.088-0.157-1.633c-0.091-0.564-0.183-1.131-0.183-1.741c0-1.45,0.635-2.198,1.653-2.469v-0.047
	c-1.019-0.271-1.675-0.995-1.653-2.445c0-0.612,0.092-1.154,0.183-1.721c0.067-0.544,0.157-1.088,0.157-1.606
	c0-1.224-0.477-1.926-1.812-1.948h-0.386v-1.247h0.454c1.925,0,3.307,0.884,3.307,2.967c0,0.611-0.092,1.245-0.182,1.903
	c-0.091,0.609-0.181,1.245-0.181,1.879c0.023,0.793,0.248,1.676,1.834,1.676V29.662z"/>
<rect x="13.196" y="8.911" fill="#C8691C" width="22.219" height="30.213"/>
<path fill="#F79523" d="M13.187,12.335l0.009,26.789h13.498C25.966,29.557,18.995,18.549,13.187,12.335z"/>
<path fill="#FFFFFF" d="M21.056,18.583c-0.365,0.176-1.175,0.446-2.208,0.446c-2.32,0-3.83-1.574-3.83-3.924
	c0-2.367,1.621-4.098,4.131-4.098c0.827,0,1.558,0.206,1.938,0.413l-0.318,1.064c-0.333-0.175-0.857-0.365-1.62-0.365
	c-1.763,0-2.716,1.318-2.716,2.905c0,1.78,1.145,2.876,2.668,2.876c0.795,0,1.32-0.189,1.718-0.365L21.056,18.583z"/>
<path fill="#FFFFFF" d="M22.506,17.44c0.429,0.253,1.16,0.54,1.859,0.54c1,0,1.478-0.491,1.478-1.144
	c0-0.667-0.398-1.016-1.414-1.398c-1.399-0.509-2.05-1.254-2.05-2.177c0-1.239,1.016-2.255,2.652-2.255
	c0.778,0,1.46,0.206,1.874,0.477l-0.334,1.016c-0.299-0.19-0.854-0.46-1.572-0.46c-0.826,0-1.269,0.476-1.269,1.048
	c0,0.636,0.443,0.922,1.442,1.318c1.318,0.493,2.019,1.161,2.019,2.303c0,1.366-1.063,2.32-2.859,2.32
	c-0.842,0-1.62-0.223-2.16-0.542L22.506,17.44z"/>
<path fill="#FFFFFF" d="M28.8,17.44c0.429,0.253,1.161,0.54,1.859,0.54c1,0,1.479-0.491,1.479-1.144c0-0.667-0.4-1.016-1.417-1.398
	c-1.396-0.509-2.047-1.254-2.047-2.177c0-1.239,1.014-2.255,2.652-2.255c0.777,0,1.459,0.206,1.871,0.477l-0.331,1.016
	c-0.301-0.19-0.858-0.46-1.572-0.46c-0.825,0-1.271,0.476-1.271,1.048c0,0.636,0.446,0.922,1.447,1.318
	c1.315,0.493,2.018,1.161,2.018,2.303c0,1.366-1.065,2.32-2.86,2.32c-0.842,0-1.621-0.223-2.16-0.542L28.8,17.44z"/>
<rect x="18.462" y="22.553" fill="#D1D3D4" width="10.07" height="2.043"/>
<rect x="18.462" y="28.054" fill="#D1D3D4" width="10.07" height="2.042"/>
<rect x="18.462" y="33.554" fill="#D1D3D4" width="10.07" height="2.043"/>
<path fill="#FFFFFF" d="M25.647,33.562l-7.186-0.008v2.043l7.685-0.007C26.023,34.903,25.812,34.237,25.647,33.562z"/>
<path fill="#FFFFFF" d="M23.621,28.079l-5.159-0.025v2.042l6.018,0.028C24.243,29.436,23.891,28.751,23.621,28.079z"/>
<path fill="#FFFFFF" d="M20.767,22.563l-2.305-0.009v2.043l3.509-0.006C21.614,23.896,21.157,23.23,20.767,22.563z"/>
</svg>
