<?xml version="1.0" encoding="utf-8"?>
<svg version="1.1"
	 xmlns="http://www.w3.org/2000/svg" xmlns:xlink="http://www.w3.org/1999/xlink"
	 x="0px" y="0px" width="48px" height="48px" viewBox="0 0 48 48">
<defs>
</defs>
<path fill="#C8691C" d="M25.999,17.92c0-0.263,0-0.263,0-0.263c-0.018-0.283,0.229-0.584,0.546-0.67l1.089-0.291
	c0.322-0.086,0.513-0.417,0.427-0.737l-0.544-2.033c-0.086-0.32-0.418-0.511-0.738-0.425l-1.087,0.292
	c-0.317,0.086-0.71-0.082-0.87-0.372l-0.624-0.979c-0.196-0.267-0.182-0.693,0.03-0.946l0.726-0.863
	c0.211-0.252,0.178-0.634-0.075-0.848l-1.613-1.353c-0.253-0.212-0.635-0.18-0.847,0.074l-0.725,0.863
	c-0.212,0.254-0.632,0.346-0.931,0.207l-1.85-0.671c-0.32-0.087-0.581-0.429-0.581-0.759V7.019c0-0.331-0.27-0.602-0.6-0.602h-2.106
	c-0.331,0-0.601,0.271-0.601,0.602v1.126c0,0.33-0.263,0.667-0.583,0.746l-1.109,0.346c-0.308,0.121-0.716-0.003-0.907-0.273
	l-0.645-0.922c-0.19-0.272-0.566-0.337-0.837-0.149L9.22,9.101C8.949,9.29,8.882,9.667,9.072,9.938l0.646,0.923
	c0.189,0.27,0.167,0.695-0.051,0.945L8.96,12.729c-0.184,0.273-0.59,0.405-0.901,0.292l-1.057-0.385
	c-0.312-0.113-0.658,0.048-0.771,0.36l-0.719,1.978c-0.114,0.31,0.049,0.657,0.359,0.771l1.058,0.385
	c0.311,0.112,0.53,0.475,0.487,0.802c0,0-0.059,0.446-0.059,0.988c0,0.261,0,0.261,0,0.261c0.019,0.283-0.228,0.585-0.545,0.67
	l-1.09,0.292c-0.319,0.085-0.51,0.417-0.425,0.736l0.545,2.034c0.086,0.319,0.417,0.51,0.737,0.425l1.086-0.291
	c0.32-0.086,0.712,0.079,0.872,0.37l0.625,0.979c0.196,0.268,0.181,0.695-0.032,0.948l-0.723,0.862
	c-0.213,0.254-0.179,0.634,0.074,0.847l1.613,1.354c0.252,0.211,0.635,0.179,0.846-0.074l0.725-0.863
	c0.213-0.252,0.632-0.344,0.932-0.205l1.85,0.671c0.319,0.086,0.58,0.429,0.58,0.759v1.126c0,0.33,0.271,0.601,0.601,0.601h2.106
	c0.331,0,0.6-0.271,0.6-0.601v-1.126c0-0.33,0.263-0.666,0.584-0.746l1.108-0.349c0.309-0.117,0.716,0.006,0.906,0.278l0.646,0.919
	c0.189,0.272,0.566,0.339,0.837,0.147l1.724-1.206c0.271-0.19,0.336-0.567,0.147-0.838l-0.645-0.921
	c-0.191-0.273-0.168-0.698,0.05-0.946l0.707-0.922c0.184-0.275,0.588-0.407,0.9-0.292l1.059,0.383
	c0.31,0.114,0.656-0.048,0.771-0.358l0.721-1.978c0.112-0.31-0.05-0.657-0.359-0.771l-1.059-0.385
	c-0.312-0.114-0.53-0.475-0.487-0.803C25.942,18.905,25.999,18.459,25.999,17.92z M16.679,24.775c-3.787,0-6.857-3.069-6.857-6.855
	c0-3.788,3.07-6.858,6.857-6.858c3.786,0,6.855,3.07,6.855,6.858C23.535,21.706,20.465,24.775,16.679,24.775z"/>
<path fill="#F79523" d="M41.05,33.083c0-0.183,0-0.183,0-0.183c-0.014-0.199,0.16-0.408,0.384-0.47l0.761-0.203
	c0.226-0.06,0.359-0.293,0.3-0.515l-0.382-1.423c-0.062-0.226-0.293-0.359-0.515-0.302l-0.763,0.205
	c-0.224,0.06-0.498-0.058-0.609-0.259l-0.437-0.687c-0.136-0.187-0.127-0.484,0.022-0.662l0.507-0.604
	c0.147-0.179,0.125-0.445-0.054-0.595l-1.128-0.947c-0.179-0.147-0.445-0.125-0.593,0.054l-0.509,0.604
	c-0.147,0.177-0.44,0.242-0.651,0.144l-1.297-0.47c-0.221-0.062-0.405-0.299-0.405-0.531v-0.789c0-0.232-0.189-0.421-0.419-0.421
	h-1.475c-0.231,0-0.422,0.188-0.422,0.421v0.789c0,0.232-0.183,0.466-0.408,0.523l-0.775,0.242
	c-0.216,0.084-0.503-0.003-0.634-0.195l-0.453-0.644c-0.131-0.191-0.396-0.236-0.587-0.103l-1.208,0.845
	c-0.188,0.133-0.235,0.397-0.1,0.586l0.451,0.646c0.133,0.19,0.116,0.486-0.035,0.662l-0.494,0.646
	c-0.132,0.19-0.414,0.283-0.634,0.205l-0.74-0.271c-0.216-0.078-0.46,0.034-0.54,0.252l-0.504,1.384
	c-0.078,0.218,0.035,0.46,0.254,0.54l0.74,0.271c0.218,0.078,0.371,0.33,0.343,0.56c0,0-0.043,0.312-0.043,0.691
	c0,0.185,0,0.185,0,0.185c0.015,0.199-0.158,0.41-0.382,0.47l-0.763,0.203c-0.224,0.06-0.358,0.291-0.297,0.515l0.379,1.425
	c0.062,0.224,0.293,0.355,0.517,0.296l0.759-0.201c0.226-0.06,0.501,0.058,0.613,0.256l0.435,0.689
	c0.14,0.185,0.128,0.484-0.021,0.662l-0.506,0.604c-0.147,0.178-0.127,0.444,0.051,0.59l1.13,0.95
	c0.177,0.149,0.443,0.125,0.593-0.054l0.507-0.603c0.147-0.179,0.443-0.242,0.652-0.144l1.294,0.468
	c0.224,0.063,0.406,0.301,0.406,0.53v0.79c0,0.231,0.19,0.42,0.422,0.42h1.475c0.229,0,0.419-0.188,0.419-0.42v-0.79
	c0-0.229,0.185-0.465,0.41-0.521l0.774-0.244c0.218-0.084,0.503,0.002,0.634,0.193l0.453,0.646c0.132,0.19,0.398,0.238,0.587,0.103
	l1.206-0.845c0.19-0.132,0.237-0.396,0.104-0.585l-0.453-0.647c-0.132-0.188-0.117-0.486,0.037-0.658l0.494-0.648
	c0.129-0.192,0.412-0.285,0.629-0.205l0.743,0.269c0.217,0.08,0.459-0.032,0.539-0.25l0.502-1.387
	c0.082-0.215-0.032-0.459-0.25-0.539l-0.742-0.269c-0.218-0.078-0.369-0.33-0.341-0.562C41.009,33.774,41.05,33.462,41.05,33.083z
	 M34.524,37.884c-2.651,0-4.799-2.149-4.799-4.801s2.147-4.799,4.799-4.799c2.649,0,4.799,2.147,4.799,4.799
	S37.174,37.884,34.524,37.884z"/>
<path fill="#BCBEC0" d="M38.727,18.644c0-0.13,0-0.13,0-0.13c-0.01-0.139,0.11-0.287,0.269-0.328l0.533-0.144
	c0.158-0.041,0.252-0.205,0.211-0.363l-0.269-0.999c-0.041-0.156-0.203-0.25-0.36-0.209l-0.535,0.143
	c-0.156,0.042-0.349-0.04-0.429-0.182l-0.306-0.482c-0.097-0.131-0.088-0.341,0.015-0.465l0.356-0.424
	c0.104-0.124,0.088-0.311-0.037-0.416l-0.791-0.665c-0.126-0.105-0.314-0.088-0.417,0.036l-0.356,0.425
	c-0.104,0.125-0.312,0.169-0.457,0.102l-0.911-0.33c-0.155-0.044-0.283-0.21-0.283-0.374v-0.553c0-0.163-0.133-0.296-0.297-0.296
	h-1.034c-0.164,0-0.295,0.133-0.295,0.296v0.553c0,0.163-0.129,0.328-0.285,0.366l-0.548,0.17c-0.149,0.06-0.351-0.001-0.444-0.134
	l-0.318-0.453c-0.09-0.133-0.276-0.166-0.41-0.072L30.48,14.31c-0.134,0.093-0.166,0.279-0.072,0.411l0.316,0.454
	c0.092,0.133,0.082,0.341-0.024,0.464l-0.349,0.453c-0.089,0.134-0.287,0.199-0.441,0.144l-0.521-0.19
	c-0.152-0.055-0.322,0.024-0.38,0.177l-0.353,0.972c-0.058,0.152,0.024,0.323,0.177,0.379l0.521,0.189
	c0.151,0.055,0.259,0.233,0.24,0.395c0,0-0.031,0.219-0.031,0.485c0,0.127,0,0.127,0,0.127c0.011,0.141-0.11,0.289-0.267,0.33
	l-0.537,0.143c-0.156,0.042-0.25,0.205-0.207,0.362l0.267,1c0.043,0.156,0.205,0.25,0.363,0.208l0.533-0.143
	c0.157-0.042,0.351,0.04,0.429,0.183l0.308,0.48c0.094,0.132,0.088,0.342-0.017,0.467l-0.355,0.422
	c-0.104,0.125-0.088,0.312,0.035,0.417l0.794,0.664c0.125,0.104,0.312,0.088,0.416-0.037l0.354-0.423
	c0.105-0.125,0.313-0.171,0.46-0.101l0.908,0.327c0.156,0.044,0.285,0.211,0.285,0.375V24c0,0.163,0.131,0.296,0.295,0.296h1.034
	c0.164,0,0.297-0.133,0.297-0.296v-0.553c0-0.164,0.13-0.328,0.285-0.368l0.544-0.169c0.153-0.06,0.353,0.002,0.447,0.134
	l0.315,0.453c0.095,0.134,0.279,0.165,0.414,0.073l0.847-0.592c0.132-0.095,0.167-0.28,0.072-0.413l-0.318-0.454
	c-0.092-0.132-0.082-0.342,0.027-0.465l0.347-0.453c0.09-0.134,0.289-0.199,0.442-0.143l0.52,0.188
	c0.151,0.056,0.323-0.023,0.377-0.177l0.356-0.97c0.054-0.154-0.024-0.324-0.176-0.381l-0.521-0.187
	c-0.153-0.057-0.262-0.234-0.239-0.396C38.698,19.127,38.727,18.907,38.727,18.644z M34.146,22.012c-1.86,0-3.37-1.507-3.37-3.368
	c0-1.863,1.51-3.37,3.37-3.37c1.861,0,3.369,1.507,3.369,3.37C37.515,20.505,36.007,22.012,34.146,22.012z"/>
<path fill="#52CAF5" d="M1.702,1.635v44.733l44.596-0.013V1.623L1.702,1.635z M44.409,44.577L3.59,44.59V3.411l40.819-0.012V44.577z
	"/>
<path fill="#F79523" d="M24.249,11.47l0.705-0.838c0.211-0.252,0.178-0.634-0.075-0.848l-1.613-1.353
	c-0.253-0.212-0.635-0.18-0.847,0.074l-0.725,0.863c-0.093,0.112-0.229,0.185-0.374,0.229C22.334,10.165,23.312,10.792,24.249,11.47
	z"/>
<path fill="#F79523" d="M27.619,14.308l-0.103-0.383c-0.086-0.32-0.418-0.511-0.738-0.425l-0.012,0.003
	C27.058,13.765,27.339,14.035,27.619,14.308z"/>
<path fill="#F79523" d="M18.332,8.129V7.019c0-0.331-0.27-0.602-0.6-0.602h-2.106c-0.314,0-0.567,0.248-0.592,0.555
	C16.162,7.297,17.264,7.679,18.332,8.129z"/>
<path fill="#3588A6" d="M33.655,44.6L3.59,44.59V5.041C2.953,5.149,2.324,5.278,1.702,5.429v40.939l31.2,0.01
	C33.173,45.796,33.423,45.203,33.655,44.6z"/>
<path fill="#C8691C" d="M34.524,37.884c-2.651,0-4.799-2.149-4.799-4.801s2.147-4.799,4.799-4.799c0.427,0,0.833,0.073,1.227,0.179
	c-0.291-1.174-0.654-2.317-1.081-3.432h-0.882c-0.231,0-0.422,0.188-0.422,0.421v0.789c0,0.232-0.183,0.466-0.408,0.523
	l-0.775,0.242c-0.216,0.084-0.503-0.003-0.634-0.195l-0.453-0.644c-0.131-0.191-0.396-0.236-0.587-0.103l-1.208,0.845
	c-0.188,0.133-0.235,0.397-0.1,0.586l0.451,0.646c0.133,0.19,0.116,0.486-0.035,0.662l-0.494,0.646
	c-0.132,0.19-0.414,0.283-0.634,0.205l-0.74-0.271c-0.216-0.078-0.46,0.034-0.54,0.252l-0.504,1.384
	c-0.078,0.218,0.035,0.46,0.254,0.54l0.74,0.271c0.218,0.078,0.371,0.33,0.343,0.56c0,0-0.043,0.312-0.043,0.691
	c0,0.185,0,0.185,0,0.185c0.015,0.199-0.158,0.41-0.382,0.47l-0.763,0.203c-0.224,0.06-0.358,0.291-0.297,0.515l0.379,1.425
	c0.062,0.224,0.293,0.355,0.517,0.296l0.759-0.201c0.226-0.06,0.501,0.058,0.613,0.256l0.435,0.689
	c0.14,0.185,0.128,0.484-0.021,0.662l-0.506,0.604c-0.147,0.178-0.127,0.444,0.051,0.59l1.13,0.95
	c0.177,0.149,0.443,0.125,0.593-0.054l0.507-0.603c0.147-0.179,0.443-0.242,0.652-0.144l1.294,0.468
	c0.224,0.063,0.406,0.301,0.406,0.53v0.79c0,0.231,0.19,0.42,0.422,0.42h1.475c0.229,0,0.419-0.188,0.419-0.42v-0.79
	c0-0.229,0.185-0.465,0.41-0.521l0.325-0.103c0.076-0.628,0.138-1.261,0.173-1.901C35.962,37.701,35.267,37.884,34.524,37.884z"/>
<path fill="#939598" d="M33.247,21.876c-1.421-0.395-2.472-1.685-2.472-3.232c0-0.217,0.025-0.427,0.066-0.632
	c-0.499-0.677-1.025-1.329-1.577-1.96c-0.109,0.011-0.212,0.061-0.255,0.172l-0.353,0.972c-0.058,0.152,0.024,0.323,0.177,0.379
	l0.521,0.189c0.151,0.055,0.259,0.233,0.24,0.395c0,0-0.031,0.219-0.031,0.485c0,0.127,0,0.127,0,0.127
	c0.011,0.141-0.11,0.289-0.267,0.33l-0.537,0.143c-0.156,0.042-0.25,0.205-0.207,0.362l0.267,1c0.043,0.156,0.205,0.25,0.363,0.208
	l0.533-0.143c0.157-0.042,0.351,0.04,0.429,0.183l0.308,0.48c0.094,0.132,0.088,0.342-0.017,0.467l-0.355,0.422
	c-0.104,0.125-0.088,0.312,0.035,0.417l0.794,0.664c0.125,0.104,0.312,0.088,0.416-0.037l0.354-0.423
	c0.105-0.125,0.313-0.171,0.46-0.101l0.908,0.327c0.156,0.044,0.285,0.211,0.285,0.375V24c0,0.163,0.131,0.296,0.295,0.296h0.753
	C34.038,23.468,33.659,22.663,33.247,21.876z"/>
</svg>
