<?xml version="1.0" encoding="utf-8"?>
<!-- Generator: Adobe Illustrator 15.0.0, SVG Export Plug-In  -->
<!DOCTYPE svg PUBLIC "-//W3C//DTD SVG 1.1//EN" "http://www.w3.org/Graphics/SVG/1.1/DTD/svg11.dtd" [
	<!ENTITY ns_flows "http://ns.adobe.com/Flows/1.0/">
]>
<svg version="1.1"
	 xmlns="http://www.w3.org/2000/svg" xmlns:xlink="http://www.w3.org/1999/xlink" xmlns:a="http://ns.adobe.com/AdobeSVGViewerExtensions/3.0/"
	 x="0px" y="0px" width="150px" height="160px" viewBox="-7.5 -16.486 150 160" enable-background="new -7.5 -16.486 150 160"
	 xml:space="preserve">
<defs>
</defs>
<path fill="#C8691C" d="M73.127,42.638c0-0.729,0-0.729,0-0.729c-0.055-0.786,0.63-1.624,1.516-1.861l3.025-0.808
	c0.889-0.239,1.421-1.16,1.179-2.049l-1.51-5.646c-0.237-0.888-1.16-1.421-2.046-1.183l-3.02,0.811
	c-0.886,0.238-1.976-0.228-2.42-1.033l-1.733-2.721c-0.544-0.741-0.504-1.923,0.086-2.627l2.013-2.396
	c0.588-0.702,0.495-1.761-0.207-2.354l-4.479-3.758c-0.705-0.591-1.762-0.498-2.354,0.205l-2.011,2.398
	c-0.591,0.704-1.754,0.958-2.586,0.574l-5.138-1.864c-0.889-0.241-1.613-1.191-1.613-2.108v-3.13c0-0.918-0.75-1.671-1.669-1.671
	h-5.848c-0.918,0-1.67,0.753-1.67,1.671v3.13c0,0.917-0.729,1.85-1.621,2.07l-3.078,0.964c-0.857,0.333-1.991-0.011-2.519-0.762
	l-1.792-2.561c-0.526-0.753-1.573-0.938-2.326-0.411l-4.788,3.355c-0.753,0.525-0.938,1.573-0.411,2.325l1.795,2.563
	c0.525,0.751,0.463,1.933-0.143,2.626l-1.963,2.562c-0.512,0.762-1.637,1.129-2.502,0.814l-2.938-1.069
	c-0.865-0.315-1.827,0.133-2.142,0.998l-1.999,5.493c-0.316,0.863,0.134,1.825,0.998,2.141l2.939,1.069
	c0.863,0.313,1.471,1.318,1.352,2.228c0,0-0.162,1.241-0.162,2.744c0,0.725,0,0.725,0,0.725c0.053,0.784-0.631,1.625-1.515,1.861
	l-3.026,0.813c-0.888,0.234-1.419,1.157-1.183,2.043l1.515,5.651c0.237,0.886,1.159,1.418,2.046,1.18l3.017-0.807
	c0.887-0.238,1.975,0.219,2.419,1.026l1.734,2.72c0.543,0.746,0.505,1.931-0.087,2.633l-2.008,2.396
	c-0.591,0.703-0.498,1.76,0.206,2.351l4.479,3.758c0.703,0.586,1.763,0.496,2.352-0.207l2.011-2.396
	c0.591-0.701,1.756-0.959,2.586-0.566l5.139,1.857c0.887,0.242,1.612,1.191,1.612,2.107v3.127c0,0.918,0.751,1.67,1.67,1.67h5.848
	c0.918,0,1.669-0.752,1.669-1.67v-3.127c0-0.916,0.73-1.852,1.622-2.072l3.079-0.965c0.859-0.33,1.991,0.012,2.516,0.77l1.794,2.555
	c0.525,0.758,1.573,0.941,2.326,0.41l4.788-3.35c0.753-0.531,0.936-1.576,0.411-2.326l-1.792-2.562
	c-0.529-0.757-0.467-1.937,0.137-2.627l1.965-2.56c0.512-0.764,1.636-1.13,2.5-0.813l2.942,1.063
	c0.862,0.317,1.823-0.134,2.139-0.996l1.998-5.495c0.314-0.862-0.135-1.824-0.996-2.139l-2.939-1.069
	c-0.864-0.318-1.473-1.32-1.354-2.231C72.965,45.375,73.127,44.135,73.127,42.638z M47.237,61.68
	c-10.519,0-19.044-8.523-19.044-19.042c0-10.52,8.525-19.045,19.044-19.045c10.514,0,19.04,8.525,19.04,19.045
	C66.277,53.156,57.75,61.68,47.237,61.68z"/>
<path fill="#F79523" d="M114.927,84.752c0-0.508,0-0.508,0-0.508c-0.036-0.551,0.442-1.137,1.063-1.301l2.115-0.568
	c0.626-0.164,0.996-0.813,0.83-1.43l-1.061-3.953c-0.167-0.623-0.813-0.996-1.43-0.832l-2.113,0.568
	c-0.62,0.164-1.385-0.158-1.696-0.721l-1.213-1.906c-0.378-0.52-0.354-1.346,0.062-1.84l1.409-1.674
	c0.411-0.496,0.348-1.236-0.145-1.65l-3.138-2.633c-0.492-0.41-1.234-0.35-1.643,0.146l-1.412,1.68
	c-0.413,0.49-1.229,0.674-1.813,0.396l-3.6-1.301c-0.617-0.17-1.127-0.83-1.127-1.479V63.56c0-0.646-0.524-1.167-1.168-1.167h-4.093
	c-0.646,0-1.171,0.521-1.171,1.167v2.188c0,0.648-0.51,1.295-1.133,1.455l-2.154,0.672c-0.599,0.23-1.394-0.006-1.763-0.539
	l-1.256-1.791c-0.366-0.525-1.101-0.654-1.628-0.285l-3.355,2.346c-0.524,0.373-0.654,1.105-0.284,1.633l1.257,1.789
	c0.368,0.531,0.323,1.357-0.099,1.84l-1.375,1.797c-0.36,0.531-1.146,0.787-1.753,0.568l-2.057-0.752
	c-0.603-0.215-1.275,0.098-1.5,0.703l-1.4,3.844c-0.216,0.604,0.099,1.275,0.704,1.496l2.056,0.752
	c0.602,0.219,1.029,0.922,0.95,1.559c0,0-0.116,0.867-0.116,1.918c0,0.514,0,0.514,0,0.514c0.037,0.549-0.44,1.137-1.063,1.301
	l-2.117,0.568c-0.62,0.164-0.993,0.809-0.824,1.432l1.057,3.953c0.167,0.623,0.81,0.988,1.434,0.824l2.106-0.563
	c0.623-0.166,1.389,0.16,1.7,0.715l1.212,1.912c0.382,0.514,0.353,1.346-0.058,1.84l-1.411,1.676
	c-0.41,0.494-0.349,1.232,0.146,1.643l3.134,2.633c0.492,0.416,1.235,0.35,1.651-0.146l1.404-1.674
	c0.413-0.494,1.231-0.672,1.812-0.396l3.597,1.295c0.62,0.176,1.127,0.838,1.127,1.479v2.193c0,0.643,0.525,1.168,1.171,1.168h4.093
	c0.644,0,1.168-0.525,1.168-1.168v-2.193c0-0.641,0.513-1.295,1.137-1.447l2.154-0.68c0.605-0.232,1.393,0.006,1.763,0.539
	l1.252,1.789c0.37,0.533,1.106,0.66,1.632,0.287l3.352-2.346c0.529-0.367,0.658-1.1,0.288-1.625l-1.256-1.797
	c-0.369-0.525-0.325-1.35,0.101-1.834l1.371-1.797c0.361-0.537,1.147-0.795,1.751-0.568l2.06,0.746
	c0.605,0.221,1.277-0.09,1.5-0.695l1.396-3.852c0.223-0.598-0.095-1.275-0.696-1.496l-2.059-0.746
	c-0.605-0.219-1.03-0.922-0.945-1.564C114.816,86.67,114.927,85.803,114.927,84.752z M96.804,98.086
	c-7.363,0-13.331-5.971-13.331-13.334s5.968-13.326,13.331-13.326c7.359,0,13.329,5.963,13.329,13.326S104.163,98.086,96.804,98.086
	z"/>
<path fill="#BCBEC0" d="M108.475,44.648c0-0.359,0-0.359,0-0.359c-0.031-0.386,0.306-0.795,0.745-0.911l1.48-0.399
	c0.44-0.113,0.701-0.57,0.585-1.008l-0.742-2.773c-0.117-0.435-0.568-0.698-1.006-0.58l-1.484,0.397
	c-0.435,0.118-0.973-0.11-1.191-0.506l-0.851-1.339c-0.266-0.362-0.244-0.945,0.044-1.29l0.989-1.177
	c0.29-0.348,0.245-0.866-0.104-1.159l-2.2-1.847c-0.346-0.289-0.867-0.244-1.155,0.101l-0.99,1.18
	c-0.289,0.347-0.863,0.471-1.271,0.283l-2.525-0.917c-0.435-0.119-0.792-0.585-0.792-1.036V29.77c0-0.453-0.367-0.821-0.822-0.821
	h-2.871c-0.454,0-0.823,0.368-0.823,0.821v1.538c0,0.45-0.356,0.909-0.791,1.018l-1.519,0.473c-0.418,0.164-0.975-0.004-1.236-0.374
	l-0.882-1.259c-0.256-0.369-0.77-0.459-1.142-0.201l-2.354,1.648c-0.368,0.259-0.461,0.775-0.201,1.144l0.88,1.26
	c0.26,0.37,0.229,0.949-0.067,1.29l-0.965,1.258c-0.25,0.375-0.804,0.555-1.229,0.4l-1.444-0.526
	c-0.422-0.155-0.896,0.065-1.055,0.492l-0.981,2.7c-0.154,0.422,0.07,0.895,0.492,1.051l1.442,0.525
	c0.428,0.153,0.725,0.647,0.666,1.096c0,0-0.079,0.608-0.079,1.347c0,0.355,0,0.355,0,0.355c0.027,0.391-0.309,0.801-0.745,0.917
	l-1.488,0.396c-0.434,0.117-0.696,0.568-0.577,1.005l0.738,2.778c0.122,0.434,0.572,0.696,1.01,0.58l1.48-0.396
	c0.437-0.117,0.972,0.108,1.191,0.507l0.853,1.332c0.266,0.367,0.245,0.95-0.043,1.296l-0.985,1.173
	c-0.294,0.348-0.245,0.868,0.097,1.16l2.199,1.846c0.35,0.288,0.871,0.244,1.159-0.104l0.986-1.174
	c0.294-0.347,0.865-0.476,1.273-0.28l2.528,0.911c0.431,0.118,0.787,0.586,0.787,1.038v1.537c0,0.449,0.369,0.822,0.823,0.822h2.871
	c0.455,0,0.822-0.373,0.822-0.822v-1.537c0-0.452,0.36-0.91,0.795-1.02l1.512-0.471c0.425-0.164,0.981,0.006,1.237,0.373l0.88,1.26
	c0.263,0.371,0.775,0.458,1.148,0.201l2.353-1.645c0.367-0.263,0.461-0.775,0.198-1.146l-0.879-1.261
	c-0.257-0.367-0.23-0.947,0.069-1.29l0.967-1.258c0.247-0.373,0.804-0.553,1.227-0.397l1.442,0.522
	c0.425,0.155,0.899-0.064,1.051-0.492l0.987-2.695c0.153-0.428-0.067-0.899-0.492-1.057l-1.441-0.519
	c-0.428-0.159-0.728-0.651-0.667-1.1C108.394,45.993,108.475,45.382,108.475,44.648z M95.749,54.003
	c-5.167,0-9.355-4.186-9.355-9.355c0-5.171,4.188-9.358,9.355-9.358c5.17,0,9.358,4.187,9.358,9.358
	C105.107,49.818,100.919,54.003,95.749,54.003z"/>
<path fill="#52CAF5" d="M0,0v127.028h135V0H0z M129.375,121.733H5.625V5.292h123.75V121.733z"/>
<path fill="#F79523" d="M68.262,24.725l1.956-2.329c0.588-0.702,0.495-1.761-0.207-2.354l-4.479-3.758
	c-0.705-0.591-1.762-0.498-2.354,0.205l-2.011,2.398c-0.26,0.31-0.637,0.513-1.04,0.634C62.944,21.1,65.658,22.839,68.262,24.725z"
	/>
<path fill="#F79523" d="M77.621,32.607l-0.284-1.062c-0.237-0.888-1.16-1.421-2.046-1.183l-0.034,0.009
	C76.063,31.098,76.846,31.85,77.621,32.607z"/>
<path fill="#F79523" d="M51.828,15.447V12.36c0-0.918-0.75-1.671-1.669-1.671h-5.848c-0.872,0-1.573,0.688-1.643,1.541
	C45.799,13.134,48.862,14.196,51.828,15.447z"/>
<path fill="#3588A6" d="M97.197,121.733H5.625V10.149C3.728,10.471,1.851,10.855,0,11.303v115.725h94.954
	C95.761,125.295,96.51,123.53,97.197,121.733z"/>
<path fill="#C8691C" d="M96.804,98.086c-7.363,0-13.331-5.971-13.331-13.334s5.968-13.326,13.331-13.326
	c1.185,0,2.313,0.203,3.405,0.494c-0.81-3.258-1.817-6.436-3-9.528h-2.453c-0.646,0-1.171,0.521-1.171,1.167v2.188
	c0,0.648-0.51,1.295-1.133,1.455l-2.154,0.672c-0.599,0.23-1.394-0.006-1.763-0.539l-1.256-1.791
	c-0.366-0.525-1.101-0.654-1.628-0.285l-3.355,2.346c-0.524,0.373-0.654,1.105-0.284,1.633l1.257,1.789
	c0.368,0.531,0.323,1.357-0.099,1.84l-1.375,1.797c-0.36,0.531-1.146,0.787-1.753,0.568l-2.057-0.752
	c-0.603-0.215-1.275,0.098-1.5,0.703l-1.4,3.844c-0.216,0.604,0.099,1.275,0.704,1.496l2.056,0.752
	c0.602,0.219,1.029,0.922,0.95,1.559c0,0-0.116,0.867-0.116,1.918c0,0.514,0,0.514,0,0.514c0.037,0.549-0.44,1.137-1.063,1.301
	l-2.117,0.568c-0.62,0.164-0.993,0.809-0.824,1.432l1.057,3.953c0.167,0.623,0.81,0.988,1.434,0.824l2.106-0.563
	c0.623-0.166,1.389,0.16,1.7,0.715l1.212,1.912c0.382,0.514,0.353,1.346-0.058,1.84l-1.411,1.676
	c-0.41,0.494-0.349,1.232,0.146,1.643l3.134,2.633c0.492,0.416,1.235,0.35,1.651-0.146l1.404-1.674
	c0.413-0.494,1.231-0.672,1.812-0.396l3.597,1.295c0.62,0.176,1.127,0.838,1.127,1.479v2.193c0,0.643,0.525,1.168,1.171,1.168h4.093
	c0.644,0,1.168-0.525,1.168-1.168v-2.193c0-0.641,0.513-1.295,1.137-1.447l0.907-0.289c0.211-1.744,0.379-3.5,0.478-5.277
	C100.797,97.579,98.865,98.086,96.804,98.086z"/>
<path fill="#939598" d="M93.256,53.625c-3.948-1.094-6.862-4.676-6.862-8.977c0-0.6,0.067-1.186,0.178-1.753
	c-1.383-1.879-2.845-3.689-4.377-5.443c-0.306,0.028-0.592,0.168-0.708,0.478l-0.981,2.7c-0.154,0.422,0.07,0.895,0.492,1.051
	l1.442,0.525c0.428,0.153,0.725,0.647,0.666,1.096c0,0-0.079,0.608-0.079,1.347c0,0.355,0,0.355,0,0.355
	c0.027,0.391-0.309,0.801-0.745,0.917l-1.488,0.396c-0.434,0.117-0.696,0.568-0.577,1.005l0.738,2.778
	c0.122,0.434,0.572,0.696,1.01,0.58l1.48-0.396c0.437-0.117,0.972,0.108,1.191,0.507l0.853,1.332
	c0.266,0.367,0.245,0.95-0.043,1.296l-0.985,1.173c-0.294,0.348-0.245,0.868,0.097,1.16l2.199,1.846
	c0.35,0.288,0.871,0.244,1.159-0.104l0.986-1.174c0.294-0.347,0.865-0.476,1.273-0.28l2.528,0.911
	c0.431,0.118,0.787,0.586,0.787,1.038v1.537c0,0.449,0.369,0.822,0.823,0.822h2.089C95.452,58.05,94.398,55.812,93.256,53.625z"/>
</svg>
