<?xml version="1.0" encoding="utf-8"?>
<svg version="1.1"
	 xmlns="http://www.w3.org/2000/svg" xmlns:xlink="http://www.w3.org/1999/xlink"
	 x="0px" y="0px" width="48px" height="48px" viewBox="-3.221 -6.458 48 48">
<defs>
</defs>
<polygon fill="#F79523" points="34.279,10.46 8.916,14.902 19.376,0 "/>
<polygon fill="#C8691C" points="34.279,10.46 21.7,12.664 19.376,0 "/>
<polygon fill="#F79523" points="13.313,15.433 15.677,28.929 20.947,28.006 19.188,17.962 25.659,16.829 27.418,26.874 
	32.688,25.951 30.324,12.454 "/>
<polygon fill="#C8691C" points="22.662,17.353 25.659,16.829 27.418,26.874 32.688,25.951 30.324,12.454 22.031,13.907 "/>
<path fill="#52CAF5" d="M43.165,20.906c-3.782,0.223-8.472,5.35-12.102,4.459c-3.631-0.891-4.69-4.682-8.926-4.459
	c-4.236,0.223-8.623,5.35-13.161,4.459c-4.538-0.891-8.471-5.126-8.925-5.349v-2.375c0.454,0.223,4.387,4.458,8.925,5.35
	c4.539,0.89,8.925-4.236,13.161-4.459c4.235-0.223,5.295,3.567,8.926,4.459c3.63,0.89,8.319-4.236,12.102-4.459V20.906z"/>
<path fill="#52CAF5" d="M0.098,19.833c0.454,0.223,4.387,4.457,8.925,5.349c4.539,0.891,8.925-4.236,13.161-4.459
	s5.295,3.567,8.927,4.459c3.629,0.891,8.318-4.236,12.102-4.459l-0.134,22.82L0,43.749L0.098,19.833z"/>
</svg>
