<?xml version="1.0" encoding="utf-8"?>
<svg version="1.1"
	 xmlns="http://www.w3.org/2000/svg" xmlns:xlink="http://www.w3.org/1999/xlink"
	 x="0px" y="0px" width="48px" height="48px" viewBox="0 0 48 48">
<defs>
</defs>
<path fill="#52CAF5" d="M17.717,18.254c0-0.55,0.45-1,1-1h10.095V9.643c0-0.55-0.45-1-1-1H4.569c-0.55,0-1,0.45-1,1v16.301
	c0,0.549,0.45,1,1,1h2.788c0.55,0,1.26,0.367,1.577,0.816l3.524,4.992c0.317,0.451,0.647,0.373,0.733-0.17l0.742-4.652
	c0.087-0.543,0.607-0.986,1.157-0.986h2.625V18.254z"/>
<path fill="#F79523" d="M44.431,20.896c0-0.55-0.449-1-1-1H21.189c-0.55,0-1,0.45-1,1v16.301c0,0.549,0.45,1,1,1h2.788
	c0.549,0,1.259,0.367,1.576,0.816l3.524,4.992c0.317,0.451,0.647,0.373,0.733-0.17l0.742-4.652c0.087-0.543,0.607-0.986,1.158-0.986
	h11.719c0.551,0,1-0.451,1-1V20.896z"/>
<path fill="#3588A6" d="M28.812,15.369c-2.446-2.813-5.461-5.116-8.871-6.727H4.569c-0.55,0-1,0.45-1,1v16.301c0,0.549,0.45,1,1,1
	h2.788c0.55,0,1.26,0.367,1.577,0.816l3.524,4.992c0.317,0.451,0.647,0.373,0.733-0.17l0.742-4.652
	c0.087-0.543,0.607-0.986,1.157-0.986h2.625v-8.689c0-0.55,0.45-1,1-1h10.095V15.369z"/>
<path fill="#C8691C" d="M20.189,20.896v16.301c0,0.549,0.45,1,1,1h2.788c0.549,0,1.259,0.367,1.576,0.816l3.524,4.992
	c0.317,0.451,0.647,0.373,0.733-0.17l0.742-4.652c0.087-0.543,0.607-0.986,1.158-0.986h3.245c0.315-1.654,0.487-3.357,0.487-5.104
	c0-4.795-1.254-9.294-3.443-13.198H21.189C20.64,19.896,20.189,20.346,20.189,20.896z"/>
<path fill="#D1D3D4" d="M41.121,7.747c0,1.657-1.343,3-3,3H13.83c-1.656,0-3-1.343-3-3V6.7c0-1.657,1.344-3,3-3h24.291
	c1.657,0,3,1.343,3,3V7.747z"/>
<path fill="#BCBEC0" d="M10.883,6.181C10.853,6.35,10.83,6.522,10.83,6.7v1.047c0,1.657,1.344,3,3,3h9.791
	C19.928,8.229,15.578,6.606,10.883,6.181z"/>
<polygon fill="#F79523" points="15.165,4.802 15.888,6.267 17.504,6.501 16.334,7.642 16.61,9.252 15.165,8.492 13.719,9.252 
	13.995,7.642 12.825,6.501 14.441,6.267 "/>
<polygon fill="#F79523" points="20.638,4.898 21.361,6.363 22.978,6.598 21.808,7.739 22.084,9.349 20.638,8.588 19.192,9.349 
	19.468,7.739 18.298,6.598 19.915,6.363 "/>
<polygon fill="#F79523" points="26.111,4.898 26.833,6.363 28.449,6.598 27.28,7.739 27.557,9.349 26.111,8.588 24.665,9.349 
	24.941,7.739 23.771,6.598 25.388,6.363 "/>
<polygon fill="#F79523" points="31.585,4.802 32.307,6.267 33.923,6.502 32.754,7.643 33.03,9.252 31.585,8.492 30.139,9.252 
	30.414,7.643 29.244,6.502 30.86,6.267 "/>
<polygon fill="#939598" points="37.057,4.898 37.779,6.363 39.396,6.598 38.227,7.739 38.503,9.349 37.057,8.588 35.61,9.349 
	35.886,7.739 34.717,6.598 36.333,6.363 "/>
<path fill="#C8691C" d="M15.165,8.492l1.445,0.76l-0.276-1.61l0.296-0.289c-1.169-0.373-2.37-0.669-3.602-0.881l-0.203,0.029
	l1.17,1.141l-0.276,1.61L15.165,8.492z"/>
</svg>
