<?xml version="1.0" encoding="utf-8"?>
<!-- Generator: Adobe Illustrator 15.0.0, SVG Export Plug-In  -->
<!DOCTYPE svg PUBLIC "-//W3C//DTD SVG 1.1//EN" "http://www.w3.org/Graphics/SVG/1.1/DTD/svg11.dtd" [
	<!ENTITY ns_flows "http://ns.adobe.com/Flows/1.0/">
]>
<svg version="1.1"
	 xmlns="http://www.w3.org/2000/svg" xmlns:xlink="http://www.w3.org/1999/xlink" xmlns:a="http://ns.adobe.com/AdobeSVGViewerExtensions/3.0/"
	 x="0px" y="0px" width="150px" height="160px" viewBox="-6.569 -13.632 150 160" enable-background="new -6.569 -13.632 150 160"
	 xml:space="preserve">
<defs>
</defs>
<path fill="#52CAF5" d="M46.251,47.584c0-1.797,1.473-3.27,3.27-3.27h33.006V19.428c0-1.797-1.473-3.269-3.271-3.269H3.269
	C1.472,16.159,0,17.63,0,19.428v53.294c0,1.798,1.472,3.27,3.269,3.27h9.116c1.797,0,4.117,1.201,5.155,2.673l11.523,16.32
	c1.037,1.473,2.117,1.22,2.399-0.555l2.426-15.211c0.282-1.775,1.986-3.228,3.783-3.228h8.58V47.584z"/>
<path fill="#F79523" d="M136.861,56.22c0-1.797-1.468-3.27-3.27-3.27H57.606c-1.798,0-3.27,1.472-3.27,3.27v53.295
	c0,1.795,1.472,3.271,3.27,3.271h9.117c1.795,0,4.116,1.2,5.153,2.67l11.521,16.32c1.039,1.475,2.118,1.219,2.399-0.555
	l2.426-15.212c0.284-1.775,1.985-3.224,3.786-3.224h41.583c1.802,0,3.27-1.476,3.27-3.271V56.22z"/>
<path fill="#3588A6" d="M82.527,38.151c-7.998-9.197-17.856-16.727-29.003-21.992H3.269C1.472,16.159,0,17.63,0,19.428v53.294
	c0,1.798,1.472,3.27,3.269,3.27h9.116c1.797,0,4.117,1.201,5.155,2.673l11.523,16.32c1.037,1.473,2.117,1.22,2.399-0.555
	l2.426-15.211c0.282-1.775,1.986-3.228,3.783-3.228h8.58V47.584c0-1.797,1.473-3.27,3.27-3.27h33.006V38.151z"/>
<path fill="#C8691C" d="M54.336,56.22v53.295c0,1.795,1.472,3.271,3.27,3.271h9.117c1.795,0,4.116,1.2,5.153,2.67l11.521,16.32
	c1.039,1.475,2.118,1.219,2.399-0.555l2.426-15.212c0.284-1.775,1.985-3.224,3.786-3.224h10.61
	c1.031-5.406,1.593-10.977,1.593-16.683c0-15.676-4.1-30.389-11.258-43.152H57.606C55.808,52.951,54.336,54.423,54.336,56.22z"/>
<path fill="#D1D3D4" d="M122.771,13.231c0,5.417-4.389,9.808-9.807,9.808H33.547c-5.417,0-9.809-4.392-9.809-9.808V9.809
	C23.738,4.392,28.13,0,33.547,0h79.417c5.418,0,9.807,4.392,9.807,9.809V13.231z"/>
<path fill="#BCBEC0" d="M23.909,8.11c-0.097,0.554-0.171,1.118-0.171,1.699v3.422c0,5.417,4.392,9.808,9.809,9.808h32.008
	C53.483,14.807,39.261,9.502,23.909,8.11z"/>
<polygon fill="#F79523" points="37.91,3.602 40.273,8.392 45.557,9.158 41.733,12.888 42.636,18.151 37.91,15.665 33.183,18.151 
	34.085,12.888 30.259,9.158 35.546,8.392 "/>
<polygon fill="#F79523" points="55.804,3.917 58.168,8.707 63.452,9.475 59.627,13.204 60.53,18.467 55.804,15.981 51.076,18.467 
	51.977,13.204 48.153,9.475 53.438,8.707 "/>
<polygon fill="#F79523" points="73.698,3.917 76.058,8.707 81.343,9.475 77.521,13.204 78.425,18.467 73.698,15.981 68.971,18.467 
	69.872,13.204 66.048,9.475 71.331,8.707 "/>
<polygon fill="#F79523" points="91.594,3.604 93.953,8.392 99.237,9.161 95.415,12.89 96.32,18.153 91.594,15.667 86.866,18.153 
	87.767,12.89 83.94,9.161 89.226,8.392 "/>
<polygon fill="#939598" points="109.483,3.917 111.846,8.707 117.13,9.475 113.309,13.204 114.212,18.467 109.483,15.981 
	104.755,18.467 105.655,13.204 101.833,9.475 107.117,8.707 "/>
<path fill="#C8691C" d="M37.91,15.665l4.726,2.486l-0.903-5.263l0.968-0.944c-3.822-1.218-7.749-2.188-11.775-2.881l-0.666,0.095
	l3.826,3.73l-0.902,5.263L37.91,15.665z"/>
</svg>
