<?xml version="1.0" encoding="utf-8"?>
<!-- Generator: Adobe Illustrator 15.0.0, SVG Export Plug-In  -->
<!DOCTYPE svg PUBLIC "-//W3C//DTD SVG 1.1//EN" "http://www.w3.org/Graphics/SVG/1.1/DTD/svg11.dtd" [
	<!ENTITY ns_flows "http://ns.adobe.com/Flows/1.0/">
]>
<svg version="1.1"
	 xmlns="http://www.w3.org/2000/svg" xmlns:xlink="http://www.w3.org/1999/xlink" xmlns:a="http://ns.adobe.com/AdobeSVGViewerExtensions/3.0/"
	 x="0px" y="0px" width="150px" height="160px" viewBox="-6.628 -13.77 150 160" enable-background="new -6.628 -13.77 150 160"
	 xml:space="preserve">
<defs>
</defs>
<path fill="#C8691C" d="M118.869,49.341c-7.314-15.118-17.162-11.229-29.672-5.399c-9.925,4.624-22.426,5.924-33.092,3.512
	c-6.441-1.455-13.752-8.837-19.9-8.837c-17.317,0-19.625,13.288-24.532,27.877C5.617,84.505,2.128,102.88,0,121.734
	c0,5.926,4.803,10.727,10.725,10.727c14.966-2.846,6.177-27.707,27.148-27.707c10.166,0,20.332,0,30.499,0s20.333,0,30.503,0
	c20.927,0,12.275,25.273,27.144,27.707c5.926,0,10.726-4.801,10.726-10.727C132.758,97.154,128.749,72.367,118.869,49.341
	C115.985,43.381,118.869,49.341,118.869,49.341z"/>
<path fill="#F79523" d="M17.938,49.416c-2.53,4.829-4.162,10.83-6.265,17.079C5.617,84.505,2.128,102.88,0,121.734
	c0,5.926,4.803,10.727,10.725,10.727c14.966-2.846,6.177-27.707,27.148-27.707c10.166,0,20.332,0,30.499,0s20.333,0,30.503,0
	c20.927,0,12.275,25.273,27.144,27.707c0.566,0,1.11-0.08,1.655-0.168C113.032,85.136,69.601,50.688,17.938,49.416z"/>
<path fill="#D1D3D4" d="M104.723,65.195c0,3.054-2.479,5.533-5.537,5.533l0,0c-3.059,0-5.536-2.479-5.536-5.533l0,0
	c0-3.059,2.478-5.538,5.536-5.538l0,0C102.244,59.657,104.723,62.137,104.723,65.195L104.723,65.195z"/>
<path fill="#D1D3D4" d="M104.723,87.294c0,3.055-2.479,5.533-5.537,5.533l0,0c-3.059,0-5.536-2.479-5.536-5.533l0,0
	c0-3.055,2.478-5.533,5.536-5.533l0,0C102.244,81.761,104.723,84.24,104.723,87.294L104.723,87.294z"/>
<path fill="#D1D3D4" d="M88.14,70.707c3.055,0,5.534,2.479,5.534,5.537l0,0c0,3.059-2.479,5.539-5.534,5.539l0,0
	c-3.058,0-5.538-2.48-5.538-5.539l0,0C82.602,73.185,85.082,70.707,88.14,70.707L88.14,70.707z"/>
<path fill="#D1D3D4" d="M110.239,70.707c3.054,0,5.533,2.479,5.533,5.537l0,0c0,3.059-2.479,5.539-5.533,5.539l0,0
	c-3.059,0-5.537-2.48-5.537-5.539l0,0C104.702,73.185,107.181,70.707,110.239,70.707L110.239,70.707z"/>
<path fill="#F5F5F5" d="M56.436,75.453c0,2.811-2.279,5.09-5.09,5.09H32.511c-2.811,0-5.09-2.279-5.09-5.09l0,0
	c0-2.811,2.279-5.092,5.09-5.092h18.835C54.156,70.361,56.436,72.642,56.436,75.453L56.436,75.453z"/>
<path fill="#F5F5F5" d="M41.928,60.942c2.811,0,5.09,2.28,5.09,5.091v18.835c0,2.811-2.279,5.09-5.09,5.09l0,0
	c-2.81,0-5.091-2.279-5.091-5.09V66.033C36.837,63.223,39.118,60.942,41.928,60.942L41.928,60.942z"/>
<path fill="#F5F5F5" d="M84.501,72.101c-1.154,1.016-1.899,2.486-1.899,4.143c0,3.059,2.48,5.539,5.538,5.539
	c2.102,0,3.91-1.188,4.847-2.92C90.272,76.476,87.428,74.242,84.501,72.101z"/>
<path fill="#F5F5F5" d="M96.708,82.369c-1.806,0.912-3.059,2.764-3.059,4.926c0,3.055,2.478,5.533,5.536,5.533
	c2.066,0,3.848-1.145,4.797-2.82C101.675,87.349,99.245,84.806,96.708,82.369z"/>
<path fill="#3588A6" d="M65.042,48.279c-5.03-4.501-13.684-13.91-9.365-21.324c3.616-6.204,19.042-14.429,14.39-21.921
	c0.774-0.689,1.55-1.377,2.324-2.067c4.096,9.306-5.244,15.82-11.327,21.385c-10.373,9.487,4.482,18.51,7.604,24.357
	c0.1,0.186-3.29-0.15-3.29-0.15L65.042,48.279z"/>
<path fill="#3588A6" d="M68.311,50.552c-0.902,0-3.108-0.214-3.108-0.214l-0.549-0.054l-0.755-0.631
	c-4.681-4.186-14.903-14.78-9.767-23.597c1.34-2.299,3.938-4.667,6.687-7.174c5.888-5.367,9.887-9.434,7.729-12.906l-0.795-1.278
	L73.036,0l0.992,2.249c4.147,9.426-3.78,16.389-9.568,21.475c-0.756,0.663-1.494,1.313-2.191,1.95
	c-1.963,1.796-2.957,3.585-3.04,5.468c-0.165,3.854,3.469,7.807,6.675,11.294c1.768,1.92,3.436,3.737,4.341,5.432l0.476,0.893
	l-0.519,0.881C69.657,50.552,68.68,50.552,68.311,50.552z"/>
<path fill="#C8691C" d="M71.635,48.212c0,1.09-0.886,1.976-1.977,1.976h-7.279c-1.091,0-1.976-0.885-1.976-1.976l0,0
	c0-1.09,0.885-1.976,1.976-1.976h7.279C70.749,46.236,71.635,47.122,71.635,48.212L71.635,48.212z"/>
</svg>
