<?xml version="1.0" encoding="utf-8"?>
<svg version="1.1"
	 xmlns="http://www.w3.org/2000/svg" xmlns:xlink="http://www.w3.org/1999/xlink"
	 x="0px" y="0px" width="48px" height="48px" viewBox="0 0 48 48">
<defs>
</defs>
<path fill="#C8691C" d="M39.608,18.779c-2.26-4.673-5.306-3.471-9.171-1.668c-3.068,1.43-6.932,1.832-10.229,1.085
	c-1.991-0.45-4.251-2.732-6.152-2.732c-5.353,0-6.065,4.107-7.582,8.617c-1.872,5.567-2.951,12.297-3.608,18.125
	c0,1.83,1.484,3.314,3.315,3.314c4.625-0.879,1.909-9.613,8.392-9.613c3.142,0,6.285,0,9.427,0c3.142,0,6.283,0,9.43,0
	c6.466,0,3.794,8.861,8.39,9.613c1.831,0,3.313-1.484,3.313-3.314C43.9,34.608,42.662,25.896,39.608,18.779
	C38.719,16.938,39.608,18.779,39.608,18.779z"/>
<path fill="#F79523" d="M8.411,18.802c-0.782,1.493-1.287,3.348-1.936,5.279c-1.872,5.567-2.951,12.297-3.608,18.125
	c0,1.83,1.484,3.314,3.315,3.314c4.625-0.879,1.909-9.613,8.392-9.613c3.142,0,6.285,0,9.427,0c3.142,0,6.283,0,9.43,0
	c6.466,0,3.794,8.861,8.39,9.613c0.174,0,0.343-0.025,0.511-0.052C37.804,30.894,24.38,19.196,8.411,18.802z"/>
<path fill="#D1D3D4" d="M35.236,23.68c0,0.944-0.768,1.711-1.713,1.711l0,0c-0.945,0-1.71-0.767-1.71-1.711l0,0
	c0-0.945,0.765-1.711,1.71-1.711l0,0C34.469,21.968,35.236,22.735,35.236,23.68L35.236,23.68z"/>
<path fill="#D1D3D4" d="M35.236,30.511c0,0.943-0.768,1.71-1.713,1.71l0,0c-0.945,0-1.71-0.767-1.71-1.71l0,0
	c0-0.944,0.765-1.71,1.71-1.71l0,0C34.469,28.801,35.236,29.566,35.236,30.511L35.236,30.511z"/>
<path fill="#D1D3D4" d="M30.109,25.383c0.945,0,1.71,0.768,1.71,1.713l0,0c0,0.945-0.765,1.711-1.71,1.711l0,0
	c-0.945,0-1.711-0.766-1.711-1.711l0,0C28.398,26.15,29.164,25.383,30.109,25.383L30.109,25.383z"/>
<path fill="#D1D3D4" d="M36.94,25.383c0.945,0,1.71,0.768,1.71,1.713l0,0c0,0.945-0.765,1.711-1.71,1.711l0,0
	c-0.945,0-1.71-0.766-1.71-1.711l0,0C35.23,26.15,35.995,25.383,36.94,25.383L36.94,25.383z"/>
<path fill="#F5F5F5" d="M20.311,26.851c0,0.868-0.705,1.573-1.574,1.573h-5.821c-0.869,0-1.574-0.705-1.574-1.573l0,0
	c0-0.868,0.705-1.574,1.574-1.574h5.821C19.605,25.276,20.311,25.982,20.311,26.851L20.311,26.851z"/>
<path fill="#F5F5F5" d="M15.826,22.366c0.869,0,1.574,0.705,1.574,1.573v5.823c0,0.867-0.705,1.572-1.574,1.572l0,0
	c-0.869,0-1.573-0.705-1.573-1.572v-5.823C14.252,23.07,14.957,22.366,15.826,22.366L15.826,22.366z"/>
<path fill="#F5F5F5" d="M28.985,25.813c-0.356,0.314-0.587,0.77-0.587,1.282c0,0.945,0.766,1.711,1.711,1.711
	c0.65,0,1.21-0.367,1.499-0.901C30.77,27.166,29.89,26.476,28.985,25.813z"/>
<path fill="#F5F5F5" d="M32.757,28.988c-0.556,0.281-0.943,0.854-0.943,1.522c0,0.943,0.765,1.71,1.71,1.71
	c0.641,0,1.189-0.354,1.483-0.871C34.293,30.527,33.542,29.741,32.757,28.988z"/>
<path fill="#3588A6" d="M22.971,18.451c-1.556-1.392-4.23-4.299-2.896-6.591c1.118-1.918,5.885-5.51,4.448-7.826
	c0.239-0.213,0.479-0.426,0.72-0.639c1.265,2.876-1.622,5.939-3.502,7.66c-3.207,2.933,1.385,5.721,2.35,7.529
	c0.031,0.057-1.017-0.047-1.017-0.047L22.971,18.451z"/>
<path fill="#3588A6" d="M23.981,19.154c-0.278,0-0.961-0.066-0.961-0.066l-0.169-0.017l-0.234-0.195
	c-1.446-1.294-4.606-4.568-3.019-7.294c0.414-0.71,1.217-1.442,2.067-2.217c1.82-1.659,3.056-3.966,2.389-5.039l-0.246-0.395
	l1.633-1.453l0.308,0.695c1.282,2.914-1.169,6.115-2.958,7.688c-0.233,0.206-0.462,0.406-0.677,0.603
	c-0.606,0.556-0.914,1.108-0.939,1.69c-0.051,1.19,1.072,2.414,2.063,3.492c0.546,0.593,1.062,1.154,1.341,1.679l0.148,0.275
	l-0.161,0.273C24.397,19.154,24.095,19.154,23.981,19.154z"/>
<path fill="#C8691C" d="M25.009,18.431c0,0.337-0.273,0.61-0.611,0.61h-2.25c-0.337,0-0.611-0.273-0.611-0.61l0,0
	c0-0.337,0.274-0.611,0.611-0.611h2.25C24.735,17.819,25.009,18.093,25.009,18.431L25.009,18.431z"/>
</svg>
