<?xml version="1.0" encoding="utf-8"?>
<svg version="1.1"
	 xmlns="http://www.w3.org/2000/svg" xmlns:xlink="http://www.w3.org/1999/xlink"
	 x="0px" y="0px" width="48px" height="48px" viewBox="-2.375 -3 48 48">
<defs>
</defs>
<path fill="#F79523" d="M43.75,17.103c0-12.214-7.188-15.99-13.146-15.768c-4.592,0.171-7.771,5.384-8.729,7.169
	c-0.958-1.786-4.136-6.999-8.729-7.169C7.189,1.113,0,4.888,0,17.103C0,28.638,19.593,39.97,21.771,41.195l0.001,0.113
	c0,0,0.042-0.021,0.103-0.057c0.061,0.035,0.103,0.057,0.103,0.057l0.001-0.113C24.157,39.97,43.75,28.638,43.75,17.103z"/>
<path fill="#C8691C" d="M30.604,1.335c-4.592,0.171-7.771,5.384-8.729,7.169c-0.04-0.073-0.088-0.161-0.135-0.245v32.918
	c0.008,0.006,0.022,0.012,0.031,0.018l0.001,0.113c0,0,0.042-0.021,0.103-0.057c0.061,0.035,0.103,0.057,0.103,0.057l0.001-0.113
	C24.157,39.97,43.75,28.638,43.75,17.103C43.75,4.888,36.562,1.113,30.604,1.335z"/>
<path fill="#FFFFFF" d="M30.029,19.542l-5.048-5.048l-9.061,9.06l-9.579-9.578l-5.956,5.956c0.323,1.243,0.833,2.473,1.498,3.679
	l4.458-4.457l9.403,9.755l9.236-9.237l5.002,5.096l0.046-0.047l2.589-2.59l6.602-6.601l4.194,4.195
	c0.211-0.87,0.336-1.746,0.336-2.622c0-0.811-0.036-1.579-0.097-2.317l-4.434-4.433L30.029,19.542z"/>
<path fill="#D1D3D4" d="M43.653,14.786l-4.434-4.433l-9.19,9.19l-5.048-5.048l-3.241,3.241v5.178l3.241-3.242l5.002,5.096
	l0.046-0.047l2.589-2.59l6.602-6.601l4.194,4.195c0.211-0.87,0.336-1.746,0.336-2.622C43.75,16.292,43.714,15.523,43.653,14.786z"/>
<polygon fill="#52CAF5" points="3.367,40.636 12.63,18.782 15.607,29.028 27.515,7.513 28.508,16.734 41.409,0 27.183,25.952 
	25.2,17.416 14.944,35.856 11.637,28.685 "/>
</svg>
