<?xml version="1.0" encoding="utf-8"?>
<svg version="1.1"
	 xmlns="http://www.w3.org/2000/svg" xmlns:xlink="http://www.w3.org/1999/xlink"
	 x="0px" y="0px" width="100px" height="100px" viewBox="-12.263 -4.582 100 100">
<defs>
</defs>
<path fill="#52CAF5" d="M30.502,76.198c-0.5,0-0.906-0.273-0.906-0.607c0,0,0.19-4.493-1.9-8.561
	c-3.54-6.893-9.564-11.215-9.423-19.593c0.178-10.63,8.619-19.25,19.249-19.25c0.13,0,0.258,0.015,0.388,0.02
	c0.132-0.004,0.261-0.02,0.394-0.02c10.632,0,19.074,8.62,19.251,19.25c0.141,8.378-5.885,12.699-9.425,19.593
	c-2.089,4.067-1.898,8.56-1.898,8.56c0,0.335-0.407,0.608-0.907,0.608H30.502z"/>
<path fill="#C8691C" d="M47.284,79.569c0,0.813-0.658,1.471-1.47,1.471H30.467c-0.811,0-1.47-0.658-1.47-1.471l0,0
	c0-0.812,0.659-1.468,1.47-1.468h15.347C46.625,78.102,47.284,78.758,47.284,79.569L47.284,79.569z"/>
<path fill="#C8691C" d="M47.284,84.11c0,0.813-0.658,1.468-1.47,1.468H30.467c-0.811,0-1.47-0.655-1.47-1.468l0,0
	c0-0.812,0.659-1.47,1.47-1.47h15.347C46.625,82.641,47.284,83.299,47.284,84.11L47.284,84.11z"/>
<path fill="#C8691C" d="M32.344,87.245c1.098,2.13,3.315,3.591,5.877,3.591c2.563,0,4.781-1.461,5.877-3.591H32.344z"/>
<path fill="#FFFFFF" d="M29.466,33.693c-4.331,2.887-7.368,7.478-8.322,12.735h1.68c1.177-4.816,4.126-8.979,8.199-11.644
	C31.63,34.386,29.466,33.693,29.466,33.693z"/>
<path fill="#3588A6" d="M40.6,16.65c0,1.483-1.202,2.685-2.686,2.685l0,0c-1.483,0-2.686-1.202-2.686-2.685V2.686
	C35.229,1.202,36.431,0,37.914,0l0,0C39.398,0,40.6,1.202,40.6,2.686V16.65z"/>
<path fill="#3588A6" d="M26.899,17.412c0.742,1.285,0.303,2.927-0.983,3.668l0,0c-1.285,0.742-2.927,0.302-3.668-0.983L15.266,8.004
	c-0.742-1.284-0.302-2.927,0.983-3.668l0,0c1.284-0.741,2.927-0.301,3.668,0.983L26.899,17.412z"/>
<path fill="#3588A6" d="M16.123,24.339c1.284,0.741,1.725,2.383,0.983,3.668l0,0c-0.742,1.285-2.384,1.725-3.668,0.983L1.343,22.008
	c-1.285-0.742-1.725-2.384-0.983-3.668l0,0c0.742-1.285,2.384-1.725,3.668-0.983L16.123,24.339z"/>
<path fill="#3588A6" d="M59.352,24.339c-1.285,0.741-1.726,2.383-0.983,3.668l0,0c0.743,1.285,2.384,1.725,3.668,0.983l12.095-6.982
	c1.284-0.742,1.725-2.384,0.981-3.668l0,0c-0.74-1.285-2.383-1.725-3.667-0.983L59.352,24.339z"/>
<path fill="#3588A6" d="M48.12,17.412c-0.74,1.285-0.302,2.927,0.983,3.668l0,0c1.284,0.742,2.927,0.302,3.668-0.983l6.982-12.094
	c0.742-1.284,0.302-2.927-0.981-3.668l0,0c-1.285-0.741-2.927-0.301-3.67,0.983L48.12,17.412z"/>
</svg>
