<?xml version="1.0" encoding="utf-8"?>
<!-- Generator: Adobe Illustrator 15.0.0, SVG Export Plug-In  -->
<!DOCTYPE svg PUBLIC "-//W3C//DTD SVG 1.1//EN" "http://www.w3.org/Graphics/SVG/1.1/DTD/svg11.dtd" [
	<!ENTITY ns_flows "http://ns.adobe.com/Flows/1.0/">
]>
<svg version="1.1"
	 xmlns="http://www.w3.org/2000/svg" xmlns:xlink="http://www.w3.org/1999/xlink" xmlns:a="http://ns.adobe.com/AdobeSVGViewerExtensions/3.0/"
	 x="0px" y="0px" width="150px" height="160px" viewBox="-8.946 -13.946 150 160" enable-background="new -8.946 -13.946 150 160"
	 xml:space="preserve">
<defs>
</defs>
<path fill="#C8691C" d="M45.623,3.409l5.85,17.685c4.745-1.573,9.807-2.458,15.081-2.458c5.166,0,10.128,0.839,14.788,2.351
	L86.939,3.21C80.513,1.143,73.672,0,66.554,0C59.233,0,52.211,1.227,45.623,3.409z"/>
<path fill="#C8691C" d="M11.894,28.637l15.314,10.605C33,30.915,41.364,24.535,51.154,21.21L44.933,3.662
	C31.432,8.304,19.894,17.129,11.894,28.637z"/>
<path fill="#C8691C" d="M18.636,66.554c0-10.034,3.094-19.338,8.364-27.036L11.449,29.232C4.226,39.878,0,52.721,0,66.554
	c0,0.902,0.099,1.78,0.134,2.674l18.598-0.747C18.707,67.837,18.636,67.202,18.636,66.554z"/>
<path fill="#FCB51E" d="M15.179,108.868l14.422-11.807c-6.395-7.737-10.347-17.531-10.851-28.232L0.172,69.973
	C0.922,84.704,6.378,98.191,15.179,108.868z"/>
<path fill="#FCB51E" d="M51.25,131.271l4.411-18.088c-10.264-2.394-19.267-8.048-25.821-15.858l-14.156,12.101
	C24.737,120.156,37.125,127.941,51.25,131.271z"/>
<path fill="#F79523" d="M93.48,127.388l-7.37-17.116c-5.977,2.677-12.582,4.2-19.557,4.2c-3.631,0-7.152-0.438-10.55-1.202
	l-4.028,18.188c4.698,1.051,9.565,1.65,14.578,1.65C76.147,133.107,85.241,131.039,93.48,127.388z"/>
<path fill="#F79523" d="M124.717,98.87l-16.177-9.227c-4.954,8.992-12.728,16.188-22.115,20.476l7.729,16.944
	C107.102,121.148,117.828,111.244,124.717,98.87z"/>
<path fill="#F79523" d="M125.099,98.234c5.104-9.422,8.009-20.211,8.009-31.681c0-3.096-0.285-6.123-0.692-9.106l-18.472,2.364
	c0.311,2.21,0.528,4.448,0.528,6.742c0,8.251-2.086,16.014-5.757,22.79L125.099,98.234z"/>
<path fill="#FEC253" d="M113.858,19.761l-13.333,13.006c7.043,7.08,11.829,16.363,13.366,26.711L132.3,56.72
	C130.177,42.414,123.57,29.575,113.858,19.761z"/>
<path fill="#FEC253" d="M86.923,3.257l-5.581,17.73c-2.495-0.811-5.084-1.41-7.743-1.807l-0.003,0.03
	c10.337,1.526,19.608,6.302,26.69,13.321l13.052-13.289C106.002,11.988,96.982,6.471,86.923,3.257z"/>
<path fill="#52CAF5" d="M66.551,19.172c-26.165,0-47.38,21.214-47.38,47.382c0,26.167,21.216,47.384,47.38,47.384
	c26.17,0,47.387-21.217,47.387-47.384C113.938,40.386,92.721,19.172,66.551,19.172z M66.552,99.723
	c-18.316,0-33.167-14.852-33.167-33.169s14.852-33.167,33.167-33.167c18.319,0,33.17,14.85,33.17,33.167
	S84.871,99.723,66.552,99.723z"/>
<path fill="#52CAF5" d="M99.712,66.387h14.216c-0.087-26.09-21.261-47.215-47.377-47.215c-0.106,0-0.205,0.015-0.311,0.017v14.214
	c0.106-0.001,0.207-0.017,0.313-0.017C84.816,33.386,99.624,48.147,99.712,66.387z"/>
<path fill="#7CD3F7" d="M66.386,33.152V18.937C40.297,19.025,19.17,40.197,19.17,66.313c0,0.106,0.014,0.205,0.017,0.311h14.216
	c-0.003-0.106-0.017-0.207-0.017-0.313C33.386,48.047,48.147,33.24,66.386,33.152z"/>
<path fill="#BFE7FB" d="M99.712,66.722h14.216c-0.087,26.09-21.261,47.216-47.377,47.216c-0.106,0-0.205-0.015-0.311-0.018V99.706
	c0.106,0.003,0.207,0.017,0.313,0.017C84.816,99.723,99.624,84.962,99.712,66.722z"/>
<path fill="#9FDDF9" d="M66.386,99.723v14.215C40.297,113.85,19.17,92.676,19.17,66.56c0-0.104,0.014-0.205,0.017-0.311h14.216
	c-0.003,0.106-0.017,0.209-0.017,0.313C33.386,84.826,48.147,99.635,66.386,99.723z"/>
<polygon fill="#3588A6" points="47.583,75.194 66.744,52.382 85.902,75.194 "/>
<polygon fill="#236981" points="66.744,52.382 85.902,75.194 66.744,75.194 "/>
</svg>
