<?xml version="1.0" encoding="utf-8"?>
<svg version="1.1"
	 xmlns="http://www.w3.org/2000/svg" xmlns:xlink="http://www.w3.org/1999/xlink"
	 x="0px" y="0px" width="48px" height="48px" viewBox="0 0 48 48">
<defs>
</defs>
<path fill="#C8691C" d="M17.378,4.022l1.851,5.595C20.73,9.12,22.331,8.839,24,8.839c1.635,0,3.204,0.266,4.679,0.744l1.771-5.624
	C28.416,3.305,26.252,2.943,24,2.943C21.684,2.943,19.462,3.332,17.378,4.022z"/>
<path fill="#C8691C" d="M6.707,12.004l4.845,3.355c1.833-2.635,4.479-4.652,7.576-5.705L17.16,4.102
	C12.888,5.571,9.237,8.363,6.707,12.004z"/>
<path fill="#C8691C" d="M8.839,24c0-3.175,0.979-6.118,2.647-8.553l-4.92-3.255C4.281,15.56,2.943,19.624,2.943,24
	c0,0.286,0.032,0.563,0.043,0.846l5.884-0.236C8.862,24.406,8.839,24.206,8.839,24z"/>
<path fill="#FCB51E" d="M7.746,37.388l4.563-3.735c-2.023-2.448-3.273-5.547-3.433-8.933l-5.878,0.362
	C3.235,29.742,4.961,34.01,7.746,37.388z"/>
<path fill="#FCB51E" d="M19.158,44.475l1.396-5.723c-3.248-0.757-6.096-2.546-8.169-5.017l-4.479,3.828
	C10.77,40.959,14.689,43.422,19.158,44.475z"/>
<path fill="#F79523" d="M32.519,43.246l-2.331-5.415c-1.892,0.848-3.98,1.329-6.188,1.329c-1.148,0-2.263-0.139-3.338-0.38
	l-1.274,5.754c1.486,0.332,3.026,0.522,4.612,0.522C27.035,45.057,29.912,44.402,32.519,43.246z"/>
<path fill="#F79523" d="M42.401,34.225l-5.117-2.92c-1.568,2.846-4.027,5.122-6.997,6.479l2.445,5.36
	C36.829,41.272,40.223,38.139,42.401,34.225z"/>
<path fill="#F79523" d="M42.522,34.023c1.615-2.981,2.534-6.395,2.534-10.023c0-0.98-0.091-1.937-0.22-2.881l-5.844,0.748
	c0.099,0.699,0.167,1.407,0.167,2.133c0,2.61-0.66,5.066-1.821,7.211L42.522,34.023z"/>
<path fill="#FEC253" d="M38.967,9.195l-4.219,4.116c2.229,2.24,3.743,5.176,4.229,8.451l5.824-0.873
	C44.13,16.362,42.039,12.301,38.967,9.195z"/>
<path fill="#FEC253" d="M30.444,3.974l-1.766,5.609c-0.789-0.256-1.608-0.446-2.449-0.572l-0.001,0.009
	c3.27,0.483,6.203,1.994,8.443,4.215l4.13-4.205C36.481,6.736,33.627,4.991,30.444,3.974z"/>
<path fill="#52CAF5" d="M23.999,9.009c-8.278,0-14.99,6.712-14.99,14.991c0,8.279,6.712,14.991,14.99,14.991
	c8.28,0,14.992-6.712,14.992-14.991C38.991,15.721,32.279,9.009,23.999,9.009z M24,34.494c-5.795,0-10.493-4.698-10.493-10.494
	c0-5.795,4.698-10.493,10.493-10.493c5.796,0,10.495,4.698,10.495,10.493C34.494,29.796,29.796,34.494,24,34.494z"/>
<path fill="#52CAF5" d="M34.491,23.948h4.497C38.96,15.693,32.262,9.009,23.999,9.009c-0.033,0-0.065,0.004-0.099,0.005v4.497
	c0.034,0,0.066-0.005,0.099-0.005C29.778,13.507,34.463,18.176,34.491,23.948z"/>
<path fill="#7CD3F7" d="M23.947,13.432V8.935C15.693,8.962,9.009,15.662,9.009,23.924c0,0.033,0.004,0.065,0.005,0.098h4.498
	c-0.001-0.033-0.005-0.065-0.005-0.099C13.507,18.145,18.176,13.46,23.947,13.432z"/>
<path fill="#BFE7FB" d="M34.491,24.053h4.497c-0.028,8.255-6.727,14.938-14.989,14.938c-0.033,0-0.065-0.004-0.099-0.005v-4.498
	c0.034,0.001,0.066,0.006,0.099,0.006C29.778,34.494,34.463,29.824,34.491,24.053z"/>
<path fill="#9FDDF9" d="M23.947,34.494v4.497c-8.254-0.027-14.938-6.727-14.938-14.989c0-0.033,0.004-0.065,0.005-0.098h4.498
	c-0.001,0.033-0.005,0.065-0.005,0.099C13.507,29.781,18.176,34.466,23.947,34.494z"/>
<polygon fill="#3588A6" points="17.998,26.733 24.06,19.516 30.121,26.733 "/>
<polygon fill="#236981" points="24.06,19.516 30.121,26.733 24.06,26.733 "/>
</svg>
