<?xml version="1.0" encoding="utf-8"?>
<svg version="1.1"
	 xmlns="http://www.w3.org/2000/svg" xmlns:xlink="http://www.w3.org/1999/xlink"
	 x="0px" y="0px" width="48px" height="48px" viewBox="0 0 48 48">
<defs>
</defs>
<path fill-rule="evenodd" clip-rule="evenodd" fill="#C8691C" d="M23.989,16.44c-11.112,0-20.283,2.723-21.851,6.267
	C1.982,22.355,1.875,22,1.875,21.633c0-4.054,9.901-7.34,22.114-7.34s22.113,3.286,22.113,7.34c0,0.366-0.106,0.722-0.264,1.074
	C44.271,19.163,35.101,16.44,23.989,16.44z"/>
<path fill-rule="evenodd" clip-rule="evenodd" fill="#C8691C" d="M23.989,18.54c-11.112,0-20.283,2.724-21.851,6.268
	c-0.156-0.352-0.263-0.708-0.263-1.074c0-4.054,9.901-7.34,22.114-7.34s22.113,3.286,22.113,7.34c0,0.366-0.106,0.722-0.264,1.074
	C44.271,21.263,35.101,18.54,23.989,18.54z"/>
<circle fill-rule="evenodd" clip-rule="evenodd" fill="#52CAF5" cx="24.28" cy="24" r="20.148"/>
<path fill-rule="evenodd" clip-rule="evenodd" fill="#84D5F7" d="M13.511,6.992C7.88,10.564,4.132,16.837,4.132,24
	c0,10.308,7.744,18.792,17.727,19.991c4.249-4.022,6.913-9.7,6.913-16.013C28.771,18.167,22.364,9.862,13.511,6.992z"/>
<path fill-rule="evenodd" clip-rule="evenodd" fill="#3588A6" d="M41.119,33.54c-0.089,0-0.264-0.088-0.352-0.088
	c0.263-1.143,1.055-2.726,2.021-3.779C42.35,30.903,41.822,32.223,41.119,33.54z M5.331,24.571c0.176,0.353,0.616,0.703,0.879,1.144
	c0.264,0.352,0.264,0.879,0.527,1.318c0,0.088,0.264,0,0.353,0.176c0.264,0.177,0.44,0.704,0.703,0.704
	c0.177,0,0.264-0.089,0.44-0.176c0.088,0.44,0.264,1.144,0.264,1.407c0,0.175-0.264,1.054-0.264,1.318
	c0,0.177,0.088,1.23,0.528,1.76c0.791,1.054,1.67,2.021,2.726,2.988c0.264,0.265,0.792,0.353,1.231,0.704
	c0.616,0.702,1.056,1.582,1.671,2.374c0.615,0.879,1.934,2.373,2.989,3.078c0.527,0.438,1.143,0.879,1.67,1.231
	C14.916,41.895,8.321,36.707,6.65,32.045c-0.175-0.526-0.528-1.142-0.703-1.758c-0.176-0.704-0.44-1.583-0.616-2.198
	c-0.088-0.791-0.352-2.198-0.352-2.374v-1.144H5.331z M42.701,24.484v-0.263V24.484z M7.793,23.429c0,0.088,0.264,0.088,0.264,0.175
	c0.176,0.44,0.527,0.528,0.704,0.528c0.087,0,0.44-0.177,0.615-0.44c0.792,0.176,1.671,0.176,2.55,0.264
	c0.176,0,0.352,0.177,0.439,0.265c0.088,0.087,0,0.525,0.264,0.791v1.229c-0.44-0.175-1.055-0.087-1.407-0.263
	c-0.176,0-0.439-0.264-0.616-0.527H10.08c-0.439,0-1.407,0.176-1.495,1.055c-0.352-0.176-0.088-0.265-0.879-0.087v-1.935
	c-0.351-0.351-0.527-0.704-0.879-0.616v-0.351c0.088-0.264,0.264-0.616,0.352-0.879C7.266,22.901,7.441,23.166,7.793,23.429z
	 M39.009,18.241c0.264,0,0.352-0.351,0.352-0.439H39.8c0.089,0.264,0.353,0.527,0.792,0.439v0.528c0-0.264-0.353-0.088-0.528-0.088
	c-0.088,0.088-0.088,0.176-0.351,0.176c-0.177,0-1.145-0.352-1.319-0.352c-0.264,0-0.616-0.088-0.705,0.44
	c-0.526-0.264-1.142-0.44-1.67-0.704c0.088,0.088,0,0.088,0.177,0.088c0.702,0,0.352-0.967,0.878-1.583
	C37.688,17.273,38.13,18.241,39.009,18.241z M34.699,16.922c0.616,0,0.439-0.703,0.528-0.791c0.176,0.175,0.44,0.263,0.703,0.439
	c-0.088,0-0.263-0.088-0.527,0c-0.088,0.176,0,0.352,0,0.528c-0.88,0-1.847,0.087-2.726,0.264c0.176-0.176,0.351-0.352,0.351-0.528
	c0-0.264-0.087-0.264-0.175-0.44c0.088-0.087,0.439-0.263,0.703-0.615c0.176,0,0.439,0,0.615-0.088
	C34.261,15.867,34.085,16.922,34.699,16.922z M39.272,15.251c0.175,0,0.088-0.176,0.264-0.176c0.264,0,0.353,0.176,0.439,0.264
	c-0.263,0-0.615,0.088-0.967,0.263l-0.176-0.175v-0.528C38.922,14.988,39.009,15.251,39.272,15.251z M17.026,13.316
	c-0.439,0.44-0.615,0.352-0.967,0.704c0-0.264,0.352-0.439,0.439-0.704H17.026z M35.315,11.559c-0.177,0-0.439,0.087-0.704,0.176
	c0.088-0.44,0.088-0.704,0.177-0.88C34.964,10.943,35.139,11.382,35.315,11.559z M18.345,10.151c0,0-0.175,0-0.175,0.088V9.975
	C18.257,10.063,18.345,10.063,18.345,10.151z M17.905,9.712c-0.088-0.088-0.176-0.176-0.088-0.176S17.905,9.624,17.905,9.712z
	 M16.411,9.712c-0.176,0.263-0.528,0.351-0.704,0.527c-0.264,0.176-0.352,0.527-0.528,0.704c-0.264,0.176-0.615,0.263-0.879,0.439
	c-0.175-0.264-0.352-0.616-0.352-0.792c0-0.264,1.671-1.143,1.934-1.143C16.059,9.448,16.235,9.712,16.411,9.712z M17.291,9.272
	c0-0.089,0-0.264,0.087-0.264C17.466,9.008,17.291,9.184,17.291,9.272z M28.72,9.536c0,0.264-1.054,0.615-1.143,0.615
	c-0.439,0-1.056-0.527-1.143-0.967C26.61,8.92,27.226,8.92,27.489,8.92C27.666,8.92,28.72,8.744,28.72,9.536z M18.169,8.657
	c0.088-0.088,0.175-0.176,0.264-0.176C18.345,8.568,18.257,8.657,18.169,8.657z M31.711,6.898c0,0.176-0.266,0.439-0.528,0.439
	c-0.176,0-0.88-0.439-1.319-0.704V6.107c0.353,0.439,0.703,0,1.056,0C31.183,6.107,31.711,6.722,31.711,6.898z M34.788,7.953
	c0,0.088,0.264,0.176,0.439,0.264c0,0-0.089,0.087-0.089,0.176c-0.351-0.264-1.934-0.528-1.934-0.528
	c-0.44,0-0.792-0.087-1.056,0.792c-0.088,0.176,0,0.527-0.088,0.791s-0.438,0.527-0.438,0.792c0,0.176,0.614,1.143,1.055,1.319
	l0.264,0.527c-0.177,0.088-0.438,0.352-0.616,0.44c-0.527-0.616-0.614-0.704-1.056-1.32c-0.087-0.263-0.615-0.527-0.791-0.527
	c-0.526,0-0.526,0.615-0.439,0.967c-0.176,0-0.791,0.088-0.791,0.616c0,0.175,0.088,0.439,0.088,0.615
	c0,0.264,0.088,0.439,0.351,0.439c0.177,0,0.529-0.087,0.792-0.264c-0.176,0.704,0.176,0.44,0.265,1.144
	c0.264,0.264,0.526,0.264,0.792,0.439v0.263c-0.44,0.089-1.319-0.527-1.672,0.353v1.583c0.176,0.264,0.353,1.144,0.968,0.879
	c-0.265,0.264-0.792,0.615-1.055,1.055c-0.09,0.088-0.09,0.439-0.177,0.616c-0.352,0.352-0.967,0.527-1.23,0.967
	c-0.528,0.704-1.144,2.199-1.144,2.375c0,0.264,0.264,0.967,0.264,1.143c0,0.265-0.528,0.966-0.528,1.231
	c0,0.175,0.09,0.175,0.177,0.438c0.088,0.089,0,0.353,0.088,0.528c0.264,0.439,0.615,0.88,0.967,1.319
	c0.265,0.264,1.76,1.495,2.11,1.495c0.264,0,1.935-0.177,2.814-0.353c0.264-0.089,0.527-0.089,0.791-0.176
	c0,0.528,0.528,0.615,1.144,0.615c0,0.089,0.087,0.089,0.087,0.352c0,0.177-0.175,0.44-0.263,0.616
	c-0.088-0.439-0.353-0.616-0.527-0.616c-0.353,0-0.616,0.264-0.616,0.528c0,0.439,0.264,0.615,0.528,0.615
	c0.176,0,0.263-0.088,0.438-0.176c0.177,0.616,0.616,1.758,0.616,1.936c0,0.263-0.088,1.054-0.352,1.494
	c-0.353,0.526-1.056,0.88-1.056,1.671c0,0.263,0.088,0.527,0,0.791c-0.176,0.704-0.438,1.495-0.703,2.285
	c-0.177,0.44-0.527,0.97-0.702,1.408c0.087,0.087,0.175,0.175,0.438,0.175c0.791,0,2.549-0.967,3.254-1.583
	c0.175-0.175,0.439-0.526,0.702-0.702c0.616-0.439,0.791-0.528,1.145-0.968c0.088-0.087,0.088-0.352,0.264-0.439
	c0.175-0.264,0.616-0.527,0.967-0.791c-0.176,0.352-0.704,0.703-0.879,1.054c-0.088,0.177-0.177,0.705-0.44,0.967
	c-1.935,2.288-5.628,4.134-7.387,4.662c-0.967,0.264-1.759,0.527-2.637,0.703c-1.231,0.264-2.551,0.352-3.693,0.352
	c-0.176,0-1.67,0-2.55-0.175c0.176-0.089,0.264-0.089,0.264-0.265c0-0.263-0.44-0.527-0.615-0.527c-0.264,0-0.352,0.176-0.352,0.352
	c-0.264-0.176-1.671-1.406-1.671-1.76c0-0.175,0.087-0.175,0.087-0.264c0.088-0.175,0-0.438,0-0.703c0-0.175,0.44-1.23,0.44-1.406
	c0-0.264-0.264-0.615-0.352-0.879c0.528-0.265,1.671-0.88,1.408-1.583c0.088-0.264,0.175-0.527,0.175-0.792
	c0-0.176-0.264-0.702-0.264-0.967c0,0,1.056-1.407,1.056-1.671s0-0.791-0.264-0.968c-0.44-0.528-1.231-0.79-1.935-1.054
	c-0.616-0.265-1.583,0-2.286-0.792c-0.264-0.352-0.704-0.88-1.143-1.319c-0.353-0.351-0.792-0.528-1.231-0.791
	c-0.088,0-1.056,0-1.056-0.439c0-0.177,0.264-0.616,0.352-0.879c-0.264-0.44-0.527-0.265-0.791-0.265v-1.583
	c0-0.879-0.792-1.67-1.759-1.406c-0.44-0.264-0.967-0.264-1.495-0.528c0-0.352-0.176-0.792-0.352-0.792
	c-0.263,0-0.263,0.176-0.352,0.352c-0.439-0.265-1.318-0.968-1.494-0.968c-0.264,0-0.44,0-0.527,0.088
	c-0.264,0.088-0.264,0.352-0.44,0.439c-0.264,0.176-0.703,0.088-0.968,0.264c-0.264,0.176-0.264,0.528-0.439,0.791
	c0-0.175-0.176-0.351-0.176-0.615c0-0.704,0.704-2.199,1.143-2.726c0.264,0.088,0.528,0.439,0.704,0.439
	c0.263,0,0.351-0.264,0.439-0.439c0.088,0,0.264,0.088,0.352,0.088C8.057,20,8.057,20.527,8.057,20.967
	c0.352,0.264,0.791,0.528,1.055,0.528c0.351,0,0.439-0.088,0.439-0.439c0-0.088,0-0.616-0.439-0.528
	C9.201,20.264,9.288,20,9.288,19.736c-0.087-1.496,2.11-1.496,2.198-2.726c0.264-0.088,0.879-0.704,1.143-0.968
	c1.583,0,0.704-0.967,1.847-0.967c0.264,0,0.176,0.264,0.439,0.264c0.176,0,1.407-0.528,2.022-0.879
	c0.088-0.088,0.088-0.264,0.088-0.44c0.352,0.088,0.792,0.352,1.056,0.352c0.352,0,0.967-0.264,0.967-0.616
	c0-0.264-0.175-0.44-0.175-0.615c0-0.264,0.175-0.176,0.175-0.264c0.088-0.176,0.176-0.44,0.176-0.703
	c0-0.177-0.263-0.264-0.44-0.264c0.089-1.055,0.089-1.583,0.089-1.759c0-0.263,0.527-0.351,0.879-0.615c0,0,1.055-0.263,1.055-0.703
	c0-0.264-0.264-0.264-0.264-0.528c0-0.175,0.176-0.087,0.176-0.263c0-0.264-0.264-0.44-0.352-0.616
	c0.264-0.264,0.704-0.527,1.143-0.615c-0.175,0.439,0.528,0.615,0.792,0.527v0.879c-0.176,0-0.527,0.176-0.615,0.352
	c-0.176,0.264-0.264,0.792-0.264,1.055c0,0.176,0,0.527,0.176,0.792c0.088,0.176,0.439,0.176,0.615,0.352
	c0.088,0.088,0.088,0.088,0.265,0.088c0.527,0,0.791-0.704,1.494-1.143c0.176-0.176,0.529-0.176,0.792-0.264
	c0.265-0.088,0.44-0.352,0.791-0.439c0.439-0.176,1.318-0.088,1.759-0.528c0.264-0.352,0.439-1.143,0.439-1.319
	c0-0.264-0.087-0.264-0.176-0.44c0.089-0.088,0.353-0.176,0.527-0.439c-0.087-0.087-0.175-0.264-0.264-0.352
	c-0.175-0.088-0.527-0.088-0.615-0.176c-0.265-0.088-0.353-0.352-0.527-0.439c-0.353-0.176-0.879-0.088-1.144-0.088
	c-0.176,0-0.878,0-1.318,0.088c-0.264,0-0.352,0.352-0.527,0.352c-0.264,0-1.144-0.792-1.408-0.792
	c-0.264,0-1.318,0.879-1.406,0.967c-0.088-0.087-0.088-0.175-0.352-0.175c-0.264,0-0.616,0.44-0.879,0.703
	c0-0.088,0-0.175,0.088-0.263c-0.088-0.088-0.088-0.265-0.353-0.265c-0.176,0-0.263,0.353-0.439,0.353
	c-0.264,0-0.264-0.176-0.44-0.176c-0.704,0-1.67,0.264-2.022,0.439c-0.088,0.088-0.352,0.088-0.616,0.176
	c-0.351,0.088-0.703,0.352-1.143,0.616c3.166-1.934,6.244-2.55,9.497-2.55C28.192,4.699,32.149,5.755,34.788,7.953z M45.372,23.958
	c0,11.861-9.522,21.134-21.134,21.134c-7.601,0-16.205-3.926-20.048-14.367c0-0.084-1.002-4.093-1.002-4.928v-3.593
	C4.775,9.173,14.799,2.908,24.238,2.908C36.1,2.908,45.372,12.348,45.372,23.958z"/>
<path fill-rule="evenodd" clip-rule="evenodd" fill="#42A1C3" d="M27.138,25.538c0.088,0.089,0,0.353,0.088,0.528
	c0.264,0.439,0.615,0.88,0.967,1.319c0.087,0.086,0.309,0.277,0.573,0.492c-0.01-2.261-0.356-4.443-0.998-6.495
	c-0.306,0.619-0.542,1.234-0.542,1.343c0,0.264,0.264,0.967,0.264,1.143c0,0.265-0.528,0.966-0.528,1.231
	C26.961,25.274,27.051,25.274,27.138,25.538z"/>
<path fill-rule="evenodd" clip-rule="evenodd" fill="#42A1C3" d="M22.617,43.241c-0.331-0.025-0.66-0.062-0.931-0.115
	c0.176-0.089,0.264-0.089,0.264-0.265c0-0.263-0.44-0.527-0.615-0.527c-0.264,0-0.352,0.176-0.352,0.352
	c-0.264-0.176-1.671-1.406-1.671-1.76c0-0.175,0.087-0.175,0.087-0.264c0.088-0.175,0-0.438,0-0.703c0-0.175,0.44-1.23,0.44-1.406
	c0-0.264-0.264-0.615-0.352-0.879c0.528-0.265,1.671-0.88,1.408-1.583c0.088-0.264,0.175-0.527,0.175-0.792
	c0-0.176-0.264-0.702-0.264-0.967c0,0,1.056-1.407,1.056-1.671s0-0.791-0.264-0.968c-0.44-0.528-1.231-0.79-1.935-1.054
	c-0.616-0.265-1.583,0-2.286-0.792c-0.264-0.352-0.704-0.88-1.143-1.319c-0.353-0.351-0.792-0.528-1.231-0.791
	c-0.088,0-1.056,0-1.056-0.439c0-0.177,0.264-0.616,0.352-0.879c-0.264-0.44-0.527-0.265-0.791-0.265v-1.583
	c0-0.879-0.792-1.67-1.759-1.406c-0.44-0.264-0.967-0.264-1.495-0.528c0-0.352-0.176-0.792-0.352-0.792
	c-0.263,0-0.263,0.176-0.352,0.352c-0.439-0.265-1.318-0.968-1.494-0.968c-0.264,0-0.44,0-0.527,0.088
	c-0.264,0.088-0.264,0.352-0.44,0.439c-0.264,0.176-0.703,0.088-0.968,0.264c-0.264,0.176-0.264,0.528-0.439,0.791
	c0-0.175-0.176-0.351-0.176-0.615c0-0.704,0.704-2.199,1.143-2.726c0.264,0.088,0.528,0.439,0.704,0.439
	c0.263,0,0.351-0.264,0.439-0.439c0.088,0,0.264,0.088,0.352,0.088C8.057,20,8.057,20.527,8.057,20.967
	c0.352,0.264,0.791,0.528,1.055,0.528c0.351,0,0.439-0.088,0.439-0.439c0-0.088,0-0.616-0.439-0.528
	C9.201,20.264,9.288,20,9.288,19.736c-0.087-1.496,2.11-1.496,2.198-2.726c0.264-0.088,0.879-0.704,1.143-0.968
	c1.583,0,0.704-0.967,1.847-0.967c0.264,0,0.176,0.264,0.439,0.264c0.176,0,1.407-0.528,2.022-0.879
	c0.088-0.088,0.088-0.264,0.088-0.44c0.352,0.088,0.792,0.352,1.056,0.352c0.352,0,0.967-0.264,0.967-0.616
	c0-0.264-0.175-0.44-0.175-0.615c0-0.264,0.175-0.176,0.175-0.264c0.088-0.176,0.176-0.44,0.176-0.703
	c0-0.177-0.263-0.264-0.44-0.264c0.089-1.055,0.089-1.583,0.089-1.759c0-0.143,0.158-0.235,0.357-0.331
	c-2.114-1.461-4.5-2.545-7.06-3.199c-4.577,3.145-8.096,8.307-8.983,15.583v3.593c0,0.835,1.002,4.844,1.002,4.928
	c3.293,8.947,10.082,13.101,16.741,14.108C21.522,44.333,22.082,43.799,22.617,43.241z M18.169,9.975
	c0.088,0.088,0.175,0.088,0.175,0.176c0,0-0.175,0-0.175,0.088V9.975z M17.817,9.536c0.088,0,0.088,0.088,0.088,0.176
	C17.817,9.624,17.729,9.536,17.817,9.536z M17.378,9.008c0.088,0-0.087,0.175-0.087,0.264C17.291,9.184,17.291,9.008,17.378,9.008z
	 M17.026,13.316c-0.439,0.44-0.615,0.352-0.967,0.704c0-0.264,0.352-0.439,0.439-0.704H17.026z M15.882,9.448
	c0.177,0,0.353,0.264,0.528,0.264c-0.176,0.263-0.528,0.351-0.704,0.527c-0.264,0.176-0.352,0.527-0.528,0.704
	c-0.264,0.176-0.615,0.263-0.879,0.439c-0.175-0.264-0.352-0.616-0.352-0.792C13.948,10.327,15.62,9.448,15.882,9.448z
	 M6.826,23.517c0.088-0.264,0.264-0.616,0.352-0.879c0.088,0.264,0.264,0.528,0.615,0.792c0,0.088,0.264,0.088,0.264,0.175
	c0.176,0.44,0.527,0.528,0.704,0.528c0.087,0,0.44-0.177,0.615-0.44c0.792,0.176,1.671,0.176,2.55,0.264
	c0.176,0,0.352,0.177,0.439,0.265c0.088,0.087,0,0.525,0.264,0.791v1.229c-0.44-0.175-1.055-0.087-1.407-0.263
	c-0.176,0-0.439-0.264-0.616-0.527H10.08c-0.439,0-1.407,0.176-1.495,1.055c-0.352-0.176-0.088-0.265-0.879-0.087v-1.935
	c-0.351-0.351-0.527-0.704-0.879-0.616V23.517z M6.65,32.045c-0.175-0.526-0.528-1.142-0.703-1.758
	c-0.176-0.704-0.44-1.583-0.616-2.198c-0.088-0.791-0.352-2.198-0.352-2.374v-1.144h0.352c0.176,0.353,0.616,0.703,0.879,1.144
	c0.264,0.352,0.264,0.879,0.527,1.318c0,0.088,0.264,0,0.353,0.176c0.264,0.177,0.44,0.704,0.703,0.704
	c0.177,0,0.264-0.089,0.44-0.176c0.088,0.44,0.264,1.144,0.264,1.407c0,0.175-0.264,1.054-0.264,1.318
	c0,0.177,0.088,1.23,0.528,1.76c0.791,1.054,1.67,2.021,2.726,2.988c0.264,0.265,0.792,0.353,1.231,0.704
	c0.616,0.702,1.056,1.582,1.671,2.374c0.615,0.879,1.934,2.373,2.989,3.078c0.527,0.438,1.143,0.879,1.67,1.231
	C14.916,41.895,8.321,36.707,6.65,32.045z"/>
<path fill-rule="evenodd" clip-rule="evenodd" fill="#F79523" d="M46.022,23.243c0.037-0.175,0.08-0.35,0.08-0.527
	c0-0.366,0.1-1.312-0.058-1.663c-0.065,0.394-0.277,0.741-0.318,0.816c-1.851,3.432-10.864,6.041-21.737,6.041
	c-10.99,0-20.081-2.664-21.797-6.151c-0.019-0.039-0.28-0.46-0.215-0.919c-0.156,0.351-0.102,1.51-0.102,1.876
	c0,0.127,0.038,0.25,0.057,0.375c-0.099,0.457-0.057,1.401-0.057,1.725c0,4.054,9.901,7.34,22.114,7.34s22.113-3.286,22.113-7.34
	c0-0.366,0.1-1.312-0.058-1.664C46.04,23.184,46.029,23.212,46.022,23.243z"/>
<path fill-rule="evenodd" clip-rule="evenodd" fill="#FCB51E" d="M28.759,27.731c-1.538,0.112-3.129,0.179-4.77,0.179
	c-10.99,0-20.081-2.664-21.797-6.151c-0.019-0.039-0.28-0.46-0.215-0.919c-0.156,0.351-0.102,1.51-0.102,1.876
	c0,0.127,0.038,0.25,0.057,0.375c-0.099,0.457-0.057,1.401-0.057,1.725c0,4.054,9.901,7.34,22.114,7.34
	c1.506,0,2.976-0.052,4.397-0.146c0.242-1.31,0.385-2.654,0.385-4.033C28.771,27.895,28.76,27.814,28.759,27.731z"/>
</svg>
