<?xml version="1.0" encoding="utf-8"?>
<svg version="1.1"
	 xmlns="http://www.w3.org/2000/svg" xmlns:xlink="http://www.w3.org/1999/xlink"
	 x="0px" y="0px" width="48px" height="48px" viewBox="0 0 48 48">
<defs>
</defs>
<rect x="2.293" y="24.898" fill="#D1D3D4" width="30.472" height="18.661"/>
<polygon fill="#E6E7E8" points="13.068,24.898 2.293,24.898 2.293,43.559 22.819,43.559 "/>
<path fill="#3588A6" d="M32.737,24.392H2.283c-0.25,0-0.453,0.203-0.453,0.455V44.04c0,0.25,0.204,0.453,0.453,0.453h1.965v1.135
	c0,0.251,0.202,0.453,0.453,0.453h25.617c0.251,0,0.453-0.202,0.453-0.453v-1.135h1.967c0.248,0,0.452-0.203,0.452-0.453V24.847
	C33.189,24.595,32.985,24.392,32.737,24.392z M32.321,43.096c0,0.25-0.203,0.452-0.454,0.452H3.152c-0.25,0-0.454-0.202-0.454-0.452
	V25.791c0-0.252,0.203-0.454,0.454-0.454h28.715c0.251,0,0.454,0.202,0.454,0.454V43.096z"/>
<path fill="#3B92B2" d="M1.83,24.847V44.04c0,0.25,0.204,0.453,0.453,0.453h1.965v1.135c0,0.251,0.202,0.453,0.453,0.453h19.436
	l-1.324-2.533H3.152c-0.25,0-0.454-0.202-0.454-0.452V25.791c0-0.252,0.203-0.454,0.454-0.454h10.145l-0.493-0.945H2.283
	C2.033,24.392,1.83,24.595,1.83,24.847z"/>
<path fill="#C8691C" d="M46.171,34.099c0,0.987-0.8,1.784-1.785,1.784H33.04c-0.987,0-1.785-0.797-1.785-1.784V14.803
	c0-0.986,0.798-1.785,1.785-1.785h11.346c0.985,0,1.785,0.799,1.785,1.785V34.099z"/>
<path fill="#F79523" d="M31.545,13.885c-0.167,0.271-0.29,0.575-0.29,0.918v19.296c0,0.987,0.798,1.784,1.785,1.784h8.438
	c0.647-1.682,1.172-3.471,1.277-5.219C43.297,21.665,38.049,16.583,31.545,13.885z"/>
<g>
	<path fill="#D1D3D4" d="M44.96,33.769c0,0.275-0.225,0.5-0.5,0.5H32.965c-0.275,0-0.5-0.225-0.5-0.5V15.134
		c0-0.275,0.225-0.5,0.5-0.5H44.46c0.275,0,0.5,0.225,0.5,0.5V33.769z"/>
</g>
<path fill="#E6E7E8" d="M32.465,14.745v19.524h8.926c0.84-1.808,1.32-3.815,1.32-5.94C42.711,21.871,38.379,16.436,32.465,14.745z"
	/>
<path fill="#C8691C" d="M21.478,19.598H18.93c-0.334-0.626-0.978-1.123-1.777-1.377l1.345-2.884
	c0.085-0.183,0.007-0.399-0.176-0.485s-0.4-0.006-0.484,0.176l-1.419,3.043c-0.156-0.018-0.31-0.038-0.47-0.038
	c-0.31,0-0.604,0.046-0.887,0.111c-0.004-0.034,0.012-0.067-0.004-0.101l-1.455-3.119c-0.085-0.183-0.301-0.262-0.484-0.176
	c-0.183,0.084-0.262,0.302-0.176,0.485l1.454,3.119c0.001,0.003,0.004,0.003,0.007,0.007c-0.638,0.276-1.151,0.707-1.435,1.24
	h-2.546c-0.691,0-1.252,0.56-1.252,1.251v1.982c0,0.691,0.561,1.251,1.252,1.251h11.055c0.691,0,1.25-0.561,1.25-1.251v-1.982
	C22.728,20.158,22.168,19.598,21.478,19.598z"/>
<path fill="#F79523" d="M17.775,22.623c0-1.755-0.652-3.354-1.721-4.581c-0.034-0.003-0.069-0.01-0.105-0.01
	c-0.31,0-0.604,0.046-0.887,0.111c-0.004-0.034,0.012-0.067-0.004-0.101l-0.647-1.387c-0.333-0.202-0.683-0.38-1.05-0.526
	l1.036,2.221c0.001,0.003,0.004,0.003,0.007,0.007c-0.638,0.276-1.151,0.707-1.435,1.24h-2.546c-0.691,0-1.252,0.56-1.252,1.251
	v1.982c0,0.691,0.561,1.251,1.252,1.251h7.196C17.719,23.611,17.775,23.124,17.775,22.623z"/>
<path fill="#FFFFFF" d="M20.903,21.214c0,0.201-0.165,0.365-0.366,0.365h-9.074c-0.2,0-0.364-0.164-0.364-0.365l0,0
	c0-0.201,0.164-0.366,0.364-0.366h9.074C20.739,20.849,20.903,21.014,20.903,21.214L20.903,21.214z"/>
<path fill="#FFFFFF" d="M20.903,22.465c0,0.202-0.165,0.366-0.366,0.366h-9.074c-0.2,0-0.364-0.164-0.364-0.366l0,0
	c0-0.201,0.164-0.364,0.364-0.364h9.074C20.739,22.102,20.903,22.265,20.903,22.465L20.903,22.465z"/>
<path fill="#3588A6" d="M22.859,9.022c-0.661-0.662-1.737-0.659-2.397,0c-0.659,0.66-0.66,1.736,0,2.396
	c0.661,0.662,1.737,0.661,2.397,0C23.519,10.759,23.52,9.683,22.859,9.022z"/>
<path fill="#3588A6" d="M26.946,4.433c-2.765-2.708-5.767-2.715-7.632-2.339l0.128,1.546c1.472-0.341,4.032-0.439,6.417,1.899
	c0.027,0.025,0.05,0.048,0.076,0.074c2.476,2.476,2.596,5.146,2.365,6.759l1.538,0.143C30.114,10.521,29.925,7.322,26.946,4.433z"/>
<path fill="#3588A6" d="M24.958,6.706c-0.021-0.021-0.041-0.042-0.062-0.063c-1.796-1.758-3.827-1.989-5.328-1.749l0.127,1.542
	c1.001-0.19,2.609-0.163,4.116,1.314c0.017,0.016,0.035,0.032,0.051,0.048c1.561,1.562,1.731,3.237,1.618,4.332l1.543,0.143
	C27.17,10.835,26.941,8.689,24.958,6.706z"/>
</svg>
