<?xml version="1.0" encoding="utf-8"?>
<!-- Generator: Adobe Illustrator 15.0.0, SVG Export Plug-In  -->
<!DOCTYPE svg PUBLIC "-//W3C//DTD SVG 1.1//EN" "http://www.w3.org/Graphics/SVG/1.1/DTD/svg11.dtd" [
	<!ENTITY ns_flows "http://ns.adobe.com/Flows/1.0/">
]>
<svg version="1.1"
	 xmlns="http://www.w3.org/2000/svg" xmlns:xlink="http://www.w3.org/1999/xlink" xmlns:a="http://ns.adobe.com/AdobeSVGViewerExtensions/3.0/"
	 x="0px" y="0px" width="150px" height="160px" viewBox="-7.123 -26.937 150 160" enable-background="new -7.123 -26.937 150 160"
	 xml:space="preserve">
<defs>
</defs>
<rect x="1.401" y="42.127" fill="#D1D3D4" width="92.07" height="56.379"/>
<polygon fill="#E6E7E8" points="33.954,42.127 1.401,42.127 1.401,98.506 63.416,98.506 "/>
<path fill="#3588A6" d="M93.384,40.599H1.371C0.614,40.599,0,41.211,0,41.971v57.988c0,0.76,0.614,1.37,1.371,1.37h5.937v3.43
	c0,0.757,0.611,1.368,1.37,1.368h77.397c0.757,0,1.369-0.611,1.369-1.368v-3.43h5.939c0.751,0,1.366-0.61,1.366-1.37V41.971
	C94.75,41.211,94.135,40.599,93.384,40.599z M92.129,97.106c0,0.759-0.615,1.367-1.373,1.367H3.996
	c-0.755,0-1.371-0.608-1.371-1.367V44.826c0-0.76,0.616-1.371,1.371-1.371h86.76c0.758,0,1.373,0.611,1.373,1.371V97.106z"/>
<path fill="#3B92B2" d="M0,41.971v57.988c0,0.76,0.614,1.37,1.371,1.37h5.937v3.43c0,0.757,0.611,1.368,1.37,1.368h58.72l-4-7.653
	H3.996c-0.755,0-1.371-0.608-1.371-1.367V44.826c0-0.76,0.616-1.371,1.371-1.371h30.65l-1.489-2.856H1.371
	C0.614,40.599,0,41.211,0,41.971z"/>
<path fill="#C8691C" d="M135.754,86.066c0,2.612-2.118,4.727-4.729,4.727h-30.067c-2.616,0-4.729-2.114-4.729-4.727V34.93
	c0-2.614,2.113-4.73,4.729-4.73h30.067c2.611,0,4.729,2.116,4.729,4.73V86.066z"/>
<path fill="#F79523" d="M96.998,32.497c-0.446,0.718-0.771,1.522-0.771,2.433v51.136c0,2.612,2.113,4.727,4.729,4.727h22.363
	c1.715-4.456,3.106-9.2,3.383-13.829C128.139,53.116,114.232,39.646,96.998,32.497z"/>
<g>
	<path fill="#D1D3D4" d="M132.547,86.012c0,0.275-0.225,0.5-0.5,0.5H99.935c-0.275,0-0.5-0.225-0.5-0.5V34.983
		c0-0.275,0.225-0.5,0.5-0.5h32.112c0.275,0,0.5,0.225,0.5,0.5V86.012z"/>
</g>
<path fill="#E6E7E8" d="M99.435,34.778v51.734h23.652c2.225-4.787,3.5-10.109,3.5-15.737
	C126.587,53.663,115.108,39.26,99.435,34.778z"/>
<path fill="#C8691C" d="M59.838,27.585H53.11c-0.881-1.654-2.581-2.966-4.691-3.637l3.552-7.619c0.225-0.483,0.017-1.054-0.466-1.28
	c-0.482-0.224-1.056-0.018-1.278,0.465l-3.75,8.036c-0.409-0.047-0.815-0.099-1.239-0.099c-0.82,0-1.594,0.122-2.344,0.292
	c-0.012-0.091,0.03-0.178-0.011-0.265l-3.843-8.238c-0.225-0.483-0.796-0.691-1.28-0.467c-0.48,0.225-0.688,0.798-0.465,1.282
	l3.842,8.238c0.003,0.008,0.011,0.008,0.017,0.017c-1.682,0.728-3.038,1.867-3.786,3.274H30.64c-1.825,0-3.307,1.48-3.307,3.304
	v5.235c0,1.825,1.481,3.306,3.307,3.306h29.198c1.827,0,3.303-1.48,3.303-3.306V30.89C63.141,29.066,61.665,27.585,59.838,27.585z"
	/>
<path fill="#F79523" d="M50.059,35.575c0-4.635-1.721-8.859-4.542-12.097c-0.093-0.008-0.183-0.025-0.279-0.025
	c-0.82,0-1.594,0.122-2.344,0.292c-0.012-0.091,0.03-0.178-0.011-0.265l-1.708-3.663c-0.879-0.533-1.805-1.005-2.774-1.389
	l2.736,5.867c0.003,0.008,0.011,0.008,0.017,0.017c-1.682,0.728-3.038,1.867-3.786,3.274H30.64c-1.825,0-3.307,1.48-3.307,3.304
	v5.235c0,1.825,1.481,3.306,3.307,3.306h19.009C49.912,38.185,50.059,36.899,50.059,35.575z"/>
<path fill="#FFFFFF" d="M58.322,31.856c0,0.53-0.434,0.965-0.965,0.965H33.391c-0.528,0-0.96-0.435-0.96-0.965l0,0
	c0-0.532,0.432-0.966,0.96-0.966h23.967C57.889,30.89,58.322,31.324,58.322,31.856L58.322,31.856z"/>
<path fill="#FFFFFF" d="M58.322,35.162c0,0.532-0.434,0.963-0.965,0.963H33.391c-0.528,0-0.96-0.432-0.96-0.963l0,0
	c0-0.532,0.432-0.963,0.96-0.963h23.967C57.889,34.198,58.322,34.63,58.322,35.162L58.322,35.162z"/>
<path fill="#3588A6" d="M69.817,18.443c-1.715-1.718-4.508-1.713-6.221,0c-1.712,1.712-1.715,4.505,0,6.22
	c1.716,1.718,4.509,1.716,6.221,0C71.53,22.951,71.533,20.157,69.817,18.443z"/>
<path fill="#3588A6" d="M80.427,6.527c-7.176-7.032-14.97-7.048-19.812-6.073l0.334,4.016c3.824-0.885,10.468-1.142,16.661,4.928
	c0.071,0.065,0.13,0.127,0.198,0.192c6.428,6.43,6.739,13.362,6.14,17.548l3.994,0.373C88.654,22.334,88.163,14.029,80.427,6.527z"
	/>
<path fill="#3588A6" d="M75.268,12.43c-0.052-0.054-0.107-0.107-0.158-0.163c-4.662-4.565-9.938-5.165-13.834-4.54l0.331,4.001
	c2.6-0.495,6.772-0.423,10.686,3.412c0.045,0.043,0.087,0.084,0.131,0.125c4.052,4.055,4.494,8.402,4.201,11.246l4.008,0.372
	C81.01,23.15,80.418,17.579,75.268,12.43z"/>
</svg>
