<?xml version="1.0" encoding="utf-8"?>
<svg version="1.1"
	 xmlns="http://www.w3.org/2000/svg" xmlns:xlink="http://www.w3.org/1999/xlink"
	 x="0px" y="0px" width="48px" height="48px" viewBox="0 0 48 48">
<defs>
</defs>
<path fill="#52CAF5" d="M46.463,42.658c0,1.898-1.536,3.435-3.434,3.435H4.97c-1.896,0-3.433-1.536-3.433-3.435V5.34
	c0-1.896,1.538-3.434,3.433-3.434h38.06c1.897,0,3.434,1.538,3.434,3.434V42.658z"/>
<path fill="#3588A6" d="M1.537,10.049v32.609c0,1.898,1.538,3.435,3.433,3.435h25.981c0.049-0.724,0.083-3.657,0.083-4.393
	C31.034,24.925,18.019,11.199,1.537,10.049z"/>
<circle fill="#F79523" cx="24" cy="24" r="17.026"/>
<path fill="#C8691C" d="M11.54,12.423C8.714,15.462,6.974,19.523,6.974,24c0,9.405,7.623,17.026,17.026,17.026
	c2.479,0,4.828-0.541,6.953-1.495C30.126,27.283,22.355,16.948,11.54,12.423z"/>
<path fill="#FFFFFF" d="M21.969,13.749c0-0.727,0.265-1.355,0.794-1.885c0.529-0.529,1.163-0.794,1.903-0.794
	c0.74,0,1.372,0.261,1.896,0.786c0.523,0.524,0.784,1.154,0.784,1.894c0,0.739-0.261,1.373-0.784,1.905
	c-0.523,0.529-1.155,0.794-1.896,0.794c-0.74,0-1.374-0.265-1.903-0.794C22.234,15.122,21.969,14.488,21.969,13.749z M22.468,19.017
	h4.51v15.857h-4.51V19.017z"/>
<path fill="#A7A9AC" d="M22.468,20.016v14.858h4.51v-8.695C25.721,23.944,24.207,21.873,22.468,20.016z"/>
</svg>
