<?xml version="1.0" encoding="utf-8"?>
<!-- Generator: Adobe Illustrator 15.0.0, SVG Export Plug-In  -->
<!DOCTYPE svg PUBLIC "-//W3C//DTD SVG 1.1//EN" "http://www.w3.org/Graphics/SVG/1.1/DTD/svg11.dtd" [
	<!ENTITY ns_flows "http://ns.adobe.com/Flows/1.0/">
]>
<svg version="1.1"
	 xmlns="http://www.w3.org/2000/svg" xmlns:xlink="http://www.w3.org/1999/xlink" xmlns:a="http://ns.adobe.com/AdobeSVGViewerExtensions/3.0/"
	 x="0px" y="0px" width="48px" height="48px" viewBox="-2.888 -3.507 48 48" enable-background="new -2.888 -3.507 48 48"
	 xml:space="preserve">
<defs>
</defs>
<path fill="#3588A6" d="M42.516,40.346c0,0.503-0.405,0.906-0.906,0.906H0.906c-0.5,0-0.906-0.403-0.906-0.906V0.904
	C0,0.405,0.406,0,0.906,0H41.61c0.501,0,0.906,0.405,0.906,0.904V40.346z"/>
<path fill="#52CAF5" d="M0,2.776v37.569c0,0.503,0.406,0.906,0.906,0.906h23.056C25.475,22.884,10.935,6.025,0,2.776z"/>
<path fill="#FFFFFF" d="M12.326,36.297L4.25,37.42L3.27,36.35l1.847-7.944l1.16,1.27l-1.554,6.321l6.446-0.968L12.326,36.297z"/>
<path fill="#FFFFFF" d="M35.445,12.844l1.146-5.966l-6.037,0.613l-1.159-1.268l7.58-0.672l0.978,1.072l-1.347,7.49L35.445,12.844z"
	/>
<path fill="#FFFFFF" d="M11.536,28.45c-0.697,0.05-1.171,0.189-1.421,0.419c-0.282,0.259-0.323,0.498-0.119,0.72
	c0.133,0.146,0.544,0.128,1.232-0.053c0.688-0.18,1.274-0.219,1.758-0.12c0.485,0.099,0.914,0.356,1.291,0.767
	c0.425,0.467,0.614,0.996,0.568,1.598c-0.047,0.596-0.321,1.126-0.821,1.584c-0.355,0.326-0.709,0.559-1.059,0.702
	c-0.349,0.147-0.771,0.252-1.267,0.32l-0.356-1.653c0.055-0.016,0.131-0.027,0.228-0.033c0.635-0.046,1.061-0.166,1.278-0.367
	c0.133-0.117,0.207-0.259,0.222-0.408c0.014-0.149-0.031-0.283-0.133-0.396c-0.093-0.103-0.256-0.151-0.491-0.146
	c-0.233,0.004-0.647,0.062-1.237,0.179c-0.591,0.118-1.073,0.14-1.449,0.073c-0.374-0.07-0.706-0.263-0.993-0.575
	c-0.437-0.479-0.634-1.016-0.591-1.615s0.317-1.133,0.828-1.599c0.566-0.517,1.292-0.825,2.175-0.928L11.536,28.45z"/>
<path fill="#FFFFFF" d="M15.73,24.413c-0.378,0.043-0.668,0.155-0.87,0.34c-0.513,0.47-0.309,1.209,0.616,2.22
	c0.938,1.027,1.659,1.312,2.165,0.848c0.194-0.177,0.339-0.448,0.438-0.811l1.136,1.244c-0.267,0.517-0.542,0.906-0.826,1.164
	c-0.582,0.532-1.253,0.723-2.011,0.567c-0.759-0.151-1.507-0.632-2.245-1.438c-1.009-1.104-1.524-2.028-1.547-2.776
	c-0.022-0.746,0.25-1.38,0.814-1.896c0.373-0.341,0.778-0.567,1.217-0.68L15.73,24.413z"/>
<path fill="#FFFFFF" d="M19.644,20.863c-0.294,0.176-0.49,0.312-0.59,0.405c-0.703,0.643-0.718,1.331-0.045,2.063l2.586,2.833
	l-1.479,1.353l-4.753-5.2l1.383-1.265l1.125,1.229l0.023-0.021c-0.599-1.123-0.474-2.088,0.375-2.902L19.644,20.863z"/>
<path fill="#FFFFFF" d="M17.457,17.232c-0.217-0.24-0.319-0.526-0.306-0.858c0.016-0.332,0.145-0.61,0.388-0.83
	c0.241-0.223,0.528-0.324,0.854-0.31c0.33,0.013,0.606,0.141,0.828,0.384c0.221,0.244,0.326,0.531,0.313,0.862
	c-0.014,0.328-0.141,0.604-0.383,0.826c-0.242,0.222-0.53,0.325-0.862,0.311C17.956,17.603,17.678,17.474,17.457,17.232z
	 M19.2,18.81l1.479-1.353l4.751,5.201l-1.477,1.355L19.2,18.81z"/>
<path fill="#FFFFFF" d="M24.145,15.792c-0.304-0.909-0.21-1.591,0.287-2.045c0.43-0.391,0.975-0.524,1.63-0.397
	c0.659,0.126,1.449,0.698,2.378,1.712c0.989,1.083,1.509,1.96,1.558,2.631s-0.138,1.199-0.558,1.581
	c-0.5,0.459-1.191,0.483-2.073,0.07l-0.021-0.046l-0.023,0.021l2.902,3.179l-1.504,1.371l-6.852-7.499l1.504-1.374l0.747,0.817
	L24.145,15.792z M27.689,18.429c0.215-0.196,0.258-0.447,0.132-0.75c-0.125-0.304-0.431-0.722-0.919-1.256
	c-0.812-0.885-1.409-1.15-1.796-0.796c-0.227,0.207-0.287,0.466-0.181,0.777c0.106,0.309,0.388,0.714,0.841,1.212
	C26.617,18.548,27.26,18.819,27.689,18.429z"/>
<path fill="#FFFFFF" d="M31.09,10.101l-0.921,0.844l3.679,4.025l-1.492,1.363l-3.668-4.014l-0.934,0.854l-1.085-1.189l0.933-0.854
	l-1.351-1.479l1.489-1.363l1.354,1.479l0.92-0.841L31.09,10.101z"/>
</svg>
