<?xml version="1.0" encoding="utf-8"?>
<svg version="1.1"
	 xmlns="http://www.w3.org/2000/svg" xmlns:xlink="http://www.w3.org/1999/xlink"
	 x="0px" y="0px" width="48px" height="48px" viewBox="0 0 48 48">
<defs>
</defs>
<path fill="#3588A6" d="M45.225,44.215c0,0.5-0.406,0.904-0.904,0.904H3.68c-0.499,0-0.904-0.404-0.904-0.904V3.784
	c0-0.498,0.405-0.903,0.904-0.903H44.32c0.498,0,0.904,0.405,0.904,0.903V44.215z"/>
<path fill="#52CAF5" d="M2.775,5.653v38.562c0,0.5,0.405,0.904,0.904,0.904h23.021C28.21,26.778,13.693,8.897,2.775,5.653z"/>
<path fill="#FFFFFF" d="M15.082,40.17l-8.063,1.122l-0.979-1.07l1.845-7.929l1.157,1.266l-1.55,6.314l6.436-0.97L15.082,40.17z"/>
<path fill="#FFFFFF" d="M38.165,16.755l1.144-5.958l-6.029,0.612l-1.156-1.265l7.567-0.671l0.978,1.07l-1.347,7.478L38.165,16.755z"
	/>
<path fill="#FFFFFF" d="M14.292,32.336c-0.696,0.05-1.169,0.189-1.418,0.419c-0.283,0.258-0.323,0.496-0.12,0.72
	c0.133,0.146,0.543,0.127,1.23-0.054c0.686-0.18,1.271-0.219,1.754-0.121c0.485,0.101,0.913,0.355,1.289,0.768
	c0.424,0.466,0.613,0.994,0.567,1.591c-0.046,0.6-0.32,1.128-0.819,1.584c-0.354,0.326-0.708,0.558-1.056,0.703
	c-0.35,0.146-0.771,0.252-1.266,0.317l-0.355-1.652c0.055-0.013,0.13-0.022,0.228-0.031c0.633-0.045,1.059-0.166,1.276-0.367
	c0.132-0.116,0.206-0.256,0.222-0.405c0.014-0.15-0.03-0.283-0.133-0.396c-0.092-0.101-0.255-0.149-0.49-0.147
	c-0.233,0.006-0.646,0.065-1.236,0.181c-0.589,0.117-1.07,0.14-1.446,0.071c-0.373-0.069-0.704-0.262-0.991-0.574
	c-0.436-0.478-0.633-1.013-0.59-1.611s0.317-1.132,0.827-1.596c0.565-0.517,1.289-0.824,2.17-0.929L14.292,32.336z"/>
<path fill="#FFFFFF" d="M18.481,28.307c-0.377,0.043-0.667,0.156-0.87,0.338c-0.512,0.47-0.308,1.208,0.615,2.218
	c0.937,1.025,1.656,1.308,2.162,0.845c0.194-0.177,0.338-0.447,0.437-0.809l1.134,1.241c-0.267,0.517-0.542,0.904-0.824,1.163
	c-0.582,0.53-1.251,0.722-2.008,0.567c-0.758-0.151-1.505-0.634-2.242-1.438c-1.008-1.102-1.521-2.026-1.544-2.771
	c-0.024-0.746,0.248-1.378,0.813-1.895c0.371-0.339,0.776-0.566,1.215-0.677L18.481,28.307z"/>
<path fill="#FFFFFF" d="M22.388,24.76c-0.292,0.177-0.489,0.313-0.59,0.407c-0.7,0.64-0.716,1.327-0.045,2.059l2.583,2.828
	l-1.477,1.35l-4.746-5.192l1.38-1.263l1.123,1.229l0.023-0.022c-0.598-1.118-0.473-2.083,0.375-2.896L22.388,24.76z"/>
<path fill="#FFFFFF" d="M20.204,21.135c-0.216-0.239-0.318-0.524-0.305-0.856c0.016-0.332,0.144-0.608,0.387-0.83
	c0.241-0.22,0.526-0.323,0.853-0.309c0.329,0.016,0.605,0.142,0.827,0.385c0.221,0.243,0.325,0.53,0.313,0.86
	c-0.014,0.33-0.142,0.605-0.382,0.826c-0.242,0.222-0.529,0.325-0.861,0.31C20.702,21.505,20.425,21.377,20.204,21.135z
	 M21.945,22.711l1.475-1.35l4.745,5.195l-1.475,1.349L21.945,22.711z"/>
<path fill="#FFFFFF" d="M26.883,19.697c-0.303-0.906-0.209-1.587,0.288-2.041c0.427-0.391,0.972-0.523,1.626-0.397
	c0.657,0.127,1.445,0.696,2.374,1.71c0.987,1.08,1.507,1.957,1.555,2.626c0.049,0.671-0.137,1.197-0.557,1.579
	c-0.499,0.458-1.19,0.481-2.069,0.07l-0.021-0.046l-0.022,0.021l2.898,3.172l-1.502,1.371l-6.842-7.488l1.502-1.372l0.746,0.817
	L26.883,19.697z M30.421,22.33c0.215-0.195,0.257-0.444,0.133-0.749c-0.127-0.304-0.433-0.722-0.92-1.254
	c-0.809-0.883-1.406-1.149-1.792-0.795c-0.227,0.207-0.287,0.466-0.18,0.776c0.105,0.309,0.387,0.714,0.838,1.21
	C29.351,22.45,29.992,22.721,30.421,22.33z"/>
<path fill="#FFFFFF" d="M33.817,14.016l-0.921,0.842l3.675,4.02l-1.491,1.361l-3.661-4.007l-0.933,0.853l-1.084-1.188l0.933-0.853
	l-1.351-1.475l1.489-1.362l1.352,1.477l0.918-0.84L33.817,14.016z"/>
</svg>
