<?xml version="1.0" encoding="utf-8"?>
<!-- Generator: Adobe Illustrator 15.0.0, SVG Export Plug-In  -->
<!DOCTYPE svg PUBLIC "-//W3C//DTD SVG 1.1//EN" "http://www.w3.org/Graphics/SVG/1.1/DTD/svg11.dtd" [
	<!ENTITY ns_flows "http://ns.adobe.com/Flows/1.0/">
]>
<svg version="1.1"
	 xmlns="http://www.w3.org/2000/svg" xmlns:xlink="http://www.w3.org/1999/xlink" xmlns:a="http://ns.adobe.com/AdobeSVGViewerExtensions/3.0/"
	 x="0px" y="0px" width="150px" height="160px" viewBox="-34.572 -8.335 150 160" enable-background="new -34.572 -8.335 150 160"
	 xml:space="preserve">
<defs>
</defs>
<path fill="#3588A6" d="M80.856,135.869c0,4.123-3.34,7.461-7.457,7.461H7.46c-4.12,0-7.46-3.338-7.46-7.461V7.458
	C0,3.339,3.34,0,7.46,0h65.938c4.117,0,7.457,3.339,7.457,7.458V135.869z"/>
<path fill="#52CAF5" d="M0.502,4.827C0.19,5.647,0,6.529,0,7.458v128.411c0,4.123,3.34,7.461,7.46,7.461h46.94
	c11.109-14.639,17.715-32.89,17.715-52.686C72.116,47.8,41.221,12.195,0.502,4.827z"/>
<path fill="#E6E7E8" d="M77.766,127.653c0,1.645-1.332,2.977-2.977,2.977H6.062c-1.644,0-2.973-1.332-2.973-2.977V12.481
	c0-1.642,1.329-2.974,2.973-2.974H74.79c1.645,0,2.977,1.332,2.977,2.974V127.653z"/>
<path fill="#0B495C" d="M35.068,4.902c0,1.164-0.941,2.103-2.104,2.103l0,0c-1.164,0-2.105-0.939-2.105-2.103l0,0
	c0-1.162,0.941-2.102,2.105-2.102l0,0C34.126,2.8,35.068,3.74,35.068,4.902L35.068,4.902z"/>
<path fill="#0B495C" d="M42.532,4.902c0,1.164-0.939,2.103-2.102,2.103l0,0c-1.164,0-2.104-0.939-2.104-2.103l0,0
	c0-1.162,0.941-2.102,2.104-2.102l0,0C41.592,2.8,42.532,3.74,42.532,4.902L42.532,4.902z"/>
<path fill="#0B495C" d="M49.999,4.902c0,1.164-0.939,2.103-2.102,2.103l0,0c-1.164,0-2.105-0.939-2.105-2.103l0,0
	c0-1.162,0.941-2.102,2.105-2.102l0,0C49.059,2.8,49.999,3.74,49.999,4.902L49.999,4.902z"/>
<path fill="#F1F2F2" d="M3.089,12.481v115.172c0,1.645,1.329,2.977,2.973,2.977h56.345c6.191-11.98,9.709-25.569,9.709-39.985
	c0-36.861-22.873-68.361-55.19-81.138H6.062C4.417,9.507,3.089,10.839,3.089,12.481z"/>
<path fill="#0B495C" d="M60.225,136.83c0,1.35-1.094,2.443-2.445,2.443H29.436c-1.349,0-2.443-1.094-2.443-2.443l0,0
	c0-1.348,1.094-2.441,2.443-2.441H57.78C59.131,134.389,60.225,135.482,60.225,136.83L60.225,136.83z"/>
</svg>
