<?xml version="1.0" encoding="utf-8"?>
<svg version="1.1"
	 xmlns="http://www.w3.org/2000/svg" xmlns:xlink="http://www.w3.org/1999/xlink"
	 x="0px" y="0px" width="48px" height="48px" viewBox="0 0 48 48">
<defs>
</defs>
<path fill="#3588A6" d="M27.027,43.753c0,1.27-1.028,2.296-2.295,2.296H4.445c-1.268,0-2.295-1.026-2.295-2.296V4.246
	c0-1.267,1.028-2.294,2.295-2.294h20.288c1.267,0,2.295,1.027,2.295,2.294V43.753z"/>
<path fill="#52CAF5" d="M2.304,3.436C2.208,3.688,2.149,3.96,2.149,4.246v39.507c0,1.27,1.028,2.296,2.295,2.296h14.442
	c3.419-4.503,5.451-10.119,5.451-16.209C24.338,16.657,14.832,5.703,2.304,3.436z"/>
<path fill="#E6E7E8" d="M26.075,41.226c0,0.507-0.41,0.916-0.914,0.916H4.015c-0.506,0-0.915-0.409-0.915-0.916V5.791
	c0-0.505,0.409-0.916,0.915-0.916h21.146c0.504,0,0.914,0.41,0.914,0.916V41.226z"/>
<path fill="#0B495C" d="M12.938,3.459c0,0.358-0.29,0.646-0.647,0.646l0,0c-0.358,0-0.647-0.288-0.647-0.646l0,0
	c0-0.358,0.29-0.647,0.647-0.647l0,0C12.649,2.813,12.938,3.102,12.938,3.459L12.938,3.459z"/>
<path fill="#0B495C" d="M15.235,3.459c0,0.358-0.289,0.646-0.646,0.646l0,0c-0.358,0-0.647-0.288-0.647-0.646l0,0
	c0-0.358,0.29-0.647,0.647-0.647l0,0C14.946,2.813,15.235,3.102,15.235,3.459L15.235,3.459z"/>
<path fill="#0B495C" d="M17.532,3.459c0,0.358-0.289,0.646-0.647,0.646l0,0c-0.357,0-0.647-0.288-0.647-0.646l0,0
	c0-0.358,0.29-0.647,0.647-0.647l0,0C17.243,2.813,17.532,3.102,17.532,3.459L17.532,3.459z"/>
<path fill="#F1F2F2" d="M3.1,5.791v35.435c0,0.507,0.409,0.916,0.915,0.916H21.35c1.905-3.687,2.988-7.867,2.988-12.302
	c0-11.342-7.038-21.033-16.981-24.964H4.015C3.509,4.875,3.1,5.286,3.1,5.791z"/>
<path fill="#0B495C" d="M20.679,44.05c0,0.415-0.336,0.751-0.752,0.751h-8.721c-0.415,0-0.751-0.336-0.751-0.751l0,0
	c0-0.416,0.337-0.752,0.751-0.752h8.721C20.343,43.298,20.679,43.634,20.679,44.05L20.679,44.05z"/>
<path fill="#C8691C" d="M45.851,42.528c0,1.739-1.41,3.15-3.149,3.15H30.896c-1.741,0-3.149-1.411-3.149-3.15v-29.61
	c0-1.739,1.408-3.15,3.149-3.15h11.805c1.739,0,3.149,1.411,3.149,3.15V42.528z"/>
<path fill="#F79523" d="M29.293,10.221c-0.923,0.55-1.546,1.546-1.546,2.698v29.61c0,1.739,1.408,3.15,3.149,3.15h4.401
	c4.516-3.84,7.389-9.554,7.389-15.945C42.687,20.833,37.125,13.25,29.293,10.221z"/>
<rect x="28.688" y="12.958" fill="#E6E7E8" width="16.222" height="29.532"/>
<path fill="#FFFFFF" d="M40.265,44.083c0,0.192-0.153,0.347-0.347,0.347H33.68c-0.192,0-0.347-0.154-0.347-0.347l0,0
	c0-0.191,0.154-0.347,0.347-0.347h6.238C40.111,43.736,40.265,43.892,40.265,44.083L40.265,44.083z"/>
<path fill="#FFFFFF" d="M39.918,11.501c0,0.192-0.153,0.347-0.347,0.347h-5.545c-0.193,0-0.347-0.155-0.347-0.347l0,0
	c0-0.191,0.153-0.347,0.347-0.347h5.545C39.765,11.155,39.918,11.311,39.918,11.501L39.918,11.501z"/>
<path fill="#F1F2F2" d="M28.688,42.489h9.639c2.723-3.534,4.359-7.949,4.359-12.756c0-6.877-3.328-12.959-8.447-16.776h-5.551
	V42.489z"/>
</svg>
