<?xml version="1.0" encoding="utf-8"?>
<svg version="1.1"
	 xmlns="http://www.w3.org/2000/svg" xmlns:xlink="http://www.w3.org/1999/xlink"
	 x="0px" y="0px" width="100px" height="100px" viewBox="-8.047 -8.919 100 100">
<defs>
</defs>
<path fill="#52CAF5" d="M42.398,2.5C20.363,2.5,2.5,20.363,2.5,42.398c0,17.104,10.765,31.688,25.888,37.361l9.195-24.518
	c-5.198-1.951-8.899-6.964-8.899-12.844c0-7.575,6.141-13.715,13.715-13.715c7.575,0,13.716,6.141,13.716,13.715
	c0,5.88-3.701,10.893-8.899,12.844l9.194,24.518c15.122-5.673,25.888-20.258,25.888-37.361C82.297,20.363,64.435,2.5,42.398,2.5z"/>
<path fill="#3588A6" d="M2.5,42.398c0,17.104,10.765,31.688,25.888,37.361l9.195-24.518c-5.198-1.951-8.899-6.964-8.899-12.844
	c0-7.575,6.141-13.715,13.715-13.715c1.252,0,2.46,0.182,3.613,0.497l5.099-25.715C48.305,2.84,45.392,2.5,42.398,2.5
	C20.363,2.5,2.5,20.363,2.5,42.398z"/>
<path fill="#C8691C" d="M56.409,82.26c-0.354,0-0.706-0.075-1.034-0.224c-0.604-0.274-1.074-0.777-1.307-1.398L44.874,56.12
	c-0.484-1.293,0.17-2.733,1.462-3.219c4.354-1.634,7.278-5.854,7.278-10.503c0-6.184-5.031-11.215-11.216-11.215
	c-6.184,0-11.215,5.031-11.215,11.215c0,4.648,2.925,8.869,7.278,10.503c1.292,0.485,1.947,1.926,1.462,3.219l-9.195,24.518
	c-0.233,0.621-0.703,1.124-1.307,1.398c-0.602,0.273-1.292,0.298-1.912,0.064C11.055,75.928,0,59.973,0,42.398
	C0,19.02,19.02,0,42.398,0s42.399,19.02,42.399,42.398c0,17.574-11.056,33.529-27.51,39.702
	C57.004,82.207,56.706,82.26,56.409,82.26z M42.398,5C21.777,5,5,21.777,5,42.398c0,14.664,8.727,28.05,21.955,34.063l7.479-19.941
	c-5.018-2.844-8.25-8.247-8.25-14.122c0-8.941,7.274-16.215,16.215-16.215c8.942,0,16.216,7.274,16.216,16.215
	c0,5.875-3.232,11.278-8.25,14.122l7.479,19.941c13.228-6.014,21.954-19.399,21.954-34.063C79.797,21.777,63.02,5,42.398,5z"/>
<path fill="#C8691C" d="M56.409,82.26c-0.354,0-0.706-0.075-1.034-0.224c-0.604-0.274-1.074-0.777-1.307-1.398L44.874,56.12
	c-0.484-1.293,0.17-2.733,1.462-3.219c4.354-1.634,7.278-5.854,7.278-10.503c0-6.184-5.031-11.215-11.216-11.215
	c-6.184,0-11.215,5.031-11.215,11.215c0,4.648,2.925,8.869,7.278,10.503c1.292,0.485,1.947,1.926,1.462,3.219l-9.195,24.518
	c-0.233,0.621-0.703,1.124-1.307,1.398c-0.602,0.273-1.292,0.298-1.912,0.064C11.055,75.928,0,59.973,0,42.398
	C0,19.02,19.02,0,42.398,0s42.399,19.02,42.399,42.398c0,17.574-11.056,33.529-27.51,39.702
	C57.004,82.207,56.706,82.26,56.409,82.26z M42.398,5C21.777,5,5,21.777,5,42.398c0,14.664,8.727,28.05,21.955,34.063l7.479-19.941
	c-5.018-2.844-8.25-8.247-8.25-14.122c0-8.941,7.274-16.215,16.215-16.215c8.942,0,16.216,7.274,16.216,16.215
	c0,5.875-3.232,11.278-8.25,14.122l7.479,19.941c13.228-6.014,21.954-19.399,21.954-34.063C79.797,21.777,63.02,5,42.398,5z"/>
<path fill="#F79523" d="M56.409,82.26c-0.354,0-0.706-0.075-1.034-0.224c-0.604-0.274-1.074-0.777-1.307-1.398L44.874,56.12
	c-0.484-1.293,0.17-2.733,1.462-3.219c4.354-1.634,7.278-5.854,7.278-10.503c0-6.184-5.031-11.215-11.216-11.215
	c-6.184,0-11.215,5.031-11.215,11.215c0,4.648,2.925,8.869,7.278,10.503c1.292,0.485,1.947,1.926,1.462,3.219l-9.195,24.518
	c-0.233,0.621-0.703,1.124-1.307,1.398c-0.602,0.273-1.292,0.298-1.912,0.064C11.055,75.928,0,59.973,0,42.398
	C0,19.02,19.02,0,42.398,0s42.399,19.02,42.399,42.398c0,17.574-11.056,33.529-27.51,39.702
	C57.004,82.207,56.706,82.26,56.409,82.26z M42.398,5C21.777,5,5,21.777,5,42.398c0,14.664,8.727,28.05,21.955,34.063l7.479-19.941
	c-5.018-2.844-8.25-8.247-8.25-14.122c0-8.941,7.274-16.215,16.215-16.215c8.942,0,16.216,7.274,16.216,16.215
	c0,5.875-3.232,11.278-8.25,14.122l7.479,19.941c13.228-6.014,21.954-19.399,21.954-34.063C79.797,21.777,63.02,5,42.398,5z"/>
<path fill="#C8691C" d="M42.398,26.183c-8.941,0-16.215,7.274-16.215,16.215c0,5.875,3.232,11.278,8.25,14.122l-7.479,19.941
	C13.727,70.448,5,57.063,5,42.398C5,21.777,21.777,5,42.398,5c2.826,0,5.576,0.326,8.224,0.922l0.974-4.906
	C48.632,0.358,45.557,0,42.398,0C19.02,0,0,19.02,0,42.398c0,17.574,11.055,33.529,27.51,39.702c0.621,0.233,1.31,0.209,1.912-0.064
	c0.604-0.274,1.074-0.777,1.307-1.398l9.195-24.518c0.485-1.293-0.17-2.733-1.462-3.219c-4.353-1.634-7.278-5.854-7.278-10.503
	c0-6.184,5.031-11.215,11.215-11.215c1.085,0,2.132,0.163,3.126,0.452l0.973-4.907C45.186,26.385,43.816,26.183,42.398,26.183z"/>
</svg>
