<?xml version="1.0" encoding="utf-8"?>
<!-- Generator: Adobe Illustrator 15.0.0, SVG Export Plug-In  -->
<!DOCTYPE svg PUBLIC "-//W3C//DTD SVG 1.1//EN" "http://www.w3.org/Graphics/SVG/1.1/DTD/svg11.dtd" [
	<!ENTITY ns_flows "http://ns.adobe.com/Flows/1.0/">
]>
<svg version="1.1"
	 xmlns="http://www.w3.org/2000/svg" xmlns:xlink="http://www.w3.org/1999/xlink" xmlns:a="http://ns.adobe.com/AdobeSVGViewerExtensions/3.0/"
	 x="0px" y="0px" width="150px" height="160px" viewBox="-7.192 -17.277 150 160" enable-background="new -7.192 -17.277 150 160"
	 xml:space="preserve">
<defs>
</defs>
<path fill="#F79523" d="M135.617,122.054c0,1.875-1.518,3.392-3.391,3.392H3.391c-1.873,0-3.391-1.517-3.391-3.392V3.391
	C0,1.518,1.518,0,3.391,0h128.835c1.873,0,3.391,1.518,3.391,3.391V122.054z"/>
<path fill="#FCB51E" d="M26.14,13.883c-9.067,0-17.829,1.289-26.14,3.649v104.522c0,1.875,1.518,3.392,3.391,3.392h116.962
	c0.877-5.201,1.357-10.538,1.357-15.993C121.71,56.67,78.919,13.883,26.14,13.883z"/>
<path fill="#3588A6" d="M129.25,77.728c1.043,2.569-0.199,5.51-2.768,6.549l0,0c-2.578,1.039-5.514-0.204-6.553-2.773L92.744,14.346
	c-1.045-2.572,0.201-5.508,2.773-6.551l0,0c2.574-1.039,5.508,0.204,6.549,2.776L129.25,77.728z"/>
<polygon fill="#3588A6" points="20.846,70.046 87.072,20.442 111.613,81.064 32.552,98.964 "/>
<path fill="#3588A6" d="M27.567,102.731c0.729,1.809-0.14,3.861-1.942,4.597l0,0c-1.801,0.729-3.856-0.146-4.586-1.953L8.581,74.603
	c-0.727-1.801,0.143-3.854,1.943-4.587l0,0c1.803-0.728,3.855,0.144,4.584,1.944L27.567,102.731z"/>
<path fill="#3588A6" d="M53.41,78.708c-9.693,3.926-14.375,14.979-10.453,24.667c3.929,9.707,14.977,14.383,24.671,10.455
	c9.699-3.928,14.38-14.966,10.449-24.673C74.156,79.47,63.11,74.78,53.41,78.708z M65.129,107.646
	c-6.284,2.542-13.443-0.483-15.99-6.773c-2.541-6.278,0.494-13.443,6.777-15.985c6.28-2.544,13.441,0.495,15.988,6.773
	C74.447,97.95,71.408,105.102,65.129,107.646z"/>
<polygon fill="#52CAF5" points="25.428,81.37 27.689,87.022 104.679,63.781 95.498,41.251 "/>
<polygon fill="#52CAF5" points="102.189,37.666 111.052,32.701 121.728,59.163 112.095,62.14 "/>
<polygon fill="#52CAF5" points="19.971,83.912 13.562,87.091 15.045,90.588 21.826,88.521 "/>
</svg>
