<?xml version="1.0" encoding="utf-8"?>
<svg version="1.1"
	 xmlns="http://www.w3.org/2000/svg" xmlns:xlink="http://www.w3.org/1999/xlink"
	 x="0px" y="0px" width="48px" height="48px" viewBox="0 0 48 48">
<defs>
</defs>
<path fill="#F79523" d="M46.05,44.947c0,0.609-0.493,1.103-1.103,1.103H3.052c-0.608,0-1.102-0.493-1.102-1.103V3.052
	c0-0.608,0.494-1.102,1.102-1.102h41.895c0.609,0,1.103,0.494,1.103,1.102V44.947z"/>
<path fill="#FCB51E" d="M10.451,8.669c-2.949,0-5.798,0.419-8.5,1.187v35.091c0,0.609,0.494,1.103,1.102,1.103h38.034
	c0.286-1.691,0.442-4.529,0.442-6.303C41.528,22.583,27.613,8.669,10.451,8.669z"/>
<path fill="#3588A6" d="M43.979,29.431c0.34,0.836-0.064,1.791-0.9,2.13l0,0c-0.838,0.338-1.792-0.067-2.131-0.902L32.108,8.82
	c-0.339-0.837,0.066-1.791,0.901-2.13l0,0c0.837-0.338,1.792,0.066,2.13,0.903L43.979,29.431z"/>
<polygon fill="#3588A6" points="8.729,26.933 30.264,10.802 38.244,30.517 12.535,36.337 "/>
<path fill="#3588A6" d="M10.915,37.562c0.237,0.588-0.046,1.255-0.632,1.494l0,0c-0.585,0.237-1.253-0.047-1.491-0.635L4.74,28.414
	c-0.236-0.585,0.046-1.253,0.632-1.49l0,0c0.586-0.237,1.254,0.046,1.491,0.631L10.915,37.562z"/>
<path fill="#3588A6" d="M19.318,29.749c-3.152,1.277-4.675,4.871-3.399,8.021c1.277,3.157,4.87,4.679,8.023,3.4
	c3.154-1.276,4.676-4.866,3.398-8.022C26.064,29.996,22.472,28.473,19.318,29.749z M23.129,39.159
	c-2.043,0.826-4.372-0.156-5.2-2.202c-0.827-2.042,0.161-4.371,2.204-5.199c2.042-0.826,4.371,0.162,5.199,2.204
	C26.159,36.007,25.171,38.333,23.129,39.159z"/>
<polygon fill="#52CAF5" points="10.219,30.615 10.954,32.453 35.99,24.896 33.004,17.569 "/>
<polygon fill="#52CAF5" points="35.18,16.403 38.063,14.789 41.533,23.394 38.401,24.362 "/>
<polygon fill="#52CAF5" points="8.444,31.442 6.36,32.476 6.842,33.612 9.047,32.94 "/>
</svg>
