<?xml version="1.0" encoding="utf-8"?>
<!-- Generator: Adobe Illustrator 15.0.0, SVG Export Plug-In  -->
<!DOCTYPE svg PUBLIC "-//W3C//DTD SVG 1.1//EN" "http://www.w3.org/Graphics/SVG/1.1/DTD/svg11.dtd" [
	<!ENTITY ns_flows "http://ns.adobe.com/Flows/1.0/">
]>
<svg version="1.1"
	 xmlns="http://www.w3.org/2000/svg" xmlns:xlink="http://www.w3.org/1999/xlink" xmlns:a="http://ns.adobe.com/AdobeSVGViewerExtensions/3.0/"
	 x="0px" y="0px" width="150px" height="160px" viewBox="-20.955 -9.783 150 160" enable-background="new -20.955 -9.783 150 160"
	 xml:space="preserve">
<defs>
</defs>
<linearGradient id="SVGID_1_" gradientUnits="userSpaceOnUse" x1="51.3701" y1="113.5137" x2="105.2158" y2="113.5137">
	<stop  offset="0" style="stop-color:#3B9AD5"/>
	<stop  offset="1" style="stop-color:#49C7EF"/>
</linearGradient>
<path fill="url(#SVGID_1_)" d="M102.693,108.356l-5.115-0.317c-0.434-1.548-1.049-3.016-1.829-4.379l3.437-3.755
	c0.984-0.989,0.984-2.585,0-3.564l-3.727-3.729c-0.98-0.978-2.57-0.978-3.559,0l-3.755,3.44c-1.365-0.776-2.828-1.396-4.379-1.831
	l-0.321-5.107c0-1.397-1.12-2.521-2.518-2.521h-5.27c-1.401,0-2.525,1.123-2.525,2.521l-0.321,5.107
	c-1.543,0.435-3.008,1.055-4.372,1.831l-3.758-3.44c-0.987-0.978-2.577-0.978-3.565,0l-3.724,3.729
	c-0.983,0.979-0.983,2.575,0,3.564l3.439,3.755c-0.78,1.363-1.4,2.831-1.83,4.379l-5.113,0.317c-1.397,0-2.519,1.123-2.519,2.521
	v5.271c0,1.395,1.121,2.517,2.519,2.517l5.113,0.325c0.43,1.544,1.05,3.012,1.83,4.373l-3.439,3.761
	c-0.983,0.979-0.983,2.576,0,3.558l3.724,3.729c0.988,0.98,2.578,0.98,3.565,0l3.758-3.439c1.364,0.78,2.829,1.403,4.372,1.831
	l0.321,5.115c0,1.397,1.124,2.517,2.525,2.517h5.27c1.397,0,2.518-1.119,2.518-2.517l0.321-5.115
	c1.551-0.428,3.014-1.051,4.379-1.831l3.755,3.439c0.988,0.98,2.578,0.98,3.559,0l3.727-3.729c0.984-0.981,0.984-2.578,0-3.558
	l-3.437-3.761c0.78-1.361,1.396-2.829,1.829-4.373l5.115-0.325c1.4,0,2.522-1.122,2.522-2.517v-5.271
	C105.216,109.479,104.094,108.356,102.693,108.356z M78.289,125.536c-6.637,0-12.027-5.374-12.027-12.023
	c0-6.641,5.391-12.027,12.027-12.027c6.645,0,12.03,5.387,12.03,12.027C90.319,120.162,84.934,125.536,78.289,125.536z"/>
<path fill="#C8691C" d="M102.693,108.356l-5.115-0.317c-0.434-1.548-1.049-3.016-1.829-4.379l3.437-3.755
	c0.984-0.989,0.984-2.585,0-3.564l-3.727-3.729c-0.98-0.978-2.57-0.978-3.559,0l-3.755,3.44c-1.365-0.776-2.828-1.396-4.379-1.831
	l-0.321-5.107c0-1.397-1.12-2.521-2.518-2.521h-5.27c-1.401,0-2.525,1.123-2.525,2.521l-0.321,5.107
	c-1.543,0.435-3.008,1.055-4.372,1.831l-3.758-3.44c-0.987-0.978-2.577-0.978-3.565,0l-3.724,3.729
	c-0.983,0.979-0.983,2.575,0,3.564l3.439,3.755c-0.78,1.363-1.4,2.831-1.83,4.379l-5.113,0.317c-1.397,0-2.519,1.123-2.519,2.521
	v5.271c0,1.395,1.121,2.517,2.519,2.517l5.113,0.325c0.43,1.544,1.05,3.012,1.83,4.373l-3.439,3.761
	c-0.983,0.979-0.983,2.576,0,3.558l3.724,3.729c0.988,0.98,2.578,0.98,3.565,0l3.758-3.439c1.364,0.78,2.829,1.403,4.372,1.831
	l0.321,5.115c0,1.397,1.124,2.517,2.525,2.517h5.27c1.397,0,2.518-1.119,2.518-2.517l0.321-5.115
	c1.551-0.428,3.014-1.051,4.379-1.831l3.755,3.439c0.988,0.98,2.578,0.98,3.559,0l3.727-3.729c0.984-0.981,0.984-2.578,0-3.558
	l-3.437-3.761c0.78-1.361,1.396-2.829,1.829-4.373l5.115-0.325c1.4,0,2.522-1.122,2.522-2.517v-5.271
	C105.216,109.479,104.094,108.356,102.693,108.356z M78.289,125.536c-6.637,0-12.027-5.374-12.027-12.023
	c0-6.641,5.391-12.027,12.027-12.027c6.645,0,12.03,5.387,12.03,12.027C90.319,120.162,84.934,125.536,78.289,125.536z"/>
<path fill="#52CAF5" d="M60.082,66.579l11.491-16.188c0.825-1.165,0.554-2.771-0.607-3.59c-1.159-0.823-2.764-0.555-3.591,0.607
	L55.888,63.6c-2.616-0.612-5.457,0.362-7.105,2.691c-2.179,3.065-1.456,7.316,1.609,9.496c3.069,2.177,7.325,1.454,9.497-1.613
	C61.54,71.851,61.523,68.849,60.082,66.579z"/>
<path fill="#3588A6" d="M90.205,30.073l6.453-9.097c0.619-0.871-1.111-3.159-3.861-5.113c-2.752-1.953-5.482-2.83-6.1-1.956
	l-6.43,9.061c-7.035-3.907-15.029-6.287-23.547-6.706v-4.31h5.299c3.303,0,5.979-2.676,5.979-5.977C67.998,2.677,65.322,0,62.02,0
	H46.072c-3.302,0-5.979,2.677-5.979,5.976c0,3.301,2.677,5.977,5.979,5.977h5.298v4.305c-8.14,0.403-15.813,2.597-22.614,6.207
	l-6.078-8.557c-0.619-0.874-3.35,0.003-6.1,1.956c-2.751,1.954-4.479,4.242-3.864,5.113l5.96,8.393C7.235,39.284,0,53.915,0,70.231
	c0,29.854,24.197,54.048,54.047,54.048c0.39,0,0.779-0.004,1.168-0.014l1.376-1.502c-0.055-0.129-0.114-0.259-0.167-0.395
	l-2.67-0.166c-3.281-0.072-5.924-2.766-5.924-6.055v-5.271c0-1.224,0.367-2.364,0.994-3.313
	c-18.349-2.548-32.476-18.282-32.476-37.333c0-20.814,16.879-37.692,37.698-37.692c20.813,0,37.697,16.878,37.697,37.692
	c0,6.677-1.743,12.945-4.792,18.383c0.011,0.114,0.027,0.241,0.027,0.362l0.168,2.67c0.13,0.05,0.263,0.108,0.395,0.162l1.928-1.761
	c1.135-1.101,2.627-1.705,4.215-1.705c1.618,0,3.137,0.631,4.28,1.774l3.719,3.72c0.235,0.234,0.437,0.482,0.627,0.739
	c3.688-7.312,5.779-15.585,5.779-24.345C108.09,54.291,101.188,39.962,90.205,30.073z"/>
<path fill="#F79523" d="M91.9,92.611l-3.755,3.44c-1.365-0.776-2.828-1.396-4.379-1.831l-0.321-5.107
	c0-1.397-1.12-2.521-2.518-2.521h-5.27c-1.401,0-2.525,1.123-2.525,2.521l-0.321,5.107c-1.543,0.435-3.008,1.055-4.372,1.831
	l-3.758-3.44c-0.987-0.978-2.577-0.978-3.565,0l-3.724,3.729c-0.983,0.979-0.983,2.575,0,3.564l3.439,3.755
	c-0.78,1.363-1.4,2.831-1.83,4.379l-5.113,0.317c-1.397,0-2.519,1.123-2.519,2.521v5.271c0,1.395,1.121,2.517,2.519,2.517
	l5.113,0.325c0.43,1.544,1.05,3.012,1.83,4.373l-3.439,3.761c-0.983,0.979-0.983,2.576,0,3.558l3.724,3.729
	c0.988,0.98,2.578,0.98,3.565,0l3.758-3.439c0.902,0.515,1.866,0.937,2.853,1.302c2.242-2.133,4.358-4.392,6.302-6.808
	c-6.309-0.365-11.332-5.541-11.332-11.952c0-6.641,5.391-12.027,12.027-12.027c4.155,0,7.815,2.107,9.979,5.305
	c1.729-4.538,2.979-9.296,3.722-14.235C91.961,92.579,91.928,92.586,91.9,92.611z"/>
<path fill="#52CAF5" d="M86.952,88.614c0.011,0.114,0.027,0.241,0.027,0.362l0.168,2.67c0.13,0.05,0.263,0.108,0.395,0.162
	l1.928-1.761c0.854-0.826,1.908-1.375,3.059-1.594c0.18-2.048,0.312-4.109,0.312-6.207c0-4.077-0.424-8.05-1.102-11.937
	C91.724,76.96,89.987,83.201,86.952,88.614z"/>
<path fill="#52CAF5" d="M54.047,32.539c10.902,0,20.697,4.658,27.58,12.061c-8.405-12.885-20.99-22.762-35.838-27.756
	c-6.066,0.934-11.81,2.847-17.033,5.62l-6.078-8.557c-0.619-0.874-3.35,0.003-6.1,1.956c-2.751,1.954-4.479,4.242-3.864,5.113
	l5.96,8.393C7.235,39.284,0,53.915,0,70.231c0,29.854,24.197,54.048,54.047,54.048c0.39,0,0.779-0.004,1.168-0.014l1.376-1.502
	c-0.055-0.129-0.114-0.259-0.167-0.395l-2.67-0.166c-3.281-0.072-5.924-2.766-5.924-6.055v-5.271c0-1.224,0.367-2.364,0.994-3.313
	c-18.349-2.548-32.476-18.282-32.476-37.333C16.349,49.417,33.228,32.539,54.047,32.539z"/>
<path fill="#52CAF5" d="M56.416,49.09c0,1.048-0.851,1.897-1.896,1.897l0,0c-1.048,0-1.897-0.85-1.897-1.897V37.71
	c0-1.046,0.85-1.896,1.897-1.896l0,0c1.046,0,1.896,0.85,1.896,1.896V49.09z"/>
<path fill="#52CAF5" d="M56.416,101.188c0,1.049-0.851,1.898-1.896,1.898l0,0c-1.048,0-1.897-0.85-1.897-1.898V89.809
	c0-1.049,0.85-1.896,1.897-1.896l0,0c1.046,0,1.896,0.848,1.896,1.896V101.188z"/>
<path fill="#52CAF5" d="M32.422,69.288c1.049,0,1.899,0.851,1.899,1.896l0,0c0,1.047-0.851,1.898-1.899,1.898H21.043
	c-1.049,0-1.896-0.852-1.896-1.898l0,0c0-1.046,0.848-1.896,1.896-1.896H32.422z"/>
<path fill="#52CAF5" d="M87.993,69.288c1.047,0,1.898,0.851,1.898,1.896l0,0c0,1.047-0.852,1.898-1.898,1.898h-11.38
	c-1.047,0-1.895-0.852-1.895-1.898l0,0c0-1.046,0.848-1.896,1.895-1.896H87.993z"/>
</svg>
