<?xml version="1.0" encoding="utf-8"?>
<svg version="1.1"
	 xmlns="http://www.w3.org/2000/svg" xmlns:xlink="http://www.w3.org/1999/xlink"
	 x="0px" y="0px" width="48px" height="48px" viewBox="0 0 48 48">
<defs>
</defs>
<path fill="#52CAF5" d="M22.986,25.662l3.646-5.138c0.262-0.37,0.176-0.88-0.192-1.14c-0.368-0.261-0.877-0.176-1.141,0.193
	l-3.645,5.14c-0.831-0.195-1.732,0.115-2.255,0.855c-0.692,0.973-0.463,2.321,0.51,3.013c0.974,0.69,2.326,0.462,3.015-0.511
	C23.449,27.336,23.442,26.384,22.986,25.662z"/>
<path fill="#3588A6" d="M21.633,6.924c-10.84,0-19.627,8.787-19.627,19.626c0,10.841,8.788,19.628,19.627,19.628
	c10.841,0,19.63-8.787,19.63-19.628C41.264,15.711,32.475,6.924,21.633,6.924z M21.634,40.465c-7.683,0-13.913-6.23-13.913-13.91
	c0-7.687,6.23-13.916,13.913-13.916c7.684,0,13.913,6.229,13.913,13.916C35.547,34.234,29.318,40.465,21.634,40.465z"/>
<path fill="#52CAF5" d="M32.662,42.785c1.865-3.492,2.929-7.479,2.929-11.716c0-0.94-0.063-1.869-0.164-2.784
	c-0.854,6.863-6.696,12.18-13.792,12.18c-7.684,0-13.915-6.23-13.915-13.91c0-7.687,6.231-13.916,13.915-13.916
	c3.227,0,6.19,1.109,8.548,2.953c-3.073-3.874-7.261-6.825-12.097-8.332c-9.145,1.672-16.08,9.665-16.08,19.291
	c0,10.841,8.787,19.628,19.627,19.628C25.724,46.179,29.519,44.928,32.662,42.785z"/>
<path fill="#52CAF5" d="M21.821,20.111c0,0.333-0.269,0.602-0.602,0.602l0,0c-0.333,0-0.602-0.27-0.602-0.602v-3.613
	c0-0.332,0.269-0.602,0.602-0.602l0,0c0.333,0,0.602,0.27,0.602,0.602V20.111z"/>
<path fill="#52CAF5" d="M21.821,36.648c0,0.332-0.269,0.603-0.602,0.603l0,0c-0.333,0-0.602-0.271-0.602-0.603v-3.612
	c0-0.333,0.269-0.602,0.602-0.602l0,0c0.333,0,0.602,0.269,0.602,0.602V36.648z"/>
<path fill="#52CAF5" d="M14.205,26.521c0.333,0,0.603,0.271,0.603,0.603l0,0c0,0.331-0.27,0.604-0.603,0.604h-3.612
	c-0.333,0-0.602-0.272-0.602-0.604l0,0c0-0.331,0.269-0.603,0.602-0.603H14.205z"/>
<path fill="#52CAF5" d="M31.844,26.521c0.334,0,0.604,0.271,0.604,0.603l0,0c0,0.331-0.27,0.604-0.604,0.604h-3.611
	c-0.333,0-0.602-0.272-0.602-0.604l0,0c0-0.331,0.269-0.603,0.602-0.603H31.844z"/>
<path fill="#52CAF5" d="M12.765,9.108l-3.482,2.923L6.359,8.547c0,0-0.013-0.808,1.309-1.917c1.321-1.108,2.175-1.006,2.175-1.006
	L12.765,9.108z"/>
<path fill="#3588A6" d="M30.87,9.495l3.483,2.923l2.923-3.483c0,0,0.014-0.808-1.308-1.917c-1.322-1.109-2.174-1.007-2.174-1.007
	L30.87,9.495z"/>
<path fill="#3588A6" d="M25.293,1.82h-6.877c-0.908,0-1.646,0.802-1.646,1.791c0,0.99,0.738,1.792,1.646,1.792h2.456v1.848h1.965
	V5.403h2.456c0.908,0,1.646-0.802,1.646-1.792C26.938,2.623,26.201,1.82,25.293,1.82z"/>
<g>
	<path fill="#C8691C" d="M35.703,38.192c-0.622,0-1.128-0.505-1.128-1.126l-0.102-1.589c-0.423-0.129-0.841-0.305-1.247-0.521
		l-1.176,1.074c-0.205,0.205-0.488,0.322-0.789,0.322c-0.3,0-0.584-0.117-0.798-0.329l-1.296-1.3c-0.212-0.21-0.33-0.492-0.33-0.792
		c-0.001-0.303,0.116-0.586,0.33-0.8l1.067-1.168c-0.216-0.4-0.391-0.818-0.522-1.248l-1.604-0.102c-0.605,0-1.11-0.505-1.11-1.125
		v-1.835c0-0.622,0.506-1.129,1.127-1.129l1.588-0.098c0.131-0.429,0.306-0.848,0.522-1.25l-1.075-1.175
		c-0.432-0.435-0.431-1.15,0.008-1.588l1.295-1.297c0.216-0.213,0.499-0.329,0.799-0.329c0.301,0,0.584,0.117,0.797,0.329
		l1.168,1.069c0.399-0.214,0.817-0.389,1.247-0.522l0.103-1.604c-0.001-0.605,0.505-1.111,1.127-1.111h1.835
		c0.621,0,1.126,0.506,1.126,1.127l0.101,1.588c0.425,0.131,0.844,0.306,1.249,0.523l1.175-1.076
		c0.206-0.205,0.489-0.322,0.789-0.322c0.301,0,0.583,0.117,0.796,0.329l1.298,1.297c0.438,0.437,0.439,1.152,0.001,1.594
		l-1.069,1.168c0.211,0.391,0.386,0.81,0.522,1.249c0,0,1.606,0.099,1.607,0.099c0.605,0,1.11,0.507,1.11,1.129v1.835
		c0,0.621-0.506,1.126-1.127,1.126l-1.591,0.101c-0.137,0.441-0.312,0.859-0.521,1.248l1.075,1.176
		c0.206,0.206,0.323,0.489,0.322,0.792c0,0.3-0.118,0.582-0.331,0.793l-1.297,1.298c-0.213,0.213-0.495,0.33-0.796,0.33
		c-0.3,0-0.583-0.117-0.796-0.329l-1.168-1.068c-0.412,0.22-0.831,0.396-1.249,0.523l-0.102,1.604
		c0.001,0.605-0.504,1.11-1.125,1.11H35.703z M36.619,24.633c-2.171,0-3.937,1.766-3.937,3.938c0,2.171,1.766,3.937,3.937,3.937
		c2.172,0,3.939-1.766,3.939-3.937C40.559,26.399,38.791,24.633,36.619,24.633z"/>
	<path fill="#FFFFFF" d="M37.538,19.199c0.486,0,0.876,0.391,0.876,0.877l0.112,1.778c0.54,0.151,1.047,0.368,1.524,0.638
		l1.307-1.197c0.172-0.17,0.396-0.256,0.62-0.256c0.225,0,0.448,0.085,0.619,0.256l1.298,1.297c0.343,0.341,0.343,0.896,0,1.242
		l-1.197,1.308c0.272,0.474,0.485,0.986,0.639,1.524l1.78,0.109c0.486,0,0.877,0.392,0.877,0.879v1.835
		c0,0.483-0.391,0.876-0.877,0.876l-1.78,0.112c-0.153,0.538-0.366,1.051-0.639,1.521l1.197,1.31c0.343,0.343,0.343,0.898,0,1.238
		l-1.298,1.299c-0.171,0.171-0.395,0.256-0.619,0.256c-0.224,0-0.448-0.085-0.62-0.256l-1.307-1.195
		c-0.478,0.269-0.984,0.488-1.524,0.637l-0.112,1.779c0,0.486-0.39,0.876-0.876,0.876h-1.835c-0.487,0-0.878-0.39-0.878-0.876
		l-0.113-1.779c-0.536-0.148-1.048-0.368-1.521-0.637l-1.309,1.195c-0.171,0.171-0.396,0.256-0.62,0.256s-0.449-0.085-0.622-0.256
		l-1.295-1.299c-0.343-0.34-0.343-0.896,0-1.238l1.196-1.31c-0.271-0.471-0.488-0.983-0.637-1.521l-1.779-0.112
		c-0.487,0-0.877-0.393-0.877-0.876v-1.835c0-0.487,0.39-0.879,0.877-0.879l1.779-0.109c0.148-0.538,0.366-1.051,0.637-1.524
		l-1.196-1.308c-0.343-0.346-0.343-0.9,0-1.242l1.295-1.297c0.173-0.17,0.397-0.256,0.622-0.256s0.449,0.085,0.62,0.256l1.309,1.197
		c0.474-0.27,0.985-0.487,1.521-0.638l0.113-1.778c0-0.487,0.391-0.877,0.878-0.877H37.538 M36.619,32.758
		c2.313,0,4.189-1.873,4.189-4.187c0-2.313-1.877-4.188-4.189-4.188c-2.31,0-4.187,1.875-4.187,4.188
		C32.433,30.885,34.31,32.758,36.619,32.758 M37.538,18.699h-1.835c-0.76,0-1.378,0.618-1.378,1.377l-0.09,1.402
		c-0.331,0.111-0.655,0.247-0.969,0.405l-1.047-0.958c-0.245-0.245-0.591-0.387-0.958-0.387c-0.366,0-0.712,0.142-0.974,0.4
		l-1.297,1.3c-0.536,0.533-0.537,1.407-0.002,1.947l0.943,1.031c-0.16,0.315-0.295,0.641-0.405,0.972l-1.433,0.088
		c-0.001,0-0.002,0-0.002,0c-0.728,0-1.345,0.618-1.345,1.378v1.835c0,0.759,0.618,1.376,1.377,1.376l1.402,0.089
		c0.109,0.332,0.245,0.656,0.405,0.97l-0.957,1.048c-0.245,0.244-0.389,0.591-0.388,0.96c0.001,0.367,0.145,0.712,0.405,0.971
		l1.292,1.296c0.265,0.262,0.61,0.403,0.977,0.403c0.367,0,0.713-0.143,0.974-0.401l1.031-0.942
		c0.317,0.161,0.641,0.297,0.969,0.406l0.091,1.435c-0.001,0.727,0.617,1.344,1.377,1.344h1.835c0.759,0,1.376-0.617,1.376-1.376
		l0.089-1.402c0.325-0.108,0.649-0.244,0.971-0.406l1.046,0.957c0.246,0.244,0.592,0.387,0.958,0.387
		c0.367,0,0.713-0.143,0.973-0.402l1.298-1.299c0.259-0.257,0.402-0.602,0.403-0.969c0.001-0.369-0.143-0.716-0.403-0.977
		l-0.941-1.03c0.156-0.308,0.291-0.632,0.404-0.97l1.437-0.091c0.001,0,0.001,0,0.002,0c0.727,0,1.344-0.617,1.344-1.375v-1.835
		c0-0.761-0.618-1.379-1.377-1.379l-1.405-0.087c-0.113-0.338-0.249-0.662-0.405-0.972l0.958-1.045
		c0.521-0.526,0.521-1.399-0.017-1.934l-1.297-1.296c-0.26-0.26-0.605-0.402-0.973-0.402c-0.366,0-0.712,0.143-0.973,0.401
		l-1.031,0.944c-0.316-0.16-0.642-0.295-0.97-0.406l-0.091-1.434C38.914,19.316,38.297,18.699,37.538,18.699L37.538,18.699z
		 M36.619,32.258c-2.033,0-3.687-1.653-3.687-3.687s1.653-3.688,3.687-3.688c2.034,0,3.689,1.655,3.689,3.688
		S38.653,32.258,36.619,32.258L36.619,32.258z"/>
</g>
<path fill="#C8691C" d="M45.116,26.775l-1.78-0.109c-0.153-0.538-0.366-1.051-0.639-1.524l1.197-1.308
	c0.343-0.346,0.343-0.9,0-1.242l-1.298-1.297c-0.342-0.341-0.896-0.341-1.239,0l-1.307,1.197c-0.478-0.27-0.984-0.487-1.524-0.638
	l-0.112-1.778c0-0.487-0.39-0.877-0.876-0.877h-1.835c-0.487,0-0.878,0.391-0.878,0.877l-0.113,1.778
	c-0.536,0.151-1.048,0.368-1.521,0.638l-1.309-1.197c-0.343-0.341-0.896-0.341-1.242,0l-1.295,1.297
	c-0.343,0.341-0.343,0.896,0,1.242l1.196,1.308c-0.271,0.474-0.488,0.986-0.637,1.524l-1.779,0.109
	c-0.487,0-0.877,0.392-0.877,0.879v1.835c0,0.483,0.39,0.876,0.877,0.876l1.779,0.112c0.148,0.538,0.366,1.051,0.637,1.521
	l-1.196,1.31c-0.343,0.343-0.343,0.898,0,1.238l1.295,1.299c0.346,0.342,0.899,0.342,1.242,0l1.309-1.195
	c0.474,0.269,0.985,0.488,1.521,0.637l0.113,1.779c0,0.486,0.391,0.876,0.878,0.876h1.835c0.486,0,0.876-0.39,0.876-0.876
	l0.112-1.779c0.54-0.148,1.047-0.368,1.524-0.637l1.307,1.195c0.344,0.342,0.897,0.342,1.239,0l1.298-1.299
	c0.343-0.34,0.343-0.896,0-1.238l-1.197-1.31c0.272-0.471,0.485-0.983,0.639-1.521l1.78-0.112c0.486,0,0.877-0.393,0.877-0.876
	v-1.835C45.993,27.167,45.603,26.775,45.116,26.775z M36.619,32.758c-2.31,0-4.187-1.873-4.187-4.187
	c0-2.313,1.877-4.188,4.187-4.188c2.313,0,4.189,1.875,4.189,4.188C40.809,30.885,38.932,32.758,36.619,32.758z"/>
<path fill="#F79523" d="M32.433,28.571c0-1.891,1.263-3.47,2.983-3.991c-0.228-0.916-0.506-1.81-0.838-2.68
	c-0.486,0.149-0.955,0.344-1.388,0.591l-1.309-1.197c-0.343-0.341-0.896-0.341-1.242,0l-1.295,1.297
	c-0.343,0.341-0.343,0.896,0,1.242l1.196,1.308c-0.271,0.474-0.488,0.986-0.637,1.524l-1.779,0.109
	c-0.487,0-0.877,0.392-0.877,0.879v1.835c0,0.483,0.39,0.876,0.877,0.876l1.779,0.112c0.148,0.538,0.366,1.051,0.637,1.521
	l-1.196,1.31c-0.343,0.343-0.343,0.898,0,1.238l1.295,1.299c0.346,0.342,0.899,0.342,1.242,0l1.309-1.195
	c0.474,0.269,0.985,0.488,1.521,0.637l0.113,1.779c0,0.185,0.069,0.347,0.166,0.486c0.502-1.555,0.857-3.178,1.026-4.855
	C33.994,32.402,32.433,30.678,32.433,28.571z"/>
</svg>
