<?xml version="1.0" encoding="utf-8"?>
<!-- Generator: Adobe Illustrator 15.0.0, SVG Export Plug-In  -->
<!DOCTYPE svg PUBLIC "-//W3C//DTD SVG 1.1//EN" "http://www.w3.org/Graphics/SVG/1.1/DTD/svg11.dtd" [
	<!ENTITY ns_flows "http://ns.adobe.com/Flows/1.0/">
]>
<svg version="1.1"
	 xmlns="http://www.w3.org/2000/svg" xmlns:xlink="http://www.w3.org/1999/xlink" xmlns:a="http://ns.adobe.com/AdobeSVGViewerExtensions/3.0/"
	 x="0px" y="0px" width="150px" height="160px" viewBox="-7.1 -41.808 150 160" enable-background="new -7.1 -41.808 150 160"
	 xml:space="preserve">
<defs>
</defs>
<g>
	<defs>
		<path id="SVGID_3_" d="M2.714,38.19c0,18.939,29.185,34.294,65.184,34.294s65.187-15.355,65.187-34.294
			c0-18.937-29.188-34.289-65.187-34.289S2.714,19.253,2.714,38.19"/>
	</defs>
	<clipPath id="SVGID_4_">
		<use xlink:href="#SVGID_3_"  overflow="visible"/>
	</clipPath>
	
		<radialGradient id="path3462_2_" cx="-5.9824" cy="118.478" r="0.1883" gradientTransform="matrix(453.825 0 0 -453.825 2756.9009 53784.457)" gradientUnits="userSpaceOnUse">
		<stop  offset="0" style="stop-color:#AFB2D5"/>
		<stop  offset="0.3" style="stop-color:#AFB2D5"/>
		<stop  offset="0.75" style="stop-color:#484D8A"/>
		<stop  offset="1" style="stop-color:#484D8A"/>
	</radialGradient>
	<path id="path3462_1_" clip-path="url(#SVGID_4_)" fill="url(#path3462_2_)" d="M2.714,38.19c0,18.939,29.185,34.294,65.184,34.294
		s65.187-15.355,65.187-34.294c0-18.937-29.188-34.289-65.187-34.289S2.714,19.253,2.714,38.19"/>
</g>
<g>
	<defs>
		<rect id="SVGID_2_" width="135.8" height="76.383"/>
	</defs>
	<clipPath id="SVGID_5_">
		<use xlink:href="#SVGID_2_"  overflow="visible"/>
	</clipPath>
	<path id="path3474_1_" clip-path="url(#SVGID_5_)" fill="#787BB3" d="M67.9,69.94c34.596,0,62.639-14.215,62.639-31.749
		c0-17.529-28.043-31.741-62.639-31.741c-34.593,0-62.637,14.211-62.637,31.741C5.263,55.725,33.307,69.94,67.9,69.94"/>
</g>
<g>
	<defs>
		<rect id="SVGID_1_" width="135.8" height="76.383"/>
	</defs>
	<clipPath id="SVGID_6_">
		<use xlink:href="#SVGID_1_"  overflow="visible"/>
	</clipPath>
	<path id="path3486_1_" clip-path="url(#SVGID_6_)" fill="#010101" d="M38.131,42.129c2.845,0,4.968-0.525,6.311-1.559
		c1.33-1.025,2.25-2.798,2.73-5.272c0.448-2.312,0.278-3.926-0.509-4.796c-0.802-0.89-2.539-1.343-5.161-1.343h-4.545l-2.521,12.969
		H38.131z M23.263,58.102c-0.21,0-0.411-0.098-0.545-0.264c-0.135-0.158-0.188-0.373-0.148-0.58l6.678-34.362
		c0.066-0.333,0.356-0.572,0.694-0.572h14.396c4.523,0,7.891,1.229,10.008,3.651c2.129,2.436,2.783,5.842,1.954,10.118
		c-0.339,1.743-0.921,3.364-1.731,4.813s-1.881,2.795-3.184,3.988c-1.564,1.461-3.328,2.52-5.247,3.143
		c-1.886,0.617-4.309,0.928-7.201,0.928h-5.829l-1.665,8.563c-0.065,0.336-0.355,0.574-0.694,0.574h-7.484H23.263z"/>
	<path id="path3490_1_" clip-path="url(#SVGID_6_)" fill="#FFFFFF" d="M37.539,29.869h3.962c3.166,0,4.263,0.694,4.637,1.106
		c0.62,0.687,0.736,2.138,0.339,4.19c-0.448,2.299-1.279,3.929-2.466,4.843c-1.216,0.938-3.195,1.412-5.88,1.412h-2.839
		L37.539,29.869z M44.337,21.617H29.941c-0.677,0-1.258,0.477-1.388,1.142l-6.679,34.364c-0.083,0.416,0.026,0.842,0.295,1.172
		c0.268,0.324,0.668,0.51,1.091,0.51h7.485c0.677,0,1.258-0.477,1.388-1.143l1.554-7.992h5.245c2.967,0,5.464-0.324,7.422-0.961
		c2.014-0.654,3.866-1.762,5.507-3.297c1.354-1.25,2.474-2.648,3.319-4.162c0.847-1.512,1.455-3.206,1.807-5.019
		c0.876-4.509,0.165-8.116-2.115-10.722C52.621,22.924,49.075,21.617,44.337,21.617 M33.578,42.836h4.553
		c3.017,0,5.266-0.568,6.741-1.705c1.48-1.141,2.475-3.037,2.992-5.697c0.496-2.555,0.272-4.358-0.675-5.406
		c-0.947-1.049-2.845-1.574-5.688-1.574h-5.127L33.578,42.836 M44.337,23.03c4.33,0,7.489,1.138,9.474,3.41
		c1.985,2.271,2.584,5.446,1.792,9.519c-0.328,1.678-0.877,3.212-1.655,4.602c-0.775,1.391-1.791,2.66-3.045,3.818
		c-1.496,1.396-3.156,2.393-4.98,2.984c-1.828,0.596-4.156,0.893-6.984,0.893h-6.412l-1.777,9.137h-7.484l6.677-34.363H44.337"/>
	<path id="path3494_1_" clip-path="url(#SVGID_6_)" fill="#010101" d="M73.457,48.965c-0.207,0-0.408-0.096-0.541-0.262
		c-0.135-0.158-0.191-0.373-0.15-0.58l2.955-15.205c0.283-1.446,0.209-2.484-0.195-2.922c-0.25-0.271-0.998-0.72-3.207-0.72h-5.354
		L63.25,48.391c-0.064,0.33-0.355,0.574-0.695,0.574h-7.425c-0.212,0-0.41-0.096-0.545-0.262c-0.136-0.158-0.189-0.373-0.148-0.58
		l6.679-34.363c0.064-0.333,0.355-0.574,0.694-0.574h7.424c0.213,0,0.414,0.097,0.549,0.259c0.133,0.162,0.188,0.376,0.148,0.585
		l-1.613,8.293h5.76c4.387,0,7.361,0.774,9.09,2.363c1.77,1.624,2.32,4.218,1.639,7.714l-3.105,15.989
		c-0.066,0.33-0.359,0.574-0.693,0.574H73.457z"/>
	<path id="path3498_1_" clip-path="url(#SVGID_6_)" fill="#FFFFFF" d="M69.234,12.482h-7.425c-0.678,0-1.262,0.477-1.391,1.142
		l-6.677,34.365c-0.08,0.414,0.029,0.842,0.297,1.17c0.269,0.322,0.669,0.512,1.091,0.512h7.427c0.678,0,1.26-0.477,1.39-1.143
		l3.603-18.542h4.77c2.205,0,2.672,0.471,2.689,0.492c0.133,0.146,0.309,0.811,0.021,2.306l-2.955,15.206
		c-0.08,0.414,0.029,0.842,0.297,1.17c0.271,0.322,0.672,0.512,1.09,0.512h7.545c0.678,0,1.26-0.477,1.391-1.143L85.5,32.539
		c0.73-3.755,0.104-6.572-1.852-8.371c-1.869-1.719-5.002-2.551-9.572-2.551h-4.9l1.449-7.453c0.078-0.416-0.029-0.844-0.299-1.168
		C70.058,12.669,69.658,12.482,69.234,12.482 M69.234,13.895l-1.775,9.136h6.617c4.16,0,7.031,0.727,8.611,2.179
		c1.582,1.454,2.057,3.804,1.426,7.057l-3.107,15.99H73.46l2.955-15.204c0.336-1.727,0.211-2.907-0.371-3.537
		c-0.588-0.63-1.826-0.941-3.727-0.941h-5.938l-3.827,19.683h-7.427l6.683-34.362H69.234"/>
	<path id="path3502_1_" clip-path="url(#SVGID_6_)" fill="#010101" d="M96.56,42.129c2.844,0,4.967-0.525,6.311-1.559
		c1.332-1.023,2.244-2.798,2.727-5.272c0.451-2.312,0.281-3.926-0.51-4.796c-0.805-0.89-2.535-1.343-5.16-1.343h-4.545
		l-2.518,12.969H96.56z M81.687,58.102c-0.211,0-0.408-0.098-0.543-0.264c-0.133-0.158-0.189-0.373-0.15-0.58l6.68-34.362
		c0.068-0.333,0.357-0.572,0.693-0.572h14.395c4.523,0,7.893,1.229,10.01,3.651c2.127,2.436,2.785,5.839,1.951,10.118
		c-0.334,1.743-0.916,3.364-1.727,4.813s-1.883,2.795-3.184,3.988c-1.564,1.461-3.33,2.52-5.248,3.143
		c-1.889,0.617-4.311,0.928-7.203,0.928h-5.826l-1.664,8.563c-0.066,0.336-0.354,0.574-0.697,0.574H81.687z"/>
	<path id="path3506_1_" clip-path="url(#SVGID_6_)" fill="#FFFFFF" d="M95.964,29.869h3.963c3.162,0,4.266,0.694,4.637,1.106
		c0.619,0.687,0.74,2.138,0.342,4.19c-0.451,2.299-1.279,3.929-2.469,4.843c-1.217,0.938-3.193,1.412-5.877,1.412h-2.84
		L95.964,29.869z M102.761,21.617H88.367c-0.674,0-1.254,0.477-1.387,1.142l-6.678,34.364c-0.08,0.416,0.027,0.842,0.293,1.172
		c0.273,0.324,0.672,0.51,1.092,0.51h7.486c0.68,0,1.262-0.477,1.389-1.143l1.557-7.992h5.242c2.967,0,5.465-0.324,7.422-0.961
		c2.014-0.654,3.871-1.762,5.506-3.297c1.357-1.244,2.473-2.648,3.318-4.162c0.85-1.516,1.457-3.203,1.809-5.019
		c0.877-4.506,0.166-8.113-2.113-10.722C111.044,22.924,107.498,21.617,102.761,21.617 M92.005,42.836h4.555
		c3.016,0,5.264-0.568,6.742-1.705c1.477-1.141,2.473-3.037,2.99-5.697c0.494-2.555,0.268-4.358-0.676-5.406
		c-0.949-1.049-2.844-1.574-5.689-1.574h-5.129L92.005,42.836 M102.761,23.03c4.334,0,7.49,1.138,9.477,3.41
		c1.986,2.271,2.58,5.446,1.791,9.519c-0.326,1.678-0.877,3.212-1.656,4.602c-0.773,1.391-1.787,2.66-3.045,3.818
		c-1.494,1.396-3.156,2.393-4.979,2.984c-1.83,0.596-4.158,0.893-6.988,0.893h-6.41l-1.777,9.137h-7.486l6.68-34.363H102.761"/>
</g>
</svg>
