<?xml version="1.0" encoding="utf-8"?>
<svg version="1.1"
	 xmlns="http://www.w3.org/2000/svg" xmlns:xlink="http://www.w3.org/1999/xlink"
	 x="0px" y="0px" width="48px" height="48px" viewBox="0 0 48 48">
<defs>
</defs>
<g>
	<defs>
		<path id="SVGID_3_" d="M3.007,23.444c0,6.207,9.562,11.236,21.358,11.236c11.795,0,21.361-5.029,21.361-11.236
			c0-6.206-9.565-11.236-21.361-11.236C12.569,12.208,3.007,17.238,3.007,23.444"/>
	</defs>
	<clipPath id="SVGID_4_">
		<use xlink:href="#SVGID_3_"  overflow="visible"/>
	</clipPath>
	
		<radialGradient id="path3462_2_" cx="-49.8433" cy="104.2549" r="0.0619" gradientTransform="matrix(453.825 0 0 -453.825 22635.875 47329.625)" gradientUnits="userSpaceOnUse">
		<stop  offset="0" style="stop-color:#AFB2D5"/>
		<stop  offset="0.3" style="stop-color:#AFB2D5"/>
		<stop  offset="0.75" style="stop-color:#484D8A"/>
		<stop  offset="1" style="stop-color:#484D8A"/>
	</radialGradient>
	<path id="path3462_1_" clip-path="url(#SVGID_4_)" fill="url(#path3462_2_)" d="M3.007,23.444c0,6.207,9.562,11.236,21.358,11.236
		c11.795,0,21.361-5.029,21.361-11.236c0-6.206-9.565-11.236-21.361-11.236C12.569,12.208,3.007,17.238,3.007,23.444"/>
</g>
<g>
	<defs>
		<rect id="SVGID_2_" x="2.117" y="10.93" width="44.497" height="25.029"/>
	</defs>
	<clipPath id="SVGID_5_">
		<use xlink:href="#SVGID_2_"  overflow="visible"/>
	</clipPath>
	<path id="path3474_1_" clip-path="url(#SVGID_5_)" fill="#787BB3" d="M24.366,33.847c11.336,0,20.524-4.657,20.524-10.402
		c0-5.744-9.188-10.401-20.524-10.401c-11.335,0-20.524,4.657-20.524,10.401C3.842,29.189,13.031,33.847,24.366,33.847"/>
</g>
<g>
	<defs>
		<rect id="SVGID_1_" x="3.216" y="11.547" width="43.398" height="24.412"/>
	</defs>
	<clipPath id="SVGID_6_">
		<use xlink:href="#SVGID_1_"  overflow="visible"/>
	</clipPath>
	<path id="path3486_1_" clip-path="url(#SVGID_6_)" fill="#010101" d="M15.402,25.012c0.909,0,1.587-0.167,2.017-0.499
		c0.425-0.328,0.719-0.894,0.872-1.684c0.144-0.739,0.089-1.255-0.162-1.533c-0.256-0.285-0.811-0.43-1.65-0.43h-1.452l-0.805,4.146
		H15.402z M10.649,30.116c-0.066,0-0.13-0.032-0.173-0.083c-0.043-0.052-0.061-0.12-0.047-0.186l2.134-10.983
		c0.022-0.105,0.115-0.183,0.223-0.183h4.601c1.445,0,2.521,0.393,3.197,1.167c0.681,0.778,0.89,1.867,0.625,3.233
		c-0.107,0.558-0.293,1.075-0.552,1.538c-0.259,0.463-0.602,0.894-1.018,1.275c-0.5,0.467-1.063,0.805-1.677,1.005
		c-0.603,0.196-1.377,0.296-2.302,0.296h-1.862l-0.532,2.736c-0.021,0.108-0.114,0.184-0.221,0.184H10.649L10.649,30.116z"/>
	<path id="path3490_1_" clip-path="url(#SVGID_6_)" fill="#FFFFFF" d="M15.212,21.093h1.266c1.012,0,1.363,0.222,1.482,0.353
		c0.198,0.22,0.235,0.683,0.108,1.339c-0.143,0.734-0.408,1.256-0.788,1.548c-0.388,0.3-1.021,0.45-1.879,0.45h-0.907L15.212,21.093
		z M17.386,18.456h-4.601c-0.217,0-0.403,0.152-0.444,0.365l-2.134,10.981c-0.026,0.134,0.009,0.269,0.094,0.376
		c0.086,0.102,0.213,0.161,0.348,0.161h2.394c0.215,0,0.401-0.151,0.442-0.364l0.497-2.555h1.677c0.948,0,1.747-0.104,2.372-0.306
		c0.643-0.21,1.235-0.563,1.76-1.055c0.433-0.401,0.79-0.845,1.061-1.33c0.27-0.483,0.465-1.024,0.578-1.604
		c0.279-1.441,0.053-2.594-0.676-3.426C20.033,18.874,18.899,18.456,17.386,18.456 M13.947,25.237h1.455
		c0.964,0,1.683-0.182,2.155-0.545c0.473-0.364,0.791-0.971,0.957-1.82c0.157-0.817,0.086-1.394-0.217-1.728
		c-0.302-0.335-0.909-0.504-1.818-0.504h-1.638L13.947,25.237 M17.386,18.907c1.383,0,2.393,0.363,3.028,1.09
		c0.633,0.726,0.825,1.74,0.572,3.042c-0.104,0.535-0.28,1.027-0.528,1.47c-0.249,0.446-0.572,0.851-0.974,1.221
		c-0.478,0.444-1.009,0.764-1.592,0.952c-0.583,0.191-1.328,0.286-2.232,0.286H13.61l-0.567,2.92H10.65l2.135-10.981H17.386"/>
	<path id="path3494_1_" clip-path="url(#SVGID_6_)" fill="#010101" d="M26.691,27.196c-0.068,0-0.132-0.031-0.174-0.084
		c-0.043-0.051-0.06-0.119-0.048-0.185l0.943-4.86c0.091-0.462,0.069-0.793-0.061-0.934c-0.08-0.086-0.32-0.229-1.025-0.229h-1.709
		l-1.188,6.108c-0.021,0.106-0.113,0.184-0.222,0.184h-2.373c-0.067,0-0.131-0.031-0.175-0.084c-0.043-0.051-0.06-0.119-0.047-0.185
		l2.134-10.983c0.021-0.106,0.114-0.183,0.222-0.183h2.373c0.068,0,0.131,0.032,0.176,0.083c0.041,0.051,0.059,0.12,0.046,0.186
		l-0.516,2.651h1.841c1.401,0,2.354,0.248,2.905,0.756c0.565,0.519,0.742,1.348,0.523,2.465l-0.991,5.11
		c-0.022,0.106-0.115,0.184-0.222,0.184H26.691z"/>
	<path id="path3498_1_" clip-path="url(#SVGID_6_)" fill="#FFFFFF" d="M25.342,15.537h-2.373c-0.217,0-0.403,0.152-0.444,0.364
		L20.39,26.884c-0.025,0.132,0.01,0.269,0.096,0.374c0.086,0.104,0.213,0.163,0.349,0.163h2.374c0.216,0,0.402-0.152,0.443-0.365
		l1.152-5.925h1.523c0.704,0,0.854,0.149,0.858,0.156c0.044,0.047,0.101,0.26,0.008,0.738l-0.944,4.859
		c-0.026,0.132,0.01,0.269,0.096,0.374c0.086,0.104,0.213,0.163,0.348,0.163h2.412c0.217,0,0.403-0.152,0.443-0.365l0.993-5.11
		c0.232-1.2,0.032-2.1-0.593-2.675c-0.599-0.548-1.599-0.814-3.06-0.814h-1.564l0.461-2.382c0.026-0.133-0.01-0.271-0.095-0.374
		C25.605,15.597,25.477,15.537,25.342,15.537 M25.342,15.988l-0.567,2.919h2.114c1.33,0,2.247,0.232,2.751,0.698
		c0.507,0.463,0.659,1.215,0.457,2.254l-0.992,5.109h-2.412l0.943-4.858c0.109-0.552,0.068-0.929-0.117-1.129
		c-0.188-0.202-0.584-0.302-1.191-0.302H24.43l-1.223,6.29h-2.374l2.136-10.981H25.342"/>
	<path id="path3502_1_" clip-path="url(#SVGID_6_)" fill="#010101" d="M34.075,25.012c0.908,0,1.586-0.167,2.017-0.499
		c0.425-0.326,0.718-0.894,0.871-1.684c0.144-0.739,0.09-1.255-0.162-1.533c-0.258-0.285-0.812-0.43-1.65-0.43h-1.453l-0.805,4.146
		H34.075z M29.322,30.116c-0.068,0-0.132-0.032-0.175-0.083c-0.041-0.052-0.061-0.12-0.047-0.186l2.133-10.983
		c0.023-0.105,0.114-0.183,0.224-0.183h4.599c1.447,0,2.523,0.393,3.199,1.167c0.68,0.778,0.891,1.866,0.625,3.233
		c-0.108,0.558-0.294,1.075-0.554,1.538c-0.259,0.463-0.602,0.894-1.016,1.275c-0.502,0.467-1.064,0.805-1.678,1.005
		c-0.604,0.196-1.378,0.296-2.303,0.296h-1.862l-0.531,2.736c-0.021,0.108-0.113,0.184-0.223,0.184H29.322z"/>
	<path id="path3506_1_" clip-path="url(#SVGID_6_)" fill="#FFFFFF" d="M33.885,21.093h1.266c1.011,0,1.363,0.222,1.482,0.353
		c0.197,0.22,0.236,0.683,0.109,1.339c-0.145,0.734-0.409,1.256-0.788,1.548c-0.39,0.3-1.021,0.45-1.879,0.45h-0.907L33.885,21.093z
		 M36.056,18.456h-4.599c-0.218,0-0.401,0.152-0.445,0.365l-2.134,10.981c-0.024,0.134,0.011,0.269,0.094,0.376
		c0.089,0.102,0.215,0.161,0.351,0.161h2.392c0.217,0,0.403-0.151,0.443-0.364l0.498-2.555h1.675c0.949,0,1.747-0.104,2.372-0.306
		c0.646-0.21,1.237-0.563,1.76-1.055c0.434-0.399,0.789-0.845,1.061-1.33c0.271-0.484,0.467-1.023,0.578-1.604
		c0.279-1.44,0.052-2.593-0.676-3.426C38.705,18.874,37.569,18.456,36.056,18.456 M32.619,25.237h1.456
		c0.964,0,1.682-0.182,2.154-0.545c0.472-0.364,0.791-0.971,0.954-1.82c0.16-0.817,0.087-1.394-0.215-1.728
		c-0.304-0.335-0.909-0.504-1.818-0.504h-1.638L32.619,25.237 M36.056,18.907c1.387,0,2.396,0.363,3.029,1.09
		c0.635,0.726,0.824,1.74,0.571,3.042c-0.103,0.535-0.278,1.027-0.529,1.47c-0.246,0.446-0.571,0.851-0.972,1.221
		c-0.478,0.444-1.008,0.764-1.591,0.952c-0.586,0.191-1.33,0.286-2.234,0.286h-2.049l-0.567,2.92h-2.392l2.135-10.981H36.056"/>
</g>
</svg>
