<?xml version="1.0" encoding="utf-8"?>
<!DOCTYPE svg PUBLIC "-//W3C//DTD SVG 1.1//EN" "http://www.w3.org/Graphics/SVG/1.1/DTD/svg11.dtd" [
	<!ENTITY ns_flows "http://ns.adobe.com/Flows/1.0/">
]>
<svg version="1.1"
	 xmlns="http://www.w3.org/2000/svg" xmlns:xlink="http://www.w3.org/1999/xlink"
	 x="0px" y="0px" width="16px" height="16px" viewBox="-1.12 -1.167 16 16">
<defs>
</defs>
<path display="none" fill="#FFFFFF" d="M6.614,9.602c-1.094,0-1.47-0.884-1.802-1.665c-0.307-0.724-0.573-1.35-1.305-1.375
	C3.493,6.561,3.478,6.561,3.463,6.561c-1.568,0-2.702,2.844-2.712,2.874L0.433,9.311c0.05-0.128,1.264-3.158,3.086-3.089
	c0.949,0.032,1.284,0.82,1.608,1.582c0.318,0.75,0.619,1.459,1.487,1.459c0.778,0,1.012-1.43,1.238-2.814
	c0.272-1.659,0.55-3.38,1.819-3.268c2.252,0.188,3.27,5.978,3.313,6.224l-0.336,0.059c-0.276-1.607-1.354-5.805-3.006-5.942
	C8.698,3.436,8.435,4.998,8.19,6.504C7.928,8.098,7.682,9.602,6.614,9.602z"/>
<g>
	<path fill="#F79523" d="M13.259,7.021l0.195-0.338c0.547-0.946,0.223-2.155-0.724-2.702l-0.338-0.195v-0.39
		c0-1.092-0.886-1.978-1.979-1.978h-0.391L9.829,1.079c-0.546-0.946-1.756-1.27-2.702-0.724L6.789,0.55L6.451,0.355
		C5.504-0.191,4.438-0.153,3.892,0.793L3.696,1.131H3.306c-1.092,0-1.978,0.886-1.978,1.978V3.5L0.99,3.695
		C0.043,4.241-0.281,5.451,0.266,6.396l0.195,0.338L0.266,7.074C-0.281,8.02,0.043,9.229,0.989,9.775l0.339,0.195v0.391
		c0,1.092,0.885,1.979,1.978,1.979h0.391l0.195,0.338c0.546,0.945,1.755,1.27,2.702,0.723l0.338-0.195L7.27,13.4
		c0.946,0.547,2.156,0.223,2.702-0.725l0.195-0.336h0.391c1.094,0,1.979-0.887,1.979-1.979V9.971l0.338-0.195
		c0.946-0.547,1.128-1.471,0.581-2.416L13.259,7.021z"/>
</g>
<polygon fill="#FFFFFF" points="6.881,2.452 8.302,5.336 11.487,5.799 9.182,8.044 9.729,11.214 6.881,9.717 4.034,11.214 
	4.577,8.044 2.274,5.799 5.457,5.336 "/>
</svg>
