<?xml version="1.0" encoding="utf-8"?>
<svg version="1.1"
	 xmlns="http://www.w3.org/2000/svg" xmlns:xlink="http://www.w3.org/1999/xlink"
	 x="0px" y="0px" width="48px" height="48px" viewBox="0 0 48 48">
<defs>
</defs>
<path fill="#F79523" d="M29.285,28.957c0.191,0.367,0.049,0.819-0.32,1.01l-3.029,1.578c-0.369,0.19-0.821,0.048-1.014-0.318
	l-5.357-10.303c-0.191-0.367-0.049-0.82,0.319-1.012l3.032-1.577c0.368-0.191,0.82-0.047,1.011,0.319L29.285,28.957z"/>
<polygon fill="#F79523" points="24.839,30.358 18.533,32.795 14.611,25.255 20.227,21.489 "/>
<rect x="12.826" y="26.881" transform="matrix(0.8871 -0.4616 0.4616 0.8871 -12.2418 10.1119)" fill="#F79523" width="3.442" height="6.393"/>
<path fill="#F79523" d="M32.802,17.303c0.19,0.368,0.049,0.82-0.319,1.012l-5.044,2.624c-0.368,0.191-0.821,0.049-1.012-0.32
	l-0.291-0.559c-0.192-0.367-0.048-0.82,0.319-1.011l5.045-2.624c0.368-0.192,0.819-0.048,1.011,0.319L32.802,17.303z"/>
<rect x="25.569" y="18.612" transform="matrix(0.8873 -0.4613 0.4613 0.8873 -6.2654 14.5915)" fill="#F79523" width="2.296" height="3.001"/>
<path fill="#F79523" d="M35.918,23.293c0.192,0.37,0.05,0.822-0.319,1.013l-5.044,2.625c-0.367,0.19-0.82,0.05-1.012-0.321
	l-0.291-0.558c-0.19-0.367-0.048-0.819,0.32-1.012l5.043-2.625c0.369-0.19,0.821-0.047,1.012,0.319L35.918,23.293z"/>
<rect x="28.686" y="24.604" transform="matrix(0.8871 -0.4616 0.4616 0.8871 -8.681 16.7194)" fill="#F79523" width="2.295" height="3"/>
<rect x="5.859" y="30.841" transform="matrix(0.8797 -0.4755 0.4755 0.8797 -14.1829 8.6732)" fill="#F79523" width="8.388" height="3.063"/>
<path fill="#F79523" d="M13.42,4.425C2.608,10.268-1.419,23.77,4.424,34.581c0.362,0.671,0.754,1.315,1.173,1.933l2.956-1.598
	C8.123,34.306,7.714,33.673,7.35,33c-4.969-9.195-1.544-20.679,7.651-25.649s20.678-1.543,25.648,7.651s1.545,20.678-7.65,25.648
	c-5.283,2.855-11.317,2.927-16.441,0.737l-3.586,1.938c6.453,3.674,14.596,4.042,21.61,0.251
	c10.812-5.843,14.838-19.345,8.995-30.156C37.732,2.61,24.231-1.418,13.42,4.425z"/>
<path fill="#C8691C" d="M16.558,41.388l-3.586,1.938c4.594,2.615,10.044,3.545,15.334,2.501c0.355-1.174,0.636-2.38,0.834-3.614
	C24.907,43.407,20.468,43.059,16.558,41.388z"/>
<path fill="#C8691C" d="M6.289,10.532c-5.12,6.741-6.152,16.118-1.865,24.049c0.362,0.671,0.754,1.315,1.173,1.933l1.492-0.807
	l0.003,0.007l6.594-3.563l0.811,1.558l3.053-1.589l-2.95-5.671l-3.054,1.588l0.727,1.396l-5.266,2.846
	C3.558,25.207,4.92,16.962,9.928,11.373C8.747,11.013,7.531,10.731,6.289,10.532z"/>
<path fill="#C8691C" d="M24.921,31.227c0.193,0.366,0.645,0.509,1.014,0.318l2.503-1.304c-1.229-4.328-3.486-8.222-6.491-11.403
	l-2.065,1.074c-0.368,0.191-0.51,0.645-0.319,1.012l0.389,0.749l-5.342,3.583l3.922,7.54l5.999-2.317L24.921,31.227z"/>
</svg>
