<?xml version="1.0" encoding="utf-8"?>
<svg version="1.1"
	 xmlns="http://www.w3.org/2000/svg" xmlns:xlink="http://www.w3.org/1999/xlink"
	 x="0px" y="0px" width="100px" height="100px" viewBox="-6.097 -8.277 100 100">
<defs>
</defs>
<rect x="34.775" y="67.794" fill="#C8691C" width="19.352" height="11.01"/>
<rect x="3.371" y="3.56" fill="#F1F2F2" width="82.27" height="60.542"/>
<polygon fill="#E6E7E8" points="69.696,3.56 3.371,3.56 3.371,64.102 50.57,64.102 "/>
<path fill="#F79523" d="M84.625,0H4.278C1.915,0,0,1.915,0,4.278v59.961c0,2.364,1.915,4.279,4.278,4.279h80.347
	c2.363,0,4.278-1.915,4.278-4.279V4.278C88.903,1.915,86.988,0,84.625,0z M83.941,60.071c0,2.245-0.965,3.212-3.21,3.212H8.171
	c-2.244,0-3.21-0.967-3.21-3.212V8.006c0-2.244,0.966-3.212,3.21-3.212h72.56c2.245,0,3.21,0.968,3.21,3.212V60.071z"/>
<path fill="#F79523" d="M54.863,78.162H34.038c-2.405,0-4.357,1.953-4.357,4.36h29.543C59.223,80.115,57.27,78.162,54.863,78.162z"
	/>
<rect x="14.853" y="13.559" fill="#52CAF5" width="61.454" height="15.93"/>
<polygon fill="#F79523" points="80.391,32.746 78.391,32.746 78.391,31.746 79.391,31.746 79.391,30.746 80.391,30.746 "/>
<path fill="#F79523" d="M75.266,32.746h-3.125v-1h3.125V32.746z M69.016,32.746h-3.125v-1h3.125V32.746z M62.767,32.746h-3.125v-1
	h3.125V32.746z M56.517,32.746h-3.125v-1h3.125V32.746z M50.267,32.746h-3.125v-1h3.125V32.746z M44.017,32.746h-3.125v-1h3.125
	V32.746z M37.767,32.746h-3.124v-1h3.124V32.746z M31.518,32.746h-3.125v-1h3.125V32.746z M25.269,32.746h-3.125v-1h3.125V32.746z
	 M19.019,32.746h-3.125v-1h3.125V32.746z"/>
<polygon fill="#F79523" points="12.769,32.746 10.769,32.746 10.769,30.746 11.769,30.746 11.769,31.746 12.769,31.746 "/>
<path fill="#F79523" d="M11.769,28.067h-1v-2.679h1V28.067z M11.769,22.709h-1v-2.679h1V22.709z M11.769,17.353h-1v-2.679h1V17.353z
	"/>
<polygon fill="#F79523" points="11.769,11.995 10.769,11.995 10.769,9.995 12.769,9.995 12.769,10.995 11.769,10.995 "/>
<path fill="#F79523" d="M75.266,10.995h-3.125v-1h3.125V10.995z M69.017,10.995h-3.125v-1h3.125V10.995z M62.767,10.995h-3.125v-1
	h3.125V10.995z M56.517,10.995h-3.125v-1h3.125V10.995z M50.267,10.995h-3.124v-1h3.124V10.995z M44.017,10.995h-3.124v-1h3.124
	V10.995z M37.768,10.995h-3.125v-1h3.125V10.995z M31.519,10.995h-3.125v-1h3.125V10.995z M25.269,10.995h-3.125v-1h3.125V10.995z
	 M19.019,10.995h-3.125v-1h3.125V10.995z"/>
<polygon fill="#F79523" points="80.391,11.995 79.391,11.995 79.391,10.995 78.391,10.995 78.391,9.995 80.391,9.995 "/>
<path fill="#F79523" d="M80.391,28.067h-1v-2.679h1V28.067z M80.391,22.71h-1v-2.679h1V22.71z M80.391,17.353h-1v-2.679h1V17.353z"
	/>
<path fill="#C8691C" d="M29.68,82.522h15.071l1.377-4.36H34.038C31.632,78.162,29.68,80.115,29.68,82.522z"/>
<polygon fill="#A2540F" points="49.404,67.794 34.775,67.794 34.775,78.804 45.925,78.804 "/>
<path fill="#C8691C" d="M0,4.278v59.961c0,2.364,1.915,4.279,4.278,4.279h44.896l1.654-5.235H8.171c-2.244,0-3.21-0.967-3.21-3.212
	V8.006c0-2.244,0.966-3.212,3.21-3.212h61.134L70.82,0H4.278C1.915,0,0,1.915,0,4.278z"/>
<polygon fill="#3588A6" points="66.537,13.559 14.853,13.559 14.853,29.488 61.504,29.488 "/>
</svg>
