<?xml version="1.0" encoding="utf-8"?>
<svg version="1.1"
	 xmlns="http://www.w3.org/2000/svg" xmlns:xlink="http://www.w3.org/1999/xlink"
	 x="0px" y="0px" width="48px" height="48px" viewBox="-1.931 -5.37 48 48">
<defs>
</defs>
<path fill="#3588A6" d="M18.59,12.158c0.029,0.086,0.048,0.171,0.048,0.259c0,1.247-2.974,2.258-6.643,2.258
	c-3.669,0-6.643-1.011-6.643-2.258c0-0.088,0.019-0.173,0.048-0.259c-2.876,1.876-4.912,4.937-5.4,8.496h23.991
	C23.501,17.094,21.467,14.034,18.59,12.158z"/>
<ellipse fill="#3588A6" cx="11.995" cy="6.062" rx="5.764" ry="6.062"/>
<path fill="#52CAF5" d="M10.239,14.592c-2.815-0.261-4.887-1.135-4.887-2.175c0-0.088,0.019-0.173,0.048-0.259
	c-2.876,1.876-4.912,4.937-5.4,8.496h13.882L10.239,14.592z"/>
<path fill="#C8691C" d="M36.432,25.165c0.043,0.128,0.071,0.253,0.071,0.382c0,1.829-4.362,3.313-9.745,3.313
	c-5.383,0-9.745-1.484-9.745-3.313c0-0.129,0.028-0.254,0.07-0.382c-4.221,2.753-7.206,7.242-7.922,12.465h35.194
	C43.637,32.407,40.652,27.917,36.432,25.165z"/>
<ellipse fill="#C8691C" cx="26.759" cy="16.223" rx="8.456" ry="8.893"/>
<path fill="#F79523" d="M24.181,28.738c-4.129-0.384-7.167-1.667-7.167-3.191c0-0.129,0.028-0.254,0.07-0.382
	c-4.221,2.753-7.206,7.242-7.922,12.465h20.365L24.181,28.738z"/>
<path fill="#414042" d="M7.634,17.96c-2.96,2.876-3.544,7.538-1.168,11.092c2.316,3.467,6.68,4.722,10.411,3.271l-1.367-2.558
	l6.526,1.599l-2.293,6.322l-1.099-2.058C13.229,37.969,6.752,36.21,3.357,31.13c-3.525-5.271-2.485-12.25,2.178-16.308L7.634,17.96z
	"/>
</svg>
