<?xml version="1.0" encoding="utf-8"?>
<!-- Generator: Adobe Illustrator 15.0.0, SVG Export Plug-In  -->
<!DOCTYPE svg PUBLIC "-//W3C//DTD SVG 1.1//EN" "http://www.w3.org/Graphics/SVG/1.1/DTD/svg11.dtd" [
	<!ENTITY ns_flows "http://ns.adobe.com/Flows/1.0/">
]>
<svg version="1.1"
	 xmlns="http://www.w3.org/2000/svg" xmlns:xlink="http://www.w3.org/1999/xlink" xmlns:a="http://ns.adobe.com/AdobeSVGViewerExtensions/3.0/"
	 x="0px" y="0px" width="150px" height="160px" viewBox="-7.791 -11.056 150 160" enable-background="new -7.791 -11.056 150 160"
	 xml:space="preserve">
<defs>
</defs>
<rect fill="#52CAF5" width="59.99" height="25.215"/>
<rect y="28.17" fill="#52CAF5" width="78.793" height="25.212"/>
<rect y="56.338" fill="#52CAF5" width="125.353" height="25.212"/>
<rect y="84.506" fill="#52CAF5" width="104.76" height="25.214"/>
<rect y="112.675" fill="#52CAF5" width="50.142" height="25.214"/>
<path fill="#F79523" d="M130.368,126.393l-23.641-46.737c-0.252-0.451-0.601-0.788-0.94-1.132
	c18.089-11.798,24.383-35.691,13.882-54.993C108.621,3.227,83.217-4.282,62.914,6.765c-20.305,11.04-27.808,36.453-16.762,56.753
	c9.998,18.382,31.763,26.217,50.849,19.354c0.098,0.599,0.246,1.196,0.554,1.756l23.646,46.751c1.386,2.543,4.54,3.47,7.075,2.1
	C130.815,132.101,131.75,128.925,130.368,126.393z M59.38,56.324c-7.068-12.992-2.259-29.258,10.731-36.321
	c12.994-7.075,29.255-2.267,36.323,10.732c7.062,12.985,2.271,29.252-10.728,36.314C82.717,74.124,66.451,69.317,59.38,56.324z"/>
<path fill="#BCBEC0" d="M130.208,135.716c-3.803,1.935-8.458,0.431-10.398-3.367l-13.593-26.606c-1.94-3.809-0.43-8.46,3.366-10.405
	l0,0c3.798-1.938,8.456-0.427,10.401,3.368l13.585,26.617C135.513,129.117,134.002,133.772,130.208,135.716L130.208,135.716z"/>
<path fill="#808285" d="M133.569,125.322l-13.585-26.617c-1.945-3.795-6.604-5.306-10.401-3.368
	c-0.298,0.157-0.564,0.354-0.832,0.538l20.991,40.024c0.149-0.07,0.314-0.103,0.466-0.184
	C134.002,133.772,135.513,129.117,133.569,125.322z"/>
<path fill="#C8691C" d="M69.232,20.538c0.296-0.177,0.573-0.367,0.879-0.535c12.994-7.075,29.255-2.267,36.323,10.732
	c7.062,12.985,2.271,29.252-10.728,36.314c-0.546,0.298-1.101,0.545-1.662,0.799l14.706,28.026c0.268-0.184,0.534-0.381,0.832-0.538
	c1.511-0.77,3.154-0.976,4.711-0.729l-7.566-14.952c-0.252-0.451-0.601-0.788-0.94-1.132c18.089-11.798,24.383-35.691,13.882-54.993
	C108.621,3.227,83.217-4.282,62.914,6.765c-0.24,0.131-0.452,0.289-0.688,0.42L69.232,20.538z"/>
<path fill="#D1D3D4" d="M111.922,43.29c0,16.22-13.15,29.377-29.373,29.377c-16.225,0-29.374-13.157-29.374-29.377
	c0-16.224,13.149-29.373,29.374-29.373C98.771,13.917,111.922,27.066,111.922,43.29z"/>
<path fill="#BFE7FB" d="M53.175,43.29c0,3.552,0.664,6.94,1.817,10.092h23.8V28.17H57.4C54.735,32.591,53.175,37.751,53.175,43.29z"
	/>
<path fill="#F1F2F2" d="M69.607,26.133c-2.239-1.189-5.66,0.874-7.636,4.608c-1.979,3.732-1.769,7.722,0.473,8.908
	c2.243,1.188,5.659-0.877,7.64-4.607C72.063,31.306,71.849,27.321,69.607,26.133z"/>
<path fill="#BFE7FB" d="M56.263,56.338c4.807,9.667,14.755,16.329,26.286,16.329c11.528,0,21.479-6.662,26.289-16.329H56.263z"/>
</svg>
