<?xml version="1.0" encoding="utf-8"?>
<svg version="1.1"
	 xmlns="http://www.w3.org/2000/svg" xmlns:xlink="http://www.w3.org/1999/xlink"
	 x="0px" y="0px" width="48px" height="48px" viewBox="0 0 48 48">
<defs>
</defs>
<rect x="1.869" y="1.297" fill="#52CAF5" width="19.754" height="8.303"/>
<rect x="1.869" y="10.574" fill="#52CAF5" width="25.946" height="8.301"/>
<rect x="1.869" y="19.848" fill="#52CAF5" width="41.279" height="8.302"/>
<rect x="1.869" y="29.125" fill="#52CAF5" width="34.498" height="8.303"/>
<rect x="1.869" y="38.4" fill="#52CAF5" width="16.511" height="8.303"/>
<path fill="#F79523" d="M44.798,42.917l-7.783-15.391c-0.085-0.147-0.198-0.259-0.311-0.372c5.956-3.885,8.029-11.753,4.571-18.108
	c-3.639-6.687-12.004-9.159-18.69-5.522c-6.686,3.636-9.157,12.004-5.519,18.689c3.292,6.054,10.459,8.633,16.743,6.374
	c0.033,0.196,0.082,0.394,0.184,0.578l7.786,15.396c0.457,0.836,1.495,1.142,2.331,0.69C44.945,44.797,45.253,43.752,44.798,42.917z
	 M21.422,19.844c-2.327-4.278-0.744-9.635,3.534-11.96c4.278-2.331,9.633-0.747,11.961,3.535c2.325,4.276,0.747,9.631-3.532,11.958
	C29.107,25.706,23.75,24.123,21.422,19.844z"/>
<path fill="#BCBEC0" d="M44.745,45.988c-1.251,0.637-2.784,0.142-3.424-1.109l-4.477-8.761c-0.639-1.255-0.141-2.786,1.108-3.427
	l0,0c1.251-0.638,2.785-0.141,3.426,1.109l4.474,8.764C46.492,43.814,45.994,45.348,44.745,45.988L44.745,45.988z"/>
<path fill="#808285" d="M45.853,42.564l-4.474-8.764c-0.641-1.25-2.175-1.747-3.426-1.109c-0.098,0.052-0.186,0.115-0.274,0.177
	l6.914,13.18c0.048-0.023,0.103-0.034,0.152-0.06C45.994,45.348,46.492,43.814,45.853,42.564z"/>
<path fill="#C8691C" d="M24.666,8.059c0.097-0.057,0.189-0.12,0.29-0.175c4.278-2.331,9.633-0.747,11.961,3.535
	c2.325,4.276,0.747,9.631-3.532,11.958c-0.18,0.099-0.363,0.18-0.547,0.263l4.841,9.229c0.089-0.062,0.177-0.125,0.274-0.177
	c0.498-0.255,1.039-0.321,1.553-0.241l-2.491-4.924c-0.085-0.147-0.198-0.259-0.311-0.372c5.956-3.885,8.029-11.753,4.571-18.108
	c-3.639-6.687-12.004-9.159-18.69-5.522c-0.079,0.044-0.148,0.095-0.226,0.139L24.666,8.059z"/>
<circle fill="#D1D3D4" cx="29.052" cy="15.552" r="9.673"/>
<path fill="#BFE7FB" d="M19.379,15.552c0,1.17,0.218,2.286,0.599,3.323h7.837v-8.301H20.77
	C19.892,12.028,19.379,13.729,19.379,15.552z"/>
<ellipse transform="matrix(0.4683 -0.8836 0.8836 0.4683 1.8379 27.3092)" fill="#F1F2F2" cx="23.611" cy="12.127" rx="2.519" ry="1.511"/>
<path fill="#BFE7FB" d="M20.395,19.848c1.583,3.184,4.86,5.377,8.657,5.377c3.795,0,7.072-2.193,8.656-5.377H20.395z"/>
</svg>
