<?xml version="1.0" encoding="utf-8"?>
<!-- Generator: Adobe Illustrator 15.0.0, SVG Export Plug-In  -->
<!DOCTYPE svg PUBLIC "-//W3C//DTD SVG 1.1//EN" "http://www.w3.org/Graphics/SVG/1.1/DTD/svg11.dtd" [
	<!ENTITY ns_flows "http://ns.adobe.com/Flows/1.0/">
]>
<svg version="1.1"
	 xmlns="http://www.w3.org/2000/svg" xmlns:xlink="http://www.w3.org/1999/xlink" xmlns:a="http://ns.adobe.com/AdobeSVGViewerExtensions/3.0/"
	 x="0px" y="0px" width="150px" height="160px" viewBox="-8.282 -14.644 150 160" enable-background="new -8.282 -14.644 150 160"
	 xml:space="preserve">
<defs>
</defs>
<path fill="#F79523" d="M40.406,40.216l4.467-31.567c0,0,0.397-4.813,3.999-4.958c3.601-0.145,4.141,3.089,3.855,5.794
	c-0.289,2.704-2.634,17.613-2.634,17.613s-0.011,1.907,0.984,2.223c0.993,0.318,1.879-0.686,2.307-4.298
	c0.426-3.61,1.875-15.1,2.387-19.04c0.51-3.94,2.658-6.501,5.34-5.893c2.68,0.609,2.697,5.178,2.236,8.541
	c-0.453,3.362-2.137,17.487-2.398,19.426c-0.26,1.938,2.304,4.085,2.787-1.565c0.481-5.649,2.319-14.586,2.759-17.628
	c0.432-3.041,3.275-5.628,5.726-4.353c2.454,1.272,2.073,4.75,1.699,8.29c-0.371,3.542-1.754,14.07-2.269,17.504
	c-0.511,3.432,1.664,7.027,2.61,0.046c0.948-6.98,2.352-14.239,3.241-15.847c1.135-2.051,4.521-2.384,5.953,1.351
	c1.433,3.735-2.024,14.911-2.304,18.187c-0.282,3.275-1.599,14.305-2.235,18.259c-0.637,3.957-4.771,15.285-14.903,16.013
	c-10.133,0.725-21.856-2.537-26.44-12.047c-4.587-9.51-8.695-16.796-10.04-19.355c-1.344-2.557-1.041-5.646,1.74-7.715
	c2.785-2.073,5.676,0.669,7.156,3.781C37.91,36.088,40.406,40.216,40.406,40.216z"/>
<path fill="#52CAF5" d="M85.938,102.566l28.484,14.321c0,0,4.185,2.414,6.353-0.464c2.174-2.877-0.178-5.169-2.564-6.474
	c-2.385-1.302-15.972-7.871-15.972-7.871s-1.576-1.076-1.268-2.076c0.304-0.992,1.637-1.155,4.846,0.557
	c3.21,1.703,13.476,7.063,17.009,8.888c3.526,1.823,6.858,1.518,7.885-1.034c1.028-2.551-2.721-5.163-5.744-6.702
	c-3.025-1.544-15.588-8.206-17.332-9.1c-1.74-0.889-2.046-4.218,2.871-1.398c4.919,2.824,13.314,6.406,16.061,7.782
	c2.747,1.374,6.495,0.512,6.844-2.229c0.347-2.738-2.726-4.408-5.848-6.121c-3.121-1.709-12.561-6.574-15.673-8.109
	c-3.115-1.534-4.827-5.372,1.448-2.167c6.275,3.192,13.038,6.178,14.869,6.363c2.331,0.238,4.534-2.358,2.282-5.664
	c-2.255-3.303-13.409-6.831-16.259-8.464c-2.851-1.638-12.664-6.843-16.278-8.572c-3.613-1.73-15.279-4.784-21.652,3.126
	c-6.368,7.912-10.369,19.4-5.167,28.591c5.201,9.187,8.849,16.716,10.188,19.279c1.335,2.56,4.045,4.069,7.334,2.963
	c3.289-1.104,2.683-5.042,0.966-8.035C87.907,106.968,85.938,102.566,85.938,102.566z"/>
<path fill="#3588A6" d="M26.032,81.239L2.397,102.633c0,0-3.762,3.029-1.861,6.094c1.899,3.063,4.88,1.698,6.958-0.056
	c2.077-1.755,13.108-12.058,13.108-12.058s1.573-1.075,2.393-0.428c0.818,0.642,0.488,1.939-2.265,4.314
	c-2.753,2.38-11.455,10.021-14.431,12.655c-2.974,2.631-3.891,5.846-1.883,7.727c2.008,1.879,5.8-0.674,8.328-2.938
	c2.525-2.261,13.279-11.573,14.738-12.878c1.459-1.302,4.672-0.384,0.266,3.186c-4.41,3.565-10.78,10.102-13.05,12.165
	c-2.275,2.066-2.822,5.874-0.395,7.185c2.428,1.317,5.095-0.951,7.818-3.243c2.726-2.292,10.667-9.34,13.221-11.687
	c2.557-2.35,6.751-2.563,1.502,2.136c-5.248,4.697-10.471,9.928-11.306,11.565c-1.061,2.091,0.563,5.081,4.457,4.172
	c3.896-0.907,11.212-10.037,13.767-12.103c2.557-2.071,10.951-9.343,13.868-12.09c2.921-2.739,9.979-12.518,4.903-21.315
	c-5.084-8.796-14.354-16.675-24.8-15.143c-10.444,1.536-18.782,2.217-21.653,2.539c-2.873,0.32-5.258,2.302-5.415,5.771
	c-0.154,3.464,3.737,4.323,7.146,3.801C21.218,81.486,26.032,81.239,26.032,81.239z"/>
<path fill="#C8691C" d="M40.593,38.523l-0.187,1.314c0,0-0.539-0.893-1.253-2.143c-3.883-2.157-7.967-3.995-12.212-5.486
	c-0.353,1.436-0.125,2.954,0.594,4.321c1.345,2.56,5.453,9.846,10.04,19.357c4.584,9.51,16.308,12.774,26.44,12.046
	c1.837-0.131,3.474-0.62,4.933-1.343C62.034,54.998,52.255,45.327,40.593,38.523z"/>
<path fill="#3588A6" d="M71.132,95.749c3.963,6.998,7.015,13.015,8.84,16.626c0.104-1.676,0.177-3.364,0.177-5.071
	c0-12.266-2.78-23.881-7.736-34.257C68.596,80.181,67.113,88.649,71.132,95.749z"/>
</svg>
