<?xml version="1.0" encoding="utf-8"?>
<svg version="1.1"
	 xmlns="http://www.w3.org/2000/svg" xmlns:xlink="http://www.w3.org/1999/xlink"
	 x="0px" y="0px" width="48px" height="48px" viewBox="0 0 48 48">
<defs>
</defs>
<path fill="#F79523" d="M15.149,15.542l1.502-10.619c0,0,0.134-1.619,1.345-1.668c1.212-0.049,1.394,1.039,1.297,1.949
	c-0.098,0.91-0.886,5.925-0.886,5.925s-0.004,0.641,0.331,0.748c0.333,0.107,0.632-0.231,0.776-1.446s0.631-5.08,0.803-6.405
	c0.171-1.326,0.894-2.187,1.796-1.982c0.902,0.205,0.908,1.742,0.752,2.873c-0.152,1.131-0.719,5.883-0.807,6.535
	c-0.087,0.652,0.775,1.375,0.938-0.526c0.162-1.9,0.78-4.907,0.928-5.93c0.146-1.023,1.103-1.894,1.927-1.465
	c0.826,0.428,0.697,1.598,0.571,2.789c-0.124,1.191-0.59,4.733-0.763,5.888c-0.171,1.155,0.56,2.364,0.879,0.015
	c0.318-2.348,0.79-4.79,1.09-5.331c0.382-0.69,1.521-0.802,2.003,0.454c0.481,1.256-0.682,5.016-0.775,6.118
	c-0.095,1.102-0.537,4.812-0.752,6.143c-0.214,1.331-1.604,5.142-5.014,5.387c-3.409,0.244-7.353-0.854-8.895-4.053
	c-1.543-3.199-2.925-5.65-3.377-6.511c-0.452-0.86-0.35-1.899,0.586-2.595c0.937-0.697,1.909,0.225,2.407,1.272
	S15.149,15.542,15.149,15.542z"/>
<path fill="#52CAF5" d="M30.466,36.518l9.583,4.817c0,0,1.407,0.813,2.137-0.155c0.73-0.969-0.06-1.739-0.862-2.179
	c-0.803-0.438-5.373-2.647-5.373-2.647s-0.53-0.361-0.427-0.698c0.103-0.334,0.551-0.389,1.63,0.187
	c1.08,0.573,4.533,2.376,5.722,2.99c1.187,0.613,2.308,0.511,2.653-0.348s-0.916-1.736-1.934-2.255
	c-1.017-0.519-5.243-2.76-5.83-3.061c-0.585-0.3-0.688-1.419,0.966-0.471c1.655,0.95,4.479,2.155,5.403,2.618
	c0.924,0.462,2.185,0.172,2.302-0.75c0.117-0.921-0.917-1.482-1.967-2.059c-1.05-0.575-4.226-2.212-5.272-2.729
	c-1.048-0.516-1.624-1.807,0.487-0.729c2.111,1.075,4.387,2.079,5.002,2.142c0.784,0.08,1.525-0.794,0.768-1.905
	c-0.759-1.111-4.511-2.298-5.47-2.848c-0.958-0.551-4.26-2.303-5.477-2.884c-1.215-0.583-5.139-1.61-7.283,1.051
	c-2.142,2.662-3.489,6.527-1.738,9.619c1.75,3.09,2.978,5.623,3.428,6.485c0.448,0.861,1.36,1.369,2.467,0.996
	c1.106-0.371,0.902-1.695,0.325-2.702C31.129,37.999,30.466,36.518,30.466,36.518z"/>
<path fill="#3588A6" d="M10.313,29.344L2.362,36.54c0,0-1.266,1.02-0.626,2.05c0.639,1.031,1.642,0.571,2.34-0.018
	c0.699-0.591,4.41-4.057,4.41-4.057s0.529-0.362,0.805-0.144c0.275,0.215,0.164,0.652-0.762,1.45
	c-0.926,0.802-3.854,3.372-4.854,4.258c-1,0.885-1.309,1.967-0.633,2.6c0.675,0.632,1.951-0.227,2.801-0.988
	c0.85-0.761,4.467-3.894,4.958-4.333c0.491-0.438,1.572-0.129,0.089,1.072c-1.483,1.199-3.626,3.397-4.39,4.092
	c-0.765,0.695-0.949,1.977-0.133,2.417c0.817,0.443,1.714-0.32,2.63-1.091c0.917-0.771,3.588-3.142,4.448-3.932
	s2.271-0.862,0.505,0.719c-1.765,1.58-3.522,3.34-3.803,3.891c-0.357,0.703,0.189,1.709,1.5,1.403s3.771-3.376,4.631-4.071
	c0.86-0.696,3.683-3.143,4.665-4.067c0.983-0.921,3.357-4.211,1.649-7.17c-1.71-2.959-4.829-5.61-8.343-5.095
	c-3.514,0.518-6.318,0.746-7.284,0.854c-0.967,0.107-1.769,0.774-1.822,1.941c-0.052,1.166,1.257,1.454,2.404,1.278
	C8.693,29.427,10.313,29.344,10.313,29.344z"/>
<path fill="#C8691C" d="M15.211,14.973l-0.063,0.442c0,0-0.182-0.301-0.422-0.721c-1.307-0.725-2.68-1.344-4.108-1.846
	c-0.119,0.483-0.042,0.994,0.2,1.454c0.453,0.861,1.834,3.312,3.377,6.511c1.542,3.199,5.486,4.298,8.895,4.052
	c0.619-0.044,1.168-0.208,1.66-0.452C22.424,20.515,19.134,17.262,15.211,14.973z"/>
<path fill="#3588A6" d="M25.485,34.225c1.333,2.354,2.359,4.378,2.974,5.593c0.035-0.563,0.06-1.132,0.06-1.706
	c0-4.126-0.935-8.034-2.603-11.524C24.632,28.987,24.133,31.836,25.485,34.225z"/>
</svg>
