<?xml version="1.0" encoding="utf-8"?>
<!-- Generator: Adobe Illustrator 15.0.0, SVG Export Plug-In  -->
<!DOCTYPE svg PUBLIC "-//W3C//DTD SVG 1.1//EN" "http://www.w3.org/Graphics/SVG/1.1/DTD/svg11.dtd" [
	<!ENTITY ns_flows "http://ns.adobe.com/Flows/1.0/">
]>
<svg version="1.1"
	 xmlns="http://www.w3.org/2000/svg" xmlns:xlink="http://www.w3.org/1999/xlink" xmlns:a="http://ns.adobe.com/AdobeSVGViewerExtensions/3.0/"
	 x="0px" y="0px" width="150px" height="160px" viewBox="-7.87 -11.272 150 160" enable-background="new -7.87 -11.272 150 160"
	 xml:space="preserve">
<defs>
</defs>
<path fill="#3588A6" d="M131.063,0H3.196C1.431,0,0,1.429,0,3.196v28.771c0,1.767,1.431,3.196,3.196,3.196H89.81
	c0.006,0.003,0.006,0.009,0.009,0.012l9.665,9.668c0.89,0.889,2.333,0.889,3.222,0l9.664-9.668c0.003-0.003,0.003-0.009,0.011-0.012
	h18.684c1.767,0,3.196-1.43,3.196-3.196V3.196C134.26,1.429,132.83,0,131.063,0z"/>
<path fill="#C8691C" d="M131.063,51.146h-85.46c-0.003-0.003-0.004-0.009-0.007-0.012l-9.665-9.667c-0.89-0.89-2.331-0.89-3.221,0
	l-9.665,9.667c-0.003,0.003-0.004,0.009-0.008,0.012H3.196C1.431,51.146,0,52.576,0,54.343v28.77c0,1.768,1.431,3.197,3.196,3.197
	h127.867c1.767,0,3.196-1.43,3.196-3.197v-28.77C134.26,52.576,132.83,51.146,131.063,51.146z"/>
<path fill="#C8691C" d="M131.063,102.292h-85.46c-0.003-0.002-0.004-0.008-0.007-0.012l-9.665-9.664
	c-0.89-0.895-2.331-0.895-3.221,0l-9.665,9.664c-0.003,0.004-0.004,0.01-0.008,0.012H3.196c-1.765,0-3.196,1.43-3.196,3.197v28.77
	c0,1.768,1.431,3.197,3.196,3.197h127.867c1.767,0,3.196-1.43,3.196-3.197v-28.77C134.26,103.722,132.83,102.292,131.063,102.292z"
	/>
<path fill="#F79523" d="M45.596,102.281l-9.665-9.664c-0.89-0.895-2.331-0.895-3.221,0l-9.665,9.664
	c-0.003,0.004-0.004,0.01-0.008,0.012H3.196c-1.765,0-3.196,1.43-3.196,3.197v28.77c0,1.768,1.431,3.197,3.196,3.197h116.297
	c0.76-5.488,1.18-11.086,1.18-16.783c0-6.248-0.474-12.387-1.385-18.381H45.604C45.601,102.291,45.599,102.285,45.596,102.281z"/>
<path fill="#F79523" d="M98.784,51.146H45.604c-0.003-0.003-0.004-0.009-0.007-0.012l-9.665-9.667c-0.89-0.89-2.331-0.89-3.221,0
	l-9.665,9.667c-0.003,0.003-0.004,0.009-0.008,0.012H3.196C1.431,51.146,0,52.576,0,54.343v28.77c0,1.768,1.431,3.197,3.196,3.197
	H115.71C111.967,73.595,106.201,61.753,98.784,51.146z"/>
<path fill="#52CAF5" d="M0,3.196v28.771c0,1.767,1.431,3.196,3.196,3.196h82.265C66.489,16.027,41.198,3.188,12.974,0H3.196
	C1.431,0,0,1.429,0,3.196z"/>
<path fill="#D1D3D4" d="M120.475,70.289c0.024,0.088,0.046,0.18,0.046,0.27c0,1.295-3.09,2.344-6.904,2.344
	c-3.812,0-6.902-1.049-6.902-2.344c0-0.09,0.015-0.182,0.049-0.27c-2.989,1.949-5.105,5.133-5.612,8.828h24.934
	C125.575,75.421,123.461,72.238,120.475,70.289z"/>
<path fill="#D1D3D4" d="M119.606,63.95c0,3.483-2.678,6.302-5.99,6.302c-3.31,0-5.991-2.818-5.991-6.302
	c0-3.479,2.682-6.297,5.991-6.297C116.929,57.652,119.606,60.471,119.606,63.95z"/>
<path fill="#D1D3D4" d="M111.793,72.818c-2.926-0.271-5.079-1.176-5.079-2.26c0-0.09,0.015-0.182,0.049-0.27
	c-2.989,1.949-5.105,5.133-5.612,8.828h14.429L111.793,72.818z"/>
<path fill="#D1D3D4" d="M120.475,121.435c0.024,0.088,0.046,0.18,0.046,0.27c0,1.295-3.09,2.344-6.904,2.344
	c-3.812,0-6.902-1.049-6.902-2.344c0-0.09,0.015-0.182,0.049-0.27c-2.989,1.949-5.105,5.133-5.612,8.828h24.934
	C125.575,126.568,123.461,123.384,120.475,121.435z"/>
<path fill="#D1D3D4" d="M119.606,115.097c0,3.482-2.678,6.301-5.99,6.301c-3.31,0-5.991-2.818-5.991-6.301
	c0-3.48,2.682-6.299,5.991-6.299C116.929,108.798,119.606,111.617,119.606,115.097z"/>
<path fill="#D1D3D4" d="M111.793,123.964c-2.926-0.271-5.079-1.176-5.079-2.26c0-0.09,0.015-0.182,0.049-0.27
	c-2.989,1.949-5.105,5.133-5.612,8.828h14.429L111.793,123.964z"/>
<path fill="#D1D3D4" d="M120.475,19.143c0.024,0.087,0.046,0.178,0.046,0.268c0,1.296-3.09,2.345-6.904,2.345
	c-3.812,0-6.902-1.049-6.902-2.345c0-0.09,0.015-0.181,0.049-0.268c-2.989,1.948-5.105,5.132-5.612,8.828h24.934
	C125.575,24.274,123.461,21.091,120.475,19.143z"/>
<path fill="#D1D3D4" d="M119.606,12.804c0,3.481-2.678,6.3-5.99,6.3c-3.31,0-5.991-2.819-5.991-6.3c0-3.479,2.682-6.299,5.991-6.299
	C116.929,6.505,119.606,9.325,119.606,12.804z"/>
<path fill="#D1D3D4" d="M111.793,21.671c-2.926-0.271-5.079-1.177-5.079-2.26c0-0.09,0.015-0.181,0.049-0.268
	c-2.989,1.948-5.105,5.132-5.612,8.828h14.429L111.793,21.671z"/>
</svg>
