<?xml version="1.0" encoding="utf-8"?>
<svg version="1.1"
	 xmlns="http://www.w3.org/2000/svg" xmlns:xlink="http://www.w3.org/1999/xlink"
	 x="0px" y="0px" width="48px" height="48px" viewBox="0 0 48 48">
<defs>
</defs>
<path fill="#3588A6" d="M45,1.425H3c-0.58,0-1.05,0.47-1.05,1.05v9.45c0,0.581,0.47,1.05,1.05,1.05h28.449
	c0.002,0.001,0.002,0.003,0.003,0.004l3.175,3.175c0.292,0.292,0.767,0.292,1.059,0l3.175-3.175
	c0.001-0.001,0.001-0.003,0.003-0.004H45c0.58,0,1.05-0.47,1.05-1.05v-9.45C46.05,1.895,45.58,1.425,45,1.425z"/>
<path fill="#C8691C" d="M45,18.225H16.929c-0.001-0.001-0.001-0.003-0.002-0.004l-3.174-3.175c-0.292-0.292-0.766-0.292-1.059,0
	L9.52,18.221c-0.001,0.001-0.001,0.003-0.002,0.004H3c-0.58,0-1.05,0.47-1.05,1.05v9.45c0,0.581,0.47,1.051,1.05,1.051h42
	c0.58,0,1.05-0.47,1.05-1.051v-9.45C46.05,18.695,45.58,18.225,45,18.225z"/>
<path fill="#C8691C" d="M45,35.025H16.929c-0.001-0.001-0.001-0.004-0.002-0.005l-3.174-3.174c-0.292-0.294-0.766-0.294-1.059,0
	L9.52,35.021c-0.001,0.001-0.001,0.004-0.002,0.005H3c-0.58,0-1.05,0.469-1.05,1.05v9.45c0,0.58,0.47,1.05,1.05,1.05h42
	c0.58,0,1.05-0.47,1.05-1.05v-9.45C46.05,35.494,45.58,35.025,45,35.025z"/>
<path fill="#F79523" d="M16.927,35.021l-3.174-3.174c-0.292-0.294-0.766-0.294-1.059,0L9.52,35.021
	c-0.001,0.001-0.001,0.004-0.002,0.005H3c-0.58,0-1.05,0.469-1.05,1.05v9.45c0,0.58,0.47,1.05,1.05,1.05h38.2
	c0.249-1.803,0.388-3.642,0.388-5.513c0-2.053-0.156-4.068-0.456-6.037H16.929C16.928,35.024,16.928,35.021,16.927,35.021z"/>
<path fill="#F79523" d="M34.397,18.225H16.929c-0.001-0.001-0.001-0.003-0.002-0.004l-3.174-3.175c-0.292-0.292-0.766-0.292-1.059,0
	L9.52,18.221c-0.001,0.001-0.001,0.003-0.002,0.004H3c-0.58,0-1.05,0.47-1.05,1.05v9.45c0,0.581,0.47,1.051,1.05,1.051h36.957
	C38.728,25.599,36.834,21.709,34.397,18.225z"/>
<path fill="#52CAF5" d="M1.95,2.475v9.45c0,0.581,0.47,1.05,1.05,1.05h27.021C23.79,6.689,15.482,2.472,6.211,1.425H3
	C2.42,1.425,1.95,1.895,1.95,2.475z"/>
<path fill="#D1D3D4" d="M41.521,24.513c0.009,0.029,0.016,0.059,0.016,0.088c0,0.425-1.015,0.77-2.268,0.77s-2.268-0.345-2.268-0.77
	c0-0.03,0.005-0.06,0.017-0.088c-0.982,0.64-1.678,1.686-1.844,2.899h8.189C43.197,26.198,42.503,25.152,41.521,24.513z"/>
<ellipse fill="#D1D3D4" cx="39.269" cy="22.431" rx="1.967" ry="2.07"/>
<path fill="#D1D3D4" d="M38.67,25.343c-0.961-0.089-1.668-0.386-1.668-0.742c0-0.03,0.005-0.06,0.017-0.088
	c-0.982,0.64-1.678,1.686-1.844,2.899h4.739L38.67,25.343z"/>
<path fill="#D1D3D4" d="M41.521,41.313c0.009,0.029,0.016,0.059,0.016,0.088c0,0.426-1.015,0.771-2.268,0.771
	s-2.268-0.345-2.268-0.771c0-0.029,0.005-0.059,0.017-0.088c-0.982,0.64-1.678,1.686-1.844,2.9h8.189
	C43.197,42.998,42.503,41.952,41.521,41.313z"/>
<ellipse fill="#D1D3D4" cx="39.269" cy="39.231" rx="1.967" ry="2.069"/>
<path fill="#D1D3D4" d="M38.67,42.144c-0.961-0.09-1.668-0.387-1.668-0.743c0-0.029,0.005-0.059,0.017-0.088
	c-0.982,0.64-1.678,1.686-1.844,2.9h4.739L38.67,42.144z"/>
<path fill="#D1D3D4" d="M41.521,7.713c0.009,0.028,0.016,0.058,0.016,0.088c0,0.426-1.015,0.77-2.268,0.77s-2.268-0.344-2.268-0.77
	c0-0.03,0.005-0.06,0.017-0.088c-0.982,0.64-1.678,1.686-1.844,2.899h8.189C43.197,9.398,42.503,8.353,41.521,7.713z"/>
<ellipse fill="#D1D3D4" cx="39.269" cy="5.631" rx="1.967" ry="2.069"/>
<path fill="#D1D3D4" d="M38.67,8.543c-0.961-0.089-1.668-0.387-1.668-0.743c0-0.03,0.005-0.06,0.017-0.088
	c-0.982,0.64-1.678,1.686-1.844,2.899h4.739L38.67,8.543z"/>
</svg>
