<?xml version="1.0" encoding="utf-8"?>
<!-- Generator: Adobe Illustrator 15.0.0, SVG Export Plug-In  -->
<!DOCTYPE svg PUBLIC "-//W3C//DTD SVG 1.1//EN" "http://www.w3.org/Graphics/SVG/1.1/DTD/svg11.dtd" [
	<!ENTITY ns_flows "http://ns.adobe.com/Flows/1.0/">
]>
<svg version="1.1"
	 xmlns="http://www.w3.org/2000/svg" xmlns:xlink="http://www.w3.org/1999/xlink" xmlns:a="http://ns.adobe.com/AdobeSVGViewerExtensions/3.0/"
	 x="0px" y="0px" width="48px" height="48px" viewBox="0 0 48 48" enable-background="new 0 0 48 48" xml:space="preserve">
<defs>
</defs>
<rect opacity="0" fill="#FFFFFF" width="48" height="48"/>
<rect x="2.801" y="2.857" fill="#52CAF5" width="42.398" height="42.285"/>
<path fill="#419FC1" d="M2.801,5.423v39.516h25.687c0.248-1.692,0.379-3.423,0.379-5.183C28.866,23.39,17.833,9.608,2.801,5.423z"/>
<rect x="2.801" y="9.046" fill="#3588A6" width="42.398" height="29.835"/>
<rect x="4.229" y="40.154" fill="#FFFFFF" width="3.109" height="3.107"/>
<rect x="8.783" y="40.154" fill="#FFFFFF" width="3.108" height="3.107"/>
<rect x="13.337" y="40.154" fill="#FFFFFF" width="3.108" height="3.107"/>
<rect x="17.891" y="40.154" fill="#FFFFFF" width="3.108" height="3.107"/>
<rect x="22.445" y="40.154" fill="#FFFFFF" width="3.11" height="3.107"/>
<rect x="26.998" y="40.154" fill="#FFFFFF" width="3.109" height="3.107"/>
<rect x="31.553" y="40.154" fill="#FFFFFF" width="3.109" height="3.107"/>
<rect x="36.105" y="40.154" fill="#FFFFFF" width="3.109" height="3.107"/>
<rect x="40.66" y="40.154" fill="#FFFFFF" width="3.109" height="3.107"/>
<path fill="#276F88" d="M2.801,38.881h26.052c-0.22-12.642-7.012-23.682-17.114-29.835H2.801V38.881z"/>
<rect x="4.229" y="4.979" fill="#FFFFFF" width="3.109" height="3.108"/>
<rect x="8.783" y="4.979" fill="#FFFFFF" width="3.108" height="3.108"/>
<rect x="13.337" y="4.979" fill="#FFFFFF" width="3.108" height="3.108"/>
<rect x="17.891" y="4.979" fill="#FFFFFF" width="3.108" height="3.108"/>
<rect x="22.445" y="4.979" fill="#FFFFFF" width="3.11" height="3.108"/>
<rect x="26.998" y="4.979" fill="#FFFFFF" width="3.109" height="3.108"/>
<rect x="31.553" y="4.979" fill="#FFFFFF" width="3.109" height="3.108"/>
<rect x="36.105" y="4.979" fill="#FFFFFF" width="3.109" height="3.108"/>
<rect x="40.66" y="4.979" fill="#FFFFFF" width="3.109" height="3.108"/>
<circle fill="#FCB51E" cx="25.698" cy="23.57" r="9.893"/>
<polygon fill="#FFFFFF" points="30.507,23.57 23.401,29.421 23.401,17.721 "/>
<path fill="#F79523" d="M19.735,15.69c-2.383,1.806-3.93,4.659-3.93,7.88c0,5.466,4.429,9.893,9.892,9.893
	c0.897,0,1.762-0.128,2.588-0.353C27.082,26.484,24.056,20.496,19.735,15.69z"/>
<path fill="#E6E7E8" d="M23.401,20.548v8.873l3.138-2.584C25.698,24.627,24.645,22.523,23.401,20.548z"/>
</svg>
