<?xml version="1.0" encoding="utf-8"?>
<svg version="1.1"
	 xmlns="http://www.w3.org/2000/svg" xmlns:xlink="http://www.w3.org/1999/xlink"
	 x="0px" y="0px" width="48px" height="48px" viewBox="0 0 48 48">
<defs>
</defs>
<polygon fill="#3588A6" points="14.41,9.725 12.617,9.725 12.617,4.417 14.477,4.417 14.477,6.209 15.996,6.209 15.996,4.417 
	17.788,4.417 17.788,9.725 15.996,9.725 15.996,7.916 14.41,7.916 "/>
<polygon fill="#3588A6" points="23.403,4.417 18.641,4.417 18.641,6.175 20.144,6.175 20.144,9.725 21.901,9.725 21.901,6.175 
	23.403,6.175 "/>
<polygon fill="#3588A6" points="32.84,7.967 32.84,4.417 31.082,4.417 31.082,9.725 31.082,9.725 32.84,9.725 35.383,9.725 
	35.383,7.967 "/>
<polygon fill="#3588A6" points="25.996,9.725 24.239,9.725 24.239,4.417 26.116,4.417 27.242,6.175 28.335,4.417 30.229,4.417 
	30.229,9.725 28.437,9.725 28.437,7.293 27.234,8.974 25.996,7.293 "/>
<polygon fill="#C8691C" points="10.052,12.046 37.948,12.046 35.4,40.533 24.091,43.583 12.646,40.533 "/>
<polygon fill="#F79523" points="24.091,14.321 35.445,14.321 33.262,38.713 24.091,41.216 "/>
<polygon fill="#EBEBEB" points="32.897,17.825 15.266,17.825 16.287,28.383 28.301,28.383 27.937,32.843 24.081,34.116 
	20.155,32.888 19.927,30.112 16.423,30.112 16.969,35.665 24,37.758 31.214,35.619 32.215,24.97 19.518,24.97 19.108,21.375 
	32.396,21.375 "/>
</svg>
