<?xml version="1.0" encoding="utf-8"?>
<!-- Generator: Adobe Illustrator 15.0.0, SVG Export Plug-In  -->
<!DOCTYPE svg PUBLIC "-//W3C//DTD SVG 1.1//EN" "http://www.w3.org/Graphics/SVG/1.1/DTD/svg11.dtd" [
	<!ENTITY ns_flows "http://ns.adobe.com/Flows/1.0/">
]>
<svg version="1.1"
	 xmlns="http://www.w3.org/2000/svg" xmlns:xlink="http://www.w3.org/1999/xlink" xmlns:a="http://ns.adobe.com/AdobeSVGViewerExtensions/3.0/"
	 x="0px" y="0px" width="150px" height="160px" viewBox="-24.736 -9.432 150 160" enable-background="new -24.736 -9.432 150 160"
	 xml:space="preserve">
<defs>
</defs>
<polygon fill="#3588A6" points="15.703,19.125 9.246,19.125 9.246,0 15.948,0 15.948,6.457 21.42,6.457 21.42,0 27.878,0 
	27.878,19.125 21.42,19.125 21.42,12.607 15.703,12.607 "/>
<polygon fill="#3588A6" points="48.111,0 30.953,0 30.953,6.333 36.365,6.333 36.365,19.125 42.7,19.125 42.7,6.333 48.111,6.333 
	"/>
<polygon fill="#3588A6" points="82.118,12.79 82.118,0 75.785,0 75.785,19.125 75.785,19.125 82.118,19.125 91.281,19.125 
	91.281,12.79 "/>
<polygon fill="#3588A6" points="57.457,19.125 51.124,19.125 51.124,0 57.89,0 61.946,6.333 65.885,0 72.711,0 72.711,19.125 
	66.252,19.125 66.252,10.363 61.917,16.419 57.457,10.363 "/>
<polygon fill="#C8691C" points="0,27.49 100.527,27.49 91.345,130.148 50.591,141.136 9.349,130.148 "/>
<polygon fill="#F79523" points="50.591,35.689 91.508,35.689 83.638,123.587 50.591,132.607 "/>
<polygon fill="#EBEBEB" points="82.325,48.315 18.788,48.315 22.468,86.359 65.76,86.359 64.447,102.433 50.555,107.023 
	36.406,102.595 35.585,92.593 22.96,92.593 24.928,112.601 50.264,120.144 76.258,112.435 79.863,74.062 34.112,74.062 
	32.633,61.107 80.522,61.107 "/>
</svg>
