<?xml version="1.0" encoding="utf-8"?>
<svg version="1.1"
	 xmlns="http://www.w3.org/2000/svg" xmlns:xlink="http://www.w3.org/1999/xlink"
	 x="0px" y="0px" width="48px" height="48px" viewBox="0 0 48 48">
<defs>
</defs>
<path fill="#F79523" d="M39.584,18.485c0.076-0.511,0.116-1.033,0.116-1.563c0-5.879-4.767-10.643-10.644-10.643
	c-4.379,0-8.14,2.646-9.773,6.424c-1.201-1.149-2.826-1.857-4.62-1.857c-3.688,0-6.678,2.99-6.678,6.678
	c0,0.376,0.033,0.745,0.092,1.104c-3.243,1.445-5.505,4.695-5.505,8.475c0,5.122,4.154,9.275,9.277,9.275h6.124v-3.447H15.88
	c-2.021,0-2.747-1.112-2.965-1.59c-0.209-0.458-0.567-1.675,0.634-3.062l7.351-8.489c0.736-0.85,1.779-1.338,2.862-1.338
	c1.083,0,2.126,0.488,2.863,1.338l7.351,8.489c1.201,1.387,0.845,2.604,0.633,3.062c-0.217,0.478-0.944,1.59-2.964,1.59H29.55v3.447
	h7.268v-0.025c4.811-0.341,8.61-4.352,8.61-9.25C45.428,23.193,43.008,19.85,39.584,18.485z"/>
<path fill="#52CAF5" d="M32.672,29.406l-7.352-8.488c-0.857-0.99-2.261-0.99-3.118,0l-7.351,8.488
	c-0.858,0.991-0.395,1.802,1.028,1.802h3.816v6.449c0,2.244,1.82,4.063,4.065,4.063c2.246,0,4.066-1.819,4.066-4.063v-6.449h3.816
	C33.066,31.208,33.53,30.397,32.672,29.406z"/>
<path fill="#3588A6" d="M25.32,20.918c-0.857-0.99-2.261-0.99-3.118,0l-7.351,8.488c-0.858,0.991-0.395,1.802,1.028,1.802h3.816
	v6.449c0,0.569,0.119,1.109,0.33,1.601c3.642-4.815,5.946-10.69,6.383-17.082L25.32,20.918z"/>
<path fill="#C8691C" d="M24.001,7.561c-2.093,1.134-3.767,2.944-4.718,5.142c-1.201-1.149-2.826-1.857-4.62-1.857
	c-3.688,0-6.678,2.99-6.678,6.678c0,0.376,0.033,0.745,0.092,1.104c-3.243,1.445-5.505,4.695-5.505,8.475
	c0,5.122,4.154,9.275,9.277,9.275h6.124v-3.447H15.88c-2.021,0-2.747-1.112-2.965-1.59c-0.209-0.458-0.567-1.675,0.634-3.062
	l7.351-8.489c0.736-0.85,1.779-1.338,2.862-1.338c1.022,0,1.999,0.446,2.724,1.209C26.446,15.375,25.568,11.288,24.001,7.561z"/>
</svg>
