<?xml version="1.0" encoding="utf-8"?>
<svg version="1.1"
	 xmlns="http://www.w3.org/2000/svg" xmlns:xlink="http://www.w3.org/1999/xlink"
	 x="0px" y="0px" width="48px" height="48px" viewBox="-1.358 -1.467 48 48">
<defs>
</defs>
<path fill-rule="evenodd" clip-rule="evenodd" fill="#F89524" d="M40.033,32.549c-0.09,0-0.271-0.09-0.36-0.09
	c0.271-1.172,1.082-2.795,2.073-3.877C41.296,29.844,40.755,31.197,40.033,32.549z M3.336,23.353
	c0.181,0.36,0.631,0.721,0.902,1.172c0.271,0.36,0.271,0.901,0.541,1.353c0,0.09,0.271,0,0.361,0.181
	c0.271,0.18,0.451,0.721,0.721,0.721c0.18,0,0.271-0.09,0.451-0.18c0.09,0.451,0.271,1.172,0.271,1.442
	c0,0.181-0.271,1.082-0.271,1.353c0,0.18,0.09,1.263,0.541,1.804c0.812,1.081,1.713,2.073,2.795,3.065
	c0.27,0.271,0.811,0.36,1.262,0.721c0.631,0.722,1.082,1.623,1.713,2.435c0.631,0.901,1.984,2.435,3.066,3.156
	c0.541,0.45,1.172,0.901,1.713,1.262c-4.238-0.721-11-6.041-12.713-10.82c-0.18-0.54-0.541-1.172-0.721-1.803
	c-0.181-0.722-0.451-1.623-0.631-2.254c-0.09-0.812-0.36-2.255-0.36-2.435v-1.172H3.336z M41.656,23.263v-0.271V23.263z
	 M5.861,22.18c0,0.09,0.271,0.09,0.271,0.181c0.18,0.451,0.541,0.541,0.721,0.541c0.09,0,0.451-0.18,0.631-0.45
	c0.812,0.18,1.713,0.18,2.615,0.271c0.18,0,0.36,0.18,0.451,0.271c0.09,0.09,0,0.54,0.271,0.811v1.263
	c-0.451-0.181-1.082-0.09-1.442-0.271c-0.181,0-0.451-0.271-0.631-0.541H8.205c-0.451,0-1.443,0.181-1.533,1.082
	c-0.361-0.181-0.09-0.271-0.902-0.09v-1.983c-0.36-0.361-0.541-0.722-0.902-0.632V22.27c0.09-0.27,0.271-0.631,0.361-0.901
	C5.32,21.639,5.5,21.909,5.861,22.18z M37.869,16.86c0.271,0,0.361-0.36,0.361-0.451h0.45c0.091,0.271,0.361,0.541,0.812,0.451
	v0.541c0-0.271-0.36-0.09-0.541-0.09c-0.09,0.09-0.09,0.181-0.361,0.181c-0.18,0-1.172-0.361-1.352-0.361
	c-0.271,0-0.631-0.09-0.722,0.451c-0.541-0.271-1.172-0.451-1.713-0.722c0.091,0.09,0,0.09,0.18,0.09
	c0.722,0,0.361-0.991,0.902-1.622C36.517,15.869,36.968,16.86,37.869,16.86z M33.451,15.508c0.631,0,0.451-0.721,0.541-0.812
	c0.181,0.181,0.451,0.271,0.721,0.451c-0.089,0-0.27-0.09-0.54,0c-0.091,0.181,0,0.36,0,0.541c-0.902,0-1.894,0.09-2.795,0.271
	c0.18-0.181,0.36-0.36,0.36-0.541c0-0.271-0.09-0.271-0.181-0.451c0.091-0.09,0.451-0.271,0.722-0.631c0.181,0,0.45,0,0.631-0.09
	C33,14.426,32.82,15.508,33.451,15.508z M38.14,13.795c0.181,0,0.091-0.181,0.271-0.181c0.271,0,0.361,0.181,0.451,0.271
	c-0.271,0-0.631,0.09-0.992,0.27l-0.181-0.18v-0.541C37.779,13.524,37.869,13.795,38.14,13.795z M15.328,11.812
	c-0.451,0.451-0.631,0.36-0.992,0.721c0-0.27,0.36-0.45,0.451-0.721H15.328z M34.082,10.008c-0.18,0-0.45,0.091-0.721,0.181
	c0.09-0.451,0.09-0.722,0.18-0.901C33.722,9.377,33.902,9.828,34.082,10.008z M16.681,8.565c0,0-0.181,0-0.181,0.09V8.385
	C16.59,8.476,16.681,8.476,16.681,8.565z M16.229,8.114c-0.09-0.09-0.18-0.18-0.09-0.18C16.229,7.935,16.229,8.024,16.229,8.114z
	 M14.697,8.114c-0.18,0.271-0.541,0.361-0.721,0.541c-0.271,0.181-0.361,0.541-0.541,0.722c-0.271,0.181-0.631,0.271-0.901,0.451
	c-0.181-0.271-0.361-0.632-0.361-0.812c0-0.271,1.713-1.172,1.983-1.172C14.336,7.845,14.517,8.114,14.697,8.114z M15.599,7.664
	c0-0.091,0-0.271,0.09-0.271C15.779,7.394,15.599,7.573,15.599,7.664z M27.32,7.935c0,0.271-1.082,0.631-1.172,0.631
	c-0.451,0-1.082-0.541-1.173-0.992c0.181-0.271,0.812-0.271,1.082-0.271C26.238,7.303,27.32,7.123,27.32,7.935z M16.5,7.032
	c0.09-0.09,0.181-0.18,0.271-0.18C16.681,6.942,16.59,7.032,16.5,7.032z M30.386,5.229c0,0.181-0.271,0.45-0.541,0.45
	c-0.181,0-0.902-0.45-1.353-0.721V4.418c0.36,0.45,0.722,0,1.082,0C29.845,4.418,30.386,5.049,30.386,5.229z M33.541,6.312
	c0,0.09,0.271,0.18,0.451,0.271c0,0-0.09,0.09-0.09,0.18c-0.361-0.271-1.984-0.541-1.984-0.541c-0.45,0-0.812-0.09-1.081,0.812
	c-0.091,0.181,0,0.541-0.091,0.813c-0.09,0.27-0.45,0.54-0.45,0.811c0,0.181,0.631,1.173,1.082,1.353l0.271,0.541
	c-0.181,0.09-0.451,0.36-0.632,0.451c-0.541-0.632-0.631-0.722-1.082-1.353c-0.09-0.271-0.631-0.541-0.811-0.541
	c-0.541,0-0.541,0.631-0.451,0.992c-0.181,0-0.813,0.09-0.813,0.631c0,0.18,0.091,0.451,0.091,0.631c0,0.271,0.09,0.451,0.36,0.451
	c0.181,0,0.541-0.09,0.813-0.271c-0.182,0.722,0.18,0.451,0.27,1.172c0.271,0.271,0.541,0.271,0.812,0.451v0.271
	c-0.45,0.09-1.353-0.541-1.713,0.36v1.623c0.181,0.271,0.36,1.172,0.992,0.902c-0.271,0.27-0.812,0.63-1.082,1.081
	c-0.091,0.091-0.091,0.451-0.181,0.631c-0.361,0.361-0.992,0.541-1.263,0.992c-0.541,0.722-1.172,2.254-1.172,2.435
	c0,0.271,0.271,0.992,0.271,1.172c0,0.271-0.541,0.992-0.541,1.263c0,0.18,0.09,0.18,0.181,0.45c0.09,0.091,0,0.36,0.09,0.541
	c0.271,0.451,0.631,0.902,0.991,1.353c0.271,0.271,1.805,1.533,2.164,1.533c0.271,0,1.984-0.181,2.886-0.36
	c0.271-0.091,0.541-0.091,0.812-0.181c0,0.541,0.541,0.631,1.172,0.631c0,0.091,0.091,0.091,0.091,0.361
	c0,0.18-0.181,0.45-0.271,0.631c-0.091-0.451-0.361-0.631-0.541-0.631c-0.361,0-0.631,0.27-0.631,0.54
	c0,0.451,0.27,0.632,0.54,0.632c0.181,0,0.271-0.091,0.451-0.181c0.181,0.631,0.631,1.803,0.631,1.984c0,0.27-0.09,1.081-0.36,1.532
	c-0.36,0.541-1.082,0.901-1.082,1.713c0,0.271,0.09,0.541,0,0.812c-0.18,0.722-0.45,1.532-0.722,2.345
	c-0.18,0.45-0.54,0.991-0.721,1.442c0.09,0.09,0.181,0.18,0.451,0.18c0.812,0,2.614-0.991,3.335-1.622
	c0.181-0.181,0.452-0.541,0.722-0.722c0.632-0.45,0.812-0.541,1.172-0.992c0.091-0.09,0.091-0.36,0.271-0.45
	c0.181-0.271,0.632-0.541,0.992-0.812c-0.18,0.36-0.722,0.721-0.901,1.082c-0.091,0.18-0.181,0.722-0.451,0.992
	c-1.983,2.344-5.771,4.237-7.573,4.778c-0.992,0.271-1.804,0.541-2.705,0.722c-1.263,0.27-2.615,0.36-3.787,0.36
	c-0.181,0-1.713,0-2.615-0.181c0.18-0.09,0.271-0.09,0.271-0.271c0-0.271-0.451-0.541-0.631-0.541c-0.271,0-0.361,0.181-0.361,0.36
	c-0.271-0.18-1.713-1.442-1.713-1.803c0-0.181,0.09-0.181,0.09-0.271c0.09-0.181,0-0.451,0-0.722c0-0.181,0.451-1.262,0.451-1.442
	c0-0.271-0.271-0.631-0.361-0.902c0.541-0.271,1.713-0.901,1.443-1.622c0.09-0.271,0.18-0.541,0.18-0.812
	c0-0.181-0.271-0.722-0.271-0.991c0,0,1.082-1.443,1.082-1.714s0-0.812-0.271-0.991c-0.451-0.542-1.262-0.813-1.984-1.083
	c-0.631-0.271-1.623,0-2.344-0.812c-0.271-0.36-0.721-0.901-1.172-1.352c-0.361-0.36-0.812-0.541-1.262-0.812
	c-0.09,0-1.082,0-1.082-0.451c0-0.181,0.271-0.631,0.361-0.901c-0.271-0.451-0.542-0.271-0.812-0.271v-1.623
	c0-0.901-0.812-1.714-1.804-1.443c-0.451-0.271-0.992-0.271-1.533-0.541c0-0.36-0.18-0.812-0.361-0.812
	c-0.27,0-0.27,0.181-0.36,0.361c-0.451-0.271-1.353-0.992-1.533-0.992c-0.271,0-0.451,0-0.541,0.091
	c-0.271,0.09-0.271,0.36-0.451,0.45c-0.271,0.181-0.722,0.09-0.992,0.271s-0.271,0.541-0.451,0.812c0-0.181-0.18-0.36-0.18-0.631
	c0-0.722,0.721-2.254,1.172-2.795c0.271,0.09,0.541,0.45,0.722,0.45c0.271,0,0.36-0.27,0.451-0.45c0.09,0,0.271,0.09,0.36,0.09
	c-0.09,0.451-0.09,0.992-0.09,1.442c0.36,0.271,0.812,0.541,1.082,0.541c0.36,0,0.451-0.09,0.451-0.45c0-0.091,0-0.632-0.451-0.541
	c0.09-0.271,0.18-0.541,0.18-0.812c-0.09-1.533,2.164-1.533,2.254-2.795c0.27-0.091,0.901-0.722,1.172-0.992
	c1.623,0,0.721-0.992,1.894-0.992c0.271,0,0.18,0.271,0.451,0.271c0.18,0,1.443-0.542,2.074-0.902c0.09-0.09,0.09-0.271,0.09-0.451
	c0.361,0.091,0.812,0.361,1.082,0.361c0.361,0,0.992-0.271,0.992-0.631c0-0.271-0.18-0.451-0.18-0.632c0-0.271,0.18-0.18,0.18-0.271
	c0.09-0.18,0.18-0.451,0.18-0.722c0-0.18-0.271-0.271-0.451-0.271c0.09-1.081,0.09-1.622,0.09-1.803c0-0.271,0.541-0.36,0.901-0.631
	c0,0,1.082-0.271,1.082-0.722c0-0.271-0.271-0.271-0.271-0.541c0-0.181,0.18-0.09,0.18-0.271c0-0.271-0.27-0.451-0.36-0.631
	c0.271-0.271,0.721-0.541,1.172-0.631c-0.181,0.45,0.541,0.631,0.811,0.54v0.902c-0.18,0-0.541,0.18-0.631,0.36
	c-0.18,0.271-0.271,0.812-0.271,1.082c0,0.181,0,0.541,0.18,0.812c0.09,0.181,0.451,0.181,0.631,0.36
	c0.09,0.091,0.09,0.091,0.271,0.091c0.541,0,0.812-0.722,1.533-1.173c0.18-0.18,0.541-0.18,0.812-0.27
	c0.271-0.091,0.451-0.361,0.812-0.451c0.45-0.181,1.353-0.091,1.803-0.541c0.271-0.361,0.451-1.173,0.451-1.353
	c0-0.271-0.09-0.271-0.18-0.451c0.09-0.09,0.36-0.181,0.54-0.451c-0.09-0.09-0.18-0.27-0.271-0.36c-0.18-0.09-0.541-0.09-0.631-0.18
	c-0.271-0.091-0.36-0.361-0.541-0.451c-0.36-0.181-0.901-0.091-1.172-0.091c-0.181,0-0.901,0-1.353,0.091
	c-0.271,0-0.361,0.36-0.541,0.36c-0.271,0-1.172-0.812-1.443-0.812c-0.271,0-1.353,0.902-1.442,0.992
	c-0.09-0.09-0.09-0.181-0.361-0.181s-0.631,0.451-0.902,0.722c0-0.091,0-0.181,0.09-0.271c-0.09-0.09-0.09-0.271-0.36-0.271
	c-0.181,0-0.271,0.36-0.451,0.36c-0.271,0-0.271-0.18-0.451-0.18c-0.721,0-1.713,0.27-2.074,0.45c-0.09,0.09-0.36,0.09-0.631,0.181
	c-0.361,0.09-0.721,0.36-1.172,0.631c3.246-1.983,6.401-2.614,9.738-2.614C26.778,2.976,30.837,4.058,33.541,6.312z M45.533,22.722
	c0,12.803-10.279,22.812-22.812,22.812c-8.205,0-17.492-4.238-21.64-15.509c0-0.09-1.082-4.418-1.082-5.32v-3.877
	C1.713,6.762,12.533,0,22.722,0C35.525,0,45.533,10.188,45.533,22.722z"/>
<path fill="#C8691C" d="M26.703,7.308c0.202,0.169,0.399,0.344,0.598,0.518C27.249,7.486,26.985,7.351,26.703,7.308z"/>
<path fill="#C8691C" d="M25.787,4.058c-0.271-0.091-0.36-0.361-0.541-0.451c-0.36-0.181-0.901-0.091-1.172-0.091
	c-0.181,0-0.901,0-1.353,0.091c-0.271,0-0.361,0.36-0.541,0.36c-0.271,0-1.172-0.812-1.443-0.812c-0.05,0-0.132,0.037-0.226,0.088
	c1.937,0.978,3.761,2.143,5.451,3.472c0.223-0.398,0.365-1.056,0.365-1.215c0-0.271-0.09-0.271-0.18-0.451
	c0.09-0.09,0.36-0.181,0.54-0.451c-0.09-0.09-0.18-0.27-0.271-0.36C26.238,4.147,25.877,4.147,25.787,4.058z"/>
<path fill="#C8691C" d="M22.722,0c-2.445,0-4.925,0.4-7.309,1.187c1.676,0.513,3.293,1.16,4.842,1.924
	c0.814-0.09,1.634-0.136,2.466-0.136c4.057,0,8.115,1.082,10.819,3.336c0,0.09,0.271,0.18,0.451,0.271c0,0-0.09,0.09-0.09,0.18
	c-0.361-0.271-1.984-0.541-1.984-0.541c-0.45,0-0.812-0.09-1.081,0.812c-0.091,0.181,0,0.541-0.091,0.813
	c-0.09,0.27-0.45,0.54-0.45,0.811c0,0.181,0.631,1.173,1.082,1.353l0.271,0.541c-0.181,0.09-0.451,0.36-0.632,0.451
	c-0.541-0.632-0.631-0.722-1.082-1.353c-0.09-0.271-0.631-0.541-0.811-0.541c-0.142,0-0.244,0.044-0.319,0.114
	c1.874,1.863,3.522,3.952,4.899,6.225c0.317-0.173,0.214-0.674,0.288-0.749c0.181,0.181,0.451,0.271,0.721,0.451
	c-0.089,0-0.27-0.09-0.54,0c-0.091,0.181,0,0.36,0,0.541c-0.104,0-0.215,0.013-0.32,0.016c2.88,4.852,4.539,10.512,4.539,16.563
	c0,2.742-0.344,5.404-0.983,7.948c4.958-4.15,8.125-10.39,8.125-17.493C45.533,10.188,35.525,0,22.722,0z M33.361,10.188
	c0.09-0.451,0.09-0.722,0.18-0.901c0.181,0.09,0.361,0.541,0.541,0.721C33.902,10.008,33.632,10.099,33.361,10.188z M37.688,13.435
	c0.091,0.09,0.181,0.36,0.451,0.36c0.181,0,0.091-0.181,0.271-0.181c0.271,0,0.361,0.181,0.451,0.271
	c-0.271,0-0.631,0.09-0.992,0.27l-0.181-0.18V13.435z M39.492,17.401c0-0.271-0.36-0.09-0.541-0.09
	c-0.09,0.09-0.09,0.181-0.361,0.181c-0.18,0-1.172-0.361-1.352-0.361c-0.271,0-0.631-0.09-0.722,0.451
	c-0.477-0.238-1.017-0.415-1.511-0.636c-0.009,0-0.014,0.004-0.022,0.004c-0.18,0-0.089,0-0.18-0.09
	c0.064,0.032,0.137,0.056,0.202,0.085c0.686-0.025,0.346-0.995,0.88-1.618c0.631,0.541,1.082,1.532,1.983,1.532
	c0.271,0,0.361-0.36,0.361-0.451h0.45c0.091,0.271,0.361,0.541,0.812,0.451V17.401z M39.673,32.459
	c0.271-1.172,1.082-2.795,2.073-3.877c-0.45,1.262-0.991,2.615-1.713,3.967C39.943,32.549,39.763,32.459,39.673,32.459z"/>
<path fill="#C8691C" d="M30.386,5.229c0-0.181-0.541-0.812-0.812-0.812c-0.36,0-0.722,0.45-1.082,0v0.541
	c0.45,0.271,1.172,0.721,1.353,0.721C30.115,5.68,30.386,5.41,30.386,5.229z"/>
</svg>
