<?xml version="1.0" encoding="utf-8"?>
<!-- Generator: Adobe Illustrator 15.0.0, SVG Export Plug-In  -->
<!DOCTYPE svg PUBLIC "-//W3C//DTD SVG 1.1//EN" "http://www.w3.org/Graphics/SVG/1.1/DTD/svg11.dtd" [
	<!ENTITY ns_flows "http://ns.adobe.com/Flows/1.0/">
]>
<svg version="1.1"
	 xmlns="http://www.w3.org/2000/svg" xmlns:xlink="http://www.w3.org/1999/xlink" xmlns:a="http://ns.adobe.com/AdobeSVGViewerExtensions/3.0/"
	 x="0px" y="0px" width="48px" height="48px" viewBox="-7.199 -2.475 48 48"
	 xml:space="preserve">
<path d="M29.98,0H2.831C1.268,0,0,0.417,0,2.438v3.91h32.813v-3.91C32.813,0.417,31.546,0,29.98,0z M19.491,4.564H3.335
	c-0.679,0-1.229-0.621-1.229-1.391c0-0.766,0.55-1.387,1.229-1.387h16.156c0.674,0,1.228,0.621,1.228,1.387
	C20.719,3.943,20.165,4.564,19.491,4.564z M29.682,4.058c-0.537,0-0.979-0.437-0.979-0.978c0-0.542,0.439-0.979,0.979-0.979
	S30.66,2.538,30.66,3.08C30.66,3.621,30.221,4.058,29.682,4.058z"/>
<path d="M17.689,9.39h13.718v11.791h-7.753l1.174,2.039h6.404v6.803h-2.485l1.079,1.873h1.406v2.441l1.58,2.744V7.656H14.868
	C15.885,8.212,16.884,8.808,17.689,9.39z"/>
<path d="M25.254,37.335h-12.26v-5.439h9.097l-1.089-1.873h-8.008V23.22h4.05l-1.186-2.039H1.58V9.39h9.316
	c0.019-0.587,0.005-1.172-0.072-1.734H0v32.177c0,2.016,1.268,2.438,2.831,2.438h25.295L25.254,37.335z M11.412,37.507H1.58v-14.51
	h9.832V37.507z"/>
<path d="M33.602,41.019L19.863,17.341c-0.564-1.016-1.844-1.39-2.859-0.824c-1.02,0.562-1.391,1.845-0.829,2.862L29.911,43.05
	L33.602,41.019z"/>
<path d="M17.479,21.824c0,0,0.377-1.104,1.396-1.585c1.017-0.476,2.563-0.271,2.563-0.271l-2.377-4.447c0,0-1.436-0.245-2.375,0.264
	c-0.94,0.505-1.481,1.995-1.481,1.995L17.479,21.824z"/>
<path d="M15.203,17.781c0,0-2.993-2.315-3.357-4.46c-0.36-2.146,1.241-4.735-0.471-6.558c0,0,3.835,2.35,5.957,3.968
	c2.123,1.625,1.729,4.791,1.729,4.791s-0.945,0.352-1.811,0.895C16.514,16.875,15.203,17.781,15.203,17.781z"/>
</svg>
