<?xml version="1.0" encoding="utf-8"?>
<!-- Generator: Adobe Illustrator 15.0.0, SVG Export Plug-In  -->
<!DOCTYPE svg PUBLIC "-//W3C//DTD SVG 1.1//EN" "http://www.w3.org/Graphics/SVG/1.1/DTD/svg11.dtd" [
	<!ENTITY ns_flows "http://ns.adobe.com/Flows/1.0/">
]>
<svg version="1.1"
	 xmlns="http://www.w3.org/2000/svg" xmlns:xlink="http://www.w3.org/1999/xlink" xmlns:a="http://ns.adobe.com/AdobeSVGViewerExtensions/3.0/"
	 x="0px" y="0px" width="48px" height="48px" viewBox="-2.745 -6.357 48 48"
	 xml:space="preserve">
<defs>
</defs>
<path d="M15.625,8.281l2.377,1.751l8.762-4.481l2.425,4.85l-2.365,1.451l-1.366-2.279l-3.721,1.79l1.622,2.616l0.25,0.184
	l-0.12,0.025l0.906,1.462l-2.735,1.824l-1.595-2.579l-3.436,0.71l1.397,1.102l0.595-0.298l0.801,1.398l1.901,1.499l6.87-3.808
	l4.252,6.836l-4.453,2.229l3.183,2.509c1.1-0.352,2.337-0.216,3.35,0.445h6.74c1.661-1.663,1.662-4.356,0-6.021L26.685,1.247
	c-1.662-1.662-4.355-1.662-6.018,0l-5.044,7.007L15.625,8.281z"/>
<polygon points="27.28,18.992 23.619,21.116 25.813,22.846 28.649,21.271 "/>
<path d="M13.293,18.553l-1.029,6.609l-5.301-4.878L6.09,21.496c-1.662,1.664-1.662,4.358,0,6.021h18.575L13.293,18.553z"/>
<path d="M37.017,32.396l-4.236-3.339c-0.437-0.347-1.004-0.429-1.5-0.269L13.565,14.823l6.315-1.306l-5.805-4.277l-0.541-7.16
	L8.042,6.866L0.917,5.083l2.804,6.809L0,18.154l7.248-0.669l4.382,4.032l0.822-5.279l17.715,13.963
	c-0.041,0.521,0.17,1.049,0.609,1.396l4.235,3.341c0.7,0.555,1.72,0.432,2.271-0.271C37.838,33.966,37.716,32.949,37.017,32.396z"/>
</svg>
