<?xml version="1.0" encoding="utf-8"?>
<!DOCTYPE svg PUBLIC "-//W3C//DTD SVG 1.1//EN" "http://www.w3.org/Graphics/SVG/1.1/DTD/svg11.dtd" [
	<!ENTITY ns_flows "http://ns.adobe.com/Flows/1.0/">
]>
<svg version="1.1"
	 xmlns="http://www.w3.org/2000/svg"
	 x="0px" y="0px" width="48px" height="48px" viewBox="-1.285 -3.114 48 48">
<defs>
</defs>
<path d="M13.883,20.293c0.271-0.016,0.555-0.033,0.865-0.051c0.203-0.029,0.412-0.061,0.626-0.095
	C14.824,20.209,14.325,20.257,13.883,20.293z"/>
<path d="M31.609,25.303v4.072H13.151v-6.886h7.003l2.549-1.792h-5.904l16.402-5.928L33.21,3.7c0-2.045-1.283-3.7-2.867-3.7H2.865
	C1.284,0,0,1.655,0,3.7v35.603c0,2.041,1.284,2.469,2.865,2.469h27.478c1.584,0,2.867-0.428,2.867-2.469V23.784L31.609,25.303z
	 M30.039,2.127c0.546-0.001,0.99,0.442,0.99,0.99c0,0.548-0.444,0.99-0.99,0.99c-0.543,0-0.989-0.442-0.989-0.99
	C29.05,2.569,29.496,2.127,30.039,2.127z M3.375,1.808h16.352c0.682,0,1.243,0.628,1.243,1.403c0,0.778-0.561,1.407-1.243,1.407
	H3.375c-0.686,0-1.244-0.629-1.244-1.407C2.131,2.436,2.689,1.808,3.375,1.808z M11.552,36.95H1.6V22.263h9.952V36.95z M1.6,20.425
	V8.492h30.187v5.589l-19.978,6.344H1.6z M31.609,36.775H13.151v-5.504h18.458V36.775z"/>
<path d="M43.957,18.871c-0.551-0.334-1.163-0.476-1.761-0.441c0.002,0,0.004-0.002,0.004-0.002s-1.869,0.126-3.181,0.394
	c-1.227,0.25-2.274,0.143-3.319-0.473c-0.049-0.029-0.098-0.052-0.146-0.079c0.038-0.061,0.078-0.119,0.116-0.181
	c0.63-1.036,1.504-1.624,2.703-1.983c0.679-0.204,1.518-0.449,2.161-0.634c0.334-0.039,0.658-0.132,0.962-0.278
	c0.017-0.004,0.023-0.007,0.023-0.007s-0.004,0-0.006-0.001c0.512-0.249,0.962-0.64,1.28-1.163c0.877-1.446,0.418-3.332-1.029-4.212
	c-1.444-0.879-3.332-0.42-4.211,1.026c-0.486,0.802-0.559,1.736-0.286,2.561c-0.01,0-0.018-0.001-0.018-0.001
	s0.016,0.024,0.038,0.062c0.041,0.118,0.095,0.235,0.152,0.348c0.105,0.335,0.15,0.824-0.217,1.28
	c-0.247,0.305-1.021,0.675-1.021,0.675S33.16,17.5,33.138,17.52c-0.044,0.032-0.102,0.072-0.149,0.105l-5.924,1.66
	c1.041,0.115,2.075,0.231,3.039,0.34c-3.888,2.68-9.234,6.334-9.234,6.334s1.599,1.133,3.533,0.412
	c1.78-0.658,8.57-5.519,9.643-6.289c0.436,0.053,0.722,0.092,0.805,0.109c1.444,0.302,2.699-0.327,3.638,0.07
	c0.94,0.397,0.729,1.41,0.729,1.41s0.032-0.009,0.086-0.027c0.052,0.979,0.569,1.916,1.47,2.465
	c1.445,0.879,3.331,0.419,4.211-1.026C45.862,21.636,45.404,19.751,43.957,18.871z M38.602,11.475
	c0.528-0.869,1.66-1.144,2.527-0.616c0.868,0.527,1.145,1.658,0.617,2.527c-0.528,0.869-1.658,1.144-2.527,0.616
	C38.353,13.475,38.075,12.344,38.602,11.475z M33.362,19.72c-0.424-0.032-0.74-0.401-0.708-0.824c0.031-0.423,0.4-0.74,0.824-0.708
	c0.422,0.032,0.739,0.401,0.707,0.824C34.153,19.435,33.785,19.751,33.362,19.72z M43.937,22.444
	c-0.528,0.867-1.66,1.145-2.526,0.617c-0.869-0.529-1.146-1.66-0.616-2.529c0.527-0.866,1.658-1.143,2.527-0.615
	C44.188,20.445,44.465,21.577,43.937,22.444z"/>
</svg>
