<?xml version="1.0" encoding="utf-8"?>
<!DOCTYPE svg PUBLIC "-//W3C//DTD SVG 1.1//EN" "http://www.w3.org/Graphics/SVG/1.1/DTD/svg11.dtd" [
	<!ENTITY ns_flows "http://ns.adobe.com/Flows/1.0/">
]>
<svg version="1.1"
	 xmlns="http://www.w3.org/2000/svg" x="0px" y="0px" width="48px" height="48px" viewBox="-3.629 -2.379 48 48">
<defs>
</defs>
<path d="M29.98,0H2.831C1.268,0,0,0.417,0,2.438v3.91h32.813v-3.91C32.813,0.417,31.545,0,29.98,0z M19.491,4.563H3.335
	c-0.679,0-1.229-0.621-1.229-1.391c0-0.766,0.551-1.387,1.229-1.387h16.156c0.674,0,1.228,0.621,1.228,1.387
	C20.719,3.942,20.165,4.563,19.491,4.563z M29.682,4.058c-0.537,0-0.979-0.437-0.979-0.978c0-0.542,0.439-0.979,0.979-0.979
	S30.66,2.538,30.66,3.08C30.66,3.621,30.221,4.058,29.682,4.058z"/>
<path d="M20.193,37.335h-7.199v-5.439h7.199v-1.873h-0.446h-6.753V23.22h2.834h1.216h14.188v1.05h1.58V7.656H10.824H8.868H0v32.177
	c0,2.016,1.268,2.438,2.831,2.438c0,0,9.537,0.042,17.362,0.049V37.335z M1.58,9.39h7.109h2.207h20.51v11.791H15.857h-1.203H1.58
	V9.39z M11.412,37.507H1.58v-14.51h9.832V37.507z"/>
<path d="M23.674,43.242h15.563c0.83,0,1.506-0.655,1.506-1.464v-6.394l-1.764-1.711l-7.299,3.875l-4.844-3.939l-4.656,3.292
	l-0.008,4.875C22.17,42.586,22.844,43.242,23.674,43.242"/>
<path d="M26.9,31.29l4.828,3.845l7.242-3.665l1.771,1.358v-5.21c0-0.811-0.676-1.465-1.506-1.465H23.674
	c-0.83,0-1.504,0.654-1.504,1.465v6.853L26.9,31.29z M32.736,28.942c0.99,0,1.789,0.802,1.789,1.789
	c0,0.986-0.799,1.787-1.789,1.787c-0.986,0-1.787-0.801-1.787-1.787C30.949,29.744,31.75,28.942,32.736,28.942z"/>
</svg>
