<?xml version="1.0" encoding="utf-8"?>
<!DOCTYPE svg PUBLIC "-//W3C//DTD SVG 1.1//EN" "http://www.w3.org/Graphics/SVG/1.1/DTD/svg11.dtd" [
	<!ENTITY ns_flows "http://ns.adobe.com/Flows/1.0/">
]>
<svg version="1.1"
	 xmlns="http://www.w3.org/2000/svg" x="0px" y="0px" width="48px" height="48px" viewBox="-3.284 -4.35 48 48">
<defs>
</defs>
<path d="M8.172,14.877c-0.426,0.229-0.905,0.37-1.422,0.37c-1.671,0-3.026-1.354-3.026-3.025c0-0.543,0.155-1.046,0.405-1.486
	c-0.503-0.704-0.932-1.568-1.127-2.688C2.984,7.949,2.976,7.85,2.965,7.75C1.096,10.144,0,12.938,0,15.946
	c0,3.373,5.004,3.143,9.775,2.908c0.402-0.022,0.776-0.003,1.136,0.036L8.172,14.877z"/>
<path d="M15.181,25.146c-0.017,0.115-0.029,0.229-0.052,0.344c-0.466,2.328-6.285,1.862-3.375,4.771c2.402,0.94,5.183,1.48,8,1.586
	L15.181,25.146z"/>
<path d="M20.716,0C16.104,0,11.85,1.176,8.4,3.144c0.518,0.255,1.014,0.506,1.455,0.739c1.24,0.655,2.004,1.723,2.481,2.756
	c0-0.001,0-0.003,0-0.004c0-1.672,1.355-3.026,3.026-3.026c1.671,0,3.026,1.354,3.026,3.026c0,1.671-1.355,3.025-3.026,3.025
	c-1,0-1.879-0.49-2.43-1.238c0.148,0.676,0.176,1.144,0.176,1.144l9.769,14.188c0.61-0.222,1.293-0.359,2.028-0.359
	c2.445,0,4.422,1.396,4.422,3.025c-0.001,1.222-1.112,2.313-2.699,2.782l1.178,1.71c7.928-2.225,13.625-8.055,13.625-14.965
	C41.548,7.1,32.237,0,20.716,0z M25.022,9.66c-1.672,0-3.026-1.354-3.026-3.025c0-1.672,1.354-3.026,3.026-3.026
	c1.671,0,3.025,1.354,3.025,3.026C28.048,8.306,26.693,9.66,25.022,9.66z M32.82,14.663c-1.671,0-3.025-1.354-3.025-3.024
	s1.354-3.025,3.025-3.025s3.024,1.354,3.024,3.025S34.491,14.663,32.82,14.663z"/>
<path d="M30.158,36.782l-17.973-26.59h-0.001c0-0.001,0.166-3.483-2.282-5.079c-2.447-1.587-6.823-3.83-6.823-3.83
	c2.018,1.844,0.488,4.799,1.059,7.109c0.575,2.309,4.031,4.583,4.031,4.583l0.001-0.003l-0.001,0.004l18.133,26.324L30.158,36.782z
	 M12.179,10.191"/>
</svg>
