<?xml version="1.0" encoding="utf-8"?>
<!-- Generator: Adobe Illustrator 15.0.0, SVG Export Plug-In  -->
<!DOCTYPE svg PUBLIC "-//W3C//DTD SVG 1.1//EN" "http://www.w3.org/Graphics/SVG/1.1/DTD/svg11.dtd" [
	<!ENTITY ns_flows "http://ns.adobe.com/Flows/1.0/">
]>
<svg version="1.1"
	 xmlns="http://www.w3.org/2000/svg" x="0px" y="0px" width="48px" height="48px" viewBox="-2.428 -6.623 48 48">
<defs>
</defs>
<path d="M32.873,32.048l-4.003-3.017c-0.412-0.312-0.942-0.378-1.399-0.218L10.576,16.083l4.196-1.822l-4.671-2.598L9.593,6.343
	l-3.914,3.64L0.462,8.825l2.253,4.847L0,18.273l5.306-0.646l3.537,4.007l0.813-4.15l16.809,12.664
	c-0.027,0.485,0.18,0.972,0.596,1.285l4.005,3.021c0.661,0.499,1.604,0.364,2.104-0.3C33.672,33.492,33.535,32.547,32.873,32.048z"
	/>
<path d="M28.721,0.526C21.869-0.98,15.265,0.842,11.573,4.765l0.511,5.23l5.934,3.348l-1.62,0.728
	c3.171,0.557,4.189,3.168,3.351,5.791l3.973,2.831c-0.01-0.163-0.002-0.325,0.033-0.485c0.295-1.339,2.176-2.13,4.184-1.688
	c2.01,0.442,3.384,1.948,3.09,3.287c-0.248,1.12-1.606,1.846-3.218,1.799l2.17,1.547c6.462-0.69,11.705-4.367,12.893-9.771
	C44.566,10.129,38.193,2.608,28.721,0.526z M15.027,10.598c-1.407,0-2.548-1.141-2.548-2.547c0-1.406,1.141-2.547,2.548-2.547
	c1.406,0,2.547,1.141,2.547,2.547C17.574,9.457,16.434,10.598,15.027,10.598z M23.118,7.562c-1.407,0-2.548-1.141-2.548-2.548
	s1.141-2.548,2.548-2.548s2.548,1.141,2.548,2.548S24.525,7.562,23.118,7.562z M31.063,9.308c-1.406,0-2.547-1.141-2.547-2.548
	s1.141-2.548,2.547-2.548c1.408,0,2.549,1.141,2.549,2.548S32.471,9.308,31.063,9.308z M36.569,14.832
	c-1.407,0-2.548-1.141-2.548-2.547c0-1.407,1.141-2.547,2.548-2.547s2.547,1.141,2.547,2.547
	C39.116,13.691,37.977,14.832,36.569,14.832z"/>
</svg>
