<?xml version="1.0" encoding="utf-8"?>
<svg version="1.1"
	 xmlns="http://www.w3.org/2000/svg" xmlns:xlink="http://www.w3.org/1999/xlink"
	 x="0px" y="0px" width="48px" height="48px" viewBox="-3.22 -5.545 48 48">
<defs>
</defs>
<path fill="#52CAF5" d="M41.758,35.132c0,1.818-1.516,3.292-3.386,3.292H3.382C1.514,38.424,0,36.95,0,35.132V3.294
	C0,1.474,1.514,0,3.382,0h34.991c1.87,0,3.386,1.474,3.386,3.294V35.132z"/>
<path fill="#3588A6" d="M41.758,35.132c0,1.818-1.516,3.292-3.386,3.292H28.272L12.952,0h25.421c1.87,0,3.386,1.474,3.386,3.294
	V35.132z"/>
<path fill="#FFFFFF" d="M17.061,3.643h4.031c0.797,0,1.393,0.034,1.785,0.1c0.394,0.066,0.744,0.205,1.053,0.417
	c0.31,0.211,0.566,0.492,0.773,0.842s0.31,0.743,0.31,1.179c0,0.473-0.128,0.906-0.381,1.3c-0.256,0.396-0.6,0.691-1.035,0.888
	c0.614,0.178,1.086,0.484,1.416,0.915c0.33,0.431,0.495,0.938,0.495,1.52c0,0.459-0.105,0.904-0.32,1.337
	c-0.212,0.434-0.503,0.781-0.874,1.039c-0.367,0.259-0.822,0.419-1.364,0.478c-0.34,0.037-1.159,0.06-2.455,0.069h-3.433V3.643z
	 M19.097,5.321v2.331h1.334c0.793,0,1.287-0.011,1.479-0.034c0.349-0.042,0.621-0.162,0.82-0.361
	c0.201-0.198,0.301-0.461,0.301-0.788c0-0.311-0.085-0.565-0.26-0.759c-0.17-0.195-0.426-0.313-0.765-0.355
	c-0.202-0.023-0.783-0.034-1.741-0.034H19.097z M19.097,9.331v2.696h1.885c0.734,0,1.199-0.021,1.397-0.062
	c0.303-0.055,0.547-0.189,0.738-0.402c0.189-0.213,0.286-0.499,0.286-0.856c0-0.303-0.074-0.56-0.221-0.771s-0.358-0.364-0.636-0.46
	c-0.277-0.097-0.879-0.145-1.806-0.145H19.097z"/>
<path fill="#FFFFFF" d="M15.076,13.726h-2.214l-0.88-2.291H7.951l-0.833,2.291h-2.16L8.886,3.643h2.153L15.076,13.726z
	 M11.328,9.737l-1.39-3.742L8.577,9.737H11.328z"/>
<g>
	<g>
		<path fill="#FFFFFF" d="M34.54,10.019l1.975,0.625c-0.302,1.101-0.806,1.918-1.511,2.453c-0.702,0.534-1.596,0.8-2.679,0.8
			c-1.34,0-2.438-0.457-3.301-1.372c-0.863-0.916-1.293-2.165-1.293-3.751c0-1.679,0.433-2.982,1.299-3.911
			c0.867-0.929,2.009-1.393,3.42-1.393c1.232,0,2.233,0.364,3.006,1.094c0.456,0.43,0.803,1.049,1.029,1.856l-2.013,0.481
			c-0.121-0.522-0.368-0.935-0.746-1.238c-0.379-0.302-0.839-0.455-1.38-0.455c-0.748,0-1.354,0.269-1.821,0.806
			c-0.463,0.536-0.694,1.406-0.694,2.607c0,1.273,0.228,2.182,0.687,2.723c0.457,0.542,1.055,0.812,1.787,0.812
			c0.542,0,1.008-0.172,1.396-0.516C34.091,11.297,34.372,10.757,34.54,10.019z"/>
	</g>
</g>
<path fill="#F79523" d="M25.049,20.086c-0.278,0.15-0.642,0.019-0.813-0.301l0,0c-0.172-0.314-0.087-0.695,0.189-0.845l4.517-2.453
	c0.277-0.15,0.642-0.015,0.814,0.301l0,0c0.173,0.317,0.087,0.695-0.19,0.846L25.049,20.086z"/>
<path fill="#F79523" d="M30.62,30.342c-0.277,0.151-0.642,0.016-0.813-0.299l0,0c-0.173-0.318-0.085-0.697,0.191-0.849l4.515-2.452
	c0.279-0.149,0.643-0.013,0.813,0.303l0,0c0.174,0.317,0.089,0.693-0.188,0.847L30.62,30.342z"/>
<path fill="#C8691C" d="M17.621,30.894c-0.521,0.283-1.116,0.2-1.325-0.187l0,0c-0.21-0.386,0.042-0.929,0.564-1.213l14.483-7.868
	c0.522-0.283,1.116-0.199,1.326,0.188l0,0c0.21,0.387-0.044,0.93-0.563,1.211L17.621,30.894z"/>
<path fill="#C8691C" d="M11.176,35.223c-0.595,0.324-1.296,0.187-1.565-0.307l-0.484-0.894c-0.269-0.493-0.001-1.155,0.594-1.479
	l6.657-3.617c0.597-0.324,1.296-0.185,1.564,0.307l0.486,0.893c0.267,0.494,0.003,1.159-0.595,1.479L11.176,35.223z"/>
<path fill="#F79523" d="M32.247,29.929c-0.595,0.323-1.405-0.015-1.81-0.76l-5.057-9.31c-0.402-0.743-0.248-1.608,0.35-1.933
	l1.979-1.075c0.598-0.324,1.408,0.017,1.811,0.759l5.059,9.311c0.402,0.743,0.247,1.607-0.352,1.933L32.247,29.929z"/>
</svg>
