<?xml version="1.0" encoding="utf-8"?>
<svg version="1.1"
	 xmlns="http://www.w3.org/2000/svg" xmlns:xlink="http://www.w3.org/1999/xlink"
	 x="0px" y="0px" width="48px" height="48px" viewBox="-2.918 -8.066 48 48">
<defs>
</defs>
<rect x="18.254" fill="#C8691C" width="24.18" height="20.816"/>
<polygon fill="#3588A6" points="18.254,0 24.179,8.967 24.019,21.735 18.074,21.797 "/>
<rect y="8.967" fill="#F79523" width="24.179" height="20.816"/>
<path fill="#FFFFFF" d="M7.117,15.825l-1.545-0.278c0.174-0.623,0.473-1.083,0.896-1.381c0.424-0.299,1.054-0.448,1.89-0.448
	c0.759,0,1.324,0.09,1.696,0.27c0.372,0.18,0.633,0.408,0.785,0.685c0.151,0.276,0.227,0.784,0.227,1.523l-0.018,1.986
	c0,0.566,0.027,0.983,0.082,1.252c0.055,0.268,0.156,0.555,0.306,0.861H9.751c-0.045-0.111-0.099-0.28-0.164-0.502
	c-0.028-0.102-0.048-0.168-0.061-0.199c-0.291,0.282-0.602,0.494-0.933,0.636c-0.331,0.141-0.685,0.212-1.06,0.212
	c-0.662,0-1.184-0.18-1.565-0.54c-0.381-0.358-0.572-0.813-0.572-1.362c0-0.363,0.087-0.688,0.26-0.973
	c0.174-0.284,0.417-0.502,0.73-0.653s0.764-0.283,1.354-0.397c0.795-0.148,1.347-0.288,1.654-0.417v-0.17
	c0-0.327-0.081-0.56-0.243-0.699s-0.466-0.209-0.914-0.209c-0.303,0-0.54,0.06-0.709,0.179C7.359,15.317,7.222,15.526,7.117,15.825z
	 M9.394,17.206c-0.218,0.073-0.564,0.159-1.036,0.26c-0.473,0.103-0.781,0.2-0.926,0.297c-0.222,0.158-0.333,0.358-0.333,0.601
	c0,0.237,0.089,0.443,0.267,0.617c0.177,0.173,0.403,0.261,0.678,0.261c0.307,0,0.6-0.102,0.878-0.303
	c0.206-0.153,0.341-0.342,0.405-0.563c0.045-0.146,0.067-0.422,0.067-0.829V17.206z"/>
<path fill="#FFFFFF" d="M12.87,25.436v-8.878h1.702v3.198c0.525-0.598,1.147-0.896,1.865-0.896c0.783,0,1.432,0.283,1.944,0.851
	s0.77,1.381,0.77,2.443c0,1.099-0.262,1.944-0.784,2.538c-0.523,0.594-1.158,0.891-1.905,0.891c-0.367,0-0.729-0.093-1.087-0.276
	c-0.357-0.183-0.666-0.455-0.923-0.814v0.944H12.87z M14.559,22.082c0,0.666,0.105,1.159,0.315,1.479
	c0.294,0.451,0.686,0.678,1.175,0.678c0.375,0,0.695-0.161,0.959-0.481c0.265-0.32,0.397-0.827,0.397-1.519
	c0-0.733-0.133-1.264-0.4-1.589c-0.266-0.325-0.607-0.487-1.023-0.487c-0.408,0-0.747,0.158-1.018,0.475
	C14.694,20.954,14.559,21.435,14.559,22.082z"/>
<path fill="#FFFFFF" d="M32.403,7.555l-1.677,0.303C30.669,7.522,30.542,7.27,30.342,7.1c-0.202-0.17-0.46-0.254-0.779-0.254
	c-0.425,0-0.762,0.146-1.015,0.438c-0.252,0.293-0.378,0.783-0.378,1.469c0,0.763,0.128,1.302,0.385,1.617
	c0.256,0.314,0.6,0.472,1.032,0.472c0.322,0,0.588-0.091,0.793-0.275c0.205-0.184,0.352-0.5,0.437-0.948l1.672,0.285
	c-0.175,0.767-0.507,1.347-1,1.738c-0.492,0.392-1.153,0.588-1.98,0.588c-0.941,0-1.691-0.297-2.25-0.891
	c-0.56-0.593-0.838-1.415-0.838-2.465c0-1.062,0.28-1.888,0.842-2.48c0.561-0.591,1.319-0.887,2.276-0.887
	c0.783,0,1.406,0.168,1.868,0.506C31.869,6.35,32.202,6.864,32.403,7.555z"/>
<path fill="#FFFFFF" d="M38.727,16.946h-1.581V16c-0.262,0.368-0.572,0.641-0.929,0.822C35.86,17,35.5,17.089,35.135,17.089
	c-0.738,0-1.372-0.296-1.898-0.893c-0.526-0.596-0.791-1.426-0.791-2.492c0-1.09,0.257-1.919,0.77-2.486
	c0.514-0.567,1.161-0.851,1.944-0.851c0.718,0,1.34,0.299,1.865,0.896V8.066h1.702V16.946z M34.184,13.589
	c0,0.686,0.096,1.183,0.285,1.49c0.274,0.444,0.658,0.666,1.15,0.666c0.393,0,0.726-0.167,1-0.5c0.274-0.333,0.411-0.83,0.411-1.493
	c0-0.739-0.133-1.271-0.398-1.596c-0.267-0.325-0.608-0.487-1.025-0.487c-0.402,0-0.741,0.161-1.014,0.481
	C34.321,12.472,34.184,12.952,34.184,13.589z"/>
</svg>
