<?xml version="1.0" encoding="utf-8"?>
<svg version="1.1"
	 xmlns="http://www.w3.org/2000/svg" xmlns:xlink="http://www.w3.org/1999/xlink"
	 x="0px" y="0px" width="48px" height="48px" viewBox="-4.6 -5.3 48 48">
<defs>
</defs>
<path fill="#52CAF5" d="M39,32.8c0,1.7-1.4,3.1-3.2,3.1H3.2c-1.7,0-3.2-1.4-3.2-3.1V3.1C0,1.4,1.4,0,3.2,0h32.7
	C37.6,0,39,1.4,39,3.1V32.8z"/>
<path fill="#84D5F7" d="M39,32.8c0,1.7-1.4,3.1-3.2,3.1H3.2c-1.7,0-3.2-1.4-3.2-3.1V3.1C0,1.4,1.4,0,3.2,0L39,32.8z"/>
<text transform="matrix(1 0 0 1 4.0269 11.7788)" fill="#3588A6" font-family="'Arial-BoldMT'" font-size="11.0523">A</text>
<text transform="matrix(1 0 0 1 4.3931 22.3579)" fill="#3588A6" font-family="'Arial-BoldMT'" font-size="11.0523">B</text>
<text transform="matrix(1 0 0 1 3.9517 32.6021)" fill="#3588A6" font-family="'Arial-BoldMT'" font-size="11.0523">C</text>
<rect x="15.5" y="6.2" fill="#FCB51E" width="19.1" height="3.8"/>
<rect x="15.5" y="16.1" fill="#FCB51E" width="19.1" height="3.8"/>
<rect x="15.5" y="26.1" fill="#FCB51E" width="19.1" height="3.8"/>
<rect x="25.2" y="6.2" fill="#C8691C" width="9.4" height="3.8"/>
<rect x="25.2" y="16.1" fill="#C8691C" width="9.4" height="3.8"/>
<rect x="25.2" y="26.1" fill="#C8691C" width="9.4" height="3.8"/>
</svg>
