<?xml version="1.0" encoding="utf-8"?>
<!-- Generator: Adobe Illustrator 15.0.0, SVG Export Plug-In  -->
<!DOCTYPE svg PUBLIC "-//W3C//DTD SVG 1.1//EN" "http://www.w3.org/Graphics/SVG/1.1/DTD/svg11.dtd" [
	<!ENTITY ns_flows "http://ns.adobe.com/Flows/1.0/">
]>
<svg version="1.1"
	 xmlns="http://www.w3.org/2000/svg" x="0px" y="0px" width="48px" height="48px" viewBox="-3.2 -3.1 48 48"
	 xml:space="preserve">
<defs>
</defs>
<path d="M0,17.4v24.4h19.2V17.4H0z M14.9,35.3H4.6v-1.6h10.3V35.3z M14.9,29.9H4.6v-1.6h10.3V29.9z M14.9,24.5H4.6v-1.6h10.3V24.5z"
	/>
<rect x="29.7" y="22" width="3.899" height="2.4"/>
<rect x="29.7" width="3.899" height="2.4"/>
<rect x="22.5" y="13.5" width="1.899" height="2.8"/>
<polygon points="24.399,18.9 22.5,18.9 22.5,24.4 27.1,24.4 27.1,22 24.399,22 "/>
<rect x="39.7" y="13.5" width="1.899" height="2.8"/>
<polygon points="39.7,5.5 41.6,5.5 41.6,0 36.2,0 36.2,2.4 39.7,2.4 "/>
<rect x="39.7" y="8.1" width="1.899" height="2.8"/>
<rect x="22.5" y="8.1" width="1.899" height="2.8"/>
<polygon points="24.399,5.5 24.399,2.4 27.1,2.4 27.1,0 22.5,0 22.5,5.5 "/>
<polygon points="39.7,18.9 39.7,22 36.2,22 36.2,24.4 41.6,24.4 41.6,18.9 "/>
<path d="M37.792,18.673L41.3,16.7l-7.7-1.6l-1.899,7l3.675-2.067c0.534,0.597,1.021,1.241,1.425,1.967
	c2.8,5.201,0.9,11.701-4.3,14.6C27.3,39.4,20.8,37.5,17.9,32.3c-0.5-0.9-0.8-1.801-1-2.801L14.5,30.8c0.3,0.9,0.6,1.9,1.1,2.699
	c3.5,6.5,11.7,8.9,18.2,5.4s8.9-11.699,5.4-18.2C38.801,19.968,38.31,19.287,37.792,18.673z"/>
</svg>
