<?xml version="1.0" encoding="utf-8"?>
<!DOCTYPE svg PUBLIC "-//W3C//DTD SVG 1.1//EN" "http://www.w3.org/Graphics/SVG/1.1/DTD/svg11.dtd" [
	<!ENTITY ns_flows "http://ns.adobe.com/Flows/1.0/">
]>
<svg version="1.1"
	 xmlns="http://www.w3.org/2000/svg" x="0px" y="0px" width="48px" height="48px" viewBox="-7 -4.6 48 48">
<defs>
</defs>
<polygon points="30.2,2.4 17.5,2.3 17.5,0 32.6,0 32.6,15.1 30.2,15.1 "/>
<polygon points="2.4,36.4 15.1,36.4 15.1,38.8 0,38.701 0,23.6 2.4,23.6 "/>
<polygon points="27.8,30.8 34,24.4 27.8,24.4 "/>
<rect x="27.8" y="20" width="6.2" height="2.5"/>
<path d="M14.4,7.7v6.2h7.3v1.5h-7.3v3c0,0.218-0.062,0.417-0.15,0.6h7.45v1.5H12v-0.1H7.7v10.4h18.1V7.7H14.4z M21.7,25.701H12v-1.5
	h9.7V25.701z"/>
<path d="M11.9,2.8h-1.4V2.1c0-0.7-0.6-1.3-1.3-1.3H5.3C4.5,0.8,4,1.3,4,2.1v0.7H2.6C2,2.8,1.5,3.4,1.5,4.1C1.5,4.6,1.7,5,2,5.2v11.2
	c0,0.7,0.5,1.2,1.2,1.3v0.7h8v-0.7c0.7,0,1.2-0.6,1.2-1.3V5.3C12.7,5,13,4.6,13,4.1C13,3.4,12.5,2.8,11.9,2.8z M4.6,2.6
	c0-0.6,0-1,0.6-1h4c0.6,0,0.6,0.5,0.6,1v0.2H4.6V2.6z M5,15.1c0,0.4-0.4,0.8-0.9,0.8s-0.9-0.4-0.9-0.8V7.7c0-0.4,0.4-0.8,0.9-0.8
	C4.7,6.9,5,7.2,5,7.7V15.1z M8.1,15.1c0,0.4-0.4,0.8-0.9,0.8s-0.9-0.4-0.9-0.8V7.7c0-0.4,0.4-0.8,0.9-0.8s0.9,0.4,0.9,0.8V15.1z
	 M11.1,15.1c0,0.4-0.4,0.8-0.9,0.8s-0.9-0.4-0.9-0.8V7.7c0-0.4,0.4-0.8,0.9-0.8s0.9,0.4,0.9,0.8V15.1z"/>
</svg>
