<?xml version="1.0" encoding="utf-8"?>
<!-- Generator: Adobe Illustrator 15.0.0, SVG Export Plug-In  -->
<!DOCTYPE svg PUBLIC "-//W3C//DTD SVG 1.1//EN" "http://www.w3.org/Graphics/SVG/1.1/DTD/svg11.dtd" [
	<!ENTITY ns_flows "http://ns.adobe.com/Flows/1.0/">
]>
<svg version="1.1"
	 xmlns="http://www.w3.org/2000/svg" xmlns:xlink="http://www.w3.org/1999/xlink" xmlns:a="http://ns.adobe.com/AdobeSVGViewerExtensions/3.0/"
	 x="0px" y="0px" width="48px" height="48px" viewBox="-2.493 -6.178 48 48" enable-background="new -2.493 -6.178 48 48"
	 xml:space="preserve">
<defs>
</defs>
<path fill="#FFFFFF" d="M3.158,23.933c0,5.002,6.513,9.06,14.549,9.06s14.55-4.058,14.55-9.06s-6.514-9.06-14.55-9.06
	C9.672,14.874,3.158,18.929,3.158,23.933"/>
<path d="M18.046,32.257c-7.112,0.7-13.25-2.514-13.713-7.185c-0.462-4.669,4.931-9.023,12.042-9.726
	c7.112-0.704,13.251,2.511,13.713,7.18C30.55,27.197,25.157,31.55,18.046,32.257 M32.271,16.755
	c-0.604-0.181-1.02-0.304-0.703-1.099c0.688-1.727,0.758-3.216,0.016-4.278c-1.395-1.991-5.21-1.885-9.585-0.053
	c0-0.002-1.373,0.601-1.022-0.489c0.672-2.163,0.571-3.974-0.476-5.02c-2.372-2.375-8.683,0.09-14.095,5.499
	C2.353,15.368,0,19.665,0,23.378c0,7.104,9.111,11.424,18.024,11.424c11.684,0,19.456-6.789,19.456-12.178
	C37.478,19.367,34.735,17.519,32.271,16.755"/>
<path d="M40.03,3.754c-2.822-3.128-6.984-4.321-10.826-3.504l0,0c-0.889,0.19-1.455,1.064-1.266,1.952
	c0.189,0.889,1.063,1.455,1.951,1.266c2.733-0.581,5.689,0.269,7.697,2.49c1.938,2.146,2.581,5.16,1.689,7.909l0,0
	c-0.279,0.863,0.192,1.791,1.056,2.071c0.003,0,0.004,0,0.005,0.001c0.863,0.279,1.79-0.194,2.07-1.057v-0.007
	C43.612,11.139,42.853,6.878,40.03,3.754"/>
<path d="M35.696,7.664c-1.373-1.523-3.4-2.102-5.272-1.704c-0.771,0.141-1.278,0.878-1.138,1.647
	c0.142,0.769,0.879,1.279,1.646,1.138c0.026-0.005,0.056-0.011,0.081-0.017v0.001c0.947-0.203,1.93,0.114,2.579,0.832
	c0.649,0.719,0.864,1.729,0.563,2.652h0.002c-0.241,0.744,0.168,1.542,0.91,1.783c0.744,0.24,1.543-0.168,1.783-0.913
	C37.44,11.262,37.071,9.187,35.696,7.664"/>
<path d="M18.438,23.798c-0.249,0.428-0.798,0.631-1.229,0.453c-0.423-0.176-0.557-0.65-0.315-1.068
	c0.248-0.416,0.777-0.618,1.199-0.451C18.522,22.888,18.675,23.37,18.438,23.798 M16.172,26.708
	c-0.688,1.097-2.161,1.579-3.271,1.07c-1.094-0.497-1.416-1.772-0.728-2.842c0.679-1.065,2.103-1.541,3.204-1.079
	C16.492,24.333,16.849,25.599,16.172,26.708 M18.757,18.939c-3.385-0.88-7.21,0.807-8.68,3.789
	c-1.498,3.041-0.049,6.418,3.369,7.521c3.542,1.144,7.717-0.608,9.168-3.891C24.047,23.149,22.259,19.845,18.757,18.939"/>
</svg>
