<?xml version="1.0" encoding="utf-8"?>
<svg version="1.1"
	 xmlns="http://www.w3.org/2000/svg" xmlns:xlink="http://www.w3.org/1999/xlink"
	 x="0px" y="0px" width="28px" height="28px" viewBox="-0.671 -2.121 28 28">
<defs>
</defs>
<path fill="#F79523" d="M7.084,9.723c-0.741,0.742-1.604,1.184-2.355,1.29c0.12,0.232,0.266,0.453,0.459,0.647l11.199,11.199
	c1.023,1.022,2.171,0.512,3.193-0.511c1.023-1.024,1.534-2.171,0.513-3.194L8.894,7.956C8.727,7.79,8.541,7.66,8.345,7.548
	C8.197,8.255,7.766,9.042,7.084,9.723z"/>
<path fill="#C8691C" d="M7.084,9.723c0.021-0.038,12.5,12.568,12.497,12.625c1.023-1.024,1.534-2.171,0.513-3.194L8.894,7.956
	C8.727,7.79,8.541,7.66,8.345,7.548C8.197,8.255,7.766,9.042,7.084,9.723z"/>
<path fill="#3588A6" d="M1.485,3.017c-0.106-0.106-0.278-0.106-0.384,0L0.976,3.143c-0.18,0.03-0.353,0.097-0.492,0.235
	C0.346,3.517,0.278,3.691,0.248,3.87L0.08,4.039c-0.106,0.106-0.106,0.277,0,0.383C0.158,4.5,0.271,4.519,0.368,4.482
	c0.037,0.06,0.064,0.123,0.116,0.174l4.471,4.471c0.052,0.052,0.116,0.081,0.176,0.118c0.14-0.27,0.326-0.536,0.568-0.778
	c0.196-0.195,0.407-0.354,0.622-0.482C6.291,7.939,6.272,7.889,6.232,7.85L1.761,3.378c-0.059-0.06-0.133-0.096-0.204-0.135
	C1.567,3.162,1.547,3.079,1.485,3.017z"/>
<path fill="#C8691C" d="M25.117,1.54c-2.311-2.313-6.39-1.983-9.108,0.735c-2.719,2.719-3.048,6.797-0.734,9.11
	c2.313,2.311,6.39,1.982,9.108-0.736C27.1,7.931,27.429,3.853,25.117,1.54z M16.257,10.4c-1.851-1.849-1.586-5.112,0.589-7.287
	c2.175-2.175,5.437-2.438,7.287-0.588c1.85,1.85,1.586,5.112-0.589,7.286C21.37,11.986,18.107,12.249,16.257,10.4z"/>
<path fill="#52CAF5" d="M4.703,23.454c-0.407,0.406-1.065,0.406-1.472,0l0,0c-0.406-0.405-0.406-1.064,0-1.472l4.866-4.865
	l1.472,1.471L4.703,23.454z"/>
<polygon fill="#C8691C" points="13.914,10.925 13.914,7.99 18.667,12.743 15.827,12.742 "/>
<path fill="#52CAF5" d="M0.489,3.434C0.386,3.56,0.323,3.707,0.297,3.861L0.128,4.029c-0.106,0.106-0.106,0.278,0,0.383
	C0.207,4.49,0.321,4.51,0.417,4.473c0.037,0.059,0.064,0.122,0.116,0.174l4.471,4.47C5.056,9.17,5.12,9.199,5.181,9.236
	c0.117-0.225,0.273-0.443,0.46-0.651L0.489,3.434z"/>
<circle fill="#3588A6" cx="22.14" cy="16.453" r="2.685"/>
<path fill="#52CAF5" d="M20.834,14.121c-0.819,0.459-1.38,1.326-1.38,2.332c0,1.394,1.064,2.525,2.422,2.658
	c0.605-0.54,0.995-1.319,0.995-2.196C22.872,15.606,22.014,14.508,20.834,14.121z"/>
</svg>
