<?xml version="1.0" encoding="utf-8"?>
<svg version="1.1"
	 xmlns="http://www.w3.org/2000/svg" xmlns:xlink="http://www.w3.org/1999/xlink"
	 x="0px" y="0px" width="28px" height="28px" viewBox="-2.723 -1.141 28 28">
<defs>
</defs>
<path fill="#84D5F7" d="M21.555,2.545c-0.943-0.688-2.11-1.042-3.38-1.042s-2.436,0.354-3.38,1.042v3.496h6.732L21.555,2.545z"/>
<path fill="#C8691C" d="M22.555,12.957V2.218c0-0.076-0.018-0.147-0.022-0.224c-1.149,1.07-2.686,1.619-4.381,1.619
	c-1.693,0-3.229-0.549-4.381-1.619c-0.003,0.076-0.022,0.147-0.022,0.224v10.739c0,2.19,1.644,3.975,3.759,4.243v7.356h-2.47
	c-0.354,0-0.645,0.288-0.645,0.646c0,0.354,0.29,0.644,0.645,0.644h6.228c0.357,0,0.646-0.289,0.646-0.644
	c0-0.357-0.289-0.646-0.646-0.646h-2.469V17.2C20.911,16.932,22.555,15.147,22.555,12.957z"/>
<path fill="#F79523" d="M12.033,25.388c-4.305-0.912-6.432-0.693-9.325-1.831c-3.686-1.453-3.625-6.223,0.283-7.14
	c1.276-0.301,2.597,0.333,2.597,0.333s0.148-1.944,0.422-2.585c1.154-2.698,6.598-3.404,6.812,2.315
	C13.02,21.792,12.033,25.388,12.033,25.388z"/>
<path fill="#C8691C" d="M6.01,14.165c-0.274,0.641-0.422,2.585-0.422,2.585s6.337,8.616,6.445,8.638c0,0,0.987-3.596,0.789-8.907
	C12.607,10.761,7.164,11.467,6.01,14.165z"/>
<path fill="#84D5F7" d="M18.351,3.95c-1.325,0-2.562-0.363-3.629-0.987v9.495c0,1.693,1.271,3.074,2.907,3.281h0.995
	c1.638-0.207,2.908-1.588,2.908-3.281V4.151c0-0.025,0.021-0.598,0.018-1.089C20.591,3.535,19.492,3.95,18.351,3.95z"/>
<path fill="#FFFFFF" d="M17.685,12.1c0,0,2.719-2.89,3.483-6.459c0,0-0.766,4.674-2.126,6.627L17.685,12.1z"/>
<path fill="#C8691C" d="M18.133,0.417c1.394,0,2.672,0.39,3.708,1.143h0.49C21.225,0.53,19.743,0,18.111,0
	c-1.634,0-3.114,0.53-4.223,1.561h0.535C15.459,0.807,16.74,0.417,18.133,0.417z"/>
</svg>
