<?xml version="1.0" encoding="utf-8"?>
<svg version="1.1"
	 xmlns="http://www.w3.org/2000/svg" xmlns:xlink="http://www.w3.org/1999/xlink"
	 x="0px" y="0px" width="48px" height="48px" viewBox="-2.252 -2.071 48 48">
<defs>
</defs>
<path fill="#F79523" d="M35.744,0H5.859C2.623,0,0,2.624,0,5.86v29.884c0,3.237,2.623,5.859,5.859,5.859h29.885
	c3.237,0,5.859-2.622,5.859-5.859V5.86C41.604,2.624,38.981,0,35.744,0z M20.803,38.235c-9.628,0-17.434-7.807-17.434-17.433
	c0-9.628,7.806-17.433,17.434-17.433c9.627,0,17.433,7.805,17.433,17.433C38.235,30.429,30.43,38.235,20.803,38.235z"/>
<polygon fill="#F79523" points="21.514,18.215 19.995,18.215 18.604,10.841 20.949,7.325 22.999,10.841 "/>
<polygon fill="#C8691C" points="21.514,18.215 20.766,18.202 20.949,7.325 22.999,10.841 "/>
<polygon fill="#F79523" points="20.51,23.365 19.173,22.579 12.572,29.292 11.803,34.477 16.172,31.813 "/>
<circle fill="#F79523" cx="20.802" cy="20.802" r="1.904"/>
<path fill="#C8691C" d="M35.744,0H20.803v3.37c9.627,0,17.433,7.805,17.433,17.433c0,9.626-7.806,17.433-17.433,17.433v3.368h14.941
	c3.237,0,5.859-2.622,5.859-5.859V5.86C41.604,2.624,38.981,0,35.744,0z"/>
<path fill="#C8691C" d="M20.803,18.898v3.808c1.051,0,1.903-0.853,1.903-1.904C22.706,19.75,21.854,18.898,20.803,18.898z"/>
<path fill="#52CAF5" d="M43.496,31.65c0,6.738-5.467,12.205-12.205,12.205c-6.742,0-12.207-5.467-12.207-12.205
	c0-6.742,5.465-12.208,12.207-12.208C38.029,19.443,43.496,24.908,43.496,31.65z"/>
<path fill="#3588A6" d="M43.496,31.65c0,6.738-5.467,12.205-12.205,12.205c-0.002,0.234-0.002-24.647,0-24.413
	C38.029,19.443,43.496,24.908,43.496,31.65z"/>
<polygon fill="#FFFFFF" points="27.757,35.125 23.905,31.409 22.31,33.331 27.757,38.585 39.465,26.448 37.737,24.782 "/>
<path fill="#D1D3D4" d="M31.067,31.693c0,1.197,0,2.37,0,3.459l8.397-8.704l-1.728-1.666L31.067,31.693z"/>
</svg>
