<?xml version="1.0" encoding="utf-8"?>
<svg version="1.1"
	 xmlns="http://www.w3.org/2000/svg" xmlns:xlink="http://www.w3.org/1999/xlink"
	 x="0px" y="0px" width="28px" height="28px" viewBox="-2.354 -1.063 28 28">
<defs>
</defs>
<path fill="#C8691C" d="M22.977,23.907c-0.468-0.429-0.995-0.501-1.162-0.513c0.54-0.543,0.874-1.29,0.874-2.116v-6.583
	c0-1.656-1.343-3-3-3H3.727c-1.657,0-3,1.343-3,3v6.583c0,0.824,0.333,1.57,0.871,2.112H1.471c0,0-0.469,0-1.033,0.61
	s-0.423,0.938-0.423,0.938l23.384-0.047C23.399,24.893,23.54,24.424,22.977,23.907z"/>
<path fill="#F79523" d="M8.745,11.696H3.727c-1.657,0-3,1.343-3,3v6.583c0,0.824,0.333,1.57,0.871,2.112H1.471
	c0,0-0.469,0-1.033,0.61s-0.423,0.938-0.423,0.938l15.437-0.031L8.745,11.696z"/>
<path fill="#F79523" d="M11.843,4.208c-1.316,0.282-1.514-1.768-0.842-2.44C11.675,1.094,12.011,1.23,11.675,0
	c0,0,1.094,1.431,1.094,1.852S13.02,3.955,11.843,4.208z"/>
<path fill="#52CAF5" d="M22.589,11.055c0.011-0.061,0.036-0.115,0.036-0.179c0-0.609-0.494-1.104-1.104-1.104h-8.678v-5.07h-2.272
	v5.07H1.894c-0.609,0-1.104,0.494-1.104,1.104c0,0.025,0.012,0.045,0.014,0.069c-0.288,0.355-0.46,0.772-0.46,1.222
	c0,1.271,1.325,2.301,2.96,2.301c1.298,0,2.39-0.655,2.788-1.561c0.341,0.978,1.479,1.701,2.846,1.701
	c1.321,0,2.428-0.678,2.808-1.608c0.361,0.954,1.482,1.655,2.826,1.655c1.289,0,2.374-0.645,2.78-1.539
	c0.422,0.87,1.493,1.492,2.761,1.492c1.634,0,2.959-1.03,2.959-2.3C23.071,11.846,22.892,11.417,22.589,11.055z"/>
<path fill="#3588A6" d="M22.589,11.055c0.011-0.061,0.036-0.115,0.036-0.179c0-0.609-0.494-1.104-1.104-1.104h-8.678v-5.07h-2.272
	v5.07H7.769l2.353,4.635c0.769-0.266,1.366-0.775,1.624-1.407c0.361,0.954,1.482,1.655,2.826,1.655c1.289,0,2.374-0.645,2.78-1.539
	c0.422,0.87,1.493,1.492,2.761,1.492c1.634,0,2.959-1.03,2.959-2.3C23.071,11.846,22.892,11.417,22.589,11.055z"/>
<path fill="#FFFFFF" d="M20.112,18.609c-1.188,0-2.197-0.55-2.667-1.336l-0.182-0.001c-0.457,0.812-1.48,1.384-2.692,1.384
	c-1.229,0-2.264-0.589-2.709-1.417l-0.24-0.002c-0.459,0.806-1.479,1.372-2.685,1.372c-1.223,0-2.259-0.582-2.708-1.405l-0.3-0.002
	c-0.486,0.749-1.473,1.267-2.625,1.267c-1.17,0-2.173-0.532-2.653-1.299c0,0-0.015,1.006,0.091,1.152
	c0.502,0.693,1.468,1.146,2.562,1.146c1.298,0,2.39-0.655,2.788-1.561c0.341,0.978,1.479,1.701,2.846,1.701
	c1.321,0,2.428-0.678,2.808-1.607c0.361,0.953,1.482,1.654,2.826,1.654c1.289,0,2.374-0.645,2.78-1.539
	c0.422,0.87,1.493,1.492,2.761,1.492c1.113,0,2.204-0.404,2.588-1.184c0.062-0.125,0.067-1.119,0.067-1.119
	C22.288,18.075,21.284,18.609,20.112,18.609z"/>
</svg>
