<?xml version="1.0" encoding="utf-8"?>
<svg version="1.1"
	 xmlns="http://www.w3.org/2000/svg" xmlns:xlink="http://www.w3.org/1999/xlink"
	 x="0px" y="0px" width="28px" height="28px" viewBox="-1.498 -5.127 28 28">
<defs>
</defs>
<path fill="#F79523" d="M19.196,14.878c-0.383,0.388-0.997,0.404-1.366,0.037l-3.12-3.096c-0.371-0.367-0.358-0.98,0.025-1.368
	l0.314-0.315c0.385-0.389,0.997-0.405,1.368-0.038l3.119,3.098c0.371,0.367,0.359,0.979-0.026,1.366L19.196,14.878z"/>
<path fill="#F79523" d="M17.49,16.6c-0.385,0.387-0.999,0.403-1.368,0.036l-3.12-3.096c-0.37-0.367-0.358-0.98,0.027-1.367
	l0.313-0.317c0.385-0.388,0.996-0.403,1.367-0.036l3.12,3.096c0.369,0.367,0.358,0.979-0.027,1.367L17.49,16.6z"/>
<path fill="#F79523" d="M15.782,18.319c-0.385,0.389-0.998,0.405-1.368,0.036l-3.12-3.095c-0.37-0.367-0.358-0.981,0.027-1.369
	l0.313-0.315c0.384-0.389,0.997-0.403,1.367-0.036l3.12,3.096c0.369,0.367,0.358,0.98-0.026,1.367L15.782,18.319z"/>
<path fill="#F79523" d="M14.074,20.04c-0.385,0.387-0.997,0.405-1.367,0.037l-3.12-3.096C9.217,16.612,9.229,16,9.614,15.612
	l0.313-0.314c0.385-0.39,0.997-0.404,1.367-0.037l3.12,3.095c0.37,0.369,0.358,0.979-0.026,1.369L14.074,20.04z"/>
<path fill="#F79523" d="M10.633,16.532c-0.392,0.394-1.008,0.414-1.379,0.047l-5.332-6.365c-0.37-0.367-0.354-0.984,0.037-1.379
	l4.842-4.88c0.391-0.394,1.008-0.415,1.378-0.048l5.87,5.826c0.37,0.367,0.354,0.985-0.037,1.378L10.633,16.532z"/>
<path fill="#52CAF5" d="M6.683,11.865c0.448,0.46,0.416,1.219-0.072,1.692l-1.293,1.257c-0.488,0.475-1.245,0.484-1.693,0.023l0,0
	c-0.448-0.46-0.416-1.218,0.071-1.691l1.294-1.257C5.477,11.415,6.234,11.404,6.683,11.865L6.683,11.865z"/>
<path fill="#52CAF5" d="M8.269,13.497c0.448,0.461,0.416,1.218-0.072,1.69l-1.293,1.259C6.416,16.92,5.658,16.931,5.21,16.47l0,0
	c-0.448-0.46-0.416-1.218,0.071-1.691l1.294-1.258C7.063,13.047,7.82,13.037,8.269,13.497L8.269,13.497z"/>
<path fill="#52CAF5" d="M9.854,15.128c0.448,0.461,0.416,1.218-0.071,1.692l-1.295,1.257c-0.487,0.474-1.245,0.484-1.692,0.023l0,0
	c-0.448-0.46-0.417-1.218,0.071-1.691l1.293-1.258C8.648,14.678,9.406,14.667,9.854,15.128L9.854,15.128z"/>
<path fill="#52CAF5" d="M11.439,16.76c0.448,0.46,0.417,1.218-0.071,1.691l-1.294,1.258c-0.487,0.474-1.245,0.483-1.693,0.022l0,0
	c-0.448-0.46-0.416-1.217,0.072-1.69l1.293-1.258C10.234,16.309,10.991,16.299,11.439,16.76L11.439,16.76z"/>
<path fill="#52CAF5" d="M18.552,12.187l3.12-3.247c0,0-4.017-4.017-4.498-4.499c-0.484-0.481-4.339-1.406-4.339-1.406
	s-1.446-0.482-1.928-0.281c-0.482,0.2-1.286,0.522-1.567,1.125S7.332,8.257,7.332,8.257s-0.482,1.445,0.724,1.929
	c1.205,0.481,1.967-1.085,1.967-1.085l0.603-1.486c0,0,0.41-0.553,1.045-0.684c0.819-0.168,1.351,0.204,1.351,0.204L18.552,12.187z"
	/>
<rect x="-0.197" y="3.128" transform="matrix(0.7109 -0.7033 0.7033 0.7109 -2.0598 4.5959)" fill="#F79523" width="9.515" height="3.352"/>
<rect x="15.949" y="2.861" transform="matrix(0.7109 0.7033 -0.7033 0.7109 9.177 -13.2509)" fill="#52CAF5" width="9.514" height="3.352"/>
</svg>
