<?xml version="1.0" encoding="utf-8"?>
<svg version="1.1"
	 xmlns="http://www.w3.org/2000/svg" xmlns:xlink="http://www.w3.org/1999/xlink"
	 x="0px" y="0px" width="48px" height="48px" viewBox="-2.162 -7.19 48 48">
<defs>
</defs>
<path fill="#C8691C" d="M43.102,13.878H1.051v13.748c0,0,0,0.21,0,0.317c0,3.261,9.414,5.903,21.025,5.903
	c11.613,0,21.025-2.643,21.025-5.903c0-0.107-0.038-0.213-0.057-0.317h0.057V13.878z"/>
<ellipse fill="#FCB51E" cx="22.076" cy="15.186" rx="22.076" ry="6.198"/>
<ellipse fill="#F79523" cx="22.076" cy="14.122" rx="21.025" ry="5.902"/>
<ellipse fill="#414042" cx="17.724" cy="13.503" rx="9.866" ry="2.858"/>
<polygon fill="#52CAF5" points="1.292,28.826 7.989,20.03 12.094,33.139 10.764,32.917 7.546,22.821 2.059,29.753 1.575,29.291 "/>
<polygon fill="#52CAF5" points="24.266,33.807 17.206,21.167 11.54,32.978 12.785,33.277 17.426,23.928 22.421,33.825 
	23.235,33.825 "/>
<polygon fill="#52CAF5" points="35.28,32.568 28.283,21.123 22.837,33.553 24.083,33.853 28.502,23.885 33.641,32.79 34.307,32.701 
	"/>
<polygon fill="#52CAF5" points="43.161,26.435 39.182,19.925 33.735,32.358 34.981,32.657 39.402,22.687 42.92,28.788 
	43.255,27.649 "/>
<path fill="#3588A6" d="M41.763,0l-18.18,7.597c-0.94-0.938-2.996-1.068-5.044-0.214c-2.405,1.006-3.869,2.982-3.271,4.413
	c0.598,1.433,3.033,1.777,5.438,0.773c2.048-0.856,3.399-2.411,3.392-3.739l18.18-7.597L41.763,0z"/>
<path fill="#84D5F7" d="M3.117,7.788l17.386,7.266c0.899-0.897,2.866-1.022,4.824-0.204c2.302,0.96,3.701,2.851,3.13,4.22
	c-0.573,1.369-2.901,1.698-5.201,0.738c-1.959-0.818-3.251-2.307-3.245-3.577L2.624,8.967L3.117,7.788z"/>
</svg>
