<?xml version="1.0" encoding="utf-8"?>
<svg version="1.1"
	 xmlns="http://www.w3.org/2000/svg" xmlns:xlink="http://www.w3.org/1999/xlink"
	 x="0px" y="0px" width="48px" height="48px" viewBox="-6.233 -2.525 48 48">
<defs>
</defs>
<path fill="#F79523" d="M32.216,2.178h-5.339v0.513c0,1.833-1.484,3.318-3.319,3.318H12.488c-1.832,0-3.318-1.485-3.318-3.318V2.178
	H3.318C1.486,2.178,0,3.664,0,5.497v34.362c0,1.833,1.486,3.318,3.318,3.318h28.897c1.832,0,3.317-1.485,3.317-3.318V5.497
	C35.533,3.664,34.048,2.178,32.216,2.178z"/>
<path fill="#E6E7E8" d="M26.742,34.768c-1.262,1.471-8.831,2.102-8.831,2.102H6.558V8.906h21.657V27.83
	C28.215,27.83,28.004,33.296,26.742,34.768z"/>
<path fill="#BCBEC0" d="M28.215,27.83c0,0-0.211,5.467-1.473,6.938c-1.262,1.471-8.831,2.102-8.831,2.102L28.215,27.83z"/>
<path fill="#3588A6" d="M25.36,2.452c0,1.354-1.175,2.452-2.629,2.452h-9.93c-1.451,0-2.628-1.098-2.628-2.452l0,0
	C10.174,1.098,11.351,0,12.802,0h9.93C24.186,0,25.36,1.098,25.36,2.452L25.36,2.452z"/>
</svg>
