<?xml version="1.0" encoding="utf-8"?>
<svg version="1.1"
	 xmlns="http://www.w3.org/2000/svg" xmlns:xlink="http://www.w3.org/1999/xlink"
	 x="0px" y="0px" width="48px" height="48px" viewBox="-2.39 -4.16 48 48">
<defs>
</defs>
<path fill="#F79523" d="M36.928,2.75v3.146c0,1.284-1.041,2.325-2.324,2.325c-1.285,0-2.326-1.041-2.326-2.325V2.75H10.668v3.146
	c0,1.284-1.041,2.325-2.326,2.325c-1.285,0-2.325-1.041-2.325-2.325V2.75H0v36.93h43.219V2.75H36.928z"/>
<polygon fill="#C8691C" points="28.174,39.68 43.219,39.68 43.219,24.36 "/>
<path fill="#3588A6" d="M9.095,5.567c0,0.415-0.336,0.752-0.752,0.752l0,0c-0.416,0-0.752-0.337-0.752-0.752V0.753
	C7.591,0.337,7.927,0,8.343,0l0,0c0.416,0,0.752,0.337,0.752,0.753V5.567z"/>
<path fill="#3588A6" d="M35.356,5.567c0,0.415-0.336,0.752-0.752,0.752l0,0c-0.416,0-0.752-0.337-0.752-0.752V0.753
	C33.852,0.337,34.188,0,34.604,0l0,0c0.416,0,0.752,0.337,0.752,0.753V5.567z"/>
<rect x="4.65" y="13.145" fill="#733800" width="9.613" height="7.512"/>
<rect x="16.667" y="13.145" fill="#733800" width="9.613" height="7.512"/>
<rect x="28.684" y="13.145" fill="#733800" width="9.611" height="7.512"/>
<rect x="4.65" y="22.992" fill="#733800" width="9.613" height="7.511"/>
<rect x="15.705" y="22.24" fill="#ED1C24" width="11.536" height="9.015"/>
<path fill="#FFFFFF" d="M27.473,31.55h-12v-9.603h12V31.55z M16.252,30.708h10.442v-7.919H16.252V30.708z"/>
</svg>
