<?xml version="1.0" encoding="utf-8"?>
<svg version="1.1"
	 xmlns="http://www.w3.org/2000/svg" xmlns:xlink="http://www.w3.org/1999/xlink"
	 x="0px" y="0px" width="28px" height="28px" viewBox="-2.528 -1.164 28 28">
<defs>
</defs>
<path fill="#C8691C" d="M19.867,25.334l4.439-0.226c0.209-5.952-1.706-11.813-5.228-16.22C15.275,4.13,8.979,0.677,2.106,0
	L1.373,4.239c5.575,0.516,10.906,3.138,14.294,7.376C18.678,15.386,20.103,20.372,19.867,25.334z"/>
<path fill="#C8691C" d="M11.798,25.742l4.349-0.219c0.311-4.009-0.82-8.122-3.511-11.491c-3.019-3.78-7.387-5.85-11.902-6.109
	L0,12.156c3.506,0.081,6.932,1.639,9.271,4.569C11.381,19.362,12.164,22.612,11.798,25.742z"/>
<path fill="#C8691C" d="M7.2,21.391c-0.275,1.588-1.786,2.652-3.375,2.381c-1.589-0.278-2.654-1.789-2.378-3.378
	c0.275-1.588,1.786-2.653,3.375-2.378S7.476,19.802,7.2,21.391z"/>
<path fill="#F79523" d="M6.465,18.925c-0.421-0.459-0.982-0.794-1.643-0.909c-1.589-0.275-3.1,0.79-3.375,2.378
	c-0.159,0.917,0.138,1.8,0.715,2.442L6.465,18.925z"/>
<path fill="#F79523" d="M15.161,11.02l3.233-2.94C14.546,3.742,8.583,0.638,2.106,0L1.373,4.239
	C6.68,4.73,11.762,7.134,15.161,11.02z"/>
<path fill="#F79523" d="M11.803,25.664c-0.003,0.026-0.002,0.052-0.005,0.078l0.541-0.027L11.803,25.664z"/>
<path fill="#F79523" d="M9.098,16.531l3.185-2.895C9.281,10.118,5.082,8.173,0.734,7.923L0,12.156
	C3.424,12.234,6.764,13.733,9.098,16.531z"/>
</svg>
