<?xml version="1.0" encoding="utf-8"?>
<svg version="1.1"
	 xmlns="http://www.w3.org/2000/svg" xmlns:xlink="http://www.w3.org/1999/xlink"
	 x="0px" y="0px" width="28px" height="28px" viewBox="-0.923 -1.813 28 28">
<defs>
</defs>
<rect x="10.272" y="20.024" fill="#C8691C" width="5.717" height="3.252"/>
<path fill="#6D6E71" d="M25.483,17.255c0,1.13-0.915,2.045-2.043,2.045H2.318c-1.127,0-1.667-0.915-1.667-2.045V2.699
	c0-1.129,0.916-2.043,2.043-2.043h21.122c1.128,0,2.044,0.915,2.044,2.043L25.483,17.255z"/>
<path fill="#4A4B4C" d="M2.318,19.3h19.299C16.103,14.276,6.43,4.777,2.094,0.755C1.261,1.013,0.651,1.78,0.651,2.699v14.556
	C0.651,18.385,1.191,19.3,2.318,19.3z"/>
<polygon fill="#52CAF5" points="11.289,9.283 5.574,3.569 6.625,2.52 13.389,9.283 6.625,16.047 5.574,14.996 "/>
<polygon fill="#3588A6" points="11.158,9.42 12.225,10.467 6.625,16.047 5.574,14.996 "/>
<rect x="12.672" y="14.722" fill="#52CAF5" width="8.11" height="1.582"/>
<path fill="#F79523" d="M24.997,0H1.264C0.566,0,0,0.566,0,1.264v17.712c0,0.697,0.566,1.263,1.264,1.263h23.733
	c0.697,0,1.264-0.565,1.264-1.263V1.264C26.26,0.566,25.694,0,24.997,0z M24.794,17.744c0,0.663-0.285,0.948-0.947,0.948H2.414
	c-0.663,0-0.948-0.285-0.948-0.948V2.365c0-0.663,0.285-0.949,0.948-0.949h21.434c0.662,0,0.947,0.286,0.947,0.949V17.744z"/>
<path fill="#F79523" d="M16.206,23.088h-6.151c-0.71,0-1.287,0.576-1.287,1.287h8.727C17.494,23.664,16.917,23.088,16.206,23.088z"
	/>
<polygon fill="#3588A6" points="18.462,16.304 12.672,16.304 12.672,14.722 16.726,14.724 "/>
</svg>
