<?xml version="1.0" encoding="utf-8"?>
<svg version="1.1"
	 xmlns="http://www.w3.org/2000/svg" xmlns:xlink="http://www.w3.org/1999/xlink"
	 x="0px" y="0px" width="28px" height="28px" viewBox="-2.22 -1.167 28 28">
<defs>
</defs>
<rect x="13.098" y="-0.58" transform="matrix(0.9469 -0.3216 0.3216 0.9469 -3.4099 5.0341)" fill="#3588A6" width="0.865" height="26.834"/>
<path fill="#F79523" d="M23.94,4.595c-0.037-0.107-0.091-0.204-0.143-0.302l0.109-0.038c-2.715-3.16-8.409-4.215-14.088-2.272
	c-5.371,1.837-9.106,5.8-9.674,9.746c-0.174,0.483-0.2,1.007-0.028,1.511c0.437,1.274,1.94,1.916,3.358,1.432
	c1.034-0.354,1.731-1.21,1.867-2.141c0.67,0.723,1.798,1.012,2.88,0.641c1.141-0.39,1.866-1.39,1.886-2.429
	c0.681,0.601,1.713,0.825,2.709,0.484c1.038-0.355,1.736-1.216,1.87-2.151c0.681,0.587,1.701,0.805,2.688,0.467
	c1.14-0.389,1.865-1.387,1.886-2.425c0.666,0.739,1.804,1.039,2.897,0.665C23.579,7.298,24.375,5.87,23.94,4.595z"/>
<polygon fill="#C8691C" points="6.486,20.477 7.876,25.342 14.306,25.169 15.176,20.477 "/>
<ellipse fill="#C8691C" cx="11.121" cy="20.658" rx="2.173" ry="2.433"/>
<rect x="9.643" y="17.439" fill="#52CAF5" width="2.956" height="1.564"/>
<ellipse fill="#52CAF5" cx="11.12" cy="19.003" rx="2.607" ry="0.521"/>
<path fill="#C8691C" d="M23.94,4.595c-0.037-0.107-0.091-0.204-0.143-0.302l0.109-0.038c-2.715-3.16-8.409-4.215-14.088-2.272
	C9.776,1.999,9.735,2.016,9.693,2.03l3.247,9.145c0.969-0.379,1.621-1.203,1.748-2.099c0.681,0.587,1.701,0.805,2.688,0.467
	c1.14-0.389,1.865-1.387,1.886-2.425c0.666,0.739,1.804,1.039,2.897,0.665C23.579,7.298,24.375,5.87,23.94,4.595z"/>
</svg>
