<?xml version="1.0" encoding="utf-8"?>
<!-- Generator: Adobe Illustrator 15.0.0, SVG Export Plug-In  -->
<!DOCTYPE svg PUBLIC "-//W3C//DTD SVG 1.1//EN" "http://www.w3.org/Graphics/SVG/1.1/DTD/svg11.dtd" [
	<!ENTITY ns_flows "http://ns.adobe.com/Flows/1.0/">
]>
<svg version="1.1"
	 xmlns="http://www.w3.org/2000/svg" xmlns:xlink="http://www.w3.org/1999/xlink" xmlns:a="http://ns.adobe.com/AdobeSVGViewerExtensions/3.0/"
	 x="0px" y="0px" width="28px" height="28px" viewBox="-1.779 -1 28 28"
	 xml:space="preserve">
<defs>
</defs>
<path d="M12.254,4.181c-1.438,0.063-1.469-1.516-0.844-2.234C11.832,1.478,12.035,1.322,12.011,0c0,0,0.699,1.087,1.024,1.947
	C13.348,2.775,13.363,4.103,12.254,4.181z"/>
<path d="M1.021,14.277C0.906,14.6,0.832,14.94,0.832,15.3v2.516c0.532,0.737,1.563,1.284,2.7,1.284c1.2,0,2.225-0.799,2.725-1.599
	h0.3c0.4,0.9,1.476,1.799,2.775,1.799c1.301,0,2.325-0.898,2.825-1.698h0.3c0.399,0.899,1.476,1.799,2.775,1.799
	s2.324-0.899,2.824-1.699h0.2c0.5,0.8,1.575,1.699,2.775,1.699c1.143,0,2.094-0.554,2.7-1.383V15.3c0-0.361-0.075-0.704-0.191-1.028
	c0.307-0.372,0.491-0.808,0.491-1.271c0.1-0.6-0.1-1.1-0.4-1.5c0-0.1,0-0.1,0-0.2c0-0.6-0.5-1.2-1.199-1.2h-9V5.9h-2.4v4.3h-9
	c-0.6,0-1.2,0.5-1.2,1.2c0,0,0,0,0,0.1c-0.3,0.4-0.5,0.8-0.5,1.3C0.332,13.354,0.598,13.865,1.021,14.277z"/>
<path d="M24.032,24.9c-0.5-0.4-1-0.5-1.2-0.5c0.601-0.601,0.9-1.301,0.9-2.2V19.1c-0.4,0.801-1.5,1.2-2.7,1.2
	c-1.3,0-2.5-0.7-2.9-1.6c-0.399,0.899-1.6,1.6-2.899,1.6c-1.4,0-2.5-0.7-2.9-1.7c-0.399,1-1.5,1.7-2.899,1.7c-1.5,0-2.601-0.8-3-1.8
	c-0.4,0.9-1.5,1.6-2.9,1.6c-1.2,0-2.2-0.5-2.7-1.199v3.3c0,0.899,0.301,1.6,0.9,2.2h-0.2c0,0-0.5,0-1.1,0.6c-0.601,0.6-0.4,1-0.4,1
	h24.4C24.433,26,24.532,25.5,24.032,24.9z"/>
</svg>
