<?xml version="1.0" encoding="utf-8"?>
<!DOCTYPE svg PUBLIC "-//W3C//DTD SVG 1.1//EN" "http://www.w3.org/Graphics/SVG/1.1/DTD/svg11.dtd" [
	<!ENTITY ns_flows "http://ns.adobe.com/Flows/1.0/">
]>
<svg version="1.1"
	 xmlns="http://www.w3.org/2000/svg" x="0px" y="0px" width="48px" height="48px" viewBox="-8.35 -4.7 48 48">
<defs>
</defs>
<path d="M0,38.6h31.3V0H0V38.6z M28.5,35.8H2.8v-33h25.7V35.8z"/>
<rect x="10.7" y="8.8" width="14.6" height="2.3"/>
<rect x="10.7" y="15.6" width="14.6" height="2.3"/>
<rect x="10.8" y="22.399" width="14.6" height="2.301"/>
<polygon points="7.1,7.5 7.8,9 9.5,9.2 8.3,10.4 8.6,12 7.1,11.3 5.6,12 5.9,10.4 4.7,9.2 6.4,9 "/>
<polygon points="7.1,14.5 7.8,15.9 9.5,16.2 8.3,17.3 8.6,19 7.1,18.2 5.6,19 5.9,17.3 4.7,16.2 6.4,15.9 "/>
<polygon points="7.1,21.399 7.8,22.899 9.5,23.101 8.3,24.3 8.6,25.9 7.1,25.1 5.6,25.9 5.9,24.3 4.7,23.101 6.4,22.899 "/>
</svg>
