<?xml version="1.0" encoding="utf-8"?>
<!-- Generator: Adobe Illustrator 15.0.0, SVG Export Plug-In  -->
<!DOCTYPE svg PUBLIC "-//W3C//DTD SVG 1.1//EN" "http://www.w3.org/Graphics/SVG/1.1/DTD/svg11.dtd" [
	<!ENTITY ns_flows "http://ns.adobe.com/Flows/1.0/">
]>
<svg version="1.1"
	 xmlns="http://www.w3.org/2000/svg" xmlns:xlink="http://www.w3.org/1999/xlink" xmlns:a="http://ns.adobe.com/AdobeSVGViewerExtensions/3.0/"
	 x="0px" y="0px" width="48px" height="48px" viewBox="-2.943 -2.943 48 48"
	 xml:space="preserve">
<defs>
</defs>
<path d="M21.057,0C9.428,0,0,9.428,0,21.057c0,11.631,9.428,21.057,21.057,21.057c11.63,0,21.057-9.426,21.057-21.057
	C42.114,9.428,32.687,0,21.057,0z M21.057,39.249c-10.047,0-18.192-8.143-18.192-18.191c0-10.047,8.145-18.192,18.192-18.192
	c10.049,0,18.191,8.145,18.191,18.192C39.249,31.106,31.106,39.249,21.057,39.249z"/>
<path d="M21.057,6.226c-8.191,0-14.831,6.64-14.831,14.831c0,8.191,6.64,14.831,14.831,14.831c8.191,0,14.831-6.64,14.831-14.831
	C35.888,12.866,29.249,6.226,21.057,6.226z M20.925,31.42c-1.027,0-1.753-0.817-1.753-1.875c0-1.118,0.756-1.904,1.784-1.904
	c1.087,0,1.783,0.786,1.783,1.904C22.739,30.603,22.043,31.42,20.925,31.42z M23.859,20.052c-1.329,1.571-1.813,2.933-1.723,4.474
	l0.062,0.756h-2.391v0.002l-0.061-0.785c-0.182-1.604,0.363-3.417,1.875-5.231c1.36-1.602,2.117-2.781,2.117-4.142
	c0-1.542-0.968-2.569-2.874-2.6c-1.088,0-2.298,0.363-3.054,0.937l-0.724-1.905c1.027-0.726,2.72-1.209,4.323-1.209
	c3.478,0,5.049,2.146,5.049,4.444C26.459,16.848,25.31,18.329,23.859,20.052z"/>
</svg>
