<?xml version="1.0" encoding="utf-8"?>
<svg version="1.1"
	 xmlns="http://www.w3.org/2000/svg" xmlns:xlink="http://www.w3.org/1999/xlink"
	 x="0px" y="0px" width="48px" height="48px" viewBox="-4 -5.7 48 48">
<defs>
</defs>
<path fill="#43A4C7" d="M40.1,33.8c0,1.7-1.5,3.2-3.3,3.2H3.3c-1.8,0-3.3-1.4-3.3-3.2V3.2C0,1.4,1.5,0,3.3,0h33.6
	c1.8,0,3.3,1.4,3.3,3.2V33.8z"/>
<path fill="#3588A6" d="M35.5,12.1L36.9,0c1.8,0,3.3,1.4,3.3,3.2v12.9L35.5,12.1z"/>
<path fill="#C8691C" d="M3.3,36.9h33.6c1.8,0,3.3-1.4,3.3-3.2V15.6l-4.6-3.5l-14.9,7.5l-9.9-7.9L0,18.9L0,19v14.7
	C0,35.5,1.5,36.9,3.3,36.9"/>
<polygon fill="#F79523" points="10.7,11.7 20.6,19.6 35.5,12.1 20.7,22 "/>
<path fill="#FCB51E" d="M26.3,10.3c0,2.1-1.7,3.9-3.9,3.9c-2.1,0-3.9-1.7-3.9-3.9c0-2.1,1.7-3.9,3.9-3.9
	C24.5,6.5,26.3,8.2,26.3,10.3"/>
<path fill="#BA6218" d="M36.9,36.9c1.8,0,3.3-1.4,3.3-3.2V15.6l-4.6-3.5L36.9,36.9z"/>
<polygon fill="#F9ED32" points="28.6,31.3 13,31.3 9.4,28.3 13,24.9 28.6,24.9 "/>
<rect x="17.6" y="20.1" fill="#F9ED32" width="6.3" height="15.6"/>
</svg>
