<?xml version="1.0" encoding="utf-8"?>
<svg version="1.1"
	 xmlns="http://www.w3.org/2000/svg" xmlns:xlink="http://www.w3.org/1999/xlink" x="0px" y="0px" width="48px" height="48px" viewBox="0 0 48 48">
<defs>
</defs>
<circle fill="#F79523" cx="23.905" cy="23.55" r="21.244"/>
<path fill="#FCB51E" d="M23.903,2.307c-3.801,0-7.357,1.009-10.443,2.756c9.755,10.263,16.683,23.224,19.561,37.656
	c7.167-3.418,12.128-10.702,12.128-19.169C45.148,11.819,35.637,2.307,23.903,2.307z"/>
<polygon fill="#E6E7E8" points="34.233,23.55 18.973,36.117 18.973,10.987 "/>
<path fill="#FFFFFF" d="M28.592,28.194l5.642-4.645L18.973,10.987v0.525C22.844,16.61,26.085,22.209,28.592,28.194z"/>
<g>
	<path fill="#52CAF5" d="M10.982,32.907c-1.377,0-2.5-1.121-2.5-2.499l0.001-3.949h-3.95c-1.379-0.001-2.5-1.123-2.5-2.501
		c0-1.378,1.123-2.5,2.501-2.5l3.949,0.001l-0.001-3.951c0-1.378,1.122-2.5,2.501-2.5c1.377,0,2.499,1.121,2.5,2.499v3.951
		l3.949-0.001c1.376,0.001,2.498,1.122,2.5,2.499c0,1.38-1.122,2.502-2.5,2.502h-3.949v3.949
		C13.482,31.786,12.36,32.907,10.982,32.907z"/>
	<path fill="#FFFFFF" d="M10.983,15.509c1.104,0,1.999,0.895,2,2v4.451l4.449-0.001c1.104,0.001,1.999,0.896,2,2
		c0,1.106-0.896,2.001-2,2.001h-4.449v4.449c-0.001,1.104-0.895,1.999-2,1.999c-1.105,0-2-0.896-2-1.999l0.001-4.449h-4.45
		c-1.105-0.001-2-0.896-2-2.001c0-1.104,0.895-2,2.001-2l4.449,0.001l-0.001-4.451C8.982,16.403,9.877,15.509,10.983,15.509
		 M10.983,14.509c-1.655,0-3.001,1.346-3.001,3l0.001,3.451l-3.449-0.001c-1.654,0-3,1.345-3.001,2.999c0,1.654,1.345,3,2.999,3.002
		h3.451l-0.001,3.449c0.001,1.654,1.348,2.999,3,2.999s2.999-1.345,3-2.998v-3.45h3.449c1.654,0,3-1.347,3-3.001
		c-0.003-1.653-1.349-2.998-3-3l-3.45,0.001v-3.451C13.981,15.854,12.636,14.509,10.983,14.509L10.983,14.509z"/>
</g>
<g>
	<path fill="#3588A6" d="M17.432,21.958l-4.449,0.001v-4.451c-0.001-1.068-0.842-1.935-1.897-1.989v16.879
		c1.055-0.057,1.896-0.921,1.897-1.99v-4.449h4.449c1.104,0,2-0.896,2-2.001C19.43,22.854,18.536,21.959,17.432,21.958z"/>
</g>
</svg>
