<?xml version="1.0" encoding="utf-8"?>
<svg version="1.1"
	 xmlns="http://www.w3.org/2000/svg" xmlns:xlink="http://www.w3.org/1999/xlink"
	 x="0px" y="0px" width="48px" height="48px" viewBox="-6.318 -3.532 48 48">
<defs>
</defs>
<path fill="#52CAF5" d="M35.363,19.289c0,4.734-3.839,8.573-8.572,8.573H8.573C3.838,27.862,0,24.023,0,19.289V8.573
	C0,3.838,3.838,0,8.573,0h18.218c4.733,0,8.572,3.838,8.572,8.573V19.289z"/>
<path fill="#3588A6" d="M26.791,0h-9.324v27.862h9.324c4.733,0,8.572-3.839,8.572-8.573V8.573C35.363,3.838,31.524,0,26.791,0z"/>
<polygon fill="#FFFFFF" points="16,17.688 20.424,13.719 16,9.814 "/>
<path fill="#C8691C" d="M9.659,32.186l5.57-0.001l-0.001,5.57c0.001,1.383,1.121,2.503,2.504,2.503c1.382,0,2.504-1.12,2.504-2.503
	v-5.571l5.569,0.002c1.384-0.001,2.504-1.121,2.506-2.505c-0.002-1.383-1.122-2.503-2.506-2.503h-5.569v-5.57
	c0-1.38-1.12-2.502-2.504-2.505c-1.383,0.003-2.503,1.123-2.503,2.505v5.57h-5.57C8.276,27.18,7.156,28.3,7.156,29.681
	C7.156,31.064,8.275,32.185,9.659,32.186z"/>
<path fill="#FFFFFF" d="M7.156,29.681c0-1.381,1.12-2.501,2.503-2.503h5.57v-5.57c0-1.382,1.12-2.502,2.503-2.505
	c1.384,0.003,2.504,1.125,2.504,2.505v5.57h5.569c1.384,0,2.504,1.12,2.506,2.503c-0.002,1.384-1.122,2.504-2.506,2.505
	l-5.569-0.002v5.571c0,1.383-1.122,2.503-2.504,2.503c-1.383,0-2.503-1.12-2.504-2.503l0.001-5.57l-5.57,0.001
	C8.275,32.185,7.156,31.064,7.156,29.681 M6.479,29.681L6.479,29.681c0,1.754,1.427,3.181,3.181,3.182l4.894-0.001l-0.002,4.894
	c0.002,1.753,1.428,3.181,3.182,3.181s3.181-1.428,3.181-3.181v-4.894l4.893,0.001c1.754-0.001,3.18-1.428,3.183-3.182
	c-0.003-1.753-1.429-3.181-3.183-3.181h-4.893v-4.893c0-1.752-1.427-3.18-3.181-3.182c-1.754,0.002-3.18,1.43-3.18,3.182V26.5H9.659
	C7.905,26.502,6.479,27.93,6.479,29.681L6.479,29.681z"/>
<path fill="#F79523" d="M9.659,32.186l5.57-0.001l-0.001,5.57c0.001,1.383,1.121,2.503,2.504,2.503c0.032,0,0.062-0.009,0.091-0.009
	V19.115c-0.029-0.003-0.059-0.009-0.091-0.013c-1.383,0.003-2.503,1.123-2.503,2.505v5.57h-5.57
	C8.276,27.18,7.156,28.3,7.156,29.681C7.156,31.064,8.275,32.185,9.659,32.186z"/>
</svg>
