<?xml version="1.0" encoding="utf-8"?>
<svg version="1.1"
	 xmlns="http://www.w3.org/2000/svg" xmlns:xlink="http://www.w3.org/1999/xlink" x="0px" y="0px" width="48px" height="48px" viewBox="0 0 48 48">
<defs>
</defs>
<circle fill="#F79523" cx="23.905" cy="23.55" r="21.244"/>
<path fill="#FCB51E" d="M23.903,2.307c-3.801,0-7.357,1.009-10.443,2.756c9.755,10.263,16.683,23.224,19.561,37.656
	c7.167-3.418,12.128-10.702,12.128-19.169C45.148,11.819,35.637,2.307,23.903,2.307z"/>
<polygon fill="#E6E7E8" points="34.233,23.55 18.973,36.117 18.973,10.987 "/>
<path fill="#FFFFFF" d="M28.592,28.194l5.642-4.645L18.973,10.987v0.525C22.844,16.61,26.085,22.209,28.592,28.194z"/>
<g>
	<path fill="#FFFFFF" d="M8.169,9.127l7.422,21.157l-0.938,5.267l-3.845-3.55L3.375,10.808L8.169,9.127 M8.782,7.853L7.838,8.183
		L3.043,9.864L2.1,10.195l0.331,0.944l7.435,21.193l0.083,0.234l0.183,0.169l3.845,3.55l1.342,1.24l0.32-1.799l0.938-5.267
		l0.046-0.259l-0.087-0.248L9.113,8.796L8.782,7.853L8.782,7.853z"/>
</g>
<rect x="-0.001" y="19.256" transform="matrix(-0.331 -0.9436 0.9436 -0.331 -7.3617 38.3747)" fill="#3588A6" width="19.845" height="5.081"/>
<rect x="4.886" y="8.676" transform="matrix(-0.3312 -0.9436 0.9436 -0.3312 -2.3169 20.7913)" fill="#6D6E71" width="2.648" height="5.082"/>
<polygon fill="#FAA421" points="15.592,30.284 15.085,33.491 13.099,34.191 10.797,31.967 "/>
<polygon points="15.056,33.529 14.671,35.567 13.146,34.197 "/>
<rect x="3.643" y="10.43" transform="matrix(0.3304 0.9438 -0.9438 0.3304 14.3246 3.1151)" fill="#A7A9AC" width="2.648" height="2.447"/>
<polygon fill="#58595B" points="14.068,33.884 13.176,34.201 14.654,35.551 "/>
<polygon fill="#FFD65A" points="14.051,33.855 13.105,31.157 10.797,31.967 13.099,34.191 "/>
<polygon fill="#84D5F7" points="13.108,31.167 6.538,12.439 4.23,13.248 10.776,31.956 "/>
</svg>
