<?xml version="1.0" encoding="utf-8"?>
<svg version="1.1"
	 xmlns="http://www.w3.org/2000/svg" xmlns:xlink="http://www.w3.org/1999/xlink"
	 x="0px" y="0px" width="48px" height="48px" viewBox="-4.162 -3.141 48 48">
<defs>
</defs>
<path fill="#F79523" d="M37.159,0H2.857C1.28,0,0,1.583,0,3.533v20.57c0,1.951,1.28,3.531,2.857,3.531h4.268l3.53,12.248
	l9.988-12.294l5.59,0.019l2.086,6.204l0.848-6.198l7.991,0.021c1.578,0,2.858-1.58,2.858-3.531V3.533
	C40.017,1.583,38.737,0,37.159,0 M36.15,22.33c0,1.574-1.032,1.783-2.303,1.783l-5.054,0.098l-0.474,6.104l-3.273-6.201h-7.351
	l-5.908,8.363l-1.441-8.382l-5.241,0.019c-1.271,0-1.237-1.276-1.237-2.851V6c0-1.574,1.035-1.783,2.306-1.783h28.741
	c1.27,0,1.234,1.276,1.234,2.851V22.33z"/>
<path fill="#C8691C" d="M36.137,6.889c0.002,0.061,0.014,0.116,0.014,0.178V22.33c0,1.574-1.033,1.782-2.304,1.782L29.05,24.21
	l-0.646,6.103l-3.4-6.155l-7.31-0.046l-5.909,8.364l-1.417-8.263l-3.121,3.979l3.186,12.574L20.559,27.63l1.599,0.083l7.405,11.395
	L32.9,27.55l4.26,0.083c1.577,0,2.857-1.578,2.857-3.528V3.535c0-0.471-0.077-0.916-0.212-1.325L36.137,6.889z"/>
<rect x="7.743" y="8.29" fill="#52CAF5" width="23.874" height="2.48"/>
<rect x="7.743" y="13.25" fill="#52CAF5" width="23.874" height="2.48"/>
<rect x="7.743" y="18.209" fill="#52CAF5" width="23.874" height="2.48"/>
</svg>
