<?xml version="1.0" encoding="utf-8"?>
<svg version="1.1"
	 xmlns="http://www.w3.org/2000/svg" xmlns:xlink="http://www.w3.org/1999/xlink"
	 x="0px" y="0px" width="48px" height="48px" viewBox="0 0 48 48">
<defs>
</defs>
<path fill="#F89624" d="M41.963,10.303h-8.016C32.857,5.815,28.822,2.479,24,2.479c-4.823,0-8.856,3.336-9.948,7.823H6.035
	c-2.007,0-3.634,1.627-3.634,3.633v27.951c0,2.007,1.627,3.634,3.634,3.634h35.93c2.01,0,3.635-1.627,3.635-3.634V13.936
	C45.598,11.93,43.973,10.303,41.963,10.303z M24,9.255c-1.217,0-2.203-0.986-2.203-2.202c0-1.216,0.986-2.203,2.203-2.203
	c1.215,0,2.201,0.986,2.201,2.203C26.201,8.271,25.215,9.255,24,9.255z"/>
<path fill="#C86B28" d="M43.663,45.099c1.151-0.61,1.935-1.818,1.935-3.212V13.936c0-2.006-1.625-3.633-3.635-3.633h-8.016
	C32.857,5.815,28.822,2.479,24,2.479c-3.004,0-5.7,1.295-7.572,3.355C16.428,5.834,43.574,45.146,43.663,45.099z M24,4.851
	c1.215,0,2.201,0.986,2.201,2.203c0,1.217-0.985,2.202-2.201,2.202c-1.217,0-2.203-0.986-2.203-2.202
	C21.797,5.837,22.783,4.851,24,4.851z"/>
<polygon fill="#56CAF5" points="35.414,15.523 35.414,18.572 32.533,18.572 32.533,15.523 15.085,15.523 15.085,18.572 
	12.205,18.572 12.205,15.523 6.784,15.523 6.784,40.947 40.664,40.947 40.664,15.523 "/>
<polygon fill="#3689A6" points="23.063,15.505 40.664,40.947 40.664,15.523 35.414,15.523 35.414,18.572 32.533,18.572 
	32.533,15.523 "/>
<path fill="#3689A6" d="M14.238,17.387c0,0.375-0.303,0.678-0.678,0.678l0,0c-0.374,0-0.677-0.303-0.677-0.678v-2.71
	c0-0.375,0.303-0.678,0.677-0.678l0,0c0.375,0,0.678,0.303,0.678,0.678V17.387z"/>
<path fill="#3689A6" d="M34.566,17.387c0,0.375-0.305,0.678-0.678,0.678l0,0c-0.375,0-0.678-0.303-0.678-0.678v-2.71
	c0-0.375,0.303-0.678,0.678-0.678l0,0c0.373,0,0.678,0.303,0.678,0.678V17.387z"/>
<rect x="11.019" y="23.146" fill="#FFFFFF" width="26.088" height="1.864"/>
<rect x="11.019" y="28.229" fill="#FFFFFF" width="26.088" height="1.864"/>
</svg>
