<?xml version="1.0" encoding="utf-8"?>
<svg version="1.1"
	 xmlns="http://www.w3.org/2000/svg" xmlns:xlink="http://www.w3.org/1999/xlink"
	 x="0px" y="0px" width="48px" height="48px" viewBox="0 0 48 48">
<defs>
</defs>
<path fill="#F79523" d="M45.334,38.898c2.059,3.977-0.021,7.23-4.619,7.23H7.284c-4.596,0-6.676-3.254-4.62-7.23L20.261,4.854
	c2.056-3.978,5.417-3.978,7.476,0L45.334,38.898z"/>
<path fill="#C8691C" d="M45.334,38.898L27.737,4.854c-2.059-3.978-5.42-3.978-7.476,0l-1.969,3.809
	c6.477,5.175,10.63,13.136,10.63,22.071c0,5.681-1.683,10.966-4.568,15.395h16.36C45.313,46.129,47.393,42.875,45.334,38.898z"/>
<path fill="#FFFFFF" d="M24.02,12.914c-7.504-0.638-0.08,21.513-0.08,21.513S31.526,12.275,24.02,12.914z"/>
<circle fill="#FFFFFF" cx="24" cy="38.256" r="2.844"/>
<path fill="#D1D3D4" d="M27.16,20.901c0.503-4.468,0.025-8.256-3.14-7.987c-0.499-0.042-0.927,0.022-1.301,0.167
	C24.59,15.414,26.1,18.047,27.16,20.901z"/>
</svg>
