<?xml version="1.0" encoding="utf-8"?>
<svg version="1.1"
	 xmlns="http://www.w3.org/2000/svg" xmlns:xlink="http://www.w3.org/1999/xlink"
	 x="0px" y="0px" width="28px" height="28px" viewBox="-3.461 -2.127 28 28">
<defs>
</defs>
<path fill="#F79523" d="M0.38,0v23.544h2.298c0.138-0.861,0.88-1.524,1.783-1.524c0.902,0,1.644,0.663,1.782,1.524h2.534
	c0.139-0.861,0.881-1.524,1.783-1.524c0.903,0,1.645,0.663,1.781,1.524h2.536c0.139-0.861,0.88-1.524,1.78-1.524
	c0.903,0,1.646,0.663,1.785,1.524h2.18V0H0.38z"/>
<rect x="4.524" y="4.584" fill="#FFFFFF" width="12.531" height="2"/>
<rect x="4.524" y="9.584" fill="#FFFFFF" width="12.531" height="1"/>
<rect x="4.524" y="13.584" fill="#FFFFFF" width="12.531" height="1"/>
<polygon fill="#52CAF5" points="0,11.864 3.034,10.194 2.185,8.374 8.616,9.708 5.218,16.141 4.611,14.199 0,16.756 "/>
<polygon fill="#3588A6" points="8.616,9.708 5.218,16.141 4.611,14.199 0,16.756 0,14.199 "/>
</svg>
