<?xml version="1.0" encoding="utf-8"?>
<!-- Generator: Adobe Illustrator 15.0.0, SVG Export Plug-In  -->
<!DOCTYPE svg PUBLIC "-//W3C//DTD SVG 1.1//EN" "http://www.w3.org/Graphics/SVG/1.1/DTD/svg11.dtd" [
	<!ENTITY ns_flows "http://ns.adobe.com/Flows/1.0/">
]>
<svg version="1.1"
	 xmlns="http://www.w3.org/2000/svg" xmlns:xlink="http://www.w3.org/1999/xlink" xmlns:a="http://ns.adobe.com/AdobeSVGViewerExtensions/3.0/"
	 x="0px" y="0px" width="48px" height="48px" viewBox="-4.376 -3.857 48 48" enable-background="new -4.376 -3.857 48 48"
	 xml:space="preserve">
<defs>
</defs>
<path fill="#F89624" d="M8.248,0.7v37.7h31V0.7l-15.1,10.8L8.248,0.7z M35.349,34.4h-23.2V7.1l12,8.5l11.1-8.5v27.3H35.349z"/>
<polygon fill="#C86B28" points="24.248,11.6 24.248,15.5 35.349,7.1 35.349,34.4 24.248,34.4 24.248,38.4 39.248,38.4 39.248,0.7 
	"/>
<polygon fill="#F89624" points="39.248,3.3 8.248,3.3 8.248,0 39.248,0 "/>
<polygon fill="#52CAF5" points="24.266,26.897 24.266,12.732 6.694,12.732 6.694,26.897 0,26.897 16.315,40.285 30.958,26.897 "/>
<polygon fill="#3588A6" points="24.266,26.897 24.266,12.732 24.298,32.986 30.958,26.897 "/>
<polygon fill="#C86B28" points="24.349,0 24.349,3.3 39.248,3.3 39.248,0 "/>
<path fill="#F1F2F2" d="M19.631,24.338c0.019,0.055,0.03,0.111,0.03,0.169c0,0.814-1.944,1.477-4.343,1.477
	c-2.401,0-4.346-0.662-4.346-1.477c0-0.058,0.012-0.114,0.031-0.169c-1.881,1.226-3.212,3.229-3.532,5.556h15.692
	C22.843,27.566,21.513,25.563,19.631,24.338z"/>
<path fill="#F1F2F2" d="M19.087,20.349c0,2.191-1.688,3.964-3.769,3.964c-2.085,0-3.772-1.773-3.772-3.964
	c0-2.189,1.687-3.964,3.772-3.964C17.399,16.385,19.087,18.16,19.087,20.349z"/>
<path fill="#FFFFFF" d="M14.169,25.93c-1.841-0.171-3.197-0.743-3.197-1.423c0-0.058,0.012-0.114,0.031-0.169
	c-1.881,1.226-3.212,3.229-3.532,5.556h9.081L14.169,25.93z"/>
</svg>
