<?xml version="1.0" encoding="utf-8"?>
<svg version="1.1"
	 xmlns="http://www.w3.org/2000/svg" xmlns:xlink="http://www.w3.org/1999/xlink"
	 x="0px" y="0px" width="48px" height="48px" viewBox="-6.7 -5 48 48">
<defs>
</defs>
<path fill="#F79523" d="M4,0.9v37.3h30.7V0.9L19.8,11.7L4,0.9z M30.8,34.3H7.9v-27l11.9,8.4l11-8.4V34.3z"/>
<polygon fill="#C8691C" points="19.9,11.7 19.9,15.6 30.8,7.3 30.8,34.3 19.9,34.3 19.9,38.2 34.7,38.2 34.7,0.9 "/>
<rect x="11.8" y="26.6" fill="#F79523" width="14.5" height="3.2"/>
<polygon fill="#C8691C" points="20,26.6 20,29.8 26.3,29.8 26.3,26.6 "/>
<rect x="11.8" y="19.4" fill="#F79523" width="14.5" height="3.2"/>
<polygon fill="#C8691C" points="20,19.4 20,22.7 26.3,22.7 26.3,19.4 "/>
<polygon fill="#F79523" points="34.7,3.6 4,3.5 4,0.3 34.7,0.3 "/>
<polygon fill="#C8691C" points="20,0.3 20,3.5 34.7,3.6 34.7,0.3 "/>
<polygon fill="#52CAF5" points="0,6.2 5.6,21.2 9.5,17 16,32.2 19.9,28 23.6,36.8 20.4,20.9 18,24 12.1,8.6 9.3,11.2 4.8,0 "/>
<polygon fill="#3588A6" points="19.9,28 23.6,36.8 20.4,20.9 20,21.6 "/>
</svg>
