<?xml version="1.0" encoding="utf-8"?>
<svg version="1.1"
	 xmlns="http://www.w3.org/2000/svg" xmlns:xlink="http://www.w3.org/1999/xlink"
	 x="0px" y="0px" width="48px" height="48px" viewBox="-4.165 -5 48 48">
<defs>
</defs>
<path fill="#F89624" d="M8.8,0.7v37.7h31V0.7L24.7,11.5L8.8,0.7z M35.9,34.4H12.7v-27.3l12,8.5l11.1-8.5v27.3H35.9z"/>
<polygon fill="#C86B28" points="24.8,11.601 24.8,15.5 35.9,7.101 35.9,34.4 24.8,34.4 24.8,38.4 39.8,38.4 39.8,0.7 "/>
<rect x="16.7" y="26.6" fill="#F3712A" width="14.7" height="3.301"/>
<polygon fill="#C86B28" points="24.9,26.6 24.9,29.9 31.3,29.9 31.3,26.6 "/>
<rect x="16.7" y="19.399" fill="#F3712A" width="14.7" height="3.301"/>
<polygon fill="#C86B28" points="24.9,19.399 24.9,22.6 31.3,22.7 31.3,19.399 "/>
<polygon fill="#F89624" points="39.8,3.3 8.8,3.3 8.8,0 39.8,0 "/>
<polygon fill="#C86B28" points="24.9,0 24.9,3.3 39.8,3.3 39.8,0 "/>
<circle fill="#56CAF5" cx="13.6" cy="25.2" r="13.6"/>
<path fill="#3689A6" d="M13.6,11.601c-2.1,0-4.2,0.5-6,1.399L15,25.6l-7,12c1.7,0.801,3.6,1.2,5.6,1.2c7.5,0,13.6-6.1,13.6-13.6
	S21.1,11.601,13.6,11.601z"/>
<path fill="#F1F2F2" d="M18.707,25.558c0.021,0.067,0.037,0.138,0.037,0.207c0,0.997-2.381,1.808-5.317,1.808
	c-2.939,0-5.32-0.811-5.32-1.808c0-0.069,0.015-0.14,0.038-0.207c-2.303,1.501-3.933,3.953-4.324,6.802h19.21
	C22.639,29.511,21.01,27.059,18.707,25.558z"/>
<path fill="#F1F2F2" d="M18.041,20.675c0,2.682-2.066,4.854-4.614,4.854c-2.553,0-4.617-2.172-4.617-4.854
	c0-2.68,2.064-4.854,4.617-4.854C15.975,15.821,18.041,17.995,18.041,20.675z"/>
<path fill="#FFFFFF" d="M12.021,27.506c-2.255-0.209-3.914-0.909-3.914-1.741c0-0.069,0.015-0.14,0.038-0.207
	c-2.303,1.501-3.933,3.953-4.324,6.802h11.116L12.021,27.506z"/>
</svg>
