<?xml version="1.0" encoding="utf-8"?>
<!DOCTYPE svg PUBLIC "-//W3C//DTD SVG 1.1//EN" "http://www.w3.org/Graphics/SVG/1.1/DTD/svg11.dtd" [
	<!ENTITY ns_flows "http://ns.adobe.com/Flows/1.0/">
]>
<svg version="1.1"
	 xmlns="http://www.w3.org/2000/svg" x="0px" y="0px" width="48px" height="48px" viewBox="-1.626 -5.109 48 48">
<defs>
</defs>
<path d="M41.622,0H3.125C1.4,0,0,1.399,0,3.125v31.53c0,1.729,1.4,3.126,3.125,3.126h38.497c1.727,0,3.125-1.397,3.125-3.126V3.125
	C44.747,1.399,43.348,0,41.622,0z M20.713,30.029c0,1.47-1.192,2.66-2.662,2.66H5.647c-1.47,0-2.663-1.19-2.663-2.66V6.964
	c0-1.471,1.193-2.663,2.663-2.663h12.404c1.47,0,2.662,1.193,2.662,2.663V9.51c0.374-0.202,0.795-0.327,1.25-0.327
	c1.467,0,2.655,1.19,2.655,2.655c0,1.467-1.188,2.656-2.655,2.656c-0.455,0-0.876-0.125-1.25-0.327v8.385
	c-0.074-0.004-0.145-0.022-0.22-0.022c-1.888,0-3.421,1.531-3.421,3.422s1.532,3.422,3.421,3.422c0.075,0,0.146-0.018,0.22-0.021
	V30.029z M41.762,30.818c0,1.471-1.193,2.662-2.662,2.662H26.696c-1.471,0-2.664-1.191-2.664-2.662v-2.471
	c-0.376,0.204-0.802,0.332-1.26,0.332c-1.465,0-2.654-1.189-2.654-2.658c0-1.465,1.189-2.654,2.654-2.654
	c0.458,0,0.884,0.128,1.26,0.332v-8.471c0.075,0.004,0.146,0.021,0.221,0.021c1.891,0,3.42-1.531,3.42-3.421
	c0-1.889-1.529-3.421-3.42-3.421c-0.074,0-0.146,0.018-0.221,0.023V7.752c0-1.472,1.193-2.663,2.664-2.663H39.1
	c1.469,0,2.662,1.191,2.662,2.662V30.818z"/>
</svg>
