<?xml version="1.0" encoding="utf-8"?>
<!-- Generator: Adobe Illustrator 16.0.0, SVG Export Plug-In . SVG Version: 6.00 Build 0)  -->
<!DOCTYPE svg PUBLIC "-//W3C//DTD SVG 1.1//EN" "http://www.w3.org/Graphics/SVG/1.1/DTD/svg11.dtd">
<svg version="1.1" xmlns="http://www.w3.org/2000/svg" xmlns:xlink="http://www.w3.org/1999/xlink" x="0px" y="0px"
	 width="48px" height="48px" viewBox="0 0 48 48">
<polygon points="33.287,14.299 23.367,13.942 29.457,13.279 39.254,13.897 "/>
<polygon points="23.367,13.942 23.059,8.603 20.72,8.646 24.691,4.852 29.191,8.868 27.516,8.824 29.281,13.279 "/>
<polygon points="25.857,26.988 18.15,26.988 18.15,19.282 14.296,19.282 14.296,26.988 6.589,26.988 6.589,30.843 14.296,30.843 
	14.296,38.55 18.15,38.55 18.15,30.843 25.857,30.843 "/>
<polygon points="25.857,27.076 18.15,27.076 18.15,19.369 14.296,19.369 14.296,27.076 6.589,27.076 6.589,30.931 14.296,30.931 
	14.296,38.638 18.15,38.638 18.15,30.931 25.857,30.931 "/>
<polygon points="4.589,30.931 4.589,27.076 4.589,25.438 3.645,25.438 3.645,32.884 4.589,32.884 "/>
<polygon points="41.135,25.438 41.238,32.884 44.355,32.884 44.355,25.438 "/>
<polygon points="31.672,25.438 27.857,25.438 27.857,27.076 27.857,30.931 27.857,32.884 31.773,32.884 "/>
<polygon points="33.287,14.299 39.209,13.897 39.611,43.148 33.684,43.148 "/>
<polygon points="20.15,23.398 31.643,23.398 31.541,15.952 3.645,15.952 3.645,23.398 12.296,23.398 12.296,19.369 12.296,17.369 
	14.296,17.369 18.15,17.369 20.15,17.369 20.15,19.369 "/>
<polygon points="41.004,15.952 41.107,23.398 44.355,23.398 44.355,15.952 "/>
<polygon points="31.801,34.925 20.15,34.925 20.15,38.638 20.15,40.638 18.15,40.638 14.296,40.638 12.296,40.638 12.296,38.638 
	12.296,34.925 3.645,34.925 3.645,42.369 31.904,42.369 "/>
<polygon points="41.266,34.925 41.369,42.369 44.355,42.369 44.355,34.925 "/>
</svg>
