<?xml version="1.0" encoding="utf-8"?>
<svg version="1.1"
	 xmlns="http://www.w3.org/2000/svg" x="0px" y="0px" width="48px" height="48px" viewBox="-0.833 -6.818 48 48">
<defs>
</defs>
<path d="M33.891,2.883c0,1.591-1.289,2.882-2.882,2.882H2.883C1.291,5.765,0,4.474,0,2.883C0,1.291,1.291,0,2.883,0h28.126
	C32.602,0,33.891,1.291,33.891,2.883"/>
<path d="M24.668,15.563c0,1.592-1.29,2.88-2.882,2.88H2.882C1.29,18.445,0,17.155,0,15.563c0-1.592,1.29-2.882,2.882-2.882h18.904
	C23.378,12.682,24.668,13.972,24.668,15.563"/>
<path d="M16.14,28.246c0,1.592-1.29,2.881-2.882,2.881H2.882C1.291,31.126,0,29.837,0,28.246c0-1.594,1.291-2.883,2.882-2.883
	h10.376C14.85,25.363,16.14,26.652,16.14,28.246"/>
<polygon points="43.901,7.738 46.334,4.671 40.446,0 38.045,3.026 38.045,3.026 19.827,25.969 19.827,25.969 19.827,25.969 
	19.792,26.012 19.814,26.029 18.861,30.602 21.301,32.537 25.655,30.67 25.679,30.686 25.711,30.645 25.715,30.645 25.713,30.643 
	43.9,7.738 "/>
<polygon points="20.448,33.164 17.706,34.363 18.31,31.465 "/>
</svg>
