<?xml version="1.0" encoding="utf-8"?>
<!DOCTYPE svg PUBLIC "-//W3C//DTD SVG 1.1//EN" "http://www.w3.org/Graphics/SVG/1.1/DTD/svg11.dtd" [
	<!ENTITY ns_flows "http://ns.adobe.com/Flows/1.0/">
]>
<svg version="1.1"
	 xmlns="http://www.w3.org/2000/svg" x="0px" y="0px" width="48px" height="48px" viewBox="-1.31 -2.976 48 48">
<defs>
</defs>
<path d="M36.842,4.741H8.232c-1.889,0-3.426,1.537-3.426,3.427v0.15c0.2-0.045,0.418-0.07,0.658-0.07h0.277v-0.08
	c0-1.375,1.118-2.492,2.491-2.492h28.61c1.374,0,2.491,1.117,2.491,2.492v25.65c0,1.373-1.117,2.49-2.491,2.49h-0.025
	c-0.02,0.327-0.053,0.643-0.117,0.936h0.144c1.89,0,3.427-1.536,3.427-3.426V8.168C40.27,6.278,38.73,4.741,36.842,4.741z"/>
<path d="M41.954,0h-28.61c-1.89,0-3.427,1.538-3.427,3.427v0.15c0.2-0.046,0.419-0.071,0.658-0.071h0.277v-0.08
	c0-1.374,1.118-2.492,2.491-2.492h28.61c1.373,0,2.49,1.118,2.49,2.492v25.649c0,1.374-1.117,2.491-2.49,2.491h-0.026
	c-0.019,0.328-0.053,0.644-0.116,0.935h0.144c1.89,0,3.427-1.536,3.427-3.426V3.427C45.381,1.538,43.844,0,41.954,0z"/>
<path d="M32.036,42.049H3.427C1.537,42.049,0,40.514,0,38.624v-25.65c0-1.89,1.537-3.428,3.427-3.428h28.609
	c1.89,0,3.427,1.538,3.427,3.428v25.65C35.463,40.514,33.926,42.049,32.036,42.049z M3.427,10.481c-1.374,0-2.492,1.118-2.492,2.492
	v25.65c0,1.373,1.118,2.49,2.492,2.49h28.609c1.374,0,2.491-1.117,2.491-2.49V12.974c0-1.375-1.117-2.492-2.491-2.492L3.427,10.481
	L3.427,10.481z"/>
<rect x="4.208" y="24.509" width="4.675" height="13.56"/>
<rect x="26.65" y="24.509" width="4.678" height="13.56"/>
<rect x="10.754" y="24.509" width="14.027" height="13.56"/>
<rect x="4.208" y="13.287" width="27.151" height="9.118"/>
</svg>
