<?xml version="1.0" encoding="utf-8"?>
<!-- Generator: Adobe Illustrator 15.0.0, SVG Export Plug-In  -->
<!DOCTYPE svg PUBLIC "-//W3C//DTD SVG 1.1//EN" "http://www.w3.org/Graphics/SVG/1.1/DTD/svg11.dtd" [
	<!ENTITY ns_flows "http://ns.adobe.com/Flows/1.0/">
]>
<svg version="1.1"
	 xmlns="http://www.w3.org/2000/svg" xmlns:xlink="http://www.w3.org/1999/xlink" xmlns:a="http://ns.adobe.com/AdobeSVGViewerExtensions/3.0/"
	 x="0px" y="0px" width="48px" height="48px" viewBox="-10.064 -2.063 48 48"
	 xml:space="preserve">
<defs>
</defs>
<path d="M16.5,4.8L8.3,0L0,4.8v9.5l7.333,4.241v7.834h2.1v-7.938L16.5,14.3V4.8z M13.006,9.45l-0.1,0.1c0.1,0.1,0.1,0.1,0.1,0.2
	c0,0-0.1,0-0.2,0l-2.2,2.4c-0.5,0.4-1.2,0.4-1.6,0v-2.3h-1.4c-1.6,0-2.2,0.6-2.2,2.2v2h-2.3v-3.8c0-1.7,1.4-3,3-3h2.9v-1.9
	c0.5-0.4,1.2-0.4,1.6,0l2.5,2.5C13.506,8.25,13.506,8.95,13.006,9.45z"/>
<circle cx="20.333" cy="23.275" r="4.2"/>
<path d="M27.833,35.975l-1.3-6.399c-0.161-0.805-0.777-1.342-1.531-1.421c-0.555-0.42-1.232-0.68-1.969-0.68h-2.7h-2.5
	c-0.273,0-0.536,0.045-0.791,0.109l-0.012-0.023l-0.167,0.08c-0.323,0.103-0.629,0.242-0.901,0.434l-4.058,1.951l-1.761-2.688
	c0.079-0.112,0.146-0.232,0.189-0.363c0.3-0.899-0.4-1.899-1.6-2.3l-0.7-0.2c-1.1-0.3-2.3,0.2-2.6,1.101
	c-0.285,0.854,0.338,1.793,1.428,2.229l4.132,6.305l0.149-0.098l0.016,0.033l3.374-1.622v8.153c0,1.8,1.5,3.3,3.3,3.3h5.2
	c1.8,0,3.3-1.5,3.3-3.3v-2.489c0.033-0.006,0.065-0.004,0.1-0.011C27.433,37.875,28.033,36.975,27.833,35.975z"/>
</svg>
