<?xml version="1.0" encoding="utf-8"?>
<svg version="1.1"
	 xmlns="http://www.w3.org/2000/svg" xmlns:xlink="http://www.w3.org/1999/xlink"
	 x="0px" y="0px" width="19px" height="25px" viewBox="-1.286 -3.712 19 25">
<defs>
</defs>
<path fill="#F79523" d="M13.524,16.163c0.042-0.112,0.068-0.23,0.068-0.356c0-0.563-0.456-1.019-1.018-1.019H12.54
	c-0.707-1.341-1.711-2.414-2.866-2.853V8.682c0.54-0.186,1.017-0.504,1.437-0.919c4.397-0.988,5.688-6.307,5.688-6.307h-3.244
	c0.049-0.492,0.073-0.967,0.073-1.407v0H3.461v0c0,0.441,0.028,0.916,0.082,1.407H0c0,0,1.382,5.701,6.165,6.394
	c0.375,0.354,0.792,0.63,1.25,0.805v3.28c-1.155,0.438-2.159,1.512-2.867,2.853H4.514c-0.563,0-1.019,0.456-1.019,1.019
	c0,0.126,0.026,0.244,0.068,0.356c-0.416,0.191-0.707,0.609-0.707,1.098v1.049h11.375V17.26
	C14.231,16.772,13.94,16.354,13.524,16.163z M15.423,2.191c0,0-0.827,3.37-3.514,4.569c0.818-1.283,1.319-2.97,1.554-4.569H15.423z
	 M1.375,2.191h2.268C3.912,3.87,4.486,5.65,5.391,6.952C2.302,5.979,1.375,2.191,1.375,2.191z"/>
<path fill="#C8691C" d="M11.11,7.763c4.397-0.988,5.688-6.307,5.688-6.307h-3.244c0.049-0.492,0.073-0.967,0.073-1.407v0H8.535
	v18.261h5.696V17.26c0-0.488-0.291-0.906-0.707-1.098c0.042-0.112,0.068-0.23,0.068-0.356c0-0.563-0.456-1.019-1.018-1.019H12.54
	c-0.707-1.341-1.711-2.414-2.866-2.853V8.682C10.214,8.497,10.69,8.178,11.11,7.763z M13.463,2.191h1.96c0,0-0.827,3.37-3.514,4.569
	C12.728,5.477,13.229,3.79,13.463,2.191z"/>
<polygon fill="#52CAF5" points="6.066,0.014 6.121,5.541 7.603,4.529 9.215,5.604 9.138,0 "/>
<polygon fill="#3588A6" points="8.55,5.16 9.215,5.604 9.138,0 8.5,0.002 "/>
</svg>
