<?xml version="1.0" encoding="utf-8"?>
<svg version="1.1"
	 xmlns="http://www.w3.org/2000/svg" xmlns:xlink="http://www.w3.org/1999/xlink"
	 x="0px" y="0px" width="216px" height="255px" viewBox="-4.789 -39.589 216 255">
<defs>
</defs>
<path opacity="0.3" fill="#C8691C" d="M160.871,105.208c0.232,0.731,0.407,1.486,0.407,2.242c0,10.782-25.736,19.53-57.474,19.53
	c-31.755,0-57.488-8.748-57.488-19.53c0-0.756,0.16-1.511,0.415-2.242C21.841,121.439,4.229,147.931,0,178.721h207.591
	C203.363,147.931,185.759,121.439,160.871,105.208z"/>
<path opacity="0.3" fill="#C8691C" d="M153.679,52.449c0,28.978-22.332,52.445-49.875,52.445c-27.574,0-49.886-23.467-49.886-52.445
	C53.918,23.479,76.23,0,103.804,0C131.347,0,153.679,23.479,153.679,52.449z"/>
<path opacity="0.3" fill="#F79523" d="M88.606,126.273c-24.365-2.266-42.29-9.83-42.29-18.822c0-0.756,0.16-1.511,0.415-2.242
	C21.841,121.439,4.229,147.931,0,178.721h120.135L88.606,126.273z"/>
</svg>
