<?xml version="1.0" encoding="utf-8"?>
<svg version="1.1"
	 xmlns="http://www.w3.org/2000/svg" xmlns:xlink="http://www.w3.org/1999/xlink"
	 x="0px" y="0px" width="300px" height="300px" viewBox="0.153 1.661 300 300">
<defs>
</defs>
<rect x="0.153" y="1.661" fill="#F6F7F8" width="300" height="300"/>
<polygon fill="#F2F2F2" points="63.765,17.017 61.231,6.661 50.354,11.131 54.229,12.994 42.407,34.972 23.077,25.482 5.153,55.707 
	11.831,58.168 26.591,34.27 44.867,43.759 60.228,15.426 "/>
<polygon fill="#F2F2F2" points="11.831,58.168 42.407,56.41 36.081,51.842 14.151,54.461 "/>
<rect x="54.208" y="16.345" transform="matrix(0.8824 0.4705 -0.4705 0.8824 21.1508 -22.061)" fill="#F2F2F2" width="1" height="29.873"/>
<rect x="23.104" y="34.607" transform="matrix(0.8293 0.5588 -0.5588 0.8293 29.1657 -5.511)" fill="#F2F2F2" width="1" height="20.762"/>
<polygon fill="#F2F2F2" points="140.894,17.017 138.361,6.661 127.484,11.131 131.358,12.994 119.536,34.972 100.207,25.482 
	82.282,55.707 88.96,58.168 103.721,34.27 121.997,43.759 137.357,15.426 "/>
<polygon fill="#F2F2F2" points="88.96,58.168 119.536,56.41 113.21,51.842 91.281,54.461 "/>
<rect x="131.337" y="16.345" transform="matrix(0.8824 0.4705 -0.4705 0.8824 30.2207 -58.3494)" fill="#F2F2F2" width="1" height="29.873"/>
<rect x="100.234" y="34.607" transform="matrix(0.8293 0.5588 -0.5588 0.8293 42.3289 -48.6071)" fill="#F2F2F2" width="1" height="20.762"/>
<polygon fill="#F2F2F2" points="218.023,17.017 215.49,6.661 204.613,11.131 208.488,12.994 196.666,34.972 177.335,25.482 
	159.412,55.707 166.089,58.168 180.85,34.27 199.126,43.759 214.487,15.426 "/>
<polygon fill="#F2F2F2" points="166.089,58.168 196.666,56.41 190.339,51.842 168.41,54.461 "/>
<rect x="208.467" y="16.345" transform="matrix(0.8824 0.4705 -0.4705 0.8824 39.2906 -94.6376)" fill="#F2F2F2" width="1" height="29.873"/>
<rect x="177.363" y="34.607" transform="matrix(0.8296 0.5583 -0.5583 0.8296 55.4176 -91.6364)" fill="#F2F2F2" width="1.001" height="20.762"/>
<polygon fill="#F2F2F2" points="295.153,17.017 292.62,6.661 281.743,11.131 285.618,12.994 273.795,34.972 254.465,25.482 
	236.542,55.707 243.219,58.168 257.98,34.27 276.256,43.759 291.617,15.426 "/>
<polygon fill="#F2F2F2" points="243.219,58.168 273.795,56.41 267.469,51.842 245.54,54.461 "/>
<rect x="285.596" y="16.345" transform="matrix(0.8824 0.4705 -0.4705 0.8824 48.3605 -130.9263)" fill="#F2F2F2" width="1" height="29.873"/>
<rect x="254.492" y="34.607" transform="matrix(0.8296 0.5583 -0.5583 0.8296 68.5575 -134.6979)" fill="#F2F2F2" width="1.001" height="20.762"/>
<polygon fill="#F2F2F2" points="63.765,76.64 61.231,66.284 50.354,70.755 54.229,72.617 42.407,94.595 23.077,85.105 5.153,115.33 
	11.831,117.791 26.591,93.893 44.867,103.382 60.228,75.05 "/>
<polygon fill="#F2F2F2" points="11.831,117.791 42.407,116.033 36.081,111.465 14.151,114.084 "/>
<rect x="54.208" y="75.968" transform="matrix(0.8824 0.4705 -0.4705 0.8824 49.2028 -15.0498)" fill="#F2F2F2" width="1" height="29.873"/>
<rect x="23.104" y="94.23" transform="matrix(0.8293 0.5588 -0.5588 0.8293 62.4801 4.6646)" fill="#F2F2F2" width="1" height="20.762"/>
<polygon fill="#F2F2F2" points="140.894,76.64 138.361,66.284 127.484,70.755 131.358,72.617 119.536,94.595 100.207,85.105 
	82.282,115.33 88.96,117.791 103.721,93.893 121.997,103.382 137.357,75.05 "/>
<polygon fill="#F2F2F2" points="88.96,117.791 119.536,116.033 113.21,111.465 91.281,114.084 "/>
<rect x="131.337" y="75.968" transform="matrix(0.8824 0.4705 -0.4705 0.8824 58.2727 -51.3381)" fill="#F2F2F2" width="1" height="29.873"/>
<rect x="100.234" y="94.23" transform="matrix(0.8293 0.5588 -0.5588 0.8293 75.6434 -38.4316)" fill="#F2F2F2" width="1" height="20.762"/>
<polygon fill="#F2F2F2" points="218.023,76.64 215.49,66.284 204.613,70.755 208.488,72.617 196.666,94.595 177.335,85.105 
	159.412,115.33 166.089,117.791 180.85,93.893 199.126,103.382 214.487,75.05 "/>
<polygon fill="#F2F2F2" points="166.089,117.791 196.666,116.033 190.339,111.465 168.41,114.084 "/>
<rect x="208.467" y="75.968" transform="matrix(0.8824 0.4705 -0.4705 0.8824 67.3425 -87.6264)" fill="#F2F2F2" width="1" height="29.873"/>
<rect x="177.363" y="94.23" transform="matrix(0.8296 0.5583 -0.5583 0.8296 88.7051 -81.479)" fill="#F2F2F2" width="1.001" height="20.762"/>
<polygon fill="#F2F2F2" points="295.153,76.64 292.62,66.284 281.743,70.755 285.618,72.617 273.795,94.595 254.465,85.105 
	236.542,115.33 243.219,117.791 257.98,93.893 276.256,103.382 291.617,75.05 "/>
<polygon fill="#F2F2F2" points="243.219,117.791 273.795,116.033 267.469,111.465 245.54,114.084 "/>
<rect x="285.596" y="75.968" transform="matrix(0.8824 0.4705 -0.4705 0.8824 76.4125 -123.915)" fill="#F2F2F2" width="1" height="29.873"/>
<rect x="254.492" y="94.23" transform="matrix(0.8296 0.5583 -0.5583 0.8296 101.845 -124.5405)" fill="#F2F2F2" width="1.001" height="20.762"/>
<polygon fill="#F2F2F2" points="63.765,136.263 61.231,125.907 50.354,130.378 54.229,132.24 42.407,154.218 23.077,144.729 
	5.153,174.954 11.831,177.415 26.591,153.517 44.867,163.005 60.228,134.673 "/>
<polygon fill="#F2F2F2" points="11.831,177.415 42.407,175.657 36.081,171.089 14.151,173.708 "/>
<rect x="54.208" y="135.591" transform="matrix(0.8824 0.4705 -0.4705 0.8824 77.2549 -8.0384)" fill="#F2F2F2" width="1" height="29.874"/>
<rect x="23.104" y="153.853" transform="matrix(0.8293 0.5588 -0.5588 0.8293 95.7946 14.8401)" fill="#F2F2F2" width="1" height="20.762"/>
<polygon fill="#F2F2F2" points="140.894,136.263 138.361,125.907 127.484,130.378 131.358,132.24 119.536,154.218 100.207,144.729 
	82.282,174.954 88.96,177.415 103.721,153.517 121.997,163.005 137.357,134.673 "/>
<polygon fill="#F2F2F2" points="88.96,177.415 119.536,175.657 113.21,171.089 91.281,173.708 "/>
<rect x="131.337" y="135.591" transform="matrix(0.8824 0.4705 -0.4705 0.8824 86.3248 -44.3268)" fill="#F2F2F2" width="1" height="29.874"/>
<rect x="100.234" y="153.853" transform="matrix(0.8293 0.5588 -0.5588 0.8293 108.9578 -28.256)" fill="#F2F2F2" width="1" height="20.762"/>
<polygon fill="#F2F2F2" points="218.023,136.263 215.49,125.907 204.613,130.378 208.488,132.24 196.666,154.218 177.335,144.729 
	159.412,174.954 166.089,177.415 180.85,153.517 199.126,163.005 214.487,134.673 "/>
<polygon fill="#F2F2F2" points="166.089,177.415 196.666,175.657 190.339,171.089 168.41,173.708 "/>
<rect x="208.467" y="135.592" transform="matrix(0.8824 0.4705 -0.4705 0.8824 95.3946 -80.6151)" fill="#F2F2F2" width="1" height="29.874"/>
<rect x="177.363" y="153.853" transform="matrix(0.8296 0.5583 -0.5583 0.8296 121.9926 -71.3216)" fill="#F2F2F2" width="1.001" height="20.762"/>
<polygon fill="#F2F2F2" points="295.153,136.263 292.62,125.907 281.743,130.378 285.618,132.24 273.795,154.218 254.465,144.729 
	236.542,174.954 243.219,177.415 257.98,153.517 276.256,163.005 291.617,134.673 "/>
<polygon fill="#F2F2F2" points="243.219,177.415 273.795,175.657 267.469,171.089 245.54,173.708 "/>
<rect x="285.596" y="135.592" transform="matrix(0.8824 0.4705 -0.4705 0.8824 104.4646 -116.9037)" fill="#F2F2F2" width="1" height="29.874"/>
<rect x="254.492" y="153.853" transform="matrix(0.8296 0.5583 -0.5583 0.8296 135.1324 -114.3831)" fill="#F2F2F2" width="1.001" height="20.762"/>
<polygon fill="#F2F2F2" points="63.765,195.887 61.231,185.531 50.354,190.001 54.229,191.864 42.407,213.842 23.077,204.353 
	5.153,234.577 11.831,237.038 26.591,213.14 44.867,222.629 60.228,194.296 "/>
<polygon fill="#F2F2F2" points="11.831,237.038 42.407,235.28 36.081,230.712 14.151,233.331 "/>
<rect x="54.208" y="195.214" transform="matrix(0.8824 0.4705 -0.4705 0.8824 105.3068 -1.0272)" fill="#F2F2F2" width="1" height="29.874"/>
<rect x="23.104" y="213.477" transform="matrix(0.8293 0.5588 -0.5588 0.8293 129.1096 25.0158)" fill="#F2F2F2" width="1" height="20.762"/>
<polygon fill="#F2F2F2" points="140.894,195.887 138.361,185.531 127.484,190.001 131.358,191.864 119.536,213.842 100.207,204.353 
	82.282,234.577 88.96,237.038 103.721,213.14 121.997,222.629 137.357,194.296 "/>
<polygon fill="#F2F2F2" points="88.96,237.038 119.536,235.28 113.21,230.712 91.281,233.331 "/>
<rect x="131.337" y="195.214" transform="matrix(0.8824 0.4705 -0.4705 0.8824 114.3766 -37.3156)" fill="#F2F2F2" width="1" height="29.874"/>
<rect x="100.234" y="213.477" transform="matrix(0.8293 0.5588 -0.5588 0.8293 142.2728 -18.0803)" fill="#F2F2F2" width="1" height="20.762"/>
<polygon fill="#F2F2F2" points="218.023,195.887 215.49,185.531 204.613,190.001 208.488,191.864 196.666,213.842 177.335,204.353 
	159.412,234.577 166.089,237.038 180.85,213.14 199.126,222.629 214.487,194.296 "/>
<polygon fill="#F2F2F2" points="166.089,237.038 196.666,235.28 190.339,230.712 168.41,233.331 "/>
<rect x="208.467" y="195.215" transform="matrix(0.8824 0.4705 -0.4705 0.8824 123.4465 -73.6038)" fill="#F2F2F2" width="1" height="29.874"/>
<rect x="177.363" y="213.477" transform="matrix(0.8296 0.5583 -0.5583 0.8296 155.2806 -61.1641)" fill="#F2F2F2" width="1.001" height="20.762"/>
<polygon fill="#F2F2F2" points="295.153,195.887 292.62,185.531 281.743,190.001 285.618,191.864 273.795,213.842 254.465,204.353 
	236.542,234.577 243.219,237.038 257.98,213.14 276.256,222.629 291.617,194.296 "/>
<polygon fill="#F2F2F2" points="243.219,237.038 273.795,235.28 267.469,230.712 245.54,233.331 "/>
<rect x="285.596" y="195.215" transform="matrix(0.8824 0.4705 -0.4705 0.8824 132.5164 -109.8924)" fill="#F2F2F2" width="1" height="29.874"/>
<rect x="254.492" y="213.477" transform="matrix(0.8296 0.5583 -0.5583 0.8296 168.4205 -104.2256)" fill="#F2F2F2" width="1.001" height="20.762"/>
<polygon fill="#F2F2F2" points="63.765,255.51 61.231,245.154 50.354,249.624 54.229,251.487 42.407,273.465 23.077,263.976 
	5.153,294.2 11.831,296.661 26.591,272.763 44.867,282.252 60.228,253.919 "/>
<polygon fill="#F2F2F2" points="11.831,296.661 42.407,294.903 36.081,290.335 14.151,292.954 "/>
<rect x="54.208" y="254.837" transform="matrix(0.8824 0.4705 -0.4705 0.8824 133.3586 5.9841)" fill="#F2F2F2" width="1" height="29.874"/>
<rect x="23.104" y="273.1" transform="matrix(0.8293 0.5588 -0.5588 0.8293 162.424 35.1914)" fill="#F2F2F2" width="1" height="20.762"/>
<polygon fill="#F2F2F2" points="140.894,255.51 138.361,245.154 127.484,249.624 131.358,251.487 119.536,273.465 100.207,263.976 
	82.282,294.2 88.96,296.661 103.721,272.763 121.997,282.252 137.357,253.919 "/>
<polygon fill="#F2F2F2" points="88.96,296.661 119.536,294.903 113.21,290.335 91.281,292.954 "/>
<rect x="131.337" y="254.837" transform="matrix(0.8824 0.4705 -0.4705 0.8824 142.4285 -30.3043)" fill="#F2F2F2" width="1" height="29.874"/>
<rect x="100.234" y="273.1" transform="matrix(0.8293 0.5588 -0.5588 0.8293 175.5873 -7.9048)" fill="#F2F2F2" width="1" height="20.762"/>
<polygon fill="#F2F2F2" points="218.023,255.51 215.49,245.154 204.613,249.624 208.488,251.487 196.666,273.465 177.335,263.976 
	159.412,294.2 166.089,296.661 180.85,272.763 199.126,282.252 214.487,253.919 "/>
<polygon fill="#F2F2F2" points="166.089,296.661 196.666,294.903 190.339,290.335 168.41,292.954 "/>
<rect x="208.467" y="254.838" transform="matrix(0.8824 0.4705 -0.4705 0.8824 151.4984 -66.5926)" fill="#F2F2F2" width="1" height="29.874"/>
<rect x="177.363" y="273.1" transform="matrix(0.8296 0.5583 -0.5583 0.8296 188.5681 -51.0067)" fill="#F2F2F2" width="1.001" height="20.762"/>
<polygon fill="#F2F2F2" points="295.153,255.51 292.62,245.154 281.743,249.624 285.618,251.487 273.795,273.465 254.465,263.976 
	236.542,294.2 243.219,296.661 257.98,272.763 276.256,282.252 291.617,253.919 "/>
<polygon fill="#F2F2F2" points="243.219,296.661 273.795,294.903 267.469,290.335 245.54,292.954 "/>
<rect x="285.596" y="254.838" transform="matrix(0.8824 0.4705 -0.4705 0.8824 160.5683 -102.8812)" fill="#F2F2F2" width="1" height="29.874"/>
<rect x="254.492" y="273.1" transform="matrix(0.8296 0.5583 -0.5583 0.8296 201.7079 -94.0682)" fill="#F2F2F2" width="1.001" height="20.762"/>
</svg>
