<?xml version="1.0" encoding="utf-8"?>
<svg version="1.1"
	 xmlns="http://www.w3.org/2000/svg" xmlns:xlink="http://www.w3.org/1999/xlink"
	 x="0px" y="0px" width="26px" height="28px" viewBox="-1.291 -0.753 26 28">
<defs>
</defs>
<rect x="10.16" y="3.302" transform="matrix(-0.9472 -0.3207 0.3207 -0.9472 17.889 28.9354)" fill="#C86B28" width="2.334" height="19.386"/>
<polygon fill="#F89624" points="12.761,12.397 15.538,4.187 13.327,3.438 10.297,12.397 "/>
<path fill="#3588A6" d="M21.008,0H2.41C1.079,0,0,1.079,0,2.41v21.674c0,1.331,1.079,2.41,2.41,2.41h18.598
	c1.33,0,2.41-1.079,2.41-2.41V2.41C23.418,1.079,22.338,0,21.008,0z M21.465,22.888c0,0.709-0.575,1.286-1.283,1.286H3.442
	c-0.711,0-1.286-0.577-1.286-1.286V3.46c0-0.71,0.575-1.286,1.286-1.286h16.739c0.708,0,1.283,0.576,1.283,1.286V22.888z"/>
</svg>
