<?xml version="1.0" encoding="utf-8"?>
<svg version="1.1"
	 xmlns="http://www.w3.org/2000/svg" xmlns:xlink="http://www.w3.org/1999/xlink"
	 x="0px" y="0px" width="300px" height="300px" viewBox="0.153 1.661 300 300">
<defs>
</defs>
<path opacity="0.4" fill="#FCB51E" d="M1.005,50.334l49.323,49.322L99.65,50.334L50.328,1.011L1.005,50.334z M89.787,50.334
	L50.328,89.793L10.87,50.334l39.458-39.459L89.787,50.334z"/>
<path opacity="0.4" fill="#F79523" d="M20.734,50.334l29.594,29.593l29.594-29.593L50.328,20.741L20.734,50.334z M71.635,50.334
	L50.328,71.642L29.021,50.334l21.307-21.308L71.635,50.334z"/>
<path opacity="0.4" fill="#C8691C" d="M37.647,50.504l12.863,12.864l12.864-12.864L50.511,37.641L37.647,50.504z M57.11,50.504
	l-6.599,6.599l-6.599-6.599l6.599-6.6L57.11,50.504z"/>
<path opacity="0.4" fill="#FCB51E" d="M101.132,50.334l49.323,49.322l49.324-49.322L150.455,1.011L101.132,50.334z M189.913,50.334
	l-39.458,39.458l-39.458-39.458l39.458-39.459L189.913,50.334z"/>
<path opacity="0.4" fill="#F79523" d="M120.861,50.334l29.594,29.593l29.593-29.593l-29.593-29.594L120.861,50.334z M171.762,50.334
	l-21.307,21.307l-21.308-21.307l21.308-21.308L171.762,50.334z"/>
<path opacity="0.4" fill="#C8691C" d="M137.774,50.504l12.863,12.864l12.864-12.864l-12.864-12.864L137.774,50.504z M157.237,50.504
	l-6.599,6.599l-6.599-6.599l6.599-6.6L157.237,50.504z"/>
<path opacity="0.4" fill="#FCB51E" d="M51.327,100.904l49.323,49.322l49.322-49.322L100.65,51.581L51.327,100.904z M140.108,100.904
	l-39.458,39.458l-39.459-39.458l39.459-39.459L140.108,100.904z"/>
<path opacity="0.4" fill="#F79523" d="M71.056,100.904l29.594,29.593l29.592-29.593L100.65,71.31L71.056,100.904z M121.957,100.904
	l-21.307,21.307l-21.308-21.307l21.308-21.309L121.957,100.904z"/>
<path opacity="0.4" fill="#C8691C" d="M87.969,101.074l12.864,12.864l12.863-12.864l-12.863-12.864L87.969,101.074z
	 M107.432,101.074l-6.599,6.599l-6.599-6.599l6.599-6.6L107.432,101.074z"/>
<path opacity="0.4" fill="#FCB51E" d="M151.455,100.904l49.322,49.322l49.323-49.322l-49.323-49.323L151.455,100.904z
	 M240.235,100.904l-39.458,39.458l-39.458-39.458l39.458-39.459L240.235,100.904z"/>
<path opacity="0.4" fill="#F79523" d="M171.183,100.904l29.594,29.593l29.594-29.593L200.777,71.31L171.183,100.904z
	 M222.085,100.904l-21.309,21.307l-21.308-21.307l21.308-21.309L222.085,100.904z"/>
<path opacity="0.4" fill="#C8691C" d="M188.096,101.074l12.864,12.864l12.863-12.864L200.96,88.209L188.096,101.074z
	 M207.559,101.074l-6.599,6.599l-6.6-6.599l6.6-6.6L207.559,101.074z"/>
<path opacity="0.4" fill="#FCB51E" d="M51.327,202.042l49.323,49.322l49.322-49.322l-49.322-49.323L51.327,202.042z
	 M140.108,202.042L100.65,241.5l-39.459-39.458l39.459-39.46L140.108,202.042z"/>
<path opacity="0.4" fill="#F79523" d="M71.056,202.042l29.594,29.594l29.592-29.594l-29.592-29.594L71.056,202.042z
	 M121.957,202.042L100.65,223.35l-21.308-21.308l21.308-21.309L121.957,202.042z"/>
<path opacity="0.4" fill="#C8691C" d="M87.969,202.212l12.864,12.863l12.863-12.863l-12.863-12.863L87.969,202.212z
	 M107.432,202.212l-6.599,6.6l-6.599-6.6l6.599-6.6L107.432,202.212z"/>
<path opacity="0.4" fill="#FCB51E" d="M151.454,202.042l49.322,49.322l49.323-49.322l-49.323-49.323L151.454,202.042z
	 M240.234,202.042L200.776,241.5l-39.458-39.458l39.458-39.46L240.234,202.042z"/>
<path opacity="0.4" fill="#F79523" d="M171.182,202.042l29.594,29.594l29.594-29.594l-29.594-29.594L171.182,202.042z
	 M222.084,202.042l-21.309,21.308l-21.308-21.308l21.308-21.309L222.084,202.042z"/>
<path opacity="0.4" fill="#C8691C" d="M188.095,202.212l12.864,12.863l12.863-12.863l-12.863-12.863L188.095,202.212z
	 M207.558,202.212l-6.599,6.6l-6.6-6.6l6.6-6.6L207.558,202.212z"/>
<path opacity="0.4" fill="#FCB51E" d="M201.568,50.671l49.322,49.322l49.323-49.322L250.89,1.348L201.568,50.671z M290.348,50.671
	L250.89,90.13l-39.458-39.458l39.458-39.459L290.348,50.671z"/>
<path opacity="0.4" fill="#F79523" d="M221.296,50.671l29.594,29.593l29.593-29.593L250.89,21.077L221.296,50.671z M272.197,50.671
	L250.89,71.979l-21.308-21.307l21.308-21.308L272.197,50.671z"/>
<path opacity="0.4" fill="#C8691C" d="M238.209,50.841l12.863,12.863l12.863-12.863l-12.863-12.864L238.209,50.841z M257.671,50.841
	l-6.599,6.599l-6.599-6.599l6.599-6.6L257.671,50.841z"/>
<path opacity="0.4" fill="#FCB51E" d="M1.005,151.473l49.323,49.323l49.323-49.323l-49.323-49.323L1.005,151.473z M89.787,151.473
	l-39.459,39.458L10.87,151.473l39.458-39.459L89.787,151.473z"/>
<path opacity="0.4" fill="#F79523" d="M20.734,151.473l29.594,29.594l29.594-29.594l-29.594-29.594L20.734,151.473z M71.635,151.473
	l-21.308,21.309l-21.307-21.309l21.307-21.308L71.635,151.473z"/>
<path opacity="0.4" fill="#C8691C" d="M37.647,151.643l12.863,12.863l12.864-12.863l-12.864-12.864L37.647,151.643z M57.11,151.643
	l-6.599,6.6l-6.599-6.6l6.599-6.6L57.11,151.643z"/>
<path opacity="0.4" fill="#FCB51E" d="M101.132,151.473l49.323,49.323l49.324-49.323l-49.324-49.323L101.132,151.473z
	 M189.913,151.473l-39.458,39.458l-39.458-39.458l39.458-39.459L189.913,151.473z"/>
<path opacity="0.4" fill="#F79523" d="M120.861,151.473l29.594,29.594l29.593-29.594l-29.593-29.594L120.861,151.473z
	 M171.762,151.473l-21.307,21.309l-21.308-21.309l21.308-21.308L171.762,151.473z"/>
<path opacity="0.4" fill="#C8691C" d="M137.774,151.643l12.863,12.863l12.864-12.863l-12.864-12.864L137.774,151.643z
	 M157.237,151.643l-6.599,6.6l-6.599-6.6l6.599-6.6L157.237,151.643z"/>
<path opacity="0.4" fill="#FCB51E" d="M201.568,151.81l49.322,49.323l49.323-49.323l-49.323-49.323L201.568,151.81z M290.348,151.81
	l-39.458,39.458l-39.458-39.458l39.458-39.459L290.348,151.81z"/>
<path opacity="0.4" fill="#F79523" d="M221.296,151.81l29.594,29.594l29.593-29.594l-29.593-29.594L221.296,151.81z M272.197,151.81
	l-21.307,21.309l-21.308-21.309l21.308-21.308L272.197,151.81z"/>
<path opacity="0.4" fill="#C8691C" d="M238.209,151.979l12.863,12.863l12.863-12.863l-12.863-12.864L238.209,151.979z
	 M257.671,151.979l-6.599,6.6l-6.599-6.6l6.599-6.6L257.671,151.979z"/>
<path opacity="0.4" fill="#FCB51E" d="M1.005,252.61l49.323,49.323L99.65,252.61l-49.323-49.322L1.005,252.61z M89.787,252.61
	l-39.459,39.459L10.87,252.61l39.458-39.458L89.787,252.61z"/>
<path opacity="0.4" fill="#F79523" d="M20.734,252.61l29.594,29.594l29.594-29.594l-29.594-29.594L20.734,252.61z M71.635,252.61
	l-21.308,21.309L29.021,252.61l21.307-21.308L71.635,252.61z"/>
<path opacity="0.4" fill="#C8691C" d="M37.647,252.78l12.863,12.863l12.864-12.863l-12.864-12.863L37.647,252.78z M57.11,252.78
	l-6.599,6.6l-6.599-6.6l6.599-6.6L57.11,252.78z"/>
<path opacity="0.4" fill="#FCB51E" d="M101.132,252.61l49.323,49.323l49.324-49.323l-49.324-49.322L101.132,252.61z M189.913,252.61
	l-39.458,39.459l-39.458-39.459l39.458-39.458L189.913,252.61z"/>
<path opacity="0.4" fill="#F79523" d="M120.861,252.61l29.594,29.594l29.593-29.594l-29.593-29.594L120.861,252.61z M171.762,252.61
	l-21.307,21.309l-21.308-21.309l21.308-21.308L171.762,252.61z"/>
<path opacity="0.4" fill="#C8691C" d="M137.774,252.78l12.863,12.863l12.864-12.863l-12.864-12.863L137.774,252.78z M157.237,252.78
	l-6.599,6.6l-6.599-6.6l6.599-6.6L157.237,252.78z"/>
<path opacity="0.4" fill="#FCB51E" d="M201.568,252.947l49.322,49.323l49.323-49.323l-49.323-49.322L201.568,252.947z
	 M290.348,252.947l-39.458,39.459l-39.458-39.459l39.458-39.458L290.348,252.947z"/>
<path opacity="0.4" fill="#F79523" d="M221.296,252.947l29.594,29.594l29.593-29.594l-29.593-29.594L221.296,252.947z
	 M272.197,252.947l-21.307,21.309l-21.308-21.309l21.308-21.308L272.197,252.947z"/>
<path opacity="0.4" fill="#C8691C" d="M238.209,253.117l12.863,12.863l12.863-12.863l-12.863-12.863L238.209,253.117z
	 M257.671,253.117l-6.599,6.6l-6.599-6.6l6.599-6.6L257.671,253.117z"/>
<polygon opacity="0.4" fill="#C8691C" points="301.898,108.009 295.299,101.411 301.898,94.811 301.898,88.546 289.035,101.411 
	301.898,114.274 "/>
<polygon opacity="0.4" fill="#F79523" points="301.715,122.548 280.408,101.241 301.715,79.932 301.715,71.646 272.122,101.241 
	301.715,130.834 "/>
<polygon opacity="0.4" fill="#FCB51E" points="301.715,140.699 262.256,101.241 301.715,61.781 301.715,51.917 252.392,101.241 
	301.715,150.563 "/>
<polygon opacity="0.4" fill="#C8691C" points="300.293,208.812 293.694,202.212 300.293,195.612 300.293,189.349 287.429,202.212 
	300.293,215.075 "/>
<polygon opacity="0.4" fill="#F79523" points="300.11,223.35 278.802,202.042 300.11,180.733 300.11,172.448 270.516,202.042 
	300.11,231.636 "/>
<polygon opacity="0.4" fill="#FCB51E" points="300.11,241.5 260.652,202.042 300.11,162.582 300.11,152.719 250.787,202.042 
	300.11,251.364 "/>
<polygon opacity="0.4" fill="#C8691C" points="0,195.272 6.599,201.872 0,208.472 0,214.735 12.863,201.872 0,189.009 "/>
<polygon opacity="0.4" fill="#F79523" points="0.183,180.733 21.491,202.042 0.183,223.35 0.183,231.636 29.777,202.042 
	0.183,172.448 "/>
<polygon opacity="0.4" fill="#FCB51E" points="0.183,162.582 39.641,202.042 0.183,241.5 0.183,251.364 49.505,202.042 
	0.183,152.719 "/>
<polygon opacity="0.4" fill="#C8691C" points="0,94.133 6.599,100.733 0,107.333 0,113.597 12.863,100.733 0,87.87 "/>
<polygon opacity="0.4" fill="#F79523" points="0.183,79.595 21.491,100.903 0.183,122.211 0.183,130.497 29.777,100.903 
	0.183,71.31 "/>
<polygon opacity="0.4" fill="#FCB51E" points="0.183,61.444 39.641,100.903 0.183,140.362 0.183,150.226 49.505,100.903 
	0.183,51.581 "/>
<polygon opacity="0.4" fill="#C8691C" points="194.007,303.415 200.607,296.815 207.208,303.415 213.471,303.415 200.607,290.552 
	187.744,303.415 "/>
<polygon opacity="0.4" fill="#F79523" points="179.468,303.231 200.777,281.924 222.086,303.231 230.371,303.231 200.777,273.639 
	171.182,303.231 "/>
<polygon opacity="0.4" fill="#FCB51E" points="161.318,303.231 200.777,263.773 240.235,303.231 250.1,303.231 200.777,253.908 
	151.454,303.231 "/>
<polygon opacity="0.4" fill="#C8691C" points="93.88,303.415 100.48,296.815 107.08,303.415 113.344,303.415 100.48,290.552 
	87.616,303.415 "/>
<polygon opacity="0.4" fill="#F79523" points="79.341,303.231 100.65,281.924 121.958,303.231 130.243,303.231 100.65,273.639 
	71.055,303.231 "/>
<polygon opacity="0.4" fill="#FCB51E" points="61.19,303.231 100.65,263.773 140.108,303.231 149.973,303.231 100.65,253.908 
	51.327,303.231 "/>
<polygon opacity="0.4" fill="#C8691C" points="93.88,0 100.48,6.6 107.08,0 113.344,0 100.48,12.863 87.616,0 "/>
<polygon opacity="0.4" fill="#F79523" points="79.341,0.184 100.65,21.492 121.958,0.184 130.243,0.184 100.65,29.777 71.055,0.184 
	"/>
<polygon opacity="0.4" fill="#FCB51E" points="61.19,0.184 100.65,39.641 140.108,0.184 149.973,0.184 100.65,49.506 51.327,0.184 
	"/>
<polygon opacity="0.4" fill="#C8691C" points="194.007,0 200.607,6.6 207.208,0 213.471,0 200.607,12.863 187.744,0 "/>
<polygon opacity="0.4" fill="#F79523" points="179.468,0.184 200.777,21.492 222.086,0.184 230.371,0.184 200.777,29.777 
	171.182,0.184 "/>
<polygon opacity="0.4" fill="#FCB51E" points="161.318,0.184 200.777,39.641 240.235,0.184 250.1,0.184 200.777,49.506 
	151.454,0.184 "/>
<polygon opacity="0.4" fill="#C8691C" points="301.898,7.727 294.2,0.17 287.935,0.17 301.898,13.992 "/>
<polygon opacity="0.4" fill="#F79523" points="301.898,22.73 279.307,0 271.022,0 301.898,31.017 "/>
<polygon opacity="0.4" fill="#FCB51E" points="301.898,40.706 261.158,0 251.292,0 301.898,50.57 "/>
<polygon opacity="0.4" fill="#C8691C" points="300.293,296.462 293.694,303.062 287.429,303.062 300.293,290.198 "/>
<polygon opacity="0.4" fill="#F79523" points="300.11,281.924 278.802,303.231 270.516,303.231 300.11,273.638 "/>
<polygon opacity="0.4" fill="#FCB51E" points="300.11,263.772 260.652,303.231 250.787,303.231 300.11,253.908 "/>
<polygon opacity="0.4" fill="#C8691C" points="0,6.769 6.599,0.17 12.863,0.17 0,13.033 "/>
<polygon opacity="0.4" fill="#F79523" points="0.183,21.307 21.491,0 29.777,0 0.183,29.593 "/>
<polygon opacity="0.4" fill="#FCB51E" points="0.183,39.458 39.641,0 49.505,0 0.183,49.322 "/>
<polygon opacity="0.4" fill="#C8691C" points="0.168,296.646 6.767,303.245 13.032,303.245 0.168,290.382 "/>
<polygon opacity="0.4" fill="#F79523" points="0.351,282.107 21.659,303.415 29.945,303.415 0.351,273.821 "/>
<polygon opacity="0.4" fill="#FCB51E" points="0.351,263.956 39.81,303.415 49.674,303.415 0.351,254.093 "/>
</svg>
