<?xml version="1.0" encoding="utf-8"?>
<!DOCTYPE svg PUBLIC "-//W3C//DTD SVG 1.1//EN" "http://www.w3.org/Graphics/SVG/1.1/DTD/svg11.dtd" [
	<!ENTITY ns_flows "http://ns.adobe.com/Flows/1.0/">
]>
<svg version="1.1"
	 xmlns="http://www.w3.org/2000/svg" x="0px" y="0px" width="48px" height="48px" viewBox="-2.445 -3.828 48 48">
<defs>
</defs>
<polygon points="38.137,25.16 38.137,7.047 32.436,7.047 32.436,18.055 "/>
<polygon points="32.926,36.135 35.837,39.632 42.551,34.046 39.679,30.594 39.679,30.594 17.912,4.411 17.912,4.411 17.912,4.411 
	17.872,4.361 17.846,4.382 12.872,2.21 10.089,4.525 11.178,9.924 11.154,9.945 11.193,9.992 11.193,9.995 11.195,9.994 
	32.926,36.134 "/>
<polygon points="9.579,3.405 8.866,0 12.021,1.377 "/>
<path d="M18.308,1.844h20.693c1.714,0,3.108,1.395,3.108,3.109v25.158l1,1.247V4.953c0-2.266-1.843-4.109-4.108-4.109H16.189
	L18.308,1.844z"/>
<path d="M32.868,39.344H4.109C2.395,39.344,1,37.95,1,36.236V4.953c0-1.715,1.395-3.109,3.109-3.109h2.586l-0.261-1H4.109
	C1.843,0.844,0,2.688,0,4.953v31.283c0,2.265,1.843,4.107,4.109,4.107H33.71L32.868,39.344z"/>
<polygon points="30.152,15.209 30.152,7.047 23.604,7.047 "/>
<polygon points="13.045,15.808 13.045,35.559 29.68,35.559 "/>
<polygon points="9.123,11.15 8.052,7.047 5.062,7.047 5.062,35.559 10.765,35.559 10.765,13.101 "/>
</svg>
