<?xml version="1.0" encoding="utf-8"?>
<!-- Generator: Adobe Illustrator 15.0.0, SVG Export Plug-In  -->
<!DOCTYPE svg PUBLIC "-//W3C//DTD SVG 1.1//EN" "http://www.w3.org/Graphics/SVG/1.1/DTD/svg11.dtd" [
	<!ENTITY ns_flows "http://ns.adobe.com/Flows/1.0/">
]>
<svg version="1.1"
	 xmlns="http://www.w3.org/2000/svg" x="0px" y="0px" width="48px" height="48px" viewBox="-3.991 -3.617 48 48"
	 xml:space="preserve">
<defs>
</defs>
<path d="M39.96,2.841C39.7,1.222,38.545,0,37.159,0H2.857C1.28,0,0,1.583,0,3.533v20.57c0,1.951,1.28,3.53,2.857,3.53h4.268
	l0.15,0.521l-0.028,0.036l3.186,12.574l9.202-11.937l0.972-1.196l1.552,0.08l7.404,11.395l3.316-11.484l4.279,0.011
	c0.417,0,0.812-0.116,1.169-0.315c0.994-0.551,1.69-1.779,1.69-3.213V3.535C40.018,3.297,39.997,3.065,39.96,2.841z M10.346,24.096
	l-5.241,0.018c-1.271,0-1.237-1.275-1.237-2.85V6c0-1.574,1.035-1.783,2.306-1.783h28.741c1.217,0,1.233,1.175,1.233,2.658
	l-0.012,0.015c0.002,0.052,0.009,0.101,0.012,0.152c0,0.009,0,0.018,0,0.027V22.33h0.002c0,1.574-1.032,1.781-2.303,1.781
	l-0.939,0.02l-4.115,0.08l-0.464,5.966l-1.865-3.376l-1.418-2.688h-7.044l-0.308-0.002l-5.907,8.363l-0.75-4.366l-0.668-3.896
	l-0.001,0.002L10.346,24.096z"/>
<rect x="7.743" y="8.29" width="23.874" height="2.48"/>
<rect x="7.743" y="13.25" width="23.874" height="2.48"/>
<rect x="7.743" y="18.209" width="23.874" height="2.48"/>
</svg>
