<?xml version="1.0" encoding="utf-8"?>
<!-- Generator: Adobe Illustrator 15.0.0, SVG Export Plug-In  -->
<!DOCTYPE svg PUBLIC "-//W3C//DTD SVG 1.1//EN" "http://www.w3.org/Graphics/SVG/1.1/DTD/svg11.dtd" [
	<!ENTITY ns_flows "http://ns.adobe.com/Flows/1.0/">
]>
<svg version="1.1"
	 xmlns="http://www.w3.org/2000/svg" x="0px" y="0px" width="48px" height="48px" viewBox="-2.401 -2.479 48 48"
	 xml:space="preserve">
<defs>
</defs>
<path d="M39.562,7.824h-8.016C30.457,3.336,26.421,0,21.599,0c-4.823,0-8.856,3.336-9.948,7.823H3.634C1.627,7.823,0,9.45,0,11.456
	v27.952c0,2.006,1.627,3.633,3.634,3.633h35.93c2.01,0,3.635-1.627,3.635-3.633V11.457C43.197,9.451,41.572,7.824,39.562,7.824z
	 M30.809,12.198c0-0.375,0.304-0.678,0.679-0.678c0.372,0,0.678,0.303,0.678,0.678v2.71c0,0.375-0.306,0.678-0.678,0.678
	c-0.375,0-0.679-0.303-0.679-0.678V12.198z M21.599,2.371c1.215,0,2.201,0.986,2.201,2.203c0,1.218-0.986,2.202-2.201,2.202
	c-1.217,0-2.203-0.986-2.203-2.202C19.396,3.358,20.382,2.371,21.599,2.371z M10.482,12.198c0-0.375,0.303-0.678,0.677-0.678
	c0.375,0,0.678,0.303,0.678,0.678v2.71c0,0.375-0.303,0.678-0.678,0.678c-0.374,0-0.677-0.303-0.677-0.678V12.198z M38.263,38.468
	H4.383V13.044h5.421v3.049h2.88v-3.049h17.448v3.049h2.881v-3.049h5.25V38.468z"/>
<rect x="8.618" y="20.667" width="26.088" height="1.864"/>
<rect x="8.618" y="25.75" width="26.088" height="1.865"/>
</svg>
