<?xml version="1.0" encoding="utf-8"?>
<svg version="1.1"
	 xmlns="http://www.w3.org/2000/svg" x="0px" y="0px" width="48px" height="48px" viewBox="-1.871 -1.871 48 48">
<defs>
</defs>
<path d="M43.463,37.028L25.866,2.983c-2.059-3.978-5.419-3.978-7.476,0L0.793,37.028c-2.056,3.976,0.024,7.229,4.62,7.229h33.431
	C43.442,44.257,45.522,41.004,43.463,37.028z M22.129,39.229c-1.571,0-2.844-1.273-2.844-2.844s1.273-2.844,2.844-2.844
	c1.57,0,2.844,1.273,2.844,2.844S23.7,39.229,22.129,39.229z M22.069,32.557c0,0-7.424-22.152,0.08-21.514
	C29.655,10.404,22.069,32.557,22.069,32.557z"/>
</svg>
