<?xml version="1.0" encoding="utf-8"?>
<!-- Generator: Adobe Illustrator 15.0.0, SVG Export Plug-In  -->
<!DOCTYPE svg PUBLIC "-//W3C//DTD SVG 1.1//EN" "http://www.w3.org/Graphics/SVG/1.1/DTD/svg11.dtd" [
	<!ENTITY ns_flows "http://ns.adobe.com/Flows/1.0/">
]>
<svg version="1.1"
	 xmlns="http://www.w3.org/2000/svg" x="0px" y="0px" width="48px" height="48px" viewBox="-3.9 -1.85 48 48">
<defs>
</defs>
<path d="M35.1,35.5L27.7,1L0,18.8l28.7,20.901L35.1,35.5z M11.3,19l12.5-7.7L28.6,32.701L11.3,19z"/>
<polygon points="29.7,0 32.6,5.5 40.2,37.201 37.1,34.5 "/>
<polygon points="39.2,40.201 33.6,44.3 29.7,41.701 36.1,37.5 "/>
<polygon points="15.88,19.681 25.106,26.666 24.706,24.566 21.043,21.063 20.933,21.028 23.285,19.381 22.444,15.599 15.708,19.371 
	15.299,19.241 15.571,19.447 15.439,19.521 "/>
</svg>
