<?xml version="1.0" encoding="utf-8"?>
<svg version="1.1"
	 xmlns="http://www.w3.org/2000/svg" x="0px" y="0px" width="48px" height="48px" viewBox="-1.548 -8.7 48 48">
<defs>
</defs>
<path d="M34.7,8.4l-18.6,7.1l7.4,15.1l18-4.699L34.7,8.4z M25.799,26.7L20,16.8l12.299-2.2l2.701,8.5L25.799,26.7z"/>
<polygon points="23.891,18.509 24.5,19.3 23.692,19.999 25.319,22.688 27.799,20.601 26.342,17.795 "/>
<polygon points="17.8,25.1 6,12.4 15.2,7.2 19.156,12.347 22.656,10.697 17.1,0 0,12.4 17.1,29.6 19.981,27.177 18.617,24.392 "/>
<polygon points="27.1,23.017 26.299,25.117 32.584,22.5 32.917,20.667 "/>
<polygon points="13.308,14.673 16.71,12.587 15.196,10.49 9.316,13.833 17.63,22.856 15.917,17.833 "/>
<polygon points="36.903,8.478 40.303,9.978 44.903,25.878 43.704,25.878 "/>
<polygon points="26.036,9.432 22.119,0.6 18.719,0 24.098,10.284 "/>
<polygon points="27.749,17.267 28.917,19.5 29.834,18 29.307,16.813 "/>
</svg>
