<?xml version="1.0" encoding="utf-8"?>
<!-- Generator: Adobe Illustrator 15.0.0, SVG Export Plug-In  -->
<!DOCTYPE svg PUBLIC "-//W3C//DTD SVG 1.1//EN" "http://www.w3.org/Graphics/SVG/1.1/DTD/svg11.dtd" [
	<!ENTITY ns_flows "http://ns.adobe.com/Flows/1.0/">
]>
<svg version="1.1"
	 xmlns="http://www.w3.org/2000/svg" x="0px" y="0px" width="48px" height="48px" viewBox="-5.213 -4.539 48 48"
	 xml:space="preserve">
<defs>
</defs>
<path d="M15.427,29.081c0-3.232,1.255-6.162,3.292-8.358H3.383v-2.195h15.544v1.968c0.974-0.999,2.119-1.825,3.384-2.448V0H0v35.842
	h17.458C16.177,33.901,15.427,31.579,15.427,29.081z M3.383,5.852h15.544v2.194H3.383V5.852z M3.383,12.189h15.544v2.194H3.383
	V12.189z"/>
<path d="M27.73,19.237c-5.436,0-9.842,4.407-9.842,9.844c0,5.436,4.407,9.842,9.842,9.842c5.437,0,9.844-4.406,9.844-9.842
	C37.574,23.644,33.167,19.237,27.73,19.237z M24.3,33.456c-1.124,0-2.034-0.91-2.034-2.035c0-1.123,0.91-2.035,2.034-2.035
	s2.035,0.912,2.035,2.035C26.335,32.545,25.424,33.456,24.3,33.456z M29.912,33.02l-1.917-0.346
	c0.371-1.043,0.347-2.223-0.198-3.289c-0.66-1.303-1.906-2.092-3.253-2.246l0.442-1.889c1.877,0.285,3.596,1.438,4.523,3.264
	C30.249,29.967,30.346,31.573,29.912,33.02z M33.947,33.741l-1.764-0.316c0.51-1.93,0.365-4.041-0.611-5.961
	c-1.248-2.457-3.539-4.014-6.059-4.461l0.408-1.735c3.008,0.563,5.734,2.454,7.229,5.396C34.309,28.94,34.52,31.444,33.947,33.741z"
	/>
</svg>
