<?xml version="1.0" encoding="utf-8"?>
<!-- Generator: Adobe Illustrator 15.0.0, SVG Export Plug-In  -->
<!DOCTYPE svg PUBLIC "-//W3C//DTD SVG 1.1//EN" "http://www.w3.org/Graphics/SVG/1.1/DTD/svg11.dtd" [
	<!ENTITY ns_flows "http://ns.adobe.com/Flows/1.0/">
]>
<svg version="1.1"
	 xmlns="http://www.w3.org/2000/svg" x="0px" y="0px" width="48px" height="48px" viewBox="-2.745 -2.628 48 48"
	 xml:space="preserve">
<defs>
</defs>
<polygon points="34.437,17.288 36.547,15.27 36.547,14.674 32.758,14.674 "/>
<polygon points="32.054,19.169 33.844,19.169 32.054,16.184 "/>
<polygon points="36.547,19.169 36.547,17.281 34.659,19.169 "/>
<path d="M42.474,0.904C42.474,0.405,42.067,0,41.567,0H0.904C0.405,0,0,0.405,0,0.904l0.037,40.935c0,0.501,0.404,0.905,0.904,0.905
	h40.664c0.5,0,0.905-0.404,0.905-0.905L42.474,0.904z M11.43,5.89h21.14v2.577H11.43V5.89z M25.028,34.874H4.471v-1.329h20.558
	V34.874z M25.028,28.824H4.471v-1.332h20.558V28.824z M25.028,22.765H4.471v-1.332h20.558V22.765z M25.028,16.708H4.471v-1.33
	h20.558V16.708z M38.202,28.626v5.197h-7.805v-7.805h7.805v0.668l2.234-2.137l1.002,0.84L38.202,28.626z M38.202,15.625v5.198
	h-7.805v-7.804h7.805v0.667l2.234-2.137l1.002,0.839L38.202,15.625z"/>
<polygon points="36.547,32.169 36.547,30.281 34.659,32.169 "/>
<polygon points="32.054,32.169 33.844,32.169 32.054,29.185 "/>
<polygon points="34.437,30.288 36.547,28.27 36.547,27.674 32.758,27.674 "/>
</svg>
