<?xml version="1.0" encoding="utf-8"?>
<!-- Generator: Adobe Illustrator 15.0.0, SVG Export Plug-In  -->
<!DOCTYPE svg PUBLIC "-//W3C//DTD SVG 1.1//EN" "http://www.w3.org/Graphics/SVG/1.1/DTD/svg11.dtd" [
	<!ENTITY ns_flows "http://ns.adobe.com/Flows/1.0/">
]>
<svg version="1.1"
	 xmlns="http://www.w3.org/2000/svg" xmlns:xlink="http://www.w3.org/1999/xlink" xmlns:a="http://ns.adobe.com/AdobeSVGViewerExtensions/3.0/"
	 x="0px" y="0px" width="48px" height="48px" viewBox="-2.676 -2.746 48 48"
	 xml:space="preserve">
<defs>
</defs>
<polygon points="3.916,38.134 3.895,0 0,0 0,42.508 42.498,42.508 42.52,38.134 "/>
<path d="M18.912,11.205c0.122-1.646,1.48-2.947,3.158-2.947c1.655,0,2.999,1.269,3.15,2.885l0.477,0.363V7.855h-7.613v4.097
	L18.912,11.205z"/>
<path d="M23.506,14.264c-0.434,0.221-0.917,0.357-1.437,0.357c-0.483,0-0.936-0.116-1.345-0.308l-2.641,2.382V35.3h7.613V15.931
	L23.506,14.264z"/>
<path d="M42.648,9.267l-2.844-0.092l-1.537-2.398l-0.967,2.678l-2.754,0.721l2.246,1.747L36.725,13.1l-3.158,4.52
	c-0.266-0.127-0.56-0.204-0.874-0.204c-0.28,0-0.548,0.057-0.791,0.16l-7.813-6.114c0.004-0.052,0.016-0.102,0.016-0.154
	c0-1.124-0.912-2.036-2.036-2.036c-1.125,0-2.036,0.912-2.036,2.036c0,0.048,0.011,0.093,0.014,0.141l-7.833,7.007
	c-0.238-0.097-0.497-0.153-0.77-0.153c-1.125,0-2.036,0.912-2.036,2.036s0.912,2.036,2.036,2.036s2.036-0.912,2.036-2.036
	c0-0.291-0.063-0.567-0.173-0.817l7.453-6.667c0.355,0.301,0.808,0.489,1.31,0.489c0.506,0,0.963-0.191,1.319-0.497l7.43,5.813
	c-0.104,0.244-0.161,0.512-0.161,0.794c0,1.125,0.912,2.037,2.037,2.037s2.036-0.912,2.036-2.037c0-0.234-0.048-0.456-0.12-0.666
	l3.524-5.043l0.851-0.577l2.651,1.036l-0.789-2.734L42.648,9.267z"/>
<path d="M35.721,19.1c0.009,0.093,0.028,0.183,0.028,0.278c0,1.757-1.424,3.181-3.181,3.181c-1.758,0-3.182-1.424-3.182-3.181
	c0-0.203,0.023-0.4,0.06-0.593l-0.738-0.562V35.3h7.613V18.191L35.721,19.1z"/>
<path d="M14.575,19.858c0.024,0.158,0.048,0.315,0.048,0.479c0,1.757-1.423,3.182-3.181,3.182s-3.181-1.425-3.181-3.182
	c0-1.757,1.424-3.181,3.181-3.181c0.263,0,0.514,0.041,0.758,0.101L13.595,16H7.459v19.3h7.614V19.409L14.575,19.858z"/>
</svg>
