<?xml version="1.0" encoding="utf-8"?>
<!-- Generator: Adobe Illustrator 15.0.0, SVG Export Plug-In  -->
<!DOCTYPE svg PUBLIC "-//W3C//DTD SVG 1.1//EN" "http://www.w3.org/Graphics/SVG/1.1/DTD/svg11.dtd" [
	<!ENTITY ns_flows "http://ns.adobe.com/Flows/1.0/">
]>
<svg version="1.1"
	 xmlns="http://www.w3.org/2000/svg" x="0px" y="0px" width="48px" height="48px" viewBox="-1.955 -2.192 48 48"
	 xml:space="preserve">
<defs>
</defs>
<path d="M4.525,13.06c0,0-1.315,0.637-0.115,1.374c1.232,0.836,2.833,0.507,2.833,0.507l31.024-9.324c0,0-1.791-0.414-3.793-1.38
	c-0.02-0.036-23.634,7.753-23.634,7.753s22.861-8.444,22.897-8.438c-1.808-0.95-3.193-1.579-3.193-1.579L4.525,13.06z"/>
<polygon points="40.744,6.544 13.164,14.718 17.386,41.52 44.09,33.192 "/>
<polygon points="8.172,9.977 29.141,0.9 28.822,0 7.456,9.26 "/>
<path d="M7.153,16.35L7.153,16.35c0,0-1.438,0.188-2.653-0.231c-1.727-0.594-3.176-1.901-2.694-2.756
	c0.57-1.011,4.391-2.346,4.391-2.346l-0.812-0.696L0,12.89l5.077,26.995c0,0,0.408,1.348,2.883,3.114
	c1.177,0.839,3.462,0.578,3.462,0.578l4.4-1.389l-4.298-27.12L7.153,16.35z"/>
</svg>
