<?xml version="1.0" encoding="utf-8"?>
<!-- Generator: Adobe Illustrator 15.0.0, SVG Export Plug-In  -->
<!DOCTYPE svg PUBLIC "-//W3C//DTD SVG 1.1//EN" "http://www.w3.org/Graphics/SVG/1.1/DTD/svg11.dtd" [
	<!ENTITY ns_flows "http://ns.adobe.com/Flows/1.0/">
]>
<svg version="1.1"
	 xmlns="http://www.w3.org/2000/svg" x="0px" y="0px" width="48px" height="48px" viewBox="-2.769 -2.702 48 48"
	 xml:space="preserve">
<defs>
</defs>
<path d="M39.229,0H3.276C1.485,0,0.033,1.453,0.033,3.244L0,39.334c0,1.791,1.452,3.243,3.244,3.243l35.926,0.018
	c1.791,0,3.244-1.451,3.244-3.242l0.058-36.109C42.472,1.453,41.02,0,39.229,0z M21.236,38.253c-4.491,0-8.133-3.641-8.133-8.132
	c0-4.492,3.642-8.133,8.133-8.133c4.493,0,8.133,3.641,8.133,8.133C29.369,34.612,25.729,38.253,21.236,38.253z M36.877,8.297
	l-0.125-0.741l-6.569,9.394c0.075,0.214,0.124,0.44,0.124,0.68c0,1.145-0.928,2.072-2.072,2.072s-2.072-0.927-2.072-2.072
	c0-0.286,0.059-0.559,0.163-0.807l-7.562-5.915c-0.362,0.31-0.827,0.504-1.341,0.504c-0.51,0-0.972-0.192-1.333-0.498l-7.583,6.785
	c0.112,0.254,0.176,0.535,0.176,0.83c0,1.145-0.928,2.072-2.072,2.072c-1.144,0-2.072-0.927-2.072-2.072
	c0-1.144,0.928-2.072,2.072-2.072c0.279,0,0.544,0.057,0.787,0.157l7.969-7.13C15.361,9.436,15.35,9.389,15.35,9.34
	c0-1.145,0.928-2.072,2.072-2.072c1.145,0,2.072,0.928,2.072,2.072c0,0.055-0.012,0.107-0.016,0.161l7.951,6.219
	c0.248-0.104,0.521-0.163,0.806-0.163c0.319,0,0.617,0.078,0.888,0.207l6.313-9.027l-0.72,0.091l-1.553-0.862l4.115-0.444
	l1.148,3.815L36.877,8.297z"/>
<path d="M20.885,24.878l0.539,0.051v0.822c0.541,0.092,1,0.243,1.375,0.457c0.33,0.188,0.586,0.418,0.771,0.693
	c0.185,0.271,0.274,0.563,0.274,0.865c0,0.287-0.092,0.511-0.274,0.671c-0.185,0.159-0.424,0.223-0.72,0.196
	c-0.266-0.026-0.487-0.136-0.666-0.326c-0.176-0.188-0.264-0.414-0.264-0.678c0-0.187,0.043-0.347,0.131-0.48l0.133-0.203
	c0.043-0.063,0.063-0.107,0.059-0.141c-0.009-0.086-0.095-0.17-0.26-0.25c-0.164-0.082-0.352-0.133-0.559-0.151v1.76l-0.538-0.342
	v-1.426c-0.173,0.021-0.313,0.067-0.418,0.144c-0.229,0.16-0.341,0.385-0.341,0.678c0,0.312,0.153,0.599,0.462,0.86
	c0.207,0.181,0.647,0.459,1.323,0.839c0.486,0.27,0.838,0.484,1.057,0.641c0.217,0.156,0.406,0.33,0.565,0.522
	c0.199,0.231,0.353,0.509,0.463,0.834c0.109,0.324,0.165,0.669,0.165,1.032c0,0.441-0.091,0.843-0.27,1.193
	c-0.18,0.353-0.438,0.64-0.776,0.858c-0.423,0.272-0.985,0.41-1.692,0.412v0.952l-0.538-0.051v-0.952
	c-0.574-0.09-1.07-0.258-1.489-0.511c-0.341-0.207-0.61-0.459-0.804-0.756c-0.195-0.299-0.292-0.605-0.292-0.922
	c0-0.313,0.102-0.565,0.305-0.757c0.203-0.19,0.454-0.272,0.753-0.243c0.268,0.025,0.496,0.146,0.688,0.364
	c0.191,0.218,0.289,0.461,0.289,0.736c0,0.17-0.043,0.325-0.127,0.474c-0.084,0.146-0.194,0.248-0.329,0.309
	c-0.105,0.043-0.157,0.088-0.152,0.131c0.004,0.041,0.052,0.097,0.146,0.164c0.093,0.066,0.207,0.134,0.343,0.191
	c0.231,0.104,0.456,0.164,0.671,0.186v-1.982l0.539,0.307v1.723c0.236,0.002,0.434-0.035,0.588-0.113
	c0.17-0.08,0.304-0.193,0.399-0.34c0.097-0.148,0.146-0.309,0.146-0.482c0-0.177-0.041-0.338-0.12-0.479
	c-0.08-0.145-0.207-0.287-0.382-0.432c-0.101-0.075-0.225-0.159-0.369-0.25c-0.146-0.09-0.422-0.252-0.827-0.483
	c-0.502-0.287-0.88-0.524-1.133-0.72c-0.254-0.193-0.467-0.406-0.641-0.639c-0.375-0.498-0.563-1.059-0.563-1.684
	c0-0.469,0.115-0.895,0.344-1.278c0.231-0.383,0.547-0.675,0.948-0.878c0.321-0.16,0.678-0.254,1.07-0.275L20.885,24.878
	L20.885,24.878z"/>
</svg>
