<?xml version="1.0" encoding="utf-8"?>
<!DOCTYPE svg PUBLIC "-//W3C//DTD SVG 1.1//EN" "http://www.w3.org/Graphics/SVG/1.1/DTD/svg11.dtd" [
	<!ENTITY ns_flows "http://ns.adobe.com/Flows/1.0/">
]>
<svg version="1.1"
	 xmlns="http://www.w3.org/2000/svg" x="0px" y="0px" width="48px" height="48px" viewBox="-2.297 -2.297 48 48">
<defs>
</defs>
<path d="M43.403,21.681V3.164C43.405,1.417,41.979,0,40.219,0H23.9v5.15c0.887-0.592,2.118-1.206,3.439-1.206
	c3.799,0,6.883,3.081,6.883,6.884c0,3.8-3.084,6.882-6.883,6.882c-1.321,0-2.553-0.613-3.439-1.203v5.174h6.313v0.883
	c0,0.609-0.355,1.459-0.792,1.89c0,0-1.553,1.526-1.553,3.259c0,2.59,2.099,4.691,4.69,4.691c2.59,0,4.688-2.102,4.688-4.691
	c0-1.732-1.553-3.261-1.553-3.261c-0.436-0.429-0.793-1.276-0.793-1.89v-0.881H43.403z"/>
<path d="M19.507,38.134c-0.895,0.634-2.223,1.36-3.664,1.36c-3.8,0-6.883-3.082-6.883-6.882c0-3.803,3.083-6.884,6.883-6.884
	c1.441,0,2.769,0.729,3.664,1.363v-5.366h-6.315v-0.884c0-0.609,0.357-1.459,0.792-1.888c0,0,1.554-1.527,1.554-3.26
	c0-2.589-2.099-4.69-4.69-4.69c-2.589,0-4.689,2.101-4.689,4.69c0,1.733,1.552,3.262,1.552,3.262
	c0.437,0.427,0.792,1.277,0.792,1.887v0.883H0v18.518c0,1.746,1.428,3.161,3.188,3.161h18.507v-0.013h-2.188V38.134z"/>
<path d="M27.725,6.177c-1.732,0-3.26,1.552-3.26,1.552c-0.429,0.437-1.279,0.792-1.89,0.792h-0.881V0.033H3.188
	C1.428,0.033,0,1.45,0,3.197v16.329h5.654c-0.672-0.869-1.618-2.376-1.618-4.021c0-3.8,3.082-6.883,6.881-6.883
	c3.803,0,6.883,3.083,6.883,6.883c0,1.645-0.949,3.153-1.623,4.021h5.499l0.019-6.315h0.882c0.609,0,1.46,0.356,1.891,0.792
	c0,0,1.524,1.553,3.258,1.553c2.59,0,4.69-2.099,4.69-4.69C32.415,8.276,30.314,6.177,27.725,6.177z"/>
<path d="M37.959,23.913c0.629,0.895,1.339,2.206,1.339,3.629c0,3.8-3.081,6.884-6.884,6.884c-3.799,0-6.881-3.084-6.881-6.884
	c0-1.422,0.709-2.734,1.336-3.629h-5.157v6.315h-0.884c-0.61,0-1.46-0.356-1.889-0.791c0,0-1.527-1.555-3.26-1.555
	c-2.59,0-4.691,2.101-4.691,4.69s2.101,4.688,4.691,4.688c1.733,0,3.262-1.553,3.262-1.553c0.427-0.436,1.277-0.793,1.888-0.793
	h0.883v8.488h18.509c1.76,0,3.187-1.415,3.187-3.163V23.913H37.959z"/>
</svg>
