<?xml version="1.0" encoding="utf-8"?>
<!-- Generator: Adobe Illustrator 15.0.0, SVG Export Plug-In  -->
<!DOCTYPE svg PUBLIC "-//W3C//DTD SVG 1.1//EN" "http://www.w3.org/Graphics/SVG/1.1/DTD/svg11.dtd" [
	<!ENTITY ns_flows "http://ns.adobe.com/Flows/1.0/">
]>
<svg version="1.1"
	 xmlns="http://www.w3.org/2000/svg" x="0px" y="0px" width="48px" height="48px" viewBox="-3.661 -5.344 48 48">
<defs>
</defs>
<path d="M36.396,0H4.282C1.916,0,0,1.918,0,4.282v21.411c0,2.365,1.916,4.283,4.282,4.283h9.956v3.629h-0.927
	c-1.024,0-1.854,0.83-1.854,1.854s0.83,1.854,1.854,1.854h13.904c1.025,0,1.855-0.83,1.855-1.854s-0.83-1.854-1.855-1.854h-0.927
	v-3.629h10.108c2.365,0,4.281-1.918,4.281-4.283V4.282C40.68,1.918,38.762,0,36.396,0z M38.898,24.256
	c0,2.049-1.658,3.71-3.705,3.71H5.486c-2.048,0-3.709-1.661-3.709-3.71V5.717c0-2.048,0.712-3.708,2.76-3.708h31.604
	c2.049,0,2.76,1.659,2.76,3.708v18.539H38.898z"/>
<path d="M21.119,15.852v9.486h12.648c1.569,0,2.844-1.275,2.844-2.847v-6.64L21.119,15.852L21.119,15.852z"/>
<path d="M19.538,15.852v9.486H6.892c-1.572,0-2.845-1.275-2.845-2.847v-6.64L19.538,15.852L19.538,15.852z"/>
<path d="M21.119,13.956V4.471h12.648c1.569,0,2.844,1.273,2.844,2.846v6.639H21.119z"/>
<path d="M19.538,13.956V4.471H6.892c-1.572,0-2.845,1.273-2.845,2.846v6.639H19.538z"/>
</svg>
