<?xml version="1.0" encoding="utf-8"?>
<!-- Generator: Adobe Illustrator 15.0.0, SVG Export Plug-In  -->
<!DOCTYPE svg PUBLIC "-//W3C//DTD SVG 1.1//EN" "http://www.w3.org/Graphics/SVG/1.1/DTD/svg11.dtd" [
	<!ENTITY ns_flows "http://ns.adobe.com/Flows/1.0/">
]>
<svg version="1.1"
	 xmlns="http://www.w3.org/2000/svg" x="0px" y="0px" width="48px" height="48px" viewBox="-2.911 -2.696 48 48">
<defs>
</defs>
<path d="M39.539,31.347l-4.871-2.193c0,0-2.462-1.158-3.778-1.129c-5.213,0.112-6.476,4.109-9.397,4.899
	c-2.27,0.61-4.583,0.56-4.583,0.56s-1.819,0.184-1.819,1.469c0,1.254,0.803,1.527,1.886,1.633c2.031,0.195,5.458,0.072,6.616-0.078
	c1.139-0.146,2.37-0.264,4.26-1.221c0,0-1.984,1.688-3.838,2.197c-2.229,0.605-6.173,0.543-7.201,0.441
	c-1.139-0.107-3.192-0.444-3.226-2.979c-0.024-2.02,1.698-2.646,2.587-2.781c0.972,0.041,4.391-0.326,4.391-0.326l-3.884-2.352
	c0,0-1.432-1.013-2.52-0.731c-1.09,0.282-1.547,1.126-1.547,1.126s-1.661-1.688-3.321-1.126c-1.663,0.563-1.433,1.745-1.433,1.745
	s-3.439-2.025-4.641,0c-1.204,2.025,2.176,3.771,2.176,3.771l13.463,7.882c0,0,0.572,0.336,1.547,0.336
	c0.972,0,2.347-0.563,2.347-0.563l6.588-2.477c0,0,0.62-0.448,1.621-0.679c0.859-0.194,2.47,0.046,2.47,0.046l2.245,0.928
	c0,0,0.898-2.896,1.746-4.727C38.272,33.191,39.539,31.347,39.539,31.347z"/>
<path d="M37.104,8.346l-13.464-7.88c0,0-0.573-0.338-1.547-0.338c-0.972,0-2.349,0.564-2.349,0.564l-6.589,2.476
	c0,0-0.616,0.447-1.62,0.677c-0.859,0.196-2.469-0.044-2.469-0.044L6.82,2.874c0,0-0.506,2.21-1.575,4.432
	c-1.068,2.222-2.286,3.966-2.286,3.966l4.869,2.196c0,0,2.465,1.154,3.782,1.125c3.938-0.084,5.631-2.351,7.477-3.82
	c0.441-0.049,1.048-0.043,1.634,0.223c1.084,0.493,1.775,1.48,2.663,1.678c0.46,0.102,1.157-0.088,1.725-0.294
	c0.428,0.435,0.709,0.75,0.709,0.75s1.431,1.013,2.521,0.732c1.089-0.282,1.546-1.126,1.546-1.126s1.662,1.688,3.322,1.126
	c1.664-0.563,1.432-1.745,1.432-1.745s3.439,2.025,4.643,0C40.483,10.091,37.104,8.346,37.104,8.346z"/>
<path d="M25.338,19.438h-2.886v-2.886c0-1.01-0.818-1.828-1.828-1.828c-1.01,0-1.829,0.818-1.829,1.828v2.886h-2.886
	c-1.011,0-1.83,0.82-1.83,1.828c0,1.011,0.818,1.83,1.83,1.83h2.887v2.888c0,1.01,0.818,1.827,1.829,1.827
	c1.01,0,1.827-0.817,1.827-1.827v-2.888h2.887c1.01,0,1.829-0.819,1.829-1.83C27.167,20.258,26.348,19.438,25.338,19.438z"/>
<path d="M13.126,18.308h-1.869v-1.871c0-0.654-0.53-1.184-1.184-1.184c-0.654,0-1.185,0.53-1.185,1.184v1.871H7.017
	c-0.654,0-1.186,0.531-1.186,1.184c0,0.655,0.531,1.186,1.186,1.186h1.871v1.869c0,0.653,0.53,1.185,1.185,1.185
	c0.654,0,1.184-0.531,1.184-1.185v-1.869h1.869c0.655,0,1.186-0.531,1.186-1.186C14.311,18.839,13.781,18.308,13.126,18.308z"/>
<path d="M34.438,21.748h-1.869v-1.872c0-0.653-0.531-1.184-1.186-1.184s-1.186,0.53-1.186,1.184v1.872h-1.871
	c-0.653,0-1.184,0.531-1.184,1.184c0,0.654,0.529,1.187,1.184,1.187h1.871v1.869c0,0.654,0.531,1.185,1.186,1.185
	c0.652,0,1.186-0.529,1.186-1.185v-1.869h1.869c0.655,0,1.187-0.531,1.187-1.187C35.625,22.279,35.095,21.748,34.438,21.748z"/>
<path d="M6.764,0c0,0,0.489,2.292-1.015,6.256C3.889,11.16,0,14.879,0,14.879V0.169L6.764,0z"/>
<path d="M35.413,42.609c0,0-0.488-2.291,1.016-6.256c1.86-4.902,5.748-8.624,5.748-8.624V42.44L35.413,42.609z"/>
</svg>
