<?xml version="1.0" encoding="utf-8"?>
<svg version="1.1"
	 xmlns="http://www.w3.org/2000/svg" x="0px" y="0px" width="48px" height="48px" viewBox="-3.325 -2.05 48 48">
<defs>
</defs>
<path d="M21.701,36.252c3.961,0.117,14.113-0.582,17.277-0.81c0.008-1,0.169-1.678,0.356-2.126c-0.395,0.206-0.826,0.327-1.28,0.327
	H7.313c-1.182,0-2.861,1.127-2.803,3.119c0.072,2.483,1.475,2.939,2.657,2.939h31.285c0,0,0.781,0.029,1.424,0.372
	c-0.33-0.713-0.676-1.777-0.835-3.353L21.701,36.252z"/>
<path d="M38.005,4.062c0-1.847-1.496-3.344-3.344-3.344h-12.43l1.104,17.232l-7.939-2.888l-7.669,2.708l1.51-17.053H7.229
	c-1.846,0-3.343,1.497-3.343,3.344l-3.344,25.22c0,0-0.56,4.439-0.542,6.951c0.042,5.929,4.379,6.912,6.114,6.947l1.083-0.017
	c-2.007-0.025-5.796-1.743-5.546-6.86c0,0-0.25-2.77,2.953-4.423c2.305-1.21,3.739-1.04,3.739-1.04h27.81
	c0-0.002,4.431-0.095,5.187-0.951c0.001-0.029,0.009-0.056,0.009-0.084L38.005,4.062z"/>
<polygon points="11.678,0 10.433,14.066 15.338,12.334 20.417,14.181 19.509,0 "/>
</svg>
