<?xml version="1.0" encoding="utf-8"?>
<!-- Generator: Adobe Illustrator 15.0.0, SVG Export Plug-In  -->
<!DOCTYPE svg PUBLIC "-//W3C//DTD SVG 1.1//EN" "http://www.w3.org/Graphics/SVG/1.1/DTD/svg11.dtd" [
	<!ENTITY ns_flows "http://ns.adobe.com/Flows/1.0/">
]>
<svg version="1.1"
	 xmlns="http://www.w3.org/2000/svg" xmlns:xlink="http://www.w3.org/1999/xlink" xmlns:a="http://ns.adobe.com/AdobeSVGViewerExtensions/3.0/"
	 x="0px" y="0px" width="48px" height="48px" viewBox="-2.659 -2.825 48 48"
	 xml:space="preserve">
<defs>
</defs>
<path d="M18.397,15.758c-0.365,0.176-1.175,0.446-2.208,0.446c-2.32,0-3.83-1.574-3.83-3.924c0-2.367,1.621-4.098,4.131-4.098
	c0.827,0,1.558,0.206,1.938,0.413L18.11,9.659c-0.333-0.175-0.857-0.365-1.62-0.365c-1.763,0-2.716,1.318-2.716,2.905
	c0,1.78,1.145,2.876,2.668,2.876c0.795,0,1.32-0.189,1.718-0.365L18.397,15.758z"/>
<path d="M19.847,14.615c0.429,0.253,1.16,0.54,1.859,0.54c1,0,1.478-0.491,1.478-1.144c0-0.667-0.397-1.016-1.414-1.398
	c-1.399-0.509-2.05-1.254-2.05-2.177c0-1.239,1.016-2.255,2.652-2.255c0.777,0,1.46,0.206,1.873,0.477l-0.334,1.016
	c-0.299-0.19-0.854-0.46-1.571-0.46c-0.826,0-1.269,0.476-1.269,1.048c0,0.636,0.443,0.922,1.442,1.318
	c1.318,0.493,2.02,1.161,2.02,2.303c0,1.366-1.063,2.32-2.859,2.32c-0.842,0-1.62-0.223-2.16-0.542L19.847,14.615z"/>
<path d="M26.141,14.615c0.429,0.253,1.161,0.54,1.859,0.54c1,0,1.479-0.491,1.479-1.144c0-0.667-0.4-1.016-1.418-1.398
	c-1.396-0.509-2.047-1.254-2.047-2.177c0-1.239,1.014-2.255,2.652-2.255c0.777,0,1.459,0.206,1.871,0.477l-0.331,1.016
	c-0.302-0.19-0.858-0.46-1.572-0.46c-0.825,0-1.271,0.476-1.271,1.048c0,0.636,0.445,0.922,1.447,1.318
	c1.314,0.493,2.018,1.161,2.018,2.303c0,1.366-1.065,2.32-2.86,2.32c-0.842,0-1.621-0.223-2.16-0.542L26.141,14.615z"/>
<rect x="16.005" y="19.728" width="10.07" height="2.043"/>
<rect x="16.005" y="25.229" width="10.07" height="2.041"/>
<rect x="16.005" y="30.729" width="10.07" height="2.043"/>
<path d="M42.36,0.901C42.36,0.403,41.956,0,41.458,0H0.901C0.403,0,0,0.402,0,0.901l0.02,40.547c0,0.498,0.404,0.901,0.902,0.901
	h40.557c0.498,0,0.901-0.403,0.901-0.901L42.36,0.901z M9.122,18.506H8.737c-1.336,0.022-1.811,0.725-1.811,1.948
	c0,0.519,0.089,1.062,0.158,1.606c0.09,0.566,0.181,1.108,0.181,1.721c0.022,1.451-0.634,2.175-1.653,2.445v0.047
	c1.019,0.271,1.653,1.02,1.653,2.469c0,0.61-0.091,1.178-0.181,1.742c-0.069,0.545-0.158,1.088-0.158,1.633
	c0,1.268,0.543,1.947,1.811,1.972h0.385v1.244H8.646c-1.857,0-3.284-0.814-3.284-3.104c0-0.611,0.091-1.242,0.204-1.855
	c0.068-0.635,0.158-1.246,0.158-1.834c0-0.725-0.226-1.7-1.833-1.7v-1.154c1.585,0,1.812-0.883,1.833-1.676
	c0-0.635-0.089-1.271-0.18-1.879c-0.091-0.658-0.182-1.292-0.182-1.903c0-2.083,1.382-2.967,3.307-2.967h0.453V18.506z M32.3,36.299
	H10.08V6.086H32.3V36.299z M38.821,26.837c-1.606,0-1.834,0.977-1.834,1.699c0,0.589,0.09,1.199,0.158,1.834
	c0.112,0.613,0.204,1.244,0.204,1.856c0,2.289-1.427,3.104-3.284,3.104h-0.477v-1.244h0.386c1.269-0.023,1.812-0.704,1.812-1.973
	c0-0.543-0.09-1.088-0.156-1.633c-0.092-0.563-0.184-1.131-0.184-1.74c0-1.45,0.636-2.198,1.653-2.469v-0.048
	c-1.019-0.271-1.675-0.995-1.653-2.444c0-0.612,0.092-1.154,0.184-1.722c0.066-0.544,0.156-1.088,0.156-1.606
	c0-1.224-0.477-1.926-1.812-1.948h-0.386v-1.247h0.454c1.925,0,3.307,0.884,3.307,2.967c0,0.611-0.092,1.245-0.182,1.903
	c-0.091,0.609-0.181,1.245-0.181,1.879c0.022,0.793,0.248,1.676,1.834,1.676V26.837z"/>
</svg>
