<?xml version="1.0" encoding="utf-8"?>
<!DOCTYPE svg PUBLIC "-//W3C//DTD SVG 1.1//EN" "http://www.w3.org/Graphics/SVG/1.1/DTD/svg11.dtd" [
	<!ENTITY ns_flows "http://ns.adobe.com/Flows/1.0/">
]>
<svg version="1.1"
	 xmlns="http://www.w3.org/2000/svg" x="0px" y="0px" width="48px" height="48px" viewBox="-1.702 -1.623 48 48">
<defs>
</defs>
<path d="M24.297,16.297c0-0.263,0-0.263,0-0.263c-0.019-0.283,0.229-0.584,0.546-0.67l1.089-0.291
	c0.322-0.086,0.513-0.417,0.427-0.737l-0.543-2.033c-0.086-0.32-0.418-0.511-0.738-0.425l-1.088,0.292
	c-0.316,0.086-0.709-0.082-0.869-0.372l-0.625-0.979c-0.196-0.267-0.182-0.693,0.03-0.946l0.726-0.863
	c0.211-0.252,0.178-0.634-0.075-0.848l-1.613-1.353c-0.253-0.212-0.635-0.18-0.847,0.074l-0.725,0.863
	C19.78,8,19.36,8.092,19.061,7.953l-1.85-0.671c-0.32-0.087-0.581-0.429-0.581-0.759V5.396c0-0.331-0.27-0.602-0.6-0.602h-2.106
	c-0.331,0-0.601,0.271-0.601,0.602v1.126c0,0.33-0.263,0.667-0.583,0.746l-1.109,0.346c-0.308,0.121-0.716-0.003-0.907-0.273
	l-0.645-0.922C9.889,6.147,9.513,6.082,9.242,6.27L7.518,7.478C7.247,7.667,7.18,8.044,7.37,8.315l0.646,0.923
	c0.189,0.27,0.167,0.695-0.051,0.945l-0.707,0.923c-0.184,0.273-0.59,0.405-0.901,0.292L5.3,11.013
	c-0.312-0.113-0.658,0.048-0.771,0.36L3.81,13.351c-0.114,0.31,0.049,0.657,0.359,0.771l1.058,0.385
	c0.311,0.112,0.53,0.475,0.487,0.802c0,0-0.059,0.446-0.059,0.988c0,0.261,0,0.261,0,0.261c0.019,0.283-0.228,0.585-0.545,0.67
	L4.02,17.52c-0.319,0.085-0.51,0.417-0.425,0.736L4.14,20.29c0.086,0.319,0.417,0.51,0.737,0.425l1.086-0.291
	c0.32-0.086,0.712,0.079,0.872,0.37l0.625,0.979c0.196,0.268,0.181,0.695-0.032,0.948l-0.723,0.862
	c-0.213,0.254-0.179,0.634,0.074,0.847l1.613,1.354c0.252,0.211,0.635,0.179,0.846-0.074l0.725-0.863
	c0.213-0.252,0.632-0.344,0.932-0.204l1.85,0.67c0.319,0.086,0.58,0.43,0.58,0.76v1.125c0,0.33,0.271,0.602,0.601,0.602h2.106
	c0.331,0,0.6-0.271,0.6-0.602v-1.125c0-0.33,0.263-0.666,0.584-0.746l1.108-0.35c0.309-0.117,0.716,0.006,0.906,0.278l0.646,0.919
	c0.189,0.271,0.566,0.339,0.837,0.146l1.724-1.205c0.271-0.19,0.336-0.567,0.147-0.838l-0.645-0.922
	c-0.191-0.272-0.168-0.697,0.05-0.945l0.707-0.922c0.184-0.275,0.588-0.407,0.9-0.292l1.06,0.383
	c0.31,0.114,0.656-0.048,0.771-0.358l0.722-1.978c0.111-0.31-0.051-0.657-0.359-0.771l-1.059-0.385
	c-0.313-0.114-0.531-0.475-0.488-0.803C24.239,17.282,24.297,16.836,24.297,16.297z M14.977,23.152
	c-3.787,0-6.857-3.069-6.857-6.855c0-3.788,3.07-6.858,6.857-6.858c3.786,0,6.855,3.07,6.855,6.858
	C21.833,20.083,18.763,23.152,14.977,23.152z"/>
<path d="M39.348,31.46c0-0.183,0-0.183,0-0.183c-0.014-0.199,0.16-0.408,0.384-0.471l0.762-0.203c0.226-0.06,0.359-0.293,0.3-0.515
	l-0.382-1.423c-0.063-0.227-0.293-0.359-0.516-0.303l-0.763,0.205c-0.224,0.061-0.498-0.058-0.608-0.258l-0.438-0.688
	c-0.137-0.188-0.127-0.484,0.021-0.662l0.508-0.604c0.146-0.18,0.125-0.445-0.055-0.596l-1.127-0.947
	c-0.18-0.146-0.445-0.125-0.594,0.055l-0.509,0.604c-0.147,0.178-0.44,0.242-0.651,0.145l-1.297-0.471
	c-0.221-0.062-0.404-0.299-0.404-0.53v-0.789c0-0.232-0.189-0.421-0.42-0.421h-1.475c-0.23,0-0.422,0.188-0.422,0.421v0.789
	c0,0.231-0.184,0.466-0.408,0.522l-0.775,0.242c-0.216,0.084-0.502-0.003-0.634-0.195l-0.452-0.644
	c-0.132-0.19-0.396-0.235-0.588-0.103l-1.208,0.845c-0.188,0.133-0.235,0.397-0.1,0.586l0.45,0.646
	c0.134,0.19,0.117,0.486-0.034,0.662l-0.494,0.646c-0.132,0.189-0.414,0.283-0.634,0.205l-0.74-0.271
	c-0.216-0.078-0.46,0.034-0.54,0.252l-0.504,1.385c-0.078,0.217,0.034,0.459,0.254,0.539l0.739,0.271
	c0.219,0.078,0.371,0.33,0.344,0.561c0,0-0.043,0.312-0.043,0.69c0,0.185,0,0.185,0,0.185c0.016,0.199-0.158,0.41-0.382,0.471
	l-0.763,0.203c-0.225,0.06-0.358,0.291-0.297,0.515l0.379,1.425c0.062,0.225,0.293,0.355,0.517,0.296l0.759-0.2
	c0.227-0.061,0.501,0.058,0.613,0.256l0.435,0.688c0.14,0.185,0.128,0.483-0.021,0.662l-0.506,0.604
	c-0.147,0.178-0.127,0.443,0.051,0.59l1.13,0.949c0.177,0.149,0.442,0.125,0.593-0.054l0.508-0.603
	c0.146-0.18,0.442-0.242,0.651-0.145l1.294,0.469c0.225,0.063,0.406,0.301,0.406,0.529v0.79c0,0.231,0.189,0.42,0.422,0.42h1.475
	c0.229,0,0.42-0.188,0.42-0.42v-0.79c0-0.229,0.185-0.465,0.409-0.521l0.774-0.243c0.218-0.085,0.503,0.002,0.634,0.192l0.453,0.646
	c0.132,0.189,0.397,0.238,0.587,0.104l1.206-0.846c0.19-0.132,0.237-0.396,0.104-0.585l-0.453-0.647
	c-0.133-0.188-0.117-0.485,0.037-0.658l0.493-0.647c0.13-0.192,0.412-0.284,0.63-0.205l0.742,0.269
	c0.217,0.08,0.459-0.031,0.539-0.25l0.502-1.387c0.082-0.215-0.031-0.459-0.25-0.539l-0.742-0.269
	c-0.218-0.078-0.369-0.33-0.341-0.562C39.307,32.15,39.348,31.839,39.348,31.46z M32.821,36.261c-2.65,0-4.799-2.149-4.799-4.801
	s2.147-4.799,4.799-4.799c2.649,0,4.799,2.147,4.799,4.799S35.472,36.261,32.821,36.261z"/>
<path d="M37.024,17.021c0-0.13,0-0.13,0-0.13c-0.01-0.139,0.11-0.287,0.27-0.328l0.533-0.144c0.158-0.041,0.252-0.205,0.211-0.363
	l-0.27-0.999c-0.041-0.156-0.203-0.25-0.359-0.209l-0.535,0.143c-0.156,0.042-0.35-0.04-0.43-0.182l-0.306-0.482
	c-0.097-0.131-0.088-0.341,0.015-0.465l0.356-0.424c0.104-0.124,0.088-0.311-0.037-0.416l-0.791-0.665
	c-0.126-0.105-0.313-0.088-0.417,0.036l-0.355,0.425c-0.104,0.125-0.313,0.169-0.457,0.102l-0.911-0.33
	c-0.155-0.044-0.283-0.21-0.283-0.374v-0.553c0-0.163-0.133-0.296-0.297-0.296h-1.034c-0.164,0-0.295,0.133-0.295,0.296v0.553
	c0,0.163-0.129,0.328-0.285,0.366l-0.548,0.17c-0.149,0.06-0.351-0.001-0.444-0.134l-0.318-0.453
	c-0.09-0.133-0.275-0.166-0.409-0.072l-0.849,0.594c-0.135,0.093-0.166,0.279-0.072,0.411l0.316,0.454
	c0.092,0.133,0.082,0.341-0.024,0.464l-0.349,0.453c-0.09,0.134-0.287,0.199-0.441,0.144l-0.521-0.19
	c-0.152-0.055-0.322,0.024-0.38,0.177l-0.353,0.972c-0.059,0.152,0.023,0.323,0.177,0.379l0.521,0.189
	c0.151,0.055,0.26,0.233,0.24,0.395c0,0-0.031,0.219-0.031,0.485c0,0.127,0,0.127,0,0.127c0.012,0.141-0.109,0.289-0.267,0.33
	l-0.537,0.143c-0.155,0.042-0.25,0.205-0.207,0.362l0.267,1c0.043,0.156,0.205,0.25,0.363,0.208l0.533-0.143
	c0.157-0.042,0.352,0.04,0.43,0.183l0.308,0.48c0.094,0.132,0.088,0.342-0.017,0.467l-0.355,0.422
	c-0.104,0.125-0.088,0.312,0.035,0.417l0.794,0.664c0.125,0.104,0.312,0.088,0.416-0.037l0.354-0.423
	c0.104-0.125,0.313-0.171,0.459-0.101l0.908,0.327c0.156,0.044,0.285,0.211,0.285,0.375v0.556c0,0.163,0.131,0.296,0.295,0.296
	h1.034c0.164,0,0.297-0.133,0.297-0.296v-0.553c0-0.164,0.13-0.328,0.285-0.368l0.544-0.169c0.152-0.06,0.354,0.002,0.447,0.134
	l0.314,0.453c0.096,0.134,0.279,0.165,0.414,0.073l0.848-0.592c0.131-0.095,0.166-0.28,0.071-0.413l-0.317-0.454
	c-0.092-0.132-0.082-0.342,0.026-0.465l0.347-0.453c0.09-0.134,0.289-0.199,0.442-0.143l0.521,0.188
	c0.15,0.056,0.322-0.023,0.377-0.177l0.355-0.97c0.055-0.154-0.023-0.324-0.176-0.381L37.233,17.9
	c-0.152-0.057-0.262-0.234-0.238-0.396C36.996,17.504,37.024,17.284,37.024,17.021z M32.444,20.389c-1.86,0-3.371-1.507-3.371-3.368
	c0-1.863,1.511-3.37,3.371-3.37s3.369,1.507,3.369,3.37C35.813,18.882,34.305,20.389,32.444,20.389z"/>
<path d="M0,0.012v44.733l44.596-0.013V0L0,0.012z M42.707,42.954L1.888,42.967V1.788l40.819-0.012V42.954z"/>
</svg>
