<?xml version="1.0" encoding="utf-8"?>
<svg version="1.1"
	 xmlns="http://www.w3.org/2000/svg" x="0px" y="0px" width="48px" height="48px" viewBox="-3.568 -3.701 48 48">
<defs>
</defs>
<path d="M40.863,17.196c0-0.55-0.449-1-1-1H17.62c-0.55,0-1,0.45-1,1v16.302c0,0.549,0.45,1,1,1h2.788
	c0.549,0,1.26,0.367,1.576,0.816l3.524,4.991c0.317,0.451,0.647,0.373,0.733-0.17l0.741-4.651c0.087-0.543,0.607-0.986,1.158-0.986
	h11.72c0.551,0,1-0.451,1-1V17.196H40.863z"/>
<path d="M9.736,9.088c-2.413,0-4.384-1.812-4.679-4.146H1c-0.55,0-1,0.45-1,1v16.301c0,0.55,0.45,1,1,1h2.788
	c0.551,0,1.261,0.367,1.577,0.816l3.524,4.992c0.316,0.451,0.646,0.373,0.732-0.17l0.742-4.652c0.087-0.543,0.607-0.986,1.157-0.986
	h2.625v-8.69h0.002c0-0.55,0.45-1,1-1h10.096V9.088H9.736z"/>
<path d="M34.553,0H10.262c-1.656,0-3,1.343-3,3v1.047c0,1.657,1.344,3,3,3h24.291c1.656,0,3-1.343,3-3V3
	C37.553,1.343,36.209,0,34.553,0z M13.041,5.552l-1.444-0.76l-1.446,0.76l0.276-1.61l-1.17-1.141l1.615-0.234l0.725-1.465
	l0.723,1.465l1.616,0.234l-1.17,1.141L13.041,5.552z M18.516,5.649l-1.446-0.761l-1.446,0.761l0.276-1.61l-1.17-1.141l1.617-0.235
	l0.723-1.465l0.723,1.465l1.617,0.235l-1.17,1.141L18.516,5.649z M23.988,5.649l-1.445-0.761l-1.446,0.761l0.276-1.61l-1.171-1.141
	l1.618-0.235l0.723-1.465l0.722,1.465l1.616,0.235l-1.17,1.141L23.988,5.649z M29.461,5.552l-1.444-0.76l-1.446,0.76l0.275-1.609
	l-1.17-1.141l1.615-0.235l0.726-1.465l0.722,1.465l1.616,0.235l-1.169,1.141L29.461,5.552z M34.935,5.649l-1.446-0.761l-1.447,0.761
	l0.277-1.61l-1.17-1.141l1.616-0.235l0.724-1.465l0.723,1.465l1.617,0.235l-1.17,1.141L34.935,5.649z"/>
</svg>
