<?xml version="1.0" encoding="utf-8"?>
<!-- Generator: Adobe Illustrator 15.0.0, SVG Export Plug-In  -->
<!DOCTYPE svg PUBLIC "-//W3C//DTD SVG 1.1//EN" "http://www.w3.org/Graphics/SVG/1.1/DTD/svg11.dtd" [
	<!ENTITY ns_flows "http://ns.adobe.com/Flows/1.0/">
]>
<svg version="1.1"
	 xmlns="http://www.w3.org/2000/svg" xmlns:xlink="http://www.w3.org/1999/xlink" xmlns:a="http://ns.adobe.com/AdobeSVGViewerExtensions/3.0/"
	 x="0px" y="0px" width="48px" height="48px" viewBox="-2.866 -2.478 48 48"
	 xml:space="preserve">
<defs>
</defs>
<path d="M20.105,15.973c-1.556-1.392-4.23-4.299-2.896-6.591c1.118-1.918,5.885-5.51,4.448-7.826
	c0.238-0.213,0.479-0.426,0.72-0.639c1.265,2.876-1.622,5.939-3.502,7.66c-3.207,2.933,1.385,5.721,2.35,7.529
	c0.031,0.057-1.017-0.047-1.017-0.047L20.105,15.973z"/>
<path d="M36.741,16.301c-2.107-4.607-5.305-3.471-9.17-1.668c-1.654,0.771-3.539,1.232-5.442,1.386
	c0.003-0.022,0.014-0.042,0.014-0.066c0-0.338-0.274-0.612-0.611-0.611h-0.15c-0.28-0.375-0.635-0.767-1.01-1.174
	c-0.991-1.078-2.114-2.302-2.063-3.492c0.025-0.582,0.333-1.134,0.939-1.69c0.215-0.197,0.444-0.397,0.677-0.603
	c1.789-1.573,4.24-4.774,2.958-7.688L22.575,0l-1.633,1.453l0.246,0.395c0.667,1.073-0.569,3.38-2.389,5.039
	c-0.85,0.775-1.653,1.507-2.067,2.217c-1.303,2.239,0.594,4.845,2.115,6.422c-0.107,0.11-0.175,0.259-0.176,0.424
	c-0.451-0.059-0.896-0.135-1.33-0.233c-1.991-0.45-4.251-2.732-6.152-2.732c-5.353,0-6.065,4.107-7.582,8.617
	C1.736,27.17,0.657,33.9,0,39.728c0,1.83,1.484,3.313,3.315,3.313c4.625-0.879,1.909-9.612,8.392-9.612c3.142,0,6.285,0,9.427,0
	c3.143,0,6.283,0,9.43,0c6.467,0,3.795,8.86,8.391,9.612c1.83,0,3.313-1.483,3.313-3.313C41.034,32.129,39.796,23.418,36.741,16.301
	z M15.871,25.946h-1.337v1.338c0,0.867-0.705,1.572-1.574,1.572c-0.869,0-1.573-0.705-1.573-1.572v-1.338H10.05
	c-0.869,0-1.574-0.705-1.574-1.572c0-0.869,0.705-1.574,1.574-1.574h1.337v-1.338c-0.001-0.869,0.704-1.573,1.573-1.573
	c0.869,0,1.574,0.705,1.574,1.573v1.338h1.337c0.868-0.002,1.574,0.705,1.574,1.574C17.445,25.241,16.74,25.946,15.871,25.946z
	 M30.657,19.491c0.945-0.001,1.713,0.766,1.713,1.711c0,0.944-0.769,1.71-1.713,1.71c-0.945,0-1.711-0.767-1.711-1.71
	C28.946,20.257,29.712,19.491,30.657,19.491z M27.243,26.329c-0.945,0-1.711-0.766-1.711-1.711s0.766-1.713,1.711-1.713
	s1.709,0.768,1.709,1.713S28.188,26.329,27.243,26.329z M30.657,29.743c-0.945,0-1.711-0.767-1.711-1.71
	c0-0.944,0.766-1.71,1.711-1.71s1.713,0.766,1.713,1.71C32.37,28.976,31.602,29.743,30.657,29.743z M34.073,26.329
	c-0.944,0-1.709-0.766-1.709-1.711s0.765-1.713,1.709-1.713c0.945,0,1.711,0.768,1.711,1.713S35.019,26.329,34.073,26.329z"/>
</svg>
