<?xml version="1.0" encoding="utf-8"?>
<!-- Generator: Adobe Illustrator 15.0.0, SVG Export Plug-In  -->
<!DOCTYPE svg PUBLIC "-//W3C//DTD SVG 1.1//EN" "http://www.w3.org/Graphics/SVG/1.1/DTD/svg11.dtd" [
	<!ENTITY ns_flows "http://ns.adobe.com/Flows/1.0/">
]>
<svg version="1.1"
	 xmlns="http://www.w3.org/2000/svg" x="0px" y="0px" width="48px" height="48px" viewBox="-6.122 -4.257 48 48"
	 xml:space="preserve">
<defs>
</defs>
<path d="M1.408,30.172v6.75c0,1.104,0.896,2,2,2h8.633v-8.75H1.408z"/>
<path d="M1.408,18.555h10.633V8.138H1.896c-1.047,0-1.896,0.896-1.896,2v4.57h1.408V18.555z"/>
<polygon points="21.023,21.34 21.023,8.51 28.351,4.308 24.332,3.191 22.544,0.289 18.457,4.871 13.967,0 12.751,3.55 9.864,5.316 
	14.641,7.892 14.641,21.34 0.733,21.34 0.733,27.723 14.641,27.723 14.641,39.486 21.023,39.486 21.023,27.723 35.328,27.723 
	35.328,21.34 "/>
<path d="M34.63,18.555v-3.847h1.127v-4.57c0-1.104-0.85-2-1.896-2H23.659v10.417H34.63z"/>
<path d="M23.659,30.172v8.75h8.972c1.104,0,2-0.896,2-2v-6.75H23.659z"/>
</svg>
