<?xml version="1.0" encoding="utf-8"?>
<svg version="1.1"
	 xmlns="http://www.w3.org/2000/svg" x="0px" y="0px" width="48px" height="48px" viewBox="-2.125 -3.346 48 48">
<defs>
</defs>
<path d="M30.331,10.133l6.316-7.513c-1.945-0.976-4.061-1.358-6.044-1.285c-0.572,0.021-1.122,0.121-1.648,0.283L30.331,10.133z"/>
<path d="M12.862,12.498l3.457,9.463L27.396,2.302c-2.854,1.63-4.807,4.87-5.521,6.202c-0.958-1.786-4.136-6.999-8.729-7.169
	C7.189,1.113,0,4.888,0,17.103c0,4.126,2.512,8.224,5.832,11.845L12.862,12.498z"/>
<path d="M26.873,34.152l-2.729-8.734L16.83,38.121c2.444,1.645,4.346,2.739,4.941,3.074l0.001,0.113c0,0,0.042-0.021,0.103-0.058
	c0.061,0.035,0.103,0.058,0.103,0.058l0.001-0.113C24.157,39.97,43.75,28.639,43.75,17.103c0-5.423-1.421-9.176-3.518-11.661
	L26.873,34.152z"/>
<polygon points="3.367,40.636 12.63,18.782 15.607,29.027 27.516,7.513 28.508,16.734 41.409,0 27.184,25.952 25.2,17.416 
	14.944,35.855 11.637,28.686 "/>
</svg>
