<?xml version="1.0" encoding="utf-8"?>
<!-- Generator: Adobe Illustrator 15.0.0, SVG Export Plug-In  -->
<!DOCTYPE svg PUBLIC "-//W3C//DTD SVG 1.1//EN" "http://www.w3.org/Graphics/SVG/1.1/DTD/svg11.dtd" [
	<!ENTITY ns_flows "http://ns.adobe.com/Flows/1.0/">
]>
<svg version="1.1"
	 xmlns="http://www.w3.org/2000/svg" x="0px" y="0px" width="100px" height="100px" viewBox="-12.262 -4.582 100 100"
	 xml:space="preserve">
<defs>
</defs>
<path d="M47.285,79.568c0,0.813-0.658,1.472-1.47,1.472H30.467c-0.811,0-1.47-0.658-1.47-1.472l0,0c0-0.812,0.659-1.467,1.47-1.467
	h15.348C46.625,78.102,47.285,78.758,47.285,79.568L47.285,79.568z"/>
<path d="M47.285,84.109c0,0.813-0.658,1.469-1.47,1.469H30.467c-0.811,0-1.47-0.655-1.47-1.469l0,0c0-0.812,0.659-1.469,1.47-1.469
	h15.348C46.625,82.641,47.285,83.299,47.285,84.109L47.285,84.109z"/>
<path d="M32.345,87.245c1.098,2.13,3.315,3.591,5.877,3.591c2.563,0,4.781-1.461,5.877-3.591H32.345z"/>
<path d="M57.555,47.438c-0.177-10.63-8.618-19.25-19.25-19.25c-0.134,0-0.263,0.016-0.395,0.02c-0.13-0.005-0.258-0.02-0.388-0.02
	c-10.63,0-19.071,8.62-19.249,19.25c-0.141,8.377,5.883,12.699,9.423,19.593c2.09,4.067,1.9,8.561,1.9,8.561
	c0,0.334,0.406,0.607,0.906,0.607h14.823c0.5,0,0.907-0.273,0.907-0.608c0,0-0.191-4.492,1.897-8.56
	C51.67,60.136,57.696,55.814,57.555,47.438z M31.023,34.784c-4.073,2.665-7.022,6.828-8.199,11.644h-1.68
	c0.954-5.257,3.991-9.848,8.322-12.735C29.466,33.693,31.63,34.386,31.023,34.784z"/>
<path d="M40.601,16.65c0,1.483-1.202,2.685-2.687,2.685l0,0c-1.483,0-2.686-1.202-2.686-2.685V2.686C35.229,1.202,36.432,0,37.915,0
	l0,0c1.484,0,2.687,1.202,2.687,2.686V16.65z"/>
<path d="M26.899,17.412c0.742,1.285,0.303,2.927-0.983,3.668l0,0c-1.285,0.742-2.927,0.302-3.668-0.983L15.267,8.004
	c-0.742-1.284-0.302-2.927,0.983-3.668l0,0c1.284-0.741,2.927-0.301,3.668,0.983L26.899,17.412z"/>
<path d="M16.124,24.339c1.284,0.741,1.725,2.383,0.983,3.668l0,0c-0.742,1.285-2.384,1.725-3.668,0.983L1.343,22.008
	c-1.285-0.742-1.725-2.384-0.983-3.668l0,0c0.742-1.285,2.384-1.725,3.668-0.983L16.124,24.339z"/>
<path d="M59.352,24.339c-1.285,0.741-1.726,2.383-0.982,3.668l0,0c0.742,1.285,2.384,1.725,3.668,0.983l12.095-6.982
	c1.284-0.742,1.726-2.384,0.981-3.668l0,0c-0.74-1.285-2.383-1.725-3.668-0.983L59.352,24.339z"/>
<path d="M48.121,17.412c-0.74,1.285-0.302,2.927,0.983,3.668l0,0c1.284,0.742,2.926,0.302,3.668-0.983l6.981-12.094
	c0.742-1.284,0.302-2.927-0.981-3.668l0,0c-1.285-0.741-2.926-0.301-3.67,0.983L48.121,17.412z"/>
</svg>
