<?xml version="1.0" encoding="utf-8"?>
<!-- Generator: Adobe Illustrator 15.0.0, SVG Export Plug-In  -->
<!DOCTYPE svg PUBLIC "-//W3C//DTD SVG 1.1//EN" "http://www.w3.org/Graphics/SVG/1.1/DTD/svg11.dtd" [
	<!ENTITY ns_flows "http://ns.adobe.com/Flows/1.0/">
]>
<svg version="1.1"
	 xmlns="http://www.w3.org/2000/svg" xmlns:xlink="http://www.w3.org/1999/xlink" xmlns:a="http://ns.adobe.com/AdobeSVGViewerExtensions/3.0/"
	 x="0px" y="0px" width="48px" height="48px" viewBox="-0.851 -0.837 48 48"
	 xml:space="preserve">
<defs>
</defs>
<polygon points="17.147,25.896 23.209,18.679 29.27,25.896 "/>
<path d="M12.699,22.191c0.43-5.081,4.478-9.123,9.561-9.549V8.143C14.695,8.586,8.65,14.628,8.202,22.191H12.699z"/>
<path d="M12.7,24.083H8.203c0.459,7.553,6.5,13.582,14.057,14.026v-4.498C17.184,33.185,13.14,29.153,12.7,24.083z"/>
<path d="M33.595,24.083c-0.438,5.033-4.423,9.048-9.444,9.523v4.497c7.505-0.497,13.484-6.505,13.941-14.021H33.595z"/>
<path d="M33.592,22.191h4.497c-0.482-7.49-6.451-13.471-13.938-13.968v4.497C29.155,13.195,33.131,17.182,33.592,22.191z"/>
<path d="M26.832,6.91c-0.406-0.091-0.815-0.172-1.231-0.235v0.01c0.415,0.061,0.824,0.141,1.229,0.232L26.832,6.91z"/>
<path d="M31.372,1.535l-2.118,6.128c2.106,0.826,4.008,2.06,5.592,3.621l4.499-4.667C37.087,4.408,34.379,2.671,31.372,1.535z"/>
<path d="M28.803,38.825c-1.769,0.643-3.663,1.014-5.655,1.014c-0.832,0-1.641-0.086-2.438-0.207L18.835,45.9
	c1.398,0.269,2.836,0.425,4.313,0.425c3.033,0,5.917-0.599,8.571-1.66L28.803,38.825z"/>
<path d="M11.284,34.864l-4.864,4.293c2.705,2.824,6.118,4.953,9.956,6.124l1.854-6.204C15.567,38.257,13.192,36.796,11.284,34.864z"
	/>
<path d="M36.939,32.519c-1.49,2.187-3.483,3.999-5.819,5.272l2.894,5.794c3.495-1.862,6.459-4.58,8.598-7.892L36.939,32.519z"/>
<path d="M39.722,21.546c0.059,0.533,0.102,1.069,0.102,1.617c0,2.562-0.583,4.989-1.615,7.159l5.662,3.173
	c1.555-3.112,2.44-6.617,2.44-10.332c0-0.902-0.08-1.783-0.187-2.655L39.722,21.546z"/>
<path d="M41.052,8.497l-4.538,4.708c1.276,1.723,2.228,3.701,2.769,5.846l6.419-1.041C44.897,14.458,43.279,11.222,41.052,8.497z"/>
<path d="M23.148,0C20.88,0,18.7,0.355,16.63,0.965l2.047,6.151c1.425-0.399,2.919-0.631,4.471-0.631
	c1.268,0,2.499,0.152,3.684,0.423l2.126-6.152C27.1,0.274,25.158,0,23.148,0z"/>
<path d="M14.241,1.813c-3.905,1.629-7.262,4.289-9.738,7.65l5.34,3.676c1.676-2.218,3.889-4,6.452-5.158L14.241,1.813z"/>
<path d="M6.485,22.728c0.07-2.695,0.782-5.227,1.986-7.457l-5.375-3.7C1.188,14.863,0.076,18.668,0,22.728H6.485z"/>
<path d="M6.627,25.261h-6.5c0.402,4.479,2.054,8.592,4.641,11.972l4.873-4.301C8.044,30.722,6.982,28.103,6.627,25.261z"/>
</svg>
