<?xml version="1.0" encoding="utf-8"?>
<!-- Generator: Adobe Illustrator 16.0.0, SVG Export Plug-In . SVG Version: 6.00 Build 0)  -->
<!DOCTYPE svg PUBLIC "-//W3C//DTD SVG 1.1//EN" "http://www.w3.org/Graphics/SVG/1.1/DTD/svg11.dtd">
<svg version="1.1" xmlns="http://www.w3.org/2000/svg" xmlns:xlink="http://www.w3.org/1999/xlink" x="0px" y="0px"
	 width="48px" height="48px" viewBox="0 0 48 48">
<path d="M28.496,10.225c0-0.754-1.005-0.586-1.173-0.586c-0.251,0-0.837,0-1.005,0.25c0.083,0.419,0.67,0.921,1.089,0.921
	C27.491,10.81,28.496,10.476,28.496,10.225z"/>
<path d="M6.46,21.828c0.179-0.726,0.677-1.733,1.017-2.14c0.251,0.083,0.503,0.418,0.67,0.418c0.251,0,0.334-0.251,0.418-0.418
	c0.083,0,0.251,0.083,0.335,0.083c-0.083,0.418-0.083,0.921-0.083,1.34c0.335,0.251,0.753,0.502,1.005,0.502
	c0.334,0,0.418-0.084,0.418-0.418c0-0.084,0-0.586-0.418-0.503c0.084-0.251,0.167-0.502,0.167-0.753
	c-0.083-1.424,2.01-1.424,2.093-2.596c0.251-0.084,0.837-0.67,1.089-0.922c1.507,0,0.67-0.921,1.759-0.921
	c0.251,0,0.167,0.251,0.418,0.251c0.167,0,1.34-0.503,1.926-0.838c0.083-0.083,0.083-0.251,0.083-0.419
	c0.335,0.084,0.754,0.335,1.005,0.335c0.335,0,0.921-0.251,0.921-0.586c0-0.251-0.167-0.419-0.167-0.586
	c0-0.251,0.167-0.167,0.167-0.251c0.084-0.167,0.167-0.419,0.167-0.67c0-0.168-0.251-0.251-0.419-0.251
	c0.084-1.005,0.084-1.507,0.084-1.675c0-0.251,0.502-0.334,0.837-0.586c0,0,1.004-0.251,1.004-0.67c0-0.251-0.251-0.251-0.251-0.503
	c0-0.167,0.167-0.083,0.167-0.251c0-0.251-0.251-0.419-0.335-0.586c0.251-0.251,0.67-0.502,1.089-0.586
	c-0.167,0.419,0.502,0.586,0.754,0.502v0.837c-0.167,0-0.502,0.167-0.586,0.335c-0.168,0.251-0.251,0.754-0.251,1.005
	c0,0.168,0,0.502,0.167,0.754c0.084,0.167,0.418,0.167,0.586,0.335c0.084,0.083,0.084,0.083,0.252,0.083
	c0.502,0,0.753-0.67,1.423-1.088c0.168-0.167,0.503-0.167,0.754-0.251c0.252-0.083,0.419-0.335,0.753-0.418
	c0.419-0.167,1.256-0.083,1.675-0.502c0.252-0.335,0.419-1.089,0.419-1.256c0-0.251-0.082-0.251-0.167-0.419
	c0.085-0.083,0.335-0.167,0.503-0.418c-0.084-0.083-0.168-0.251-0.252-0.335c-0.166-0.084-0.503-0.084-0.586-0.167
	c-0.252-0.083-0.336-0.335-0.503-0.418c-0.335-0.168-0.837-0.084-1.089-0.084c-0.167,0-0.836,0-1.255,0.084
	c-0.251,0-0.335,0.335-0.502,0.335c-0.251,0-1.089-0.754-1.34-0.754s-1.256,0.837-1.339,0.921c-0.084-0.083-0.084-0.167-0.335-0.167
	s-0.586,0.419-0.837,0.669c0-0.083,0-0.167,0.084-0.25c-0.084-0.084-0.084-0.252-0.335-0.252c-0.167,0-0.251,0.335-0.418,0.335
	c-0.251,0-0.251-0.167-0.419-0.167c-0.67,0-1.591,0.251-1.926,0.418c-0.084,0.084-0.335,0.084-0.587,0.168
	c-0.042,0.01-0.084,0.03-0.126,0.046c-0.32,0.168-0.641,0.344-0.962,0.541c0.366-0.22,0.668-0.433,0.962-0.541
	c2.68-1.413,5.314-1.889,8.082-1.889c3.768,0,7.537,1.005,10.049,3.099c0,0.083,0.25,0.167,0.418,0.251c0,0-0.084,0.083-0.084,0.167
	c-0.334-0.251-1.842-0.502-1.842-0.502c-0.42,0-0.755-0.083-1.006,0.754c-0.084,0.167,0,0.502-0.084,0.753s-0.418,0.502-0.418,0.754
	c0,0.167,0.585,1.089,1.005,1.256l0.251,0.502c-0.168,0.084-0.418,0.335-0.587,0.419c-0.502-0.587-0.585-0.67-1.005-1.257
	c-0.083-0.251-0.586-0.502-0.754-0.502c-0.501,0-0.501,0.585-0.418,0.921c-0.168,0-0.754,0.084-0.754,0.586
	c0,0.167,0.084,0.418,0.084,0.586c0,0.251,0.084,0.418,0.334,0.418c0.168,0,0.504-0.083,0.754-0.251
	c-0.167,0.67,0.168,0.419,0.252,1.089c0.251,0.251,0.502,0.251,0.755,0.418v0.251c-0.42,0.084-1.257-0.502-1.593,0.335v1.507
	c0.168,0.251,0.336,1.089,0.922,0.837c-0.252,0.251-0.754,0.586-1.005,1.005c-0.085,0.084-0.085,0.418-0.168,0.586
	c-0.335,0.335-0.921,0.502-1.173,0.921c-0.502,0.67-1.089,2.094-1.089,2.261c0,0.251,0.251,0.921,0.251,1.088
	c0,0.252-0.503,0.92-0.503,1.172c0,0.034,0.006,0.06,0.013,0.083c7.675-0.414,13.59-2.306,17.201-4.666
	c-1.633-9.39-9.729-16.549-19.804-16.549c-8.61,0-17.71,5.489-19.794,16.853C5.03,21.12,5.698,21.477,6.46,21.828z M18.699,9.22
	c-0.084,0.083-0.167,0.167-0.251,0.167C18.531,9.303,18.615,9.22,18.699,9.22z M18.448,10.643c0.083,0.083,0.167,0.083,0.167,0.167
	c0,0-0.167,0-0.167,0.084V10.643z M38.128,15.332c0.084,0.084,0.167,0.335,0.418,0.335c0.167,0,0.084-0.167,0.251-0.167
	c0.252,0,0.336,0.167,0.419,0.251c-0.25,0-0.586,0.083-0.921,0.25l-0.167-0.167V15.332z M35.635,18.595
	c0.638-0.022,0.32-0.924,0.815-1.503c0.587,0.502,1.007,1.424,1.844,1.424c0.251,0,0.335-0.334,0.335-0.418h0.419
	c0.084,0.251,0.335,0.502,0.754,0.418v0.502c0-0.251-0.336-0.083-0.503-0.083c-0.084,0.083-0.084,0.167-0.334,0.167
	c-0.169,0-1.09-0.335-1.257-0.335c-0.251,0-0.587-0.083-0.671,0.419C36.595,18.964,36.094,18.8,35.635,18.595
	c-0.008,0-0.012,0.004-0.021,0.004c-0.168,0-0.084,0-0.168-0.083C35.506,18.545,35.573,18.567,35.635,18.595z M34.86,16.924
	c-0.084,0.167,0,0.334,0,0.502c-0.838,0-1.758,0.083-2.596,0.251c0.168-0.167,0.334-0.334,0.334-0.502
	c0-0.251-0.082-0.251-0.166-0.419c0.084-0.083,0.418-0.25,0.67-0.586c0.166,0,0.418,0,0.586-0.084
	c0.084,0.168-0.084,1.172,0.502,1.172s0.418-0.669,0.504-0.753c0.166,0.167,0.418,0.25,0.668,0.418
	C35.28,16.924,35.112,16.84,34.86,16.924z M34.106,12.318c0.084-0.419,0.084-0.67,0.168-0.838c0.168,0.084,0.334,0.503,0.502,0.67
	C34.608,12.151,34.358,12.234,34.106,12.318z M18.112,10.225c0.083,0,0.083,0.083,0.083,0.167
	C18.112,10.308,18.029,10.225,18.112,10.225z M17.694,9.722c0.083,0-0.083,0.167-0.083,0.251C17.61,9.889,17.61,9.722,17.694,9.722z
	 M17.359,13.825c-0.418,0.419-0.586,0.335-0.921,0.67c0-0.251,0.335-0.418,0.419-0.67H17.359z M16.27,10.141
	c0.168,0,0.335,0.251,0.503,0.251c-0.167,0.251-0.503,0.334-0.67,0.502c-0.251,0.167-0.335,0.502-0.503,0.67
	c-0.251,0.167-0.585,0.251-0.837,0.419c-0.167-0.251-0.335-0.586-0.335-0.754C14.427,10.978,16.019,10.141,16.27,10.141z"/>
<path d="M31.344,7.712c0-0.168-0.503-0.753-0.754-0.753c-0.336,0-0.67,0.418-1.006,0v0.502c0.419,0.251,1.089,0.67,1.257,0.67
	C31.091,8.131,31.344,7.88,31.344,7.712z"/>
<path d="M41.261,31.046c-0.279,0.673-0.592,1.355-0.957,2.04c-0.084,0-0.251-0.084-0.335-0.084c0.112-0.486,0.337-1.06,0.621-1.633
	c-1.719,0.797-3.778,1.477-6.221,1.979c-0.351,0.453-0.933,0.793-0.933,1.498c0,0.25,0.084,0.502,0,0.754
	c-0.168,0.67-0.418,1.424-0.67,2.177c-0.169,0.419-0.503,0.923-0.67,1.341c0.083,0.083,0.167,0.167,0.418,0.167
	c0.754,0,2.428-0.921,3.1-1.508c0.166-0.167,0.418-0.503,0.668-0.669c0.588-0.42,0.755-0.504,1.091-0.922
	c0.084-0.084,0.084-0.336,0.251-0.418c0.167-0.252,0.587-0.504,0.921-0.754c-0.167,0.334-0.67,0.67-0.837,1.004
	c-0.084,0.168-0.168,0.67-0.419,0.92c-1.843,2.18-5.36,3.938-7.035,4.439c-0.921,0.251-1.675,0.503-2.513,0.67
	c-1.173,0.251-2.429,0.335-3.516,0.335c-0.168,0-1.591,0-2.428-0.167c0.167-0.084,0.251-0.084,0.251-0.252
	c0-0.25-0.419-0.502-0.586-0.502c-0.251,0-0.335,0.167-0.335,0.335c-0.251-0.168-1.591-1.34-1.591-1.676
	c0-0.167,0.083-0.167,0.083-0.251c0.083-0.167,0-0.418,0-0.67c0-0.167,0.419-1.172,0.419-1.34c0-0.252-0.251-0.586-0.335-0.838
	c0.503-0.252,1.591-0.838,1.341-1.508c0.083-0.25,0.167-0.502,0.167-0.754c0-0.104-0.095-0.338-0.169-0.561
	c-4.757-0.241-8.491-1.027-11.372-2.137c0.707,0.912,1.487,1.765,2.413,2.613c0.251,0.252,0.754,0.336,1.172,0.67
	c0.586,0.67,1.005,1.508,1.592,2.262c0.586,0.837,1.842,2.261,2.847,2.932c0.502,0.418,1.088,0.837,1.591,1.173
	c-3.936-0.67-10.217-5.61-11.808-10.05c-0.078-0.234-0.194-0.489-0.311-0.752c-0.855-0.469-1.604-0.971-2.259-1.493
	c0.131,0.562,0.227,0.962,0.227,0.987c3.66,9.943,11.854,13.684,19.094,13.684c9.102,0,16.843-5.988,19.302-14.406
	C42.86,30.159,42.106,30.617,41.261,31.046z"/>
<path d="M12.334,23.205c-0.419-0.251-0.921-0.251-1.424-0.502c0-0.335-0.167-0.754-0.335-0.754c-0.251,0-0.251,0.167-0.335,0.335
	c-0.418-0.252-1.256-0.922-1.423-0.922c-0.251,0-0.419,0-0.502,0.084c-0.251,0.083-0.251,0.335-0.419,0.418
	c-0.228,0.152-0.587,0.106-0.841,0.219c1.894,0.818,4.223,1.575,6.917,2.144C13.811,23.53,13.136,22.986,12.334,23.205z"/>
<path d="M44.996,21.193c-0.063,0.375-0.265,0.706-0.304,0.778c-1.763,3.269-10.348,5.751-20.703,5.751
	c-10.466,0-19.125-2.537-20.759-5.856c-0.018-0.037-0.267-0.438-0.205-0.876c-0.148,0.334-0.097,1.438-0.097,1.787
	c0,0.121,0,1.692,0,2c0,3.861,9.429,6.99,21.061,6.99c11.632,0,21.06-3.129,21.06-6.99C45.05,24.429,45.146,21.528,44.996,21.193z"
	/>
</svg>
