<?xml version="1.0" encoding="utf-8"?>
<!-- Generator: Adobe Illustrator 15.0.0, SVG Export Plug-In  -->
<!DOCTYPE svg PUBLIC "-//W3C//DTD SVG 1.1//EN" "http://www.w3.org/Graphics/SVG/1.1/DTD/svg11.dtd" [
	<!ENTITY ns_flows "http://ns.adobe.com/Flows/1.0/">
]>
<svg version="1.1"
	 xmlns="http://www.w3.org/2000/svg" xmlns:xlink="http://www.w3.org/1999/xlink" xmlns:a="http://ns.adobe.com/AdobeSVGViewerExtensions/3.0/"
	 x="0px" y="0px" width="48px" height="48px" viewBox="-1.415 -1.907 48 48"
	 xml:space="preserve">
<defs>
</defs>
<path d="M30.906,22.497H0.453C0.203,22.497,0,22.699,0,22.952v19.192c0,0.25,0.204,0.453,0.453,0.453h1.965v1.135
	c0,0.251,0.202,0.453,0.453,0.453h25.617c0.25,0,0.453-0.202,0.453-0.453v-1.135h1.967c0.248,0,0.451-0.203,0.451-0.453V22.952
	C31.359,22.699,31.154,22.497,30.906,22.497z M30.49,41.2c0,0.25-0.202,0.452-0.453,0.452H1.322c-0.25,0-0.454-0.202-0.454-0.452
	V23.896c0-0.252,0.203-0.454,0.454-0.454h28.715c0.251,0,0.453,0.202,0.453,0.454V41.2z"/>
<path d="M43.357,11.479H32.011c-0.987,0-1.757,0.442-1.757,1.428v19.297c0,0.986,0.77,1.525,1.757,1.525h11.347
	c0.984,0,1.813-0.539,1.813-1.525V12.907C45.17,11.921,44.342,11.479,43.357,11.479z M43.959,31.874c0,0.274-0.226,0.5-0.5,0.5
	H31.964c-0.275,0-0.5-0.226-0.5-0.5V13.238c0-0.275,0.225-0.5,0.5-0.5h11.495c0.274,0,0.5,0.225,0.5,0.5V31.874z"/>
<path d="M19.827,16.452h-2.548c-0.334-0.626-0.978-1.123-1.777-1.377l1.345-2.884c0.085-0.183,0.007-0.399-0.176-0.485
	c-0.183-0.086-0.4-0.006-0.484,0.176l-1.419,3.043c-0.156-0.018-0.31-0.038-0.47-0.038c-0.31,0-0.604,0.046-0.887,0.111
	c-0.004-0.034,0.012-0.067-0.004-0.101l-1.455-3.119c-0.085-0.183-0.301-0.262-0.484-0.176c-0.183,0.084-0.262,0.302-0.176,0.485
	l1.454,3.119c0.001,0.003,0.004,0.003,0.007,0.007c-0.638,0.276-1.151,0.707-1.435,1.24H8.771c-0.691,0-1.252,0.56-1.252,1.251
	v1.982c0,0.691,0.561,1.251,1.252,1.251h11.055c0.691,0,1.25-0.561,1.25-1.251v-1.982C21.077,17.012,20.517,16.452,19.827,16.452z
	 M18.886,19.685H9.812c-0.2,0-0.364-0.164-0.364-0.366c0-0.201,0.164-0.364,0.364-0.364h9.074c0.202,0.001,0.366,0.164,0.366,0.364
	C19.251,19.521,19.086,19.685,18.886,19.685z M18.886,18.433H9.812c-0.2,0-0.364-0.164-0.364-0.365c0-0.201,0.164-0.366,0.364-0.366
	h9.074c0.202,0.001,0.366,0.166,0.366,0.366C19.251,18.269,19.086,18.433,18.886,18.433z"/>
<path d="M21.029,7.126c-0.661-0.662-1.737-0.659-2.397,0c-0.659,0.66-0.66,1.736,0,2.396c0.661,0.662,1.737,0.661,2.397,0
	C21.689,8.863,21.69,7.788,21.029,7.126z"/>
<path d="M25.357,2.417c-2.764-2.708-6.008-2.595-7.874-2.219l0.128,1.546c1.472-0.341,4.548-0.305,6.66,1.778
	c0.027,0.025,0.048,0.049,0.076,0.074c2.26,1.971,2.354,5.267,2.122,6.88l1.538,0.143C28.283,8.625,28.337,5.306,25.357,2.417z"/>
<path d="M23.42,4.729c-0.021-0.021-0.041-0.042-0.062-0.063c-1.796-1.758-4.12-1.908-5.621-1.668l0.127,1.542
	c1.001-0.19,2.901-0.244,4.408,1.233c0.017,0.016,0.035,0.032,0.051,0.048c1.561,1.562,1.439,3.318,1.327,4.413l1.543,0.143
	C25.34,8.939,25.403,6.712,23.42,4.729z"/>
</svg>
