<?xml version="1.0" encoding="utf-8"?>
<svg version="1.1"
	 xmlns="http://www.w3.org/2000/svg" x="0px" y="0px" width="48px" height="48px" viewBox="-1.537 -1.906 48 48">
<defs>
</defs>
<path d="M41.493,0H3.433C1.538,0,0,1.538,0,3.434v37.318c0,1.898,1.537,3.435,3.433,3.435h38.06c1.898,0,3.434-1.536,3.434-3.435
	V3.434C44.926,1.538,43.391,0,41.493,0z M22.463,39.119c-9.403,0-17.025-7.622-17.025-17.025S13.06,5.068,22.463,5.068
	s17.025,7.623,17.025,17.026S31.867,39.119,22.463,39.119z"/>
<path d="M20.433,11.843c0-0.727,0.265-1.355,0.794-1.885c0.529-0.529,1.163-0.794,1.903-0.794s1.372,0.261,1.896,0.786
	c0.522,0.524,0.783,1.154,0.783,1.894c0,0.739-0.261,1.373-0.783,1.905c-0.523,0.529-1.155,0.794-1.896,0.794
	c-0.74,0-1.374-0.265-1.903-0.794C20.697,13.216,20.433,12.582,20.433,11.843z M20.931,17.111h4.511v15.857h-4.511V17.111z"/>
</svg>
