<?xml version="1.0" encoding="utf-8"?>
<svg version="1.1"
	 xmlns="http://www.w3.org/2000/svg" x="0px" y="0px" width="48px" height="48px" viewBox="-2.776 -2.881 48 48">
<defs>
</defs>
<path d="M41.544,0H0.904C0.405,0,0,0.405,0,0.903v40.431c0,0.5,0.405,0.904,0.904,0.904h40.64c0.498,0,0.904-0.404,0.904-0.904
	V0.903C42.449,0.405,42.042,0,41.544,0z M17.51,16.568c0.241-0.22,0.526-0.323,0.853-0.309c0.329,0.016,0.605,0.142,0.827,0.385
	c0.221,0.243,0.325,0.53,0.313,0.86c-0.014,0.33-0.142,0.604-0.382,0.826c-0.242,0.222-0.529,0.325-0.861,0.31
	c-0.334-0.016-0.611-0.144-0.832-0.386c-0.216-0.239-0.318-0.524-0.305-0.856C17.139,17.066,17.267,16.79,17.51,16.568z
	 M4.243,38.411l-0.979-1.069l1.845-7.93l1.157,1.266l-1.55,6.314l6.436-0.971l1.154,1.268L4.243,38.411z M13.999,34.362
	c-0.354,0.325-0.708,0.558-1.056,0.702c-0.35,0.146-0.771,0.252-1.266,0.318l-0.355-1.652c0.055-0.014,0.13-0.022,0.228-0.031
	c0.633-0.045,1.059-0.166,1.276-0.367c0.132-0.115,0.206-0.256,0.222-0.404c0.014-0.15-0.03-0.283-0.133-0.396
	c-0.092-0.102-0.255-0.148-0.49-0.146c-0.233,0.006-0.646,0.064-1.236,0.18c-0.589,0.117-1.07,0.141-1.446,0.072
	c-0.373-0.07-0.704-0.263-0.991-0.574c-0.436-0.479-0.633-1.014-0.59-1.611s0.317-1.132,0.827-1.596
	c0.565-0.518,1.289-0.824,2.17-0.93l0.357,1.529c-0.696,0.051-1.169,0.189-1.418,0.419c-0.283,0.259-0.323,0.496-0.12,0.72
	c0.133,0.146,0.543,0.127,1.23-0.054c0.686-0.181,1.271-0.219,1.754-0.121c0.485,0.101,0.913,0.354,1.289,0.769
	c0.424,0.466,0.613,0.994,0.567,1.591C14.772,33.378,14.498,33.906,13.999,34.362z M18.359,30.422
	c-0.582,0.53-1.251,0.723-2.008,0.567c-0.758-0.151-1.505-0.634-2.242-1.438c-1.008-1.102-1.521-2.025-1.544-2.771
	c-0.024-0.746,0.248-1.378,0.813-1.896c0.371-0.338,0.776-0.565,1.215-0.677l1.112,1.218c-0.377,0.043-0.667,0.156-0.87,0.338
	c-0.512,0.471-0.308,1.209,0.615,2.219c0.937,1.025,1.656,1.308,2.162,0.845c0.194-0.177,0.338-0.446,0.437-0.81l1.134,1.242
	C18.916,29.775,18.641,30.163,18.359,30.422z M20.083,28.523l-4.746-5.192l1.38-1.263l1.123,1.229l0.023-0.021
	c-0.598-1.118-0.473-2.083,0.375-2.896l1.374,1.5c-0.292,0.178-0.489,0.313-0.59,0.407c-0.7,0.64-0.716,1.327-0.045,2.06
	l2.583,2.828L20.083,28.523z M23.914,25.023l-4.745-5.193l1.475-1.35l4.745,5.196L23.914,25.023z M28.677,24.881l-6.842-7.488
	l1.502-1.372l0.746,0.817l0.023-0.022c-0.303-0.906-0.209-1.587,0.288-2.041c0.427-0.391,0.972-0.523,1.626-0.397
	c0.657,0.127,1.445,0.696,2.374,1.71c0.987,1.08,1.507,1.957,1.556,2.626c0.049,0.671-0.138,1.197-0.558,1.579
	c-0.499,0.458-1.19,0.481-2.069,0.07l-0.021-0.046l-0.022,0.021l2.898,3.171L28.677,24.881z M32.304,17.358l-3.661-4.007
	l-0.933,0.853l-1.084-1.188l0.933-0.853l-1.351-1.475l1.488-1.362l1.353,1.477l0.918-0.84l1.073,1.172l-0.92,0.842l3.674,4.02
	L32.304,17.358z M36.546,15.14l-1.157-1.266l1.144-5.958l-6.029,0.612l-1.155-1.265l7.567-0.671l0.978,1.07L36.546,15.14z"/>
<path d="M27.645,19.449c0.215-0.195,0.257-0.444,0.134-0.749c-0.128-0.304-0.434-0.722-0.921-1.254
	c-0.809-0.883-1.405-1.149-1.792-0.795c-0.227,0.207-0.287,0.466-0.18,0.776c0.105,0.309,0.387,0.714,0.838,1.21
	C26.576,19.569,27.216,19.84,27.645,19.449z"/>
</svg>
