<?xml version="1.0" encoding="utf-8"?>
<!DOCTYPE svg PUBLIC "-//W3C//DTD SVG 1.1//EN" "http://www.w3.org/Graphics/SVG/1.1/DTD/svg11.dtd" [
	<!ENTITY ns_flows "http://ns.adobe.com/Flows/1.0/">
]>
<svg version="1.1"
	 xmlns="http://www.w3.org/2000/svg" x="0px" y="0px" width="48px" height="48px" viewBox="-1.769 -1.792 48 48">
<defs>
</defs>
<path d="M21.031,25.912l-7.425,7.48c-0.309,0.311-0.81,0.313-1.121,0.006l-1.266-1.258c-0.31-0.311-0.313-0.809-0.003-1.121
	l7.374-7.429l-1.887-1.793L6.447,32.118c-1.598-0.013-3.2,0.591-4.414,1.812c-2.39,2.408-2.377,6.297,0.03,8.688
	c2.406,2.392,6.295,2.377,8.685-0.028c1.215-1.228,1.806-2.829,1.781-4.428l10.388-10.456L21.031,25.912z M7.659,40.357
	c-0.924,0.931-2.429,0.936-3.363,0.008c-0.931-0.924-0.937-2.428-0.011-3.358c0.688-0.694,1.696-0.872,2.552-0.54l1.343,1.336
	C8.518,38.656,8.347,39.661,7.659,40.357z"/>
<path d="M43.708,5.976l-3.76,6.439l-5.564,2.199l-4.531-4.5l2.16-5.582l6.412-3.803c-3.535-1.451-7.75-0.734-10.611,2.145
	c-2.705,2.724-3.457,6.643-2.286,10.044l-5.553,5.587l1.885,1.792l2.185-2.201c0.309-0.31,0.813-0.312,1.121-0.005l1.266,1.257
	c0.311,0.309,0.313,0.81,0.003,1.121l-2.132,2.148l1.887,1.793l-0.089,0.092l5.509-5.545c3.408,1.148,7.32,0.368,10.027-2.356
	C44.497,13.722,45.182,9.501,43.708,5.976z"/>
<path d="M42.24,37.28l-10.841-9.017c-0.961-0.909-2.057-1.444-3.108-1.399c-0.004-0.182-0.077-0.362-0.221-0.497
	c-0.28-0.269-0.728-0.256-0.996,0.026c0,0-0.134,0.219-0.361,0.526L6.126,6.993L6.31,5.909L3.813,3.55l-2.56-1.163L0,3.716
	l1.304,2.489l2.513,2.373l1.085-0.23l20.572,19.914c-0.343,0.293-0.608,0.472-0.608,0.472c-0.27,0.284-0.257,0.729,0.025,0.995
	c0.144,0.137,0.329,0.199,0.512,0.192c0.016,1.051,0.611,2.113,1.572,3.022l9.738,10.185c1.615,1.527,4.161,1.455,5.688-0.16
	C43.928,41.353,43.854,38.808,42.24,37.28z"/>
</svg>
