<?xml version="1.0" encoding="utf-8"?>
<!-- Generator: Adobe Illustrator 15.0.0, SVG Export Plug-In  -->
<!DOCTYPE svg PUBLIC "-//W3C//DTD SVG 1.1//EN" "http://www.w3.org/Graphics/SVG/1.1/DTD/svg11.dtd" [
	<!ENTITY ns_flows "http://ns.adobe.com/Flows/1.0/">
]>
<svg version="1.1"
	 xmlns="http://www.w3.org/2000/svg" x="0px" y="0px" width="48px" height="48px" viewBox="-2.15 -1.952 48 48">
<defs>
</defs>
<path d="M22.583,0H2.295C1.028,0,0,1.027,0,2.294v39.507c0,1.271,1.027,2.296,2.295,2.296h20.288c1.267,0,2.295-1.025,2.295-2.296
	V2.294C24.877,1.027,23.85,0,22.583,0z M14.735,0.86c0.358,0.001,0.647,0.29,0.647,0.647c0,0.358-0.289,0.646-0.647,0.646
	c-0.357,0-0.647-0.288-0.647-0.646S14.378,0.86,14.735,0.86z M12.439,0.86c0.357,0.001,0.646,0.29,0.646,0.647
	c0,0.358-0.289,0.646-0.646,0.646c-0.358,0-0.647-0.288-0.647-0.646S12.082,0.86,12.439,0.86z M10.141,0.86
	c0.358,0.001,0.647,0.29,0.647,0.647c0,0.358-0.29,0.646-0.647,0.646c-0.358,0-0.647-0.288-0.647-0.646S9.784,0.86,10.141,0.86z
	 M17.777,42.849H9.056c-0.415,0-0.751-0.336-0.751-0.751c0-0.416,0.337-0.752,0.751-0.752h8.721c0.416,0,0.752,0.336,0.752,0.752
	C18.529,42.513,18.193,42.849,17.777,42.849z M23.925,39.274c0,0.506-0.41,0.916-0.914,0.916H1.865c-0.506,0-0.915-0.41-0.915-0.916
	V3.839c0-0.505,0.409-0.916,0.915-0.916h21.146c0.504,0,0.914,0.41,0.914,0.916V39.274z"/>
<path d="M43.7,40.575V10.966c0-1.739-1.41-3.15-3.148-3.15H28.747c-1.742,0-3.149,1.411-3.149,3.15v29.609
	c0,1.74,1.407,3.15,3.149,3.15h11.806c1.739,0,3.149-1.41,3.149-3.15H43.7z M31.875,9.202h5.545
	c0.195,0.001,0.348,0.157,0.348,0.347c0,0.192-0.152,0.347-0.348,0.347h-5.545c-0.192,0-0.346-0.155-0.346-0.347
	C31.53,9.358,31.682,9.202,31.875,9.202z M37.768,42.478H31.53c-0.191,0-0.347-0.154-0.347-0.347c0-0.19,0.153-0.347,0.347-0.347
	h6.238c0.193,0,0.348,0.156,0.348,0.347C38.116,42.323,37.961,42.478,37.768,42.478z M42.76,40.538H26.538V11.006H42.76V40.538z"/>
</svg>
