<?xml version="1.0" encoding="utf-8"?>
<!DOCTYPE svg PUBLIC "-//W3C//DTD SVG 1.1//EN" "http://www.w3.org/Graphics/SVG/1.1/DTD/svg11.dtd" [
	<!ENTITY ns_flows "http://ns.adobe.com/Flows/1.0/">
]>
<svg version="1.1"
	 xmlns="http://www.w3.org/2000/svg" x="0px" y="0px" width="100px" height="100px" viewBox="-7.602 -8.87 100 100">
<defs>
</defs>
<path d="M42.397,2.5C20.362,2.5,2.5,20.363,2.5,42.397c0,17.104,10.765,31.688,25.888,37.362l9.195-24.519
	c-5.198-1.951-8.899-6.965-8.899-12.844c0-7.576,6.142-13.715,13.715-13.715c7.575,0,13.717,6.141,13.717,13.715
	c0,5.879-3.701,10.893-8.9,12.844L56.41,79.76c15.121-5.674,25.887-20.259,25.887-37.362C82.297,20.363,64.436,2.5,42.397,2.5z"/>
<path opacity="0.5" d="M56.409,82.26c-0.354,0-0.706-0.074-1.034-0.224c-0.604-0.274-1.074-0.776-1.307-1.397L44.874,56.12
	c-0.483-1.293,0.17-2.733,1.462-3.22c4.354-1.633,7.278-5.854,7.278-10.503c0-6.184-5.031-11.214-11.216-11.214
	s-11.215,5.031-11.215,11.214c0,4.648,2.925,8.87,7.277,10.503c1.292,0.486,1.947,1.927,1.462,3.22l-9.194,24.519
	c-0.233,0.62-0.703,1.123-1.308,1.397c-0.602,0.272-1.292,0.298-1.912,0.063C11.056,75.928,0,59.973,0,42.397
	C0,19.02,19.021,0,42.398,0c23.377,0,42.398,19.02,42.398,42.397c0,17.575-11.056,33.53-27.51,39.702
	C57.004,82.207,56.706,82.26,56.409,82.26z M42.398,5C21.777,5,5,21.777,5,42.397c0,14.665,8.728,28.05,21.955,34.063l7.479-19.941
	c-5.019-2.844-8.25-8.247-8.25-14.122c0-8.94,7.273-16.214,16.215-16.214s16.216,7.274,16.216,16.214
	c0,5.875-3.232,11.278-8.25,14.122l7.479,19.941c13.229-6.014,21.954-19.398,21.954-34.063C79.797,21.777,63.02,5,42.398,5z"/>
</svg>
