<?xml version="1.0" encoding="utf-8"?>
<!DOCTYPE svg PUBLIC "-//W3C//DTD SVG 1.1//EN" "http://www.w3.org/Graphics/SVG/1.1/DTD/svg11.dtd" [
	<!ENTITY ns_flows "http://ns.adobe.com/Flows/1.0/">
]>
<svg version="1.1"
	 xmlns="http://www.w3.org/2000/svg" x="0px" y="0px" width="48px" height="48px" viewBox="-1.95 -1.95 48 48">
<defs>
</defs>
<path d="M15.979,35.007c0.828,2.046,3.157,3.027,5.2,2.202c2.042-0.826,3.03-3.152,2.203-5.197
	c-0.067-0.166-0.159-0.313-0.246-0.466l-7.423,1.68C15.669,33.816,15.742,34.422,15.979,35.007z"/>
<path d="M42.997,0H1.102C0.494,0,0,0.494,0,1.102v41.895C0,43.606,0.494,44.1,1.102,44.1h41.896c0.609,0,1.103-0.493,1.103-1.103
	V1.102C44.1,0.494,43.606,0,42.997,0z M8.333,37.106c-0.585,0.236-1.253-0.048-1.491-0.636L2.79,26.464
	c-0.236-0.585,0.046-1.253,0.632-1.49c0.586-0.236,1.254,0.047,1.491,0.631l4.052,10.008C9.202,36.2,8.919,36.866,8.333,37.106z
	 M25.39,31.198c1.278,3.156-0.244,6.746-3.398,8.021c-3.153,1.279-6.746-0.242-8.023-3.4c-0.279-0.688-0.417-1.397-0.44-2.099
	l-2.943,0.666l-3.806-9.403L28.313,8.852l7.98,19.715l-10.973,2.483C25.343,31.101,25.369,31.147,25.39,31.198z M41.129,29.61
	c-0.838,0.338-1.792-0.066-2.131-0.901L30.157,6.87c-0.338-0.837,0.066-1.791,0.901-2.13c0.837-0.338,1.792,0.066,2.13,0.903
	l8.84,21.838C42.368,28.317,41.965,29.272,41.129,29.61z"/>
</svg>
