<?xml version="1.0" encoding="utf-8"?>
<!-- Generator: Adobe Illustrator 15.0.0, SVG Export Plug-In  -->
<!DOCTYPE svg PUBLIC "-//W3C//DTD SVG 1.1//EN" "http://www.w3.org/Graphics/SVG/1.1/DTD/svg11.dtd" [
	<!ENTITY ns_flows "http://ns.adobe.com/Flows/1.0/">
]>
<svg version="1.1"
	 xmlns="http://www.w3.org/2000/svg" x="0px" y="0px" width="48px" height="48px" viewBox="-2.006 -1.821 48 48"
	 xml:space="preserve">
<defs>
</defs>
<path d="M20.98,23.842l3.646-5.138c0.262-0.37,0.176-0.88-0.193-1.141c-0.367-0.261-0.877-0.176-1.141,0.193l-3.645,5.14
	c-0.831-0.195-1.732,0.115-2.255,0.855c-0.692,0.973-0.463,2.32,0.51,3.013c0.974,0.69,2.326,0.462,3.015-0.511
	C21.443,25.516,21.436,24.563,20.98,23.842z"/>
<path d="M19.815,18.291c0,0.333-0.269,0.602-0.602,0.602l0,0c-0.333,0-0.602-0.27-0.602-0.602v-3.613
	c0-0.332,0.269-0.602,0.602-0.602l0,0c0.333,0,0.602,0.27,0.602,0.602V18.291z"/>
<path d="M19.815,34.828c0,0.332-0.269,0.603-0.602,0.603l0,0c-0.333,0-0.602-0.271-0.602-0.603v-3.612
	c0-0.333,0.269-0.603,0.602-0.603l0,0c0.333,0,0.602,0.27,0.602,0.603V34.828z"/>
<path d="M12.199,24.701c0.333,0,0.603,0.271,0.603,0.603l0,0c0,0.331-0.27,0.604-0.603,0.604H8.587
	c-0.333,0-0.602-0.272-0.602-0.604l0,0c0-0.331,0.269-0.603,0.602-0.603H12.199z"/>
<path d="M28.017,35.813c-2.334,1.77-5.234,2.832-8.389,2.832c-7.683,0-13.913-6.23-13.913-13.91c0-7.687,6.23-13.915,13.913-13.915
	c4.346,0,8.225,1.995,10.778,5.118c1.299-0.516,2.711-0.808,4.193-0.808c0.773,0,1.527,0.078,2.256,0.225
	c-1.076-1.962-2.473-3.726-4.127-5.211l2.541-3.028c0,0,0.016-0.809-1.307-1.917c-1.322-1.109-2.174-1.007-2.174-1.007l-2.771,3.301
	c-2.457-1.34-5.236-2.148-8.186-2.328V3.583h2.456c0.908,0,1.646-0.802,1.646-1.792C24.931,0.803,24.195,0,23.287,0H16.41
	c-0.908,0-1.646,0.802-1.646,1.791c0,0.99,0.738,1.792,1.646,1.792h2.456v1.56c-2.922,0.112-5.678,0.855-8.137,2.109L7.837,3.804
	c0,0-0.854-0.102-2.175,1.006C4.34,5.919,4.353,6.727,4.353,6.727l2.568,3.06C2.691,13.387,0,18.74,0,24.729
	C0,35.57,8.788,44.357,19.627,44.357c5.767,0,10.937-2.502,14.529-6.462C31.873,37.808,29.763,37.053,28.017,35.813z"/>
<path d="M43.111,24.955l-1.781-0.109c-0.152-0.538-0.365-1.051-0.639-1.523l1.197-1.309c0.342-0.346,0.342-0.899,0-1.242
	l-1.299-1.297c-0.342-0.341-0.895-0.341-1.238,0l-1.307,1.197c-0.479-0.27-0.984-0.487-1.525-0.638l-0.111-1.778
	c0-0.487-0.391-0.877-0.875-0.877h-1.836c-0.486,0-0.877,0.391-0.877,0.877l-0.113,1.778c-0.537,0.15-1.049,0.368-1.521,0.638
	l-1.309-1.197c-0.344-0.341-0.896-0.341-1.242,0l-1.295,1.297c-0.344,0.342-0.344,0.896,0,1.242l1.195,1.309
	c-0.271,0.474-0.488,0.985-0.637,1.523l-1.779,0.109c-0.486,0-0.877,0.392-0.877,0.879v1.834c0,0.484,0.391,0.877,0.877,0.877
	l1.779,0.111c0.148,0.539,0.365,1.051,0.637,1.521l-1.195,1.311c-0.344,0.342-0.344,0.897,0,1.237l1.295,1.3
	c0.346,0.342,0.898,0.342,1.242,0l1.309-1.195c0.475,0.269,0.984,0.488,1.521,0.637l0.113,1.779c0,0.486,0.391,0.875,0.877,0.875
	h1.836c0.484,0,0.875-0.389,0.875-0.875l0.111-1.779c0.541-0.148,1.049-0.368,1.525-0.637l1.307,1.195
	c0.344,0.342,0.896,0.342,1.238,0l1.299-1.3c0.342-0.34,0.342-0.896,0-1.237l-1.197-1.311c0.271-0.471,0.484-0.982,0.639-1.521
	l1.781-0.111c0.484,0,0.877-0.393,0.877-0.877v-1.834C43.988,25.347,43.597,24.955,43.111,24.955z M34.613,30.938
	c-2.311,0-4.188-1.873-4.188-4.188c0-2.313,1.877-4.188,4.188-4.188c2.313,0,4.189,1.875,4.189,4.188
	C38.802,29.064,36.925,30.938,34.613,30.938z"/>
</svg>
