<?xml version="1.0" encoding="utf-8"?>
<!-- Generator: Adobe Illustrator 15.0.0, SVG Export Plug-In  -->
<!DOCTYPE svg PUBLIC "-//W3C//DTD SVG 1.1//EN" "http://www.w3.org/Graphics/SVG/1.1/DTD/svg11.dtd" [
	<!ENTITY ns_flows "http://ns.adobe.com/Flows/1.0/">
]>
<svg version="1.1"
	 xmlns="http://www.w3.org/2000/svg" xmlns:xlink="http://www.w3.org/1999/xlink" xmlns:a="http://ns.adobe.com/AdobeSVGViewerExtensions/3.0/"
	 x="0px" y="0px" width="48px" height="48px" viewBox="-3.007 -12.208 48 48"
	 xml:space="preserve">
<defs>
</defs>
<path d="M12.394,12.325c0.804,0,1.384-0.134,1.726-0.398c0.33-0.253,0.564-0.724,0.695-1.398c0.158-0.817,0.003-1.067-0.048-1.124
	c-0.04-0.044-0.296-0.27-1.296-0.27h-1.06l-0.621,3.19H12.394z"/>
<path d="M17.233,12.179c0.233-0.417,0.401-0.886,0.5-1.396c0.237-1.214,0.063-2.167-0.515-2.83c-0.583-0.667-1.538-1.004-2.84-1.004
	H9.984L7.946,17.431H9.83l0.527-2.718l0.246-0.202h2.05c0.874,0,1.599-0.093,2.154-0.274c0.542-0.175,1.046-0.476,1.5-0.897
	C16.694,12.982,16.997,12.603,17.233,12.179z M15.753,10.711c-0.178,0.909-0.531,1.572-1.05,1.971
	c-0.515,0.396-1.291,0.597-2.308,0.597H10.94l-0.246-0.298l0.894-4.596l0.246-0.202h1.638c0.993,0,1.648,0.192,2.003,0.586
	C15.836,9.166,15.927,9.802,15.753,10.711z"/>
<path d="M26.846,9.603c0.183-0.943,0.055-1.624-0.381-2.021c-0.455-0.42-1.324-0.633-2.583-0.633h-2.113l-0.245-0.298l0.509-2.621
	h-1.864l-2.039,10.481h1.865l1.184-6.087l0.246-0.202h1.898c0.695,0,1.132,0.121,1.374,0.381c0.247,0.268,0.306,0.708,0.179,1.348
	l-0.885,4.56h1.903L26.846,9.603z"/>
<path d="M33.439,9.405c-0.039-0.044-0.296-0.27-1.296-0.27h-1.06l-0.619,3.19h0.604c0.802,0,1.383-0.134,1.727-0.398
	c0.328-0.253,0.563-0.724,0.695-1.398C33.647,9.714,33.491,9.462,33.439,9.405z"/>
<path d="M21.358,0C9.562,0,0,5.03,0,11.236c0,6.207,9.562,11.236,21.358,11.236c11.795,0,21.361-5.029,21.361-11.236
	C42.72,5.03,33.154,0,21.358,0z M37.34,10.964c-0.114,0.602-0.317,1.167-0.605,1.678c-0.284,0.509-0.657,0.977-1.109,1.392
	c-0.547,0.516-1.171,0.889-1.852,1.109c-0.651,0.211-1.475,0.318-2.449,0.318h-1.469l-0.459,2.353
	c-0.062,0.327-0.352,0.566-0.688,0.566h-2.392c-0.207,0-0.403-0.09-0.54-0.247c-0.136-0.174-0.188-0.384-0.151-0.584l0.405-2.087
	h-2.344c-0.21,0-0.406-0.093-0.54-0.253c-0.137-0.166-0.19-0.378-0.149-0.583l0.944-4.858c0.054-0.277,0.049-0.444,0.037-0.518
	c-0.073-0.028-0.261-0.078-0.658-0.078h-1.316l-1.113,5.724c-0.063,0.328-0.353,0.566-0.688,0.566h-2.374
	c-0.21,0-0.408-0.093-0.542-0.253c-0.134-0.165-0.188-0.376-0.149-0.581l0.194-1c-0.123,0.137-0.239,0.276-0.378,0.405
	c-0.548,0.514-1.172,0.888-1.853,1.108c-0.651,0.212-1.475,0.319-2.449,0.319h-1.471l-0.458,2.353
	c-0.063,0.328-0.353,0.566-0.688,0.566H7.642c-0.208,0-0.404-0.091-0.539-0.249c-0.136-0.172-0.188-0.383-0.149-0.585L9.088,6.565
	c0.063-0.328,0.354-0.567,0.69-0.567h4.601c1.59,0,2.786,0.447,3.557,1.328c0.193,0.221,0.353,0.462,0.481,0.724l0.856-4.405
	c0.063-0.328,0.354-0.566,0.689-0.566h2.373c0.213,0,0.41,0.094,0.542,0.257c0.132,0.158,0.187,0.37,0.146,0.578L22.62,5.999h1.262
	c1.525,0,2.582,0.288,3.229,0.879c0.196,0.181,0.345,0.396,0.466,0.63l0.184-0.943c0.07-0.335,0.354-0.567,0.69-0.567h4.6
	c1.591,0,2.787,0.447,3.558,1.328C37.389,8.22,37.635,9.444,37.34,10.964z"/>
<path d="M33.05,6.949h-4.394l-2.037,10.482h1.882l0.528-2.718l0.245-0.202h2.049c0.873,0,1.599-0.093,2.157-0.274
	c0.54-0.175,1.043-0.476,1.497-0.897c0.39-0.359,0.691-0.738,0.924-1.159c0.234-0.415,0.403-0.883,0.503-1.396
	c0.239-1.235,0.071-2.161-0.515-2.83C35.31,7.287,34.354,6.949,33.05,6.949z M34.422,10.712c-0.175,0.907-0.527,1.57-1.048,1.97
	c-0.514,0.396-1.29,0.597-2.306,0.597h-1.456l-0.245-0.298l0.893-4.596l0.245-0.202h1.639c0.99,0,1.646,0.192,2.003,0.586
	C34.504,9.164,34.597,9.818,34.422,10.712z"/>
</svg>
