<?xml version="1.0" encoding="utf-8"?>
<!DOCTYPE svg PUBLIC "-//W3C//DTD SVG 1.1//EN" "http://www.w3.org/Graphics/SVG/1.1/DTD/svg11.dtd" [
	<!ENTITY ns_flows "http://ns.adobe.com/Flows/1.0/">
]>
<svg version="1.1"
	 xmlns="http://www.w3.org/2000/svg" x="0px" y="0px" width="16px" height="16px" viewBox="-1.119 -1.167 16 16">
<defs>
</defs>
<path d="M13.456,7.359l-0.197-0.338l0.195-0.338c0.547-0.946,0.223-2.155-0.724-2.702l-0.338-0.195v-0.39
	c0-1.092-0.887-1.978-1.979-1.978h-0.392L9.829,1.079c-0.546-0.946-1.756-1.27-2.702-0.724L6.789,0.55L6.451,0.355
	C5.504-0.191,4.438-0.153,3.892,0.793L3.696,1.131h-0.39c-1.092,0-1.978,0.886-1.978,1.978V3.5L0.99,3.695
	C0.043,4.241-0.281,5.451,0.266,6.396l0.195,0.338l-0.195,0.34C-0.281,8.02,0.043,9.229,0.989,9.775l0.339,0.195v0.391
	c0,1.092,0.885,1.979,1.978,1.979h0.391l0.195,0.338c0.546,0.945,1.755,1.27,2.702,0.723l0.338-0.194L7.27,13.4
	c0.946,0.547,2.156,0.223,2.703-0.726l0.194-0.336h0.392c1.094,0,1.979-0.887,1.979-1.979V9.971l0.338-0.195
	C13.82,9.229,14.003,8.305,13.456,7.359z M9.183,8.044l0.547,3.17L6.882,9.717l-2.847,1.497l0.543-3.17L2.274,5.799l3.184-0.463
	l1.424-2.884l1.421,2.884l3.185,0.463L9.183,8.044z"/>
</svg>
