<?xml version="1.0" encoding="utf-8"?>
<!-- Generator: Adobe Illustrator 15.0.0, SVG Export Plug-In  -->
<!DOCTYPE svg PUBLIC "-//W3C//DTD SVG 1.1//EN" "http://www.w3.org/Graphics/SVG/1.1/DTD/svg11.dtd" [
	<!ENTITY ns_flows "http://ns.adobe.com/Flows/1.0/">
]>
<svg version="1.1"
	 xmlns="http://www.w3.org/2000/svg" xmlns:xlink="http://www.w3.org/1999/xlink" xmlns:a="http://ns.adobe.com/AdobeSVGViewerExtensions/3.0/"
	 x="0px" y="0px" width="48px" height="48px" viewBox="-1.744 -1.745 48 48"
	 xml:space="preserve">
<defs>
</defs>
<path d="M27.542,27.212l-5.358-10.303c-0.191-0.366-0.643-0.51-1.011-0.319l-3.032,1.577c-0.368,0.192-0.51,0.645-0.319,1.012
	l0.389,0.748l-5.343,3.583l3.922,7.54l5.998-2.318l0.391,0.75c0.193,0.367,0.645,0.508,1.014,0.318l3.029-1.578
	C27.59,28.031,27.733,27.58,27.542,27.212z"/>
<path d="M31.058,15.559L30.767,15c-0.192-0.367-0.643-0.511-1.011-0.319l-4.255,2.213l-0.2-0.386l-2.037,1.059l1.385,2.663
	l2.037-1.059l-0.201-0.386l4.254-2.213C31.108,16.378,31.249,15.926,31.058,15.559z"/>
<path d="M34.174,21.548l-0.291-0.559c-0.191-0.366-0.643-0.509-1.012-0.319l-4.255,2.215l-0.2-0.385l-2.037,1.06l1.385,2.66
	l2.037-1.059l-0.2-0.386l4.255-2.214C34.224,22.37,34.366,21.918,34.174,21.548z"/>
<path d="M41.833,11.675C35.989,0.865,22.487-3.163,11.676,2.68C0.864,8.523-3.163,22.025,2.68,32.836
	c0.362,0.671,0.754,1.315,1.173,1.933l1.493-0.807l0.003,0.006l6.592-3.563l0.811,1.559l3.053-1.589l-2.951-5.671l-3.053,1.588
	l0.726,1.395l-5.265,2.846C0.841,21.466,4.3,10.448,13.257,5.606c9.195-4.97,20.679-1.543,25.647,7.651
	c4.971,9.194,1.545,20.678-7.649,25.648c-5.283,2.854-11.317,2.927-16.441,0.736l-3.586,1.938c6.453,3.674,14.596,4.042,21.61,0.251
	C43.651,35.988,47.676,22.486,41.833,11.675z"/>
</svg>
