<?xml version="1.0" encoding="utf-8"?>
<!-- Generator: Adobe Illustrator 15.0.0, SVG Export Plug-In  -->
<!DOCTYPE svg PUBLIC "-//W3C//DTD SVG 1.1//EN" "http://www.w3.org/Graphics/SVG/1.1/DTD/svg11.dtd" [
	<!ENTITY ns_flows "http://ns.adobe.com/Flows/1.0/">
]>
<svg version="1.1"
	 xmlns="http://www.w3.org/2000/svg" x="0px" y="0px" width="100px" height="100px" viewBox="-5.549 -8.739 100 100"
	 xml:space="preserve">
<defs>
</defs>
<path d="M84.625,0H4.278C1.915,0,0,1.915,0,4.278v59.96c0,2.365,1.915,4.279,4.278,4.279h30.497v9.645h-0.737
	c-2.405,0-4.357,1.953-4.357,4.359h29.543c-0.002-2.406-1.955-4.359-4.361-4.359h-0.736v-9.645h30.498
	c2.363,0,4.277-1.914,4.277-4.279V4.278C88.902,1.915,86.988,0,84.625,0z M83.941,60.07c0,2.246-0.965,3.213-3.211,3.213H8.171
	c-2.244,0-3.21-0.967-3.21-3.213V8.006c0-2.244,0.966-3.212,3.21-3.212h72.56c2.246,0,3.211,0.968,3.211,3.212V60.07z"/>
<rect x="14.853" y="13.559" width="61.454" height="15.93"/>
<polygon points="80.391,32.746 78.391,32.746 78.391,31.746 79.391,31.746 79.391,30.746 80.391,30.746 "/>
<path d="M75.266,32.746h-3.125v-1h3.125V32.746z M69.016,32.746h-3.125v-1h3.125V32.746z M62.768,32.746h-3.125v-1h3.125V32.746z
	 M56.518,32.746h-3.125v-1h3.125V32.746z M50.268,32.746h-3.125v-1h3.125V32.746z M44.017,32.746h-3.125v-1h3.125V32.746z
	 M37.767,32.746h-3.124v-1h3.124V32.746z M31.518,32.746h-3.125v-1h3.125V32.746z M25.269,32.746h-3.125v-1h3.125V32.746z
	 M19.019,32.746h-3.125v-1h3.125V32.746z"/>
<polygon points="12.769,32.746 10.769,32.746 10.769,30.746 11.769,30.746 11.769,31.746 12.769,31.746 "/>
<path d="M11.769,28.067h-1v-2.679h1V28.067z M11.769,22.709h-1V20.03h1V22.709z M11.769,17.353h-1v-2.679h1V17.353z"/>
<polygon points="11.769,11.995 10.769,11.995 10.769,9.995 12.769,9.995 12.769,10.995 11.769,10.995 "/>
<path d="M75.266,10.995h-3.125v-1h3.125V10.995z M69.018,10.995h-3.125v-1h3.125V10.995z M62.768,10.995h-3.125v-1h3.125V10.995z
	 M56.518,10.995h-3.125v-1h3.125V10.995z M50.268,10.995h-3.125v-1h3.125V10.995z M44.017,10.995h-3.124v-1h3.124V10.995z
	 M37.768,10.995h-3.125v-1h3.125V10.995z M31.519,10.995h-3.125v-1h3.125V10.995z M25.269,10.995h-3.125v-1h3.125V10.995z
	 M19.019,10.995h-3.125v-1h3.125V10.995z"/>
<polygon points="80.391,11.995 79.391,11.995 79.391,10.995 78.391,10.995 78.391,9.995 80.391,9.995 "/>
<path d="M80.391,28.067h-1v-2.679h1V28.067z M80.391,22.71h-1v-2.679h1V22.71z M80.391,17.353h-1v-2.679h1V17.353z"/>
</svg>
