<?xml version="1.0" encoding="utf-8"?>
<!-- Generator: Adobe Illustrator 15.0.0, SVG Export Plug-In  -->
<!DOCTYPE svg PUBLIC "-//W3C//DTD SVG 1.1//EN" "http://www.w3.org/Graphics/SVG/1.1/DTD/svg11.dtd" [
	<!ENTITY ns_flows "http://ns.adobe.com/Flows/1.0/">
]>
<svg version="1.1"
	 xmlns="http://www.w3.org/2000/svg" x="0px" y="0px" width="48px" height="48px" viewBox="-2.879 -2.879 48 48"
	 xml:space="preserve">
<defs>
</defs>
<path d="M21.121,0C9.456,0,0,9.456,0,21.121s9.456,21.121,21.121,21.121c11.664,0,21.121-9.456,21.121-21.121S32.785,0,21.121,0z
	 M19.432,39.568l-0.061-4.968c-7.854-0.281-14.141-6.72-14.141-14.645c0-8.07,6.512-14.614,14.568-14.671l0,2.935
	C13.363,8.275,8.162,13.505,8.162,19.955c0,6.281,4.934,11.388,11.135,11.705l-0.049-4.578l6.874,5.875L19.432,39.568z
	 M23.863,22.636c-0.231,0.878-1.023,1.528-1.973,1.528h-1.54c-1.131,0-2.049-0.917-2.049-2.049v-1.988
	c0-0.877,0.555-1.62,1.331-1.912L20.768,7.02h0.705l1.136,11.196c0.647,0.244,1.141,0.801,1.285,1.491l16.498,1.11v0.706
	L23.863,22.636z"/>
</svg>
