<?xml version="1.0" encoding="utf-8"?>
<svg version="1.1"
	 xmlns="http://www.w3.org/2000/svg" x="0px" y="0px" width="48px" height="48px" viewBox="-1.822 -5.185 48 48">
<defs>
</defs>
<ellipse cx="11.995" cy="6.062" rx="5.764" ry="6.062"/>
<path d="M36.432,25.165c0.043,0.129,0.071,0.254,0.071,0.383c0,1.828-4.362,3.313-9.745,3.313s-9.745-1.484-9.745-3.313
	c0-0.129,0.028-0.254,0.07-0.383c-4.221,2.754-7.206,7.242-7.922,12.465h35.194C43.637,32.407,40.652,27.917,36.432,25.165z"/>
<ellipse cx="26.759" cy="16.223" rx="8.456" ry="8.893"/>
<path d="M16.189,16.223c0-0.724,0.071-1.43,0.196-2.115c-1.171,0.352-2.705,0.566-4.391,0.566c-3.669,0-6.643-1.011-6.643-2.258
	c0-0.088,0.019-0.173,0.048-0.259c-2.876,1.876-4.912,4.937-5.4,8.496h17.067C16.505,19.296,16.189,17.799,16.189,16.223z"/>
<path d="M8.071,22.504c-2.097,0.378-3.691,2.205-3.7,4.412c-0.009,2.154,1.499,3.949,3.515,4.402l0.151-1.486l2.335,2.566
	l-2.806,2.047l0.123-1.201c-2.994-0.557-5.262-3.18-5.25-6.334c0.011-3.273,2.469-5.963,5.637-6.355L8.071,22.504z"/>
</svg>
