<?xml version="1.0" encoding="utf-8"?>
<!DOCTYPE svg PUBLIC "-//W3C//DTD SVG 1.1//EN" "http://www.w3.org/Graphics/SVG/1.1/DTD/svg11.dtd" [
	<!ENTITY ns_flows "http://ns.adobe.com/Flows/1.0/">
]>
<svg version="1.1"
	 xmlns="http://www.w3.org/2000/svg" x="0px" y="0px" width="48px" height="48px" viewBox="-1.466 -1.466 48 48">
<defs>
</defs>
<path d="M22.534,0C10.089,0,0,10.089,0,22.534c0,12.444,10.089,22.534,22.534,22.534c12.444,0,22.534-10.09,22.534-22.534
	C45.068,10.089,34.979,0,22.534,0z M28.471,25.141c-2.943,0-7.356-3.154-11.561-2.522c-2.095,0.314-3.911,1.886-4.894,2.902
	l3.761,11.331l-3.279,0.898L5.352,14.422l2.349-1.903l0.074,0.224c1.301-1.034,4.156-3,7.244-3.154
	c4.205-0.21,8.833,4.247,11.77,3.782c3.993-0.629,7.564-5.043,7.564-5.043l-4.23,9.667l9.064,3.573
	C39.188,21.568,33.934,25.141,28.471,25.141z"/>
</svg>
