<?xml version="1.0" encoding="utf-8"?>
<!-- Generator: Adobe Illustrator 15.0.0, SVG Export Plug-In  -->
<!DOCTYPE svg PUBLIC "-//W3C//DTD SVG 1.1//EN" "http://www.w3.org/Graphics/SVG/1.1/DTD/svg11.dtd" [
	<!ENTITY ns_flows "http://ns.adobe.com/Flows/1.0/">
]>
<svg version="1.1"
	 xmlns="http://www.w3.org/2000/svg" x="0px" y="0px" width="48px" height="48px" viewBox="-1.869 -1.297 48 48"
	 xml:space="preserve">
<defs>
</defs>
<rect y="37.104" width="16.511" height="8.303"/>
<path d="M16.745,0H0v8.303h10.499C11.729,4.954,13.919,2.077,16.745,0z"/>
<path d="M43.982,41.268l-4.474-8.765c-0.386-0.752-1.096-1.225-1.871-1.349l-2.491-4.926c-0.086-0.146-0.199-0.258-0.312-0.371
	c5.956-3.885,8.028-11.753,4.571-18.108c-3.64-6.687-12.004-9.159-18.69-5.522c-6.686,3.636-9.157,12.004-5.519,18.689
	c3.292,6.055,10.459,8.633,16.743,6.374c0.033,0.196,0.082,0.394,0.185,0.578l2.647,5.234c-0.128,0.561-0.078,1.165,0.203,1.719
	l4.477,8.761c0.641,1.251,2.174,1.746,3.425,1.109C44.125,44.051,44.623,42.518,43.982,41.268z M27.183,23.928
	c-5.342,0-9.673-4.331-9.673-9.672c0-5.342,4.331-9.673,9.673-9.673c5.343,0,9.673,4.331,9.673,9.673
	C36.855,19.597,32.525,23.928,27.183,23.928z"/>
<ellipse transform="matrix(-0.8836 -0.4683 0.4683 -0.8836 35.8803 30.5777)" cx="21.741" cy="10.829" rx="1.511" ry="2.519"/>
<path d="M9.382,14.497c0-1.816,0.275-3.567,0.775-5.22H0v8.301h9.664C9.491,16.575,9.382,15.549,9.382,14.497z"/>
<path d="M9.857,18.551H0v8.302h14.317C12.155,24.568,10.589,21.723,9.857,18.551z"/>
<path d="M31.849,33.986l-0.671-1.9c-1.225,0.266-2.494,0.41-3.798,0.41c-4.646,0-8.868-1.776-12.062-4.668H0v8.303h30.833
	C31,34.936,31.849,33.986,31.849,33.986z"/>
</svg>
