<?xml version="1.0" encoding="utf-8"?>
<svg version="1.1"
	 xmlns="http://www.w3.org/2000/svg" x="0px" y="0px" width="48px" height="48px" viewBox="-1.555 -2.014 48 48">
<defs>
</defs>
<path d="M13.594,13.528l1.502-10.619c0,0,0.134-1.619,1.345-1.668c1.212-0.049,1.394,1.039,1.297,1.949
	c-0.098,0.91-0.886,5.925-0.886,5.925s-0.004,0.641,0.331,0.748c0.333,0.107,0.632-0.231,0.776-1.446
	c0.144-1.215,0.631-5.08,0.803-6.405c0.171-1.326,0.894-2.187,1.796-1.982c0.902,0.205,0.908,1.742,0.752,2.873
	c-0.152,1.131-0.719,5.883-0.807,6.535c-0.087,0.652,0.775,1.375,0.938-0.526c0.162-1.9,0.78-4.907,0.928-5.93
	c0.146-1.023,1.104-1.894,1.928-1.465c0.825,0.428,0.696,1.598,0.57,2.789c-0.124,1.191-0.59,4.733-0.763,5.888
	c-0.171,1.155,0.56,2.364,0.879,0.015c0.317-2.348,0.79-4.79,1.09-5.331c0.382-0.69,1.521-0.802,2.003,0.454
	c0.48,1.256-0.682,5.016-0.775,6.118c-0.095,1.102-0.537,4.812-0.752,6.143c-0.213,1.331-1.604,5.142-5.014,5.387
	c-3.409,0.244-7.353-0.854-8.895-4.053c-1.543-3.199-2.925-5.65-3.377-6.511c-0.452-0.86-0.35-1.899,0.586-2.595
	c0.937-0.697,1.909,0.225,2.407,1.272S13.594,13.528,13.594,13.528z"/>
<path d="M28.911,34.504l9.583,4.817c0,0,1.407,0.813,2.137-0.155c0.73-0.969-0.06-1.738-0.861-2.179
	c-0.803-0.438-5.373-2.647-5.373-2.647s-0.53-0.36-0.428-0.697c0.104-0.334,0.552-0.389,1.631,0.188
	c1.08,0.572,4.533,2.375,5.722,2.989c1.187,0.612,2.308,0.511,2.653-0.349c0.345-0.858-0.916-1.735-1.934-2.254
	c-1.018-0.52-5.244-2.76-5.83-3.062c-0.586-0.3-0.688-1.419,0.965-0.472c1.655,0.951,4.479,2.156,5.403,2.619
	c0.925,0.461,2.185,0.172,2.302-0.75s-0.916-1.482-1.967-2.06c-1.05-0.575-4.226-2.212-5.271-2.729
	c-1.049-0.516-1.624-1.807,0.486-0.729c2.111,1.075,4.387,2.079,5.002,2.143c0.785,0.08,1.525-0.795,0.769-1.905
	c-0.759-1.111-4.511-2.298-5.47-2.849s-4.26-2.302-5.478-2.883c-1.215-0.583-5.139-1.61-7.282,1.051
	c-2.143,2.662-3.49,6.526-1.738,9.619c1.75,3.09,2.978,5.623,3.428,6.484c0.447,0.861,1.359,1.369,2.467,0.996
	c1.105-0.371,0.902-1.695,0.325-2.702C29.574,35.985,28.911,34.504,28.911,34.504z"/>
<path d="M8.758,27.33l-7.951,7.196c0,0-1.266,1.021-0.626,2.05c0.639,1.031,1.642,0.571,2.34-0.018
	c0.699-0.592,4.41-4.057,4.41-4.057s0.529-0.363,0.805-0.145c0.275,0.215,0.164,0.652-0.762,1.449
	C6.048,34.609,3.12,37.18,2.12,38.065c-1,0.885-1.309,1.967-0.633,2.601c0.675,0.631,1.951-0.228,2.801-0.988
	c0.85-0.762,4.467-3.895,4.958-4.334c0.491-0.438,1.572-0.129,0.089,1.072c-1.483,1.199-3.626,3.397-4.39,4.092
	c-0.765,0.695-0.949,1.978-0.133,2.418c0.817,0.442,1.714-0.32,2.63-1.092c0.917-0.771,3.588-3.142,4.448-3.932
	c0.86-0.79,2.271-0.861,0.505,0.719c-1.765,1.58-3.522,3.34-3.803,3.891c-0.357,0.703,0.189,1.709,1.5,1.404
	c1.311-0.307,3.771-3.377,4.631-4.072c0.86-0.695,3.683-3.143,4.665-4.066c0.983-0.921,3.357-4.211,1.649-7.17
	c-1.71-2.959-4.829-5.609-8.343-5.096C9.18,24.03,6.376,24.258,5.41,24.366c-0.967,0.106-1.769,0.774-1.822,1.94
	c-0.052,1.166,1.257,1.455,2.404,1.279C7.138,27.414,8.758,27.33,8.758,27.33z"/>
</svg>
