<?xml version="1.0" encoding="utf-8"?>
<!-- Generator: Adobe Illustrator 15.0.0, SVG Export Plug-In  -->
<!DOCTYPE svg PUBLIC "-//W3C//DTD SVG 1.1//EN" "http://www.w3.org/Graphics/SVG/1.1/DTD/svg11.dtd" [
	<!ENTITY ns_flows "http://ns.adobe.com/Flows/1.0/">
]>
<svg version="1.1"
	 xmlns="http://www.w3.org/2000/svg" xmlns:xlink="http://www.w3.org/1999/xlink" xmlns:a="http://ns.adobe.com/AdobeSVGViewerExtensions/3.0/"
	 x="0px" y="0px" width="48px" height="48px" viewBox="-1.95 -1.425 48 48"
	 xml:space="preserve">
<defs>
</defs>
<path d="M43.05,16.8H14.979c-0.001-0.001-0.001-0.003-0.002-0.004l-3.174-3.175c-0.292-0.292-0.766-0.292-1.059,0L7.57,16.796
	c-0.001,0.001-0.001,0.003-0.002,0.004H1.05C0.47,16.8,0,17.27,0,17.85v9.45c0,0.582,0.47,1.051,1.05,1.051h42
	c0.58,0,1.05-0.469,1.05-1.051v-9.45C44.1,17.27,43.63,16.8,43.05,16.8z M37.319,18.936c1.086,0,1.967,0.927,1.967,2.07
	c0,1.143-0.881,2.07-1.967,2.07c-1.087,0-1.968-0.927-1.968-2.07C35.352,19.863,36.232,18.936,37.319,18.936z M33.224,25.987
	c0.166-1.213,0.862-2.26,1.844-2.898c-0.012,0.027-0.017,0.057-0.017,0.088c0,0.424,1.015,0.77,2.269,0.77
	c1.252,0,2.268-0.346,2.268-0.77c0-0.029-0.008-0.06-0.016-0.088c0.981,0.639,1.676,1.684,1.842,2.898H33.224z"/>
<path d="M43.05,33.601H14.979c-0.001-0.002-0.001-0.004-0.002-0.006l-3.174-3.174c-0.292-0.293-0.766-0.293-1.059,0L7.57,33.597
	c-0.001,0-0.001,0.004-0.002,0.004H1.05c-0.58,0-1.05,0.47-1.05,1.051v9.449c0,0.58,0.47,1.051,1.05,1.051h42
	c0.58,0,1.05-0.471,1.05-1.051v-9.449C44.1,34.069,43.63,33.601,43.05,33.601z M37.319,35.737c1.086,0,1.967,0.926,1.967,2.068
	s-0.881,2.069-1.967,2.069c-1.087,0-1.968-0.927-1.968-2.069S36.232,35.737,37.319,35.737z M33.224,42.788
	c0.166-1.214,0.862-2.26,1.844-2.9c-0.012,0.029-0.017,0.06-0.017,0.088c0,0.427,1.015,0.771,2.269,0.771
	c1.252,0,2.268-0.345,2.268-0.771c0-0.028-0.008-0.059-0.016-0.088c0.981,0.64,1.676,1.686,1.842,2.9H33.224z"/>
<path d="M43.05,0h-42C0.47,0,0,0.47,0,1.05v9.45c0,0.581,0.47,1.05,1.05,1.05h28.449c0.002,0.001,0.002,0.003,0.003,0.004
	l3.175,3.175c0.292,0.292,0.768,0.292,1.059,0l3.176-3.175c0-0.001,0-0.003,0.002-0.004h6.137c0.58,0,1.05-0.47,1.05-1.05V1.05
	C44.1,0.47,43.63,0,43.05,0z M37.319,2.137c1.086,0,1.967,0.926,1.967,2.069c0,1.143-0.881,2.069-1.967,2.069
	c-1.087,0-1.968-0.926-1.968-2.069C35.352,3.063,36.232,2.137,37.319,2.137z M33.224,9.187c0.166-1.213,0.862-2.259,1.844-2.899
	c-0.012,0.028-0.017,0.058-0.017,0.088c0,0.426,1.015,0.77,2.269,0.77c1.252,0,2.268-0.344,2.268-0.77
	c0-0.03-0.008-0.06-0.016-0.088c0.981,0.64,1.676,1.685,1.842,2.899H33.224z"/>
</svg>
