<?xml version="1.0" encoding="utf-8"?>
<!DOCTYPE svg PUBLIC "-//W3C//DTD SVG 1.1//EN" "http://www.w3.org/Graphics/SVG/1.1/DTD/svg11.dtd" [
	<!ENTITY ns_flows "http://ns.adobe.com/Flows/1.0/">
]>
<svg version="1.1"
	 xmlns="http://www.w3.org/2000/svg" x="0px" y="0px" width="48px" height="48px" viewBox="-1.791 -1.851 48 48">
<defs>
</defs>
<path d="M0,0v6.482v31.255v6.563h44.417v-6.563V6.482V0H0z M25.35,2.222h3.258v3.256H25.35V2.222z M20.58,2.222h3.258v3.256H20.58
	V2.222z M15.809,2.222h3.257v3.256h-3.257V2.222z M11.039,2.222h3.257v3.256h-3.257V2.222z M4.754,42.329H1.497v-3.257h3.257V42.329
	z M4.754,5.478H1.497V2.222h3.257V5.478z M9.524,42.329H6.268v-3.257h3.256V42.329z M9.524,5.478H6.268V2.222h3.256V5.478z
	 M14.296,42.329h-3.257v-3.257h3.257V42.329z M19.066,42.329h-3.257v-3.257h3.257V42.329z M23.838,42.329H20.58v-3.257h3.258V42.329
	z M28.607,42.329H25.35v-3.257h3.258V42.329z M22.114,32.063c-5.724,0-10.364-4.641-10.364-10.364s4.64-10.364,10.364-10.364
	c5.724,0,10.365,4.64,10.365,10.364S27.838,32.063,22.114,32.063z M33.379,42.329h-3.257v-3.257h3.257V42.329z M33.379,5.478h-3.257
	V2.222h3.257V5.478z M38.148,42.329h-3.256v-3.257h3.256V42.329z M38.148,5.478h-3.256V2.222h3.256V5.478z M42.92,42.329h-3.257
	v-3.257h3.257V42.329z M42.92,5.478h-3.257V2.222h3.257V5.478z"/>
<polygon points="27.152,21.699 19.708,27.829 19.708,15.57 "/>
</svg>
