<?xml version="1.0" encoding="utf-8"?>
<!-- Generator: Adobe Illustrator 15.0.0, SVG Export Plug-In  -->
<!DOCTYPE svg PUBLIC "-//W3C//DTD SVG 1.1//EN" "http://www.w3.org/Graphics/SVG/1.1/DTD/svg11.dtd" [
	<!ENTITY ns_flows "http://ns.adobe.com/Flows/1.0/">
]>
<svg version="1.1"
	 xmlns="http://www.w3.org/2000/svg" x="0px" y="0px" width="48px" height="48px" viewBox="-1.501 -5.323 48 48"
	 xml:space="preserve">
<defs>
</defs>
<path d="M38.862,12.816c0.08-0.536,0.122-1.084,0.122-1.641C38.984,5.002,33.979,0,27.809,0c-4.599,0-8.548,2.778-10.262,6.746
	c-1.262-1.207-2.968-1.95-4.852-1.95c-3.872,0-7.012,3.139-7.012,7.011c0,0.395,0.034,0.783,0.097,1.16
	C2.375,14.483,0,17.896,0,21.866c0,5.377,4.361,9.738,9.741,9.738h6.43v-3.619h-2.198c-2.121,0-2.884-1.169-3.112-1.67
	c-0.22-0.481-0.596-1.759,0.665-3.215l7.719-8.914c0.772-0.893,1.868-1.405,3.006-1.405c1.137,0,2.232,0.512,3.005,1.405l7.72,8.914
	c1.26,1.456,0.886,2.733,0.664,3.215c-0.228,0.501-0.991,1.67-3.113,1.67h-2.199v3.619h7.632v-0.026
	c5.052-0.358,9.04-4.57,9.04-9.712C44.998,17.76,42.457,14.25,38.862,12.816z"/>
<path d="M31.409,24.083l-7.352-8.488c-0.857-0.99-2.261-0.99-3.117,0l-7.352,8.488c-0.857,0.99-0.395,1.802,1.028,1.802h3.815v6.448
	c0,2.244,1.82,4.064,4.065,4.064s4.065-1.82,4.065-4.064v-6.448h3.816C31.804,25.885,32.267,25.073,31.409,24.083z"/>
</svg>
