<?xml version="1.0" encoding="utf-8"?>
<svg version="1.1"
	 xmlns="http://www.w3.org/2000/svg" x="0px" y="0px" width="48px" height="48px" viewBox="-3.696 -5.102 48 48">
<defs>
</defs>
<polygon points="6.188,33.089 9.152,30.125 6.188,27.158 "/>
<polygon points="10.636,6.188 7.67,9.153 4.706,6.188 "/>
<polygon points="35.904,31.605 32.938,28.64 29.971,31.605 "/>
<path d="M40.607,15.341V0h-15.34v15.341h6.166v7.114h-6.166v5.947h-9.927v-5.947H9.174v-7.114h6.167V0H0v15.341h6.166v7.114H0
	v15.342h15.341V31.41h9.927v6.387h15.34V22.455h-6.166v-7.114H40.607z M2.857,2.858h9.625v9.625H2.857V2.858z M2.857,34.937v-9.625
	h9.625v9.625H2.857z M37.75,34.937h-9.626v-9.625h9.626V34.937z M28.124,2.858h9.626v9.625h-9.626V2.858z"/>
<polygon points="28.395,8.127 31.583,10.784 36.909,4.529 35.824,3.444 31.475,8.748 29.465,6.924 "/>
</svg>
