<?xml version="1.0" encoding="utf-8"?>
<!DOCTYPE svg PUBLIC "-//W3C//DTD SVG 1.1//EN" "http://www.w3.org/Graphics/SVG/1.1/DTD/svg11.dtd" [
	<!ENTITY ns_flows "http://ns.adobe.com/Flows/1.0/">
]>
<svg version="1.1"
	 xmlns="http://www.w3.org/2000/svg" x="0px" y="0px" width="48px" height="48px" viewBox="-1.233 -1.233 48 48">
<defs>
</defs>
<path d="M22.723,0C12.534,0,1.714,6.762,0,20.828v3.876c0,0.902,1.082,5.23,1.082,5.32c4.148,11.271,13.435,15.51,21.64,15.51
	c12.533,0,22.813-10.01,22.813-22.813C45.535,10.188,35.527,0,22.723,0z M37.691,13.434c0.09,0.09,0.18,0.361,0.451,0.361
	c0.18,0,0.09-0.181,0.27-0.181c0.271,0,0.361,0.181,0.451,0.271c-0.271,0-0.631,0.09-0.992,0.27l-0.18-0.18V13.434z M34.173,15.688
	c-0.9,0-1.893,0.09-2.795,0.271c0.182-0.181,0.361-0.36,0.361-0.541c0-0.271-0.09-0.271-0.182-0.451
	c0.092-0.09,0.451-0.271,0.723-0.631c0.18,0,0.449,0,0.631-0.09c0.09,0.18-0.09,1.262,0.541,1.262s0.451-0.721,0.541-0.812
	c0.18,0.181,0.451,0.271,0.721,0.451c-0.09,0-0.27-0.09-0.541,0C34.083,15.328,34.173,15.507,34.173,15.688z M4.69,31.017
	c-0.18-0.539-0.541-1.172-0.721-1.803c-0.181-0.721-0.451-1.623-0.631-2.254c-0.09-0.813-0.36-2.254-0.36-2.436v-1.171h0.359v-0.001
	c0.181,0.359,0.631,0.721,0.902,1.172c0.271,0.359,0.271,0.9,0.541,1.354c0,0.09,0.271,0,0.361,0.18
	c0.271,0.18,0.451,0.721,0.721,0.721c0.18,0,0.271-0.09,0.451-0.18c0.09,0.451,0.271,1.172,0.271,1.443
	c0,0.18-0.271,1.082-0.271,1.352c0,0.182,0.09,1.264,0.541,1.805c0.812,1.08,1.713,2.072,2.795,3.064
	c0.27,0.271,0.811,0.361,1.262,0.721c0.631,0.723,1.082,1.623,1.713,2.436c0.631,0.9,1.984,2.436,3.066,3.156
	c0.541,0.449,1.172,0.9,1.713,1.262C13.165,41.117,6.403,35.796,4.69,31.017z M4.869,22.633V22.27C4.959,22,5.14,21.639,5.23,21.369
	c0.091,0.27,0.271,0.54,0.632,0.811c0,0.09,0.271,0.09,0.271,0.181c0.18,0.451,0.541,0.541,0.721,0.541
	c0.09,0,0.451-0.18,0.631-0.45c0.812,0.18,1.713,0.18,2.615,0.271c0.18,0,0.36,0.18,0.451,0.271c0.09,0.09,0,0.541,0.271,0.811
	v1.263c-0.451-0.182-1.082-0.09-1.442-0.271c-0.181,0-0.451-0.271-0.631-0.541H8.206c-0.451,0-1.443,0.182-1.533,1.082
	c-0.361-0.182-0.09-0.271-0.902-0.09v-1.982C5.411,22.904,5.23,22.543,4.869,22.633z M37.242,35.707
	c-0.092,0.18-0.182,0.723-0.451,0.992c-1.982,2.344-5.771,4.236-7.574,4.777c-0.99,0.271-1.803,0.541-2.705,0.723
	c-1.262,0.27-2.614,0.359-3.786,0.359c-0.181,0-1.713,0-2.615-0.18c0.18-0.09,0.271-0.09,0.271-0.271
	c0-0.271-0.451-0.541-0.631-0.541c-0.271,0-0.361,0.182-0.361,0.359c-0.271-0.18-1.713-1.441-1.713-1.803
	c0-0.182,0.09-0.182,0.09-0.271c0.09-0.18,0-0.451,0-0.721c0-0.182,0.451-1.262,0.451-1.443c0-0.27-0.271-0.631-0.361-0.9
	c0.541-0.271,1.713-0.902,1.443-1.623c0.09-0.271,0.18-0.541,0.18-0.813c0-0.18-0.271-0.721-0.271-0.99c0,0,1.082-1.443,1.082-1.715
	c0-0.27,0-0.811-0.271-0.99c-0.451-0.543-1.262-0.813-1.984-1.084c-0.631-0.27-1.623,0-2.344-0.811
	c-0.271-0.361-0.721-0.902-1.172-1.352c-0.361-0.361-0.812-0.541-1.262-0.813c-0.09,0-1.082,0-1.082-0.451
	c0-0.182,0.271-0.631,0.361-0.9c-0.271-0.451-0.542-0.271-0.812-0.271v-1.623c0-0.901-0.812-1.714-1.804-1.443
	c-0.451-0.271-0.992-0.271-1.533-0.541c0-0.36-0.18-0.812-0.361-0.812c-0.27,0-0.27,0.181-0.36,0.361
	c-0.451-0.271-1.353-0.992-1.533-0.992c-0.271,0-0.451,0-0.541,0.091c-0.271,0.09-0.271,0.36-0.451,0.45
	c-0.271,0.181-0.722,0.09-0.992,0.271c-0.27,0.181-0.271,0.541-0.451,0.812c0-0.181-0.18-0.36-0.18-0.631
	c0-0.722,0.721-2.254,1.172-2.795c0.271,0.09,0.541,0.45,0.722,0.45c0.271,0,0.36-0.27,0.451-0.45c0.09,0,0.271,0.09,0.36,0.09
	c-0.09,0.451-0.09,0.992-0.09,1.442c0.36,0.271,0.812,0.541,1.082,0.541c0.36,0,0.451-0.09,0.451-0.45c0-0.091,0-0.632-0.451-0.541
	c0.09-0.271,0.18-0.541,0.18-0.812c-0.09-1.533,2.164-1.533,2.254-2.795c0.27-0.091,0.901-0.722,1.172-0.992
	c1.623,0,0.721-0.992,1.894-0.992c0.271,0,0.18,0.271,0.451,0.271c0.18,0,1.443-0.542,2.074-0.902c0.09-0.09,0.09-0.271,0.09-0.451
	c0.361,0.091,0.812,0.361,1.082,0.361c0.361,0,0.992-0.271,0.992-0.631c0-0.271-0.18-0.451-0.18-0.632c0-0.271,0.18-0.18,0.18-0.271
	c0.09-0.18,0.18-0.451,0.18-0.722c0-0.18-0.271-0.271-0.451-0.271c0.09-1.081,0.09-1.622,0.09-1.803c0-0.271,0.541-0.36,0.901-0.631
	c0,0,1.082-0.271,1.082-0.722c0-0.271-0.271-0.271-0.271-0.541c0-0.181,0.18-0.09,0.18-0.271c0-0.271-0.271-0.451-0.36-0.631
	c0.271-0.271,0.721-0.541,1.172-0.631c-0.181,0.45,0.541,0.631,0.811,0.54v0.902c-0.18,0-0.541,0.18-0.631,0.36
	c-0.18,0.271-0.271,0.812-0.271,1.082c0,0.181,0,0.541,0.18,0.812c0.09,0.181,0.451,0.181,0.631,0.36
	c0.09,0.091,0.09,0.091,0.271,0.091c0.541,0,0.812-0.722,1.533-1.173c0.18-0.18,0.541-0.18,0.812-0.27
	c0.271-0.091,0.451-0.361,0.813-0.451c0.449-0.181,1.352-0.091,1.803-0.541c0.271-0.361,0.451-1.173,0.451-1.353
	c0-0.271-0.09-0.271-0.18-0.451c0.09-0.09,0.359-0.181,0.539-0.451c-0.09-0.09-0.18-0.27-0.271-0.36
	c-0.18-0.09-0.541-0.09-0.631-0.18c-0.27-0.091-0.359-0.361-0.541-0.451c-0.359-0.181-0.9-0.091-1.172-0.091
	c-0.181,0-0.901,0-1.353,0.091c-0.271,0-0.361,0.36-0.541,0.36c-0.271,0-1.172-0.812-1.443-0.812s-1.353,0.902-1.442,0.992
	c-0.09-0.09-0.09-0.181-0.361-0.181s-0.631,0.451-0.902,0.722c0-0.091,0-0.181,0.09-0.271c-0.09-0.09-0.09-0.271-0.36-0.271
	c-0.181,0-0.271,0.36-0.451,0.36c-0.271,0-0.271-0.18-0.451-0.18c-0.721,0-1.713,0.27-2.074,0.45c-0.09,0.09-0.36,0.09-0.631,0.181
	c-0.045,0.011-0.091,0.033-0.137,0.05c-0.344,0.181-0.688,0.37-1.035,0.581c0.395-0.237,0.718-0.466,1.035-0.581
	c2.886-1.521,5.722-2.033,8.704-2.033c4.058,0.008,8.116,1.09,10.821,3.344c0,0.09,0.271,0.18,0.451,0.271c0,0-0.09,0.09-0.09,0.18
	c-0.361-0.271-1.984-0.541-1.984-0.541c-0.451,0-0.813-0.09-1.082,0.812c-0.09,0.181,0,0.541-0.09,0.813
	c-0.09,0.27-0.451,0.54-0.451,0.811c0,0.181,0.631,1.173,1.082,1.353l0.271,0.541c-0.182,0.09-0.451,0.36-0.631,0.451
	c-0.541-0.632-0.633-0.722-1.082-1.353c-0.09-0.271-0.631-0.541-0.813-0.541c-0.541,0-0.541,0.631-0.451,0.992
	c-0.18,0-0.813,0.09-0.813,0.631c0,0.18,0.092,0.451,0.092,0.631c0,0.271,0.09,0.451,0.359,0.451c0.182,0,0.541-0.09,0.813-0.271
	c-0.182,0.722,0.182,0.451,0.271,1.172c0.27,0.271,0.541,0.271,0.811,0.451v0.271c-0.449,0.09-1.352-0.541-1.713,0.36v1.623
	c0.182,0.271,0.361,1.172,0.992,0.902c-0.271,0.27-0.813,0.63-1.082,1.081c-0.09,0.091-0.09,0.451-0.18,0.631
	c-0.361,0.361-0.992,0.541-1.264,0.992c-0.541,0.722-1.172,2.254-1.172,2.435c0,0.271,0.271,0.992,0.271,1.172
	c0,0.271-0.541,0.992-0.541,1.263c0,0.18,0.09,0.18,0.18,0.45c0.09,0.091,0,0.36,0.09,0.54c0.271,0.451,0.631,0.902,0.992,1.354
	c0.27,0.271,1.805,1.533,2.164,1.533c0.27,0,1.982-0.182,2.885-0.359c0.271-0.092,0.541-0.092,0.813-0.182
	c0,0.541,0.541,0.631,1.172,0.631c0,0.092,0.092,0.092,0.092,0.361c0,0.18-0.182,0.449-0.271,0.631
	c-0.092-0.451-0.361-0.631-0.541-0.631c-0.361,0-0.631,0.27-0.631,0.539c0,0.451,0.27,0.633,0.539,0.633
	c0.182,0,0.271-0.092,0.451-0.182c0.182,0.631,0.631,1.803,0.631,1.984c0,0.27-0.09,1.08-0.359,1.531
	c-0.359,0.541-1.082,0.902-1.082,1.713c0,0.271,0.09,0.541,0,0.813c-0.18,0.723-0.449,1.533-0.723,2.346
	c-0.18,0.449-0.539,0.99-0.721,1.441c0.09,0.09,0.182,0.18,0.451,0.18c0.813,0,2.615-0.99,3.336-1.621
	c0.18-0.182,0.451-0.541,0.721-0.723c0.633-0.449,0.813-0.541,1.172-0.992c0.092-0.09,0.092-0.359,0.271-0.449
	c0.182-0.271,0.633-0.541,0.992-0.813C37.962,34.984,37.419,35.345,37.242,35.707z M38.953,17.311
	c-0.09,0.09-0.09,0.181-0.361,0.181c-0.18,0-1.172-0.361-1.352-0.361c-0.271,0-0.631-0.09-0.723,0.451
	c-0.477-0.239-1.018-0.415-1.51-0.637c-0.01,0-0.014,0.005-0.023,0.005c-0.18,0-0.088,0-0.18-0.09
	c0.064,0.032,0.137,0.056,0.203,0.085c0.686-0.025,0.344-0.995,0.879-1.617c0.633,0.541,1.082,1.532,1.984,1.532
	c0.271,0,0.361-0.36,0.361-0.451h0.449c0.092,0.271,0.361,0.541,0.813,0.451v0.541C39.494,17.13,39.132,17.311,38.953,17.311z"/>
</svg>
