<?xml version="1.0" encoding="utf-8"?>
<!-- Generator: Adobe Illustrator 15.0.0, SVG Export Plug-In  -->
<!DOCTYPE svg PUBLIC "-//W3C//DTD SVG 1.1//EN" "http://www.w3.org/Graphics/SVG/1.1/DTD/svg11.dtd" [
	<!ENTITY ns_flows "http://ns.adobe.com/Flows/1.0/">
]>
<svg version="1.1"
	 xmlns="http://www.w3.org/2000/svg" xmlns:xlink="http://www.w3.org/1999/xlink" xmlns:a="http://ns.adobe.com/AdobeSVGViewerExtensions/3.0/"
	 x="0px" y="0px" width="48px" height="48px" viewBox="-3.645 -4.851 48 48" enable-background="new -3.645 -4.851 48 48"
	 xml:space="preserve">
<defs>
</defs>
<polygon points="29.642,9.447 19.722,9.091 25.812,8.428 35.609,9.046 "/>
<polygon points="19.722,9.091 19.414,3.751 17.075,3.795 21.046,0 25.546,4.016 23.871,3.972 25.636,8.428 "/>
<polygon fill="#C8691C" points="22.212,22.137 14.505,22.137 14.505,14.43 10.651,14.43 10.651,22.137 2.944,22.137 2.944,25.991 
	10.651,25.991 10.651,33.698 14.505,33.698 14.505,25.991 22.212,25.991 "/>
<path fill="#FFFFFF" d="M14.505,14.43v7.708h7.708v3.854h-7.708v7.707h-3.854v-7.707H2.944v-3.854h7.707V14.43H14.505 M16.505,12.43
	h-2h-3.854h-2v2v5.708H2.944h-2v2v3.854v2h2h5.707v5.707v2h2h3.854h2v-2v-5.707h5.708h2v-2v-3.854v-2h-2h-5.708V14.43V12.43
	L16.505,12.43z"/>
<polygon points="22.212,22.224 14.505,22.224 14.505,14.517 10.651,14.517 10.651,22.224 2.944,22.224 2.944,26.079 10.651,26.079 
	10.651,33.786 14.505,33.786 14.505,26.079 22.212,26.079 "/>
<polygon points="0.944,26.079 0.944,22.224 0.944,20.586 0,20.586 0,28.032 0.944,28.032 "/>
<polygon points="37.49,20.586 37.593,28.032 40.71,28.032 40.71,20.586 "/>
<polygon points="28.027,20.586 24.212,20.586 24.212,22.224 24.212,26.079 24.212,28.032 28.128,28.032 "/>
<polygon points="29.642,9.447 35.564,9.046 35.966,38.297 30.039,38.297 "/>
<polygon points="16.505,18.547 27.998,18.547 27.896,11.1 0,11.1 0,18.547 8.651,18.547 8.651,14.517 8.651,12.517 10.651,12.517 
	14.505,12.517 16.505,12.517 16.505,14.517 "/>
<polygon points="37.359,11.1 37.462,18.547 40.71,18.547 40.71,11.1 "/>
<polygon points="28.156,30.073 16.505,30.073 16.505,33.786 16.505,35.786 14.505,35.786 10.651,35.786 8.651,35.786 8.651,33.786 
	8.651,30.073 0,30.073 0,37.518 28.259,37.518 "/>
<polygon points="37.621,30.073 37.724,37.518 40.71,37.518 40.71,30.073 "/>
</svg>
