<?xml version="1.0" encoding="utf-8"?>
<!-- Generator: Adobe Illustrator 15.0.0, SVG Export Plug-In  -->
<!DOCTYPE svg PUBLIC "-//W3C//DTD SVG 1.1//EN" "http://www.w3.org/Graphics/SVG/1.1/DTD/svg11.dtd" [
	<!ENTITY ns_flows "http://ns.adobe.com/Flows/1.0/">
]>
<svg version="1.1"
	 xmlns="http://www.w3.org/2000/svg" xmlns:xlink="http://www.w3.org/1999/xlink" xmlns:a="http://ns.adobe.com/AdobeSVGViewerExtensions/3.0/"
	 x="0px" y="0px" width="48px" height="48px" viewBox="-3.517 -2.046 48 48" enable-background="new -3.517 -2.046 48 48"
	 xml:space="preserve">
<defs>
</defs>
<polygon fill="#F79523" points="21.79,32.026 31.731,43.907 34.9,31.67 "/>
<path fill="#F79523" d="M36.685,0.024h-2.399v3.998h0.688c1.893,0,1.997,1.536,1.997,3.428v19.163c0,1.893-0.104,3.426-1.997,3.426
	H5.996c-1.893,0-1.999-1.533-1.999-3.426V7.449c0-1.892,0.106-3.428,1.999-3.428h0.992V0.024H4.281C1.917,0.024,0,1.941,0,4.306
	v25.448c0,2.363,1.917,4.279,4.281,4.279h32.403c2.366,0,4.282-1.916,4.282-4.279V4.306C40.967,1.941,39.051,0.024,36.685,0.024z"/>
<path fill="#3588A6" d="M17.201,6.724c0,1.362-1.103,2.465-2.464,2.465l-3.991-0.226l0.001,4.694c-1.36,0-2.464-2.121-2.464-3.482
	V2.466C8.283,1.104,9.387,0,10.747,0h3.99c1.361,0,2.464,1.104,2.464,2.466V6.724z"/>
<path fill="#3588A6" d="M29.2,6.724c0,1.362-1.103,2.465-2.464,2.465l-3.992-0.226l0.004,4.694c-1.362,0-2.466-2.121-2.466-3.482
	V2.466C20.282,1.104,21.386,0,22.748,0h3.988C28.098,0,29.2,1.104,29.2,2.466V6.724z"/>
<path fill="#3588A6" d="M27.006,21.902c0-1.318,1.068-2.386,2.387-2.386l3.866,0.22l-0.001-4.579c1.318,0,2.386,2.085,2.386,3.404
	v7.467c0,1.318-1.067,2.389-2.386,2.389h-3.865c-1.318,0-2.387-1.07-2.387-2.389V21.902z"/>
<path fill="#3588A6" d="M15.384,21.902c0-1.318,1.069-2.386,2.388-2.386l3.863,0.22l-0.001-4.579c1.319,0,2.387,1.068,2.387,2.387
	v8.484c0,1.318-1.067,2.389-2.387,2.389h-3.862c-1.318,0-2.388-1.07-2.388-2.389V21.902z"/>
</svg>
