<?xml version="1.0" encoding="utf-8"?>
<!-- Generator: Adobe Illustrator 15.0.0, SVG Export Plug-In  -->
<!DOCTYPE svg PUBLIC "-//W3C//DTD SVG 1.1//EN" "http://www.w3.org/Graphics/SVG/1.1/DTD/svg11.dtd" [
	<!ENTITY ns_flows "http://ns.adobe.com/Flows/1.0/">
]>
<svg version="1.1"
	 xmlns="http://www.w3.org/2000/svg" xmlns:xlink="http://www.w3.org/1999/xlink" xmlns:a="http://ns.adobe.com/AdobeSVGViewerExtensions/3.0/"
	 x="0px" y="0px" width="48px" height="48px" viewBox="-8.742 -3.167 48 48" enable-background="new -8.742 -3.167 48 48"
	 xml:space="preserve">
<defs>
</defs>
<polygon fill="#C8691C" points="30.516,35.686 16.518,35.686 6.916,27.052 6.916,0 30.516,0 "/>
<polygon fill="#C54A20" points="17.631,27.07 7.826,26.505 17.631,35.212 "/>
<polygon fill="#F79523" points="27.514,39.053 13.515,39.053 3.913,30.418 3.913,3.366 27.514,3.366 "/>
<polygon fill="#C54A20" points="13.719,30.983 3.913,30.418 13.719,39.125 "/>
<polygon fill="#52CAF5" points="23.6,42.966 9.602,42.966 0,34.331 0,7.279 23.6,7.279 "/>
<polygon fill="#3588A6" points="9.806,34.896 0,34.331 9.806,43.038 "/>
<rect x="4.34" y="18.005" fill="#F1F2F2" width="14.924" height="1.639"/>
<rect x="4.34" y="21.919" fill="#F1F2F2" width="14.924" height="1.638"/>
<rect x="4.34" y="25.832" fill="#F1F2F2" width="14.924" height="1.639"/>
</svg>
