<?xml version="1.0" encoding="utf-8"?>
<!-- Generator: Adobe Illustrator 15.0.0, SVG Export Plug-In  -->
<!DOCTYPE svg PUBLIC "-//W3C//DTD SVG 1.1//EN" "http://www.w3.org/Graphics/SVG/1.1/DTD/svg11.dtd" [
	<!ENTITY ns_flows "http://ns.adobe.com/Flows/1.0/">
]>
<svg version="1.1"
	 xmlns="http://www.w3.org/2000/svg" xmlns:xlink="http://www.w3.org/1999/xlink" xmlns:a="http://ns.adobe.com/AdobeSVGViewerExtensions/3.0/"
	 x="0px" y="0px" width="48px" height="48px" viewBox="-5.444 -2.714 48 48" enable-background="new -5.444 -2.714 48 48"
	 xml:space="preserve">
<defs>
</defs>
<path fill="#C8691C" d="M36.28,40.647c0,1.238-1.003,2.243-2.242,2.243H2.364c-1.238,0-2.242-1.005-2.242-2.243V32.92
	c0-1.239,1.004-2.243,2.242-2.243h31.673c1.239,0,2.242,1.004,2.242,2.243V40.647z"/>
<path fill="#F79523" d="M31.795,18.345H4.606c-1.238,0-2.242,1.004-2.242,2.243l-2.242,7.729c-0.087,0.387-0.188,0.387-0.064,1.088
	c0.396-0.636,1.502-0.97,2.307-0.97h31.673c0.804,0,1.791,0.422,2.187,1.058c0.21-0.526,0.158-0.737,0.056-1.176l-2.242-7.729
	C34.038,19.349,33.035,18.345,31.795,18.345z"/>
<path fill="#FFFFFF" d="M32.557,36.771c0,1.314-1.064,2.38-2.379,2.38c-1.312,0-2.378-1.065-2.378-2.38
	c0-1.311,1.066-2.376,2.378-2.376C31.493,34.395,32.557,35.46,32.557,36.771z"/>
<path fill="#C8691C" d="M31.701,36.771c0,0.842-0.682,1.522-1.522,1.522c-0.839,0-1.521-0.681-1.521-1.522
	c0-0.838,0.682-1.521,1.521-1.521C31.019,35.25,31.701,35.933,31.701,36.771z"/>
<ellipse fill="#C8691C" cx="18.527" cy="23.797" rx="6.485" ry="1.071"/>
<ellipse fill="#3588A6" cx="18.758" cy="13.105" rx="12.999" ry="13.105"/>
<path fill="#FFFFFF" d="M8.843,11.625c-0.011,0.07-0.028,0.137-0.037,0.204h0.175l1.39,2.03l4.105-3.517l-2.062-0.271
	c1.13-2.352,3.532-3.978,6.319-3.978c3.438,0,6.29,2.472,6.889,5.734h3.038c-0.629-4.928-4.828-8.742-9.927-8.742
	c-4.323,0-7.99,2.745-9.392,6.582L7.319,9.402L8.843,11.625z"/>
<path fill="#FFFFFF" d="M30.197,17.733l-2.25-5.384l-5.14,3.038l2.261,0.719c-1.123,2.371-3.534,4.014-6.333,4.014
	c-3.437,0-6.292-2.474-6.892-5.738H8.806c0.629,4.929,4.83,8.741,9.928,8.741c4.142,0,7.691-2.518,9.213-6.102L30.197,17.733z"/>
</svg>
