<?xml version="1.0" encoding="utf-8"?>
<!-- Generator: Adobe Illustrator 15.0.0, SVG Export Plug-In  -->
<!DOCTYPE svg PUBLIC "-//W3C//DTD SVG 1.1//EN" "http://www.w3.org/Graphics/SVG/1.1/DTD/svg11.dtd" [
	<!ENTITY ns_flows "http://ns.adobe.com/Flows/1.0/">
]>
<svg version="1.1"
	 xmlns="http://www.w3.org/2000/svg" xmlns:xlink="http://www.w3.org/1999/xlink" xmlns:a="http://ns.adobe.com/AdobeSVGViewerExtensions/3.0/"
	 x="0px" y="0px" width="48px" height="48px" viewBox="-6.318 -3.371 48 48" enable-background="new -6.318 -3.371 48 48"
	 xml:space="preserve">
<defs>
</defs>
<path display="none" fill="#FFFFFF" d="M0.161,26.311L0.161,26.311c0,1.754,1.427,3.18,3.181,3.182l4.894-0.002l-0.002,4.895
	c0.002,1.753,1.428,3.182,3.182,3.182s3.181-1.429,3.181-3.182V29.49l4.894,0.002c1.754-0.002,3.18-1.428,3.183-3.182
	c-0.003-1.754-1.429-3.182-3.183-3.182h-4.894v-4.893c0-1.752-1.427-3.18-3.181-3.182c-1.754,0.002-3.18,1.43-3.18,3.182v4.893
	H3.341C1.586,23.131,0.161,24.559,0.161,26.311L0.161,26.311z"/>
<path d="M9.659,33.186h5.57l-0.001,5.569c0.001,1.384,1.121,2.503,2.504,2.503c1.381,0,2.504-1.119,2.504-2.503v-5.571l5.568,0.002
	c1.385,0,2.504-1.121,2.506-2.504c-0.002-1.384-1.121-2.504-2.506-2.504h-5.568v-5.57c0-1.379-1.12-2.501-2.504-2.504
	c-1.383,0.003-2.503,1.124-2.503,2.504v5.57h-5.57C8.276,28.18,7.156,29.3,7.156,30.682C7.156,32.064,8.275,33.186,9.659,33.186z"/>
<path d="M26.791,0H8.573C3.838,0,0,3.838,0,8.573v10.716c0,3.949,2.674,7.266,6.309,8.26c0.74-0.654,1.702-1.066,2.766-1.067h4.461
	v-4.458c0-2.313,1.882-4.198,4.197-4.201c2.315,0.002,4.198,1.888,4.198,4.201v4.458h4.46c1.054,0,2.006,0.403,2.744,1.047
	c3.592-1.021,6.228-4.319,6.228-8.239V8.573C35.363,3.838,31.523,0,26.791,0z M16,17.688V9.814l4.424,3.905L16,17.688z"/>
</svg>
