<?xml version="1.0" encoding="utf-8"?>
<!DOCTYPE svg PUBLIC "-//W3C//DTD SVG 1.1//EN" "http://www.w3.org/Graphics/SVG/1.1/DTD/svg11.dtd">
<svg version="1.1" xmlns="http://www.w3.org/2000/svg" xmlns:xlink="http://www.w3.org/1999/xlink" x="0px" y="0px"
	 width="48px" height="48px" viewBox="0 0 48 48">
<path d="M33.057,16.656c0,5.844-4.5,10.573-10.051,10.573c-5.558,0-10.056-4.729-10.056-10.573c0-5.838,4.498-10.568,10.056-10.568
	C28.557,6.084,33.057,10.818,33.057,16.656z"/>
<path d="M34.686,27.417c-0.059-0.039-0.117-0.084-0.18-0.123c0.02,0.057,0.02,0.118,0.031,0.18
	C34.59,27.454,34.637,27.435,34.686,27.417z"/>
<path d="M27.914,36.865c0-2.239,0.746-4.3,1.992-5.965c-1.932,0.487-4.313,0.78-6.901,0.78c-6.402,0-11.59-1.769-11.59-3.938
	c0-0.152,0.033-0.305,0.083-0.452C6.482,30.56,2.934,35.903,2.081,42.11h27.333C28.471,40.585,27.914,38.791,27.914,36.865z"/>
<path d="M36.512,12.989c-0.285,0-0.551,0.08-0.785,0.21c-0.5-5.536-4.42-10.521-12.69-10.585c-7.619-0.056-12.135,5.07-12.69,10.645
	c-0.257-0.169-0.564-0.271-0.895-0.271c-0.903,0-1.635,0.733-1.635,1.636v4.902c0,0.904,0.731,1.636,1.635,1.636
	c0.779,0,1.429-0.546,1.593-1.274l0.508,0.147v-4.577c0-5.254,3.187-11.374,11.478-11.295C32.182,4.25,34.52,10.204,34.52,15.458
	v4.577l0.41-0.12c0.002,0.009,0.004,0.016,0.006,0.021l-0.566,2.539c-0.279,1.255-0.865,2.382-1.678,3.281
	c-0.271-0.326-0.645-0.578-1.09-0.683c-1.092-0.254-2.178,0.423-2.432,1.513c-0.252,1.088,0.424,2.172,1.512,2.426
	c1.09,0.254,2.176-0.422,2.43-1.51c0.006-0.021,0.004-0.039,0.008-0.061c1.158-1.042,2.02-2.433,2.383-4.069l0.512-2.298
	c0.158,0.053,0.322,0.086,0.498,0.086c0.906,0,1.637-0.73,1.637-1.636v-4.901C38.148,13.722,37.416,12.989,36.512,12.989z"/>
<path d="M37.527,28.603c-4.635,0-8.393,3.757-8.393,8.392s3.758,8.392,8.393,8.392s8.393-3.757,8.393-8.392
	S42.162,28.603,37.527,28.603z M41.986,38.737h-2.715v2.714c0,0.962-0.783,1.744-1.742,1.744c-0.961,0-1.742-0.781-1.744-1.743
	v-2.714h-2.717c-0.959-0.002-1.74-0.783-1.74-1.744c0-0.962,0.781-1.743,1.742-1.743l2.715,0.002v-2.719
	c0-0.96,0.781-1.74,1.744-1.74c0.959,0,1.74,0.78,1.742,1.74v2.719l2.715-0.003c0.959,0.003,1.74,0.783,1.742,1.741
	C43.729,37.954,42.947,38.737,41.986,38.737z"/>
</svg>
