<?xml version="1.0" encoding="utf-8"?>
<!DOCTYPE svg PUBLIC "-//W3C//DTD SVG 1.1//EN" "http://www.w3.org/Graphics/SVG/1.1/DTD/svg11.dtd">
<svg version="1.1" xmlns="http://www.w3.org/2000/svg" xmlns:xlink="http://www.w3.org/1999/xlink" x="0px" y="0px"
	 width="48px" height="48px" viewBox="0 0 48 48">
<path d="M42.859,20.6h-2.979c-0.234-1.068-0.572-2.094-0.998-3.075l2.465-1.728c0.074-0.052,0.139-0.114,0.203-0.175l2.578,3.205
	l1.16-10.701l-10.701-1.16l2.709,3.368l-2.377,1.664c-0.777-0.718-1.619-1.359-2.527-1.918l1.061-2.916
	c0.352-0.955-0.146-2.013-1.098-2.36l-2.932-1.066c-0.957-0.349-2.012,0.146-2.358,1.1l-1.069,2.941
	c-0.75-0.104-1.51-0.177-2.288-0.177c-0.293,0-0.573,0.03-0.862,0.044l-0.81-3.026c-0.264-0.984-1.274-1.566-2.257-1.304
	l-3.01,0.806c-0.981,0.261-1.566,1.274-1.302,2.255l0.805,3.002c-0.954,0.48-1.848,1.044-2.683,1.69l-2.371-1.985
	c-0.779-0.655-1.937-0.55-2.592,0.228l-2.004,2.389c-0.655,0.776-0.551,1.936,0.226,2.593l2.315,1.939
	c-0.74,1.351-1.291,2.82-1.631,4.367h-2.98c-1.017,0-1.841,0.824-1.841,1.84v3.119c0,1.019,0.824,1.842,1.841,1.842h2.901
	c0.215,1.098,0.539,2.153,0.958,3.158l-2.346,1.644c-0.832,0.585-1.033,1.733-0.451,2.563l1.788,2.555
	c0.583,0.834,1.732,1.037,2.564,0.453l2.31-1.617c0.808,0.771,1.692,1.455,2.643,2.053l-0.957,2.627
	c-0.349,0.957,0.146,2.016,1.1,2.359l2.93,1.065c0.955,0.351,2.014-0.143,2.361-1.099l0.949-2.608
	c0.787,0.114,1.586,0.196,2.406,0.196c0.322,0,0.639-0.031,0.956-0.051l0.719,2.682c0.264,0.982,1.271,1.563,2.256,1.305l3.01-0.809
	c0.98-0.264,1.566-1.271,1.299-2.255l-0.719-2.691c1.006-0.514,1.949-1.118,2.82-1.815l2.15,1.804
	c0.775,0.651,1.939,0.552,2.592-0.229l2.004-2.386c0.656-0.78,0.553-1.94-0.229-2.597l-2.188-1.836
	c0.729-1.387,1.27-2.889,1.582-4.472h2.9c1.018,0,1.844-0.824,1.844-1.844v-3.117C44.703,21.424,43.879,20.6,42.859,20.6z
	 M31.658,26.464h-5.484v5.485c0,1.361-1.106,2.466-2.466,2.466c-1.363,0-2.466-1.106-2.466-2.466v-5.485h-5.485
	c-1.36,0-2.464-1.104-2.464-2.466c0-1.361,1.103-2.465,2.464-2.465h5.485v-5.484c0-1.36,1.103-2.464,2.466-2.464
	c1.363,0,2.466,1.102,2.466,2.464v5.484h5.484c1.361,0,2.465,1.103,2.465,2.465S33.02,26.464,31.658,26.464z"/>
</svg>
