<?xml version="1.0" encoding="utf-8"?>
<svg version="1.1"
	 xmlns="http://www.w3.org/2000/svg" x="0px" y="0px" width="48px" height="48px" viewBox="-3.443 -3.684 48 48">
<defs>
</defs>
<path d="M38.507,5.793H27.811l-1.324,3.362h9.373c1.832,0.305,1.324,1.63,1.324,2.343l-1.629,15.078
	c0,0.712-0.613,1.324-1.326,1.324H16.401c-0.712,0-1.324-0.612-1.324-1.324l-1.019-7.743c0,0-0.204-1.732-1.12-2.546
	c-0.917-0.713-3.464-0.713-3.464-0.713H0l0.204,3.464h7.641c0,0,1.324-0.102,1.833,0.306c0.612,0.509,0.51,1.222,0.51,1.222
	l1.121,7.743c0,1.121,1.833,2.955,2.954,2.955h22.208c1.121,0,2.648-2.242,2.648-3.261L41.055,9.46
	c0.407-1.935-1.427-3.566-2.242-3.566"/>
<path d="M19.457,31.975c-2.343,0-4.278,1.936-4.278,4.176c0,2.242,1.935,4.178,4.278,4.178c2.344,0,4.278-1.936,4.278-4.178
	C23.735,33.91,21.698,31.975,19.457,31.975z"/>
<path d="M30.663,32.076c-2.345,0-4.278,1.938-4.278,4.277c0,2.345,1.936,4.279,4.278,4.279s4.278-1.936,4.278-4.279
	C34.941,34.012,33.006,32.076,30.663,32.076z"/>
<path d="M28.15,4.65c-1.781-1.46-4.271-1.953-6.577-1.07c-3.418,1.309-5.132,5.142-3.822,8.564c0.625,1.628,1.826,2.857,3.276,3.569
	l1.844-4.167l2.661,7.419l-7.292,3.048l1.538-3.479c-2.17-1.04-3.966-2.868-4.896-5.293c-1.922-5.03,0.595-10.668,5.624-12.594
	c3.75-1.436,7.833-0.401,10.471,2.302L28.15,4.65z"/>
</svg>
