<?xml version="1.0" encoding="utf-8"?>
<!-- Generator: Adobe Illustrator 15.0.0, SVG Export Plug-In  -->
<!DOCTYPE svg PUBLIC "-//W3C//DTD SVG 1.1//EN" "http://www.w3.org/Graphics/SVG/1.1/DTD/svg11.dtd" [
	<!ENTITY ns_flows "http://ns.adobe.com/Flows/1.0/">
]>
<svg version="1.1"
	 xmlns="http://www.w3.org/2000/svg" x="0px" y="0px" width="48px" height="48px" viewBox="-3.821 -6.9 48 48">
<defs>
</defs>
<path d="M37.8,0H27.3L26,3.3h9.2c1.8,0.3,1.3,1.6,1.3,2.3l-1.6,14.799c0,0.699-0.602,1.301-1.301,1.301H16.1
	c-0.699,0-1.3-0.602-1.3-1.301l-1-7.6c0,0-0.2-1.7-1.1-2.5c-0.9-0.7-3.4-0.7-3.4-0.7H0L0.2,13h7.5c0,0,1.3-0.101,1.8,0.3
	c0.6,0.5,0.5,1.2,0.5,1.2l1.1,7.6c0,1.102,1.8,2.9,2.9,2.9h21.8c1.101,0,2.601-2.201,2.601-3.201L40.3,3.6
	c0.4-1.9-1.399-3.5-2.2-3.5"/>
<path d="M19.1,25.7c-2.3,0-4.199,1.9-4.199,4.1c0,2.201,1.899,4.102,4.199,4.102c2.301,0,4.2-1.9,4.2-4.102S21.3,25.7,19.1,25.7z"/>
<path d="M30.1,25.799c-2.3,0-4.199,1.9-4.199,4.201c0,2.299,1.899,4.199,4.199,4.199c2.301,0,4.2-1.9,4.2-4.199
	C34.3,27.7,32.4,25.799,30.1,25.799z"/>
<path d="M24.813,20.762c-1.268,0-2.3-1.031-2.301-2.301l0.001-3.584h-3.588c-1.269-0.001-2.3-1.034-2.3-2.302s1.033-2.3,2.301-2.3
	l3.587,0.001l-0.001-3.588c0-1.268,1.032-2.3,2.301-2.3c1.268,0,2.299,1.032,2.301,2.299v3.588l3.585-0.001
	c1.266,0.001,2.299,1.033,2.301,2.299c0,1.271-1.033,2.303-2.301,2.303h-3.585v3.584C27.111,19.731,26.08,20.762,24.813,20.762z"/>
</svg>
