<?xml version="1.0" encoding="utf-8"?>
<!DOCTYPE svg PUBLIC "-//W3C//DTD SVG 1.1//EN" "http://www.w3.org/Graphics/SVG/1.1/DTD/svg11.dtd" [
	<!ENTITY ns_flows "http://ns.adobe.com/Flows/1.0/">
]>
<svg version="1.1"
	 xmlns="http://www.w3.org/2000/svg" x="0px" y="0px" width="48px" height="48px" viewBox="-3.697 -6.628 48 48">
<defs>
</defs>
<path d="M38.034,0.332H27.468l-1.308,3.32h9.257c1.812,0.302,1.31,1.61,1.31,2.314l-1.609,14.893c0,0.703-0.604,1.308-1.311,1.308
	H16.199c-0.703,0-1.308-0.604-1.308-1.308l-1.006-7.647c0,0-0.201-1.711-1.106-2.516C11.873,9.99,9.357,9.99,9.357,9.99H0
	l0.202,3.421h7.546c0,0,1.308-0.1,1.811,0.302c0.604,0.503,0.503,1.208,0.503,1.208l1.107,7.646c0,1.107,1.811,2.919,2.918,2.919
	h21.935c1.106,0,2.617-2.214,2.617-3.22l1.91-18.313c0.402-1.911-1.408-3.522-2.214-3.522"/>
<path d="M19.217,26.189c-2.314,0-4.225,1.912-4.225,4.125c0,2.215,1.911,4.127,4.225,4.127c2.316,0,4.226-1.912,4.226-4.127
	C23.443,28.102,21.431,26.189,19.217,26.189z"/>
<path d="M30.286,26.291c-2.313,0-4.225,1.912-4.225,4.227c0,2.313,1.91,4.227,4.225,4.227s4.227-1.912,4.227-4.227
	S32.602,26.291,30.286,26.291z"/>
<path d="M30.274,12.497c-1.127,1.977-3.246,3.313-5.686,3.317c-3.617,0.004-6.553-2.923-6.56-6.542
	C18.028,7.55,18.7,5.991,19.785,4.82l3.178,3.189l-0.175-7.784L14.984,0l2.65,2.661c-1.631,1.728-2.641,4.05-2.637,6.614
	c0.007,5.321,4.327,9.628,9.646,9.623c3.967-0.006,7.365-2.408,8.838-5.833L30.274,12.497z"/>
</svg>
