<?xml version="1.0" encoding="utf-8"?>
<!DOCTYPE svg PUBLIC "-//W3C//DTD SVG 1.1//EN" "http://www.w3.org/Graphics/SVG/1.1/DTD/svg11.dtd" [
	<!ENTITY ns_flows "http://ns.adobe.com/Flows/1.0/">
]>
<svg version="1.1"
	 xmlns="http://www.w3.org/2000/svg" x="0px" y="0px" width="48px" height="48px" viewBox="-3.577 -6.693 48 48">
<defs>
</defs>
<path d="M38.257,0H27.629l-1.315,3.34h9.313c1.822,0.303,1.316,1.62,1.316,2.328l-1.619,14.98c0,0.708-0.608,1.315-1.316,1.315
	H16.294c-0.708,0-1.315-0.607-1.315-1.315l-1.012-7.693c0,0-0.202-1.721-1.113-2.53c-0.911-0.708-3.441-0.708-3.441-0.708H0
	l0.203,3.441h7.591c0,0,1.315-0.101,1.822,0.304c0.607,0.506,0.506,1.215,0.506,1.215l1.113,7.691c0,1.114,1.822,2.938,2.935,2.938
	h22.064c1.113,0,2.632-2.229,2.632-3.24l1.923-18.42c0.404-1.922-1.417-3.542-2.229-3.542"/>
<path d="M19.331,26.012c-2.328,0-4.25,1.922-4.25,4.148c0,2.229,1.923,4.15,4.25,4.15c2.329,0,4.25-1.924,4.25-4.15
	S21.558,26.012,19.331,26.012z"/>
<path d="M30.463,26.112c-2.327,0-4.25,1.924-4.25,4.252c0,2.326,1.923,4.25,4.25,4.25c2.329,0,4.251-1.924,4.251-4.25
	C34.714,28.036,32.792,26.112,30.463,26.112z"/>
<path d="M29.545,19.607c-0.653,0-1.267-0.254-1.729-0.716l-2.705-2.706l-2.705,2.706c-0.463,0.462-1.077,0.716-1.729,0.716
	c-0.653,0-1.267-0.255-1.729-0.717c-0.462-0.461-0.716-1.075-0.716-1.729c0-0.653,0.254-1.267,0.715-1.728l2.706-2.705l-2.707-2.707
	c-0.953-0.954-0.952-2.506,0.001-3.458c0.462-0.461,1.076-0.716,1.729-0.716s1.267,0.255,1.729,0.717l2.706,2.707l2.705-2.708
	c0.461-0.461,1.074-0.716,1.729-0.716s1.27,0.255,1.73,0.718c0.951,0.952,0.951,2.502,0,3.456l-2.709,2.708l2.707,2.705
	c0.951,0.952,0.951,2.502,0.002,3.456C30.812,19.353,30.199,19.607,29.545,19.607L29.545,19.607z"/>
</svg>
