<?xml version="1.0" encoding="utf-8"?>
<!-- Generator: Adobe Illustrator 15.0.0, SVG Export Plug-In  -->
<!DOCTYPE svg PUBLIC "-//W3C//DTD SVG 1.1//EN" "http://www.w3.org/Graphics/SVG/1.1/DTD/svg11.dtd" [
	<!ENTITY ns_flows "http://ns.adobe.com/Flows/1.0/">
]>
<svg version="1.1"
	 xmlns="http://www.w3.org/2000/svg" xmlns:xlink="http://www.w3.org/1999/xlink" xmlns:a="http://ns.adobe.com/AdobeSVGViewerExtensions/3.0/"
	 x="0px" y="0px" width="48px" height="48px" viewBox="-4.109 -4.128 48 48"
	 xml:space="preserve">
<defs>
</defs>
<path d="M39.615,0.195c-1.148-1.147-6.891,3.112-7.272,3.604c-0.97,1.251-5.101,6.638-10.935,10.938
	c-3.579,2.635-5.69,2.984-6.404,3.018l-7.367-7.371l-2.014,2.013l21.718,21.731l2.014-2.014l-7.286-7.291
	c0.324-0.904,1.735-4.724,3.062-6.483c2.189-2.896,8.682-9.427,10.877-10.875C36.678,7.022,40.63,1.211,39.615,0.195z"/>
<path d="M4.953,13.062l-4.702,4.702c-0.335,0.334-0.335,0.876,0,1.208l20.517,20.521c0.334,0.334,0.876,0.334,1.209,0l4.831-4.831
	L4.953,13.062z"/>
</svg>
