<?xml version="1.0" encoding="utf-8"?>
<!-- Generator: Adobe Illustrator 15.0.0, SVG Export Plug-In  -->
<!DOCTYPE svg PUBLIC "-//W3C//DTD SVG 1.1//EN" "http://www.w3.org/Graphics/SVG/1.1/DTD/svg11.dtd" [
	<!ENTITY ns_flows "http://ns.adobe.com/Flows/1.0/">
]>
<svg version="1.1"
	 xmlns="http://www.w3.org/2000/svg" xmlns:xlink="http://www.w3.org/1999/xlink" xmlns:a="http://ns.adobe.com/AdobeSVGViewerExtensions/3.0/"
	 x="0px" y="0px" width="32px" height="32px" viewBox="-1.937 -1.937 32 32"
	 xml:space="preserve">
<defs>
</defs>
<path d="M14.063,0C6.296,0,0,6.296,0,14.063c0,7.766,6.296,14.063,14.063,14.063c7.768,0,14.063-6.297,14.063-14.063
	C28.125,6.296,21.831,0,14.063,0z M19.801,17.086c0.754,0.752,0.754,1.967,0,2.717c-0.752,0.752-1.967,0.752-2.715,0l-3.024-3.021
	l-3.022,3.021c-0.751,0.752-1.969,0.752-2.719,0c-0.749-0.75-0.749-1.965,0.002-2.717l3.021-3.022l-3.023-3.025
	C7.572,10.29,7.572,9.072,8.323,8.322c0.748-0.75,1.965-0.75,2.717,0l3.022,3.025l3.024-3.025c0.75-0.75,1.963-0.75,2.715,0
	c0.754,0.75,0.754,1.967,0,2.717l-3.02,3.025L19.801,17.086z"/>
</svg>
