<?xml version="1.0" encoding="utf-8"?>
<svg version="1.1"
	 xmlns="http://www.w3.org/2000/svg" x="0px" y="0px" width="48px" height="48px" viewBox="-6.473 -4.392 48 48">
<defs>
</defs>
<path d="M29.586,14.58H28.82l-0.065-2.721C28.595,5.15,23.025-0.158,16.316,0.003C9.607,0.164,4.299,5.734,4.46,12.443l0.052,2.137
	H3.804C1.701,14.58,0,16.282,0,18.382v17.031c0,2.1,1.701,3.803,3.804,3.803h25.782c2.101,0,3.802-1.703,3.802-3.803V18.382
	C33.388,16.282,31.687,14.58,29.586,14.58z M18.271,24.916v9.442c0,1.062-0.858,1.921-1.92,1.921c-1.06,0-1.918-0.859-1.918-1.921
	v-9.442c-0.849-0.602-1.406-1.587-1.406-2.707c0-1.838,1.488-3.326,3.324-3.326c1.838,0,3.326,1.488,3.326,3.326
	C19.677,23.328,19.119,24.313,18.271,24.916z M7.326,14.58L7.29,13.1c-0.129-5.367,3.946-9.818,9.103-9.942
	c5.154-0.124,9.438,4.127,9.566,9.494l0.046,1.928H7.326z"/>
<polygon points="35.055,10.172 32.678,9.116 33.073,6.607 28.767,9.901 28.452,9.116 25.151,9.908 24.966,10.743 24.984,10.59 
	19.711,8.556 20.796,10.853 18.811,12.534 24.141,14.454 24.095,14.662 30.829,15.058 30.271,13.663 "/>
</svg>
