<?xml version="1.0" encoding="utf-8"?>
<!DOCTYPE svg PUBLIC "-//W3C//DTD SVG 1.1//EN" "http://www.w3.org/Graphics/SVG/1.1/DTD/svg11.dtd" [
	<!ENTITY ns_flows "http://ns.adobe.com/Flows/1.0/">
]>
<svg version="1.1"
	 xmlns="http://www.w3.org/2000/svg" x="0px" y="0px" width="48px" height="48px" viewBox="-1.739 -4.092 48 48">
<defs>
</defs>
<path d="M14.153,33.174c-5.209-5.956-4.764-14.913,0.885-20.337l3.997,4.598L18.598,2.562L3.878,0l3.526,4.056
	C6.248,4.99-6.202,18.218,3.97,32.284C8.26,38.216,16.145,39.77,22.769,38C19.542,37.45,16.477,35.829,14.153,33.174z"/>
<path d="M30.369,6.642c5.209,5.956,4.764,14.915-0.887,20.336l-3.996-4.598l0.438,14.872l14.721,2.563l-3.525-4.058
	c1.154-0.934,13.605-14.159,3.434-28.227C36.261,1.6,28.376,0.046,21.753,1.815C24.978,2.366,28.044,3.986,30.369,6.642z"/>
</svg>
