<?xml version="1.0" encoding="utf-8"?>
<svg version="1.1"
	 xmlns="http://www.w3.org/2000/svg" x="0px" y="0px" width="48px" height="48px" viewBox="0 -4.102 48 48">
<defs>
</defs>
<path d="M4.637,6.354h10.75v6.424c0,1.605,1.3,2.289,2.903,2.289h27.952v-9.8c0-1.604-1.299-2.903-2.904-2.903H6.548
	c-1.604,0-2.905,1.299-2.905,2.903v1.272C3.953,6.427,4.285,6.354,4.637,6.354z"/>
<path d="M9.906,24.097h6.547v-6.997h-0.197c-1.604,0-2.904-1.299-2.904-2.904V8.389H4.637c-1.604,0-2.904,1.3-2.904,2.903v23.236
	c0,1.604,1.3,2.902,2.904,2.902h19.183L9.906,24.097z"/>
<path d="M31.332,17.101v6.997h7.146L24.561,37.432h18.803c1.604,0,2.904-1.301,2.904-2.903V17.101H31.332z"/>
</svg>
