<?xml version="1.0" encoding="utf-8"?>
<svg version="1.1"
	 xmlns="http://www.w3.org/2000/svg" x="0px" y="0px" width="48px" height="48px" viewBox="-2.808 -3.216 48 48">
<defs>
</defs>
<path d="M7.2,7.293c0,0,12.425,14.696,12.425,16.896s0.313,13.656,0.313,13.656l2.758-0.718c0,0,0.225-10.895,0.314-13.139
	C23.125,21.1,35.827,7.238,35.827,7.238"/>
<path d="M42.383,5.146C42.383,0.145,23.36,0,21.192,0C19.023,0,0,0.145,0,5.146c0,0.915,0.641,1.666,1.694,2.285
	c6.865,7.372,13.872,15.739,14.048,17.394v16.743l10.901-3.115l-0.002-13.609c0.176-1.672,7.186-10.04,14.051-17.413
	C41.745,6.813,42.383,6.062,42.383,5.146z M39.651,4.994c-0.184,0.196-0.377,0.401-0.574,0.612
	c-2.195,0.996-8.17,2.265-17.884,2.265c-9.717,0-15.692-1.269-17.886-2.265C3.108,5.396,2.917,5.191,2.732,4.995
	c1.531-1.02,7.706-2.573,18.46-2.573C31.944,2.422,38.12,3.976,39.651,4.994z M24.219,24.825v11.802l-6.054,1.728V24.825
	c0-2.401-6.461-10.013-11.693-15.782c5.732,1.194,13.391,1.251,14.721,1.251s8.988-0.057,14.72-1.251
	C30.68,14.813,24.219,22.424,24.219,24.825z"/>
<path d="M7.154,6.638c0.849,0.413,6.978,1.184,14.519,1.171c7.355-0.01,13.634-0.928,14.382-1.262
	c-0.986-0.974-7.027-2.183-14.382-2.183C14.319,4.364,8.141,5.665,7.154,6.638z"/>
</svg>
