<?xml version="1.0" encoding="utf-8"?>
<!-- Generator: Adobe Illustrator 15.0.0, SVG Export Plug-In  -->
<!DOCTYPE svg PUBLIC "-//W3C//DTD SVG 1.1//EN" "http://www.w3.org/Graphics/SVG/1.1/DTD/svg11.dtd" [
	<!ENTITY ns_flows "http://ns.adobe.com/Flows/1.0/">
]>
<svg version="1.1"
	 xmlns="http://www.w3.org/2000/svg" x="0px" y="0px" width="48px" height="48px" viewBox="-2.275 -3.707 48 48">
<defs>
</defs>
<path d="M0,3.063v18.203c0,1.69,1.372,3.063,3.064,3.063h1.467l1.892,8.518l6.084-8.518h13.737c1.691,0,3.063-1.371,3.063-3.063
	V3.063C29.308,1.371,27.937,0,26.245,0H3.065C1.372-0.001,0,1.371,0,3.063z M2.86,5.31c0-1.354,0.076-2.451,1.431-2.451h20.728
	c1.354,0,1.431,1.097,1.431,2.451v13.708c0,1.354-0.076,2.452-1.431,2.452H4.29c-1.354,0-1.431-1.098-1.431-2.452L2.86,5.31
	L2.86,5.31z"/>
<path d="M8.728,10.929c0,0.225-0.061,0.418-0.182,0.58l-1.01,1.364v1.301H6.532v-1.177c0-0.233,0.061-0.432,0.181-0.598l0.997-1.35
	V9.725H6.54v1.262H5.527V9.499c0-0.425,0.211-0.638,0.633-0.638h1.931c0.425,0,0.638,0.213,0.638,0.638L8.728,10.929L8.728,10.929z
	 M7.554,15.792h-1.04v-1.063h1.04V15.792z"/>
<path d="M13.808,10.824c0,0.225-0.061,0.418-0.182,0.58l-1.009,1.364v1.301h-1.005v-1.177c0-0.233,0.061-0.433,0.182-0.598
	l0.996-1.35V9.62h-1.17v1.262h-1.014V9.394c0-0.425,0.211-0.638,0.633-0.638h1.932c0.425,0,0.637,0.212,0.637,0.638V10.824z
	 M12.635,15.686h-1.04v-1.063h1.04V15.686z"/>
<path d="M18.784,10.718c0,0.225-0.061,0.418-0.181,0.58l-1.01,1.364v1.302h-1.006v-1.178c0-0.233,0.061-0.432,0.182-0.598
	l0.996-1.35V9.514h-1.169v1.262h-1.014V9.288c0-0.425,0.211-0.638,0.634-0.638h1.93c0.426,0,0.638,0.213,0.638,0.638V10.718z
	 M17.61,15.58h-1.04v-1.063h1.04V15.58z"/>
<path d="M24.182,10.718c0,0.225-0.059,0.418-0.18,0.58l-1.01,1.364v1.302h-1.006v-1.178c0-0.233,0.061-0.432,0.182-0.598l0.997-1.35
	V9.514h-1.169v1.262h-1.014V9.288c0-0.425,0.211-0.638,0.633-0.638h1.931c0.426,0,0.637,0.213,0.637,0.638V10.718z M23.01,15.58
	h-1.041v-1.063h1.041V15.58z"/>
<path d="M40.385,7.74H29.272v2.859h9.889c1.354,0,1.431,1.097,1.431,2.451v13.708c0,1.354-0.076,2.451-1.431,2.451H18.432
	c-1.354,0-1.431-1.098-1.431-2.451v-2.563h-2.859v4.809c0,1.691,1.372,3.064,3.064,3.064h13.737l6.085,8.518l1.891-8.518h1.467
	c1.693,0,3.064-1.373,3.064-3.064v-18.2C43.45,9.112,42.079,7.74,40.385,7.74z"/>
<path d="M36.827,15.841l-0.16,5.824h-0.893l-0.16-5.824H36.827z M36.778,23.436h-1.125v-1.164h1.125V23.436z"/>
<path d="M32.063,15.841l-0.16,5.824H31.01l-0.16-5.824H32.063z M32.014,23.436h-1.125v-1.164h1.125V23.436z"/>
</svg>
