<?xml version="1.0" encoding="utf-8"?>
<!-- Generator: Adobe Illustrator 15.0.0, SVG Export Plug-In  -->
<!DOCTYPE svg PUBLIC "-//W3C//DTD SVG 1.1//EN" "http://www.w3.org/Graphics/SVG/1.1/DTD/svg11.dtd" [
	<!ENTITY ns_flows "http://ns.adobe.com/Flows/1.0/">
]>
<svg version="1.1"
	 xmlns="http://www.w3.org/2000/svg" xmlns:xlink="http://www.w3.org/1999/xlink" xmlns:a="http://ns.adobe.com/AdobeSVGViewerExtensions/3.0/"
	 x="0px" y="0px" width="48px" height="48px" viewBox="-1.777 -4.066 48 48"
	 xml:space="preserve">
<defs>
</defs>
<path d="M31.132,10.625c0,5.871-4.522,10.624-10.103,10.624c-5.587,0-10.106-4.752-10.106-10.624C10.923,4.756,15.442,0,21.029,0
	C26.609,0,31.132,4.756,31.132,10.625z"/>
<path d="M27.369,29.356c0,3.623,2.939,6.564,6.564,6.564c1.581,0,3.032-0.559,4.165-1.49l-9.238-9.238
	C27.93,26.325,27.369,27.776,27.369,29.356z"/>
<path d="M33.934,22.79c-1.481,0-2.844,0.496-3.94,1.326l9.183,9.182c0.827-1.1,1.322-2.459,1.322-3.941
	C40.498,25.731,37.561,22.79,33.934,22.79z"/>
<path d="M33.934,18.844c-5.806,0-10.512,4.706-10.512,10.512c0,5.805,4.706,10.512,10.512,10.512s10.512-4.707,10.512-10.512
	C44.445,23.55,39.739,18.844,33.934,18.844z M33.934,37.561c-4.531,0-8.204-3.676-8.204-8.205c0-4.531,3.674-8.206,8.204-8.206
	c4.532,0,8.205,3.675,8.205,8.206C42.139,33.885,38.466,37.561,33.934,37.561z"/>
<path d="M22.371,29.356c0-1.291,0.221-2.529,0.611-3.689c-0.636,0.037-1.286,0.061-1.954,0.061c-6.434,0-11.646-1.775-11.646-3.959
	c0-0.152,0.032-0.307,0.083-0.454C4.425,24.602,0.856,29.969,0,36.206h24.634C23.218,34.286,22.371,31.922,22.371,29.356z"/>
</svg>
