<?xml version="1.0" encoding="utf-8"?>
<!-- Generator: Adobe Illustrator 15.0.0, SVG Export Plug-In  -->
<!DOCTYPE svg PUBLIC "-//W3C//DTD SVG 1.1//EN" "http://www.w3.org/Graphics/SVG/1.1/DTD/svg11.dtd" [
	<!ENTITY ns_flows "http://ns.adobe.com/Flows/1.0/">
]>
<svg version="1.1"
	 xmlns="http://www.w3.org/2000/svg" xmlns:xlink="http://www.w3.org/1999/xlink" xmlns:a="http://ns.adobe.com/AdobeSVGViewerExtensions/3.0/"
	 x="0px" y="0px" width="48px" height="48px" viewBox="-9.717 -3.232 48 48"
	 xml:space="preserve">
<defs>
</defs>
<path d="M25.581,9.516h-1.673v2.788h0.479c1.319,0,1.393,1.07,1.393,2.39v13.361c0,1.32-0.072,2.391-1.393,2.391H4.182
	c-1.32,0-1.394-1.069-1.394-2.391V14.694c0-1.32,0.074-2.39,1.394-2.39h0.692V9.516H2.986C1.337,9.516,0,10.853,0,12.502v17.743
	c0,1.649,1.337,2.985,2.986,2.985h13.208l5.934,8.305l1.844-8.305h1.61c1.649,0,2.985-1.336,2.985-2.985V12.502
	C28.566,10.853,27.23,9.516,25.581,9.516z"/>
<path d="M15.85,0.143c0.299-0.353,0.756,0.058,0.756,0.058l7.44,4.766l-3.472,8.693c0,0-0.133,0.885-0.594,0.898
	c-0.463,0.014-0.584-0.872-0.584-0.872l-0.84-3.095c0,0-10.77-1.541-14.303,7.643c0,0,0.224-11.463,12.389-14.446l-0.773-2.755
	C15.869,1.033,15.609,0.427,15.85,0.143z"/>
<path d="M21.24,21.07h-0.999c-0.079-0.358-0.191-0.703-0.335-1.032l0.826-0.579c0.279-0.196,0.348-0.582,0.151-0.86l-0.6-0.858
	c-0.194-0.279-0.583-0.347-0.861-0.15l-0.847,0.594c-0.262-0.242-0.543-0.458-0.848-0.644l0.355-0.979
	c0.116-0.321-0.05-0.674-0.368-0.792l-0.983-0.357c-0.321-0.116-0.676,0.05-0.791,0.37l-0.361,0.986
	c-0.248-0.035-0.504-0.059-0.764-0.059c-0.101,0-0.194,0.009-0.29,0.015l-0.273-1.016c-0.088-0.331-0.427-0.525-0.755-0.437
	l-1.01,0.27c-0.33,0.088-0.525,0.428-0.438,0.757l0.27,1.006c-0.317,0.163-0.619,0.35-0.9,0.567l-0.792-0.666
	c-0.263-0.22-0.651-0.185-0.871,0.077l-0.673,0.801c-0.218,0.259-0.185,0.649,0.076,0.869l0.776,0.65
	c-0.247,0.453-0.432,0.945-0.547,1.466H8.392c-0.341,0-0.618,0.278-0.618,0.618v1.046c0,0.34,0.277,0.617,0.618,0.617h0.974
	c0.072,0.366,0.18,0.723,0.322,1.06L8.9,24.959c-0.281,0.195-0.349,0.583-0.152,0.861l0.599,0.854
	c0.197,0.281,0.58,0.347,0.862,0.152l0.773-0.54c0.271,0.256,0.566,0.484,0.886,0.688l-0.321,0.879
	c-0.119,0.321,0.049,0.677,0.369,0.791l0.982,0.358c0.322,0.117,0.674-0.049,0.791-0.369l0.319-0.873
	c0.263,0.04,0.531,0.065,0.809,0.065c0.107,0,0.213-0.01,0.32-0.018l0.238,0.899c0.089,0.327,0.43,0.526,0.756,0.438l1.012-0.271
	c0.328-0.09,0.523-0.428,0.437-0.757l-0.24-0.902c0.335-0.173,0.653-0.376,0.946-0.608l0.719,0.603
	c0.26,0.22,0.648,0.187,0.871-0.078l0.671-0.797c0.22-0.261,0.187-0.649-0.077-0.869l-0.732-0.618
	c0.244-0.466,0.426-0.968,0.529-1.498h0.975c0.34,0,0.619-0.277,0.619-0.617v-1.046C21.859,21.348,21.58,21.07,21.24,21.07z
	 M14.818,25.65c-1.903,0-3.443-1.541-3.443-3.44c0-1.901,1.54-3.441,3.443-3.441c1.898,0,3.438,1.541,3.438,3.441
	C18.258,24.109,16.718,25.65,14.818,25.65z"/>
</svg>
