<?xml version="1.0" encoding="utf-8"?>
<svg version="1.1"
	 xmlns="http://www.w3.org/2000/svg" x="0px" y="0px" width="48px" height="48px" viewBox="-9.146 -2.405 48 48">
<defs>
</defs>
<path d="M26.604,9.896h-1.74v2.899h0.496c1.373,0,1.449,1.113,1.449,2.485v13.896c0,1.373-0.076,2.485-1.449,2.485H4.349
	c-1.373,0-1.45-1.112-1.45-2.485V15.28c0-1.372,0.077-2.485,1.45-2.485h0.719V9.896H3.105C1.39,9.896,0,11.287,0,13v18.453
	c0,1.714,1.39,3.104,3.105,3.104h13.737l6.168,8.633l1.918-8.633h1.676c1.715,0,3.104-1.392,3.104-3.104V13
	C29.708,11.287,28.317,9.896,26.604,9.896z"/>
<path d="M16.482,0.148c0.312-0.367,0.785,0.061,0.785,0.061l7.737,4.956l-3.609,9.04c0,0-0.137,0.92-0.618,0.934
	c-0.479,0.015-0.604-0.907-0.604-0.907l-0.875-3.218c0,0-11.198-1.602-14.874,7.948c0,0,0.233-11.92,12.882-15.022l-0.804-2.866
	C16.502,1.075,16.232,0.443,16.482,0.148z"/>
<polygon points="20.625,20.971 16.056,20.971 16.056,16.399 13.549,16.399 13.549,20.971 8.979,20.971 8.979,23.476 13.549,23.476 
	13.549,28.046 16.056,28.046 16.056,23.476 20.625,23.476 "/>
</svg>
