<?xml version="1.0" encoding="utf-8"?>
<!DOCTYPE svg PUBLIC "-//W3C//DTD SVG 1.1//EN" "http://www.w3.org/Graphics/SVG/1.1/DTD/svg11.dtd" [
	<!ENTITY ns_flows "http://ns.adobe.com/Flows/1.0/">
]>
<svg version="1.1"
	 xmlns="http://www.w3.org/2000/svg" x="0px" y="0px" width="48px" height="48px" viewBox="-3.863 -2.419 48 48">
<defs>
</defs>
<path d="M36.063,0.024h-2.358v3.93h0.676c1.861,0,1.964,1.51,1.964,3.37v18.836c0,1.859-0.103,3.365-1.964,3.365H5.896
	c-1.86,0-1.965-1.506-1.965-3.365V7.323c0-1.86,0.104-3.37,1.965-3.37h0.976v-3.93H4.21C1.886,0.023,0,1.908,0,4.232v25.017
	c0,2.322,1.886,4.207,4.21,4.207h18.863l8.122,9.705l2.513-9.705h2.356c2.324,0,4.209-1.885,4.209-4.207V4.233
	C40.273,1.909,38.389,0.024,36.063,0.024z"/>
<path d="M16.909,6.61c0,1.339-1.084,2.423-2.422,2.423l-3.924-0.222l0.001,4.614c-1.337,0-2.421-2.084-2.421-3.423V2.424
	C8.144,1.086,9.228,0,10.564,0h3.923c1.338,0,2.422,1.086,2.422,2.424V6.61z"/>
<path d="M28.705,6.61c0,1.339-1.084,2.423-2.422,2.423l-3.924-0.222l0.004,4.614c-1.34,0-2.425-2.084-2.425-3.423V2.424
	C19.938,1.086,21.023,0,22.363,0h3.92c1.338,0,2.422,1.086,2.422,2.424V6.61z"/>
<path d="M26.549,21.531c0-1.296,1.05-2.346,2.347-2.346l3.8,0.216V14.9c1.295,0,2.346,2.05,2.346,3.346v7.34
	c0,1.295-1.051,2.348-2.346,2.348h-3.8c-1.297,0-2.347-1.053-2.347-2.348V21.531z"/>
<path d="M15.123,21.531c0-1.296,1.052-2.346,2.348-2.346l3.799,0.216L21.269,14.9c1.298,0,2.347,1.05,2.347,2.346v8.34
	c0,1.295-1.049,2.348-2.347,2.348h-3.798c-1.296,0-2.348-1.053-2.348-2.348V21.531z"/>
</svg>
