<?xml version="1.0" encoding="utf-8"?>
<!-- Generator: Adobe Illustrator 15.0.0, SVG Export Plug-In  -->
<!DOCTYPE svg PUBLIC "-//W3C//DTD SVG 1.1//EN" "http://www.w3.org/Graphics/SVG/1.1/DTD/svg11.dtd" [
	<!ENTITY ns_flows "http://ns.adobe.com/Flows/1.0/">
]>
<svg version="1.1"
	 xmlns="http://www.w3.org/2000/svg" xmlns:xlink="http://www.w3.org/1999/xlink" xmlns:a="http://ns.adobe.com/AdobeSVGViewerExtensions/3.0/"
	 x="0px" y="0px" width="48px" height="48px" viewBox="-2.799 -2.799 48 48"
	 xml:space="preserve">
<defs>
</defs>
<path d="M21.201,0C9.491,0,0,9.492,0,21.201s9.491,21.201,21.201,21.201c11.709,0,21.201-9.492,21.201-21.201S32.91,0,21.201,0z
	 M38.162,21.201c0,3.91-1.336,7.5-3.559,10.368L10.833,7.799c2.869-2.223,6.458-3.559,10.368-3.559
	C30.567,4.24,38.162,11.834,38.162,21.201z M4.239,21.201c0-3.909,1.336-7.499,3.559-10.367l23.77,23.77
	c-2.868,2.222-6.458,3.558-10.367,3.558C11.834,38.161,4.239,30.568,4.239,21.201z"/>
</svg>
