<?xml version="1.0" encoding="utf-8"?>
<!DOCTYPE svg PUBLIC "-//W3C//DTD SVG 1.1//EN" "http://www.w3.org/Graphics/SVG/1.1/DTD/svg11.dtd" [
	<!ENTITY ns_flows "http://ns.adobe.com/Flows/1.0/">
]>
<svg version="1.1"
	 xmlns="http://www.w3.org/2000/svg" x="0px" y="0px" width="48px" height="48px" viewBox="-1.867 -2.091 48 48">
<defs>
</defs>
<path d="M17.51,39.115c-0.754,1.737,0.045,3.757,1.781,4.51c1.736,0.753,3.756-0.044,4.51-1.78c0.012-0.023,0.018-0.047,0.027-0.071
	l-6.283-2.726C17.533,39.07,17.521,39.091,17.51,39.115z"/>
<path d="M19.432,21.404c0-6.105,4.95-11.054,11.055-11.054c0.604,0,1.19,0.062,1.768,0.154c-0.337-1.521-0.945-2.866-1.942-3.914
	c1.45-0.369,2.528-1.673,2.528-3.238C32.84,1.501,31.339,0,29.489,0c-1.853,0-3.354,1.501-3.354,3.353
	c0,0.423,0.087,0.824,0.23,1.197C17.511,3.185,10.306,20.486,7.16,22.707c-3.352,2.365-5.673,2.354-5.673,2.354
	s-1.809,1.873-1.437,3.695l14.763,6.404l15.097,6.55c1.584-0.972,1.715-3.571,1.715-3.571s-1.588-1.684-2.15-5.731
	C23.845,31.896,19.432,27.167,19.432,21.404z M29.489,1.207c1.184,0,2.145,0.96,2.145,2.146c0,1.184-0.961,2.145-2.145,2.145
	c-1.187,0-2.146-0.96-2.146-2.145S28.303,1.207,29.489,1.207z"/>
<path d="M30.403,12c-5.254,0-9.513,4.26-9.513,9.512c0,5.252,4.259,9.512,9.513,9.512c5.252,0,9.512-4.26,9.512-9.512
	C39.913,16.26,35.655,12,30.403,12z M38.011,21.513c0,1.716-0.575,3.292-1.532,4.568L25.833,15.437
	c1.272-0.96,2.852-1.535,4.567-1.535C34.606,13.902,38.011,17.31,38.011,21.513z M22.792,21.513c0-1.833,0.647-3.514,1.728-4.827
	l10.711,10.709c-1.314,1.078-2.996,1.727-4.828,1.727C26.198,29.122,22.792,25.716,22.792,21.513z"/>
</svg>
