<?xml version="1.0" encoding="utf-8"?>
<!-- Generator: Adobe Illustrator 16.0.0, SVG Export Plug-In . SVG Version: 6.00 Build 0)  -->
<!DOCTYPE svg PUBLIC "-//W3C//DTD SVG 1.1//EN" "http://www.w3.org/Graphics/SVG/1.1/DTD/svg11.dtd">
<svg version="1.1" xmlns="http://www.w3.org/2000/svg" xmlns:xlink="http://www.w3.org/1999/xlink" x="0px" y="0px"
	 width="48px" height="48px" viewBox="0 0 48 48">
<path d="M3.36,17.46v19.75h40V17.46H3.36z M19.935,31.581v1.649h-1.001v-0.002v-1.586c-0.92-0.017-1.856-0.303-2.411-0.699
	l0.381-1.063c0.555,0.363,1.38,0.684,2.268,0.684c1.127,0,1.889-0.65,1.889-1.557c0-0.871-0.619-1.41-1.793-1.887
	c-1.618-0.639-2.617-1.382-2.617-2.761c0-1.317,0.936-2.316,2.379-2.555v-1.584h1v1.54c0.936,0.031,1.586,0.285,2.063,0.554
	l-0.397,1.048c-0.333-0.19-0.983-0.556-1.999-0.556c-1.222,0-1.681,0.73-1.681,1.381c0,0.809,0.587,1.221,1.967,1.809
	c1.634,0.665,2.459,1.476,2.459,2.887C22.441,30.152,21.568,31.326,19.935,31.581z M27.869,31.581v1.649H26.87v-0.002v-1.586
	c-0.921-0.017-1.856-0.303-2.412-0.699l0.381-1.063c0.556,0.363,1.381,0.684,2.27,0.684c1.126,0,1.888-0.65,1.888-1.557
	c0-0.871-0.619-1.41-1.794-1.887c-1.617-0.639-2.617-1.382-2.617-2.761c0-1.317,0.938-2.316,2.381-2.555v-1.584h0.997v1.54
	c0.938,0.031,1.588,0.285,2.064,0.554l-0.396,1.048c-0.334-0.19-0.982-0.556-1.999-0.556c-1.222,0-1.683,0.73-1.683,1.381
	c0,0.809,0.589,1.221,1.969,1.809c1.633,0.665,2.459,1.476,2.459,2.887C30.378,30.152,29.505,31.326,27.869,31.581z"/>
<rect x="3.36" y="15.557" width="21" height="0.891"/>
<polygon points="24.36,15.569 37.404,10.79 39.19,11.691 24.344,16.429 "/>
<polygon points="40.22,12.667 41.7,13.518 32.579,16.028 29.36,16.061 "/>
<polygon points="36.753,16.188 42.686,14.644 44.64,15.269 40.681,16.083 "/>
</svg>
