<?xml version="1.0" encoding="utf-8"?>
<svg version="1.1"
	 xmlns="http://www.w3.org/2000/svg" x="0px" y="0px" width="48px" height="48px" viewBox="-3.517 -3.517 48 48">
<defs>
</defs>
<path d="M20.483,0C9.17,0,0,9.17,0,20.483s9.17,20.482,20.483,20.482s20.482-9.17,20.482-20.482S31.795,0,20.483,0z M11.36,34.315
	L4.865,13.11l1.145-0.764l6.878,21.777L11.36,34.315z M25.879,22.855c-2.676,0-6.688-2.867-10.508-2.294
	C12.512,20.989,10.214,24,10.214,24L6.393,12.154c0,0,3.438-3.247,7.259-3.438c3.822-0.191,8.03,3.86,10.699,3.438
	c3.63-0.572,6.878-4.584,6.878-4.584l-3.848,8.788l8.24,3.248C35.622,19.606,30.846,22.855,25.879,22.855z"/>
</svg>
