<?xml version="1.0" encoding="utf-8"?>
<!-- Generator: Adobe Illustrator 15.0.0, SVG Export Plug-In  -->
<!DOCTYPE svg PUBLIC "-//W3C//DTD SVG 1.1//EN" "http://www.w3.org/Graphics/SVG/1.1/DTD/svg11.dtd" [
	<!ENTITY ns_flows "http://ns.adobe.com/Flows/1.0/">
]>
<svg version="1.1"
	 xmlns="http://www.w3.org/2000/svg" x="0px" y="0px" width="48px" height="48px" viewBox="-4.768 -1.938 48 48">
<defs>
</defs>
<path d="M38.371,28.71l-2.373-8.173c0-1.309-1.062-2.371-2.369-2.371h-6.074l-8.335,8.335l-8.333-8.335H4.873
	c-1.31,0-2.371,1.062-2.371,2.371L0.128,28.71c-0.092,0.41-0.198,0.41-0.068,1.15c0.419-0.672,1.59-1.023,2.44-1.023h33.497
	c0.851,0,1.895,0.445,2.313,1.117C38.533,29.398,38.477,29.175,38.371,28.71z"/>
<polygon points="24.082,11.091 24.082,0 14.357,0 14.357,11.091 8.813,11.091 19.219,21.5 29.628,11.091 "/>
<path d="M35.998,31.208H2.501c-1.31,0-2.372,1.061-2.372,2.371v8.172c0,1.311,1.062,2.373,2.372,2.373h33.496
	c1.311,0,2.373-1.063,2.373-2.373V33.58C38.371,32.269,37.309,31.208,35.998,31.208z M31.917,40.167
	c-1.39,0-2.516-1.125-2.516-2.516c0-1.389,1.126-2.514,2.516-2.514c1.389,0,2.515,1.125,2.515,2.514
	C34.432,39.042,33.306,40.167,31.917,40.167z"/>
<circle cx="31.917" cy="37.653" r="1.608"/>
</svg>
