<?xml version="1.0" encoding="utf-8"?>
<!-- Generator: Adobe Illustrator 16.0.0, SVG Export Plug-In . SVG Version: 6.00 Build 0)  -->
<!DOCTYPE svg PUBLIC "-//W3C//DTD SVG 1.1//EN" "http://www.w3.org/Graphics/SVG/1.1/DTD/svg11.dtd">
<svg version="1.1" xmlns="http://www.w3.org/2000/svg" xmlns:xlink="http://www.w3.org/1999/xlink" x="0px" y="0px"
	 width="48px" height="48px" viewBox="0 0 48 48" xml:space="preserve">
<path d="M42.538,41.164c0.914,1.039,0.813,2.623-0.229,3.54l0,0c-1.04,0.912-2.622,0.812-3.538-0.229L26.234,30.219
	c-0.914-1.039-0.813-2.624,0.227-3.537l0,0c1.039-0.914,2.623-0.813,3.539,0.226L42.538,41.164z"/>
<path d="M19.612,1.798c-8.642,0-15.649,7.006-15.649,15.65c0,8.642,7.007,15.649,15.649,15.649c8.644,0,15.649-7.007,15.649-15.649
	C35.261,8.804,28.256,1.798,19.612,1.798z M19.612,28.664c-6.194,0-11.216-5.022-11.216-11.217S13.418,6.231,19.612,6.231
	c6.196,0,11.216,5.022,11.216,11.216S25.808,28.664,19.612,28.664z"/>
</svg>
