<?xml version="1.0" encoding="utf-8"?>
<!DOCTYPE svg PUBLIC "-//W3C//DTD SVG 1.1//EN" "http://www.w3.org/Graphics/SVG/1.1/DTD/svg11.dtd" [
	<!ENTITY ns_flows "http://ns.adobe.com/Flows/1.0/">
]>
<svg version="1.1"
	 xmlns="http://www.w3.org/2000/svg" x="0px" y="0px" width="48px" height="48px" viewBox="-8.966 -2.279 48 48">
<defs>
</defs>
<path d="M29.795,39.822l-4.376-8.571c-0.377-0.737-1.072-1.199-1.832-1.319l-2.437-4.816c-0.081-0.146-0.194-0.252-0.304-0.363
	c5.825-3.799,7.854-11.495,4.472-17.709c-3.557-6.54-11.739-8.959-18.278-5.4C0.501,5.197-1.917,13.382,1.642,19.92
	c3.219,5.919,10.23,8.441,16.376,6.232c0.031,0.192,0.079,0.386,0.179,0.564l2.589,5.119c-0.124,0.549-0.076,1.141,0.2,1.682
	l4.377,8.568c0.625,1.223,2.123,1.708,3.349,1.085C29.936,42.544,30.421,41.044,29.795,39.822z M13.363,22.864
	c-5.225,0-9.46-4.235-9.46-9.46s4.235-9.46,9.46-9.46c5.225,0,9.46,4.235,9.46,9.46S18.588,22.864,13.363,22.864z"/>
<ellipse transform="matrix(-0.8836 -0.4683 0.4683 -0.8836 10.441 22.7067)" cx="8.043" cy="10.055" rx="1.478" ry="2.464"/>
</svg>
