<?xml version="1.0" encoding="utf-8"?>
<!-- Generator: Adobe Illustrator 15.0.0, SVG Export Plug-In  -->
<!DOCTYPE svg PUBLIC "-//W3C//DTD SVG 1.1//EN" "http://www.w3.org/Graphics/SVG/1.1/DTD/svg11.dtd" [
	<!ENTITY ns_flows "http://ns.adobe.com/Flows/1.0/">
]>
<svg version="1.1"
	 xmlns="http://www.w3.org/2000/svg" xmlns:xlink="http://www.w3.org/1999/xlink" xmlns:a="http://ns.adobe.com/AdobeSVGViewerExtensions/3.0/"
	 x="0px" y="0px" width="48px" height="48px" viewBox="-3.95 -3.922 48 48"
	 xml:space="preserve">
<defs>
</defs>
<path d="M38.3,16.678h-2.8c-0.2-1-0.5-2-1-2.9l2.3-1.6c0.8-0.6,1-1.7,0.4-2.4l-1.7-2.4c-0.6-0.8-1.7-1-2.4-0.4l-2.399,1.7
	c-0.7-0.8-1.5-1.5-2.4-2l1-2.8c0.3-0.9-0.1-1.9-1-2.3l-2.8-1c-0.9-0.3-1.899,0.1-2.3,1l-1,2.8c-0.7-0.1-1.4-0.2-2.2-0.2
	c-0.3,0-0.5,0-0.8,0l-0.8-2.9c-0.3-0.9-1.2-1.5-2.2-1.2l-2.9,0.8c-0.8,0.4-1.4,1.3-1.1,2.3l0.8,2.9c-0.9,0.5-1.8,1-2.6,1.6l-2.3-1.9
	c-0.7-0.7-1.8-0.6-2.5,0.2l-1.9,2.3c-0.6,0.7-0.5,1.8,0.2,2.5l2.2,1.9c-0.7,1.3-1.2,2.7-1.6,4.2H1.8c-1,0-1.8,0.8-1.8,1.8v3
	c0,1,0.8,1.801,1.8,1.801h2.8c0.2,1,0.5,2.1,0.9,2.999l-2.2,1.601c-0.8,0.6-1,1.699-0.4,2.399l1.7,2.4c0.6,0.8,1.7,1,2.4,0.399
	l2.2-1.5c0.8,0.7,1.6,1.4,2.5,2l-0.9,2.5c-0.3,0.9,0.1,1.9,1,2.301l2.8,1c0.9,0.3,1.9-0.101,2.3-1l0.9-2.5
	c0.8,0.1,1.5,0.199,2.3,0.199c0.3,0,0.6,0,0.9,0l0.7,2.601c0.3,0.899,1.199,1.5,2.199,1.2l2.9-0.801c0.9-0.3,1.5-1.199,1.2-2.1
	l-0.8-3c1-0.5,1.899-1.1,2.7-1.7l2.1,1.7c0.7,0.6,1.8,0.5,2.5-0.2l1.9-2.3c0.6-0.7,0.5-1.9-0.2-2.5l-2.2-1.7
	c0.7-1.3,1.2-2.8,1.5-4.3h2.8c1,0,1.8-0.799,1.8-1.799v-3C40,17.478,39.2,16.678,38.3,16.678z M20,30.978c-6.1,0-11-4.899-11-11
	c0-6.1,4.9-11,11-11c6.1,0,11,4.9,11,11C31,26.078,26.1,30.978,20,30.978z"/>
<path d="M20,11.078c-4.9,0-8.8,4-8.8,8.8c0,4.899,4,8.799,8.8,8.799c4.9,0,8.8-3.9,8.8-8.799C28.8,14.978,24.8,11.078,20,11.078z
	 M20,23.578c-1.988,0-3.6-1.611-3.6-3.6c0-1.988,1.612-3.6,3.6-3.6s3.601,1.611,3.601,3.6C23.601,21.967,21.988,23.578,20,23.578z"
	/>
</svg>
