<?xml version="1.0" encoding="utf-8"?>
<svg version="1.1" xmlns="http://www.w3.org/2000/svg" x="0px" y="0px" width="48px" height="48px" viewBox="0 0 48 48">
<path d="M1.2,4.559l8.278,8.278H2.985v4.694h14.546l0.001-14.547h-4.694v6.495L4.559,1.201C3.678,2.535,2.535,3.678,1.2,4.559z"/>
<path d="M30.468,2.983v14.548h14.547v-4.694h-6.493L46.8,4.558c-1.336-0.88-2.479-2.024-3.358-3.358l-8.278,8.278V2.983H30.468z"/>
<path d="M1.2,43.441c1.335,0.881,2.479,2.022,3.358,3.358l8.279-8.279v6.495h4.695l-0.001-14.548H2.985v4.693h6.493L1.2,43.441z"/>
<path d="M35.163,45.016v-6.495l8.278,8.279c0.881-1.336,2.022-2.479,3.358-3.358l-8.278-8.279h6.493v-4.694H30.468v14.548H35.163z"/>
<circle cx="24" cy="24" r="5.985"/>
</svg>
