<?xml version="1.0" encoding="utf-8"?>
<svg version="1.1"
	 xmlns="http://www.w3.org/2000/svg" x="0px" y="0px" width="48px" height="48px" viewBox="-4.275 -6.241 48 48">
<defs>
</defs>
<rect width="17.73" height="14.683"/>
<path d="M15.183,28.531c-1.691-0.645-2.453-2.755-1.707-4.714c0.726-1.902,2.601-2.95,4.254-2.427v-2.442H0v14.683h17.73v-4.13
	L15.183,28.531z"/>
<path d="M37.983,29.258l-0.844-4.428c0.412-0.482,0.596-1.147,0.428-1.809l-1.156-4.572c-0.271-1.084-1.373-1.74-2.455-1.465
	c-0.686,0.173-1.197,0.678-1.412,1.3c-0.066,0-0.135,0.004-0.201,0.006c-0.377-0.916-1.371-1.441-2.357-1.193
	c-0.932,0.236-1.545,1.085-1.521,2.007l-0.131,0.033l-0.025-0.103c-0.275-1.083-1.373-1.737-2.457-1.464
	c-0.717,0.181-1.238,0.728-1.436,1.39l-1.745-6.901c-0.272-1.082-1.37-1.738-2.453-1.465c-1.083,0.274-1.738,1.372-1.465,2.454
	l2.96,11.718l-3.755-1.431c-0.899-0.343-1.949,0.227-2.347,1.27c-0.397,1.043,0.008,2.166,0.908,2.509l5.923,2.256l2.095,3.827
	c0.457,1.803,2.844,2.756,5.334,2.126l4.426-1.658C36.79,33.034,38.438,31.063,37.983,29.258z"/>
<path d="M21.72,0v7.541c0.901,0.004,2.439,0.736,2.813,2.034l1.538,5.078l13.378,0.031V0H21.72z"/>
</svg>
