<?xml version="1.0" encoding="utf-8"?>
<!-- Generator: Adobe Illustrator 15.0.0, SVG Export Plug-In  -->
<!DOCTYPE svg PUBLIC "-//W3C//DTD SVG 1.1//EN" "http://www.w3.org/Graphics/SVG/1.1/DTD/svg11.dtd" [
	<!ENTITY ns_flows "http://ns.adobe.com/Flows/1.0/">
]>
<svg version="1.1"
	 xmlns="http://www.w3.org/2000/svg" x="0px" y="0px" width="48px" height="48px" viewBox="-4.964 -4.688 48 48">
<defs>
</defs>
<path d="M37.951,15.653h0.032c-0.019-0.143-0.053-0.281-0.074-0.423c-0.008-0.055-0.021-0.11-0.028-0.166
	c-0.067-0.414-0.14-0.826-0.234-1.229c-0.094-0.416-0.212-0.828-0.337-1.24c-0.014-0.046-0.025-0.093-0.04-0.139
	c-0.364-1.167-0.842-2.315-1.466-3.424C31.367,1.159,21.822-2.012,13.662,1.301l0.085,0.15C8.963,3.386,5.221,7.345,3.57,12.27
	L0,11.802L5.411,19.7l7.277-6.234l-3.696-0.485c1.91-4.406,6.283-7.494,11.392-7.494c5.561,0,10.245,3.652,11.835,8.684
	c1.428,4.739-0.105,9.924-3.929,13.112l2.64,4.688C36.106,28.124,38.676,21.837,37.951,15.653z"/>
<circle cx="24.655" cy="34.292" r="4.333"/>
<circle cx="4.786" cy="25.479" r="4.333"/>
</svg>
