<?xml version="1.0" encoding="utf-8"?>
<!DOCTYPE svg PUBLIC "-//W3C//DTD SVG 1.1//EN" "http://www.w3.org/Graphics/SVG/1.1/DTD/svg11.dtd" [
	<!ENTITY ns_flows "http://ns.adobe.com/Flows/1.0/">
]>
<svg version="1.1"
	 xmlns="http://www.w3.org/2000/svg" x="0px" y="0px" width="48px" height="48px" viewBox="-6.749 -4.633 48 48">
<defs>
</defs>
<path d="M31.136,20.247v2.208c0,1.596-0.088,2.888-1.684,2.888h-9.859v1.638l-0.135,0.004v1.58l7.266,10.17l2.229-10.026h1.945
	c1.992,0,3.605-1.615,3.605-3.606v-4.854H31.136z"/>
<rect x="31.136" y="10.257" width="3.367" height="6.186"/>
<path d="M31.136,6.317v0.137h3.367V3.67c0-1.992-1.613-3.606-3.605-3.606h-2.021v3.367h0.578
	C31.048,3.431,31.136,4.724,31.136,6.317z"/>
<rect x="9.575" width="5.977" height="3.396"/>
<rect x="19.641" width="5.978" height="3.396"/>
<path d="M3.606,0.064C1.614,0.064,0,1.679,0,3.67v3.227h3.367v-0.58c0-1.594,0.089-2.886,1.684-2.886h0.835V0.064H3.606z"/>
<rect y="10.701" width="3.367" height="5.742"/>
<rect x="10.592" y="25.343" width="5.197" height="3.365"/>
<path d="M6.789,25.343H5.05c-1.594,0-1.684-1.292-1.684-2.888v-2.209H0V25.1c0,1.992,1.614,3.607,3.606,3.607h3.183V25.343z"/>
</svg>
