<?xml version="1.0" encoding="utf-8"?>
<svg version="1.1"
	 xmlns="http://www.w3.org/2000/svg" xmlns:xlink="http://www.w3.org/1999/xlink"
	 x="0px" y="0px" width="48px" height="48px" viewBox="-3.201 -4.767 48 48">
<defs>
</defs>
<path fill="#3588A6" d="M15.6,39.306c-0.041,0.009-8.357,0-10.935,0C2.088,39.306,0,37.217,0,34.639v-9.997
	c0-2.577,1.042-4.665,3.622-4.665h7.314c2.575,0,4.664,2.087,4.664,4.665V39.306z"/>
<path fill="#F79523" d="M9.332,0v34.639c0,2.076-1.364,4.061-3.239,4.667h21.551c0,0,4.2,0.547,5.954-1.831
	c1.699-2.308,1.568-5.225,1.568-5.225V0H9.332z"/>
<rect x="15.276" y="5.114" fill="#FFFFFF" width="14.644" height="1.095"/>
<rect x="15.276" y="10.804" fill="#FFFFFF" width="14.644" height="1.095"/>
<rect x="15.276" y="16.495" fill="#FFFFFF" width="14.644" height="1.095"/>
<rect x="15.276" y="22.184" fill="#FFFFFF" width="14.644" height="1.096"/>
<rect x="15.276" y="27.875" fill="#FFFFFF" width="14.644" height="1.095"/>
<rect x="15.276" y="33.565" fill="#FFFFFF" width="14.644" height="1.093"/>
<path fill="#52CAF5" d="M41.049,33.983c0,1.657-1.343,3-3,3h-8c-1.657,0-3-1.343-3-3v-8c0-1.657,1.343-3,3-3h8c1.657,0,3,1.343,3,3
	V33.983z"/>
<path fill="#3588A6" d="M38.049,22.983h-4.25v14h4.25c1.657,0,3-1.343,3-3v-8C41.049,24.326,39.707,22.983,38.049,22.983z"/>
<path fill="#FFFFFF" d="M37.549,28.983h-2.5v-2.5c0-0.69-0.56-1.25-1.25-1.25s-1.25,0.56-1.25,1.25v2.5h-2.5
	c-0.69,0-1.25,0.56-1.25,1.25s0.56,1.25,1.25,1.25h2.5v2.5c0,0.69,0.56,1.25,1.25,1.25s1.25-0.56,1.25-1.25v-2.5h2.5
	c0.69,0,1.25-0.56,1.25-1.25S38.24,28.983,37.549,28.983z"/>
</svg>
