<?xml version="1.0" encoding="utf-8"?>
<svg version="1.1"
	 xmlns="http://www.w3.org/2000/svg" xmlns:xlink="http://www.w3.org/1999/xlink"
	 x="0px" y="0px" width="48px" height="48px" viewBox="-1.576 -3.56 48 48">
<defs>
</defs>
<path fill="#3588A6" d="M16.202,40.824c-0.042,0.008-8.68,0-11.357,0C2.169,40.824,0,38.653,0,35.975V25.593
	c0-2.678,1.083-4.845,3.762-4.845h7.597c2.674,0,4.844,2.167,4.844,4.845V40.824z"/>
<path fill="#F79523" d="M9.692,0v35.975c0,2.156-1.417,4.218-3.364,4.849h22.384c0,0,4.362,0.567,6.184-1.903
	c1.765-2.396,1.629-5.426,1.629-5.426V0H9.692z"/>
<rect x="15.866" y="5.311" fill="#FFFFFF" width="15.21" height="1.137"/>
<rect x="15.866" y="11.221" fill="#FFFFFF" width="15.21" height="1.137"/>
<rect x="15.866" y="17.132" fill="#FFFFFF" width="15.21" height="1.137"/>
<rect x="15.866" y="23.04" fill="#FFFFFF" width="15.21" height="1.138"/>
<rect x="15.866" y="28.951" fill="#FFFFFF" width="15.21" height="1.138"/>
<rect x="15.866" y="34.862" fill="#FFFFFF" width="15.21" height="1.134"/>
<polygon fill="#52CAF5" points="42.032,10.306 20.646,35.792 14.118,30.319 35.506,4.826 "/>
<rect x="37.937" y="1.651" transform="matrix(0.6427 -0.7661 0.7661 0.6427 9.8206 32.8788)" fill="#6D6E71" width="4.442" height="8.52"/>
<polygon fill="#FCB51E" points="20.683,35.747 15.627,37.756 12.919,35.487 14.159,30.27 "/>
<polygon points="15.422,37.657 12.278,38.934 13.054,35.668 "/>
<rect x="36.245" y="2.443" transform="matrix(-0.643 0.7659 -0.7659 -0.643 66.6379 -22.0769)" fill="#A7A9AC" width="4.439" height="4.1"/>
<polygon fill="#58595B" points="14.191,36.625 13.054,35.668 12.288,38.893 "/>
<polygon fill="#FFD65A" points="14.22,36.577 17.299,32.908 14.159,30.27 12.919,35.487 "/>
<rect x="9.745" y="16.839" transform="matrix(-0.6428 0.766 -0.766 -0.6428 57.8108 10.8217)" fill="#84D5F7" width="33.274" height="4.102"/>
<g>
	<path fill="#FFFFFF" d="M38.321,1.475l6.526,5.474L20.683,35.805l-8.425,3.102l1.837-8.618L38.321,1.475 M38.198,0.067
		l-0.643,0.765L13.329,29.645l-0.16,0.191l-0.052,0.244l-1.837,8.618l-0.378,1.772l1.702-0.626l8.425-3.102l0.25-0.092l0.171-0.205
		L45.614,7.591l0.642-0.766L45.49,6.183l-6.526-5.474L38.198,0.067L38.198,0.067z"/>
</g>
</svg>
