<?xml version="1.0" encoding="utf-8"?>
<!-- Generator: Adobe Illustrator 15.0.0, SVG Export Plug-In  -->
<!DOCTYPE svg PUBLIC "-//W3C//DTD SVG 1.1//EN" "http://www.w3.org/Graphics/SVG/1.1/DTD/svg11.dtd" [
	<!ENTITY ns_flows "http://ns.adobe.com/Flows/1.0/">
]>
<svg version="1.1"
	 xmlns="http://www.w3.org/2000/svg" xmlns:xlink="http://www.w3.org/1999/xlink" xmlns:a="http://ns.adobe.com/AdobeSVGViewerExtensions/3.0/"
	 x="0px" y="0px" width="36px" height="36px" viewBox="0 0 36 36" enable-background="new 0 0 36 36" xml:space="preserve">
<defs>
</defs>
<rect fill="#FFFFFF" fill-opacity="0" width="36" height="36"/>
<path fill="#FFFFFF" d="M18.063,2.709c8.43,0,15.263,6.832,15.263,15.263c0,8.43-6.833,15.262-15.263,15.262
	S2.801,26.4,2.801,17.972C2.801,9.541,9.634,2.709,18.063,2.709 M18.063,1.709C9.096,1.709,1.8,9.004,1.8,17.972
	c0,8.967,7.295,16.262,16.263,16.262c8.966,0,16.263-7.295,16.263-16.262C34.326,9.004,27.029,1.709,18.063,1.709L18.063,1.709z"/>
<path d="M33.326,17.971c0-8.429-6.834-15.262-15.263-15.262C9.633,2.709,2.8,9.542,2.8,17.971s6.833,15.263,15.263,15.263
	C26.492,33.234,33.326,26.4,33.326,17.971z M27.697,12.879l-9.756,11.754L8.186,12.879H27.697z"/>
</svg>
