<?xml version="1.0" encoding="utf-8"?>
<!DOCTYPE svg PUBLIC "-//W3C//DTD SVG 1.1//EN" "http://www.w3.org/Graphics/SVG/1.1/DTD/svg11.dtd" [
	<!ENTITY ns_flows "http://ns.adobe.com/Flows/1.0/">
]>
<svg version="1.1"
	 xmlns="http://www.w3.org/2000/svg" x="0px" y="0px" width="48px" height="48px" viewBox="-6.419 -1.764 48 48">
<defs>
</defs>
<path d="M22.547,32.764c-2.853,5.389-5.356,9.17-5.356,9.17s-1.949-2.942-4.366-7.335L0,44.473h25.066l10.096-11.709H22.547z"/>
<path d="M17.191,0c-25.142,0,0,37.949,0,37.949S42.334,0,17.191,0z M17.191,17.078c-3.667,0-6.641-2.867-6.641-6.404
	c0-3.537,2.974-6.404,6.641-6.404c3.667,0,6.641,2.867,6.641,6.404C23.832,14.211,20.858,17.078,17.191,17.078z"/>
</svg>
