<?xml version="1.0" encoding="utf-8"?>
<!DOCTYPE svg PUBLIC "-//W3C//DTD SVG 1.1//EN" "http://www.w3.org/Graphics/SVG/1.1/DTD/svg11.dtd" [
	<!ENTITY ns_flows "http://ns.adobe.com/Flows/1.0/">
]>
<svg version="1.1"
	 xmlns="http://www.w3.org/2000/svg" x="0px" y="0px" width="32px" height="32px" viewBox="-3.874 -2.149 32 32">
<defs>
</defs>
<path d="M23.945,26.225c0.189-0.369,0.309-0.781,0.309-1.228V12.122c0-0.435-0.109-0.838-0.295-1.201l-7.699,7.778L23.945,26.225z"
	/>
<path d="M0.181,11.111c-0.121,0.323-0.184,0.664-0.18,1.004C0.001,12.118,0,12.12,0,12.122v12.875c0,0.364,0.075,0.714,0.207,1.03
	l7.483-7.329L0.181,11.111z"/>
<path d="M6.615,11.04h11.391v3.025l4.641-4.639l-8.619-8.619c-1.074-1.075-2.817-1.075-3.891,0L1.7,9.242l4.915,4.915V11.04z"/>
<path d="M8.85,24.655c-0.119-0.179-0.092-0.402,0.057-0.5l0.355-0.237c-0.187-0.101-0.393-0.121-0.552-0.016l-2.109,1.41
	c-0.255,0.17-0.284,0.566-0.071,0.888c0.215,0.319,0.594,0.442,0.846,0.272l2.11-1.408c0.158-0.105,0.219-0.3,0.2-0.508
	l-0.353,0.235C9.182,24.893,8.966,24.83,8.85,24.655z"/>
<path d="M12.812,20.07c-0.368-0.116-0.74,0.025-0.831,0.316L11.3,22.556l0.36-0.241c0.15-0.102,0.365-0.041,0.483,0.138
	c0.118,0.176,0.093,0.399-0.057,0.499l-0.647,0.433c0.08,0.065,0.171,0.123,0.281,0.157c0.368,0.116,0.739-0.025,0.832-0.316
	l0.76-2.42C13.403,20.514,13.18,20.186,12.812,20.07z"/>
<path d="M13.947,18.918c-1.056-1.057-2.768-1.057-3.824,0l-8.534,8.533c0.343,0.156,0.722,0.25,1.125,0.25h18.825
	c0.354,0,0.689-0.072,0.998-0.193L13.947,18.918z M14.037,20.946l-0.811,2.579c-0.188,0.596-0.952,0.887-1.704,0.648
	c-0.267-0.084-0.495-0.225-0.673-0.396l-0.579,0.387c0.219,0.572,0.121,1.176-0.308,1.462l-2.247,1.502
	c-0.519,0.348-1.297,0.096-1.735-0.563c-0.44-0.655-0.375-1.469,0.144-1.816l2.247-1.502c0.432-0.288,1.029-0.146,1.475,0.279
	l0.624-0.417c-0.026-0.147-0.021-0.299,0.025-0.444l0.81-2.578c0.189-0.596,0.951-0.887,1.704-0.648
	C13.764,19.675,14.224,20.35,14.037,20.946z"/>
</svg>
