<?xml version="1.0" encoding="utf-8"?>
<!-- Generator: Adobe Illustrator 15.0.0, SVG Export Plug-In  -->
<!DOCTYPE svg PUBLIC "-//W3C//DTD SVG 1.1//EN" "http://www.w3.org/Graphics/SVG/1.1/DTD/svg11.dtd" [
	<!ENTITY ns_flows "http://ns.adobe.com/Flows/1.0/">
]>
<svg version="1.1"
	 xmlns="http://www.w3.org/2000/svg" x="0px" y="0px" width="48px" height="48px" viewBox="-2.853 -4.968 48 48"
	 xml:space="preserve">
<defs>
</defs>
<path d="M21.316,22.765c-1.864,0-3.375,1.512-3.375,3.374c0,1.86,1.511,3.373,3.375,3.373c1.865,0,3.372-1.513,3.372-3.373
	C24.688,24.276,23.181,22.765,21.316,22.765z"/>
<path d="M30.27,17.224v-3.757c0-1.183-0.955-2.141-2.139-2.141h-13.97c-1.181,0-2.141,0.958-2.141,2.141v3.758
	C5.361,20.408,0.612,26.949,0,34.667h5.524v1.258c0,1.179,0.957,2.14,2.139,2.14h0.391c1.178,0,2.136-0.961,2.136-2.14v-1.258
	h23.772v1.258c0,1.179,0.952,2.14,2.138,2.14h0.389c1.183,0,2.139-0.961,2.139-2.14v-1.258h3.668
	C41.684,26.949,36.934,20.406,30.27,17.224z M21.146,32.549c-3.633,0-6.577-2.947-6.577-6.58c0-3.636,2.944-6.579,6.577-6.579
	c3.635,0,6.579,2.943,6.579,6.579C27.725,29.602,24.781,32.549,21.146,32.549z"/>
<path d="M41.303,10.272C37.09,4.1,29.641,0,21.146,0C12.653,0,5.203,4.1,0.989,10.272h0.682c0.023,0.198,0.065,0.399,0.154,0.603
	l1.107,2.531c0.52,1.195,1.906,1.735,3.098,1.214l6.382-2.79c1.188-0.519,1.734-1.907,1.212-3.098l-0.676-1.547
	c2.471-1.001,5.248-1.581,8.198-1.581c2.873,0,5.579,0.549,7.999,1.5l-0.711,1.628c-0.521,1.191,0.025,2.579,1.215,3.098l6.385,2.79
	c1.189,0.521,2.574-0.02,3.096-1.214l1.105-2.531c0.086-0.197,0.134-0.399,0.164-0.603H41.303z"/>
</svg>
