<?xml version="1.0" encoding="utf-8"?>
<!-- Generator: Adobe Illustrator 15.0.0, SVG Export Plug-In  -->
<!DOCTYPE svg PUBLIC "-//W3C//DTD SVG 1.1//EN" "http://www.w3.org/Graphics/SVG/1.1/DTD/svg11.dtd" [
	<!ENTITY ns_flows "http://ns.adobe.com/Flows/1.0/">
]>
<svg version="1.1"
	 xmlns="http://www.w3.org/2000/svg" x="0px" y="0px" width="24px" height="24px" viewBox="-0.964 -3.812 24 24"
	 xml:space="preserve">
<defs>
</defs>
<path d="M13.138,0.205c-0.848,0-1.539,0.645-1.539,1.432c0,0.788,0.054,4.164-2.309,3.74H1.554c-0.847,0-1.538,0.69-1.538,1.538
	v7.923c0,0.847,0.691,1.539,1.538,1.539h18.979c0.847,0,1.539-0.692,1.539-1.539V7.412c0-0.847,0-2.169,0-2.94
	c0-0.771,0-2.046,0-2.834c0-0.787-0.692-1.432-1.539-1.432L13.138,0.205L13.138,0.205z"/>
<path d="M7.047,3.599C9.934,4.116,9.934,1.059,9.933,0H1.539C0.692,0,0,0.691,0,1.539v2.095L7.047,3.599z"/>
</svg>
