<?xml version="1.0" encoding="utf-8"?>
<svg version="1.1"
	 xmlns="http://www.w3.org/2000/svg" xmlns:xlink="http://www.w3.org/1999/xlink"
	 x="0px" y="0px" width="48px" height="48px" viewBox="-3.875 -4.058 48 48">
<defs>
</defs>
<path fill="#F79523" d="M15.089,39.843V23.795C14.909,22.104,7.282,13.096,0.317,5.73l1.687-1.595
	c4.633,4.899,15.407,16.624,15.407,19.659v12.97l5.803-1.657V23.795c0-3.036,10.774-14.76,15.406-19.659l1.688,1.595
	c-6.965,7.366-14.592,16.374-14.772,18.082l0.001,13.045L15.089,39.843z"/>
<path fill="#3588A6" d="M6.901,6.99c0,0,11.91,14.086,11.91,16.195c0,2.11,0.3,13.09,0.3,13.09l2.643-0.687
	c0,0,0.216-10.444,0.302-12.595c0.111-2.769,12.68-16.003,12.68-16.003"/>
<path fill="#F79523" d="M20.313,9.866C18.234,9.866,0,9.728,0,4.933S18.234,0,20.313,0c2.078,0,20.313,0.138,20.313,4.933
	S22.391,9.866,20.313,9.866z M2.419,4.933c1.065,0.965,7.06,2.611,17.894,2.611c10.834,0,16.827-1.646,17.894-2.611
	c-1.066-0.965-7.06-2.612-17.894-2.612C9.479,2.321,3.484,3.968,2.419,4.933z"/>
<path fill="#3588A6" d="M6.857,6.362c0.814,0.396,6.689,1.134,13.916,1.123c7.049-0.01,13.069-0.89,13.786-1.21
	c-0.946-0.933-6.737-2.092-13.786-2.092C13.725,4.183,7.803,5.429,6.857,6.362z"/>
</svg>
