<?xml version="1.0" encoding="utf-8"?>
<!-- Generator: Adobe Illustrator 15.0.0, SVG Export Plug-In  -->
<!DOCTYPE svg PUBLIC "-//W3C//DTD SVG 1.1//EN" "http://www.w3.org/Graphics/SVG/1.1/DTD/svg11.dtd" [
	<!ENTITY ns_flows "http://ns.adobe.com/Flows/1.0/">
]>
<svg version="1.1"
	 xmlns="http://www.w3.org/2000/svg" xmlns:xlink="http://www.w3.org/1999/xlink" xmlns:a="http://ns.adobe.com/AdobeSVGViewerExtensions/3.0/"
	 x="0px" y="0px" width="75px" height="33px" viewBox="-0.583 -1.787 75 33" enable-background="new -0.583 -1.787 75 33"
	 xml:space="preserve">
<defs>
</defs>
<rect display="none" fill="#C8691C" width="73.833" height="29.426"/>
<rect display="none" fill="#F79523" width="73.833" height="14.89"/>
<path display="none" fill="#FFFFFF" d="M5.649,9.705L4.53,9.503c0.125-0.451,0.342-0.783,0.649-1
	c0.307-0.217,0.764-0.324,1.369-0.324c0.55,0,0.959,0.064,1.228,0.194c0.27,0.131,0.458,0.296,0.568,0.496
	c0.109,0.2,0.164,0.567,0.164,1.104l-0.013,1.439c0,0.409,0.02,0.711,0.06,0.905c0.039,0.195,0.114,0.401,0.222,0.624H7.558
	c-0.033-0.081-0.072-0.203-0.119-0.364c-0.021-0.072-0.036-0.121-0.044-0.145c-0.21,0.206-0.437,0.358-0.675,0.46
	c-0.24,0.104-0.496,0.154-0.768,0.154c-0.48,0-0.858-0.129-1.134-0.39c-0.277-0.261-0.416-0.589-0.416-0.987
	c0-0.264,0.063-0.498,0.189-0.703c0.125-0.208,0.302-0.365,0.528-0.475c0.228-0.11,0.554-0.204,0.981-0.287
	c0.576-0.109,0.976-0.209,1.198-0.302V9.78c0-0.238-0.059-0.407-0.176-0.507C7.006,9.171,6.786,9.12,6.46,9.12
	c-0.219,0-0.391,0.044-0.513,0.131C5.825,9.336,5.726,9.489,5.649,9.705z M7.299,10.705c-0.158,0.053-0.409,0.115-0.75,0.188
	c-0.342,0.074-0.566,0.146-0.671,0.216c-0.16,0.114-0.241,0.258-0.241,0.434c0,0.174,0.064,0.322,0.193,0.449
	c0.128,0.125,0.292,0.188,0.491,0.188c0.222,0,0.435-0.073,0.636-0.22c0.149-0.11,0.248-0.247,0.294-0.406
	c0.032-0.105,0.048-0.308,0.048-0.603V10.705z"/>
<path display="none" fill="#FFFFFF" d="M13.997,12.941h-1.145v-0.684c-0.19,0.267-0.415,0.465-0.673,0.595
	c-0.259,0.13-0.52,0.194-0.783,0.194c-0.535,0-0.994-0.216-1.375-0.646c-0.382-0.433-0.573-1.034-0.573-1.807
	c0-0.789,0.186-1.389,0.557-1.8c0.371-0.41,0.84-0.615,1.408-0.615c0.52,0,0.971,0.216,1.351,0.648V6.512h1.232V12.941z
	 M10.707,10.513c0,0.496,0.068,0.855,0.206,1.078c0.199,0.321,0.477,0.482,0.833,0.482c0.283,0,0.524-0.121,0.723-0.361
	c0.199-0.242,0.299-0.602,0.299-1.082c0-0.534-0.097-0.92-0.29-1.154c-0.193-0.235-0.44-0.355-0.741-0.355
	c-0.292,0-0.538,0.118-0.734,0.35C10.805,9.703,10.707,10.051,10.707,10.513z"/>
<path display="none" fill="#FFFFFF" d="M19.484,12.941h-1.145v-0.684c-0.19,0.267-0.414,0.465-0.674,0.595
	c-0.258,0.13-0.52,0.194-0.783,0.194c-0.535,0-0.993-0.216-1.375-0.646c-0.381-0.433-0.572-1.034-0.572-1.807
	c0-0.789,0.186-1.389,0.557-1.8c0.371-0.41,0.841-0.615,1.408-0.615c0.521,0,0.971,0.216,1.352,0.648V6.512h1.232V12.941z
	 M16.194,10.513c0,0.496,0.069,0.855,0.207,1.078c0.199,0.321,0.476,0.482,0.833,0.482c0.283,0,0.524-0.121,0.723-0.361
	c0.199-0.242,0.299-0.602,0.299-1.082c0-0.534-0.097-0.92-0.29-1.154c-0.193-0.235-0.44-0.355-0.741-0.355
	c-0.292,0-0.538,0.118-0.735,0.35C16.293,9.703,16.194,10.051,16.194,10.513z"/>
<path display="none" fill="#FFFFFF" d="M4.728,20.129v-6.431H5.96v6.431H4.728z"/>
<path display="none" fill="#FFFFFF" d="M7.224,14.839v-1.141h1.233v1.141H7.224z M7.224,20.129v-4.658h1.233v4.658H7.224z"/>
<path display="none" fill="#FFFFFF" d="M13.958,20.129h-1.233v-2.377c0-0.504-0.026-0.828-0.079-0.976s-0.138-0.264-0.256-0.346
	c-0.119-0.081-0.261-0.123-0.428-0.123c-0.213,0-0.405,0.061-0.575,0.176c-0.168,0.117-0.285,0.273-0.348,0.467
	c-0.063,0.192-0.095,0.549-0.095,1.07v2.108H9.711v-4.658h1.145v0.685c0.406-0.527,0.918-0.79,1.535-0.79
	c0.272,0,0.52,0.049,0.746,0.147c0.225,0.099,0.395,0.224,0.51,0.374c0.116,0.152,0.197,0.326,0.243,0.52
	c0.045,0.193,0.068,0.469,0.068,0.828V20.129z"/>
<path display="none" fill="#FFFFFF" d="M15.163,20.129v-6.431h1.233v3.413l1.443-1.641h1.518l-1.592,1.702l1.707,2.956h-1.329
	l-1.171-2.091l-0.575,0.6v1.491H15.163z"/>
<path display="none" fill="#52CAF5" d="M50.061,4.393v18.806h18.803V4.393H50.061z M66.985,21.315H51.94V6.273h15.045V21.315z"/>
<path display="none" fill="#52CAF5" d="M62.391,13.772l0.326,2.149l3.24-4.531l-4.404-3.126l0.299,1.954
	c-2.732,0.12-5.408,1.299-7.34,3.525c-2.031,2.346-2.809,5.347-2.406,8.194c0.35-1.658,1.105-3.253,2.293-4.624
	C56.483,14.909,59.438,13.716,62.391,13.772z"/>
<rect x="0.112" y="0.045" display="none" fill="#C8691C" width="73.609" height="29.336"/>
<rect x="0.112" y="0.045" display="none" fill="#F79523" width="73.609" height="14.845"/>
<path display="none" fill="#FFFFFF" d="M5.754,9.693L4.631,9.49c0.126-0.452,0.344-0.787,0.652-1.005
	C5.592,8.268,6.05,8.159,6.658,8.159c0.553,0,0.964,0.065,1.234,0.195c0.271,0.132,0.461,0.297,0.57,0.499
	c0.111,0.201,0.166,0.57,0.166,1.108l-0.013,1.446c0,0.41,0.02,0.713,0.059,0.909c0.04,0.195,0.114,0.403,0.223,0.628H7.672
	c-0.033-0.083-0.073-0.205-0.12-0.367c-0.02-0.072-0.035-0.122-0.043-0.145c-0.212,0.207-0.438,0.359-0.678,0.462
	C6.59,13,6.332,13.051,6.059,13.051c-0.482,0-0.862-0.131-1.14-0.392c-0.277-0.263-0.417-0.592-0.417-0.993
	c0-0.264,0.064-0.499,0.19-0.706c0.125-0.208,0.303-0.366,0.531-0.476c0.227-0.111,0.555-0.207,0.984-0.29
	c0.579-0.109,0.979-0.209,1.203-0.304V9.768c0-0.238-0.059-0.408-0.177-0.509C7.119,9.156,6.896,9.106,6.57,9.106
	c-0.221,0-0.393,0.043-0.516,0.13C5.931,9.323,5.832,9.476,5.754,9.693z M7.412,10.697c-0.159,0.053-0.41,0.117-0.754,0.188
	c-0.343,0.074-0.568,0.146-0.674,0.218c-0.161,0.114-0.242,0.258-0.242,0.436c0,0.174,0.064,0.323,0.193,0.45
	c0.13,0.125,0.293,0.188,0.494,0.188c0.223,0,0.436-0.074,0.639-0.22c0.15-0.111,0.249-0.249,0.295-0.409
	c0.032-0.105,0.049-0.309,0.049-0.604V10.697z"/>
<path display="none" fill="#FFFFFF" d="M14.141,12.945h-1.15v-0.688c-0.191,0.268-0.416,0.467-0.677,0.597
	c-0.259,0.131-0.521,0.196-0.786,0.196c-0.538,0-0.998-0.217-1.382-0.651c-0.383-0.433-0.575-1.038-0.575-1.813
	c0-0.792,0.187-1.396,0.56-1.809c0.373-0.412,0.844-0.618,1.415-0.618c0.523,0,0.976,0.218,1.357,0.652V6.484h1.238V12.945z
	 M10.836,10.503c0,0.499,0.069,0.86,0.207,1.085c0.2,0.322,0.479,0.484,0.837,0.484c0.285,0,0.527-0.121,0.727-0.363
	c0.201-0.243,0.3-0.604,0.3-1.088c0-0.536-0.097-0.923-0.291-1.16c-0.193-0.236-0.442-0.354-0.745-0.354
	c-0.293,0-0.539,0.117-0.739,0.35C10.936,9.691,10.836,10.04,10.836,10.503z"/>
<path display="none" fill="#FFFFFF" d="M19.654,12.945h-1.15v-0.688c-0.191,0.268-0.417,0.467-0.676,0.597
	c-0.261,0.131-0.522,0.196-0.787,0.196c-0.538,0-0.999-0.217-1.381-0.651c-0.384-0.433-0.575-1.038-0.575-1.813
	c0-0.792,0.187-1.396,0.56-1.809c0.373-0.412,0.845-0.618,1.415-0.618c0.523,0,0.976,0.218,1.357,0.652V6.484h1.238V12.945z
	 M16.349,10.503c0,0.499,0.068,0.86,0.207,1.085c0.201,0.322,0.479,0.484,0.837,0.484c0.285,0,0.527-0.121,0.728-0.363
	c0.199-0.243,0.299-0.604,0.299-1.088c0-0.536-0.097-0.923-0.291-1.16c-0.194-0.236-0.442-0.354-0.744-0.354
	c-0.294,0-0.541,0.117-0.738,0.35C16.448,9.691,16.349,10.04,16.349,10.503z"/>
<path display="none" fill="#FFFFFF" d="M4.829,14.851v-1.146h1.239v1.146H4.829z M4.829,20.165v-4.681h1.239v4.681H4.829z"/>
<path display="none" fill="#FFFFFF" d="M7.244,15.484h1.141v0.641c0.409-0.497,0.895-0.746,1.459-0.746c0.3,0,0.56,0.062,0.78,0.186
	c0.22,0.123,0.401,0.31,0.542,0.561c0.205-0.251,0.427-0.438,0.665-0.561c0.239-0.124,0.492-0.186,0.763-0.186
	c0.344,0,0.634,0.07,0.873,0.21c0.237,0.14,0.416,0.344,0.533,0.613c0.085,0.201,0.127,0.523,0.127,0.97v2.993H12.89v-2.676
	c0-0.464-0.042-0.764-0.128-0.899c-0.114-0.176-0.291-0.264-0.529-0.264c-0.173,0-0.336,0.052-0.489,0.157
	c-0.152,0.106-0.263,0.262-0.331,0.466c-0.068,0.205-0.102,0.528-0.102,0.969v2.247h-1.238v-2.564c0-0.455-0.022-0.749-0.066-0.882
	c-0.043-0.133-0.112-0.231-0.205-0.294c-0.092-0.065-0.218-0.099-0.376-0.099c-0.191,0-0.363,0.052-0.516,0.154
	c-0.153,0.103-0.263,0.251-0.328,0.444c-0.066,0.193-0.099,0.517-0.099,0.966v2.274H7.244V15.484z"/>
<path display="none" fill="#FFFFFF" d="M16.287,16.912l-1.124-0.202c0.126-0.452,0.344-0.788,0.652-1.004
	c0.309-0.218,0.767-0.327,1.375-0.327c0.553,0,0.964,0.065,1.234,0.196c0.271,0.131,0.461,0.298,0.57,0.498
	c0.111,0.201,0.167,0.569,0.167,1.109l-0.013,1.445c0,0.41,0.02,0.714,0.058,0.909c0.041,0.196,0.115,0.405,0.224,0.628h-1.226
	c-0.032-0.083-0.072-0.205-0.119-0.366c-0.02-0.072-0.035-0.122-0.044-0.145c-0.211,0.205-0.438,0.359-0.679,0.462
	c-0.24,0.103-0.498,0.154-0.771,0.154c-0.482,0-0.862-0.13-1.14-0.392c-0.277-0.262-0.417-0.592-0.417-0.991
	c0-0.266,0.064-0.502,0.189-0.708c0.126-0.208,0.304-0.366,0.532-0.476c0.227-0.11,0.555-0.206,0.984-0.289
	c0.579-0.108,0.98-0.209,1.203-0.304v-0.122c0-0.24-0.059-0.409-0.176-0.511c-0.117-0.103-0.339-0.152-0.666-0.152
	c-0.22,0-0.392,0.044-0.516,0.131C16.463,16.543,16.364,16.695,16.287,16.912z M17.944,17.918c-0.159,0.052-0.41,0.116-0.754,0.188
	c-0.344,0.074-0.568,0.147-0.674,0.218c-0.161,0.114-0.243,0.259-0.243,0.436c0,0.174,0.064,0.324,0.194,0.451
	c0.13,0.124,0.293,0.188,0.494,0.188c0.223,0,0.436-0.075,0.639-0.221c0.15-0.11,0.248-0.248,0.295-0.408
	c0.032-0.105,0.048-0.309,0.048-0.605V17.918z"/>
<path display="none" fill="#FFFFFF" d="M20.267,20.474l1.415,0.171c0.023,0.165,0.078,0.278,0.163,0.34
	c0.118,0.088,0.302,0.133,0.556,0.133c0.323,0,0.565-0.05,0.728-0.146c0.108-0.065,0.191-0.17,0.247-0.313
	c0.037-0.102,0.058-0.292,0.058-0.567v-0.684c-0.371,0.506-0.837,0.758-1.402,0.758c-0.628,0-1.126-0.266-1.494-0.797
	c-0.288-0.421-0.432-0.945-0.432-1.568c0-0.787,0.188-1.386,0.565-1.798c0.378-0.417,0.847-0.623,1.409-0.623
	c0.579,0,1.055,0.254,1.432,0.764v-0.658h1.159v4.201c0,0.553-0.045,0.964-0.136,1.237c-0.091,0.273-0.219,0.488-0.384,0.644
	c-0.165,0.156-0.384,0.276-0.658,0.365c-0.274,0.088-0.622,0.134-1.042,0.134c-0.792,0-1.355-0.138-1.688-0.409
	c-0.332-0.271-0.498-0.615-0.498-1.033C20.263,20.583,20.265,20.531,20.267,20.474z M21.373,17.729c0,0.495,0.096,0.857,0.289,1.089
	c0.192,0.23,0.429,0.345,0.711,0.345c0.302,0,0.558-0.117,0.767-0.354s0.313-0.587,0.313-1.051c0-0.484-0.1-0.845-0.3-1.08
	c-0.2-0.234-0.452-0.353-0.758-0.353c-0.297,0-0.541,0.116-0.733,0.347C21.469,16.903,21.373,17.254,21.373,17.729z"/>
<path display="none" fill="#FFFFFF" d="M28.605,18.676l1.233,0.206c-0.159,0.452-0.409,0.799-0.751,1.035
	c-0.342,0.236-0.771,0.354-1.284,0.354c-0.813,0-1.417-0.266-1.807-0.797c-0.309-0.427-0.463-0.964-0.463-1.615
	c0-0.774,0.203-1.381,0.608-1.819c0.405-0.439,0.918-0.66,1.538-0.66c0.696,0,1.246,0.229,1.649,0.688
	c0.402,0.461,0.595,1.166,0.577,2.114h-3.103c0.009,0.367,0.108,0.652,0.3,0.856c0.191,0.205,0.429,0.307,0.714,0.307
	c0.193,0,0.356-0.052,0.489-0.158C28.438,19.081,28.537,18.909,28.605,18.676z M28.675,17.424c-0.009-0.357-0.102-0.631-0.277-0.818
	c-0.177-0.187-0.391-0.279-0.644-0.279c-0.271,0-0.494,0.099-0.67,0.296s-0.263,0.464-0.26,0.802H28.675z"/>
<path display="none" fill="#52CAF5" d="M50.022,4.425v18.748h18.746V4.425H50.022z M66.895,21.297H51.897V6.3h14.998V21.297z"/>
<rect x="53.504" y="8.38" display="none" fill="#52CAF5" width="5.703" height="4.713"/>
<rect x="59.725" y="8.38" display="none" fill="#52CAF5" width="5.703" height="4.713"/>
<rect x="53.504" y="14.903" display="none" fill="#52CAF5" width="5.703" height="4.714"/>
<rect x="59.725" y="14.903" display="none" fill="#52CAF5" width="5.703" height="4.714"/>
<rect x="0.418" y="2.348" fill="#C8691C" width="72.996" height="24.73"/>
<rect x="0.418" y="2.348" fill="#F79523" width="72.996" height="12.516"/>
<path fill="#FFFFFF" d="M8.233,10.002l-1.113-0.2C7.245,9.354,7.46,9.021,7.765,8.807c0.306-0.215,0.76-0.323,1.362-0.323
	c0.547,0,0.954,0.064,1.222,0.193c0.269,0.129,0.456,0.295,0.566,0.494c0.108,0.199,0.163,0.565,0.163,1.098L11.065,11.7
	c0,0.409,0.02,0.708,0.06,0.901c0.039,0.196,0.113,0.401,0.22,0.622h-1.213c-0.032-0.08-0.071-0.203-0.117-0.363
	c-0.021-0.069-0.036-0.118-0.045-0.144c-0.209,0.207-0.433,0.356-0.671,0.458c-0.239,0.104-0.494,0.153-0.765,0.153
	c-0.478,0-0.854-0.129-1.127-0.388c-0.277-0.258-0.413-0.586-0.413-0.98c0-0.263,0.063-0.497,0.188-0.703s0.301-0.363,0.525-0.472
	c0.226-0.107,0.55-0.202,0.976-0.286c0.573-0.108,0.971-0.206,1.192-0.298v-0.123c0-0.238-0.06-0.405-0.176-0.504
	C9.583,9.471,9.363,9.421,9.04,9.421c-0.218,0-0.389,0.043-0.51,0.128C8.407,9.636,8.31,9.788,8.233,10.002z M9.875,10.999
	c-0.158,0.052-0.406,0.115-0.747,0.184C8.787,11.257,8.564,11.33,8.459,11.4c-0.159,0.112-0.24,0.255-0.24,0.43
	c0,0.175,0.064,0.321,0.192,0.447s0.291,0.188,0.489,0.188c0.221,0,0.432-0.073,0.633-0.22c0.147-0.109,0.245-0.244,0.292-0.405
	c0.032-0.104,0.049-0.304,0.049-0.597V10.999z"/>
<path fill="#FFFFFF" d="M16.539,13.223H15.4v-0.681c-0.19,0.266-0.413,0.464-0.671,0.593c-0.258,0.129-0.518,0.192-0.779,0.192
	c-0.532,0-0.988-0.213-1.367-0.643c-0.381-0.43-0.57-1.029-0.57-1.798c0-0.785,0.186-1.382,0.555-1.79
	c0.369-0.409,0.836-0.613,1.399-0.613c0.519,0,0.968,0.214,1.346,0.646V6.825h1.227V13.223z M13.265,10.806
	c0,0.493,0.068,0.853,0.205,1.073c0.198,0.321,0.474,0.482,0.829,0.482c0.282,0,0.522-0.123,0.721-0.359
	c0.197-0.241,0.296-0.601,0.296-1.08c0-0.53-0.096-0.914-0.288-1.147c-0.191-0.233-0.438-0.352-0.736-0.352
	c-0.292,0-0.536,0.117-0.731,0.348C13.363,10,13.265,10.345,13.265,10.806z"/>
<path fill="#FFFFFF" d="M21.999,13.223h-1.14v-0.681c-0.189,0.266-0.412,0.464-0.67,0.593c-0.256,0.129-0.518,0.192-0.779,0.192
	c-0.532,0-0.987-0.213-1.368-0.643c-0.379-0.43-0.569-1.029-0.569-1.798c0-0.785,0.186-1.382,0.555-1.79
	c0.368-0.409,0.836-0.613,1.401-0.613c0.518,0,0.965,0.214,1.344,0.646V6.825h1.227V13.223z M18.724,10.806
	c0,0.493,0.068,0.853,0.206,1.073c0.197,0.321,0.474,0.482,0.829,0.482c0.282,0,0.521-0.123,0.72-0.359
	c0.199-0.241,0.298-0.601,0.298-1.08c0-0.53-0.097-0.914-0.288-1.147c-0.192-0.233-0.439-0.352-0.738-0.352
	c-0.291,0-0.534,0.117-0.731,0.348C18.823,10,18.724,10.345,18.724,10.806z"/>
<path fill="#FFFFFF" d="M7.264,20.373v-6.396H8.49v2.305c0.378-0.434,0.827-0.646,1.345-0.646c0.565,0,1.032,0.203,1.401,0.611
	s0.555,0.998,0.555,1.764c0,0.789-0.188,1.4-0.566,1.826c-0.376,0.43-0.833,0.643-1.372,0.643c-0.265,0-0.526-0.066-0.783-0.199
	c-0.258-0.133-0.479-0.328-0.666-0.586v0.68H7.264z M8.481,17.957c0,0.479,0.076,0.834,0.228,1.066
	c0.213,0.324,0.495,0.486,0.847,0.486c0.271,0,0.502-0.113,0.691-0.35c0.191-0.229,0.286-0.592,0.286-1.092
	c0-0.527-0.096-0.91-0.288-1.145c-0.191-0.234-0.438-0.353-0.738-0.353c-0.294,0-0.537,0.114-0.732,0.345
	C8.579,17.145,8.481,17.488,8.481,17.957z"/>
<path fill="#FFFFFF" d="M12.776,20.373v-6.396h1.227v6.396H12.776z"/>
<path fill="#FFFFFF" d="M14.976,17.992c0-0.408,0.1-0.803,0.301-1.184s0.485-0.674,0.853-0.873c0.369-0.203,0.78-0.301,1.234-0.301
	c0.7,0,1.275,0.229,1.724,0.681c0.448,0.458,0.672,1.034,0.672,1.729c0,0.701-0.227,1.281-0.679,1.742s-1.021,0.691-1.708,0.691
	c-0.426,0-0.831-0.094-1.217-0.287c-0.385-0.193-0.678-0.475-0.879-0.844C15.076,18.977,14.976,18.523,14.976,17.992z
	 M16.233,18.055c0,0.461,0.109,0.814,0.327,1.059s0.487,0.365,0.808,0.365s0.588-0.121,0.805-0.365s0.325-0.602,0.325-1.064
	c0-0.455-0.108-0.805-0.325-1.047c-0.217-0.246-0.484-0.368-0.805-0.368s-0.59,0.122-0.808,0.368
	C16.342,17.244,16.233,17.598,16.233,18.055z"/>
<path fill="#FFFFFF" d="M24.761,17.109l-1.209,0.219c-0.041-0.24-0.134-0.426-0.277-0.547c-0.146-0.123-0.332-0.183-0.561-0.183
	c-0.306,0-0.55,0.105-0.73,0.317c-0.184,0.211-0.273,0.563-0.273,1.059c0,0.549,0.092,0.936,0.276,1.162s0.434,0.342,0.744,0.342
	c0.233,0,0.424-0.064,0.572-0.197c0.147-0.133,0.254-0.361,0.313-0.686l1.205,0.205c-0.124,0.557-0.365,0.973-0.72,1.254
	c-0.355,0.283-0.831,0.424-1.428,0.424c-0.678,0-1.218-0.213-1.621-0.643c-0.402-0.426-0.605-1.02-0.605-1.773
	c0-0.766,0.203-1.362,0.608-1.788c0.404-0.427,0.951-0.64,1.641-0.64c0.564,0,1.014,0.123,1.347,0.363
	C24.375,16.243,24.615,16.613,24.761,17.109z"/>
<path fill="#FFFFFF" d="M25.647,20.373v-6.396h1.226v3.395l1.437-1.631h1.51l-1.585,1.693l1.698,2.939H28.61l-1.165-2.08
	l-0.572,0.598v1.482H25.647z"/>
<path fill="#56CAF5" d="M69.516,19.891c0,2.486,0.235,4.5-2.25,4.5H52.265c-2.482,0-2.252-2.014-2.252-4.5V9.396
	c0-2.485-0.23-4.499,2.252-4.499h15.001c2.484,0,2.25,2.014,2.25,4.499V19.891L69.516,19.891z"/>
<polygon fill="#FFFFFF" points="64.542,13.38 61.028,13.38 61.028,9.864 58.497,9.864 58.497,13.38 54.987,13.38 54.987,15.912 
	58.497,15.912 58.497,19.424 61.028,19.424 61.028,15.912 64.542,15.912 "/>
<path fill="#FFFFFF" d="M50.358,10.257l5.016,13.793l13.797-5.016L64.156,5.237L50.358,10.257z M67.289,18.158l-11.036,4.01
	L52.24,11.133l11.037-4.014L67.289,18.158z"/>
</svg>
