<?xml version="1.0" encoding="utf-8"?>
<!-- Generator: Adobe Illustrator 15.0.0, SVG Export Plug-In  -->
<!DOCTYPE svg PUBLIC "-//W3C//DTD SVG 1.1//EN" "http://www.w3.org/Graphics/SVG/1.1/DTD/svg11.dtd" [
	<!ENTITY ns_flows "http://ns.adobe.com/Flows/1.0/">
]>
<svg version="1.1"
	 xmlns="http://www.w3.org/2000/svg" xmlns:xlink="http://www.w3.org/1999/xlink" xmlns:a="http://ns.adobe.com/AdobeSVGViewerExtensions/3.0/"
	 x="0px" y="0px" width="75px" height="33px" viewBox="-0.955 -4.25 75 33" enable-background="new -0.955 -4.25 75 33"
	 xml:space="preserve">
<defs>
</defs>
<rect fill="#C8691C" width="73.09" height="24.763"/>
<rect fill="#F79523" width="73.09" height="12.532"/>
<path fill="#FFFFFF" d="M7.824,7.664L6.71,7.463c0.125-0.449,0.341-0.782,0.646-0.997c0.306-0.215,0.76-0.323,1.364-0.323
	c0.548,0,0.955,0.063,1.224,0.194c0.268,0.129,0.456,0.296,0.566,0.495c0.107,0.198,0.163,0.564,0.163,1.1L10.66,9.365
	c0,0.409,0.019,0.708,0.06,0.901c0.039,0.195,0.113,0.402,0.221,0.623H9.726c-0.033-0.081-0.072-0.203-0.119-0.365
	c-0.021-0.069-0.035-0.118-0.043-0.143c-0.209,0.207-0.434,0.357-0.673,0.458c-0.238,0.104-0.494,0.154-0.765,0.154
	c-0.478,0-0.854-0.129-1.128-0.387c-0.276-0.26-0.414-0.588-0.414-0.984c0-0.262,0.063-0.496,0.188-0.7
	c0.124-0.207,0.299-0.364,0.525-0.473c0.228-0.109,0.552-0.204,0.979-0.286c0.574-0.108,0.971-0.208,1.192-0.301V7.74
	c0-0.238-0.058-0.405-0.174-0.505c-0.116-0.102-0.337-0.153-0.66-0.153c-0.219,0-0.388,0.044-0.511,0.13
	C7.999,7.296,7.9,7.45,7.824,7.664z M9.467,8.661C9.31,8.713,9.061,8.775,8.721,8.847C8.379,8.921,8.157,8.994,8.052,9.063
	C7.892,9.177,7.811,9.32,7.811,9.494c0,0.173,0.064,0.321,0.193,0.447c0.128,0.125,0.292,0.188,0.49,0.188
	c0.221,0,0.432-0.073,0.634-0.22c0.148-0.109,0.246-0.246,0.292-0.405C9.452,9.4,9.467,9.199,9.467,8.906V8.661z"/>
<path fill="#FFFFFF" d="M16.14,10.889H15v-0.682c-0.189,0.265-0.414,0.464-0.67,0.594c-0.259,0.13-0.519,0.192-0.781,0.192
	c-0.533,0-0.99-0.213-1.371-0.644c-0.38-0.43-0.57-1.03-0.57-1.8c0-0.787,0.186-1.383,0.555-1.793
	c0.371-0.409,0.838-0.613,1.403-0.613c0.519,0,0.968,0.215,1.346,0.646V4.483h1.228V10.889z M12.863,8.469
	c0,0.494,0.067,0.852,0.205,1.075c0.199,0.32,0.475,0.481,0.83,0.481c0.282,0,0.523-0.123,0.721-0.362
	c0.199-0.242,0.298-0.599,0.298-1.079c0-0.531-0.097-0.915-0.289-1.149c-0.192-0.234-0.439-0.354-0.739-0.354
	c-0.29,0-0.535,0.118-0.731,0.349C12.96,7.663,12.863,8.009,12.863,8.469z"/>
<path fill="#FFFFFF" d="M21.607,10.889h-1.141v-0.682c-0.189,0.265-0.413,0.464-0.671,0.594c-0.258,0.13-0.517,0.192-0.779,0.192
	c-0.534,0-0.989-0.213-1.37-0.644c-0.38-0.43-0.57-1.03-0.57-1.8c0-0.787,0.185-1.383,0.555-1.793
	c0.37-0.409,0.837-0.613,1.402-0.613c0.519,0,0.968,0.215,1.346,0.646V4.483h1.229V10.889z M18.33,8.469
	c0,0.494,0.067,0.852,0.205,1.075c0.199,0.32,0.475,0.481,0.831,0.481c0.282,0,0.522-0.123,0.721-0.362
	c0.199-0.242,0.297-0.599,0.297-1.079c0-0.531-0.096-0.915-0.289-1.149c-0.192-0.234-0.438-0.354-0.738-0.354
	c-0.291,0-0.535,0.118-0.732,0.349C18.428,7.663,18.33,8.009,18.33,8.469z"/>
<path fill="#FFFFFF" d="M6.854,18.049v-6.405h1.228v2.306c0.379-0.433,0.827-0.647,1.347-0.647c0.566,0,1.033,0.204,1.403,0.613
	s0.554,0.999,0.554,1.767c0,0.788-0.188,1.402-0.565,1.828c-0.377,0.43-0.834,0.643-1.374,0.643c-0.266,0-0.527-0.066-0.786-0.199
	c-0.258-0.134-0.48-0.328-0.666-0.588v0.683H6.854z M8.073,15.629c0,0.479,0.075,0.835,0.228,1.065
	c0.212,0.327,0.495,0.49,0.848,0.49c0.271,0,0.501-0.115,0.692-0.35c0.192-0.23,0.287-0.594,0.287-1.094
	c0-0.527-0.096-0.912-0.289-1.147C9.646,14.359,9.4,14.241,9.1,14.241c-0.294,0-0.539,0.115-0.734,0.347
	C8.17,14.814,8.073,15.159,8.073,15.629z"/>
<path fill="#FFFFFF" d="M12.089,15.665c0-0.41,0.101-0.805,0.301-1.186c0.202-0.38,0.487-0.676,0.855-0.874
	c0.368-0.205,0.779-0.303,1.234-0.303c0.701,0,1.277,0.229,1.727,0.684c0.448,0.458,0.672,1.035,0.672,1.73
	c0,0.702-0.226,1.282-0.678,1.743c-0.454,0.463-1.024,0.693-1.711,0.693c-0.426,0-0.832-0.095-1.217-0.287
	c-0.386-0.191-0.68-0.476-0.882-0.845C12.19,16.649,12.089,16.196,12.089,15.665z M13.348,15.727c0,0.462,0.11,0.815,0.328,1.061
	c0.218,0.245,0.488,0.367,0.809,0.367c0.32,0,0.589-0.122,0.807-0.367c0.217-0.245,0.325-0.602,0.325-1.067
	c0-0.455-0.108-0.805-0.325-1.048c-0.218-0.245-0.487-0.368-0.807-0.368c-0.321,0-0.591,0.123-0.809,0.368
	C13.458,14.915,13.348,15.269,13.348,15.727z"/>
<path fill="#FFFFFF" d="M17.25,18.049l1.673-2.391l-1.604-2.251h1.499l0.821,1.277l0.866-1.277h1.442l-1.573,2.197l1.717,2.444
	h-1.507l-0.945-1.437l-0.952,1.437H17.25z"/>
<path fill="#E6E7E8" d="M67.417,16.088c0.338,2.199,0.818,3.951-1.38,4.291l-13.286,2.047c-2.2,0.34-2.268-1.482-2.607-3.68
	l-1.429-9.297c-0.338-2.201-0.822-3.955,1.38-4.292L63.376,3.11c2.203-0.337,2.272,1.478,2.608,3.681L67.417,16.088z"/>
<path fill="#52CAF5" d="M68.714,17.472c0,2.225,0.21,4.03-2.018,4.03H53.258c-2.228,0-2.018-1.806-2.018-4.03V8.063
	c0-2.227-0.21-4.033,2.018-4.033h13.438c2.228,0,2.018,1.806,2.018,4.033V17.472z"/>
<polygon fill="#F1F2F2" points="65.72,11.453 61.499,11.453 61.499,7.229 58.457,7.229 58.457,11.453 54.237,11.453 54.237,14.493 
	58.457,14.493 58.457,18.714 61.499,18.714 61.499,14.493 65.72,14.493 "/>
</svg>
