<?xml version="1.0" encoding="utf-8"?>
<!-- Generator: Adobe Illustrator 15.0.0, SVG Export Plug-In  -->
<!DOCTYPE svg PUBLIC "-//W3C//DTD SVG 1.1//EN" "http://www.w3.org/Graphics/SVG/1.1/DTD/svg11.dtd" [
	<!ENTITY ns_flows "http://ns.adobe.com/Flows/1.0/">
]>
<svg version="1.1"
	 xmlns="http://www.w3.org/2000/svg" xmlns:xlink="http://www.w3.org/1999/xlink" xmlns:a="http://ns.adobe.com/AdobeSVGViewerExtensions/3.0/"
	 x="0px" y="0px" width="40px" height="33px" viewBox="-0.625 -3.425 40 33" enable-background="new -0.625 -3.425 40 33"
	 xml:space="preserve">
<defs>
</defs>
<rect fill="#C8691C" width="38.75" height="26.149"/>
<rect fill="#F79523" width="38.75" height="13.234"/>
<path fill="#FCB51E" d="M3.066,22.555l3.439,0.664c0.173,0.037,0.295,0.074,0.363,0.127c0.07,0.047,0.119,0.121,0.153,0.221
	c0.041,0.125,0.029,0.25-0.029,0.371c-0.062,0.121-0.151,0.201-0.271,0.242c-0.079,0.027-0.213,0.018-0.399-0.016l-5.125-1
	l3.555-3.828c0.129-0.137,0.232-0.219,0.308-0.242c0.124-0.041,0.245-0.029,0.364,0.031c0.122,0.063,0.202,0.154,0.244,0.281
	c0.033,0.1,0.034,0.188,0.007,0.27c-0.027,0.08-0.102,0.184-0.222,0.314L3.066,22.555z"/>
<path fill="#FCB51E" d="M9.354,20.098c-0.175-0.043-0.353-0.061-0.528-0.053c-0.174,0.008-0.35,0.039-0.525,0.096
	c-0.349,0.113-0.605,0.26-0.773,0.438c-0.073,0.082-0.102,0.152-0.084,0.211c0.022,0.066,0.106,0.111,0.25,0.139
	c0.109,0.014,0.332-0.008,0.67-0.072c0.624-0.109,1.065-0.166,1.327-0.156c0.341,0.004,0.632,0.092,0.867,0.25
	c0.237,0.158,0.394,0.357,0.471,0.596c0.104,0.318,0.051,0.637-0.161,0.943c-0.306,0.447-0.783,0.773-1.434,0.986
	c-0.258,0.084-0.507,0.141-0.742,0.166c-0.236,0.029-0.461,0.025-0.673,0c-0.031,0.051-0.069,0.096-0.113,0.133
	c-0.042,0.037-0.091,0.066-0.142,0.08c-0.141,0.051-0.269,0.037-0.382-0.029s-0.205-0.207-0.275-0.422l-0.098-0.307
	c-0.07-0.213-0.08-0.381-0.026-0.5s0.147-0.201,0.283-0.244c0.106-0.035,0.208-0.037,0.301,0c0.092,0.039,0.183,0.123,0.271,0.254
	c0.176,0.074,0.371,0.109,0.582,0.104c0.214-0.002,0.444-0.043,0.697-0.125c0.412-0.135,0.711-0.307,0.898-0.506
	c0.085-0.104,0.119-0.184,0.097-0.254c-0.039-0.119-0.147-0.189-0.326-0.215c-0.181-0.027-0.522,0.016-1.027,0.119
	c-0.745,0.16-1.275,0.168-1.589,0.033c-0.313-0.133-0.521-0.359-0.622-0.672c-0.104-0.322-0.055-0.633,0.146-0.936
	c0.275-0.412,0.709-0.717,1.306-0.91c0.209-0.068,0.415-0.113,0.62-0.137c0.202-0.023,0.406-0.023,0.609,0.004
	c0.04-0.061,0.084-0.107,0.126-0.141c0.041-0.037,0.082-0.063,0.123-0.078c0.123-0.037,0.242-0.025,0.353,0.041
	c0.111,0.063,0.202,0.205,0.273,0.42l0.071,0.223c0.063,0.195,0.083,0.336,0.06,0.422c-0.051,0.164-0.154,0.273-0.316,0.324
	c-0.107,0.035-0.214,0.033-0.317-0.008C9.496,20.274,9.413,20.206,9.354,20.098z"/>
<path fill="#FCB51E" d="M13.988,17.604c0.075-0.139,0.168-0.225,0.283-0.262c0.129-0.043,0.249-0.031,0.363,0.031
	c0.112,0.07,0.203,0.207,0.273,0.422l0.188,0.576c0.07,0.219,0.079,0.387,0.025,0.502c-0.054,0.121-0.147,0.201-0.282,0.244
	c-0.125,0.041-0.238,0.039-0.346-0.004c-0.078-0.031-0.162-0.125-0.251-0.277c-0.087-0.148-0.21-0.242-0.372-0.275
	c-0.283-0.066-0.607-0.039-0.977,0.084c-0.424,0.137-0.724,0.373-0.899,0.705c-0.174,0.332-0.199,0.688-0.075,1.068
	c0.114,0.35,0.326,0.588,0.639,0.711c0.312,0.123,0.753,0.094,1.323-0.096c0.375-0.121,0.668-0.26,0.88-0.408
	c0.126-0.094,0.233-0.219,0.322-0.375c0.088-0.152,0.185-0.242,0.287-0.275c0.124-0.041,0.244-0.031,0.362,0.029
	c0.121,0.063,0.197,0.154,0.237,0.277c0.065,0.197-0.009,0.432-0.223,0.699c-0.317,0.398-0.863,0.725-1.643,0.977
	c-0.7,0.229-1.29,0.26-1.774,0.1c-0.652-0.217-1.09-0.666-1.311-1.34c-0.209-0.643-0.168-1.24,0.122-1.803
	c0.292-0.557,0.78-0.949,1.469-1.174c0.248-0.08,0.488-0.133,0.715-0.154C13.555,17.563,13.774,17.571,13.988,17.604z"/>
<path fill="#FCB51E" d="M16.841,16.497l0.183,0.561c0.288-0.395,0.528-0.67,0.717-0.834c0.188-0.16,0.376-0.277,0.566-0.338
	c0.294-0.092,0.611-0.078,0.957,0.051c0.235,0.084,0.378,0.203,0.428,0.354c0.042,0.131,0.031,0.254-0.028,0.373
	s-0.153,0.195-0.278,0.236c-0.11,0.037-0.248,0.02-0.406-0.051s-0.286-0.094-0.383-0.059c-0.125,0.039-0.287,0.182-0.486,0.42
	c-0.2,0.238-0.435,0.576-0.705,1.014l0.443,1.355l1.28-0.416c0.216-0.068,0.384-0.078,0.502-0.025
	c0.12,0.051,0.201,0.146,0.244,0.283c0.044,0.129,0.032,0.252-0.033,0.367c-0.063,0.115-0.203,0.205-0.421,0.275l-2.718,0.883
	c-0.216,0.07-0.384,0.082-0.502,0.025c-0.119-0.051-0.201-0.146-0.245-0.281c-0.043-0.129-0.031-0.254,0.032-0.365
	c0.065-0.113,0.206-0.205,0.423-0.277l0.536-0.172l-0.713-2.189l-0.325,0.107c-0.217,0.07-0.384,0.08-0.504,0.025
	c-0.117-0.053-0.199-0.146-0.243-0.281c-0.042-0.133-0.031-0.254,0.031-0.369c0.066-0.111,0.207-0.203,0.424-0.273L16.841,16.497z"
	/>
<path fill="#FCB51E" d="M21.968,14.825l1.004,3.086l1.079-0.35c0.216-0.07,0.383-0.082,0.504-0.027
	c0.119,0.053,0.202,0.143,0.243,0.281c0.046,0.133,0.033,0.254-0.032,0.367c-0.067,0.113-0.206,0.207-0.421,0.275l-3.061,0.996
	c-0.214,0.07-0.384,0.082-0.502,0.025c-0.121-0.053-0.202-0.146-0.245-0.281c-0.044-0.131-0.033-0.254,0.035-0.369
	c0.063-0.111,0.204-0.201,0.42-0.271l1.08-0.354l-0.711-2.186l-0.727,0.234c-0.212,0.07-0.379,0.08-0.501,0.027
	c-0.121-0.053-0.203-0.146-0.245-0.281c-0.045-0.133-0.031-0.254,0.031-0.369c0.066-0.111,0.206-0.201,0.423-0.273L21.968,14.825z
	 M21.288,13.16l0.31,0.954l-1.069,0.346l-0.313-0.951L21.288,13.16z"/>
<path fill="#FCB51E" d="M26.035,17.36l0.479,1.475l0.543-0.174c0.214-0.07,0.381-0.08,0.499-0.025
	c0.121,0.051,0.202,0.145,0.246,0.279c0.043,0.129,0.031,0.254-0.033,0.365c-0.064,0.117-0.206,0.209-0.422,0.277l-1.593,0.52
	c-0.216,0.068-0.383,0.078-0.505,0.027c-0.117-0.057-0.199-0.148-0.242-0.281s-0.032-0.258,0.036-0.369
	c0.065-0.117,0.204-0.207,0.418-0.277l0.155-0.049l-1.323-4.066l-0.155,0.051c-0.217,0.072-0.383,0.082-0.505,0.027
	c-0.118-0.051-0.2-0.145-0.243-0.281c-0.043-0.133-0.033-0.254,0.033-0.367c0.065-0.113,0.205-0.205,0.422-0.273l1.054-0.346
	l0.1,0.307c0.162-0.211,0.348-0.391,0.548-0.533c0.204-0.147,0.423-0.254,0.661-0.334c0.614-0.199,1.205-0.158,1.774,0.118
	c0.567,0.273,0.937,0.679,1.114,1.218c0.191,0.594,0.098,1.168-0.287,1.723c-0.32,0.459-0.75,0.777-1.289,0.953
	c-0.229,0.074-0.468,0.115-0.717,0.121C26.557,17.45,26.302,17.42,26.035,17.36z M28.199,14.948
	c-0.041-0.125-0.143-0.271-0.307-0.434c-0.162-0.16-0.369-0.275-0.615-0.34c-0.251-0.061-0.514-0.047-0.791,0.045
	c-0.446,0.145-0.749,0.428-0.903,0.85c-0.101,0.291-0.12,0.543-0.05,0.752c0.077,0.246,0.282,0.434,0.614,0.578
	c0.328,0.143,0.682,0.152,1.06,0.031c0.38-0.123,0.661-0.342,0.84-0.648C28.229,15.475,28.281,15.194,28.199,14.948z"/>
<path fill="#FCB51E" d="M30.58,13.013l0.588,1.804c0.062,0.195,0.145,0.309,0.243,0.348c0.153,0.055,0.39,0.029,0.707-0.074
	c0.457-0.146,0.851-0.385,1.174-0.709c0.127-0.121,0.232-0.195,0.315-0.225c0.117-0.037,0.234-0.029,0.348,0.031
	c0.114,0.057,0.191,0.152,0.232,0.279c0.038,0.117,0.025,0.232-0.041,0.346c-0.1,0.186-0.339,0.404-0.725,0.658
	c-0.388,0.254-0.723,0.424-1.011,0.521c-0.562,0.18-1.019,0.197-1.378,0.045c-0.356-0.15-0.593-0.398-0.708-0.752l-0.646-1.977
	l-0.32,0.104c-0.219,0.071-0.387,0.08-0.507,0.027c-0.118-0.054-0.2-0.147-0.244-0.28c-0.042-0.133-0.032-0.257,0.033-0.37
	c0.064-0.114,0.206-0.206,0.422-0.276l0.323-0.104l-0.263-0.812c-0.072-0.218-0.08-0.385-0.024-0.505
	c0.053-0.118,0.146-0.199,0.28-0.244c0.133-0.045,0.255-0.033,0.368,0.034c0.112,0.063,0.205,0.204,0.274,0.423l0.266,0.81
	l1.662-0.539c0.219-0.073,0.385-0.081,0.504-0.028c0.12,0.054,0.201,0.148,0.245,0.283c0.043,0.128,0.032,0.254-0.033,0.364
	c-0.063,0.117-0.208,0.207-0.425,0.276L30.58,13.013z"/>
<path fill="#FCB51E" d="M36.418,11.689l-3.437-0.664c-0.176-0.033-0.296-0.074-0.365-0.125c-0.07-0.048-0.121-0.122-0.155-0.221
	c-0.04-0.126-0.029-0.248,0.032-0.37c0.061-0.12,0.152-0.2,0.276-0.241c0.075-0.023,0.206-0.019,0.392,0.013l5.123,1l-3.549,3.827
	c-0.132,0.141-0.234,0.221-0.311,0.246c-0.124,0.039-0.244,0.031-0.364-0.029c-0.121-0.063-0.202-0.158-0.243-0.287
	c-0.033-0.1-0.035-0.189-0.007-0.268c0.025-0.08,0.1-0.186,0.221-0.314L36.418,11.689z"/>
<path fill="#FFFFFF" d="M13.887,6.653l-1.278,0.23c-0.043-0.254-0.141-0.448-0.292-0.577s-0.351-0.192-0.594-0.192
	c-0.321,0-0.58,0.111-0.772,0.334c-0.191,0.224-0.287,0.597-0.287,1.119c0,0.581,0.096,0.992,0.291,1.23
	c0.196,0.241,0.458,0.362,0.786,0.362c0.248,0,0.449-0.07,0.605-0.21c0.157-0.14,0.268-0.381,0.333-0.724l1.272,0.217
	c-0.132,0.586-0.385,1.026-0.759,1.326c-0.377,0.297-0.88,0.448-1.512,0.448c-0.715,0-1.287-0.226-1.713-0.68
	c-0.428-0.451-0.64-1.079-0.64-1.877c0-0.808,0.214-1.439,0.64-1.89c0.429-0.45,1.008-0.675,1.735-0.675
	c0.598,0,1.073,0.129,1.426,0.386C13.479,5.735,13.734,6.126,13.887,6.653z"/>
<path fill="#FFFFFF" d="M14.57,7.585c0-0.431,0.105-0.847,0.319-1.25c0.21-0.404,0.514-0.712,0.9-0.923
	c0.39-0.213,0.824-0.319,1.304-0.319c0.742,0,1.351,0.24,1.824,0.722c0.472,0.481,0.71,1.091,0.71,1.825
	c0,0.742-0.238,1.357-0.718,1.845c-0.479,0.486-1.08,0.731-1.806,0.731c-0.45,0-0.878-0.102-1.285-0.306
	c-0.409-0.202-0.72-0.5-0.93-0.893C14.676,8.626,14.57,8.148,14.57,7.585z M15.899,7.653c0,0.487,0.116,0.861,0.345,1.12
	c0.232,0.258,0.518,0.387,0.855,0.387s0.621-0.128,0.851-0.387c0.229-0.258,0.343-0.636,0.343-1.126c0-0.48-0.114-0.849-0.343-1.107
	C17.721,6.28,17.438,6.151,17.1,6.151s-0.623,0.129-0.855,0.388C16.016,6.797,15.899,7.167,15.899,7.653z"/>
<path fill="#FFFFFF" d="M25.139,10.104h-1.203v-0.72c-0.202,0.281-0.437,0.489-0.709,0.626c-0.274,0.137-0.547,0.206-0.823,0.206
	c-0.566,0-1.045-0.228-1.447-0.682s-0.603-1.088-0.603-1.9c0-0.83,0.196-1.461,0.586-1.894c0.389-0.432,0.884-0.647,1.482-0.647
	c0.546,0,1.02,0.227,1.421,0.683V3.339h1.296V10.104z M21.678,7.548c0,0.522,0.072,0.9,0.216,1.135
	c0.211,0.338,0.502,0.508,0.879,0.508c0.296,0,0.55-0.128,0.76-0.379c0.21-0.256,0.314-0.634,0.314-1.14
	c0-0.561-0.103-0.967-0.305-1.214c-0.203-0.247-0.463-0.373-0.781-0.373c-0.307,0-0.564,0.124-0.772,0.367
	C21.783,6.698,21.678,7.063,21.678,7.548z"/>
<path fill="#FFFFFF" d="M29.256,8.545l1.292,0.215c-0.167,0.475-0.428,0.837-0.787,1.085c-0.359,0.246-0.808,0.371-1.346,0.371
	c-0.853,0-1.482-0.28-1.894-0.835c-0.322-0.447-0.481-1.01-0.481-1.691c0-0.812,0.21-1.447,0.634-1.906
	c0.425-0.46,0.964-0.69,1.612-0.69c0.729,0,1.304,0.24,1.725,0.722c0.423,0.481,0.626,1.219,0.605,2.213h-3.247
	c0.007,0.384,0.112,0.683,0.313,0.897c0.2,0.214,0.448,0.321,0.745,0.321c0.204,0,0.376-0.055,0.514-0.166
	C29.08,8.97,29.185,8.79,29.256,8.545z M29.33,7.234c-0.009-0.375-0.109-0.661-0.293-0.856c-0.185-0.195-0.407-0.293-0.672-0.293
	c-0.284,0-0.518,0.103-0.701,0.31c-0.185,0.206-0.276,0.485-0.273,0.84H29.33z"/>
</svg>
