<?xml version="1.0" encoding="utf-8"?>
<!-- Generator: Adobe Illustrator 15.0.0, SVG Export Plug-In  -->
<!DOCTYPE svg PUBLIC "-//W3C//DTD SVG 1.1//EN" "http://www.w3.org/Graphics/SVG/1.1/DTD/svg11.dtd" [
	<!ENTITY ns_flows "http://ns.adobe.com/Flows/1.0/">
]>
<svg version="1.1"
	 xmlns="http://www.w3.org/2000/svg" xmlns:xlink="http://www.w3.org/1999/xlink" xmlns:a="http://ns.adobe.com/AdobeSVGViewerExtensions/3.0/"
	 x="0px" y="0px" width="40px" height="33px" viewBox="-0.567 -3.386 40 33" enable-background="new -0.567 -3.386 40 33"
	 xml:space="preserve">
<defs>
</defs>
<rect fill="#C8691C" width="38.865" height="26.229"/>
<rect fill="#F79523" width="38.865" height="13.273"/>
<path fill="#FFFFFF" d="M12.179,3.563v2.492c0.42-0.489,0.922-0.733,1.505-0.733c0.299,0,0.568,0.056,0.809,0.167
	c0.241,0.111,0.423,0.252,0.545,0.426c0.122,0.171,0.206,0.363,0.252,0.574c0.044,0.207,0.066,0.533,0.066,0.974v2.885h-1.302V7.752
	c0-0.515-0.024-0.844-0.073-0.981c-0.05-0.141-0.136-0.248-0.262-0.33c-0.126-0.081-0.281-0.125-0.471-0.125
	c-0.214,0-0.408,0.056-0.577,0.159c-0.17,0.104-0.296,0.263-0.374,0.474c-0.077,0.212-0.118,0.526-0.118,0.938v2.462h-1.3V3.563
	H12.179z"/>
<path fill="#FFFFFF" d="M16.674,4.768V3.563h1.3v1.204H16.674z M16.674,10.348V5.434h1.3v4.914H16.674z"/>
<path fill="#FFFFFF" d="M23.816,10.348h-1.209V9.626c-0.201,0.281-0.438,0.492-0.708,0.629c-0.275,0.137-0.551,0.204-0.828,0.204
	c-0.564,0-1.05-0.226-1.45-0.682c-0.403-0.455-0.605-1.093-0.605-1.907c0-0.833,0.197-1.466,0.588-1.899
	c0.392-0.434,0.888-0.648,1.485-0.648c0.55,0,1.024,0.227,1.427,0.686V3.563h1.301V10.348z M20.344,7.785
	c0,0.522,0.073,0.903,0.219,1.137c0.21,0.341,0.503,0.511,0.879,0.511c0.298,0,0.554-0.13,0.765-0.381
	c0.209-0.256,0.314-0.637,0.314-1.145c0-0.563-0.104-0.97-0.307-1.219C22.01,6.44,21.75,6.315,21.433,6.315
	c-0.308,0-0.566,0.125-0.774,0.37C20.446,6.93,20.344,7.296,20.344,7.785z"/>
<path fill="#FFFFFF" d="M27.945,8.785l1.296,0.214c-0.166,0.479-0.429,0.841-0.788,1.089c-0.361,0.249-0.812,0.371-1.353,0.371
	c-0.853,0-1.486-0.278-1.896-0.837c-0.325-0.448-0.486-1.011-0.486-1.696c0-0.814,0.213-1.451,0.639-1.91
	c0.426-0.463,0.965-0.693,1.614-0.693c0.732,0,1.309,0.241,1.733,0.723c0.422,0.485,0.623,1.226,0.604,2.222h-3.258
	c0.009,0.385,0.112,0.685,0.314,0.899s0.45,0.322,0.75,0.322c0.204,0,0.374-0.056,0.515-0.166
	C27.767,9.211,27.873,9.029,27.945,8.785z M28.019,7.471c-0.011-0.378-0.106-0.663-0.291-0.859
	c-0.186-0.196-0.411-0.296-0.677-0.296c-0.282,0-0.519,0.104-0.703,0.311c-0.186,0.208-0.276,0.489-0.273,0.845H28.019z"/>
<path fill="#FCB51E" d="M24.426,22.785v-6.386c0-0.636-0.517-1.152-1.155-1.152H16.81c-0.638,0-1.153,0.517-1.153,1.152v6.386
	c0,0.638,0.516,1.154,1.153,1.154h6.461C23.909,23.939,24.426,23.423,24.426,22.785z M19.551,21.501l-2.883-2.885
	c-0.269-0.269-0.281-0.696-0.027-0.95c0.254-0.253,0.682-0.24,0.949,0.027l1.961,1.96c0.269,0.27,0.709,0.27,0.979,0l1.958-1.96
	c0.271-0.27,0.699-0.28,0.952-0.027c0.254,0.254,0.241,0.682-0.027,0.95l-2.883,2.885C20.26,21.77,19.819,21.77,19.551,21.501z"/>
</svg>
