<?xml version="1.0" encoding="utf-8"?>
<!-- Generator: Adobe Illustrator 15.0.0, SVG Export Plug-In  -->
<!DOCTYPE svg PUBLIC "-//W3C//DTD SVG 1.1//EN" "http://www.w3.org/Graphics/SVG/1.1/DTD/svg11.dtd" [
	<!ENTITY ns_flows "http://ns.adobe.com/Flows/1.0/">
]>
<svg version="1.1"
	 xmlns="http://www.w3.org/2000/svg" xmlns:xlink="http://www.w3.org/1999/xlink" xmlns:a="http://ns.adobe.com/AdobeSVGViewerExtensions/3.0/"
	 x="0px" y="0px" width="40px" height="33px" viewBox="-0.781 -3.53 40 33" enable-background="new -0.781 -3.53 40 33"
	 xml:space="preserve">
<defs>
</defs>
<rect fill="#C8691C" width="38.438" height="25.939"/>
<rect fill="#F79523" width="38.438" height="13.127"/>
<path fill="#FFFFFF" d="M10.938,3.524v2.465c0.415-0.483,0.911-0.726,1.488-0.726c0.296,0,0.563,0.056,0.801,0.165
	c0.238,0.11,0.418,0.249,0.538,0.421c0.12,0.169,0.203,0.359,0.247,0.567c0.045,0.206,0.066,0.527,0.066,0.964v2.853h-1.286V7.667
	c0-0.51-0.025-0.835-0.073-0.972c-0.049-0.139-0.136-0.245-0.258-0.325c-0.125-0.081-0.279-0.125-0.465-0.125
	c-0.214,0-0.405,0.056-0.573,0.158c-0.167,0.103-0.29,0.26-0.369,0.469c-0.076,0.208-0.116,0.52-0.116,0.926v2.436H9.652V3.524
	H10.938z"/>
<path fill="#FFFFFF" d="M17.613,5.374v1.025h-0.879v1.959c0,0.396,0.009,0.626,0.023,0.692c0.019,0.066,0.055,0.12,0.117,0.161
	c0.059,0.044,0.132,0.065,0.216,0.065c0.119,0,0.292-0.04,0.517-0.124l0.11,1c-0.299,0.128-0.638,0.19-1.015,0.19
	c-0.232,0-0.443-0.037-0.628-0.118c-0.186-0.076-0.324-0.175-0.408-0.3c-0.088-0.124-0.148-0.293-0.184-0.502
	c-0.025-0.149-0.04-0.45-0.04-0.908V6.399h-0.59V5.374h0.59V4.407l1.291-0.751v1.718H17.613z"/>
<path fill="#FFFFFF" d="M18.41,5.374h1.186v0.663c0.424-0.517,0.93-0.773,1.515-0.773c0.312,0,0.58,0.063,0.812,0.19
	c0.228,0.128,0.416,0.323,0.562,0.583c0.215-0.26,0.445-0.455,0.69-0.583c0.249-0.128,0.514-0.19,0.793-0.19
	c0.357,0,0.66,0.073,0.907,0.217c0.247,0.146,0.432,0.358,0.553,0.637c0.089,0.209,0.134,0.546,0.134,1.007v3.109h-1.288V7.454
	c0-0.48-0.044-0.791-0.132-0.934c-0.118-0.184-0.302-0.275-0.549-0.275c-0.18,0-0.351,0.056-0.509,0.165
	c-0.158,0.11-0.271,0.271-0.343,0.483c-0.071,0.213-0.104,0.549-0.104,1.007v2.333h-1.288V7.571c0-0.473-0.024-0.78-0.067-0.916
	c-0.048-0.139-0.117-0.241-0.213-0.308c-0.099-0.065-0.227-0.103-0.392-0.103c-0.199,0-0.377,0.056-0.537,0.161
	c-0.159,0.106-0.272,0.26-0.342,0.462c-0.066,0.201-0.103,0.538-0.103,1.003v2.362H18.41V5.374z"/>
<path fill="#FFFFFF" d="M26.842,10.233V3.524h1.287v6.709H26.842z"/>
<path fill="#FFFFFF" d="M13.63,20.219l-3.212-0.42l-0.198-0.687l2.497-2.056l0.234,0.809l-1.772,1.333l2.22,0.216L13.63,20.219z"/>
<path fill="#FFFFFF" d="M17.221,19.694l-0.741,0.215l-0.128-0.444c-0.073,0.208-0.182,0.378-0.324,0.512
	c-0.143,0.132-0.3,0.223-0.471,0.272c-0.346,0.1-0.685,0.046-1.011-0.161c-0.328-0.209-0.563-0.563-0.708-1.063
	c-0.147-0.512-0.138-0.936,0.025-1.27s0.429-0.556,0.795-0.662c0.336-0.096,0.67-0.042,0.996,0.167l-0.433-1.497l0.799-0.231
	L17.221,19.694z M14.638,18.737c0.094,0.321,0.205,0.541,0.335,0.658c0.188,0.171,0.397,0.222,0.63,0.156
	c0.182-0.054,0.316-0.176,0.401-0.368c0.082-0.192,0.08-0.446-0.01-0.758c-0.101-0.345-0.234-0.576-0.404-0.693
	c-0.167-0.114-0.35-0.146-0.546-0.089c-0.188,0.053-0.326,0.174-0.41,0.364C14.55,18.194,14.552,18.438,14.638,18.737z"/>
<path fill="#FFFFFF" d="M17.02,16.043l-0.214-0.738l0.799-0.229l0.214,0.738L17.02,16.043z M18.007,19.467l-0.869-3.015l0.798-0.231
	l0.87,3.018L18.007,19.467z"/>
<path fill="#FFFFFF" d="M20.453,18.762l-2.086-2.665l0.839-0.242l1.012,1.377l0.313,0.465c0.006-0.142,0.008-0.236,0.008-0.282
	c0.002-0.091,0.005-0.187,0.011-0.277l0.13-1.707l0.82-0.236l-0.328,3.362L20.453,18.762z"/>
<path fill="#FFFFFF" d="M22.574,17.638l-0.233-0.804l1.767-1.356l-2.215-0.201l-0.23-0.797l3.213,0.41l0.196,0.682L22.574,17.638z"
	/>
<path fill="#FFFFFF" d="M16.586,24.401l-3.211-0.416l-0.198-0.687l2.497-2.06l0.234,0.81l-1.772,1.335l2.22,0.216L16.586,24.401z"/>
<path fill="#FFFFFF" d="M17.007,24.871l-0.21-4.601l0.599-0.171l0.199,4.603L17.007,24.871z"/>
<path fill="#FFFFFF" d="M21.794,23.413l-0.74,0.215l-0.128-0.444c-0.073,0.208-0.182,0.378-0.326,0.514
	c-0.143,0.132-0.3,0.223-0.469,0.272c-0.348,0.1-0.685,0.044-1.013-0.162c-0.328-0.212-0.563-0.563-0.707-1.063
	c-0.148-0.511-0.139-0.936,0.024-1.27c0.164-0.336,0.43-0.556,0.796-0.662c0.337-0.096,0.669-0.039,0.995,0.169l-0.433-1.499
	l0.799-0.231L21.794,23.413z M19.212,22.456c0.093,0.321,0.203,0.541,0.333,0.66c0.19,0.169,0.399,0.222,0.63,0.156
	c0.184-0.054,0.317-0.176,0.4-0.37c0.085-0.19,0.083-0.444-0.009-0.756c-0.098-0.347-0.232-0.577-0.402-0.694
	c-0.169-0.115-0.352-0.146-0.546-0.09c-0.19,0.054-0.326,0.176-0.41,0.362C19.124,21.913,19.126,22.157,19.212,22.456z"/>
<path fill="#FFFFFF" d="M21.593,19.764l-0.213-0.74l0.798-0.229l0.213,0.739L21.593,19.764z M22.581,23.187l-0.869-3.016
	l0.798-0.231l0.87,3.016L22.581,23.187z"/>
<path fill="#FFFFFF" d="M25.025,22.481l-2.083-2.666l0.836-0.242l1.011,1.377l0.313,0.467c0.007-0.143,0.011-0.236,0.011-0.284
	c0-0.091,0.003-0.185,0.011-0.277l0.13-1.707l0.819-0.236l-0.327,3.362L25.025,22.481z"/>
<path fill="#FFFFFF" d="M27.148,21.358l-0.233-0.804l1.767-1.358l-2.218-0.201l-0.228-0.797l3.211,0.412l0.198,0.682L27.148,21.358z
	"/>
</svg>
