<?xml version="1.0" encoding="utf-8"?>
<!-- Generator: Adobe Illustrator 15.0.0, SVG Export Plug-In  -->
<!DOCTYPE svg PUBLIC "-//W3C//DTD SVG 1.1//EN" "http://www.w3.org/Graphics/SVG/1.1/DTD/svg11.dtd" [
	<!ENTITY ns_flows "http://ns.adobe.com/Flows/1.0/">
]>
<svg version="1.1"
	 xmlns="http://www.w3.org/2000/svg" xmlns:xlink="http://www.w3.org/1999/xlink" xmlns:a="http://ns.adobe.com/AdobeSVGViewerExtensions/3.0/"
	 x="0px" y="0px" width="40px" height="33px" viewBox="-0.827 -3.455 40 33" enable-background="new -0.827 -3.455 40 33"
	 xml:space="preserve">
<defs>
</defs>
<rect y="0.212" fill="#C8691C" width="38.347" height="25.878"/>
<rect fill="#F79523" width="38.347" height="13.096"/>
<path fill="#FFFFFF" d="M12.931,9.841V3.145h1.283v6.696H12.931z"/>
<path fill="#FFFFFF" d="M15.529,4.332V3.145h1.284v1.188H15.529z M15.529,9.841V4.989h1.284v4.852H15.529z"/>
<path fill="#FFFFFF" d="M17.677,8.456l1.286-0.197c0.055,0.252,0.168,0.438,0.334,0.57C19.463,8.957,19.699,9.022,20,9.022
	c0.333,0,0.581-0.063,0.749-0.183c0.113-0.084,0.168-0.201,0.168-0.344c0-0.095-0.029-0.176-0.092-0.241
	c-0.061-0.062-0.205-0.116-0.426-0.168c-1.037-0.23-1.692-0.438-1.97-0.624c-0.383-0.264-0.575-0.629-0.575-1.093
	c0-0.42,0.166-0.774,0.499-1.062c0.331-0.287,0.846-0.429,1.542-0.429c0.666,0,1.158,0.107,1.48,0.323
	c0.324,0.217,0.547,0.539,0.668,0.963l-1.211,0.223c-0.053-0.19-0.148-0.333-0.293-0.435c-0.146-0.1-0.352-0.15-0.62-0.15
	c-0.337,0-0.579,0.048-0.725,0.143c-0.099,0.065-0.146,0.153-0.146,0.26c0,0.091,0.042,0.168,0.128,0.233
	c0.115,0.084,0.515,0.204,1.198,0.358c0.683,0.157,1.159,0.347,1.433,0.573c0.266,0.227,0.4,0.544,0.4,0.954
	c0,0.441-0.186,0.825-0.559,1.146C21.279,9.79,20.728,9.95,20,9.95c-0.661,0-1.184-0.135-1.567-0.401
	C18.046,9.278,17.794,8.916,17.677,8.456z"/>
<path fill="#FFFFFF" d="M25.554,4.989v1.022h-0.877v1.955c0,0.398,0.008,0.629,0.025,0.694c0.016,0.065,0.055,0.116,0.113,0.16
	s0.133,0.065,0.217,0.065c0.119,0,0.291-0.043,0.518-0.123l0.109,0.993c-0.299,0.128-0.637,0.193-1.016,0.193
	c-0.23,0-0.438-0.04-0.625-0.117c-0.186-0.076-0.32-0.179-0.408-0.303c-0.088-0.12-0.146-0.288-0.18-0.497
	C23.402,8.884,23.39,8.58,23.39,8.127V6.012H22.8V4.989h0.59V4.026l1.287-0.749v1.712H25.554z"/>
<rect x="16.046" y="16.308" fill="#FFFFFF" width="10.373" height="0.902"/>
<path fill="#FFFFFF" d="M14.391,16.759c0,0.665-0.537,1.204-1.202,1.204l0,0c-0.665,0-1.202-0.539-1.202-1.204l0,0
	c0-0.663,0.537-1.201,1.202-1.201l0,0C13.854,15.558,14.391,16.096,14.391,16.759L14.391,16.759z"/>
<rect x="16.046" y="19.369" fill="#FFFFFF" width="10.373" height="0.903"/>
<path fill="#FFFFFF" d="M14.391,19.82c0,0.665-0.537,1.202-1.202,1.202l0,0c-0.665,0-1.202-0.537-1.202-1.202l0,0
	c0-0.665,0.537-1.201,1.202-1.201l0,0C13.854,18.619,14.391,19.155,14.391,19.82L14.391,19.82z"/>
<rect x="16.046" y="22.515" fill="#FFFFFF" width="10.373" height="0.902"/>
<path fill="#FFFFFF" d="M14.391,22.966c0,0.663-0.537,1.202-1.202,1.202l0,0c-0.665,0-1.202-0.539-1.202-1.202l0,0
	c0-0.664,0.537-1.204,1.202-1.204l0,0C13.854,21.762,14.391,22.302,14.391,22.966L14.391,22.966z"/>
</svg>
