<?xml version="1.0" encoding="utf-8"?>
<!-- Generator: Adobe Illustrator 15.0.0, SVG Export Plug-In  -->
<!DOCTYPE svg PUBLIC "-//W3C//DTD SVG 1.1//EN" "http://www.w3.org/Graphics/SVG/1.1/DTD/svg11.dtd" [
	<!ENTITY ns_flows "http://ns.adobe.com/Flows/1.0/">
]>
<svg version="1.1"
	 xmlns="http://www.w3.org/2000/svg" xmlns:xlink="http://www.w3.org/1999/xlink" xmlns:a="http://ns.adobe.com/AdobeSVGViewerExtensions/3.0/"
	 x="0px" y="0px" width="40px" height="33px" viewBox="-0.542 -3.397 40 33" enable-background="new -0.542 -3.397 40 33"
	 xml:space="preserve">
<defs>
</defs>
<rect fill="#C8691C" width="38.833" height="26.205"/>
<rect fill="#F79523" width="38.833" height="13.261"/>
<path fill="#FFFFFF" d="M8.847,3.976h1.212v0.721c0.157-0.246,0.37-0.447,0.638-0.602c0.269-0.153,0.566-0.23,0.893-0.23
	c0.571,0,1.055,0.224,1.453,0.671c0.397,0.445,0.596,1.069,0.596,1.867c0,0.82-0.201,1.457-0.601,1.912
	c-0.401,0.455-0.887,0.682-1.457,0.682c-0.271,0-0.517-0.054-0.738-0.163c-0.221-0.107-0.453-0.292-0.696-0.554v2.474h-1.3V3.976z
	 M10.133,6.349c0,0.552,0.11,0.958,0.329,1.223c0.219,0.262,0.486,0.394,0.8,0.394c0.303,0,0.553-0.121,0.754-0.363
	s0.301-0.638,0.301-1.191c0-0.514-0.104-0.896-0.311-1.147c-0.206-0.248-0.462-0.374-0.768-0.374c-0.317,0-0.581,0.122-0.79,0.368
	C10.237,5.503,10.133,5.868,10.133,6.349z"/>
<path fill="#FFFFFF" d="M15.641,5.473l-1.179-0.212c0.132-0.476,0.361-0.828,0.684-1.055c0.324-0.228,0.805-0.342,1.443-0.342
	c0.581,0,1.012,0.068,1.295,0.205c0.283,0.137,0.483,0.312,0.599,0.523c0.117,0.21,0.173,0.597,0.173,1.164l-0.015,1.517
	c0,0.432,0.022,0.75,0.063,0.955c0.042,0.205,0.12,0.424,0.233,0.658h-1.285c-0.035-0.087-0.076-0.214-0.126-0.384
	c-0.02-0.076-0.036-0.128-0.046-0.152c-0.222,0.217-0.459,0.378-0.712,0.485c-0.252,0.109-0.523,0.163-0.81,0.163
	c-0.506,0-0.903-0.136-1.196-0.41c-0.291-0.276-0.437-0.622-0.437-1.042c0-0.277,0.067-0.525,0.199-0.741
	c0.132-0.219,0.318-0.385,0.558-0.5c0.238-0.117,0.582-0.216,1.034-0.303c0.606-0.115,1.028-0.221,1.262-0.319V5.553
	c0-0.252-0.061-0.429-0.185-0.534c-0.123-0.108-0.356-0.161-0.699-0.161c-0.231,0-0.412,0.046-0.542,0.136
	C15.826,5.085,15.722,5.246,15.641,5.473z M17.38,6.528c-0.167,0.055-0.43,0.122-0.791,0.197c-0.36,0.079-0.597,0.154-0.707,0.228
	c-0.169,0.121-0.255,0.272-0.255,0.457c0,0.183,0.067,0.34,0.204,0.473c0.136,0.132,0.308,0.198,0.518,0.198
	c0.233,0,0.458-0.077,0.671-0.231c0.156-0.116,0.26-0.261,0.309-0.429c0.035-0.111,0.051-0.324,0.051-0.634V6.528z"/>
<path fill="#FFFFFF" d="M19.817,9.21l1.484,0.18c0.025,0.173,0.081,0.292,0.172,0.356c0.122,0.092,0.316,0.138,0.581,0.138
	c0.341,0,0.597-0.051,0.765-0.151c0.112-0.068,0.201-0.178,0.259-0.329c0.038-0.108,0.06-0.307,0.06-0.596V8.091
	c-0.388,0.531-0.879,0.795-1.472,0.795c-0.658,0-1.18-0.279-1.566-0.836c-0.302-0.441-0.453-0.991-0.453-1.647
	c0-0.824,0.197-1.453,0.594-1.886c0.397-0.437,0.89-0.652,1.479-0.652c0.605,0,1.107,0.266,1.501,0.801v-0.69h1.217v4.408
	c0,0.579-0.048,1.012-0.145,1.299c-0.094,0.286-0.229,0.511-0.402,0.674c-0.171,0.163-0.402,0.291-0.69,0.383
	c-0.287,0.092-0.653,0.14-1.094,0.14c-0.832,0-1.422-0.144-1.771-0.429c-0.349-0.285-0.522-0.646-0.522-1.084
	C19.813,9.325,19.814,9.271,19.817,9.21z M20.979,6.33c0,0.52,0.099,0.901,0.302,1.144c0.201,0.242,0.452,0.362,0.748,0.362
	c0.315,0,0.585-0.124,0.803-0.371c0.221-0.249,0.33-0.616,0.33-1.103c0-0.509-0.104-0.887-0.316-1.134
	c-0.21-0.247-0.473-0.37-0.795-0.37c-0.31,0-0.568,0.122-0.77,0.364C21.078,5.464,20.979,5.833,20.979,6.33z"/>
<path fill="#FFFFFF" d="M28.565,7.323l1.296,0.217c-0.167,0.475-0.429,0.838-0.788,1.085c-0.358,0.248-0.809,0.372-1.347,0.372
	c-0.855,0-1.486-0.279-1.896-0.836c-0.323-0.447-0.486-1.012-0.486-1.694c0-0.814,0.214-1.45,0.638-1.912
	c0.427-0.46,0.965-0.691,1.616-0.691c0.729,0,1.306,0.24,1.728,0.723c0.423,0.482,0.624,1.222,0.606,2.218h-3.257
	c0.01,0.385,0.116,0.684,0.315,0.899c0.2,0.214,0.45,0.321,0.749,0.321c0.204,0,0.375-0.056,0.513-0.167
	C28.392,7.749,28.496,7.57,28.565,7.323z M28.64,6.01c-0.008-0.375-0.105-0.662-0.29-0.858c-0.186-0.196-0.409-0.293-0.676-0.293
	c-0.285,0-0.519,0.103-0.703,0.311c-0.184,0.207-0.275,0.486-0.272,0.841H28.64z"/>
<rect x="15.972" y="15.295" transform="matrix(0.966 -0.2587 0.2587 0.966 -4.5475 5.7008)" fill="#BCBEC0" width="6.837" height="9.674"/>
<rect x="15.972" y="15.297" fill="#FFFFFF" width="6.838" height="9.672"/>
<rect x="17.143" y="16.774" fill="#C8691C" width="4.557" height="0.553"/>
<rect x="17.143" y="18.985" fill="#C8691C" width="4.557" height="0.553"/>
<rect x="17.143" y="21.193" fill="#C8691C" width="4.557" height="0.556"/>
</svg>
