<?xml version="1.0" encoding="utf-8"?>
<!-- Generator: Adobe Illustrator 15.0.0, SVG Export Plug-In  -->
<!DOCTYPE svg PUBLIC "-//W3C//DTD SVG 1.1//EN" "http://www.w3.org/Graphics/SVG/1.1/DTD/svg11.dtd" [
	<!ENTITY ns_flows "http://ns.adobe.com/Flows/1.0/">
]>
<svg version="1.1"
	 xmlns="http://www.w3.org/2000/svg" xmlns:xlink="http://www.w3.org/1999/xlink" xmlns:a="http://ns.adobe.com/AdobeSVGViewerExtensions/3.0/"
	 x="0px" y="0px" width="75px" height="33px" viewBox="-0.583 -1.787 75 33" enable-background="new -0.583 -1.787 75 33"
	 xml:space="preserve">
<defs>
</defs>
<rect fill="#C8691C" width="73.833" height="29.426"/>
<rect fill="#F79523" width="73.833" height="14.89"/>
<path fill="#FFFFFF" d="M5.649,9.705L4.53,9.503c0.125-0.451,0.342-0.783,0.649-1c0.307-0.217,0.764-0.324,1.369-0.324
	c0.55,0,0.959,0.064,1.228,0.194c0.27,0.131,0.458,0.296,0.568,0.496c0.109,0.2,0.164,0.567,0.164,1.104l-0.013,1.439
	c0,0.409,0.02,0.711,0.06,0.905c0.039,0.195,0.114,0.401,0.222,0.624H7.558c-0.033-0.081-0.072-0.203-0.119-0.364
	c-0.021-0.072-0.036-0.121-0.044-0.145c-0.21,0.206-0.437,0.358-0.675,0.46c-0.24,0.104-0.496,0.154-0.768,0.154
	c-0.48,0-0.858-0.129-1.134-0.39c-0.277-0.261-0.416-0.589-0.416-0.987c0-0.264,0.063-0.498,0.189-0.703
	c0.125-0.208,0.302-0.365,0.528-0.475c0.228-0.11,0.554-0.204,0.981-0.287c0.576-0.109,0.976-0.209,1.198-0.302V9.78
	c0-0.238-0.059-0.407-0.176-0.507C7.006,9.171,6.786,9.12,6.46,9.12c-0.219,0-0.391,0.044-0.513,0.131
	C5.825,9.336,5.726,9.489,5.649,9.705z M7.299,10.705c-0.158,0.053-0.409,0.115-0.75,0.188c-0.342,0.074-0.566,0.146-0.671,0.216
	c-0.16,0.114-0.241,0.258-0.241,0.434c0,0.174,0.064,0.322,0.193,0.449c0.128,0.125,0.292,0.188,0.491,0.188
	c0.222,0,0.435-0.073,0.636-0.22c0.149-0.11,0.248-0.247,0.294-0.406c0.032-0.105,0.048-0.308,0.048-0.603V10.705z"/>
<path fill="#FFFFFF" d="M13.997,12.941h-1.145v-0.684c-0.19,0.267-0.415,0.465-0.673,0.595c-0.259,0.13-0.52,0.194-0.783,0.194
	c-0.535,0-0.994-0.216-1.375-0.646c-0.382-0.433-0.573-1.034-0.573-1.807c0-0.789,0.186-1.389,0.557-1.8
	c0.371-0.41,0.84-0.615,1.408-0.615c0.52,0,0.971,0.216,1.351,0.648V6.512h1.232V12.941z M10.707,10.513
	c0,0.496,0.068,0.855,0.206,1.078c0.199,0.321,0.477,0.482,0.833,0.482c0.283,0,0.524-0.121,0.723-0.361
	c0.199-0.242,0.299-0.602,0.299-1.082c0-0.534-0.097-0.92-0.29-1.154c-0.193-0.235-0.44-0.355-0.741-0.355
	c-0.292,0-0.538,0.118-0.734,0.35C10.805,9.703,10.707,10.051,10.707,10.513z"/>
<path fill="#FFFFFF" d="M19.484,12.941h-1.145v-0.684c-0.19,0.267-0.414,0.465-0.674,0.595c-0.258,0.13-0.52,0.194-0.783,0.194
	c-0.535,0-0.993-0.216-1.375-0.646c-0.381-0.433-0.572-1.034-0.572-1.807c0-0.789,0.186-1.389,0.557-1.8
	c0.371-0.41,0.841-0.615,1.408-0.615c0.521,0,0.971,0.216,1.352,0.648V6.512h1.232V12.941z M16.194,10.513
	c0,0.496,0.069,0.855,0.207,1.078c0.199,0.321,0.476,0.482,0.833,0.482c0.283,0,0.524-0.121,0.723-0.361
	c0.199-0.242,0.299-0.602,0.299-1.082c0-0.534-0.097-0.92-0.29-1.154c-0.193-0.235-0.44-0.355-0.741-0.355
	c-0.292,0-0.538,0.118-0.735,0.35C16.293,9.703,16.194,10.051,16.194,10.513z"/>
<path fill="#FFFFFF" d="M4.728,20.129v-6.431H5.96v6.431H4.728z"/>
<path fill="#FFFFFF" d="M7.224,14.839v-1.141h1.233v1.141H7.224z M7.224,20.129v-4.658h1.233v4.658H7.224z"/>
<path fill="#FFFFFF" d="M13.958,20.129h-1.233v-2.377c0-0.504-0.026-0.828-0.079-0.976s-0.138-0.264-0.256-0.346
	c-0.119-0.081-0.261-0.123-0.428-0.123c-0.213,0-0.405,0.061-0.575,0.176c-0.168,0.117-0.285,0.273-0.348,0.467
	c-0.063,0.192-0.095,0.549-0.095,1.07v2.108H9.711v-4.658h1.145v0.685c0.406-0.527,0.918-0.79,1.535-0.79
	c0.272,0,0.52,0.049,0.746,0.147c0.225,0.099,0.395,0.224,0.51,0.374c0.116,0.152,0.197,0.326,0.243,0.52
	c0.045,0.193,0.068,0.469,0.068,0.828V20.129z"/>
<path fill="#FFFFFF" d="M15.163,20.129v-6.431h1.233v3.413l1.443-1.641h1.518l-1.592,1.702l1.707,2.956h-1.329l-1.171-2.091
	l-0.575,0.6v1.491H15.163z"/>
<path fill="#52CAF5" d="M50.061,4.393v18.806h18.803V4.393H50.061z M66.985,21.315H51.94V6.273h15.045V21.315z"/>
<path fill="#52CAF5" d="M62.391,13.772l0.326,2.149l3.24-4.531l-4.404-3.126l0.299,1.954c-2.732,0.12-5.408,1.299-7.34,3.525
	c-2.031,2.346-2.809,5.347-2.406,8.194c0.35-1.658,1.105-3.253,2.293-4.624C56.483,14.909,59.438,13.716,62.391,13.772z"/>
</svg>
