<?xml version="1.0" encoding="utf-8"?>
<!-- Generator: Adobe Illustrator 15.0.0, SVG Export Plug-In  -->
<!DOCTYPE svg PUBLIC "-//W3C//DTD SVG 1.1//EN" "http://www.w3.org/Graphics/SVG/1.1/DTD/svg11.dtd" [
	<!ENTITY ns_flows "http://ns.adobe.com/Flows/1.0/">
]>
<svg version="1.1"
	 xmlns="http://www.w3.org/2000/svg" x="0px" y="0px" width="48px" height="48px" viewBox="-3.037 -3.049 48 48"
	 xml:space="preserve">
<defs>
</defs>
<path d="M2.887,18.212v2.525c0,0.947,0.766,1.712,1.712,1.712H6.45L2.887,18.212z"/>
<path d="M7.651,23.878c0.153,0.514,0.33,1.018,0.535,1.507l-2.179,1.527c-0.774,0.542-0.962,1.61-0.421,2.382l1.663,2.376
	c0.542,0.772,1.609,0.962,2.384,0.421l2.146-1.504c0.751,0.717,1.573,1.354,2.457,1.908l-0.891,2.443
	c-0.323,0.889,0.137,1.871,1.023,2.193l2.723,0.991c0.751,0.273,1.565-0.016,1.996-0.645L7.651,23.878z"/>
<path d="M40.213,16.127h-2.77c-0.219-0.993-0.531-1.947-0.93-2.857l2.291-1.606c0.774-0.542,0.965-1.609,0.422-2.383l-1.662-2.375
	c-0.543-0.775-1.61-0.962-2.385-0.421L32.832,8.13c-0.727-0.667-1.51-1.262-2.352-1.783l0.985-2.711
	c0.325-0.889-0.135-1.87-1.021-2.195L27.721,0.45c-0.89-0.325-1.869,0.135-2.195,1.022l-0.993,2.736
	c-0.696-0.098-1.403-0.166-2.126-0.166c-0.272,0-0.534,0.028-0.801,0.041L20.853,1.27c-0.245-0.914-1.185-1.456-2.098-1.211
	l-2.798,0.752c-0.913,0.242-1.456,1.183-1.211,2.095l0.75,2.79c-0.887,0.446-1.718,0.971-2.494,1.572L10.797,5.42
	c-0.725-0.609-1.801-0.513-2.41,0.211L6.524,7.853C6.368,8.039,6.26,8.248,6.195,8.467l1.932,0.711l0.25,0.092l0.171,0.204
	l21.325,25.464l-0.475-1.771c0.934-0.478,1.812-1.04,2.619-1.688l2,1.676c0.724,0.605,1.805,0.513,2.41-0.213l1.862-2.219
	c0.608-0.725,0.513-1.804-0.21-2.412l-2.034-1.707c0.677-1.289,1.179-2.684,1.47-4.155h2.696c0.946,0,1.714-0.765,1.714-1.712
	v-2.898C41.927,16.893,41.159,16.127,40.213,16.127z M22.407,22.805c-1.943,0-3.518-1.575-3.518-3.518
	c0-1.943,1.575-3.517,3.518-3.517c1.942,0,3.517,1.574,3.517,3.517C25.924,21.229,24.35,22.805,22.407,22.805z"/>
<polygon points="27.546,33.725 27.548,33.724 7.782,10.17 7.782,10.17 7.782,10.17 7.746,10.126 7.722,10.146 4.02,8.779 
	0.842,11.473 1.726,15.178 1.704,15.196 1.74,15.239 1.74,15.24 1.741,15.24 21.469,38.75 21.467,38.751 24.108,41.901 
	30.152,36.832 "/>
<polygon points="2.91,8.401 0,7.218 0.716,10.242 "/>
</svg>
