<?xml version="1.0" encoding="utf-8"?>
<svg version="1.1"
	 xmlns="http://www.w3.org/2000/svg" xmlns:xlink="http://www.w3.org/1999/xlink"
	 x="0px" y="0px" width="20px" height="15px" viewBox="0 0 20 15">
<defs>
</defs>
<rect x="4.005" width="1" height="1.011"/>
<rect x="4.005" y="2" width="1" height="1.011"/>
<rect x="4.005" y="4" width="1" height="1.011"/>
<rect x="4.005" y="6" width="1" height="1.011"/>
<rect x="4.005" y="8" width="1" height="1.011"/>
<rect x="4.005" y="12" width="1" height="1.011"/>
<rect x="4.005" y="13.989" width="1" height="1.011"/>
<rect x="7.005" y="10" width="1" height="1.011"/>
<rect x="9.005" y="10" width="1" height="1.011"/>
<rect x="11.006" y="10" width="1" height="1.011"/>
<rect x="13.006" y="10" width="1" height="1.011"/>
<rect x="15.006" y="10" width="1" height="1.011"/>
<rect x="17.006" y="10" width="1" height="1.011"/>
<rect x="19" y="10" width="1" height="1.011"/>
<rect x="4.005" y="10" width="2" height="1.011"/>
</svg>
