<?xml version="1.0" encoding="utf-8"?>
<!DOCTYPE svg PUBLIC "-//W3C//DTD SVG 1.1//EN" "http://www.w3.org/Graphics/SVG/1.1/DTD/svg11.dtd" [
	<!ENTITY ns_flows "http://ns.adobe.com/Flows/1.0/">
]>
<svg version="1.1"
	 xmlns="http://www.w3.org/2000/svg" x="0px" y="0px" width="48px" height="48px" viewBox="-2.863 -4.603 48 48">
<defs>
</defs>
<path d="M39.24,0H3.033C1.358,0,0,1.343,0,3v8.91c0,1.657,1.358,3,3.033,3h2.47c1.535-1.813,3.557-3.033,5.744-3.595
	c-0.339-0.411-0.516-1.033-0.516-1.932V6.581H9.82V5.012h0.911V3.737l2.087-0.574v1.85h1.528v1.569h-1.528v2.479
	c0,0.827,0.21,1.205,0.841,1.205c0.294,0,0.435-0.014,0.631-0.056l0.007,0.757c0.672,0.018,1.345,0.093,2.012,0.236
	c-0.283-0.411-0.434-0.998-0.434-1.82V6.581h-0.91V5.012h0.91V3.737l2.088-0.574v1.85h1.527v1.569h-1.527v2.479
	c0,0.827,0.209,1.205,0.84,1.205c0.294,0,0.435-0.014,0.631-0.056l0.014,1.61c-0.181,0.066-0.482,0.125-0.838,0.157
	c0.566,0.261,1.122,0.562,1.656,0.928c0.14,0.095,0.267,0.201,0.401,0.301V5.013h1.85l0.098,0.952h0.027
	c0.504-0.715,1.291-1.106,2.285-1.106c1.498,0,2.844,1.303,2.844,3.488c0,2.494-1.584,3.671-3.11,3.671
	c-0.825,0-1.472-0.336-1.779-0.784h-0.028L22.85,14.91H39.24c1.676,0,3.033-1.343,3.033-3V3C42.273,1.343,40.916,0,39.24,0z
	 M8.807,11.863h-2.13v-3.77c0-0.896-0.308-1.513-1.106-1.513c-0.562,0-0.912,0.364-1.066,0.757C4.45,7.463,4.436,7.646,4.436,7.801
	v4.063h-2.13V1.916h2.13v3.922h0.027C4.688,5.53,4.968,5.292,5.304,5.124c0.323-0.168,0.715-0.266,1.107-0.266
	c1.359,0,2.396,0.938,2.396,3.012V11.863z M30.198,12.016c-0.728,0.001-1.231-0.545-1.231-1.274c0-0.757,0.52-1.289,1.246-1.289
	c0.742,0,1.232,0.518,1.247,1.289C31.46,11.471,30.971,12.016,30.198,12.016z M30.198,7.491c-0.728,0-1.231-0.546-1.231-1.275
	c0-0.756,0.52-1.288,1.246-1.288c0.742,0,1.232,0.518,1.247,1.288C31.46,6.945,30.971,7.491,30.198,7.491z M33.535,12.409h-1.414
	l2.998-10.157h1.415L33.535,12.409z M38.176,12.409H36.76l2.998-10.157h1.415L38.176,12.409z"/>
<path d="M36.488,36.105l-14.055-9.291c2.535-4.43,1.205-9.997-2.982-12.836c-4.493-3.083-10.534-1.826-13.515,2.635
	c-2.98,4.46-1.723,10.5,2.705,13.377c3.75,2.529,8.659,1.975,11.825-0.848l14.222,9.463c0.576,0.377,1.531,0.187,1.982-0.523
	C37.121,37.374,37.063,36.486,36.488,36.105 M10.166,27.693c-3.176-2.149-4.112-6.485-1.964-9.659
	c2.148-3.175,6.485-4.111,9.66-1.962c3.175,2.147,4.113,6.48,1.961,9.658C17.709,29.009,13.342,29.842,10.166,27.693"/>
<ellipse cx="24.545" cy="8.436" rx="1.387" ry="1.717"/>
</svg>
