<?xml version="1.0" encoding="utf-8"?>
<!DOCTYPE svg PUBLIC "-//W3C//DTD SVG 1.1//EN" "http://www.w3.org/Graphics/SVG/1.1/DTD/svg11.dtd" [
	<!ENTITY ns_flows "http://ns.adobe.com/Flows/1.0/">
]>
<svg version="1.1"
	 xmlns="http://www.w3.org/2000/svg" x="0px" y="0px" width="48px" height="48px" viewBox="-1.964 -5.132 48 48">
<defs>
</defs>
<path d="M38.096,26.661v-6.883h-0.002v-0.178H23.108v-3.44h8.59V0H11.704v16.16h9.618v3.44H6.126v0.178v1.606v5.276H0v11.075h13.705
	V26.661H7.909v-5.276h28.401v5.276h-5.941v11.075h13.703V26.661H38.096z M13.593,1.784h16.378v12.424H13.593V1.784z M11.876,35.909
	L11.876,35.909H1.941v-7.536h9.935V35.909z M42.243,35.909h-9.935v-7.536h9.935V35.909z"/>
<path d="M27.891,10.799c0.228-0.502,0.002-1.087-0.496-1.311l-4.981-2.23c-0.092-0.041-0.187-0.049-0.282-0.062
	c0.222-1.547-0.533-3.112-2.031-3.782c-1.813-0.812-3.941,0-4.753,1.813c-0.812,1.812,0,3.941,1.813,4.753
	c1.524,0.682,3.221,0.17,4.221-1.068c0.068,0.058,0.132,0.117,0.219,0.156l1.495,0.668c0.037,0.208,0.139,0.397,0.342,0.489
	c0.013,0.004,0.021-0.002,0.033,0.001c-0.029,0.276,0.072,0.557,0.34,0.676c0.334,0.149,0.723,0.001,0.872-0.332
	c0.019-0.041-0.006-0.079,0.004-0.122l0.888,0.396c-0.019,0.027-0.054,0.032-0.065,0.063c-0.148,0.334,0,0.723,0.332,0.872
	c0.335,0.149,0.723,0.001,0.872-0.332c0.019-0.041-0.003-0.079,0.006-0.118C27.184,11.463,27.688,11.253,27.891,10.799z
	 M17.381,7.36c-0.582-0.261-0.843-0.946-0.582-1.528c0.262-0.584,0.947-0.847,1.53-0.585c0.583,0.261,0.843,0.946,0.582,1.531
	C18.65,7.36,17.966,7.622,17.381,7.36z"/>
</svg>
