<?xml version="1.0" encoding="utf-8"?>
<!-- Generator: Adobe Illustrator 15.0.0, SVG Export Plug-In  -->
<!DOCTYPE svg PUBLIC "-//W3C//DTD SVG 1.1//EN" "http://www.w3.org/Graphics/SVG/1.1/DTD/svg11.dtd" [
	<!ENTITY ns_flows "http://ns.adobe.com/Flows/1.0/">
]>
<svg version="1.1"
	 xmlns="http://www.w3.org/2000/svg" x="0px" y="0px" width="48px" height="48px" viewBox="-1.957 -4.003 48 48"
	 xml:space="preserve">
<defs>
</defs>
<path d="M0,20.986v19.008h44.086V20.986H0z M22.453,34.3v3.146h-1.23V34.3c-0.463-0.228-0.79-0.696-0.79-1.248
	c0-0.778,0.629-1.403,1.405-1.403c0.775,0,1.405,0.625,1.405,1.403C23.243,33.604,22.918,34.07,22.453,34.3z"/>
<path d="M14.404,0c2.639,1.632,4.403,4.543,4.403,7.874c0,5.115-4.147,9.262-9.262,9.262s-9.262-4.147-9.262-9.262
	c0-3.331,1.764-6.242,4.403-7.874H0v20.045h44.086V0H14.404z M22.453,14.435v3.143h-1.23v-3.142c-0.463-0.229-0.79-0.697-0.79-1.251
	c0-0.777,0.629-1.405,1.405-1.405c0.775,0,1.405,0.629,1.405,1.405C23.243,13.739,22.918,14.206,22.453,14.435z"/>
<path d="M16.97,7.691c0-0.598-0.483-1.081-1.079-1.081H9.956c-0.109,0-0.207,0.033-0.305,0.063C9.181,5.039,7.738,3.82,5.954,3.82
	c-2.161,0-3.911,1.753-3.911,3.912c0,2.162,1.75,3.913,3.911,3.913c1.814,0,3.272-1.26,3.715-2.934
	c0.093,0.026,0.186,0.056,0.287,0.056h1.78c0.129,0.188,0.313,0.332,0.557,0.332c0.013,0,0.021-0.013,0.034-0.014
	c0.093,0.287,0.316,0.521,0.636,0.521c0.398,0,0.721-0.322,0.721-0.719c0-0.046-0.043-0.073-0.051-0.12h1.055
	c-0.005,0.035-0.037,0.054-0.037,0.09c0,0.398,0.323,0.719,0.719,0.719c0.397,0,0.718-0.321,0.718-0.719
	c0-0.045-0.039-0.076-0.047-0.12C16.562,8.663,16.97,8.233,16.97,7.691z M5.01,8.947c-0.693,0-1.257-0.563-1.257-1.256
	c0-0.697,0.563-1.26,1.257-1.26c0.695,0,1.259,0.562,1.259,1.26C6.269,8.384,5.706,8.947,5.01,8.947z"/>
</svg>
