<?xml version="1.0" encoding="utf-8"?>
<svg version="1.1"
	 xmlns="http://www.w3.org/2000/svg" xmlns:xlink="http://www.w3.org/1999/xlink"
	 x="0px" y="0px" width="48px" height="48px" viewBox="-2 -9.7 48 48">
<defs>
</defs>
<path fill="#52CAF5" d="M43.9,19.1c0,2.6-2.1,4.8-4.8,4.8H4.8c-2.6,0-4.8-2.1-4.8-4.8v-4c0-2.6,2.1-4.8,4.8-4.8h34.3
	c2.6,0,4.8,2.1,4.8,4.8V19.1z"/>
<text transform="matrix(1 0 0 1 3.7446 19.4531)"><tspan x="0" y="0" fill="#FFFFFF" font-family="'MyriadPro-Bold'" font-size="6.1905">192.67.12.</tspan><tspan x="28.9" y="0" fill="#FFFFFF" font-family="'MyriadPro-Bold'" font-size="6.1905">X</tspan><tspan x="32.6" y="0" fill="#FFFFFF" font-family="'MyriadPro-Bold'" font-size="6.1905">X</tspan></text>
<path fill="#F79523" d="M21.8,0C13.2,0,6.3,6.9,6.3,15.5C6.3,24,13.2,31,21.8,31c8.5,0,15.5-6.9,15.5-15.5C37.2,6.9,30.3,0,21.8,0
	 M10.9,15.5c0-2.3,0.7-4.4,1.9-6.2l13.4,16c-1.4,0.6-2.9,1-4.5,1C15.8,26.3,10.9,21.5,10.9,15.5 M30.2,22.3L16.5,6
	c1.6-0.9,3.4-1.4,5.3-1.4c6,0,10.8,4.9,10.8,10.8C32.6,18.1,31.7,20.5,30.2,22.3"/>
<path fill="#C8691C" d="M21.8,0c-0.1,0-0.3,0-0.4,0v4.6c0.1,0,0.3,0,0.4,0c6,0,10.8,4.9,10.8,10.8c0,2.6-0.9,5-2.4,6.9l-8.8-10.5
	v7.5l5,5.9c-1.4,0.6-2.9,1-4.5,1c-0.1,0-0.3,0-0.4,0v4.6c0.1,0,0.3,0,0.4,0c8.5,0,15.5-6.9,15.5-15.5C37.2,6.9,30.3,0,21.8,0"/>
</svg>
