<?xml version="1.0" encoding="utf-8"?>
<svg version="1.1"
	 xmlns="http://www.w3.org/2000/svg" xmlns:xlink="http://www.w3.org/1999/xlink"
	 x="0px" y="0px" width="48px" height="48px" viewBox="-3.333 -6.664 48 48">
<defs>
</defs>
<path fill="#3588A6" d="M31.349,20.501c0.046,0.145,0.08,0.29,0.08,0.439c0,2.102-5.014,3.805-11.201,3.805
	c-6.188,0-11.203-1.703-11.203-3.805c0-0.149,0.03-0.295,0.08-0.439C4.256,23.667,0.824,28.828,0,34.829h40.456
	C39.629,28.828,36.199,23.667,31.349,20.501z"/>
<path fill="#3588A6" d="M29.947,10.221c0,5.648-4.348,10.219-9.718,10.219c-5.373,0-9.72-4.571-9.72-10.219
	C10.508,4.576,14.856,0,20.229,0C25.599,0,29.947,4.576,29.947,10.221z"/>
<path fill="#52CAF5" d="M17.267,24.608c-4.748-0.44-8.241-1.916-8.241-3.667c0-0.149,0.03-0.295,0.08-0.439
	C4.256,23.667,0.824,28.828,0,34.829h23.411L17.267,24.608z"/>
<path fill="#F79523" d="M39.27,15.63h-1.262c-0.045,0.726-0.634,1.305-1.371,1.305h-2.773c-0.737,0-1.326-0.579-1.37-1.305h-1.263
	c-1.148,0-2.079,0.931-2.079,2.079v14.773c0,1.148,0.931,2.08,2.079,2.08h8.039c1.148,0,2.079-0.932,2.079-2.08V17.709
	C41.349,16.561,40.418,15.63,39.27,15.63z"/>
<rect x="32.558" y="18.731" fill="#C8691C" width="5.386" height="5.875"/>
<rect x="31.252" y="27.543" fill="#C8691C" width="7.997" height="1.306"/>
<rect x="31.252" y="30.663" fill="#C8691C" width="7.997" height="1.306"/>
</svg>
