<?xml version="1.0" encoding="utf-8"?>
<svg version="1.1"
	 xmlns="http://www.w3.org/2000/svg" xmlns:xlink="http://www.w3.org/1999/xlink"
	 x="0px" y="0px" width="48px" height="48px" viewBox="-9.44 -4.154 48 48">
<defs>
</defs>
<path fill="#F79523" d="M27.167,15h-1.23v-4.624C25.937,4.646,21.29,0,15.56,0S5.183,4.646,5.183,10.376V15h-1.23
	c-1.104,0-2,0.896-2,2v19.379c0,1.104,0.896,2,2,2h23.214c1.104,0,2-0.896,2-2V17C29.167,15.896,28.271,15,27.167,15z M7.63,11.172
	c0-4.567,3.581-8.27,7.998-8.27c4.418,0,8,3.702,8,8.27V15H7.63V11.172z"/>
<path fill="#804000" d="M18.618,24.447c0-1.689-1.369-3.059-3.059-3.059s-3.059,1.369-3.059,3.059c0,0.966,0.457,1.816,1.156,2.377
	v6.253c0,1.052,0.852,1.903,1.902,1.903s1.902-0.852,1.902-1.903v-6.253C18.161,26.264,18.618,25.413,18.618,24.447z"/>
<path fill="#3588A6" d="M9.894,30.813l-2.473-6.91c-0.059-0.166-0.147-0.31-0.248-0.443c1.33-1.139,1.898-3.013,1.273-4.76
	c-0.81-2.262-3.299-3.439-5.561-2.63c-2.262,0.809-3.439,3.299-2.63,5.561c0.61,1.704,2.174,2.79,3.875,2.877
	c0.003,0.18,0.027,0.361,0.091,0.54l0.698,1.949l0.99-0.46l0.175,2.103l-0.511,0.184l0.979,1.527l1.289-0.029l-0.667,0.961
	l0.41,1.645c0.39,0.182,0.847,0.215,1.283,0.059C9.75,32.668,10.21,31.697,9.894,30.813z M2.133,20.02
	c-0.316-0.883,0.144-1.856,1.027-2.172c0.884-0.316,1.856,0.144,2.172,1.027c0.316,0.883-0.144,1.856-1.027,2.172
	S2.45,20.902,2.133,20.02z"/>
<path fill="#52CAF5" d="M5.228,8.34c0,0,1.088,1.496,2.719,0.952L7.63,11.172c0,0-1.722,0.973-2.402-0.114V8.34z"/>
<path fill="#52CAF5" d="M3.161,17.848c0,0,2.203-2.848,2.067-6.79l1.087,0.408c0,0-0.816,4.213-1.767,6.388L3.161,17.848z"/>
<path fill="#C8691C" d="M29.167,36.379V17c0-1.104-0.896-2-2-2h-1.23v-4.624c0-4.995-3.53-9.162-8.23-10.151l0.389,3.083
	c3.21,1.076,5.533,4.188,5.533,7.864V15H19.57l2.951,23.379h4.646C28.271,38.379,29.167,37.483,29.167,36.379z"/>
</svg>
