<?xml version="1.0" encoding="utf-8"?>
<svg version="1.1"
	 xmlns="http://www.w3.org/2000/svg" xmlns:xlink="http://www.w3.org/1999/xlink"
	 x="0px" y="0px" width="48px" height="48px" viewBox="-3 -10 48 48">
<defs>
</defs>
<polygon fill="#52CAF5" points="19,22.5 13.7,24.1 5.8,21.8 5.8,13.1 13.6,8.6 21.5,13.1 21.5,14.7 23.7,13.5 23.7,11.8 13.6,6.1 
	3.6,11.9 3.6,23.5 13.7,26.7 19,24.9 "/>
<polygon fill="#43A4C7" points="19,22.5 13.7,24.1 13.6,24 13.6,26.6 13.7,26.7 19,24.9 "/>
<polygon fill="#3588A6" points="21.5,13.1 21.5,14.7 23.7,13.4 23.7,11.8 13.7,6 13.6,6.1 13.6,8.6 13.7,8.6 "/>
<polygon fill="#3588A6" points="3.6,18.5 0.1,21 3.6,21 "/>
<polygon fill="#3588A6" points="38.4,18.5 41.9,21 38.4,21 "/>
<path fill="#52CAF5" d="M19.5,6.1c0,3.4-2.7,6.1-6.1,6.1S7.2,9.5,7.2,6.1C7.2,2.7,10,0,13.3,0S19.5,2.7,19.5,6.1"/>
<path fill="#3588A6" d="M13.7,0v12.2c3.2-0.2,5.7-2.8,5.7-6.1C19.5,2.9,16.9,0.2,13.7,0"/>
<path fill="#FFFFFF" d="M17.5,6.1c0,2.3-1.8,4.1-4.1,4.1c-2.3,0-4.1-1.8-4.1-4.1c0-2.3,1.8-4.1,4.1-4.1C15.6,2,17.5,3.9,17.5,6.1"/>
<path fill="#F79523" d="M38.3,15.3l-10-5.8l-10,5.8l0,11.6l10,3.2l10-3.3L38.3,15.3z M28.3,27.6l-7.8-2.3v-8.6l7.8-4.5l7.9,4.5v8.6
	L28.3,27.6z"/>
<polygon fill="#C8691C" points="38.4,15.3 28.3,9.5 28.3,9.5 28.3,12.1 28.3,12.1 36.2,16.6 36.2,25.2 28.4,27.6 28.3,27.5 
	28.3,30.1 28.4,30.1 38.4,26.9 "/>
<path fill="#F79523" d="M34.1,9.6c0,3.4-2.7,6.1-6.1,6.1c-3.4,0-6.1-2.7-6.1-6.1c0-3.4,2.7-6.1,6.1-6.1C31.4,3.5,34.1,6.2,34.1,9.6"
	/>
<path fill="#C8691C" d="M28.4,3.5v12.2c3.2-0.2,5.7-2.8,5.7-6.1C34.1,6.4,31.6,3.7,28.4,3.5"/>
<path fill="#FFFFFF" d="M32.1,9.6c0,2.3-1.8,4.1-4.1,4.1c-2.3,0-4.1-1.8-4.1-4.1c0-2.3,1.8-4.1,4.1-4.1C30.3,5.5,32.1,7.3,32.1,9.6"
	/>
<rect y="21" fill="#84D5F7" width="41.2" height="6.1"/>
<rect x="20.2" y="21" fill="#52CAF5" width="21.7" height="6.1"/>
</svg>
