<?xml version="1.0" encoding="utf-8"?>
<!DOCTYPE svg PUBLIC "-//W3C//DTD SVG 1.1//EN" "http://www.w3.org/Graphics/SVG/1.1/DTD/svg11.dtd" [
	<!ENTITY ns_flows "http://ns.adobe.com/Flows/1.0/">
]>
<svg version="1.1"
	 xmlns="http://www.w3.org/2000/svg" x="0px" y="0px" width="48px" height="48px" viewBox="-2.112 -5.817 48 48">
<defs>
</defs>
<path id="Amazon_2_" d="M40.899,34.414c1.991-1.687,2.832-4.744,2.877-6.342v-0.267c0-0.356-0.089-0.621-0.176-0.754
	c-0.398-0.486-3.324-0.933-5.844-0.179c-0.709,0.224-1.331,0.533-1.905,0.933c-0.44,0.312-0.354,0.707,0.089,0.664
	c0.485-0.091,1.107-0.134,1.816-0.226c1.549-0.129,3.363-0.174,3.807,0.402c0.617,0.75-0.709,4.035-1.285,5.453
	C40.102,34.545,40.499,34.725,40.899,34.414L40.899,34.414z M0.221,28.072c5.709,5.189,13.234,8.293,21.646,8.293
	c5.223,0,11.243-1.465,15.891-4.258c0.62-0.355,1.237-0.754,1.813-1.199c0.797-0.572,0.09-1.463-0.709-1.108
	c-0.353,0.133-0.752,0.313-1.104,0.444c-5.095,1.996-10.446,2.931-15.405,2.931c-7.88,0-15.492-2.177-21.646-5.767
	C0.131,27.098-0.27,27.672,0.221,28.072L0.221,28.072z"/>
<path id="Amazon_1_" d="M25.891,10.284c-1.061,0.084-2.283,0.165-3.504,0.329c-1.874,0.241-3.747,0.571-5.295,1.303
	c-3.014,1.228-5.053,3.836-5.053,7.674c0,4.816,3.098,7.262,7.008,7.262c1.306,0,2.364-0.16,3.34-0.406
	c1.548-0.49,2.852-1.387,4.401-3.02c0.896,1.225,1.139,1.797,2.688,3.102c0.408,0.164,0.816,0.164,1.141-0.082
	c0.978-0.816,2.688-2.283,3.586-3.1c0.406-0.33,0.324-0.818,0.082-1.227c-0.897-1.144-1.793-2.123-1.793-4.324v-7.347
	c0-3.104,0.242-5.959-2.037-8.079C28.579,0.652,25.644,0,23.366,0c-0.328,0-0.651,0-0.979,0c-4.155,0.246-8.555,2.04-9.534,7.183
	c-0.161,0.651,0.329,0.896,0.655,0.98l4.561,0.572c0.489-0.084,0.733-0.492,0.813-0.901c0.409-1.794,1.876-2.689,3.505-2.854
	c0.082,0,0.164,0,0.328,0c0.975,0,2.032,0.41,2.606,1.222c0.647,0.981,0.569,2.288,0.569,3.431L25.891,10.284L25.891,10.284
	L25.891,10.284z M25.891,15.021c0,1.878,0.079,3.346-0.896,4.976c-0.57,1.143-1.547,1.877-2.608,2.123
	c-0.161,0-0.404,0.084-0.65,0.084c-1.792,0-2.855-1.39-2.855-3.431c0-2.61,1.549-3.835,3.505-4.407
	c1.061-0.246,2.283-0.327,3.503-0.327L25.891,15.021L25.891,15.021L25.891,15.021z"/>
</svg>
