<?xml version="1.0" encoding="utf-8"?>
<!-- Generator: Adobe Illustrator 15.0.0, SVG Export Plug-In  -->
<!DOCTYPE svg PUBLIC "-//W3C//DTD SVG 1.1//EN" "http://www.w3.org/Graphics/SVG/1.1/DTD/svg11.dtd" [
	<!ENTITY ns_flows "http://ns.adobe.com/Flows/1.0/">
]>
<svg version="1.1"
	 xmlns="http://www.w3.org/2000/svg" x="0px" y="0px" width="48px" height="48px" viewBox="-4.304 -2.643 48 48">
<defs>
</defs>
<path id="Baidu_2_" d="M9.735,15.941c0.254,3.63-1.713,6.727-4.397,6.915c-2.682,0.188-5.062-2.604-5.315-6.233
	c-0.255-3.632,1.714-6.728,4.396-6.916C7.1,9.519,9.482,12.31,9.735,15.941L9.735,15.941z M28.209,0.89
	c-2.604-0.665-5.445,1.654-6.342,5.184c-0.898,3.526,0.485,6.925,3.092,7.59c2.605,0.664,5.446-1.656,6.344-5.183
	C32.469,3.89,28.834,1.047,28.209,0.89z M34.319,12.779c-2.74,0.04-4.915,2.646-4.855,6.686c0.062,4.037,2.328,5.879,5.07,5.838
	c2.74-0.039,4.916-1.946,4.857-5.985C39.312,14.061,34.977,12.77,34.319,12.779L34.319,12.779z M14.458,0
	C11.85,0,9.736,2.924,9.736,6.528c0,3.604,2.114,6.527,4.723,6.527s4.724-2.924,4.724-6.527C19.182,2.924,17.067,0,14.458,0z
	 M13.855,20.275c-1.508,2.163-3.216,4.277-6.531,7.043c-3.317,2.768-4.725,4.68-4.725,7.497s1.608,7.497,6.181,7.497
	c4.571,0,6.783-1.007,10.4-1.007c3.619,0,6.031,1.409,10.604,1.409c4.571,0,6.479-4.327,6.479-7.146
	c0-2.817-0.791-4.412-4.455-7.626c-2.348-2.063-4.338-3.744-7.451-8.071c-1.541-2.14-3.316-2.415-5.177-2.415
	C17.322,17.458,15.363,18.112,13.855,20.275z"/>
</svg>
