<?xml version="1.0" encoding="utf-8"?>
<!-- Generator: Adobe Illustrator 15.0.0, SVG Export Plug-In  -->
<!DOCTYPE svg PUBLIC "-//W3C//DTD SVG 1.1//EN" "http://www.w3.org/Graphics/SVG/1.1/DTD/svg11.dtd" [
	<!ENTITY ns_flows "http://ns.adobe.com/Flows/1.0/">
]>
<svg version="1.1"
	 xmlns="http://www.w3.org/2000/svg" x="0px" y="0px" width="48px" height="48px" viewBox="-2.31 -10.858 48 48"
	 xml:space="preserve">
<path d="M10.317,24.447h-0.054v1.723H8.065V8.834L0,26.285h12.45C11.264,25.849,10.659,24.998,10.317,24.447z"/>
<path d="M14.077,24.552c2.543,0,3.734-2.305,3.734-5.35c0-1.773-0.185-5.19-3.787-5.19
	c-3.364,0-3.734,3.627-3.734,5.88C10.29,23.574,12.594,24.552,14.077,24.552z"/>
<path d="M16.029,26.285h9.927c-2.695-0.822-4.239-3.385-4.239-6.658c0-4.289,2.065-7.707,6.647-7.707
	c3.628,0,5.006,2.649,5.189,5.059h-2.252c-0.289-1.854-1.322-2.966-3.283-2.966c-2.887,0-3.813,2.754-3.813,5.218
	c0,2.384,0.582,5.322,3.787,5.322c1.563,0,2.912-1.165,3.309-3.283h2.248L43.379,0H12.148L8.843,7.151h1.553v6.914h0.053
	c1.007-1.456,2.383-2.119,4-2.146c3.682,0,5.772,3.021,5.772,6.913C20.221,21.647,19.225,25.264,16.029,26.285z"/>
<path d="M29.852,26.285h1.38l0.504-1.092C31.238,25.66,30.617,26.042,29.852,26.285z"/>
</svg>
