<?xml version="1.0" encoding="utf-8"?>
<!-- Generator: Adobe Illustrator 15.0.0, SVG Export Plug-In  -->
<!DOCTYPE svg PUBLIC "-//W3C//DTD SVG 1.1//EN" "http://www.w3.org/Graphics/SVG/1.1/DTD/svg11.dtd" [
	<!ENTITY ns_flows "http://ns.adobe.com/Flows/1.0/">
]>
<svg version="1.1"
	 xmlns="http://www.w3.org/2000/svg" x="0px" y="0px" width="48px" height="48px" viewBox="-2.233 -2.233 48 48">
<defs>
</defs>
<path d="M21.764,0C9.745,0,0,9.741,0,21.764c0,12.021,9.745,21.771,21.764,21.771c12.021,0,21.771-9.75,21.771-21.771
	C43.535,9.742,33.785,0,21.764,0z M19.899,8.502l3.179,0.604l-0.58,3.083l2.043,0.386l0.582-3.089l3.179,0.592l-0.62,3.307
	c0.454,0.18,0.87,0.363,1.195,0.587c0.854,0.567,1.476,1.245,1.85,2.05c0.369,0.806,0.466,1.637,0.303,2.486
	c-0.115,0.614-0.357,1.182-0.727,1.698c-0.367,0.502-0.844,0.924-1.426,1.257c-0.578,0.329-1.305,0.559-2.174,0.688
	c0.832,0.384,1.465,0.759,1.879,1.116c0.6,0.505,1.035,1.13,1.307,1.889c0.268,0.746,0.32,1.535,0.168,2.375
	c-0.188,1-0.659,1.86-1.413,2.573c-0.758,0.737-1.731,1.222-2.91,1.447c-0.437,0.077-0.93,0.127-1.476,0.134l-0.633,3.348
	l-3.177-0.586l0.581-3.096c-0.081-0.025-0.154-0.031-0.235-0.045l-1.814-0.336l-0.575,3.089l-3.18-0.591l0.576-3.096l-4.849-0.91
	l0.485-2.598l0.743,0.139c0.494,0.1,0.834,0.123,1.028,0.058c0.193-0.052,0.332-0.151,0.436-0.291
	c0.106-0.144,0.208-0.492,0.308-1.033l1.955-10.47c0.106-0.549,0.139-0.915,0.095-1.083c-0.044-0.169-0.146-0.317-0.308-0.431
	c-0.153-0.128-0.483-0.241-0.978-0.318l-0.743-0.151l0.486-2.597l4.854,0.916L19.899,8.502L19.899,8.502z M20.759,14.994
	l-0.855,4.575l2.062,0.391c1.072,0.198,1.889,0.252,2.441,0.168c0.549-0.077,0.979-0.277,1.313-0.592
	c0.318-0.308,0.537-0.71,0.625-1.189c0.096-0.495,0.053-0.936-0.135-1.331c-0.176-0.388-0.485-0.696-0.932-0.948
	c-0.438-0.231-1.25-0.464-2.46-0.688L20.759,14.994L20.759,14.994z M19.39,22.345l-0.754,4.061c-0.092,0.567-0.14,0.922-0.128,1.019
	c0.021,0.135,0.081,0.237,0.173,0.302c0.099,0.064,0.368,0.15,0.826,0.229l1.369,0.264c0.801,0.143,1.475,0.197,2.028,0.145
	c0.553-0.052,1.057-0.275,1.514-0.675c0.451-0.403,0.738-0.923,0.867-1.581c0.094-0.554,0.058-1.045-0.129-1.48
	c-0.195-0.433-0.522-0.801-1.007-1.096c-0.483-0.291-1.255-0.529-2.324-0.731L19.39,22.345L19.39,22.345z"/>
</svg>
