<?xml version="1.0" encoding="utf-8"?>
<!-- Generator: Adobe Illustrator 15.0.0, SVG Export Plug-In  -->
<!DOCTYPE svg PUBLIC "-//W3C//DTD SVG 1.1//EN" "http://www.w3.org/Graphics/SVG/1.1/DTD/svg11.dtd" [
	<!ENTITY ns_flows "http://ns.adobe.com/Flows/1.0/">
]>
<svg version="1.1"
	 xmlns="http://www.w3.org/2000/svg" xmlns:xlink="http://www.w3.org/1999/xlink" xmlns:a="http://ns.adobe.com/AdobeSVGViewerExtensions/3.0/"
	 x="0px" y="0px" width="48px" height="48px" viewBox="-4.569 -1.723 48 48"
	 xml:space="preserve">
<defs>
</defs>
<path d="M38.861,19.431C38.861,8.699,30.161,0,19.431,0C8.699,0,0,8.699,0,19.431c0,10.731,8.699,19.43,19.431,19.43
	c0.589,0,1.169-0.036,1.748-0.088l12.896,5.781l-4.029-8.859C35.352,32.225,38.861,26.242,38.861,19.431z M19.431,6.755
	c3.285,0,5.948,2.801,5.948,6.255c0,3.455-2.663,6.255-5.948,6.255c-3.285,0-5.948-2.801-5.948-6.255
	C13.483,9.556,16.146,6.755,19.431,6.755z M7.052,28.068c0.504-3.676,2.606-6.833,5.573-8.768c-0.029,0.089-0.05,0.176-0.05,0.267
	c0,1.286,3.069,2.332,6.854,2.332c3.787,0,6.854-1.046,6.854-2.332c0-0.091-0.021-0.178-0.049-0.267
	c2.968,1.935,5.068,5.092,5.572,8.768H7.052z"/>
</svg>
