<?xml version="1.0" encoding="utf-8"?>
<svg version="1.1"
	 xmlns="http://www.w3.org/2000/svg" x="0px" y="0px" width="48px" height="48px" viewBox="-7.616 -2.725 48 48">
<defs>
</defs>
<path id="Dailymotion_1_" d="M23.675,1.941v13.166c0,0-3.389-4.717-10.12-3.687c-2.903,0.443-5.818,1.662-8.058,3.582
	c-1.744,1.495-3.278,3.295-4.21,5.41c-0.555,1.261-0.993,2.716-1.161,4.087c-0.677,5.514,1.375,11.814,6.039,15.09
	c1.33,0.935,3.023,1.912,4.592,2.363c3.019,0.869,6.313,0.822,9.246-0.344c0.798-0.318,1.546-0.748,2.244-1.248
	c0.294-0.211,1.783-1.146,1.783-1.502l-0.014,3.469l8.752-0.018V0L23.675,1.941z M16.509,34.501c-4.209,0-7.623-3.414-7.623-7.625
	s3.414-7.625,7.623-7.625c4.211,0,7.625,3.415,7.625,7.625S20.72,34.501,16.509,34.501z"/>
</svg>
