<?xml version="1.0" encoding="utf-8"?>
<!-- Generator: Adobe Illustrator 15.0.0, SVG Export Plug-In  -->
<!DOCTYPE svg PUBLIC "-//W3C//DTD SVG 1.1//EN" "http://www.w3.org/Graphics/SVG/1.1/DTD/svg11.dtd" [
	<!ENTITY ns_flows "http://ns.adobe.com/Flows/1.0/">
]>
<svg version="1.1"
	 xmlns="http://www.w3.org/2000/svg" xmlns:xlink="http://www.w3.org/1999/xlink" xmlns:a="http://ns.adobe.com/AdobeSVGViewerExtensions/3.0/"
	 x="0px" y="0px" width="48px" height="48px" viewBox="-1.148 -7.688 48 48"
	 xml:space="preserve">
<defs>
</defs>
<path d="M29.1,0.001l-0.548,0.626c6.657,1.997,9.752,4.936,9.752,4.936c-4.074-2.192-8.067-3.29-11.788-3.722
	c-2.82-0.313-5.522-0.233-7.911,0.079c-0.235,0-0.432,0.039-0.666,0.078c-1.371,0.156-4.7,0.626-8.891,2.467
	C7.599,5.093,6.737,5.563,6.737,5.563s3.211-3.094,10.26-5.091l-0.392-0.471c0,0-0.021-0.001-0.062-0.001
	C15.938,0.003,10.927,0.146,5.64,4.073c0,0-5.64,10.145-5.64,22.638c0,0,3.289,5.639,11.944,5.912c0,0,1.449-1.723,2.624-3.211
	c-4.974-1.488-6.854-4.582-6.854-4.582s0.393,0.274,1.098,0.666c0.039,0,0.079,0.039,0.155,0.078
	c0.118,0.078,0.235,0.116,0.354,0.195c0.979,0.548,1.958,0.979,2.859,1.332c1.604,0.666,3.524,1.253,5.757,1.684
	c2.937,0.551,6.384,0.744,10.144,0.041c1.84-0.354,3.721-0.863,5.68-1.687c1.369-0.509,2.896-1.253,4.503-2.312
	c0,0-1.958,3.174-7.089,4.623c1.176,1.448,2.586,3.133,2.586,3.133c8.654-0.273,11.943-5.914,11.943-5.875
	c0-12.493-5.639-22.637-5.639-22.637C34.465-0.117,29.1,0.001,29.1,0.001z M15.549,23.068c-2.192,0-3.994-1.919-3.994-4.308
	c0-2.39,1.762-4.309,3.994-4.309c2.233,0,4.034,1.919,3.995,4.309C19.543,21.149,17.781,23.068,15.549,23.068z M29.844,23.068
	c-2.192,0-3.994-1.919-3.994-4.308c0-2.39,1.763-4.309,3.994-4.309c2.193,0,3.994,1.919,3.994,4.309
	C33.838,21.149,32.076,23.068,29.844,23.068z"/>
</svg>
