<?xml version="1.0" encoding="utf-8"?>
<svg version="1.1"
	 xmlns="http://www.w3.org/2000/svg" x="0px" y="0px" width="100px" height="100px" viewBox="-4.938 -9.807 100 100">
<defs>
</defs>
<path d="M43.978,80.387L18.104,64.453v-4.885l8.691,4.703l17.181-14.119v30.234H43.978L43.978,80.387z M1.271,46.532l15.567-13.216
	l25.348,15.388L27.161,61.741L1.271,46.532z M17.02,30.6L0,16.656L26.979,0l16.997,14.122L17.02,30.6z M72.021,64.453L46.149,80.387
	V50.152l17.184,14.119l8.688-4.703V64.453L72.021,64.453z M62.975,61.741l-15.03-13.037l25.342-15.388l15.573,13.216L62.975,61.741z
	 M73.107,30.6L46.149,14.122L63.15,0.006l26.973,16.653L73.107,30.6z"/>
</svg>
