<?xml version="1.0" encoding="utf-8"?>
<!-- Generator: Adobe Illustrator 15.0.0, SVG Export Plug-In  -->
<!DOCTYPE svg PUBLIC "-//W3C//DTD SVG 1.1//EN" "http://www.w3.org/Graphics/SVG/1.1/DTD/svg11.dtd" [
	<!ENTITY ns_flows "http://ns.adobe.com/Flows/1.0/">
]>
<svg version="1.1"
	 xmlns="http://www.w3.org/2000/svg" xmlns:xlink="http://www.w3.org/1999/xlink" xmlns:a="http://ns.adobe.com/AdobeSVGViewerExtensions/3.0/"
	 x="0px" y="0px" width="48px" height="48px" viewBox="-2.794 -2.872 48 48"
	 xml:space="preserve">
<defs>
</defs>
<path d="M39.946,9.65c-1.646-3.085-3.933-5.466-6.864-7.139C30.15,0.838,26.827,0.001,23.113,0H0.32l12.214,7.053h10.582
	c3.423,0,6.025,1.106,7.806,3.323c1.781,2.216,2.67,5.471,2.67,9.766v2.233c-0.037,4.142-0.959,7.323-2.758,9.547
	c-1.798,2.227-4.399,3.338-7.808,3.34H12.115L0,42.256h23.201c3.695-0.02,7.012-0.871,9.954-2.555
	c2.94-1.683,5.22-4.054,6.834-7.109c1.614-3.057,2.423-6.549,2.423-10.478v-1.942C42.412,16.243,41.59,12.736,39.946,9.65z"/>
<polygon points="24.861,21.144 0.229,6.921 0.229,35.365 "/>
</svg>
