<?xml version="1.0" encoding="utf-8"?>
<!-- Generator: Adobe Illustrator 15.0.0, SVG Export Plug-In  -->
<!DOCTYPE svg PUBLIC "-//W3C//DTD SVG 1.1//EN" "http://www.w3.org/Graphics/SVG/1.1/DTD/svg11.dtd" [
	<!ENTITY ns_flows "http://ns.adobe.com/Flows/1.0/">
]>
<svg version="1.1"
	 xmlns="http://www.w3.org/2000/svg" x="0px" y="0px" width="48px" height="48px" viewBox="-3.467 -3.467 48 48"
	 xml:space="preserve">
<defs>
</defs>
<path d="M20.533,0C9.193,0,0,9.193,0,20.533c0,11.34,9.193,20.533,20.533,20.533c11.34,0,20.533-9.193,20.533-20.533
	C41.066,9.193,31.873,0,20.533,0z M25.68,12.861l-2.561,0.021c0,0-0.668-0.098-0.811,0.045c-0.152,0.154-0.086,0.788-0.086,0.788
	v3.392l2.58-0.001l-0.019,3.174h-2.563v11.405h-4.225V20.261h-2.558l-0.046-3.13h2.604v-4.486c0,0,0.017-1.514,0.851-2.349
	c0.973-0.971,3.249-0.892,3.249-0.892h3.584V12.861z"/>
</svg>
