<?xml version="1.0" encoding="utf-8"?>
<svg version="1.1"
	 xmlns="http://www.w3.org/2000/svg" x="0px" y="0px" width="48px" height="48px" viewBox="-2.596 -2.608 48 48">
<defs>
</defs>
<path d="M9.435,28.953V18.808c0-7.688,1.638-9.518,9.325-9.518h1.968v7.042c0,0,0.071,0.45,0.545,0.459
	c0.374,0.008,0.923-0.571,0.923-0.571L38.667,0H13.34C5.652,0,0,5.846,0,13.533v24.723L9.435,28.953z"/>
<path d="M33.375,13.833v10.144c0,7.688-1.64,9.519-9.324,9.519h-1.97v-7.043c0,0-0.071-0.449-0.546-0.459
	c-0.373-0.01-0.923,0.568-0.923,0.568L4.142,42.783h25.327c7.688,0,13.34-5.846,13.34-13.531V4.526L33.375,13.833z"/>
</svg>
