<?xml version="1.0" encoding="utf-8"?>
<!-- Generator: Adobe Illustrator 15.0.0, SVG Export Plug-In  -->
<!DOCTYPE svg PUBLIC "-//W3C//DTD SVG 1.1//EN" "http://www.w3.org/Graphics/SVG/1.1/DTD/svg11.dtd" [
	<!ENTITY ns_flows "http://ns.adobe.com/Flows/1.0/">
]>
<svg version="1.1"
	 xmlns="http://www.w3.org/2000/svg" x="0px" y="0px" width="100px" height="100px" viewBox="-6.144 -7.218 100 100">
<defs>
</defs>
<path d="M81.827,21.841c-3.922-6.719-9.24-12.039-15.959-15.96C59.147,1.96,51.813,0,43.854,0C35.898,0,28.56,1.96,21.842,5.881
	c-6.719,3.921-12.039,9.241-15.96,15.96C1.961,28.56,0,35.897,0,43.854c0,9.556,2.788,18.147,8.365,25.78
	c5.577,7.633,12.781,12.914,21.613,15.846c1.028,0.191,1.789,0.057,2.284-0.398c0.495-0.457,0.742-1.027,0.742-1.713
	c0-0.113-0.01-1.143-0.029-3.083c-0.02-1.942-0.029-3.636-0.029-5.081l-1.313,0.227c-0.837,0.153-1.894,0.22-3.169,0.201
	s-2.598-0.151-3.968-0.399c-1.371-0.246-2.646-0.817-3.826-1.712c-1.18-0.896-2.017-2.065-2.512-3.512l-0.571-1.313
	c-0.381-0.875-0.98-1.847-1.798-2.912c-0.819-1.065-1.646-1.789-2.484-2.17l-0.4-0.286c-0.266-0.189-0.514-0.419-0.742-0.686
	c-0.228-0.268-0.399-0.532-0.514-0.801c-0.114-0.267-0.02-0.484,0.286-0.656c0.305-0.172,0.856-0.256,1.656-0.256l1.142,0.17
	c0.762,0.153,1.703,0.608,2.827,1.371c1.123,0.762,2.046,1.75,2.77,2.969c0.876,1.562,1.931,2.751,3.169,3.568
	c1.237,0.818,2.484,1.229,3.74,1.229c1.256,0,2.341-0.096,3.255-0.285c0.913-0.189,1.77-0.477,2.569-0.855
	c0.343-2.553,1.275-4.513,2.798-5.883c-2.17-0.229-4.121-0.57-5.853-1.027c-1.731-0.457-3.521-1.199-5.367-2.229
	c-1.847-1.026-3.379-2.303-4.597-3.825c-1.218-1.521-2.218-3.521-2.998-5.994c-0.78-2.476-1.17-5.33-1.17-8.565
	c0-4.607,1.504-8.527,4.511-11.764c-1.409-3.463-1.275-7.346,0.399-11.648c1.104-0.343,2.741-0.085,4.911,0.771
	c2.17,0.856,3.759,1.59,4.768,2.199c1.009,0.608,1.818,1.124,2.427,1.542c3.541-0.989,7.195-1.484,10.964-1.484
	c3.77,0,7.424,0.495,10.965,1.484l2.17-1.37c1.484-0.914,3.236-1.752,5.252-2.513c2.02-0.761,3.563-0.971,4.627-0.627
	c1.713,4.302,1.865,8.184,0.457,11.648c3.006,3.236,4.512,7.157,4.512,11.763c0,3.236-0.393,6.099-1.172,8.593
	s-1.787,4.491-3.023,5.996c-1.238,1.504-2.781,2.771-4.627,3.797c-1.848,1.028-3.637,1.771-5.367,2.228
	c-1.732,0.457-3.684,0.802-5.854,1.029c1.979,1.713,2.969,4.416,2.969,8.107v12.048c0,0.685,0.238,1.255,0.715,1.712
	c0.477,0.456,1.227,0.59,2.256,0.398c8.832-2.93,16.037-8.213,21.613-15.846c5.574-7.632,8.363-16.226,8.363-25.78
	C87.708,35.897,85.747,28.56,81.827,21.841z"/>
</svg>
