<?xml version="1.0" encoding="utf-8"?>
<!DOCTYPE svg PUBLIC "-//W3C//DTD SVG 1.1//EN" "http://www.w3.org/Graphics/SVG/1.1/DTD/svg11.dtd" [
	<!ENTITY ns_flows "http://ns.adobe.com/Flows/1.0/">
]>
<svg version="1.1"
	 xmlns="http://www.w3.org/2000/svg" xmlns:xlink="http://www.w3.org/1999/xlink"
	 x="0px" y="0px" width="48px" height="48px" viewBox="-3.467 -3.467 48 48">
<defs>
</defs>
<path d="M20.533,0C9.193,0,0,9.193,0,20.533c0,11.34,9.193,20.533,20.533,20.533c11.34,0,20.533-9.193,20.533-20.533
	C41.066,9.193,31.873,0,20.533,0z"/>
<path id="path50_1_" fill="#FFFFFF" d="M20.536,35.173L20.536,35.173l5.456-16.784H15.082L20.536,35.173L20.536,35.173z"/>
<path id="path66_1_" fill="#FFFFFF" d="M7.438,18.389L7.438,18.389l-1.659,5.099c-0.15,0.463,0.011,0.974,0.408,1.263l14.342,10.422
	L7.438,18.389L7.438,18.389z"/>
<path id="path74_1_" fill="#FFFFFF" d="M7.438,18.389h7.644L11.798,8.28c-0.168-0.516-0.902-0.516-1.077,0L7.438,18.389
	L7.438,18.389z"/>
<path id="path82_1_" fill="#FFFFFF" d="M33.628,18.389L33.628,18.389l1.659,5.099c0.151,0.463-0.012,0.974-0.408,1.263
	L20.536,35.173L33.628,18.389L33.628,18.389z"/>
<path id="path86_1_" fill="#FFFFFF" d="M33.628,18.389h-7.642L29.269,8.28c0.17-0.516,0.903-0.516,1.075,0L33.628,18.389
	L33.628,18.389z"/>
</svg>
