<?xml version="1.0" encoding="utf-8"?>
<!-- Generator: Adobe Illustrator 15.0.0, SVG Export Plug-In  -->
<!DOCTYPE svg PUBLIC "-//W3C//DTD SVG 1.1//EN" "http://www.w3.org/Graphics/SVG/1.1/DTD/svg11.dtd" [
	<!ENTITY ns_flows "http://ns.adobe.com/Flows/1.0/">
]>
<svg version="1.1"
	 xmlns="http://www.w3.org/2000/svg" x="0px" y="0px" width="48px" height="48px" viewBox="-2.648 -10.282 48 48">
<defs>
</defs>
<path d="M15.111,13.838v3.286h7.569c-1.375,3.619-4.862,6.195-8.963,6.195c-5.303,0-9.602-4.299-9.602-9.603
	s4.299-9.603,9.602-9.603c2.289,0,4.386,0.803,6.036,2.138l2.635-3.163C20.025,1.16,17.008,0,13.717,0C6.142,0,0,6.142,0,13.718
	c0,7.575,6.142,13.718,13.717,13.718c7.536,0,13.647-6.079,13.713-13.598H15.111z"/>
<polygon points="42.704,13.884 37.327,13.884 37.327,8.506 33.625,8.506 33.625,13.884 28.249,13.884 28.249,17.585 33.625,17.585 
	33.625,22.962 37.327,22.962 37.327,17.585 42.704,17.585 "/>
</svg>
