<?xml version="1.0" encoding="utf-8"?>
<!-- Generator: Adobe Illustrator 15.0.0, SVG Export Plug-In  -->
<!DOCTYPE svg PUBLIC "-//W3C//DTD SVG 1.1//EN" "http://www.w3.org/Graphics/SVG/1.1/DTD/svg11.dtd" [
	<!ENTITY ns_flows "http://ns.adobe.com/Flows/1.0/">
]>
<svg version="1.1"
	 xmlns="http://www.w3.org/2000/svg" x="0px" y="0px" width="100px" height="100px" viewBox="-5.034 -4.246 100 100"
	 xml:space="preserve">
<defs>
</defs>
<path d="M64.688,0H25.244C11.303,0,0,11.301,0,25.244v41.022c0,13.941,11.303,25.242,25.244,25.242h39.443
	c13.942,0,25.244-11.301,25.244-25.242V25.244C89.932,11.301,78.63,0,64.688,0z M84.089,64.627c0,12.129-8.807,20.938-20.937,20.938
	H26.779c-12.13,0-20.938-8.809-20.938-20.938V26.882c0-12.131,8.808-20.938,20.938-20.938h36.374
	c12.13,0,20.937,8.807,20.937,20.938V64.627z"/>
<path d="M44.965,22.139c-13.042,0-23.616,10.574-23.616,23.616c0,13.042,10.574,23.617,23.616,23.617s23.616-10.572,23.616-23.617
	C68.581,32.712,58.008,22.139,44.965,22.139z M44.965,63.772c-9.95,0-18.016-8.064-18.016-18.016
	c0-9.951,8.066-18.017,18.016-18.017c9.951,0,18.018,8.065,18.018,18.017C62.982,55.706,54.916,63.772,44.965,63.772z"/>
<circle cx="68.581" cy="19.743" r="6.503"/>
</svg>
