<?xml version="1.0" encoding="utf-8"?>
<!-- Generator: Adobe Illustrator 15.0.0, SVG Export Plug-In  -->
<!DOCTYPE svg PUBLIC "-//W3C//DTD SVG 1.1//EN" "http://www.w3.org/Graphics/SVG/1.1/DTD/svg11.dtd" [
	<!ENTITY ns_flows "http://ns.adobe.com/Flows/1.0/">
]>
<svg version="1.1"
	 xmlns="http://www.w3.org/2000/svg" x="0px" y="0px" width="48px" height="48px" viewBox="-4.052 -8.612 48 48"
	 xml:space="preserve">
<defs>
</defs>
<path d="M5.039,2.312c0,0-0.321,8.441,8.149,18.854c7.365,8.558,16.637,9.386,16.637,9.386s-6.921-0.183-15.599-10.341
	c-6.539-9.527-6.08-16.5-6.08-16.5L5.039,2.312z"/>
<path d="M8.735,4.067c0,0,1.127,9.176,6.12,15.6c7.567,9.736,15.042,10.713,15.042,10.713s-7.438-2.5-12.627-11.521
	c-4.659-8.099-4.331-13.577-4.331-13.577L8.735,4.067z"/>
<path d="M11.771,20.416c-8.028-9.991-7.417-18.25-7.417-18.25L0.024,0c0,0-1.026,8.637,10.199,21.553
	c7.75,8.917,19.646,9.223,19.646,9.223S19.271,29.75,11.771,20.416z"/>
<path d="M34.857,2.312c0,0,0.32,8.441-8.148,18.854c-7.365,8.558-16.638,9.386-16.638,9.386s6.921-0.183,15.599-10.341
	c6.539-9.527,6.08-16.5,6.08-16.5L34.857,2.312z"/>
<path d="M31.161,4.067c0,0-1.128,9.176-6.12,15.6C17.475,29.403,10,30.38,10,30.38s7.438-2.5,12.627-11.521
	c4.658-8.099,4.331-13.577,4.331-13.577L31.161,4.067z"/>
<path d="M28.125,20.416c8.028-9.991,7.416-18.25,7.416-18.25L39.872,0c0,0,1.026,8.637-10.199,21.553
	c-7.75,8.917-19.646,9.223-19.646,9.223S20.625,29.75,28.125,20.416z"/>
</svg>
