<?xml version="1.0" encoding="utf-8"?>
<svg version="1.1"
	 xmlns="http://www.w3.org/2000/svg" x="0px" y="0px" width="48px" height="48px" viewBox="-2.096 -2.094 48 48">
<defs>
</defs>
<path d="M34.842,0H8.966C4.033,0,0,4.035,0,8.967v25.878c0,4.932,4.033,8.967,8.966,8.967h25.876c4.933,0,8.967-4.035,8.967-8.967
	V8.967C43.809,4.035,39.774,0,34.842,0z M35.537,26.896c-0.076,0.111-0.175,0.234-0.299,0.371l-0.009,0.012
	c-0.521,0.619-1.104,1.203-1.748,1.742c-4.445,4.107-11.761,9-12.727,8.246c-0.839-0.658,1.382-3.865-1.182-4.398
	c-0.179-0.02-0.356-0.043-0.535-0.066h-0.003c-7.529-1.07-13.247-6.338-13.247-12.673c0.001-7.109,7.197-12.872,16.074-12.872
	s16.073,5.763,16.073,12.871C37.936,22.611,37.057,24.929,35.537,26.896z"/>
<path d="M12.536,24.234h3.242c0.46,0,0.838-0.379,0.838-0.838v-0.072c0-0.459-0.378-0.836-0.838-0.836h-2.333v-5.311
	c0-0.461-0.377-0.838-0.838-0.838h-0.07c-0.461,0-0.838,0.377-0.838,0.838v6.219C11.697,23.855,12.074,24.234,12.536,24.234z
	 M32.623,20.336v-0.069c0-0.462-0.377-0.839-0.838-0.839h-2.334v-1.327h2.334c0.461,0,0.838-0.377,0.838-0.838v-0.07
	c0-0.46-0.377-0.838-0.838-0.838h-3.24c-0.461,0-0.84,0.378-0.84,0.838v6.216c0,0.463,0.379,0.84,0.84,0.84h3.24
	c0.461,0,0.838-0.377,0.838-0.84v-0.068c0-0.461-0.377-0.838-0.838-0.838h-2.334v-1.327h2.334
	C32.246,21.175,32.623,20.797,32.623,20.336L32.623,20.336z M26.389,23.984L26.389,23.984c0.154-0.156,0.242-0.369,0.242-0.588
	v-6.219c0-0.461-0.377-0.838-0.838-0.838h-0.068c-0.461,0-0.84,0.376-0.84,0.838v3.65l-3.029-4.063
	c-0.144-0.252-0.418-0.424-0.728-0.424h-0.07c-0.461,0-0.838,0.376-0.838,0.838v6.218c0,0.461,0.377,0.84,0.838,0.84h0.07
	c0.461,0,0.838-0.379,0.838-0.84v-3.718l3.05,4.169c0.021,0.027,0.041,0.057,0.063,0.082l0,0c0.084,0.115,0.2,0.193,0.326,0.242
	c0.1,0.041,0.208,0.063,0.318,0.063h0.07c0.137,0,0.271-0.035,0.391-0.1C26.268,24.095,26.34,24.044,26.389,23.984L26.389,23.984z
	 M18.132,24.234h0.069c0.461,0,0.837-0.379,0.837-0.838v-6.219c0-0.461-0.376-0.838-0.837-0.838h-0.069
	c-0.461,0-0.838,0.376-0.838,0.838v6.219C17.293,23.855,17.671,24.234,18.132,24.234L18.132,24.234z"/>
</svg>
