<?xml version="1.0" encoding="utf-8"?>
<!-- Generator: Adobe Illustrator 15.0.0, SVG Export Plug-In  -->
<!DOCTYPE svg PUBLIC "-//W3C//DTD SVG 1.1//EN" "http://www.w3.org/Graphics/SVG/1.1/DTD/svg11.dtd" [
	<!ENTITY ns_flows "http://ns.adobe.com/Flows/1.0/">
]>
<svg version="1.1"
	 xmlns="http://www.w3.org/2000/svg" x="0px" y="0px" width="48px" height="48px" viewBox="-4.385 -2.973 48 48">
<defs>
</defs>
<path d="M39.226,13.808c0-9.124-5.978-11.797-5.978-11.797C30.235,0.627,25.06,0.045,19.685,0h-0.132
	C14.176,0.045,9.005,0.627,5.99,2.012c0,0-5.977,2.673-5.977,11.797c0,2.088-0.041,4.585,0.025,7.234
	c0.217,8.921,1.636,17.714,9.884,19.897c3.803,1.008,7.068,1.219,9.699,1.073c4.768-0.264,7.444-1.701,7.444-1.701l-0.156-3.46
	c0,0-3.407,1.073-7.235,0.942c-3.791-0.129-7.795-0.408-8.408-5.064c-0.056-0.409-0.084-0.846-0.084-1.305
	c0,0,3.722,0.91,8.44,1.125c2.884,0.134,5.589-0.168,8.336-0.496c5.271-0.629,9.857-3.875,10.435-6.844
	C39.302,20.537,39.226,13.808,39.226,13.808z M32.177,25.561H27.8V14.84c0-2.261-0.951-3.409-2.854-3.409
	c-2.103,0-3.156,1.361-3.156,4.052v5.87h-4.35v-5.87c0-2.69-1.055-4.052-3.158-4.052c-1.902,0-2.853,1.148-2.853,3.409v10.721H7.053
	V14.516c0-2.259,0.575-4.052,1.729-5.38c1.191-1.327,2.75-2.008,4.686-2.008c2.238,0,3.935,0.861,5.056,2.582l1.091,1.828
	l1.089-1.828c1.121-1.721,2.817-2.582,5.058-2.582c1.936,0,3.494,0.681,4.687,2.008c1.153,1.328,1.729,3.121,1.729,5.38V25.561z"/>
</svg>
