<?xml version="1.0" encoding="utf-8"?>
<!DOCTYPE svg PUBLIC "-//W3C//DTD SVG 1.1//EN" "http://www.w3.org/Graphics/SVG/1.1/DTD/svg11.dtd" [
	<!ENTITY ns_flows "http://ns.adobe.com/Flows/1.0/">
]>
<svg version="1.1"
	 xmlns="http://www.w3.org/2000/svg" x="0px" y="0px" width="48px" height="48px" viewBox="-11.595 -4.069 48 48">
<defs>
</defs>
<path d="M12.262,31.582H12.24H7.009v1.055h0.733v7.081c0,0,0.516,2.337,4.498,2.56v0.002c0.005,0,0.007,0,0.011,0
	c0.004,0,0.008,0,0.012,0v-0.002c3.982-0.223,4.498-2.56,4.498-2.56v-7.081h0.731v-1.055H12.262z"/>
<path d="M24.928,12.464C24.928,5.58,19.346,0,12.464,0C5.581,0,0,5.58,0,12.464c0,2.36,0.669,4.558,1.809,6.44
	c0.341,0.769,1.225,2.636,2.327,4.015c1.417,1.771,1.417,3.544,1.535,5.551c0.118,2.01,1.337,2.111,1.337,2.111h4.311h1.912h4.313
	c0,0,1.217-0.103,1.336-2.111c0.117-2.007,0.117-3.779,1.535-5.551c0.582-0.729,1.102-1.594,1.516-2.362
	C23.793,18.379,24.928,15.556,24.928,12.464z"/>
</svg>
