<?xml version="1.0" encoding="utf-8"?>
<!DOCTYPE svg PUBLIC "-//W3C//DTD SVG 1.1//EN" "http://www.w3.org/Graphics/SVG/1.1/DTD/svg11.dtd" [
	<!ENTITY ns_flows "http://ns.adobe.com/Flows/1.0/">
]>
<svg version="1.1"
	 xmlns="http://www.w3.org/2000/svg" x="0px" y="0px" width="48px" height="48px" viewBox="-4.561 -1.503 48 48">
<defs>
</defs>
<path d="M33.345,12.529c-2.522-1.313-5.687-1.299-5.687-1.299l-4.405-0.048l-6.697,0.26
	c-0.682,0-1.233,0.566-1.233,1.265l-2.374,14.475c0.196-0.815,0.481-1.662,0.851-1.908c0.595-0.396,0.982-0.528,4.601-0.389
	c2.347,0.09,4.39,0.066,7.722-1.365c4.79-2.058,6.765-7.87,7.218-10.948C33.343,12.556,33.345,12.542,33.345,12.529z"/>
<path d="M33.348,12.53c-2.524-1.313-5.73-1.233-5.73-1.233H23.12l0.08-0.032l-6.646,0.176c-0.681,0-1.233,0.566-1.233,1.265
	l-2.384,14.532c0.197-0.833,0.486-1.715,0.864-1.967c0.595-0.396,0.982-0.529,4.601-0.389c2.347,0.09,4.39,0.067,7.722-1.365
	c4.79-2.057,6.766-7.871,7.219-10.948C33.345,12.556,33.346,12.544,33.348,12.53z"/>
<path d="M36.898,15.637c-0.453-0.451-0.985-0.813-1.551-1.107c-0.002,0.014-0.003,0.025-0.005,0.039
	c-0.453,3.078-2.429,8.892-7.219,10.948c-3.332,1.433-5.375,1.455-7.722,1.365c-3.619-0.141-4.006-0.008-4.601,0.389
	c-0.377,0.252-0.667,1.132-0.863,1.964l-2.377,14.493c-0.09,0.486-0.068,1.037,0.394,1.214l7.543,0.052c0,0,0.864-0.018,1.095-0.823
	c0.131-0.463,0.256-1.454,0.256-1.454l0.875-5.875c0,0,0.226-2.046,0.977-2.666c0.734-0.604,1.753-0.289,3.792-0.429
	c2.076-0.142,4.621-0.782,7.118-2.655c2.765-2.072,3.945-6.029,4.188-8.78C39.035,19.635,38.847,17.575,36.898,15.637z"/>
<path d="M13.217,10.55c0-0.699,0.552-1.265,1.233-1.265l11.084-0.273c0,0,3.186,0.05,5.709,1.362
	c0.445-3.057,0.201-5.263-2.088-7.566c-2.916-2.936-8.42-2.807-8.42-2.807L6.698,0.177c-0.682,0-1.234,0.566-1.234,1.265L0,35.225
	c0,0.7,0.552,1.266,1.233,1.266h7.642L13.217,10.55z"/>
<path d="M10.909,24.778c0.006-0.024,0.014-0.049,0.02-0.073C10.923,24.729,10.916,24.754,10.909,24.778z"/>
</svg>
