<?xml version="1.0" encoding="utf-8"?>
<!-- Generator: Adobe Illustrator 15.0.0, SVG Export Plug-In  -->
<!DOCTYPE svg PUBLIC "-//W3C//DTD SVG 1.1//EN" "http://www.w3.org/Graphics/SVG/1.1/DTD/svg11.dtd" [
	<!ENTITY ns_flows "http://ns.adobe.com/Flows/1.0/">
]>
<svg version="1.1"
	 xmlns="http://www.w3.org/2000/svg" x="0px" y="0px" width="100px" height="100px" viewBox="-5.655 -5.655 100 100"
	 xml:space="preserve">
<defs>
</defs>
<path d="M76.02,0H12.67C5.673,0,0,5.673,0,12.67v63.35c0,6.998,5.673,12.67,12.67,12.67h63.35c6.998,0,12.67-5.672,12.67-12.67
	V12.67C88.689,5.673,83.018,0,76.02,0z M72.166,35.968c-0.453,5.95-2.391,11.654-5.602,16.067
	c-3.239,4.459-7.774,7.605-13.387,8.382c-1.389,0.192-2.838,0.238-4.345,0.123H48.83c-3.376-0.269-5.255-1.569-7.455-3.097
	c-0.426-0.295-0.866-0.601-1.326-0.899c-0.871,4.465-1.864,8.819-3.379,12.671c-1.667,4.236-3.962,7.862-7.409,10.37l-1.02,0.74
	l-0.176-1.25c-1.527-10.853,0.831-19.66,3.124-28.224c0.792-2.956,1.576-5.885,2.175-8.796c-1.355-2.453-1.712-5.655-1.248-8.682
	c0.329-2.146,1.069-4.214,2.158-5.879c1.123-1.715,2.621-3.008,4.434-3.538c1.402-0.41,2.97-0.358,4.665,0.314v0.002
	c5.626,2.23,3.664,8.393,1.7,14.551c-0.616,1.935-1.233,3.871-1.593,5.674c-0.723,3.615-0.309,6.565,3.769,7.381v0.003
	c2.279,0.462,4.313,0.032,6.069-1.025c2.412-1.46,4.322-4.106,5.643-7.288c1.342-3.233,2.064-6.995,2.082-10.613
	c0.023-4.773-1.171-9.273-3.783-11.924c-2.938-2.979-6.553-4.47-10.271-4.759c-3.589-0.28-7.277,0.552-10.553,2.239
	c-3.281,1.688-6.144,4.229-8.078,7.364c-2.087,3.382-3.094,7.465-2.373,11.919c0.217,1.346,0.863,2.412,1.484,3.436
	c1.373,2.266,2.64,4.354,0.216,8.649l-0.275,0.487l-0.547-0.12c-3.813-0.843-6.4-2.69-8.056-5.298
	c-1.629-2.563-2.326-5.841-2.387-9.597v-0.018c0.082-7.092,2.633-13.367,6.922-18.073c4.31-4.729,10.368-7.871,17.434-8.661
	c0.692-0.079,1.389-0.138,2.089-0.177c0.684-0.039,1.38-0.059,2.086-0.061c6.924-0.013,13.424,1.898,18.333,5.531
	c4.597,3.403,7.796,8.307,8.651,14.545h0.002C72.284,30.943,72.355,33.479,72.166,35.968z"/>
</svg>
