<?xml version="1.0" encoding="utf-8"?>
<svg version="1.1"
	 xmlns="http://www.w3.org/2000/svg" x="0px" y="0px" width="48px" height="48px" viewBox="-1.915 -6.822 48 48">
<defs>
</defs>
<path id="Playstation_2_" d="M23.784,34.355l-6.743-2.891V0c0,0,14.65,2.461,16.668,8.562c2.018,6.101-1.125,10.052-2.229,10.169
	c-3.08,0.32-4.248-1.605-4.248-1.605V7.277l-3.345-1.391L23.784,34.355L23.784,34.355z M25.536,30.021v3.691
	c0,0,15.87-5.139,18.209-7.117c2.336-1.98-5.47-6.902-9.662-5.941c0,0-4.457,0.219-8.494,1.982c-0.039,0.016,0,3.316,0,3.316
	l10.246-2.408l3.608,1.605L25.536,30.021L25.536,30.021z M15.342,29.754c0,0-2.07,1.07-6.688,1.016
	C4.037,30.716-0.053,29.432,0,26.65c0.053-2.783,7.645-5.834,15.29-7.119v3.906L7.168,25.58c0,0-1.391,1.767,0.478,1.818
	c4.247,0.119,7.75-1.018,7.75-1.018L15.342,29.754z"/>
</svg>
