<?xml version="1.0" encoding="utf-8"?>
<!-- Generator: Adobe Illustrator 15.0.0, SVG Export Plug-In  -->
<!DOCTYPE svg PUBLIC "-//W3C//DTD SVG 1.1//EN" "http://www.w3.org/Graphics/SVG/1.1/DTD/svg11.dtd" [
	<!ENTITY ns_flows "http://ns.adobe.com/Flows/1.0/">
]>
<svg version="1.1"
	 xmlns="http://www.w3.org/2000/svg" x="0px" y="0px" width="48px" height="48px" viewBox="-2.262 -6.86 48 48">
<defs>
</defs>
<rect x="13.586" width="16.303" height="9.764"/>
<path d="M29.889,22.156H13.586l-1.612,12.125h19.709L29.889,22.156z M16.336,25.162h11.475v1.207H16.336V25.162z M15.979,27.843
	h12.189v1.281H15.979V27.843z M28.451,31.873H15.695v-1.342h12.756V31.873z"/>
<path d="M40.759,11.575H2.718C1.217,11.575,0,12.693,0,14.072V26.56c0,1.377,1.217,2.496,2.718,2.496h6.917v-7.674
	c0-1.502,1.217-2.719,2.717-2.719h18.774c1.499,0,2.716,1.217,2.716,2.719v7.674h6.918c1.499,0,2.717-1.119,2.717-2.496V14.072
	C43.477,12.693,42.258,11.575,40.759,11.575z M6.977,15.501H2.448v-1.812h4.529V15.501z M13.317,15.501H8.788v-1.812h4.529V15.501z"
	/>
</svg>
