<?xml version="1.0" encoding="utf-8"?>
<!DOCTYPE svg PUBLIC "-//W3C//DTD SVG 1.1//EN" "http://www.w3.org/Graphics/SVG/1.1/DTD/svg11.dtd" [
	<!ENTITY ns_flows "http://ns.adobe.com/Flows/1.0/">
]>
<svg version="1.1"
	 xmlns="http://www.w3.org/2000/svg" x="0px" y="0px" width="48px" height="48px" viewBox="-4.811 -2.412 48 48">
<defs>
</defs>
<path d="M29.271,36.001c5.465-3.427,9.107-9.558,9.107-16.548C38.379,8.71,29.785,0,19.188,0C8.589,0,0,8.709,0,19.453
	c0,10.742,8.59,19.451,19.188,19.451c1.56,0,3.073-0.192,4.522-0.549c1.82,3.313,4.598,5.658,10.487,4.537v-3.297
	C34.199,39.596,30.42,38.646,29.271,36.001z M29.139,22.025c0,3.247-1.035,6.195-2.715,8.374c-2.109-2.246-5.414-4.092-9.608-3.855
	v0.395v3.428c0,0,2.846,0.113,4.793,3.462c-0.729,0.215-1.489,0.329-2.273,0.329c-5.413,0-9.8-5.43-9.8-12.13
	c0-0.86,0-4.152,0-5.012c0-6.7,4.387-12.132,9.8-12.132s9.805,5.432,9.805,12.132C29.139,17.873,29.139,21.165,29.139,22.025z"/>
</svg>
