<?xml version="1.0" encoding="utf-8"?>
<!-- Generator: Adobe Illustrator 15.0.0, SVG Export Plug-In  -->
<!DOCTYPE svg PUBLIC "-//W3C//DTD SVG 1.1//EN" "http://www.w3.org/Graphics/SVG/1.1/DTD/svg11.dtd" [
	<!ENTITY ns_flows "http://ns.adobe.com/Flows/1.0/">
]>
<svg version="1.1"
	 xmlns="http://www.w3.org/2000/svg" x="0px" y="0px" width="48px" height="48px" viewBox="-2.531 -2.532 48 48"
	 xml:space="preserve">
<defs>
</defs>
<path d="M21.5,21.464c-0.017-0.001-0.028-0.001-0.028-0.001C21.417,21.477,21.429,21.476,21.5,21.464z"/>
<path d="M40.653,0H2.284C1.022,0,0,1.022,0,2.284v38.368c0,1.262,1.022,2.285,2.284,2.285h38.369c1.264,0,2.284-1.023,2.284-2.285
	V2.283C42.938,1.022,41.917,0,40.653,0z M39.161,18.188l-8.353,7.74l0.211,1.617c-3.131,0.365-12.006-0.5-12.006-0.5l11.513-8.07
	c-6.802-1.92-18.53,0.002-18.997,0.077c0.554,0.017,9.538,0.301,13.404,1.01l-11.428,8.368c0.352,0.02,10.771,1.125,17.562-0.182
	v0.002c1.02-0.191,1.399-0.295,2.418-0.699c-0.625,0.719-1.812,1.24-2.214,1.428l1.527,8.65c0.06,0.283-0.06,0.574-0.297,0.742
	c-0.242,0.166-0.562,0.178-0.812,0.104l-10.109-5.973l-10.26,5.896c-0.118,0.07-0.251,0.105-0.383,0.105
	c-0.153,0-0.306-0.047-0.435-0.139c-0.24-0.172-0.355-0.471-0.288-0.754l2.075-11.686L3.86,18.194
	c-0.227-0.189-0.314-0.495-0.225-0.773c0.09-0.278,0.341-0.478,0.636-0.505l11.41-1.305l5.14-10.741
	c0.115-0.274,0.384-0.453,0.686-0.453c0.3,0,0.572,0.179,0.686,0.453l4.987,10.981l11.485,1.064c0.293,0.028,0.541,0.224,0.634,0.5
	C39.392,17.691,39.306,17.994,39.161,18.188L39.161,18.188z"/>
</svg>
