<?xml version="1.0" encoding="utf-8"?>
<!-- Generator: Adobe Illustrator 15.0.0, SVG Export Plug-In  -->
<!DOCTYPE svg PUBLIC "-//W3C//DTD SVG 1.1//EN" "http://www.w3.org/Graphics/SVG/1.1/DTD/svg11.dtd" [
	<!ENTITY ns_flows "http://ns.adobe.com/Flows/1.0/">
]>
<svg version="1.1"
	 xmlns="http://www.w3.org/2000/svg" xmlns:xlink="http://www.w3.org/1999/xlink" xmlns:a="http://ns.adobe.com/AdobeSVGViewerExtensions/3.0/"
	 x="0px" y="0px" width="48px" height="48px" viewBox="-1.328 -5.108 48 48"
	 xml:space="preserve">
<defs>
</defs>
<path id="reddit_2_" d="M32.42,20.58c0.115,0.299,0.169,0.607,0.169,0.914c0,0.619-0.212,1.219-0.569,1.709
	c-0.354,0.484-0.856,0.859-1.447,1.025l0,0c-0.006,0.002-0.01,0.002-0.012,0.004c-0.004,0-0.008,0.002-0.01,0.002
	c-0.275,0.094-0.561,0.139-0.842,0.139c-0.659,0-1.307-0.237-1.824-0.643c-0.513-0.404-0.902-0.982-1.023-1.67h-0.002
	c0-0.002,0-0.006,0-0.008s0-0.004-0.002-0.006h0.002c-0.039-0.178-0.059-0.355-0.059-0.529c0-0.596,0.202-1.168,0.538-1.641
	c0.333-0.469,0.804-0.841,1.353-1.033c0.004,0,0.006-0.001,0.006-0.001c0.002,0,0.002-0.003,0.006-0.003
	c0.311-0.115,0.64-0.173,0.965-0.173c0.593,0,1.176,0.18,1.668,0.509c0.484,0.324,0.881,0.796,1.078,1.386
	c0.002,0.004,0.002,0.008,0.004,0.011c0,0.004,0.002,0.008,0.004,0.01H32.42V20.58z M30.607,27.884
	c-0.231-0.152-0.5-0.242-0.785-0.242c-0.229,0-0.469,0.066-0.68,0.207l0,0c-2.004,1.195-4.359,1.85-6.7,1.85
	c-1.755,0-3.499-0.371-5.08-1.146l-0.008-0.004l-0.008-0.005c-0.238-0.096-0.51-0.305-0.806-0.5
	c-0.15-0.098-0.308-0.194-0.482-0.268c-0.172-0.072-0.363-0.123-0.568-0.123c-0.169,0-0.347,0.037-0.522,0.117
	c-0.009,0.004-0.018,0.006-0.026,0.01h0.001c-0.276,0.105-0.491,0.299-0.63,0.525c-0.145,0.236-0.215,0.51-0.215,0.783
	c0,0.246,0.058,0.49,0.179,0.715c0.114,0.211,0.29,0.396,0.52,0.52c2.259,1.523,4.919,2.215,7.589,2.213
	c2.407,0,4.83-0.559,6.986-1.571l0.012-0.007l0.012-0.008c0.283-0.168,0.66-0.317,1.018-0.539c0.177-0.11,0.349-0.242,0.496-0.41
	c0.148-0.168,0.266-0.375,0.332-0.618l0,0c0.027-0.109,0.041-0.216,0.041-0.32c0-0.198-0.047-0.389-0.131-0.562
	C31.031,28.244,30.836,28.035,30.607,27.884z M14.746,24.218c0.004,0,0.009,0.002,0.014,0.004c0.288,0.105,0.585,0.158,0.879,0.158
	c0.734,0,1.448-0.301,1.988-0.791s0.908-1.188,0.908-1.979c0-0.021,0-0.041,0-0.065c0.002-0.035,0.002-0.074,0.002-0.113
	c0-0.787-0.364-1.486-0.898-1.979c-0.536-0.495-1.248-0.796-1.985-0.796c-0.196,0-0.397,0.023-0.593,0.069
	c-0.002,0-0.005,0.001-0.008,0.001c0,0-0.002,0-0.003,0c-0.976,0.204-1.832,0.928-2.147,1.924l0,0l0,0
	c0,0.002-0.001,0.004-0.001,0.004c-0.091,0.273-0.133,0.555-0.133,0.834c0,0.609,0.202,1.203,0.549,1.693
	c0.344,0.48,0.832,0.857,1.417,1.035C14.74,24.216,14.741,24.216,14.746,24.218z M45.334,17.104v0.003
	c0.008,0.1,0.01,0.198,0.01,0.296c0,1.101-0.354,2.161-0.941,3.06c-0.551,0.842-1.31,1.545-2.185,2.021
	c0.056,0.439,0.089,0.882,0.089,1.32c-0.001,2.371-0.818,4.703-2.24,6.569v0.002h-0.004c-2.634,3.502-6.676,5.566-10.758,6.607l0,0
	l-0.004,0.004c-2.176,0.527-4.421,0.797-6.665,0.797c-3.345,0-6.687-0.602-9.806-1.854l-0.001-0.002h-0.002
	c-3.234-1.334-6.314-3.453-8.204-6.557c-1.016-1.654-1.574-3.599-1.574-5.552c0-0.44,0.03-0.883,0.088-1.321
	c-0.851-0.479-1.588-1.158-2.135-1.97C0.418,19.656,0.047,18.635,0,17.556v-0.004v-0.003v-0.007
	c0.001-1.512,0.658-2.944,1.678-3.999c1.02-1.055,2.413-1.745,3.908-1.745c0.021,0,0.042,0,0.062,0
	c0.157-0.01,0.315-0.017,0.473-0.017c0.75,0,1.503,0.121,2.218,0.395l0.004,0.003l0.003,0.002c0.61,0.257,1.216,0.566,1.756,0.996
	c0.175-0.092,0.366-0.195,0.581-0.276c3.275-1.939,7.082-2.688,10.791-2.903c0.032-1.837,0.258-3.761,1.154-5.445
	c0.746-1.399,2.042-2.488,3.585-2.865l0.006-0.003l0.008-0.001c0.59-0.113,1.18-0.166,1.771-0.166c1.567,0,3.114,0.371,4.565,0.951
	c0.642-0.969,1.557-1.725,2.631-2.148l0.012-0.006l0.011-0.004C35.846,0.115,36.512,0,37.181,0c0.705,0,1.419,0.129,2.083,0.426
	V0.423c0.002,0.002,0.002,0.002,0.002,0.002c0.006,0.002,0.01,0.005,0.014,0.005c0.953,0.368,1.763,1.047,2.334,1.892
	c0.576,0.848,0.914,1.864,0.914,2.909c0,0.193-0.012,0.386-0.035,0.579L42.49,5.814c0,0.003,0,0.008,0,0.011
	c-0.112,1.35-0.797,2.535-1.766,3.38c-0.975,0.848-2.234,1.36-3.529,1.36c-0.209,0-0.418-0.011-0.627-0.039
	c-1.285-0.098-2.48-0.72-3.36-1.644c-0.884-0.923-1.452-2.156-1.452-3.487c0-0.064,0.007-0.13,0.008-0.194
	c-1.203-0.537-2.484-0.982-3.757-0.981c-0.185,0-0.369,0.011-0.553,0.028h-0.003C26.5,4.34,25.613,4.94,25.186,5.804v0.001v0.003
	c-0.652,1.269-0.781,2.751-0.803,4.224c3.652,0.238,7.325,1.115,10.547,2.966h0.006l0.045,0.027
	c0.063,0.036,0.176,0.098,0.276,0.152c0.222-0.179,0.456-0.364,0.726-0.523c0.976-0.651,2.133-0.974,3.289-0.974
	c0.514,0,1.027,0.065,1.527,0.193H40.8l0.021,0.006c0.009,0.001,0.013,0.004,0.02,0.004v0.001c1.18,0.3,2.246,0.977,3.048,1.89
	c0.804,0.914,1.345,2.071,1.447,3.327L45.334,17.104L45.334,17.104L45.334,17.104z M34.579,5.153c0,0.05,0,0.1,0.005,0.152v0.003
	v0.006c0.023,0.634,0.322,1.225,0.779,1.661c0.457,0.437,1.063,0.707,1.679,0.709h0.01h0.009c0.045,0.004,0.09,0.004,0.133,0.004
	c0.621,0.001,1.238-0.267,1.703-0.702c0.465-0.438,0.77-1.032,0.793-1.671l0.002-0.003V5.308c0.004-0.049,0.006-0.096,0.006-0.146
	c0-0.659-0.308-1.286-0.789-1.751c-0.48-0.465-1.129-0.752-1.766-0.751c-0.205,0-0.408,0.028-0.609,0.09l-0.006,0.001l-0.006,0.003
	c-0.525,0.137-1.018,0.46-1.371,0.89C34.793,4.072,34.579,4.602,34.579,5.153z M7.624,14.941c-0.488-0.228-0.993-0.39-1.492-0.388
	c-0.083,0-0.168,0.005-0.252,0.014H5.868l-0.012,0.001c-0.716,0.02-1.439,0.333-1.982,0.833s-0.902,1.173-0.93,1.916v0.006
	l-0.001,0.006c-0.004,0.06-0.006,0.12-0.006,0.177c0,0.458,0.141,0.901,0.378,1.304c0.177,0.301,0.408,0.574,0.669,0.813
	C4.822,17.789,6.13,16.234,7.624,14.941z M39.434,23.908c0-1.635-0.589-3.274-1.543-4.597c-1.904-2.648-4.855-4.375-7.927-5.338
	l-0.021-0.008c-0.59-0.181-1.187-0.341-1.785-0.479c-1.795-0.409-3.635-0.612-5.473-0.612c-2.469,0-4.937,0.365-7.3,1.095
	c-3.07,0.974-6.032,2.689-7.931,5.346v0.002c-0.962,1.327-1.526,2.973-1.526,4.612c0,0.604,0.076,1.209,0.235,1.797h0.002
	c0.346,1.317,1.022,2.496,1.896,3.521c0.875,1.027,1.947,1.902,3.076,2.617c0.25,0.156,0.501,0.303,0.758,0.447
	c3.277,1.83,7.052,2.631,10.799,2.631c0.634,0,1.271-0.021,1.902-0.066c3.771-0.313,7.563-1.426,10.625-3.702l0.002-0.002
	c0.975-0.722,1.879-1.595,2.594-2.587c0.717-0.991,1.242-2.102,1.477-3.309v-0.002v-0.002
	C39.389,24.824,39.434,24.367,39.434,23.908z M42.413,17.405c-0.003-0.396-0.093-0.792-0.29-1.16l-0.006-0.004l-0.002-0.006
	c-0.266-0.547-0.682-0.96-1.186-1.242c-0.504-0.284-1.092-0.427-1.683-0.427c-0.533,0-1.063,0.119-1.536,0.356
	c1.499,1.301,2.813,2.865,3.662,4.704c0.275-0.236,0.509-0.527,0.683-0.852C42.283,18.35,42.413,17.874,42.413,17.405z"/>
</svg>
