<?xml version="1.0" encoding="utf-8"?>
<!DOCTYPE svg PUBLIC "-//W3C//DTD SVG 1.1//EN" "http://www.w3.org/Graphics/SVG/1.1/DTD/svg11.dtd" [
	<!ENTITY ns_flows "http://ns.adobe.com/Flows/1.0/">
]>
<svg version="1.1"
	 xmlns="http://www.w3.org/2000/svg" x="0px" y="0px" width="48px" height="48px" viewBox="-2.883 -2.883 48 48">
<defs>
</defs>
<path d="M21.117,0C9.455,0,0,9.454,0,21.117c0,11.662,9.455,21.117,21.117,21.117c11.662,0,21.117-9.455,21.117-21.117
	C42.234,9.454,32.779,0,21.117,0z M20.566,25.801c-1.989,0-3.602-1.612-3.602-3.602c0-1.99,1.613-3.603,3.602-3.603
	c1.989,0,3.602,1.613,3.602,3.603C24.168,24.188,22.555,25.801,20.566,25.801z M30.326,25.359l-2.669-0.864
	c0.393-2.444-0.324-5.032-2.212-6.918c-1.741-1.741-4.084-2.495-6.357-2.292l-0.584-2.726c3.165-0.381,6.465,0.638,8.893,3.068
	C30.04,18.271,31.014,21.947,30.326,25.359z M36.02,27.204l-2.773-0.9c1.021-4.476-0.199-9.354-3.684-12.841
	c-3.192-3.191-7.553-4.487-11.699-3.902l-0.61-2.849c5.082-0.785,10.45,0.776,14.366,4.691
	C35.904,15.689,37.365,21.718,36.02,27.204z"/>
</svg>
