<?xml version="1.0" encoding="utf-8"?>
<!-- Generator: Adobe Illustrator 16.0.0, SVG Export Plug-In . SVG Version: 6.00 Build 0)  -->
<!DOCTYPE svg PUBLIC "-//W3C//DTD SVG 1.1//EN" "http://www.w3.org/Graphics/SVG/1.1/DTD/svg11.dtd">
<svg version="1.1" xmlns="http://www.w3.org/2000/svg" xmlns:xlink="http://www.w3.org/1999/xlink" x="0px" y="0px"
	 width="48px" height="48px" viewBox="0 0 48 48">
<path d="M20.567,38.855c-7.112,0.7-13.25-2.514-13.713-7.185c-0.462-4.669,4.931-9.023,12.042-9.726
	c7.112-0.704,13.25,2.511,13.712,7.18C33.07,33.796,27.678,38.148,20.567,38.855 M34.792,23.354
	c-0.604-0.181-1.021-0.304-0.703-1.099c0.688-1.727,0.758-3.216,0.016-4.278c-1.395-1.991-5.21-1.885-9.585-0.053
	c0-0.002-1.373,0.601-1.021-0.489c0.672-2.163,0.571-3.974-0.476-5.02c-2.372-2.375-8.683,0.09-14.095,5.499
	c-4.053,4.053-6.406,8.35-6.406,12.063c0,7.104,9.111,11.424,18.024,11.424c11.684,0,19.456-6.788,19.456-12.178
	C39.999,25.966,37.255,24.118,34.792,23.354"/>
<path d="M42.55,10.353c-2.821-3.128-6.983-4.321-10.825-3.504l0,0c-0.89,0.19-1.455,1.064-1.267,1.952
	c0.189,0.889,1.063,1.455,1.951,1.266c2.733-0.581,5.689,0.269,7.697,2.49c1.938,2.146,2.581,5.16,1.689,7.909l0,0
	c-0.279,0.863,0.191,1.791,1.056,2.071c0.003,0,0.004,0,0.005,0.001c0.863,0.279,1.79-0.194,2.07-1.057v-0.007
	C46.132,17.738,45.374,13.477,42.55,10.353"/>
<path d="M38.216,14.263c-1.372-1.523-3.399-2.102-5.271-1.704c-0.771,0.141-1.277,0.878-1.138,1.647
	c0.142,0.769,0.879,1.279,1.646,1.138c0.026-0.005,0.057-0.011,0.082-0.017v0.001c0.946-0.203,1.93,0.114,2.578,0.832
	c0.649,0.719,0.864,1.729,0.563,2.652h0.003c-0.241,0.744,0.168,1.542,0.909,1.783c0.744,0.24,1.543-0.168,1.783-0.913
	C39.96,17.861,39.591,15.786,38.216,14.263"/>
<path d="M20.959,30.396c-0.249,0.429-0.798,0.632-1.229,0.453c-0.423-0.176-0.557-0.649-0.315-1.067
	c0.248-0.416,0.777-0.618,1.199-0.451C21.043,29.487,21.196,29.969,20.959,30.396 M18.693,33.307
	c-0.688,1.097-2.161,1.579-3.271,1.069c-1.094-0.496-1.416-1.771-0.728-2.842c0.679-1.064,2.103-1.54,3.204-1.078
	C19.013,30.932,19.37,32.198,18.693,33.307 M21.278,25.538c-3.385-0.88-7.21,0.807-8.68,3.789c-1.498,3.041-0.049,6.418,3.369,7.521
	c3.542,1.144,7.717-0.608,9.168-3.892C26.567,29.748,24.779,26.443,21.278,25.538"/>
</svg>
