<?xml version="1.0" encoding="utf-8"?>
<!-- Generator: Adobe Illustrator 15.0.0, SVG Export Plug-In  -->
<!DOCTYPE svg PUBLIC "-//W3C//DTD SVG 1.1//EN" "http://www.w3.org/Graphics/SVG/1.1/DTD/svg11.dtd" [
	<!ENTITY ns_flows "http://ns.adobe.com/Flows/1.0/">
]>
<svg version="1.1"
	 xmlns="http://www.w3.org/2000/svg" xmlns:xlink="http://www.w3.org/1999/xlink" xmlns:a="http://ns.adobe.com/AdobeSVGViewerExtensions/3.0/"
	 x="0px" y="0px" width="48px" height="48px" viewBox="-2.823 -2.823 48 48"
	 xml:space="preserve">
<defs>
</defs>
<path d="M21.177,0C9.481,0,0,9.481,0,21.177c0,11.696,9.481,21.177,21.177,21.177c11.696,0,21.177-9.48,21.177-21.177
	C42.354,9.481,32.873,0,21.177,0z M27.775,33.665c-1.379,0.223-2.75,0.064-4.021-0.578c-0.186-0.094-0.359-0.127-0.566-0.096
	c-6.746,1.057-12.943-3.691-13.65-10.455c-0.043-0.406-0.051-0.814-0.072-1.191c0.029-0.676,0.041-1.325,0.174-1.958
	c0.063-0.311,0.02-0.561-0.123-0.839c-1.355-2.645-0.824-5.892,1.291-7.968c2.148-2.11,5.379-2.595,8.02-1.183
	c0.33,0.174,0.633,0.232,0.998,0.184c6.252-0.846,12.135,3.53,13.162,9.773c0.232,1.416,0.223,2.826-0.063,4.23
	c-0.039,0.191-0.008,0.352,0.068,0.525C34.801,28.312,32.287,32.944,27.775,33.665z"/>
<path d="M27.005,27.198c-0.757,0.863-1.711,1.414-2.795,1.728c-2.03,0.585-4.086,0.603-6.108-0.006
	c-1.843-0.554-3.201-1.694-3.74-3.606c-0.383-1.355,0.49-2.369,1.842-2.211c0.585,0.067,0.97,0.42,1.24,0.907
	c0.174,0.306,0.316,0.627,0.47,0.943c0.503,1.026,1.31,1.61,2.459,1.737c0.938,0.103,1.85,0.035,2.719-0.36
	c0.337-0.152,0.634-0.358,0.878-0.642c0.648-0.752,0.532-1.816-0.268-2.406c-0.771-0.571-1.696-0.725-2.596-0.926
	c-1.291-0.287-2.582-0.56-3.797-1.101c-1.252-0.559-2.269-1.369-2.599-2.786c-0.381-1.645,0.075-3.036,1.394-4.103
	c1.16-0.939,2.557-1.243,4.004-1.369c0.334-0.03,0.674-0.006,1.01-0.006c1.334-0.035,2.635,0.142,3.843,0.756
	c0.922,0.471,1.688,1.113,2.132,2.076c0.217,0.473,0.318,0.976,0.182,1.479c-0.17,0.609-0.586,1.034-1.217,1.163
	c-0.656,0.133-1.267,0.029-1.682-0.581c-0.196-0.291-0.385-0.587-0.563-0.888c-0.564-0.96-1.369-1.495-2.512-1.492
	c-0.521,0.002-1.039-0.014-1.55,0.109c-0.457,0.111-0.878,0.301-1.226,0.624c-0.621,0.577-0.597,1.367,0.065,1.893
	c0.435,0.349,0.952,0.541,1.485,0.677c1.25,0.319,2.506,0.614,3.755,0.941c0.681,0.178,1.329,0.445,1.96,0.761
	C28.72,21.978,28.512,25.483,27.005,27.198z"/>
</svg>
