<?xml version="1.0" encoding="utf-8"?>
<!DOCTYPE svg PUBLIC "-//W3C//DTD SVG 1.1//EN" "http://www.w3.org/Graphics/SVG/1.1/DTD/svg11.dtd" [
	<!ENTITY ns_flows "http://ns.adobe.com/Flows/1.0/">
]>
<svg version="1.1"
	 xmlns="http://www.w3.org/2000/svg" x="0px" y="0px" width="48px" height="48px" viewBox="-1.176 -1.175 48 48">
<defs>
</defs>
<path d="M39.942,0H5.706C2.554,0,0,2.555,0,5.707v34.236c0,3.151,2.555,5.707,5.706,5.707h34.236c3.151,0,5.706-2.556,5.706-5.707
	V5.707C45.648,2.556,43.094,0,39.942,0z M8.361,40.373l15.751-35.38h6.819l-15.748,35.38H8.361z M31.631,40.657
	c-3.125,0-5.656-2.523-5.656-5.637c0-3.109,2.531-5.633,5.656-5.633c3.123,0,5.656,2.524,5.656,5.633
	C37.287,38.136,34.754,40.657,31.631,40.657z"/>
</svg>
