<?xml version="1.0" encoding="utf-8"?>
<!DOCTYPE svg PUBLIC "-//W3C//DTD SVG 1.1//EN" "http://www.w3.org/Graphics/SVG/1.1/DTD/svg11.dtd" [
	<!ENTITY ns_flows "http://ns.adobe.com/Flows/1.0/">
]>
<svg version="1.1"
	 xmlns="http://www.w3.org/2000/svg" x="0px" y="0px" width="100px" height="100px" viewBox="-6.039 -6.039 100 100">
<defs>
</defs>
<path d="M61.204,30.871c0,0.504-0.502,6.293-0.502,7.048c0,1.007,0.502,1.764,2.014,1.764c0.503,0,3.272-1.258,4.028-1.258
	c1.258,0,2.518,1.006,2.518,1.762c0,3.021-8.058,2.517-8.058,6.545c0,5.287,10.575,14.351,14.603,13.595v0.756
	c-2.015,2.015-6.041,2.267-8.307,3.021c-0.756,0.252-1.009,4.278-2.016,4.278c-0.756,0-4.28-0.755-5.033-0.755
	c-6.547,0-9.819,6.294-16.616,6.294c-6.545,0-9.818-6.294-16.363-6.294c-0.756,0-4.281,0.755-4.784,0.755
	c-2.014,0-1.511-3.271-2.266-4.278c-2.518-0.754-6.294-0.754-8.308-3.271c2.266-1.512,5.035-1.764,8.055-4.28
	c2.518-2.014,6.546-7.553,6.546-9.817c0-3.777-8.056-4.028-8.056-6.545c0-1.762,2.266-1.511,2.266-1.511
	c0.755,0,3.524,1.007,4.279,1.007c3.021,0,1.762-3.273,1.762-4.531v-7.302c1.512-10.321,9.819-13.846,17.121-13.846
	C54.157,14.003,61.204,21.052,61.204,30.871z"/>
<path d="M43.961,0C19.682,0,0,19.682,0,43.961C0,68.24,19.682,87.922,43.961,87.922c24.279,0,43.961-19.682,43.961-43.961
	C87.922,19.682,68.24,0,43.961,0z M43.961,83.525c-21.852,0-39.565-17.713-39.565-39.564c0-21.851,17.714-39.565,39.565-39.565
	c21.852,0,39.564,17.714,39.564,39.565C83.525,65.813,65.813,83.525,43.961,83.525z"/>
</svg>
