<?xml version="1.0" encoding="utf-8"?>
<!DOCTYPE svg PUBLIC "-//W3C//DTD SVG 1.1//EN" "http://www.w3.org/Graphics/SVG/1.1/DTD/svg11.dtd" [
	<!ENTITY ns_flows "http://ns.adobe.com/Flows/1.0/">
]>
<svg version="1.1"
	 xmlns="http://www.w3.org/2000/svg" x="0px" y="0px" width="48px" height="48px" viewBox="-2.105 -11.856 48 48">
<defs>
</defs>
<path d="M0,19.927c0,0.544,0.197,0.955,0.591,1.232c0.395,0.278,0.816,0.377,1.263,0.297c0.421-0.082,0.717-0.23,0.887-0.449
	c0.17-0.217,0.255-0.578,0.255-1.08v-5.909c0-0.421-0.146-0.776-0.438-1.067c-0.292-0.293-0.648-0.438-1.069-0.438
	c-0.407,0-0.757,0.146-1.049,0.438c-0.292,0.291-0.438,0.646-0.438,1.067v5.909H0z M4.687,22.455c0,0.396,0.14,0.689,0.418,0.887
	c0.279,0.197,0.635,0.295,1.07,0.295c0.448,0,0.812-0.098,1.089-0.295c0.279-0.197,0.419-0.492,0.419-0.887V8.68
	c0-0.408-0.146-0.757-0.438-1.049S6.597,7.193,6.176,7.193c-0.408,0-0.758,0.146-1.05,0.438S4.688,8.272,4.688,8.68L4.687,22.455
	L4.687,22.455z M9.353,23.106c0,0.396,0.144,0.69,0.428,0.888c0.286,0.196,0.652,0.295,1.101,0.295c0.435,0,0.791-0.099,1.07-0.295
	c0.278-0.197,0.417-0.492,0.417-0.888V10.535c0-0.421-0.146-0.781-0.438-1.079c-0.293-0.3-0.642-0.449-1.05-0.449
	c-0.421,0-0.781,0.149-1.081,0.449c-0.298,0.298-0.448,0.658-0.448,1.079L9.353,23.106L9.353,23.106z M14.041,23.167
	c0,0.746,0.501,1.119,1.507,1.119c1.006,0,1.508-0.373,1.508-1.119V2.791c0-1.142-0.346-1.786-1.039-1.936
	c-0.448-0.108-0.89,0.021-1.324,0.387c-0.436,0.367-0.652,0.884-0.652,1.549V23.167L14.041,23.167z M18.808,23.758V1.589
	c0-0.706,0.21-1.128,0.632-1.264C20.35,0.108,21.253,0,22.15,0c2.078,0,4.015,0.488,5.808,1.467
	c1.793,0.978,3.244,2.313,4.351,4.004c1.106,1.691,1.75,3.556,1.926,5.593c0.829-0.353,1.712-0.529,2.649-0.529
	c1.902,0,3.527,0.672,4.88,2.017c1.353,1.345,2.026,2.962,2.026,4.85c0,1.902-0.674,3.526-2.026,4.87
	c-1.353,1.345-2.972,2.017-4.86,2.017l-17.728-0.02c-0.123-0.04-0.214-0.116-0.274-0.225C18.839,23.935,18.808,23.839,18.808,23.758
	L18.808,23.758z"/>
</svg>
