<?xml version="1.0" encoding="utf-8"?>
<!-- Generator: Adobe Illustrator 15.0.0, SVG Export Plug-In  -->
<!DOCTYPE svg PUBLIC "-//W3C//DTD SVG 1.1//EN" "http://www.w3.org/Graphics/SVG/1.1/DTD/svg11.dtd" [
	<!ENTITY ns_flows "http://ns.adobe.com/Flows/1.0/">
]>
<svg version="1.1"
	 xmlns="http://www.w3.org/2000/svg" x="0px" y="0px" width="48px" height="48px" viewBox="-2.478 -2.478 48 48"
	 xml:space="preserve">
<defs>
</defs>
<path d="M43.042,21.522c0-5.944-2.408-11.325-6.301-15.219C32.846,2.409,27.465,0,21.522,0C15.579,0,10.198,2.409,6.303,6.304
	C2.409,10.199,0,15.579,0,21.522c0,5.943,2.409,11.324,6.303,15.218c3.896,3.896,9.276,6.304,15.219,6.304
	c5.943,0,11.324-2.408,15.218-6.304c3.894-3.895,6.304-9.274,6.304-15.218H43.042L43.042,21.522z M25.624,11.718
	c1.994,0.332,3.967,0.816,5.91,1.487c0.801,0.277,1.58,0.583,2.334,0.925c0.768,0.346,1.516,0.729,2.24,1.152
	c0.303,0.177,0.561,0.394,0.764,0.658c0.207,0.267,0.354,0.575,0.435,0.932c0.026,0.122,0.039,0.232,0.049,0.342
	c0.006,0.052,0.013,0.104,0.015,0.122l0.004,0.059c-0.002,0.449-0.117,0.858-0.314,1.207c-0.213,0.376-0.521,0.682-0.885,0.893
	c-0.361,0.21-0.779,0.327-1.215,0.325c-0.402-0.002-0.816-0.104-1.213-0.328c-0.451-0.255-0.902-0.497-1.355-0.719
	c-0.451-0.222-0.916-0.43-1.395-0.622c-0.949-0.38-1.912-0.698-2.888-0.964c-0.967-0.264-1.963-0.48-2.979-0.659
	c-0.699-0.124-1.398-0.227-2.096-0.308c-0.716-0.084-1.429-0.146-2.137-0.189c-0.75-0.045-1.488-0.07-2.217-0.074
	c-0.733-0.004-1.473,0.013-2.219,0.051c-0.84,0.044-1.684,0.112-2.531,0.215c-0.835,0.102-1.666,0.238-2.491,0.416
	c-0.537,0.117-1.069,0.259-1.6,0.402l-0.223,0.06c-0.221,0.059-0.445,0.092-0.675,0.095c-0.229,0.002-0.459-0.027-0.69-0.095
	c-0.506-0.149-0.934-0.449-1.239-0.846c-0.303-0.395-0.484-0.884-0.499-1.413c-0.015-0.52,0.14-1.021,0.425-1.433
	c0.283-0.408,0.691-0.728,1.188-0.892c0.296-0.098,0.607-0.188,0.926-0.272c0.308-0.082,0.617-0.157,0.925-0.228
	c0.771-0.178,1.539-0.321,2.308-0.437c0.755-0.114,1.532-0.203,2.325-0.276c0.827-0.075,1.655-0.125,2.482-0.15
	c0.827-0.024,1.654-0.024,2.482-0.001C21.612,11.21,23.631,11.388,25.624,11.718L25.624,11.718z M16.727,18.405
	c1.905-0.072,3.788,0.016,5.648,0.267c1.861,0.25,3.699,0.665,5.517,1.247c0.922,0.295,1.821,0.636,2.7,1.027
	c0.886,0.394,1.742,0.834,2.57,1.327c0.063,0.037,0.15,0.09,0.236,0.144l0.014,0.008c0.514,0.313,0.814,0.779,0.937,1.273
	c0.135,0.551,0.041,1.139-0.236,1.594c-0.297,0.488-0.758,0.812-1.272,0.938c-0.508,0.123-1.07,0.058-1.576-0.229l-0.359-0.201
	c-0.328-0.188-0.656-0.377-0.992-0.547c-1.043-0.531-2.115-0.97-3.213-1.328c-1.104-0.361-2.232-0.644-3.383-0.859
	c-0.891-0.168-1.781-0.293-2.683-0.377c-0.908-0.084-1.832-0.127-2.783-0.132c-1.22,0.005-2.459,0.087-3.701,0.261
	c-1.154,0.162-2.308,0.406-3.449,0.744c-0.237,0.07-0.478,0.109-0.722,0.104c-0.254-0.004-0.504-0.051-0.748-0.147
	C8.83,23.355,8.5,23.074,8.273,22.726c-0.228-0.347-0.351-0.763-0.337-1.191c0.015-0.444,0.16-0.861,0.411-1.2
	c0.248-0.334,0.598-0.59,1.024-0.721c0.347-0.105,0.69-0.204,1.033-0.293c0.347-0.09,0.701-0.177,1.062-0.256
	c0.878-0.195,1.75-0.343,2.617-0.449C14.948,18.507,15.83,18.44,16.727,18.405L16.727,18.405z M18.229,25.209
	c1.413,0.017,2.805,0.117,4.17,0.328c1.375,0.211,2.734,0.533,4.078,0.986c0.74,0.25,1.463,0.535,2.17,0.861
	c0.709,0.324,1.398,0.684,2.068,1.084l0,0l0.033,0.02c0.108,0.064,0.221,0.129,0.346,0.225c0.359,0.271,0.584,0.654,0.664,1.066
	c0.078,0.41,0.01,0.852-0.219,1.236c-0.228,0.381-0.578,0.646-0.976,0.771c-0.396,0.125-0.834,0.108-1.239-0.068
	c-0.121-0.055-0.23-0.121-0.343-0.187L28.929,31.5l0,0c-1.091-0.646-2.224-1.168-3.392-1.576c-1.17-0.408-2.383-0.703-3.637-0.896
	c-0.776-0.119-1.548-0.199-2.315-0.24c-0.777-0.043-1.554-0.047-2.331-0.018c-1.009,0.041-2.013,0.131-3.012,0.266
	c-1.003,0.135-1.997,0.314-2.982,0.533c-0.109,0.023-0.22,0.047-0.335,0.064c-0.123,0.02-0.248,0.031-0.375,0.033
	c-0.419,0.004-0.806-0.142-1.108-0.39c-0.305-0.252-0.522-0.604-0.597-1.016c-0.076-0.419-0.009-0.828,0.175-1.175
	c0.186-0.348,0.488-0.629,0.88-0.787c0.077-0.03,0.156-0.055,0.237-0.077h0.002c0.08-0.021,0.147-0.037,0.212-0.054
	c0.827-0.186,1.659-0.35,2.498-0.483c0.848-0.136,1.691-0.242,2.528-0.313c0.623-0.052,1.288-0.084,1.953-0.117
	c0.276-0.013,0.553-0.025,0.867-0.045H18.229L18.229,25.209z"/>
</svg>
