<?xml version="1.0" encoding="utf-8"?>
<!-- Generator: Adobe Illustrator 15.0.0, SVG Export Plug-In  -->
<!DOCTYPE svg PUBLIC "-//W3C//DTD SVG 1.1//EN" "http://www.w3.org/Graphics/SVG/1.1/DTD/svg11.dtd" [
	<!ENTITY ns_flows "http://ns.adobe.com/Flows/1.0/">
]>
<svg version="1.1"
	 xmlns="http://www.w3.org/2000/svg" x="0px" y="0px" width="48px" height="48px" viewBox="-6.729 -3.557 48 48"
	 xml:space="preserve">
<defs>
</defs>
<path d="M29.158,37.235H3.65V26.283H0v14.604h32.81V26.283h-3.65v10.952H29.158z M7.666,25.28l0.753-3.582l17.866,3.767
	l-0.755,3.558L7.666,25.28z M10.016,16.747l1.529-3.331l16.542,7.734l-1.528,3.309L10.016,16.747z M14.602,8.625l2.327-2.807
	l14.009,11.704l-2.327,2.807L14.602,8.625z M23.66,0l10.883,14.625l-2.92,2.19L20.739,2.19L23.66,0z M7.277,33.562v-3.628h18.252
	v3.628H7.277z"/>
</svg>
