<?xml version="1.0" encoding="utf-8"?>
<!-- Generator: Adobe Illustrator 15.0.0, SVG Export Plug-In  -->
<!DOCTYPE svg PUBLIC "-//W3C//DTD SVG 1.1//EN" "http://www.w3.org/Graphics/SVG/1.1/DTD/svg11.dtd" [
	<!ENTITY ns_flows "http://ns.adobe.com/Flows/1.0/">
]>
<svg version="1.1"
	 xmlns="http://www.w3.org/2000/svg" x="0px" y="0px" width="48px" height="48px" viewBox="-2.116 -2.116 48 48">
<defs>
</defs>
<path d="M12.99,35.733c1.161,0,2.299-0.562,2.991-1.599c1.1-1.651,0.654-3.881-0.996-4.979l-2.824-1.883
	c0.483-0.133,0.991-0.203,1.516-0.203c3.18,0,5.758,2.578,5.758,5.758c0,3.179-2.578,5.757-5.758,5.757
	c-3.095,0-5.618-2.44-5.751-5.503l3.077,2.05C11.615,35.538,12.306,35.733,12.99,35.733z M36.474,0c4.012,0,7.293,3.282,7.293,7.296
	v29.177c0,4.015-3.281,7.295-7.293,7.295H7.297c-4.014,0-7.296-3.28-7.296-7.295v-8.677l5.186,3.456
	c-0.499,2.7,0.296,5.592,2.385,7.682c3.373,3.371,8.841,3.371,12.213,0c2.071-2.071,2.871-4.935,2.396-7.616l10.646-9.531l0,0
	c1.975-0.283,3.881-1.186,5.399-2.706c3.74-3.739,3.74-9.802,0-13.54c-3.737-3.739-9.801-3.739-13.538,0
	c-1.521,1.521-2.424,3.425-2.708,5.402l0,0l-8.749,13.259c-1.361,0.07-2.709,0.462-3.92,1.172L0,19.166V7.296
	C0,3.282,3.282,0,7.296,0H36.474z M38.298,12.31c0-3.776-3.063-6.839-6.84-6.839S24.62,8.534,24.62,12.31
	c0,3.777,3.061,6.839,6.838,6.839S38.298,16.087,38.298,12.31z M27.354,12.31c0-2.266,1.838-4.103,4.104-4.103
	c2.268,0,4.104,1.837,4.104,4.103c0,2.267-1.837,4.104-4.104,4.104C29.192,16.413,27.354,14.576,27.354,12.31z"/>
</svg>
