<?xml version="1.0" encoding="utf-8"?>
<svg version="1.1"
	 xmlns="http://www.w3.org/2000/svg" x="0px" y="0px" width="48px" height="48px" viewBox="0 0 48 48">

<path d="M39.906,16.3c-1.973-2.144-4.117-3.43-6.002-4.202c-0.086,0-0.258,0-0.258-0.257c0-1.371,3.43-4.287,4.887-4.716
	c0.258-0.086,0.516-0.171,0.688-0.171c-2.658-1.458-10.205-3.602-13.808-3.603c0,0-1.328-0.136-2.281-0.12
	c-0.859,0.014-2.006,0.12-2.006,0.12c-0.257,0-1.371,0.086-1.886,0.171C9.379,4.723,3.634,12.44,3.634,20.072
	c0,4.373,2.144,10.376,7.889,13.72c0.429,0.257,0.857,0.601,1.201,0.856c-0.944,2.488-4.46,4.459-6.26,4.976
	c5.402,3.001,10.976,4.544,16.378,5.146h4.631c0.254,0,2.571-0.345,3.772-0.687c0.687-0.171,1.457-0.515,2.144-0.772
	c7.717-3.344,10.977-10.203,10.977-15.863C44.365,23.931,42.994,19.558,39.906,16.3z M29.273,40.48
	c-2.23,0.43-2.916,0.43-4.717,0.43c-3.858,0-5.832-0.43-10.375-2.145c1.458-1.457,2.83-3.345,2.83-4.716
	c0-1.458-1.544-3.516-1.544-5.83v-1.716c0.772-7.546,6.689-11.32,12.434-11.32c7.203,0.001,12.434,5.661,12.434,12.435
	C40.334,33.107,36.563,38.938,29.273,40.48z"/>
</svg>
