<?xml version="1.0" encoding="utf-8"?>
<!-- Generator: Adobe Illustrator 15.0.0, SVG Export Plug-In  -->
<!DOCTYPE svg PUBLIC "-//W3C//DTD SVG 1.1//EN" "http://www.w3.org/Graphics/SVG/1.1/DTD/svg11.dtd" [
	<!ENTITY ns_flows "http://ns.adobe.com/Flows/1.0/">
]>
<svg version="1.1"
	 xmlns="http://www.w3.org/2000/svg" x="0px" y="0px" width="48px" height="48px" viewBox="-3.063 -3.063 48 48">
<defs>
</defs>
<path d="M2.926,27.15h12.602c0,0,1.627-0.738,1.667-1.666c0.075-1.744-1.683-2.268-1.683-2.268l-2.762-0.145
	c0,0-4.188-0.951-4.388-5.063c-0.258-5.355,4.864-6.504,4.864-6.504l10.207,0.081c0,0,2.25,0.112,3.359,1.347
	c1.113,1.236,1.475,2.828,1.475,2.828v9.881c0,0,0.383,1.855,2.701,1.754c2.25-0.098,2.594-1.852,2.594-1.852V4.263
	C30.05,1.599,25.685,0,20.937,0C9.374,0,0,9.374,0,20.937c0,2.182,0.336,4.285,0.955,6.264L2.926,27.15z"/>
<path d="M37.265,7.85v18.411c0,0-0.713,4.475-6.174,4.594c-5.729,0.127-6.301-4.57-6.301-4.57v-9.018c0,0,0-0.742-0.619-1.605
	c-0.613-0.865-1.48-0.742-1.48-0.742H13.55c0,0-1.484,0.866-1.359,2.347c0.125,1.482,1.236,1.978,1.236,1.978l3.511,0.208
	c0,0,3.974,1.039,4.147,5.226c0.185,4.484-4.323,5.682-4.323,5.682H2.259c3.451,6.824,10.509,11.514,18.678,11.514
	c11.563,0,20.938-9.375,20.938-20.938C41.875,15.982,40.144,11.436,37.265,7.85z"/>
</svg>
