<?xml version="1.0" encoding="utf-8"?>
<!-- Generator: Adobe Illustrator 15.0.0, SVG Export Plug-In  -->
<!DOCTYPE svg PUBLIC "-//W3C//DTD SVG 1.1//EN" "http://www.w3.org/Graphics/SVG/1.1/DTD/svg11.dtd" [
	<!ENTITY ns_flows "http://ns.adobe.com/Flows/1.0/">
]>
<svg version="1.1"
	 xmlns="http://www.w3.org/2000/svg" x="0px" y="0px" width="48px" height="48px" viewBox="-2.499 -5.959 48 48">
<defs>
</defs>
<path d="M16.185,35.896c0.997,0,1.43-0.442,1.971-0.996l4.255-4.268l-5.69-3.894L16.185,35.896z"/>
<path d="M16.857,23.804l15.93,11.771c1.819,1.008,3.142,0.486,3.584-1.689l6.487-30.562
	c0.648-2.664-1.02-3.877-2.762-3.086L2.009,14.923c-2.599,1.051-2.588,2.491-0.477,3.141l9.779,3.042L33.944,6.834
	c1.072-0.65,2.037-0.303,1.236,0.412L16.857,23.804z"/>
<path d="M40.099,0.25L2.009,14.935c-2.599,1.04-2.588,2.48-0.477,3.129l9.779,3.043L33.944,6.833
	c1.072-0.65,2.037-0.303,1.236,0.412L16.857,23.814l15.93,11.772c1.819,1.007,3.142,0.486,3.584-1.69l6.487-30.561
	C43.508,0.671,41.84-0.542,40.099,0.25z"/>
</svg>
