<?xml version="1.0" encoding="utf-8"?>
<!-- Generator: Adobe Illustrator 15.0.0, SVG Export Plug-In  -->
<!DOCTYPE svg PUBLIC "-//W3C//DTD SVG 1.1//EN" "http://www.w3.org/Graphics/SVG/1.1/DTD/svg11.dtd" [
	<!ENTITY ns_flows "http://ns.adobe.com/Flows/1.0/">
]>
<svg version="1.1"
	 xmlns="http://www.w3.org/2000/svg" x="0px" y="0px" width="48px" height="48px" viewBox="-2.063 -2.061 48 48"
	 xml:space="preserve">
<defs>
</defs>
<path d="M42.746,5.259c-0.466-0.854-0.996-1.634-1.678-2.317c-0.684-0.685-1.492-1.3-2.347-1.767C37.283,0.391,35.498,0,33.748,0
	H10.125c-1.79,0-3.521,0.402-5.016,1.19C4.25,1.645,3.467,2.245,2.796,2.926C2.122,3.612,1.512,4.382,1.075,5.252
	C0.34,6.715,0,8.419,0,10.162v23.552c0,1.77,0.286,3.545,1.079,4.992c0.459,0.84,1.061,1.689,1.729,2.364
	c0.674,0.683,1.471,1.238,2.313,1.707c1.451,0.804,3.229,1.099,5.005,1.099H33.75c1.813,0,3.496-0.263,4.967-1.098
	c0.812-0.461,1.695-1.048,2.347-1.708c0.673-0.682,1.233-1.517,1.694-2.364c0.783-1.441,1.117-3.233,1.117-4.992V10.163
	C43.875,8.396,43.537,6.708,42.746,5.259z M7.605,34.603c0.007,0.443-0.368,1.093-0.806,1.063l-0.08-0.004
	c-0.408-0.029-0.717-0.602-0.729-1.022c-0.158-6.812,2.315-11.706,4.416-14.411c0.596-0.773,1.193-1.432,1.755-1.987
	c-0.15-0.385-0.234-0.802-0.234-1.24c0-1.897,1.538-3.434,3.434-3.434c1.898,0,3.436,1.538,3.436,3.434
	c0,1.898-1.539,3.434-3.436,3.434c-0.861,0-1.649-0.321-2.25-0.846c-0.481,0.518-0.987,1.156-1.485,1.804
	C8.839,25.016,7.473,29.546,7.605,34.603z M24.303,17.565c-0.331,4.962-4.643,8.735-9.619,8.405
	c-0.678-0.045-1.362-0.167-2.009-0.357c-0.428-0.131-0.657-0.578-0.54-0.997c0.135-0.428,0.575-0.673,0.998-0.542
	c0.535,0.161,1.093,0.262,1.657,0.299c4.093,0.272,7.638-2.833,7.909-6.914c0.271-4.084-2.832-7.629-6.924-7.9
	c-4.083-0.273-7.633,2.83-7.905,6.914c-0.078,1.186,0.117,2.344,0.589,3.432c0.182,0.405-0.005,0.878-0.422,1.051
	c-0.408,0.183-0.873-0.005-1.053-0.414c-0.568-1.303-0.81-2.755-0.717-4.175c0.332-4.972,4.643-8.745,9.613-8.414
	C20.856,8.283,24.628,12.594,24.303,17.565z M30.806,25.509c-0.799-0.035-1.6-0.256-2.305-0.652
	c-2.469-1.38-3.352-4.507-1.971-6.975c1.377-2.467,4.506-3.351,6.975-1.969c2.467,1.375,3.353,4.51,1.966,6.967
	c-0.201,0.34-0.421,0.658-0.677,0.947c-0.164,0.182-0.461,0.198-0.646,0.029c-0.185-0.167-0.196-0.457-0.028-0.645
	c0.211-0.229,0.402-0.496,0.551-0.776c1.14-2.025,0.414-4.6-1.616-5.725c-2.028-1.138-4.595-0.417-5.724,1.62
	c-1.147,2.025-0.42,4.59,1.611,5.729c0.585,0.324,1.236,0.51,1.896,0.527c0.256,0.014,0.457,0.223,0.445,0.477
	C31.281,25.319,31.066,25.513,30.806,25.509z M38.865,28.616c-0.004,0.024-0.014,0.032-0.014,0.046
	c-0.104,0.209-0.344,0.313-0.574,0.231c-3.63-1.328-5.578-3.591-6.57-5.263c-0.355-0.603-0.615-1.176-0.803-1.665
	c-0.236-0.004-0.459-0.066-0.673-0.159c-0.86-0.408-1.22-1.411-0.817-2.262c0.401-0.847,1.408-1.21,2.262-0.806
	c0.843,0.402,1.205,1.411,0.809,2.256c-0.152,0.321-0.4,0.58-0.691,0.741c0.18,0.443,0.414,0.938,0.729,1.462
	c1.335,2.224,3.378,3.851,6.065,4.836C38.828,28.126,38.946,28.378,38.865,28.616z"/>
</svg>
