<?xml version="1.0" encoding="utf-8"?>
<!DOCTYPE svg PUBLIC "-//W3C//DTD SVG 1.1//EN" "http://www.w3.org/Graphics/SVG/1.1/DTD/svg11.dtd" [
	<!ENTITY ns_flows "http://ns.adobe.com/Flows/1.0/">
]>
<svg version="1.1"
	 xmlns="http://www.w3.org/2000/svg" xmlns:xlink="http://www.w3.org/1999/xlink"
	 x="0px" y="0px" width="50px" height="50px" viewBox="-4.818 -2.201 50 50">
<defs>
</defs>
<path fill="#D1D3D4" d="M27.708,0l-7.465,0.016l-0.081,31.193c0,0-2.495,7.326-9.209,4.15c0,0,2.086,3.221,6.117,2.55
	c2.296-0.383,4.419-1.709,5.322-5.373V1.815h5.494C27.886,1.815,27.676,1.057,27.708,0z"/>
<path fill="#D1D3D4" d="M15.716,16.129v1.753c0,0-5.416,0.278-8.522,3.265c-3.106,2.987-4.46,5.655-4.858,8.881
	c-0.319,2.588,0.242,6.375,2.058,9.163c0.447,0.687,0.866,1.35,1.486,1.876c0,0-3.572-2.373-5.149-6.779
	c-0.599-1.672-0.831-4.672-0.69-5.787c1.097-8.689,8.105-11.805,11.203-12.264C13.496,15.9,15.716,16.129,15.716,16.129z"/>
<path d="M22.392,1.815v30.721c0,0-0.714,4.967-5.806,5.436c-4.096,0.377-5.633-2.612-5.633-2.612s-2.624-1.051-3.321-4.575
	c-0.22-1.114-0.065-3.068,0.996-4.48c3.126-4.161,7.128-2.449,7.128-2.449l-0.04-5.973c0,0-6.909-0.12-11.19,6.292
	c-1.417,2.123-1.991,4.083-2.29,6.968c-0.398,3.843,1.852,8.462,3.751,10.034c2.975,2.461,7.14,2.474,8.714,2.474
	c2.877,0,6.698-1.689,9.283-4.317c2.673-2.72,3.776-7.154,3.717-8.528V14.59c0,0,4.526,3.395,10.43,3.395l0.006-5.931
	c0,0-3.553-0.712-5.54-3.302c0,0-3.925-2.38-4.711-6.937H22.392z"/>
<path fill="#808285" d="M5.988,41.176c0,0,3.941,4.422,10.206,4.422c6.263,0,9.682-4.034,9.682-4.034s2.847-2.278,3.985-7.972
	V16.567c0,0,5.924,3.703,10.503,3.226v-7.486c0,0-1.423-0.008-2.233-0.26l0.007,5.925c0,0-5.379,0.175-10.436-3.382v15.994
	c0,0,0,5.177-4.142,9.08c-3.094,2.915-6.292,3.703-7.606,3.861C14.641,43.686,10.555,44.279,5.988,41.176z"/>
<path fill="#808285" d="M27.886,1.815h2.046c0,0-0.121,4.239,2.428,6.788C32.36,8.604,28.697,6.373,27.886,1.815z"/>
<path fill="#808285" d="M17.906,18.041v7.646c0,0-4.46-1.394-6.81,2.23c0,0-2.756,3.537-0.144,7.442c0,0-2.557-1.328-3.241-4.018
	c-0.325-1.278-0.159-3.585,0.717-4.779c3.288-4.483,7.327-2.708,7.327-2.708v-5.894C15.755,17.961,17.309,17.842,17.906,18.041z"/>
<path fill="#D1D3D4" d="M38.137,10.368v1.686c0,0-3.424-0.689-5.375-3.158C32.762,8.896,35.232,10.607,38.137,10.368z"/>
</svg>
