<?xml version="1.0" encoding="utf-8"?>
<!DOCTYPE svg PUBLIC "-//W3C//DTD SVG 1.1//EN" "http://www.w3.org/Graphics/SVG/1.1/DTD/svg11.dtd" [
	<!ENTITY ns_flows "http://ns.adobe.com/Flows/1.0/">
]>
<svg version="1.1"
	 xmlns="http://www.w3.org/2000/svg" x="0px" y="0px" width="48px" height="48px" viewBox="-3.101 -3.101 48 48">
<defs>
</defs>
<path d="M20.899,0C9.357,0,0,9.357,0,20.899c0,11.543,9.357,20.898,20.899,20.898c11.543,0,20.898-9.355,20.898-20.898
	C41.797,9.357,32.442,0,20.899,0z M33.268,15.254c0.01,0.253,0.016,0.509,0.016,0.763c0,7.794-5.93,16.78-16.779,16.78
	c-3.331,0-6.43-0.979-9.039-2.648c0.461,0.055,0.93,0.082,1.406,0.082c2.764,0,5.305-0.941,7.325-2.525
	c-2.581-0.047-4.758-1.754-5.509-4.096c0.359,0.068,0.73,0.105,1.109,0.105c0.538,0,1.06-0.072,1.554-0.209
	c-2.698-0.541-4.731-2.923-4.731-5.78c0-0.025,0-0.051-0.001-0.075c0.796,0.442,1.705,0.708,2.671,0.738
	c-1.583-1.056-2.625-2.863-2.625-4.91c0-1.079,0.293-2.091,0.8-2.964c2.908,3.569,7.253,5.915,12.157,6.162
	c-0.103-0.43-0.154-0.882-0.154-1.344c0-3.255,2.641-5.897,5.898-5.897c1.697,0,3.229,0.717,4.303,1.863
	c1.346-0.264,2.605-0.756,3.746-1.432c-0.441,1.377-1.377,2.533-2.594,3.262c1.193-0.141,2.33-0.459,3.387-0.928
	C35.418,13.384,34.417,14.422,33.268,15.254z"/>
</svg>
