<?xml version="1.0" encoding="utf-8"?>
<!DOCTYPE svg PUBLIC "-//W3C//DTD SVG 1.1//EN" "http://www.w3.org/Graphics/SVG/1.1/DTD/svg11.dtd" [
	<!ENTITY ns_flows "http://ns.adobe.com/Flows/1.0/">
]>
<svg version="1.1"
	 xmlns="http://www.w3.org/2000/svg" xmlns:xlink="http://www.w3.org/1999/xlink"
	 x="0px" y="0px" width="48px" height="48px" viewBox="-3.358 -8.711 48 48">
<defs>
</defs>
<path d="M36.593,9.22C31,4.586,23.129,1.574,15.146,0.42C7.165-0.733,0,0.854,0,0.854s4.928,0.25,9.607,1.73
	c5.78,1.828,7.849,2.935,10.108,4.088c1.566,0.8,2.692,1.622,3.237,2.052c-2.761,1.775-4.739,4.661-5.306,8.026
	c-0.757-0.802-2.26-2.463-3.46-4.211c-1.683-2.454-2.597-5.098-2.597-5.098s-0.961,3.077-0.192,6.539
	c0.667,3.003,2.212,6.973,4.905,9.906c2.629,2.862,5.696,5.28,9.408,6.229c1.38,0.318,2.116,0.456,3.68,0.463
	c6.573,0.032,12.021-5.266,11.894-11.837C41.209,15.038,39.958,12.009,36.593,9.22z M29.38,24.692c-3.286,0-5.95-2.664-5.95-5.951
	c0-3.286,2.664-5.95,5.95-5.95s5.95,2.664,5.95,5.95C35.331,22.028,32.667,24.692,29.38,24.692z"/>
<circle cx="29.38" cy="18.741" r="4.093"/>
</svg>
