<?xml version="1.0" encoding="utf-8"?>
<!-- Generator: Adobe Illustrator 15.0.0, SVG Export Plug-In  -->
<!DOCTYPE svg PUBLIC "-//W3C//DTD SVG 1.1//EN" "http://www.w3.org/Graphics/SVG/1.1/DTD/svg11.dtd" [
	<!ENTITY ns_flows "http://ns.adobe.com/Flows/1.0/">
]>
<svg version="1.1"
	 xmlns="http://www.w3.org/2000/svg" xmlns:xlink="http://www.w3.org/1999/xlink" xmlns:a="http://ns.adobe.com/AdobeSVGViewerExtensions/3.0/"
	 x="0px" y="0px" width="48px" height="48px" viewBox="-2.656 -2.656 48 48"
	 xml:space="preserve">
<defs>
</defs>
<path d="M0,0v42.688h42.688V0H0z M36.026,32.031c-0.063,0.193-0.132,0.371-0.195,0.533c-0.658,1.611-1.688,2.766-2.975,3.383
	c-1.289,0.621-2.818,0.692-4.466,0.14c-0.175-0.06-0.341-0.121-0.499-0.185c-2.494-1.018-4.818-2.209-6.961-3.591
	c-2.148-1.383-4.11-2.95-5.874-4.715c-1.765-1.765-3.333-3.726-4.716-5.875c-1.381-2.142-2.574-4.466-3.59-6.962
	c-0.064-0.156-0.125-0.322-0.184-0.496c-0.554-1.65-0.482-3.178,0.137-4.468c0.618-1.286,1.774-2.317,3.384-2.974
	c0.164-0.066,0.342-0.132,0.534-0.196c0.363-0.122,0.725-0.188,1.089-0.188c0.369-0.002,0.735,0.059,1.097,0.193
	c0.835,0.308,2.229,1.801,3.417,3.424c1.207,1.645,2.233,3.466,2.282,4.349c0.039,0.73-0.189,1.294-0.553,1.76
	c-0.337,0.433-0.778,0.759-1.216,1.057c-0.647,0.439-0.97,0.922-1.059,1.44c-0.096,0.541,0.051,1.15,0.341,1.802
	c0.318,0.714,0.681,1.384,1.094,2.005c0.41,0.618,0.867,1.183,1.377,1.692h0.003c0.508,0.511,1.074,0.969,1.69,1.377
	c0.621,0.414,1.292,0.779,2.007,1.096c0.652,0.291,1.26,0.436,1.801,0.342c0.518-0.09,1.002-0.413,1.441-1.059
	c0.299-0.44,0.623-0.881,1.057-1.217c0.465-0.363,1.03-0.594,1.76-0.553c0.883,0.049,2.703,1.075,4.348,2.281
	c1.623,1.188,3.118,2.581,3.426,3.417c0.131,0.364,0.195,0.729,0.193,1.097C36.214,31.306,36.149,31.668,36.026,32.031z
	 M23.503,9.587L23.503,9.587c0.323-0.006,0.636,0.004,0.938,0.03c1.109,0.097,2.192,0.394,3.204,0.872
	c1.009,0.476,1.942,1.129,2.75,1.938c0.783,0.782,1.414,1.678,1.876,2.643c0.461,0.966,0.746,1.998,0.838,3.051
	c0.024,0.283,0.034,0.577,0.028,0.88c-0.006,0.293-0.026,0.586-0.063,0.875c-0.049,0.372-0.229,0.694-0.488,0.923
	c-0.266,0.233-0.611,0.373-0.979,0.373c-0.021,0-0.052-0.002-0.092-0.005c-0.038-0.002-0.068-0.005-0.093-0.008l-0.003-0.002
	c-0.406-0.051-0.754-0.262-0.985-0.562c-0.231-0.299-0.349-0.687-0.296-1.092c0.021-0.185,0.037-0.371,0.04-0.559
	c0.003-0.178-0.002-0.368-0.021-0.567c-0.061-0.707-0.254-1.401-0.566-2.049c-0.314-0.652-0.748-1.264-1.29-1.805
	c-0.563-0.567-1.213-1.023-1.909-1.352c-0.695-0.331-1.441-0.537-2.206-0.603c-0.219-0.018-0.428-0.026-0.624-0.022
	c-0.209,0.005-0.414,0.019-0.617,0.045c-0.406,0.051-0.793-0.067-1.094-0.298c-0.298-0.231-0.51-0.577-0.562-0.983l-0.002-0.002
	v-0.001h0.002c-0.052-0.403,0.067-0.791,0.297-1.088c0.23-0.3,0.577-0.511,0.983-0.563l0.002-0.003v0.002
	C22.88,9.616,23.19,9.594,23.503,9.587z M28.047,20.867l-0.059-0.002v-0.001c-0.404-0.028-0.758-0.219-1.008-0.503
	c-0.248-0.286-0.391-0.666-0.363-1.073c0.004-0.059,0.006-0.114,0.006-0.158c0-0.037-0.004-0.092-0.01-0.161
	c-0.059-0.672-0.42-1.324-0.951-1.828c-0.534-0.51-1.237-0.862-1.967-0.925c-0.074-0.007-0.131-0.011-0.172-0.012
	c-0.053-0.001-0.105,0-0.162,0.003H23.36c-0.408,0.015-0.785-0.135-1.063-0.391c-0.28-0.256-0.46-0.619-0.477-1.028l-0.002-0.019
	h0.001c-0.01-0.4,0.138-0.771,0.391-1.044c0.257-0.279,0.62-0.459,1.028-0.477l0.02-0.002v0.002
	c0.109-0.004,0.221-0.005,0.336-0.002c0.132,0.003,0.251,0.009,0.354,0.018h0.002c1.453,0.125,2.793,0.784,3.804,1.762
	c1.011,0.979,1.69,2.281,1.812,3.687c0.01,0.115,0.014,0.246,0.018,0.391c0.003,0.138-0.002,0.267-0.01,0.384
	c-0.027,0.388-0.201,0.732-0.465,0.98c-0.271,0.25-0.625,0.402-1.011,0.402v-0.003H28.047z M36.661,20.282
	c-0.062,0.358-0.246,0.661-0.506,0.879c-0.263,0.222-0.597,0.351-0.951,0.351c-0.041,0-0.084-0.002-0.127-0.006
	c-0.034-0.003-0.076-0.009-0.123-0.017H34.95c-0.403-0.07-0.739-0.296-0.959-0.606c-0.217-0.31-0.316-0.703-0.248-1.104
	c0.065-0.369,0.104-0.738,0.119-1.105c0.016-0.366,0.008-0.74-0.025-1.121c-0.096-1.1-0.393-2.174-0.871-3.179
	c-0.477-1.004-1.139-1.941-1.956-2.759v-0.002c-0.843-0.841-1.813-1.524-2.865-2.019C27.096,9.1,25.968,8.792,24.81,8.691
	c-0.382-0.033-0.758-0.044-1.122-0.031c-0.371,0.012-0.738,0.048-1.104,0.106c-0.406,0.063-0.796-0.042-1.102-0.264
	c-0.307-0.223-0.529-0.563-0.592-0.967c-0.064-0.405,0.041-0.796,0.263-1.101c0.223-0.307,0.563-0.529,0.966-0.592
	c0.484-0.078,0.975-0.125,1.468-0.141c0.499-0.018,0.995-0.006,1.479,0.037c1.5,0.13,2.965,0.53,4.33,1.173
	c1.364,0.641,2.622,1.521,3.709,2.607c1.059,1.061,1.918,2.282,2.543,3.6c0.623,1.319,1.014,2.733,1.139,4.178
	c0.043,0.493,0.053,0.994,0.031,1.5C36.798,19.301,36.747,19.797,36.661,20.282z"/>
</svg>
