<?xml version="1.0" encoding="utf-8"?>
<!-- Generator: Adobe Illustrator 15.0.0, SVG Export Plug-In  -->
<!DOCTYPE svg PUBLIC "-//W3C//DTD SVG 1.1//EN" "http://www.w3.org/Graphics/SVG/1.1/DTD/svg11.dtd" [
	<!ENTITY ns_flows "http://ns.adobe.com/Flows/1.0/">
]>
<svg version="1.1"
	 xmlns="http://www.w3.org/2000/svg" x="0px" y="0px" width="48px" height="48px" viewBox="-2.613 -5.478 48 48"
	 xml:space="preserve">
<defs>
</defs>
<path d="M36.03,0.002c0.076,0.001,0.148,0.003,0.209,0.005l0,0c2.152,0.063,3.777,0.758,4.881,2.088
	c1.084,1.307,1.636,3.211,1.652,5.711l0.002,0.002v0.254l-0.002,0.001c0,0.129-0.002,0.255-0.006,0.378
	c-0.004,0.139-0.008,0.268-0.014,0.387V8.83c-0.1,2.103-0.871,4.574-2.316,7.416c-1.428,2.806-3.52,5.989-6.277,9.549l0,0
	c-2.856,3.721-5.502,6.516-7.934,8.385c-2.484,1.91-4.758,2.865-6.824,2.865c-1.346,0-2.581-0.613-3.7-1.84
	c-1.065-1.17-2.028-2.906-2.884-5.214l-0.015-0.036c-0.37-1.367-0.743-2.73-1.114-4.097c-0.722-2.647-1.443-5.301-2.254-8.3v-0.001
	c-0.612-2.209-1.243-3.859-1.892-4.949c-0.583-0.978-1.148-1.467-1.694-1.467c-0.071,0-0.346,0.144-0.827,0.434
	C4.483,11.9,3.755,12.385,2.84,13.029l-0.353,0.249l-0.266-0.342L0.26,10.404L0,10.069l0.319-0.281
	C1.441,8.8,2.456,7.898,3.381,7.069c0.933-0.836,1.943-1.748,3.014-2.72l0.009-0.007c1.39-1.206,2.607-2.128,3.655-2.766
	c1.085-0.662,2.005-1.028,2.762-1.099l0,0c1.771-0.17,3.204,0.356,4.303,1.58c1.056,1.177,1.78,2.999,2.17,5.465l0,0
	c0.391,2.498,0.73,4.567,1.017,6.208c0.281,1.602,0.5,2.712,0.654,3.328l0.003,0.012c0.462,2.095,0.938,3.657,1.438,4.687
	c0.43,0.894,0.832,1.341,1.209,1.341c0.303,0,0.737-0.298,1.303-0.892c0.631-0.664,1.377-1.674,2.236-3.029h0.002
	c0.856-1.357,1.518-2.55,1.975-3.578c0.447-1,0.697-1.835,0.756-2.506l0.002-0.009c0.111-1.067-0.029-1.85-0.42-2.348
	c-0.377-0.479-1.02-0.717-1.932-0.717c-0.473,0-0.949,0.052-1.428,0.154c-0.492,0.104-0.988,0.261-1.488,0.466l-0.885,0.363
	l0.278-0.914c1.021-3.316,2.492-5.816,4.42-7.5c1.951-1.701,4.351-2.563,7.203-2.586L35.64,0h0.183v0.001
	C35.895,0,35.963,0.001,36.03,0.002L36.03,0.002z"/>
</svg>
