<?xml version="1.0" encoding="utf-8"?>
<svg version="1.1"
	 xmlns="http://www.w3.org/2000/svg" xmlns:xlink="http://www.w3.org/1999/xlink"
	 x="0px" y="0px" width="48px" height="48px" viewBox="0 0 48 48">
<defs>
</defs>
<path d="M44.995,33.761c-0.052-0.11-0.1-0.202-0.144-0.275c-0.737-1.327-2.145-2.955-4.222-4.884l-0.043-0.045
	l-0.022-0.021l-0.022-0.022h-0.021c-0.943-0.898-1.54-1.503-1.79-1.813c-0.458-0.588-0.561-1.186-0.31-1.79
	c0.176-0.456,0.84-1.421,1.988-2.894c0.604-0.781,1.082-1.406,1.437-1.878c2.548-3.388,3.653-5.553,3.314-6.496l-0.132-0.221
	c-0.088-0.132-0.317-0.254-0.686-0.365c-0.367-0.11-0.84-0.129-1.414-0.055l-6.363,0.044c-0.103-0.036-0.251-0.033-0.442,0.011
	c-0.191,0.044-0.287,0.067-0.287,0.067l-0.11,0.055l-0.088,0.066c-0.073,0.044-0.155,0.121-0.244,0.231
	c-0.088,0.11-0.161,0.24-0.221,0.387c-0.692,1.782-1.48,3.439-2.364,4.972c-0.545,0.914-1.045,1.705-1.503,2.376
	c-0.457,0.67-0.839,1.164-1.148,1.479c-0.31,0.316-0.589,0.57-0.839,0.763c-0.252,0.192-0.443,0.272-0.575,0.243
	s-0.257-0.059-0.376-0.088c-0.206-0.134-0.373-0.314-0.497-0.542c-0.125-0.229-0.209-0.516-0.255-0.862
	c-0.042-0.347-0.069-0.645-0.076-0.895c-0.007-0.25-0.005-0.604,0.012-1.061c0.015-0.457,0.022-0.766,0.022-0.928
	c0-0.56,0.01-1.167,0.032-1.823c0.021-0.656,0.041-1.175,0.056-1.558c0.015-0.382,0.021-0.788,0.021-1.215
	c0-0.427-0.026-0.762-0.077-1.005c-0.051-0.243-0.13-0.478-0.232-0.708c-0.104-0.228-0.255-0.404-0.452-0.53
	c-0.199-0.125-0.447-0.225-0.741-0.299c-0.78-0.176-1.775-0.272-2.982-0.287c-2.74-0.029-4.5,0.147-5.282,0.53
	c-0.309,0.163-0.589,0.383-0.839,0.663c-0.265,0.324-0.302,0.501-0.11,0.53c0.883,0.132,1.509,0.449,1.877,0.95l0.133,0.266
	c0.104,0.191,0.207,0.53,0.31,1.016c0.103,0.487,0.169,1.023,0.199,1.613c0.073,1.075,0.073,1.997,0,2.762
	c-0.074,0.766-0.144,1.363-0.21,1.79c-0.066,0.428-0.166,0.774-0.298,1.039c-0.133,0.265-0.221,0.428-0.265,0.486
	c-0.044,0.059-0.082,0.096-0.11,0.11c-0.191,0.073-0.391,0.11-0.597,0.11c-0.207,0-0.457-0.104-0.751-0.31s-0.6-0.489-0.917-0.85
	c-0.317-0.361-0.674-0.866-1.072-1.514s-0.81-1.415-1.238-2.298l-0.353-0.641c-0.221-0.413-0.523-1.013-0.906-1.801
	c-0.383-0.788-0.722-1.551-1.016-2.287c-0.117-0.31-0.294-0.544-0.53-0.707l-0.11-0.067c-0.074-0.059-0.192-0.121-0.354-0.188
	c-0.162-0.066-0.332-0.114-0.508-0.143L4.194,13c-0.619,0-1.039,0.14-1.259,0.42l-0.088,0.132c-0.044,0.074-0.066,0.192-0.066,0.354
	s0.043,0.361,0.132,0.597c0.884,2.077,1.845,4.08,2.883,6.01c1.039,1.929,1.941,3.483,2.707,4.661
	c0.766,1.18,1.547,2.292,2.342,3.337c0.795,1.046,1.322,1.717,1.58,2.011c0.258,0.296,0.46,0.516,0.607,0.664l0.553,0.529
	c0.354,0.354,0.873,0.778,1.558,1.271c0.685,0.494,1.444,0.979,2.276,1.46c0.833,0.478,1.801,0.868,2.906,1.17
	c1.104,0.303,2.18,0.424,3.227,0.365h2.541c0.515-0.045,0.905-0.207,1.171-0.486l0.089-0.111c0.059-0.088,0.113-0.224,0.165-0.408
	c0.051-0.184,0.077-0.387,0.077-0.607c-0.016-0.634,0.033-1.204,0.144-1.712c0.11-0.509,0.235-0.891,0.376-1.15
	c0.141-0.257,0.299-0.475,0.475-0.651c0.177-0.175,0.303-0.283,0.376-0.32c0.074-0.037,0.133-0.062,0.177-0.076
	c0.354-0.118,0.77-0.004,1.248,0.342c0.479,0.347,0.928,0.774,1.349,1.282c0.42,0.509,0.924,1.079,1.514,1.712
	c0.59,0.635,1.104,1.104,1.547,1.414l0.441,0.265c0.296,0.179,0.678,0.34,1.15,0.487c0.47,0.146,0.882,0.184,1.236,0.111l5.656-0.09
	c0.561,0,0.995-0.093,1.305-0.276c0.309-0.184,0.492-0.387,0.551-0.608c0.061-0.22,0.062-0.471,0.012-0.751
	C45.097,34.066,45.046,33.871,44.995,33.761z"/>
</svg>
