<?xml version="1.0" encoding="utf-8"?>
<!-- Generator: Adobe Illustrator 15.0.0, SVG Export Plug-In  -->
<!DOCTYPE svg PUBLIC "-//W3C//DTD SVG 1.1//EN" "http://www.w3.org/Graphics/SVG/1.1/DTD/svg11.dtd" [
	<!ENTITY ns_flows "http://ns.adobe.com/Flows/1.0/">
]>
<svg version="1.1"
	 xmlns="http://www.w3.org/2000/svg" x="0px" y="0px" width="48px" height="48px" viewBox="-1.144 -6.688 48 48"
	 xml:space="preserve">
<defs>
</defs>
<path d="M10.502,32.322c-1.534-0.002-2.783-1.251-2.784-2.784l0.001-4.936H2.783C1.249,24.601,0,23.352,0,21.818
	s1.249-2.782,2.783-2.782l4.936,0.001l0-4.937c0-1.535,1.249-2.783,2.783-2.783c1.534,0,2.783,1.248,2.785,2.783v4.937l4.936-0.001
	c1.532,0.001,2.782,1.249,2.784,2.782c0,1.536-1.248,2.784-2.782,2.784l-4.937,0.001v4.935
	C13.285,31.071,12.037,32.32,10.502,32.322L10.502,32.322z"/>
<path d="M44.463,24.675L31.843,2.754c-2.972-4.01-7.48-3.317-9.869,0l-6.771,11.76v2.904l4.178-0.001
	c2.425,0.001,4.399,1.976,4.402,4.402c0,2.428-1.975,4.403-4.403,4.403l-4.178,0.001v6.31c0,0.749-0.208,1.445-0.541,2.064
	c7.422,0.069,25.062-0.021,27.474-0.052C46.188,34.495,46.548,28.284,44.463,24.675z M27.083,28.417
	c-1.053,0-1.906-0.854-1.906-1.906s0.854-1.906,1.906-1.906s1.905,0.854,1.905,1.906S28.136,28.417,27.083,28.417z M27.251,23.337
	c0,0-5.786-15.525-0.142-15.525C32.471,7.812,27.251,23.337,27.251,23.337z"/>
</svg>
