<?xml version="1.0" encoding="utf-8"?>
<!-- Generator: Adobe Illustrator 15.0.0, SVG Export Plug-In  -->
<!DOCTYPE svg PUBLIC "-//W3C//DTD SVG 1.1//EN" "http://www.w3.org/Graphics/SVG/1.1/DTD/svg11.dtd" [
	<!ENTITY ns_flows "http://ns.adobe.com/Flows/1.0/">
]>
<svg version="1.1"
	 xmlns="http://www.w3.org/2000/svg" xmlns:xlink="http://www.w3.org/1999/xlink" xmlns:a="http://ns.adobe.com/AdobeSVGViewerExtensions/3.0/"
	 x="0px" y="0px" width="48px" height="48px" viewBox="-2.2 -5.912 48 48"
	 xml:space="preserve">
<defs>
</defs>
<path d="M24.738,2.258C20.208-0.293,14.56-0.679,9.684,1.083C6.482,2.237,3.58,4.38,1.789,7.3c-1.625,2.632-2.234,5.916-1.448,8.928
	c0.785,3.342,3.102,6.145,5.925,8.018c-0.531,1.544-1.054,3.087-1.547,4.642c1.784-0.927,3.547-1.894,5.325-2.836
	c1.596,0.511,3.251,0.823,4.92,0.92c0.067-0.018-0.526-3.892-0.258-5.686c0.716-3.713,2.309-6.063,4.169-7.752
	C23.11,9.3,31.057,9.17,31.031,9.199C29.836,6.251,27.517,3.796,24.738,2.258L24.738,2.258z M12.592,9.286
	c-0.315,1.518-2.35,2.25-3.539,1.233C7.677,9.548,8.062,7.136,9.681,6.652C11.267,6.04,13.07,7.65,12.592,9.286z M23.597,8.845
	c0.014,1.747-2.313,2.837-3.622,1.65c-1.358-0.971-0.973-3.337,0.621-3.828C22.021,6.107,23.708,7.309,23.597,8.845L23.597,8.845z"
	/>
<path d="M42.763,19.447c-1.105-2.505-3.193-4.489-5.615-5.717c-4.275-2.169-9.596-2.152-13.855,0.051
	c-2.965,1.522-5.437,4.249-6.141,7.564c-0.58,2.438-0.059,5.067,1.235,7.197c1.928,3.194,5.408,5.233,9.03,5.891
	c2.622,0.532,5.334,0.22,7.882-0.521c1.523,0.596,2.891,1.555,4.371,2.264c-0.379-1.279-0.785-2.552-1.223-3.813
	c1.656-1.185,3.166-2.653,4.076-4.504C43.873,25.283,43.955,22.095,42.763,19.447L42.763,19.447z M27.881,20.404
	c-0.375,1.185-2.101,1.541-2.933,0.637c-0.916-0.831-0.561-2.578,0.643-2.948C26.929,17.531,28.467,19.068,27.881,20.404
	L27.881,20.404z M36.592,20.568c-0.456,1.065-2.054,1.312-2.841,0.486c-0.383-0.343-0.475-0.863-0.627-1.324
	c0.203-0.832,0.757-1.697,1.699-1.732C36.128,17.82,37.273,19.402,36.592,20.568z"/>
</svg>
