<?xml version="1.0" encoding="utf-8"?>
<svg version="1.1"
	 xmlns="http://www.w3.org/2000/svg" x="0px" y="0px" width="100px" height="100px" viewBox="-7.613 -7.496 100 100">
<defs>
</defs>
<path d="M42.738,0C19.522,0,0.703,18.819,0.703,42.035c0,7.439,1.941,14.424,5.333,20.486L0,85.008l22.808-5.958
	c5.931,3.2,12.718,5.021,19.93,5.021c23.215,0,42.036-18.821,42.036-42.035C84.773,18.819,65.953,0,42.738,0z M42.738,77.188
	c-7.433,0-14.322-2.313-20-6.25c0,0-7.999,2.441-7.989,2.449l-4.363,1.176l3.775-12.069c-4.134-5.765-6.576-12.823-6.576-20.458
	c0-19.414,15.738-35.152,35.152-35.152c19.414,0,35.152,15.738,35.152,35.152C77.891,61.448,62.152,77.188,42.738,77.188z"/>
<path d="M26.426,22.5c0,0-5.106,3.322-5.362,8.696c-0.29,6.087,4.348,14.205,11.739,21.16c7.391,6.957,16.521,10.435,22.753,9.854
	c6.231-0.58,7.825-4.638,7.825-4.638s1.306-3.768,0.726-5.072s-9.275-5.217-9.275-5.217s-0.725-0.58-1.739-0.146
	c-1.014,0.434-1.739,1.596-1.739,1.596S49.471,52.5,47.875,52.5s-6.377-2.318-9.855-5.652c-3.478-3.332-5.941-6.375-5.797-7.681
	s3.333-3.333,3.333-4.783c0-1.561-3.043-10.435-4.348-11.449S26.426,22.5,26.426,22.5z"/>
</svg>
