<?xml version="1.0" encoding="utf-8"?>
<!DOCTYPE svg PUBLIC "-//W3C//DTD SVG 1.1//EN" "http://www.w3.org/Graphics/SVG/1.1/DTD/svg11.dtd" [
	<!ENTITY ns_flows "http://ns.adobe.com/Flows/1.0/">
]>
<svg version="1.1"
	 xmlns="http://www.w3.org/2000/svg" x="0px" y="0px" width="48px" height="48px" viewBox="-2.801 -2.8 48 48">
<defs>
</defs>
<path d="M6.326,6.096L6.307,6.113v0.002C2.265,10.093-0.006,15.528,0,21.198c-0.006,4.643,1.516,9.154,4.333,12.842
	c0.029,0.035,0.073,0.057,0.114,0.035c0.039-0.021,0.04-0.07,0.024-0.109c-1.616-4.998,6.645-17.109,10.913-22.187
	c0.013-0.019,0.031-0.038,0.031-0.063c0-0.028-0.021-0.051-0.041-0.069C8.195,4.501,6.278,6.135,6.306,6.112 M36.074,6.096
	l0.02,0.018v0.002c4.039,3.978,6.312,9.414,6.306,15.083c0.004,4.642-1.517,9.155-4.334,12.842
	c-0.025,0.035-0.074,0.058-0.113,0.035c-0.037-0.021-0.039-0.069-0.024-0.108c1.617-4.998-6.638-17.119-10.904-22.198
	c-0.016-0.019-0.031-0.039-0.031-0.061c0-0.031,0.018-0.053,0.041-0.071c7.182-7.146,9.084-5.501,9.063-5.524 M21.2,0
	c4.278,0,7.796,1.172,11.042,3.103c0.039,0.019,0.051,0.065,0.035,0.104c-0.014,0.038-0.061,0.046-0.102,0.037
	C28.07,2.356,21.833,5.902,21.245,6.257c-0.013,0.01-0.028,0.018-0.045,0.018c-0.02,0-0.034-0.008-0.047-0.018
	c-1.564-0.898-7.331-3.921-10.961-2.992c-0.041,0.011-0.085,0.003-0.103-0.037c-0.017-0.039,0-0.083,0.036-0.105
	C13.369,1.172,16.933,0,21.2,0 M21.2,17.002c0.026,0,0.051,0.021,0.068,0.034c6.343,4.824,17.199,16.747,13.884,20.122l0.008-0.007
	l-0.004,0.007H35.15c-3.859,3.386-8.818,5.25-13.953,5.242c-5.134,0.008-10.095-1.856-13.955-5.242l-0.004-0.007l0.004,0.007
	c-3.308-3.375,7.547-15.298,13.885-20.122C21.145,17.023,21.173,17.002,21.2,17.002"/>
</svg>
