<?xml version="1.0" encoding="utf-8"?>
<!-- Generator: Adobe Illustrator 15.0.0, SVG Export Plug-In  -->
<!DOCTYPE svg PUBLIC "-//W3C//DTD SVG 1.1//EN" "http://www.w3.org/Graphics/SVG/1.1/DTD/svg11.dtd" [
	<!ENTITY ns_flows "http://ns.adobe.com/Flows/1.0/">
]>
<svg version="1.1"
	 xmlns="http://www.w3.org/2000/svg" x="0px" y="0px" width="14px" height="14px" viewBox="0 0 14 14">
<path d="M11.988,5.669H9.831v2.662h2.157c0.736,0,1.332-0.596,1.332-1.331C13.32,6.264,12.725,5.669,11.988,5.669z"/>
<path d="M4.169,5.669H2.011C1.275,5.669,0.68,6.265,0.68,7s0.596,1.331,1.331,1.331h2.158V5.669z"/>
<path d="M8.957,9.428c0,0.82-0.875,1.486-1.956,1.486l0,0c-1.082,0-1.958-0.666-1.958-1.486V4.573c0-0.821,0.876-1.488,1.958-1.488
	l0,0c1.081,0,1.956,0.667,1.956,1.488V9.428z"/>
</svg>
