<?xml version="1.0" encoding="utf-8"?>
<!DOCTYPE svg PUBLIC "-//W3C//DTD SVG 1.1//EN" "http://www.w3.org/Graphics/SVG/1.1/DTD/svg11.dtd" [
	<!ENTITY ns_flows "http://ns.adobe.com/Flows/1.0/">
]>
<svg version="1.1"
	 xmlns="http://www.w3.org/2000/svg" x="0px" y="0px" width="48px" height="48px" viewBox="-1.996 -3.236 48 48">
<defs>
</defs>
<path d="M16.923,25.903c0.038-0.002,0.071-0.019,0.106-0.027c-0.04,0.011-0.076,0.024-0.115,0.025
	C16.915,25.901,16.919,25.903,16.923,25.903z"/>
<path d="M9.7,25.449c0.002,0.007,0.004,0.013,0.004,0.021c-0.007-0.06-0.011-0.12-0.019-0.181C9.692,25.345,9.692,25.396,9.7,25.449
	z"/>
<path d="M27.006,6.987c-0.053-0.005-0.104-0.003-0.157-0.007c0.08,0.005,0.157,0.01,0.233,0.018
	C27.057,6.995,27.031,6.99,27.006,6.987z"/>
<path d="M30.219,37.975c0.025,0,0.052-0.008,0.078-0.011c-0.079,0.009-0.16,0.013-0.237,0.017
	C30.111,37.977,30.164,37.98,30.219,37.975z"/>
<path d="M21.234,19.65c0.051-0.004,0.104-0.002,0.155-0.005c-0.047,0.003-0.091,0-0.135,0.003
	C21.246,19.649,21.24,19.65,21.234,19.65z"/>
<path d="M42.91,0H1.098C0.491,0,0,0.492,0,1.099V40.43c0,0.605,0.491,1.098,1.098,1.098H42.91c0.607,0,1.098-0.493,1.098-1.098
	V1.099C44.008,0.492,43.516,0,42.91,0z M27.046,6.597c1.409,0.134,2.709,0.776,3.772,1.874c2.365,2.733,1.723,6.232-0.26,8.038
	l-3.585,3.26l-1.328-1.434l3.384-3.076c1.553-1.414,1.666-3.829,0.252-5.384c-0.639-0.703-1.512-1.139-2.455-1.228
	c-1.069-0.102-2.133,0.252-2.926,0.974l-3.439,3.128l-1.331-1.433l3.672-3.338C23.931,6.952,25.476,6.449,27.046,6.597z
	 M19.349,3.143l-0.696,7.047h-0.694L17.76,3.144L19.349,3.143z M12.082,5.992l4.491,5.474l-0.491,0.491l-5.123-4.842L12.082,5.992z
	 M8.405,12.618l7.046,0.694v0.695l-7.046,0.198V12.618z M13.911,30.184c-1.028-0.107-2.264-0.861-2.264-0.861l-0.068-0.049
	c-0.044-0.03-0.089-0.065-0.133-0.096c-1.193-1.025-1.926-2.291-2.132-3.671c-0.235-1.564,0.214-3.178,1.232-4.43l4.098-5.033
	l1.505,1.25l-3.9,4.792c-0.722,0.885-1.038,1.922-0.888,2.914c0.121,0.807,0.55,1.582,1.236,2.242c0,0,0.567,0.734,1.577,0.73
	c1.018-0.002,1.516-0.377,1.516-0.377l0.716,2.024C16.406,29.62,14.936,30.292,13.911,30.184z M34.047,36.528
	c-1.077,1.086-2.385,1.717-3.795,1.836c-1.57,0.133-3.111-0.388-4.229-1.425l-6.884-6.405l-0.482-0.447l0.625-0.209
	c0.324-0.108,0.664-0.424,0.824-0.573l0.266-0.248l0.268,0.246l6.497,6.004c0.785,0.729,1.849,1.094,2.917,1.004
	c0.945-0.08,1.822-0.508,2.468-1.205c1.431-1.539,1.341-3.957-0.2-5.385l-7.877-7.313c-0.84-0.777-1.854-1.158-2.854-1.074
	c-0.813,0.069-1.614,0.446-2.317,1.091l-0.212,0.194l-0.021-0.015c-0.349,0.308-1.021,0.993-1.165,1.805
	c-0.044,0.268-0.052,0.542-0.022,0.813c0.03,0.274-0.039,0.524-0.2,0.722c-0.166,0.202-0.415,0.327-0.698,0.352
	c-0.503,0.043-1.074-0.258-1.193-0.922c-0.071-0.406-0.051-0.885,0.07-1.51c0.219-1.136,1.031-2.121,1.506-2.618
	c0.026-0.031,0.049-0.063,0.076-0.093c1.107-1.126,2.417-1.774,3.806-1.892c1.573-0.134,3.153,0.42,4.339,1.518l8.309,7.712
	C35.832,30.313,36.437,33.817,34.047,36.528z"/>
</svg>
