<?xml version="1.0" encoding="utf-8"?>
<svg version="1.1"
	 xmlns="http://www.w3.org/2000/svg" x="0px" y="0px" width="48px" height="48px" viewBox="-2.6 -4.2 48 48">
<defs>
</defs>
<path d="M24.27,26.829L21.8,29.3c-0.2,0.2-0.6,0.2-0.8,0L7.7,16c-0.2-0.2-0.2-0.6,0-0.8l2.47-2.47L24.27,26.829z"/>
<path d="M33.201,3.8c-0.701-0.8-4.5,2-4.701,2.3c-0.6,0.8-3.299,4.3-7.1,7.1c-2.398,1.819-3.754,1.994-4.158,2.001l-4.731-4.738
	l-1.273,1.272l14.061,14.081l1.273-1.271L21.834,19.8c0.177-0.517,1.071-3.036,1.966-4.2c1.5-1.9,5.699-6.2,7.1-7.1
	C31.3,8.2,33.9,4.5,33.201,3.8z"/>
<path d="M40.599,0H2.1C0.9,0,0,0.9,0,2.1v28.8C0,32,0.9,33,2.1,33h14.6v4.5h-0.4c-1.2,0-2.1,0.9-2.1,2.1h14.2c0-1.1-0.9-2.1-2.1-2.1
	H26V33h14.701c1.1,0,2.1-0.9,2.1-2.1V2.1C42.701,0.9,41.8,0,40.599,0z M38.8,30.3H3.9c-1.1,0-1.5-0.5-1.5-1.5v-25
	c0-1.1,0.5-1.5,1.5-1.5h34.801c1.1,0,1.5,0.5,1.5,1.5v25h0.1C40.3,29.9,39.8,30.3,38.8,30.3z"/>
</svg>
