<?xml version="1.0" encoding="utf-8"?>
<!-- Generator: Adobe Illustrator 15.0.0, SVG Export Plug-In  -->
<!DOCTYPE svg PUBLIC "-//W3C//DTD SVG 1.1//EN" "http://www.w3.org/Graphics/SVG/1.1/DTD/svg11.dtd" [
	<!ENTITY ns_flows "http://ns.adobe.com/Flows/1.0/">
]>
<svg version="1.1"
	 xmlns="http://www.w3.org/2000/svg" xmlns:xlink="http://www.w3.org/1999/xlink" xmlns:a="http://ns.adobe.com/AdobeSVGViewerExtensions/3.0/"
	 x="0px" y="0px" width="48px" height="48px" viewBox="-2.539 -6.771 48 48"
	 xml:space="preserve">
<defs>
</defs>
<path d="M15.238,21.433c-0.362-0.385-0.725-0.779-1.086-1.183C14.514,20.653,14.876,21.048,15.238,21.433z"/>
<path d="M17.592,23.821c1.079,1.048,2.064,1.948,2.854,2.647l-1.119-10.585L17.592,23.821z"/>
<path d="M31.002,19.004l-0.051-0.506l-2.295,3.803c-0.398,0.408-0.793,0.804-1.18,1.181l-2.088-7.807l-4.735,10.978
	c-0.04-0.035-0.082-0.072-0.124-0.109c1.08,0.953,1.769,1.511,1.769,1.511s5.291-4.106,9.371-9.117L31.002,19.004z"/>
<path d="M30.1,0.054c-6.5-0.6-7.6,5.6-7.6,5.6s-0.9-6.3-8.3-5.6c-6.2,0.6-7.9,7.3-5.8,12c1.276,2.771,3.47,5.647,5.742,8.184
	l-0.063-0.804l-0.11,0.295l-0.411-0.154c-0.14-0.16-0.28-0.321-0.418-0.484l1.582-4.217l0.519,6.561
	c0.796,0.845,1.583,1.639,2.329,2.364c-0.268-0.261-0.541-0.529-0.818-0.807l2.921-13.367l1.424,13.478l4.515-10.469l2.367,8.855
	l3.668-6.08l0.316,3.166c-0.082,0.104-0.166,0.207-0.25,0.311c1.703-2.099,3.191-4.354,3.986-6.532
	C37.6,7.254,36.6,0.754,30.1,0.054z"/>
<path d="M13.198,19.159l-2.282,6.779l-2.834-9.01l-1.957,6.726H0v0.999h6.875l1.243-4.273l2.765,8.789l3.075-9.137
	C13.703,19.745,13.449,19.454,13.198,19.159z"/>
<path d="M16.751,22.992l-1.019,4.658l-0.492-6.216c-0.366-0.389-0.732-0.787-1.098-1.195l1.125,14.218l2.325-10.636
	C17.317,23.554,17.036,23.277,16.751,22.992z"/>
<path d="M27.477,23.481l0.143,0.538l1.037-1.719C28.258,22.71,27.864,23.104,27.477,23.481z"/>
<path d="M20.446,26.469l0.057,0.535l0.151-0.352C20.587,26.594,20.517,26.53,20.446,26.469z"/>
<path d="M36.725,25.272l-1.439-8.512l-2.402,9.991l-0.904-8.196c-0.289,0.363-0.586,0.723-0.887,1.076l1.424,12.923l2.6-10.807
	l0.758,4.487l7.004,0.317l0.045-0.998L36.725,25.272z"/>
</svg>
