<?xml version="1.0" encoding="utf-8"?>
<!-- Generator: Adobe Illustrator 15.0.0, SVG Export Plug-In  -->
<!DOCTYPE svg PUBLIC "-//W3C//DTD SVG 1.1//EN" "http://www.w3.org/Graphics/SVG/1.1/DTD/svg11.dtd" [
	<!ENTITY ns_flows "http://ns.adobe.com/Flows/1.0/">
]>
<svg version="1.1"
	 xmlns="http://www.w3.org/2000/svg" x="0px" y="0px" width="48px" height="48px" viewBox="-4.834 -3.292 48 48"
	 xml:space="preserve">
<defs>
</defs>
<path d="M13.938,11.946c-0.594,0-1.145,0.661-1.343,1.717l-0.198,1.166c0.176,0.154,0.407,0.253,0.726,0.253
	c0.848,0,1.508-1.2,1.508-2.256C14.631,12.397,14.444,11.946,13.938,11.946z"/>
<path d="M26.318,11.946c-0.594,0-1.146,0.661-1.342,1.717l-0.199,1.166c0.176,0.154,0.406,0.253,0.727,0.253
	c0.848,0,1.51-1.2,1.51-2.256C27.014,12.397,26.825,11.946,26.318,11.946z"/>
<path d="M19.165,6.507c-8.038,0-14.556,3.241-14.556,7.24c0,3.997,6.518,7.238,14.556,7.238c8.041,0,14.558-3.24,14.558-7.238
	C33.723,9.748,27.206,6.507,19.165,6.507z M13.168,16.283c-0.429,0-0.803-0.11-0.991-0.221h-0.033l-0.43,2.279h-1.585l1.046-5.481
	c0.121-0.639,0.242-1.574,0.308-2.125h1.42l-0.099,0.825h0.022c0.44-0.583,1.079-0.902,1.728-0.902c1.167,0,1.739,0.936,1.739,2.047
	C16.293,14.565,15.049,16.283,13.168,16.283z M22.212,13.08l-0.583,3.082h-1.585l0.562-2.95c0.045-0.209,0.066-0.44,0.066-0.66
	c0-0.363-0.145-0.617-0.541-0.617c-0.561,0-1.122,0.682-1.32,1.761l-0.473,2.465h-1.584l1.486-7.815h1.585l-0.606,3.126h0.022
	c0.45-0.495,1.013-0.814,1.717-0.814c0.837,0,1.354,0.528,1.354,1.453C22.313,12.364,22.268,12.772,22.212,13.08z M25.548,16.283
	c-0.43,0-0.804-0.11-0.991-0.221h-0.031l-0.43,2.279H22.51l1.047-5.481c0.121-0.639,0.242-1.574,0.309-2.125h1.419l-0.099,0.825
	h0.021c0.439-0.583,1.078-0.902,1.729-0.902c1.166,0,1.737,0.936,1.737,2.047C28.673,14.565,27.43,16.283,25.548,16.283z"/>
<path d="M0,0v41.417h38.332V0H0z M35.596,38.287H2.738V3.129h32.856v35.158H35.596z"/>
<rect x="7.301" y="26.972" width="23.729" height="1.826"/>
<rect x="7.301" y="32.396" width="23.729" height="1.826"/>
</svg>
