<?xml version="1.0" encoding="utf-8"?>
<!DOCTYPE svg PUBLIC "-//W3C//DTD SVG 1.1//EN" "http://www.w3.org/Graphics/SVG/1.1/DTD/svg11.dtd" [
	<!ENTITY ns_flows "http://ns.adobe.com/Flows/1.0/">
]>
<svg version="1.1"
	 xmlns="http://www.w3.org/2000/svg" x="0px" y="0px" width="48px" height="48px" viewBox="-2.992 -6.125 48 48">
<defs>
</defs>
<path d="M31.801,20.599c-3.461,0-6.555-1.567-8.615-4.029H14.7v-0.001c-2.189,0.135-3.678-1.488-3.74-3.741v-4.48H2.74
	C1.227,8.348,0,9.575,0,11.088V33.01c0,1.514,1.227,2.74,2.74,2.74h36.535c1.513,0,2.74-1.229,2.74-2.74V16.57h-1.599
	C38.355,19.031,35.263,20.599,31.801,20.599z M12.135,29.63c0.64,0,1.321-0.122,1.744-0.3l0.3,1.635
	c-0.368,0.178-1.24,0.395-2.344,0.395c-3.175,0-4.81-1.988-4.81-4.604c0-3.134,2.234-4.864,5.014-4.864
	c1.077,0,1.894,0.204,2.262,0.409l-0.436,1.636c-0.409-0.178-0.995-0.342-1.744-0.342c-1.635,0-2.916,0.995-2.916,3.039
	C9.205,28.473,10.295,29.63,12.135,29.63z M23.809,31.209l-0.15-3.516c-0.041-1.104-0.082-2.438-0.082-3.773h-0.027
	c-0.3,1.172-0.682,2.48-1.035,3.557l-1.118,3.584h-1.622l-0.981-3.543c-0.3-1.091-0.6-2.397-0.831-3.598h-0.027
	c-0.041,1.24-0.096,2.657-0.15,3.803l-0.177,3.487h-1.921l0.586-9.185h2.766l0.899,3.065c0.3,1.063,0.572,2.207,0.777,3.284h0.054
	c0.246-1.063,0.559-2.275,0.874-3.298l0.967-3.052h2.726l0.49,9.184H23.809z M30.002,31.346c-1.049,0-2.085-0.285-2.604-0.572
	l0.422-1.703c0.546,0.285,1.418,0.572,2.304,0.572c0.953,0,1.458-0.396,1.458-0.994c0-0.572-0.438-0.899-1.54-1.281
	c-1.526-0.545-2.534-1.391-2.534-2.725c0-1.567,1.321-2.754,3.475-2.754c1.05,0,1.8,0.204,2.345,0.463l-0.464,1.664
	c-0.354-0.179-1.021-0.438-1.907-0.438c-0.899,0-1.336,0.423-1.336,0.886c0,0.586,0.505,0.845,1.704,1.295
	c1.621,0.601,2.369,1.444,2.369,2.738C33.693,30.037,32.521,31.346,30.002,31.346z"/>
<path d="M31.801,0c-5.171,0-9.363,4.192-9.363,9.363c0,5.171,4.192,9.364,9.363,9.364c5.172,0,9.363-4.192,9.363-9.364
	C41.164,4.192,36.973,0,31.801,0z M25.982,12.73l2.449-2.449h-2.714l6.128-6.126l6.125,6.126h-2.184l2.449,2.449H25.982z"/>
<path d="M20.565,9.363c0-2.15,0.615-4.151,1.662-5.859H4.543c-1.513,0-2.741,1.45-2.741,2.964h11.537v4.576
	c0.123,2.284,1.523,3.54,3.339,3.54l5.176-0.006C21.035,13.019,20.565,11.246,20.565,9.363z"/>
<path d="M41.761,14.553l0.23,0v-0.478C41.917,14.235,41.843,14.396,41.761,14.553z"/>
</svg>
