<?xml version="1.0" encoding="utf-8"?>
<!-- Generator: Adobe Illustrator 15.0.0, SVG Export Plug-In  -->
<!DOCTYPE svg PUBLIC "-//W3C//DTD SVG 1.1//EN" "http://www.w3.org/Graphics/SVG/1.1/DTD/svg11.dtd" [
	<!ENTITY ns_flows "http://ns.adobe.com/Flows/1.0/">
]>
<svg version="1.1"
	 xmlns="http://www.w3.org/2000/svg" xmlns:xlink="http://www.w3.org/1999/xlink" xmlns:a="http://ns.adobe.com/AdobeSVGViewerExtensions/3.0/"
	 x="0px" y="0px" width="90px" height="34px" viewBox="0 -2 90 34" enable-background="new 0 -2 90 34" xml:space="preserve">
<defs>
</defs>
<rect fill="#C8691C" width="90" height="30.492"/>
<rect fill="#F79523" width="90" height="15.431"/>
<path fill="#52CAF5" d="M86.874,21.737c0,3.112,0.294,5.638-2.82,5.638H65.262c-3.112,0-2.819-2.525-2.819-5.638V8.584
	c0-3.113-0.295-5.637,2.819-5.637h18.792c3.112,0,2.82,2.524,2.82,5.637V21.737z"/>
<path fill="#FFFFFF" d="M7.511,17.816l-1.964-6.418H6.67l1.021,3.705l0.381,1.377c0.016-0.068,0.127-0.51,0.333-1.323l1.021-3.76
	h1.118l0.961,3.723l0.32,1.227l0.369-1.239l1.1-3.711h1.058l-2.006,6.418h-1.13l-1.021-3.844l-0.248-1.094l-1.299,4.938H7.511z"/>
<path fill="#FFFFFF" d="M15.265,17.816v-8.86h1.088v3.179c0.508-0.588,1.148-0.882,1.922-0.882c0.475,0,0.888,0.094,1.239,0.281
	s0.602,0.446,0.752,0.776c0.151,0.331,0.227,0.81,0.227,1.438v4.067h-1.088v-4.067c0-0.544-0.118-0.939-0.354-1.188
	c-0.236-0.248-0.569-0.372-1-0.372c-0.323,0-0.626,0.083-0.91,0.251c-0.284,0.167-0.487,0.394-0.607,0.68
	c-0.121,0.286-0.182,0.681-0.182,1.185v3.511H15.265z"/>
<path fill="#FFFFFF" d="M22.155,10.208V8.956h1.088v1.251H22.155z M22.155,17.816v-6.418h1.088v6.418H22.155z"/>
<path fill="#FFFFFF" d="M24.464,15.9l1.076-0.169c0.061,0.431,0.229,0.762,0.505,0.991c0.276,0.23,0.662,0.345,1.157,0.345
	c0.5,0,0.871-0.102,1.112-0.306c0.242-0.203,0.363-0.441,0.363-0.716c0-0.245-0.107-0.438-0.321-0.58
	c-0.149-0.097-0.52-0.22-1.112-0.369c-0.798-0.202-1.351-0.376-1.659-0.523s-0.542-0.351-0.701-0.61s-0.239-0.547-0.239-0.861
	c0-0.286,0.065-0.551,0.197-0.795c0.131-0.244,0.309-0.446,0.535-0.607c0.169-0.125,0.4-0.23,0.692-0.317
	c0.292-0.086,0.605-0.13,0.94-0.13c0.504,0,0.946,0.073,1.327,0.218s0.662,0.341,0.843,0.589c0.181,0.248,0.306,0.579,0.375,0.994
	l-1.063,0.145c-0.048-0.331-0.188-0.588-0.42-0.773c-0.232-0.186-0.559-0.278-0.982-0.278c-0.5,0-0.856,0.083-1.07,0.248
	c-0.213,0.165-0.32,0.358-0.32,0.58c0,0.141,0.044,0.268,0.133,0.381c0.089,0.117,0.228,0.213,0.417,0.29
	c0.109,0.04,0.429,0.133,0.961,0.278c0.77,0.206,1.306,0.374,1.61,0.505S29.362,14.75,29.535,15c0.173,0.25,0.26,0.56,0.26,0.931
	c0,0.362-0.106,0.703-0.317,1.023c-0.212,0.32-0.517,0.568-0.916,0.744c-0.399,0.175-0.85,0.263-1.354,0.263
	c-0.834,0-1.47-0.173-1.907-0.521C24.864,17.096,24.585,16.582,24.464,15.9z"/>
<path fill="#FFFFFF" d="M31.088,20.276v-8.878h0.991v0.834c0.234-0.326,0.498-0.571,0.792-0.734c0.294-0.164,0.651-0.245,1.07-0.245
	c0.548,0,1.032,0.141,1.451,0.423c0.419,0.282,0.735,0.68,0.949,1.193c0.213,0.514,0.32,1.077,0.32,1.689
	c0,0.657-0.118,1.248-0.354,1.774s-0.578,0.929-1.027,1.209s-0.922,0.42-1.417,0.42c-0.363,0-0.688-0.076-0.976-0.229
	s-0.525-0.347-0.71-0.58v3.124H31.088z M32.074,14.644c0,0.826,0.167,1.437,0.501,1.831c0.334,0.396,0.74,0.593,1.215,0.593
	c0.483,0,0.897-0.204,1.242-0.613c0.345-0.409,0.517-1.043,0.517-1.901c0-0.818-0.168-1.431-0.505-1.837
	c-0.336-0.407-0.738-0.61-1.206-0.61c-0.463,0-0.874,0.216-1.23,0.649C32.252,13.188,32.074,13.818,32.074,14.644z"/>
<path fill="#FFFFFF" d="M42.367,15.75l1.125,0.139c-0.178,0.656-0.506,1.166-0.985,1.529c-0.479,0.362-1.092,0.544-1.837,0.544
	c-0.939,0-1.683-0.289-2.233-0.867c-0.55-0.578-0.825-1.39-0.825-2.433c0-1.08,0.278-1.918,0.834-2.515s1.277-0.895,2.164-0.895
	c0.858,0,1.56,0.292,2.104,0.876s0.816,1.406,0.816,2.466c0,0.064-0.002,0.161-0.006,0.291h-4.787c0.04,0.705,0.24,1.245,0.598,1.62
	c0.359,0.374,0.806,0.562,1.342,0.562c0.399,0,0.74-0.104,1.021-0.314C41.978,16.543,42.202,16.209,42.367,15.75z M38.795,13.991
	h3.584c-0.048-0.54-0.186-0.945-0.411-1.215c-0.346-0.419-0.796-0.629-1.348-0.629c-0.5,0-0.92,0.167-1.26,0.502
	C39.02,12.983,38.831,13.431,38.795,13.991z"/>
<path fill="#FFFFFF" d="M44.845,17.816v-6.418h0.979v0.973c0.25-0.455,0.48-0.755,0.691-0.9c0.212-0.145,0.444-0.218,0.698-0.218
	c0.367,0,0.739,0.117,1.118,0.351l-0.374,1.009c-0.267-0.157-0.532-0.235-0.798-0.235c-0.238,0-0.452,0.071-0.641,0.214
	c-0.189,0.143-0.325,0.341-0.405,0.595c-0.121,0.387-0.182,0.81-0.182,1.27v3.36H44.845z"/>
<g>
	<g>
		<polyline fill="none" stroke="#FFFFFF" stroke-width="2" stroke-miterlimit="10" points="65.514,9.94 65.514,8.94 66.514,8.94 		
			"/>
		
			<line fill="none" stroke="#FFFFFF" stroke-width="2" stroke-miterlimit="10" stroke-dasharray="1.8459,1.8459" x1="68.359" y1="8.94" x2="82.204" y2="8.94"/>
		<polyline fill="none" stroke="#FFFFFF" stroke-width="2" stroke-miterlimit="10" points="83.127,8.94 84.127,8.94 84.127,9.94 		
			"/>
		
			<line fill="none" stroke="#FFFFFF" stroke-width="2" stroke-miterlimit="10" stroke-dasharray="2.3499,2.3499" x1="84.127" y1="12.29" x2="84.127" y2="20.515"/>
		<polyline fill="none" stroke="#FFFFFF" stroke-width="2" stroke-miterlimit="10" points="84.127,21.689 84.127,22.689 
			83.127,22.689 		"/>
		
			<line fill="none" stroke="#FFFFFF" stroke-width="2" stroke-miterlimit="10" stroke-dasharray="1.8459,1.8459" x1="81.281" y1="22.689" x2="67.437" y2="22.689"/>
		<polyline fill="none" stroke="#FFFFFF" stroke-width="2" stroke-miterlimit="10" points="66.514,22.689 65.514,22.689 
			65.514,21.689 		"/>
		
			<line fill="none" stroke="#FFFFFF" stroke-width="2" stroke-miterlimit="10" stroke-dasharray="2.3499,2.3499" x1="65.514" y1="19.34" x2="65.514" y2="11.115"/>
	</g>
</g>
<g>
	<g>
		<line fill="none" stroke="#FFFFFF" stroke-width="2" stroke-miterlimit="10" x1="65.466" y1="9.719" x2="66.329" y2="10.224"/>
		
			<line fill="none" stroke="#FFFFFF" stroke-width="2" stroke-miterlimit="10" stroke-dasharray="1.8019,1.8019" x1="67.884" y1="11.134" x2="73.327" y2="14.32"/>
		<polyline fill="none" stroke="#FFFFFF" stroke-width="2" stroke-miterlimit="10" points="74.104,14.775 74.968,15.28 75.79,14.71 
					"/>
		
			<line fill="none" stroke="#FFFFFF" stroke-width="2" stroke-miterlimit="10" stroke-dasharray="1.8279,1.8279" x1="77.293" y1="13.67" x2="82.554" y2="10.029"/>
		<line fill="none" stroke="#FFFFFF" stroke-width="2" stroke-miterlimit="10" x1="83.305" y1="9.509" x2="84.127" y2="8.94"/>
	</g>
</g>
</svg>
