<?xml version="1.0" encoding="utf-8"?>
<!-- Generator: Adobe Illustrator 16.0.0, SVG Export Plug-In . SVG Version: 6.00 Build 0)  -->
<!DOCTYPE svg PUBLIC "-//W3C//DTD SVG 1.1//EN" "http://www.w3.org/Graphics/SVG/1.1/DTD/svg11.dtd">
<svg version="1.1" xmlns="http://www.w3.org/2000/svg" xmlns:xlink="http://www.w3.org/1999/xlink" x="0px" y="0px"
	 width="48px" height="48px" viewBox="0 0 48 48">
<path d="M8.65,22.303c-0.314,0-0.544,0.285-0.544,0.706c0,0.347,0.192,0.645,0.57,0.645c0.26,0,0.439-0.118,0.526-0.261
    c0.031-0.062,0.043-0.123,0.043-0.241C9.25,22.724,9.09,22.303,8.65,22.303z"/>
<path d="M17.978,16.557H7.604c-2.7,0-4.8,2.2-4.8,4.8v4c0,2.698,2.2,4.799,4.8,4.799h9.753c-0.812-1.889-1.265-3.969-1.265-6.156
    C16.093,21.305,16.776,18.769,17.978,16.557z M5.922,25.71h-0.91v-3.19H4.999L4.23,22.885l-0.155-0.706l1.072-0.495h0.774V25.71z
     M9.507,25.207c-0.384,0.347-0.917,0.533-1.542,0.558c-0.155,0.013-0.322,0.006-0.428,0v-0.729c0,0,0,0-0.001,0h0.001l0,0
    c0.124,0.012,0.223,0.006,0.408,0c0.291-0.02,0.582-0.101,0.793-0.248c0.266-0.18,0.439-0.446,0.508-0.75l-0.012-0.006
    c-0.18,0.186-0.446,0.291-0.812,0.291c-0.682,0-1.251-0.471-1.251-1.258c0-0.786,0.632-1.449,1.518-1.449
    c1.035,0,1.524,0.793,1.524,1.734C10.213,24.192,9.947,24.798,9.507,25.207z M13.542,25.71h-2.854v-0.57l0.514-0.464
    c0.886-0.793,1.313-1.245,1.319-1.717c0-0.328-0.192-0.588-0.657-0.588c-0.347,0-0.65,0.173-0.861,0.328l-0.267-0.669
    c0.297-0.229,0.774-0.415,1.313-0.415c0.917,0,1.413,0.532,1.413,1.258c0,0.681-0.483,1.22-1.072,1.741l-0.372,0.31v0.013h1.524
    V25.71z M14.712,25.777c-0.316,0.002-0.546-0.242-0.546-0.569c0-0.341,0.229-0.576,0.558-0.576c0.322,0,0.545,0.229,0.551,0.576
    C15.275,25.535,15.052,25.777,14.712,25.777z"/>
<path d="M31.705,10.51c-7.483,0-13.489,6.006-13.489,13.49c0,7.398,6.006,13.49,13.489,13.49c7.398,0,13.49-6.006,13.49-13.49
	C45.109,16.516,39.104,10.51,31.705,10.51 M22.22,24c0-2.002,0.609-3.829,1.653-5.396l11.663,13.926
	c-1.219,0.522-2.522,0.871-3.916,0.871C26.484,33.4,22.22,29.222,22.22,24 M39.018,29.918L27.095,15.733
	c1.394-0.783,2.959-1.219,4.61-1.219c5.224,0,9.4,4.265,9.4,9.399C41.105,26.263,40.322,28.352,39.018,29.918"/>
</svg>
