<?xml version="1.0" encoding="utf-8"?>
<!-- Generator: Adobe Illustrator 15.0.0, SVG Export Plug-In  -->
<!DOCTYPE svg PUBLIC "-//W3C//DTD SVG 1.1//EN" "http://www.w3.org/Graphics/SVG/1.1/DTD/svg11.dtd" [
	<!ENTITY ns_flows "http://ns.adobe.com/Flows/1.0/">
]>
<svg version="1.1"
	 xmlns="http://www.w3.org/2000/svg" xmlns:xlink="http://www.w3.org/1999/xlink" xmlns:a="http://ns.adobe.com/AdobeSVGViewerExtensions/3.0/"
	 x="0px" y="0px" width="48px" height="48px" viewBox="-3.254 -5.878 48 48"
	 xml:space="preserve">
<defs>
</defs>
<path d="M29.947,10.221c0,5.648-4.348,10.219-9.718,10.219c-5.373,0-9.72-4.571-9.72-10.219
	C10.508,4.576,14.856,0,20.229,0C25.599,0,29.947,4.576,29.947,10.221z"/>
<path d="M39.412,17.312H38.15c-0.045,0.726-0.635,1.305-1.371,1.305h-2.773c-0.736,0-1.326-0.579-1.369-1.305h-1.264
	c-1.148,0-2.078,0.931-2.078,2.079v14.773c0,1.147,0.93,2.08,2.078,2.08h8.039c1.148,0,2.08-0.933,2.08-2.08V19.391
	C41.492,18.243,40.56,17.312,39.412,17.312z M32.701,20.413h5.385v5.874h-5.385V20.413z M39.39,33.65h-7.996v-1.306h7.996V33.65z
	 M39.39,30.531h-7.996v-1.307h7.996V30.531z"/>
<path d="M26.628,24.061c-1.816,0.431-4.02,0.685-6.4,0.685c-6.188,0-11.203-1.703-11.203-3.805
	c0-0.149,0.03-0.295,0.08-0.439C4.256,23.667,0.824,28.828,0,34.829h26.628V24.061z"/>
</svg>
