<?xml version="1.0" encoding="utf-8"?>
<!DOCTYPE svg PUBLIC "-//W3C//DTD SVG 1.1//EN" "http://www.w3.org/Graphics/SVG/1.1/DTD/svg11.dtd" [
	<!ENTITY ns_flows "http://ns.adobe.com/Flows/1.0/">
]>
<svg version="1.1"
	 xmlns="http://www.w3.org/2000/svg" x="0px" y="0px" width="48px" height="48px" viewBox="-10.393 -4.811 48 48">
<defs>
</defs>
<circle cx="1.78" cy="19.448" r="1.699"/>
<path d="M25.214,15h-1.23v-4.624C23.984,4.646,19.337,0,13.607,0C7.877,0,3.23,4.646,3.23,10.376V15H2
	c-0.929,0-1.704,0.638-1.928,1.497c0.267-0.168,0.551-0.316,0.86-0.427c2.262-0.809,4.751,0.368,5.561,2.63
	c0.625,1.747,0.057,3.62-1.273,4.76c0.101,0.133,0.189,0.276,0.248,0.442l2.473,6.91c0.316,0.885-0.144,1.855-1.027,2.174
	c-0.436,0.156-0.893,0.123-1.283-0.059l-0.41-1.645l0.667-0.961l-1.289,0.029L3.62,28.824l0.511-0.184l-0.175-2.104l-0.99,0.46
	l-0.698-1.949c-0.064-0.179-0.088-0.36-0.091-0.54c-0.783-0.04-1.532-0.3-2.177-0.727v12.598c0,1.104,0.896,2,2,2h23.214
	c1.104,0,2-0.896,2-2V17C27.214,15.896,26.318,15,25.214,15z M15.507,26.824v6.253c0,1.051-0.853,1.903-1.902,1.903
	c-1.05,0-1.902-0.852-1.902-1.903v-6.253c-0.699-0.561-1.156-1.411-1.156-2.377c0-1.69,1.369-3.059,3.059-3.059
	c1.69,0,3.06,1.369,3.06,3.059C16.666,25.413,16.208,26.264,15.507,26.824z M21.675,15H5.677v-3.828c0-4.567,3.581-8.27,7.998-8.27
	c4.418,0,8,3.702,8,8.27V15z"/>
</svg>
