<?xml version="1.0" encoding="utf-8"?>
<!-- Generator: Adobe Illustrator 15.0.0, SVG Export Plug-In  -->
<!DOCTYPE svg PUBLIC "-//W3C//DTD SVG 1.1//EN" "http://www.w3.org/Graphics/SVG/1.1/DTD/svg11.dtd" [
	<!ENTITY ns_flows "http://ns.adobe.com/Flows/1.0/">
]>
<svg version="1.1"
	 xmlns="http://www.w3.org/2000/svg" x="0px" y="0px" width="48px" height="48px" viewBox="-3.05 -8.95 48 48"
	 xml:space="preserve">
<defs>
</defs>
<path d="M18.771,9.019C19.237,8.154,19.5,7.161,19.5,6.1c0-3.4-2.9-6.1-6.2-6.1C10,0,7.2,2.7,7.2,6.1
	c0,1.172,0.339,2.257,0.915,3.181L3.6,11.9v11.6l2.2-1.7v-8.7l3.795-2.189C10.648,11.718,11.97,12.2,13.4,12.2
	c1.525,0,2.907-0.546,3.97-1.453l1.848,1.052l0.845,0.278l0.309-2.156L18.771,9.019z M13.4,10.2c-2.3,0-4.1-1.8-4.1-4.1
	c0-2.3,1.8-4.1,4.1-4.1c2.2,0,4.1,1.9,4.1,4.1C17.5,8.4,15.7,10.2,13.4,10.2z"/>
<path d="M33.4,12.458c0.445-0.85,0.699-1.821,0.699-2.858c0-3.4-2.699-6.1-6.1-6.1s-6.101,2.7-6.101,6.1
	c0,1.146,0.313,2.208,0.85,3.119L18.3,15.3V26.9l10,3.199l10-3.3V15.3L33.4,12.458z M28,5.5c2.3,0,4.1,1.8,4.1,4.1
	c0,2.3-1.8,4.1-4.1,4.1s-4.101-1.8-4.101-4.1C23.899,7.3,25.7,5.5,28,5.5z M36.2,25.3l-7.9,2.3l-7.8-2.3v-8.6l3.835-2.213
	C25.353,15.247,26.616,15.7,28,15.7c1.511,0,2.882-0.535,3.94-1.426L36.2,16.7V25.3z"/>
<rect y="21" width="41.9" height="6.1"/>
</svg>
