<?xml version="1.0" encoding="utf-8"?>
<!-- Generator: Adobe Illustrator 15.0.0, SVG Export Plug-In  -->
<!DOCTYPE svg PUBLIC "-//W3C//DTD SVG 1.1//EN" "http://www.w3.org/Graphics/SVG/1.1/DTD/svg11.dtd" [
	<!ENTITY ns_flows "http://ns.adobe.com/Flows/1.0/">
]>
<svg version="1.1"
	 xmlns="http://www.w3.org/2000/svg" x="0px" y="0px" width="48px" height="48px" viewBox="0 0 48 48">
<defs>
</defs>
<path d="M29.38,5.584H8.079l8.307,8.308v9.973l4.686,2.305V13.892l6.688-6.688c1.166,0.301,3.514,0.778,3.518-0.277
	C31.283,5.58,29.38,5.584,29.38,5.584"/>
<polygon points="13.202,38.95 3.16,38.95 3.16,3.387 13.202,3.387 13.202,0 0,0 0,42.334 13.202,42.334 "/>
<polygon points="25.648,38.95 35.689,38.95 35.689,3.387 25.648,3.387 25.648,0 38.852,0 38.852,42.334 25.648,42.334 "/>
<path d="M12.922,34.139l-0.013-0.332c-0.039-0.652,0.179-1.32,0.756-1.998c0.41-0.5,0.743-0.923,0.743-1.346
	c0-0.449-0.295-0.756-0.936-0.77c-0.422,0-0.934,0.154-1.267,0.385l-0.436-1.396c0.473-0.27,1.229-0.524,2.139-0.524
	c1.69,0,2.471,0.936,2.471,1.998c0,0.973-0.614,1.612-1.102,2.151c-0.46,0.525-0.666,1.024-0.652,1.601v0.229h-1.703V34.139z
	 M12.589,35.919c0-0.69,0.474-1.165,1.14-1.165c0.692,0,1.141,0.475,1.153,1.165c0,0.666-0.447,1.165-1.153,1.165
	C13.05,37.084,12.589,36.585,12.589,35.919z"/>
<path d="M18.548,37.084c-0.667,0-1.127-0.499-1.127-1.165c0-0.69,0.474-1.165,1.153-1.165c0.679,0,1.126,0.475,1.14,1.165
	c0,0.666-0.448,1.165-1.14,1.165H18.548z M17.844,34.113l-0.283-5.803h2.024l-0.282,5.803H17.844z"/>
<path d="M21.482,36.943l0.334-2.293h-1.051v-1.178h1.242l0.205-1.449h-1.074v-1.178h1.254l0.332-2.229h1.129l-0.32,2.229h1.178
	l0.318-2.229h1.143l-0.322,2.229h1.027v1.178h-1.219l-0.191,1.449h1.051v1.178h-1.256l-0.32,2.293H23.79l0.332-2.293h-1.164
	l-0.322,2.293H21.482z M24.328,33.473l0.191-1.447h-1.167l-0.203,1.447H24.328z"/>
</svg>
