<?xml version="1.0" encoding="utf-8"?>
<svg version="1.1"
	 xmlns="http://www.w3.org/2000/svg" xmlns:xlink="http://www.w3.org/1999/xlink"
	 x="0px" y="0px" width="256px" height="256px" viewBox="-60.326 -7.09 256 256">
<defs>
</defs>
<path fill="#F89624" d="M114.586,0c17.912,25.326,0.18,40.126-10.253,46.112c-11.185-4.788-23.455-7.515-36.405-7.515
	c-12.781,0-24.763,2.604-35.709,7.235C21.734,39.667,4.815,24.934,22.45,0c0,0-42.591,26.393-10.446,62.025l0.116-0.058
	c1.68,1.93,3.656,4.177,3.656,4.177c14.306-11.412,32.429-18.237,52.152-18.237c19.721,0,37.847,6.825,52.151,18.237
	c0,0,7.158-6.247,6.977-6.241c-0.009-0.003-0.015-0.011-0.02-0.013C158.76,24.391,114.586,0,114.586,0z"/>
</svg>
