<?xml version="1.0" encoding="utf-8"?>
<!-- Generator: Adobe Illustrator 15.0.0, SVG Export Plug-In  -->
<!DOCTYPE svg PUBLIC "-//W3C//DTD SVG 1.1//EN" "http://www.w3.org/Graphics/SVG/1.1/DTD/svg11.dtd" [
	<!ENTITY ns_flows "http://ns.adobe.com/Flows/1.0/">
]>
<svg version="1.1"
	 xmlns="http://www.w3.org/2000/svg" xmlns:xlink="http://www.w3.org/1999/xlink" xmlns:a="http://ns.adobe.com/AdobeSVGViewerExtensions/3.0/"
	 x="0px" y="0px" width="18px" height="17px" viewBox="-5.136 -0.884 18 17" enable-background="new -5.136 -0.884 18 17"
	 xml:space="preserve">
<defs>
</defs>
<path fill="#C8691C" d="M7.249,6.456L1.161,0.367C0.522-0.271,0-0.055,0,0.848v3.94l1.667,1.668c0.639,0.638,0.639,1.683,0,2.321
	L0,10.445v3.939c0,0.903,0.522,1.119,1.161,0.481l6.088-6.09C7.888,8.139,7.888,7.094,7.249,6.456z"/>
<path fill="#F79523" d="M2.144,7.644h5.582c0.008-0.43-0.148-0.862-0.477-1.188L1.161,0.367C0.522-0.271,0-0.055,0,0.848v3.94
	l1.667,1.668C1.994,6.782,2.151,7.214,2.144,7.644z"/>
</svg>
