<?xml version="1.0" encoding="utf-8"?>
<svg version="1.1"
	 xmlns="http://www.w3.org/2000/svg" xmlns:xlink="http://www.w3.org/1999/xlink"
	 x="0px" y="0px" width="59px" height="59px" viewBox="27.5 28 59 59">
<defs>
</defs>
<path fill="#E7DBC5" d="M72.25,70c0,1.104-0.896,2-2,2H44c-1.104,0-2-0.896-2-2V43.5c0-1.104,0.896-2,2-2h26.25c1.104,0,2,0.896,2,2
	V70z"/>
<path fill="#8D6F43" d="M71.146,40.197H42.854c-1.739,0-3.148,1.41-3.148,3.148v28.309c0,1.738,1.409,3.148,3.148,3.148h28.291
	c1.737,0,3.148-1.41,3.148-3.148V43.346C74.294,41.607,72.883,40.197,71.146,40.197z M71.742,70.092
	c0,0.927-0.751,1.681-1.676,1.681H44.202c-0.928,0-1.68-0.754-1.68-1.681V44.716c0-0.927,0.751-1.68,1.68-1.68h25.864
	c0.925,0,1.676,0.752,1.676,1.68V70.092z"/>
</svg>
