<?xml version="1.0" encoding="utf-8"?>
<svg version="1.1"
	 xmlns="http://www.w3.org/2000/svg" xmlns:xlink="http://www.w3.org/1999/xlink"
	 x="0px" y="0px" width="181px" height="181px" viewBox="-1.683 -2.64 181 181">
<defs>
</defs>
<radialGradient id="SVGID_1_" cx="66.1055" cy="68.25" r="40.0195" fx="65.7491" fy="68.0178" gradientUnits="userSpaceOnUse">
	<stop  offset="0" style="stop-color:#CECECD"/>
	<stop  offset="0.2845" style="stop-color:#A5A4A5"/>
	<stop  offset="0.5681" style="stop-color:#8A898A"/>
	<stop  offset="0.81" style="stop-color:#7B7B7B"/>
	<stop  offset="0.9818" style="stop-color:#767677"/>
</radialGradient>
<circle fill="url(#SVGID_1_)" stroke="#A5A5A5" stroke-miterlimit="10" cx="88.403" cy="88.403" r="87.903"/>
<path fill="#5A5A5A" d="M88.403,0.5c-0.646,0-1.288,0.011-1.93,0.024c45.732,0.52,82.65,37.735,82.65,83.59
	c0,46.181-37.436,83.616-83.615,83.616c-46.179,0-83.615-37.435-83.615-83.616c0-10.759,2.055-21.033,5.757-30.48
	C3.052,64.299,0.5,76.052,0.5,88.403c0,48.549,39.356,87.903,87.903,87.903c48.548,0,87.903-39.354,87.903-87.903
	C176.307,39.856,136.951,0.5,88.403,0.5z"/>
<path fill="#ACACAC" d="M176.307,88.403c0-2.51-0.111-4.993-0.317-7.449c-1.487,23.744-16.924,70.053-49.513,72.198
	c-26.987,1.776-50.599-24.87-88.332-27.872c-20.588-1.638-26.157,6.003-26.157,6.003s0.086,0.385,0.279,1.079
	c15.2,26.27,43.604,43.944,76.137,43.944C136.951,176.307,176.307,136.952,176.307,88.403z"/>
<path fill="#5A5A5A" d="M169.992,77.715c0,0-20.842,64.608-56.11,73.779c0,0,30.505,8.99,55.185-58.038L169.992,77.715z"/>
</svg>
