<?xml version="1.0" encoding="utf-8"?>
<svg version="1.1"
	 xmlns="http://www.w3.org/2000/svg" xmlns:xlink="http://www.w3.org/1999/xlink"
	 x="0px" y="0px" width="59px" height="59px" viewBox="27.26 28.1 59 59">
<defs>
</defs>
<path fill="#B4C6DE" d="M71.885,70.85c0,1.104-0.896,2-2,2h-26.25c-1.104,0-2-0.896-2-2v-26.5c0-1.104,0.896-2,2-2h26.25
	c1.104,0,2,0.896,2,2V70.85z"/>
<path fill="#2F5380" d="M70.908,40.298H42.614c-1.738,0-3.147,1.41-3.147,3.148v28.308c0,1.738,1.409,3.147,3.147,3.147h28.292
	c1.737,0,3.148-1.409,3.148-3.147V43.447C74.055,41.708,72.644,40.298,70.908,40.298z M71.503,70.192
	c0,0.928-0.751,1.682-1.676,1.682H43.962c-0.929,0-1.681-0.754-1.681-1.682V44.817c0-0.927,0.752-1.68,1.681-1.68h25.865
	c0.925,0,1.676,0.752,1.676,1.68V70.192z"/>
</svg>
