<?xml version="1.0" encoding="utf-8"?>
<svg version="1.1"
	 xmlns="http://www.w3.org/2000/svg" xmlns:xlink="http://www.w3.org/1999/xlink"
	 x="0px" y="0px" width="100px" height="100px" viewBox="-9.593 -7.563 100 100">
<defs>
</defs>
<polygon fill="#C8691C" points="0,53.29 4.296,51.291 4.296,53.29 "/>
<polygon fill="#C8691C" points="80.449,53.29 76.152,51.291 76.152,53.29 "/>
<polygon fill="#52CAF5" points="77.088,83.936 80.357,83.937 74.36,29.027 74.359,29.028 74.359,29.028 61.203,15.871 
	48.046,29.027 43.142,83.937 46.413,83.936 50.794,30.656 59.744,21.708 59.744,83.755 62.754,83.755 62.754,21.8 71.613,30.66 "/>
<polygon fill="#52CAF5" points="52.743,13.156 52.741,13.157 39.585,0 26.428,13.156 25.157,29.58 27.963,31.731 29.177,14.785 
	38.126,5.837 38.126,67.793 41.137,67.884 41.137,5.93 49.996,14.789 50.73,23.029 53.436,20.588 "/>
<polygon fill="#3588A6" points="5.211,76.275 8.107,41.055 17.058,32.106 17.058,76.275 20.067,76.275 20.067,32.198 28.926,41.058 
	32.545,76.275 35.698,76.275 31.674,39.425 31.673,39.426 18.515,26.269 5.358,39.425 2.068,76.275 "/>
<polygon fill="#F79523" points="80.449,83.937 0,83.937 0,53.29 27.912,53.29 34.478,65.33 44.876,65.33 51.444,53.29 80.449,53.29 
	"/>
<polygon fill="#3588A6" points="39.585,0 26.428,13.156 25.157,29.58 27.963,31.731 29.177,14.785 38.126,5.837 38.126,42.806 
	41.137,33.082 41.137,5.93 47.554,12.348 48.59,9.004 "/>
<polygon fill="#C8691C" points="32.359,61.443 27.912,53.29 0,53.29 0,83.937 25.396,83.937 "/>
<polygon fill="#3588A6" points="22.621,39.974 27.075,44.124 27.363,49.095 23,45.768 "/>
<polygon fill="#3588A6" points="14.428,40.055 9.974,44.205 9.686,49.175 14.048,45.848 "/>
<polygon fill="#3588A6" points="35.89,12.418 31.436,16.568 31.147,21.54 35.511,18.212 "/>
<polygon fill="#3588A6" points="35.89,23.364 31.436,26.419 31.219,31.743 35.511,29.157 "/>
<polygon fill="#3588A6" points="43.475,13.381 47.671,16.459 47.95,20.657 44.033,18.978 "/>
<polygon fill="#52CAF5" points="43.475,23.232 47.671,26.311 47.95,30.507 44.033,28.829 "/>
<polygon fill="#52CAF5" points="65.3,29.668 69.499,32.747 69.777,36.945 65.859,35.265 "/>
<polygon fill="#52CAF5" points="65.86,40.582 70.059,43.661 70.337,47.859 66.419,46.178 "/>
<polygon fill="#52CAF5" points="57.202,29.668 53.006,32.747 52.727,36.945 56.644,35.265 "/>
<polygon fill="#52CAF5" points="56.643,40.582 52.445,43.661 52.165,47.859 56.084,46.178 "/>
</svg>
