<?xml version="1.0" encoding="utf-8"?>
<svg version="1.1"
	 xmlns="http://www.w3.org/2000/svg" xmlns:xlink="http://www.w3.org/1999/xlink"
	 x="0px" y="0px" width="100px" height="100px" viewBox="-12.963 -7.791 100 100">
<defs>
</defs>
<path fill="#F79523" d="M48.732,30.104c0-6.898-4.971-9.628-11.525-10.828c4.262-1.061,7.422-4.9,7.422-9.488
	C44.629,4.382,40.248,0,34.842,0c-5.407,0-9.789,4.382-9.789,9.789c0,4.54,3.094,8.347,7.287,9.453
	c-6.665,1.108-11.75,3.885-11.75,10.863v27.794h6.078v27.336h5.915V63.014h4.158v22.221h5.916V57.898h6.076V30.104z"/>
<path fill="#C8691C" d="M36.74,82.836l7.352-61.147c-1.898-1.717-4.26-1.932-6.885-2.412c4.262-1.061,7.422-4.9,7.422-9.488
	C44.629,4.382,40.248,0,34.842,0c-5.407,0-9.789,4.382-9.789,9.789c0,4.54,3.094,8.347,7.287,9.453
	c-6.665,1.108-11.75,3.885-11.75,10.863v27.794h6.078v27.336h5.915V63.014h4.158V82.836z"/>
<polygon fill="#D1D3D4" points="33.208,23.989 32.019,39.593 34.208,42.604 37.221,39.593 35.851,23.989 "/>
<polygon fill="#3588A6" points="2.929,54.644 0,51.919 23.124,27.061 49.01,46.408 67.514,23.022 71.004,19.523 72.889,22.413 
	70.65,25.504 49.732,51.941 23.606,32.416 "/>
<polygon fill="#3588A6" points="61.835,20.905 74.019,17.263 74.521,29.949 71.256,27.688 71.13,21.282 65.353,23.166 "/>
</svg>
