<?xml version="1.0" encoding="utf-8"?>
<svg version="1.1"
	 xmlns="http://www.w3.org/2000/svg" xmlns:xlink="http://www.w3.org/1999/xlink"
	 x="0px" y="0px" width="100px" height="100px" viewBox="-5.196 -16.155 100 100">
<defs>
</defs>
<path fill="#F79523" d="M44.798,0c-7.861,0-14.234,6.373-14.234,14.234c0,7.861,6.373,14.234,14.234,14.234
	c7.862,0,14.233-6.373,14.233-14.234C59.031,6.373,52.66,0,44.798,0z M44.798,25.394c-6.164,0-11.16-4.997-11.16-11.16
	c0-6.164,4.996-11.16,11.16-11.16s11.159,4.996,11.159,11.16C55.957,20.397,50.962,25.394,44.798,25.394z"/>
<path fill="#C8691C" d="M18.744,8.346c-5.543,0-10.038,4.495-10.038,10.039c0,5.544,4.494,10.039,10.038,10.039
	c5.544,0,10.039-4.495,10.039-10.039C28.783,12.84,24.288,8.346,18.744,8.346z M18.744,25.488c-3.923,0-7.102-3.18-7.102-7.103
	c0-3.923,3.179-7.103,7.102-7.103c3.923,0,7.103,3.179,7.103,7.103C25.847,22.308,22.667,25.488,18.744,25.488z"/>
<path fill="#C8691C" d="M19.689,41.173H3.741c2.121-5.779,8.488-9.91,15.003-9.91c2.837,0,5.645,0.784,8.089,2.146
	c0.815-0.621,1.667-1.197,2.546-1.731c-3.04-2.048-6.693-3.255-10.635-3.255c-9.333,0-17.095,6.705-18.744,15.56h1.177h1.154h15.78
	C18.587,43.017,19.114,42.079,19.689,41.173z"/>
<path fill="#F79523" d="M61.206,18.385c0,5.544,4.493,10.039,10.039,10.039c5.544,0,10.037-4.495,10.037-10.039
	c0-5.544-4.493-10.039-10.037-10.039C65.699,8.346,61.206,12.84,61.206,18.385z M64.142,18.385c0-3.923,3.181-7.103,7.104-7.103
	c3.922,0,7.103,3.179,7.103,7.103c0,3.923-3.181,7.103-7.103,7.103C67.322,25.488,64.142,22.308,64.142,18.385z"/>
<path fill="#F79523" d="M70.299,41.173h15.949c-2.12-5.779-8.489-9.91-15.003-9.91c-2.838,0-5.646,0.784-8.09,2.146
	c-0.815-0.621-1.666-1.197-2.545-1.731c3.038-2.048,6.692-3.255,10.635-3.255c9.332,0,17.095,6.705,18.744,15.56h-1.178h-1.153
	H71.879C71.401,43.017,70.876,42.079,70.299,41.173z"/>
<path fill="#F79523" d="M44.798,28.468c-13.234,0-24.24,9.507-26.58,22.063h1.67h1.636h46.547h0.486h2.82
	C69.037,37.976,58.033,28.468,44.798,28.468z M22.468,47.328c3.339-9.107,12.065-15.614,22.33-15.614
	c10.264,0,18.991,6.507,22.33,15.614H22.468z"/>
<path fill="#C8691C" d="M45.116,47.328H22.468c3.339-9.107,12.065-15.614,22.33-15.614c1.711,0,3.375,0.196,4.983,0.54l0.961-3.104
	c-1.915-0.43-3.898-0.682-5.944-0.682c-13.234,0-24.24,9.507-26.58,22.063h1.67h1.636h22.6L45.116,47.328z"/>
<circle fill="#52CAF5" cx="45.158" cy="53.161" r="15.339"/>
<path fill="#3588A6" d="M45.158,37.821c-8.472,0-15.339,6.869-15.339,15.34c0,6.268,3.764,11.647,9.15,14.028l9.006-29.099
	C47.061,37.921,46.121,37.821,45.158,37.821z"/>
<path fill="#FFFFFF" d="M52.731,58.188c-0.671,1.152-1.582,2.149-2.679,2.9c0.302,0.656,0.48,1.379,0.48,2.147
	c0,0.011-0.003,0.021-0.003,0.032c1.835-1.064,3.319-2.65,4.294-4.541C54.07,58.696,53.366,58.505,52.731,58.188z"/>
<path fill="#BCBEC0" d="M37.452,58.496c-0.523,0.181-1.076,0.299-1.66,0.299c-0.21,0-0.41-0.038-0.613-0.063
	c1.106,2.174,2.909,3.934,5.119,4.979c-0.014-0.153-0.046-0.301-0.046-0.46c0-0.614,0.126-1.198,0.325-1.745
	C39.301,60.778,38.233,59.735,37.452,58.496z"/>
<path fill="#BCBEC0" d="M40.205,43.928c0-0.082,0.02-0.158,0.023-0.237c-2.14,1.021-3.91,2.693-5.025,4.779
	c0.17-0.019,0.336-0.053,0.511-0.053c0.625,0,1.218,0.128,1.772,0.331c0.786-1.192,1.853-2.183,3.101-2.885
	C40.345,45.264,40.205,44.613,40.205,43.928z"/>
<path fill="#FFFFFF" d="M50.515,44.102c-0.025,0.771-0.225,1.493-0.554,2.143c1.078,0.727,2.002,1.668,2.681,2.779
	c0.636-0.333,1.345-0.537,2.104-0.579C53.769,46.631,52.295,45.131,50.515,44.102z"/>
<circle fill="#BCBEC0" cx="35.683" cy="53.516" r="3.028"/>
<circle fill="#FFFFFF" cx="54.611" cy="53.43" r="3.049"/>
<circle fill="#FFFFFF" cx="45.579" cy="62.727" r="3.049"/>
<circle fill="#FFFFFF" cx="45.588" cy="43.573" r="3.028"/>
<path fill="#C8691C" d="M44.798,0c-7.861,0-14.234,6.373-14.234,14.234c0,7.861,6.373,14.234,14.234,14.234
	c2.411,0,4.679-0.604,6.669-1.663l1.566-5.06c-2.041,2.237-4.97,3.648-8.236,3.648c-6.164,0-11.16-4.997-11.16-11.16
	c0-6.164,4.996-11.16,11.16-11.16c5.636,0,10.285,4.183,11.041,9.612l1.563-5.054C55.022,3.098,50.275,0,44.798,0z"/>
<path fill="#BCBEC0" d="M45.588,40.545c-1.673,0-3.028,1.355-3.028,3.027c0,1.59,1.229,2.88,2.788,3.004l1.74-5.617
	C46.644,40.703,46.136,40.545,45.588,40.545z"/>
</svg>
