<?xml version="1.0" encoding="utf-8"?>
<svg version="1.1"
	 xmlns="http://www.w3.org/2000/svg" xmlns:xlink="http://www.w3.org/1999/xlink"
	 x="0px" y="0px" width="100px" height="100px" viewBox="-6.892 -6.891 100 100">
<defs>
</defs>
<path fill="#F79523" d="M43.107,0C19.3,0,0,19.3,0,43.108c0,23.809,19.3,43.11,43.107,43.11c23.808,0,43.108-19.301,43.108-43.11
	C86.215,19.3,66.915,0,43.107,0z M43.107,81.907c-21.426,0-38.798-17.371-38.798-38.798c0-21.426,17.372-38.798,38.798-38.798
	c21.43,0,38.8,17.372,38.8,38.798C81.907,64.536,64.537,81.907,43.107,81.907z"/>
<path fill="#F79523" d="M42.458,7.278c-10.406,0-18.841,8.435-18.841,18.841S32.052,44.96,42.458,44.96
	c10.407,0,18.841-8.435,18.841-18.841S52.865,7.278,42.458,7.278z M42.458,40.89c-8.159,0-14.771-6.614-14.771-14.771
	c0-8.158,6.613-14.771,14.771-14.771c8.158,0,14.769,6.613,14.769,14.771C57.227,34.276,50.616,40.89,42.458,40.89z"/>
<path fill="#C8691C" d="M27.687,26.119c0-8.158,6.613-14.771,14.771-14.771c1.07,0,2.115,0.121,3.122,0.337l1.204-3.888
	c-1.391-0.327-2.835-0.519-4.326-0.519c-10.406,0-18.841,8.435-18.841,18.841c0,8.011,5.009,14.838,12.059,17.561l1.204-3.887
	C31.488,37.591,27.687,32.302,27.687,26.119z"/>
<path fill="#F79523" d="M42.458,44.96c-14.231,0-26.515,8.305-32.284,20.332c0.916,1.373,1.918,2.682,2.993,3.929
	c4.605-11.684,15.969-19.964,29.291-19.964c13.589,0,25.161,8.606,29.579,20.665H13.774c1.38,1.526,2.879,2.943,4.479,4.24h50.052
	c2.67-2.165,5.05-4.669,7.082-7.448C69.926,53.925,57.242,44.96,42.458,44.96z"/>
<path fill="#C8691C" d="M10.179,65.299c0.914,1.369,1.914,2.675,2.986,3.919c4.043-10.254,13.293-17.881,24.508-19.594l1.393-4.504
	C26.294,46.322,15.483,54.239,10.179,65.299z"/>
<path fill="#C8691C" d="M31.389,69.922H13.774c1.38,1.526,2.879,2.943,4.479,4.24h11.824L31.389,69.922z"/>
<path fill="#52CAF5" d="M66.936,39.21L40.885,66.521l8.258,7.873l26.044-27.311c2.177-2.28,2.092-5.89-0.189-8.065
	C72.719,36.848,69.106,36.929,66.936,39.21z"/>
<polygon fill="#F37029" points="36.735,79.125 41.006,66.616 49.03,74.264 "/>
<path fill="#3588A6" d="M44.967,70.413l4.176,3.981l26.044-27.311c2.177-2.28,2.092-5.89-0.189-8.065
	C74.7,38.8,44.967,70.413,44.967,70.413z"/>
<polygon fill="#C54A20" points="36.735,79.125 45.123,70.543 49.03,74.264 "/>
<polygon fill="#939598" points="36.735,79.125 38.903,72.777 42.967,76.661 "/>
<polygon fill="#414042" points="36.735,79.125 41.105,74.652 42.967,76.661 "/>
<path fill="#BCBEC0" d="M65.108,41.174c0,0,1.033,0.281,4.475,3.151c2.478,2.065,3.746,4.738,3.746,4.738l-2.278,2.421
	c0,0-1.205-2.081-3.874-4.559c-2.671-2.479-4.226-3.578-4.226-3.578L65.108,41.174z"/>
<path fill="#636464" d="M69.583,44.326c2.478,2.065,3.746,4.738,3.746,4.738l-2.278,2.421c0,0-1.205-2.081-3.874-4.559
	C67.104,47.083,69.225,44.433,69.583,44.326z"/>
<path fill="#F37029" d="M40.885,66.576c0,0,1.517-1.086,2.269-0.39c0.75,0.697,0.212,1.984,0.212,1.984s1.286-0.805,2.147,0.269
	c0.592,0.74-0.547,2.024-0.547,2.024L40.885,66.576z"/>
<path fill="#C54A20" d="M45.014,70.543c0,0,1.518-1.085,2.27-0.389c0.752,0.697,0.212,1.983,0.212,1.983s1.285-0.804,2.146,0.269
	c0.593,0.741-0.546,2.025-0.546,2.025L45.014,70.543z"/>
</svg>
