<?xml version="1.0" encoding="utf-8"?>
<svg version="1.1"
	 xmlns="http://www.w3.org/2000/svg" xmlns:xlink="http://www.w3.org/1999/xlink"
	 x="0px" y="0px" width="100px" height="100px" viewBox="-8.16 -5.567 100 100">
<defs>
</defs>
<path fill="#F79523" d="M57.207,21.298h-3.096c2.672,3.042,4.304,7.017,4.304,11.383c0,9.541-7.733,17.273-17.273,17.273
	s-17.274-7.733-17.274-17.273c0-4.366,1.632-8.342,4.304-11.383h-4.564c-0.421,0-0.833-0.043-1.232-0.118
	c-2.058,3.351-3.266,7.281-3.266,11.501c0,12.168,9.864,22.033,22.033,22.033c12.168,0,22.032-9.865,22.032-22.033
	c0-4.373-1.29-8.437-3.485-11.863C58.921,21.125,58.084,21.298,57.207,21.298z"/>
<path fill="#F79523" d="M41.142,54.714C20.658,54.714,3.622,69.43,0,88.865h2.584h2.533h72.049h0.751h4.366
	C78.662,69.43,61.626,54.714,41.142,54.714z M6.552,83.908c5.166-14.102,18.697-24.169,34.59-24.169
	c15.894,0,29.422,10.067,34.588,24.169H6.552z"/>
<path fill="#F79523" d="M59.714,7.54c0,0-10.065-2.242-19.58-2.196C30.618,5.391,21.655,7.54,21.655,7.54
	c-4.21,1.144-7.685,3.733-7.685,8.34v0.199c0,4.607,3.439,8.34,7.685,8.34c0,0,8.232-2.379,18.479-2.196
	c10.246,0.183,19.58,2.196,19.58,2.196c4.243,0,7.686-3.733,7.686-8.34V15.88C67.399,11.273,64.104,8.684,59.714,7.54z M58.8,20.15
	c0,0-9.151-2.256-18.666-2.195c-9.516,0.061-17.565,2.195-17.565,2.195c-2.122,0-3.842-1.867-3.842-4.17
	c0-2.304,1.72-4.17,3.842-4.17c0,0,7.868-2.18,17.565-2.195C49.831,9.599,58.8,11.81,58.8,11.81c2.121,0,3.841,1.866,3.841,4.17
	C62.641,18.283,60.921,20.15,58.8,20.15z"/>
<rect x="38.204" fill="#C8691C" width="4.224" height="8.262"/>
<path d="M75.159,88.728l3.204-23.306c0.291-2.461-1.357-4.92-3.688-5.51c-2.327-0.582-4.462,0.937-4.769,3.392l-2.563,25.424H75.159
	z"/>
<path fill="#414042" d="M75.159,88.728l3.204-23.306c0.291-2.461-1.357-4.92-3.688-5.51c-0.171,0.038-1.841,12.374-3.947,28.815
	H75.159z"/>
<path fill="#A7A9AC" d="M69.128,69.149c0,0,1.897-1.039,4.163-0.505c2.871,0.681,4.377,3.171,4.377,3.171l1.544-10.494
	c0,0-0.752-2.317-4.188-3.045c-3.31-0.704-4.794,1.04-4.794,1.04L69.128,69.149z"/>
<path fill="#808285" d="M69.128,69.149c0,0,1.897-1.039,4.163-0.505c-0.371,0.373,1.735-10.166,1.733-10.368
	c-3.31-0.704-4.794,1.04-4.794,1.04L69.128,69.149z"/>
<path fill="#3588A6" d="M70.23,59.316c0,0-2.127-8.099-0.163-12.089c1.965-3.978,7.67-5.795,7.051-11.235
	c0,0,3.446,9.393,4.985,15.096c1.523,5.718-2.892,10.232-2.892,10.232s-1.136-2.58-4.188-3.045
	C71.726,57.772,70.23,59.316,70.23,59.316z"/>
<path fill="#52CAF5" d="M70.067,47.227c1.965-3.978,7.67-5.795,7.051-11.235c0,0,3.446,9.393,4.985,15.096
	c1.523,5.718-2.892,10.232-2.892,10.232s-1.136-2.58-4.188-3.045c0,0,3.862-3.647,1.062-7.09
	C73.277,47.75,70.067,47.227,70.067,47.227z"/>
<path fill="#C8691C" d="M40.134,17.955c-9.516,0.061-17.565,2.195-17.565,2.195c-2.122,0-3.842-1.867-3.842-4.17
	c0-2.304,1.72-4.17,3.842-4.17c0,0,7.868-2.18,17.565-2.195c3.887-0.007,7.645,0.346,10.767,0.771l1.284-4.147
	c-3.51-0.485-7.833-0.914-12.051-0.894C30.618,5.391,21.655,7.54,21.655,7.54c-4.21,1.144-7.685,3.733-7.685,8.34v0.199
	c0,4.607,3.439,8.34,7.685,8.34c0,0,8.232-2.379,18.479-2.196c2.417,0.043,4.778,0.19,6.983,0.387l1.302-4.201
	C45.85,18.131,43.011,17.936,40.134,17.955z"/>
<path fill="#C8691C" d="M23.868,32.681c0-4.366,1.632-8.342,4.304-11.383h-4.564c-0.421,0-0.833-0.043-1.232-0.118
	c-2.058,3.351-3.266,7.281-3.266,11.501c0,10.853,7.854,19.852,18.183,21.676l1.421-4.593
	C30.326,48.581,23.868,41.395,23.868,32.681z"/>
<path fill="#C8691C" d="M28.145,83.908H6.552C11.092,71.512,22.1,62.239,35.49,60.176l1.63-5.268
	C18.46,56.689,3.381,70.717,0,88.865h2.584h2.533H26.61L28.145,83.908z"/>
</svg>
