<?xml version="1.0" encoding="utf-8"?>
<svg version="1.1"
	 xmlns="http://www.w3.org/2000/svg" xmlns:xlink="http://www.w3.org/1999/xlink"
	 x="0px" y="0px" width="100px" height="100px" viewBox="-18.333 -7.167 100 100">
<defs>
</defs>
<path fill="#F79523" d="M32.6,0c-8.416,0-15.238,6.822-15.238,15.237c0,8.416,6.822,15.238,15.238,15.238
	s15.238-6.822,15.238-15.238C47.838,6.822,41.016,0,32.6,0z M32.6,27.185c-6.599,0-11.947-5.349-11.947-11.947
	c0-6.598,5.349-11.946,11.947-11.946S44.546,8.64,44.546,15.237C44.546,21.836,39.198,27.185,32.6,27.185z"/>
<path fill="#F79523" d="M7.685,54.095C10.137,42.584,20.357,33.95,32.6,33.95s22.462,8.634,24.915,20.145h3.539
	C58.549,40.653,46.768,30.476,32.6,30.476c-14.167,0-25.949,10.178-28.454,23.619H7.685z"/>
<path fill="#C8691C" d="M20.652,15.237c0-6.598,5.349-11.946,11.947-11.946c2.272,0,4.39,0.646,6.198,1.747l1-3.23
	C37.653,0.656,35.204,0,32.6,0c-8.416,0-15.238,6.822-15.238,15.237c0,7.859,5.95,14.324,13.591,15.146l1.001-3.231
	C25.657,26.814,20.652,21.618,20.652,15.237z"/>
<path fill="#C8691C" d="M4.146,54.095h3.539c2.262-10.618,11.14-18.771,22.111-19.974l1.111-3.591
	C17.503,31.304,6.55,41.193,4.146,54.095z"/>
<rect x="5.933" y="50.666" fill="#F79523" width="52.102" height="3.429"/>
<path fill="#52CAF5" d="M62.901,78.146c0,1.943-1.576,3.52-3.52,3.52H3.952c-1.944,0-3.52-1.576-3.52-3.52v-30.38
	c0-1.944,1.575-3.52,3.52-3.52h55.43c1.943,0,3.52,1.575,3.52,3.52V78.146z"/>
<path fill="#3588A6" d="M3.952,44.247c-1.944,0-3.52,1.575-3.52,3.52v30.38c0,1.943,1.575,3.52,3.52,3.52h11.127l11.582-37.419
	H3.952z"/>
<g>
	<path fill="#FFFFFF" d="M18.43,63.991c-0.389-0.389-0.389-1.025,0-1.414l6.629-6.628c0.389-0.389,0.389-1.025,0-1.414l-0.164-0.164
		c-0.389-0.389-1.025-0.389-1.414,0l-8.206,8.206c-0.389,0.389-0.389,1.025,0,1.414l8.206,8.206c0.389,0.389,1.025,0.389,1.415,0
		l0.163-0.163c0.389-0.389,0.389-1.025,0-1.414L18.43,63.991z"/>
</g>
<g>
	<path fill="#FFFFFF" d="M44.903,63.991c0.389-0.389,0.389-1.025,0-1.414l-6.629-6.628c-0.389-0.389-0.389-1.025,0-1.414
		l0.164-0.164c0.389-0.389,1.025-0.389,1.414,0l8.207,8.206c0.389,0.389,0.389,1.025,0,1.414l-8.207,8.206
		c-0.389,0.389-1.025,0.389-1.414,0l-0.164-0.163c-0.389-0.389-0.389-1.025,0-1.414L44.903,63.991z"/>
</g>
<path fill="#FFFFFF" d="M30.471,74.199c-0.126,0.609-0.721,1-1.329,0.875l0,0c-0.608-0.126-1-0.721-0.875-1.329l4.596-22.28
	c0.127-0.609,0.721-1,1.33-0.875l0,0c0.607,0.126,1,0.721,0.875,1.329L30.471,74.199z"/>
<path fill="#52CAF5" d="M63.334,84.166c0,0.828-0.672,1.5-1.5,1.5H1.5c-0.828,0-1.5-0.672-1.5-1.5l0,0c0-0.828,0.672-1.5,1.5-1.5
	h60.334C62.662,82.666,63.334,83.338,63.334,84.166L63.334,84.166z"/>
<path fill="#3588A6" d="M14.77,82.666H1.5c-0.828,0-1.5,0.672-1.5,1.5s0.672,1.5,1.5,1.5h12.341L14.77,82.666z"/>
<polygon fill="#D1D3D4" points="19.303,68.02 20.049,65.61 17.723,63.284 22.135,58.873 23.549,54.303 14.567,63.284 "/>
</svg>
