<?xml version="1.0" encoding="utf-8"?>
<svg version="1.1"
	 xmlns="http://www.w3.org/2000/svg" xmlns:xlink="http://www.w3.org/1999/xlink"
	 x="0px" y="0px" width="48px" height="48px" viewBox="-1.333 -6.571 48 48">
<defs>
</defs>
<path fill="#F79523" d="M13.304,7.064c-3.935,0-7.125,3.19-7.125,7.124c0,3.936,3.19,7.125,7.125,7.125
	c3.935,0,7.125-3.19,7.125-7.125C20.429,10.254,17.239,7.064,13.304,7.064z M13.304,19.776c-3.085,0-5.586-2.501-5.586-5.587
	c0-3.084,2.501-5.585,5.586-5.585s5.585,2.5,5.585,5.585C18.89,17.275,16.389,19.776,13.304,19.776z"/>
<path fill="#C8691C" d="M7.718,14.188c0-3.084,2.501-5.585,5.586-5.585c0.405,0,0.799,0.045,1.181,0.128L14.94,7.26
	c-0.526-0.123-1.072-0.196-1.636-0.196c-3.935,0-7.125,3.19-7.125,7.124c0,3.03,1.895,5.611,4.561,6.641l0.456-1.47
	C9.156,18.528,7.718,16.527,7.718,14.188z"/>
<path fill="#F79523" d="M13.304,21.314C6.681,21.314,1.171,26.073,0,32.357h0.836h0.819h23.298h0.243h1.412
	C25.437,26.073,19.928,21.314,13.304,21.314z M2.118,30.754c1.671-4.56,6.046-7.815,11.186-7.815c5.139,0,9.514,3.256,11.185,7.815
	H2.118z"/>
<path fill="#C8691C" d="M9.118,30.754h-7c1.471-4.014,5.038-7.014,9.376-7.676l0.527-1.703C5.979,21.944,1.095,26.483,0,32.357
	h0.836h0.819h6.967L9.118,30.754z"/>
<path fill="#F79523" d="M31.968,0c-3.936,0-7.125,3.19-7.125,7.125c0,3.935,3.189,7.125,7.125,7.125c3.935,0,7.124-3.19,7.124-7.125
	C39.092,3.19,35.903,0,31.968,0z M31.968,12.711c-3.086,0-5.586-2.501-5.586-5.586c0-3.085,2.5-5.585,5.586-5.585
	c3.085,0,5.586,2.5,5.586,5.585C37.554,10.21,35.053,12.711,31.968,12.711z"/>
<path fill="#C8691C" d="M26.382,7.125c0-3.085,2.5-5.585,5.586-5.585c0.405,0,0.799,0.044,1.181,0.127l0.454-1.471
	C33.079,0.072,32.531,0,31.968,0c-3.936,0-7.125,3.19-7.125,7.125c0,3.029,1.895,5.61,4.56,6.641l0.456-1.47
	C27.819,11.463,26.382,9.463,26.382,7.125z"/>
<path fill="#F79523" d="M31.968,14.25c-6.624,0-12.134,4.759-13.304,11.044h0.834h0.82h23.298h0.243h1.412
	C44.102,19.008,38.592,14.25,31.968,14.25z M20.783,23.69c1.67-4.56,6.046-7.815,11.186-7.815c5.139,0,9.515,3.256,11.184,7.815
	H20.783z"/>
<path fill="#C8691C" d="M27.782,23.69h-6.999c1.471-4.015,5.038-7.014,9.376-7.676l0.527-1.702
	c-6.044,0.567-10.927,5.107-12.022,10.982h0.834h0.82h6.967L27.782,23.69z"/>
<path fill="#52CAF5" d="M32.36,22.414c0-2.343-1.898-4.741-4.242-4.741c-1.254,0-2.088,1.727-3.157,2.414
	c-1.066-0.648-1.901-2.414-3.156-2.414c-2.343,0-4.242,2.398-4.242,4.741c0,0.64,0.145,1.241,0.398,1.786
	c-0.004,0.025-0.012,0.05-0.004,0.076c0.46,1.423,6.95,7.829,6.95,7.829s6.834-6.242,7.225-8.325
	C32.277,23.351,32.36,22.892,32.36,22.414z"/>
<path fill="#FFFFFF" d="M28.118,17.672c2.344,0,4.242,2.398,4.242,4.741c0,0.479-0.083,0.938-0.229,1.366
	c-0.391,2.083-7.225,8.325-7.225,8.325s-6.489-6.406-6.95-7.829c-0.008-0.026,0-0.051,0.004-0.076
	c-0.253-0.545-0.398-1.146-0.398-1.786c0-2.343,1.898-4.741,4.242-4.741c1.255,0,2.089,1.766,3.156,2.414
	C26.03,19.399,26.864,17.672,28.118,17.672 M28.118,16.672c-1.228,0-2.08,0.933-2.766,1.682c-0.136,0.149-0.269,0.294-0.398,0.427
	c-0.135-0.138-0.272-0.288-0.408-0.438c-0.678-0.745-1.522-1.672-2.741-1.672c-2.792,0-5.242,2.683-5.242,5.741
	c0,0.691,0.136,1.367,0.404,2.01c0.008,0.049,0.019,0.1,0.036,0.153c0.499,1.543,5.638,6.697,7.201,8.24l0.676,0.667l0.701-0.641
	c1.642-1.499,6.986-6.522,7.516-8.8c0.175-0.532,0.263-1.08,0.263-1.63C33.36,19.355,30.911,16.672,28.118,16.672L28.118,16.672z"/>
<path fill="#45A9CD" d="M22.055,29.197l7.046-11.405c-0.316-0.076-0.645-0.103-0.983-0.12c-1.849-0.092-2.487,1.486-3.157,2.414
	c-0.606-0.768-1.285-2.345-3.156-2.414c-2.342-0.086-4.242,2.398-4.242,4.741c0,0.64,0.145,1.241,0.398,1.786
	c-0.004,0.025-0.012,0.05-0.004,0.076C18.208,25.051,20.249,27.306,22.055,29.197z"/>
</svg>
