<?xml version="1.0" encoding="utf-8"?>
<svg version="1.1"
	 xmlns="http://www.w3.org/2000/svg" xmlns:xlink="http://www.w3.org/1999/xlink"
	 x="0px" y="0px" width="100px" height="100px" viewBox="-7.062 -8.316 100 100">
<defs>
</defs>
<rect x="52.705" y="48.542" width="4.064" height="16.998"/>
<line fill="#FFFFFF" x1="65.623" y1="69.821" x2="58.065" y2="49.053"/>
<rect x="50.794" y="57.407" transform="matrix(0.3419 0.9397 -0.9397 0.3419 96.5515 -19.0008)" width="22.097" height="4.061"/>
<line fill="#FFFFFF" x1="43.513" y1="69.821" x2="51.07" y2="49.053"/>
<rect x="45.26" y="48.388" transform="matrix(0.9396 0.3422 -0.3422 0.9396 23.195 -12.5951)" width="4.064" height="22.099"/>
<path fill="#52CAF5" d="M86.143,42.842c0,4.146-3.362,7.51-7.509,7.51H30.333c-4.147,0-7.509-3.364-7.509-7.51V8.291
	c0-4.146,3.362-7.508,7.509-7.508h48.302c4.146,0,7.509,3.362,7.509,7.508V42.842z"/>
<path fill="#3588A6" d="M68.454,0.782H30.333c-4.147,0-7.509,3.362-7.509,7.508v34.552c0,4.146,3.362,7.51,7.509,7.51h23.25
	L68.454,0.782z"/>
<rect x="31.458" y="23.966" fill="#E6E7E8" width="10.627" height="19.351"/>
<rect x="49.054" y="17.971" fill="#FFFFFF" width="10.631" height="25.346"/>
<rect x="66.65" y="11.975" fill="#FFFFFF" width="10.63" height="31.342"/>
<path fill="#F79523" d="M28.142,33.104c0-6.898-4.97-12.628-11.524-13.828c4.26-1.061,7.422-4.9,7.422-9.488
	C24.04,4.382,19.658,0,14.252,0S4.464,4.382,4.464,9.789c0,4.54,3.094,8.347,7.287,9.453C5.085,20.35,0,26.126,0,33.104v24.793
	h6.078v27.337h5.916V63.013h4.157v22.222h5.916V57.898h6.076V33.104z"/>
<path fill="#C8691C" d="M16.15,82.835l7.352-60.147c-1.899-1.717-4.26-2.932-6.884-3.412c4.26-1.061,7.422-4.9,7.422-9.488
	C24.04,4.382,19.658,0,14.252,0S4.464,4.382,4.464,9.789c0,4.54,3.094,8.347,7.287,9.453C5.085,20.35,0,26.126,0,33.104v24.793
	h6.078v27.337h5.916V63.013h4.157V82.835z"/>
<polygon fill="#E6E7E8" points="59.685,30.011 59.685,17.971 49.054,17.971 49.054,43.317 55.694,43.317 "/>
</svg>
