<?xml version="1.0" encoding="utf-8"?>
<svg version="1.1"
	 xmlns="http://www.w3.org/2000/svg" xmlns:xlink="http://www.w3.org/1999/xlink"
	 x="0px" y="0px" width="100px" height="100px" viewBox="-24.471 -3.708 100 100">
<defs>
</defs>
<path fill="#F79523" d="M51.153,32.783c0-7.512-5.413-10.485-12.55-11.791c4.641-1.155,8.082-5.336,8.082-10.333
	C46.685,4.772,41.914,0,36.027,0S25.368,4.772,25.368,10.659c0,4.944,3.37,9.089,7.935,10.294
	c-7.258,1.207-12.795,4.23-12.795,11.83v30.267h6.619v29.768h6.44V68.62h4.528v24.197h6.442V63.049h6.616V32.783z"/>
<path fill="#C8691C" d="M38.094,90.205l8.005-66.587c-2.067-1.869-4.639-2.104-7.496-2.626c4.641-1.155,8.082-5.336,8.082-10.333
	C46.685,4.772,41.914,0,36.027,0S25.368,4.772,25.368,10.659c0,4.944,3.37,9.089,7.935,10.294
	c-7.258,1.207-12.795,4.23-12.795,11.83v30.267h6.619v29.768h6.44V68.62h4.528V90.205z"/>
<polygon fill="#D1D3D4" points="34.249,26.123 32.952,43.116 35.338,46.395 38.617,43.116 37.126,26.123 "/>
<circle fill="#52CAF5" cx="13.917" cy="51.944" r="13.917"/>
<path fill="#3588A6" d="M21.288,40.154c-2.139-1.341-4.66-2.127-7.371-2.127C6.23,38.027,0,44.258,0,51.944
	c0,7.687,6.23,13.917,13.917,13.917c0.751,0,1.483-0.077,2.203-0.19L21.288,40.154z"/>
<path fill="#FFFFFF" d="M14.875,60.723v2.77h-1.863V60.8c-1.727-0.009-3.335-0.4-4.824-1.175v-3.534
	c0.493,0.399,1.229,0.77,2.208,1.11c0.979,0.34,1.851,0.535,2.616,0.586v-4.645c-1.991-0.74-3.35-1.539-4.077-2.403
	c-0.728-0.863-1.091-1.918-1.091-3.16c0-1.336,0.472-2.472,1.416-3.413c0.944-0.94,2.195-1.486,3.752-1.64v-2.374h1.863v2.322
	c1.795,0.085,3.135,0.375,4.02,0.868v3.445c-1.191-0.724-2.531-1.166-4.02-1.327v4.836c1.863,0.672,3.199,1.442,4.007,2.306
	c0.809,0.864,1.212,1.906,1.212,3.131c0,1.412-0.451,2.553-1.353,3.416C17.84,60.012,16.551,60.537,14.875,60.723z M13.012,49.558
	v-4.046c-1.182,0.212-1.774,0.829-1.774,1.85C11.238,48.239,11.83,48.97,13.012,49.558z M14.875,53.871v3.866
	c1.217-0.187,1.825-0.795,1.825-1.824C16.7,55.079,16.092,54.399,14.875,53.871z"/>
<path fill="#D1D3D4" d="M18.784,52.516c-0.815-0.827-2.111-1.57-3.909-2.219v-4.836c1.489,0.162,2.829,0.604,4.02,1.327v-3.445
	c-0.885-0.493-2.225-0.782-4.02-0.868v-2.322h-1.863v2.374c-1.557,0.153-2.808,0.7-3.752,1.64c-0.944,0.941-1.416,2.077-1.416,3.413
	c0,1.242,0.363,2.297,1.091,3.16c0.727,0.864,2.086,1.663,4.077,2.403v4.645c-0.766-0.051-1.638-0.246-2.616-0.586
	c-0.979-0.341-1.714-0.711-2.208-1.11v3.534c1.489,0.774,3.097,1.166,4.824,1.175v2.692h1.863v-2.77
	c0.907-0.101,1.689-0.309,2.37-0.608L18.784,52.516z M13.012,49.558c-1.182-0.588-1.774-1.319-1.774-2.196
	c0-1.021,0.592-1.637,1.774-1.85V49.558z M14.875,57.737v-3.866c1.217,0.528,1.825,1.208,1.825,2.042
	C16.7,56.942,16.092,57.55,14.875,57.737z"/>
</svg>
