<?xml version="1.0" encoding="utf-8"?>
<svg version="1.1"
	 xmlns="http://www.w3.org/2000/svg" xmlns:xlink="http://www.w3.org/1999/xlink"
	 x="0px" y="0px" width="100px" height="100px" viewBox="-8.169 -6.376 100 100">
<defs>
</defs>
<polygon fill="#3588A6" points="64.038,34.836 66.436,37.633 64.178,41.02 62.626,38.847 "/>
<path fill="#F79523" d="M42.164,6.774c-12.472,0-22.581,10.109-22.581,22.58c0,12.471,10.109,22.58,22.581,22.58
	c12.47,0,22.578-10.108,22.578-22.58C64.742,16.883,54.633,6.774,42.164,6.774z M42.164,47.055c-9.778,0-17.704-7.924-17.704-17.702
	s7.925-17.703,17.704-17.703c9.776,0,17.701,7.925,17.701,17.703S51.94,47.055,42.164,47.055z"/>
<path fill="#C8691C" d="M24.46,29.354c0-9.777,7.925-17.703,17.704-17.703c1.284,0,2.534,0.145,3.742,0.404l1.441-4.66
	c-1.668-0.392-3.397-0.622-5.184-0.622c-12.472,0-22.581,10.109-22.581,22.58c0,9.602,6.003,17.782,14.452,21.047l1.442-4.66
	C29.017,43.102,24.46,36.764,24.46,29.354z"/>
<path fill="#F79523" d="M42.164,51.933C21.17,51.933,3.711,67.015,0,86.932h2.648h2.596h73.836h0.771h4.475
	C80.615,67.015,63.156,51.933,42.164,51.933z M6.714,81.851c5.294-14.451,19.161-24.77,35.449-24.77
	c16.287,0,30.152,10.318,35.446,24.77H6.714z"/>
<path fill="#52CAF5" d="M70.85,23.185C68.017,9.937,56.256,0,42.164,0C28.093,0,16.35,9.902,13.489,23.114
	c-2.606,1.067-4.444,3.626-4.444,6.616c0,3.949,3.202,7.15,7.151,7.15c0.652,0,1.281-0.095,1.881-0.258v-8.528
	C18.739,15.338,29.243,5.189,42.164,5.189c12.283,0,22.4,9.17,23.934,21.037v10.396c0.601,0.164,1.23,0.258,1.882,0.258
	c3.949,0,7.15-3.201,7.15-7.15C75.129,26.803,73.369,24.291,70.85,23.185z"/>
<path fill="#52CAF5" d="M66.436,37.633H49.107c-0.637-1.331-1.983-2.258-3.558-2.258h-3.764c-2.182,0-3.951,1.771-3.951,3.952
	c0,2.183,1.769,3.952,3.951,3.952h3.764c1.575,0,2.922-0.926,3.558-2.258h15.071L66.436,37.633z"/>
<path fill="#3588A6" d="M42.164,0C28.093,0,16.35,9.902,13.489,23.114c-2.606,1.067-4.444,3.626-4.444,6.616
	c0,3.949,3.202,7.15,7.151,7.15c0.652,0,1.281-0.095,1.881-0.258v-8.528C18.739,15.338,29.243,5.189,42.164,5.189
	c1.785,0,3.518,0.215,5.192,0.583l1.537-4.97C46.73,0.293,44.483,0,42.164,0z"/>
<path fill="#C8691C" d="M23.807,81.851H6.714c4.023-10.982,13.004-19.563,24.23-23.059l1.801-5.819
	C16.115,56.701,3.139,70.083,0,86.932h2.648h2.596h16.991L23.807,81.851z"/>
</svg>
