<?xml version="1.0" encoding="utf-8"?>
<svg version="1.1"
	 xmlns="http://www.w3.org/2000/svg" xmlns:xlink="http://www.w3.org/1999/xlink"
	 x="0px" y="0px" width="100px" height="100px" viewBox="-16.654 -8.072 100 100">
<defs>
</defs>
<path fill="#F79523" d="M33.784,21.141c-9.993,0-18.093,8.101-18.093,18.093c0,9.993,8.1,18.092,18.093,18.092
	c9.992,0,18.093-8.099,18.093-18.092C51.877,29.241,43.776,21.141,33.784,21.141z M33.784,53.418
	c-7.834,0-14.185-6.351-14.185-14.185s6.351-14.185,14.185-14.185c7.834,0,14.185,6.351,14.185,14.185S41.618,53.418,33.784,53.418z
	"/>
<path fill="#C8691C" d="M19.599,39.233c0-7.834,6.351-14.185,14.185-14.185c1.028,0,2.03,0.116,2.998,0.324l1.155-3.734
	c-1.336-0.314-2.721-0.498-4.153-0.498c-9.993,0-18.093,8.101-18.093,18.093c0,7.693,4.81,14.247,11.58,16.864l1.156-3.733
	C23.25,50.249,19.599,45.171,19.599,39.233z"/>
<path fill="#F79523" d="M4.202,85.369c2.911-13.667,15.046-23.918,29.582-23.918c14.535,0,26.67,10.251,29.581,23.918h4.203
	c-2.974-15.958-16.963-28.044-33.784-28.044S2.974,69.411,0,85.369H4.202z"/>
<rect x="2.122" y="81.298" fill="#F79523" width="61.861" height="4.071"/>
<path fill="#52CAF5" d="M50.149,5.695c-1.263,0-2.282,1.02-2.282,2.282c0,0.16,0.063,0.303,0.09,0.46l-7.45,3.497l-5.304-8.26
	c0.304-0.392,0.517-0.855,0.517-1.394C35.72,1.019,34.707,0,33.443,0c-1.256,0-2.274,1.019-2.274,2.279
	c0,0.564,0.228,1.062,0.564,1.453l-6.506,8.579l-8.693-4.17c0.129-0.283,0.208-0.597,0.208-0.929c0-1.255-1.016-2.273-2.278-2.273
	c-1.255,0-2.277,1.018-2.277,2.273c0,1.26,1.021,2.278,2.277,2.278c0.261,0,0.499-0.067,0.734-0.143l3.853,14.731
	c0,0,3.627-5.941,14.715-6.144c10.321-0.194,13.906,5.498,13.906,5.498l2.149-13.246c0.11,0.013,0.21,0.07,0.327,0.07
	c1.257,0,2.276-1.021,2.276-2.28C52.426,6.714,51.406,5.695,50.149,5.695z"/>
<path fill="#3588A6" d="M40.507,11.933l-5.304-8.26c0.304-0.392,0.517-0.855,0.517-1.394C35.72,1.019,34.707,0,33.443,0
	c-1.256,0-2.274,1.019-2.274,2.279c0,0.564,0.228,1.062,0.564,1.453l-6.506,8.579l-8.693-4.17c0.129-0.283,0.208-0.597,0.208-0.929
	c0-1.255-1.016-2.273-2.278-2.273c-1.255,0-2.277,1.018-2.277,2.273c0,1.26,1.021,2.278,2.277,2.278
	c0.261,0,0.499-0.067,0.734-0.143l3.529,14.893c0,0,3.627-5.941,14.714-6.144c2.232-0.042,3.794-0.004,5.25,0.263
	C38.696,18.405,40.507,11.933,40.507,11.933z"/>
<path fill="#C8691C" d="M0,85.369h4.202c2.248-10.555,10-19.066,20.108-22.398l1.454-4.697C12.667,61.405,2.485,72.032,0,85.369z"/>
<polygon fill="#C8691C" points="18.637,81.298 2.122,81.298 2.122,85.369 17.377,85.369 "/>
</svg>
