<?xml version="1.0" encoding="utf-8"?>
<svg version="1.1"
	 xmlns="http://www.w3.org/2000/svg" xmlns:xlink="http://www.w3.org/1999/xlink"
	 x="0px" y="0px" width="48px" height="48px" viewBox="-3.72 -2.762 48 48">
<defs>
</defs>
<polygon fill="#F79523" points="18.666,0 18.666,8.229 21.22,8.229 21.22,2.648 37.833,2.648 37.833,39.73 21.22,39.73 
	21.22,32.636 18.666,32.636 18.666,42.379 40.386,42.379 40.386,0 "/>
<path fill="#3588A6" d="M4.028,20.17c0,1.15,1.102,2.081,2.46,2.081h0.27v2.671c0,1.045,0.847,1.892,1.891,1.892
	c1.045,0,1.892-0.847,1.892-1.892v-2.671h2.5c-0.025,0.11-0.039,0.225-0.039,0.342v1.775c0,0.92,0.794,1.666,1.774,1.666
	c0.979,0,1.774-0.746,1.774-1.666v-1.775c0-0.117-0.014-0.231-0.038-0.342h6.452c0.885,2.85,3.543,4.919,6.685,4.919
	c3.865,0,7-3.134,7-7c0-3.867-3.135-7-7-7c-3.142,0-5.8,2.069-6.686,4.919H6.488C5.13,18.089,4.028,19.021,4.028,20.17z
	 M27.38,19.776c0-1.58,1.28-2.859,2.86-2.859c1.579,0,2.858,1.28,2.858,2.859s-1.279,2.859-2.858,2.859
	C28.661,22.635,27.38,21.356,27.38,19.776z"/>
<rect x="15.134" fill="#F79523" width="2.124" height="3.187"/>
<rect x="7.522" fill="#F79523" width="3.806" height="3.187"/>
<polygon fill="#F79523" points="3.187,3.717 0,3.717 0,0 3.717,0 3.717,3.187 3.187,3.187 "/>
<path fill="#F79523" d="M3.187,34.871H0v-3.896h3.187V34.871z M3.187,27.083H0v-3.896h3.187V27.083z M3.187,19.293H0v-3.894h3.187
	V19.293z M3.187,11.505H0V7.611h3.187V11.505z"/>
<polygon fill="#F79523" points="3.717,42.482 0,42.482 0,38.765 3.187,38.765 3.187,39.296 3.717,39.296 "/>
<rect x="7.169" y="39.296" fill="#F79523" width="3.451" height="3.186"/>
<rect x="14.072" y="39.296" fill="#F79523" width="2.125" height="3.186"/>
</svg>
