<?xml version="1.0" encoding="utf-8"?>
<svg version="1.1"
	 xmlns="http://www.w3.org/2000/svg" xmlns:xlink="http://www.w3.org/1999/xlink"
	 x="0px" y="0px" width="48px" height="48px" viewBox="-3.594 -4.6 48 48">
<defs>
</defs>
<path fill="#F79523" d="M31.578,20.652c0.047,0.144,0.078,0.291,0.078,0.44c0,2.112-5.049,3.833-11.279,3.833
	c-6.234,0-11.286-1.721-11.286-3.833c0-0.149,0.032-0.297,0.08-0.44C4.288,23.835,0.83,29.037,0,35.081h40.75
	C39.917,29.037,36.464,23.835,31.578,20.652z"/>
<path fill="#F79523" d="M30.164,10.293c0,5.691-4.381,10.296-9.787,10.296c-5.412,0-9.792-4.604-9.792-10.296
	C10.585,4.608,14.965,0,20.377,0C25.783,0,30.164,4.608,30.164,10.293z"/>
<path fill="#C8691C" d="M17.394,24.786c-4.785-0.443-8.303-1.929-8.303-3.693c0-0.149,0.032-0.297,0.08-0.44
	C4.288,23.835,0.83,29.037,0,35.081h23.582L17.394,24.786z"/>
<ellipse fill="#52CAF5" cx="30.634" cy="28.784" rx="10.178" ry="10.017"/>
<path fill="#3588A6" d="M25.082,20.396c-2.783,1.787-4.626,4.873-4.626,8.389c0,5.532,4.556,10.017,10.177,10.017
	c0.357,0,0.711-0.02,1.061-0.055c0.992-1.847,1.557-3.958,1.557-6.201C33.25,27.051,29.871,22.352,25.082,20.396z"/>
<path fill="#FFFFFF" d="M36.933,27.637c0-0.631-0.516-1.147-1.146-1.147h-1.709c-0.631,0-1.148-0.516-1.148-1.147v-1.71
	c0-0.631-0.516-1.146-1.146-1.146h-2.297c-0.631,0-1.146,0.516-1.146,1.146v1.71c0,0.632-0.518,1.147-1.148,1.147h-1.709
	c-0.631,0-1.148,0.517-1.148,1.147v2.296c0,0.631,0.518,1.147,1.148,1.147h1.709c0.631,0,1.148,0.518,1.148,1.147v1.709
	c0,0.632,0.516,1.148,1.146,1.148h2.297c0.631,0,1.146-0.517,1.146-1.148v-1.709c0-0.63,0.518-1.147,1.148-1.147h1.709
	c0.631,0,1.146-0.517,1.146-1.147V27.637z"/>
</svg>
