<?xml version="1.0" encoding="utf-8"?>
<!-- Generator: Adobe Illustrator 15.0.0, SVG Export Plug-In  -->
<!DOCTYPE svg PUBLIC "-//W3C//DTD SVG 1.1//EN" "http://www.w3.org/Graphics/SVG/1.1/DTD/svg11.dtd" [
	<!ENTITY ns_flows "http://ns.adobe.com/Flows/1.0/">
]>
<svg version="1.1"
	 xmlns="http://www.w3.org/2000/svg" xmlns:xlink="http://www.w3.org/1999/xlink" xmlns:a="http://ns.adobe.com/AdobeSVGViewerExtensions/3.0/"
	 x="0px" y="0px" width="48px" height="48px" viewBox="-4.012 -4.382 48 48" enable-background="new -4.012 -4.382 48 48"
	 xml:space="preserve">
<defs>
</defs>
<polygon fill="#F79523" points="15.52,0 15.52,7.716 17.915,7.716 17.915,2.483 38.083,2.483 38.083,37.25 17.915,37.25 
	17.915,30.6 15.52,30.6 15.52,39.735 40.476,39.735 40.476,0 "/>
<path fill="#3588A6" d="M28.28,16.961H12.832c-0.831-2.672-3.324-4.613-6.268-4.613C2.938,12.348,0,15.287,0,18.913
	c0,3.624,2.938,6.563,6.564,6.563c2.944,0,5.438-1.939,6.268-4.611h6.048c-0.022,0.103-0.035,0.211-0.035,0.321v1.664
	c0,0.862,0.745,1.562,1.664,1.562c0.917,0,1.663-0.699,1.663-1.562v-1.664c0-0.11-0.013-0.219-0.036-0.321h2.344v2.505
	c0,0.979,0.795,1.771,1.774,1.771c0.979,0,1.773-0.793,1.773-1.771v-2.505h0.253c1.273,0,2.306-0.874,2.306-1.951
	S29.553,16.961,28.28,16.961z M6.009,21.223c-1.481,0-2.681-1.2-2.681-2.68c0-1.482,1.2-2.682,2.681-2.682
	c1.48,0,2.681,1.2,2.681,2.682C8.69,20.023,7.489,21.223,6.009,21.223z"/>
</svg>
