<?xml version="1.0" encoding="utf-8"?>
	<svg version="1.1"
	 xmlns="http://www.w3.org/2000/svg" xmlns:xlink="http://www.w3.org/1999/xlink"
	 x="0px" y="0px" width="48px" height="48px" viewBox="0 0 48 48">
<defs>
</defs>
<polygon fill="#F79523" points="19.059,3.191 19.059,11.273 21.566,11.273 21.566,5.792 42.689,5.792 42.689,42.209 21.566,42.209 
	21.566,35.24 19.059,35.24 19.059,44.809 45.197,44.809 45.197,3.191 "/>
<path fill="#52CAF5" d="M32.423,20.956h-16.18c-0.871-2.799-3.481-4.831-6.565-4.831c-3.798,0-6.875,3.078-6.875,6.875
	s3.077,6.874,6.875,6.874c3.084,0,5.694-2.031,6.565-4.83h6.335c-0.023,0.109-0.037,0.221-0.037,0.336v1.744
	c0,0.902,0.78,1.637,1.742,1.637s1.742-0.734,1.742-1.637v-1.744c0-0.115-0.013-0.227-0.038-0.336h2.455v2.623
	c0,1.025,0.832,1.857,1.858,1.857c1.025,0,1.857-0.832,1.857-1.857v-2.623h0.265c1.334,0,2.415-0.916,2.415-2.043
	C34.838,21.871,33.757,20.956,32.423,20.956z M9.097,25.42c-1.551,0-2.808-1.257-2.808-2.808c0-1.551,1.257-2.809,2.808-2.809
	s2.808,1.257,2.808,2.809C11.904,24.163,10.647,25.42,9.097,25.42z"/>
</svg>
