<?xml version="1.0" encoding="utf-8"?>
<!DOCTYPE svg PUBLIC "-//W3C//DTD SVG 1.1//EN" "http://www.w3.org/Graphics/SVG/1.1/DTD/svg11.dtd" [
	<!ENTITY ns_flows "http://ns.adobe.com/Flows/1.0/">
]>
<svg version="1.1"
	 xmlns="http://www.w3.org/2000/svg" xmlns:xlink="http://www.w3.org/1999/xlink"
	 x="0px" y="0px" width="48px" height="48px" viewBox="-4.012 -3.712 48 48">
<defs>
</defs>
<polygon display="none" fill="#F79523" points="15.52,0.67 15.52,8.386 17.915,8.386 17.915,3.153 38.083,3.153 38.083,37.92 
	17.915,37.92 17.915,31.27 15.52,31.27 15.52,40.405 40.476,40.405 40.476,0.67 "/>
<path display="none" fill="#3588A6" d="M28.28,17.631H12.832c-0.831-2.672-3.324-4.613-6.268-4.613C2.938,13.018,0,15.957,0,19.583
	c0,3.624,2.938,6.563,6.564,6.563c2.944,0,5.438-1.939,6.268-4.611h6.048c-0.022,0.103-0.035,0.211-0.035,0.321v1.664
	c0,0.862,0.745,1.562,1.664,1.562c0.917,0,1.663-0.699,1.663-1.562v-1.664c0-0.11-0.013-0.219-0.036-0.321h2.344v2.505
	c0,0.979,0.795,1.771,1.774,1.771c0.979,0,1.773-0.793,1.773-1.771v-2.505h0.253c1.273,0,2.306-0.874,2.306-1.951
	S29.553,17.631,28.28,17.631z M6.009,21.893c-1.481,0-2.681-1.2-2.681-2.68c0-1.482,1.2-2.682,2.681-2.682
	c1.48,0,2.681,1.2,2.681,2.682C8.69,20.693,7.489,21.893,6.009,21.893z"/>
<polygon fill="#F79523" points="2.417,0 2.417,7.885 4.864,7.885 4.864,2.538 36.141,2.538 36.141,38.067 4.864,38.067 4.864,31.27 
	2.417,31.27 2.417,40.605 38.588,40.605 38.588,0 "/>
<path fill="#3588A6" d="M2.728,19.326c0,1.101,1.055,1.995,2.356,1.995h0.259v2.559c0,1.001,0.811,1.812,1.811,1.812
	c1.002,0,1.814-0.811,1.814-1.812v-2.559h2.395c-0.024,0.105-0.037,0.214-0.037,0.327v1.701c0,0.881,0.761,1.596,1.7,1.596
	c0.938,0,1.7-0.715,1.7-1.596v-1.701c0-0.113-0.014-0.222-0.036-0.327h6.181c0.848,2.729,3.395,4.712,6.405,4.712
	c3.703,0,6.706-3.003,6.706-6.707c0-3.705-3.003-6.707-6.706-6.707c-3.011,0-5.558,1.982-6.406,4.713H5.084
	C3.783,17.332,2.728,18.225,2.728,19.326z M25.103,18.949c0-1.514,1.227-2.74,2.74-2.74c1.513,0,2.739,1.226,2.739,2.74
	c0,1.513-1.227,2.739-2.739,2.739C26.33,21.688,25.103,20.462,25.103,18.949z"/>
</svg>
