<?xml version="1.0" encoding="utf-8"?>
<svg version="1.1"
	 xmlns="http://www.w3.org/2000/svg" xmlns:xlink="http://www.w3.org/1999/xlink"
	 x="0px" y="0px" width="48px" height="48px" viewBox="-4.012 -3.712 48 48">
<defs>
</defs>
<polygon fill="#F79523" points="2.417,0 2.417,7.885 4.864,7.885 4.864,2.538 36.141,2.538 36.141,38.067 4.864,38.067 4.864,31.27 
	2.417,31.27 2.417,40.605 38.588,40.605 38.588,0 "/>
<path fill="#3588A6" d="M2.728,19.326c0,1.101,1.055,1.995,2.356,1.995h0.259v2.559c0,1.001,0.811,1.812,1.811,1.812
	c1.002,0,1.814-0.811,1.814-1.812v-2.559h2.395c-0.024,0.105-0.037,0.214-0.037,0.327v1.701c0,0.881,0.761,1.596,1.7,1.596
	c0.938,0,1.7-0.715,1.7-1.596v-1.701c0-0.113-0.014-0.222-0.036-0.327h6.181c0.848,2.729,3.395,4.712,6.405,4.712
	c3.703,0,6.706-3.003,6.706-6.707c0-3.705-3.003-6.707-6.706-6.707c-3.011,0-5.558,1.982-6.406,4.713H5.084
	C3.783,17.332,2.728,18.225,2.728,19.326z M25.103,18.949c0-1.514,1.227-2.74,2.74-2.74c1.513,0,2.739,1.226,2.739,2.74
	c0,1.513-1.227,2.739-2.739,2.739C26.33,21.688,25.103,20.462,25.103,18.949z"/>
</svg>
