<?xml version="1.0" encoding="utf-8"?>
<svg version="1.1"
	 xmlns="http://www.w3.org/2000/svg" xmlns:xlink="http://www.w3.org/1999/xlink"
	 x="0px" y="0px" width="48px" height="48px" viewBox="-1.411 -2.887 48 48">
<defs>
</defs>
<path fill="#C8691C" d="M35.13,0H10.892C9.567,0,8.493,1.074,8.493,2.399v37.474c0,1.326,1.074,2.4,2.398,2.4H35.13
	c1.324,0,2.398-1.074,2.398-2.4V2.399C37.529,1.074,36.455,0,35.13,0z M35.48,38c0,1.191-0.967,2.16-2.16,2.16H12.706
	c-1.192,0-2.159-0.969-2.159-2.16V4.272c0-1.192-0.233-2.159,2.159-2.159c0,0,19.561-0.026,20.614,0
	c1.82,0.045,2.193,0.682,2.16,2.159V38z"/>
<path fill="#C8691C" d="M13.745,2.135c0,0,14.092,4.911,14.946,5.338c0.854,0.427,1.066,1.494,1.066,2.988c0,1.495,0,32.88,0,32.88
	L9.901,40.564L9.476,4.698c0,0-0.428-2.989,0.854-3.203S13.745,2.135,13.745,2.135z"/>
<path fill="none" stroke="#52CAF5" stroke-miterlimit="10" d="M44.414,22.137c0,3.037-2.463,5.5-5.5,5.5H6
	c-3.038,0-5.5-2.463-5.5-5.5v-2.522c0-3.037,2.462-5.5,5.5-5.5h32.914c3.037,0,5.5,2.463,5.5,5.5V22.137z"/>
<path fill="#F9F9FA" stroke="#3588A6" stroke-miterlimit="10" d="M43.781,22.022c0,2.761-2.238,5.001-5,5.001H6.132
	c-2.761,0-5-2.24-5-5.001v-2.293c0-2.761,2.239-5,5-5h32.649c2.762,0,5,2.239,5,5V22.022z"/>
<path fill="#3588A6" d="M12.062,20.323h-2.32l1.641-1.639c0.236-0.236,0.264-0.592,0.062-0.793
	c-0.202-0.203-0.559-0.177-0.796,0.061L9.009,19.59v-2.32c0-0.333-0.232-0.604-0.519-0.604c-0.287,0-0.519,0.271-0.519,0.604v2.32
	l-1.641-1.639c-0.236-0.237-0.591-0.264-0.794-0.061c-0.202,0.201-0.175,0.557,0.062,0.793l1.641,1.639h-2.32
	c-0.334,0-0.604,0.232-0.604,0.52c0,0.286,0.271,0.518,0.604,0.518h2.32l-1.641,1.642c-0.236,0.236-0.263,0.592-0.061,0.795
	c0.202,0.201,0.557,0.176,0.793-0.061l1.641-1.642v2.32c0,0.332,0.231,0.604,0.519,0.604c0.286,0,0.519-0.271,0.519-0.604v-2.32
	l1.639,1.64c0.237,0.236,0.594,0.264,0.795,0.063c0.203-0.205,0.176-0.559-0.061-0.795l-1.64-1.642h2.319
	c0.334,0,0.605-0.231,0.605-0.518C12.667,20.555,12.396,20.323,12.062,20.323z"/>
<path fill="#ED1C24" d="M25.974,22.586c-0.039-0.1-0.07-0.211-0.09-0.336c-0.021-0.125-0.033-0.244-0.033-0.355
	c0-0.178,0.02-0.339,0.053-0.484c0.035-0.146,0.086-0.283,0.156-0.413c0.068-0.128,0.156-0.251,0.26-0.369
	c0.104-0.116,0.225-0.233,0.363-0.349c0.146-0.123,0.273-0.236,0.383-0.344c0.109-0.105,0.203-0.211,0.281-0.316
	c0.076-0.105,0.133-0.215,0.172-0.329c0.037-0.112,0.059-0.239,0.059-0.378c0-0.119-0.021-0.229-0.064-0.33
	c-0.043-0.103-0.104-0.189-0.182-0.264c-0.08-0.072-0.176-0.131-0.289-0.173s-0.238-0.063-0.377-0.063
	c-0.299,0-0.611,0.063-0.934,0.188c-0.324,0.125-0.631,0.314-0.918,0.568v-1.736c0.297-0.177,0.619-0.31,0.969-0.397
	c0.35-0.089,0.711-0.133,1.084-0.133c0.357,0,0.689,0.04,0.998,0.118s0.576,0.203,0.805,0.372s0.406,0.386,0.537,0.648
	c0.129,0.264,0.193,0.58,0.193,0.949c0,0.235-0.027,0.446-0.082,0.638c-0.053,0.189-0.133,0.369-0.236,0.539
	c-0.104,0.168-0.232,0.331-0.387,0.487c-0.152,0.155-0.33,0.315-0.529,0.481c-0.135,0.111-0.254,0.215-0.355,0.311
	c-0.102,0.098-0.188,0.191-0.254,0.285c-0.066,0.096-0.117,0.195-0.152,0.301s-0.053,0.227-0.053,0.36
	c0,0.092,0.014,0.186,0.037,0.282c0.025,0.098,0.059,0.178,0.102,0.242H25.974z M26.816,25.113c-0.309,0-0.564-0.092-0.768-0.277
	c-0.203-0.191-0.305-0.42-0.305-0.68c0-0.27,0.102-0.494,0.305-0.676c0.203-0.18,0.459-0.271,0.768-0.271
	c0.303,0,0.555,0.092,0.754,0.271c0.201,0.178,0.301,0.402,0.301,0.676c0,0.275-0.098,0.506-0.293,0.686
	C27.376,25.021,27.123,25.113,26.816,25.113z"/>
<path fill="#ED1C24" d="M16.666,22.586c-0.039-0.1-0.069-0.211-0.09-0.336s-0.032-0.244-0.032-0.355
	c0-0.178,0.019-0.339,0.053-0.484c0.035-0.146,0.086-0.283,0.155-0.413c0.069-0.128,0.156-0.251,0.26-0.369
	c0.104-0.116,0.225-0.233,0.363-0.349c0.146-0.123,0.273-0.236,0.384-0.344c0.109-0.105,0.202-0.211,0.28-0.316
	c0.076-0.105,0.134-0.215,0.173-0.329c0.037-0.112,0.058-0.239,0.058-0.378c0-0.119-0.021-0.229-0.064-0.33
	c-0.042-0.103-0.103-0.189-0.182-0.264c-0.079-0.072-0.175-0.131-0.288-0.173s-0.239-0.063-0.377-0.063
	c-0.3,0-0.611,0.063-0.935,0.188s-0.63,0.314-0.918,0.568v-1.736c0.297-0.177,0.62-0.31,0.969-0.397
	c0.351-0.089,0.712-0.133,1.084-0.133c0.358,0,0.69,0.04,0.999,0.118c0.308,0.078,0.575,0.203,0.804,0.372
	c0.229,0.169,0.407,0.386,0.537,0.648c0.129,0.264,0.193,0.58,0.193,0.949c0,0.235-0.027,0.446-0.081,0.638
	c-0.054,0.189-0.133,0.369-0.237,0.539c-0.104,0.168-0.232,0.331-0.386,0.487c-0.153,0.155-0.331,0.315-0.53,0.481
	c-0.135,0.111-0.254,0.215-0.355,0.311c-0.101,0.098-0.187,0.191-0.253,0.285c-0.067,0.096-0.118,0.195-0.152,0.301
	c-0.035,0.105-0.053,0.227-0.053,0.36c0,0.092,0.013,0.186,0.037,0.282c0.025,0.098,0.059,0.178,0.101,0.242H16.666z M17.508,25.113
	c-0.308,0-0.563-0.092-0.768-0.277c-0.203-0.191-0.305-0.42-0.305-0.68c0-0.27,0.102-0.494,0.305-0.676
	c0.204-0.18,0.46-0.271,0.768-0.271c0.304,0,0.556,0.092,0.755,0.271c0.2,0.178,0.3,0.402,0.3,0.676
	c0,0.275-0.097,0.506-0.293,0.686C18.069,25.021,17.815,25.113,17.508,25.113z"/>
<path fill="#ED1C24" d="M35.283,22.586c-0.039-0.1-0.07-0.211-0.09-0.336c-0.021-0.125-0.033-0.244-0.033-0.355
	c0-0.178,0.02-0.339,0.053-0.484c0.035-0.146,0.086-0.283,0.156-0.413c0.068-0.128,0.156-0.251,0.26-0.369
	c0.104-0.116,0.225-0.233,0.363-0.349c0.146-0.123,0.273-0.236,0.383-0.344c0.109-0.105,0.203-0.211,0.281-0.316
	c0.076-0.105,0.133-0.215,0.172-0.329c0.037-0.112,0.059-0.239,0.059-0.378c0-0.119-0.021-0.229-0.064-0.33
	c-0.043-0.103-0.104-0.189-0.182-0.264c-0.08-0.072-0.176-0.131-0.289-0.173s-0.238-0.063-0.377-0.063
	c-0.299,0-0.611,0.063-0.934,0.188c-0.324,0.125-0.631,0.314-0.918,0.568v-1.736c0.297-0.177,0.619-0.31,0.969-0.397
	c0.35-0.089,0.711-0.133,1.084-0.133c0.357,0,0.689,0.04,0.998,0.118s0.576,0.203,0.805,0.372s0.406,0.386,0.537,0.648
	c0.129,0.264,0.193,0.58,0.193,0.949c0,0.235-0.027,0.446-0.082,0.638c-0.053,0.189-0.133,0.369-0.236,0.539
	c-0.104,0.168-0.232,0.331-0.387,0.487c-0.152,0.155-0.33,0.315-0.529,0.481c-0.135,0.111-0.254,0.215-0.355,0.311
	c-0.102,0.098-0.188,0.191-0.254,0.285c-0.066,0.096-0.117,0.195-0.152,0.301s-0.053,0.227-0.053,0.36
	c0,0.092,0.014,0.186,0.037,0.282c0.025,0.098,0.059,0.178,0.102,0.242H35.283z M36.125,25.113c-0.309,0-0.564-0.092-0.768-0.277
	c-0.203-0.191-0.305-0.42-0.305-0.68c0-0.27,0.102-0.494,0.305-0.676c0.203-0.18,0.459-0.271,0.768-0.271
	c0.303,0,0.555,0.092,0.754,0.271c0.201,0.178,0.301,0.402,0.301,0.676c0,0.275-0.098,0.506-0.293,0.686
	C36.685,25.021,36.431,25.113,36.125,25.113z"/>
</svg>
