<?xml version="1.0" encoding="utf-8"?>
<!-- Generator: Adobe Illustrator 15.0.0, SVG Export Plug-In  -->
<!DOCTYPE svg PUBLIC "-//W3C//DTD SVG 1.1//EN" "http://www.w3.org/Graphics/SVG/1.1/DTD/svg11.dtd" [
	<!ENTITY ns_flows "http://ns.adobe.com/Flows/1.0/">
]>
<svg version="1.1"
	 xmlns="http://www.w3.org/2000/svg" xmlns:xlink="http://www.w3.org/1999/xlink" xmlns:a="http://ns.adobe.com/AdobeSVGViewerExtensions/3.0/"
	 x="0px" y="0px" width="48px" height="48px" viewBox="-3.167 -3.5 48 48" enable-background="new -3.167 -3.5 48 48"
	 xml:space="preserve">
<defs>
</defs>
<circle fill="#52CAF5" cx="20.783" cy="20.784" r="20.783"/>
<path fill="#3588A6" d="M20.783,0c-2.94,0-5.737,0.614-8.272,1.716c10.763,2.699,18.663,11.567,18.663,22.098
	c0,7.14-3.628,13.517-9.32,17.726c10.981-0.558,19.713-9.638,19.713-20.755C41.566,9.306,32.261,0,20.783,0z"/>
<path fill="#FFFFFF" d="M11.285,12.137v3.451H6.076v10.391h7.793V12.137H11.285z M11.258,24.247H8.646v-6.075h2.611V24.247z"/>
<rect x="14.735" y="12.125" fill="#FFFFFF" width="2.634" height="2.597"/>
<rect x="14.735" y="15.589" fill="#FFFFFF" width="2.634" height="10.391"/>
<path fill="#FFFFFF" d="M25.128,16.451V15.58H18.19l0.014,10.411h5.177v0.864h-5.177v2.589h6.924v-0.888h0.864V16.451H25.128z
	 M23.408,23.382h-2.625v-5.209h2.625V23.382z"/>
<path fill="#FFFFFF" d="M33.788,16.451V15.58H26.85l0.013,10.411h5.179v0.864h-5.179v2.589h6.927v-0.888h0.862V16.451H33.788z
	 M32.067,23.382h-2.625v-5.209h2.625V23.382z"/>
</svg>
