<?xml version="1.0" encoding="utf-8"?>
<!-- Generator: Adobe Illustrator 15.0.0, SVG Export Plug-In  -->
<!DOCTYPE svg PUBLIC "-//W3C//DTD SVG 1.1//EN" "http://www.w3.org/Graphics/SVG/1.1/DTD/svg11.dtd" [
	<!ENTITY ns_flows "http://ns.adobe.com/Flows/1.0/">
]>
<svg version="1.1"
	 xmlns="http://www.w3.org/2000/svg" x="0px" y="0px" width="48px" height="48px" viewBox="-4.039 -1.223 48 48">
<defs>
</defs>
<path d="M29.681,43.912c-6.632,0-12.009-5.377-12.009-12.008c0-6.633,5.377-12.008,12.009-12.008c4.318,0,8.094,2.288,10.209,5.709
	l0.016-19.212L28.96,16.756l-4.458-5.128l-6.137,7.593L7.964,15.165L0,22.445v23.109h39.874l0.006-7.336
	C37.762,41.632,33.992,43.912,29.681,43.912z"/>
<polygon points="37.854,26.967 34.789,23.898 29.681,29.01 24.574,23.898 21.508,26.967 26.614,32.073 21.51,37.18 24.572,40.248 
	29.681,35.139 34.788,40.248 37.854,37.18 32.746,32.073 "/>
<polygon points="39.922,0 28.921,10.468 24.45,5.319 17.308,14.493 7.521,9.989 0.001,17.198 0,19.828 7.96,11.938 17.723,16.479 
	24.566,7.816 28.945,12.709 39.891,2.359 "/>
<circle cx="7.372" cy="11.075" r="3"/>
<circle cx="17.053" cy="14.307" r="3"/>
<circle cx="24.527" cy="6.675" r="3"/>
</svg>
