<?xml version="1.0" encoding="utf-8"?>
<!-- Generator: Adobe Illustrator 16.0.0, SVG Export Plug-In . SVG Version: 6.00 Build 0)  -->
<!DOCTYPE svg PUBLIC "-//W3C//DTD SVG 1.1//EN" "http://www.w3.org/Graphics/SVG/1.1/DTD/svg11.dtd">
<svg version="1.1" xmlns="http://www.w3.org/2000/svg" xmlns:xlink="http://www.w3.org/1999/xlink" x="0px" y="0px"
	 width="48px" height="48px" viewBox="0 0 48 48">
<path d="M35.53,16.237c0-6.104-4.951-11.055-11.057-11.055c-6.104,0-11.055,4.949-11.055,11.055c0,0-0.16,3.271,2.09,7.498
	c1.483,2.792,8.965,17.033,8.965,17.033s7.678-14.276,9.189-17.187C35.681,19.701,35.53,16.237,35.53,16.237z M24.269,22.005
	c-3.833,0-6.94-3.107-6.94-6.94s3.107-6.94,6.94-6.94s6.94,3.107,6.94,6.94S28.102,22.005,24.269,22.005z"/>
<path d="M24.474,3.513c4.435,0,8.333,2.272,10.607,5.712l2.088-2.087c-3.479-3.171-8.092-5.121-13.17-5.121
	c-5.403,0-10.296,2.189-13.836,5.729l2.901,2.902C15.132,6.427,19.458,3.513,24.474,3.513z"/>
<path d="M16.731,29.713l-7.217,8.176c3.581,3.947,8.734,6.441,14.485,6.441c0.138,0,0.271-0.02,0.408-0.021
	C23.853,43.254,19.658,35.273,16.731,29.713z"/>
<path d="M37.806,38.627l-6.367-7.172c-2.877,5.377-6.37,11.875-6.893,12.848C29.716,44.16,34.387,42.033,37.806,38.627z"/>
<path d="M10.185,35.414l5.98-6.775c-0.896-1.699-1.62-3.072-2-3.789c-2.587-4.863-2.403-8.623-2.403-8.623
	c0-1.588,0.305-3.103,0.837-4.504l-3.17-3.171c-3.1,3.463-5.002,8.022-5.002,13.038C4.427,26.998,6.636,31.875,10.185,35.414z"/>
<path d="M31.968,30.461l5.063,5.701c4.01-3.58,6.543-8.773,6.543-14.572c0-5.366-2.162-10.222-5.656-13.757l-2.29,2.29
	c0.993,1.812,1.562,3.891,1.562,6.103c0,0,0.174,3.984-2.146,8.446C34.517,25.682,33.346,27.883,31.968,30.461z"/>
</svg>
