<?xml version="1.0" encoding="utf-8"?>
<!DOCTYPE svg PUBLIC "-//W3C//DTD SVG 1.1//EN" "http://www.w3.org/Graphics/SVG/1.1/DTD/svg11.dtd" [
	<!ENTITY ns_flows "http://ns.adobe.com/Flows/1.0/">
]>
<svg version="1.1"
	 xmlns="http://www.w3.org/2000/svg" x="0px" y="0px" width="48px" height="48px" viewBox="-5.883 -4.522 48 48">
<defs>
</defs>
<path d="M18.026,20.932h5.689c-0.668-1.386-1.329-2.866-1.927-4.382c-1.173,0.368-2.438,0.646-3.762,0.735V20.932z"
	/>
<path d="M28.496,29.514c0,0-1.771-2.703-3.75-6.522h-6.72v3.626c5.804,0.396,10.554,4.285,10.764,4.42l-1.103,1.739
	c-0.046-0.031-4.45-3.644-9.662-4.092v6.151h-2.061v-6.15c-5.017,0.424-9.747,3.54-9.798,3.563l-0.883-1.859
	c0.222-0.107,5.216-3.36,10.681-3.767v-3.631H4.12v-2.06h11.845v-3.65c-5.465-0.407-10.458-3.66-10.681-3.766l0.883-1.861
	c0.051,0.024,4.781,3.14,9.798,3.563V9.086h2.061v6.133c1.058-0.091,2.08-0.316,3.042-0.611c-1.142-3.294-1.871-6.634-1.623-9.446
	c-0.802-0.115-1.615-0.196-2.449-0.196C7.609,4.965,0,12.574,0,21.961c0,9.386,7.609,16.994,16.995,16.994
	c9.386,0,16.995-7.608,16.995-16.994c0-0.711-0.058-1.406-0.143-2.094C31.318,25.253,28.496,29.514,28.496,29.514z"/>
<path d="M28.703,0.002v0.007C28.701,0.007,28.699,0,28.697,0c-17.38,0-0.188,26.234-0.188,26.234
	S45.762,0.198,28.703,0.002z M28.697,11.806c-2.535,0-4.591-1.981-4.591-4.428c0-2.444,2.056-4.427,4.591-4.427
	c0.006,0,0.012-0.012,0.018-0.029v0.034C31.154,3.06,33.102,5,33.102,7.378c0,2.38-1.947,4.319-4.387,4.423
	c-0.002,0-0.004,0.023-0.008,0.06C28.705,11.826,28.701,11.806,28.697,11.806z"/>
</svg>
