<?xml version="1.0" encoding="utf-8"?>
<svg version="1.1"
	 xmlns="http://www.w3.org/2000/svg" x="0px" y="0px" width="48px" height="48px" viewBox="-5.848 -4.762 48 48">
<defs>
</defs>
<path d="M11.642,13.218h-5.98v2.856h6.546C11.909,15.164,11.719,14.208,11.642,13.218z"/>
<path d="M23.85,26.966c-0.51,0-1.014-0.026-1.512-0.077v8.106h-9.279h-0.338H3.441V9.119l6.045-0.004
	c0.267-1.227,0.692-2.392,1.244-3.483L0,5.637v32.839h12.721h0.338h12.719V26.825C25.145,26.908,24.506,26.966,23.85,26.966z"/>
<path d="M11.832,20.72H5.661v2.856h6.799C11.969,22.141,11.953,21.391,11.832,20.72z"/>
<path d="M24,0c-6.797,0-12.304,5.508-12.304,12.307c0,3.228,1.255,6.158,3.292,8.355l-0.093,9.194l7.851-5.311
	c0.41,0.041,0.832,0.063,1.254,0.063c6.797,0,12.305-5.51,12.305-12.303C36.305,5.508,30.797,0,24,0z M24.002,21.791
	c-5.242,0-9.493-4.25-9.493-9.491c0-5.243,4.25-9.492,9.493-9.492c5.242,0.001,9.49,4.25,9.49,9.492
	C33.492,17.542,29.244,21.791,24.002,21.791z"/>
<path d="M25.242,12.584c0-0.228-0.088-0.427-0.209-0.601l5.35-5.888l-0.262-0.283l-5.564,5.785
	c-0.117-0.045-0.241-0.076-0.375-0.076c-0.184,0-0.349,0.059-0.499,0.142L18.622,6.93l-0.333,0.346l4.95,4.841
	c-0.071,0.143-0.121,0.298-0.121,0.468c0,0.147,0.029,0.287,0.084,0.414l-1.108,1.144l0.476,0.529l1.085-1.184
	c0.158,0.092,0.331,0.16,0.527,0.16c0.178,0,0.34-0.056,0.486-0.134l1.127,1.101l0.529-0.478l-1.186-1.109
	C25.203,12.892,25.242,12.744,25.242,12.584z"/>
<polygon points="13.043,28.223 5.661,28.223 5.661,31.079 13.379,31.079 "/>
</svg>
