<?xml version="1.0" encoding="utf-8"?>
<!DOCTYPE svg PUBLIC "-//W3C//DTD SVG 1.1//EN" "http://www.w3.org/Graphics/SVG/1.1/DTD/svg11.dtd" [
	<!ENTITY ns_flows "http://ns.adobe.com/Flows/1.0/">
]>
<svg version="1.1"
	 xmlns="http://www.w3.org/2000/svg" x="0px" y="0px" width="48px" height="48px" viewBox="-4.258 -2.042 48 48">
<defs>
</defs>
<path d="M28.029,13.532H10.881c-1.763,0-3.195,1.431-3.195,3.195v16.047c0,1.768,1.432,3.199,3.195,3.199h17.15
	c1.766,0,3.193-1.432,3.193-3.199V16.727C31.225,14.963,29.797,13.532,28.029,13.532z M26.086,30.51H12.745v-1.652h13.341V30.51z
	 M26.086,25.489H12.745V23.84h13.341V25.489z M26.086,20.124H12.745v-1.648h13.341V20.124z"/>
<path d="M6.337,15.3c0-1.764,1.432-3.195,3.195-3.195h11.994l2.049-1.89l3.537,3.013L26.85,0l-14.5,0.295l3.407,3.266L0,17.755
	v14.197l6.337-5.844V15.3z"/>
<path d="M34.646,4.52h-5.453V6.9h3.961c2.695,0,3.951,1.255,3.951,3.95v26.734c0,2.693-1.256,3.949-3.951,3.949H6.421
	c-2.693,0-3.951-1.256-3.951-3.949v-5.025l-2.378,1.826v4.689c0,2.674,2.167,4.84,4.84,4.84h29.714c2.672,0,4.838-2.166,4.838-4.84
	V9.36C39.484,6.687,37.318,4.52,34.646,4.52z"/>
<path d="M2.47,11.85v-1c0-2.695,1.258-3.95,3.951-3.95h1.892l2.809-2.38h-6.19c-2.673,0-4.84,2.167-4.84,4.841v4.504L2.47,11.85z"/>
</svg>
