<?xml version="1.0" encoding="utf-8"?>
<!-- Generator: Adobe Illustrator 15.0.0, SVG Export Plug-In  -->
<!DOCTYPE svg PUBLIC "-//W3C//DTD SVG 1.1//EN" "http://www.w3.org/Graphics/SVG/1.1/DTD/svg11.dtd" [
	<!ENTITY ns_flows "http://ns.adobe.com/Flows/1.0/">
]>
<svg version="1.1"
	 xmlns="http://www.w3.org/2000/svg" xmlns:xlink="http://www.w3.org/1999/xlink" xmlns:a="http://ns.adobe.com/AdobeSVGViewerExtensions/3.0/"
	 x="0px" y="0px" width="48px" height="48px" viewBox="-9.093 -3.332 48 48"
	 xml:space="preserve">
<defs>
</defs>
<path d="M24.517,4.042L14.382,14.177L4.695,4.491c-2.599,2.6-4.207,6.191-4.207,10.158c0,1.276,0.183,2.507,0.495,3.685
	c1.872-2.359,4.757-3.877,8.002-3.877c5.642,0,10.216,4.574,10.216,10.216c0,1.372-0.274,2.678-0.765,3.873
	c6.196-1.595,10.78-7.203,10.78-13.897C29.217,10.441,27.397,6.669,24.517,4.042z"/>
<path d="M14.829,0c-3.401,0-6.48,1.377-8.711,3.606l8.309,8.309l8.69-8.691C20.929,1.227,18.026,0,14.829,0"/>
<path d="M29.402,38.875l-12.739-9.088c2.502-4.027,1.451-9.239-2.344-12.015c-4.067-3.011-9.717-2.044-12.631,1.997
	s-1.948,9.69,2.066,12.508c3.397,2.473,7.972,2.12,11.004-0.396l12.888,9.254c0.521,0.373,1.416,0.227,1.855-0.418
	C29.945,40.075,29.92,39.249,29.402,38.875 M5.246,30.197c-2.876-2.101-3.602-6.155-1.502-9.032c2.1-2.876,6.155-3.602,9.03-1.502
	c2.877,2.1,3.604,6.155,1.502,9.031C12.205,31.666,8.123,32.294,5.246,30.197"/>
<path d="M12.097,21.518c0,0,2.012,1.229,1.787,4.021c-0.209,2.595-2.345,3.238-2.345,3.238l-0.559-1.005c0,0,1.664-0.67,1.694-2.545
	c0.031-1.923-1.266-2.642-1.266-2.642L12.097,21.518z"/>
</svg>
