<?xml version="1.0" encoding="utf-8"?>
<!-- Generator: Adobe Illustrator 15.0.0, SVG Export Plug-In  -->
<!DOCTYPE svg PUBLIC "-//W3C//DTD SVG 1.1//EN" "http://www.w3.org/Graphics/SVG/1.1/DTD/svg11.dtd" [
	<!ENTITY ns_flows "http://ns.adobe.com/Flows/1.0/">
]>
<svg version="1.1"
	 xmlns="http://www.w3.org/2000/svg" x="0px" y="0px" width="48px" height="48px" viewBox="-2.908 -8.585 48 48"
	 xml:space="preserve">
<defs>
</defs>
<path d="M42.184,1.68l-8.88,8.379c-0.197-0.1-0.417-0.162-0.653-0.162c-0.164,0-0.318,0.033-0.465,0.083l-6.406-8.206
	c0.024-0.104,0.039-0.211,0.039-0.322C25.818,0.65,25.168,0,24.365,0s-1.453,0.65-1.453,1.453c0,0.092,0.011,0.181,0.027,0.267
	l-5.931,5.576c-0.211-0.12-0.452-0.194-0.713-0.194c-0.413,0-0.783,0.174-1.048,0.451L9.644,4.262
	C9.501,3.61,8.922,3.121,8.227,3.121c-0.802,0-1.452,0.65-1.452,1.452c0,0.018,0.004,0.035,0.005,0.052L0,11.776v1.971l7.471-7.94
	c0.221,0.136,0.478,0.218,0.756,0.218c0.427,0,0.807-0.188,1.073-0.481l5.564,3.213c0.099,0.705,0.699,1.249,1.431,1.249
	c0.802,0,1.452-0.65,1.452-1.452c0-0.066-0.011-0.129-0.02-0.192l6.018-5.599c0.188,0.089,0.396,0.143,0.619,0.143
	c0.216,0,0.419-0.05,0.603-0.134l6.322,8.082c-0.057,0.156-0.093,0.322-0.093,0.497c0,0.802,0.65,1.453,1.453,1.453
	s1.453-0.651,1.453-1.453c0-0.021-0.005-0.039-0.006-0.059l8.086-7.659V1.68z"/>
<path d="M32.681,15.985L24.437,5.267l-7.626,6.596l-8.583-4.29l-8.21,9.158v13.874c0.069-0.088,0.142-0.176,0.212-0.264
	c-0.139,0.304-0.212,0.488-0.212,0.488h42.154V19.981v-1.633V6.443L32.681,15.985z M21.092,29.024c-4.649,0-8.418-3.769-8.418-8.418
	s3.769-8.418,8.418-8.418s8.418,3.769,8.418,8.418S25.741,29.024,21.092,29.024z"/>
<path d="M25.775,19.154h-3.23v-3.23c0-0.803-0.65-1.453-1.453-1.453c-0.802,0-1.452,0.65-1.452,1.453v3.23h-3.23
	c-0.803,0-1.453,0.65-1.453,1.453s0.65,1.451,1.453,1.451h3.23v3.23c0,0.803,0.65,1.452,1.452,1.452
	c0.802,0,1.453-0.649,1.453-1.452v-3.23h3.23c0.805,0,1.451-0.648,1.451-1.451S26.578,19.154,25.775,19.154z"/>
</svg>
