<?xml version="1.0" encoding="utf-8"?>
<!DOCTYPE svg PUBLIC "-//W3C//DTD SVG 1.1//EN" "http://www.w3.org/Graphics/SVG/1.1/DTD/svg11.dtd" [
	<!ENTITY ns_flows "http://ns.adobe.com/Flows/1.0/">
]>
<svg version="1.1"
	 xmlns="http://www.w3.org/2000/svg" x="0px" y="0px" width="48px" height="48px" viewBox="-1.543 -2.75 48 48">
<defs>
</defs>
<path d="M28.8,15.9c0,0-8.1-9.8-14.1,0c-4.113,8.339,13.7,15.8,13.7,15.8s17.491-6.417,14.1-15.8C37.2,8.1,28.8,15.9,28.8,15.9"/>
<path d="M28.152,34.326c0,0-8.565-3.811-13.298-9.385L5,36.1c3.5,3.9,8.6,6.4,14.3,6.4c5.3,0,10.101-2.2,13.601-5.6L30,33.615
	C28.868,34.088,28.152,34.326,28.152,34.326z"/>
<path d="M31.263,6.137L32.3,5.1C28.9,1.9,24.4,0,19.3,0C14,0,9.2,2.2,5.7,5.7l1.022,1.022C2.62,10.271,0,15.495,0,21.3
	c0,4.886,1.828,9.343,4.818,12.747l9.101-10.305c-1.945-2.735-2.854-5.828-1.419-9.068c0.29-0.474,0.585-0.898,0.881-1.301
	c0.273-0.371,0.549-0.711,0.826-1.025c0.015-0.017,0.029-0.033,0.044-0.049c1.134-1.273,2.296-2.086,3.446-2.555
	c0.004-0.002,0.009-0.004,0.014-0.006c0.285-0.115,0.569-0.21,0.853-0.285c0.003-0.001,0.006-0.002,0.01-0.003
	c0.857-0.226,1.702-0.275,2.517-0.197c0.012,0.001,0.023,0.003,0.035,0.004c0.251,0.025,0.499,0.063,0.743,0.111
	c0.028,0.005,0.056,0.011,0.084,0.017c0.243,0.05,0.482,0.109,0.717,0.179c0.013,0.003,0.026,0.007,0.039,0.011
	c0.506,0.15,0.993,0.342,1.458,0.559c0.019,0.009,0.037,0.019,0.056,0.027c0.203,0.097,0.401,0.198,0.595,0.303
	c0.041,0.022,0.082,0.045,0.124,0.068c0.177,0.099,0.35,0.2,0.518,0.303c0.034,0.021,0.068,0.042,0.102,0.063
	c0.196,0.123,0.387,0.247,0.569,0.374v0c1.768,1.222,2.893,2.534,2.893,2.534s2.803-2.551,6.383-3.235
	C34.265,8.885,32.863,7.392,31.263,6.137z"/>
<path d="M31.336,33.028l1.698,1.924c1.396-1.394,2.569-3.008,3.489-4.775C34.672,31.394,32.825,32.346,31.336,33.028z"/>
</svg>
