<?xml version="1.0" encoding="utf-8"?>
<!-- Generator: Adobe Illustrator 15.0.0, SVG Export Plug-In  -->
<!DOCTYPE svg PUBLIC "-//W3C//DTD SVG 1.1//EN" "http://www.w3.org/Graphics/SVG/1.1/DTD/svg11.dtd" [
	<!ENTITY ns_flows "http://ns.adobe.com/Flows/1.0/">
]>
<svg version="1.1"
	 xmlns="http://www.w3.org/2000/svg" x="0px" y="0px" width="48px" height="48px" viewBox="-2.686 -4.193 48 48">
<defs>
</defs>
<path d="M36.613,30.155c0.033,0.094,0.055,0.19,0.055,0.286c0,1.39-3.311,2.517-7.395,2.517c-4.088,0-7.398-1.127-7.398-2.517
	c0-0.096,0.021-0.192,0.054-0.286c-3.202,2.088-5.469,5.497-6.013,9.458h26.713C42.083,35.652,39.818,32.243,36.613,30.155z"/>
<path d="M35.689,23.365c0,3.729-2.873,6.749-6.416,6.749c-3.551,0-6.42-3.021-6.42-6.749c0-3.727,2.869-6.748,6.42-6.748
	C32.816,16.617,35.689,19.638,35.689,23.365z"/>
<path d="M20.318,28.74c0,0,1.021-0.396,2.609-0.803c-0.037-0.059-0.08-0.112-0.117-0.172H4.51H3.862H3.733V5.19H4.51v21.757h17.861
	l-0.297-0.716H5.615c0.998-1.854,3.236-5.31,6.03-5.222c2.375,0.075,5.15,1.766,8.147-0.189c2.639-1.724,1.65-5.313,3.651-6.999
	c0.4,0.912,0.723,2.045,0.985,3.25c1.323-1.126,3.007-1.804,4.845-1.804c0.83,0,1.629,0.142,2.377,0.397V4.706
	C31.65,2.107,29.652,0,27.189,0H4.458C1.996,0,0,2.107,0,4.706v21.916c0,2.601,1.996,4.705,4.458,4.705h12.943
	C18.246,30.334,19.222,29.455,20.318,28.74z M5.486,10.358c0,0,1.021,3.953,3.631,3.953c2.61,0,1.589-5.989,4.199-5.87
	c2.611,0.12,1.475,9.104,3.858,9.104c2.384,0,1.932-5.743,3.972-5.869c0.708-0.044,1.302,0.421,1.802,1.205
	c-2.407,1.676-1.13,5.21-3.782,7.094c-2.679,1.903-4.483-0.162-7.776-0.028c-2.583,0.106-4.699,2.688-5.995,4.771L5.486,10.358z"/>
</svg>
