<?xml version="1.0" encoding="utf-8"?>
<svg version="1.1"
	 xmlns="http://www.w3.org/2000/svg" xmlns:xlink="http://www.w3.org/1999/xlink"
	 x="0px" y="0px" width="36px" height="36px" viewBox="-3.466 -2.795 36 36">
<defs>
</defs>
<polygon fill="#F79523" points="25.342,10.935 25.342,27.128 3.699,27.128 3.699,3.75 15.124,3.75 15.124,0.006 0,0.006 0,30.872 
	29.042,30.872 29.042,10.935 "/>
<polygon fill="#C8691C" points="25.342,10.935 25.342,27.128 15,27.128 15,30.872 29.042,30.872 29.042,10.935 "/>
<rect x="15.12" fill="#C8691C" width="0.004" height="3.743"/>
<path fill="#52CAF5" d="M14.516,16.723c0,0-1.761-9.726,3.756-13.66l-2.376-2.358L28.3,0.481l-2.062,10.376L23.79,8.694
	C23.79,8.694,15.448,10.74,14.516,16.723z"/>
</svg>
