<?xml version="1.0" encoding="utf-8"?>
<!-- Generator: Adobe Illustrator 15.0.0, SVG Export Plug-In  -->
<!DOCTYPE svg PUBLIC "-//W3C//DTD SVG 1.1//EN" "http://www.w3.org/Graphics/SVG/1.1/DTD/svg11.dtd" [
	<!ENTITY ns_flows "http://ns.adobe.com/Flows/1.0/">
]>
<svg version="1.1"
	 xmlns="http://www.w3.org/2000/svg" xmlns:xlink="http://www.w3.org/1999/xlink" xmlns:a="http://ns.adobe.com/AdobeSVGViewerExtensions/3.0/"
	 x="0px" y="0px" width="36px" height="36px" viewBox="22.984 23.45 36 36" enable-background="new 22.984 23.45 36 36"
	 xml:space="preserve">
<defs>
</defs>
<path fill="#F89624" d="M49.683,31.996c0,1.347-1.092,2.437-2.438,2.437H27.748c-1.345,0-2.438-1.09-2.438-2.437l0,0
	c0-1.346,1.093-2.437,2.438-2.437h19.498C48.591,29.559,49.683,30.649,49.683,31.996L49.683,31.996z"/>
<path fill="#F89624" d="M49.683,40.964c0,1.347-1.092,2.44-2.438,2.44H27.748c-1.345,0-2.438-1.093-2.438-2.44l0,0
	c0-1.345,1.093-2.436,2.438-2.436h19.498C48.591,38.528,49.683,39.619,49.683,40.964L49.683,40.964z"/>
<path fill="#F89624" d="M49.683,49.935c0,1.346-1.092,2.438-2.438,2.438H27.748c-1.345,0-2.438-1.092-2.438-2.438l0,0
	c0-1.346,1.093-2.438,2.438-2.438h19.498C48.591,47.498,49.683,48.589,49.683,49.935L49.683,49.935z"/>
<path fill="#C86B28" d="M47.246,47.498h-9.163v4.875h9.163c1.346,0,2.438-1.092,2.438-2.438S48.591,47.498,47.246,47.498z"/>
<path fill="#C86B28" d="M47.246,38.528h-9.163v4.873h9.163c1.346,0,2.438-1.091,2.438-2.437
	C49.683,39.619,48.591,38.528,47.246,38.528z"/>
<path fill="#C86B28" d="M47.246,29.559h-9.163v4.874h9.163c1.346,0,2.438-1.09,2.438-2.437
	C49.683,30.649,48.591,29.559,47.246,29.559z"/>
<circle fill="#E6E7E8" cx="46.192" cy="46.192" r="10.192"/>
<g>
	<path fill="#52CAF5" d="M53.807,44.838h-1.184c-0.094-0.423-0.229-0.831-0.397-1.221l0.981-0.687
		c0.331-0.231,0.41-0.688,0.177-1.019l-0.711-1.017c-0.23-0.331-0.687-0.411-1.019-0.179l-1.004,0.704
		c-0.31-0.286-0.646-0.54-1.007-0.764l0.424-1.159c0.138-0.381-0.058-0.8-0.438-0.939l-1.167-0.422
		c-0.38-0.141-0.798,0.057-0.938,0.436L47.1,39.741c-0.297-0.042-0.598-0.07-0.908-0.07c-0.118,0-0.229,0.012-0.344,0.018
		l-0.322-1.205c-0.104-0.39-0.506-0.622-0.897-0.518l-1.195,0.323c-0.392,0.101-0.623,0.505-0.52,0.895l0.321,1.195
		c-0.378,0.19-0.736,0.416-1.067,0.671l-0.942-0.79c-0.31-0.26-0.77-0.219-1.03,0.089L39.398,41.3
		c-0.261,0.309-0.22,0.771,0.089,1.031l0.92,0.771c-0.293,0.537-0.512,1.121-0.648,1.735h-1.186c-0.404,0-0.731,0.329-0.731,0.734
		v1.238c0,0.406,0.327,0.733,0.731,0.733h1.154c0.084,0.433,0.213,0.855,0.38,1.255l-0.931,0.654
		c-0.333,0.231-0.413,0.688-0.182,1.018l0.712,1.017c0.23,0.331,0.688,0.413,1.02,0.18l0.917-0.643
		c0.32,0.308,0.672,0.58,1.051,0.816l-0.382,1.046c-0.136,0.379,0.061,0.801,0.438,0.938l1.163,0.425
		c0.381,0.141,0.801-0.06,0.94-0.438l0.378-1.037c0.313,0.045,0.631,0.077,0.957,0.077c0.126,0,0.255-0.012,0.381-0.018l0.284,1.065
		c0.105,0.391,0.506,0.62,0.897,0.519l1.197-0.321c0.392-0.104,0.623-0.507,0.517-0.896l-0.286-1.071
		c0.398-0.203,0.774-0.446,1.121-0.72l0.855,0.714c0.308,0.26,0.771,0.22,1.03-0.09l0.797-0.947c0.26-0.312,0.22-0.773-0.091-1.033
		l-0.869-0.73c0.289-0.553,0.504-1.149,0.629-1.777h1.152c0.404,0,0.733-0.327,0.733-0.733v-1.238
		C54.541,45.167,54.211,44.838,53.807,44.838z M46.192,49.964l-3.265-1.886v-3.772l3.265-1.885l3.265,1.885v3.772L46.192,49.964z"/>
</g>
<path fill="#3588A6" d="M53.807,44.838h-1.184c-0.094-0.423-0.229-0.831-0.397-1.221l0.981-0.687
	c0.331-0.231,0.41-0.688,0.177-1.019l-0.711-1.017c-0.23-0.331-0.687-0.411-1.019-0.179l-1.004,0.704
	c-0.31-0.286-0.646-0.54-1.007-0.764l0.424-1.159c0.138-0.381-0.058-0.8-0.438-0.939l-1.167-0.422
	c-0.38-0.141-0.798,0.057-0.938,0.436L47.1,39.741c-0.297-0.042-0.598-0.07-0.908-0.07c-0.016,0-0.031,0.001-0.043,0.001v2.774
	l0.043-0.026l3.265,1.885v3.772l-3.265,1.886l-0.043-0.027v2.91c0.014,0.002,0.027,0.004,0.043,0.004
	c0.126,0,0.255-0.012,0.381-0.018l0.284,1.065c0.105,0.391,0.506,0.62,0.897,0.519l1.197-0.321c0.392-0.104,0.623-0.507,0.517-0.896
	l-0.286-1.071c0.398-0.203,0.774-0.446,1.121-0.72l0.855,0.714c0.308,0.26,0.771,0.22,1.03-0.09l0.797-0.947
	c0.26-0.312,0.22-0.773-0.091-1.033l-0.869-0.73c0.289-0.553,0.504-1.149,0.629-1.777h1.152c0.404,0,0.733-0.327,0.733-0.733v-1.238
	C54.541,45.167,54.211,44.838,53.807,44.838z"/>
</svg>
