<?xml version="1.0" encoding="utf-8"?>
<svg version="1.1"
	 xmlns="http://www.w3.org/2000/svg" xmlns:xlink="http://www.w3.org/1999/xlink"
	 x="0px" y="0px" width="28px" height="28px" viewBox="0 0 28 28">
<defs>
</defs>
<rect opacity="0" fill="#FFFFFF" width="28" height="28"/>
<path fill="#F89624" d="M19.304,4.256c0,0.986-0.8,1.785-1.785,1.785H3.238c-0.985,0-1.785-0.798-1.785-1.785l0,0
	c0-0.986,0.8-1.785,1.785-1.785h14.281C18.504,2.472,19.304,3.271,19.304,4.256L19.304,4.256z"/>
<path fill="#F89624" d="M19.304,10.825c0,0.986-0.8,1.787-1.785,1.787H3.238c-0.985,0-1.785-0.801-1.785-1.787l0,0
	c0-0.985,0.8-1.784,1.785-1.784h14.281C18.504,9.041,19.304,9.839,19.304,10.825L19.304,10.825z"/>
<path fill="#F89624" d="M19.304,17.394c0,0.986-0.8,1.786-1.785,1.786H3.238c-0.985,0-1.785-0.8-1.785-1.786l0,0
	c0-0.985,0.8-1.784,1.785-1.784h14.281C18.504,15.61,19.304,16.409,19.304,17.394L19.304,17.394z"/>
<path fill="#52CAF5" d="M26.239,5.446l-8.342,16.177l-4.89-2.527L21.35,2.922c0.699-1.349,2.359-1.876,3.707-1.177
	C26.405,2.436,26.938,4.099,26.239,5.446"/>
<polygon fill="#BCBEC0" points="12.29,26.539 17.872,21.625 13.036,19.11 "/>
<path fill="#3588A6" d="M13.007,19.096l8.343-16.172c0.695-1.349,2.358-1.878,3.706-1.18c0.149,0.102-9.574,18.63-9.574,18.63"/>
<polygon fill="#6D6E71" points="12.251,26.565 15.457,20.397 12.977,19.109 "/>
</svg>
