<?xml version="1.0" encoding="utf-8"?>
<svg version="1.1"
	 xmlns="http://www.w3.org/2000/svg" xmlns:xlink="http://www.w3.org/1999/xlink" x="0px" y="0px" width="48px" height="48px" viewBox="-1.466 -1.649 48 48">
<defs>
</defs>
<path d="M10.387,22.631c-0.041,1.741-1.459,3.142-3.21,3.142c-1.776,0-3.217-1.44-3.217-3.217c0-1.777,1.44-3.217,3.217-3.217
	c0.555,0,1.068,0.153,1.524,0.4L6.667,16.25c0,0-0.434-0.478-0.98-1.106C2.156,18.146,0,22.129,0,26.517
	c0,3.588,5.321,3.342,10.396,3.094c4.455-0.248,6.435,3.219,5.694,7.057c-0.496,2.475-6.684,1.979-3.591,5.072
	c2.846,1.113,6.189,1.732,9.53,1.732c0.167,0,0.333-0.006,0.5-0.01L10.387,22.631z"/>
<path d="M29.034,42.375L12.638,13.947c0,0-1.644-0.281-2.721,0.303C8.84,14.828,8.22,16.535,8.22,16.535l16.581,28.167
	L29.034,42.375z"/>
<path d="M7.583,15.5c0,0-3.064-2.404-3.482-4.866C3.69,8.177,5.524,5.211,3.563,3.122c0,0,4.395,2.693,6.825,4.546
	c2.432,1.863,1.945,5.249,1.945,5.249s-1.759-0.29-2.75,0.333C8.74,13.776,7.583,15.5,7.583,15.5z"/>
<path d="M33.418,26.216c-8.044,0-14.566-6.521-14.566-14.564c0-0.649,0.057-1.283,0.139-1.909c-2.062,0.221-4.041,0.643-5.881,1.271
	c0.311,1.442,0.39,1.82,0.39,1.82l0.775,1.328c0.56-0.47,1.272-0.765,2.06-0.765c1.777,0,3.218,1.441,3.218,3.218
	c0,1.38-0.873,2.547-2.093,3.005l8.662,14.843c0.121-0.006,0.237-0.025,0.36-0.025c2.602,0,4.703,1.486,4.703,3.219
	c0,0.984-0.692,1.877-1.756,2.475l1.173,2.01c7.894-2.566,13.456-8.572,13.456-15.623c0.02-1.48-0.211-2.914-0.658-4.281
	C40.792,24.699,37.285,26.216,33.418,26.216z"/>
<path d="M33.417,0c-6.435,0-11.652,5.217-11.652,11.652s5.217,11.652,11.653,11.652c6.432,0,11.65-5.216,11.65-11.652
	C45.068,5.217,39.85,0,33.417,0z M26.177,15.842l3.05-3.048h-3.379l7.623-7.623l7.625,7.623h-2.718l3.049,3.048H26.177z"/>
</svg>
