<?xml version="1.0" encoding="utf-8"?>
<svg version="1.1"
	 xmlns="http://www.w3.org/2000/svg" xmlns:xlink="http://www.w3.org/1999/xlink" x="0px" y="0px" width="100px" height="100px" viewBox="-5.205 -4.502 100 100">
<defs>
</defs>
<path d="M52.698,57.07h-0.082c-0.412,1.611-0.826,3.342-1.4,5.027l-2.721,8.043h8.406l-2.756-7.996
	C53.522,60.326,53.116,58.681,52.698,57.07z"/>
<path d="M77.331,0H12.256C5.488,0,0,5.311,0,11.861v67.27c0,6.559,5.488,11.865,12.256,11.865h65.075
	c6.771,0,12.26-5.307,12.26-11.865v-67.27C89.59,5.311,84.102,0,77.331,0z M77.762,36.208c0.408,1.863,0.615,3.774,0.615,5.681
	c0,0.593-0.02,1.188-0.059,1.783l-6.984-0.477c0.029-0.436,0.043-0.871,0.043-1.306c0-1.402-0.152-2.809-0.453-4.18L77.762,36.208z
	 M77.51,48.605c-0.295,1.117-0.664,2.221-1.096,3.279l-6.48-2.648c0.318-0.777,0.59-1.59,0.807-2.414L77.51,48.605z M76.229,31.447
	l-6.43,2.767c-0.729-1.694-1.693-3.265-2.867-4.671l5.373-4.486C73.913,26.982,75.233,29.132,76.229,31.447z M62.329,17.682
	c1.369,0.578,2.705,1.281,3.971,2.09c0.846,0.542,1.668,1.136,2.443,1.767l-4.418,5.429c-0.57-0.463-1.176-0.9-1.799-1.299
	c-0.932-0.596-1.912-1.113-2.918-1.537L62.329,17.682z M57.553,16.187l-1.443,6.85c-1.791-0.377-3.658-0.496-5.484-0.353
	l-0.548-6.979C52.565,15.509,55.108,15.671,57.553,16.187z M50.555,47.996c0.902,0,1.607,0.373,2.477,0.826
	c0.662,0.375,1.316,0.74,1.979,0.74c0.619,0,0.988-0.289,1.115-1.605h1.896c0.037,2.598-0.869,4.002-2.77,4.002
	c-0.863,0-1.646-0.328-2.512-0.783c-0.826-0.418-1.361-0.785-1.98-0.785c-0.66,0-0.949,0.701-1.077,1.814H47.75
	C47.709,49.688,48.779,47.996,50.555,47.996z M45.155,16.566l1.851,6.751c-1.781,0.488-3.479,1.225-5.048,2.189l-3.667-5.962
	C40.424,18.232,42.733,17.23,45.155,16.566z M33.81,48.048l-2.969-8.74h-9.856l-2.888,8.74h-3.712l9.484-27.796h4.293l9.483,27.796
	H33.81z M37.264,29.567l-5.369-4.491c0.74-0.885,1.543-1.727,2.387-2.502l4.736,5.154C38.398,28.297,37.809,28.916,37.264,29.567z
	 M60.575,81.691l-2.967-8.746H47.75l-2.891,8.746h-3.71l9.483-27.797h4.293l9.49,27.797H60.575z M68.151,58.687l-3.488-10.078
	l14.922,7.365L68.151,58.687z"/>
<path d="M25.934,23.428h-0.086c-0.409,1.607-0.823,3.342-1.4,5.031L21.727,36.5h8.415l-2.765-8.002
	C26.759,26.687,26.345,25.035,25.934,23.428z"/>
</svg>
