<?xml version="1.0" encoding="utf-8"?>
<!-- Generator: Adobe Illustrator 15.0.0, SVG Export Plug-In  -->
<!DOCTYPE svg PUBLIC "-//W3C//DTD SVG 1.1//EN" "http://www.w3.org/Graphics/SVG/1.1/DTD/svg11.dtd" [
	<!ENTITY ns_flows "http://ns.adobe.com/Flows/1.0/">
]>
<svg version="1.1"
	 xmlns="http://www.w3.org/2000/svg" xmlns:xlink="http://www.w3.org/1999/xlink" xmlns:a="http://ns.adobe.com/AdobeSVGViewerExtensions/3.0/"
	 x="0px" y="0px" width="48px" height="48px" viewBox="-2.804 -10.51 48 48" enable-background="new -2.804 -10.51 48 48"
	 xml:space="preserve">
<defs>
</defs>
<path d="M13.288,13.49c0-2.695,0.683-5.231,1.885-7.443H4.8c-2.7,0-4.8,2.2-4.8,4.8v4c0,2.699,2.2,4.799,4.8,4.799h9.753
	C13.741,17.758,13.288,15.678,13.288,13.49z"/>
<path fill="#FFFFFF" d="M2.207,12.01H2.194l-0.768,0.365l-0.155-0.706l1.072-0.495h0.774V15.2H2.207V12.01z"/>
<path fill="#FFFFFF" d="M4.731,14.525c0.124,0.012,0.223,0.006,0.409,0c0.291-0.019,0.582-0.1,0.793-0.248
	c0.266-0.18,0.439-0.446,0.508-0.75l-0.012-0.006c-0.18,0.186-0.446,0.291-0.812,0.291c-0.682,0-1.251-0.471-1.251-1.258
	c0-0.786,0.632-1.449,1.518-1.449c1.035,0,1.524,0.793,1.524,1.734c0,0.843-0.266,1.449-0.706,1.858
	c-0.384,0.347-0.917,0.533-1.542,0.558c-0.155,0.013-0.322,0.006-0.428,0V14.525z M5.301,12.499c0,0.347,0.192,0.645,0.57,0.645
	c0.26,0,0.439-0.118,0.526-0.261c0.031-0.062,0.043-0.123,0.043-0.241c0.006-0.428-0.155-0.849-0.595-0.849
	C5.531,11.793,5.301,12.078,5.301,12.499z"/>
<path fill="#FFFFFF" d="M7.883,15.2v-0.57l0.514-0.464c0.886-0.793,1.313-1.245,1.319-1.717c0-0.328-0.192-0.588-0.657-0.588
	c-0.347,0-0.65,0.173-0.861,0.328l-0.267-0.669c0.297-0.229,0.774-0.415,1.313-0.415c0.917,0,1.413,0.532,1.413,1.258
	c0,0.681-0.483,1.22-1.072,1.74l-0.372,0.31v0.013h1.524V15.2H7.883z"/>
<path fill="#FFFFFF" d="M11.361,14.698c0-0.341,0.229-0.576,0.558-0.576c0.322,0,0.545,0.229,0.551,0.576
	c0,0.328-0.223,0.57-0.563,0.57C11.591,15.269,11.361,15.026,11.361,14.698z"/>
<path d="M28.901,0c-7.484,0-13.49,6.006-13.49,13.49c0,7.398,6.006,13.49,13.49,13.49c7.398,0,13.49-6.005,13.49-13.49
	C42.305,6.006,36.299,0,28.901,0 M19.415,13.49c0-2.002,0.609-3.829,1.653-5.396L32.731,22.02c-1.219,0.522-2.523,0.87-3.916,0.87
	C23.68,22.89,19.415,18.712,19.415,13.49 M36.213,19.408L24.29,5.223c1.393-0.783,2.959-1.219,4.611-1.219
	c5.223,0,9.4,4.265,9.4,9.399C38.301,15.753,37.518,17.842,36.213,19.408"/>
</svg>
