<?xml version="1.0" encoding="utf-8"?>
<svg version="1.1"
	 xmlns="http://www.w3.org/2000/svg" xmlns:xlink="http://www.w3.org/1999/xlink"
	 x="0px" y="0px" width="48px" height="48px" viewBox="-2.711 -7.144 48 48">
<defs>
</defs>
<path fill="#F79523" d="M42.692,1.321c0-0.267-0.03-0.526-0.041-0.792h-7.345h-6.313H13.699H7.32H0.042C0.029,0.794,0,1.054,0,1.321
	c0,7.431,9.193,10.39,16.225,13.322c1.155,1.211,1.878,2.833,1.878,4.643c0,2.611-1.484,4.854-3.641,5.997v1.947
	c-0.972,1.366-1.55,3.029-1.558,4.832h-0.235c-0.523,0-0.95,0.426-0.95,0.948c0,0.525,0.426,0.95,0.95,0.95h17.29
	c0.522,0,0.947-0.425,0.947-0.95c0-0.522-0.425-0.948-0.947-0.948h-0.236c-0.007-1.803-0.586-3.466-1.557-4.831v-1.87
	c-2.237-1.114-3.788-3.404-3.788-6.075c0-1.728,0.651-3.293,1.716-4.487C33.169,11.814,42.692,8.884,42.692,1.321z M40.633,2.899
	c0.06,3.246-4.268,5.622-8.69,7.284c1.874-2.173,3.086-4.927,3.338-7.957h5.317C40.609,2.452,40.629,2.673,40.633,2.899z
	 M2.059,2.899c0.004-0.227,0.024-0.448,0.034-0.672h5.254c0.25,3.014,1.455,5.752,3.31,7.921C6.266,8.488,2,6.122,2.059,2.899z"/>
<path fill="#C8691C" d="M9.368,0.529H7.32H0.042C0.029,0.794,0,1.054,0,1.321c0,7.431,9.193,10.39,16.225,13.322
	c1.155,1.211,1.878,2.833,1.878,4.643c0,2.611-1.484,4.854-3.641,5.997v1.947c-0.972,1.366-1.55,3.029-1.558,4.832h-0.235
	c-0.523,0-0.95,0.426-0.95,0.948c0,0.525,0.426,0.95,0.95,0.95h17.29c0.259,0,0.492-0.105,0.663-0.274L9.368,0.529z M2.059,2.899
	c0.004-0.227,0.024-0.448,0.034-0.672h5.254c0.25,3.014,1.455,5.752,3.31,7.921C6.266,8.488,2,6.122,2.059,2.899z"/>
<polygon fill="#52CAF5" points="22.509,0 22.509,20.76 26.235,18.63 29.904,21.558 29.904,0 "/>
<polygon fill="#3588A6" points="3.345,5.667 3.345,18.365 7.071,16.235 10.741,19.163 10.741,9.699 "/>
</svg>
