<?xml version="1.0" encoding="utf-8"?>
<!-- Generator: Adobe Illustrator 15.0.0, SVG Export Plug-In  -->
<!DOCTYPE svg PUBLIC "-//W3C//DTD SVG 1.1//EN" "http://www.w3.org/Graphics/SVG/1.1/DTD/svg11.dtd" [
	<!ENTITY ns_flows "http://ns.adobe.com/Flows/1.0/">
]>
<svg version="1.1"
	 xmlns="http://www.w3.org/2000/svg" xmlns:xlink="http://www.w3.org/1999/xlink" xmlns:a="http://ns.adobe.com/AdobeSVGViewerExtensions/3.0/"
	 x="0px" y="0px" width="48px" height="48px" viewBox="-3.862 -3.209 48 48" enable-background="new -3.862 -3.209 48 48"
	 xml:space="preserve">
<defs>
</defs>
<rect x="0.304" y="0.371" fill="#F79523" width="35.762" height="41.001"/>
<rect x="8.913" y="10.563" fill="#E6E7E8" width="19.172" height="2.996"/>
<rect x="8.913" y="20.694" fill="#E6E7E8" width="19.172" height="2.995"/>
<rect x="8.913" y="30.825" fill="#E6E7E8" width="19.172" height="2.997"/>
<polygon fill="#C8691C" points="36.065,41.373 40.447,28.002 35.924,28.002 "/>
<polygon fill="#FCB51E" points="40.447,28.002 40.729,34.221 38.468,34.221 "/>
<polygon fill="#3588A6" points="32.63,16.823 32.574,0.371 14.439,0.371 18.959,4.458 0.365,24.372 0.365,41.022 27.647,12.317 "/>
<polygon fill="#3588A6" points="32.63,16.823 32.574,0.371 0.365,33.539 0.365,41.022 27.647,12.317 "/>
<polyline fill="none" stroke="#FFFFFF" stroke-miterlimit="10" points="14.439,0.371 18.959,4.458 0.365,24.372 "/>
<polyline fill="none" stroke="#FFFFFF" stroke-miterlimit="10" points="0.365,41.022 27.647,12.317 32.63,16.823 32.574,0.371 "/>
</svg>
