<?xml version="1.0" encoding="utf-8"?>
<svg version="1.1"
	 xmlns="http://www.w3.org/2000/svg" xmlns:xlink="http://www.w3.org/1999/xlink"
	 x="0px" y="0px" width="48px" height="48px" viewBox="-3.697 -5.204 48 48">
<defs>
</defs>
<path fill="#3384A1" d="M37.195,33.071c0,2.371-1.923,4.292-4.291,4.292H4.292C1.922,37.363,0,35.442,0,33.071V7.32
	c0-2.371,1.922-4.292,4.292-4.292h9.751l4.363,5.722h14.498c2.368,0,4.291,1.921,4.291,4.292V33.071z"/>
<rect x="10.588" y="4.763" transform="matrix(0.8974 -0.4411 0.4411 0.8974 -2.7389 10.5038)" fill="#D1D3D4" width="21.264" height="12.759"/>
<path fill="#43A4C7" d="M37.195,35.932c0,2.371-1.923,4.292-4.291,4.292H4.292C1.922,40.224,0,38.303,0,35.932V10.181
	c0-2.371,1.922-4.292,4.292-4.292h9.751l4.363,5.723h14.498c2.368,0,4.291,1.921,4.291,4.292V35.932z"/>
<path fill="#F79523" d="M24.379,0.573C15.369,2.718,9.115,10.35,8.275,19.082l-5.028,0.83l11.962,8.52l8.201-11.847l-5.091,0.84
	c1.24-8.943,6.586-13.919,15.442-14.705c1.935-0.172,3.729-0.206,5.537-0.156C34.893,0.179,29.639-0.678,24.379,0.573z"/>
<path fill="#C8691C" d="M15.209,28.431l8.201-11.847l-5.091,0.84c1.24-8.943,6.586-13.919,15.442-14.705
	c1.935-0.172,3.729-0.206,5.537-0.156C6.996-2.738,15.209,28.431,15.209,28.431z"/>
</svg>
