<?xml version="1.0" encoding="utf-8"?>
<!-- Generator: Adobe Illustrator 15.0.0, SVG Export Plug-In  -->
<!DOCTYPE svg PUBLIC "-//W3C//DTD SVG 1.1//EN" "http://www.w3.org/Graphics/SVG/1.1/DTD/svg11.dtd" [
	<!ENTITY ns_flows "http://ns.adobe.com/Flows/1.0/">
]>
<svg version="1.1"
	 xmlns="http://www.w3.org/2000/svg" xmlns:xlink="http://www.w3.org/1999/xlink" xmlns:a="http://ns.adobe.com/AdobeSVGViewerExtensions/3.0/"
	 x="0px" y="0px" width="48px" height="48px" viewBox="-2.354 -5.584 48 48" enable-background="new -2.354 -5.584 48 48"
	 xml:space="preserve">
<defs>
</defs>
<path fill="#F79523" d="M39.563,7.823h-8.017C30.456,3.336,26.422,0,21.599,0s-8.856,3.336-9.948,7.823H3.634
	C1.627,7.823,0,9.45,0,11.456v20.992c0,2.007,1.627,3.634,3.634,3.634h35.93c2.009,0,3.634-1.627,3.634-3.634V11.456
	C43.197,9.45,41.572,7.823,39.563,7.823z M21.599,6.776c-1.217,0-2.203-0.986-2.203-2.202s0.986-2.203,2.203-2.203
	c1.215,0,2.202,0.986,2.202,2.203S22.814,6.776,21.599,6.776z"/>
<path fill="#C8691C" d="M40.99,35.79c1.298-0.555,2.207-1.841,2.207-3.342V11.456c0-2.006-1.625-3.633-3.634-3.633h-8.017
	C30.456,3.336,26.422,0,21.599,0c-3.004,0-5.7,1.295-7.572,3.355L40.99,35.79z M21.599,2.371c1.215,0,2.202,0.986,2.202,2.203
	s-0.986,2.202-2.202,2.202c-1.217,0-2.203-0.986-2.203-2.202S20.382,2.371,21.599,2.371z"/>
<polygon fill="#52CAF5" points="33.013,13.044 33.013,16.093 30.133,16.093 30.133,13.044 12.684,13.044 12.684,16.093 
	9.804,16.093 9.804,13.044 4.383,13.044 4.383,31.509 38.264,31.509 38.264,13.044 "/>
<polygon fill="#3588A6" points="22.082,13.044 37.431,31.509 38.264,31.509 38.264,13.044 33.013,13.044 33.013,16.093 
	30.133,16.093 30.133,13.044 "/>
<path fill="#3588A6" d="M11.837,14.907c0,0.375-0.303,0.678-0.678,0.678l0,0c-0.374,0-0.677-0.303-0.677-0.678v-2.71
	c0-0.375,0.303-0.678,0.677-0.678l0,0c0.375,0,0.678,0.303,0.678,0.678V14.907z"/>
<path fill="#3588A6" d="M32.165,14.907c0,0.375-0.304,0.678-0.677,0.678l0,0c-0.375,0-0.678-0.303-0.678-0.678v-2.71
	c0-0.375,0.303-0.678,0.678-0.678l0,0c0.373,0,0.677,0.303,0.677,0.678V14.907z"/>
<rect x="8.618" y="20.667" fill="#FFFFFF" width="26.088" height="1.864"/>
<rect x="8.618" y="25.749" fill="#FFFFFF" width="26.088" height="1.864"/>
</svg>
