<?xml version="1.0" encoding="utf-8"?>
<svg version="1.1"
	 xmlns="http://www.w3.org/2000/svg" xmlns:xlink="http://www.w3.org/1999/xlink"
	 x="0px" y="0px" width="32px" height="32px" viewBox="-1.039 -0.684 32 32">
<defs>
</defs>
<path fill="#FFFFFF" stroke="#838484" stroke-width="2" stroke-miterlimit="10" d="M20.096,27.632
	c-1.223,2.068-3.687,2.877-5.505,1.801L2.753,22.442c-1.816-1.073-2.301-3.619-1.078-5.688l7.96-13.479
	c1.222-2.066,3.686-2.873,5.501-1.8l11.839,6.991c1.817,1.074,2.301,3.621,1.079,5.689L20.096,27.632z"/>
<linearGradient id="SVGID_1_" gradientUnits="userSpaceOnUse" x1="11.5474" y1="21.3433" x2="19.6501" y2="6.9599">
	<stop  offset="0" style="stop-color:#FFFFFF"/>
	<stop  offset="1" style="stop-color:#E9EAEB"/>
</linearGradient>
<path fill="url(#SVGID_1_)" d="M19.05,25.198c-0.979,1.653-2.949,2.299-4.403,1.439l-9.472-5.593
	c-1.452-0.858-1.84-2.896-0.862-4.549l6.369-10.785c0.976-1.653,2.948-2.298,4.4-1.44l9.471,5.592
	c1.455,0.859,1.842,2.898,0.864,4.551L19.05,25.198z"/>
<linearGradient id="SVGID_2_" gradientUnits="userSpaceOnUse" x1="13.7588" y1="10.1597" x2="13.772" y2="20.5784">
	<stop  offset="0" style="stop-color:#3368B2"/>
	<stop  offset="1" style="stop-color:#253C7F"/>
</linearGradient>
<path fill="url(#SVGID_2_)" d="M18.825,9.513h-4.99c0,0-5.278,0.443-5.278,5.735c0,5.631,5.352,5.834,5.352,5.834h5.067V17.83
	h-5.292c0,0-1.775-0.205-1.775-2.516c0-2.213,1.926-2.322,1.926-2.322h4.838L18.825,9.513z"/>
</svg>
