<?xml version="1.0" encoding="utf-8"?>
<svg version="1.1"
	 xmlns="http://www.w3.org/2000/svg" xmlns:xlink="http://www.w3.org/1999/xlink"
	 x="0px" y="0px" width="32px" height="32px" viewBox="-2.023 -1.68 32 32">
<defs>
</defs>
<rect y="1.852" fill="#BCBEC0" width="27.833" height="3.128"/>
<rect y="8.811" fill="#BCBEC0" width="27.833" height="3.127"/>
<rect y="15.768" fill="#BCBEC0" width="27.833" height="3.127"/>
<rect y="22.724" fill="#BCBEC0" width="14.488" height="3.127"/>
<rect x="14.029" y="1.852" fill="#808285" width="13.803" height="3.128"/>
<rect x="14.029" y="8.811" fill="#808285" width="13.803" height="3.127"/>
<rect x="14.029" y="15.768" fill="#808285" width="13.803" height="3.127"/>
<path fill="#A7A9AC" d="M20.983,1.079L5.068,17.763l5.046,4.81L26.023,5.89c1.33-1.394,1.278-3.6-0.115-4.928
	C24.516-0.364,22.309-0.314,20.983,1.079z"/>
<polygon fill="#E6E7E8" points="2.534,25.463 5.143,17.821 10.045,22.493 "/>
<path fill="#6D6E71" d="M7.563,20.14l2.551,2.433L26.023,5.89c1.33-1.394,1.278-3.6-0.115-4.928
	C25.726,0.829,7.563,20.14,7.563,20.14z"/>
<polygon fill="#D1D3D4" points="2.534,25.463 7.658,20.22 10.045,22.493 "/>
<polygon fill="#939598" points="2.534,25.463 3.858,21.585 6.341,23.958 "/>
<polygon fill="#414042" points="2.534,25.463 5.202,22.731 6.341,23.958 "/>
<path fill="#939598" d="M19.865,2.279c0,0,0.633,0.171,2.735,1.925c1.513,1.262,2.289,2.894,2.289,2.894l-1.393,1.48
	c0,0-0.736-1.272-2.366-2.786c-1.632-1.515-2.582-2.186-2.582-2.186L19.865,2.279z"/>
<path fill="#58595B" d="M22.6,4.204c1.513,1.262,2.289,2.894,2.289,2.894l-1.393,1.48c0,0-0.736-1.272-2.366-2.786
	C21.085,5.89,22.381,4.27,22.6,4.204z"/>
<path fill="#E6E7E8" d="M5.068,17.796c0,0,0.927-0.664,1.386-0.236c0.459,0.425,0.132,1.211,0.132,1.211s0.784-0.492,1.31,0.164
	c0.362,0.452-0.333,1.237-0.333,1.237L5.068,17.796z"/>
<path fill="#D1D3D4" d="M7.591,20.22c0,0,0.926-0.663,1.385-0.237c0.46,0.426,0.131,1.212,0.131,1.212s0.786-0.491,1.311,0.164
	c0.362,0.454-0.333,1.238-0.333,1.238L7.591,20.22z"/>
</svg>
