<?xml version="1.0" encoding="utf-8"?>
<!DOCTYPE svg PUBLIC "-//W3C//DTD SVG 1.1//EN" "http://www.w3.org/Graphics/SVG/1.1/DTD/svg11.dtd" [
	<!ENTITY ns_flows "http://ns.adobe.com/Flows/1.0/">
]>
<svg version="1.1"
	 xmlns="http://www.w3.org/2000/svg" x="0px" y="0px" width="48px" height="48px" viewBox="-2.356 -3.285 48 48">
<defs>
</defs>
<path d="M28.635,14.574v-7.36C28.637,3.23,25.404,0,21.421,0c-3.984,0-7.215,3.23-7.215,7.214v7.332
	c-0.494,0.248-0.837,0.754-0.837,1.345c0,0.834,0.676,1.51,1.51,1.51s1.511-0.676,1.511-1.51c0-0.551-0.299-1.029-0.74-1.292V7.413
	c0-3.188,2.584-5.771,5.771-5.771c3.187,0,5.772,2.584,5.772,5.771v7.155c-0.472,0.255-0.795,0.749-0.795,1.322
	c0,0.834,0.676,1.51,1.51,1.51s1.51-0.676,1.51-1.51C29.418,15.322,29.1,14.832,28.635,14.574z"/>
<path d="M19.177,22.63c-0.373,0.47-0.559,1.033-0.559,1.695c0,0.854,0.498,1.646,1.496,2.375l0.501,0.356v-5.238
	C20.029,21.889,19.549,22.16,19.177,22.63z"/>
<path d="M22.467,30.786l-0.532-0.381v5.477c1.368-0.303,2.053-1.181,2.053-2.637C23.987,32.303,23.479,31.482,22.467,30.786z"/>
<path d="M34.408,11.461h-3.699v4.749c0,1.586-1.285,2.872-2.871,2.872c-1.587,0-2.873-1.286-2.873-2.872v-4.749h-7.214v4.749
	c0,1.586-1.285,2.872-2.872,2.872s-2.872-1.286-2.872-2.872v-4.749H8.879L0,41.43h43.287L34.408,11.461z M24.985,36.115
	c-0.76,0.844-1.777,1.354-3.053,1.525v1.461h-1.46v-1.461c-1.283,0-2.736-0.313-4.359-0.938v-2.008
	c1.686,0.815,3.14,1.225,4.359,1.225v-6.38l-0.867-0.57c-2.1-1.41-3.148-2.934-3.148-4.572c0-1.18,0.385-2.172,1.152-2.976
	c0.768-0.804,1.77-1.258,3.006-1.36v-1.473h1.461v1.473c1.172,0.071,2.37,0.326,3.599,0.768v1.917
	c-1.146-0.57-2.349-0.922-3.599-1.057v6.295l0.795,0.476c2.17,1.274,3.257,2.783,3.257,4.525
	C26.128,34.229,25.747,35.271,24.985,36.115z"/>
</svg>
