<?xml version="1.0" encoding="utf-8"?>
<!-- Generator: Adobe Illustrator 15.0.0, SVG Export Plug-In  -->
<!DOCTYPE svg PUBLIC "-//W3C//DTD SVG 1.1//EN" "http://www.w3.org/Graphics/SVG/1.1/DTD/svg11.dtd" [
	<!ENTITY ns_flows "http://ns.adobe.com/Flows/1.0/">
]>
<svg version="1.1"
	 xmlns="http://www.w3.org/2000/svg" xmlns:xlink="http://www.w3.org/1999/xlink" xmlns:a="http://ns.adobe.com/AdobeSVGViewerExtensions/3.0/"
	 x="0px" y="0px" width="48px" height="48px" viewBox="-3.382 -9.564 48 48"
	 xml:space="preserve">
<defs>
</defs>
<path d="M25.148,5.783c-3.833-0.207-9.613-3.823-14.601-3.964C5.562,1.679,0,5.643,0,5.643l0.096,22.806
	c0,0,5.849-3.823,10.356-3.823c4.507,0,10.092,4.318,14.6,4.246c8.728-0.141,16.185-6.064,16.185-6.064V0
	C41.236,0,33.012,6.206,25.148,5.783z M23.296,20.427c0.084,0.231,0.125,0.41,0.119,0.543c-0.003,0.129-0.08,0.234-0.229,0.318
	c-0.136,0.076-0.247,0.087-0.334,0.029c-0.087-0.055-0.164-0.173-0.229-0.353l-0.584-1.588c-0.463,0.196-0.892,0.306-1.284,0.326
	c-0.393,0.021-0.745-0.028-1.057-0.15c-0.313-0.12-0.57-0.284-0.774-0.489c-0.204-0.205-0.352-0.437-0.446-0.689
	c-0.069-0.189-0.061-0.398,0.027-0.629c0.088-0.229,0.236-0.405,0.45-0.522c0.171-0.096,0.332-0.137,0.478-0.119
	c0.148,0.016,0.273,0.086,0.374,0.21c0.219,0.265,0.399,0.461,0.539,0.59c0.138,0.126,0.31,0.218,0.517,0.274
	c0.206,0.056,0.449,0.048,0.731-0.02l-1.003-2.734c-0.563,0.14-1.048,0.215-1.455,0.227c-0.407,0.014-0.777-0.086-1.111-0.296
	c-0.333-0.212-0.595-0.576-0.786-1.092c-0.247-0.674-0.241-1.343,0.017-2.007c0.258-0.662,0.767-1.249,1.527-1.757l-0.229-0.624
	c-0.12-0.33-0.062-0.561,0.176-0.695c0.238-0.135,0.42-0.042,0.538,0.28l0.233,0.634c0.423-0.184,0.802-0.291,1.141-0.324
	c0.338-0.034,0.664,0.022,0.977,0.164c0.244,0.104,0.452,0.236,0.623,0.396c0.17,0.159,0.287,0.328,0.354,0.504
	c0.071,0.196,0.064,0.405-0.022,0.625c-0.086,0.22-0.228,0.386-0.427,0.496c-0.371,0.207-0.688,0.135-0.951-0.219
	c-0.305-0.418-0.726-0.577-1.264-0.47l0.898,2.446c0.521-0.129,0.939-0.217,1.26-0.264c0.319-0.045,0.626-0.027,0.925,0.059
	c0.314,0.084,0.59,0.24,0.828,0.47c0.236,0.228,0.42,0.52,0.551,0.878c0.167,0.447,0.219,0.923,0.158,1.426
	c-0.061,0.504-0.242,0.987-0.547,1.456c-0.307,0.468-0.721,0.876-1.247,1.227L23.296,20.427z M4.521,22.861L4.443,6.912
	c0,0,4.513-2.438,8.56-2.326c2.214,0.063,4.559,1.045,6.739,1.95c-1.305,0.203-2.481,0.634-3.516,1.321
	c-1.467,0.975-2.567,2.234-3.297,3.78c-0.73,1.545-1.054,3.561-0.906,4.884c0.222,1.978,0.803,3.644,1.811,4.874
	c-0.303-0.047-0.605-0.08-0.91-0.08C9.267,21.315,4.521,22.861,4.521,22.861z M37.686,21.389c0,0-4.741,4.297-12.914,4.371
	c-1.706-0.295-3.247-0.959-4.695-1.686c2.864-0.029,5.171-0.987,6.914-2.884c1.771-1.927,2.656-4.3,2.656-7.119
	c0-2.19-0.766-4.018-2.296-5.481c-0.206-0.197-0.422-0.379-0.644-0.549c5.676-0.322,10.979-2.949,10.979-2.949V21.389z"/>
<path d="M18.596,12.45c-0.12,0.261-0.12,0.553-0.001,0.879c0.114,0.309,0.283,0.498,0.508,0.562
	c0.225,0.067,0.532,0.068,0.923,0.007l-0.827-2.251C18.916,11.921,18.716,12.19,18.596,12.45z"/>
<path d="M22.46,15.212c-0.271-0.074-0.629-0.064-1.069,0.027l0.944,2.574c0.354-0.292,0.592-0.616,0.713-0.972
	c0.121-0.357,0.123-0.693,0.008-1.01C22.931,15.492,22.731,15.284,22.46,15.212z"/>
</svg>
