<?xml version="1.0" encoding="utf-8"?>
<!DOCTYPE svg PUBLIC "-//W3C//DTD SVG 1.1//EN" "http://www.w3.org/Graphics/SVG/1.1/DTD/svg11.dtd" [
	<!ENTITY ns_flows "http://ns.adobe.com/Flows/1.0/">
]>
<svg version="1.1"
	 xmlns="http://www.w3.org/2000/svg" x="0px" y="0px" width="48px" height="48px" viewBox="-1.625 -5.039 48 48">
<defs>
</defs>
<path d="M41.915,0H30.272l-1.441,3.658h10.201c1.996,0.333,1.441,1.775,1.441,2.55L38.7,22.62c0,0.774-0.667,1.44-1.442,1.44H17.852
	c-0.775,0-1.441-0.666-1.441-1.44l-1.108-8.428c0,0-0.222-1.886-1.219-2.772c-0.998-0.775-3.771-0.775-3.771-0.775H0l0.222,3.77
	h8.316c0,0,1.44-0.11,1.996,0.333c0.666,0.554,0.555,1.331,0.555,1.331l1.22,8.427c0,1.221,1.995,3.216,3.215,3.216h24.172
	c1.222,0,2.884-2.44,2.884-3.549l2.108-20.182c0.442-2.106-1.553-3.881-2.439-3.881"/>
<path d="M21.179,28.496c-2.55,0-4.656,2.105-4.656,4.546s2.106,4.547,4.656,4.547c2.552,0,4.658-2.106,4.658-4.547
	S23.619,28.496,21.179,28.496z"/>
<path d="M33.376,28.607c-2.55,0-4.655,2.106-4.655,4.658c0,2.549,2.105,4.656,4.655,4.656c2.551,0,4.656-2.107,4.656-4.656
	C38.033,30.714,35.927,28.607,33.376,28.607z"/>
<rect x="20.403" y="18.739" width="14.637" height="2.882"/>
<rect x="18.629" y="11.641" width="13.417" height="5.877"/>
</svg>
