<?xml version="1.0" encoding="utf-8"?>
<!-- Generator: Adobe Illustrator 15.0.0, SVG Export Plug-In  -->
<!DOCTYPE svg PUBLIC "-//W3C//DTD SVG 1.1//EN" "http://www.w3.org/Graphics/SVG/1.1/DTD/svg11.dtd" [
	<!ENTITY ns_flows "http://ns.adobe.com/Flows/1.0/">
]>
<svg version="1.1"
	 xmlns="http://www.w3.org/2000/svg" xmlns:xlink="http://www.w3.org/1999/xlink" xmlns:a="http://ns.adobe.com/AdobeSVGViewerExtensions/3.0/"
	 x="0px" y="0px" width="48px" height="48px" viewBox="-4.412 -1.801 48 48" enable-background="new -4.412 -1.801 48 48"
	 xml:space="preserve">
<defs>
</defs>
<rect x="7.854" y="11.913" width="13.971" height="3.129"/>
<rect x="7.854" y="20.792" width="13.971" height="3.13"/>
<path d="M39.176,40.882c0,1.711-1.533,3.188-2.824,3.1H17.566c-0.855,0.307-3.1-1.389-3.1-3.1V28.996c0-1.713,1.386-3.1,3.1-3.1
	h18.511c1.711,0,3.1,1.387,3.1,3.1V40.882z"/>
<path d="M11.995,42.066v-1.484H3.768V3.817h22.391v20.266h3.768V0H0v44.398h13.039C12.442,43.73,11.995,42.902,11.995,42.066z"/>
<path fill="#FFFFFF" d="M28.475,28.775c-0.799-1.443-2.104-1.443-2.9,0l-6.307,11.42c-0.797,1.445-0.1,2.627,1.55,2.627h12.413
	c1.648,0,2.348-1.182,1.549-2.627L28.475,28.775z M27.122,29.875c2.414,0,0,8.541,0,8.541S24.709,29.875,27.122,29.875z
	 M27.122,42.029c-0.727,0-1.313-0.588-1.313-1.314s0.588-1.314,1.313-1.314c0.729,0,1.316,0.588,1.316,1.314
	S27.85,42.029,27.122,42.029z"/>
<rect x="7.854" y="29.669" width="3.523" height="3.131"/>
</svg>
