<?xml version="1.0" encoding="utf-8"?>
<!-- Generator: Adobe Illustrator 15.0.0, SVG Export Plug-In  -->
<!DOCTYPE svg PUBLIC "-//W3C//DTD SVG 1.1//EN" "http://www.w3.org/Graphics/SVG/1.1/DTD/svg11.dtd" [
	<!ENTITY ns_flows "http://ns.adobe.com/Flows/1.0/">
]>
<svg version="1.1"
	 xmlns="http://www.w3.org/2000/svg" x="0px" y="0px" width="32px" height="32px" viewBox="-1.137 -0.545 32 32"
	 xml:space="preserve">
<defs>
</defs>
<path d="M16.354,30.91c-0.805,0-1.59-0.213-2.271-0.615L2.245,23.302c-1.129-0.666-1.894-1.783-2.152-3.145
	c-0.249-1.313,0.007-2.703,0.722-3.912l7.96-13.479C9.784,1.06,11.548,0,13.377,0c0.805,0,1.589,0.212,2.269,0.614l11.838,6.991
	c2.289,1.353,2.932,4.519,1.433,7.059L20.958,28.14C19.948,29.849,18.184,30.91,16.354,30.91z M13.377,2
	c-1.126,0-2.23,0.684-2.881,1.784l-7.96,13.479c-0.467,0.791-0.637,1.686-0.479,2.521c0.15,0.787,0.578,1.426,1.205,1.795
	l11.838,6.992c0.378,0.225,0.8,0.338,1.253,0.338c1.127,0,2.23-0.686,2.882-1.787l7.959-13.476c0.938-1.59,0.612-3.528-0.728-4.32
	L14.629,2.336C14.251,2.113,13.831,2,13.377,2z"/>
<path d="M18.826,9.513h-4.99c0,0-5.278,0.443-5.278,5.735c0,5.63,5.352,5.833,5.352,5.833h5.067V17.83h-5.292
	c0,0-1.775-0.205-1.775-2.516c0-2.213,1.926-2.322,1.926-2.322h4.838L18.826,9.513z"/>
</svg>
