<?xml version="1.0" encoding="utf-8"?>
<svg version="1.1"
	 xmlns="http://www.w3.org/2000/svg" x="0px" y="0px" width="48px" height="48px" viewBox="-3.562 -3.561 48 48">
<defs>
</defs>
<path d="M20.014,4.813c-8.779,0-15.896,7.118-15.896,15.897c0,8.778,7.117,15.897,15.896,15.897c8.777,0,15.896-7.119,15.896-15.897
	C35.911,11.931,28.792,4.813,20.014,4.813z M26.639,14.971c1.037,0,1.879,0.841,1.879,1.878s-0.842,1.878-1.879,1.878
	s-1.877-0.841-1.877-1.878S25.602,14.971,26.639,14.971z M12.854,14.971c1.037,0,1.878,0.841,1.878,1.878s-0.841,1.878-1.878,1.878
	s-1.878-0.841-1.878-1.878S11.817,14.971,12.854,14.971z M20.051,30.938c-5.608,0-8.866-4.772-9.002-4.977l1.167-0.781
	c0.029,0.041,2.99,4.354,7.834,4.354c5.119,0,8.22-4.321,8.251-4.365l1.15,0.807C29.311,26.177,25.917,30.938,20.051,30.938z"/>
<polygon points="2.993,12.835 2.993,2.994 12.834,2.994 12.834,0 0,0 0,12.835 "/>
<polygon points="2.993,28.044 0,28.044 0,40.879 12.834,40.879 12.834,37.886 2.993,37.886 "/>
<polygon points="37.883,12.835 40.875,12.835 40.875,0 28.043,0 28.043,2.994 37.883,2.994 "/>
<polygon points="37.883,28.044 37.883,37.886 28.043,37.886 28.043,40.879 40.875,40.879 40.875,28.044 "/>
</svg>
