<?xml version="1.0" encoding="utf-8"?>
<!-- Generator: Adobe Illustrator 15.0.0, SVG Export Plug-In  -->
<!DOCTYPE svg PUBLIC "-//W3C//DTD SVG 1.1//EN" "http://www.w3.org/Graphics/SVG/1.1/DTD/svg11.dtd" [
	<!ENTITY ns_flows "http://ns.adobe.com/Flows/1.0/">
]>
<svg version="1.1"
	 xmlns="http://www.w3.org/2000/svg" x="0px" y="0px" width="32px" height="32px" viewBox="-1.006 -3.269 32 32">
<defs>
</defs>
<polygon points="21.514,0.408 0,0.408 0,3.536 18.489,3.536 "/>
<path d="M28.908,0.962c-1.393-1.326-3.6-1.276-4.926,0.117L8.068,17.764l-0.905,3.209l2.979,2.747l2.973-1.146L29.023,5.89
	C30.354,4.496,30.301,2.29,28.908,0.962z"/>
<polygon points="5.534,25.463 6.858,21.585 9.341,23.958 "/>
<polygon points="4.31,21.28 0,21.28 0,24.407 3.445,24.407 "/>
<polygon points="5.5,16.973 8.061,14.324 0,14.324 0,17.45 5.368,17.45 "/>
<polygon points="21.135,17.45 27.833,17.45 27.833,14.324 24.101,14.324 "/>
<polygon points="15.802,24.407 27.5,24.407 27.5,21.28 18.768,21.28 "/>
<polygon points="14.786,7.367 0,7.367 0,10.494 11.764,10.494 "/>
</svg>
