<?xml version="1.0" encoding="utf-8"?>
<!-- Generator: Adobe Illustrator 15.0.0, SVG Export Plug-In  -->
<!DOCTYPE svg PUBLIC "-//W3C//DTD SVG 1.1//EN" "http://www.w3.org/Graphics/SVG/1.1/DTD/svg11.dtd" [
	<!ENTITY ns_flows "http://ns.adobe.com/Flows/1.0/">
]>
<svg version="1.1"
	 xmlns="http://www.w3.org/2000/svg" x="0px" y="0px" width="28px" height="28px" viewBox="-1.6 -1.55 28 28">
<defs>
</defs>
<path d="M12.101,21.8c0-1.576,1.04-2.864,2.478-3.261c-3.585-0.291-9.596-1.596-11.214-6.987l-2.247,0.629
	C0.434,12.8,0,13.688,0,14.7C0,16.6,1.5,18.1,3.4,18.1c1,0,1.899-0.5,2.5-1.199V21.8c0,2.2,0.8,3,3,3h4.6c0-0.1,0-0.2,0-0.3
	C12.601,23.9,12.101,22.9,12.101,21.8z"/>
<path d="M24,18c-0.6,0.7-1.5,1.2-2.6,1.2c-1.9,0-3.4-1.5-3.4-3.4c0-2,1.5-3.6,3.4-3.6c1.1,0,2.1,0.6,2.7,1.4c0.2,0,0.399,0,0.6,0
	V9.3c0-2.2-0.8-3-3-3h-4.3c0-0.1,0-0.2,0-0.3c0.7-0.6,1.2-1.5,1.2-2.6c0-1.9-1.5-3.4-3.4-3.4c-1.628,0-3.147,1.38-3.275,3.164
	l6.44,4.735l-5.609,1.435c0,0,0.315,5.261,4.565,9.261c0,0-0.241,0.016-0.65,0.021c1.308,0.471,2.229,1.7,2.229,3.185
	c0,1-0.5,1.9-1.2,2.601c0,0.1,0,0.3-0.1,0.5h4.2c2.199,0,3-0.801,3-3v-4C24.5,17.9,24.301,17.9,24,18z"/>
<path d="M13.3,16.8c0,0-7.399-1.6-8.5-7.6L1.9,9.7L6.3,2.1l7.301,5.3L10.5,8.2C10.5,8.2,9.9,13.6,13.3,16.8z"/>
</svg>
