<?xml version="1.0" encoding="utf-8"?>
<!-- Generator: Adobe Illustrator 15.0.0, SVG Export Plug-In  -->
<!DOCTYPE svg PUBLIC "-//W3C//DTD SVG 1.1//EN" "http://www.w3.org/Graphics/SVG/1.1/DTD/svg11.dtd" [
	<!ENTITY ns_flows "http://ns.adobe.com/Flows/1.0/">
]>
<svg version="1.1"
	 xmlns="http://www.w3.org/2000/svg" x="0px" y="0px" width="48px" height="48px" viewBox="-5.355 -4.289 48 48"
	 xml:space="preserve">
<defs>
</defs>
<path d="M4.625,19.673C2.071,19.673,0,21.744,0,24.298v10.5c0,2.556,2.071,4.625,4.625,4.625s4.625-2.069,4.625-4.625v-10.5
	C9.25,21.744,7.179,19.673,4.625,19.673z M6.14,36.173H4.377v-6.177H4.354l-1.487,0.708l-0.3-1.367l2.075-0.96H6.14V36.173z"/>
<path d="M18.645,14.673c-2.555,0-4.625,2.07-4.625,4.625v15.5c0,2.556,2.07,4.625,4.625,4.625c2.555,0,4.624-2.069,4.624-4.625
	v-15.5C23.269,16.743,21.2,14.673,18.645,14.673z M21.512,36.173h-5.529v-1.104l0.996-0.898c1.715-1.535,2.542-2.411,2.555-3.322
	c0-0.636-0.371-1.14-1.271-1.14c-0.671,0-1.259,0.336-1.667,0.636l-0.516-1.295c0.576-0.443,1.499-0.804,2.542-0.804
	c1.774,0,2.734,1.03,2.734,2.435c0,1.319-0.936,2.363-2.075,3.37l-0.72,0.601v0.023h2.951V36.173z"/>
<path d="M32.665,10.796c-2.555,0-4.625,2.07-4.625,4.625v19.377c0,2.556,2.07,4.625,4.625,4.625c2.557,0,4.625-2.069,4.625-4.625
	V15.421C37.29,12.866,35.221,10.796,32.665,10.796z M32.239,36.305c-1.008,0-1.859-0.264-2.314-0.539l0.369-1.38
	c0.324,0.181,1.068,0.479,1.813,0.479c0.947,0,1.428-0.455,1.428-1.031c0-0.779-0.768-1.127-1.57-1.127h-0.744v-1.309h0.721
	c0.611,0,1.379-0.239,1.379-0.898c0-0.468-0.373-0.814-1.152-0.814c-0.635,0-1.307,0.274-1.619,0.467l-0.371-1.318
	c0.469-0.3,1.393-0.588,2.41-0.588c1.656,0,2.58,0.876,2.58,1.943c0,0.826-0.469,1.486-1.428,1.811v0.023
	c0.936,0.168,1.691,0.875,1.691,1.906C35.43,35.297,34.217,36.305,32.239,36.305z"/>
<path d="M22.241,5.737c0.477,0,0.594-0.277,0.254-0.615l-2.934-2.934c-0.338-0.338-0.893-0.338-1.231,0l-2.933,2.934
	c-0.339,0.338-0.224,0.615,0.255,0.615h0.817c0.479,0,0.871,0.392,0.871,0.871v5.35c0,0.479,0.392,0.87,0.871,0.87h1.471
	c0.479,0,0.872-0.392,0.872-0.87v-5.35c0-0.479,0.393-0.871,0.868-0.871H22.241z"/>
<path d="M11.787,5.409c0.448,0.163,0.652-0.06,0.448-0.493l-1.764-3.754C10.267,0.728,9.746,0.54,9.313,0.744L5.557,2.507
	C5.125,2.71,5.138,3.011,5.589,3.173L6.357,3.45c0.45,0.163,0.686,0.664,0.523,1.114l-4.204,11.81
	C2.514,16.825,2.75,17.327,3.2,17.489l1.384,0.5c0.451,0.162,0.952-0.074,1.114-0.524l4.205-11.81
	c0.162-0.45,0.665-0.687,1.115-0.524L11.787,5.409z"/>
<path d="M26.477,4.911c-0.434,0.2-0.654-0.004-0.488-0.453l1.441-3.89c0.166-0.45,0.67-0.681,1.117-0.514l3.893,1.441
	c0.449,0.166,0.459,0.466,0.023,0.666l-0.742,0.341c-0.436,0.2-0.629,0.719-0.428,1.154l1.879,4.13
	c0.199,0.436,0.008,0.956-0.428,1.156l-1.338,0.613c-0.436,0.2-0.955,0.007-1.154-0.427l-1.879-4.131
	c-0.199-0.435-0.719-0.627-1.154-0.428L26.477,4.911z"/>
</svg>
