<?xml version="1.0" encoding="utf-8"?>
<!-- Generator: Adobe Illustrator 15.0.0, SVG Export Plug-In  -->
<!DOCTYPE svg PUBLIC "-//W3C//DTD SVG 1.1//EN" "http://www.w3.org/Graphics/SVG/1.1/DTD/svg11.dtd" [
	<!ENTITY ns_flows "http://ns.adobe.com/Flows/1.0/">
]>
<svg version="1.1"
	 xmlns="http://www.w3.org/2000/svg" xmlns:xlink="http://www.w3.org/1999/xlink" xmlns:a="http://ns.adobe.com/AdobeSVGViewerExtensions/3.0/"
	 x="0px" y="0px" width="48px" height="48px" viewBox="-2.427 -1.333 48 48"
	 xml:space="preserve">
<defs>
</defs>
<path d="M5.918,5.401c0,0.255-0.132,0.458-0.294,0.458c-0.163,0-0.294-0.203-0.294-0.458V0.457C5.33,0.206,5.461,0,5.623,0
	c0.163,0,0.294,0.206,0.294,0.457L5.918,5.401L5.918,5.401z"/>
<path d="M13.266,5.401c0,0.255-0.131,0.458-0.294,0.458s-0.294-0.203-0.294-0.458V0.457C12.677,0.206,12.809,0,12.972,0
	s0.294,0.206,0.294,0.457V5.401z"/>
<path d="M20.523,5.401c0,0.255-0.132,0.458-0.293,0.458c-0.164,0-0.294-0.203-0.294-0.458V0.457C19.936,0.206,20.066,0,20.23,0
	c0.161,0,0.293,0.206,0.293,0.457V5.401z"/>
<path d="M27.219,5.401c0,0.255-0.132,0.458-0.292,0.458c-0.165,0-0.295-0.203-0.295-0.458V0.457C26.631,0.206,26.762,0,26.927,0
	c0.16,0,0.292,0.206,0.292,0.457V5.401z"/>
<path d="M23.842,16.643v8.222l-8.221-0.003c-2.042,0.003-3.694,1.655-3.694,3.696s1.654,3.693,3.694,3.693h8.223l-0.002,8.221
	c0,2.043,1.653,3.695,3.694,3.695s3.694-1.654,3.694-3.693v-8.223l8.221,0.002c2.039-0.002,3.693-1.654,3.695-3.695
	c-0.002-2.041-1.654-3.693-3.695-3.693H31.23v-8.223c-0.002-2.04-1.654-3.693-3.695-3.694
	C25.495,12.948,23.842,14.602,23.842,16.643z"/>
<path d="M22.522,40.753l0.002-7.485h-7.489c-2.61,0-4.731-2.072-4.845-4.656h-6.31v-1.305h6.422c0.18-0.777,0.553-1.474,1.056-2.06
	H3.881v-1.306h9.213c0.595-0.261,1.25-0.41,1.941-0.411l7.487,0.002v-7.487c0-2.683,2.184-4.867,4.865-4.867
	c1.766,0,3.3,0.956,4.153,2.367V1.631h-3.695v3.028c0.312,0.263,0.514,0.651,0.514,1.091c0,0.793-0.642,1.435-1.437,1.435
	c-0.791,0-1.433-0.642-1.433-1.435c0-0.458,0.218-0.86,0.552-1.123V1.631h-4.936v2.991c0.337,0.262,0.558,0.667,0.558,1.128
	c0,0.793-0.641,1.435-1.434,1.435c-0.792,0-1.435-0.642-1.435-1.435c0-0.437,0.2-0.822,0.506-1.086V1.631H13.83v2.976
	c0.348,0.261,0.577,0.674,0.577,1.143c0,0.793-0.643,1.435-1.436,1.435c-0.792,0-1.434-0.642-1.434-1.435
	c0-0.428,0.191-0.808,0.488-1.071V1.631H6.483v2.977C6.831,4.869,7.059,5.282,7.059,5.75c0,0.793-0.642,1.435-1.435,1.435
	c-0.792,0-1.435-0.642-1.435-1.435c0-0.429,0.192-0.81,0.49-1.073V1.631H0v32.136v9.9h23.515
	C22.9,42.852,22.522,41.849,22.522,40.753z M3.694,9.597h7.639V20.03H3.694V9.597z"/>
<path d="M31.262,43.667h0.279v-0.411C31.455,43.398,31.362,43.533,31.262,43.667z"/>
</svg>
