<?xml version="1.0" encoding="utf-8"?>
<svg version="1.1"
	 xmlns="http://www.w3.org/2000/svg" x="0px" y="0px" width="48px" height="48px" viewBox="-4.191 -2.166 48 48">
<defs>
</defs>
<path d="M5.918,5.4c0,0.256-0.131,0.459-0.293,0.459S5.33,5.656,5.33,5.4V0.457C5.33,0.206,5.461,0,5.623,0
	c0.164,0,0.295,0.206,0.295,0.457V5.4L5.918,5.4z"/>
<path d="M13.266,5.4c0,0.256-0.131,0.459-0.293,0.459S12.678,5.656,12.678,5.4V0.457C12.678,0.206,12.811,0,12.973,0
	s0.293,0.206,0.293,0.457V5.4z"/>
<path d="M20.523,5.4c0,0.256-0.131,0.459-0.293,0.459c-0.164,0-0.293-0.203-0.293-0.459V0.457C19.938,0.206,20.066,0,20.23,0
	c0.162,0,0.293,0.206,0.293,0.457V5.4z"/>
<path d="M27.219,5.4c0,0.256-0.131,0.459-0.291,0.459c-0.166,0-0.295-0.203-0.295-0.459V0.457C26.631,0.206,26.762,0,26.928,0
	c0.16,0,0.291,0.206,0.291,0.457V5.4z"/>
<path d="M31.262,43.668h0.279v-0.412C31.455,43.398,31.363,43.533,31.262,43.668z"/>
<polygon points="36.869,10.578 39.617,7.303 33.332,2.031 30.584,5.307 30.584,5.307 10.066,29.758 10.066,29.758 10.066,29.758 
	10.027,29.805 10.051,29.824 8.873,34.781 11.48,36.965 16.285,35.057 16.309,35.076 16.348,35.031 16.348,35.031 16.348,35.031 
	36.867,10.577 "/>
<polygon points="10.891,37.523 7.865,38.752 8.609,35.607 "/>
<path d="M27.238,37.994l2.768-0.494l0.227,3.67l-9.955,1.349l0.116-10.045l3.671-0.228l-0.176,3.256l7.449-8.426l0.203,0.18v-8.728
	L17.246,35.598l-0.17,0.205l-0.25,0.092L6.215,40.828l2.943-11.393l0.053-0.242l0.16-0.191l22.17-26.37V1.631h-3.695v3.028
	c0.313,0.263,0.514,0.651,0.514,1.091c0,0.793-0.641,1.436-1.436,1.436c-0.791,0-1.434-0.643-1.434-1.436
	c0-0.457,0.219-0.86,0.553-1.123V1.631h-4.936v2.991c0.336,0.262,0.557,0.667,0.557,1.128c0,0.793-0.641,1.436-1.434,1.436
	c-0.791,0-1.436-0.643-1.436-1.436c0-0.437,0.201-0.822,0.508-1.086V1.631H13.83v2.977c0.35,0.261,0.578,0.674,0.578,1.143
	c0,0.793-0.643,1.436-1.436,1.436c-0.791,0-1.434-0.643-1.434-1.436c0-0.428,0.189-0.808,0.488-1.07V1.631H6.484v2.978
	C6.832,4.869,7.059,5.281,7.059,5.75c0,0.793-0.641,1.436-1.434,1.436S4.189,6.543,4.189,5.75c0-0.43,0.191-0.81,0.49-1.072V1.631H0
	v32.137v9.9h31.541v-10.54L27.238,37.994z M3.695,9.597h7.639V20.03H3.695V9.597z"/>
</svg>
