<?xml version="1.0" encoding="utf-8"?>
<svg version="1.1"
	 xmlns="http://www.w3.org/2000/svg" x="0px" y="0px" width="48px" height="48px" viewBox="-4.192 -2.167 48 48">
<defs>
</defs>
<path d="M5.918,5.4c0,0.256-0.132,0.459-0.294,0.459S5.33,5.656,5.33,5.4V0.457C5.329,0.206,5.461,0,5.623,0
	c0.163,0,0.294,0.206,0.294,0.457L5.918,5.4L5.918,5.4z"/>
<path d="M13.266,5.4c0,0.256-0.132,0.459-0.294,0.459S12.678,5.656,12.678,5.4V0.457C12.677,0.206,12.81,0,12.972,0
	s0.294,0.206,0.294,0.457V5.4z"/>
<path d="M20.523,5.4c0,0.256-0.131,0.459-0.293,0.459c-0.163,0-0.293-0.203-0.293-0.459V0.457c0-0.251,0.13-0.457,0.293-0.457
	c0.163,0,0.293,0.206,0.293,0.457V5.4z"/>
<path d="M27.218,5.4c0,0.256-0.131,0.459-0.291,0.459c-0.166,0-0.295-0.203-0.295-0.459V0.457C26.63,0.206,26.761,0,26.927,0
	c0.16,0,0.291,0.206,0.291,0.457V5.4z"/>
<path d="M31.261,43.667h0.279v-0.412C31.455,43.398,31.363,43.533,31.261,43.667z"/>
<path d="M17.246,35.597l-0.17,0.205l-0.25,0.092L6.215,40.828l2.943-11.393l0.053-0.242l0.16-0.191l22.169-26.37V1.631h-3.695v3.028
	c0.313,0.263,0.514,0.652,0.514,1.091c0,0.793-0.641,1.436-1.436,1.436c-0.791,0-1.434-0.643-1.434-1.436
	c0-0.457,0.219-0.86,0.553-1.123V1.631h-4.936v2.991c0.336,0.262,0.557,0.667,0.557,1.128c0,0.793-0.641,1.436-1.434,1.436
	c-0.791,0-1.435-0.643-1.435-1.436c0-0.437,0.2-0.822,0.507-1.086V1.631H13.83v2.976c0.349,0.261,0.577,0.674,0.577,1.143
	c0,0.793-0.643,1.436-1.436,1.436c-0.791,0-1.434-0.643-1.434-1.436c0-0.428,0.19-0.808,0.488-1.071V1.631H6.483v2.977
	C6.831,4.869,7.059,5.281,7.059,5.75c0,0.793-0.642,1.436-1.435,1.436c-0.792,0-1.436-0.643-1.436-1.436
	c0-0.43,0.192-0.81,0.49-1.073V1.631H0v32.136v9.9h31.541V18.528L17.246,35.597z M3.694,9.597h7.639V20.03H3.694V9.597z"/>
<polygon points="36.869,10.578 39.617,7.303 33.332,2.031 30.583,5.307 30.583,5.307 10.065,29.757 10.065,29.757 10.065,29.757 
	10.026,29.804 10.05,29.824 8.872,34.781 11.479,36.964 16.284,35.056 16.309,35.076 16.347,35.031 16.348,35.031 16.348,35.031 
	36.867,10.577 "/>
<polygon points="10.891,37.523 7.864,38.751 8.609,35.607 "/>
</svg>
