<?xml version="1.0" encoding="utf-8"?>
<svg version="1.1"
	 xmlns="http://www.w3.org/2000/svg" xmlns:xlink="http://www.w3.org/1999/xlink"
	 x="0px" y="0px" width="48px" height="48px" viewBox="-2.345 -3.958 48 48">
<defs>
</defs>
<path fill="#F79523" d="M36.204,0H6.277C4.955,0,3.884,1.071,3.884,2.395v10.024c0,1.322,1.071,2.395,2.394,2.395h29.927
	c1.321,0,2.394-1.072,2.394-2.395V2.395C38.598,1.071,37.525,0,36.204,0z M35.317,13.396H7.21c-1.083,0-1.961-0.879-1.961-1.962
	L5.205,3.38c0-1.084,0.878-1.962,1.961-1.962h28.107c1.082,0,1.959,0.878,1.959,1.962l0.044,8.054
	C37.276,12.517,36.4,13.396,35.317,13.396z"/>
<polygon fill="#F79523" points="9.271,14.29 15.105,18.778 13.311,14.439 "/>
<polygon fill="#F79523" points="33.062,14.29 27.226,18.778 29.021,14.439 "/>
<path fill="#3588A6" d="M38.163,31.985c0.026,0.082,0.045,0.164,0.045,0.248c0,1.188-2.835,2.15-6.332,2.15s-6.333-0.963-6.333-2.15
	c0-0.084,0.018-0.166,0.046-0.248c-2.741,1.789-4.682,4.707-5.147,8.098h22.869C42.844,36.692,40.904,33.774,38.163,31.985z"/>
<ellipse fill="#3588A6" cx="31.876" cy="26.172" rx="5.494" ry="5.779"/>
<path fill="#52CAF5" d="M30.202,34.305c-2.685-0.248-4.659-1.082-4.659-2.072c0-0.084,0.018-0.166,0.046-0.248
	c-2.741,1.789-4.682,4.707-5.147,8.098h13.232L30.202,34.305z"/>
<path fill="#C8691C" d="M18.09,31.79c0.026,0.082,0.045,0.166,0.045,0.252c0,1.211-2.893,2.195-6.463,2.195
	s-6.464-0.984-6.464-2.195c0-0.086,0.018-0.17,0.047-0.252C2.456,33.614,0.476,36.592,0,40.055h23.343
	C22.867,36.592,20.888,33.614,18.09,31.79z"/>
<ellipse fill="#C8691C" cx="11.671" cy="25.856" rx="5.609" ry="5.898"/>
<path fill="#F79523" d="M9.964,34.157c-2.74-0.254-4.756-1.105-4.756-2.115c0-0.086,0.018-0.17,0.047-0.252
	C2.456,33.614,0.476,36.592,0,40.055h13.508L9.964,34.157z"/>
</svg>
