<?xml version="1.0" encoding="utf-8"?>
<svg version="1.1"
	 xmlns="http://www.w3.org/2000/svg" xmlns:xlink="http://www.w3.org/1999/xlink"
	 x="0px" y="0px" width="48px" height="48px" viewBox="-3.509 -3.167 48 48">
<defs>
</defs>
<path fill="#3588A6" d="M33.51,19.883c0.021,0.07,0.038,0.14,0.038,0.211c0,1.016-2.421,1.837-5.407,1.837
	c-2.988,0-5.409-0.822-5.409-1.837c0-0.071,0.015-0.141,0.038-0.211c-2.341,1.527-3.998,4.021-4.396,6.918h19.532
	C37.507,23.903,35.853,21.41,33.51,19.883z"/>
<ellipse fill="#3588A6" cx="28.14" cy="14.919" rx="4.693" ry="4.935"/>
<path fill="#52CAF5" d="M26.711,21.865c-2.294-0.213-3.979-0.924-3.979-1.771c0-0.071,0.015-0.141,0.038-0.211
	c-2.341,1.527-3.998,4.021-4.396,6.918h11.302L26.711,21.865z"/>
<path fill="#C8691C" d="M21.771,24.938c0.021,0.07,0.039,0.14,0.039,0.211c0,1.016-2.422,1.838-5.408,1.838
	c-2.987,0-5.409-0.822-5.409-1.838c0-0.071,0.015-0.141,0.039-0.211c-2.341,1.526-3.998,4.02-4.396,6.918h19.532
	C25.769,28.958,24.114,26.465,21.771,24.938z"/>
<ellipse fill="#C8691C" cx="16.401" cy="19.975" rx="4.693" ry="4.934"/>
<path fill="#F79523" d="M14.972,26.921c-2.293-0.214-3.979-0.925-3.979-1.771c0-0.071,0.015-0.141,0.039-0.211
	c-2.341,1.526-3.998,4.02-4.396,6.918h11.303L14.972,26.921z"/>
<path fill="#BCBEC0" d="M20.811,0C9.317,0,0,9.317,0,20.812s9.317,20.811,20.811,20.811c11.494,0,20.812-9.316,20.812-20.811
	S32.305,0,20.811,0z M20.811,37.46c-9.195,0-16.649-7.453-16.649-16.648S11.616,4.162,20.811,4.162
	c9.195,0,16.649,7.454,16.649,16.649S30.006,37.46,20.811,37.46z"/>
<path fill="#939598" d="M20.811,0c-3.318,0-6.443,0.797-9.226,2.177l2.071,3.619c2.17-1.037,4.59-1.634,7.155-1.634
	c9.195,0,16.649,7.454,16.649,16.649c0,5.734-2.9,10.791-7.313,13.785l2.067,3.612c5.662-3.719,9.407-10.116,9.407-17.397
	C41.623,9.317,32.305,0,20.811,0z"/>
</svg>
