<?xml version="1.0" encoding="utf-8"?>
<svg version="1.1"
	 xmlns="http://www.w3.org/2000/svg" xmlns:xlink="http://www.w3.org/1999/xlink"
	 x="0px" y="0px" width="48px" height="48px" viewBox="-3.377 -2.722 48 48">
<defs>
</defs>
<path fill="#F79523" d="M41.792,40.001c0,1.272-1.032,2.306-2.306,2.306H2.306C1.032,42.307,0,41.274,0,40.001V5.703
	C0,4.43,1.032,3.397,2.306,3.397h37.181c1.273,0,2.306,1.032,2.306,2.306V40.001z"/>
<path fill="#C8691C" d="M39.486,3.397H12.863l21.497,38.91h5.127c1.273,0,2.306-1.033,2.306-2.306V5.703
	C41.792,4.43,40.76,3.397,39.486,3.397z"/>
<rect x="5.935" y="27.418" fill="#FFFFFF" width="31.128" height="2.305"/>
<polygon fill="#D1D3D4" points="37.063,29.723 27.401,29.744 26.115,27.419 37.063,27.418 "/>
<rect x="5.935" y="34.846" fill="#FFFFFF" width="31.128" height="2.305"/>
<polygon fill="#D1D3D4" points="37.063,37.151 31.508,37.189 30.243,34.861 37.063,34.846 "/>
<circle fill="#D1D3D4" cx="11.191" cy="11.047" r="11.047"/>
<path fill="#FFFFFF" d="M10.988,0.001C4.98,0.11,0.144,5.014,0.144,11.047c0,6.101,4.945,11.046,11.047,11.046
	c3.866,0,7.261-1.99,9.233-4.998C20.454,17.051,11.056,0,10.988,0.001z"/>
<polygon fill="#3588A6" points="7.712,7.759 6.909,4.903 8.337,5.35 9.856,4.188 10.928,1.776 12.09,4.278 13.607,5.439 
	14.947,4.723 14.322,7.851 "/>
<polygon fill="#0B495C" points="19.894,6.366 17.168,7.644 20.226,7.983 "/>
<path fill="#3588A6" d="M23.696,3.191l-3.713,2.333c0,0-0.284,0.753-0.103,1.719c0.18,0.965,0.874,1.583,0.874,1.583L25.336,10
	L23.696,3.191z"/>
<ellipse transform="matrix(0.9738 -0.2274 0.2274 0.9738 -0.6699 6.33)" fill="#52CAF5" cx="27.131" cy="6.072" rx="3.883" ry="5.242"/>
<ellipse transform="matrix(0.9738 -0.2275 0.2275 0.9738 -0.5849 6.5368)" fill="#3588A6" cx="28.069" cy="5.806" rx="2.718" ry="3.67"/>
<path fill="#3588A6" d="M14.999,12.726c0.017,0.052,0.028,0.102,0.028,0.155c0,0.739-1.764,1.34-3.942,1.34
	c-2.176,0-3.942-0.601-3.942-1.34c0-0.053,0.011-0.103,0.028-0.155c-1.707,1.114-2.915,2.93-3.204,5.042h14.236
	C17.914,15.656,16.706,13.84,14.999,12.726z"/>
<ellipse fill="#3588A6" cx="11.086" cy="9.108" rx="3.421" ry="3.597"/>
<path fill="#52CAF5" d="M10.043,14.171c-1.67-0.155-2.9-0.673-2.9-1.29c0-0.053,0.011-0.103,0.028-0.155
	c-1.707,1.114-2.915,2.93-3.204,5.042h8.237L10.043,14.171z"/>
</svg>
