<?xml version="1.0" encoding="utf-8"?>
<svg version="1.1"
	 xmlns="http://www.w3.org/2000/svg" xmlns:xlink="http://www.w3.org/1999/xlink"
	 x="0px" y="0px" width="48px" height="48px" viewBox="-2.3 -7.178 48 48">
<defs>
</defs>
<path fill="#3588A6" d="M34.786,5.686c0,3.141-2.415,5.686-5.406,5.686c-2.989,0-5.408-2.544-5.408-5.686
	C23.972,2.546,26.391,0,29.38,0C32.371,0,34.786,2.546,34.786,5.686z"/>
<path fill="#3588A6" d="M33.696,13.171c-1.123,0.367-2.64,0.594-4.316,0.594c-3.443,0-6.232-0.947-6.232-2.117
	c0-0.082,0.018-0.162,0.046-0.244c-2.7,1.76-4.607,4.633-5.066,7.97h20.037L33.696,13.171z"/>
<path fill="#52CAF5" d="M27.733,13.69c-2.643-0.247-4.586-1.066-4.586-2.042c0-0.082,0.018-0.162,0.046-0.244
	c-2.7,1.76-4.607,4.633-5.066,7.97h13.022L27.733,13.69z"/>
<path fill="#F79523" d="M43.347,16.092l-4.598-6.387c-0.415-0.573-1.19-0.724-1.787-0.378c0.122,0.522-0.068,1.09-0.53,1.421
	l-0.479,0.345c-0.462,0.333-1.06,0.333-1.517,0.053c-0.519,0.458-0.619,1.241-0.206,1.813l4.602,6.388
	c0.439,0.61,1.291,0.748,1.903,0.31l2.304-1.66C43.649,17.556,43.789,16.704,43.347,16.092z"/>
<path fill="#C8691C" d="M16.659,18.159c0,3.142-2.417,5.688-5.406,5.688c-2.989,0-5.409-2.546-5.409-5.688
	c0-3.138,2.419-5.686,5.409-5.686C14.242,12.474,16.659,15.021,16.659,18.159z"/>
<path fill="#C8691C" d="M16.01,25.478c-1.144,0.46-2.837,0.763-4.757,0.763c-3.442,0-6.233-0.947-6.233-2.118
	c0-0.082,0.018-0.161,0.044-0.242C2.367,25.641,0.459,28.51,0,31.851h20.603L16.01,25.478z"/>
<path fill="#F79523" d="M9.605,26.164c-2.642-0.247-4.585-1.065-4.585-2.042c0-0.082,0.018-0.161,0.044-0.242
	C2.367,25.641,0.459,28.51,0,31.851h13.023L9.605,26.164z"/>
<path fill="#3E99BA" d="M26.094,28.782l-4.599-6.389c-0.412-0.571-1.187-0.723-1.786-0.377c0.124,0.521-0.067,1.091-0.529,1.422
	L18.7,23.783c-0.46,0.333-1.059,0.334-1.516,0.055c-0.518,0.457-0.62,1.239-0.206,1.813l4.599,6.386
	c0.439,0.61,1.294,0.749,1.904,0.31l2.305-1.66C26.397,30.247,26.538,29.394,26.094,28.782z"/>
</svg>
