<?xml version="1.0" encoding="utf-8"?>
<svg version="1.1"
	 xmlns="http://www.w3.org/2000/svg" xmlns:xlink="http://www.w3.org/1999/xlink"
	 x="0px" y="0px" width="48px" height="48px" viewBox="-2.701 -3.48 48 48">
<defs>
</defs>
<path fill="#F79523" d="M32.923,21.534c0.051,0.15,0.084,0.304,0.084,0.458c0,2.205-5.266,3.998-11.76,3.998
	c-6.501,0-11.769-1.793-11.769-3.998c0-0.154,0.033-0.308,0.084-0.458C4.47,24.852,0.864,30.277,0,36.578h42.489
	C41.622,30.277,38.021,24.852,32.923,21.534z"/>
<path fill="#F79523" d="M31.451,10.733c0,5.934-4.568,10.734-10.203,10.734c-5.645,0-10.212-4.8-10.212-10.734
	C11.035,4.806,15.603,0,21.248,0C26.882,0,31.451,4.806,31.451,10.733z"/>
<path fill="#C8691C" d="M18.135,25.844c-4.987-0.462-8.656-2.011-8.656-3.853c0-0.154,0.033-0.308,0.084-0.458
	C4.47,24.852,0.864,30.277,0,36.578h24.587L18.135,25.844z"/>
<path fill="#3588A6" d="M29.145,38.36l-5.439-4.001c-0.469-0.343-1.05-0.414-1.565-0.253l-3.044-2.254
	c-0.097-0.065-0.202-0.099-0.305-0.133c2.46-4.217,1.311-9.682-2.765-12.518c-4.29-2.983-10.183-1.926-13.167,2.362
	c-2.984,4.288-1.925,10.183,2.363,13.165c3.882,2.701,9.075,2.079,12.236-1.24c0.081,0.111,0.169,0.217,0.288,0.299l3.237,2.398
	c0.095,0.382,0.311,0.737,0.653,0.989l5.442,4c0.776,0.57,1.869,0.401,2.441-0.373C30.089,40.023,29.924,38.928,29.145,38.36z
	 M15.593,30.421c-1.908,2.746-5.684,3.422-8.428,1.514c-2.744-1.909-3.42-5.685-1.511-8.427c1.908-2.745,5.682-3.421,8.427-1.512
	C16.823,23.906,17.501,27.677,15.593,30.421z"/>
<path fill="#52CAF5" d="M29.145,38.36l-5.439-4.001c-0.469-0.343-1.05-0.414-1.565-0.253l-0.428-0.316l2.743,5.458l2.622,1.927
	c0.776,0.57,1.869,0.401,2.441-0.373C30.089,40.023,29.924,38.928,29.145,38.36z"/>
<path fill="#FFFFFF" d="M10.631,17.505c1.864,0,3.748,0.55,5.395,1.696c4.075,2.836,5.225,8.301,2.765,12.518
	c0.103,0.034,0.208,0.067,0.305,0.133l3.044,2.254c0.174-0.054,0.355-0.082,0.538-0.082c0.357,0,0.718,0.108,1.027,0.335
	l5.439,4.001c0.779,0.568,0.944,1.663,0.374,2.441c-0.343,0.465-0.873,0.711-1.411,0.711c-0.357,0-0.719-0.109-1.03-0.338l-5.442-4
	c-0.343-0.252-0.558-0.607-0.653-0.989l-3.237-2.398c-0.119-0.082-0.208-0.188-0.288-0.299c-1.824,1.915-4.322,2.932-6.855,2.932
	c-1.859,0-3.738-0.548-5.38-1.691c-4.288-2.982-5.347-8.877-2.363-13.165C4.698,18.921,7.64,17.505,10.631,17.505 M10.618,33.02
	c1.915,0,3.8-0.907,4.976-2.599c1.908-2.744,1.229-6.516-1.512-8.425c-1.054-0.733-2.259-1.085-3.453-1.085
	c-1.915,0-3.799,0.906-4.974,2.597c-1.909,2.742-1.232,6.518,1.511,8.427C8.219,32.667,9.424,33.02,10.618,33.02 M10.631,16.498
	v1.008V16.498c-3.428,0-6.644,1.679-8.6,4.49c-1.597,2.294-2.205,5.074-1.71,7.826c0.494,2.751,2.03,5.146,4.325,6.742
	c1.759,1.225,3.819,1.871,5.956,1.871c2.533,0,4.994-0.929,6.887-2.577l2.638,1.955c0.191,0.473,0.506,0.883,0.911,1.182l5.443,4
	c0.476,0.35,1.039,0.533,1.627,0.533c0.873,0,1.704-0.418,2.222-1.12c0.438-0.599,0.617-1.328,0.504-2.058
	c-0.113-0.726-0.502-1.363-1.094-1.797l-5.437-3.998c-0.475-0.348-1.036-0.531-1.625-0.531c-0.099,0-0.198,0.005-0.296,0.016
	l-2.266-1.678c2.097-4.536,0.657-10.077-3.515-12.98C14.838,17.147,12.773,16.498,10.631,16.498L10.631,16.498z M10.618,32.012
	c-1.032,0-2.026-0.313-2.877-0.905c-1.105-0.769-1.845-1.924-2.083-3.251c-0.238-1.327,0.055-2.666,0.824-3.771
	c0.942-1.355,2.493-2.164,4.147-2.164c1.032,0,2.026,0.312,2.877,0.904c2.282,1.588,2.847,4.738,1.26,7.021
	C13.823,31.202,12.272,32.012,10.618,32.012L10.618,32.012z"/>
</svg>
