<?xml version="1.0" encoding="utf-8"?>
<svg version="1.1"
	 xmlns="http://www.w3.org/2000/svg" xmlns:xlink="http://www.w3.org/1999/xlink"
	 x="0px" y="0px" width="48px" height="48px" viewBox="-2.387 -2.455 48 48">
<defs>
</defs>
<path fill="#E6E7E8" d="M41.94,36.889c0,2.991-2.424,5.416-5.416,5.416H5.728c-2.99,0-5.415-2.425-5.415-5.416V6.207
	c0-2.991,2.424-5.415,5.415-5.415h30.796c2.992,0,5.416,9.814,5.416,12.805V36.889z"/>
<path fill="#D1D3D4" d="M36.524,0.792H16.443l14.651,41.513h5.43c2.992,0,5.416-2.425,5.416-5.416V4.933
	C41.94,1.942,39.516,0.792,36.524,0.792z"/>
<path fill="#52CAF5" d="M38.087,0H5.415C2.424,0,0,2.424,0,5.415v32.37C0,40.776,2.424,43.2,5.415,43.2h32.672
	c2.99,0,5.414-2.424,5.414-5.415V6.307C43.501,3.316,41.078,0,38.087,0z M41.868,38.106c0,2.691-2.182,3.791-4.873,3.791H5.424
	c-2.692,0-3.791-2.183-3.791-4.874V6.176c0-2.691,1.099-4.874,3.791-4.874h31.57c2.691,0,4.873,0.908,4.873,3.599V38.106z"/>
<path fill="#3588A6" d="M38.087,0h-22.12l0.783,1.303h20.244c2.691,0,4.873,1.099,4.873,3.791v31.93
	c0,2.691-2.182,4.874-4.873,4.874H30.85l0.782,1.303h6.455c2.99,0,5.414-2.424,5.414-5.415V5.415C43.501,2.424,41.078,0,38.087,0z"
	/>
<path fill="#C8691C" d="M32.929,25.809c0.039,0.114,0.064,0.229,0.064,0.348c0,1.666-3.979,3.021-8.886,3.021
	c-4.907,0-8.885-1.354-8.885-3.021c0-0.118,0.025-0.233,0.064-0.348c-3.847,2.509-6.57,6.603-7.223,11.362h32.088
	C39.499,32.411,36.777,28.317,32.929,25.809z"/>
<ellipse fill="#C8691C" cx="24.109" cy="17.653" rx="7.71" ry="8.109"/>
<path fill="#F79523" d="M26.423,29.069c-0.739,0.067-1.512,0.107-2.315,0.107c-4.907,0-8.885-1.354-8.885-3.021
	c0-0.118,0.025-0.233,0.064-0.348c-3.847,2.509-6.57,6.603-7.223,11.362h21.218L26.423,29.069z"/>
<path fill="#F79523" d="M19.981,10.813c-2.151,1.438-3.583,3.961-3.583,6.84c0,4.478,3.451,8.109,7.709,8.109
	c0.38,0,0.75-0.039,1.115-0.095L19.981,10.813z"/>
<polygon fill="#3588A6" points="32.685,21.418 35.164,26.438 40.704,27.245 36.693,31.153 37.641,36.673 32.685,34.064 
	27.727,36.673 28.674,31.153 24.665,27.245 30.205,26.438 "/>
<polygon fill="#FFFFFF" points="29.747,31.046 31.475,32.952 35.46,27.933 34.418,27.584 31.648,31.222 30.609,29.488 "/>
<path fill="#BCBEC0" d="M14.995,20.688c0,1.31-1.061,2.37-2.369,2.37H6.329c-1.309,0-2.37-1.061-2.37-2.37V6.646
	c0-1.308,1.061-2.369,2.37-2.369h6.297c1.309,0,2.369,1.061,2.369,2.369V20.688z"/>
</svg>
