<?xml version="1.0" encoding="utf-8"?>
<!-- Generator: Adobe Illustrator 15.0.0, SVG Export Plug-In  -->
<!DOCTYPE svg PUBLIC "-//W3C//DTD SVG 1.1//EN" "http://www.w3.org/Graphics/SVG/1.1/DTD/svg11.dtd" [
	<!ENTITY ns_flows "http://ns.adobe.com/Flows/1.0/">
]>
<svg version="1.1"
	 xmlns="http://www.w3.org/2000/svg" xmlns:xlink="http://www.w3.org/1999/xlink" xmlns:a="http://ns.adobe.com/AdobeSVGViewerExtensions/3.0/"
	 x="0px" y="0px" width="48px" height="48px" viewBox="-4.371 -3.5 48 48" enable-background="new -4.371 -3.5 48 48"
	 xml:space="preserve">
<defs>
</defs>
<polygon fill="#F79523" points="39.057,0 3.681,0 3.681,41.057 3.734,41.057 3.716,41.04 7.026,37.732 10.267,40.97 13.504,37.732 
	16.813,41.04 16.796,41.057 17,41.057 16.982,41.04 20.291,37.732 23.601,41.04 23.585,41.057 23.631,41.057 23.616,41.04 
	26.924,37.732 30.235,41.04 30.216,41.057 30.264,41.057 30.249,41.04 33.558,37.732 36.868,41.04 36.851,41.057 36.897,41.057 
	36.879,41.04 39.057,38.865 "/>
<polygon fill="#C8691C" points="39.057,0 3.681,0 33.558,37.732 36.868,41.04 36.851,41.057 36.897,41.057 36.879,41.04 
	39.057,38.865 "/>
<rect x="11.446" y="5.796" fill="#3588A6" width="19.844" height="2.04"/>
<rect x="8.665" y="12.118" fill="#BCBEC0" width="13.508" height="2.041"/>
<rect x="26.353" y="12.118" fill="#BCBEC0" width="7.944" height="2.041"/>
<rect x="8.665" y="17.644" fill="#BCBEC0" width="13.508" height="2.04"/>
<polygon fill="#FFFFFF" points="14.938,14.158 8.665,14.158 8.665,12.118 13.349,12.118 "/>
<polygon fill="#FFFFFF" points="19.216,19.665 8.665,19.684 8.665,17.644 17.749,17.684 "/>
<rect x="26.353" y="17.644" fill="#BCBEC0" width="7.944" height="2.04"/>
<rect x="8.665" y="24.278" fill="#FFFFFF" width="13.508" height="2.039"/>
<rect x="26.353" y="24.278" fill="#BCBEC0" width="7.944" height="2.039"/>
<circle fill="#3588A6" cx="10.063" cy="30.15" r="10.063"/>
<path fill="#FFFFFF" d="M10.42,22.728c-3.855,0-6.979,3.124-6.979,6.979v2.134l-1.655,0.003l3.048,2.797l2.795-2.797H6.008
	l0.015-1.701c-0.109-3.061,1.7-5.156,4.397-5.142c3.59,0.017,4.886,3.108,4.886,5.331l-0.025,1.576l2.19,0.033L17.4,29.707
	C17.4,25.852,14.276,22.728,10.42,22.728z"/>
</svg>
