<?xml version="1.0" encoding="utf-8"?>
<!-- Generator: Adobe Illustrator 15.0.0, SVG Export Plug-In  -->
<!DOCTYPE svg PUBLIC "-//W3C//DTD SVG 1.1//EN" "http://www.w3.org/Graphics/SVG/1.1/DTD/svg11.dtd" [
	<!ENTITY ns_flows "http://ns.adobe.com/Flows/1.0/">
]>
<svg version="1.1"
	 xmlns="http://www.w3.org/2000/svg" xmlns:xlink="http://www.w3.org/1999/xlink" xmlns:a="http://ns.adobe.com/AdobeSVGViewerExtensions/3.0/"
	 x="0px" y="0px" width="17px" height="16px" viewBox="-1.048 -0.481 17 16" enable-background="new -1.048 -0.481 17 16"
	 xml:space="preserve">
<defs>
</defs>
<polygon display="none" fill="#F79523" points="11.702,25.519 3.452,25.519 3.452,12.019 7.702,9.019 11.702,12.019 "/>
<path fill="#3588A6" d="M12.926,0H1.979C0.886,0,0,0.886,0,1.979v11.08c0,1.093,0.886,1.979,1.979,1.979h10.947
	c1.093,0,1.979-0.886,1.979-1.979V1.979C14.904,0.886,14.019,0,12.926,0z M10.722,8.358l-4.942,4.943
	c-0.461,0.461-1.195,0.482-1.631,0.048c-0.436-0.436-0.413-1.17,0.048-1.631l3.36-3.36c0.462-0.462,0.462-1.217,0-1.679l-3.36-3.361
	C3.734,2.857,3.713,2.123,4.148,1.688s1.169-0.414,1.631,0.048l4.942,4.944C11.184,7.141,11.184,7.896,10.722,8.358z"/>
</svg>
