<?xml version="1.0" encoding="utf-8"?>
<svg version="1.1"
	 xmlns="http://www.w3.org/2000/svg" xmlns:xlink="http://www.w3.org/1999/xlink"
	 x="0px" y="0px" width="48px" height="48px" viewBox="-3.29 -2.606 48 48">
<defs>
</defs>
<path fill="#3588A6" d="M0,1.91v17.826c0,1.055,0.692,1.91,1.546,1.91h7.377l6.086,6.639l1.441-6.639h3.65
	c0.854,0,1.545-0.855,1.545-1.91V1.91c0-1.055-0.691-1.91-1.545-1.91H1.546C0.692,0,0,0.855,0,1.91z M2.091,3.821
	c0-0.851,0.561-1.541,1.248-1.541h14.969c0.688,0,1.246,0.69,1.246,1.541v14.38c0,0.852-0.559,1.541-1.246,1.541l-3.6-0.012
	l-0.777,4.533l-3.775-4.521H3.339c-0.688,0-1.248-0.689-1.248-1.541V3.821z"/>
<path fill="#52CAF5" d="M2.099,3.726C2.097,3.758,2.091,3.788,2.091,3.821v14.38c0,0.852,0.561,1.541,1.248,1.541h6.816l3.775,4.521
	l0.768-4.469l1.688,2.154l-1.377,6.336l-6.086-6.639H1.546C0.692,21.646,0,20.791,0,19.736V1.91c0-0.253,0.042-0.495,0.115-0.716
	L2.099,3.726z"/>
<circle fill="#52CAF5" cx="5.537" cy="10.531" r="1.5"/>
<circle fill="#3588A6" cx="10.537" cy="10.531" r="1.5"/>
<circle fill="#3588A6" cx="15.537" cy="10.531" r="1.5"/>
<path fill="#C8691C" d="M33.064,26.139c0.037,0.112,0.063,0.222,0.063,0.337c0,1.617-3.859,2.932-8.624,2.932
	c-4.761,0-8.622-1.314-8.622-2.932c0-0.115,0.024-0.225,0.062-0.337c-3.734,2.435-6.376,6.407-7.01,11.028h31.143
	C39.44,32.546,36.799,28.573,33.064,26.139z"/>
<ellipse fill="#C8691C" cx="24.504" cy="18.225" rx="7.483" ry="7.869"/>
<path fill="#F79523" d="M22.224,29.299c-3.654-0.34-6.344-1.474-6.344-2.823c0-0.115,0.024-0.225,0.062-0.337
	c-3.734,2.435-6.376,6.407-7.01,11.028h18.02L22.224,29.299z"/>
<circle fill="#52CAF5" cx="34.782" cy="35.281" r="7.112"/>
<path fill="#3588A6" d="M39.645,40.461c1.382-1.297,2.249-3.135,2.249-5.18c0-3.928-3.184-7.112-7.111-7.112
	c-3.014,0-5.584,1.878-6.62,4.524L39.645,40.461z"/>
<path fill="#FFFFFF" d="M39.009,34.332h-2.895v-2.895c0-0.72-0.582-1.301-1.301-1.301c-0.718-0.001-1.3,0.582-1.3,1.301v2.895H30.62
	c-0.719,0-1.301,0.582-1.302,1.301c0.001,0.718,0.583,1.3,1.302,1.3h2.895v2.895c0,0.717,0.582,1.301,1.3,1.301
	c0.718-0.001,1.301-0.582,1.301-1.301v-2.895h2.895c0.718,0,1.3-0.582,1.301-1.3C40.31,34.914,39.728,34.332,39.009,34.332z"/>
</svg>
