<?xml version="1.0" encoding="utf-8"?>
<svg version="1.1"
	 xmlns="http://www.w3.org/2000/svg" xmlns:xlink="http://www.w3.org/1999/xlink"
	 x="0px" y="0px" width="48px" height="48px" viewBox="0 0 48 48">
<defs>
</defs>
<g>
	<path fill="#F79523" d="M23.463,13.179H3.749c-0.907,0-1.643,0.908-1.643,2.029v18.941c0,1.121,0.736,2.029,1.643,2.029h3.877
		l1.534,7.053l6.464-7.053h7.839c0.906,0,1.642-0.908,1.642-2.029V15.208C25.105,14.087,24.369,13.179,23.463,13.179z
		 M22.883,32.518c0,0.904-0.594,1.638-1.325,1.638h-7.244l-4.01,4.805l-0.828-4.816l-3.823,0.012c-0.73,0-1.325-0.733-1.325-1.638
		V17.239c0-0.903,0.595-1.637,1.325-1.637h15.904c0.73,0,1.325,0.733,1.325,1.637V32.518z"/>
</g>
<g>
	<g>
		<path fill="#52CAF5" d="M22.872,8.224v18.94c0,1.121,0.736,2.029,1.642,2.029h7.839l6.466,7.055l1.532-7.055h3.878
			c0.906,0,1.642-0.908,1.642-2.029V8.224c0-1.121-0.735-2.029-1.642-2.029H24.514C23.607,6.194,22.872,7.103,22.872,8.224z
			 M25.094,10.254c0-0.904,0.594-1.637,1.324-1.637h15.905c0.73,0,1.323,0.733,1.323,1.637v15.279c0,0.904-0.593,1.637-1.323,1.637
			l-3.825-0.012l-0.826,4.816l-4.011-4.805h-7.243c-0.73,0-1.324-0.732-1.324-1.637V10.254z"/>
	</g>
</g>
<g>
	<circle fill="#52CAF5" cx="28.753" cy="17.383" r="1.594"/>
</g>
<g>
	<circle fill="#52CAF5" cx="34.066" cy="17.383" r="1.594"/>
</g>
<g>
	<circle fill="#52CAF5" cx="39.379" cy="17.383" r="1.594"/>
</g>
<g>
	<path fill="#F79523" d="M20.246,20.917c0,0.616-0.499,1.114-1.114,1.114H8.177c-0.616,0-1.114-0.499-1.114-1.114l0,0
		c0-0.615,0.499-1.114,1.114-1.114h10.955C19.748,19.804,20.246,20.303,20.246,20.917L20.246,20.917z"/>
</g>
<g>
	<path fill="#F79523" d="M20.246,26.23c0,0.614-0.499,1.114-1.114,1.114H8.177c-0.616,0-1.114-0.5-1.114-1.114l0,0
		c0-0.616,0.499-1.115,1.114-1.115h10.955C19.748,25.115,20.246,25.614,20.246,26.23L20.246,26.23z"/>
</g>
</svg>
