<?xml version="1.0" encoding="utf-8"?>
<svg version="1.1"
	 xmlns="http://www.w3.org/2000/svg" xmlns:xlink="http://www.w3.org/1999/xlink"
	 x="0px" y="0px" width="48px" height="48px" viewBox="-3.159 -3.079 48 48">
<defs>
</defs>
<path fill="#3588A6" d="M0,1.746v16.291C0,19,0.633,19.782,1.413,19.782h6.741l5.562,6.065l1.317-6.065h3.335
	c0.78,0,1.412-0.782,1.412-1.746V1.746C19.78,0.782,19.148,0,18.368,0H1.413C0.633,0,0,0.782,0,1.746z M1.911,3.492
	c0-0.778,0.512-1.408,1.141-1.408h13.678c0.628,0,1.139,0.63,1.139,1.408v13.141c0,0.778-0.51,1.408-1.139,1.408l-3.289-0.011
	l-0.71,4.142l-3.45-4.131H3.052c-0.628,0-1.141-0.63-1.141-1.408V3.492z"/>
<path fill="#52CAF5" d="M0,1.746v16.291C0,19,0.633,19.782,1.413,19.782h6.741l5.562,6.065l1.317-6.065h3.335
	c0.78,0,1.412-0.782,1.412-1.746V1.746C19.78,0.782,19.148,0,18.368,0H1.413C0.633,0,0,0.782,0,1.746z M1.911,3.492
	c0-0.778,0.512-1.408,1.141-1.408h13.678c0.628,0,1.139,0.63,1.139,1.408v13.141c0,0.778-0.51,1.408-1.139,1.408l-3.289-0.011
	l-0.71,4.142l-3.45-4.131H3.052c-0.628,0-1.141-0.63-1.141-1.408V3.492z"/>
<path fill="#3588A6" d="M3.517,2.084h13.212c0.628,0,1.139,0.63,1.139,1.408v12.944l1.888,1.888
	c0.013-0.094,0.023-0.189,0.023-0.288V1.746C19.78,0.782,19.148,0,18.368,0H1.433L3.517,2.084z"/>
<path fill="#C8691C" d="M32.315,27.612c0.039,0.115,0.065,0.229,0.065,0.35c0,1.682-4.013,3.049-8.967,3.049
	c-4.95,0-8.964-1.367-8.964-3.049c0-0.12,0.024-0.234,0.065-0.35c-3.883,2.53-6.631,6.661-7.29,11.466h32.381
	C38.945,34.273,36.2,30.142,32.315,27.612z"/>
<ellipse fill="#C8691C" cx="23.416" cy="19.382" rx="7.78" ry="8.182"/>
<path fill="#F79523" d="M21.045,30.897c-3.8-0.354-6.596-1.532-6.596-2.936c0-0.12,0.024-0.234,0.065-0.35
	c-3.883,2.53-6.631,6.661-7.29,11.466H25.96L21.045,30.897z"/>
<circle fill="#52CAF5" cx="33.812" cy="33.234" r="8.14"/>
<path fill="#3588A6" d="M33.813,25.093c-2.029,0-3.883,0.749-5.309,1.979l11.471,11.47c1.228-1.425,1.977-3.277,1.977-5.308
	C41.952,28.739,38.309,25.093,33.813,25.093z"/>
<polygon fill="#F5F5F5" points="38.894,29.042 37.913,28.06 33.639,32.333 29.367,28.06 28.385,29.042 32.658,33.315 28.385,37.586 
	29.367,38.569 33.639,34.295 37.913,38.569 38.893,37.586 34.621,33.315 "/>
<rect x="33.321" y="29.962" transform="matrix(-0.7071 0.7071 -0.7071 -0.7071 83.642 26.6659)" fill="#BCBEC0" width="5.954" height="1.388"/>
</svg>
