<?xml version="1.0" encoding="utf-8"?>
<!DOCTYPE svg PUBLIC "-//W3C//DTD SVG 1.1//EN" "http://www.w3.org/Graphics/SVG/1.1/DTD/svg11.dtd" [
	<!ENTITY ns_flows "http://ns.adobe.com/Flows/1.0/">
]>
<svg version="1.1"
	 xmlns="http://www.w3.org/2000/svg" xmlns:xlink="http://www.w3.org/1999/xlink"
	 x="0px" y="0px" width="48px" height="48px" viewBox="-5.3 -4.1 48 48">
<defs>
</defs>
<path fill="#3588A6" d="M0,2.8v26c0,1.5,1,2.8,2.3,2.8H16l8.9,9.7l2.1-9.7h7.3c1.2,0,2.3-1.2,2.3-2.8v-26c0-1.5-1-2.8-2.3-2.8H2.3
	C1,0,0,1.2,0,2.8z M3.1,5.6c0-1.2,0.8-2.2,1.8-2.2h26.8c1,0,1.8,1,1.8,2.2v21c0,1.2-0.8,2.2-1.8,2.2l-7.3,0l-1.1,6.6l-5.5-6.6H4.9
	c-1,0-1.8-1-1.8-2.2V5.6z"/>
<path fill="#52CAF5" d="M3.1,5.4c0,0,0,0.1,0,0.1v21c0,1.2,0.8,2.2,1.8,2.2h12.9l5.5,6.6l1.1-6.5l2.5,3.1l-2,9.2L16,31.6H2.3
	C1,31.6,0,30.3,0,28.8v-26c0-0.4,0.1-0.7,0.2-1L3.1,5.4z"/>
<polygon fill="#F79523" points="19.6,7.2 19.6,24.4 12.3,19 7.6,19 7.6,12.8 12.3,12.8 "/>
<path fill="#F79523" d="M29.1,15.3c0,0.5-0.4,1-0.9,1h-5.4c-0.5,0-0.9-0.4-0.9-1v-0.1c0-0.5,0.4-1,0.9-1h5.4
	C28.7,14.2,29.1,14.6,29.1,15.3L29.1,15.3z"/>
<path fill="#F79523" d="M28.8,7.9C29,8.5,28.7,9,28.3,9.2l-5.1,2.1c-0.5,0.2-1-0.1-1.1-0.6l0-0.1c-0.2-0.5,0.1-1.1,0.5-1.3l5.1-2.1
	C28.1,7.1,28.6,7.3,28.8,7.9L28.8,7.9z"/>
<path fill="#F79523" d="M28.8,22.5c0.2-0.5-0.1-1.1-0.5-1.3l-5.1-2.1c-0.5-0.2-1,0.1-1.1,0.6l0,0.1c-0.2,0.5,0.1,1.1,0.5,1.3
	l5.1,2.1C28.1,23.4,28.6,23.1,28.8,22.5L28.8,22.5z"/>
</svg>
