<?xml version="1.0" encoding="utf-8"?>
	<svg version="1.1"
	 xmlns="http://www.w3.org/2000/svg" xmlns:xlink="http://www.w3.org/1999/xlink"
	 x="0px" y="0px" width="48px" height="48px" viewBox="0 0 48 48">
<defs>
</defs>
<path fill="#52CAF5" d="M8.222,5.317V32.13c0,1.586,1.042,2.873,2.326,2.873h11.097l9.153,9.985l2.168-9.985h5.49
	c1.283,0,2.324-1.287,2.324-2.873V5.317c0-1.587-1.041-2.874-2.324-2.874H10.547C9.264,2.443,8.222,3.729,8.222,5.317z
	 M11.367,8.191c0-1.279,0.843-2.316,1.877-2.316h22.514c1.034,0,1.875,1.038,1.875,2.316v21.63c0,1.28-0.841,2.316-1.875,2.316
	l-5.414-0.017l-1.167,6.819l-5.68-6.803H13.245c-1.035,0-1.877-1.036-1.877-2.316V8.191z"/>
<polygon fill="#F79523" points="25.281,9.906 25.281,27.603 17.78,22.078 12.971,22.078 12.971,15.623 17.78,15.623 "/>
<path fill="#F79523" d="M35.171,18.188c0,0.565-0.412,1.023-0.921,1.023h-5.567c-0.509,0-0.921-0.458-0.921-1.023v-0.1
	c0-0.566,0.412-1.024,0.921-1.024h5.567c0.509,0,0.921,0.458,0.921,1.024V18.188z"/>
<path fill="#F79523" d="M34.811,10.63c0.175,0.532-0.072,1.12-0.551,1.313l-5.229,2.116c-0.479,0.194-1.007-0.081-1.183-0.612
	l-0.03-0.093c-0.175-0.532,0.071-1.119,0.55-1.313l5.231-2.116c0.479-0.194,1.008,0.082,1.182,0.613L34.811,10.63z"/>
<path fill="#F79523" d="M34.811,25.645c0.175-0.532-0.072-1.119-0.551-1.312l-5.229-2.116c-0.479-0.195-1.007,0.08-1.183,0.612
	l-0.03,0.093c-0.175,0.531,0.071,1.118,0.55,1.313l5.231,2.116c0.479,0.193,1.008-0.081,1.182-0.61L34.811,25.645z"/>
</svg>
