<?xml version="1.0" encoding="utf-8"?>
<!-- Generator: Adobe Illustrator 15.0.0, SVG Export Plug-In  -->
<!DOCTYPE svg PUBLIC "-//W3C//DTD SVG 1.1//EN" "http://www.w3.org/Graphics/SVG/1.1/DTD/svg11.dtd" [
	<!ENTITY ns_flows "http://ns.adobe.com/Flows/1.0/">
]>
<svg version="1.1"
	 xmlns="http://www.w3.org/2000/svg" xmlns:xlink="http://www.w3.org/1999/xlink" xmlns:a="http://ns.adobe.com/AdobeSVGViewerExtensions/3.0/"
	 x="0px" y="0px" width="28px" height="28px" viewBox="-2.1 -1.1 28 28" enable-background="new -2.1 -1.1 28 28"
	 xml:space="preserve">
<defs>
</defs>
<polygon fill="#F79523" points="20.9,9 20.9,22.4 3,22.4 3,3.1 12.5,3.1 12.5,0 0,0 0,25.4 23.9,25.4 23.9,9 "/>
<rect x="6.1" y="6.7" fill="#F79523" width="11.3" height="2.5"/>
<polygon fill="#C8691C" points="12.5,6.7 12.5,9.2 17.4,9.3 17.4,6.7 "/>
<rect x="6.1" y="12.2" fill="#F79523" width="11.3" height="2.5"/>
<polygon fill="#C8691C" points="12.5,12.2 12.5,14.7 17.4,14.7 17.4,12.2 "/>
<rect x="6.1" y="17.6" fill="#F79523" width="11.3" height="2.5"/>
<polygon fill="#C8691C" points="12.5,17.6 12.5,20.1 17.4,20.1 17.4,17.6 "/>
<polygon fill="#C8691C" points="20.9,9 20.9,22.4 12.4,22.4 12.4,25.4 23.9,25.4 23.9,9 "/>
<rect x="12.5" fill="#C8691C" width="0" height="3.1"/>
<path fill="#3588A6" d="M12,13.8c0,0-1.5-8,3.1-11.3l-2-1.9l10.2-0.2L21.6,9l-2-1.8C19.6,7.2,12.7,8.9,12,13.8z"/>
<path fill="#52CAF5" d="M12,13.8c0,0-0.8-5,0.7-8c0-0.1-0.1,6.2-0.1,6.3C12.3,12.6,12.1,13.2,12,13.8z"/>
</svg>
