<?xml version="1.0" encoding="utf-8"?>
<!-- Generator: Adobe Illustrator 15.0.0, SVG Export Plug-In  -->
<!DOCTYPE svg PUBLIC "-//W3C//DTD SVG 1.1//EN" "http://www.w3.org/Graphics/SVG/1.1/DTD/svg11.dtd" [
	<!ENTITY ns_flows "http://ns.adobe.com/Flows/1.0/">
]>
<svg version="1.1"
	 xmlns="http://www.w3.org/2000/svg" xmlns:xlink="http://www.w3.org/1999/xlink" xmlns:a="http://ns.adobe.com/AdobeSVGViewerExtensions/3.0/"
	 x="0px" y="0px" width="28px" height="28px" viewBox="-1.16 -1.369 28 28" enable-background="new -1.16 -1.369 28 28"
	 xml:space="preserve">
<defs>
</defs>
<path fill="#C8691C" d="M17.545,0.7l-1.107-0.403c-0.588-0.214-1.238,0.09-1.451,0.678l-0.021,0.056L17.545,0.7z"/>
<path fill="#C8691C" d="M25.076,10.75l0.093,2.849l-3.753-3.195l-2.195,2.096c0.004,0.089,0.014,0.177,0.014,0.267
	c0,3.486-2.827,6.314-6.314,6.314c-3.486,0-6.312-2.828-6.312-6.314c0-3.486,2.826-6.313,6.312-6.313
	c0.036,0,0.07,0.005,0.105,0.005l1.672-1.686l-4.119-3.177l1.465-0.188L11.891,0.84c-0.162-0.604-0.783-0.963-1.387-0.801
	L8.65,0.535C8.046,0.697,7.688,1.318,7.849,1.923l0.495,1.847c-0.585,0.295-1.136,0.642-1.649,1.04L5.237,3.587
	c-0.48-0.403-1.194-0.34-1.598,0.14l-1.232,1.47C2.004,5.675,2.067,6.39,2.546,6.794l1.423,1.192
	c-0.455,0.832-0.794,1.736-1.003,2.688H1.133C0.507,10.675,0,11.183,0,11.808v1.918c0,0.625,0.507,1.133,1.133,1.133h1.785
	c0.133,0.675,0.331,1.325,0.59,1.945l-1.442,1.01c-0.514,0.359-0.638,1.066-0.279,1.578l1.101,1.572
	c0.359,0.512,1.064,0.636,1.578,0.277l1.421-0.994c0.496,0.473,1.041,0.896,1.625,1.263l-0.588,1.616
	c-0.214,0.588,0.089,1.24,0.677,1.453l1.802,0.656c0.588,0.214,1.238-0.089,1.453-0.677l0.583-1.605
	c0.485,0.071,0.977,0.12,1.48,0.12c0.199,0,0.394-0.018,0.589-0.029l0.442,1.649c0.161,0.604,0.783,0.964,1.388,0.802l1.853-0.498
	c0.604-0.161,0.963-0.781,0.801-1.387l-0.444-1.655c0.619-0.316,1.199-0.688,1.736-1.118l1.322,1.109
	c0.479,0.401,1.194,0.34,1.595-0.14l1.232-1.47c0.404-0.479,0.342-1.193-0.139-1.597l-1.346-1.13
	c0.447-0.854,0.78-1.774,0.972-2.752h1.786c0.625,0,1.134-0.508,1.134-1.133v-1.918C25.84,11.313,25.518,10.904,25.076,10.75z"/>
<path fill="#F79523" d="M12.957,6.612L12.92,6.574l1.776-1.791L12.86,3.366v3.247c0.021-0.001,0.04-0.003,0.06-0.003
	C12.932,6.61,12.944,6.612,12.957,6.612z"/>
<path fill="#F79523" d="M17.512,0.709l-1.019-0.398c-0.596-0.217-1.294,0.055-1.513,0.711L17.512,0.709z"/>
<path fill="#F79523" d="M25.081,10.75l0.088,2.701l-3.753-3.195l-2.202,2.103c0.009,0.135,0.021,0.27,0.021,0.407
	c0,3.486-2.827,6.314-6.314,6.314c-0.02,0-0.038-0.002-0.06-0.003v3.992c0.021,0,0.04,0.004,0.06,0.004
	c0.199,0,0.394-0.018,0.589-0.029l0.442,1.649c0.161,0.604,0.783,0.964,1.388,0.802l1.853-0.498
	c0.604-0.161,0.963-0.781,0.801-1.387l-0.444-1.655c0.619-0.316,1.199-0.688,1.736-1.118l1.322,1.109
	c0.479,0.401,1.194,0.34,1.595-0.14l1.232-1.47c0.404-0.479,0.342-1.193-0.139-1.597l-1.346-1.13
	c0.447-0.854,0.78-1.774,0.972-2.752h1.786c0.625,0,1.134-0.508,1.134-1.133v-1.918C25.84,11.315,25.52,10.906,25.081,10.75z"/>
<path fill="#3588A6" d="M6.686,13.483l9.12-8.753l-3.238-2.646L24.045,0.65l0.444,11.314l-3.128-2.698l-10.04,9.681
	c0,0-1.598-0.314-3.249-2.129C6.681,15.289,6.686,13.483,6.686,13.483z"/>
</svg>
