<?xml version="1.0" encoding="utf-8"?>
<svg version="1.1"
	 xmlns="http://www.w3.org/2000/svg" xmlns:xlink="http://www.w3.org/1999/xlink"
	 x="0px" y="0px" width="48px" height="48px" viewBox="-1.996 -3.237 48 48">
<defs>
</defs>
<path fill="#F79523" d="M44.008,40.429c0,0.605-0.491,1.098-1.098,1.098H1.098C0.491,41.527,0,41.035,0,40.429V1.099
	C0,0.492,0.491,0,1.098,0H42.91c0.606,0,1.098,0.492,1.098,1.099V40.429z"/>
<path fill="#FCB51E" d="M3.837,3.611C2.54,3.611,1.261,3.687,0,3.823v36.606c0,0.605,0.491,1.098,1.098,1.098H38.93
	c0.067-0.895,0.114-1.795,0.114-2.709C39.044,19.374,23.28,3.611,3.837,3.611z"/>
<path fill="#FFFFFF" d="M25.642,28.966l-0.624,0.209l0.482,0.447l6.884,6.406c1.118,1.037,2.659,1.557,4.229,1.424
	c1.411-0.119,2.718-0.75,3.795-1.836c2.39-2.711,1.786-6.215-0.179-8.039l-8.309-7.712c-1.185-1.098-2.766-1.652-4.339-1.518
	c-1.389,0.118-2.699,0.766-3.806,1.892c-0.027,0.03-0.05,0.062-0.076,0.093c-0.475,0.497-1.287,1.483-1.506,2.618
	c-0.121,0.625-0.141,1.104-0.07,1.51c0.119,0.664,0.69,0.965,1.193,0.922c0.283-0.025,0.532-0.15,0.698-0.352
	c0.161-0.197,0.23-0.447,0.2-0.721c-0.03-0.271-0.022-0.545,0.022-0.813c0.143-0.811,0.816-1.497,1.164-1.804l0.022,0.014
	l0.212-0.194c0.703-0.645,1.505-1.022,2.317-1.091c1-0.084,2.014,0.297,2.853,1.074l7.877,7.313
	c1.541,1.428,1.631,3.846,0.201,5.385c-0.646,0.697-1.523,1.125-2.468,1.205c-1.068,0.09-2.132-0.275-2.917-1.004L27,28.39
	l-0.267-0.246l-0.266,0.248C26.306,28.542,25.967,28.857,25.642,28.966z M23.39,24.964c-0.035,0.008-0.068,0.025-0.106,0.027
	c-0.003,0-0.008-0.002-0.009-0.002C23.314,24.988,23.35,24.974,23.39,24.964z M27.751,18.733c-0.052,0.003-0.104,0.001-0.155,0.005
	c0.005,0,0.012-0.001,0.02-0.002C27.66,18.733,27.704,18.736,27.751,18.733z M36.421,37.068c0.077-0.004,0.158-0.008,0.237-0.016
	c-0.026,0.002-0.053,0.01-0.078,0.01C36.526,37.068,36.473,37.064,36.421,37.068z"/>
<path fill="#FFFFFF" d="M21.005,15.132l-4.098,5.033c-1.018,1.252-1.467,2.865-1.232,4.43c0.206,1.379,0.939,2.645,2.132,3.67
	c0.044,0.031,0.089,0.066,0.133,0.096l0.068,0.049c0,0,1.236,0.754,2.264,0.861c1.025,0.109,2.495-0.563,2.495-0.563l-0.716-2.025
	c0,0-0.498,0.375-1.516,0.377c-1.01,0.004-1.577-0.73-1.577-0.73c-0.686-0.66-1.115-1.436-1.236-2.242
	c-0.15-0.992,0.166-2.029,0.888-2.914l3.9-4.792L21.005,15.132z M16.046,24.378c0.008,0.061,0.012,0.121,0.019,0.18
	c0-0.008-0.002-0.014-0.004-0.021C16.053,24.484,16.053,24.433,16.046,24.378z"/>
<path fill="#FFFFFF" d="M32.007,17.423l1.328,1.434l3.585-3.26c1.982-1.806,2.625-5.305,0.26-8.038
	c-1.064-1.098-2.363-1.74-3.773-1.874c-1.57-0.148-3.115,0.355-4.244,1.381l-3.672,3.338l1.332,1.433l3.438-3.128
	c0.794-0.722,1.857-1.076,2.926-0.974c0.944,0.089,1.817,0.525,2.456,1.228c1.414,1.555,1.3,3.97-0.253,5.384L32.007,17.423z
	 M33.21,6.068c0.054,0.004,0.104,0.002,0.157,0.007c0.026,0.003,0.051,0.008,0.077,0.011C33.367,6.078,33.29,6.073,33.21,6.068z"/>
<path fill="#FFFFFF" d="M21.717,26.892l3.497-2.27l1.248,1.814c0,0-2.065,1.297-2.873,1.82c-0.554,0.359-1.128,0.564-1.128,0.564
	C22.117,28.25,21.894,27.726,21.717,26.892z"/>
<polygon fill="#C8691C" points="21.812,12.4 14.766,11.706 14.766,13.293 21.812,13.095 "/>
<polygon fill="#C8691C" points="22.934,10.554 18.443,5.08 17.32,6.203 22.443,11.045 "/>
<polygon fill="#C8691C" points="25.014,9.278 25.71,2.231 24.121,2.232 24.32,9.278 "/>
<circle opacity="0.6" fill="#FFFFFF" cx="11.257" cy="18.635" r="6.856"/>
<path fill="#3689A6" d="M5.398,38.216L9.577,26.07c3.861,0.803,7.631-1.51,8.714-5.266c1.188-4.039-1.185-8.172-5.174-9.294
	c-3.99-1.119-8.124,1.253-9.177,5.192c-0.959,3.361,0.625,6.833,3.456,8.481L3.13,37.494c-0.142,0.514,0.229,1.17,0.856,1.33
	C4.617,38.984,5.256,38.728,5.398,38.216 M5.991,17.272c0.817-2.848,3.777-4.575,6.623-3.757c2.847,0.815,4.575,3.776,3.757,6.623
	c-0.815,2.846-3.775,4.575-6.623,3.754C6.835,23.126,5.176,20.119,5.991,17.272"/>
<path fill="#86D4F7" d="M6.956,22.013c-1.042-1.299-1.476-3.037-1.013-4.81c0.816-2.846,3.775-4.572,6.623-3.756
	c1.307,0.388,2.374,1.157,3.086,2.284l1.688-1.216c-0.958-1.465-2.384-2.589-4.156-3.054c-3.989-1.12-8.125,1.252-9.177,5.194
	c-0.626,2.399-0.119,4.804,1.312,6.643l1.686-1.217L6.956,22.013z"/>
<path fill="#FFFFFF" d="M14.729,20.138c0,0-0.384,1.922-2.629,2.545c-2.086,0.58-3.2-0.903-3.2-0.903l0.625-0.725
	c0,0,1,1.108,2.474,0.597c1.51-0.527,1.699-1.745,1.699-1.745L14.729,20.138z"/>
</svg>
