<?xml version="1.0" encoding="utf-8"?>
<svg version="1.1"
	 xmlns="http://www.w3.org/2000/svg" xmlns:xlink="http://www.w3.org/1999/xlink"
	 x="0px" y="0px" width="48px" height="48px" viewBox="-2.5 -5.4 48 48">
<defs>
</defs>
<rect x="16.7" y="32.5" fill="#F79523" width="9.3" height="5.3"/>
<path fill="#FCB51E" d="M40.6,0H2.1C0.9,0,0,0.9,0,2.1v28.8c0,1.1,0.9,2.1,2.1,2.1h38.6c1.1,0,2.1-0.9,2.1-2.1V2.1
	C42.7,0.9,41.8,0,40.6,0 M40.3,28.8c0,1.1-0.5,1.5-1.5,1.5H3.9c-1.1,0-1.5-0.5-1.5-1.5v-25c0-1.1,0.5-1.5,1.5-1.5h34.8
	c1.1,0,1.5,0.5,1.5,1.5V28.8z"/>
<path fill="#52CAF5" d="M25.8,24.5c0.2,0.2,0.2,0.6,0,0.8l-4,4c-0.2,0.2-0.6,0.2-0.8,0L7.7,16c-0.2-0.2-0.2-0.6,0-0.8l4-4
	c0.2-0.2,0.6-0.2,0.8,0L25.8,24.5z"/>
<path fill="#3588A6" d="M26,24.7c0.1,0.1,0,0.4-0.2,0.6l-4,4c-0.2,0.2-0.5,0.3-0.6,0.2l-6.6-6.6c-0.1-0.1,0-0.4,0.2-0.6l4-4
	c0.2-0.2,0.5-0.3,0.6-0.2L26,24.7z"/>
<rect x="18" y="8.2" transform="matrix(0.7076 -0.7066 0.7066 0.7076 -7.2938 18.6519)" fill="#FCB51E" width="1.8" height="19.9"/>
<rect x="21.5" y="16.6" transform="matrix(0.7076 -0.7066 0.7066 0.7076 -8.7379 22.1348)" fill="#C8691C" width="1.8" height="10.1"/>
<path fill="#FCB51E" d="M17.1,15.2c0,0,1.4,0.2,4.3-2c3.8-2.8,6.5-6.3,7.1-7.1c0.2-0.3,4-3.1,4.7-2.3c0.7,0.7-1.9,4.4-2.3,4.7
	c-1.4,0.9-5.6,5.2-7.1,7.1c-1,1.3-2,4.3-2,4.3L17.1,15.2z"/>
<path fill="#C8691C" d="M19.4,17.5l2.4,2.4c0,0,1.1-3,2-4.3c1.4-1.9,5.6-6.1,7.1-7.1c0.4-0.3,3-4.1,2.3-4.7c0,0,0,0-0.1,0L19.4,17.5
	z"/>
<path fill="#C8691C" d="M26.3,37.5h-10c-1.2,0-2.1,0.9-2.1,2.1h14.2C28.4,38.5,27.5,37.5,26.3,37.5"/>
</svg>
