<?xml version="1.0" encoding="utf-8"?>
<svg version="1.1"
	 xmlns="http://www.w3.org/2000/svg" xmlns:xlink="http://www.w3.org/1999/xlink"
	 x="0px" y="0px" width="48px" height="48px" viewBox="-3.1 -8.8 48 48">
<defs>
</defs>
<polygon fill="#C8691C" points="38.8,13.1 29.9,4.3 31.6,2.6 42,13.1 31.6,23.5 29.9,21.9 "/>
<polygon fill="#C8691C" points="3.2,13.1 12.1,4.3 10.5,2.6 0,13.1 10.5,23.5 12.1,21.9 "/>
<path fill="#52CAF5" d="M21,2.4l-6.6,21.5l6.5,2l6.6-21.5c0.6-1.8-0.5-3.7-2.2-4.2C23.5-0.4,21.6,0.6,21,2.4"/>
<polygon fill="#F79523" points="15.1,33.1 14.1,25.7 20.1,27.6 "/>
<path fill="#3588A6" d="M17.6,24.9l3.3,1l6.6-21.5c0.6-1.8-0.5-3.7-2.2-4.2C25.1,0.1,17.6,24.9,17.6,24.9"/>
<polygon fill="#C8691C" points="15.1,33.1 17.2,26.7 20.1,27.6 "/>
</svg>
