<?xml version="1.0" encoding="utf-8"?>
<svg version="1.1"
	 xmlns="http://www.w3.org/2000/svg" xmlns:xlink="http://www.w3.org/1999/xlink"
	 x="0px" y="0px" width="48px" height="48px" viewBox="-2.8 -6.9 48 48">
<defs>
</defs>
<path fill="#F79523" d="M22.5,5.6c0,0-0.9-6.3-8.3-5.6c-6.2,0.6-7.9,7.3-5.8,12c3.5,7.6,13.9,16,13.9,16s10.7-8.3,13.4-15.7
	c1.9-5.1,0.9-11.6-5.6-12.3C23.6-0.6,22.5,5.6,22.5,5.6z"/>
<path fill="#C8691C" d="M30.1,0.1c-6.5-0.7-7.6,5.6-7.6,5.6v22.3c1.5-1.2,10.7-8.8,13.2-15.6C37.6,7.2,36.6,0.7,30.1,0.1z"/>
<polyline fill="none" stroke="#52CAF5" stroke-miterlimit="10" points="0,24.1 6.5,24.1 8.1,18.6 10.9,27.5 14.4,17.1 15.5,31 
	19.5,12.7 20.8,25 25.5,14.1 27.8,22.7 31.3,16.9 32.7,29.6 35.2,19.2 36.3,25.7 42.9,26 "/>
<polyline fill="none" stroke="#FFFFFF" stroke-miterlimit="10" points="13.5,19.5 14.4,17.1 15.5,31 19.5,12.7 20.8,25 25.5,14.1 
	27.8,22.7 31.3,16.9 31.5,18.9 "/>
<polyline fill="none" stroke="#52CAF5" stroke-miterlimit="10" points="14.7,21.5 15.4,32.4 17.1,23.6 "/>
</svg>
