<?xml version="1.0" encoding="utf-8"?>
<svg version="1.1"
	 xmlns="http://www.w3.org/2000/svg" xmlns:xlink="http://www.w3.org/1999/xlink"
	 x="0px" y="0px" width="48px" height="48px" viewBox="-4.834 -3.138 48 48">
<defs>
</defs>
<path fill="#52CAF5" d="M33.723,13.747c0,3.998-6.517,7.238-14.558,7.238c-8.038,0-14.556-3.241-14.556-7.238
	c0-3.999,6.518-7.24,14.556-7.24C27.206,6.507,33.723,9.748,33.723,13.747"/>
<path fill="#3588A6" d="M31.935,17.226c-2.475,2.24-7.265,3.759-12.77,3.759c-8.038,0-14.556-3.241-14.556-7.238
	c0-2,1.629-3.809,4.263-5.12L31.935,17.226z"/>
<path d="M10.129,18.341l1.046-5.481c0.121-0.639,0.242-1.574,0.308-2.125h1.42l-0.099,0.825h0.022
	c0.44-0.583,1.079-0.902,1.728-0.902c1.167,0,1.739,0.936,1.739,2.047c0,1.86-1.244,3.578-3.125,3.578
	c-0.429,0-0.803-0.11-0.991-0.221h-0.033l-0.43,2.279H10.129z M12.397,14.829c0.176,0.154,0.407,0.253,0.726,0.253
	c0.848,0,1.508-1.2,1.508-2.256c0-0.429-0.187-0.88-0.693-0.88c-0.594,0-1.145,0.661-1.343,1.717L12.397,14.829z"/>
<path d="M16.754,16.161l1.486-7.815h1.585l-0.606,3.126h0.022c0.451-0.495,1.013-0.814,1.717-0.814c0.837,0,1.354,0.528,1.354,1.453
	c0,0.253-0.045,0.661-0.1,0.969l-0.583,3.082h-1.585l0.562-2.95c0.044-0.209,0.066-0.44,0.066-0.66c0-0.363-0.145-0.617-0.541-0.617
	c-0.561,0-1.122,0.682-1.32,1.761l-0.473,2.465H16.754z"/>
<path d="M22.51,18.341l1.046-5.481c0.122-0.639,0.243-1.574,0.309-2.125h1.419l-0.099,0.825h0.022
	c0.44-0.583,1.078-0.902,1.728-0.902c1.167,0,1.738,0.936,1.738,2.047c0,1.86-1.243,3.578-3.125,3.578
	c-0.43,0-0.804-0.11-0.991-0.221h-0.031l-0.431,2.279H22.51z M24.777,14.829c0.176,0.154,0.407,0.253,0.727,0.253
	c0.848,0,1.509-1.2,1.509-2.256c0-0.429-0.188-0.88-0.694-0.88c-0.594,0-1.146,0.661-1.342,1.717L24.777,14.829z"/>
<path fill="#FFFFFF" d="M10.129,18.341l1.046-5.481c0.121-0.639,0.242-1.574,0.308-2.125h1.42l-0.099,0.825h0.022
	c0.44-0.583,1.079-0.902,1.728-0.902c1.167,0,1.739,0.936,1.739,2.047c0,1.86-1.244,3.578-3.125,3.578
	c-0.429,0-0.803-0.11-0.991-0.221h-0.033l-0.43,2.279H10.129z M12.397,14.829c0.176,0.154,0.407,0.253,0.726,0.253
	c0.848,0,1.508-1.2,1.508-2.256c0-0.429-0.187-0.88-0.693-0.88c-0.594,0-1.145,0.661-1.343,1.717L12.397,14.829z"/>
<path fill="#FFFFFF" d="M16.754,16.161l1.486-7.815h1.585l-0.606,3.126h0.022c0.451-0.495,1.013-0.814,1.717-0.814
	c0.837,0,1.354,0.528,1.354,1.453c0,0.253-0.045,0.661-0.1,0.969l-0.583,3.082h-1.585l0.562-2.95c0.044-0.209,0.066-0.44,0.066-0.66
	c0-0.363-0.145-0.617-0.541-0.617c-0.561,0-1.122,0.682-1.32,1.761l-0.473,2.465H16.754z"/>
<path fill="#FFFFFF" d="M22.51,18.341l1.046-5.481c0.122-0.639,0.243-1.574,0.309-2.125h1.419l-0.099,0.825h0.022
	c0.44-0.583,1.078-0.902,1.728-0.902c1.167,0,1.738,0.936,1.738,2.047c0,1.86-1.243,3.578-3.125,3.578
	c-0.43,0-0.804-0.11-0.991-0.221h-0.031l-0.431,2.279H22.51z M24.777,14.829c0.176,0.154,0.407,0.253,0.727,0.253
	c0.848,0,1.509-1.2,1.509-2.256c0-0.429-0.188-0.88-0.694-0.88c-0.594,0-1.146,0.661-1.342,1.717L24.777,14.829z"/>
<path fill="#F79523" d="M0,0v41.417h38.332V0H0z M35.595,38.287H2.738V3.129h32.856V38.287z"/>
<rect x="7.301" y="26.973" fill="#C8691C" width="23.729" height="1.825"/>
<rect x="7.301" y="32.397" fill="#C8691C" width="23.729" height="1.825"/>
<polygon fill="#C8691C" points="38.332,19.584 35.595,18.564 35.595,38.287 2.738,38.287 2.738,6.32 0,5.299 0,41.417 
	38.332,41.417 "/>
<path fill="#E6E7E8" d="M12.826,11.56h-0.022l0.099-0.825h-1.42c-0.066,0.55-0.187,1.486-0.308,2.125l-1.046,5.481h1.585l0.43-2.279
	h0.033c0.188,0.11,0.562,0.221,0.991,0.221c1.882,0,3.125-1.717,3.125-3.578c0-0.583-0.162-1.113-0.479-1.489l-1.438-0.536
	C13.79,10.733,13.226,11.031,12.826,11.56z M13.123,15.083c-0.319,0-0.55-0.099-0.726-0.253l0.198-1.166
	c0.198-1.057,0.749-1.717,1.343-1.717c0.506,0,0.693,0.451,0.693,0.88C14.631,13.883,13.971,15.083,13.123,15.083z"/>
<path fill="#E6E7E8" d="M17.57,11.871l-0.816,4.291h1.585l0.473-2.465c0.09-0.489,0.256-0.891,0.461-1.19L17.57,11.871z"/>
<path fill="#E6E7E8" d="M22.121,13.567l-1.493-0.557c-0.01,0.067-0.007,0.138-0.021,0.201l-0.562,2.95h1.585L22.121,13.567z"/>
<path fill="#E6E7E8" d="M24.525,16.062h0.031c0.188,0.11,0.562,0.221,0.991,0.221c0.751,0,1.394-0.281,1.903-0.729l-1.544-0.575
	c-0.129,0.06-0.262,0.104-0.403,0.104c-0.319,0-0.551-0.099-0.727-0.253l0.044-0.255l-1.487-0.554l-0.824,4.321h1.585L24.525,16.062
	z"/>
</svg>
