<?xml version="1.0" encoding="utf-8"?>
<svg version="1.1"
	 xmlns="http://www.w3.org/2000/svg" xmlns:xlink="http://www.w3.org/1999/xlink"
	 x="0px" y="0px" width="48px" height="48px" viewBox="-2.992 -5.5 48 48">
<defs>
</defs>
<path fill="#C8691C" d="M41.991,31.165c0,1.514-1.227,2.741-2.74,2.741H4.543c-1.514,0-2.741-1.228-2.741-2.741V9.243
	c0-1.514,1.228-2.739,2.741-2.739h34.708c1.514,0,2.74,1.226,2.74,2.739V31.165z"/>
<path fill="#F79523" d="M13.7,16.569c-1.513,0-2.74-1.227-2.74-2.741V8.348H2.74C1.227,8.348,0,9.575,0,11.088V33.01
	c0,1.513,1.227,2.74,2.74,2.74h36.535c1.513,0,2.74-1.228,2.74-2.74v-16.44H13.7z"/>
<circle fill="#52CAF5" cx="31.801" cy="9.363" r="9.363"/>
<path fill="#3588A6" d="M31.801,0c-1.721,0-3.327,0.472-4.712,1.282l7.972,16.849c3.561-1.325,6.104-4.745,6.104-8.768
	C41.164,4.192,36.971,0,31.801,0z"/>
<polygon fill="#D1D3D4" points="38.237,12.73 25.983,12.73 32.11,6.604 "/>
<polygon fill="#FFFFFF" points="37.971,10.281 25.718,10.281 31.845,4.155 "/>
<path fill="#FFFFFF" d="M14.179,30.965c-0.368,0.177-1.24,0.395-2.344,0.395c-3.175,0-4.81-1.989-4.81-4.605
	c0-3.134,2.234-4.864,5.014-4.864c1.077,0,1.894,0.204,2.262,0.409l-0.436,1.635c-0.409-0.177-0.995-0.341-1.744-0.341
	c-1.635,0-2.916,0.995-2.916,3.039c0,1.839,1.09,2.997,2.93,2.997c0.64,0,1.321-0.122,1.744-0.3L14.179,30.965z"/>
<path fill="#FFFFFF" d="M23.658,27.694c-0.041-1.104-0.082-2.439-0.082-3.774h-0.027c-0.3,1.172-0.682,2.48-1.035,3.557
	l-1.118,3.584h-1.622l-0.981-3.543c-0.3-1.091-0.6-2.398-0.831-3.598h-0.027c-0.041,1.24-0.096,2.657-0.15,3.802l-0.177,3.488
	h-1.921l0.586-9.184h2.766l0.899,3.065c0.3,1.063,0.572,2.207,0.777,3.284h0.054c0.246-1.063,0.559-2.275,0.873-3.298l0.967-3.052
	h2.726l0.49,9.184h-2.017L23.658,27.694z"/>
<path fill="#FFFFFF" d="M27.821,29.07c0.545,0.286,1.417,0.572,2.303,0.572c0.953,0,1.458-0.395,1.458-0.994
	c0-0.572-0.437-0.899-1.54-1.281c-1.526-0.545-2.534-1.39-2.534-2.725c0-1.567,1.321-2.753,3.475-2.753
	c1.049,0,1.799,0.204,2.344,0.463l-0.464,1.663c-0.354-0.178-1.021-0.437-1.907-0.437c-0.899,0-1.336,0.423-1.336,0.886
	c0,0.586,0.505,0.845,1.704,1.295c1.621,0.6,2.37,1.444,2.37,2.738c0,1.54-1.172,2.849-3.692,2.849
	c-1.049,0-2.085-0.286-2.603-0.573L27.821,29.07z"/>
</svg>
