<?xml version="1.0" encoding="utf-8"?>
<!-- Generator: Adobe Illustrator 15.0.0, SVG Export Plug-In  -->
<!DOCTYPE svg PUBLIC "-//W3C//DTD SVG 1.1//EN" "http://www.w3.org/Graphics/SVG/1.1/DTD/svg11.dtd" [
	<!ENTITY ns_flows "http://ns.adobe.com/Flows/1.0/">
]>
<svg version="1.1"
	 xmlns="http://www.w3.org/2000/svg" x="0px" y="0px" width="48px" height="48px" viewBox="-3.716 -7.284 48 48"
	 xml:space="preserve">
<defs>
</defs>
<path d="M29.959,31.533h-0.236c-0.008-1.803-0.586-3.467-1.557-4.832v-1.869c-2.236-1.114-3.789-3.403-3.789-6.075
	c0-1.728,0.652-3.292,1.717-4.487c1.596-0.673,3.188-1.347,4.895-2.068V0h-1.996H13.699H7.32H0.042C0.029,0.265,0,0.525,0,0.792
	c0,7.431,9.193,10.39,16.225,13.322c1.155,1.211,1.878,2.833,1.878,4.643c0,2.611-1.484,4.854-3.641,5.997v1.947
	c-0.972,1.365-1.55,3.029-1.558,4.832h-0.235c-0.523,0-0.95,0.426-0.95,0.947c0,0.525,0.426,0.951,0.95,0.951h17.291
	c0.521,0,0.947-0.426,0.947-0.951C30.907,31.959,30.481,31.533,29.959,31.533z M2.059,2.37c0.004-0.227,0.024-0.448,0.034-0.672
	h5.254c0.25,3.014,1.455,5.752,3.31,7.921C6.266,7.959,2,5.593,2.059,2.37z"/>
<polygon points="33.172,0 33.172,20.76 36.897,18.63 40.567,21.558 40.567,0 "/>
<polygon points="3.474,11.02 3.474,17.979 7.2,15.849 10.87,18.776 10.87,14.627 "/>
</svg>
