<?xml version="1.0" encoding="utf-8"?>
<svg version="1.1"
	 xmlns="http://www.w3.org/2000/svg" xmlns:xlink="http://www.w3.org/1999/xlink"
	 x="0px" y="0px" width="48px" height="48px" viewBox="-3.062 -3.139 48 48">
<defs>
</defs>
<path fill="#56CAF5" d="M33.657,19.634l-12.872-7.079L8.557,19.634v12.23l12.229,6.006l12.872-6.006V19.634z M20.785,34.652
	l-9.406-4.6l-0.141-8.809l9.547-5.577l10.366,5.266v8.985L20.785,34.652z"/>
<path fill="#52CAF5" d="M28.486,12.315c0,3.98-3.227,7.207-7.205,7.207c-3.981,0-7.203-3.226-7.203-7.207
	c0-3.978,3.222-7.204,7.203-7.204C25.26,5.111,28.486,8.337,28.486,12.315"/>
<path fill="#FFFFFF" d="M26.123,12.315c0,2.677-2.17,4.846-4.842,4.846c-2.673,0-4.842-2.169-4.842-4.846
	c0-2.674,2.169-4.841,4.842-4.841C23.953,7.474,26.123,9.641,26.123,12.315"/>
<polygon fill="#F79523" points="13.856,38.638 3.317,38.638 3.317,3.554 13.856,3.554 13.856,0 0,0 0,42.189 13.856,42.189 "/>
<polygon fill="#F79523" points="28.02,38.638 38.561,38.638 38.561,3.554 28.02,3.554 28.02,0 41.877,0 41.877,42.189 28.02,42.189 
	"/>
<polygon fill="#C8691C" points="13.856,38.638 3.317,38.638 3.317,10.961 0,9.065 0,42.189 13.856,42.189 "/>
<polygon fill="#C8691C" points="41.877,31.714 38.561,29.819 38.561,38.638 28.02,38.638 28.02,42.189 41.877,42.189 "/>
<polygon fill="#3588A6" points="33.657,31.864 33.657,27.656 31.151,26.226 31.151,29.917 20.785,34.652 11.379,30.053 
	11.238,21.244 16.773,18.01 14.051,16.454 8.557,19.634 8.557,31.864 20.785,37.87 "/>
</svg>
