<?xml version="1.0" encoding="utf-8"?>
<svg version="1.1"
	 xmlns="http://www.w3.org/2000/svg" xmlns:xlink="http://www.w3.org/1999/xlink"
	 x="0px" y="0px" width="32px" height="32px" viewBox="-1.8 -3.6 32 32">
<defs>
</defs>
<polygon fill="#E6E7E8" points="7.5,9 21.3,13.3 21.3,21.2 8.2,21.2 "/>
<polygon fill="#D1D3D4" points="14.4,11.2 14.4,21.2 21.3,21.2 21.3,13.3 "/>
<path fill="#F79523" d="M6.6,22.8h15.5V0H6.6V22.8z M20.4,21.2H8.2V1.7h12.2V21.2z"/>
<polygon fill="#C8691C" points="14.6,0 14.6,1.7 20.4,1.7 20.4,21.2 14.5,21.2 14.5,22.8 22.1,22.8 22.1,0 "/>
<rect x="9.9" y="5.2" fill="#F79523" width="8.7" height="1.4"/>
<rect x="14.5" y="5.2" fill="#C8691C" width="4" height="1.4"/>
<rect x="9.9" y="9.1" fill="#F79523" width="8.7" height="1.4"/>
<rect x="14.5" y="9.1" fill="#C8691C" width="4" height="1.4"/>
<rect x="9.9" y="13" fill="#F79523" width="8.7" height="1.4"/>
<rect x="14.5" y="13" fill="#C8691C" width="4" height="1.4"/>
<rect y="10.3" fill="#3588A6" width="13.5" height="15.5"/>
<rect x="1.4" y="15" fill="#FFFFFF" width="2.6" height="9.3"/>
<rect x="5.3" y="12" fill="#FFFFFF" width="2.6" height="12.4"/>
<rect x="9.1" y="17.8" fill="#FFFFFF" width="2.6" height="6.5"/>
<path fill="#333334" d="M11,17.3l-1.5,1.3c0.3,0.6-0.9,2-0.9,2l0.5-0.4c0,0,0-0.1,0-0.1l1.6-1.3c-0.1-0.1,0-0.3,0.1-0.4
	c0.1-0.1,0.3-0.1,0.4,0c0.1,0.1,0.1,0.3,0,0.4c-0.1,0.1-0.3,0.1-0.4,0l-1.6,1.3c0,0-0.1,0-0.1,0l-0.5,0.4c0,0,1.6-1,2.1-0.5l1.5-1.3
	l-0.6-0.7L11,17.3z"/>
<path fill="#808285" d="M12.3,18.7c0.1,0.1,0,0.2,0,0.3c-0.1,0.1-0.2,0-0.3,0L11,17.5c-0.1-0.1,0-0.2,0-0.3c0.1-0.1,0.2,0,0.3,0
	L12.3,18.7z"/>
<polygon points="11.1,17.3 16.3,12.5 18,14.6 12.3,18.7 "/>
<polygon points="16.3,12.5 27.3,4.3 28.2,5.5 18,14.6 "/>
<polygon fill="#BCBEC0" points="12,18.3 12.3,18.7 18,14.6 28.2,5.5 27.9,5.1 "/>
</svg>
