<?xml version="1.0" encoding="utf-8"?>
<svg version="1.1"
	 xmlns="http://www.w3.org/2000/svg" xmlns:xlink="http://www.w3.org/1999/xlink"
	 x="0px" y="0px" width="48px" height="48px" viewBox="-4.7 -4.4 48 48">
<defs>
</defs>
<path fill="#52CAF5" d="M37.7,19.5c0,10.1-8.2,18.3-18.3,18.3C9.2,37.9,1,29.6,1,19.5C1,9.4,9.2,1.2,19.3,1.2
	C29.4,1.2,37.7,9.4,37.7,19.5"/>
<path fill="#3588A6" d="M19.3,1.2c-0.1,0-0.1,36.7,0,36.7c10.1,0,18.3-8.2,18.3-18.3C37.7,9.4,29.4,1.2,19.3,1.2"/>
<path fill="#F79523" d="M19.3,0L19.3,0l0,3.3c0,0,0,0,0,0c8.6,0,15.7,6.8,16.1,15.3h3.3C38.3,8.2,29.8,0,19.3,0"/>
<path fill="#39B54A" d="M19.4,0L19.4,0l0,3.3c0,0,0,0,0,0c-8.6,0-15.7,6.8-16.1,15.3H0C0.4,8.2,8.9,0,19.4,0"/>
<polygon fill="#FFFFFF" points="19.2,9.2 17.4,13.4 19.2,27.7 21,13.4 "/>
<path fill="#FFFFFF" d="M24.3,29.8c-0.2-2.4-2.3-4.3-4.8-4.3c-2.5,0-4.6,1.9-4.8,4.3H24.3z"/>
<path fill="#C8691C" d="M35.3,17.9c0,0.5,0.1,1,0.1,1.4c0,8.9-7.2,16.1-16.1,16.1c-0.1,0-0.2,0-0.3,0v3.3c0.1,0,0.2,0,0.3,0
	c10.7,0,19.4-8.7,19.4-19.4c0-0.5,0-1-0.1-1.4H35.3z"/>
<path fill="#F9ED32" d="M19.3,35.4c-8.9,0-16-7.2-16-16.1c0-0.5,0-1,0.1-1.4H0.1c0,0.5-0.1,1-0.1,1.4C0,30,8.6,38.7,19.3,38.7V35.4z
	"/>
</svg>
