<?xml version="1.0" encoding="utf-8"?>
<svg version="1.1"
	 xmlns="http://www.w3.org/2000/svg" xmlns:xlink="http://www.w3.org/1999/xlink"
	 x="0px" y="0px" width="32px" height="32px" viewBox="-3.044 -1.898 32 32">
<defs>
</defs>
<path fill="#52CAF5" d="M24.105,8.405c-0.136-1.749-1.448-3.127-3.064-3.127c-0.493,0-0.955,0.14-1.367,0.368
	c-0.695-1.117-1.855-1.851-3.174-1.851c-0.093,0-0.182,0.023-0.274,0.031C15.752,1.635,13.981,0,11.857,0
	C9.717,0,7.933,1.657,7.475,3.873C7.25,3.827,7.021,3.795,6.785,3.795c-2.125,0-3.849,1.907-3.849,4.259
	c0,0.121,0.023,0.233,0.032,0.351H24.105z"/>
<path fill="#3588A6" d="M13.225,8.405h10.88c-0.136-1.749-1.448-3.127-3.064-3.127c-0.493,0-0.955,0.14-1.367,0.368
	c-0.695-1.117-1.855-1.851-3.174-1.851c-0.093,0-0.182,0.023-0.274,0.031c-0.367-1.697-1.517-3.05-3-3.578V8.405z"/>
<path fill="#F9ED32" d="M24.728,8.409c0,0-8.828,2.597-11.688,0.002V8.409c-0.001,0.001-0.001,0.001-0.001,0.002
	c0-0.001-0.001-0.001-0.001-0.002v0.002c-2.86,2.594-11.688-0.002-11.688-0.002c0,16.286,11.568,18.68,11.688,18.706l0,0h0.001
	h0.001l0,0C13.158,27.089,24.728,24.694,24.728,8.409"/>
<path fill="#D0C82D" d="M24.728,8.409c0,0-8.828,2.597-11.688,0.002V8.409c-0.001,0.001-0.001,0.001-0.001,0.002
	c0-0.001-0.001-0.001-0.001-0.002v0.002c0.049,2.766-0.12,18.678,0,18.703l0,0h0.001h0.001l0,0
	C13.158,27.089,24.728,24.694,24.728,8.409"/>
<polygon fill="#52CAF5" points="3.165,14.894 19.723,22.454 21.448,19.861 2.66,11.007 "/>
<polygon fill="#52CAF5" points="4.556,21.981 15.337,26.904 17.865,24.658 3.737,18 "/>
<polygon fill="#3588A6" points="12.935,25.807 15.337,26.904 17.865,24.658 13.028,22.378 "/>
<polygon fill="#3588A6" points="13.038,19.402 19.723,22.454 21.449,19.861 13.003,15.883 "/>
<path fill="#F79523" d="M13.022,6.096V6.094C13.022,6.095,13.022,6.095,13.022,6.096c0-0.001,0-0.001-0.002-0.002v0.002
	C9.605,9.192,0,7.334,0,7.334c0,19.434,12.877,21.987,13.02,22.014v0.002l0.002-0.002v0.002v-0.002
	c0.143-0.027,13.02-2.58,13.02-22.014C26.042,7.334,16.438,9.192,13.022,6.096 M13.022,26.745L13.022,26.745L13.022,26.745
	L13.022,26.745c-0.11-0.023-10.086-3.14-10.279-17.14c0,0,7.658,1.459,10.275-0.915c0,0,0.003,0.008,0.003,0.009
	c0-0.001,0-0.001,0-0.001v0.001c2.618,2.375,10.419,0.968,10.419,0.968C23.12,23.668,13.133,26.722,13.022,26.745"/>
<path fill="#C8691C" d="M13.129,6.185v2.604c2.714,2.248,10.313,0.881,10.313,0.881c-0.304,13.242-9.248,16.687-10.313,17.042v2.613
	c1.209-0.28,12.913-3.453,12.913-21.991C26.042,7.334,16.63,9.153,13.129,6.185"/>
</svg>
