<?xml version="1.0" encoding="utf-8"?>
<svg version="1.1"
	 xmlns="http://www.w3.org/2000/svg" xmlns:xlink="http://www.w3.org/1999/xlink"
	 x="0px" y="0px" width="48px" height="48px" viewBox="-4.6 -4.9 48 48">
<defs>
</defs>
<polygon fill="#F79523" points="26,19.5 16.9,25.6 16.9,13.4 "/>
<polygon fill="#C8691C" points="19.3,15 19.3,24 26,19.5 "/>
<path fill="#52CAF5" d="M37.5,16.2h-2.8c-0.2-1-0.5-2-0.9-2.9l2.3-1.6c0.8-0.5,1-1.6,0.4-2.4l-1.7-2.4c-0.5-0.8-1.6-1-2.4-0.4
	l-2.4,1.7c-0.7-0.7-1.5-1.3-2.4-1.8l1-2.7c0.3-0.9-0.1-1.9-1-2.2l-2.7-1c-0.9-0.3-1.9,0.1-2.2,1l-1,2.7c-0.7-0.1-1.4-0.2-2.1-0.2
	c-0.3,0-0.5,0-0.8,0l-0.8-2.8c-0.2-0.9-1.2-1.5-2.1-1.2l-2.8,0.8c-0.9,0.2-1.5,1.2-1.2,2.1l0.8,2.8c-0.9,0.4-1.7,1-2.5,1.6L7.9,5.4
	C7.2,4.8,6.1,4.9,5.5,5.7L3.7,7.9C3,8.6,3.1,9.7,3.9,10.3L6,12.1c-0.7,1.3-1.2,2.6-1.5,4.1H1.7C0.8,16.2,0,17,0,17.9v2.9
	c0,0.9,0.8,1.7,1.7,1.7h2.7c0.2,1,0.5,2,0.9,3L3.1,27c-0.8,0.5-1,1.6-0.4,2.4l1.7,2.4c0.5,0.8,1.6,1,2.4,0.4l2.2-1.5
	c0.8,0.7,1.6,1.4,2.5,1.9l-0.9,2.5c-0.3,0.9,0.1,1.9,1,2.2l2.7,1c0.9,0.3,1.9-0.1,2.2-1l0.9-2.4c0.7,0.1,1.5,0.2,2.2,0.2
	c0.3,0,0.6,0,0.9,0l0.7,2.5c0.2,0.9,1.2,1.5,2.1,1.2l2.8-0.8c0.9-0.2,1.5-1.2,1.2-2.1l-0.7-2.5c0.9-0.5,1.8-1,2.6-1.7l2,1.7
	c0.7,0.6,1.8,0.5,2.4-0.2l1.9-2.2c0.6-0.7,0.5-1.8-0.2-2.4l-2-1.7c0.7-1.3,1.2-2.7,1.5-4.2h2.7c1,0,1.7-0.8,1.7-1.7v-2.9
	C39.2,17,38.5,16.2,37.5,16.2 M19.6,29c-5.3,0-9.6-4.3-9.6-9.6c0-5.3,4.3-9.6,9.6-9.6c5.3,0,9.6,4.3,9.6,9.6
	C29.2,24.7,24.9,29,19.6,29"/>
<path fill="#3588A6" d="M37.5,16.2h-2.8c-0.2-1-0.5-2-0.9-2.9l2.3-1.6c0.8-0.5,1-1.6,0.4-2.4l-1.7-2.4c-0.5-0.8-1.6-1-2.4-0.4
	l-2.4,1.7c-0.7-0.7-1.5-1.3-2.4-1.8l1-2.7c0.3-0.9-0.1-1.9-1-2.2l-2.7-1c-0.9-0.3-1.9,0.1-2.2,1l-1,2.7c-0.7-0.1-1.4-0.2-2.1-0.2
	c0,0-0.1,0-0.1,0v5.7c0,0,0.1,0,0.1,0c5.3,0,9.6,4.3,9.6,9.6c0,5.3-4.3,9.6-9.6,9.6c0,0-0.1,0-0.1,0V35c0,0,0.1,0,0.1,0
	c0.3,0,0.6,0,0.9,0l0.7,2.5c0.2,0.9,1.2,1.5,2.1,1.2l2.8-0.8c0.9-0.2,1.5-1.2,1.2-2.1l-0.7-2.5c0.9-0.5,1.8-1,2.6-1.7l2,1.7
	c0.7,0.6,1.8,0.5,2.4-0.2l1.9-2.2c0.6-0.7,0.5-1.8-0.2-2.4l-2-1.7c0.7-1.3,1.2-2.7,1.5-4.2h2.7c1,0,1.7-0.8,1.7-1.7v-2.9
	C39.2,17,38.5,16.2,37.5,16.2"/>
</svg>
