<?xml version="1.0" encoding="utf-8"?>
<svg version="1.1"
	 xmlns="http://www.w3.org/2000/svg" xmlns:xlink="http://www.w3.org/1999/xlink"
	 x="0px" y="0px" width="48px" height="48px" viewBox="-4.3 -4.8 48 48">
<defs>
</defs>
<path fill="#C8691C" d="M19.5,0L19.5,0l0,3.3c0,0,0,0,0,0c8.7,0,15.8,6.8,16.2,15.4H39C38.6,8.3,30,0,19.5,0"/>
<path fill="#F79523" d="M19.5,35.7c-8.9,0-16.2-7.3-16.2-16.2c0-0.5,0-1,0.1-1.4H0.1C0,18.5,0,19,0,19.5C0,30.3,8.7,39,19.5,39V35.7
	z"/>
<path fill="#3588A6" d="M16.1,14.5h8.1V7.9h-8.1V14.5z M23.1,13.5h-5.9V9h5.9V13.5z"/>
<path fill="#3588A6" d="M16,26.5h8.1V20H16V26.5z M23,25.5h-5.9V21H23V25.5z"/>
<path fill="#3588A6" d="M25.7,26.5h8.1V20h-8.1V26.5z M32.7,25.5h-5.9V21h5.9V25.5z"/>
<path fill="#3588A6" d="M6.4,26.5h8.1v-6.6H6.4V26.5z M13.4,25.5H7.5V21h5.9V25.5z"/>
<rect x="19.6" y="14.4" fill="#52CAF5" width="1.1" height="5.6"/>
<rect x="9.9" y="16.6" fill="#52CAF5" width="19.9" height="1.1"/>
<rect x="9.9" y="16.7" fill="#52CAF5" width="1.1" height="3.2"/>
<rect x="28.7" y="16.7" fill="#52CAF5" width="1.1" height="3.2"/>
</svg>
