<?xml version="1.0" encoding="utf-8"?>
	<svg version="1.1"
	 xmlns="http://www.w3.org/2000/svg" xmlns:xlink="http://www.w3.org/1999/xlink"
	 x="0px" y="0px" width="48px" height="48px" viewBox="0 0 48 48">
<defs>
</defs>
<path fill="#FBB51C" d="M44.73,41.467c0,1.818-1.477,3.291-3.295,3.291H6.563c-1.818,0-3.293-1.473-3.293-3.291V6.535
	c0-1.817,1.475-3.293,3.293-3.293h34.873c1.82,0,3.295,1.476,3.295,3.293V41.467L44.73,41.467z"/>
<path fill="#F89624" d="M41.436,3.242H22.63l15.144,41.516h3.662c1.82,0,3.295-1.473,3.295-3.291V6.535
	C44.73,4.718,43.254,3.242,41.436,3.242z"/>
<path fill="#D37F2B" d="M44.73,8.961V6.535c0-1.817-1.477-3.293-3.295-3.293H6.563c-1.818,0-3.293,1.476-3.293,3.293v2.426H44.73z"
	/>
<path fill="#C86B28" d="M44.73,8.961V6.535c0-1.817-1.477-3.293-3.295-3.293H22.912l1.854,5.719H44.73z"/>
<path fill="#FDC322" d="M27.369,6.102c0,0.692-0.641,1.251-1.428,1.251H7.149c-0.789,0-1.429-0.559-1.429-1.251l0,0
	c0-0.69,0.64-1.251,1.429-1.251h18.792C26.729,4.851,27.369,5.411,27.369,6.102L27.369,6.102z"/>
<path fill="#FBB51C" d="M42.686,6.102c0,0.563-0.455,1.021-1.02,1.021s-1.021-0.458-1.021-1.021c0-0.564,0.457-1.021,1.021-1.021
	S42.686,5.537,42.686,6.102z"/>
<rect x="5.108" y="12.236" fill="#56CAF5" width="37.985" height="10.621"/>
<rect x="5.108" y="24.492" fill="#56CAF5" width="11.437" height="13.07"/>
<rect x="18.383" y="24.695" fill="#56CAF5" width="24.508" height="6.127"/>
<rect x="18.383" y="32.506" fill="#56CAF5" width="24.508" height="4.9"/>
<rect x="5.108" y="24.492" fill="#56CAF5" width="11.437" height="13.07"/>
<polygon fill="#3689A6" points="35.133,37.426 42.891,37.406 42.891,32.506 33.313,32.5 "/>
<polygon fill="#3689A6" points="32.668,30.836 42.891,30.822 42.891,24.695 30.424,24.693 "/>
<polygon fill="#3689A6" points="29.766,22.851 43.094,22.857 43.094,12.236 25.941,12.236 "/>
<path fill="#FBB51C" d="M27.369,6.102c0,0.692-0.641,1.251-1.428,1.251h-1.676l-0.787-2.502h2.463
	C26.729,4.851,27.369,5.411,27.369,6.102L27.369,6.102z"/>
</svg>
