<?xml version="1.0" encoding="utf-8"?>
<!DOCTYPE svg PUBLIC "-//W3C//DTD SVG 1.1//EN" "http://www.w3.org/Graphics/SVG/1.1/DTD/svg11.dtd" [
	<!ENTITY ns_flows "http://ns.adobe.com/Flows/1.0/">
]>
<svg version="1.1"
	 xmlns="http://www.w3.org/2000/svg" xmlns:xlink="http://www.w3.org/1999/xlink"
	 x="0px" y="0px" width="32px" height="32px" viewBox="0 0 32 32">
<defs>
</defs>
<rect opacity="0" fill="#FFFFFF" width="32" height="32"/>
<path fill="#FBB51C" d="M31.137,28.755c0,1.327-1.078,2.403-2.405,2.403H3.266c-1.328,0-2.404-1.076-2.404-2.403V3.247
	c0-1.327,1.077-2.404,2.404-2.404h25.466c1.329,0,2.405,1.078,2.405,2.404V28.755L31.137,28.755z"/>
<path fill="#F89624" d="M28.732,0.842H3.266c-1.328,0-2.404,1.078-2.404,2.404v2.92l25.195,24.992h2.675
	c1.329,0,2.405-1.076,2.405-2.403V3.247C31.137,1.92,30.059,0.842,28.732,0.842z"/>
<path fill="#C86B28" d="M31.137,5.019V3.247c0-1.327-1.078-2.404-2.405-2.404H3.266c-1.328,0-2.404,1.078-2.404,2.404v1.772H31.137z
	"/>
<path fill="#FBB51C" d="M18.459,2.931c0,0.505-0.467,0.914-1.043,0.914H3.695c-0.576,0-1.043-0.409-1.043-0.914l0,0
	c0-0.504,0.467-0.914,1.043-0.914h13.722C17.993,2.017,18.459,2.426,18.459,2.931L18.459,2.931z"/>
<path fill="#FBB51C" d="M29.644,2.931c0,0.411-0.332,0.746-0.744,0.746s-0.746-0.334-0.746-0.746c0-0.412,0.334-0.746,0.746-0.746
	S29.644,2.519,29.644,2.931z"/>
<rect x="2.204" y="7.411" fill="#56CAF5" width="27.738" height="7.755"/>
<rect x="2.204" y="16.359" fill="#56CAF5" width="8.352" height="9.544"/>
<rect x="11.898" y="16.508" fill="#56CAF5" width="17.896" height="4.475"/>
<rect x="11.898" y="22.211" fill="#56CAF5" width="17.896" height="3.579"/>
<rect x="2.204" y="16.359" fill="#56CAF5" width="8.352" height="9.544"/>
<polygon fill="#3689A6" points="17.093,22.204 20.656,25.813 29.794,25.791 29.794,22.211 "/>
<polygon fill="#3689A6" points="11.872,16.506 11.89,17.079 15.875,21 29.794,20.983 29.794,16.508 "/>
<polygon fill="#3689A6" points="2.204,7.411 2.204,7.432 9.984,15.157 29.943,15.166 29.943,7.411 "/>
</svg>
