<?xml version="1.0" encoding="utf-8"?>
<!-- Generator: Adobe Illustrator 15.0.0, SVG Export Plug-In  -->
<!DOCTYPE svg PUBLIC "-//W3C//DTD SVG 1.1//EN" "http://www.w3.org/Graphics/SVG/1.1/DTD/svg11.dtd" [
	<!ENTITY ns_flows "http://ns.adobe.com/Flows/1.0/">
]>
<svg version="1.1"
	 xmlns="http://www.w3.org/2000/svg" xmlns:xlink="http://www.w3.org/1999/xlink" xmlns:a="http://ns.adobe.com/AdobeSVGViewerExtensions/3.0/"
	 x="0px" y="0px" width="150px" height="160px" viewBox="-4.675 -16.949 150 160" enable-background="new -4.675 -16.949 150 160"
	 xml:space="preserve">
<defs>
</defs>
<path display="none" fill="#FFFFFF" d="M70.059,65.819c-1.094,0-1.47-0.884-1.802-1.665c-0.307-0.724-0.573-1.35-1.305-1.375
	c-0.015-0.001-0.029-0.001-0.044-0.001c-1.568,0-2.702,2.844-2.712,2.874l-0.318-0.124c0.05-0.128,1.264-3.158,3.086-3.089
	c0.949,0.032,1.284,0.82,1.608,1.582c0.318,0.75,0.619,1.459,1.487,1.459c0.778,0,1.012-1.43,1.238-2.814
	c0.272-1.659,0.55-3.38,1.819-3.268c2.252,0.188,3.27,5.978,3.313,6.224l-0.336,0.059c-0.276-1.607-1.354-5.805-3.006-5.942
	c-0.944-0.084-1.207,1.478-1.452,2.984C71.373,64.315,71.127,65.819,70.059,65.819z"/>
<path fill="#FCB51E" d="M140.65,114.932c0,6.169-5.001,11.17-11.169,11.17H11.17C5,126.102,0,121.101,0,114.932V11.171
	C0,5.002,5,0,11.17,0h118.312c6.168,0,11.169,5.002,11.169,11.171V114.932z"/>
<path fill="#F79523" d="M129.481,0H11.17C5,0,0,5.002,0,11.171v8.921l117.052,106.01h12.43c6.168,0,11.169-5.001,11.169-11.17
	V11.171C140.65,5.002,135.649,0,129.481,0z"/>
<path fill="#C8691C" d="M140.65,19.401v-8.23C140.65,5.002,135.649,0,129.481,0H11.17C5,0,0,5.002,0,11.171v8.23H140.65z"/>
<path fill="#FCB51E" d="M81.759,9.7c0,2.346-2.174,4.245-4.85,4.245H13.162c-2.676,0-4.847-1.899-4.847-4.245l0,0
	c0-2.344,2.17-4.243,4.847-4.243h63.748C79.585,5.457,81.759,7.356,81.759,9.7L81.759,9.7z"/>
<path fill="#FCB51E" d="M133.724,9.701c0,1.912-1.554,3.465-3.464,3.465c-1.912,0-3.465-1.553-3.465-3.465
	c0-1.914,1.553-3.465,3.465-3.465C132.17,6.236,133.724,7.787,133.724,9.701z"/>
<rect x="6.235" y="25.639" fill="#52CAF5" width="128.871" height="36.027"/>
<rect x="6.235" y="67.211" fill="#52CAF5" width="38.803" height="44.343"/>
<rect x="51.272" y="67.899" fill="#52CAF5" width="83.144" height="20.79"/>
<rect x="51.272" y="94.398" fill="#52CAF5" width="83.144" height="16.631"/>
<rect x="6.235" y="67.211" fill="#52CAF5" width="38.803" height="44.343"/>
<polygon fill="#3588A6" points="82.048,94.398 100.414,111.029 134.416,111.029 134.416,94.398 "/>
<polygon fill="#3588A6" points="52.791,67.899 75.745,88.689 134.416,88.689 134.416,67.899 "/>
<polygon fill="#3588A6" points="6.235,25.639 6.235,25.738 45.907,61.666 135.106,61.666 135.106,25.639 "/>
</svg>
