<?xml version="1.0" encoding="utf-8"?>
<svg version="1.1"
	 xmlns="http://www.w3.org/2000/svg" xmlns:xlink="http://www.w3.org/1999/xlink"
	 x="0px" y="0px" width="48px" height="48px" viewBox="-4.1 -9.3 48 48">
<defs>
</defs>
<rect y="14.2" fill="#3588A6" width="39.9" height="2"/>
<rect y="21.3" fill="#3588A6" width="39.9" height="2"/>
<rect x="20.4" y="14.2" fill="#3588A6" width="19.5" height="2"/>
<rect x="20.4" y="21.3" fill="#3588A6" width="19.5" height="2"/>
<rect x="4.4" y="5.7" fill="#FCB51E" width="31.9" height="26.1"/>
<rect x="20.6" y="5.7" fill="#F79523" width="15.7" height="26.1"/>
<path fill="#C8691C" d="M18.5,28.5c0,1.5-0.9,2.7-2,2.7c-1.1,0-2-1.2-2-2.7l0.3-8.4c0-1.5,0.6-2.3,1.7-2.3c1.1,0,1.7,0.8,1.7,2.3
	L18.5,28.5z"/>
<rect x="16" y="3.6" fill="#C8691C" width="0.9" height="14.4"/>
<path fill="#C8691C" d="M26.4,27.2c0,2.2-0.9,4-2,4c-1.1,0-2-1.8-2-4l0.3-12.3c0-2.2,0.6-3.4,1.7-3.4c1.1,0,1.7,1.2,1.7,3.4
	L26.4,27.2z"/>
<rect x="24" y="3.2" fill="#C8691C" width="1.2" height="14.4"/>
<polygon fill="#C8691C" points="16.9,3.7 16,3.7 15.6,2.2 16,0 16.9,0 17.3,2.3 "/>
<path fill="#C54A20" d="M28.4,2.2c0,0.7-0.6,1.2-1.2,1.2h-5.3c-0.7,0-1.2-0.6-1.2-1.2s0.6-1.2,1.2-1.2h5.3
	C27.9,0.9,28.4,1.5,28.4,2.2"/>
<rect x="20.4" y="0.7" fill="#C8691C" width="1.4" height="3"/>
<path fill="#C8691C" d="M27.2,1c0,0,2.6-0.1,2.4,1.4c-0.2,1.4,0,2.2,0,2.2l-0.4,0.8c0,0-0.1-1.6-0.2-1.7c-0.2-0.2-0.2-0.2-1.7-0.2
	C25.5,3.4,27.2,1,27.2,1"/>
<path fill="#3588A6" d="M13.9,22.8c0,0,0.8-0.7,2.4-0.7c1.9,0,2.5,0.6,2.5,0.6v2c0,0-0.8-0.6-2.5-0.6c-1.7,0-2.4,0.6-2.4,0.6
	L13.9,22.8z"/>
<path fill="#3588A6" d="M21.8,22.4c0,0,0.8-0.7,2.4-0.7c1.9,0,2.7,0.6,2.7,0.6v2c0,0-1-0.6-2.7-0.6c-1.7,0-2.4,0.6-2.4,0.6
	L21.8,22.4z"/>
</svg>
