<?xml version="1.0" encoding="utf-8"?>
<svg version="1.1"
	 xmlns="http://www.w3.org/2000/svg" xmlns:xlink="http://www.w3.org/1999/xlink"
	 x="0px" y="0px" width="48px" height="48px" viewBox="-8.2 -4 48 48">
<defs>
</defs>
<polygon fill="#52CAF5" points="12.5,21.3 0,40.4 7.2,38.3 9.2,40.7 14.9,24.3 20.6,37.4 22.4,33.2 27.4,33.8 17.6,21 "/>
<path fill="#F79523" d="M30.8,15.7l0.4-0.8c1.2-2.1,0.5-4.9-1.6-6.1l-0.8-0.4V7.5c0-2.5-2-4.5-4.5-4.5h-0.9l-0.4-0.8
	c-1.2-2.1-4-2.9-6.1-1.6L16.2,1l-0.8-0.4c-2.1-1.2-4.9-0.5-6.1,1.6L8.9,3H8C5.6,3,3.6,5,3.6,7.5v0.9L2.8,8.8c-2.1,1.2-2.9,4-1.6,6.1
	l0.4,0.8l-0.4,0.8c-1.2,2.1-0.5,4.9,1.6,6.1L3.6,23v0.9c0,2.5,2,4.5,4.5,4.5h0.9l0.4,0.8c1.2,2.1,4,2.9,6.1,1.6l0.8-0.4l0.8,0.4
	c2.1,1.2,4.9,0.5,6.1-1.6l0.4-0.8h0.9c2.5,0,4.5-2,4.5-4.5V23l0.8-0.4c2.1-1.2,2.9-4,1.6-6.1L30.8,15.7z"/>
<path fill="#C8691C" d="M30.8,15.7l0.4-0.8c1.2-2.1,0.5-4.9-1.6-6.1l-0.8-0.4V7.5c0-2.5-2-4.5-4.5-4.5h-0.9l-0.4-0.8
	c-1.2-2.1-4-2.9-6.1-1.6l-0.5,0.3v29.5l0.5,0.3c2.1,1.2,4.9,0.5,6.1-1.6l0.4-0.8h0.9c2.5,0,4.5-2,4.5-4.5V23l0.8-0.4
	c2.1-1.2,2.9-4,1.6-6.1L30.8,15.7z"/>
<path fill="#FCB51E" d="M26.3,15.6c0,5.5-4.5,10-10,10c-5.5,0-10-4.5-10-10c0-5.5,4.5-10,10-10C21.8,5.6,26.3,10.1,26.3,15.6"/>
<path fill="#EFAC1C" d="M16.4,5.6v20c5.4-0.1,9.8-4.5,9.8-10C26.3,10.1,21.9,5.7,16.4,5.6"/>
</svg>
