<?xml version="1.0" encoding="utf-8"?>
<svg version="1.1"
	 xmlns="http://www.w3.org/2000/svg" xmlns:xlink="http://www.w3.org/1999/xlink"
	 x="0px" y="0px" width="48px" height="48px" viewBox="-3.635 -3.9 48 48">
<defs>
</defs>
<path fill="#F79523" d="M32.338,11.891h-4.389v4.276c0.294,0.353,0.479,0.802,0.479,1.298c0,1.129-0.916,2.044-2.046,2.044
	c-1.129,0-2.042-0.915-2.042-2.044c0-0.496,0.185-0.945,0.479-1.299v-4.275h-9.389v4.276c0.294,0.353,0.479,0.802,0.479,1.298
	c0,1.129-0.915,2.044-2.045,2.044c-1.128,0-2.042-0.915-2.042-2.044c0-0.496,0.185-0.945,0.479-1.299v-4.275H8.345L0,40.055h40.683
	L32.338,11.891z"/>
<path fill="#C8691C" d="M40.683,40.055l-8.345-28.164h-4.389v4.276c0.294,0.353,0.479,0.802,0.479,1.298
	c0,1.129-0.916,2.044-2.046,2.044c-1.129,0-2.042-0.915-2.042-2.044c0-0.496,0.185-0.945,0.479-1.299v-4.275h-9.389v4.276
	c0.294,0.353,0.479,0.802,0.479,1.298c0,0.305-0.071,0.59-0.189,0.85L40.683,40.055z"/>
<circle fill="#C8691C" cx="13.746" cy="17.33" r="1.09"/>
<circle fill="#C8691C" cx="26.491" cy="17.265" r="1.09"/>
<path fill="#C8691C" d="M14.349,17.068V4.834c0-2.079,3.771-3.764,5.851-3.764c2.079,0,5.85,1.685,5.85,3.764v12.234h0.942V4.706
	C26.992,2.107,22.799,0,20.2,0s-6.793,2.107-6.793,4.706v12.362H14.349z"/>
<circle opacity="0.6" fill="#FFFFFF" cx="20" cy="28.642" r="9.992"/>
<path fill="#52CAF5" d="M24.876,21.72l-0.92,0.914c-0.4-0.258-0.82-0.473-1.252-0.645l0.232-1.289
	c0.078-0.437-0.211-0.853-0.645-0.933l-1.338-0.24c-0.436-0.078-0.852,0.211-0.93,0.646l-0.238,1.321
	c-0.46,0.018-0.919,0.079-1.37,0.184l-0.566-1.228c-0.184-0.402-0.66-0.578-1.063-0.392l-1.231,0.567
	c-0.402,0.186-0.577,0.662-0.393,1.065l0.571,1.236c-0.263,0.197-0.52,0.406-0.761,0.646c-0.089,0.088-0.167,0.185-0.251,0.276
	l-1.18-0.687c-0.383-0.223-0.874-0.094-1.096,0.289l-0.683,1.173c-0.223,0.382-0.093,0.872,0.289,1.096l1.168,0.681
	c-0.147,0.44-0.25,0.889-0.311,1.345l-1.341,0.112c-0.442,0.037-0.769,0.424-0.732,0.865l0.113,1.352
	c0.036,0.441,0.424,0.769,0.866,0.732l1.309-0.109c0.186,0.644,0.466,1.267,0.836,1.849l-0.921,0.914
	c-0.314,0.312-0.317,0.818-0.005,1.133l0.956,0.964c0.312,0.313,0.819,0.315,1.133,0.004l0.896-0.889
	c0.404,0.272,0.827,0.499,1.265,0.682l-0.221,1.227c-0.078,0.437,0.21,0.852,0.646,0.931l1.335,0.241
	c0.436,0.079,0.853-0.21,0.931-0.646l0.219-1.206c0.484-0.01,0.967-0.069,1.443-0.177l0.512,1.106
	c0.186,0.401,0.66,0.576,1.064,0.392l1.23-0.568c0.4-0.187,0.578-0.662,0.393-1.064l-0.506-1.096
	c0.277-0.206,0.549-0.426,0.803-0.677c0.1-0.1,0.188-0.206,0.281-0.311l1.043,0.61c0.383,0.223,0.873,0.092,1.098-0.29l0.682-1.172
	c0.223-0.383,0.094-0.874-0.289-1.097l-1.047-0.611c0.15-0.465,0.258-0.941,0.314-1.424l1.215-0.102
	c0.441-0.036,0.77-0.425,0.732-0.865l-0.113-1.353c-0.035-0.44-0.424-0.769-0.865-0.732l-1.238,0.103
	c-0.201-0.65-0.494-1.279-0.883-1.865l0.896-0.89c0.314-0.312,0.316-0.819,0.006-1.133l-0.957-0.964
	C25.698,21.409,25.19,21.408,24.876,21.72 M23.144,31.812c-1.75,1.736-4.578,1.725-6.314-0.024
	c-1.737-1.752-1.726-4.579,0.025-6.315c1.752-1.738,4.578-1.727,6.316,0.025C24.905,27.246,24.896,30.074,23.144,31.812"/>
<path fill="#3588A6" d="M24.876,21.72l-0.92,0.914c-0.4-0.258-0.82-0.473-1.252-0.645l0.232-1.289
	c0.078-0.437-0.211-0.853-0.645-0.933l-1.338-0.24c-0.434-0.079-0.852,0.211-0.93,0.646l-0.238,1.321
	c-0.46,0.018-0.919,0.079-1.369,0.184l-0.567-1.228c-0.185-0.4-0.66-0.578-1.063-0.392l-1.232,0.569
	c-0.402,0.186-0.576,0.66-0.392,1.063l0.571,1.236c-0.263,0.196-0.52,0.406-0.761,0.646c-0.01,0.011-0.018,0.021-0.027,0.032
	l1.881,1.896c0.008-0.012,0.018-0.021,0.028-0.031c1.75-1.737,4.578-1.727,6.316,0.025c1.734,1.749,1.725,4.577-0.027,6.314
	c-0.01,0.01-0.021,0.019-0.031,0.027l1.99,2.006c0.01-0.009,0.021-0.017,0.031-0.027c0.1-0.098,0.188-0.205,0.281-0.308l1.043,0.608
	c0.383,0.223,0.873,0.092,1.098-0.29l0.682-1.172c0.223-0.383,0.094-0.874-0.291-1.097l-1.047-0.61
	c0.152-0.466,0.26-0.942,0.316-1.425l1.215-0.102c0.441-0.036,0.77-0.425,0.732-0.865l-0.113-1.353
	c-0.037-0.44-0.424-0.77-0.865-0.732l-1.24,0.104c-0.199-0.651-0.492-1.28-0.881-1.866l0.896-0.89
	c0.314-0.312,0.316-0.818,0.004-1.132l-0.955-0.965C25.696,21.409,25.19,21.407,24.876,21.72"/>
</svg>
