<?xml version="1.0" encoding="utf-8"?>
<svg version="1.1"
	 xmlns="http://www.w3.org/2000/svg" xmlns:xlink="http://www.w3.org/1999/xlink"
	 x="0px" y="0px" width="48px" height="48px" viewBox="-7.066 -2.75 48 48">
<defs>
</defs>
<path fill="#F79523" d="M34.729,34.88H0.589C0.265,34.88,0,35.145,0,35.469c0,0.325,0.265,0.589,0.589,0.589h34.14
	c0.326,0,0.589-0.264,0.589-0.589C35.318,35.145,35.055,34.88,34.729,34.88"/>
<path fill="#C8691C" d="M17.526,1.742c0.003,0,0.008-0.001,0.01-0.001c0.892,0,1.613,0.723,1.613,1.616
	c0,0.797-0.576,1.454-1.332,1.588c-0.089-0.05-0.147-0.079-0.153-0.083v-0.02c0,0-0.057,0.029-0.139,0.072v29.647h0.129v0.014
	h16.431c0,0-4.086-3.161-5.707-6.76c-1.972-4.371-1.139-7.346-1.139-12.74c0-3.799-4.754-7.302-7.562-9.05
	c0.809-0.612,1.338-1.573,1.338-2.667C21.017,1.502,19.513,0,17.66,0c-0.046,0-0.088,0.011-0.134,0.013V1.742z"/>
<path fill="#F79523" d="M17.687,1.742c-0.003,0-0.007-0.001-0.009-0.001c-0.892,0-1.614,0.723-1.614,1.616
	c0,0.797,0.577,1.454,1.333,1.588c0.089-0.05,0.147-0.079,0.152-0.083v-0.02c0,0,0.057,0.029,0.139,0.072v29.647h-0.129v0.014H1.127
	c0,0,4.085-3.161,5.707-6.76c1.971-4.371,1.138-7.346,1.138-12.74c0-3.799,4.753-7.302,7.563-9.05
	c-0.809-0.612-1.338-1.573-1.338-2.667C14.196,1.502,15.7,0,17.553,0c0.045,0,0.087,0.011,0.133,0.013V1.742z"/>
<path fill="#F79523" d="M18.279,42.862c2.679,0,4.85-2.171,4.85-4.849H13.43C13.43,40.691,15.602,42.862,18.279,42.862"/>
</svg>
