<?xml version="1.0" encoding="utf-8"?>
<svg version="1.1"
	 xmlns="http://www.w3.org/2000/svg" xmlns:xlink="http://www.w3.org/1999/xlink"
	 x="0px" y="0px" width="48px" height="48px" viewBox="-2.569 -3.507 48 48">
<defs>
</defs>
<rect y="2.453" fill="#52CAF5" width="22.039" height="38.532"/>
<rect y="37.52" fill="#3588A6" width="22.039" height="3.465"/>
<rect y="2.453" fill="#3588A6" width="22.039" height="5.266"/>
<rect x="5.89" y="38.768" fill="#84D5F7" width="10.258" height="0.693"/>
<circle fill="#84D5F7" cx="18.717" cy="5.294" r="1.177"/>
<path fill="#84D5F7" d="M15.732,5.294c0,0.344-0.279,0.624-0.624,0.624H6.929c-0.344,0-0.623-0.28-0.623-0.624l0,0
	c0-0.344,0.279-0.623,0.623-0.623h8.179C15.453,4.671,15.732,4.95,15.732,5.294L15.732,5.294z"/>
<circle fill="#D1D3D4" cx="11.019" cy="21.719" r="7.762"/>
<path fill="#F79523" d="M16.549,20.737h-0.861c-0.067-0.308-0.165-0.604-0.288-0.887l0.712-0.499c0.24-0.168,0.3-0.5,0.131-0.74
	l-0.517-0.737c-0.169-0.241-0.5-0.299-0.741-0.131l-0.728,0.511c-0.225-0.206-0.469-0.391-0.73-0.554l0.306-0.841
	c0.1-0.276-0.042-0.58-0.317-0.682l-0.848-0.307c-0.277-0.1-0.58,0.042-0.68,0.318l-0.309,0.85
	c-0.217-0.032-0.436-0.052-0.661-0.052c-0.085,0-0.166,0.009-0.248,0.012l-0.235-0.874c-0.077-0.284-0.368-0.452-0.651-0.376
	l-0.869,0.234c-0.284,0.075-0.452,0.367-0.376,0.65l0.232,0.867c-0.274,0.138-0.534,0.301-0.774,0.488l-0.685-0.574
	c-0.224-0.189-0.559-0.16-0.749,0.065l-0.578,0.691c-0.188,0.223-0.158,0.559,0.065,0.748l0.667,0.56
	c-0.213,0.391-0.371,0.814-0.471,1.261H5.489c-0.293,0-0.531,0.237-0.531,0.532v0.9c0,0.295,0.238,0.533,0.531,0.533h0.838
	c0.061,0.316,0.155,0.619,0.276,0.912l-0.676,0.475c-0.241,0.166-0.3,0.5-0.131,0.738l0.516,0.738c0.168,0.24,0.5,0.297,0.741,0.131
	l0.667-0.467c0.233,0.223,0.488,0.42,0.763,0.592l-0.276,0.76c-0.101,0.277,0.043,0.582,0.317,0.68l0.846,0.309
	c0.275,0.1,0.581-0.043,0.682-0.316l0.274-0.754c0.227,0.033,0.458,0.057,0.695,0.057c0.093,0,0.184-0.008,0.276-0.016l0.207,0.773
	c0.076,0.287,0.367,0.453,0.652,0.377l0.869-0.234c0.285-0.074,0.452-0.365,0.375-0.648l-0.208-0.779
	c0.29-0.146,0.563-0.32,0.814-0.523l0.622,0.521c0.224,0.189,0.558,0.16,0.747-0.066l0.579-0.688
	c0.189-0.225,0.16-0.563-0.065-0.748l-0.631-0.531c0.209-0.4,0.365-0.836,0.456-1.291h0.837c0.294,0,0.533-0.238,0.533-0.533v-0.9
	C17.082,20.974,16.843,20.737,16.549,20.737z M11.02,24.792c-1.697,0-3.073-1.377-3.073-3.074c0-1.695,1.376-3.071,3.073-3.071
	c1.696,0,3.072,1.376,3.072,3.071C14.091,23.415,12.715,24.792,11.02,24.792z"/>
<path fill="#C8691C" d="M16.549,20.737h-0.861c-0.067-0.308-0.165-0.604-0.288-0.887l0.712-0.499c0.24-0.168,0.3-0.5,0.131-0.74
	l-0.517-0.737c-0.169-0.241-0.5-0.299-0.741-0.131l-0.728,0.511c-0.225-0.206-0.469-0.391-0.73-0.554l0.306-0.841
	c0.1-0.276-0.042-0.58-0.317-0.682l-0.848-0.307c-0.277-0.1-0.58,0.042-0.68,0.318l-0.309,0.85
	c-0.163-0.023-0.329-0.038-0.497-0.044v1.662c1.62,0.087,2.908,1.423,2.908,3.063c0,1.643-1.288,2.98-2.908,3.064v1.766
	c0.038-0.004,0.075-0.004,0.112-0.008l0.207,0.773c0.076,0.287,0.367,0.453,0.652,0.377l0.869-0.234
	c0.285-0.074,0.452-0.365,0.375-0.648l-0.208-0.779c0.29-0.146,0.563-0.32,0.814-0.523l0.622,0.521
	c0.224,0.189,0.558,0.16,0.747-0.066l0.579-0.688c0.189-0.225,0.16-0.563-0.065-0.748l-0.631-0.531
	c0.209-0.4,0.365-0.836,0.456-1.291h0.837c0.294,0,0.533-0.238,0.533-0.533v-0.9C17.082,20.974,16.843,20.737,16.549,20.737z"/>
<path fill="#C8691C" d="M41.914,12.33H16.052l-0.169-0.56c-0.136-0.445-0.201-0.855-0.201-1.25c0-2.411,1.961-4.373,4.371-4.373
	c0.307,0,0.615,0.034,0.917,0.101c1.077-1.926,3.241-3.054,5.563-2.552C27.705,1.43,30.015,0,32.599,0
	c2.789,0,5.271,1.699,6.318,4.271c2.313,0.576,3.945,2.63,3.945,5.052c0,0.913-0.244,1.792-0.723,2.614L41.914,12.33z M17.27,10.755
	h23.71c0.205-0.461,0.307-0.941,0.307-1.431c0-1.8-1.295-3.31-3.08-3.591l-0.473-0.076l-0.152-0.455
	c-0.719-2.169-2.721-3.628-4.982-3.628c-2.174,0-4.096,1.315-4.898,3.351l-0.275,0.703L26.71,5.38
	c-0.424-0.148-0.816-0.221-1.193-0.221c-1.508,0-2.84,0.914-3.392,2.327l-0.29,0.737L21.1,7.929
	c-1.851-0.744-3.842,0.698-3.842,2.591C17.257,10.597,17.262,10.675,17.27,10.755z"/>
<rect x="22.759" y="19.215" fill="#C8691C" width="8.945" height="1.279"/>
<rect x="30.425" y="11.168" fill="#C8691C" width="1.279" height="9.325"/>
<path fill="#C8691C" d="M23.527,19.827c0,0.879-0.715,1.593-1.591,1.593c-0.879,0-1.594-0.713-1.594-1.593
	c0-0.878,0.715-1.592,1.594-1.592C22.812,18.234,23.527,18.948,23.527,19.827z"/>
</svg>
