<?xml version="1.0" encoding="utf-8"?>
<svg version="1.1"
	 xmlns="http://www.w3.org/2000/svg" xmlns:xlink="http://www.w3.org/1999/xlink"
	 x="0px" y="0px" width="48px" height="48px" viewBox="0 0 48 48">
<defs>
</defs>
<path fill="#F89624" d="M45.267,20.21h-3.32c-0.263-1.188-0.634-2.332-1.113-3.423l2.748-1.923c0.927-0.65,1.152-1.928,0.504-2.855
	l-1.993-2.845c-0.652-0.929-1.928-1.153-2.856-0.504l-2.813,1.971c-0.868-0.798-1.807-1.513-2.818-2.135l1.186-3.249
	c0.388-1.065-0.162-2.242-1.227-2.63L30.3,1.431c-1.063-0.387-2.239,0.163-2.627,1.226l-1.191,3.276
	c-0.835-0.117-1.68-0.197-2.547-0.197c-0.324,0-0.638,0.031-0.958,0.048l-0.904-3.373c-0.293-1.094-1.416-1.743-2.512-1.449
	l-3.352,0.898c-1.093,0.292-1.742,1.418-1.45,2.512l0.896,3.342c-1.06,0.534-2.057,1.162-2.987,1.882L10.03,7.385
	C9.161,6.655,7.869,6.77,7.139,7.638l-2.23,2.66c-0.728,0.866-0.614,2.159,0.253,2.889l2.574,2.16
	c-0.822,1.504-1.435,3.14-1.814,4.863l-2.809,0.06c-1.132,0-2.051,0.918-2.051,2.049v3.473c0,1.132,0.919,2.052,2.051,2.052
	l2.721-0.06c0.241,1.219,0.6,2.395,1.067,3.518l-2.61,1.826c-0.928,0.651-1.153,1.93-0.504,2.856l1.992,2.844
	c0.649,0.931,1.928,1.155,2.855,0.506l2.569-1.802c0.901,0.86,1.887,1.62,2.944,2.287l-1.064,2.927
	c-0.385,1.063,0.163,2.241,1.226,2.628l3.262,1.188c1.065,0.387,2.241-0.162,2.63-1.225l1.055-2.906
	c0.877,0.129,1.768,0.219,2.68,0.219c0.36,0,0.71-0.035,1.064-0.055l0.801,2.987c0.293,1.095,1.419,1.74,2.514,1.448l3.352-0.899
	c1.093-0.295,1.743-1.418,1.449-2.512l-0.802-2.997c1.118-0.57,2.168-1.245,3.138-2.021l2.394,2.007
	c0.867,0.729,2.159,0.614,2.89-0.254l2.229-2.658c0.728-0.866,0.612-2.159-0.253-2.89l-2.437-2.044
	c0.811-1.546,1.411-3.215,1.762-4.979l3.117,0.04c1.133,0,2.012-0.949,2.012-2.081v-3.472C47.163,21.139,46.398,20.21,45.267,20.21
	 M23.934,35.421c-6.309,0-11.423-5.115-11.423-11.425c0-6.31,5.114-11.426,11.423-11.426c6.308,0,11.425,5.116,11.425,11.426
	C35.359,30.306,30.242,35.421,23.934,35.421"/>
<path fill="#C86B28" d="M45.112,20.221l-3.166-0.011c-0.263-1.188-0.634-2.332-1.113-3.423l2.748-1.923
	c0.927-0.65,1.152-1.929,0.504-2.855l-1.991-2.845c-0.654-0.929-1.93-1.153-2.858-0.504l-2.813,1.971
	c-0.868-0.798-1.807-1.513-2.814-2.135l1.182-3.249c0.388-1.065-0.162-2.242-1.227-2.63L30.3,1.431
	c-1.063-0.387-2.239,0.163-2.627,1.226l-1.191,3.276c-0.835-0.117-1.68-0.197-2.547-0.197c-0.037,0-0.071,0.005-0.107,0.006v6.834
	c0.036-0.002,0.07-0.006,0.107-0.006c6.306,0,11.425,5.116,11.425,11.425c0,6.311-5.119,11.424-11.425,11.424
	c-0.037,0-0.071-0.004-0.107-0.006v7.229c0.036,0,0.07,0.007,0.107,0.007c0.359,0,0.709-0.035,1.063-0.054l0.802,2.986
	c0.293,1.093,1.417,1.74,2.512,1.448l3.352-0.899c1.095-0.295,1.743-1.418,1.449-2.512l-0.8-2.997
	c1.118-0.57,2.168-1.245,3.138-2.021l2.394,2.007c0.867,0.729,2.159,0.614,2.888-0.254l2.231-2.658
	c0.728-0.866,0.615-2.159-0.253-2.89l-2.437-2.044c0.813-1.545,1.413-3.215,1.76-4.979l3.08,0.01c1.131,0,2.051-0.919,2.051-2.051
	v-3.472c0-1.13-0.765-2.059-1.896-2.059"/>
<path fill="#56CAF5" d="M47.104,18.257c0,1.276-1.032,2.309-2.308,2.309H3.143c-1.273,0-2.306-1.032-2.306-2.309
	c0-1.274,1.033-2.307,2.306-2.307h41.654C46.072,15.95,47.104,16.983,47.104,18.257"/>
<path fill="#3F9ABB" d="M47.104,18.257c0,1.276-1.032,2.309-2.308,2.309h-21.75l0.198-4.616h21.552
	C46.072,15.95,47.104,16.983,47.104,18.257"/>
<path fill="#3689A6" d="M16.832,18.631c0,2.336-1.894,4.23-4.231,4.23c-2.335,0-4.23-1.893-4.23-4.23
	c0-2.335,1.895-4.229,4.23-4.229C14.938,14.401,16.832,16.295,16.832,18.631"/>
<path fill="#56CAF5" d="M47.104,29.206c0,1.273-1.032,2.305-2.308,2.305H3.143c-1.273,0.002-2.306-1.031-2.306-2.305
	c0-1.275,1.033-2.308,2.306-2.308h41.654C46.072,26.898,47.104,27.931,47.104,29.206"/>
<path fill="#3F9ABB" d="M47.104,29.204c0,1.275-1.032,2.307-2.308,2.307h-21.75l0.198-4.614h21.552
	C46.072,26.896,47.104,27.929,47.104,29.204"/>
<path fill="#3689A6" d="M30.126,29.204c0,2.336-1.894,4.23-4.229,4.23c-2.338,0-4.23-1.895-4.23-4.23s1.892-4.229,4.23-4.229
	C28.232,24.976,30.126,26.868,30.126,29.204"/>
</svg>
