<?xml version="1.0" encoding="utf-8"?>
<svg version="1.1"
	 xmlns="http://www.w3.org/2000/svg" xmlns:xlink="http://www.w3.org/1999/xlink"
	 x="0px" y="0px" width="48px" height="48px" viewBox="-2.6 -3 48 48">
<defs>
</defs>
<rect fill="#F79523" width="43" height="36.2"/>
<polygon fill="#C8691C" points="43,36.2 21.3,36.2 2.2,0 43,0 "/>
<path fill="#FFFFFF" d="M1.9,17L8.5,14v1.5l-5,2.2v0l5,2.2v1.5l-6.6-3.1V17z"/>
<path fill="#FFFFFF" d="M30.2,22.1l2.7-9h1.3l-2.7,9H30.2z"/>
<path fill="#FFFFFF" d="M40.8,18.9l-6,2.7v-1.3l4.6-2v0l-4.6-2V15l6,2.7V18.9z"/>
<path fill="#52CAF5" d="M42.5,37.5c0,2.5-2,4.4-4.4,4.4h-33c-2.5,0-4.4-2-4.4-4.4l0,0c0-2.5,2-4.4,4.4-4.4h33
	C40.5,33,42.5,35,42.5,37.5L42.5,37.5z"/>
<path fill="#3588A6" d="M42.5,37.5c0,2.5-2,4.4-4.4,4.4H23.3L19.8,33h18.2C40.5,33,42.5,35,42.5,37.5L42.5,37.5z"/>
<path fill="#FFFFFF" d="M40.7,37.6c0,1.6-1.3,2.9-3,2.9H5.6c-1.6,0-3-1.3-3-2.9l0,0c0-1.6,1.3-2.9,3-2.9h32.1
	C39.3,34.7,40.7,36,40.7,37.6L40.7,37.6z"/>
<path fill="#FFFFFF" d="M14.8,21.1l-0.6-1.2c-0.2-0.5-0.4-0.8-0.6-1.2h0c-0.1,0.4-0.3,0.7-0.5,1.2l-0.5,1.2h-1.7l1.9-3.4l-1.8-3.3
	h1.7l0.6,1.2c0.2,0.4,0.3,0.7,0.5,1.1h0c0.2-0.4,0.3-0.7,0.5-1.1l0.6-1.2h1.7l-1.9,3.2l2,3.4H14.8z"/>
<path fill="#FFFFFF" d="M22.9,18.6c0-0.8-0.1-1.8-0.1-2.7h0c-0.2,0.8-0.5,1.8-0.7,2.6L21.3,21h-1.2l-0.7-2.6
	c-0.2-0.8-0.4-1.7-0.6-2.6h0c0,0.9-0.1,1.9-0.1,2.7l-0.1,2.5h-1.4l0.4-6.6h2l0.6,2.2c0.2,0.8,0.4,1.6,0.6,2.4h0
	c0.2-0.8,0.4-1.6,0.6-2.4l0.7-2.2h2l0.4,6.6H23L22.9,18.6z"/>
<path fill="#FFFFFF" d="M25.6,14.5h1.5v5.4h2.6v1.3h-4.1V14.5z"/>
</svg>
