<?xml version="1.0" encoding="utf-8"?>
<svg version="1.1"
	 xmlns="http://www.w3.org/2000/svg" xmlns:xlink="http://www.w3.org/1999/xlink"
	 x="0px" y="0px" width="48px" height="48px" viewBox="-2.828 -3.077 48 48">
<defs>
</defs>
<path fill="#C8691C" d="M30.517,16.099c0.039,0.113,0.063,0.227,0.063,0.343c0,1.65-3.938,2.988-8.795,2.988
	c-4.859,0-8.797-1.338-8.797-2.988c0-0.117,0.025-0.23,0.065-0.343c-3.81,2.484-6.505,6.536-7.151,11.249h31.765
	C37.021,22.635,34.326,18.583,30.517,16.099z"/>
<ellipse fill="#C8691C" cx="21.785" cy="8.026" rx="7.633" ry="8.026"/>
<path fill="#F79523" d="M19.459,19.323c-3.728-0.347-6.471-1.505-6.471-2.88c0-0.117,0.025-0.23,0.065-0.343
	c-3.81,2.484-6.505,6.536-7.151,11.249h18.381L19.459,19.323z"/>
<path fill="#52CAF5" stroke="#3588A6" d="M42.078,39.908c0,1.419-0.785,2.57-1.75,2.57H2.251c-0.967,0-1.751-1.151-1.751-2.57V30.27
	c0-1.418,0.784-2.57,1.751-2.57h38.077c0.965,0,1.75,1.152,1.75,2.57V39.908z"/>
<path d="M9.887,37.681c0,0.587,0.025,1.16,0.102,1.505H8.24L8.125,38.56H8.087c-0.408,0.499-1.046,0.767-1.787,0.767
	c-1.263,0-2.016-0.919-2.016-1.914c0-1.621,1.454-2.387,3.662-2.387v-0.075c0-0.345-0.179-0.817-1.135-0.817
	c-0.638,0-1.315,0.216-1.723,0.473l-0.357-1.252c0.434-0.242,1.289-0.561,2.425-0.561c2.08,0,2.731,1.225,2.731,2.705V37.681z
	 M8.011,36.239c-1.021,0-1.812,0.241-1.812,0.982c0,0.498,0.332,0.74,0.766,0.74c0.472,0,0.88-0.319,1.008-0.715
	c0.025-0.102,0.038-0.218,0.038-0.332V36.239z"/>
<path d="M12.711,30.125h1.939v3.561h0.026c0.37-0.535,1.021-0.881,1.888-0.881c1.493,0,2.579,1.238,2.565,3.152
	c0,2.246-1.417,3.369-2.846,3.369c-0.727,0-1.442-0.268-1.876-1.009h-0.025l-0.076,0.868H12.66c0.025-0.407,0.051-1.161,0.051-1.862
	V30.125z M14.65,36.532c0,0.128,0.013,0.243,0.039,0.345c0.127,0.511,0.575,0.918,1.136,0.918c0.829,0,1.34-0.638,1.34-1.76
	c0-0.97-0.435-1.736-1.34-1.736c-0.523,0-1.009,0.396-1.136,0.957c-0.026,0.116-0.039,0.229-0.039,0.358V36.532z"/>
<path d="M26.344,39.021c-0.345,0.165-0.995,0.293-1.735,0.293c-2.016,0-3.305-1.237-3.305-3.19c0-1.825,1.25-3.318,3.574-3.318
	c0.509,0,1.071,0.089,1.479,0.243l-0.306,1.442c-0.23-0.104-0.575-0.192-1.085-0.192c-1.02,0-1.685,0.728-1.673,1.749
	c0,1.136,0.767,1.747,1.71,1.747c0.459,0,0.817-0.075,1.11-0.203L26.344,39.021z"/>
</svg>
