<?xml version="1.0" encoding="utf-8"?>
<svg version="1.1"
	 xmlns="http://www.w3.org/2000/svg" xmlns:xlink="http://www.w3.org/1999/xlink"
	 x="0px" y="0px" width="48px" height="48px" viewBox="-2.14 -3.529 48 48">
<defs>
</defs>
<path fill="#C8691C" d="M32.209,23.304c0.05,0.146,0.082,0.297,0.082,0.448c0,2.158-5.151,3.911-11.508,3.911
	c-6.358,0-11.51-1.753-11.51-3.911c0-0.151,0.032-0.302,0.083-0.448C4.373,26.554,0.846,31.855,0,38.022h41.566
	C40.717,31.855,37.193,26.554,32.209,23.304z"/>
<path fill="#C8691C" d="M30.77,12.739c0,5.802-4.472,10.502-9.987,10.502c-5.519,0-9.987-4.7-9.987-10.502
	c0-5.799,4.469-10.501,9.987-10.501C26.298,2.238,30.77,6.94,30.77,12.739z"/>
<path fill="#F79523" d="M17.74,27.521c-4.878-0.454-8.467-1.969-8.467-3.77c0-0.151,0.032-0.302,0.083-0.448
	C4.373,26.554,0.846,31.855,0,38.022h24.051L17.74,27.521z"/>
<path fill="#C8691C" d="M31.158,23.54c0.006-0.175-0.773-3.627-0.338-7.033c0.677-5.303,0.226-16.853-10.029-16.499
	c-9.274,0.32-10.646,11.042-9.728,16.027c0.564,3.065-0.006,7.33,0,7.505c0,0,2.484-1.242,5.193-1.179
	c2.709,0.062,3.162,1.229,5.194,1.179c2.032-0.051,3.726-1.468,5.645-1.406S31.158,23.54,31.158,23.54z"/>
<circle fill="#52CAF5" cx="34.59" cy="31.168" r="9.478"/>
<path fill="#3588A6" d="M34.953,21.71v18.918c5.065-0.191,9.115-4.347,9.115-9.46C44.068,26.056,40.018,21.902,34.953,21.71z"/>
<path fill="#FFFFFF" d="M38.206,25.318l-3.314,3.092l-3.094-3.314c-0.769-0.823-2.059-0.867-2.882-0.099
	c-0.822,0.766-0.867,2.056-0.099,2.881l3.094,3.313l-3.314,3.095c-0.823,0.769-0.869,2.057-0.1,2.879
	c0.768,0.827,2.057,0.869,2.879,0.101l3.316-3.093l3.093,3.315c0.769,0.821,2.059,0.867,2.882,0.1
	c0.822-0.769,0.866-2.06,0.099-2.881l-3.094-3.315l3.315-3.096c0.823-0.766,0.869-2.056,0.1-2.878
	C40.318,24.594,39.03,24.549,38.206,25.318"/>
<path fill="#D1D3D4" d="M37.671,31.392l3.315-3.096c0.823-0.766,0.869-2.056,0.1-2.878c-0.769-0.824-2.057-0.869-2.881-0.1
	l-3.314,3.092l-0.021-0.021v5.973l2.914,3.126c0.769,0.821,2.059,0.867,2.882,0.1c0.822-0.769,0.866-2.06,0.099-2.881L37.671,31.392
	z"/>
<ellipse fill="#FFFFFF" cx="17.667" cy="8.644" rx="1.411" ry="2.597"/>
<ellipse fill="#FFFFFF" cx="24.554" cy="8.644" rx="1.411" ry="2.597"/>
<path fill="#F79523" d="M15.632,22.381l-4.809-8.996c0.012,0.98,0.099,1.884,0.24,2.65c0.564,3.065-0.006,7.33,0,7.505
	C11.063,23.54,13.179,22.497,15.632,22.381z"/>
</svg>
