<?xml version="1.0" encoding="utf-8"?>
<svg version="1.1"
	 xmlns="http://www.w3.org/2000/svg" xmlns:xlink="http://www.w3.org/1999/xlink"
	 x="0px" y="0px" width="48px" height="48px" viewBox="-1.506 -5.98 48 48">
<defs>
</defs>
<path fill="#C8691C" d="M30.932,20.229c0.047,0.141,0.08,0.285,0.08,0.432c0,2.072-4.949,3.755-11.053,3.755
	c-6.105,0-11.055-1.683-11.055-3.755c0-0.146,0.031-0.291,0.081-0.432C4.199,23.351,0.813,28.442,0,34.364h39.916
	C39.102,28.442,35.717,23.351,30.932,20.229z"/>
<path fill="#C8691C" d="M29.549,10.084c0,5.572-4.293,10.084-9.59,10.084c-5.301,0-9.592-4.513-9.592-10.084
	C10.367,4.516,14.658,0,19.959,0C25.256,0,29.549,4.516,29.549,10.084z"/>
<path fill="#F79523" d="M17.037,24.28c-4.686-0.437-8.133-1.891-8.133-3.619c0-0.146,0.031-0.291,0.081-0.432
	C4.199,23.351,0.813,28.442,0,34.364h23.098L17.037,24.28z"/>
<circle fill="#52CAF5" cx="33.705" cy="24.755" r="11.284"/>
<path fill="#3588A6" d="M34.137,13.495v22.522c6.029-0.229,10.852-5.176,10.852-11.263C44.988,18.67,40.166,13.724,34.137,13.495z"
	/>
<path fill="#D1D3D4" d="M39.841,31.933l-5.589-6.984c1.94-1.786,2.252-4.813,0.544-6.986c-1.785-2.25-4.968-2.561-7.219-0.854
	c-2.25,1.787-2.561,4.969-0.854,7.218c1.475,1.864,4.036,2.409,6.133,1.476l5.667,7.065c0.23,0.309,0.695,0.309,1.084,0.077
	C39.995,32.711,40.074,32.243,39.841,31.933 M27.967,23.474c-1.244-1.631-1.011-3.881,0.618-5.202
	c1.631-1.239,3.882-1.007,5.2,0.623c1.243,1.628,1.011,3.879-0.62,5.199C31.535,25.335,29.208,25.025,27.967,23.474"/>
<path fill="#FFFFFF" d="M34.137,22.928c-0.233,0.431-0.556,0.829-0.972,1.166c-1.63,1.241-3.957,0.932-5.198-0.62
	c-1.244-1.631-1.011-3.881,0.618-5.202c1.631-1.239,3.882-1.007,5.2,0.623c0.138,0.18,0.25,0.369,0.352,0.563v-2.175
	c-1.838-1.607-4.563-1.689-6.56-0.175c-2.25,1.787-2.561,4.969-0.854,7.218c1.475,1.864,4.036,2.409,6.133,1.476l1.281,1.597V22.928
	z"/>
</svg>
