<?xml version="1.0" encoding="utf-8"?>
<svg version="1.1"
	 xmlns="http://www.w3.org/2000/svg" xmlns:xlink="http://www.w3.org/1999/xlink"
	 x="0px" y="0px" width="48px" height="48px" viewBox="-2.846 -5.201 48 48">
<defs>
</defs>
<path fill="#C8691C" d="M31.93,20.883c0.048,0.146,0.082,0.294,0.082,0.445c0,2.14-5.108,3.876-11.409,3.876
	c-6.303,0-11.412-1.736-11.412-3.876c0-0.151,0.032-0.3,0.083-0.445C4.335,24.104,0.839,29.361,0,35.474h41.205
	C40.364,29.361,36.87,24.104,31.93,20.883z"/>
<path fill="#C8691C" d="M30.502,10.41c0,5.751-4.432,10.41-9.899,10.41c-5.472,0-9.901-4.659-9.901-10.41
	C10.702,4.662,15.131,0,20.604,0C26.071,0,30.502,4.662,30.502,10.41z"/>
<path fill="#F79523" d="M17.587,25.064c-4.837-0.451-8.396-1.952-8.396-3.736c0-0.151,0.032-0.3,0.083-0.445
	C4.335,24.104,0.839,29.361,0,35.474h23.843L17.587,25.064z"/>
<circle fill="#52CAF5" cx="33.404" cy="27.639" r="9.367"/>
<path fill="#3588A6" d="M42.771,27.639c0,5.173-4.194,9.367-9.367,9.367c-0.062,0.018-0.062-18.623,0-18.734
	C38.577,18.271,42.771,22.466,42.771,27.639z"/>
<path fill="#FFFFFF" d="M39.153,25.855h-3.966v-3.965c0-0.984-0.799-1.783-1.782-1.783s-1.782,0.799-1.782,1.783v3.965h-3.966
	c-0.984,0-1.782,0.799-1.782,1.783s0.798,1.783,1.782,1.783h3.966v3.965c0,0.984,0.799,1.783,1.782,1.783s1.782-0.799,1.782-1.783
	v-3.965h3.966c0.984,0,1.782-0.799,1.782-1.783S40.137,25.855,39.153,25.855"/>
<path fill="#BCBEC0" d="M39.153,25.855h-3.966v-3.965c0-0.984-0.799-1.783-1.782-1.783c-0.021,0-0.044,0.006-0.065,0.008v15.049
	c0.021,0,0.044,0.006,0.065,0.006c0.983,0,1.782-0.799,1.782-1.783v-3.965h3.966c0.984,0,1.782-0.799,1.782-1.783
	S40.137,25.855,39.153,25.855"/>
</svg>
