<?xml version="1.0" encoding="utf-8"?>
<svg version="1.1"
	 xmlns="http://www.w3.org/2000/svg" xmlns:xlink="http://www.w3.org/1999/xlink"
	 x="0px" y="0px" width="48px" height="48px" viewBox="-2.432 -4.845 48 48">
<defs>
</defs>
<path fill="#C8691C" d="M33.433,21.865c0.05,0.152,0.085,0.308,0.085,0.466c0,2.24-5.349,4.059-11.945,4.059
	c-6.599,0-11.948-1.818-11.948-4.059c0-0.158,0.034-0.313,0.087-0.466C4.539,25.238,0.878,30.742,0,37.143h43.143
	C42.262,30.742,38.604,25.238,33.433,21.865z"/>
<path fill="#C8691C" d="M31.938,10.9c0,6.022-4.641,10.9-10.365,10.9c-5.729,0-10.367-4.877-10.367-10.9
	c0-6.019,4.638-10.9,10.367-10.9C27.297,0,31.938,4.881,31.938,10.9z"/>
<path fill="#F79523" d="M18.415,26.244c-5.065-0.473-8.791-2.044-8.791-3.913c0-0.158,0.034-0.313,0.087-0.466
	C4.539,25.238,0.878,30.742,0,37.143h24.964L18.415,26.244z"/>
<path fill="#52CAF5" d="M35.788,12.935L20.976,28.463l4.695,4.477l14.808-15.528c1.236-1.297,1.189-3.35-0.107-4.585
	C39.076,11.591,37.022,11.638,35.788,12.935z"/>
<polygon fill="#F37029" points="18.617,35.628 21.045,28.516 25.608,32.864 "/>
<path fill="#3588A6" d="M23.297,30.675l2.374,2.265l14.808-15.528c1.236-1.297,1.189-3.35-0.107-4.585
	C40.202,12.702,23.297,30.675,23.297,30.675z"/>
<polygon fill="#C54A20" points="18.617,35.628 23.386,30.748 25.608,32.864 "/>
<polygon fill="#939598" points="18.617,35.628 19.849,32.019 22.16,34.228 "/>
<polygon fill="#414042" points="18.617,35.628 21.101,33.085 22.16,34.228 "/>
<path fill="#BCBEC0" d="M34.747,14.051c0,0,0.589,0.16,2.545,1.792c1.408,1.175,2.13,2.694,2.13,2.694l-1.294,1.376
	c0,0-0.686-1.183-2.203-2.592c-1.519-1.409-2.403-2.034-2.403-2.034L34.747,14.051z"/>
<path fill="#636464" d="M37.292,15.843c1.408,1.175,2.13,2.694,2.13,2.694l-1.294,1.376c0,0-0.686-1.183-2.203-2.592
	C35.883,17.412,37.089,15.904,37.292,15.843z"/>
<path fill="#F37029" d="M20.976,28.493c0,0,0.862-0.618,1.29-0.221c0.427,0.396,0.122,1.128,0.122,1.128s0.731-0.458,1.22,0.152
	c0.337,0.421-0.31,1.151-0.31,1.151L20.976,28.493z"/>
<path fill="#C54A20" d="M23.324,30.748c0,0,0.862-0.616,1.29-0.221c0.427,0.397,0.121,1.128,0.121,1.128s0.73-0.456,1.22,0.153
	c0.337,0.422-0.31,1.151-0.31,1.151L23.324,30.748z"/>
<path fill="#FFFFFF" d="M38.132,11.931c0.805,0,1.611,0.297,2.239,0.896c1.297,1.235,1.344,3.289,0.107,4.585L25.633,32.881
	l-7.048,2.783l2.391-7.201l14.812-15.528C36.423,12.266,37.277,11.931,38.132,11.931 M38.132,10.883
	c-1.186,0-2.288,0.472-3.104,1.329L20.218,27.74l-0.161,0.169l-0.075,0.224l-2.391,7.2l-0.706,2.128l2.084-0.823l7.047-2.783
	l0.213-0.084l0.158-0.165l14.846-15.469c0.794-0.832,1.215-1.919,1.188-3.064c-0.026-1.146-0.498-2.213-1.327-3.004
	C40.292,11.304,39.241,10.883,38.132,10.883L38.132,10.883z"/>
</svg>
