<?xml version="1.0" encoding="utf-8"?>
<svg version="1.1"
	 xmlns="http://www.w3.org/2000/svg" xmlns:xlink="http://www.w3.org/1999/xlink"
	 x="0px" y="0px" width="48px" height="48px" viewBox="-2.346 -4.499 48 48">
<defs>
</defs>
<path fill="#3588A6" d="M37.089,13.281c0.03,0.093,0.052,0.188,0.052,0.283c0,1.36-3.248,2.465-7.256,2.465
	s-7.256-1.105-7.256-2.465c0-0.095,0.02-0.19,0.052-0.283c-3.142,2.049-5.365,5.393-5.898,9.279h26.205
	C42.454,18.674,40.231,15.33,37.089,13.281z"/>
<ellipse fill="#3588A6" cx="29.885" cy="6.621" rx="6.296" ry="6.621"/>
<path fill="#52CAF5" d="M27.967,15.94c-3.076-0.286-5.338-1.241-5.338-2.376c0-0.095,0.02-0.19,0.052-0.283
	c-3.142,2.049-5.365,5.393-5.898,9.279h15.163L27.967,15.94z"/>
<path fill="#C8691C" d="M20.728,28.922c0.031,0.095,0.052,0.191,0.052,0.289c0,1.389-3.315,2.517-7.405,2.517
	c-4.091,0-7.407-1.128-7.407-2.517c0-0.098,0.02-0.194,0.054-0.289C2.814,31.014,0.545,34.427,0,38.394h26.748
	C26.203,34.427,23.934,31.014,20.728,28.922z"/>
<path fill="#C8691C" d="M19.801,22.125c0,3.733-2.877,6.758-6.426,6.758c-3.552,0-6.427-3.024-6.427-6.758
	c0-3.732,2.875-6.758,6.427-6.758C16.924,15.367,19.801,18.393,19.801,22.125z"/>
<path fill="#F79523" d="M11.417,31.636c-3.14-0.292-5.449-1.267-5.449-2.425c0-0.098,0.02-0.194,0.054-0.289
	C2.814,31.014,0.545,34.427,0,38.394h15.478L11.417,31.636z"/>
<path fill="#4F4F4F" d="M35.652,18.216c-0.115-0.827-0.886-1.41-1.713-1.296l-9.418,1.305c-0.827,0.114-0.959,0.621-0.294,1.125
	l1.392,1.052c0.665,0.504,0.798,1.462,0.294,2.126l-5.694,7.525c-0.504,0.665-0.372,1.622,0.294,2.127l4.104,3.104
	c0.664,0.506,1.623,0.371,2.127-0.294l5.692-7.523c0.503-0.665,1.462-0.8,2.126-0.294l1.391,1.051
	c0.666,0.505,1.117,0.239,1.002-0.589L35.652,18.216z"/>
<path fill="#FFFFFF" d="M34.67,18.958c-0.088-0.623-0.669-1.064-1.293-0.979l-7.107,0.985c-0.624,0.087-0.726,0.469-0.223,0.851
	l1.049,0.794c0.504,0.379,0.605,1.102,0.223,1.604l-4.298,5.677c-0.38,0.504-0.28,1.227,0.223,1.607l3.099,2.344
	c0.502,0.381,1.225,0.28,1.604-0.221l4.297-5.68c0.381-0.503,1.104-0.604,1.605-0.223l1.05,0.795
	c0.501,0.379,0.842,0.18,0.755-0.446L34.67,18.958z"/>
</svg>
