<?xml version="1.0" encoding="utf-8"?>
<!-- Generator: Adobe Illustrator 15.0.0, SVG Export Plug-In  -->
<!DOCTYPE svg PUBLIC "-//W3C//DTD SVG 1.1//EN" "http://www.w3.org/Graphics/SVG/1.1/DTD/svg11.dtd" [
	<!ENTITY ns_flows "http://ns.adobe.com/Flows/1.0/">
]>
<svg version="1.1"
	 xmlns="http://www.w3.org/2000/svg" x="0px" y="0px" width="48px" height="48px" viewBox="-3.505 -3.505 48 48"
	 xml:space="preserve">
<defs>
</defs>
<path d="M20.495,0C9.176,0,0,9.176,0,20.495C0,31.813,9.176,40.99,20.495,40.99S40.99,31.813,40.99,20.495
	C40.99,9.176,31.814,0,20.495,0z M20.321,4.697c2.054,0,3.719,1.665,3.719,3.719s-1.665,3.719-3.719,3.719
	c-2.054,0-3.719-1.665-3.719-3.719S18.267,4.697,20.321,4.697z M27.475,33.947c0,0-3.681,1.563-6.023,1.704
	c-2.632,0.16-4.825-0.955-5.384-2.949c-0.652-2.328,1.476-8.773,2.353-11.485c1.051-3.248-0.363-4.516-1.874-4.427
	c-1.631,0.097-2.817,0.614-2.817,0.614l0.292-1.561c0,0,6.142-3.771,9.981-0.926c3.391,2.512-0.181,11.243-0.815,13.698
	c-0.658,2.531-0.595,3.478,1.07,3.997c1.82,0.567,3.375-0.271,3.375-0.271L27.475,33.947z"/>
</svg>
