<?xml version="1.0" encoding="utf-8"?>
<!DOCTYPE svg PUBLIC "-//W3C//DTD SVG 1.1//EN" "http://www.w3.org/Graphics/SVG/1.1/DTD/svg11.dtd" [
	<!ENTITY ns_flows "http://ns.adobe.com/Flows/1.0/">
]>
<svg version="1.1"
	 xmlns="http://www.w3.org/2000/svg" x="0px" y="0px" width="48px" height="48px" viewBox="-4.789 -6.589 48 48">
<defs>
</defs>
<path d="M25.513,15.05l-14.222,6.272l0.003,0.21l-7.477,0.097c-0.539,0-1.049,0.114-1.512,0.316l-0.011-0.316
	c0-0.5-0.51-0.9-1.148-0.9c-0.637,0-1.147,0.4-1.147,0.9l0.126,3.653c0,0.05-0.011,0.097-0.008,0.146
	c0,0.069,0.017,0.135,0.021,0.203l0.117,3.396c0,0.5,0.51,0.9,1.147,0.9c0.638,0,1.148-0.4,1.148-0.9l-0.004-0.11
	c0.426,0.151,0.886,0.234,1.371,0.211l0.439-0.006c0.343,3.172,3.033,5.7,6.361,5.605h2.4c2.182-0.063,4.052-1.174,5.151-2.826
	l7.223,2.92L25.513,15.05z M12.717,33.229h-1.8c-2.438,0-4.5-1.767-4.75-4.129l5.223-0.068l0.001,0.091l5.137,2.076
	C15.676,32.414,14.292,33.229,12.717,33.229z"/>
<path d="M36.116,0H23.817c-1.301,0-2.4,1.101-2.4,2.4v8.5c0,1.3,1.1,2.399,2.4,2.399h5l-1.701,6.3l7.5-6.3h1.4
	c1.301,0,2.4-1.1,2.4-2.399V2.4C38.516,1.101,37.417,0,36.116,0z"/>
</svg>
