<?xml version="1.0" encoding="utf-8"?>
<!-- Generator: Adobe Illustrator 15.0.0, SVG Export Plug-In  -->
<!DOCTYPE svg PUBLIC "-//W3C//DTD SVG 1.1//EN" "http://www.w3.org/Graphics/SVG/1.1/DTD/svg11.dtd" [
	<!ENTITY ns_flows "http://ns.adobe.com/Flows/1.0/">
]>
<svg version="1.1"
	 xmlns="http://www.w3.org/2000/svg" x="0px" y="0px" width="48px" height="48px" viewBox="-2.831 -4.52 48 48"
	 xml:space="preserve">
<defs>
</defs>
<path d="M26.852,1.209c-1.806,1.046-5.645,5.458-5.645,5.458s-2.037-3.891-5.64-5.458C4.534-3.589-4.154,7.758,2.094,17.85
	c4.905,7.921,10.413,11.205,19.113,21.111c0,0,8.813-6.868,17.854-19.979C48.799,4.861,34.46-3.204,26.852,1.209z M23.69,28.951
	v1.938v1h-1h-2.637h-1v-1v-1.609c-1.486-0.178-2.96-0.609-4.011-1.188l-0.678-0.374l0.192-0.751l0.8-3.116l0.32-1.245l1.128,0.616
	c0.717,0.392,2.183,1.049,3.943,1.049c0.762,0,1.581-0.203,1.581-0.649c0-0.178,0-0.646-2.167-1.369
	c-2.351-0.791-5.476-2.255-5.476-5.82c0-2.667,1.703-4.729,4.501-5.532V9.16v-1h1h2.608h1h0.001v1v1.407
	c1.536,0.166,2.602,0.582,3.305,0.904l0.768,0.351l-0.217,0.815l-0.797,3.01l-0.334,1.158l-1.09-0.524
	c-0.639-0.308-1.71-0.823-3.38-0.823c-0.303,0-1.29,0.038-1.29,0.518c0,0.067,0.123,0.444,2.556,1.32
	c3.52,1.241,5.089,3.075,5.089,5.95C28.404,26.008,26.582,28.176,23.69,28.951z"/>
<path d="M22.982,18.241c-2.292-0.826-3.224-1.412-3.224-2.264c0-0.746,0.561-1.518,2.29-1.518c1.919,0,3.172,0.613,3.836,0.933
	l0.799-3.01c-0.933-0.426-2.129-0.825-3.89-0.879V9.16h-2.608v2.53c-2.849,0.533-4.501,2.369-4.501,4.741
	c0,2.582,1.945,3.914,4.794,4.873c1.997,0.665,2.848,1.303,2.848,2.316c0,1.038-1.037,1.649-2.581,1.649
	c-1.732,0-3.302-0.56-4.422-1.171l-0.8,3.116c1.013,0.559,2.743,1.067,4.528,1.145v2.529h2.638v-2.742
	c3.063-0.504,4.713-2.527,4.713-4.898C27.402,20.82,26.152,19.359,22.982,18.241z"/>
</svg>
