<?xml version="1.0" encoding="utf-8"?>
<!DOCTYPE svg PUBLIC "-//W3C//DTD SVG 1.1//EN" "http://www.w3.org/Graphics/SVG/1.1/DTD/svg11.dtd" [
	<!ENTITY ns_flows "http://ns.adobe.com/Flows/1.0/">
]>
<svg version="1.1"
	 xmlns="http://www.w3.org/2000/svg" x="0px" y="0px" width="48px" height="48px" viewBox="-6.382 -2.4 48 48">
<defs>
</defs>
<polygon points="10.407,35.832 10.407,43.199 13.136,41.018 15.864,43.199 15.864,35.832 "/>
<path d="M6.003,6.275c0,0.392-0.384,0.709-0.857,0.709H0.857C0.384,6.984,0,6.667,0,6.275l0,0c0-0.392,0.384-0.708,0.857-0.708
	h4.288C5.619,5.567,6.003,5.884,6.003,6.275L6.003,6.275z"/>
<path d="M6.003,13.543c0,0.392-0.384,0.708-0.857,0.708H0.857C0.384,14.252,0,13.935,0,13.543l0,0c0-0.392,0.384-0.708,0.857-0.708
	h4.288C5.619,12.834,6.003,13.152,6.003,13.543L6.003,13.543z"/>
<path d="M6.003,20.813c0,0.392-0.384,0.708-0.857,0.708H0.857C0.384,21.521,0,21.205,0,20.813l0,0c0-0.393,0.384-0.708,0.857-0.708
	h4.288C5.619,20.104,6.003,20.42,6.003,20.813L6.003,20.813z"/>
<path d="M6.003,28.044c0,0.391-0.384,0.708-0.857,0.708H0.857C0.384,28.752,0,28.435,0,28.044l0,0c0-0.393,0.384-0.709,0.857-0.709
	h4.288C5.619,27.335,6.003,27.651,6.003,28.044L6.003,28.044z"/>
<path d="M25.221,8.378c-0.739,0-1.435,0.177-2.011,0.511c-0.648,0.376-2.074,1.933-2.568,2.5l-0.479,0.55l-0.341-0.646
	c-0.009-0.017-0.917-1.712-2.449-2.379c-0.761-0.332-1.521-0.5-2.258-0.5c-1.63,0-3.076,0.849-3.869,2.272
	c-0.905,1.626-0.786,3.663,0.321,5.45c1.37,2.211,2.841,3.648,4.704,5.468c1.18,1.153,2.508,2.45,4.049,4.179
	c1.104-0.938,4.56-4.058,8.056-9.127c1.934-2.802,1.625-4.751,1.025-5.893C28.65,9.336,26.973,8.378,25.221,8.378z"/>
<path d="M6.042,0C3.5,0,2.919,1.741,2.799,4.093h2.152c1.205,0,2.183,0.977,2.183,2.183S6.156,8.458,4.951,8.458H2.768v2.91h2.183
	c1.205,0,2.183,0.977,2.183,2.182c0,1.206-0.978,2.183-2.183,2.183H2.768v2.911h2.183c1.205,0,2.183,0.977,2.183,2.182
	S6.156,23.01,4.951,23.01H2.768v2.91h2.183c1.205,0,2.183,0.979,2.183,2.184s-0.978,2.183-2.183,2.183H2.837
	c0.186,2.071,0.864,3.547,3.205,3.547h29.194V0H6.042z M30.096,17.842c-4.285,6.214-8.396,9.529-8.851,9.886l-1.188,0.924
	l-0.99-1.125c-1.628-1.854-3.025-3.219-4.258-4.424c-1.887-1.845-3.518-3.438-5.021-5.867c-1.512-2.441-1.649-5.271-0.368-7.57
	c1.167-2.094,3.295-3.344,5.694-3.344c1.025,0,2.065,0.227,3.093,0.673c0.784,0.342,1.519,0.873,2.188,1.584
	c0.734-0.743,1.327-1.247,1.766-1.501c0.894-0.518,1.951-0.792,3.06-0.792c2.547,0,4.914,1.375,6.029,3.502
	C31.961,11.142,32.756,13.985,30.096,17.842z"/>
</svg>
