<?xml version="1.0" encoding="utf-8"?>
<!-- Generator: Adobe Illustrator 15.0.0, SVG Export Plug-In  -->
<!DOCTYPE svg PUBLIC "-//W3C//DTD SVG 1.1//EN" "http://www.w3.org/Graphics/SVG/1.1/DTD/svg11.dtd" [
	<!ENTITY ns_flows "http://ns.adobe.com/Flows/1.0/">
]>
<svg version="1.1"
	 xmlns="http://www.w3.org/2000/svg" x="0px" y="0px" width="48px" height="48px" viewBox="-3.168 -4.608 48 48">
<defs>
</defs>
<path d="M28.566,3.281l-5.164,5.054l5.164,4.974v-2.583c0,0,9.563-2.583,8.227,8.705c0,0,4.782-13.774-8.227-13.774V3.281z"/>
<path d="M38.459,21.691H3.205C1.435,21.691,0,23.126,0,24.896V35.58c0,1.77,1.435,3.205,3.205,3.205h35.254
	c1.77,0,3.205-1.436,3.205-3.205V24.896C41.664,23.127,40.23,21.691,38.459,21.691z M11.193,34.927
	c-0.833,0-1.743-0.256-2.205-0.563l0.295-0.936c0.5,0.32,1.218,0.563,1.987,0.563c1.141,0,1.807-0.602,1.807-1.473
	c0-0.795-0.461-1.27-1.628-1.705c-1.41-0.514-2.281-1.256-2.281-2.461c0-1.346,1.115-2.346,2.794-2.346
	c0.872,0,1.525,0.205,1.897,0.422l-0.308,0.91c-0.27-0.166-0.846-0.41-1.628-0.41c-1.179,0-1.628,0.705-1.628,1.295
	c0,0.809,0.525,1.205,1.718,1.666c1.461,0.564,2.191,1.27,2.191,2.539C14.205,33.761,13.23,34.927,11.193,34.927z M20.986,34.787
	h-1.128v-3.563c0-1-0.372-1.834-1.436-1.834c-0.73,0-1.294,0.514-1.512,1.115c-0.064,0.168-0.077,0.334-0.077,0.539v3.742h-1.128
	v-9.1h1.128v3.883h0.026c0.179-0.32,0.461-0.615,0.808-0.807c0.333-0.193,0.73-0.309,1.153-0.309c0.833,0,2.166,0.514,2.166,2.641
	V34.787z M23.947,34.787H22.82v-6.203h1.127V34.787z M23.359,27.533c-0.41,0-0.68-0.309-0.68-0.693c0-0.383,0.281-0.703,0.705-0.703
	c0.41,0,0.691,0.307,0.691,0.703C24.076,27.224,23.807,27.533,23.359,27.533z M28.551,28.583v0.859h-1.5v5.344h-1.117v-5.344h-0.857
	v-0.859h0.857v-0.295c0-0.871,0.207-1.666,0.719-2.166c0.424-0.41,0.988-0.576,1.514-0.576c0.41,0,0.742,0.09,0.961,0.18
	l-0.154,0.871c-0.166-0.078-0.385-0.141-0.717-0.141c-0.963,0-1.205,0.832-1.205,1.793v0.334H28.551z M32.678,29.443h-1.615v3.344
	c0,0.77,0.219,1.205,0.846,1.205c0.309,0,0.488-0.025,0.654-0.076l0.051,0.859c-0.217,0.076-0.564,0.152-1,0.152
	c-0.525,0-0.947-0.178-1.217-0.473c-0.309-0.348-0.436-0.898-0.436-1.629v-3.383H29v-0.859h0.961v-1.154l1.102-0.332v1.486h1.615
	V29.443z"/>
<path d="M17.188,0H3.299c-1.77,0-3.205,1.435-3.205,3.205v10.683c0,1.771,1.435,3.205,3.205,3.205h13.888
	c1.769,0,3.205-1.434,3.205-3.205h0.001V3.205C20.393,1.435,18.958,0,17.188,0z M15.03,9.242h-3.11l2.199,2.198
	c0.317,0.315,0.353,0.794,0.082,1.064c-0.271,0.272-0.748,0.235-1.064-0.082l-2.199-2.198v3.108c0,0.449-0.311,0.813-0.695,0.813
	c-0.384,0-0.696-0.364-0.696-0.813v-3.108l-2.199,2.198c-0.315,0.317-0.792,0.354-1.064,0.081c-0.271-0.271-0.234-0.748,0.082-1.063
	l2.199-2.2H5.456c-0.448,0-0.811-0.312-0.811-0.696c0-0.383,0.363-0.693,0.811-0.693h3.11l-2.2-2.2
	C6.05,5.335,6.013,4.858,6.284,4.586c0.272-0.271,0.748-0.234,1.065,0.082l2.199,2.2v-3.11c0-0.447,0.312-0.811,0.696-0.811
	c0.384,0,0.695,0.364,0.695,0.811v3.11l2.198-2.199c0.316-0.316,0.794-0.353,1.065-0.082c0.271,0.272,0.235,0.748-0.082,1.065
	l-2.199,2.199h3.111c0.448,0,0.811,0.311,0.809,0.694C15.841,8.931,15.478,9.242,15.03,9.242z"/>
</svg>
