<?xml version="1.0" encoding="utf-8"?>
<svg version="1.1"
	 xmlns="http://www.w3.org/2000/svg" x="0px" y="0px" width="48px" height="48px" viewBox="-6.262 -3.277 48 48">
<defs>
</defs>
<rect x="15.188" y="10.948" width="12.84" height="2.875"/>
<rect x="21.85" y="27.268" width="6.179" height="2.877"/>
<path d="M19.875,22.329l-9.947-4.931L0,22.329v9.873c0,5.105,4.139,9.244,9.244,9.244h1.387c5.104,0,9.244-4.139,9.244-9.244V22.329
	z M10.437,38.543H9.438c-3.676,0-6.654-2.98-6.654-6.654v-7.982l7.146-3.211l7.163,3.229v7.965
	C17.091,35.563,14.111,38.543,10.437,38.543"/>
<polygon points="6.229,32.465 6.229,28.852 8.891,31.512 13.646,23.907 13.646,27.518 8.891,34.936 "/>
<path d="M8.275,0v15.304l1.648-0.741l1.815,0.818V3.506h20.275v33.789H21.059c-0.522,1.313-1.289,2.498-2.243,3.508h16.661V0H8.275z
	"/>
<polygon points="20.006,19.108 21.85,19.939 21.85,21.985 28.028,21.985 28.028,19.108 "/>
</svg>
