<?xml version="1.0" encoding="utf-8"?>
<!DOCTYPE svg PUBLIC "-//W3C//DTD SVG 1.1//EN" "http://www.w3.org/Graphics/SVG/1.1/DTD/svg11.dtd" [
	<!ENTITY ns_flows "http://ns.adobe.com/Flows/1.0/">
]>
<svg version="1.1"
	 xmlns="http://www.w3.org/2000/svg" x="0px" y="0px" width="48px" height="48px" viewBox="-6.583 -5.19 48 48">
<path d="M4.885,36.618c0.933-0.447,3.359-1.953,3.22-5.474L8.092,18.119H3.555c-2.468,0-3.466,1.999-3.466,4.466v9.567
	c0,2.467,1.998,4.466,4.466,4.466C4.652,36.618,4.771,36.618,4.885,36.618z"/>
<path d="M34.745,30.866V0H10.02v33.152c0,1.986-1.306,3.887-3.101,4.466h20.627c0,0,4.154,0.106,5.729-2.025
	C34.742,33.604,34.745,30.866,34.745,30.866z M18.488,29.467l-3.504,5.465l-1.961-1.823v-2.661l1.961,1.96l3.504-5.604V29.467z
	 M21.226,23.353H12.56v-1.5h8.666V23.353z M21.226,19.353H12.56v-1.5h8.666V19.353z M21.226,15.352H12.56v-1.5h8.666V15.352z
	 M32.226,17.852v1.5H23.56v-1.5H32.226z M23.56,15.352v-1.5h8.666v1.5H23.56z M32.226,21.853v1.5H23.56v-1.5H32.226z M31.365,34.065
	l-2.415-2.416l-2.415,2.415l-1.013-1.011l2.415-2.416l-2.413-2.414l1.013-1.01l2.413,2.412l2.413-2.413l1.012,1.011l-2.414,2.414
	l2.416,2.416L31.365,34.065z M32.546,10.354H12.198V2.913h20.348V10.354z"/>
</svg>
