<?xml version="1.0" encoding="utf-8"?>
<!-- Generator: Adobe Illustrator 15.0.0, SVG Export Plug-In  -->
<!DOCTYPE svg PUBLIC "-//W3C//DTD SVG 1.1//EN" "http://www.w3.org/Graphics/SVG/1.1/DTD/svg11.dtd" [
	<!ENTITY ns_flows "http://ns.adobe.com/Flows/1.0/">
]>
<svg version="1.1"
	 xmlns="http://www.w3.org/2000/svg" xmlns:xlink="http://www.w3.org/1999/xlink" xmlns:a="http://ns.adobe.com/AdobeSVGViewerExtensions/3.0/"
	 x="0px" y="0px" width="36px" height="36px" viewBox="-2.276 -0.932 36 36"
	 xml:space="preserve">
<defs>
</defs>
<path d="M4.352,33.228c1.196-0.209,3.047-1.772,2.921-4.967l-0.011-11.82H3.145C0.906,16.441,0,18.256,0,20.494v8.683
	c0,2.237,1.813,4.052,4.052,4.052C4.14,33.228,4.25,33.228,4.352,33.228z"/>
<path d="M31.447,28.008V0H9.012v30.083c0,1.801-1.186,3.527-2.814,4.052h18.716c0,0,3.771,0.096,5.199-1.837
	C31.443,30.493,31.447,28.008,31.447,28.008z M19.18,21.192h-7.864v-1.361h7.864V21.192z M19.18,17.562h-7.864v-1.361h7.864V17.562z
	 M19.18,13.932h-7.864v-1.36h7.864V13.932z M29.16,16.201v1.361h-7.862v-1.361H29.16z M21.298,13.932v-1.36h7.862v1.36H21.298z
	 M29.16,19.831v1.361h-7.862v-1.361H29.16z M29.451,9.395H10.988V2.644h18.463V9.395z"/>
</svg>
