<?xml version="1.0" encoding="utf-8"?>
<!-- Generator: Adobe Illustrator 15.0.0, SVG Export Plug-In  -->
<!DOCTYPE svg PUBLIC "-//W3C//DTD SVG 1.1//EN" "http://www.w3.org/Graphics/SVG/1.1/DTD/svg11.dtd" [
	<!ENTITY ns_flows "http://ns.adobe.com/Flows/1.0/">
]>
<svg version="1.1"
	 xmlns="http://www.w3.org/2000/svg" x="0px" y="0px" width="36px" height="36px" viewBox="0 0 36 36" xml:space="preserve">
<defs>
</defs>
<path d="M30.602,28.959l-3.633-3.685c-0.307-0.313-0.729-0.418-1.133-0.361l-2.047-2.093c-0.066-0.059-0.143-0.097-0.213-0.134
	c2.369-2.892,2.158-7.163-0.582-9.8c-2.879-2.774-7.466-2.688-10.24,0.195c-2.774,2.88-2.685,7.468,0.195,10.241
	c2.609,2.508,6.611,2.668,9.402,0.539c0.047,0.095,0.102,0.187,0.182,0.261l2.174,2.222c0.029,0.293,0.137,0.583,0.357,0.81
	l3.633,3.683c0.518,0.525,1.363,0.53,1.891,0.015C31.113,30.329,31.119,29.484,30.602,28.959z M17.901,23.167
	c-2.808,0-5.084-2.276-5.084-5.084c0-2.808,2.276-5.084,5.084-5.084s5.083,2.276,5.083,5.084
	C22.984,20.891,20.709,23.167,17.901,23.167z"/>
<ellipse transform="matrix(-0.1803 0.9836 -0.9836 -0.1803 35.5765 5.2866)" cx="15.585" cy="17.467" rx="1.324" ry="0.795"/>
<path d="M21.899,26.899c-1.194,0.524-2.511,0.819-3.899,0.819c-5.366,0-9.718-4.351-9.718-9.718c0-5.368,4.352-9.72,9.718-9.72
	c5.371,0,9.72,4.352,9.718,9.72c0,1.536-0.366,2.983-1,4.274l5.114,4.85l1.082-1.867c0.402-0.691,0.169-1.578-0.523-1.982
	l-1.896-1.104c0.273-0.844,0.47-1.707,0.566-2.579l2.201-0.188c0.799-0.067,1.393-0.77,1.323-1.568l-0.204-2.446
	c-0.068-0.799-0.771-1.392-1.568-1.325l-2.242,0.189c-0.362-1.179-0.895-2.318-1.6-3.377l1.623-1.61
	c0.568-0.564,0.571-1.484,0.008-2.052l-1.73-1.743c-0.564-0.574-1.484-0.576-2.053-0.011l-1.666,1.655
	c-0.727-0.467-1.481-0.854-2.266-1.165l0.418-2.333c0.144-0.788-0.383-1.543-1.17-1.684L19.717,1.5
	c-0.789-0.143-1.542,0.382-1.686,1.17l-0.429,2.393c-0.835,0.032-1.661,0.142-2.478,0.332l-1.026-2.22
	c-0.336-0.728-1.199-1.043-1.925-0.709L9.945,3.499C9.217,3.834,8.902,4.697,9.237,5.423l1.035,2.238
	C9.795,8.02,9.33,8.401,8.896,8.833C8.731,8.996,8.591,9.167,8.438,9.335L6.305,8.094C5.611,7.69,4.723,7.926,4.319,8.62
	l-1.234,2.122c-0.404,0.691-0.168,1.581,0.524,1.984l2.117,1.229c-0.266,0.798-0.453,1.61-0.561,2.435l-2.428,0.206
	c-0.8,0.067-1.39,0.768-1.323,1.566l0.207,2.448c0.065,0.798,0.768,1.392,1.565,1.324l2.371-0.199
	c0.336,1.164,0.844,2.291,1.514,3.347l-1.666,1.651c-0.568,0.564-0.571,1.484-0.006,2.054l1.731,1.741
	c0.565,0.568,1.482,0.572,2.051,0.009l1.621-1.611c0.729,0.494,1.497,0.904,2.29,1.234l-0.398,2.219
	c-0.142,0.789,0.382,1.543,1.17,1.687l2.418,0.436c0.789,0.143,1.543-0.385,1.685-1.172l0.393-2.186
	c0.88-0.019,1.753-0.127,2.614-0.318l0.926,2c0.336,0.727,1.197,1.041,1.927,0.709l2.229-1.031c0.13-0.061,0.242-0.143,0.345-0.233
	L21.899,26.899z"/>
</svg>
