<?xml version="1.0" encoding="utf-8"?>
<!-- Generator: Adobe Illustrator 15.0.0, SVG Export Plug-In  -->
<!DOCTYPE svg PUBLIC "-//W3C//DTD SVG 1.1//EN" "http://www.w3.org/Graphics/SVG/1.1/DTD/svg11.dtd" [
	<!ENTITY ns_flows "http://ns.adobe.com/Flows/1.0/">
]>
<svg version="1.1"
	 xmlns="http://www.w3.org/2000/svg" x="0px" y="0px" width="28px" height="28px" viewBox="-1.003 -2.568 28 28"
	 xml:space="preserve">
<defs>
</defs>
<path d="M7.083,9.17c-0.741,0.742-1.604,1.184-2.355,1.29c0.12,0.232,0.266,0.453,0.459,0.647l11.199,11.2
	c1.023,1.021,2.172,0.512,3.193-0.512c1.023-1.023,1.533-2.171,0.512-3.193L8.894,7.403C8.727,7.237,8.541,7.107,8.345,6.995
	C8.196,7.702,7.766,8.489,7.083,9.17z"/>
<path d="M1.484,2.464c-0.106-0.106-0.278-0.106-0.384,0L0.976,2.59c-0.18,0.03-0.353,0.097-0.492,0.235
	C0.346,2.964,0.277,3.138,0.248,3.317L0.08,3.486c-0.106,0.106-0.106,0.277,0,0.383c0.078,0.078,0.191,0.097,0.288,0.06
	c0.037,0.06,0.064,0.123,0.116,0.174l4.471,4.471C5.006,8.626,5.07,8.655,5.13,8.692c0.14-0.27,0.326-0.536,0.568-0.778
	C5.895,7.719,6.105,7.56,6.32,7.432c-0.03-0.046-0.049-0.096-0.089-0.135L1.761,2.825C1.702,2.765,1.627,2.729,1.557,2.69
	C1.566,2.609,1.546,2.526,1.484,2.464z"/>
<path d="M4.703,22.403c-0.407,0.405-1.065,0.405-1.472,0l0,0c-0.406-0.405-0.406-1.063,0-1.472l4.866-4.865l1.472,1.471
	L4.703,22.403z"/>
<path d="M24.526,1.468c-2.201-2.204-6.09-1.89-8.679,0.7c-1.824,1.824-2.514,4.288-1.997,6.356v1.886l1.823,1.732h1.795
	c2.069,0.519,4.534-0.171,6.358-1.995C26.416,7.558,26.73,3.671,24.526,1.468z M23.027,9.349c-1.963,1.964-4.846,2.269-6.645,0.797
	l-0.537-0.538c-1.472-1.797-1.164-4.678,0.799-6.642c2.073-2.072,5.182-2.323,6.944-0.56C25.352,4.169,25.1,7.277,23.027,9.349z"/>
<circle cx="22.141" cy="15.402" r="2.686"/>
</svg>
