<?xml version="1.0" encoding="utf-8"?>
<!-- Generator: Adobe Illustrator 15.0.0, SVG Export Plug-In  -->
<!DOCTYPE svg PUBLIC "-//W3C//DTD SVG 1.1//EN" "http://www.w3.org/Graphics/SVG/1.1/DTD/svg11.dtd" [
	<!ENTITY ns_flows "http://ns.adobe.com/Flows/1.0/">
]>
<svg version="1.1"
	 xmlns="http://www.w3.org/2000/svg" x="0px" y="0px" width="28px" height="28px" viewBox="-2.723 -1.219 28 28"
	 xml:space="preserve">
<defs>
</defs>
<path d="M12.033,25.105c-4.305-0.912-6.432-0.693-9.325-1.832c-3.686-1.453-3.625-6.223,0.283-7.14
	c1.276-0.301,2.597,0.333,2.597,0.333s0.148-1.943,0.422-2.585c1.154-2.698,6.598-3.404,6.812,2.315
	C13.019,21.509,12.033,25.105,12.033,25.105z"/>
<path d="M22.554,12.674V1.935c0-0.075-0.018-0.146-0.021-0.224c-1.149,1.07-2.686,1.619-4.381,1.619
	c-1.693,0-3.229-0.549-4.382-1.619c-0.003,0.076-0.021,0.147-0.021,0.224v10.739c0,2.189,1.644,3.975,3.759,4.243v7.356h-2.47
	c-0.354,0-0.646,0.287-0.646,0.646c0,0.354,0.291,0.644,0.646,0.644h6.228c0.357,0,0.646-0.289,0.646-0.644
	c0-0.357-0.289-0.646-0.646-0.646h-2.469v-7.356C20.911,16.648,22.554,14.863,22.554,12.674z M18.624,15.456h-0.995
	c-1.636-0.207-2.906-1.588-2.906-3.281V2.68c1.066,0.624,2.303,0.987,3.629,0.987c1.141,0,2.239-0.415,3.198-0.888
	c0.003,0.49-0.018,1.063-0.018,1.089v8.307C21.532,13.868,20.261,15.249,18.624,15.456z"/>
<path d="M17.685,11.817c0,0,2.719-2.891,3.482-6.459c0,0-0.766,4.674-2.126,6.627L17.685,11.817z"/>
<path d="M18.151,0.425c1.422,0,2.724,0.397,3.779,1.165h0.5C21.302,0.54,19.792,0,18.129,0c-1.667,0-3.175,0.54-4.306,1.591h0.545
	C15.425,0.822,16.731,0.425,18.151,0.425z"/>
</svg>
