<?xml version="1.0" encoding="utf-8"?>
<!-- Generator: Adobe Illustrator 15.0.0, SVG Export Plug-In  -->
<!DOCTYPE svg PUBLIC "-//W3C//DTD SVG 1.1//EN" "http://www.w3.org/Graphics/SVG/1.1/DTD/svg11.dtd" [
	<!ENTITY ns_flows "http://ns.adobe.com/Flows/1.0/">
]>
<svg version="1.1"
	 xmlns="http://www.w3.org/2000/svg" x="0px" y="0px" width="48px" height="48px" viewBox="-2.185 -2.005 48 48">
<defs>
</defs>
<polygon points="21.514,18.215 19.995,18.215 18.604,10.841 20.949,7.325 22.999,10.841 "/>
<polygon points="20.51,23.366 19.173,22.579 12.572,29.292 11.803,34.477 16.172,31.813 "/>
<circle cx="20.802" cy="20.802" r="1.904"/>
<path d="M21.935,38.176c-0.376,0.025-0.75,0.059-1.132,0.059c-9.628,0-17.434-7.807-17.434-17.433
	c0-9.628,7.806-17.433,17.434-17.433c9.627,0,17.434,7.805,17.434,17.433c0,0.558-0.033,1.108-0.084,1.653
	c1.309,0.664,2.475,1.56,3.451,2.635V5.86c0-3.236-2.623-5.86-5.859-5.86H5.859C2.623,0,0,2.624,0,5.86v29.885
	c0,3.236,2.623,5.859,5.859,5.859h18.478C23.344,40.62,22.536,39.458,21.935,38.176z"/>
<path d="M33.456,23.637c-5.621,0-10.177,4.557-10.177,10.178c0,5.617,4.556,10.174,10.177,10.174
	c5.617,0,10.174-4.557,10.174-10.174C43.629,28.194,39.073,23.637,33.456,23.637z M30.508,39.596l-4.539-4.381l1.328-1.602
	l3.211,3.098l8.32-8.623l1.439,1.389L30.508,39.596z"/>
</svg>
