<?xml version="1.0" encoding="utf-8"?>
<svg version="1.1"
	 xmlns="http://www.w3.org/2000/svg" x="0px" y="0px" width="28px" height="28px" viewBox="-2.292 -1.531 28 28">
<defs>
</defs>
<path d="M11.787,4.141c-1.14,0.12-1.12-1.43-0.906-1.813C11.458,1.297,11.708,1,11.571,0c0,0,0.918,1.015,1.095,1.852
	C12.802,2.5,13.006,4.136,11.787,4.141z"/>
<path d="M22.589,10.055c0.011-0.061,0.036-0.115,0.036-0.179c0-0.609-0.494-1.104-1.104-1.104h-8.679v-4.07h-2.272v4.07H1.895
	c-0.609,0-1.104,0.494-1.104,1.104c0,0.025,0.012,0.045,0.014,0.069c-0.288,0.355-0.46,0.772-0.46,1.222
	c0,1.271,1.325,2.301,2.96,2.301c1.298,0,2.39-0.655,2.788-1.561c0.341,0.978,1.479,1.7,2.846,1.7c1.321,0,2.428-0.677,2.808-1.607
	c0.361,0.954,1.482,1.655,2.826,1.655c1.289,0,2.373-0.646,2.779-1.539c0.422,0.87,1.494,1.491,2.762,1.491
	c1.634,0,2.959-1.029,2.959-2.299C23.071,10.846,22.893,10.417,22.589,10.055z"/>
<path d="M22.977,23.907c-0.468-0.429-0.994-0.501-1.162-0.513c0.541-0.543,0.875-1.291,0.875-2.117v-2.835
	c-0.394,0.768-1.473,1.165-2.576,1.165c-1.268,0-2.34-0.313-2.762-1.184c-0.406,0.894-1.49,1.23-2.779,1.23
	c-1.344,0-2.465-0.277-2.826-1.23c-0.38,0.929-1.487,1.184-2.808,1.184c-1.367,0-2.505-0.206-2.846-1.184
	c-0.398,0.905-1.49,1.044-2.788,1.044c-1.094,0-2.06-0.351-2.562-1.044c-0.006-0.008-0.01-0.028-0.015-0.042v2.896
	c0,0.824,0.333,1.57,0.871,2.113H1.472c0,0-0.469,0-1.033,0.609s-0.423,0.938-0.423,0.938l23.383-0.047
	C23.399,24.893,23.541,24.424,22.977,23.907z"/>
<path d="M20.114,14.607c-1.268,0-2.34-0.621-2.762-1.491c-0.406,0.894-1.49,1.539-2.779,1.539c-1.344,0-2.465-0.701-2.826-1.655
	c-0.38,0.93-1.487,1.607-2.808,1.607c-1.367,0-2.505-0.723-2.846-1.7c-0.398,0.905-1.49,1.561-2.788,1.561
	c-0.962,0-1.809-0.362-2.349-0.915c-0.146,0.353-0.228,0.738-0.228,1.143v2.563c0.501,0.716,1.456,1.21,2.577,1.21
	c1.152,0,2.139-0.518,2.625-1.267l0.3,0.002c0.449,0.823,1.485,1.405,2.708,1.405c1.206,0,2.226-0.566,2.685-1.373l0.24,0.003
	c0.446,0.827,1.48,1.417,2.708,1.417c1.213,0,2.236-0.572,2.693-1.385l0.182,0.002c0.47,0.785,1.479,1.336,2.666,1.336
	c1.122,0,2.076-0.496,2.578-1.213v-2.701c0-0.365-0.075-0.711-0.194-1.034C21.958,14.232,21.094,14.607,20.114,14.607z"/>
</svg>
