<?xml version="1.0" encoding="utf-8"?>
<!-- Generator: Adobe Illustrator 15.0.0, SVG Export Plug-In  -->
<!DOCTYPE svg PUBLIC "-//W3C//DTD SVG 1.1//EN" "http://www.w3.org/Graphics/SVG/1.1/DTD/svg11.dtd" [
	<!ENTITY ns_flows "http://ns.adobe.com/Flows/1.0/">
]>
<svg version="1.1"
	 xmlns="http://www.w3.org/2000/svg" xmlns:xlink="http://www.w3.org/1999/xlink" xmlns:a="http://ns.adobe.com/AdobeSVGViewerExtensions/3.0/"
	 x="0px" y="0px" width="28px" height="28px" viewBox="-1.159 -3.465 28 28"
	 xml:space="preserve">
<defs>
</defs>
<path d="M18.552,12.188l3.119-3.248c0,0-4.018-4.017-4.498-4.499c-0.484-0.481-4.338-1.406-4.338-1.406s-1.446-0.482-1.928-0.281
	c-0.482,0.2-1.286,0.522-1.567,1.125C9.059,4.482,7.332,8.257,7.332,8.257S6.85,9.702,8.056,10.186
	c1.205,0.481,1.967-1.085,1.967-1.085l0.603-1.486c0,0,0.41-0.553,1.045-0.684c0.819-0.168,1.351,0.204,1.351,0.204L18.552,12.188z"
	/>
<rect x="16.366" y="2.861" transform="matrix(-0.7109 -0.7033 0.7033 -0.7109 32.9482 22.6176)" width="9.514" height="3.352"/>
<rect x="-0.197" y="3.128" transform="matrix(-0.7109 0.7033 -0.7033 -0.7109 11.1815 5.011)" width="9.515" height="3.352"/>
<path d="M8.861,10.221c-0.113,0.036-0.233,0.056-0.36,0.054c0.004,0,0.008,0.002,0.012,0.002
	C8.636,10.278,8.751,10.256,8.861,10.221z"/>
<path d="M9.993,9.157c0.019-0.035,0.03-0.056,0.03-0.056S10.01,9.126,9.993,9.157z"/>
<path d="M9.286,9.991c0.06-0.044,0.117-0.088,0.169-0.138C9.403,9.902,9.345,9.947,9.286,9.991z"/>
<path d="M8.945,10.184c0.082-0.033,0.162-0.069,0.236-0.116C9.107,10.114,9.027,10.15,8.945,10.184z"/>
<path d="M9.903,9.309c0.029-0.046,0.049-0.081,0.068-0.113C9.953,9.228,9.93,9.266,9.903,9.309z"/>
<path d="M12.889,7.064c0.017,0.008,0.042,0.019,0.056,0.026C12.928,7.081,12.912,7.076,12.889,7.064z"/>
<path d="M12.594,6.959c0.041,0.011,0.083,0.022,0.119,0.035C12.674,6.98,12.638,6.971,12.594,6.959z"/>
<path d="M9.754,9.521c0.037-0.049,0.069-0.093,0.099-0.138C9.823,9.427,9.79,9.473,9.754,9.521z"/>
<path d="M9.68,9.613C9.64,9.663,9.595,9.711,9.549,9.76C9.596,9.71,9.64,9.663,9.68,9.613z"/>
<path d="M12.175,6.896c0.057,0.002,0.108,0.009,0.161,0.016C12.282,6.905,12.233,6.898,12.175,6.896z"/>
<path d="M11.439,16.76c-0.416-0.428-1.09-0.433-1.576-0.054c0.391-0.476,0.406-1.15-0.009-1.578
	c-0.416-0.428-1.091-0.432-1.577-0.054c0.393-0.475,0.408-1.148-0.008-1.577c-0.418-0.428-1.094-0.432-1.581-0.051
	c0.396-0.475,0.411-1.153-0.005-1.581c-0.449-0.461-1.206-0.45-1.693,0.023l-1.294,1.258c-0.487,0.473-0.519,1.23-0.071,1.69
	c0.417,0.429,1.092,0.434,1.578,0.054c-0.394,0.474-0.41,1.151,0.007,1.579c0.417,0.429,1.092,0.432,1.578,0.052
	C6.395,16.996,6.38,17.673,6.796,18.1c0.417,0.43,1.095,0.433,1.58,0.051c-0.396,0.475-0.412,1.152,0.005,1.58
	c0.448,0.461,1.206,0.453,1.693-0.021l1.294-1.258C11.856,17.979,11.887,17.22,11.439,16.76z"/>
<path d="M4.651,11.085c0.413-0.356,0.926-0.559,1.467-0.559c0.352,0,0.684,0.091,0.984,0.247C6.149,10.028,6.117,8.741,6.383,7.94
	L6.4,7.89l0.022-0.049c0,0,0.688-1.503,1.267-2.766l-3.73,3.76C3.568,9.23,3.552,9.847,3.922,10.214L4.651,11.085z"/>
<path d="M13.005,17.582c-0.009,0.6-0.254,1.164-0.69,1.586l-0.265,0.258l0.656,0.651c0.37,0.368,0.982,0.35,1.367-0.037l0.314-0.315
	c0.383-0.39,0.396-1,0.025-1.369l-1.537-1.524C12.961,17.068,13.009,17.32,13.005,17.582z"/>
<path d="M12.426,7.949c-0.063-0.026-0.178-0.062-0.333-0.062c-0.072,0-0.146,0.008-0.22,0.023c-0.144,0.029-0.294,0.147-0.383,0.234
	L10.95,9.477l-0.013,0.031l-0.015,0.03c-0.087,0.178-0.89,1.739-2.409,1.739c-0.278,0-0.557-0.055-0.83-0.163
	c-0.103-0.041-0.183-0.097-0.272-0.147c0.082,0.063,0.165,0.125,0.238,0.201c0.291,0.299,0.475,0.664,0.55,1.053
	c0.393,0.088,0.75,0.286,1.037,0.58c0.289,0.297,0.472,0.662,0.548,1.05c0.394,0.088,0.751,0.286,1.037,0.581
	c0.289,0.297,0.472,0.663,0.548,1.05c0.084,0.02,0.159,0.063,0.24,0.092l-0.013-0.013h0l0.013,0.013
	c0.295,0.106,0.571,0.259,0.795,0.488c0.215,0.222,0.371,0.484,0.472,0.769l1.537,1.525c0.371,0.369,0.982,0.353,1.369-0.037
	l0.313-0.315c0.383-0.387,0.395-1,0.025-1.367l-2.817-2.796h0l2.818,2.796c0.369,0.367,0.982,0.351,1.367-0.036l0.313-0.316
	c0.385-0.389,0.395-1,0.027-1.367l-2.818-2.797l0,0l2.818,2.796c0.369,0.367,0.982,0.351,1.365-0.037l0.217-0.218L12.426,7.949z"/>
</svg>
