<?xml version="1.0" encoding="utf-8"?>
<!-- Generator: Adobe Illustrator 15.0.0, SVG Export Plug-In  -->
<!DOCTYPE svg PUBLIC "-//W3C//DTD SVG 1.1//EN" "http://www.w3.org/Graphics/SVG/1.1/DTD/svg11.dtd" [
	<!ENTITY ns_flows "http://ns.adobe.com/Flows/1.0/">
]>
<svg version="1.1"
	 xmlns="http://www.w3.org/2000/svg" x="0px" y="0px" width="48px" height="48px" viewBox="-2.082 -4.888 48 48">
<defs>
</defs>
<path d="M15.084,24.604c0-3.158,0.971-6.089,2.626-8.515h-1.375v-8.97h10.372v2.78c0.895-0.213,1.822-0.342,2.771-0.388V7.119H39.85
	v5.817c1.094,0.904,2.057,1.962,2.861,3.136V2.19c0-1.21-0.98-2.19-2.189-2.19h-2.191v0.547c0,1.21-0.98,2.191-2.189,2.191H6.572
	c-1.21,0-2.19-0.981-2.19-2.191V0H2.19C0.98,0,0,0.98,0,2.19v27.926c0,1.211,0.98,2.191,2.19,2.191h15.019
	C15.868,30.047,15.084,27.42,15.084,24.604z M13.566,27.862H3.195v-8.969h10.371V27.862z M13.566,16.089H3.195v-8.97h10.371V16.089z
	"/>
<path d="M30.215,10.987c-7.519,0-13.618,6.097-13.618,13.617c0,7.521,6.099,13.619,13.618,13.619
	c7.521,0,13.621-6.098,13.621-13.619C43.836,17.084,37.737,10.987,30.215,10.987z M33.512,27.944l-2.381-1.051
	c-0.01,0.008-0.021,0.018-0.031,0.025l0.092,3.201h-2.105l0.053-3.125c-0.512-0.285-0.869-0.793-0.947-1.396l-7.024-3.096
	l0.569-1.277l6.968,2.808c0.141-0.144,0.307-0.259,0.488-0.352l0.186-11.1h1.313l0.318,11.156c0.545,0.326,0.912,0.914,0.92,1.596
	l2.318,0.934L33.512,27.944z"/>
</svg>
