<?xml version="1.0" encoding="utf-8"?>
<svg version="1.1"
	 xmlns="http://www.w3.org/2000/svg" x="0px" y="0px" width="48px" height="48px" viewBox="-2.758 -4.526 48 48">
<defs>
</defs>
<path d="M1.035,34.851c1.509,1.319,4.627,2.432,8.701,3.164L6.52,27.923L1.035,34.851z"/>
<path d="M23.072,38.919c4.008-0.107,7.674-0.534,10.705-1.184l-0.497,0.067l-0.666,0.089l-5.139-8.905l-4.326,9.76l0.09,0.162
	l-0.163,0.003L23.072,38.919z"/>
<path d="M38.376,27.789l-4.273,9.635l0.132,0.216c4.085-0.925,6.895-2.271,7.629-3.802L38.376,27.789z"/>
<path d="M22.889,38.914l-0.681,0.013h-0.813l-4.995-9.897l-4.62,9.308c2.8,0.387,5.938,0.61,9.271,0.61
	c0.63,0,1.25-0.011,1.866-0.026L22.889,38.914z"/>
<path d="M27.263,26.235l6.036,9.874l4.856-11.083l3.92,6.413v-9.261C39.852,24.129,34.282,25.658,27.263,26.235z"/>
<path d="M0.024,22.179v10.549c0,0,0,0.21,0,0.317c0,0.296,0.103,0.584,0.252,0.868l6.686-8.781l3.856,12.313l5.331-11.114
	C8.516,25.845,2.385,24.249,0.024,22.179z"/>
<path d="M21.05,26.485c-1.661,0-3.277-0.053-4.833-0.15l6.159,11.027l4.876-11.127C25.284,26.397,23.204,26.485,21.05,26.485z"/>
<path d="M21.05,13.322c-11.612,0-21.025,2.643-21.025,5.902c0,3.259,9.413,5.902,21.025,5.902c11.611,0,21.025-2.643,21.025-5.902
	C42.075,15.964,32.661,13.322,21.05,13.322z M16.697,21.463c-5.448,0-9.866-1.279-9.866-2.858c0-1.578,4.418-2.858,9.866-2.858
	c5.449,0,9.866,1.28,9.866,2.858C26.563,20.184,22.146,21.463,16.697,21.463z"/>
<path d="M42.484,11.728l-19.573-2.27C22.55,8.18,20.82,7.06,18.617,6.803c-2.59-0.299-4.834,0.708-5.012,2.249
	c-0.181,1.542,1.775,3.034,4.364,3.334c2.204,0.255,4.144-0.439,4.787-1.601l19.572,2.27L42.484,11.728z"/>
<path d="M0,9.446l17.929-5.797c0.1-1.266,1.512-2.641,3.53-3.294c2.372-0.769,4.665-0.243,5.122,1.167
	c0.457,1.413-1.096,3.177-3.468,3.945c-2.02,0.654-3.97,0.364-4.792-0.604l-17.929,5.8L0,9.446z"/>
</svg>
