<?xml version="1.0" encoding="utf-8"?>
<!-- Generator: Adobe Illustrator 15.0.0, SVG Export Plug-In  -->
<!DOCTYPE svg PUBLIC "-//W3C//DTD SVG 1.1//EN" "http://www.w3.org/Graphics/SVG/1.1/DTD/svg11.dtd" [
	<!ENTITY ns_flows "http://ns.adobe.com/Flows/1.0/">
]>
<svg version="1.1"
	 xmlns="http://www.w3.org/2000/svg" x="0px" y="0px" width="48px" height="48px" viewBox="-6.234 -2.412 48 48"
	 xml:space="preserve">
<defs>
</defs>
<path d="M32.215,2.178h-5.338v0.513c0,1.833-1.484,3.318-3.319,3.318h-11.07c-1.832,0-3.318-1.485-3.318-3.318V2.178H3.318
	C1.486,2.178,0,3.664,0,5.497V39.86c0,1.832,1.486,3.316,3.318,3.316h28.897c1.832,0,3.316-1.484,3.316-3.316V5.497
	C35.534,3.664,34.047,2.178,32.215,2.178z M28.215,27.831c0,0-0.211,5.465-1.473,6.938c-1.262,1.471-8.832,2.102-8.832,2.102H6.558
	V8.906h21.657V27.831z"/>
<path d="M25.36,2.452c0,1.354-1.175,2.452-2.629,2.452h-9.93c-1.451,0-2.628-1.098-2.628-2.452l0,0C10.174,1.098,11.351,0,12.802,0
	h9.93C24.186,0,25.36,1.098,25.36,2.452L25.36,2.452z"/>
</svg>
