<?xml version="1.0" encoding="utf-8"?>
<svg version="1.1"
	 xmlns="http://www.w3.org/2000/svg" x="0px" y="0px" width="28px" height="28px" viewBox="-1.839 -1.129 28 28">
<defs>
</defs>
<path d="M19.867,25.334l4.439-0.227c0.209-5.951-1.707-11.813-5.229-16.219C15.275,4.13,8.979,0.677,2.106,0L1.373,4.239
	c5.575,0.516,10.906,3.138,14.294,7.376C18.678,15.386,20.104,20.372,19.867,25.334z"/>
<path d="M11.798,25.742l4.349-0.219c0.312-4.01-0.819-8.123-3.51-11.491c-3.019-3.78-7.387-5.85-11.902-6.109L0,12.156
	c3.506,0.081,6.932,1.639,9.271,4.568C11.381,19.361,12.164,22.611,11.798,25.742z"/>
<path d="M7.2,21.391c-0.275,1.588-1.786,2.652-3.375,2.381c-1.589-0.277-2.654-1.789-2.378-3.377
	c0.275-1.588,1.786-2.653,3.375-2.379C6.411,18.291,7.476,19.802,7.2,21.391z"/>
</svg>
