<?xml version="1.0" encoding="utf-8"?>
<!-- Generator: Adobe Illustrator 15.0.0, SVG Export Plug-In  -->
<!DOCTYPE svg PUBLIC "-//W3C//DTD SVG 1.1//EN" "http://www.w3.org/Graphics/SVG/1.1/DTD/svg11.dtd" [
	<!ENTITY ns_flows "http://ns.adobe.com/Flows/1.0/">
]>
<svg version="1.1"
	 xmlns="http://www.w3.org/2000/svg" x="0px" y="0px" width="28px" height="28px" viewBox="-1.971 -1.156 28 28">
<defs>
</defs>
<path d="M23.939,4.601c-0.037-0.107-0.09-0.204-0.143-0.302l0.109-0.038c-2.646-3.079-8.119-4.151-13.651-2.407L9.625,0L8.807,0.278
	l0.629,1.854c-5.163,1.892-8.737,5.753-9.291,9.603c-0.174,0.483-0.2,1.007-0.028,1.512c0.438,1.273,1.94,1.916,3.358,1.432
	c1.033-0.354,1.73-1.21,1.866-2.141c0.671,0.723,1.799,1.012,2.881,0.641c1.141-0.39,1.865-1.39,1.886-2.429
	c0.619,0.546,1.529,0.757,2.438,0.539l4.89,14.399l0.819-0.278L13.35,10.967c0.733-0.431,1.228-1.126,1.336-1.885
	c0.682,0.587,1.701,0.805,2.688,0.467c1.14-0.39,1.864-1.387,1.886-2.425c0.666,0.738,1.805,1.039,2.897,0.665
	C23.579,7.304,24.375,5.876,23.939,4.601z"/>
<path d="M13.02,20.482c0.001-0.035,0.009-0.067,0.009-0.103c0-0.354-0.084-0.683-0.219-0.978c0.557-0.096,0.918-0.235,0.918-0.394
	c0-0.179-0.452-0.337-1.141-0.431v-1.133H9.631v1.137c-0.674,0.094-1.117,0.25-1.117,0.427c0,0.156,0.352,0.295,0.896,0.391
	c-0.136,0.295-0.221,0.625-0.221,0.98c0,0.035,0.008,0.067,0.01,0.103H6.764l1.391,4.865h6.014l1.286-4.865H13.02z"/>
</svg>
