<?xml version="1.0" encoding="utf-8"?>
<!-- Generator: Adobe Illustrator 16.0.0, SVG Export Plug-In . SVG Version: 6.00 Build 0)  -->
<!DOCTYPE svg PUBLIC "-//W3C//DTD SVG 1.1//EN" "http://www.w3.org/Graphics/SVG/1.1/DTD/svg11.dtd">
<svg version="1.1" id="Layer_1" xmlns="http://www.w3.org/2000/svg" xmlns:xlink="http://www.w3.org/1999/xlink" x="0px" y="0px"
	 width="48px" height="48px" viewBox="13 -7.5 48 48" enable-background="new 13 -7.5 48 48" xml:space="preserve">
<path fill="#56CAF5" d="M56.795,27.152c0,5.044,0.485,9.134-4.563,9.134H21.774c-5.042,0-4.569-4.088-4.569-9.134V5.844
	c0-5.044-0.473-9.13,4.569-9.13h30.458c5.045,0,4.563,4.086,4.563,9.13V27.152L56.795,27.152z"/>
<polygon fill="#FFFFFF" points="46.7,13.931 39.565,13.931 39.565,6.79 34.429,6.79 34.429,13.931 27.299,13.931 27.299,19.076 
	34.429,19.076 34.429,26.201 39.565,26.201 39.565,19.076 46.7,19.076 "/>
<path fill="#FFFFFF" d="M17.903,7.592l10.183,28.003l28.009-10.182L45.915-2.602L17.903,7.592z M52.275,23.633l-22.407,8.14
	L21.723,9.371l22.407-8.15L52.275,23.633z"/>
</svg>
