<?xml version="1.0" encoding="utf-8"?>
<!-- Generator: Adobe Illustrator 16.0.0, SVG Export Plug-In . SVG Version: 6.00 Build 0)  -->
<!DOCTYPE svg PUBLIC "-//W3C//DTD SVG 1.1//EN" "http://www.w3.org/Graphics/SVG/1.1/DTD/svg11.dtd">
<svg version="1.1" id="Layer_1" xmlns="http://www.w3.org/2000/svg" xmlns:xlink="http://www.w3.org/1999/xlink" x="0px" y="0px"
	 width="48px" height="48px" viewBox="0 0 48 48" enable-background="new 0 0 48 48" xml:space="preserve">
<g>
	<path d="M8.724,16.875l8.146,22.402l22.407-8.141L31.131,8.725L8.724,16.875z M33.701,26.58h-7.137v7.125H21.43V26.58h-7.131
		v-5.145h7.131v-7.141h5.134v7.141h7.137V26.58z"/>
	<path d="M43.795,34.652V13.344c0-5.044,0.482-9.13-4.563-9.13H8.773c-5.042,0-4.569,4.086-4.569,9.13v21.309
		c0,5.046-0.473,9.134,4.569,9.134h30.459C44.279,43.786,43.795,39.695,43.795,34.652z M15.087,43.099L4.903,15.096L32.916,4.901
		l10.181,28.016L15.087,43.099z"/>
</g>
</svg>
