<?xml version="1.0" encoding="utf-8"?>
<!-- Generator: Adobe Illustrator 16.0.0, SVG Export Plug-In . SVG Version: 6.00 Build 0)  -->
<!DOCTYPE svg PUBLIC "-//W3C//DTD SVG 1.1//EN" "http://www.w3.org/Graphics/SVG/1.1/DTD/svg11.dtd">
<svg version="1.1" id="Layer_1" xmlns="http://www.w3.org/2000/svg" xmlns:xlink="http://www.w3.org/1999/xlink" x="0px" y="0px"
	 width="48px" height="48px" viewBox="13 -7.5 48 48" enable-background="new 13 -7.5 48 48" xml:space="preserve">
<path fill="#E6E7E8" d="M54.984,23.32c0.696,4.506,1.681,8.094-2.822,8.789l-27.191,4.188c-4.506,0.693-4.646-3.033-5.34-7.531
	L16.703,9.732c-0.69-4.504-1.68-8.094,2.829-8.784l27.185-4.19c4.511-0.687,4.647,3.027,5.337,7.533L54.984,23.32z"/>
<path fill="#52CAF5" d="M57.646,26.156c0,4.555,0.429,8.252-4.131,8.252H26.009c-4.563,0-4.131-3.697-4.131-8.252V6.899
	c0-4.559-0.432-8.254,4.131-8.254h27.506c4.56,0,4.13,3.695,4.13,8.254L57.646,26.156L57.646,26.156z"/>
<polygon fill="#F1F2F2" points="51.514,13.837 42.874,13.837 42.874,5.189 36.649,5.189 36.649,13.837 28.006,13.837 28.006,20.061 
	36.649,20.061 36.649,28.699 42.874,28.699 42.874,20.061 51.514,20.061 "/>
</svg>
 