<?xml version="1.0" encoding="utf-8"?>
<!-- Generator: Adobe Illustrator 16.0.0, SVG Export Plug-In . SVG Version: 6.00 Build 0)  -->
<!DOCTYPE svg PUBLIC "-//W3C//DTD SVG 1.1//EN" "http://www.w3.org/Graphics/SVG/1.1/DTD/svg11.dtd">
<svg version="1.1" id="Layer_1" xmlns="http://www.w3.org/2000/svg" xmlns:xlink="http://www.w3.org/1999/xlink" x="0px" y="0px"
	 width="48px" height="48px" viewBox="0 0 48 48" enable-background="new 0 0 48 48" xml:space="preserve">
<g>
	<path d="M3.706,30.61l4.186,0.808c0.211,0.044,0.359,0.091,0.441,0.153c0.086,0.059,0.146,0.147,0.187,0.269
		c0.049,0.153,0.036,0.307-0.036,0.45C8.41,32.441,8.3,32.537,8.154,32.587c-0.097,0.031-0.259,0.021-0.485-0.021L1.43,31.353
		l4.326-4.66c0.157-0.166,0.283-0.266,0.376-0.297c0.148-0.047,0.299-0.032,0.442,0.041c0.147,0.077,0.246,0.188,0.297,0.342
		c0.041,0.12,0.043,0.228,0.009,0.327c-0.034,0.099-0.124,0.225-0.271,0.382L3.706,30.61z"/>
	<path d="M11.356,27.623c-0.213-0.055-0.429-0.077-0.643-0.067s-0.427,0.051-0.64,0.116c-0.426,0.141-0.737,0.318-0.941,0.535
		c-0.09,0.101-0.124,0.186-0.103,0.254c0.027,0.083,0.13,0.139,0.304,0.17c0.133,0.019,0.403-0.011,0.815-0.087
		c0.761-0.135,1.296-0.201,1.615-0.191c0.415,0.009,0.77,0.11,1.056,0.305c0.287,0.194,0.479,0.436,0.573,0.723
		c0.125,0.393,0.062,0.779-0.197,1.151c-0.37,0.542-0.952,0.94-1.743,1.199c-0.314,0.103-0.618,0.173-0.903,0.205
		c-0.288,0.031-0.563,0.027-0.82-0.004c-0.038,0.063-0.083,0.116-0.137,0.161c-0.052,0.046-0.11,0.081-0.173,0.101
		c-0.171,0.059-0.326,0.043-0.465-0.036c-0.138-0.08-0.25-0.251-0.335-0.512l-0.119-0.373c-0.085-0.262-0.098-0.467-0.031-0.611
		c0.066-0.144,0.18-0.243,0.344-0.297c0.13-0.043,0.255-0.045,0.366,0c0.113,0.046,0.222,0.149,0.33,0.31
		c0.214,0.089,0.451,0.133,0.708,0.126c0.261-0.004,0.542-0.054,0.85-0.151c0.502-0.166,0.864-0.373,1.093-0.616
		c0.104-0.123,0.146-0.224,0.118-0.309c-0.047-0.146-0.18-0.232-0.396-0.264c-0.221-0.028-0.635,0.021-1.249,0.145
		c-0.907,0.195-1.552,0.207-1.934,0.041c-0.384-0.161-0.636-0.437-0.759-0.817c-0.126-0.392-0.066-0.77,0.179-1.138
		c0.334-0.503,0.862-0.874,1.588-1.109c0.255-0.083,0.506-0.136,0.755-0.165c0.248-0.027,0.495-0.027,0.742,0.003
		c0.049-0.07,0.104-0.131,0.151-0.171c0.054-0.045,0.103-0.076,0.15-0.095c0.149-0.045,0.294-0.031,0.43,0.05
		c0.135,0.076,0.246,0.249,0.332,0.512l0.088,0.271c0.077,0.237,0.103,0.409,0.072,0.512c-0.061,0.202-0.188,0.332-0.384,0.396
		c-0.13,0.045-0.261,0.04-0.386-0.01C11.53,27.832,11.43,27.747,11.356,27.623z"/>
	<path d="M16.999,24.585c0.09-0.17,0.205-0.274,0.344-0.319c0.157-0.052,0.303-0.036,0.441,0.04c0.138,0.081,0.246,0.25,0.333,0.511
		l0.229,0.702c0.085,0.266,0.097,0.468,0.031,0.61c-0.064,0.146-0.181,0.244-0.343,0.297c-0.15,0.051-0.289,0.047-0.422-0.004
		c-0.096-0.041-0.196-0.151-0.306-0.338c-0.104-0.182-0.257-0.297-0.454-0.337c-0.344-0.078-0.737-0.045-1.188,0.104
		c-0.516,0.167-0.881,0.454-1.095,0.857c-0.212,0.401-0.241,0.837-0.092,1.299c0.14,0.428,0.397,0.718,0.777,0.868
		c0.38,0.146,0.917,0.11,1.61-0.117c0.455-0.146,0.813-0.313,1.07-0.5c0.152-0.111,0.283-0.265,0.392-0.452
		c0.107-0.186,0.225-0.299,0.35-0.338c0.151-0.051,0.298-0.035,0.441,0.035c0.146,0.076,0.24,0.188,0.29,0.338
		c0.078,0.241-0.013,0.525-0.271,0.854c-0.386,0.482-1.052,0.881-1.999,1.187c-0.853,0.277-1.57,0.317-2.16,0.121
		c-0.794-0.265-1.325-0.812-1.595-1.63c-0.254-0.783-0.204-1.51,0.148-2.191c0.354-0.681,0.949-1.155,1.787-1.431
		c0.302-0.1,0.594-0.16,0.869-0.188C16.472,24.534,16.738,24.542,16.999,24.585z"/>
	<path d="M20.471,23.237l0.222,0.683c0.351-0.48,0.643-0.818,0.871-1.016c0.229-0.198,0.46-0.337,0.689-0.414
		c0.356-0.112,0.744-0.094,1.167,0.062c0.285,0.104,0.457,0.249,0.52,0.431c0.052,0.157,0.037,0.307-0.035,0.452
		c-0.069,0.146-0.186,0.24-0.338,0.29c-0.137,0.045-0.301,0.021-0.496-0.062c-0.192-0.086-0.348-0.113-0.465-0.073
		c-0.152,0.05-0.352,0.222-0.594,0.513c-0.241,0.29-0.527,0.702-0.857,1.234l0.538,1.65l1.562-0.508
		c0.264-0.086,0.467-0.096,0.609-0.031c0.146,0.063,0.246,0.181,0.298,0.346c0.055,0.157,0.041,0.308-0.041,0.444
		c-0.076,0.141-0.246,0.25-0.513,0.338l-3.307,1.073c-0.263,0.086-0.467,0.099-0.611,0.032c-0.146-0.063-0.245-0.181-0.3-0.343
		c-0.052-0.157-0.038-0.31,0.041-0.443c0.079-0.141,0.249-0.252,0.514-0.338l0.652-0.211l-0.867-2.665l-0.396,0.13
		c-0.266,0.087-0.467,0.1-0.613,0.031c-0.144-0.063-0.242-0.178-0.297-0.341c-0.053-0.162-0.039-0.311,0.039-0.45
		c0.08-0.135,0.251-0.247,0.517-0.332L20.471,23.237z"/>
	<path d="M26.709,21.2l1.223,3.758l1.314-0.426c0.263-0.087,0.465-0.101,0.613-0.032c0.144,0.063,0.244,0.175,0.298,0.341
		c0.053,0.162,0.038,0.311-0.041,0.446c-0.081,0.139-0.25,0.251-0.513,0.335l-3.725,1.215c-0.26,0.085-0.467,0.098-0.611,0.03
		c-0.146-0.064-0.246-0.18-0.3-0.344c-0.052-0.159-0.038-0.307,0.044-0.446c0.075-0.138,0.247-0.247,0.512-0.332l1.314-0.43
		l-0.867-2.664l-0.884,0.289c-0.258,0.084-0.461,0.097-0.608,0.031c-0.146-0.063-0.246-0.178-0.299-0.342
		c-0.055-0.162-0.039-0.31,0.038-0.45c0.08-0.135,0.253-0.247,0.517-0.333L26.709,21.2z M25.883,19.175l0.379,1.16l-1.305,0.423
		l-0.377-1.157L25.883,19.175z"/>
	<path d="M31.659,24.289l0.583,1.792l0.658-0.212c0.263-0.085,0.467-0.1,0.611-0.031c0.146,0.063,0.244,0.178,0.299,0.343
		c0.051,0.155,0.039,0.307-0.041,0.444c-0.078,0.139-0.248,0.251-0.513,0.337l-1.94,0.631c-0.264,0.087-0.465,0.098-0.612,0.034
		c-0.144-0.067-0.242-0.181-0.294-0.342c-0.055-0.162-0.042-0.313,0.041-0.451c0.081-0.143,0.25-0.251,0.511-0.336l0.188-0.059
		l-1.61-4.953l-0.188,0.063c-0.266,0.084-0.468,0.099-0.615,0.031c-0.145-0.063-0.243-0.178-0.299-0.342
		c-0.051-0.16-0.037-0.309,0.043-0.448c0.08-0.136,0.25-0.248,0.514-0.333l1.283-0.417l0.119,0.372
		c0.199-0.258,0.424-0.476,0.668-0.649c0.248-0.178,0.517-0.31,0.806-0.407c0.748-0.242,1.466-0.193,2.159,0.144
		c0.691,0.333,1.141,0.827,1.355,1.482c0.235,0.723,0.12,1.421-0.351,2.095c-0.39,0.561-0.912,0.947-1.567,1.163
		c-0.277,0.09-0.57,0.139-0.871,0.144C32.294,24.396,31.984,24.359,31.659,24.289z M34.294,21.351
		c-0.049-0.153-0.174-0.329-0.373-0.526c-0.196-0.197-0.448-0.337-0.75-0.414c-0.303-0.076-0.624-0.059-0.962,0.054
		c-0.543,0.176-0.912,0.521-1.1,1.033c-0.123,0.355-0.145,0.661-0.06,0.917c0.095,0.296,0.343,0.528,0.744,0.701
		c0.399,0.175,0.832,0.188,1.29,0.041c0.463-0.151,0.807-0.416,1.023-0.79C34.332,21.993,34.393,21.65,34.294,21.351z"/>
	<path d="M37.191,18.997l0.715,2.195c0.076,0.234,0.178,0.373,0.298,0.422c0.187,0.068,0.476,0.036,0.86-0.09
		c0.558-0.18,1.035-0.466,1.429-0.863c0.155-0.149,0.28-0.24,0.384-0.273c0.143-0.046,0.283-0.036,0.422,0.035
		c0.141,0.072,0.233,0.187,0.283,0.342c0.048,0.143,0.031,0.283-0.05,0.422c-0.12,0.225-0.412,0.492-0.882,0.8
		c-0.471,0.31-0.879,0.517-1.229,0.634c-0.684,0.22-1.24,0.243-1.677,0.058c-0.437-0.184-0.724-0.488-0.863-0.915l-0.784-2.409
		l-0.391,0.128c-0.266,0.087-0.471,0.099-0.616,0.033c-0.144-0.065-0.243-0.181-0.298-0.342c-0.051-0.162-0.039-0.309,0.042-0.449
		c0.079-0.14,0.248-0.253,0.515-0.337l0.394-0.126l-0.323-0.989c-0.087-0.266-0.096-0.47-0.027-0.616
		c0.063-0.144,0.178-0.243,0.342-0.297c0.16-0.054,0.308-0.041,0.447,0.041c0.137,0.079,0.248,0.25,0.334,0.514l0.323,0.987
		l2.021-0.657c0.266-0.089,0.472-0.099,0.613-0.033c0.146,0.064,0.245,0.18,0.301,0.343c0.052,0.157,0.039,0.309-0.043,0.445
		c-0.078,0.139-0.25,0.251-0.516,0.337L37.191,18.997z"/>
	<path d="M44.298,17.386l-4.187-0.809c-0.213-0.041-0.358-0.09-0.443-0.152c-0.083-0.059-0.146-0.148-0.188-0.27
		c-0.049-0.152-0.035-0.302,0.039-0.449c0.074-0.146,0.187-0.243,0.336-0.292c0.09-0.032,0.252-0.022,0.478,0.015l6.237,1.218
		l-4.323,4.657c-0.157,0.17-0.283,0.27-0.374,0.299c-0.15,0.048-0.299,0.038-0.443-0.038c-0.147-0.074-0.246-0.19-0.298-0.346
		c-0.04-0.121-0.042-0.229-0.01-0.328c0.034-0.099,0.124-0.223,0.271-0.381L44.298,17.386z"/>
</g>
</svg>
