<?xml version="1.0" encoding="utf-8"?>
<!-- Generator: Adobe Illustrator 16.0.0, SVG Export Plug-In . SVG Version: 6.00 Build 0)  -->
<!DOCTYPE svg PUBLIC "-//W3C//DTD SVG 1.1//EN" "http://www.w3.org/Graphics/SVG/1.1/DTD/svg11.dtd">
<svg version="1.1" id="Layer_1" xmlns="http://www.w3.org/2000/svg" xmlns:xlink="http://www.w3.org/1999/xlink" x="0px" y="0px"
	 width="48px" height="48px" viewBox="2.5 -7.5 48 48" enable-background="new 2.5 -7.5 48 48" xml:space="preserve">
<g>
	<path fill="#FCB51E" d="M6.206,23.11l4.186,0.808c0.211,0.044,0.359,0.091,0.441,0.153c0.086,0.059,0.146,0.148,0.187,0.269
		c0.049,0.153,0.036,0.306-0.036,0.45c-0.074,0.151-0.184,0.247-0.329,0.297c-0.097,0.031-0.259,0.021-0.486-0.02L3.93,23.852
		l4.326-4.66c0.157-0.166,0.283-0.265,0.376-0.297c0.149-0.047,0.299-0.032,0.442,0.041c0.148,0.077,0.247,0.189,0.297,0.342
		c0.041,0.12,0.043,0.228,0.009,0.327s-0.124,0.225-0.271,0.382L6.206,23.11z"/>
	<path fill="#FCB51E" d="M13.857,20.123c-0.213-0.055-0.429-0.077-0.643-0.068c-0.214,0.01-0.427,0.051-0.64,0.117
		c-0.425,0.14-0.737,0.318-0.941,0.535c-0.09,0.1-0.124,0.185-0.102,0.254c0.027,0.083,0.129,0.138,0.303,0.17
		c0.133,0.018,0.404-0.011,0.816-0.087c0.76-0.135,1.296-0.201,1.615-0.192c0.415,0.009,0.769,0.111,1.056,0.305
		s0.479,0.436,0.573,0.723c0.125,0.392,0.061,0.779-0.197,1.151c-0.371,0.542-0.953,0.94-1.744,1.199
		c-0.314,0.103-0.618,0.173-0.903,0.205c-0.288,0.032-0.562,0.028-0.82-0.004c-0.038,0.063-0.083,0.117-0.137,0.162
		c-0.052,0.046-0.11,0.081-0.173,0.1c-0.171,0.059-0.326,0.043-0.465-0.036c-0.137-0.08-0.25-0.251-0.335-0.512l-0.119-0.373
		c-0.085-0.261-0.097-0.467-0.031-0.611s0.18-0.243,0.344-0.297c0.13-0.043,0.255-0.045,0.366,0c0.113,0.046,0.222,0.149,0.33,0.31
		c0.214,0.088,0.451,0.132,0.708,0.126c0.261-0.004,0.542-0.054,0.85-0.152c0.502-0.166,0.864-0.373,1.092-0.616
		c0.104-0.123,0.146-0.224,0.119-0.309c-0.047-0.145-0.18-0.232-0.397-0.263c-0.221-0.029-0.635,0.02-1.249,0.144
		c-0.907,0.196-1.552,0.207-1.934,0.041c-0.383-0.161-0.635-0.436-0.758-0.817c-0.126-0.392-0.067-0.77,0.178-1.138
		c0.334-0.503,0.863-0.874,1.588-1.109c0.255-0.083,0.506-0.136,0.755-0.165c0.248-0.028,0.495-0.028,0.742,0.003
		c0.049-0.071,0.104-0.131,0.152-0.171c0.053-0.045,0.102-0.076,0.15-0.095c0.15-0.045,0.294-0.031,0.43,0.05
		c0.135,0.076,0.246,0.249,0.332,0.512l0.088,0.27c0.077,0.237,0.102,0.409,0.072,0.512c-0.061,0.202-0.188,0.332-0.384,0.396
		c-0.13,0.045-0.261,0.04-0.386-0.009C14.031,20.332,13.93,20.247,13.857,20.123z"/>
	<path fill="#FCB51E" d="M19.499,17.085c0.09-0.17,0.205-0.274,0.344-0.319c0.157-0.052,0.303-0.036,0.441,0.04
		c0.138,0.081,0.247,0.25,0.333,0.511l0.229,0.702c0.085,0.266,0.097,0.468,0.031,0.611c-0.064,0.146-0.18,0.244-0.343,0.297
		c-0.15,0.05-0.289,0.046-0.421-0.004c-0.096-0.041-0.197-0.152-0.306-0.338c-0.104-0.182-0.257-0.297-0.454-0.337
		c-0.344-0.078-0.738-0.045-1.188,0.103c-0.515,0.167-0.881,0.454-1.094,0.858c-0.212,0.401-0.242,0.837-0.092,1.299
		c0.139,0.427,0.397,0.717,0.777,0.868c0.38,0.146,0.917,0.11,1.61-0.117c0.456-0.147,0.813-0.314,1.071-0.5
		c0.152-0.112,0.283-0.265,0.391-0.453c0.108-0.185,0.225-0.298,0.35-0.337c0.151-0.051,0.298-0.036,0.441,0.035
		c0.146,0.076,0.241,0.188,0.29,0.338c0.079,0.241-0.012,0.525-0.271,0.853c-0.386,0.483-1.052,0.881-1.999,1.187
		c-0.853,0.277-1.57,0.317-2.16,0.121c-0.794-0.265-1.325-0.812-1.595-1.63c-0.254-0.783-0.204-1.51,0.148-2.192
		c0.354-0.68,0.95-1.155,1.788-1.43c0.301-0.1,0.593-0.16,0.869-0.188C18.972,17.034,19.239,17.042,19.499,17.085z"/>
	<path fill="#FCB51E" d="M22.971,15.737l0.222,0.683c0.35-0.48,0.642-0.818,0.871-1.016c0.229-0.198,0.459-0.337,0.689-0.414
		c0.357-0.112,0.744-0.094,1.167,0.062c0.285,0.104,0.457,0.249,0.519,0.431c0.052,0.157,0.038,0.307-0.034,0.452
		c-0.07,0.146-0.186,0.24-0.339,0.29c-0.136,0.045-0.301,0.021-0.495-0.062c-0.193-0.086-0.348-0.113-0.465-0.073
		c-0.153,0.05-0.352,0.222-0.594,0.513c-0.241,0.29-0.527,0.701-0.857,1.234l0.538,1.65l1.561-0.508
		c0.263-0.086,0.466-0.095,0.61-0.031c0.146,0.063,0.245,0.181,0.297,0.346c0.055,0.157,0.041,0.307-0.041,0.444
		c-0.076,0.141-0.246,0.25-0.512,0.338l-3.307,1.073c-0.263,0.086-0.467,0.099-0.611,0.032c-0.146-0.063-0.245-0.18-0.3-0.342
		c-0.052-0.158-0.038-0.31,0.041-0.444c0.079-0.14,0.249-0.252,0.514-0.338l0.652-0.211l-0.867-2.665l-0.396,0.13
		c-0.265,0.087-0.467,0.1-0.613,0.032c-0.144-0.063-0.242-0.178-0.297-0.341c-0.053-0.162-0.039-0.311,0.039-0.45
		c0.08-0.135,0.251-0.247,0.517-0.332L22.971,15.737z"/>
	<path fill="#FCB51E" d="M29.209,13.7l1.223,3.758l1.314-0.426c0.263-0.087,0.465-0.101,0.614-0.032
		c0.143,0.063,0.244,0.175,0.297,0.341c0.053,0.162,0.038,0.31-0.041,0.446c-0.081,0.139-0.25,0.251-0.513,0.335l-3.724,1.215
		c-0.26,0.085-0.467,0.097-0.612,0.03c-0.145-0.064-0.245-0.18-0.299-0.344c-0.052-0.159-0.038-0.306,0.043-0.446
		c0.076-0.138,0.248-0.247,0.512-0.332l1.315-0.43l-0.867-2.663l-0.884,0.289c-0.258,0.084-0.461,0.097-0.608,0.031
		c-0.146-0.063-0.247-0.178-0.299-0.342c-0.055-0.162-0.04-0.31,0.038-0.45c0.08-0.135,0.252-0.247,0.516-0.333L29.209,13.7z
		 M28.383,11.675l0.378,1.16l-1.304,0.423l-0.377-1.157L28.383,11.675z"/>
	<path fill="#FCB51E" d="M34.159,16.789l0.583,1.792l0.658-0.212c0.263-0.085,0.467-0.1,0.612-0.031
		c0.145,0.063,0.244,0.177,0.299,0.342c0.051,0.156,0.038,0.307-0.041,0.445s-0.249,0.251-0.513,0.337l-1.941,0.631
		c-0.263,0.086-0.464,0.097-0.612,0.034c-0.144-0.068-0.242-0.181-0.294-0.342c-0.055-0.162-0.042-0.314,0.041-0.451
		c0.081-0.143,0.25-0.251,0.511-0.336l0.188-0.059l-1.61-4.952l-0.188,0.063c-0.266,0.084-0.468,0.099-0.616,0.031
		c-0.144-0.063-0.243-0.178-0.298-0.342c-0.051-0.16-0.037-0.309,0.042-0.448c0.081-0.136,0.251-0.248,0.514-0.333l1.283-0.417
		l0.12,0.372c0.198-0.258,0.423-0.476,0.668-0.649c0.247-0.178,0.516-0.31,0.805-0.407c0.748-0.242,1.466-0.193,2.159,0.144
		c0.691,0.333,1.141,0.827,1.356,1.482c0.235,0.723,0.12,1.421-0.351,2.095c-0.39,0.561-0.912,0.947-1.567,1.163
		c-0.278,0.09-0.57,0.139-0.872,0.144C34.794,16.896,34.484,16.859,34.159,16.789z M36.794,13.851
		c-0.049-0.153-0.174-0.329-0.373-0.526c-0.197-0.197-0.449-0.337-0.75-0.414c-0.303-0.076-0.624-0.059-0.962,0.054
		c-0.543,0.176-0.912,0.521-1.099,1.033c-0.123,0.355-0.145,0.661-0.06,0.917c0.094,0.296,0.343,0.528,0.744,0.701
		c0.4,0.175,0.832,0.188,1.29,0.041c0.463-0.151,0.806-0.416,1.024-0.79C36.832,14.493,36.893,14.15,36.794,13.851z"/>
	<path fill="#FCB51E" d="M39.692,11.497l0.714,2.195c0.077,0.234,0.178,0.373,0.298,0.422c0.186,0.068,0.475,0.036,0.86-0.09
		c0.558-0.18,1.036-0.466,1.429-0.863c0.156-0.149,0.28-0.24,0.384-0.273c0.142-0.046,0.283-0.036,0.422,0.035
		c0.141,0.072,0.233,0.187,0.283,0.342c0.048,0.143,0.031,0.283-0.05,0.422c-0.12,0.225-0.412,0.492-0.881,0.8
		c-0.471,0.31-0.88,0.517-1.229,0.634c-0.683,0.22-1.24,0.243-1.677,0.058c-0.436-0.184-0.723-0.488-0.863-0.915l-0.785-2.409
		l-0.39,0.128c-0.266,0.087-0.471,0.099-0.616,0.033c-0.144-0.065-0.243-0.181-0.298-0.342c-0.051-0.162-0.039-0.309,0.042-0.449
		c0.079-0.14,0.248-0.253,0.514-0.337l0.394-0.126L37.92,9.773c-0.087-0.266-0.096-0.47-0.028-0.616
		c0.063-0.144,0.178-0.243,0.342-0.297c0.16-0.054,0.308-0.041,0.447,0.041c0.137,0.079,0.249,0.25,0.334,0.514l0.324,0.987
		l2.021-0.657c0.265-0.089,0.471-0.099,0.613-0.033c0.146,0.064,0.245,0.18,0.3,0.343c0.052,0.157,0.039,0.309-0.042,0.445
		c-0.079,0.139-0.25,0.251-0.516,0.337L39.692,11.497z"/>
	<path fill="#FCB51E" d="M46.798,9.886l-4.186-0.809c-0.213-0.041-0.359-0.09-0.444-0.152c-0.083-0.059-0.146-0.148-0.187-0.27
		c-0.049-0.152-0.036-0.302,0.039-0.449c0.074-0.146,0.186-0.243,0.336-0.292c0.09-0.032,0.252-0.022,0.477,0.015l6.237,1.218
		l-4.323,4.657c-0.157,0.17-0.283,0.27-0.374,0.299c-0.151,0.048-0.299,0.038-0.443-0.038c-0.148-0.074-0.247-0.19-0.298-0.346
		c-0.04-0.121-0.042-0.229-0.01-0.328c0.034-0.099,0.124-0.223,0.271-0.381L46.798,9.886z"/>
</g>
</svg>
