<?xml version="1.0" encoding="utf-8"?>
<!-- Generator: Adobe Illustrator 16.0.0, SVG Export Plug-In . SVG Version: 6.00 Build 0)  -->
<!DOCTYPE svg PUBLIC "-//W3C//DTD SVG 1.1//EN" "http://www.w3.org/Graphics/SVG/1.1/DTD/svg11.dtd">
<svg version="1.1" id="Layer_1" xmlns="http://www.w3.org/2000/svg" xmlns:xlink="http://www.w3.org/1999/xlink" x="0px" y="0px"
	 width="48px" height="48px" viewBox="0 0 48 48" enable-background="new 0 0 48 48" xml:space="preserve">
<path d="M42.186,13.505L24.408,3.011c-2.728-1.615-6.425-0.407-8.259,2.697L4.197,25.949c-1.839,3.103-1.11,6.93,1.614,8.541
	l17.774,10.5c2.733,1.615,6.429,0.4,8.269-2.709l11.953-20.233C45.639,18.945,44.918,15.118,42.186,13.505z M30.175,32.448h-7.612
	c0,0-8.032-0.306-8.032-8.761c0-7.943,7.919-8.611,7.919-8.611h7.493L29.721,20.3h-7.268c0,0-2.894,0.166-2.894,3.49
	c0,3.467,2.67,3.776,2.67,3.776h7.946V32.448z"/>
</svg>
