<?xml version="1.0" encoding="utf-8"?>
<!-- Generator: Adobe Illustrator 16.0.0, SVG Export Plug-In . SVG Version: 6.00 Build 0)  -->
<!DOCTYPE svg PUBLIC "-//W3C//DTD SVG 1.1//EN" "http://www.w3.org/Graphics/SVG/1.1/DTD/svg11.dtd">
<svg version="1.1" id="Layer_1" xmlns="http://www.w3.org/2000/svg" xmlns:xlink="http://www.w3.org/1999/xlink" x="0px" y="0px"
	 width="48px" height="48px" viewBox="2.5 -7.5 48 48" enable-background="new 2.5 -7.5 48 48" xml:space="preserve">
<path fill="#FFC762" d="M43.796,5.809c-1.061-3.269-3.027-5.775-5.893-7.522c-2.866-1.744-7.01-1.733-12.438,0.037
	c-5.237,1.705-9.137,5.203-11.702,10.504c-2.562,5.291-2.972,10.606-1.234,15.954c1.563,4.802,4.188,8.044,7.863,9.736
	c3.678,1.687,7.593,1.861,11.742,0.504c2.423-0.784,4.665-1.925,6.721-3.408c2.052-1.479,4.348-3.963,6.891-7.43l0.526,0.412
	c-1.738,2.726-3.809,5.108-6.205,7.168c-2.396,2.05-5.077,3.559-8.041,4.525c-5.284,1.716-10.204,1.763-14.765,0.133
	c-4.563-1.63-7.697-5.054-9.4-10.268C5.854,19.987,6.513,14.027,9.84,8.286c3.331-5.742,8.227-9.669,14.69-11.775
	c4.688-1.526,8.883-1.493,12.577,0.093c3.695,1.587,6.212,4.417,7.535,8.486c0.76,2.349,1.036,4.588,0.812,6.709
	c-0.226,2.126-0.855,4.235-1.881,6.305c-1.038,2.073-2.259,3.66-3.675,4.74c-1.418,1.086-2.753,1.834-3.994,2.243
	c-1.426,0.463-2.742,0.477-3.946,0.041c-1.207-0.435-2.04-1.341-2.488-2.719l-0.186,0.009c-0.519,1.75-1.145,3.094-1.881,4.061
	c-0.734,0.957-1.875,1.691-3.417,2.198c-1.602,0.517-3.079,0.452-4.424-0.214c-1.345-0.656-2.294-1.83-2.85-3.521
	c-1.031-3.176-0.618-6.819,1.239-10.934c1.859-4.119,4.566-6.75,8.125-7.909c0.892-0.288,1.728-0.333,2.519-0.128
	c0.789,0.201,1.326,0.749,1.622,1.636c0.022,0.188,0.051,0.325,0.083,0.418l0.179-0.059l0.27-2.942l7.874-2.564
	c-0.157,1.329-0.354,2.993-0.595,4.977c-0.236,1.988-0.511,4.385-0.83,7.194c-0.312,2.815-0.499,4.534-0.556,5.169
	c-0.054,0.627-0.003,1.198,0.157,1.699c0.147,0.447,0.363,0.758,0.651,0.92c0.283,0.175,0.636,0.189,1.05,0.052
	c0.829-0.268,1.624-0.796,2.38-1.587c0.762-0.796,1.546-2.062,2.35-3.828c0.805-1.751,1.279-3.52,1.417-5.309
	C44.785,9.952,44.505,7.976,43.796,5.809z M29.911,11.043c0.025-1.416-0.06-2.437-0.264-3.063c-0.135-0.413-0.338-0.691-0.595-0.839
	c-0.261-0.144-0.598-0.152-1.012-0.013c-0.475,0.149-0.902,0.692-1.286,1.618c-0.382,0.928-0.68,2.066-0.895,3.419
	c-0.214,1.356-0.388,2.475-0.522,3.37c-0.128,0.893-0.204,1.471-0.209,1.743l-0.482,4.979c-0.089,1.147-0.133,2.061-0.135,2.752
	c-0.002,0.693,0.046,1.193,0.154,1.522c0.077,0.241,0.196,0.401,0.353,0.473c0.156,0.08,0.338,0.091,0.546,0.023
	c0.74-0.24,1.441-0.99,2.112-2.239c0.671-1.251,1.088-2.623,1.253-4.122l0.59-4.816c0.074-0.843,0.165-1.71,0.253-2.595
	C29.857,12.373,29.902,11.636,29.911,11.043z"/>
</svg> 
