<?xml version="1.0" encoding="utf-8"?>
<!-- Generator: Adobe Illustrator 16.0.0, SVG Export Plug-In . SVG Version: 6.00 Build 0)  -->
<!DOCTYPE svg PUBLIC "-//W3C//DTD SVG 1.1//EN" "http://www.w3.org/Graphics/SVG/1.1/DTD/svg11.dtd">
<svg version="1.1" id="Layer_1" xmlns="http://www.w3.org/2000/svg" xmlns:xlink="http://www.w3.org/1999/xlink" x="0px" y="0px"
	 width="48px" height="48px" viewBox="0 0 48 48" enable-background="new 0 0 48 48" xml:space="preserve">
<path d="M41.296,13.309c-1.062-3.269-3.026-5.775-5.894-7.522c-2.865-1.744-7.01-1.733-12.437,0.037
	c-5.237,1.705-9.137,5.203-11.702,10.504c-2.562,5.291-2.972,10.606-1.234,15.954c1.563,4.802,4.188,8.044,7.863,9.735
	c3.678,1.688,7.592,1.861,11.741,0.504c2.423-0.783,4.665-1.924,6.722-3.407c2.052-1.479,4.348-3.964,6.891-7.43l0.525,0.411
	c-1.737,2.727-3.809,5.108-6.205,7.168c-2.396,2.051-5.076,3.56-8.041,4.525c-5.283,1.716-10.203,1.763-14.764,0.133
	c-4.563-1.63-7.697-5.054-9.4-10.268C3.354,27.486,4.014,21.526,7.34,15.786c3.331-5.742,8.227-9.669,14.689-11.775
	c4.688-1.526,8.883-1.493,12.578,0.093c3.694,1.587,6.211,4.417,7.535,8.486c0.76,2.349,1.035,4.588,0.812,6.709
	c-0.226,2.126-0.854,4.235-1.881,6.305c-1.038,2.072-2.259,3.66-3.675,4.739c-1.418,1.087-2.754,1.834-3.994,2.243
	c-1.426,0.463-2.742,0.478-3.946,0.041c-1.207-0.435-2.04-1.341-2.487-2.719l-0.187,0.009c-0.519,1.75-1.146,3.094-1.882,4.061
	c-0.733,0.957-1.875,1.691-3.416,2.198c-1.602,0.517-3.079,0.452-4.424-0.214c-1.345-0.656-2.294-1.83-2.85-3.521
	c-1.031-3.175-0.618-6.818,1.239-10.933c1.859-4.119,4.566-6.75,8.125-7.909c0.892-0.288,1.728-0.333,2.519-0.128
	c0.788,0.201,1.325,0.749,1.621,1.636c0.021,0.188,0.051,0.325,0.083,0.418l0.179-0.059l0.271-2.942l7.874-2.564
	c-0.157,1.329-0.354,2.993-0.596,4.977c-0.235,1.988-0.51,4.385-0.829,7.194c-0.312,2.815-0.499,4.534-0.556,5.168
	c-0.055,0.627-0.004,1.198,0.156,1.699c0.146,0.447,0.363,0.758,0.651,0.92c0.282,0.175,0.636,0.189,1.05,0.053
	c0.829-0.269,1.624-0.797,2.38-1.588c0.763-0.796,1.546-2.062,2.351-3.827c0.805-1.751,1.278-3.52,1.416-5.309
	C42.285,17.452,42.005,15.476,41.296,13.309z M27.411,18.542c0.024-1.416-0.06-2.437-0.265-3.063
	c-0.135-0.413-0.338-0.691-0.595-0.839c-0.261-0.144-0.598-0.152-1.012-0.013c-0.476,0.149-0.901,0.692-1.286,1.618
	c-0.382,0.928-0.68,2.066-0.895,3.419c-0.215,1.356-0.389,2.475-0.522,3.37c-0.128,0.893-0.204,1.47-0.209,1.743l-0.481,4.979
	c-0.09,1.147-0.133,2.062-0.135,2.752c-0.003,0.693,0.045,1.193,0.153,1.522c0.077,0.24,0.196,0.4,0.353,0.473
	c0.156,0.08,0.338,0.091,0.547,0.023c0.74-0.24,1.44-0.99,2.111-2.239c0.672-1.251,1.088-2.623,1.254-4.122l0.59-4.815
	c0.073-0.843,0.164-1.71,0.252-2.595C27.357,19.873,27.402,19.135,27.411,18.542z"/>
</svg>
