<?xml version="1.0" encoding="utf-8"?>
<!-- Generator: Adobe Illustrator 16.0.0, SVG Export Plug-In . SVG Version: 6.00 Build 0)  -->
<!DOCTYPE svg PUBLIC "-//W3C//DTD SVG 1.1//EN" "http://www.w3.org/Graphics/SVG/1.1/DTD/svg11.dtd">
<svg version="1.1" id="Layer_1" xmlns="http://www.w3.org/2000/svg" xmlns:xlink="http://www.w3.org/1999/xlink" x="0px" y="0px"
	 width="48px" height="48px" viewBox="2.5 -7.5 48 48" enable-background="new 2.5 -7.5 48 48" xml:space="preserve">
<path fill="#FBB51C" d="M46.976,31.406V1.579c0-2.967-2.414-5.374-5.396-5.374H11.41c-2.981,0-5.386,2.407-5.386,5.374v29.828
	c0,2.979,2.408,5.389,5.386,5.389h30.17C44.562,36.795,46.976,34.385,46.976,31.406z M24.207,25.411l-13.462-13.47
	c-1.26-1.258-1.314-3.25-0.127-4.436c1.184-1.182,3.187-1.127,4.43,0.124l9.159,9.147c1.258,1.269,3.31,1.269,4.567,0l9.151-9.147
	c1.262-1.258,3.266-1.309,4.439-0.124c1.186,1.186,1.135,3.178-0.12,4.436l-13.471,13.47C27.521,26.666,25.457,26.666,24.207,25.411
	z"/>
</svg>
