<?xml version="1.0" encoding="utf-8"?>
<!-- Generator: Adobe Illustrator 16.0.0, SVG Export Plug-In . SVG Version: 6.00 Build 0)  -->
<!DOCTYPE svg PUBLIC "-//W3C//DTD SVG 1.1//EN" "http://www.w3.org/Graphics/SVG/1.1/DTD/svg11.dtd">
<svg version="1.1" id="Layer_1" xmlns="http://www.w3.org/2000/svg" xmlns:xlink="http://www.w3.org/1999/xlink" x="0px" y="0px"
	 width="48px" height="48px" viewBox="0 0 48 48" enable-background="new 0 0 48 48" xml:space="preserve">
<path d="M44.477,38.906V9.079c0-2.967-2.414-5.374-5.396-5.374H8.91c-2.981,0-5.387,2.407-5.387,5.374v29.828
	c0,2.979,2.408,5.389,5.387,5.389h30.17C42.063,44.295,44.477,41.885,44.477,38.906z M21.707,32.91L8.245,19.44
	c-1.261-1.258-1.314-3.25-0.127-4.436c1.184-1.182,3.187-1.127,4.43,0.124l9.159,9.147c1.258,1.27,3.311,1.27,4.566,0l9.151-9.147
	c1.263-1.258,3.267-1.309,4.438-0.124c1.187,1.186,1.136,3.178-0.119,4.436L26.273,32.91C25.021,34.166,22.957,34.166,21.707,32.91z
	"/>
</svg>
