<?xml version="1.0" encoding="utf-8"?>
<!-- Generator: Adobe Illustrator 16.0.0, SVG Export Plug-In . SVG Version: 6.00 Build 0)  -->
<!DOCTYPE svg PUBLIC "-//W3C//DTD SVG 1.1//EN" "http://www.w3.org/Graphics/SVG/1.1/DTD/svg11.dtd">
<svg version="1.1" id="Layer_1" xmlns="http://www.w3.org/2000/svg" xmlns:xlink="http://www.w3.org/1999/xlink" x="0px" y="0px"
	 width="48px" height="48px" viewBox="2.5 -7.5 48 48" enable-background="new 2.5 -7.5 48 48" xml:space="preserve">
<path fill="#FFFFFF" d="M11.752,17.771l-7.516-0.98l-0.461-1.605l5.841-4.813l0.549,1.896l-4.148,3.116l5.192,0.507L11.752,17.771z"
	/>
<path fill="#FFFFFF" d="M20.156,16.546l-1.734,0.501l-0.3-1.036c-0.171,0.485-0.423,0.882-0.76,1.194
	c-0.334,0.309-0.703,0.522-1.102,0.638c-0.81,0.233-1.602,0.108-2.366-0.374c-0.767-0.49-1.32-1.318-1.655-2.487
	c-0.346-1.198-0.324-2.189,0.057-2.973c0.383-0.781,1.002-1.299,1.86-1.549c0.789-0.227,1.569-0.097,2.33,0.391l-1.011-3.505
	l1.869-0.538L20.156,16.546z M14.109,14.304c0.219,0.755,0.48,1.269,0.784,1.544c0.441,0.4,0.931,0.518,1.475,0.363
	c0.423-0.125,0.742-0.412,0.938-0.861c0.193-0.449,0.189-1.046-0.021-1.774c-0.235-0.805-0.548-1.344-0.947-1.62
	c-0.39-0.269-0.819-0.344-1.277-0.208c-0.441,0.121-0.764,0.407-0.958,0.853C13.904,13.036,13.908,13.605,14.109,14.304z"/>
<path fill="#FFFFFF" d="M19.685,8.001l-0.5-1.726l1.869-0.539l0.5,1.729L19.685,8.001z M21.993,16.014l-2.034-7.055l1.869-0.539
	l2.035,7.059L21.993,16.014z"/>
<path fill="#FFFFFF" d="M27.72,14.364l-4.881-6.239l1.963-0.567l2.366,3.223l0.73,1.088c0.013-0.334,0.017-0.553,0.017-0.657
	c0.003-0.214,0.015-0.437,0.025-0.651l0.305-3.994l1.918-0.553l-0.765,7.867L27.72,14.364z"/>
<path fill="#FFFFFF" d="M32.679,11.731l-0.543-1.879l4.135-3.175l-5.184-0.471l-0.542-1.866l7.521,0.957l0.46,1.596L32.679,11.731z"
	/>
<path fill="#FFFFFF" d="M18.669,27.562l-7.513-0.972l-0.465-1.605l5.845-4.821l0.548,1.892l-4.147,3.123l5.192,0.507L18.669,27.562z
	"/>
<path fill="#FFFFFF" d="M19.653,28.659l-0.493-10.765l1.401-0.404l0.467,10.772L19.653,28.659z"/>
<path fill="#FFFFFF" d="M30.854,25.246l-1.729,0.503l-0.3-1.038c-0.171,0.485-0.424,0.884-0.762,1.2
	c-0.336,0.309-0.704,0.521-1.098,0.64c-0.814,0.23-1.602,0.102-2.37-0.383c-0.767-0.494-1.314-1.314-1.653-2.484
	c-0.346-1.195-0.326-2.189,0.055-2.975c0.386-0.783,1.006-1.297,1.863-1.548c0.79-0.227,1.565-0.093,2.327,0.396l-1.011-3.508
	l1.868-0.541L30.854,25.246z M24.813,23.005c0.219,0.755,0.476,1.269,0.78,1.548c0.445,0.396,0.936,0.518,1.475,0.363
	c0.427-0.122,0.74-0.412,0.937-0.865c0.196-0.445,0.193-1.043-0.022-1.77c-0.23-0.811-0.543-1.35-0.94-1.624
	c-0.395-0.271-0.824-0.343-1.277-0.21c-0.446,0.123-0.764,0.413-0.96,0.848C24.606,21.738,24.613,22.308,24.813,23.005z"/>
<path fill="#FFFFFF" d="M30.383,16.707l-0.497-1.728l1.869-0.541l0.496,1.729L30.383,16.707z M32.696,24.717l-2.035-7.057
	l1.87-0.541l2.033,7.057L32.696,24.717z"/>
<path fill="#FFFFFF" d="M38.415,23.066l-4.875-6.238l1.958-0.566l2.364,3.223l0.732,1.092c0.012-0.334,0.022-0.551,0.022-0.66
	c0-0.216,0.007-0.436,0.024-0.652l0.306-3.993l1.918-0.554l-0.765,7.865L38.415,23.066z"/>
<path fill="#FFFFFF" d="M43.382,20.439l-0.544-1.879l4.135-3.181l-5.188-0.473l-0.535-1.864l7.515,0.965l0.46,1.593L43.382,20.439z"
	/>
</svg>
