<?xml version="1.0" encoding="utf-8"?>
<!-- Generator: Adobe Illustrator 16.0.0, SVG Export Plug-In . SVG Version: 6.00 Build 0)  -->
<!DOCTYPE svg PUBLIC "-//W3C//DTD SVG 1.1//EN" "http://www.w3.org/Graphics/SVG/1.1/DTD/svg11.dtd">
<svg version="1.1" id="Layer_1" xmlns="http://www.w3.org/2000/svg" xmlns:xlink="http://www.w3.org/1999/xlink" x="0px" y="0px"
	 width="48px" height="48px" viewBox="0 0 48 48" enable-background="new 0 0 48 48" xml:space="preserve">
<path d="M8.977,25.771l-7.516-0.98L1,23.186l5.841-4.813l0.549,1.896l-4.148,3.116l5.192,0.508L8.977,25.771z"/>
<path d="M17.381,24.546l-1.734,0.501l-0.3-1.036c-0.171,0.485-0.423,0.882-0.76,1.194c-0.334,0.309-0.703,0.521-1.102,0.638
	c-0.81,0.233-1.602,0.108-2.366-0.374c-0.767-0.49-1.32-1.318-1.655-2.486c-0.346-1.198-0.324-2.189,0.057-2.974
	c0.383-0.781,1.002-1.299,1.86-1.549c0.789-0.227,1.569-0.097,2.33,0.391L12.7,15.346l1.869-0.538L17.381,24.546z M11.334,22.304
	c0.219,0.754,0.48,1.269,0.784,1.543c0.441,0.4,0.931,0.519,1.475,0.363c0.423-0.125,0.742-0.412,0.938-0.861
	c0.193-0.449,0.189-1.045-0.021-1.773c-0.235-0.805-0.548-1.344-0.947-1.62c-0.39-0.269-0.819-0.344-1.277-0.208
	c-0.441,0.121-0.764,0.407-0.958,0.853C11.129,21.036,11.133,21.605,11.334,22.304z"/>
<path d="M16.91,16.001l-0.5-1.726l1.869-0.539l0.5,1.729L16.91,16.001z M19.218,24.014l-2.034-7.055l1.869-0.539l2.035,7.059
	L19.218,24.014z"/>
<path d="M24.945,22.364l-4.881-6.239l1.963-0.567l2.366,3.223l0.73,1.088c0.014-0.334,0.018-0.553,0.018-0.657
	c0.002-0.214,0.014-0.437,0.023-0.651l0.307-3.994l1.918-0.553l-0.766,7.867L24.945,22.364z"/>
<path d="M29.904,19.731l-0.543-1.879l4.135-3.175l-5.184-0.471L27.77,12.34l7.521,0.957l0.459,1.596L29.904,19.731z"/>
<path d="M15.894,35.563L8.381,34.59l-0.465-1.605l5.845-4.82l0.548,1.893l-4.147,3.123l5.192,0.506L15.894,35.563z"/>
<path d="M16.878,36.659l-0.493-10.765l1.401-0.404l0.467,10.771L16.878,36.659z"/>
<path d="M28.078,33.246l-1.729,0.503l-0.299-1.038c-0.172,0.484-0.426,0.884-0.764,1.2c-0.336,0.309-0.703,0.521-1.097,0.64
	c-0.814,0.23-1.602,0.102-2.369-0.383c-0.768-0.494-1.314-1.314-1.654-2.484c-0.346-1.194-0.326-2.188,0.055-2.975
	c0.386-0.783,1.006-1.297,1.862-1.548c0.791-0.228,1.565-0.093,2.328,0.396l-1.012-3.508l1.869-0.541L28.078,33.246z M22.038,31.005
	c0.22,0.755,0.477,1.269,0.78,1.548c0.445,0.396,0.937,0.518,1.476,0.363c0.427-0.122,0.74-0.412,0.937-0.865
	c0.195-0.445,0.193-1.043-0.023-1.77c-0.229-0.812-0.543-1.35-0.939-1.624c-0.395-0.271-0.824-0.343-1.277-0.21
	c-0.445,0.123-0.764,0.412-0.959,0.848C21.831,29.738,21.838,30.309,22.038,31.005z"/>
<path d="M27.607,24.707l-0.496-1.729l1.869-0.541l0.496,1.729L27.607,24.707z M29.92,32.717l-2.033-7.057l1.869-0.541l2.033,7.057
	L29.92,32.717z"/>
<path d="M35.641,31.066l-4.875-6.238l1.957-0.566l2.363,3.223l0.732,1.093c0.012-0.334,0.023-0.552,0.023-0.66
	c0-0.216,0.006-0.437,0.023-0.651l0.305-3.994l1.918-0.554l-0.764,7.865L35.641,31.066z"/>
<path d="M40.607,28.439l-0.545-1.879l4.135-3.182l-5.188-0.473l-0.535-1.864l7.516,0.965l0.459,1.593L40.607,28.439z"/>
</svg>
