<?xml version="1.0" encoding="utf-8"?>
<!-- Generator: Adobe Illustrator 16.0.0, SVG Export Plug-In . SVG Version: 6.00 Build 0)  -->
<!DOCTYPE svg PUBLIC "-//W3C//DTD SVG 1.1//EN" "http://www.w3.org/Graphics/SVG/1.1/DTD/svg11.dtd">
<svg version="1.1" id="Layer_1" xmlns="http://www.w3.org/2000/svg" xmlns:xlink="http://www.w3.org/1999/xlink" x="0px" y="0px"
	 width="48px" height="48px" viewBox="0 0 48 48" enable-background="new 0 0 48 48" xml:space="preserve">
<g>
	<rect x="14.448" y="13.383" width="31.383" height="2.729"/>
	<path d="M9.442,14.747c0,2.012-1.626,3.64-3.637,3.64l0,0c-2.012,0-3.636-1.629-3.636-3.64l0,0c0-2.005,1.626-3.638,3.636-3.638
		l0,0C7.816,11.108,9.442,12.742,9.442,14.747L9.442,14.747z"/>
	<rect x="14.448" y="22.644" width="31.383" height="2.73"/>
	<path d="M9.442,24.01c0,2.012-1.626,3.635-3.637,3.635l0,0c-2.012,0-3.636-1.626-3.636-3.635l0,0c0-2.012,1.626-3.637,3.636-3.637
		l0,0C7.816,20.373,9.442,21.998,9.442,24.01L9.442,24.01z"/>
	<rect x="14.448" y="31.892" width="31.383" height="2.729"/>
	<path d="M9.442,33.258c0,2.006-1.626,3.633-3.637,3.633l0,0c-2.012,0-3.636-1.63-3.636-3.633l0,0c0-2.013,1.626-3.643,3.636-3.643
		l0,0C7.816,29.615,9.442,31.245,9.442,33.258L9.442,33.258z"/>
</g>
</svg>
