<?xml version="1.0" encoding="utf-8"?>
<!-- Generator: Adobe Illustrator 16.0.0, SVG Export Plug-In . SVG Version: 6.00 Build 0)  -->
<!DOCTYPE svg PUBLIC "-//W3C//DTD SVG 1.1//EN" "http://www.w3.org/Graphics/SVG/1.1/DTD/svg11.dtd">
<svg version="1.1" id="Layer_1" xmlns="http://www.w3.org/2000/svg" xmlns:xlink="http://www.w3.org/1999/xlink" x="0px" y="0px"
	 width="48px" height="48px" viewBox="0 0 48 48" enable-background="new 0 0 48 48" xml:space="preserve">
<path d="M45.668,20.534c0-7.075-7.469-12.807-16.676-12.807c-9.208,0-16.669,5.73-16.669,12.807c0,4.98,3.709,9.298,9.133,11.406
	l-1.672,8.332l10.251-6.979C38.76,32.875,45.668,27.332,45.668,20.534z"/>
<path d="M19.984,33.771l0.231-1.152c-5.702-2.217-9.601-6.755-9.601-11.991c0-5.529,4.337-10.271,10.536-12.344
	c-0.707-0.07-1.422-0.119-2.154-0.119c-9.203,0-16.665,5.73-16.665,12.807c0,4.98,3.717,9.298,9.133,11.406L9.801,40.71
	L19.984,33.771z"/>
</svg>
