<?xml version="1.0" encoding="utf-8"?>
<!-- Generator: Adobe Illustrator 16.0.0, SVG Export Plug-In . SVG Version: 6.00 Build 0)  -->
<!DOCTYPE svg PUBLIC "-//W3C//DTD SVG 1.1//EN" "http://www.w3.org/Graphics/SVG/1.1/DTD/svg11.dtd">
<svg version="1.1" id="Layer_1" xmlns="http://www.w3.org/2000/svg" xmlns:xlink="http://www.w3.org/1999/xlink" x="0px" y="0px"
	 width="48px" height="48px" viewBox="-13 -14 48 48" enable-background="new -13 -14 48 48" xml:space="preserve">
<g>
	<path fill="#FFFFFF" d="M-1.548,16.313l5.253-0.824C4,17.594,4.82,19.204,6.167,20.331c1.349,1.115,3.23,1.675,5.652,1.675
		c2.441,0,4.25-0.498,5.426-1.491c1.182-0.991,1.772-2.158,1.772-3.494c0-1.197-0.521-2.145-1.562-2.834
		c-0.73-0.467-2.541-1.067-5.433-1.8c-3.893-0.978-6.593-1.832-8.097-2.551C2.423,9.119,1.279,8.127,0.504,6.854
		c-0.778-1.267-1.166-2.669-1.166-4.201c0-1.398,0.318-2.691,0.958-3.883c0.639-1.187,1.51-2.178,2.609-2.964
		c0.831-0.608,1.952-1.126,3.382-1.548c1.425-0.424,2.954-0.637,4.587-0.637c2.458,0,4.618,0.352,6.476,1.063
		c1.859,0.709,3.232,1.667,4.117,2.878c0.885,1.207,1.494,2.828,1.832,4.854l-5.194,0.709c-0.237-1.613-0.921-2.873-2.055-3.777
		c-1.132-0.904-2.728-1.357-4.792-1.357c-2.438,0-4.18,0.403-5.222,1.211c-1.043,0.805-1.563,1.75-1.563,2.83
		c0,0.689,0.217,1.309,0.649,1.86c0.434,0.57,1.111,1.044,2.037,1.415c0.531,0.199,2.095,0.651,4.692,1.357
		c3.755,1.004,6.375,1.826,7.862,2.464c1.479,0.642,2.649,1.567,3.496,2.789c0.848,1.223,1.269,2.735,1.269,4.546
		c0,1.77-0.52,3.438-1.552,5.001c-1.035,1.563-2.523,2.768-4.471,3.629c-1.948,0.854-4.15,1.285-6.61,1.285
		c-4.074,0-7.175-0.848-9.312-2.54C0.406,22.149-0.957,19.64-1.548,16.313z"/>
	<rect x="-10.541" y="7.605" fill="#E6E7E8" width="43.082" height="4.106"/>
</g>
</svg>
