<?xml version="1.0" encoding="utf-8"?>
<!-- Generator: Adobe Illustrator 16.0.0, SVG Export Plug-In . SVG Version: 6.00 Build 0)  -->
<!DOCTYPE svg PUBLIC "-//W3C//DTD SVG 1.1//EN" "http://www.w3.org/Graphics/SVG/1.1/DTD/svg11.dtd">
<svg version="1.1" id="Layer_1" xmlns="http://www.w3.org/2000/svg" xmlns:xlink="http://www.w3.org/1999/xlink" x="0px" y="0px"
	 width="48px" height="48px" viewBox="0 0 48 48" enable-background="new 0 0 48 48" xml:space="preserve">
<g>
	<path d="M25.553,26.646c2.314,0.617,3.795,1.131,4.438,1.541c1.041,0.689,1.563,1.637,1.563,2.834c0,1.336-0.592,2.503-1.773,3.494
		c-1.176,0.992-2.984,1.49-5.426,1.49c-2.421,0-4.302-0.56-5.651-1.674c-1.347-1.127-2.167-2.738-2.462-4.842l-5.253,0.823
		c0.591,3.327,1.954,5.836,4.081,7.524c2.137,1.693,5.238,2.541,9.313,2.541c2.459,0,4.661-0.432,6.61-1.285
		c1.947-0.861,3.436-2.066,4.471-3.629c1.031-1.563,1.553-3.231,1.553-5.002c0-1.471-0.293-2.734-0.853-3.816H25.553z"/>
	<path d="M13.398,21.354h13.486c-0.769-0.22-1.6-0.449-2.499-0.689c-2.598-0.706-4.162-1.158-4.692-1.356
		c-0.926-0.371-1.603-0.846-2.037-1.415c-0.432-0.552-0.649-1.171-0.649-1.86c0-1.08,0.52-2.025,1.563-2.83
		c1.042-0.808,2.784-1.211,5.222-1.211c2.065,0,3.661,0.453,4.792,1.357c1.135,0.903,1.818,2.164,2.057,3.776l5.193-0.709
		c-0.338-2.025-0.947-3.646-1.832-4.854c-0.885-1.211-2.258-2.169-4.117-2.878c-1.857-0.711-4.018-1.063-6.476-1.063
		c-1.633,0-3.162,0.213-4.587,0.637c-1.43,0.423-2.551,0.94-3.382,1.549c-1.099,0.785-1.97,1.776-2.609,2.964
		c-0.64,1.191-0.958,2.484-0.958,3.883c0,1.532,0.388,2.934,1.166,4.201C13.146,21.03,13.277,21.188,13.398,21.354z"/>
</g>
<rect x="2.459" y="21.947" width="43.082" height="4.105"/>
</svg>
