<?xml version="1.0" encoding="utf-8"?>
<!-- Generator: Adobe Illustrator 15.0.0, SVG Export Plug-In  -->
<!DOCTYPE svg PUBLIC "-//W3C//DTD SVG 1.1//EN" "http://www.w3.org/Graphics/SVG/1.1/DTD/svg11.dtd" [
	<!ENTITY ns_flows "http://ns.adobe.com/Flows/1.0/">
]>
<svg version="1.1"
	 xmlns="http://www.w3.org/2000/svg" xmlns:xlink="http://www.w3.org/1999/xlink" xmlns:a="http://ns.adobe.com/AdobeSVGViewerExtensions/3.0/"
	 x="0px" y="0px" width="150px" height="160px" viewBox="-7.205 -17.928 150 160" enable-background="new -7.205 -17.928 150 160"
	 xml:space="preserve">
<defs>
</defs>
<path display="none" fill="#FFFFFF" d="M67.529,64.841c-1.094,0-1.47-0.884-1.802-1.665c-0.307-0.724-0.573-1.35-1.305-1.375
	C64.407,61.8,64.393,61.8,64.378,61.8c-1.568,0-2.702,2.844-2.712,2.874l-0.318-0.124c0.05-0.128,1.264-3.158,3.086-3.089
	c0.949,0.032,1.284,0.82,1.608,1.582c0.318,0.75,0.619,1.459,1.487,1.459c0.778,0,1.012-1.43,1.238-2.814
	c0.272-1.659,0.55-3.38,1.819-3.268c2.252,0.188,3.27,5.978,3.313,6.224l-0.336,0.059c-0.276-1.607-1.354-5.805-3.006-5.942
	c-0.944-0.084-1.207,1.478-1.452,2.984C68.843,63.337,68.597,64.841,67.529,64.841z"/>
<path fill="#F79523" d="M123.602,51.9h-8.922c-0.704-3.191-1.704-6.266-2.991-9.199l7.381-5.166c2.493-1.747,3.096-5.178,1.355-7.67
	l-5.354-7.644c-1.749-2.496-5.181-3.097-7.674-1.353l-7.562,5.295c-2.331-2.144-4.855-4.065-7.567-5.735l3.184-8.728
	c1.039-2.86-0.435-6.021-3.294-7.065l-8.768-3.187c-2.854-1.04-6.014,0.437-7.058,3.292l-3.202,8.802
	c-2.244-0.314-4.514-0.529-6.845-0.529c-0.87,0-1.713,0.084-2.573,0.129l-2.428-9.06c-0.79-2.938-3.808-4.681-6.75-3.895
	l-9.007,2.416c-2.938,0.785-4.681,3.809-3.895,6.749l2.407,8.979c-2.847,1.434-5.527,3.121-8.023,5.056l-7.086-5.944
	c-2.334-1.961-5.806-1.652-7.768,0.68l-5.99,7.146c-1.958,2.325-1.652,5.8,0.679,7.762l6.918,5.802
	c-2.214,4.042-3.858,8.435-4.878,13.065H8.981c-3.042,0-5.512,2.468-5.512,5.508v9.329c0,3.04,2.47,5.509,5.512,5.509h8.676
	c0.646,3.277,1.611,6.438,2.868,9.451l-7.014,4.909c-2.495,1.75-3.098,5.186-1.354,7.673l5.351,7.642
	c1.744,2.498,5.18,3.101,7.673,1.356l6.902-4.839c2.419,2.308,5.068,4.353,7.907,6.142l-2.86,7.865
	c-1.036,2.86,0.437,6.021,3.293,7.061l8.764,3.189c2.862,1.039,6.021-0.435,7.064-3.291l2.836-7.804
	c2.357,0.344,4.747,0.583,7.199,0.583c0.967,0,1.91-0.09,2.859-0.146l2.15,8.025c0.79,2.94,3.813,4.678,6.753,3.894l9.004-2.418
	c2.941-0.79,4.683-3.806,3.897-6.746l-2.156-8.053c3.004-1.535,5.826-3.342,8.431-5.429l6.429,5.389
	c2.333,1.959,5.803,1.651,7.762-0.681l5.994-7.142c1.952-2.328,1.646-5.802-0.679-7.764l-6.547-5.493
	c2.176-4.147,3.792-8.637,4.73-13.375h8.688c3.035,0,5.509-2.469,5.509-5.509v-9.329C129.11,54.368,126.637,51.9,123.602,51.9
	 M66.286,92.765c-16.949,0-30.691-13.741-30.691-30.693c0-16.953,13.742-30.697,30.691-30.697c16.948,0,30.696,13.744,30.696,30.697
	C96.982,79.023,83.234,92.765,66.286,92.765"/>
<path fill="#C8691C" d="M123.602,51.9h-8.922c-0.704-3.191-1.704-6.266-2.991-9.199l7.381-5.166c2.493-1.747,3.096-5.182,1.355-7.67
	l-5.348-7.644c-1.755-2.496-5.187-3.097-7.68-1.353l-7.562,5.295c-2.331-2.144-4.855-4.065-7.56-5.735l3.176-8.728
	c1.039-2.86-0.435-6.021-3.294-7.065l-8.768-3.187c-2.854-1.04-6.014,0.437-7.058,3.292l-3.202,8.802
	c-2.244-0.314-4.514-0.529-6.845-0.529c-0.098,0-0.189,0.012-0.286,0.015v18.362c0.097-0.004,0.188-0.017,0.286-0.017
	c16.948,0,30.696,13.744,30.696,30.697c0,16.952-13.748,30.693-30.696,30.693c-0.098,0-0.189-0.016-0.286-0.019v19.425
	c0.097,0,0.188,0.012,0.286,0.012c0.967,0,1.91-0.09,2.859-0.143l2.15,8.022c0.79,2.937,3.813,4.678,6.753,3.894l9.004-2.418
	c2.941-0.79,4.683-3.806,3.892-6.746l-2.15-8.053c3.004-1.535,5.826-3.342,8.431-5.429l6.429,5.389
	c2.333,1.959,5.803,1.651,7.762-0.681l5.994-7.142c1.952-2.328,1.654-5.802-0.679-7.764l-6.547-5.493
	c2.183-4.147,3.798-8.637,4.73-13.375h8.688c3.035,0,5.509-2.469,5.509-5.509v-9.329C129.11,54.368,126.637,51.9,123.602,51.9"/>
<path fill="#52CAF5" d="M135.59,46.655c0,3.426-2.772,6.2-6.198,6.2H6.197c-3.421,0-6.197-2.773-6.197-6.2
	c0-3.424,2.776-6.199,6.197-6.199h123.194C132.817,40.456,135.59,43.231,135.59,46.655"/>
<path fill="#3E99BA" d="M135.59,46.655c0,3.426-2.772,6.2-6.198,6.2H65.313l0.531-12.399h63.547
	C132.817,40.456,135.59,43.231,135.59,46.655"/>
<path fill="#3588A6" d="M48.615,47.657c0,6.278-5.088,11.365-11.367,11.365c-6.275,0-11.364-5.086-11.364-11.365
	c0-6.274,5.089-11.363,11.364-11.363C43.527,36.293,48.615,41.383,48.615,47.657"/>
<path fill="#52CAF5" d="M135.59,76.066c0,3.426-2.772,6.196-6.198,6.196H6.197C2.776,82.263,0,79.492,0,76.066
	s2.776-6.199,6.197-6.199h123.194C132.817,69.867,135.59,72.641,135.59,76.066"/>
<path fill="#3E99BA" d="M135.59,76.063c0,3.426-2.772,6.199-6.198,6.199H65.313l0.531-12.398h63.547
	C132.817,69.864,135.59,72.637,135.59,76.063"/>
<path fill="#3588A6" d="M84.329,76.063c0,6.274-5.086,11.366-11.359,11.366c-6.28,0-11.367-5.092-11.367-11.366
	s5.087-11.36,11.367-11.36C79.243,64.703,84.329,69.789,84.329,76.063"/>
</svg>
