<?xml version="1.0" encoding="utf-8"?>
<svg version="1.1"
	 xmlns="http://www.w3.org/2000/svg" xmlns:xlink="http://www.w3.org/1999/xlink"
	 x="0px" y="0px" width="128px" height="24px" viewBox="0 -0.868 128 24">
<defs>
</defs>
<polygon fill="#3588A6" points="11.688,0 15.298,7.318 23.374,8.492 17.53,14.188 18.911,22.23 11.688,18.432 4.463,22.23 
	5.844,14.188 0,8.492 8.077,7.318 "/>
<polygon fill="#3588A6" points="37.844,0 41.457,7.318 49.531,8.492 43.687,14.188 45.068,22.23 37.844,18.432 30.622,22.23 
	32.001,14.188 26.158,8.492 34.234,7.318 "/>
<polygon fill="#3588A6" points="64,0 67.612,7.318 75.688,8.492 69.847,14.188 71.227,22.23 64,18.432 56.778,22.23 58.16,14.188 
	52.315,8.492 60.392,7.318 "/>
<polygon fill="#3588A6" points="90.155,0 93.769,7.318 101.844,8.492 96.001,14.188 97.38,22.23 90.155,18.432 82.934,22.23 
	84.315,14.188 78.471,8.492 86.546,7.318 "/>
<polygon fill="#3588A6" points="116.313,0 119.926,7.318 128,8.492 122.158,14.188 123.535,22.23 116.313,18.432 109.089,22.23 
	110.472,14.188 104.628,8.492 112.702,7.318 "/>
<polygon fill="#F79523" points="11.688,0 15.298,7.318 23.374,8.492 17.53,14.188 18.911,22.23 11.688,18.432 4.463,22.23 
	5.844,14.188 0,8.492 8.077,7.318 "/>
</svg>
