<?xml version="1.0" encoding="utf-8"?>
<!-- Generator: Adobe Illustrator 15.0.0, SVG Export Plug-In  -->
<!DOCTYPE svg PUBLIC "-//W3C//DTD SVG 1.1//EN" "http://www.w3.org/Graphics/SVG/1.1/DTD/svg11.dtd" [
	<!ENTITY ns_flows "http://ns.adobe.com/Flows/1.0/">
]>
<svg version="1.1"
	 xmlns="http://www.w3.org/2000/svg" xmlns:xlink="http://www.w3.org/1999/xlink" xmlns:a="http://ns.adobe.com/AdobeSVGViewerExtensions/3.0/"
	 x="0px" y="0px" width="100px" height="100px" viewBox="-5.803 -9.553 100 100"
	 xml:space="preserve">
<defs>
</defs>
<path d="M46.822,0.347c1.732,0.347,4.676,3.812,4.676,5.717v68.595c-0.866,4.331-4.156,6.235-7.275,6.235
	c-1.212,0-3.291-0.348-4.33-1.387c-3.464-2.943-18.708-20.785-25.117-20.785H6.288c-3.984-0.347-6.236-4.504-6.236-7.275V29.448
	c-0.519-2.599,2.945-7.275,6.236-7.275h8.487c1.386-0.521,2.945-0.521,4.331-1.559c6.582-4.678,14.031-12.818,20.786-19.401
	C40.932,0,42.49,0,44.05,0C44.57,0,45.956,0.174,46.822,0.347z"/>
<path d="M73.67,40.361c0,6.234-2.253,13.51-8.66,19.399c-1.388-1.732-2.771-3.81-4.156-5.89c4.156-3.981,5.889-9.353,5.889-13.51
	s-1.73-9.354-5.889-13.339l3.981-5.89C71.417,27.022,73.67,34.124,73.67,40.361z"/>
<path d="M88.395,40.361c0,10.393-3.812,21.825-15.244,31.698l-3.983-5.716c8.661-7.622,11.433-16.11,12.299-24.077v-3.812
	C80.6,30.832,78.175,22.172,69.167,14.55l3.812-5.716C84.93,18.535,88.395,29.967,88.395,40.361z"/>
</svg>
