<?xml version="1.0" encoding="utf-8"?>
<!-- Generator: Adobe Illustrator 15.0.0, SVG Export Plug-In  -->
<!DOCTYPE svg PUBLIC "-//W3C//DTD SVG 1.1//EN" "http://www.w3.org/Graphics/SVG/1.1/DTD/svg11.dtd" [
	<!ENTITY ns_flows "http://ns.adobe.com/Flows/1.0/">
]>
<svg version="1.1"
	 xmlns="http://www.w3.org/2000/svg" xmlns:xlink="http://www.w3.org/1999/xlink" xmlns:a="http://ns.adobe.com/AdobeSVGViewerExtensions/3.0/"
	 x="0px" y="0px" width="48px" height="48px" viewBox="-1.806 -3.579 48 48"
	 xml:space="preserve">
<defs>
</defs>
<path d="M3.599,40.842H40.79c1.985,0,3.599-1.566,3.599-3.501V17.286l-5.093-3.902l-16.482,8.342l-10.988-8.75L0.021,20.913
	L0,21.063v16.277C0,39.275,1.612,40.842,3.599,40.842"/>
<path d="M40.79,0H3.599C1.612,0,0,1.567,0,3.5v13.986l12.138-7.808l11.47,8.945l16.619-8.517l4.161,3.322V3.5
	C44.389,1.567,42.775,0,40.79,0z M24.792,12.68c-2.361,0-4.273-1.913-4.273-4.273c0-2.36,1.913-4.271,4.273-4.271
	c2.36,0,4.272,1.911,4.272,4.271C29.064,10.767,27.152,12.68,24.792,12.68z"/>
</svg>
