<?xml version="1.0" encoding="utf-8"?>
<svg version="1.1"
	 xmlns="http://www.w3.org/2000/svg" x="0px" y="0px" width="48px" height="48px" viewBox="-2.771 -5.724 48 48">
<defs>
</defs>
<path d="M32.9,21.519c0.051,0.149,0.084,0.304,0.084,0.458c0,2.203-5.262,3.996-11.751,3.996c-6.497,0-11.76-1.793-11.76-3.996
	c0-0.154,0.032-0.309,0.083-0.458C4.467,24.834,0.864,30.254,0,36.551h42.459C41.593,30.254,37.995,24.834,32.9,21.519z"/>
<path d="M31.43,10.726c0,5.929-4.566,10.728-10.197,10.728c-5.641,0-10.205-4.798-10.205-10.728C11.028,4.802,15.592,0,21.233,0
	C26.863,0,31.43,4.802,31.43,10.726z"/>
</svg>
