<?xml version="1.0" encoding="utf-8"?>
<svg version="1.1"
	 xmlns="http://www.w3.org/2000/svg" x="0px" y="0px" width="48px" height="48px" viewBox="-7.756 -4.65 48 48">
<defs>
</defs>
<path d="M32.3,10.6L28.4,0l0,0l0,0l0,0l0,0l-0.5,0.1l-0.3,15.5l0.8-0.3l2-0.7C32,14.1,32.9,12.2,32.3,10.6z"/>
<path d="M3.3,0C1.5,0,0.1,1.4,0,3.2v32.3C0,37.299,1.5,38.7,3.2,38.7h20c1.8,0,3.199-1.5,3.199-3.199V0H3.3z M15,31.299H4.8V30H15
	V31.299z M21.8,25.5h-17V24.2h17V25.5z M21.8,19.7h-17v-1.3h17V19.7z M21.8,13.9h-17v-1.3h17V13.9z M21.8,8.9h-17V6.8h17V8.9z"/>
</svg>
