<?xml version="1.0" encoding="utf-8"?>
<!-- Generator: Adobe Illustrator 15.0.0, SVG Export Plug-In  -->
<!DOCTYPE svg PUBLIC "-//W3C//DTD SVG 1.1//EN" "http://www.w3.org/Graphics/SVG/1.1/DTD/svg11.dtd" [
	<!ENTITY ns_flows "http://ns.adobe.com/Flows/1.0/">
]>
<svg version="1.1"
	 xmlns="http://www.w3.org/2000/svg" x="0px" y="0px" width="100px" height="100px" viewBox="-19.9 -5.969 100 100"
	 xml:space="preserve">
<defs>
</defs>
<rect x="14.432" y="34.702" width="33.221" height="3.863"/>
<rect x="14.432" y="43.665" width="33.221" height="3.864"/>
<rect x="14.432" y="52.628" width="17.727" height="3.861"/>
<rect x="14.432" y="25.625" width="33.221" height="3.863"/>
<rect x="14.432" y="13.056" width="33.221" height="6.036"/>
<path d="M59.895,0H0.331L0.305,0.509C0.115,1.103,0,1.747,0,2.429v63.219c0,2.828,1.853,5.115,4.145,5.115h12.363l-0.24,0.307
	l3.691,16.992L36.274,70.26h19.787c2.287,0,4.139-2.289,4.139-5.117V1.922C60.2,1.239,60.086,0.594,59.895,0z M54.596,61.018
	c0,2.284-0.498,4.133-2.346,4.133H32.97L22.848,77.279l-1.98-11.542v-0.079h-0.001h-0.013l-0.062-0.359l-0.282,0.359H7.949
	c-1.842,0-2.339-1.85-2.339-4.131V6.552c0-0.09,0.017-0.173,0.017-0.257l0,0l48.967-0.252l0.002-0.002c0,0,0,0.001,0,0.002V61.018z"
	/>
</svg>
