<?xml version="1.0" encoding="utf-8"?>
<svg version="1.1"
	 xmlns="http://www.w3.org/2000/svg" xmlns:xlink="http://www.w3.org/1999/xlink"
	 x="0px" y="0px" width="38px" height="38px" viewBox="-1 -1 38 38">
<defs>
</defs>
<rect x="6.731" y="7.992" fill="#FFFFFF" width="21.839" height="21.839"/>
<path fill="#F79523" d="M18.001,0C8.06,0,0,8.055,0,17.997C0,27.938,8.06,36,18.001,36C27.942,36,36,27.938,36,17.997
	C36,8.055,27.942,0,18.001,0z M28.028,26.213l-2.151,2.151l-7.851-7.852l-7.851,7.852l-2.151-2.151l7.851-7.851l-7.851-7.851
	l2.151-2.151l7.852,7.851l7.851-7.851l2.151,2.151l-7.852,7.852L28.028,26.213z"/>
</svg>
