<?xml version="1.0" encoding="utf-8"?>
<svg version="1.1"
	 xmlns="http://www.w3.org/2000/svg" xmlns:xlink="http://www.w3.org/1999/xlink"
	 x="0px" y="0px" width="74px" height="74px" viewBox="-4.991 -3.647 74 74">
<defs>
</defs>
<path fill="#F79523" d="M32.725,0C14.652,0,0,14.652,0,32.725C0,50.796,14.652,65.45,32.725,65.45
	c18.072,0,32.725-14.653,32.725-32.725C65.45,14.652,50.797,0,32.725,0z M50.607,35.395L30.902,55.101
	c-1.468,1.468-3.873,1.468-5.34,0l-3.485-3.484c-1.468-1.472-1.468-3.873,0-5.342l10.878-10.88c1.468-1.467,1.468-3.871,0-5.339
	L22.077,19.177c-1.468-1.469-1.468-3.871,0-5.34l3.485-3.486c1.467-1.469,3.873-1.469,5.34,0l19.705,19.705
	C52.075,31.524,52.075,33.928,50.607,35.395z"/>
<path fill="#C8691C" d="M33.11,30.246v4.958C34.351,33.789,34.351,31.663,33.11,30.246z"/>
<path fill="#C8691C" d="M33.11,0.02v12.54l17.497,17.497c1.468,1.468,1.468,3.873,0,5.339L33.11,52.891v12.54
	c17.895-0.208,32.34-14.764,32.34-32.706S51.005,0.23,33.11,0.02z"/>
</svg>
