<?xml version="1.0" encoding="utf-8"?>
<svg version="1.1"
	 xmlns="http://www.w3.org/2000/svg" xmlns:xlink="http://www.w3.org/1999/xlink"
	 x="0px" y="0px" width="74px" height="74px" viewBox="-4.991 -3.647 74 74">
<defs>
</defs>
<path fill="#C8691C" d="M0,32.725C0,50.796,14.653,65.45,32.725,65.45c18.073,0,32.725-14.653,32.725-32.725
	C65.45,14.652,50.798,0,32.725,0C14.653,0,0,14.652,0,32.725z M14.843,30.056l19.705-19.705c1.468-1.469,3.873-1.469,5.34,0
	l3.485,3.486c1.468,1.469,1.468,3.871,0,5.34L32.496,30.056c-1.468,1.468-1.468,3.873,0,5.339l10.877,10.88
	c1.468,1.469,1.468,3.87,0,5.342l-3.485,3.484c-1.467,1.468-3.872,1.468-5.34,0L14.843,35.395
	C13.375,33.928,13.375,31.524,14.843,30.056z"/>
<path fill="#C8691C" d="M32.34,30.246v4.958C31.1,33.789,31.1,31.663,32.34,30.246z"/>
<path fill="#F79523" d="M32.34,0.02v12.54L14.843,30.056c-1.468,1.468-1.468,3.873,0,5.339L32.34,52.891v12.54
	C14.445,65.223,0,50.667,0,32.725S14.445,0.23,32.34,0.02z"/>
</svg>
