<?xml version="1.0" encoding="utf-8"?>
<svg version="1.1"
	 xmlns="http://www.w3.org/2000/svg" xmlns:xlink="http://www.w3.org/1999/xlink"
	 x="0px" y="0px" width="100px" height="100px" viewBox="-5.803 -9.553 100 100">
<defs>
</defs>
<path fill-rule="evenodd" clip-rule="evenodd" fill="#F79523" d="M46.822,0.347c1.732,0.347,4.676,3.812,4.676,5.717v68.595
	c-0.866,4.331-4.156,6.236-7.275,6.236c-1.212,0-3.291-0.348-4.33-1.387c-3.464-2.943-18.708-20.786-25.117-20.786H6.288
	c-3.984-0.346-6.236-4.503-6.236-7.275V29.448c-0.519-2.599,2.945-7.275,6.236-7.275h8.487c1.386-0.521,2.945-0.521,4.331-1.559
	c6.582-4.678,14.031-12.818,20.786-19.401C40.932,0,42.49,0,44.05,0C44.57,0,45.956,0.174,46.822,0.347z"/>
<path fill-rule="evenodd" clip-rule="evenodd" fill="#52CAF5" d="M73.67,40.361c0,6.234-2.253,13.51-8.66,19.399
	c-1.388-1.732-2.772-3.81-4.157-5.89c4.157-3.982,5.889-9.353,5.889-13.51c0-4.158-1.731-9.354-5.889-13.339l3.982-5.89
	C71.417,27.022,73.67,34.124,73.67,40.361z"/>
<path fill-rule="evenodd" clip-rule="evenodd" fill="#52CAF5" d="M88.394,40.361c0,10.393-3.811,21.825-15.244,31.698l-3.983-5.716
	c8.661-7.622,11.433-16.11,12.299-24.078v-3.811c-0.866-7.622-3.291-16.282-12.299-23.904l3.812-5.716
	C84.929,18.535,88.394,29.967,88.394,40.361z"/>
<path fill-rule="evenodd" clip-rule="evenodd" fill="#C8691C" d="M51.123,4.659c-0.844-1.852-2.942-4.04-4.301-4.312
	C45.956,0.174,44.57,0,44.05,0c-1.56,0-3.118,0-4.157,1.213c-6.755,6.583-14.204,14.724-20.786,19.401
	c-1.386,1.038-2.945,1.038-4.331,1.559H6.288c-3.291,0-6.755,4.677-6.236,7.275v21.998c0,2.772,2.252,6.93,6.236,7.275h8.487
	c3.153,0,8.442,4.318,13.417,9.056L51.123,4.659z"/>
</svg>
