<?xml version="1.0" encoding="utf-8"?>
<svg version="1.1"
	 xmlns="http://www.w3.org/2000/svg" xmlns:xlink="http://www.w3.org/1999/xlink"
	 x="0px" y="0px" width="48px" height="48px" viewBox="-1.698 -3.158 48 48">
<defs>
</defs>
<path fill="#84D5F7" d="M44.387,37.341c0,1.934-1.612,3.501-3.598,3.501H3.599C1.612,40.842,0,39.275,0,37.341V3.5
	C0,1.567,1.612,0,3.599,0H40.79c1.985,0,3.598,1.567,3.598,3.5V37.341z"/>
<path fill="#FCB51E" d="M3.599,40.842H40.79c1.985,0,3.598-1.567,3.598-3.501V17.286l-5.092-3.902l-16.482,8.342l-10.989-8.75
	L0.021,20.913L0,21.063v16.278C0,39.275,1.612,40.842,3.599,40.842"/>
<polygon fill="#FCB51E" points="11.825,12.976 22.813,21.726 39.295,13.383 22.881,24.287 "/>
<path fill="#FFFFFF" d="M29.064,11.407c0,2.36-1.912,4.273-4.272,4.273c-2.361,0-4.273-1.913-4.273-4.273
	c0-2.36,1.913-4.271,4.273-4.271S29.064,9.047,29.064,11.407"/>
<path fill="#52CAF5" d="M28.679,0H3.599C1.612,0,0,1.567,0,3.5v33.842c0,1.934,1.612,3.501,3.599,3.501h11.823L28.679,0z"/>
<path fill="#F79523" d="M21.871,20.976l-10.046-8L0.021,20.913L0,21.063v16.278c0,1.934,1.612,3.501,3.599,3.501h11.823
	L21.871,20.976z"/>
<path fill="#F1F2F2" d="M24.792,7.136c-2.361,0-4.274,1.912-4.274,4.271c0,1.962,1.322,3.609,3.124,4.113l2.633-8.115
	C25.812,7.233,25.315,7.136,24.792,7.136z"/>
</svg>
