<?xml version="1.0" encoding="utf-8"?>
<svg version="1.1"
	 xmlns="http://www.w3.org/2000/svg" xmlns:xlink="http://www.w3.org/1999/xlink"
	 x="0px" y="0px" width="48px" height="48px" viewBox="-2.73 -3.535 48 48">
<defs>
</defs>
<path fill="#F79523" d="M32.901,21.519c0.05,0.149,0.083,0.303,0.083,0.458c0,2.203-5.261,3.995-11.751,3.995
	c-6.497,0-11.76-1.792-11.76-3.995c0-0.155,0.032-0.309,0.083-0.458C4.467,24.835,0.864,30.255,0,36.552h42.459
	C41.593,30.255,37.995,24.835,32.901,21.519z"/>
<path fill="#F79523" d="M31.429,10.726c0,5.929-4.565,10.727-10.196,10.727c-5.641,0-10.205-4.798-10.205-10.727
	C11.028,4.802,15.592,0,21.233,0C26.864,0,31.429,4.802,31.429,10.726z"/>
<path fill="#C8691C" d="M18.123,25.827c-4.983-0.462-8.65-2.01-8.65-3.85c0-0.155,0.032-0.309,0.083-0.458
	C4.467,24.835,0.864,30.255,0,36.552h24.571L18.123,25.827z"/>
</svg>
