<?xml version="1.0" encoding="utf-8"?>
<svg version="1.1"
	 xmlns="http://www.w3.org/2000/svg" xmlns:xlink="http://www.w3.org/1999/xlink"
	 x="0px" y="0px" width="100px" height="100px" viewBox="-17.627 -7.664 100 100">
<defs>
</defs>
<path fill="#F79523" d="M0,84.59h65.651V0H0V84.59z M55.804,9.832V74.76H9.848V9.832H55.804z"/>
<polygon fill="#C8691C" points="0,84.59 28.524,84.59 31.549,74.76 9.848,74.76 9.848,9.832 51.527,9.832 54.552,0 0,0 "/>
<rect x="14.948" y="38.132" fill="#F79523" width="35.13" height="4.685"/>
<rect x="14.948" y="27.468" fill="#F79523" width="35.13" height="4.684"/>
<rect x="14.948" y="27.468" fill="#F79523" width="35.13" height="4.684"/>
<polygon fill="#C8691C" points="45.337,32.152 14.948,32.152 14.948,27.468 46.522,27.468 "/>
<rect x="14.948" y="16.804" fill="#F79523" width="35.13" height="4.684"/>
<polygon fill="#C8691C" points="48.892,21.488 14.948,21.488 14.948,16.804 50.078,16.804 "/>
<rect x="14.948" y="49.005" fill="#F79523" width="35.13" height="4.683"/>
<rect x="14.948" y="59.88" fill="#C8691C" width="18.066" height="4.683"/>
<polygon fill="#C8691C" points="39.473,49.005 14.948,49.005 14.948,53.688 38.033,53.688 "/>
<polygon fill="#C8691C" points="42.818,38.132 14.948,38.132 14.948,42.816 41.377,42.816 "/>
</svg>
