<?xml version="1.0" encoding="utf-8"?>
<svg version="1.1"
	 xmlns="http://www.w3.org/2000/svg" xmlns:xlink="http://www.w3.org/1999/xlink"
	 x="0px" y="0px" width="16px" height="16px" viewBox="-0.5 -0.5 16 16">
<defs>
</defs>
<path fill="#3588A6" d="M0,1.974v11.052C0,14.116,0.892,15,1.991,15h11.018c1.1,0,1.991-0.884,1.991-1.974V1.974
	C15,0.884,14.108,0,13.009,0H1.991C0.892,0,0,0.884,0,1.974z M4.278,6.68l4.942-4.944c0.462-0.461,1.195-0.483,1.631-0.048
	s0.414,1.169-0.048,1.631L7.443,6.68c-0.462,0.462-0.462,1.217,0,1.679l3.36,3.36c0.461,0.461,0.483,1.195,0.048,1.631
	c-0.436,0.435-1.17,0.413-1.631-0.048L4.278,8.358C3.816,7.896,3.816,7.142,4.278,6.68z"/>
</svg>
