<?xml version="1.0" encoding="utf-8"?>
<svg version="1.1"
	 xmlns="http://www.w3.org/2000/svg" xmlns:xlink="http://www.w3.org/1999/xlink"
	 x="0px" y="0px" width="16px" height="16px" viewBox="-0.5 -0.5 16 16">
<defs>
</defs>
<path fill="#3588A6" d="M13.009,0H1.991C0.892,0,0,0.884,0,1.974v11.052C0,14.116,0.892,15,1.991,15h11.018
	c1.1,0,1.991-0.884,1.991-1.974V1.974C15,0.884,14.108,0,13.009,0z M10.722,8.358l-4.942,4.943
	c-0.461,0.461-1.195,0.482-1.631,0.048c-0.436-0.436-0.413-1.17,0.048-1.631l3.36-3.36c0.462-0.462,0.462-1.217,0-1.679l-3.36-3.361
	C3.734,2.857,3.713,2.123,4.148,1.688s1.169-0.414,1.631,0.048l4.942,4.944C11.184,7.142,11.184,7.896,10.722,8.358z"/>
</svg>
