<?xml version="1.0" encoding="utf-8"?>
<!-- Generator: Adobe Illustrator 15.0.0, SVG Export Plug-In  -->
<!DOCTYPE svg PUBLIC "-//W3C//DTD SVG 1.1//EN" "http://www.w3.org/Graphics/SVG/1.1/DTD/svg11.dtd" [
	<!ENTITY ns_flows "http://ns.adobe.com/Flows/1.0/">
]>
<svg version="1.1"
	 xmlns="http://www.w3.org/2000/svg" xmlns:xlink="http://www.w3.org/1999/xlink" xmlns:a="http://ns.adobe.com/AdobeSVGViewerExtensions/3.0/"
	 x="0px" y="0px" width="48px" height="48px" viewBox="-3.066 -3.167 48 48"
	 xml:space="preserve">
<defs>
</defs>
<rect x="8.344" y="14.786" width="25.766" height="2.343"/>
<rect x="8.344" y="20.057" width="25.766" height="2.341"/>
<polygon points="24.214,25.326 20.874,27.668 34.11,27.668 34.11,25.326 "/>
<path d="M2.782,23.088V11.179c0-1.403-0.123-1.372,1.17-1.372h0.345C4.394,8.92,4.516,8.06,4.668,7.32H2.342
	C1.048,7.32,0,8.369,0,9.662v22.545c0,1.109,0.773,2.034,1.81,2.275L2.782,23.088z"/>
<path d="M39.528,7.32H30.37c-0.506-1.043-3.926-7.495-11.191-7.316C9.019,0.254,5.417,10.98,5.417,10.98s4.786-5.515,10.155-5.935
	c3.869-0.302,5.049,1.71,5.302,2.275h-7.963c-0.719,0.484-2.054,1.403-3.493,2.487h28.499c1.291,0,1.17-0.032,1.17,1.372v19.51
	c0,1.402,0.121,1.371-1.17,1.371H17.15l-2.685-2.164l4.296-3.148l-13.771-2.33L3.873,37.626l4.008-3.146
	c0,0,4.878,6.732,10.595,7.158c7.063,0.523,11.938-6.519,12.321-7.089h8.73c1.291,0,2.34-1.049,2.34-2.342V9.662
	C41.868,8.369,40.819,7.32,39.528,7.32z"/>
</svg>
