<?xml version="1.0" encoding="utf-8"?>
<!-- Generator: Adobe Illustrator 15.0.0, SVG Export Plug-In  -->
<!DOCTYPE svg PUBLIC "-//W3C//DTD SVG 1.1//EN" "http://www.w3.org/Graphics/SVG/1.1/DTD/svg11.dtd" [
	<!ENTITY ns_flows "http://ns.adobe.com/Flows/1.0/">
]>
<svg version="1.1"
	 xmlns="http://www.w3.org/2000/svg" x="0px" y="0px" width="48px" height="48px" viewBox="-1.855 -6.882 48 48">
<defs>
</defs>
<path d="M14.091,24.686H3.945c-1.291,0-1.169,0.034-1.169-1.37V3.853c0-1.401-0.122-1.37,1.169-1.37h33.891
	c1.289,0,1.166-0.031,1.166,1.37v2.036C40,6.497,40.93,7.201,41.775,7.997v-5.66C41.775,1.048,40.729,0,39.439,0H2.337
	C1.046,0,0,1.048,0,2.337v22.496c0,1.291,1.046,2.338,2.337,2.338h12.65C14.625,26.373,14.326,25.544,14.091,24.686z"/>
<path d="M30.279,6.228c-7.731,0-14.003,6.271-14.003,14.003c0,7.734,6.271,14.005,14.003,14.005c7.736,0,14.01-6.271,14.01-14.005
	C44.289,12.499,38.014,6.229,30.279,6.228z M34.316,23.301l-2.434-1.073c-0.01,0.008-0.02,0.018-0.031,0.025l0.094,3.272h-2.152
	l0.055-3.195c-0.521-0.29-0.889-0.81-0.971-1.427l-7.176-3.162l0.582-1.306l7.119,2.869c0.145-0.146,0.316-0.265,0.5-0.359
	l0.189-11.341h1.342l0.326,11.4c0.559,0.332,0.936,0.934,0.941,1.631l2.369,0.954L34.316,23.301z"/>
<path d="M13.475,20.231c0-0.77,0.07-1.521,0.17-2.263H8.326v2.337h5.152C13.479,20.28,13.475,20.257,13.475,20.231z"/>
<path d="M15.27,12.709H8.326v2.338H14.3C14.563,14.237,14.892,13.459,15.27,12.709z"/>
<path d="M19.387,7.451H8.326v2.336h8.805C17.807,8.938,18.561,8.155,19.387,7.451z"/>
</svg>
