<?xml version="1.0" encoding="utf-8"?>
<svg version="1.1"
	 xmlns="http://www.w3.org/2000/svg" x="0px" y="0px" width="48px" height="48px" viewBox="-3.6 -3.6 48 48">
<defs>
</defs>
<rect x="10" y="9" width="20.201" height="2.4"/>
<rect x="10" y="20.4" width="10.4" height="2.4"/>
<path d="M24.011,26.201H20.9L14.5,33.9l-1.457-7.4H5.7c-1.2,0-2.1-1.199-2.1-2.6c0,0,0-19.237,0-19.337h30.999v10.587
	c1.266,0.175,2.447,0.597,3.5,1.221V1.2c0-0.4-0.1-0.8-0.199-1.2H0.2C0.1,0.4,0,1.1,0,1.5v25c0,1.801,1.2,3.201,2.6,3.201h7.935
	L12.6,40.8L23,29.4h2.232C24.642,28.433,24.22,27.355,24.011,26.201z"/>
<path d="M33.3,17c-4.143,0-7.5,3.358-7.5,7.5c0,4.143,3.357,7.5,7.5,7.5c4.141,0,7.5-3.357,7.5-7.5C40.8,20.358,37.441,17,33.3,17z
	 M33,28.9c-0.5,0-0.799-0.4-0.799-0.801c0-0.5,0.299-0.799,0.799-0.799s0.801,0.299,0.801,0.799C33.8,28.5,33.5,28.9,33,28.9z
	 M34.201,24.1C33.599,24.8,33.4,25.3,33.5,26V26.3h-1V26c-0.1-0.699,0.201-1.4,0.801-2.199c0.6-0.7,0.9-1.2,0.9-1.801
	c0-0.699-0.4-1.1-1.201-1.1c-0.5,0-1,0.2-1.299,0.4L31.4,20.5c0.4-0.3,1.199-0.5,1.801-0.5c1.5,0,2.1,0.9,2.1,1.9
	C35.3,22.8,34.8,23.4,34.201,24.1z"/>
<path d="M30.201,15.581V14.7H10v2.4h17.433C28.255,16.447,29.189,15.933,30.201,15.581z"/>
</svg>
