<?xml version="1.0" encoding="utf-8"?>
<svg version="1.1"
	 xmlns="http://www.w3.org/2000/svg" x="0px" y="0px" width="48px" height="48px" viewBox="-3.58 -3.6 48 48">
<defs>
</defs>
<path d="M33.35,17.038c-4.136,0-7.488,3.353-7.488,7.489c0,4.136,3.353,7.488,7.488,7.488c4.137,0,7.489-3.353,7.489-7.488
	C40.839,20.391,37.486,17.038,33.35,17.038z M33.332,29.686c-0.666,0-1.207-0.541-1.207-1.207c0-0.667,0.541-1.207,1.207-1.207
	s1.207,0.54,1.207,1.207C34.539,29.145,33.998,29.686,33.332,29.686z M33.389,26.021c0,0-2.839-6.75-0.076-6.827
	C36.074,19.118,33.389,26.021,33.389,26.021z"/>
<rect x="10" y="9" width="20.201" height="2.4"/>
<rect x="10" y="20.4" width="10.4" height="2.4"/>
<path d="M24.012,26.201H20.9L14.5,33.9l-1.456-7.4H5.701c-1.201,0-2.101-1.199-2.101-2.6c0,0,0-19.237,0-19.338H34.6V15.15
	c1.266,0.174,2.447,0.597,3.5,1.221V1.201C38.1,0.801,38,0.4,37.9,0H0.201C0.101,0.4,0,1.101,0,1.5v25
	c0,1.801,1.201,3.201,2.601,3.201h7.935l2.065,11.1L23,29.4h2.232C24.643,28.434,24.221,27.355,24.012,26.201z"/>
<path d="M30.201,15.582v-0.881H10v2.399h17.434C28.256,16.447,29.189,15.934,30.201,15.582z"/>
</svg>
