<?xml version="1.0" encoding="utf-8"?>
<svg version="1.1"
	 xmlns="http://www.w3.org/2000/svg" xmlns:xlink="http://www.w3.org/1999/xlink"
	 x="0px" y="0px" width="16px" height="16px" viewBox="-0.783 -0.709 16 16">
<defs>
</defs>
<path fill="#3588A6" d="M14.508,13.584c0,0.509-0.414,0.923-0.923,0.923H0.923C0.413,14.507,0,14.093,0,13.584V0.922
	C0,0.413,0.413,0,0.923,0h12.662c0.509,0,0.923,0.413,0.923,0.922V13.584z"/>
<path fill="#FFFFFF" d="M6.951,10.059c-1.094,0-1.47-0.884-1.802-1.665C4.841,7.67,4.575,7.044,3.844,7.02
	C3.829,7.019,3.814,7.019,3.8,7.019c-1.568,0-2.702,2.844-2.712,2.874L0.77,9.768C0.82,9.64,2.034,6.61,3.855,6.679
	C4.805,6.711,5.14,7.499,5.463,8.26c0.318,0.75,0.619,1.459,1.487,1.459c0.778,0,1.012-1.43,1.238-2.814
	c0.272-1.659,0.55-3.38,1.819-3.268c2.252,0.188,3.27,5.978,3.313,6.224l-0.336,0.059c-0.276-1.607-1.354-5.805-3.006-5.942
	C9.034,3.893,8.771,5.456,8.526,6.961C8.265,8.555,8.019,10.059,6.951,10.059z"/>
</svg>
