<?xml version="1.0" encoding="utf-8"?>
<svg version="1.1"
	 xmlns="http://www.w3.org/2000/svg" xmlns:xlink="http://www.w3.org/1999/xlink"
	 x="0px" y="0px" width="16px" height="16px" viewBox="-0.783 -0.709 16 16">
<defs>
</defs>
<path fill="#3588A6" d="M14.508,13.584c0,0.509-0.414,0.923-0.923,0.923H0.923C0.413,14.507,0,14.093,0,13.584V0.922
	C0,0.413,0.413,0,0.923,0h12.662c0.509,0,0.923,0.413,0.923,0.922V13.584z"/>
<path fill="#FFFFFF" d="M8.645,13.255c-0.627,0-1.33-0.096-1.734-0.627c-1.433-0.086-2.358-0.186-3.653-1.084
	c-1.167-0.81-1.073-1.598-0.989-2.293c0.046-0.386,0.09-0.749-0.048-1.198C2.112,7.701,1.969,7.385,1.831,7.08
	c-0.41-0.904-0.833-1.839,0.075-3.141c0.872-1.251,2.07-2.672,3.425-2.612c1.026,0.051,1.447,0.646,1.785,1.124
	c0.18,0.254,0.35,0.494,0.607,0.678c0.497,0.353,0.787,0.223,1.56-0.277c0.113-0.074,0.229-0.148,0.347-0.221
	C9.722,2.575,9.82,2.507,9.924,2.437c0.631-0.428,1.686-1.145,2.641-0.261c0.919,0.852,0.427,2.458-0.265,3.242
	c-0.233,0.264-0.427,0.435-0.572,0.555c0.027,0.033,0.058,0.069,0.091,0.11l0.199,0.244c0.602,0.745,1.076,1.333,0.972,2.606
	c-0.11,1.332-0.632,2.332-1.51,2.892c-0.529,0.338-1.176,0.498-1.862,0.461v0.938c-0.128,0-0.271,0.007-0.42,0.015
	C9.027,13.247,8.84,13.255,8.645,13.255z M5.237,2.325c-0.988,0-2.132,1.641-2.511,2.186c-0.583,0.836-0.37,1.305,0.016,2.157
	C2.886,6.986,3.049,7.346,3.176,7.76c0.2,0.651,0.136,1.183,0.084,1.61c-0.073,0.608-0.106,0.886,0.566,1.352
	c1.141,0.792,1.897,0.836,3.403,0.924l0.302,0.018l0.125,0.275c0.153,0.338,0.77,0.335,1.491,0.3c0.003,0,0.005,0,0.007,0
	c-0.327-0.051-0.665-0.139-1.009-0.265L7.91,11.887l-0.072-0.239c-0.313-1.049,0.781-1.819,1.747-2.499
	c0.389-0.273,1.112-0.783,1.141-0.997l0,0c-0.004,0-0.039-0.063-0.187-0.16C10.171,7.75,9.775,8.161,9.172,8.997
	C9.082,9.121,9,9.234,8.927,9.326c-0.935,1.173-2.163,1.499-3.65,0.975l-0.305-0.108L4.945,9.87c-0.141-1.72,1.019-2.292,1.95-2.753
	c0.259-0.128,0.525-0.259,0.778-0.418c0.479-0.302,0.682-0.71,0.67-0.982C8.34,5.646,8.321,5.554,8.25,5.519
	C8.125,5.453,7.814,5.49,7.349,5.8c-0.17,0.113-0.392,0.309-0.643,0.528c-0.859,0.75-1.927,1.684-2.893,1.427
	C3.347,7.63,3.005,7.261,2.798,6.659C2.352,5.361,3.228,4.048,5.202,3.057L5.65,3.95C4.951,4.301,3.366,5.236,3.744,6.333
	c0.063,0.185,0.172,0.414,0.328,0.455C4.517,6.91,5.514,6.041,6.049,5.575c0.291-0.253,0.549-0.476,0.747-0.607
	c0.971-0.645,1.611-0.49,1.906-0.341c0.38,0.192,0.619,0.583,0.641,1.044c0.032,0.695-0.403,1.414-1.137,1.875
	C7.924,7.723,7.628,7.87,7.338,8.013c-0.88,0.435-1.356,0.706-1.401,1.444C6.853,9.69,7.546,9.454,8.145,8.703
	C8.209,8.622,8.281,8.521,8.36,8.412C8.846,7.74,9.853,6.344,11.09,7.157c0.416,0.274,0.63,0.604,0.636,0.98
	c0.011,0.721-0.755,1.259-1.565,1.83c-0.48,0.338-1.163,0.818-1.333,1.178c0.833,0.236,1.573,0.181,2.115-0.164
	c0.604-0.386,0.967-1.122,1.051-2.131c0.071-0.874-0.188-1.194-0.753-1.896l-0.194-0.237c-0.301-0.366-0.467-0.567-0.436-0.872
	c0.029-0.282,0.224-0.438,0.396-0.575c0.132-0.106,0.313-0.251,0.544-0.513c0.413-0.469,0.728-1.483,0.335-1.847
	c-0.321-0.298-0.676-0.137-1.398,0.354c-0.118,0.08-0.23,0.156-0.336,0.221C10.039,3.552,9.932,3.622,9.826,3.69
	C9.116,4.15,8.233,4.722,7.142,3.943C6.746,3.662,6.508,3.325,6.299,3.028C5.991,2.593,5.821,2.353,5.281,2.326
	C5.267,2.325,5.252,2.325,5.237,2.325z"/>
</svg>
