<?xml version="1.0" encoding="utf-8"?>
<svg version="1.1"
	 xmlns="http://www.w3.org/2000/svg" xmlns:xlink="http://www.w3.org/1999/xlink"
	 x="0px" y="0px" width="16px" height="16px" viewBox="-1.01 -1.01 16 16">
<defs>
</defs>
<path fill="#3588A6" d="M13.98,13.092c0,0.49-0.398,0.889-0.889,0.889H0.889C0.398,13.98,0,13.582,0,13.092V0.889
	C0,0.399,0.398,0,0.889,0h12.203c0.49,0,0.889,0.399,0.889,0.889V13.092z"/>
<path fill="#FFFFFF" d="M13.143,6.99c0,0.324-0.263,0.585-0.586,0.585H1.424c-0.324,0-0.586-0.261-0.586-0.585l0,0
	c0-0.323,0.262-0.585,0.586-0.585h11.133C12.88,6.405,13.143,6.667,13.143,6.99L13.143,6.99z"/>
</svg>
