<?xml version="1.0" encoding="utf-8"?>
<!-- Generator: Adobe Illustrator 15.0.0, SVG Export Plug-In  -->
<!DOCTYPE svg PUBLIC "-//W3C//DTD SVG 1.1//EN" "http://www.w3.org/Graphics/SVG/1.1/DTD/svg11.dtd" [
	<!ENTITY ns_flows "http://ns.adobe.com/Flows/1.0/">
]>
<svg version="1.1"
	 xmlns="http://www.w3.org/2000/svg" xmlns:xlink="http://www.w3.org/1999/xlink" xmlns:a="http://ns.adobe.com/AdobeSVGViewerExtensions/3.0/"
	 x="0px" y="0px" width="48px" height="48px" viewBox="-3.085 -2.308 48 48" enable-background="new -3.085 -2.308 48 48"
	 xml:space="preserve">
<defs>
</defs>
<path fill="#F79523" d="M41.829,6.912v29.559c0,3.819-3.096,6.914-6.914,6.914h-28C3.095,43.385,0,40.29,0,36.471V6.912
	C0,3.096,3.095,0,6.915,0h28C38.733,0,41.829,3.096,41.829,6.912L41.829,6.912z"/>
<path fill="#C8691C" d="M41.829,36.471V6.912C41.829,3.096,38.733,0,34.915,0H21.015v43.385h13.899
	C38.733,43.385,41.829,40.29,41.829,36.471z"/>
<polygon fill="#84D5F7" points="21.021,30.53 34.25,14.594 7.795,14.594 "/>
<polygon fill="#3588A6" points="21.021,30.53 34.25,14.594 21.082,14.617 "/>
</svg>
