<?xml version="1.0" encoding="utf-8"?>
<!-- Generator: Adobe Illustrator 15.0.0, SVG Export Plug-In  -->
<!DOCTYPE svg PUBLIC "-//W3C//DTD SVG 1.1//EN" "http://www.w3.org/Graphics/SVG/1.1/DTD/svg11.dtd" [
	<!ENTITY ns_flows "http://ns.adobe.com/Flows/1.0/">
]>
<svg version="1.1"
	 xmlns="http://www.w3.org/2000/svg" x="0px" y="0px" width="48px" height="48px" viewBox="-5.254 -2.873 48 48">
<defs>
</defs>
<path d="M6.978,12.906H4.554v-1.265h2.962l2.802-6.578H3.036C1.358,5.063,0,6.422,0,8.099v21.193L6.978,12.906z"/>
<path d="M1.251,35.912C0.762,35.704,0.343,35.402,0,35.039v4.178c0,1.679,1.358,3.036,3.036,3.036h13.106L1.251,35.912z"/>
<path d="M35.654,7.837l-17.667-7.59C16.446-0.415,14.662,0.297,14,1.838L1.717,30.43c-0.662,1.54,0.05,3.326,1.59,3.987l17.668,7.59
	c1.541,0.662,3.324-0.051,3.986-1.591l12.284-28.591C37.907,10.285,37.195,8.5,35.654,7.837z M16.564,32.405l-9.065-3.896l0.5-1.163
	l9.064,3.895L16.564,32.405z M23.177,29.188L9.694,23.396l0.499-1.163l13.482,5.793L23.177,29.188z M25.373,24.075l-13.482-5.793
	l0.5-1.162l13.482,5.793L25.373,24.075z M27.572,18.958l-13.483-5.792l0.5-1.163l13.482,5.792L27.572,18.958z M29.769,13.847
	L16.285,8.054l0.5-1.163l13.482,5.793L29.769,13.847z"/>
</svg>
