<?xml version="1.0" encoding="utf-8"?>
<!-- Generator: Adobe Illustrator 15.0.0, SVG Export Plug-In  -->
<!DOCTYPE svg PUBLIC "-//W3C//DTD SVG 1.1//EN" "http://www.w3.org/Graphics/SVG/1.1/DTD/svg11.dtd" [
	<!ENTITY ns_flows "http://ns.adobe.com/Flows/1.0/">
]>
<svg version="1.1"
	 xmlns="http://www.w3.org/2000/svg" xmlns:xlink="http://www.w3.org/1999/xlink" xmlns:a="http://ns.adobe.com/AdobeSVGViewerExtensions/3.0/"
	 x="0px" y="0px" width="48px" height="48px" viewBox="-2.72 -2.72 48 48"
	 xml:space="preserve">
<defs>
</defs>
<path d="M21.28,0C9.527,0,0,9.527,0,21.28c0,11.753,9.527,21.281,21.28,21.281c11.753,0,21.281-9.527,21.281-21.281
	C42.561,9.527,33.033,0,21.28,0z M21.28,2.128c10.578,0,19.152,8.575,19.152,19.152c0,3.269-0.823,6.344-2.267,9.037
	c-1.499-2.992-3.748-5.541-6.533-7.358c0.042,0.132,0.072,0.268,0.072,0.402c0,1.935-4.617,3.506-10.313,3.506
	c-5.698,0-10.315-1.571-10.315-3.506c0-0.137,0.028-0.271,0.075-0.402C8.3,24.817,6.005,27.438,4.506,30.52
	c-1.513-2.74-2.378-5.888-2.378-9.239C2.128,10.704,10.703,2.128,21.28,2.128z"/>
<path d="M30.34,13.491c0,5.199-4.007,9.41-8.949,9.41c-4.947,0-8.951-4.211-8.951-9.41c0-5.198,4.004-9.411,8.951-9.411
	C26.333,4.08,30.34,8.293,30.34,13.491z"/>
</svg>
