<?xml version="1.0" encoding="utf-8"?>
<!-- Generator: Adobe Illustrator 15.0.0, SVG Export Plug-In  -->
<!DOCTYPE svg PUBLIC "-//W3C//DTD SVG 1.1//EN" "http://www.w3.org/Graphics/SVG/1.1/DTD/svg11.dtd" [
	<!ENTITY ns_flows "http://ns.adobe.com/Flows/1.0/">
]>
<svg version="1.1"
	 xmlns="http://www.w3.org/2000/svg" x="0px" y="0px" width="48px" height="48px" viewBox="-3.445 -4.152 48 48"
	 xml:space="preserve">
<defs>
</defs>
<path d="M20.304,19.884c0-5.061,3.257-9.35,7.784-10.916C27.57,3.925,23.514,0,18.581,0c-5.288,0-9.568,4.503-9.567,10.06
	c0,5.558,4.279,10.06,9.567,10.06c0.59,0,1.165-0.064,1.726-0.172C20.307,19.927,20.304,19.905,20.304,19.884z"/>
<path d="M31.861,10.637c-5.106,0-9.246,4.14-9.246,9.247c0,5.106,4.14,9.247,9.246,9.247c5.107,0,9.248-4.141,9.248-9.247
	C41.109,14.777,36.969,10.637,31.861,10.637z M37.633,24.966c-0.316,0.541-0.932,0.664-1.378,0.271l-4.36-3.836l-4.166,4.039
	c-0.426,0.414-1.047,0.324-1.39-0.205c-0.34-0.521-0.274-1.279,0.153-1.696l3.729-3.613l-3.897-3.431
	c-0.444-0.392-0.55-1.149-0.232-1.689c0.315-0.54,0.931-0.661,1.374-0.269l4.358,3.836l4.168-4.042
	c0.426-0.415,1.05-0.324,1.391,0.202c0.343,0.524,0.275,1.284-0.151,1.696l-3.73,3.619l3.898,3.43
	C37.846,23.669,37.95,24.425,37.633,24.966z"/>
<path d="M31.861,31.442c-4.837,0-8.975-2.975-10.697-7.192c-0.83,0.068-1.692,0.107-2.583,0.107c-6.091,0-11.027-1.68-11.027-3.748
	c0-0.146,0.031-0.289,0.081-0.429C4.232,22.398,1.561,25.628,0,29.432c3.786,6.15,10.56,10.264,18.312,10.264
	c7.175,0,13.508-3.528,17.415-8.93C34.517,31.196,33.219,31.442,31.861,31.442z"/>
</svg>
