<?xml version="1.0" encoding="utf-8"?>
<!-- Generator: Adobe Illustrator 15.0.0, SVG Export Plug-In  -->
<!DOCTYPE svg PUBLIC "-//W3C//DTD SVG 1.1//EN" "http://www.w3.org/Graphics/SVG/1.1/DTD/svg11.dtd" [
	<!ENTITY ns_flows "http://ns.adobe.com/Flows/1.0/">
]>
<svg version="1.1"
	 xmlns="http://www.w3.org/2000/svg" x="0px" y="0px" width="48px" height="48px" viewBox="-4.375 -3.402 48 48">
<defs>
</defs>
<path d="M28.18,17.545c0,4.971-3.828,8.996-8.554,8.996c-4.729,0-8.557-4.025-8.557-8.996c0-4.969,3.827-8.995,8.557-8.995
	C24.352,8.55,28.18,12.576,28.18,17.545z"/>
<path d="M0,0v41.195h39.25V0H0z M37.5,39.167h-0.079c-0.735-5.266-3.747-9.796-8.007-12.571c0.04,0.125,0.068,0.256,0.068,0.383
	c0,1.851-4.412,3.353-9.856,3.353c-5.446,0-9.86-1.502-9.86-3.353c0-0.127,0.027-0.258,0.071-0.383
	c-4.26,2.775-7.274,7.306-8.009,12.571H1.75V2.027H37.5V39.167z"/>
</svg>
