<?xml version="1.0" encoding="utf-8"?>
<!DOCTYPE svg PUBLIC "-//W3C//DTD SVG 1.1//EN" "http://www.w3.org/Graphics/SVG/1.1/DTD/svg11.dtd" [
	<!ENTITY ns_flows "http://ns.adobe.com/Flows/1.0/">
]>
<svg version="1.1"
	 xmlns="http://www.w3.org/2000/svg" x="0px" y="0px" width="48px" height="48px" viewBox="-4.903 -4.074 48 48">
<defs>
</defs>
<path d="M28.257,10.1c0,5.58-4.3,10.1-9.604,10.1c-5.308,0-9.604-4.52-9.604-10.1c0-5.578,4.297-10.1,9.604-10.1
	C23.957,0,28.257,4.521,28.257,10.1z"/>
<path d="M15.495,27.51l3.001-3.059c-6.042-0.028-10.913-1.701-10.913-3.76c0-0.146,0.032-0.291,0.081-0.431
	C4.249,22.486,1.565,25.729,0,29.548c2.711,4.405,6.954,7.759,11.985,9.325L15.495,27.51z"/>
<path d="M23.804,36.785l-8.888,2.777c1.13,0.183,2.285,0.289,3.468,0.289c7.998,0,14.964-4.358,18.697-10.82
	c-0.587-1.323-1.311-2.572-2.151-3.73L23.804,36.785z"/>
<path d="M32.605,18.498c-1.492-1.384-2.377-2.023-2.449-2.075l-12.87,13.494l0.066,0.063l-2.485,7.281l7.155-2.828l0.075,0.071
	L34.85,21.132C34.782,21.018,34.082,19.868,32.605,18.498z"/>
<path d="M37.164,13.891c-1.328-1.266-3.434-1.218-4.698,0.111l-1.699,1.781l0.632-0.637c0,0,0.604,0.163,2.609,1.836
	c1.409,1.176,2.144,2.68,2.177,2.75l1.089-1.142C38.542,17.262,38.493,15.157,37.164,13.891z"/>
</svg>
