<?xml version="1.0" encoding="utf-8"?>
<svg version="1.1"
	 xmlns="http://www.w3.org/2000/svg" x="0px" y="0px" width="48px" height="48px" viewBox="-3.306 -2.61 48 48">
<defs>
</defs>
<path d="M19.505,20.744c1.989-1.959,4.539-3.348,7.387-3.906c1.342-1.773,2.149-4.014,2.149-6.458c0-5.734-4.417-10.38-9.87-10.38
	C13.716,0,9.3,4.646,9.299,10.38c0,5.735,4.416,10.381,9.872,10.381C19.284,20.761,19.394,20.748,19.505,20.744z"/>
<path d="M29.7,19.404c-6.455,0-11.688,5.233-11.688,11.687c0,6.455,5.233,11.688,11.688,11.688s11.688-5.233,11.688-11.688
	C41.389,24.637,36.155,19.404,29.7,19.404z M37.528,32.762c-0.054,0.389-0.406,0.662-0.793,0.609l-1.07-0.137
	c-0.137,0.408-0.317,0.799-0.535,1.174l0.789,0.721c0.287,0.262,0.31,0.711,0.048,1l-0.812,0.885
	c-0.263,0.289-0.709,0.309-0.998,0.045l-0.789-0.719c-0.037,0.029-0.08,0.055-0.121,0.086l-0.086-0.135
	c-0.055,0.035-0.111,0.067-0.167,0.101l0.046,0.07c-0.192,0.114-0.387,0.217-0.586,0.312l0.272,1.17
	c0.086,0.381-0.152,0.762-0.533,0.848l-1.168,0.27c-0.379,0.088-0.758-0.15-0.848-0.531l-0.267-1.164
	c-0.41,0.013-0.817-0.021-1.22-0.09l-0.442,1.103c-0.149,0.36-0.563,0.537-0.924,0.39l-1.106-0.451
	c-0.367-0.147-0.541-0.56-0.396-0.92l0.438-1.074c-0.146-0.095-0.27-0.221-0.407-0.328c-0.087-0.067-0.173-0.136-0.256-0.207
	c-0.099-0.086-0.21-0.153-0.305-0.246l-0.959,0.623c-0.328,0.213-0.77,0.119-0.982-0.209l-0.651-1.006
	c-0.211-0.328-0.115-0.768,0.211-0.98l0.938-0.604c-0.018-0.043-0.025-0.087-0.042-0.13c-0.08-0.212-0.148-0.429-0.206-0.65
	c-0.014-0.054-0.029-0.106-0.041-0.16c-0.063-0.271-0.112-0.549-0.139-0.833l-1.089-0.137c-0.388-0.049-0.664-0.4-0.616-0.789
	l0.146-1.189c0.05-0.386,0.402-0.664,0.79-0.615l1.065,0.133c0.139-0.412,0.318-0.806,0.534-1.176c0,0,0.001-0.001,0.001-0.002
	L23.458,27.1c-0.289-0.26-0.313-0.707-0.053-0.998l0.805-0.891c0.263-0.29,0.707-0.313,0.998-0.051l0.793,0.715
	c0.041-0.031,0.078-0.057,0.121-0.09l0.004,0.007c0.263-0.183,0.543-0.34,0.832-0.48l-0.241-1.082
	c-0.082-0.381,0.154-0.761,0.535-0.845l1.17-0.264c0.381-0.085,0.76,0.155,0.846,0.538l0.229,1.024
	c0.073-0.003,0.145-0.011,0.218-0.011c0.373,0,0.735,0.038,1.091,0.101l0.391-0.95c0.149-0.361,0.562-0.534,0.924-0.385l1.106,0.457
	c0.365,0.149,0.533,0.562,0.388,0.924l-0.381,0.922c0.371,0.249,0.711,0.538,1.021,0.857l0.846-0.54
	c0.328-0.209,0.768-0.115,0.977,0.215l0.65,1.01c0.207,0.332,0.11,0.769-0.219,0.979l-0.864,0.553
	c0.212,0.575,0.341,1.189,0.376,1.83l1.051,0.136c0.39,0.051,0.662,0.406,0.609,0.793L37.528,32.762z"/>
<circle cx="29.7" cy="31.092" r="2.781"/>
<path d="M15.169,31.092c0-2.17,0.489-4.222,1.342-6.07c-4.999-0.408-8.717-1.934-8.717-3.756c0-0.15,0.032-0.298,0.083-0.444
	C4.367,23.112,1.611,26.443,0,30.369c3.907,6.346,10.896,10.59,18.896,10.59c0.052,0,0.102-0.005,0.153-0.005
	C16.648,38.361,15.169,34.903,15.169,31.092z"/>
</svg>
