<?xml version="1.0" encoding="utf-8"?>
<!DOCTYPE svg PUBLIC "-//W3C//DTD SVG 1.1//EN" "http://www.w3.org/Graphics/SVG/1.1/DTD/svg11.dtd">
<svg version="1.1" xmlns="http://www.w3.org/2000/svg" xmlns:xlink="http://www.w3.org/1999/xlink" x="0px" y="0px"
	 width="48px" height="48px" viewBox="0 0 48 48">
<path d="M11.767,13.367c-0.2-0.4-0.5-0.7-1-0.8c-0.2,0-0.4-0.101-0.6-0.101c-0.5,0-0.9,0.2-1.2,0.5c-1.2,1.2-1.4,4.301-0.6,7.101
	c0.1,0.5,0.3,1,0.5,1.4C10.767,18.367,12.367,14.966,11.767,13.367z"/>
<path d="M24.321,29.825l-15.25,2.972l7.068-6.473c-0.892,0.48-2.142,0.537-3.873,0.042c-1.3-0.301-2.5-1.201-3.5-2.601
    c-1.3,2-2.5,3.601-2.8,4l-0.9-0.7c0.8-1,1.9-2.6,3-4.4c-0.3-0.699-0.6-1.399-0.9-2.3c-0.9-3.3-0.6-6.7,0.9-8.2
    c0.8-0.8,1.8-1,2.9-0.7c0.9,0.2,1.5,0.801,1.8,1.601c0.8,2.2-1.3,6.399-3.4,9.7c0.8,1.301,1.9,2.2,3.2,2.6
    c1.7,0.4,2.8,0.4,3.4-0.199c1-0.899,0.6-3.6,0.1-6.399c-0.1-0.5-0.2-1-0.2-1.5l1.1-0.2c0.1,0.5,0.2,1,0.2,1.5
    c0.437,2.884,0.874,5.385-0.026,6.839L34.75,9.282V3.601H2.55v41.1h20.2l12-10.199V22.423L24.321,29.825z"/>
<path d="M25.149,22.6l-2.3,1.899c0.1,0.101,0.1,0.201,0.1,0.301c0,0.3-0.2,0.5-0.5,0.5c-0.1,0-0.3-0.1-0.4-0.2l-4.3,3.601
	c1.5-1.101,5.6-1.299,5.6-1.299l3.5-2.4L25.149,22.6z"/>
<rect x="25.47" y="22.113" transform="matrix(0.7577 -0.6526 0.6526 0.7577 -9.2277 22.6724)" width="0.901" height="3.302"/>
<polygon points="25.35,22.401 32.85,15.3 35.25,18.201 27.25,24.499 "/>
<polygon points="32.85,15.3 45.45,3.3 45.45,10.1 35.25,18.201 "/>
</svg>
