<?xml version="1.0" encoding="utf-8"?>
<!DOCTYPE svg PUBLIC "-//W3C//DTD SVG 1.1//EN" "http://www.w3.org/Graphics/SVG/1.1/DTD/svg11.dtd" [
	<!ENTITY ns_flows "http://ns.adobe.com/Flows/1.0/">
]>
<svg version="1.1"
	 xmlns="http://www.w3.org/2000/svg" x="0px" y="0px" width="48px" height="48px" viewBox="-0.872 -2.72 48 48">
<defs>
</defs>
<path d="M30.339,13.491c0,5.199-4.007,9.41-8.949,9.41c-4.946,0-8.95-4.211-8.95-9.41
	c0-5.198,4.004-9.411,8.95-9.411C26.332,4.08,30.339,8.293,30.339,13.491z"/>
<path d="M26.385,39.248V26.427c-1.48,0.279-3.182,0.439-4.995,0.439c-5.698,0-10.315-1.571-10.315-3.506
	c0-0.137,0.029-0.271,0.075-0.402c-2.851,1.859-5.146,4.479-6.645,7.562c-1.513-2.74-2.378-5.888-2.378-9.239
	c0-10.577,8.575-19.153,19.152-19.153c8.204,0,15.181,5.167,17.911,12.414l3.147,3.829C40.915,7.998,32.043,0,21.279,0
	C9.527,0,0,9.527,0,21.28c0,11.753,9.527,21.281,21.279,21.281c4.186,0,8.078-1.226,11.369-3.313H26.385z"/>
<path d="M43.771,22.382c-1.3,0-2.938-0.346-4.493-0.897c-1.549-0.55-2.94-1.269-3.919-2.025
	c-1.438-1.111-1.526-1.943-1.348-2.446c0.377-1.061,2.19-1.338,4.851-0.745l-0.219,0.976c-2.394-0.534-3.582-0.194-3.69,0.104
	c-0.06,0.168,0.162,0.659,1.018,1.32c0.897,0.693,2.19,1.358,3.642,1.874c3.331,1.181,5.467,0.922,5.632,0.459
	c0.139-0.39-0.969-1.661-3.667-2.807l0.391-0.92c2.269,0.963,4.735,2.605,4.22,4.061C45.925,22.072,44.999,22.382,43.771,22.382z"/>
<path d="M37.268,17.228c-0.591-0.59-1.547-0.59-2.137,0l-4.967,4.671v12.79c0,3.295,2.67,1.963,5.961,1.963
	c3.293,0,5.962,1.332,5.962-1.963v-12.79L37.268,17.228z M36.195,18.695c0.726,0,1.313,0.588,1.313,1.313
	c0,0.725-0.587,1.313-1.313,1.313c-0.725,0-1.313-0.588-1.313-1.313C34.882,19.283,35.471,18.695,36.195,18.695z M38.111,31.072
	l0.479,2.773l-2.49-1.309l-2.49,1.309l0.475-2.773l-2.014-1.965l2.783-0.402l1.246-2.521l1.244,2.521l2.784,0.402L38.111,31.072z"/>
</svg>
