<?xml version="1.0" encoding="utf-8"?>
<svg version="1.1"
	 xmlns="http://www.w3.org/2000/svg" xmlns:xlink="http://www.w3.org/1999/xlink"
	 x="0px" y="0px" width="48px" height="48px" viewBox="-10.444 -5.185 48 48">
<defs>
</defs>
<polygon fill="#F79523" points="27.316,37.817 9.533,37.817 0,29.243 0,1.413 27.316,1.413 "/>
<polygon fill="#C8691C" points="9.737,29.806 0,29.243 9.737,37.889 "/>
<path fill="#C54A20" d="M6.113,4.979c0,0.687-0.556,1.243-1.243,1.243c-0.686,0-1.242-0.557-1.242-1.243S4.184,3.737,4.87,3.737
	C5.557,3.737,6.113,4.293,6.113,4.979"/>
<path fill="#852D05" d="M5.616,4.979c0,0.411-0.334,0.746-0.746,0.746c-0.412,0-0.746-0.335-0.746-0.746
	c0-0.412,0.334-0.745,0.746-0.745C5.282,4.234,5.616,4.567,5.616,4.979"/>
<path fill="#C54A20" d="M12.477,4.979c0,0.687-0.557,1.243-1.244,1.243c-0.685,0-1.242-0.557-1.242-1.243s0.557-1.242,1.242-1.242
	C11.92,3.737,12.477,4.293,12.477,4.979"/>
<path fill="#852D05" d="M11.979,4.979c0,0.411-0.334,0.746-0.746,0.746c-0.412,0-0.746-0.335-0.746-0.746
	c0-0.412,0.334-0.745,0.746-0.745C11.646,4.234,11.979,4.567,11.979,4.979"/>
<path fill="#3588A6" d="M5.308,4.678c0,0.221-0.196,0.396-0.438,0.396c-0.242,0-0.438-0.176-0.438-0.396V0.396
	C4.432,0.178,4.628,0,4.87,0c0.242,0,0.438,0.178,0.438,0.396V4.678z"/>
<path fill="#3588A6" d="M11.672,4.678c0,0.221-0.196,0.396-0.438,0.396c-0.242,0-0.438-0.176-0.438-0.396V0.396
	C10.796,0.178,10.992,0,11.233,0c0.242,0,0.438,0.178,0.438,0.396V4.678z"/>
<path fill="#C54A20" d="M18.761,4.979c0,0.687-0.555,1.243-1.242,1.243c-0.686,0-1.242-0.557-1.242-1.243s0.557-1.242,1.242-1.242
	C18.207,3.737,18.761,4.293,18.761,4.979"/>
<path fill="#852D05" d="M18.265,4.979c0,0.411-0.334,0.746-0.746,0.746s-0.746-0.335-0.746-0.746c0-0.412,0.334-0.745,0.746-0.745
	S18.265,4.567,18.265,4.979"/>
<path fill="#3588A6" d="M17.958,4.678c0,0.221-0.196,0.396-0.438,0.396s-0.438-0.176-0.438-0.396V0.396
	C17.082,0.178,17.277,0,17.519,0s0.438,0.178,0.438,0.396V4.678z"/>
<path fill="#C54A20" d="M24.561,4.979c0,0.687-0.558,1.243-1.245,1.243c-0.684,0-1.24-0.557-1.24-1.243s0.557-1.242,1.24-1.242
	C24.003,3.737,24.561,4.293,24.561,4.979"/>
<path fill="#852D05" d="M24.064,4.979c0,0.411-0.334,0.746-0.746,0.746s-0.746-0.335-0.746-0.746c0-0.412,0.334-0.745,0.746-0.745
	S24.064,4.567,24.064,4.979"/>
<path fill="#3588A6" d="M23.755,4.678c0,0.221-0.195,0.396-0.438,0.396S22.88,4.898,22.88,4.678V0.396
	C22.88,0.178,23.076,0,23.318,0s0.438,0.178,0.438,0.396V4.678z"/>
<rect x="3.199" y="8.312" fill="#3588A6" width="6.616" height="9.035"/>
<rect x="3.361" y="20.735" fill="#52CAF5" width="20.814" height="1.129"/>
<rect x="3.361" y="23.649" fill="#52CAF5" width="20.814" height="1.129"/>
<path fill="#C8691C" d="M21.734,13.748l-5.699,0.001l3.345,3.347c0.351,0.348,0.351,0.916,0,1.266s-0.917,0.35-1.269,0.001
	l-4.878-4.88c-0.003-0.003-0.005-0.006-0.009-0.008c-0.003-0.004-0.005-0.006-0.009-0.01l-0.001-0.001
	c-0.351-0.352-0.351-0.92,0-1.27c0.037-0.036,0.077-0.066,0.117-0.095l4.792-4.791c0.35-0.351,0.917-0.351,1.268,0
	c0.35,0.349,0.348,0.916,0,1.267l-3.394,3.394h5.737c0.733,0,0.883,0.342,0.885,0.762l0.001,0.255
	C22.62,13.406,22.467,13.749,21.734,13.748"/>
</svg>
