<?xml version="1.0" encoding="utf-8"?>
<svg version="1.1"
	 xmlns="http://www.w3.org/2000/svg" xmlns:xlink="http://www.w3.org/1999/xlink"
	 x="0px" y="0px" width="48px" height="48px" viewBox="-6.861 -2.625 48 48">
<defs>
</defs>
<path fill="#52CAF5" d="M34.277,39.937c0,1.553-1.258,2.813-2.812,2.813H2.812C1.259,42.75,0,41.49,0,39.937V2.812
	C0,1.257,1.259,0,2.812,0h28.654c1.554,0,2.812,1.257,2.812,2.812V39.937z"/>
<path fill="#3588A6" d="M31.466,0H4.665l25.203,42.75h1.598c1.554,0,2.812-1.26,2.812-2.813V2.812C34.277,1.257,33.02,0,31.466,0z"
	/>
<rect x="4.506" y="33.193" fill="#F79523" width="25.769" height="1.094"/>
<rect x="4.202" y="35.931" fill="#F79523" width="25.77" height="3.129"/>
<g>
	<path fill="#FCB51E" d="M15.307,30.613v-3.26h0.004l-0.013-0.814c0-0.741,0.129-1.37,0.384-1.868
		c0.258-0.5,0.732-1.025,1.451-1.608c0.853-0.696,1.054-0.912,1.101-0.973c0.129-0.172,0.191-0.353,0.191-0.56
		c0-0.298-0.114-0.54-0.36-0.76c-0.257-0.226-0.623-0.342-1.084-0.342c-0.455,0-0.82,0.122-1.116,0.373
		c-0.299,0.251-0.51,0.662-0.631,1.221l-0.097,0.448l-2.994-0.376l0.029-0.468c0.066-1.089,0.536-2.027,1.396-2.787
		c0.846-0.75,1.961-1.13,3.315-1.13c1.422,0,2.575,0.386,3.429,1.146c0.872,0.767,1.316,1.689,1.316,2.738
		c0,0.594-0.168,1.161-0.5,1.684c-0.317,0.499-0.94,1.132-1.907,1.936c-0.567,0.465-0.719,0.705-0.758,0.787
		c-0.036,0.074-0.119,0.331-0.107,1.068l0.005,0.287h0.205v3.26H15.307z"/>
	<path fill="#FFFFFF" d="M16.883,18.208c1.298,0,2.331,0.337,3.096,1.019c0.768,0.675,1.149,1.465,1.149,2.365
		c0,0.498-0.14,0.971-0.422,1.416c-0.282,0.443-0.882,1.051-1.805,1.818c-0.479,0.393-0.773,0.713-0.89,0.955
		c-0.114,0.24-0.166,0.674-0.156,1.293h-2.049c-0.005-0.293-0.009-0.473-0.009-0.535c0-0.664,0.11-1.213,0.329-1.641
		c0.222-0.43,0.66-0.912,1.32-1.447c0.657-0.537,1.052-0.889,1.181-1.055c0.198-0.264,0.297-0.55,0.297-0.867
		c0-0.44-0.176-0.818-0.526-1.132c-0.352-0.31-0.824-0.47-1.418-0.47c-0.575,0-1.054,0.165-1.439,0.492
		c-0.385,0.324-0.651,0.826-0.796,1.497l-2.074-0.261c0.059-0.96,0.468-1.771,1.228-2.443
		C14.655,18.542,15.651,18.208,16.883,18.208 M18.065,27.853v2.26h-2.259v-2.26H18.065 M16.883,17.208
		c-1.48,0-2.707,0.423-3.648,1.256c-0.961,0.851-1.487,1.904-1.562,3.13l-0.057,0.937l0.931,0.117l2.074,0.261l0.909,0.114
		l0.193-0.896c0.095-0.442,0.255-0.768,0.462-0.942c0.132-0.112,0.354-0.257,0.795-0.257c0.341,0,0.589,0.072,0.757,0.22
		c0.154,0.138,0.187,0.253,0.187,0.382c0,0.071-0.012,0.153-0.097,0.267c-0.012,0.013-0.183,0.202-1.014,0.88
		c-0.77,0.624-1.287,1.202-1.576,1.763c-0.293,0.573-0.44,1.278-0.44,2.1l0.004,0.274l0.005,0.27v0.771v2.26v1h1h2.259h1v-1v-2.26
		v-1h-0.211c0.006-0.492,0.062-0.645,0.064-0.652c0,0.001,0,0.001,0,0.001c0.001,0,0.11-0.188,0.616-0.603
		c1.012-0.842,1.669-1.513,2.015-2.055c0.384-0.606,0.578-1.263,0.578-1.953c0-1.199-0.501-2.247-1.489-3.116
		C19.696,17.636,18.432,17.208,16.883,17.208L16.883,17.208z"/>
</g>
<path fill="#FFFFFF" d="M3.184,14.896V4.122h7.387v1.822H5.358v2.55h4.499v1.824H5.358v4.578H3.184z"/>
<path fill="#FFFFFF" d="M20.495,14.896h-2.367l-0.939-2.448h-4.306l-0.89,2.448H9.686l4.197-10.774h2.3L20.495,14.896z
	 M16.49,10.633l-1.483-3.998l-1.455,3.998H16.49z"/>
<path fill="#FFFFFF" d="M29.57,13.528c0.532,0.383,1.114,0.686,1.741,0.913l-0.801,1.534c-0.328-0.096-0.647-0.231-0.962-0.404
	c-0.071-0.034-0.552-0.352-1.448-0.955c-0.708,0.31-1.487,0.463-2.347,0.463c-1.655,0-2.952-0.488-3.89-1.463
	c-0.938-0.975-1.407-2.345-1.407-4.109c0-1.758,0.47-3.126,1.412-4.104c0.938-0.977,2.216-1.466,3.826-1.466
	c1.601,0,2.865,0.489,3.801,1.466c0.937,0.978,1.405,2.346,1.405,4.104c0,0.932-0.131,1.751-0.391,2.457
	C30.315,12.501,30,13.023,29.57,13.528z M27.82,12.301c0.28-0.329,0.49-0.725,0.629-1.19c0.14-0.465,0.21-1,0.21-1.604
	c0-1.243-0.274-2.174-0.823-2.789c-0.549-0.615-1.266-0.921-2.153-0.921c-0.887,0-1.605,0.308-2.156,0.925
	c-0.551,0.618-0.828,1.545-0.828,2.785c0,1.26,0.277,2.202,0.828,2.827c0.551,0.625,1.248,0.938,2.089,0.938
	c0.314,0,0.611-0.053,0.89-0.155c-0.439-0.289-0.89-0.515-1.345-0.676l0.61-1.243C26.487,11.444,27.171,11.811,27.82,12.301z"/>
</svg>
