<?xml version="1.0" encoding="utf-8"?>
<svg version="1.1"
	 xmlns="http://www.w3.org/2000/svg" xmlns:xlink="http://www.w3.org/1999/xlink"
	 x="0px" y="0px" width="48px" height="48px" viewBox="-2.688 -2.5 48 48">
<defs>
</defs>
<path fill="#3588A6" d="M42.625,40.5c0,1.657-1.445,3-3.225,3H3.224C1.443,43.5,0,42.157,0,40.5V3c0-1.657,1.443-3,3.224-3H39.4
	c1.779,0,3.225,1.343,3.225,3V40.5z"/>
<path fill="#52CAF5" d="M39.4,43.5H3.224C1.443,43.5,0,42.157,0,40.5V3C0.632,3.936,39.064,42.79,39.4,43.5z"/>
<path fill="#FFFFFF" d="M38.927,3.788c-1.664-1.419-3.629-2.169-5.683-2.169c-2.296,0-4.475,0.947-5.978,2.598L18.912,13.4
	c0,0,1.183-0.388,2.522-0.079c1.691,0.39,2.363,1.397,2.363,1.397l6.547-7.197c0.732-0.806,1.777-1.268,2.867-1.268
	c0.966,0,1.891,0.358,2.604,1.008c0.765,0.695,1.213,1.648,1.262,2.684c0.049,1.035-0.308,2.026-1.003,2.791l-9.252,10.172
	c-1.442,1.588-3.489,1.769-5.237,0.423l-0.901-0.698l-0.915,0.683c-0.376,0.282-0.798,0.482-1.253,0.595l-2.581,0.639l1.929,1.928
	c0.063,0.068,0.128,0.137,0.229,0.229c1.703,1.466,3.675,2.24,5.701,2.24c2.301,0,4.526-0.995,6.106-2.731l9.759-10.728
	C42.288,12.594,42.749,7.44,38.927,3.788z"/>
<path fill="#FFFFFF" d="M25.893,19.51c-0.27-0.515-1.003-1.461-1.697-2.072c-0.039-0.042-0.079-0.084-0.154-0.153
	c-1.706-1.466-3.679-2.241-5.707-2.241c-2.301,0-4.525,0.995-6.104,2.73L2.472,28.5c-2.631,2.893-3.092,8.045,0.731,11.699
	c1.664,1.42,3.629,2.17,5.684,2.17c2.294,0,4.473-0.946,5.977-2.599l7.8-8.597c0,0-0.912,0.201-2.688-0.499
	c-1.267-0.499-1.802-1.201-1.802-1.201l-6.387,6.991c-0.734,0.806-1.78,1.268-2.87,1.268c-0.965,0-1.891-0.358-2.605-1.008
	c-1.58-1.438-1.695-3.895-0.257-5.476l9.252-10.17c1.444-1.587,3.733-2.511,5.481-1.161c0,0,0.791,0.836,0.898,1.246
	c0.064,0.249,1.439,0.951,2.756,0.693C25.714,21.609,26.342,20.367,25.893,19.51z"/>
<path fill="#D1D3D4" d="M38.926,3.788c-1.664-1.419-3.629-2.169-5.682-2.169c-2.296,0-4.475,0.947-5.978,2.598l-8.333,9.16
	c0,0,1.051-0.371,2.5-0.018c1.477,0.36,2.35,1.373,2.35,1.373l6.56-7.209c0.732-0.806,1.777-1.268,2.867-1.268
	c0.966,0,1.891,0.358,2.604,1.008c0.765,0.695,1.213,1.648,1.262,2.684c0.049,1.035-0.308,2.026-1.003,2.791l-9.251,10.172
	c-0.789,0.866-1.771,1.343-2.767,1.343c-0.61,0-1.227-0.172-1.769-0.472l-1.579-1.133l-0.865,0.636c0,0,5.098,5.581,5.354,5.536
	c1.799-0.314,3.446-1.223,4.702-2.604l9.759-10.728C42.288,12.594,42.749,7.44,38.926,3.788z"/>
<path fill="#D1D3D4" d="M26.016,19.857c-0.164-0.838-0.87-1.648-1.82-2.421c-0.039-0.041-0.079-0.083-0.154-0.152
	c-1.706-1.466-3.679-2.241-5.707-2.241c-1.723,0-3.453,0.575-4.87,1.621l3.203,3.398c1.418-0.813,3.916-1.115,4.958,1.04
	C22.544,23.002,26.412,21.882,26.016,19.857z"/>
</svg>
