<?xml version="1.0" encoding="utf-8"?>
<svg version="1.1"
	 xmlns="http://www.w3.org/2000/svg" xmlns:xlink="http://www.w3.org/1999/xlink"
	 x="0px" y="0px" width="48px" height="48px" viewBox="-3.833 -7.793 48 48">
<defs>
</defs>
<path fill="#F79523" d="M23.493,0h-8.316c-2.067,0-3.742,1.676-3.742,3.742v5.821c0,1.97,1.527,3.568,3.461,3.714
	c-0.837-0.687-1.383-1.716-1.383-2.883V5.405c0-2.066,0.428-2.495,2.495-2.495h6.445c2.066,0,2.494,0.428,2.494,2.495v4.989
	c0,1.181-0.557,2.221-1.412,2.907c2.048-0.024,3.699-1.686,3.699-3.738V3.742C27.234,1.676,25.559,0,23.493,0z"/>
<path fill="#52CAF5" d="M18.919,18.086L39.5,11.339v-0.112c0-2.067-1.675-3.743-3.741-3.743H3.742c-2.009,0-3.636,1.587-3.725,3.575
	L18.919,18.086z"/>
<path fill="#52CAF5" d="M19.126,20.79L0,13.403v15.286c0,2.067,1.676,3.742,3.742,3.742h32.017c2.066,0,3.741-1.675,3.741-3.742
	V13.621L19.126,20.79z"/>
<path fill="#C8691C" d="M16.57,2.91h5.883c2.066,0,2.494,0.428,2.494,2.495v4.989c0,1.181-0.557,2.221-1.412,2.907
	c2.048-0.024,3.699-1.686,3.699-3.738V3.742C27.234,1.676,25.559,0,23.493,0h-8.316c-0.068,0-0.132,0.017-0.2,0.02L16.57,2.91z"/>
<path fill="#3588A6" d="M35.759,7.484H19.09l4.925,8.932L39.5,11.339v-0.112C39.5,9.16,37.826,7.484,35.759,7.484z"/>
<path fill="#3588A6" d="M25.24,18.638l7.604,13.794h2.916c2.066,0,3.741-1.675,3.741-3.742V13.621L25.24,18.638z"/>
</svg>
