<?xml version="1.0" encoding="utf-8"?>
<svg version="1.1"
	 xmlns="http://www.w3.org/2000/svg" xmlns:xlink="http://www.w3.org/1999/xlink"
	 x="0px" y="0px" width="24px" height="24px" viewBox="-1 -2.063 24 24">
<defs>
</defs>
<path fill="#C8691C" d="M21.687,12.4c0,0.846-0.692,1.539-1.539,1.539H2.524c-0.846,0-1.539-0.693-1.539-1.539V7.099
	c0-0.847,0.692-1.539,1.539-1.539h13.512c0.846,0,2.092,0.415,2.77,0.922l1.65,1.237c0.677,0.507,1.231,1.614,1.231,2.459V12.4z"/>
<rect x="2.967" fill="#52CAF5" width="15.044" height="14.761"/>
<path fill="#F79523" d="M13.122,4.765c-0.847,0-1.539,0.645-1.539,1.432c0,0.788,0.054,4.164-2.308,3.74H1.538
	C0.692,9.937,0,10.628,0,11.475v7.923c0,0.847,0.692,1.539,1.538,1.539h18.98c0.846,0,1.538-0.692,1.538-1.539v-7.426
	c0-0.846,0-2.169,0-2.94c0-0.771,0-2.046,0-2.834c0-0.787-0.692-1.432-1.538-1.432H13.122z"/>
</svg>
