<?xml version="1.0" encoding="utf-8"?>
<svg version="1.1"
	 xmlns="http://www.w3.org/2000/svg" xmlns:xlink="http://www.w3.org/1999/xlink"
	 x="0px" y="0px" width="28px" height="28px" viewBox="-3.149 -1.599 28 28">
<defs>
</defs>
<path fill="#F79523" d="M0.824,0.005v25.149h20.686V0.005H0.824z M18.875,22.488H3.458V2.671h15.417V22.488z"/>
<polygon fill="#C8691C" points="11.594,0 11.594,2.667 18.875,2.671 18.875,22.488 11.508,22.488 11.508,25.154 21.509,25.154 
	21.509,0.005 "/>
<rect y="4.449" fill="#52CAF5" width="21.968" height="4.921"/>
<polygon fill="#3588A6" points="11.652,4.431 11.652,9.349 21.922,9.37 21.922,4.449 "/>
<rect x="6.103" y="11.555" fill="#52CAF5" width="9.763" height="2.188"/>
<polygon fill="#3588A6" points="11.594,11.555 11.594,13.742 15.845,13.751 15.845,11.563 "/>
<rect x="6.103" y="17.3" fill="#52CAF5" width="9.763" height="2.188"/>
<polygon fill="#3588A6" points="11.594,17.292 11.594,19.48 15.845,19.489 15.845,17.3 "/>
</svg>
