<?xml version="1.0" encoding="utf-8"?>
<!-- Generator: Adobe Illustrator 15.0.0, SVG Export Plug-In  -->
<!DOCTYPE svg PUBLIC "-//W3C//DTD SVG 1.1//EN" "http://www.w3.org/Graphics/SVG/1.1/DTD/svg11.dtd" [
	<!ENTITY ns_flows "http://ns.adobe.com/Flows/1.0/">
]>
<svg version="1.1"
	 xmlns="http://www.w3.org/2000/svg" x="0px" y="0px" width="48px" height="48px" viewBox="-10.342 -5.092 48 48"
	 xml:space="preserve">
<defs>
</defs>
<path d="M24.291,1.413V4.88c0,0.813-0.658,1.472-1.471,1.472c-0.814,0-1.473-0.659-1.473-1.472V1.413h-3.195V4.88
	c0,0.813-0.658,1.472-1.471,1.472c-0.813,0-1.473-0.659-1.473-1.472V1.413h-3.194V4.88c0,0.813-0.659,1.472-1.471,1.472
	c-0.813,0-1.472-0.659-1.472-1.472V1.413H5.877V4.88c0,0.813-0.659,1.472-1.471,1.472c-0.813,0-1.472-0.659-1.472-1.472V1.413H0
	v27.83v8.573h27.316V1.413H24.291z M13.214,16.194c0.037-0.036,0.077-0.066,0.117-0.095l4.792-4.791c0.35-0.351,0.917-0.351,1.268,0
	c0.351,0.349,0.348,0.916,0,1.267l-3.394,3.394h5.737c0.732,0,0.883,0.342,0.885,0.762l0.001,0.255c0,0.42-0.153,0.763-0.886,0.762
	l-5.699,0.001l3.345,3.347c0.351,0.348,0.351,0.916,0,1.266c-0.351,0.351-0.917,0.351-1.269,0.002l-4.878-4.88
	c-0.003-0.003-0.005-0.006-0.009-0.008c-0.003-0.004-0.005-0.006-0.009-0.01l-0.001-0.001
	C12.863,17.112,12.863,16.544,13.214,16.194z M3.199,12.312h6.616v9.036H3.199V12.312z M24.175,32.777H3.361v-1.129h20.814V32.777z
	 M24.175,28.864H3.361v-1.13h20.814V28.864z"/>
<path d="M4.831,4.678c0,0.221-0.196,0.396-0.438,0.396c-0.242,0-0.438-0.176-0.438-0.396V0.396C3.955,0.178,4.15,0,4.393,0
	c0.242,0,0.438,0.178,0.438,0.396V4.678z"/>
<path d="M11.002,4.678c0,0.221-0.196,0.396-0.438,0.396c-0.242,0-0.438-0.176-0.438-0.396V0.396C10.126,0.178,10.323,0,10.563,0
	c0.242,0,0.438,0.178,0.438,0.396L11.002,4.678L11.002,4.678z"/>
<path d="M17.175,4.678c0,0.221-0.196,0.396-0.438,0.396s-0.438-0.176-0.438-0.396V0.396C16.299,0.178,16.494,0,16.736,0
	s0.438,0.178,0.438,0.396L17.175,4.678L17.175,4.678z"/>
<path d="M23.346,4.678c0,0.221-0.195,0.396-0.438,0.396c-0.243,0-0.438-0.176-0.438-0.396V0.396C22.471,0.178,22.667,0,22.908,0
	c0.242,0,0.438,0.178,0.438,0.396L23.346,4.678L23.346,4.678z"/>
</svg>
