<?xml version="1.0" encoding="utf-8"?>
<!-- Generator: Adobe Illustrator 15.0.0, SVG Export Plug-In  -->
<!DOCTYPE svg PUBLIC "-//W3C//DTD SVG 1.1//EN" "http://www.w3.org/Graphics/SVG/1.1/DTD/svg11.dtd" [
	<!ENTITY ns_flows "http://ns.adobe.com/Flows/1.0/">
]>
<svg version="1.1"
	 xmlns="http://www.w3.org/2000/svg" x="0px" y="0px" width="48px" height="48px" viewBox="-6.861 -2.625 48 48"
	 xml:space="preserve">
<defs>
</defs>
<path d="M16.883,18.208c-1.232,0-2.228,0.334-2.984,1.004c-0.76,0.672-1.169,1.483-1.228,2.443l2.074,0.261
	c0.145-0.671,0.411-1.173,0.796-1.497c0.385-0.327,0.864-0.492,1.439-0.492c0.594,0,1.066,0.16,1.418,0.47
	c0.35,0.314,0.525,0.692,0.525,1.132c0,0.317-0.099,0.603-0.297,0.868c-0.129,0.166-0.523,0.518-1.181,1.055
	c-0.66,0.535-1.098,1.017-1.32,1.447c-0.219,0.428-0.329,0.977-0.329,1.641c0,0.063,0.004,0.242,0.009,0.535h2.049
	c-0.01-0.619,0.041-1.053,0.156-1.293c0.116-0.242,0.41-0.563,0.889-0.955c0.924-0.768,1.523-1.375,1.806-1.818
	c0.282-0.445,0.422-0.918,0.422-1.416c0-0.9-0.381-1.69-1.149-2.365C19.214,18.545,18.182,18.208,16.883,18.208z"/>
<rect x="15.806" y="27.854" width="2.258" height="2.26"/>
<polygon points="15.007,6.635 13.552,10.633 16.49,10.633 "/>
<path d="M25.684,5.797c-0.888,0-1.605,0.308-2.156,0.925c-0.551,0.618-0.828,1.545-0.828,2.785c0,1.26,0.277,2.202,0.828,2.827
	s1.248,0.938,2.089,0.938c0.313,0,0.61-0.053,0.89-0.155c-0.439-0.289-0.89-0.515-1.345-0.676l0.61-1.243
	c0.715,0.246,1.399,0.613,2.049,1.103c0.279-0.329,0.49-0.725,0.629-1.19c0.14-0.465,0.21-1,0.21-1.604
	c0-1.243-0.274-2.174-0.823-2.789C27.287,6.103,26.57,5.797,25.684,5.797z"/>
<path d="M31.466,0H2.812C1.259,0,0,1.257,0,2.812v37.125c0,1.553,1.259,2.813,2.812,2.813h28.653c1.555,0,2.813-1.26,2.813-2.813
	V2.812C34.277,1.257,33.02,0,31.466,0z M16.183,4.122l4.312,10.774h-2.367l-0.939-2.448h-4.306l-0.89,2.448H9.686l4.197-10.774
	H16.183z M18.854,26.855h0.211v1v2.26v1h-1h-2.258h-1v-1v-2.26v-0.771l-0.005-0.27l-0.004-0.274c0-0.822,0.147-1.526,0.44-2.101
	c0.289-0.561,0.806-1.139,1.576-1.763c0.832-0.678,1.001-0.867,1.014-0.88c0.085-0.114,0.097-0.196,0.097-0.267
	c0-0.129-0.033-0.244-0.188-0.382c-0.167-0.148-0.416-0.22-0.756-0.22c-0.441,0-0.663,0.146-0.795,0.257
	c-0.207,0.174-0.367,0.5-0.462,0.942l-0.193,0.896l-0.909-0.114l-2.074-0.261l-0.931-0.117l0.057-0.938
	c0.075-1.226,0.601-2.279,1.562-3.13c0.941-0.833,2.168-1.256,3.648-1.256c1.549,0,2.813,0.428,3.756,1.269
	c0.987,0.869,1.488,1.917,1.488,3.116c0,0.69-0.193,1.347-0.578,1.953c-0.346,0.542-1.003,1.213-2.015,2.056
	c-0.507,0.414-0.615,0.603-0.616,0.603c0,0,0,0,0-0.001C18.916,26.21,18.859,26.363,18.854,26.855z M3.184,4.122h7.387v1.822H5.358
	v2.55h4.499v1.824H5.358v4.578H3.184V4.122z M29.973,39.061H4.202v-3.129h25.771V39.061z M30.51,15.975
	c-0.328-0.096-0.646-0.231-0.962-0.404c-0.071-0.034-0.552-0.352-1.448-0.955c-0.707,0.31-1.486,0.463-2.347,0.463
	c-1.655,0-2.952-0.488-3.89-1.463c-0.938-0.975-1.407-2.345-1.407-4.109c0-1.758,0.47-3.126,1.412-4.104
	c0.938-0.977,2.216-1.466,3.825-1.466c1.602,0,2.865,0.489,3.802,1.466C30.432,6.381,30.9,7.749,30.9,9.507
	c0,0.932-0.131,1.751-0.392,2.457c-0.194,0.537-0.509,1.059-0.938,1.564c0.531,0.383,1.113,0.686,1.74,0.913L30.51,15.975z"/>
</svg>
