<?xml version="1.0" encoding="utf-8"?>
<!-- Generator: Adobe Illustrator 15.0.0, SVG Export Plug-In  -->
<!DOCTYPE svg PUBLIC "-//W3C//DTD SVG 1.1//EN" "http://www.w3.org/Graphics/SVG/1.1/DTD/svg11.dtd" [
	<!ENTITY ns_flows "http://ns.adobe.com/Flows/1.0/">
]>
<svg version="1.1"
	 xmlns="http://www.w3.org/2000/svg" xmlns:xlink="http://www.w3.org/1999/xlink" xmlns:a="http://ns.adobe.com/AdobeSVGViewerExtensions/3.0/"
	 x="0px" y="0px" width="48px" height="48px" viewBox="-2.688 -2.25 48 48"
	 xml:space="preserve">
<defs>
</defs>
<path d="M39.4,0H3.224C1.443,0,0,1.343,0,3v37.5c0,1.657,1.443,3,3.224,3H39.4c1.779,0,3.225-1.343,3.225-3V3
	C42.625,1.343,41.18,0,39.4,0z M14.864,39.77c-1.504,1.653-3.683,2.6-5.977,2.6c-2.055,0-4.02-0.75-5.684-2.17
	C-0.62,36.545-0.159,31.393,2.472,28.5l9.759-10.726c1.579-1.735,3.803-2.73,6.104-2.73c2.028,0,4.001,0.775,5.707,2.241
	c0.075,0.069,0.115,0.111,0.153,0.153c0.695,0.611,1.428,1.557,1.697,2.072c0.449,0.857-0.179,2.099-1.451,2.346
	c-1.316,0.258-2.691-0.444-2.755-0.693c-0.107-0.41-0.898-1.246-0.898-1.246c-1.748-1.35-4.037-0.426-5.481,1.161l-9.252,10.17
	c-1.438,1.581-1.323,4.038,0.257,5.477c0.714,0.649,1.64,1.008,2.605,1.008c1.09,0,2.136-0.463,2.87-1.269l6.387-6.991
	c0,0,0.535,0.702,1.802,1.201c1.776,0.7,2.688,0.499,2.688,0.499L14.864,39.77z M39.659,15.488L29.9,26.216
	c-1.58,1.736-3.805,2.731-6.106,2.731c-2.026,0-3.998-0.774-5.701-2.24c-0.101-0.092-0.166-0.161-0.229-0.229l-1.929-1.929
	l2.581-0.639c0.455-0.113,0.877-0.313,1.253-0.595l0.915-0.684l0.901,0.698c1.748,1.346,3.795,1.165,5.237-0.423l9.252-10.172
	c0.695-0.765,1.052-1.756,1.003-2.791c-0.05-1.036-0.497-1.989-1.263-2.684c-0.713-0.65-1.637-1.008-2.604-1.008
	c-1.09,0-2.135,0.462-2.867,1.268l-6.547,7.197c0,0-0.672-1.007-2.363-1.397c-1.339-0.309-2.522,0.079-2.522,0.079l8.354-9.183
	c1.504-1.651,3.683-2.598,5.979-2.598c2.054,0,4.02,0.75,5.683,2.169C42.749,7.44,42.288,12.594,39.659,15.488z"/>
</svg>
