<?xml version="1.0" encoding="utf-8"?>
<svg version="1.1"
	 xmlns="http://www.w3.org/2000/svg" xmlns:xlink="http://www.w3.org/1999/xlink"
	 x="0px" y="0px" width="48px" height="48px" viewBox="-3.219 -3.117 48 48">
<defs>
</defs>
<path fill="#52CAF5" d="M39.527,7.319H2.342C1.048,7.319,0,8.368,0,9.661v22.545c0,1.293,1.048,2.342,2.342,2.342h37.185
	c1.292,0,2.341-1.049,2.341-2.342V9.661C41.868,8.368,40.819,7.319,39.527,7.319z M39.087,30.688c0,1.402,0.121,1.371-1.171,1.371
	H3.952c-1.293,0-1.17,0.031-1.17-1.371v-19.51c0-1.403-0.123-1.372,1.17-1.372h33.964c1.292,0,1.171-0.032,1.171,1.372V30.688z"/>
<rect x="8.344" y="14.785" fill="#52CAF5" width="25.765" height="2.343"/>
<rect x="8.344" y="20.056" fill="#52CAF5" width="25.765" height="2.341"/>
<rect x="8.344" y="25.325" fill="#52CAF5" width="25.765" height="2.342"/>
<path fill="#F79523" d="M5.417,10.979c0,0,3.602-10.726,13.761-10.976c7.903-0.195,11.265,7.472,11.265,7.472l-9.509-0.008
	c0,0-0.871-2.774-5.362-2.423C10.203,5.464,5.417,10.979,5.417,10.979z"/>
<path fill="#F79523" d="M4.991,24.416L3.873,37.625l4.008-3.146c0,0,4.878,6.732,10.595,7.158
	c7.361,0.545,12.359-7.145,12.359-7.145l-10.616,0.04l-5.753-4.638l4.296-3.148L4.991,24.416z"/>
<path fill="#C6781A" d="M30.816,34.511c0,0-0.663,0.974-1.135,1.446s-9.462-1.425-9.462-1.425L30.816,34.511z"/>
<polygon fill="#3588A6" points="27.446,27.667 34.109,27.667 34.109,25.325 26.415,25.325 "/>
<path fill="#3588A6" d="M39.527,7.319H18.495l1.096,2.488h18.326c1.292,0,1.171-0.032,1.171,1.372v19.51
	c0,1.402,0.121,1.371-1.171,1.371h-8.539l1.094,2.488h9.056c1.292,0,2.341-1.049,2.341-2.342V9.661
	C41.868,8.368,40.819,7.319,39.527,7.319z"/>
<path fill="#C8691C" d="M17.523,5.108c2.797,0.439,3.411,2.359,3.411,2.359l9.509,0.008c0,0-3.362-7.667-11.265-7.472
	c-1.324,0.032-2.532,0.25-3.64,0.592L17.523,5.108z"/>
<polygon fill="#3588A6" points="25.127,22.396 34.109,22.396 34.109,20.056 24.097,20.056 "/>
<polygon fill="#3588A6" points="22.809,17.128 34.109,17.128 34.109,14.785 21.779,14.785 "/>
</svg>
