<?xml version="1.0" encoding="utf-8"?>
<!-- Generator: Adobe Illustrator 15.0.0, SVG Export Plug-In  -->
<!DOCTYPE svg PUBLIC "-//W3C//DTD SVG 1.1//EN" "http://www.w3.org/Graphics/SVG/1.1/DTD/svg11.dtd" [
	<!ENTITY ns_flows "http://ns.adobe.com/Flows/1.0/">
]>
<svg version="1.1"
	 xmlns="http://www.w3.org/2000/svg" xmlns:xlink="http://www.w3.org/1999/xlink" xmlns:a="http://ns.adobe.com/AdobeSVGViewerExtensions/3.0/"
	 x="0px" y="0px" width="48px" height="48px" viewBox="-3.219 -3.117 48 48" enable-background="new -3.219 -3.117 48 48"
	 xml:space="preserve">
<defs>
</defs>
<polygon display="none" fill="#F79523" points="16.313,1.265 16.313,8.981 18.708,8.981 18.708,3.748 38.875,3.748 38.875,38.516 
	18.708,38.516 18.708,31.865 16.313,31.865 16.313,41 41.269,41 41.269,1.265 "/>
<path display="none" fill="#3588A6" d="M29.073,18.226H13.625c-0.831-2.672-3.324-4.613-6.268-4.613
	c-3.625,0-6.564,2.938-6.564,6.564c0,3.624,2.938,6.563,6.564,6.563c2.944,0,5.438-1.939,6.268-4.611h6.048
	c-0.022,0.103-0.035,0.211-0.035,0.321v1.664c0,0.862,0.745,1.562,1.664,1.562c0.917,0,1.663-0.699,1.663-1.562V22.45
	c0-0.11-0.013-0.219-0.036-0.321h2.344v2.505c0,0.979,0.795,1.771,1.774,1.771c0.979,0,1.773-0.793,1.773-1.771v-2.505h0.253
	c1.273,0,2.306-0.874,2.306-1.951S30.346,18.226,29.073,18.226z M6.802,22.488c-1.481,0-2.681-1.2-2.681-2.68
	c0-1.482,1.2-2.682,2.681-2.682c1.48,0,2.681,1.2,2.681,2.682C9.483,21.289,8.282,22.488,6.802,22.488z"/>
<path fill="#52CAF5" d="M39.527,7.319H2.342C1.048,7.319,0,8.368,0,9.661v22.545c0,1.293,1.048,2.342,2.342,2.342h37.185
	c1.292,0,2.341-1.049,2.341-2.342V9.661C41.868,8.368,40.819,7.319,39.527,7.319z M39.087,30.688c0,1.402,0.121,1.371-1.171,1.371
	H3.952c-1.293,0-1.17,0.031-1.17-1.371v-19.51c0-1.403-0.123-1.372,1.17-1.372h33.964c1.292,0,1.171-0.032,1.171,1.372V30.688z"/>
<rect x="8.344" y="14.785" fill="#52CAF5" width="25.765" height="2.343"/>
<rect x="8.344" y="20.056" fill="#52CAF5" width="25.765" height="2.341"/>
<rect x="8.344" y="25.325" fill="#52CAF5" width="25.765" height="2.342"/>
<path fill="#F79523" d="M5.417,10.979c0,0,3.602-10.726,13.761-10.976c7.903-0.195,11.265,7.472,11.265,7.472l-9.509-0.008
	c0,0-0.871-2.774-5.362-2.423C10.203,5.464,5.417,10.979,5.417,10.979z"/>
<path fill="#F79523" d="M4.991,24.416L3.873,37.625l4.008-3.146c0,0,4.878,6.732,10.595,7.158
	c7.361,0.545,12.359-7.145,12.359-7.145l-10.616,0.04l-5.753-4.638l4.296-3.148L4.991,24.416z"/>
<path fill="#C6781A" d="M30.816,34.511c0,0-0.663,0.974-1.135,1.446s-9.462-1.425-9.462-1.425L30.816,34.511z"/>
<polygon fill="#3588A6" points="27.446,27.667 34.109,27.667 34.109,25.325 26.415,25.325 "/>
<path fill="#3588A6" d="M39.527,7.319H18.495l1.096,2.488h18.326c1.292,0,1.171-0.032,1.171,1.372v19.51
	c0,1.402,0.121,1.371-1.171,1.371h-8.539l1.094,2.488h9.056c1.292,0,2.341-1.049,2.341-2.342V9.661
	C41.868,8.368,40.819,7.319,39.527,7.319z"/>
<path fill="#C8691C" d="M17.523,5.108c2.797,0.439,3.411,2.359,3.411,2.359l9.509,0.008c0,0-3.362-7.667-11.265-7.472
	c-1.324,0.032-2.532,0.25-3.64,0.592L17.523,5.108z"/>
<polygon fill="#3588A6" points="25.127,22.396 34.109,22.396 34.109,20.056 24.097,20.056 "/>
<polygon fill="#3588A6" points="22.809,17.128 34.109,17.128 34.109,14.785 21.779,14.785 "/>
</svg>
