<?xml version="1.0" encoding="utf-8"?>
<svg version="1.1"
	 xmlns="http://www.w3.org/2000/svg" xmlns:xlink="http://www.w3.org/1999/xlink"
	 x="0px" y="0px" width="48px" height="48px" viewBox="-1.829 -10.09 48 48">
<defs>
</defs>
<path fill="#52CAF5" d="M39.44,0H2.337C1.046,0,0,1.048,0,2.337v22.496c0,1.291,1.046,2.338,2.337,2.338H39.44
	c1.289,0,2.336-1.047,2.336-2.338V2.337C41.776,1.048,40.729,0,39.44,0z M39.001,23.316c0,1.404,0.122,1.369-1.167,1.369H3.945
	c-1.291,0-1.169,0.035-1.169-1.369V3.853c0-1.401-0.122-1.37,1.169-1.37h33.89c1.289,0,1.167-0.031,1.167,1.37V23.316z"/>
<rect x="8.326" y="7.451" fill="#52CAF5" width="25.708" height="2.336"/>
<rect x="8.326" y="12.709" fill="#52CAF5" width="25.708" height="2.338"/>
<rect x="8.326" y="17.969" fill="#52CAF5" width="25.708" height="2.336"/>
<polygon fill="#3588A6" points="27.385,20.305 34.035,20.305 34.035,17.969 26.357,17.969 "/>
<path fill="#3588A6" d="M39.44,0H18.456l1.092,2.483h18.287c1.289,0,1.167-0.031,1.167,1.37v19.463c0,1.404,0.122,1.369-1.167,1.369
	h-8.521l1.092,2.485h9.035c1.289,0,2.336-1.047,2.336-2.338V2.337C41.776,1.048,40.729,0,39.44,0z"/>
<polygon fill="#3588A6" points="25.073,15.047 34.035,15.047 34.035,12.709 24.045,12.709 "/>
<polygon fill="#3588A6" points="22.76,9.788 34.035,9.788 34.035,7.451 21.732,7.451 "/>
<path fill="#F79523" d="M44.288,18.232c0,7.734-6.273,14.005-14.009,14.005c-7.731,0-14.003-6.271-14.003-14.005
	c0-7.733,6.272-14.004,14.003-14.004C38.014,4.229,44.288,10.499,44.288,18.232z"/>
<path fill="#C8691C" d="M33.237,31.901c6.321-1.353,11.062-6.965,11.062-13.687c0-7.735-6.271-14.005-14.006-14.005
	c-3.191,0-6.123,1.08-8.479,2.877L33.237,31.901z"/>
<path fill="#FFFFFF" d="M32.703,18.652c0,1.065-0.86,1.928-1.924,1.928c-1.066,0-1.927-0.862-1.927-1.928s0.86-1.927,1.927-1.927
	C31.842,16.726,32.703,17.587,32.703,18.652z"/>
<polygon fill="#FFFFFF" points="29.793,23.525 30.092,5.603 31.434,5.603 31.945,23.525 "/>
<polygon fill="#FFFFFF" points="34.316,21.301 21.701,15.741 22.283,14.435 35.07,19.588 "/>
</svg>
