<?xml version="1.0" encoding="utf-8"?>
<svg version="1.1"
	 xmlns="http://www.w3.org/2000/svg" xmlns:xlink="http://www.w3.org/1999/xlink"
	 x="0px" y="0px" width="48px" height="48px" viewBox="-3.9 -3.5 48 48">
<defs>
</defs>
<rect x="10" y="9" fill="#52CAF5" width="20.2" height="2.4"/>
<rect x="10" y="14.7" fill="#52CAF5" width="20.2" height="2.4"/>
<rect x="10" y="20.4" fill="#52CAF5" width="10.4" height="2.4"/>
<rect x="20.3" y="9" fill="#3588A6" width="9.9" height="2.4"/>
<rect x="20.3" y="14.7" fill="#3588A6" width="9.9" height="2.4"/>
<rect x="20.3" y="20.4" fill="#3588A6" width="5.1" height="2.4"/>
<path fill="#52CAF5" d="M34.6,4.3c0,0.1,0,0.1,0,0.2v19.1c0,1.4-0.9,2.6-2.1,2.6H20.9l-6.4,7.7l-1.3-7.6L10.3,30l2.3,10.8L23,29.4
	h12.5c1.4,0,2.6-1.4,2.6-3.2v-25c0-0.4-0.1-0.8-0.2-1.2L34.6,4.3z"/>
<path fill="#52CAF5" d="M13.2,26.5H5.7c-1.2,0-2.1-1.2-2.1-2.6V4.8c0-0.1,0-0.1,0-0.2L0.2,0.3C0.1,0.7,0,1.1,0,1.5v25
	c0,1.8,1.2,3.2,2.6,3.2h10.6V26.5z"/>
<path fill="#3588A6" d="M37.9,0l-3.4,4.3c0,0.1,0,0.1,0,0.2v19.1c0,1.4-0.9,2.6-2.1,2.6H20.9l-0.6,0.7v5.5l2.7-2.9h12.5
	c1.4,0,2.6-1.4,2.6-3.2v-25C38.1,0.8,38,0.4,37.9,0z"/>
<polygon fill="#52CAF5" points="0.2,0.3 37.9,0 34.6,4.5 3.6,4.6 "/>
<polygon fill="#3588A6" points="20.2,0.2 37.9,0 34.6,4.5 20.2,4.6 "/>
<circle fill="#C8691C" cx="33.3" cy="24.5" r="7.5"/>
<path fill="#FFFFFF" stroke="#FFFFFF" stroke-width="0.5" stroke-miterlimit="10" d="M32.5,26.3l0-0.3c-0.1-0.7,0.2-1.4,0.8-2.2
	c0.6-0.7,0.9-1.2,0.9-1.8c0-0.7-0.4-1.1-1.2-1.1c-0.5,0-1,0.2-1.3,0.4l-0.3-0.8c0.4-0.3,1.2-0.5,1.8-0.5c1.5,0,2.1,0.9,2.1,1.9
	c0,0.9-0.5,1.5-1.1,2.2c-0.6,0.7-0.8,1.2-0.7,1.9l0,0.3H32.5z M32.2,28.1c0-0.5,0.3-0.8,0.8-0.8c0.5,0,0.8,0.3,0.8,0.8
	c0,0.4-0.3,0.8-0.8,0.8C32.5,28.9,32.2,28.5,32.2,28.1z"/>
</svg>
